[
    {
        "segment_id": "0ca9db7a984211ef86663436ac12006b",
        "text": "秦霜忙着工作 电话里传来了凯尔副总的声音",
        "audio_url": "https://v9-vvecloud.yangyi08.com/62cb29610ebe48962b61cb069152b50a/6724c573/video/tos/cn/tos-cn-v-2cd6b0/o4AkAASREYkBIo2JJvQZ3EAIOykvtiizAg8Ax/?a=7073&ch=0&cr=0&dr=0&&br=0&bt=0&ft=xztlUQhhe6BMyq-yUupJD12Nzj&mime_type=audio_mpeg&rc=QGlAYSNz&btag=80000000008000&dy_q=1730459491&l=202411011911178591AD8D4861BA816F07&format=mp3",
        "source_timerange": {
            "start_offset": 0,
            "end_offset": 4.18
        },
        "target_timerange": {
            "start_offset": 0,
            "end_offset": 4.18
        },
        "ignore_audio": false,
        "audio_path": null
    },
    {
        "segment_id": "0ca9e246984211ef86663436ac12006b",
        "text": "她显得有些不耐烦 直言事情都已商定",
        "audio_url": "https://v9-vvecloud.yangyi08.com/326af227e952500f5b91989b286f4b67/6724c572/video/tos/cn/tos-cn-v-2cd6b0/oIIDnJAndqhLiBSzfKdAAZACEBCsJLAIhgfFRb/?a=7073&ch=0&cr=0&dr=0&&br=0&bt=0&ft=xztlUQhhe6BMyqNyUupJD12Nzj&mime_type=audio_mpeg&rc=QGlAYSNz&btag=80000000008000&dy_q=1730459490&l=202411011911178591AD8D4861BA816F07&format=mp3",
        "source_timerange": {
            "start_offset": 0,
            "end_offset": 3.74
        },
        "target_timerange": {
            "start_offset": 4.18,
            "end_offset": 7.92
        },
        "ignore_audio": false,
        "audio_path": null
    },
    {
        "segment_id": "0ca9e67e984211ef86663436ac12006b",
        "text": "根本不想再去查看资料",
        "audio_url": "https://v3-vvecloud.yangyi08.com/607877097853d62fe248456f622e20c0/6724c573/video/tos/cn/tos-cn-v-2cd6b0/ocwl2BQ22iALjAqzBbATEtEkfuRAsAAh1B0Iki/?a=7073&ch=0&cr=0&dr=0&&br=0&bt=0&ft=xztlUQhhe6BMyq-yUupJD12Nzj&mime_type=audio_mpeg&rc=QGlAYSNz&btag=80000000008000&dy_q=1730459491&l=202411011911178591AD8D4861BA816F07&format=mp3",
        "source_timerange": {
            "start_offset": 0,
            "end_offset": 2.34
        },
        "target_timerange": {
            "start_offset": 7.92,
            "end_offset": 10.26
        },
        "ignore_audio": false,
        "audio_path": null
    },
    {
        "segment_id": "0ca9ea84984211ef86663436ac12006b",
        "text": "可我知道 作为一个公司的总裁",
        "audio_url": "https://v6-vvecloud.yangyi08.com/7cfdc5fb40a7187f1c6f90d92de895f0/6724c572/video/tos/cn/tos-cn-v-2cd6b0/oEQI4kiAQAFuEkh2REuwt2QEBfB2iAAz7AAzlE/?a=7073&ch=0&cr=0&dr=0&&br=0&bt=0&ft=xztlUQhhe6BMyqNyUupJD12Nzj&mime_type=audio_mpeg&rc=QGlAYSNz&btag=80000000008000&dy_q=1730459490&l=202411011911178591AD8D4861BA816F07&format=mp3",
        "source_timerange": {
            "start_offset": 0,
            "end_offset": 3.130000000000001
        },
        "target_timerange": {
            "start_offset": 10.26,
            "end_offset": 13.39
        },
        "ignore_audio": false,
        "audio_path": null
    },
    {
        "segment_id": "0ca9ee94984211ef86663436ac12006b",
        "text": "她的心里其实是有些焦虑的",
        "audio_url": "https://v3-vvecloud.yangyi08.com/21b5c658c11d219f20c3a2ded2dfca9e/6724c572/video/tos/cn/tos-cn-v-2cd6b0/ogAWBtYkpiAArRlAEziB12fiEAIJQumVAhkwlI/?a=7073&ch=0&cr=0&dr=0&&br=0&bt=0&ft=xztlUQhhe6BMyqNyUupJD12Nzj&mime_type=audio_mpeg&rc=QGlAYSNz&btag=80000000008000&dy_q=1730459490&l=202411011911178591AD8D4861BA816F07&format=mp3",
        "source_timerange": {
            "start_offset": 0,
            "end_offset": 2.66
        },
        "target_timerange": {
            "start_offset": 13.39,
            "end_offset": 16.05
        },
        "ignore_audio": false,
        "audio_path": null
    },
    {
        "segment_id": "0ca9f240984211ef86663436ac12006b",
        "text": "挂掉电话后 她就像进入了关机模式",
        "audio_url": "https://v9-vvecloud.yangyi08.com/d6d4c485846cda568a99a5e60f7a0ae6/6724c572/video/tos/cn/tos-cn-v-2cd6b0/owAD7HAOIIe7WeABWbOEJGsCSI7yESAeAFbLBj/?a=7073&ch=0&cr=0&dr=0&&br=0&bt=0&ft=xztlUQhhe6BMyqNyUupJD12Nzj&mime_type=audio_mpeg&rc=QGlAYSNz&btag=80000000008000&dy_q=1730459490&l=202411011911178591AD8D4861BA816F07&format=mp3",
        "source_timerange": {
            "start_offset": 0,
            "end_offset": 3.6400000000000006
        },
        "target_timerange": {
            "start_offset": 16.05,
            "end_offset": 19.69
        },
        "ignore_audio": false,
        "audio_path": null
    },
    {
        "segment_id": "0ca9f5a6984211ef86663436ac12006b",
        "text": "换上了一袭黑色的薄纱长裙 优雅而迷人",
        "audio_url": "https://v6-vvecloud.yangyi08.com/423a80227b6d333cefecf9f3259e4efc/6724c572/video/tos/cn/tos-cn-v-2cd6b0/oQAIA6Ap45y3tE2Ko3EkZkiABSAgJODQiYvgC/?a=7073&ch=0&cr=0&dr=0&&br=0&bt=0&ft=xztlUQhhe6BMyqNyUupJD12Nzj&mime_type=audio_mpeg&rc=QGlAYSNz&btag=80000000008000&dy_q=1730459490&l=202411011911178591AD8D4861BA816F07&format=mp3",
        "source_timerange": {
            "start_offset": 0,
            "end_offset": 4.099999999999998
        },
        "target_timerange": {
            "start_offset": 19.69,
            "end_offset": 23.79
        },
        "ignore_audio": false,
        "audio_path": null
    },
    {
        "segment_id": "0ca9f902984211ef86663436ac12006b",
        "text": "我在电影室里早已准备好了这一切 只等她的到来",
        "audio_url": "https://v3-vvecloud.yangyi08.com/bc0ec4edf82a7e33584c5c9acf4c3fd5/6724c572/video/tos/cn/tos-cn-v-2cd6b0/oMHnJAD5IABEABzPfiCgIVAFYLJhfwJdslLRCb/?a=7073&ch=0&cr=0&dr=0&&br=0&bt=0&ft=xztlUQhhe6BMyqNyUupJD12Nzj&mime_type=audio_mpeg&rc=QGlAYSNz&btag=80000000008000&dy_q=1730459490&l=202411011911178591AD8D4861BA816F07&format=mp3",
        "source_timerange": {
            "start_offset": 0,
            "end_offset": 4.25
        },
        "target_timerange": {
            "start_offset": 23.79,
            "end_offset": 28.04
        },
        "ignore_audio": false,
        "audio_path": null
    },
    {
        "segment_id": "0ca9fc04984211ef86663436ac12006b",
        "text": "看着她走进来 我的心情瞬间变得欢愉",
        "audio_url": "https://v26-vvecloud.yangyi08.com/554bc837ab59a9a16943d99e08aeb300/6724c572/video/tos/cn/tos-cn-v-2cd6b0/owEkEAAAItukBHBz2iA2fvE8IuxRwiAQh0l2A1/?a=7073&ch=0&cr=0&dr=0&&br=0&bt=0&ft=xztlUQhhe6BMyqNyUupJD12Nzj&mime_type=audio_mpeg&rc=QGlAYSNz&btag=80000000008000&dy_q=1730459490&l=202411011911178591AD8D4861BA816F07&format=mp3",
        "source_timerange": {
            "start_offset": 0,
            "end_offset": 3.9200000000000017
        },
        "target_timerange": {
            "start_offset": 28.04,
            "end_offset": 31.96
        },
        "ignore_audio": false,
        "audio_path": null
    },
    {
        "segment_id": "0ca9fed4984211ef86663436ac12006b",
        "text": "今晚是我们第一次一起看电影 我的心里充满期待",
        "audio_url": "https://v3-vvecloud.yangyi08.com/9b8ffb9db999e20f13f9e238e2616dd8/6724c572/video/tos/cn/tos-cn-v-2cd6b0/oEKcOZ2EvSwyiArizoB03gIYTAQAkAtnkIAME/?a=7073&ch=0&cr=0&dr=0&&br=0&bt=0&ft=xztlUQhhe6BMyqNyUupJD12Nzj&mime_type=audio_mpeg&rc=QGlAYSNz&btag=80000000008000&dy_q=1730459490&l=202411011911178591AD8D4861BA816F07&format=mp3",
        "source_timerange": {
            "start_offset": 0,
            "end_offset": 4.280000000000001
        },
        "target_timerange": {
            "start_offset": 31.96,
            "end_offset": 36.24
        },
        "ignore_audio": false,
        "audio_path": null
    },
    {
        "segment_id": "0caa0154984211ef86663436ac12006b",
        "text": "“今晚看什么电影？”她的声音里带着些许紧张",
        "audio_url": "https://v3-vvecloud.yangyi08.com/9eb80797aa21b2e16605fa013ec3832d/6724c572/video/tos/cn/tos-cn-v-2cd6b0/owHL6ECVIfjEB7ADYeKhJIWcOsAbeGToSAIAFB/?a=7073&ch=0&cr=0&dr=0&&br=0&bt=0&ft=xztlUQhhe6BMyqNyUupJD12Nzj&mime_type=audio_mpeg&rc=QGlAYSNz&btag=80000000008000&dy_q=1730459490&l=202411011911178591AD8D4861BA816F07&format=mp3",
        "source_timerange": {
            "start_offset": 0,
            "end_offset": 4.140000000000001
        },
        "target_timerange": {
            "start_offset": 36.24,
            "end_offset": 40.38
        },
        "ignore_audio": false,
        "audio_path": null
    },
    {
        "segment_id": "0caa044c984211ef86663436ac12006b",
        "text": "我微笑着告诉她是《怦然心动》",
        "audio_url": "https://v26-vvecloud.yangyi08.com/d47eab4f1bb42f4b5e79d037c88b351e/6724c573/video/tos/cn/tos-cn-v-2cd6b0/ogAA5IEEEAgnhpJfftFCk6AqK2dKsiCFDBLRA8/?a=7073&ch=0&cr=0&dr=0&&br=0&bt=0&ft=xztlUQhhe6BMyq-yUupJD12Nzj&mime_type=audio_mpeg&rc=QGlAYSNz&btag=80000000008000&dy_q=1730459491&l=202411011911178591AD8D4861BA816F07&format=mp3",
        "source_timerange": {
            "start_offset": 0,
            "end_offset": 2.739999999999995
        },
        "target_timerange": {
            "start_offset": 40.38,
            "end_offset": 43.12
        },
        "ignore_audio": false,
        "audio_path": null
    },
    {
        "segment_id": "0caa06f4984211ef86663436ac12006b",
        "text": "她的脸上立刻浮现出一抹红晕",
        "audio_url": "https://v26-vvecloud.yangyi08.com/3dde8ca525b958ff2381bfb79c217416/6724c573/video/tos/cn/tos-cn-v-2cd6b0/okECSTTFBWeGfLCGAAAjsFe7EyBLJbIOAIIIHQ/?a=7073&ch=0&cr=0&dr=0&&br=0&bt=0&ft=xztlUQhhe6BMyq-yUupJD12Nzj&mime_type=audio_mpeg&rc=QGlAYSNz&btag=80000000008000&dy_q=1730459491&l=202411011911178591AD8D4861BA816F07&format=mp3",
        "source_timerange": {
            "start_offset": 0,
            "end_offset": 2.950000000000003
        },
        "target_timerange": {
            "start_offset": 43.12,
            "end_offset": 46.07
        },
        "ignore_audio": false,
        "audio_path": null
    },
    {
        "segment_id": "0caa0956984211ef86663436ac12006b",
        "text": "仿佛被我的选择打动",
        "audio_url": "https://v9-vvecloud.yangyi08.com/a2ac6d8ba94125f1dcbbd5310221e0f4/6724c573/video/tos/cn/tos-cn-v-2cd6b0/oAYSSsCooyAiv3tA3kAQKkANBZEvEIIg2AciQ/?a=7073&ch=0&cr=0&dr=0&&br=0&bt=0&ft=xztlUQhhe6BMyq-yUupJD12Nzj&mime_type=audio_mpeg&rc=QGlAYSNz&btag=80000000008000&dy_q=1730459491&l=202411011911178591AD8D4861BA816F07&format=mp3",
        "source_timerange": {
            "start_offset": 0,
            "end_offset": 2.200000000000003
        },
        "target_timerange": {
            "start_offset": 46.07,
            "end_offset": 48.27
        },
        "ignore_audio": false,
        "audio_path": null
    },
    {
        "segment_id": "0caa0b9a984211ef86663436ac12006b",
        "text": "我示意阿东关上门窗与灯光",
        "audio_url": "https://v3-vvecloud.yangyi08.com/9928e76741e7b35e4d694a038fe14c7c/6724c572/video/tos/cn/tos-cn-v-2cd6b0/oEzAhYkHwAzElBiI6AZEm2LAAkRuQRfAEutBih/?a=7073&ch=0&cr=0&dr=0&&br=0&bt=0&ft=xztlUQhhe6BMyqNyUupJD12Nzj&mime_type=audio_mpeg&rc=QGlAYSNz&btag=80000000008000&dy_q=1730459490&l=202411011911178591AD8D4861BA816F07&format=mp3",
        "source_timerange": {
            "start_offset": 0,
            "end_offset": 2.9499999999999957
        },
        "target_timerange": {
            "start_offset": 48.27,
            "end_offset": 51.22
        },
        "ignore_audio": false,
        "audio_path": null
    },
    {
        "segment_id": "0caa0d66984211ef86663436ac12006b",
        "text": "按下遥控 电影开始了",
        "audio_url": "https://v6-vvecloud.yangyi08.com/7298ed41b577425d63896585b619a64d/6724c572/video/tos/cn/tos-cn-v-2cd6b0/osAIXtd2EdfEEWSCekGGeBLj7DFLAAWAAAHOE4/?a=7073&ch=0&cr=0&dr=0&&br=0&bt=0&ft=xztlUQhhe6BMyqNyUupJD12Nzj&mime_type=audio_mpeg&rc=QGlAYSNz&btag=80000000008000&dy_q=1730459490&l=202411011911178591AD8D4861BA816F07&format=mp3",
        "source_timerange": {
            "start_offset": 0,
            "end_offset": 2.740000000000002
        },
        "target_timerange": {
            "start_offset": 51.22,
            "end_offset": 53.96
        },
        "ignore_audio": false,
        "audio_path": null
    },
    {
        "segment_id": "0caa0f28984211ef86663436ac12006b",
        "text": "坐下时 她不小心蹭到了我的大腿",
        "audio_url": "https://v9-vvecloud.yangyi08.com/4dc33f1674d627efdaaeeb8d6ab8f362/6724c573/video/tos/cn/tos-cn-v-2cd6b0/o4BzAi1AuEtkwiAREhLfAKh2FwASAIQ1kzElBA/?a=7073&ch=0&cr=0&dr=0&&br=0&bt=0&ft=xztlUQhhe6BMyq-yUupJD12Nzj&mime_type=audio_mpeg&rc=QGlAYSNz&btag=80000000008000&dy_q=1730459491&l=202411011911178591AD8D4861BA816F07&format=mp3",
        "source_timerange": {
            "start_offset": 0,
            "end_offset": 3.3800000000000026
        },
        "target_timerange": {
            "start_offset": 53.96,
            "end_offset": 57.34
        },
        "ignore_audio": false,
        "audio_path": null
    },
    {
        "segment_id": "0caa10e0984211ef86663436ac12006b",
        "text": "惊得她立刻往一旁挪了挪 哈哈 真是可爱",
        "audio_url": "https://v26-vvecloud.yangyi08.com/9d60d52e247e1f92bd8f4c85224009e4/6724c573/video/tos/cn/tos-cn-v-2cd6b0/okAEiAXHEFCnGJAgERSDChRHLitAdfnkcAgfB2/?a=7073&ch=0&cr=0&dr=0&&br=0&bt=0&ft=xztlUQhhe6BMyq-yUupJD12Nzj&mime_type=audio_mpeg&rc=QGlAYSNz&btag=80000000008000&dy_q=1730459491&l=202411011911178591AD8D4861BA816F07&format=mp3",
        "source_timerange": {
            "start_offset": 0,
            "end_offset": 4.459999999999994
        },
        "target_timerange": {
            "start_offset": 57.34,
            "end_offset": 61.8
        },
        "ignore_audio": false,
        "audio_path": null
    },
    {
        "segment_id": "0caa12a2984211ef86663436ac12006b",
        "text": "“来吃个葡萄！”",
        "audio_url": "https://v6-vvecloud.yangyi08.com/db76c5f8b9c659fc2bd744931413ac4f/6724c572/video/tos/cn/tos-cn-v-2cd6b0/o8J5fAyEjIaFsEVeIBIAOpGOAfULIBDWCAy7bS/?a=7073&ch=0&cr=0&dr=0&&br=0&bt=0&ft=xztlUQhhe6BMyqNyUupJD12Nzj&mime_type=audio_mpeg&rc=QGlAYSNz&btag=80000000008000&dy_q=1730459490&l=202411011911178591AD8D4861BA816F07&format=mp3",
        "source_timerange": {
            "start_offset": 0,
            "end_offset": 1.5750000000000028
        },
        "target_timerange": {
            "start_offset": 61.8,
            "end_offset": 63.375
        },
        "ignore_audio": false,
        "audio_path": null
    },
    {
        "segment_id": "0caa145a984211ef86663436ac12006b",
        "text": "我一边说着 一边剥下葡萄皮 伸出手喂她",
        "audio_url": "https://v6-vvecloud.yangyi08.com/db76c5f8b9c659fc2bd744931413ac4f/6724c572/video/tos/cn/tos-cn-v-2cd6b0/o8J5fAyEjIaFsEVeIBIAOpGOAfULIBDWCAy7bS/?a=7073&ch=0&cr=0&dr=0&&br=0&bt=0&ft=xztlUQhhe6BMyqNyUupJD12Nzj&mime_type=audio_mpeg&rc=QGlAYSNz&btag=80000000008000&dy_q=1730459490&l=202411011911178591AD8D4861BA816F07&format=mp3",
        "source_timerange": {
            "start_offset": 1.5750000000000028,
            "end_offset": 5.469999999999999
        },
        "target_timerange": {
            "start_offset": 63.375,
            "end_offset": 67.27
        },
        "ignore_audio": true,
        "audio_path": null
    },
    {
        "segment_id": "0caa16e4984211ef86663436ac12006b",
        "text": "她想拒绝 但我的葡萄已经塞进了她的嘴里",
        "audio_url": "https://v9-vvecloud.yangyi08.com/e804e275f6586146f159ef58e1c6b36a/6724c572/video/tos/cn/tos-cn-v-2cd6b0/oYIQv8OEg22iA3S9kt1YyAZ0iAyxkuAJBEQAo/?a=7073&ch=0&cr=0&dr=0&&br=0&bt=0&ft=xztlUQhhe6BMyqNyUupJD12Nzj&mime_type=audio_mpeg&rc=QGlAYSNz&btag=80000000008000&dy_q=1730459490&l=202411011911178591AD8D4861BA816F07&format=mp3",
        "source_timerange": {
            "start_offset": 0,
            "end_offset": 4
        },
        "target_timerange": {
            "start_offset": 67.27,
            "end_offset": 71.27
        },
        "ignore_audio": false,
        "audio_path": null
    },
    {
        "segment_id": "0caa18c4984211ef86663436ac12006b",
        "text": "那一瞬间 我感受到她红唇的柔软",
        "audio_url": "https://v3-vvecloud.yangyi08.com/a00bfdf3f7ef429181576606cf7739fa/6724c573/video/tos/cn/tos-cn-v-2cd6b0/oABAkiRwuk32BtpAIfMAlJR0Qhi4AAAE2z88E9/?a=7073&ch=0&cr=0&dr=0&&br=0&bt=0&ft=xztlUQhhe6BMyq-yUupJD12Nzj&mime_type=audio_mpeg&rc=QGlAYSNz&btag=80000000008000&dy_q=1730459491&l=202411011911178591AD8D4861BA816F07&format=mp3",
        "source_timerange": {
            "start_offset": 0,
            "end_offset": 3.6700000000000017
        },
        "target_timerange": {
            "start_offset": 71.27,
            "end_offset": 74.94
        },
        "ignore_audio": false,
        "audio_path": null
    },
    {
        "segment_id": "0caa1a90984211ef86663436ac12006b",
        "text": "心里也随之火热",
        "audio_url": "https://v3-vvecloud.yangyi08.com/2a76fa3b01c5b2884b81297ce57a2519/6724c573/video/tos/cn/tos-cn-v-2cd6b0/ogUiFAFJSEDUhyACddAgfKEinkEJRCeACA2LtB/?a=7073&ch=0&cr=0&dr=0&&br=0&bt=0&ft=xztlUQhhe6BMyq-yUupJD12Nzj&mime_type=audio_mpeg&rc=QGlAYSNz&btag=80000000008000&dy_q=1730459491&l=202411011911178591AD8D4861BA816F07&format=mp3",
        "source_timerange": {
            "start_offset": 0,
            "end_offset": 2.230000000000004
        },
        "target_timerange": {
            "start_offset": 74.94,
            "end_offset": 77.17
        },
        "ignore_audio": false,
        "audio_path": null
    },
    {
        "segment_id": "0caa1c48984211ef86663436ac12006b",
        "text": "电影开始后 主角们的爱情故事",
        "audio_url": "https://v6-vvecloud.yangyi08.com/644112fed880e86cb8bb6d7289c458b8/6724c573/video/tos/cn/tos-cn-v-2cd6b0/ocDiAE4AdEtJiFFiYCIfAnX2meAsBRgBknELCA/?a=7073&ch=0&cr=0&dr=0&&br=0&bt=0&ft=xztlUQhhe6BMyq-yUupJD12Nzj&mime_type=audio_mpeg&rc=QGlAYSNz&btag=80000000008000&dy_q=1730459491&l=202411011911178591AD8D4861BA816F07&format=mp3",
        "source_timerange": {
            "start_offset": 0,
            "end_offset": 2.7549999999999955
        },
        "target_timerange": {
            "start_offset": 77.17,
            "end_offset": 79.925
        },
        "ignore_audio": false,
        "audio_path": null
    },
    {
        "segment_id": "0caa1e14984211ef86663436ac12006b",
        "text": "仿佛在映射我们的心情",
        "audio_url": "https://v6-vvecloud.yangyi08.com/644112fed880e86cb8bb6d7289c458b8/6724c573/video/tos/cn/tos-cn-v-2cd6b0/ocDiAE4AdEtJiFFiYCIfAnX2meAsBRgBknELCA/?a=7073&ch=0&cr=0&dr=0&&br=0&bt=0&ft=xztlUQhhe6BMyq-yUupJD12Nzj&mime_type=audio_mpeg&rc=QGlAYSNz&btag=80000000008000&dy_q=1730459491&l=202411011911178591AD8D4861BA816F07&format=mp3",
        "source_timerange": {
            "start_offset": 2.7549999999999955,
            "end_offset": 4.569999999999993
        },
        "target_timerange": {
            "start_offset": 79.925,
            "end_offset": 81.74
        },
        "ignore_audio": true,
        "audio_path": null
    },
    {
        "segment_id": "0caa1fea984211ef86663436ac12006b",
        "text": "秦霜紧紧握着我的手 虽然她的手有些颤抖",
        "audio_url": "https://v26-vvecloud.yangyi08.com/8b7dfa863f13569765c4270739f9f528/6724c573/video/tos/cn/tos-cn-v-2cd6b0/oUfREidkq9i6AAVk8zBLE4EtgAF2AnCLJfDCAE/?a=7073&ch=0&cr=0&dr=0&&br=0&bt=0&ft=xztlUQhhe6BMyq-yUupJD12Nzj&mime_type=audio_mpeg&rc=QGlAYSNz&btag=80000000008000&dy_q=1730459491&l=202411011911178591AD8D4861BA816F07&format=mp3",
        "source_timerange": {
            "start_offset": 0,
            "end_offset": 4.070000000000007
        },
        "target_timerange": {
            "start_offset": 81.74,
            "end_offset": 85.81
        },
        "ignore_audio": false,
        "audio_path": null
    },
    {
        "segment_id": "0caa21a2984211ef86663436ac12006b",
        "text": "但她并没有挣脱",
        "audio_url": "https://v3-vvecloud.yangyi08.com/a5ad1344509a75382eb3cf5b7160ea28/6724c572/video/tos/cn/tos-cn-v-2cd6b0/oYERYREkeAI2A1DiBgfEFdCCAdEv2AKiALJnti/?a=7073&ch=0&cr=0&dr=0&&br=0&bt=0&ft=xztlUQhhe6BMyqNyUupJD12Nzj&mime_type=audio_mpeg&rc=QGlAYSNz&btag=80000000008000&dy_q=1730459490&l=202411011911178591AD8D4861BA816F07&format=mp3",
        "source_timerange": {
            "start_offset": 0,
            "end_offset": 2.019999999999996
        },
        "target_timerange": {
            "start_offset": 85.81,
            "end_offset": 87.83
        },
        "ignore_audio": false,
        "audio_path": null
    },
    {
        "segment_id": "0caa235a984211ef86663436ac12006b",
        "text": "就在这个安静的时刻 我们的心灵仿佛在靠近",
        "audio_url": "https://v26-vvecloud.yangyi08.com/bc59f30a99939da89af9ea846a0488a6/6724c572/video/tos/cn/tos-cn-v-2cd6b0/oQviZAAIBiiAoSAkAmkEECW1gIAntY3L2yyQD/?a=7073&ch=0&cr=0&dr=0&&br=0&bt=0&ft=xztlUQhhe6BMyqNyUupJD12Nzj&mime_type=audio_mpeg&rc=QGlAYSNz&btag=80000000008000&dy_q=1730459490&l=202411011911178591AD8D4861BA816F07&format=mp3",
        "source_timerange": {
            "start_offset": 0,
            "end_offset": 4.070000000000007
        },
        "target_timerange": {
            "start_offset": 87.83,
            "end_offset": 91.9
        },
        "ignore_audio": false,
        "audio_path": null
    },
    {
        "segment_id": "0caa251c984211ef86663436ac12006b",
        "text": "随着剧情的发展 我注意到她的眼眶渐渐湿润",
        "audio_url": "https://v9-vvecloud.yangyi08.com/94524b9b194aa4a4a4180700af1df0f4/6724c573/video/tos/cn/tos-cn-v-2cd6b0/osQ0YBAy1vQkItEZ3ASpBogviiXmVIAA2EAkE/?a=7073&ch=0&cr=0&dr=0&&br=0&bt=0&ft=xztlUQhhe6BMyq-yUupJD12Nzj&mime_type=audio_mpeg&rc=QGlAYSNz&btag=80000000008000&dy_q=1730459491&l=202411011911178591AD8D4861BA816F07&format=mp3",
        "source_timerange": {
            "start_offset": 0,
            "end_offset": 4.280000000000001
        },
        "target_timerange": {
            "start_offset": 91.9,
            "end_offset": 96.18
        },
        "ignore_audio": false,
        "audio_path": null
    },
    {
        "segment_id": "0caa26de984211ef86663436ac12006b",
        "text": "忍不住流下泪水",
        "audio_url": "https://v26-vvecloud.yangyi08.com/10da8143ea5402f28e2ec0862df4f72c/6724c573/video/tos/cn/tos-cn-v-2cd6b0/ognACfJXiBaILCFR9AiISsSAAJiFgrfBcdbDEg/?a=7073&ch=0&cr=0&dr=0&&br=0&bt=0&ft=xztlUQhhe6BMyq-yUupJD12Nzj&mime_type=audio_mpeg&rc=QGlAYSNz&btag=80000000008000&dy_q=1730459491&l=202411011911178591AD8D4861BA816F07&format=mp3",
        "source_timerange": {
            "start_offset": 0,
            "end_offset": 1.9799999999999898
        },
        "target_timerange": {
            "start_offset": 96.18,
            "end_offset": 98.16
        },
        "ignore_audio": false,
        "audio_path": null
    },
    {
        "segment_id": "0caa28aa984211ef86663436ac12006b",
        "text": "我轻轻揽过她的肩膀",
        "audio_url": "https://v26-vvecloud.yangyi08.com/d40ffde828ad1922146ebd24763ee5af/6724c573/video/tos/cn/tos-cn-v-2cd6b0/o8JAHktFFf7EWqEOjvfCBqQ22IE9EALkAAASeG/?a=7073&ch=0&cr=0&dr=0&&br=0&bt=0&ft=xztlUQhhe6BMyq-yUupJD12Nzj&mime_type=audio_mpeg&rc=QGlAYSNz&btag=80000000008000&dy_q=1730459491&l=202411011911178591AD8D4861BA816F07&format=mp3",
        "source_timerange": {
            "start_offset": 0,
            "end_offset": 2.200000000000003
        },
        "target_timerange": {
            "start_offset": 98.16,
            "end_offset": 100.36
        },
        "ignore_audio": false,
        "audio_path": null
    },
    {
        "segment_id": "0caa2aee984211ef86663436ac12006b",
        "text": "把她揽入怀中 默默递上纸巾",
        "audio_url": "https://v9-vvecloud.yangyi08.com/5e24084362b81a2644e71e5dceb0ce70/6724c572/video/tos/cn/tos-cn-v-2cd6b0/okA5EiG3JyIKotBg3QJZkckAA03SAYi6AEiv2/?a=7073&ch=0&cr=0&dr=0&&br=0&bt=0&ft=xztlUQhhe6BMyqNyUupJD12Nzj&mime_type=audio_mpeg&rc=QGlAYSNz&btag=80000000008000&dy_q=1730459490&l=202411011911178591AD8D4861BA816F07&format=mp3",
        "source_timerange": {
            "start_offset": 0,
            "end_offset": 3.3499999999999943
        },
        "target_timerange": {
            "start_offset": 100.36,
            "end_offset": 103.71
        },
        "ignore_audio": false,
        "audio_path": null
    },
    {
        "segment_id": "0caa2cba984211ef86663436ac12006b",
        "text": "为她擦去眼里的泪水",
        "audio_url": "https://v9-vvecloud.yangyi08.com/e39611606eb01b6487949593889803fd/6724c573/video/tos/cn/tos-cn-v-2cd6b0/o8AIAJAM0ByytE2Lo3EkZkiABSARzFnQiYvgs/?a=7073&ch=0&cr=0&dr=0&&br=0&bt=0&ft=xztlUQhhe6BMyq-yUupJD12Nzj&mime_type=audio_mpeg&rc=QGlAYSNz&btag=80000000008000&dy_q=1730459491&l=202411011911178591AD8D4861BA816F07&format=mp3",
        "source_timerange": {
            "start_offset": 0,
            "end_offset": 2.1200000000000045
        },
        "target_timerange": {
            "start_offset": 103.71,
            "end_offset": 105.83
        },
        "ignore_audio": false,
        "audio_path": null
    },
    {
        "segment_id": "0caa2e86984211ef86663436ac12006b",
        "text": "此刻的我 感受到了一种无可替代的幸福",
        "audio_url": "https://v6-vvecloud.yangyi08.com/7f7f4936d3b144aaa522657e37c8d60c/6724c573/video/tos/cn/tos-cn-v-2cd6b0/osDwAE2AdIbJiF3iWCUfBIAsfcAOBRgWJnILCA/?a=7073&ch=0&cr=0&dr=0&&br=0&bt=0&ft=xztlUQhhe6BMyq-yUupJD12Nzj&mime_type=audio_mpeg&rc=QGlAYSNz&btag=80000000008000&dy_q=1730459491&l=202411011911178591AD8D4861BA816F07&format=mp3",
        "source_timerange": {
            "start_offset": 0,
            "end_offset": 3.8900000000000006
        },
        "target_timerange": {
            "start_offset": 105.83,
            "end_offset": 109.72
        },
        "ignore_audio": false,
        "audio_path": null
    },
    {
        "segment_id": "0caa3048984211ef86663436ac12006b",
        "text": "我知道 这一夜的电影 不只是影像的交汇",
        "audio_url": "https://v9-vvecloud.yangyi08.com/64866ee6c312bd98c7b982263bc39f36/6724c573/video/tos/cn/tos-cn-v-2cd6b0/ogQAEE28W2eEJuEjFtSOEAW7fALM3AABF5fJkC/?a=7073&ch=0&cr=0&dr=0&&br=0&bt=0&ft=xztlUQhhe6BMyq-yUupJD12Nzj&mime_type=audio_mpeg&rc=QGlAYSNz&btag=80000000008000&dy_q=1730459491&l=202411011911178591AD8D4861BA816F07&format=mp3",
        "source_timerange": {
            "start_offset": 0,
            "end_offset": 4.030000000000001
        },
        "target_timerange": {
            "start_offset": 109.72,
            "end_offset": 113.75
        },
        "ignore_audio": false,
        "audio_path": null
    },
    {
        "segment_id": "0caa321e984211ef86663436ac12006b",
        "text": "更是我们心灵的契合",
        "audio_url": "https://v9-vvecloud.yangyi08.com/8d38cdaf27192a7157f33720ee297063/6724c572/video/tos/cn/tos-cn-v-2cd6b0/oAAiAQEM1Aov3tIgAEyAY3A2vUKDS3BBzkZki/?a=7073&ch=0&cr=0&dr=0&&br=0&bt=0&ft=xztlUQhhe6BMyqNyUupJD12Nzj&mime_type=audio_mpeg&rc=QGlAYSNz&btag=80000000008000&dy_q=1730459490&l=202411011911178591AD8D4861BA816F07&format=mp3",
        "source_timerange": {
            "start_offset": 0,
            "end_offset": 2.200000000000003
        },
        "target_timerange": {
            "start_offset": 113.75,
            "end_offset": 115.95
        },
        "ignore_audio": false,
        "audio_path": null
    },
    {
        "segment_id": "0caa33f4984211ef86663436ac12006b",
        "text": "这男的真是个大猪蹄子！女孩从二年级就喜欢他",
        "audio_url": "https://v9-vvecloud.yangyi08.com/a8fd068acb3c43123c77e217b18e872d/6724c572/video/tos/cn/tos-cn-v-2cd6b0/oMeTkJFFBACIALAetqGfEOE2SEA7Ktj4WLzEAx/?a=7073&ch=0&cr=0&dr=0&&br=0&bt=0&ft=xztlUQhhe6BMyqNyUupJD12Nzj&mime_type=audio_mpeg&rc=QGlAYSNz&btag=80000000008000&dy_q=1730459490&l=202411011911178591AD8D4861BA816F07&format=mp3",
        "source_timerange": {
            "start_offset": 0,
            "end_offset": 4.539999999999992
        },
        "target_timerange": {
            "start_offset": 115.95,
            "end_offset": 120.49
        },
        "ignore_audio": false,
        "audio_path": null
    },
    {
        "segment_id": "0caa35a2984211ef86663436ac12006b",
        "text": "她的内心经历了暗恋 矛盾 吃醋 挽回",
        "audio_url": "https://v6-vvecloud.yangyi08.com/c925c923a3b010190278b10b5997254f/6724c572/video/tos/cn/tos-cn-v-2cd6b0/o4CLIAQiZvLkABzGAY32gAEvk9yAEgSQotiuv/?a=7073&ch=0&cr=0&dr=0&&br=0&bt=0&ft=xztlUQhhe6BMyqNyUupJD12Nzj&mime_type=audio_mpeg&rc=QGlAYSNz&btag=80000000008000&dy_q=1730459490&l=202411011911178591AD8D4861BA816F07&format=mp3",
        "source_timerange": {
            "start_offset": 0,
            "end_offset": 4.75
        },
        "target_timerange": {
            "start_offset": 120.49,
            "end_offset": 125.24
        },
        "ignore_audio": false,
        "audio_path": null
    },
    {
        "segment_id": "0caa6cb6984211ef86663436ac12006b",
        "text": "对他好了那么多年 他竟然说她缠着他…",
        "audio_url": "https://v3-vvecloud.yangyi08.com/2037645adf65d95a37df29db3decc553/6724c572/video/tos/cn/tos-cn-v-2cd6b0/oI3kDikviSJI2AyEXAgY7QcAo9ZBAl9o4EtYA/?a=7073&ch=0&cr=0&dr=0&&br=0&bt=0&ft=xztlUQhhe6BMyqNyUupJD12Nzj&mime_type=audio_mpeg&rc=QGlAYSNz&btag=80000000008000&dy_q=1730459490&l=202411011911178591AD8D4861BA816F07&format=mp3",
        "source_timerange": {
            "start_offset": 0,
            "end_offset": 3.7390000000000185
        },
        "target_timerange": {
            "start_offset": 125.24,
            "end_offset": 128.979
        },
        "ignore_audio": false,
        "audio_path": null
    },
    {
        "segment_id": "0caa6ee6984211ef86663436ac12006b",
        "text": "她们在一起 真不容易！秦霜的声音中透着感慨",
        "audio_url": "https://v3-vvecloud.yangyi08.com/e9233ce9b6568c4254541e4929e4833c/6724c572/video/tos/cn/tos-cn-v-2cd6b0/oI2ItLZTAkqLAiivQ3iAy5bB3glYkAEMAEoAS/?a=7073&ch=0&cr=0&dr=0&&br=0&bt=0&ft=xztlUQhhe6BMyqNyUupJD12Nzj&mime_type=audio_mpeg&rc=QGlAYSNz&btag=80000000008000&dy_q=1730459490&l=202411011911178591AD8D4861BA816F07&format=mp3",
        "source_timerange": {
            "start_offset": 0,
            "end_offset": 4.900999999999982
        },
        "target_timerange": {
            "start_offset": 128.979,
            "end_offset": 133.88
        },
        "ignore_audio": false,
        "audio_path": null
    },
    {
        "segment_id": "0caa70b2984211ef86663436ac12006b",
        "text": "仿佛在诉说着自己的心声",
        "audio_url": "https://v3-vvecloud.yangyi08.com/8a56c14f904d5a20807085f4116dadc1/6724c573/video/tos/cn/tos-cn-v-2cd6b0/oMvkE3ZYmYg8kIQAqSARwRtoLiAAyB2iEEcAq/?a=7073&ch=0&cr=0&dr=0&&br=0&bt=0&ft=xztlUQhhe6BMyq-yUupJD12Nzj&mime_type=audio_mpeg&rc=QGlAYSNz&btag=80000000008000&dy_q=1730459491&l=202411011911178591AD8D4861BA816F07&format=mp3",
        "source_timerange": {
            "start_offset": 0,
            "end_offset": 2.6599999999999966
        },
        "target_timerange": {
            "start_offset": 133.88,
            "end_offset": 136.54
        },
        "ignore_audio": false,
        "audio_path": null
    },
    {
        "segment_id": "0caa726a984211ef86663436ac12006b",
        "text": "我心里一阵波动 想到自己与秦霜之间的感情",
        "audio_url": "https://v26-vvecloud.yangyi08.com/94f8e11263a8046876d31e0aef6c340e/6724c573/video/tos/cn/tos-cn-v-2cd6b0/o4TnKxduACA9ARQ6gEFPJtCDif3f72LEAiBAkE/?a=7073&ch=0&cr=0&dr=0&&br=0&bt=0&ft=xztlUQhhe6BMyq-yUupJD12Nzj&mime_type=audio_mpeg&rc=QGlAYSNz&btag=80000000008000&dy_q=1730459491&l=202411011911178591AD8D4861BA816F07&format=mp3",
        "source_timerange": {
            "start_offset": 0,
            "end_offset": 4.140000000000015
        },
        "target_timerange": {
            "start_offset": 136.54,
            "end_offset": 140.68
        },
        "ignore_audio": false,
        "audio_path": null
    },
    {
        "segment_id": "0caa7490984211ef86663436ac12006b",
        "text": "似乎也有过相似的经历",
        "audio_url": "https://v6-vvecloud.yangyi08.com/69d6fb901eee5a2972da18aa1f4393c7/6724c573/video/tos/cn/tos-cn-v-2cd6b0/owrE2IRZADtJACGkUeFAgdEERCrJA3ifiABnAL/?a=7073&ch=0&cr=0&dr=0&&br=0&bt=0&ft=xztlUQhhe6BMyq-yUupJD12Nzj&mime_type=audio_mpeg&rc=QGlAYSNz&btag=80000000008000&dy_q=1730459491&l=202411011911178591AD8D4861BA816F07&format=mp3",
        "source_timerange": {
            "start_offset": 0,
            "end_offset": 2.4099999999999966
        },
        "target_timerange": {
            "start_offset": 140.68,
            "end_offset": 143.09
        },
        "ignore_audio": false,
        "audio_path": null
    },
    {
        "segment_id": "0caa771a984211ef86663436ac12006b",
        "text": "她的眼神中闪烁着对爱情的渴望 真让我心疼",
        "audio_url": "https://v9-vvecloud.yangyi08.com/bc78539f8e909471c6b502ed9795ebdd/6724c572/video/tos/cn/tos-cn-v-2cd6b0/oQOSAl9tEAWeCSgEEFAktBFhAjL2JEeOWAeG7I/?a=7073&ch=0&cr=0&dr=0&&br=0&bt=0&ft=xztlUQhhe6BMyqNyUupJD12Nzj&mime_type=audio_mpeg&rc=QGlAYSNz&btag=80000000008000&dy_q=1730459490&l=202411011911178591AD8D4861BA816F07&format=mp3",
        "source_timerange": {
            "start_offset": 0,
            "end_offset": 4.280000000000001
        },
        "target_timerange": {
            "start_offset": 143.09,
            "end_offset": 147.37
        },
        "ignore_audio": false,
        "audio_path": null
    },
    {
        "segment_id": "0caa7940984211ef86663436ac12006b",
        "text": "是啊！男的年少不知事",
        "audio_url": "https://v9-vvecloud.yangyi08.com/7522926daa0b0842008e274edfc4f28d/6724c573/video/tos/cn/tos-cn-v-2cd6b0/oE3Nyv3HYbuAikAAPEgAZo2kQQAEIYJBitu4S/?a=7073&ch=0&cr=0&dr=0&&br=0&bt=0&ft=xztlUQhhe6BMyq-yUupJD12Nzj&mime_type=audio_mpeg&rc=QGlAYSNz&btag=80000000008000&dy_q=1730459491&l=202411011911178591AD8D4861BA816F07&format=mp3",
        "source_timerange": {
            "start_offset": 0,
            "end_offset": 3.019999999999982
        },
        "target_timerange": {
            "start_offset": 147.37,
            "end_offset": 150.39
        },
        "ignore_audio": false,
        "audio_path": null
    },
    {
        "segment_id": "0caa7aee984211ef86663436ac12006b",
        "text": "忽略了身边那个最想对他好的人",
        "audio_url": "https://v26-vvecloud.yangyi08.com/d78052f5b23dd438cbf857852a6cfba3/6724c573/video/tos/cn/tos-cn-v-2cd6b0/ocLfCFDURiAIiEAiOkEEQdBCtA8g2qAUJnf48A/?a=7073&ch=0&cr=0&dr=0&&br=0&bt=0&ft=xztlUQhhe6BMyq-yUupJD12Nzj&mime_type=audio_mpeg&rc=QGlAYSNz&btag=80000000008000&dy_q=1730459491&l=202411011911178591AD8D4861BA816F07&format=mp3",
        "source_timerange": {
            "start_offset": 0,
            "end_offset": 2.7700000000000102
        },
        "target_timerange": {
            "start_offset": 150.39,
            "end_offset": 153.16
        },
        "ignore_audio": false,
        "audio_path": null
    },
    {
        "segment_id": "0caa7cc4984211ef86663436ac12006b",
        "text": "好在女主坚持了下来 走过了风风雨雨",
        "audio_url": "https://v3-vvecloud.yangyi08.com/3a3c7e3c92297033cb716e6e9b79043e/6724c573/video/tos/cn/tos-cn-v-2cd6b0/o8Yt2AAOnAAoxLMkBeFEgdDiiJCR2LAEE9f6CL/?a=7073&ch=0&cr=0&dr=0&&br=0&bt=0&ft=xztlUQhhe6BMyq-yUupJD12Nzj&mime_type=audio_mpeg&rc=QGlAYSNz&btag=80000000008000&dy_q=1730459491&l=202411011911178591AD8D4861BA816F07&format=mp3",
        "source_timerange": {
            "start_offset": 0,
            "end_offset": 3.640000000000015
        },
        "target_timerange": {
            "start_offset": 153.16,
            "end_offset": 156.8
        },
        "ignore_audio": false,
        "audio_path": null
    },
    {
        "segment_id": "0caa7e86984211ef86663436ac12006b",
        "text": "最终有情人终成眷属 我轻声回应",
        "audio_url": "https://v26-vvecloud.yangyi08.com/172f8a6fc7e424590c201d3631619989/6724c573/video/tos/cn/tos-cn-v-2cd6b0/ogIAotEZASkgyEikMIUY3vqAsAi7YB1ASkQ02/?a=7073&ch=0&cr=0&dr=0&&br=0&bt=0&ft=xztlUQhhe6BMyq-yUupJD12Nzj&mime_type=audio_mpeg&rc=QGlAYSNz&btag=80000000008000&dy_q=1730459491&l=202411011911178591AD8D4861BA816F07&format=mp3",
        "source_timerange": {
            "start_offset": 0,
            "end_offset": 3.6399999999999864
        },
        "target_timerange": {
            "start_offset": 156.8,
            "end_offset": 160.44
        },
        "ignore_audio": false,
        "audio_path": null
    },
    {
        "segment_id": "0caa8048984211ef86663436ac12006b",
        "text": "这时 我不禁想到了前世 如果没有重生的机会",
        "audio_url": "https://v9-vvecloud.yangyi08.com/7d328d8f6217806762eb741e4598605c/6724c573/video/tos/cn/tos-cn-v-2cd6b0/oski3AFJfEDKi9ACdsAgfGEPnkEIRpBACA2LtB/?a=7073&ch=0&cr=0&dr=0&&br=0&bt=0&ft=xztlUQhhe6BMyq-yUupJD12Nzj&mime_type=audio_mpeg&rc=QGlAYSNz&btag=80000000008000&dy_q=1730459491&l=202411011911178591AD8D4861BA816F07&format=mp3",
        "source_timerange": {
            "start_offset": 0,
            "end_offset": 4.75
        },
        "target_timerange": {
            "start_offset": 160.44,
            "end_offset": 165.19
        },
        "ignore_audio": false,
        "audio_path": null
    },
    {
        "segment_id": "0caa81f6984211ef86663436ac12006b",
        "text": "我哪里能重新体验这段感情呢？",
        "audio_url": "https://v9-vvecloud.yangyi08.com/df22c0cf3ec65a2a52de05ba9f6ba6fe/6724c573/video/tos/cn/tos-cn-v-2cd6b0/oAEZkytAivLiSJBEA4oMgkoA3InAAY5Kl2AAQ/?a=7073&ch=0&cr=0&dr=0&&br=0&bt=0&ft=xztlUQhhe6BMyq-yUupJD12Nzj&mime_type=audio_mpeg&rc=QGlAYSNz&btag=80000000008000&dy_q=1730459491&l=202411011911178591AD8D4861BA816F07&format=mp3",
        "source_timerange": {
            "start_offset": 0,
            "end_offset": 2.7700000000000102
        },
        "target_timerange": {
            "start_offset": 165.19,
            "end_offset": 167.96
        },
        "ignore_audio": false,
        "audio_path": null
    },
    {
        "segment_id": "0caa83b8984211ef86663436ac12006b",
        "text": "人呐 很多时候被自己的固有思想限制了",
        "audio_url": "https://v3-vvecloud.yangyi08.com/53345a2f6b1a47955ead995fc3666930/6724c573/video/tos/cn/tos-cn-v-2cd6b0/ocLvOEYgBEImAAQAyUA3WAqiByaSZot2i4Ukk/?a=7073&ch=0&cr=0&dr=0&&br=0&bt=0&ft=xztlUQhhe6BMyq-yUupJD12Nzj&mime_type=audio_mpeg&rc=QGlAYSNz&btag=80000000008000&dy_q=1730459491&l=202411011911178591AD8D4861BA816F07&format=mp3",
        "source_timerange": {
            "start_offset": 0,
            "end_offset": 4.030000000000001
        },
        "target_timerange": {
            "start_offset": 167.96,
            "end_offset": 171.99
        },
        "ignore_audio": false,
        "audio_path": null
    },
    {
        "segment_id": "0caa8570984211ef86663436ac12006b",
        "text": "我紧紧握住了秦霜的手",
        "audio_url": "https://v3-vvecloud.yangyi08.com/c87242034ec5ec7d1e24e0d4f735df5d/6724c573/video/tos/cn/tos-cn-v-2cd6b0/ogERZeIJ3BvgApDvBgfoFmCCAdIRsAQiALJnbi/?a=7073&ch=0&cr=0&dr=0&&br=0&bt=0&ft=xztlUQhhe6BMyq-yUupJD12Nzj&mime_type=audio_mpeg&rc=QGlAYSNz&btag=80000000008000&dy_q=1730459491&l=202411011911178591AD8D4861BA816F07&format=mp3",
        "source_timerange": {
            "start_offset": 0,
            "end_offset": 2.269999999999982
        },
        "target_timerange": {
            "start_offset": 171.99,
            "end_offset": 174.26
        },
        "ignore_audio": false,
        "audio_path": null
    },
    {
        "segment_id": "0caa871e984211ef86663436ac12006b",
        "text": "深情地说道：“我再也不会辜负她了！”",
        "audio_url": "https://v26-vvecloud.yangyi08.com/aed084db872aed73f1572ee9cd471ac0/6724c573/video/tos/cn/tos-cn-v-2cd6b0/oQBAdsDRFAoiJbJeARciCBSiYjxIICAfgnLFuE/?a=7073&ch=0&cr=0&dr=0&&br=0&bt=0&ft=xztlUQhhe6BMyq-yUupJD12Nzj&mime_type=audio_mpeg&rc=QGlAYSNz&btag=80000000008000&dy_q=1730459491&l=202411011911178591AD8D4861BA816F07&format=mp3",
        "source_timerange": {
            "start_offset": 0,
            "end_offset": 3.3799999999999955
        },
        "target_timerange": {
            "start_offset": 174.26,
            "end_offset": 177.64
        },
        "ignore_audio": false,
        "audio_path": null
    },
    {
        "segment_id": "0caa88d6984211ef86663436ac12006b",
        "text": "她感受到了我浓浓的爱意 虽然对我还有些疑问",
        "audio_url": "https://v26-vvecloud.yangyi08.com/70b765d03448ce8caebe67b1a1d55f55/6724c573/video/tos/cn/tos-cn-v-2cd6b0/oYIAotEZAxkgyEikOJos3vqAjAi7YBGASGQw2/?a=7073&ch=0&cr=0&dr=0&&br=0&bt=0&ft=xztlUQhhe6BMyq-yUupJD12Nzj&mime_type=audio_mpeg&rc=QGlAYSNz&btag=80000000008000&dy_q=1730459491&l=202411011911178591AD8D4861BA816F07&format=mp3",
        "source_timerange": {
            "start_offset": 0,
            "end_offset": 3.8500000000000227
        },
        "target_timerange": {
            "start_offset": 177.64,
            "end_offset": 181.49
        },
        "ignore_audio": false,
        "audio_path": null
    },
    {
        "segment_id": "0caa8b38984211ef86663436ac12006b",
        "text": "但此刻她的眼泪流了下来 开心地说：你真坏！",
        "audio_url": "https://v3-vvecloud.yangyi08.com/6b8f1742f48b962e94fbe9d97cfb3830/6724c573/video/tos/cn/tos-cn-v-2cd6b0/osZAoKyASuB3i2NEA3k2xg2ik7tEAviIJQmYA/?a=7073&ch=0&cr=0&dr=0&&br=0&bt=0&ft=xztlUQhhe6BMyq-yUupJD12Nzj&mime_type=audio_mpeg&rc=QGlAYSNz&btag=80000000008000&dy_q=1730459491&l=202411011911178591AD8D4861BA816F07&format=mp3",
        "source_timerange": {
            "start_offset": 0,
            "end_offset": 4.639999999999986
        },
        "target_timerange": {
            "start_offset": 181.49,
            "end_offset": 186.13
        },
        "ignore_audio": false,
        "audio_path": null
    },
    {
        "segment_id": "0caa8cfa984211ef86663436ac12006b",
        "text": "变着法的逗我！",
        "audio_url": "https://v3-vvecloud.yangyi08.com/7ca5542a693635cd328d32bc880429d4/6724c573/video/tos/cn/tos-cn-v-2cd6b0/oAEvKRBnCJktdFABeRAD2gAiCiAfCiyAwEAiEL/?a=7073&ch=0&cr=0&dr=0&&br=0&bt=0&ft=xztlUQhhe6BMyq-yUupJD12Nzj&mime_type=audio_mpeg&rc=QGlAYSNz&btag=80000000008000&dy_q=1730459491&l=202411011911178591AD8D4861BA816F07&format=mp3",
        "source_timerange": {
            "start_offset": 0,
            "end_offset": 1.7300000000000182
        },
        "target_timerange": {
            "start_offset": 186.13,
            "end_offset": 187.86
        },
        "ignore_audio": false,
        "audio_path": null
    },
    {
        "segment_id": "0caa8e9e984211ef86663436ac12006b",
        "text": "“我真没逗你 我认真的！”我一本正经地回道",
        "audio_url": "https://v9-vvecloud.yangyi08.com/507cbc6d81b583cf8828af481276e7d0/6724c573/video/tos/cn/tos-cn-v-2cd6b0/oY8e3WFESCBWSecQAQMAjAFmen7AYOYEMEjSQC/?a=7073&ch=0&cr=0&dr=0&&br=0&bt=0&ft=xztlUQhhe6BMyq-yUupJD12Nzj&mime_type=audio_mpeg&rc=QGlAYSNz&btag=80000000008000&dy_q=1730459491&l=202411011911178591AD8D4861BA816F07&format=mp3",
        "source_timerange": {
            "start_offset": 0,
            "end_offset": 4.179999999999978
        },
        "target_timerange": {
            "start_offset": 187.86,
            "end_offset": 192.04
        },
        "ignore_audio": false,
        "audio_path": null
    },
    {
        "segment_id": "0caa9038984211ef86663436ac12006b",
        "text": "秦霜双手环抱起我的腰 俏脸紧紧贴着我的胸口",
        "audio_url": "https://v26-vvecloud.yangyi08.com/8f017a04d34219b024503bd7128e5783/6724c573/video/tos/cn/tos-cn-v-2cd6b0/ooGOSAMPEBCQAApA8EFAEKAXeWkFhff72kOjEt/?a=7073&ch=0&cr=0&dr=0&&br=0&bt=0&ft=xztlUQhhe6BMyq-yUupJD12Nzj&mime_type=audio_mpeg&rc=QGlAYSNz&btag=80000000008000&dy_q=1730459491&l=202411011911178591AD8D4861BA816F07&format=mp3",
        "source_timerange": {
            "start_offset": 0,
            "end_offset": 4.360000000000014
        },
        "target_timerange": {
            "start_offset": 192.04,
            "end_offset": 196.4
        },
        "ignore_audio": false,
        "audio_path": null
    },
    {
        "segment_id": "0caa91f0984211ef86663436ac12006b",
        "text": "听着我如雷的心跳声",
        "audio_url": "https://v26-vvecloud.yangyi08.com/88d8a276449f58627fb027509078d8c5/6724c573/video/tos/cn/tos-cn-v-2cd6b0/oAIQvkqEg2wiA3S5ktKYyAZciAPlkCALBE5Ao/?a=7073&ch=0&cr=0&dr=0&&br=0&bt=0&ft=xztlUQhhe6BMyq-yUupJD12Nzj&mime_type=audio_mpeg&rc=QGlAYSNz&btag=80000000008000&dy_q=1730459491&l=202411011911178591AD8D4861BA816F07&format=mp3",
        "source_timerange": {
            "start_offset": 0,
            "end_offset": 2.2299999999999898
        },
        "target_timerange": {
            "start_offset": 196.4,
            "end_offset": 198.63
        },
        "ignore_audio": false,
        "audio_path": null
    },
    {
        "segment_id": "0caa93c6984211ef86663436ac12006b",
        "text": "此时此刻 我们的心仿佛又更近了许多",
        "audio_url": "https://v6-vvecloud.yangyi08.com/b25ce8aa70da6f9dbe052fa5d243e7df/6724c573/video/tos/cn/tos-cn-v-2cd6b0/oQQRwJEAQA64KkC2iiditJgEDfCRFAATeBAnLE/?a=7073&ch=0&cr=0&dr=0&&br=0&bt=0&ft=xztlUQhhe6BMyq-yUupJD12Nzj&mime_type=audio_mpeg&rc=QGlAYSNz&btag=80000000008000&dy_q=1730459491&l=202411011911178591AD8D4861BA816F07&format=mp3",
        "source_timerange": {
            "start_offset": 0,
            "end_offset": 3.890000000000015
        },
        "target_timerange": {
            "start_offset": 198.63,
            "end_offset": 202.52
        },
        "ignore_audio": false,
        "audio_path": null
    },
    {
        "segment_id": "0caa9614984211ef86663436ac12006b",
        "text": "见她放下了成见 对我敞开了心扉",
        "audio_url": "https://v26-vvecloud.yangyi08.com/6369d26a22dbec06cbdb993dd27ecbf7/6724c573/video/tos/cn/tos-cn-v-2cd6b0/oEIQvksEg2AiA3S9kt7YyAZkiATYk7ALBE8Ao/?a=7073&ch=0&cr=0&dr=0&&br=0&bt=0&ft=xztlUQhhe6BMyq-yUupJD12Nzj&mime_type=audio_mpeg&rc=QGlAYSNz&btag=80000000008000&dy_q=1730459491&l=202411011911178591AD8D4861BA816F07&format=mp3",
        "source_timerange": {
            "start_offset": 0,
            "end_offset": 3.4199999999999875
        },
        "target_timerange": {
            "start_offset": 202.52,
            "end_offset": 205.94
        },
        "ignore_audio": false,
        "audio_path": null
    },
    {
        "segment_id": "0caa97f4984211ef86663436ac12006b",
        "text": "我趁她看得入迷时 轻轻啄了她的额头一口",
        "audio_url": "https://v26-vvecloud.yangyi08.com/6da9aea2a0e5ef5346e3aed812ec7c1b/6724c573/video/tos/cn/tos-cn-v-2cd6b0/o4v2nEoHY9AAAnSBAIgEtiQkPIkWZZ1kI3yAi/?a=7073&ch=0&cr=0&dr=0&&br=0&bt=0&ft=xztlUQhhe6BMyq-yUupJD12Nzj&mime_type=audio_mpeg&rc=QGlAYSNz&btag=80000000008000&dy_q=1730459491&l=202411011911178591AD8D4861BA816F07&format=mp3",
        "source_timerange": {
            "start_offset": 0,
            "end_offset": 3.890000000000015
        },
        "target_timerange": {
            "start_offset": 205.94,
            "end_offset": 209.83
        },
        "ignore_audio": false,
        "audio_path": null
    },
    {
        "segment_id": "0caa99a2984211ef86663436ac12006b",
        "text": "“讨厌啦！”她娇气地伸手轻打了我一把",
        "audio_url": "https://v26-vvecloud.yangyi08.com/f272302af44d5afbc3a26d3f1d2827f9/6724c573/video/tos/cn/tos-cn-v-2cd6b0/ocTyhvAkEbiqg6koNA3t2LiQBYAIDSbAAEZdu/?a=7073&ch=0&cr=0&dr=0&&br=0&bt=0&ft=xztlUQhhe6BMyq-yUupJD12Nzj&mime_type=audio_mpeg&rc=QGlAYSNz&btag=80000000008000&dy_q=1730459491&l=202411011911178591AD8D4861BA816F07&format=mp3",
        "source_timerange": {
            "start_offset": 0,
            "end_offset": 3.6399999999999864
        },
        "target_timerange": {
            "start_offset": 209.83,
            "end_offset": 213.47
        },
        "ignore_audio": false,
        "audio_path": null
    },
    {
        "segment_id": "0caa9b5a984211ef86663436ac12006b",
        "text": "似乎并没有过多的动作",
        "audio_url": "https://v6-vvecloud.yangyi08.com/233f051bbc3188e6fafb51f612961769/6724c573/video/tos/cn/tos-cn-v-2cd6b0/oIAAvS8zEEk6tvQWBIZiokBQ2LirgAygYAtA3/?a=7073&ch=0&cr=0&dr=0&&br=0&bt=0&ft=xztlUQhhe6BMyq-yUupJD12Nzj&mime_type=audio_mpeg&rc=QGlAYSNz&btag=80000000008000&dy_q=1730459491&l=202411011911178591AD8D4861BA816F07&format=mp3",
        "source_timerange": {
            "start_offset": 0,
            "end_offset": 2.4099999999999966
        },
        "target_timerange": {
            "start_offset": 213.47,
            "end_offset": 215.88
        },
        "ignore_audio": false,
        "audio_path": null
    },
    {
        "segment_id": "0caa9cfe984211ef86663436ac12006b",
        "text": "但我心里一喜 更加紧了紧对她的拥抱",
        "audio_url": "https://v6-vvecloud.yangyi08.com/ce069f0953bc64f282df38ada58b4d6f/6724c573/video/tos/cn/tos-cn-v-2cd6b0/oUAEiAiyEFCbKJAgER8DCieMLotAdnnkTA8fB2/?a=7073&ch=0&cr=0&dr=0&&br=0&bt=0&ft=xztlUQhhe6BMyq-yUupJD12Nzj&mime_type=audio_mpeg&rc=QGlAYSNz&btag=80000000008000&dy_q=1730459491&l=202411011911178591AD8D4861BA816F07&format=mp3",
        "source_timerange": {
            "start_offset": 0,
            "end_offset": 3.670000000000016
        },
        "target_timerange": {
            "start_offset": 215.88,
            "end_offset": 219.55
        },
        "ignore_audio": false,
        "audio_path": null
    },
    {
        "segment_id": "0caab644984211ef86663436ac12006b",
        "text": "时间一分一秒过去 电影接近了尾声",
        "audio_url": "https://v6-vvecloud.yangyi08.com/1582e516c210d7fba5532239613aa429/6724c573/video/tos/cn/tos-cn-v-2cd6b0/oIGiAIRA7Q3SFLfE4EheCQfYMKA8CjAZSOQWFB/?a=7073&ch=0&cr=0&dr=0&&br=0&bt=0&ft=xztlUQhhe6BMyq-yUupJD12Nzj&mime_type=audio_mpeg&rc=QGlAYSNz&btag=80000000008000&dy_q=1730459491&l=202411011911178591AD8D4861BA816F07&format=mp3",
        "source_timerange": {
            "start_offset": 0,
            "end_offset": 3.819999999999993
        },
        "target_timerange": {
            "start_offset": 219.55,
            "end_offset": 223.37
        },
        "ignore_audio": false,
        "audio_path": null
    },
    {
        "segment_id": "0caab860984211ef86663436ac12006b",
        "text": "我的心情也随着剧情的推进而变得愈发激动",
        "audio_url": "https://v6-vvecloud.yangyi08.com/288a166f974b2bbe55979500a4229d09/6724c573/video/tos/cn/tos-cn-v-2cd6b0/oIJISEAovAtg3EyKAZtAYkTQ9Ak3iiyIEHB2p/?a=7073&ch=0&cr=0&dr=0&&br=0&bt=0&ft=xztlUQhhe6BMyq-yUupJD12Nzj&mime_type=audio_mpeg&rc=QGlAYSNz&btag=80000000008000&dy_q=1730459491&l=202411011911178591AD8D4861BA816F07&format=mp3",
        "source_timerange": {
            "start_offset": 0,
            "end_offset": 3.6399999999999864
        },
        "target_timerange": {
            "start_offset": 223.37,
            "end_offset": 227.01
        },
        "ignore_audio": false,
        "audio_path": null
    },
    {
        "segment_id": "0caaba2c984211ef86663436ac12006b",
        "text": "就在这时 我的手不小心滑了下去",
        "audio_url": "https://v26-vvecloud.yangyi08.com/c5e98a76fdb8786c91aec38dfba27561/6724c573/video/tos/cn/tos-cn-v-2cd6b0/oYrhIAQiZvJkAB2qAY32PAEsk2yAEgSzotizk/?a=7073&ch=0&cr=0&dr=0&&br=0&bt=0&ft=xztlUQhhe6BMyq-yUupJD12Nzj&mime_type=audio_mpeg&rc=QGlAYSNz&btag=80000000008000&dy_q=1730459491&l=202411011911178591AD8D4861BA816F07&format=mp3",
        "source_timerange": {
            "start_offset": 0,
            "end_offset": 3.530000000000001
        },
        "target_timerange": {
            "start_offset": 227.01,
            "end_offset": 230.54
        },
        "ignore_audio": false,
        "audio_path": null
    },
    {
        "segment_id": "0caabbf8984211ef86663436ac12006b",
        "text": "触碰到了她的臀部",
        "audio_url": "https://v26-vvecloud.yangyi08.com/0c12a890efe6682e5011cc27dd0ce513/6724c573/video/tos/cn/tos-cn-v-2cd6b0/o8H5RA2QZkGatI82AYo8iKAEAABivyhk53gSE/?a=7073&ch=0&cr=0&dr=0&&br=0&bt=0&ft=xztlUQhhe6BMyq-yUupJD12Nzj&mime_type=audio_mpeg&rc=QGlAYSNz&btag=80000000008000&dy_q=1730459491&l=202411011911178591AD8D4861BA816F07&format=mp3",
        "source_timerange": {
            "start_offset": 0,
            "end_offset": 2.0200000000000102
        },
        "target_timerange": {
            "start_offset": 230.54,
            "end_offset": 232.56
        },
        "ignore_audio": false,
        "audio_path": null
    },
    {
        "segment_id": "0caabdba984211ef86663436ac12006b",
        "text": "秦霜像是被电到了一样猛地弹起",
        "audio_url": "https://v26-vvecloud.yangyi08.com/69f06e426a9083437fa3a3b027790681/6724c573/video/tos/cn/tos-cn-v-2cd6b0/oskAAEI9YoB3SAuQQAAKoEZctDkpKgji2ciyv/?a=7073&ch=0&cr=0&dr=0&&br=0&bt=0&ft=xztlUQhhe6BMyq-yUupJD12Nzj&mime_type=audio_mpeg&rc=QGlAYSNz&btag=80000000008000&dy_q=1730459491&l=202411011911178591AD8D4861BA816F07&format=mp3",
        "source_timerange": {
            "start_offset": 0,
            "end_offset": 3.0600000000000023
        },
        "target_timerange": {
            "start_offset": 232.56,
            "end_offset": 235.62
        },
        "ignore_audio": false,
        "audio_path": null
    },
    {
        "segment_id": "0caabfd6984211ef86663436ac12006b",
        "text": "“啊！”她的脑袋撞到了我的下巴",
        "audio_url": "https://v9-vvecloud.yangyi08.com/d257bc6d5d94ea32cf8ad984dda5c550/6724c573/video/tos/cn/tos-cn-v-2cd6b0/ocsiIfLJMgSRDPAIA7kECiBCbAJFIeqznmdqAB/?a=7073&ch=0&cr=0&dr=0&&br=0&bt=0&ft=xztlUQhhe6BMyq-yUupJD12Nzj&mime_type=audio_mpeg&rc=QGlAYSNz&btag=80000000008000&dy_q=1730459491&l=202411011911178591AD8D4861BA816F07&format=mp3",
        "source_timerange": {
            "start_offset": 0,
            "end_offset": 3.1299999999999955
        },
        "target_timerange": {
            "start_offset": 235.62,
            "end_offset": 238.75
        },
        "ignore_audio": false,
        "audio_path": null
    },
    {
        "segment_id": "0caac18e984211ef86663436ac12006b",
        "text": "我们顿时都痛得眼泪打转",
        "audio_url": "https://v3-vvecloud.yangyi08.com/38531e6c1f8f595b537b0bb9e36bb2e0/6724c573/video/tos/cn/tos-cn-v-2cd6b0/ootykIZJZ0uBShQ2AAvAgAHIkYk3ivoEBA2iE/?a=7073&ch=0&cr=0&dr=0&&br=0&bt=0&ft=xztlUQhhe6BMyq-yUupJD12Nzj&mime_type=audio_mpeg&rc=QGlAYSNz&btag=80000000008000&dy_q=1730459491&l=202411011911178591AD8D4861BA816F07&format=mp3",
        "source_timerange": {
            "start_offset": 0,
            "end_offset": 2.4099999999999966
        },
        "target_timerange": {
            "start_offset": 238.75,
            "end_offset": 241.16
        },
        "ignore_audio": false,
        "audio_path": null
    },
    {
        "segment_id": "0caac35a984211ef86663436ac12006b",
        "text": "“怎么了？”我惊诧地问 没想到她的反应这么大",
        "audio_url": "https://v6-vvecloud.yangyi08.com/c1b004fb8ebb6e86c547c9779ec7a120/6724c573/video/tos/cn/tos-cn-v-2cd6b0/oAdJDfoiiECCE2tgpAngFBDkE5RLCAveAAJAJW/?a=7073&ch=0&cr=0&dr=0&&br=0&bt=0&ft=xztlUQhhe6BMyq-yUupJD12Nzj&mime_type=audio_mpeg&rc=QGlAYSNz&btag=80000000008000&dy_q=1730459491&l=202411011911178591AD8D4861BA816F07&format=mp3",
        "source_timerange": {
            "start_offset": 0,
            "end_offset": 4.360000000000014
        },
        "target_timerange": {
            "start_offset": 241.16,
            "end_offset": 245.52
        },
        "ignore_audio": false,
        "audio_path": null
    },
    {
        "segment_id": "0caac51c984211ef86663436ac12006b",
        "text": "显然她以前没有和其他男生有过这种亲密的接触",
        "audio_url": "https://v9-vvecloud.yangyi08.com/6eca4565cca04c07f2f50501de4f8fe7/6724c573/video/tos/cn/tos-cn-v-2cd6b0/o4AWbWQhGIBsIJ37FJLAEejFfCehOABIIkAIES/?a=7073&ch=0&cr=0&dr=0&&br=0&bt=0&ft=xztlUQhhe6BMyq-yUupJD12Nzj&mime_type=audio_mpeg&rc=QGlAYSNz&btag=80000000008000&dy_q=1730459491&l=202411011911178591AD8D4861BA816F07&format=mp3",
        "source_timerange": {
            "start_offset": 0,
            "end_offset": 4.099999999999994
        },
        "target_timerange": {
            "start_offset": 245.52,
            "end_offset": 249.62
        },
        "ignore_audio": false,
        "audio_path": null
    },
    {
        "segment_id": "0caac756984211ef86663436ac12006b",
        "text": "没！没什么！她急忙掩饰自己的尴尬！",
        "audio_url": "https://v6-vvecloud.yangyi08.com/be56b63901e47b147499875da75474c3/6724c573/video/tos/cn/tos-cn-v-2cd6b0/oU2LwDJOECCieTAijAtEUodALEARgAFankBRZf/?a=7073&ch=0&cr=0&dr=0&&br=0&bt=0&ft=xztlUQhhe6BMyq-yUupJD12Nzj&mime_type=audio_mpeg&rc=QGlAYSNz&btag=80000000008000&dy_q=1730459491&l=202411011911178591AD8D4861BA816F07&format=mp3",
        "source_timerange": {
            "start_offset": 0,
            "end_offset": 4.359999999999985
        },
        "target_timerange": {
            "start_offset": 249.62,
            "end_offset": 253.98
        },
        "ignore_audio": false,
        "audio_path": null
    },
    {
        "segment_id": "0caac968984211ef86663436ac12006b",
        "text": "就在此时 阿东推开了门 神情紧张地看着我们",
        "audio_url": "https://v9-vvecloud.yangyi08.com/bd62ab283ed5128f65261e1950752cd6/6724c573/video/tos/cn/tos-cn-v-2cd6b0/oQJqhZ2EvS1yiA7icoB63gIYbAQAkAtjkNADE/?a=7073&ch=0&cr=0&dr=0&&br=0&bt=0&ft=xztlUQhhe6BMyq-yUupJD12Nzj&mime_type=audio_mpeg&rc=QGlAYSNz&btag=80000000008000&dy_q=1730459491&l=202411011911178591AD8D4861BA816F07&format=mp3",
        "source_timerange": {
            "start_offset": 0,
            "end_offset": 4.640000000000015
        },
        "target_timerange": {
            "start_offset": 253.98,
            "end_offset": 258.62
        },
        "ignore_audio": false,
        "audio_path": null
    },
    {
        "segment_id": "0caacc06984211ef86663436ac12006b",
        "text": "惊问道：小姐 金少 怎么了？出什么事了？",
        "audio_url": "https://v26-vvecloud.yangyi08.com/732375dbdb90a19aa90c32291dc4b834/6724c573/video/tos/cn/tos-cn-v-2cd6b0/o4tyu7kLiI7yoEbAv6A3iA6dQk2SAEYEgZBAz/?a=7073&ch=0&cr=0&dr=0&&br=0&bt=0&ft=xztlUQhhe6BMyq-yUupJD12Nzj&mime_type=audio_mpeg&rc=QGlAYSNz&btag=80000000008000&dy_q=1730459491&l=202411011911178591AD8D4861BA816F07&format=mp3",
        "source_timerange": {
            "start_offset": 0,
            "end_offset": 4.96999999999997
        },
        "target_timerange": {
            "start_offset": 258.62,
            "end_offset": 263.59
        },
        "ignore_audio": false,
        "audio_path": null
    },
    {
        "segment_id": "0caacde6984211ef86663436ac12006b",
        "text": "电影看完了！我回房间休息了！",
        "audio_url": "https://v26-vvecloud.yangyi08.com/cd00c33cb491289f015a8207817db2db/6724c573/video/tos/cn/tos-cn-v-2cd6b0/oIkfnATiREqC2CLfmAEArWDnAUAFEAiLBgpdtJ/?a=7073&ch=0&cr=0&dr=0&&br=0&bt=0&ft=xztlUQhhe6BMyq-yUupJD12Nzj&mime_type=audio_mpeg&rc=QGlAYSNz&btag=80000000008000&dy_q=1730459491&l=202411011911178591AD8D4861BA816F07&format=mp3",
        "source_timerange": {
            "start_offset": 0,
            "end_offset": 3.025000000000034
        },
        "target_timerange": {
            "start_offset": 263.59,
            "end_offset": 266.615
        },
        "ignore_audio": false,
        "audio_path": null
    },
    {
        "segment_id": "0caacfb2984211ef86663436ac12006b",
        "text": "秦霜的回答让我松了一口气",
        "audio_url": "https://v26-vvecloud.yangyi08.com/cd00c33cb491289f015a8207817db2db/6724c573/video/tos/cn/tos-cn-v-2cd6b0/oIkfnATiREqC2CLfmAEArWDnAUAFEAiLBgpdtJ/?a=7073&ch=0&cr=0&dr=0&&br=0&bt=0&ft=xztlUQhhe6BMyq-yUupJD12Nzj&mime_type=audio_mpeg&rc=QGlAYSNz&btag=80000000008000&dy_q=1730459491&l=202411011911178591AD8D4861BA816F07&format=mp3",
        "source_timerange": {
            "start_offset": 3.025000000000034,
            "end_offset": 5.220000000000027
        },
        "target_timerange": {
            "start_offset": 266.615,
            "end_offset": 268.81
        },
        "ignore_audio": true,
        "audio_path": null
    },
    {
        "segment_id": "0caad16a984211ef86663436ac12006b",
        "text": "但她的羞涩与尴尬却让我更加心疼",
        "audio_url": "https://v3-vvecloud.yangyi08.com/969b1be0e1d2bf8d03a43e1fd3cc25a9/6724c573/video/tos/cn/tos-cn-v-2cd6b0/oYAZtLJfDEA2qkndCKFACURi1BfdnAAEE2guiJ/?a=7073&ch=0&cr=0&dr=0&&br=0&bt=0&ft=xztlUQhhe6BMyq-yUupJD12Nzj&mime_type=audio_mpeg&rc=QGlAYSNz&btag=80000000008000&dy_q=1730459491&l=202411011911178591AD8D4861BA816F07&format=mp3",
        "source_timerange": {
            "start_offset": 0,
            "end_offset": 3.1999999999999886
        },
        "target_timerange": {
            "start_offset": 268.81,
            "end_offset": 272.01
        },
        "ignore_audio": false,
        "audio_path": null
    },
    {
        "segment_id": "0caad32c984211ef86663436ac12006b",
        "text": "路过阿东面前时 秦霜咬牙切齿地瞪了他一眼",
        "audio_url": "https://v6-vvecloud.yangyi08.com/59b5c001938100e3127c97ca46c58433/6724c573/video/tos/cn/tos-cn-v-2cd6b0/o4A4AeFKGBAOLAEEFkItWRE2SCEEeeqA7IjY7F/?a=7073&ch=0&cr=0&dr=0&&br=0&bt=0&ft=xztlUQhhe6BMyq-yUupJD12Nzj&mime_type=audio_mpeg&rc=QGlAYSNz&btag=80000000008000&dy_q=1730459491&l=202411011911178591AD8D4861BA816F07&format=mp3",
        "source_timerange": {
            "start_offset": 0,
            "end_offset": 4.180000000000007
        },
        "target_timerange": {
            "start_offset": 272.01,
            "end_offset": 276.19
        },
        "ignore_audio": false,
        "audio_path": null
    },
    {
        "segment_id": "0caad782984211ef86663436ac12006b",
        "text": "真是可爱",
        "audio_url": "https://v26-vvecloud.yangyi08.com/538a08c73fcf1f86f8ab6a8f91361de9/6724c573/video/tos/cn/tos-cn-v-2cd6b0/oAVid1AJEEfbNJAALtnikD2BJEboCjAfgC8FAR/?a=7073&ch=0&cr=0&dr=0&&br=0&bt=0&ft=xztlUQhhe6BMyq-yUupJD12Nzj&mime_type=audio_mpeg&rc=QGlAYSNz&btag=80000000008000&dy_q=1730459491&l=202411011911178591AD8D4861BA816F07&format=mp3",
        "source_timerange": {
            "start_offset": 0,
            "end_offset": 1.6899999999999977
        },
        "target_timerange": {
            "start_offset": 276.19,
            "end_offset": 277.88
        },
        "ignore_audio": false,
        "audio_path": null
    },
    {
        "segment_id": "0caada0c984211ef86663436ac12006b",
        "text": "阿东不明所以 挠了挠后脑 转而看向我",
        "audio_url": "https://v26-vvecloud.yangyi08.com/2db36724fcd8e36f377ff268b265c3f7/6724c573/video/tos/cn/tos-cn-v-2cd6b0/oYv2AEooY0AAAHSBAIgEtiQWkMkuCZYkS3yAi/?a=7073&ch=0&cr=0&dr=0&&br=0&bt=0&ft=xztlUQhhe6BMyq-yUupJD12Nzj&mime_type=audio_mpeg&rc=QGlAYSNz&btag=80000000008000&dy_q=1730459491&l=202411011911178591AD8D4861BA816F07&format=mp3",
        "source_timerange": {
            "start_offset": 0,
            "end_offset": 4.139999999999986
        },
        "target_timerange": {
            "start_offset": 277.88,
            "end_offset": 282.02
        },
        "ignore_audio": false,
        "audio_path": null
    },
    {
        "segment_id": "0caadbe2984211ef86663436ac12006b",
        "text": "警告道：金少 你是不是欺负小姐了？",
        "audio_url": "https://v9-vvecloud.yangyi08.com/c514011446ac4c356102e269992d6f9f/6724c573/video/tos/cn/tos-cn-v-2cd6b0/oAhJkdMIQEiDRt1AizlQiuB2ixfABA2AAEkkAw/?a=7073&ch=0&cr=0&dr=0&&br=0&bt=0&ft=xztlUQhhe6BMyq-yUupJD12Nzj&mime_type=audio_mpeg&rc=QGlAYSNz&btag=80000000008000&dy_q=1730459491&l=202411011911178591AD8D4861BA816F07&format=mp3",
        "source_timerange": {
            "start_offset": 0,
            "end_offset": 3.920000000000016
        },
        "target_timerange": {
            "start_offset": 282.02,
            "end_offset": 285.94
        },
        "ignore_audio": false,
        "audio_path": null
    },
    {
        "segment_id": "0caadd9a984211ef86663436ac12006b",
        "text": "我可警告你 你要是敢欺负小姐 小心我揍你",
        "audio_url": "https://v3-vvecloud.yangyi08.com/04a9382f411c9445e1d41ba68b183fd1/6724c573/video/tos/cn/tos-cn-v-2cd6b0/oshBktNIwE3dRtDAizlQmuB4ixfABA2AAEZkAD/?a=7073&ch=0&cr=0&dr=0&&br=0&bt=0&ft=xztlUQhhe6BMyq-yUupJD12Nzj&mime_type=audio_mpeg&rc=QGlAYSNz&btag=80000000008000&dy_q=1730459491&l=202411011911178591AD8D4861BA816F07&format=mp3",
        "source_timerange": {
            "start_offset": 0,
            "end_offset": 3.9850000000000136
        },
        "target_timerange": {
            "start_offset": 285.94,
            "end_offset": 289.925
        },
        "ignore_audio": false,
        "audio_path": null
    },
    {
        "segment_id": "0caadf5c984211ef86663436ac12006b",
        "text": "我气得无以言表 阿东这家伙真是个捣蛋鬼",
        "audio_url": "https://v3-vvecloud.yangyi08.com/04a9382f411c9445e1d41ba68b183fd1/6724c573/video/tos/cn/tos-cn-v-2cd6b0/oshBktNIwE3dRtDAizlQmuB4ixfABA2AAEZkAD/?a=7073&ch=0&cr=0&dr=0&&br=0&bt=0&ft=xztlUQhhe6BMyq-yUupJD12Nzj&mime_type=audio_mpeg&rc=QGlAYSNz&btag=80000000008000&dy_q=1730459491&l=202411011911178591AD8D4861BA816F07&format=mp3",
        "source_timerange": {
            "start_offset": 3.9850000000000136,
            "end_offset": 7.420000000000016
        },
        "target_timerange": {
            "start_offset": 289.925,
            "end_offset": 293.36
        },
        "ignore_audio": true,
        "audio_path": null
    },
    {
        "segment_id": "0caae114984211ef86663436ac12006b",
        "text": "刚才我们正你侬我侬的 他竟然突然闯进来打扰",
        "audio_url": "https://v26-vvecloud.yangyi08.com/652c3bf8bfd13a12a4a2d1bd8e1643a9/6724c573/video/tos/cn/tos-cn-v-2cd6b0/o4vkxDQkfBEPUuAKABIzD2A2tiAhiRAxIlAEK2/?a=7073&ch=0&cr=0&dr=0&&br=0&bt=0&ft=xztlUQhhe6BMyq-yUupJD12Nzj&mime_type=audio_mpeg&rc=QGlAYSNz&btag=80000000008000&dy_q=1730459491&l=202411011911178591AD8D4861BA816F07&format=mp3",
        "source_timerange": {
            "start_offset": 0,
            "end_offset": 4.279999999999973
        },
        "target_timerange": {
            "start_offset": 293.36,
            "end_offset": 297.64
        },
        "ignore_audio": false,
        "audio_path": null
    },
    {
        "segment_id": "0caae2cc984211ef86663436ac12006b",
        "text": "还威胁我 真是烦人！",
        "audio_url": "https://v26-vvecloud.yangyi08.com/2061696576321bccaa3d078a339feff6/6724c573/video/tos/cn/tos-cn-v-2cd6b0/ok8OI4jAEoMSfkiQNtW7HEA2BaAsEACeWfAEJF/?a=7073&ch=0&cr=0&dr=0&&br=0&bt=0&ft=xztlUQhhe6BMyq-yUupJD12Nzj&mime_type=audio_mpeg&rc=QGlAYSNz&btag=80000000008000&dy_q=1730459491&l=202411011911178591AD8D4861BA816F07&format=mp3",
        "source_timerange": {
            "start_offset": 0,
            "end_offset": 2.660000000000025
        },
        "target_timerange": {
            "start_offset": 297.64,
            "end_offset": 300.3
        },
        "ignore_audio": false,
        "audio_path": null
    }
]