[
    {
        "segment_id": "dbe3eee6984511ef9cebafc695686e13",
        "text": "你放心 后面的事交给我",
        "audio_url": "https://v6-vvecloud.yangyi08.com/52f4d99f3b176413ac3945115829e81d/6724cbd5/video/tos/cn/tos-cn-v-2cd6b0/oQQSQABAjeHSFiGOtLCkerEUMukEJIAAaZX4Cf/?a=7073&ch=0&cr=0&dr=0&&br=0&bt=0&ft=xztlUQhhe6BMyqu5UupJD12Nzj&mime_type=audio_mpeg&rc=QGlAYSNz&btag=c0000000008000&dy_q=1730461125&l=202411011938290E1CAE78907F326485D6&format=mp3",
        "source_timerange": {
            "start_offset": 0,
            "end_offset": 2.74
        },
        "target_timerange": {
            "start_offset": 0,
            "end_offset": 2.74
        },
        "ignore_audio": false,
        "audio_path": null
    },
    {
        "segment_id": "dbe3f27e984511ef9cebafc695686e13",
        "text": "我一定不会让他们逍遥法外…",
        "audio_url": "https://v9-vvecloud.yangyi08.com/76d25b3d8cf5055c3bcba5669088cca1/6724cbd5/video/tos/cn/tos-cn-v-2cd6b0/o0oxQvAWATiIEtaASkcT8biWE7kPyZAdARBI9/?a=7073&ch=0&cr=0&dr=0&&br=0&bt=0&ft=xztlUQhhe6BMyqu5UupJD12Nzj&mime_type=audio_mpeg&rc=QGlAYSNz&btag=c0000000008000&dy_q=1730461125&l=202411011938290E1CAE78907F326485D6&format=mp3",
        "source_timerange": {
            "start_offset": 0,
            "end_offset": 2.175
        },
        "target_timerange": {
            "start_offset": 2.74,
            "end_offset": 4.915
        },
        "ignore_audio": false,
        "audio_path": null
    },
    {
        "segment_id": "dbe3f4c2984511ef9cebafc695686e13",
        "text": "秦霜的眼中闪烁着怒火",
        "audio_url": "https://v9-vvecloud.yangyi08.com/76d25b3d8cf5055c3bcba5669088cca1/6724cbd5/video/tos/cn/tos-cn-v-2cd6b0/o0oxQvAWATiIEtaASkcT8biWE7kPyZAdARBI9/?a=7073&ch=0&cr=0&dr=0&&br=0&bt=0&ft=xztlUQhhe6BMyqu5UupJD12Nzj&mime_type=audio_mpeg&rc=QGlAYSNz&btag=c0000000008000&dy_q=1730461125&l=202411011938290E1CAE78907F326485D6&format=mp3",
        "source_timerange": {
            "start_offset": 2.175,
            "end_offset": 4.429999999999999
        },
        "target_timerange": {
            "start_offset": 4.915,
            "end_offset": 7.17
        },
        "ignore_audio": true,
        "audio_path": null
    },
    {
        "segment_id": "dbe3f6f2984511ef9cebafc695686e13",
        "text": "她的决心让我感受到了一种无形的力量",
        "audio_url": "https://v9-vvecloud.yangyi08.com/c1b73dd72d55b99b5f21658c9e81be06/6724cbd5/video/tos/cn/tos-cn-v-2cd6b0/o0NDhADAEAnAEcFgnSvCJvLfQ3fRBEiJkEAvI6/?a=7073&ch=0&cr=0&dr=0&&br=0&bt=0&ft=xztlUQhhe6BMyqu5UupJD12Nzj&mime_type=audio_mpeg&rc=QGlAYSNz&btag=c0000000008000&dy_q=1730461125&l=202411011938290E1CAE78907F326485D6&format=mp3",
        "source_timerange": {
            "start_offset": 0,
            "end_offset": 3.17
        },
        "target_timerange": {
            "start_offset": 7.17,
            "end_offset": 10.34
        },
        "ignore_audio": false,
        "audio_path": null
    },
    {
        "segment_id": "dbe3f92c984511ef9cebafc695686e13",
        "text": "嗯嗯 如果太为难就算了吧！后续的事情我会处理",
        "audio_url": "https://v9-vvecloud.yangyi08.com/77f90f7fc2f99969e517447a7d9b5903/6724cbd6/video/tos/cn/tos-cn-v-2cd6b0/oQXCAXLeCSfOLBFZQu48jehGAIZEasAozKSbQA/?a=7073&ch=0&cr=0&dr=0&&br=0&bt=0&ft=xztlUQhhe6BMyqV5UupJD12Nzj&mime_type=audio_mpeg&rc=QGlAYSNz&btag=c0000000008000&dy_q=1730461126&l=202411011938290E1CAE78907F326485D6&format=mp3",
        "source_timerange": {
            "start_offset": 0,
            "end_offset": 4.82
        },
        "target_timerange": {
            "start_offset": 10.34,
            "end_offset": 15.16
        },
        "ignore_audio": false,
        "audio_path": null
    },
    {
        "segment_id": "dbe3fb52984511ef9cebafc695686e13",
        "text": "想要我命的人 也要做好丢命的准备！",
        "audio_url": "https://v26-vvecloud.yangyi08.com/fcfd0112b915ced074fb9904bfd87124/6724cbd6/video/tos/cn/tos-cn-v-2cd6b0/osEkEAgAIvvkBWBzpiAsfIwFx74RiiAQmmlcA1/?a=7073&ch=0&cr=0&dr=0&&br=0&bt=0&ft=xztlUQhhe6BMyqV5UupJD12Nzj&mime_type=audio_mpeg&rc=QGlAYSNz&btag=c0000000008000&dy_q=1730461126&l=202411011938290E1CAE78907F326485D6&format=mp3",
        "source_timerange": {
            "start_offset": 0,
            "end_offset": 3.379999999999999
        },
        "target_timerange": {
            "start_offset": 15.16,
            "end_offset": 18.54
        },
        "ignore_audio": false,
        "audio_path": null
    },
    {
        "segment_id": "dbe3fd8c984511ef9cebafc695686e13",
        "text": "我冷冷地说道 心中暗暗坚定 绝不让敌人逃脱",
        "audio_url": "https://v9-vvecloud.yangyi08.com/214fe5e0dd173eaad29310b552494b44/6724cbd6/video/tos/cn/tos-cn-v-2cd6b0/ogQneFGS8eCB4LjdOUxLuAaEAQfSCLvQAAAXIG/?a=7073&ch=0&cr=0&dr=0&&br=0&bt=0&ft=xztlUQhhe6BMyqV5UupJD12Nzj&mime_type=audio_mpeg&rc=QGlAYSNz&btag=c0000000008000&dy_q=1730461126&l=202411011938290E1CAE78907F326485D6&format=mp3",
        "source_timerange": {
            "start_offset": 0,
            "end_offset": 4.539999999999999
        },
        "target_timerange": {
            "start_offset": 18.54,
            "end_offset": 23.08
        },
        "ignore_audio": false,
        "audio_path": null
    },
    {
        "segment_id": "dbe3ffd0984511ef9cebafc695686e13",
        "text": "秦霜紧握着我的双手 传递着她的信任与支持",
        "audio_url": "https://v26-vvecloud.yangyi08.com/083776ecb865a7205f5dcd0a4f225cf6/6724cbd6/video/tos/cn/tos-cn-v-2cd6b0/owAKAfmYBgAziAjRikivlJEckAmEjz3Q8WIN7B/?a=7073&ch=0&cr=0&dr=0&&br=0&bt=0&ft=xztlUQhhe6BMyqV5UupJD12Nzj&mime_type=audio_mpeg&rc=QGlAYSNz&btag=c0000000008000&dy_q=1730461126&l=202411011938290E1CAE78907F326485D6&format=mp3",
        "source_timerange": {
            "start_offset": 0,
            "end_offset": 4.390000000000001
        },
        "target_timerange": {
            "start_offset": 23.08,
            "end_offset": 27.47
        },
        "ignore_audio": false,
        "audio_path": null
    },
    {
        "segment_id": "dbe40200984511ef9cebafc695686e13",
        "text": "“你好好修养 后面的事交给我就行！”",
        "audio_url": "https://v26-vvecloud.yangyi08.com/b703ba2925e833f79199e952f756b30c/6724cbd6/video/tos/cn/tos-cn-v-2cd6b0/o8B6AizA7EvkiiARsmVfAphc3iANAIQwkzElBg/?a=7073&ch=0&cr=0&dr=0&&br=0&bt=0&ft=xztlUQhhe6BMyqV5UupJD12Nzj&mime_type=audio_mpeg&rc=QGlAYSNz&btag=c0000000008000&dy_q=1730461126&l=202411011938290E1CAE78907F326485D6&format=mp3",
        "source_timerange": {
            "start_offset": 0,
            "end_offset": 3.1950000000000003
        },
        "target_timerange": {
            "start_offset": 27.47,
            "end_offset": 30.665
        },
        "ignore_audio": false,
        "audio_path": null
    },
    {
        "segment_id": "dbe4044e984511ef9cebafc695686e13",
        "text": "我好奇地问道：“你打算怎么做呢？”",
        "audio_url": "https://v26-vvecloud.yangyi08.com/b703ba2925e833f79199e952f756b30c/6724cbd6/video/tos/cn/tos-cn-v-2cd6b0/o8B6AizA7EvkiiARsmVfAphc3iANAIQwkzElBg/?a=7073&ch=0&cr=0&dr=0&&br=0&bt=0&ft=xztlUQhhe6BMyqV5UupJD12Nzj&mime_type=audio_mpeg&rc=QGlAYSNz&btag=c0000000008000&dy_q=1730461126&l=202411011938290E1CAE78907F326485D6&format=mp3",
        "source_timerange": {
            "start_offset": 3.1950000000000003,
            "end_offset": 5.935000000000002
        },
        "target_timerange": {
            "start_offset": 30.665,
            "end_offset": 33.405
        },
        "ignore_audio": true,
        "audio_path": null
    },
    {
        "segment_id": "dbe40674984511ef9cebafc695686e13",
        "text": "她脉脉含情地看着我 缓缓说道：有人暗杀我了",
        "audio_url": "https://v26-vvecloud.yangyi08.com/b703ba2925e833f79199e952f756b30c/6724cbd6/video/tos/cn/tos-cn-v-2cd6b0/o8B6AizA7EvkiiARsmVfAphc3iANAIQwkzElBg/?a=7073&ch=0&cr=0&dr=0&&br=0&bt=0&ft=xztlUQhhe6BMyqV5UupJD12Nzj&mime_type=audio_mpeg&rc=QGlAYSNz&btag=c0000000008000&dy_q=1730461126&l=202411011938290E1CAE78907F326485D6&format=mp3",
        "source_timerange": {
            "start_offset": 5.935000000000002,
            "end_offset": 9.969999999999999
        },
        "target_timerange": {
            "start_offset": 33.405,
            "end_offset": 37.44
        },
        "ignore_audio": true,
        "audio_path": null
    },
    {
        "segment_id": "dbe40944984511ef9cebafc695686e13",
        "text": "我便可以调动秦家的隐藏力量",
        "audio_url": "https://v3-vvecloud.yangyi08.com/d29323573bdb907e0416b04c78ad7f97/6724cbd6/video/tos/cn/tos-cn-v-2cd6b0/o8AtAfmDBgAziAFRikivlAEckAmErwUQ9WIv7B/?a=7073&ch=0&cr=0&dr=0&&br=0&bt=0&ft=xztlUQhhe6BMyqV5UupJD12Nzj&mime_type=audio_mpeg&rc=QGlAYSNz&btag=c0000000008000&dy_q=1730461126&l=202411011938290E1CAE78907F326485D6&format=mp3",
        "source_timerange": {
            "start_offset": 0,
            "end_offset": 2.700000000000003
        },
        "target_timerange": {
            "start_offset": 37.44,
            "end_offset": 40.14
        },
        "ignore_audio": false,
        "audio_path": null
    },
    {
        "segment_id": "dbe40bd8984511ef9cebafc695686e13",
        "text": "一起彻底解决问题！“隐藏力量？”",
        "audio_url": "https://v6-vvecloud.yangyi08.com/3ece6f2cc151177fb7d6da69049339f4/6724cbd6/video/tos/cn/tos-cn-v-2cd6b0/ogc9E5LUAeaLJeBkBAGFEuSQjuOAvCAEAXIReY/?a=7073&ch=0&cr=0&dr=0&&br=0&bt=0&ft=xztlUQhhe6BMyqV5UupJD12Nzj&mime_type=audio_mpeg&rc=QGlAYSNz&btag=c0000000008000&dy_q=1730461126&l=202411011938290E1CAE78907F326485D6&format=mp3",
        "source_timerange": {
            "start_offset": 0,
            "end_offset": 3.375
        },
        "target_timerange": {
            "start_offset": 40.14,
            "end_offset": 43.515
        },
        "ignore_audio": false,
        "audio_path": null
    },
    {
        "segment_id": "dbe414f2984511ef9cebafc695686e13",
        "text": "我惊讶地问 秦家背后竟然还有如此强大的支撑",
        "audio_url": "https://v6-vvecloud.yangyi08.com/3ece6f2cc151177fb7d6da69049339f4/6724cbd6/video/tos/cn/tos-cn-v-2cd6b0/ogc9E5LUAeaLJeBkBAGFEuSQjuOAvCAEAXIReY/?a=7073&ch=0&cr=0&dr=0&&br=0&bt=0&ft=xztlUQhhe6BMyqV5UupJD12Nzj&mime_type=audio_mpeg&rc=QGlAYSNz&btag=c0000000008000&dy_q=1730461126&l=202411011938290E1CAE78907F326485D6&format=mp3",
        "source_timerange": {
            "start_offset": 3.375,
            "end_offset": 7.310000000000002
        },
        "target_timerange": {
            "start_offset": 43.515,
            "end_offset": 47.45
        },
        "ignore_audio": true,
        "audio_path": null
    },
    {
        "segment_id": "dbe41736984511ef9cebafc695686e13",
        "text": "秦霜认真地看着我",
        "audio_url": "https://v6-vvecloud.yangyi08.com/cb4bcbb20cf652e4fe161a793ead0685/6724cbd6/video/tos/cn/tos-cn-v-2cd6b0/oQFASXiLuSI4MecAj8JCXtEpAaQ9BCAQeOe7QU/?a=7073&ch=0&cr=0&dr=0&&br=0&bt=0&ft=xztlUQhhe6BMyqV5UupJD12Nzj&mime_type=audio_mpeg&rc=QGlAYSNz&btag=c0000000008000&dy_q=1730461126&l=202411011938290E1CAE78907F326485D6&format=mp3",
        "source_timerange": {
            "start_offset": 0,
            "end_offset": 2.049999999999997
        },
        "target_timerange": {
            "start_offset": 47.45,
            "end_offset": 49.5
        },
        "ignore_audio": false,
        "audio_path": null
    },
    {
        "segment_id": "dbe4195c984511ef9cebafc695686e13",
        "text": "解释道：对 我们秦家能成为华国有名的企业",
        "audio_url": "https://v9-vvecloud.yangyi08.com/14e1210b59a7f441348b7c27d05f2611/6724cbd6/video/tos/cn/tos-cn-v-2cd6b0/o4IAqgiqBwAEqAczzlmii7mkEA1f9AWkXQBvR6/?a=7073&ch=0&cr=0&dr=0&&br=0&bt=0&ft=xztlUQhhe6BMyqV5UupJD12Nzj&mime_type=audio_mpeg&rc=QGlAYSNz&btag=c0000000008000&dy_q=1730461126&l=202411011938290E1CAE78907F326485D6&format=mp3",
        "source_timerange": {
            "start_offset": 0,
            "end_offset": 4.5
        },
        "target_timerange": {
            "start_offset": 49.5,
            "end_offset": 54
        },
        "ignore_audio": false,
        "audio_path": null
    },
    {
        "segment_id": "dbe41b82984511ef9cebafc695686e13",
        "text": "能掌握这么巨大的财富 之前也被黑白两道盯过",
        "audio_url": "https://v6-vvecloud.yangyi08.com/2b2fffefe6eef2dd676647bcbae67fda/6724cbd6/video/tos/cn/tos-cn-v-2cd6b0/ocvRUirBQ9AA77bifAzIgAB5EDknckE6liUAAm/?a=7073&ch=0&cr=0&dr=0&&br=0&bt=0&ft=xztlUQhhe6BMyqV5UupJD12Nzj&mime_type=audio_mpeg&rc=QGlAYSNz&btag=c0000000008000&dy_q=1730461126&l=202411011938290E1CAE78907F326485D6&format=mp3",
        "source_timerange": {
            "start_offset": 0,
            "end_offset": 4.280000000000001
        },
        "target_timerange": {
            "start_offset": 54,
            "end_offset": 58.28
        },
        "ignore_audio": false,
        "audio_path": null
    },
    {
        "segment_id": "dbe41dc6984511ef9cebafc695686e13",
        "text": "他们也想吞了我们秦家的财富 但最后都失败了！",
        "audio_url": "https://v26-vvecloud.yangyi08.com/ba7cba5978cd35c2d65fb802c351db44/6724cbd6/video/tos/cn/tos-cn-v-2cd6b0/oACQXea4QA4Ea5SCoSvM8BEjuLFXAAXAAUeOQf/?a=7073&ch=0&cr=0&dr=0&&br=0&bt=0&ft=xztlUQhhe6BMyqV5UupJD12Nzj&mime_type=audio_mpeg&rc=QGlAYSNz&btag=c0000000008000&dy_q=1730461126&l=202411011938290E1CAE78907F326485D6&format=mp3",
        "source_timerange": {
            "start_offset": 0,
            "end_offset": 3.7049999999999983
        },
        "target_timerange": {
            "start_offset": 58.28,
            "end_offset": 61.985
        },
        "ignore_audio": false,
        "audio_path": null
    },
    {
        "segment_id": "dbe41fec984511ef9cebafc695686e13",
        "text": "她的言辞让我更加震撼 秦家的确不简单",
        "audio_url": "https://v26-vvecloud.yangyi08.com/ba7cba5978cd35c2d65fb802c351db44/6724cbd6/video/tos/cn/tos-cn-v-2cd6b0/oACQXea4QA4Ea5SCoSvM8BEjuLFXAAXAAUeOQf/?a=7073&ch=0&cr=0&dr=0&&br=0&bt=0&ft=xztlUQhhe6BMyqV5UupJD12Nzj&mime_type=audio_mpeg&rc=QGlAYSNz&btag=c0000000008000&dy_q=1730461126&l=202411011938290E1CAE78907F326485D6&format=mp3",
        "source_timerange": {
            "start_offset": 3.7049999999999983,
            "end_offset": 7.6299999999999955
        },
        "target_timerange": {
            "start_offset": 61.985,
            "end_offset": 65.91
        },
        "ignore_audio": true,
        "audio_path": null
    },
    {
        "segment_id": "dbe42208984511ef9cebafc695686e13",
        "text": "她继续说道：我们秦家能走到今天",
        "audio_url": "https://v9-vvecloud.yangyi08.com/f624e50577fb2761b4c55ea597a1d468/6724cbd6/video/tos/cn/tos-cn-v-2cd6b0/ogfFAjcALnY3EgEXvegFqiXDBFAOJERk37NCAA/?a=7073&ch=0&cr=0&dr=0&&br=0&bt=0&ft=xztlUQhhe6BMyqV5UupJD12Nzj&mime_type=audio_mpeg&rc=QGlAYSNz&btag=c0000000008000&dy_q=1730461126&l=202411011938290E1CAE78907F326485D6&format=mp3",
        "source_timerange": {
            "start_offset": 0,
            "end_offset": 3.490000000000009
        },
        "target_timerange": {
            "start_offset": 65.91,
            "end_offset": 69.4
        },
        "ignore_audio": false,
        "audio_path": null
    },
    {
        "segment_id": "dbe4242e984511ef9cebafc695686e13",
        "text": "离不开有隐藏力量的支撑！",
        "audio_url": "https://v26-vvecloud.yangyi08.com/44a6064d40e912165ae751342f533678/6724cbd6/video/tos/cn/tos-cn-v-2cd6b0/ocq7EmTriBBcvFAUAlixgIzAARMQ7AZkEbf5ki/?a=7073&ch=0&cr=0&dr=0&&br=0&bt=0&ft=xztlUQhhe6BMyqV5UupJD12Nzj&mime_type=audio_mpeg&rc=QGlAYSNz&btag=c0000000008000&dy_q=1730461126&l=202411011938290E1CAE78907F326485D6&format=mp3",
        "source_timerange": {
            "start_offset": 0,
            "end_offset": 2.559999999999988
        },
        "target_timerange": {
            "start_offset": 69.4,
            "end_offset": 71.96
        },
        "ignore_audio": false,
        "audio_path": null
    },
    {
        "segment_id": "dbe4264a984511ef9cebafc695686e13",
        "text": "华国现在还存在的几大财阀",
        "audio_url": "https://v3-vvecloud.yangyi08.com/762b52f0231cea8405068bf8a899e78b/6724cbd6/video/tos/cn/tos-cn-v-2cd6b0/osAiRv3cEZ7RmMkAFkXBfgWI7iBiAAlQANbzEz/?a=7073&ch=0&cr=0&dr=0&&br=0&bt=0&ft=xztlUQhhe6BMyqV5UupJD12Nzj&mime_type=audio_mpeg&rc=QGlAYSNz&btag=c0000000008000&dy_q=1730461126&l=202411011938290E1CAE78907F326485D6&format=mp3",
        "source_timerange": {
            "start_offset": 0,
            "end_offset": 2.8400000000000034
        },
        "target_timerange": {
            "start_offset": 71.96,
            "end_offset": 74.8
        },
        "ignore_audio": false,
        "audio_path": null
    },
    {
        "segment_id": "dbe42870984511ef9cebafc695686e13",
        "text": "背后都有隐藏的势力！",
        "audio_url": "https://v6-vvecloud.yangyi08.com/f5a45a0f821203d6e34a003a9dfb5839/6724cbd6/video/tos/cn/tos-cn-v-2cd6b0/oQGckB3ElmAUQiEzAkifgAQQ9vzA7uEsIAB2Ri/?a=7073&ch=0&cr=0&dr=0&&br=0&bt=0&ft=xztlUQhhe6BMyqV5UupJD12Nzj&mime_type=audio_mpeg&rc=QGlAYSNz&btag=c0000000008000&dy_q=1730461126&l=202411011938290E1CAE78907F326485D6&format=mp3",
        "source_timerange": {
            "start_offset": 0,
            "end_offset": 2.3400000000000034
        },
        "target_timerange": {
            "start_offset": 74.8,
            "end_offset": 77.14
        },
        "ignore_audio": false,
        "audio_path": null
    },
    {
        "segment_id": "dbe42a8c984511ef9cebafc695686e13",
        "text": "他们才是决定各大家族未来的真正力量！",
        "audio_url": "https://v26-vvecloud.yangyi08.com/ffadc3929f7d6cc7190f1fa0988aec59/6724cbd6/video/tos/cn/tos-cn-v-2cd6b0/oQpe4AAUOCBf3LPSCpLIAuGLESFjYvAQQVeXaX/?a=7073&ch=0&cr=0&dr=0&&br=0&bt=0&ft=xztlUQhhe6BMyqV5UupJD12Nzj&mime_type=audio_mpeg&rc=QGlAYSNz&btag=c0000000008000&dy_q=1730461126&l=202411011938290E1CAE78907F326485D6&format=mp3",
        "source_timerange": {
            "start_offset": 0,
            "end_offset": 3.1650000000000063
        },
        "target_timerange": {
            "start_offset": 77.14,
            "end_offset": 80.305
        },
        "ignore_audio": false,
        "audio_path": null
    },
    {
        "segment_id": "dbe42cda984511ef9cebafc695686e13",
        "text": "就在这时 天南敲响了门 打断了我们的谈话",
        "audio_url": "https://v26-vvecloud.yangyi08.com/ffadc3929f7d6cc7190f1fa0988aec59/6724cbd6/video/tos/cn/tos-cn-v-2cd6b0/oQpe4AAUOCBf3LPSCpLIAuGLESFjYvAQQVeXaX/?a=7073&ch=0&cr=0&dr=0&&br=0&bt=0&ft=xztlUQhhe6BMyqV5UupJD12Nzj&mime_type=audio_mpeg&rc=QGlAYSNz&btag=c0000000008000&dy_q=1730461126&l=202411011938290E1CAE78907F326485D6&format=mp3",
        "source_timerange": {
            "start_offset": 3.1650000000000063,
            "end_offset": 7.159999999999997
        },
        "target_timerange": {
            "start_offset": 80.305,
            "end_offset": 84.3
        },
        "ignore_audio": true,
        "audio_path": null
    },
    {
        "segment_id": "dbe42f46984511ef9cebafc695686e13",
        "text": "秦霜收起温柔 双眸带煞 冷声问：“什么事？”",
        "audio_url": "https://v26-vvecloud.yangyi08.com/0ecd6cca8b3a449623c95bb1504121ef/6724cbd6/video/tos/cn/tos-cn-v-2cd6b0/o8zAmEkciARElBiIzgUEpcXAAkRhQCfAp7vBiU/?a=7073&ch=0&cr=0&dr=0&&br=0&bt=0&ft=xztlUQhhe6BMyqV5UupJD12Nzj&mime_type=audio_mpeg&rc=QGlAYSNz&btag=c0000000008000&dy_q=1730461126&l=202411011938290E1CAE78907F326485D6&format=mp3",
        "source_timerange": {
            "start_offset": 0,
            "end_offset": 4.814999999999998
        },
        "target_timerange": {
            "start_offset": 84.3,
            "end_offset": 89.115
        },
        "ignore_audio": false,
        "audio_path": null
    },
    {
        "segment_id": "dbe43130984511ef9cebafc695686e13",
        "text": "天南上前道：“小姐 有最新消息！”秦霜冷冷道：",
        "audio_url": "https://v26-vvecloud.yangyi08.com/0ecd6cca8b3a449623c95bb1504121ef/6724cbd6/video/tos/cn/tos-cn-v-2cd6b0/o8zAmEkciARElBiIzgUEpcXAAkRhQCfAp7vBiU/?a=7073&ch=0&cr=0&dr=0&&br=0&bt=0&ft=xztlUQhhe6BMyqV5UupJD12Nzj&mime_type=audio_mpeg&rc=QGlAYSNz&btag=c0000000008000&dy_q=1730461126&l=202411011938290E1CAE78907F326485D6&format=mp3",
        "source_timerange": {
            "start_offset": 4.814999999999998,
            "end_offset": 9.650000000000006
        },
        "target_timerange": {
            "start_offset": 89.115,
            "end_offset": 93.95
        },
        "ignore_audio": true,
        "audio_path": null
    },
    {
        "segment_id": "dbe4331a984511ef9cebafc695686e13",
        "text": "“说说 ”天南看了我一眼 继续说道：得到消息",
        "audio_url": "https://v3-vvecloud.yangyi08.com/7addb868866afb1b04fb0ccb99e1433a/6724cbd6/video/tos/cn/tos-cn-v-2cd6b0/okQA7iluzgAXvRiyBBAxAMhkiA7EmEfIcRJgkJ/?a=7073&ch=0&cr=0&dr=0&&br=0&bt=0&ft=xztlUQhhe6BMyqV5UupJD12Nzj&mime_type=audio_mpeg&rc=QGlAYSNz&btag=c0000000008000&dy_q=1730461126&l=202411011938290E1CAE78907F326485D6&format=mp3",
        "source_timerange": {
            "start_offset": 0,
            "end_offset": 4.25
        },
        "target_timerange": {
            "start_offset": 93.95,
            "end_offset": 98.2
        },
        "ignore_audio": false,
        "audio_path": null
    },
    {
        "segment_id": "dbe4359a984511ef9cebafc695686e13",
        "text": "绑架金少的是一个叫江河的小头目",
        "audio_url": "https://v3-vvecloud.yangyi08.com/bd7a96ed52e2c254a070e9efc5373c3e/6724cbd6/video/tos/cn/tos-cn-v-2cd6b0/oYE7sAmBzAv4c0kiiAAlBBEHRgNkfkVQ9IEcAi/?a=7073&ch=0&cr=0&dr=0&&br=0&bt=0&ft=xztlUQhhe6BMyqV5UupJD12Nzj&mime_type=audio_mpeg&rc=QGlAYSNz&btag=c0000000008000&dy_q=1730461126&l=202411011938290E1CAE78907F326485D6&format=mp3",
        "source_timerange": {
            "start_offset": 0,
            "end_offset": 3.1700000000000017
        },
        "target_timerange": {
            "start_offset": 98.2,
            "end_offset": 101.37
        },
        "ignore_audio": false,
        "audio_path": null
    },
    {
        "segment_id": "dbe43784984511ef9cebafc695686e13",
        "text": "曾是江汉集团的一个催债团伙 最近投靠了黄三",
        "audio_url": "https://v9-vvecloud.yangyi08.com/f8677882584a0dab4aca3f6894e448c9/6724cbd6/video/tos/cn/tos-cn-v-2cd6b0/ogEePLEAaaFL9IXvAXjDeSeQAuG8BCAEcAcOqk/?a=7073&ch=0&cr=0&dr=0&&br=0&bt=0&ft=xztlUQhhe6BMyqV5UupJD12Nzj&mime_type=audio_mpeg&rc=QGlAYSNz&btag=c0000000008000&dy_q=1730461126&l=202411011938290E1CAE78907F326485D6&format=mp3",
        "source_timerange": {
            "start_offset": 0,
            "end_offset": 4.914999999999992
        },
        "target_timerange": {
            "start_offset": 101.37,
            "end_offset": 106.285
        },
        "ignore_audio": false,
        "audio_path": null
    },
    {
        "segment_id": "dbe4395a984511ef9cebafc695686e13",
        "text": "黄三？秦霜皱眉 似乎对这个人物不太熟悉",
        "audio_url": "https://v9-vvecloud.yangyi08.com/f8677882584a0dab4aca3f6894e448c9/6724cbd6/video/tos/cn/tos-cn-v-2cd6b0/ogEePLEAaaFL9IXvAXjDeSeQAuG8BCAEcAcOqk/?a=7073&ch=0&cr=0&dr=0&&br=0&bt=0&ft=xztlUQhhe6BMyqV5UupJD12Nzj&mime_type=audio_mpeg&rc=QGlAYSNz&btag=c0000000008000&dy_q=1730461126&l=202411011938290E1CAE78907F326485D6&format=mp3",
        "source_timerange": {
            "start_offset": 4.914999999999992,
            "end_offset": 8.030000000000001
        },
        "target_timerange": {
            "start_offset": 106.285,
            "end_offset": 109.4
        },
        "ignore_audio": true,
        "audio_path": null
    },
    {
        "segment_id": "dbe43bc6984511ef9cebafc695686e13",
        "text": "天南解释道：德爷手下心腹！",
        "audio_url": "https://v26-vvecloud.yangyi08.com/b35066fa621f25320d99c8b28d56c234/6724cbd6/video/tos/cn/tos-cn-v-2cd6b0/ogIAugicBwAE6Aczvlmii7CkEAzf6AUkxQBvRp/?a=7073&ch=0&cr=0&dr=0&&br=0&bt=0&ft=xztlUQhhe6BMyqV5UupJD12Nzj&mime_type=audio_mpeg&rc=QGlAYSNz&btag=c0000000008000&dy_q=1730461126&l=202411011938290E1CAE78907F326485D6&format=mp3",
        "source_timerange": {
            "start_offset": 0,
            "end_offset": 3.0999999999999943
        },
        "target_timerange": {
            "start_offset": 109.4,
            "end_offset": 112.5
        },
        "ignore_audio": false,
        "audio_path": null
    },
    {
        "segment_id": "dbe43f72984511ef9cebafc695686e13",
        "text": "七年前他帮德爷挡了几次袭击 失去了生育能力",
        "audio_url": "https://v9-vvecloud.yangyi08.com/63497d40140b8cb9bf0ddfbfbd768232/6724cbd6/video/tos/cn/tos-cn-v-2cd6b0/ooeJQIajAEvXxCMtBAAWoS4oQ8eeOLQClAupSF/?a=7073&ch=0&cr=0&dr=0&&br=0&bt=0&ft=xztlUQhhe6BMyqV5UupJD12Nzj&mime_type=audio_mpeg&rc=QGlAYSNz&btag=c0000000008000&dy_q=1730461126&l=202411011938290E1CAE78907F326485D6&format=mp3",
        "source_timerange": {
            "start_offset": 0,
            "end_offset": 4.5
        },
        "target_timerange": {
            "start_offset": 112.5,
            "end_offset": 117
        },
        "ignore_audio": false,
        "audio_path": null
    },
    {
        "segment_id": "dbe441ca984511ef9cebafc695686e13",
        "text": "德爷对他很关照",
        "audio_url": "https://v6-vvecloud.yangyi08.com/0a8eb7561df7df93e1fa808a11f714ab/6724cbd6/video/tos/cn/tos-cn-v-2cd6b0/o8cKE4FXAfNF67VkAADCE3J8RhngvBAiALEIf6/?a=7073&ch=0&cr=0&dr=0&&br=0&bt=0&ft=xztlUQhhe6BMyqV5UupJD12Nzj&mime_type=audio_mpeg&rc=QGlAYSNz&btag=c0000000008000&dy_q=1730461126&l=202411011938290E1CAE78907F326485D6&format=mp3",
        "source_timerange": {
            "start_offset": 0,
            "end_offset": 1.4749999999999943
        },
        "target_timerange": {
            "start_offset": 117,
            "end_offset": 118.475
        },
        "ignore_audio": false,
        "audio_path": null
    },
    {
        "segment_id": "dbe443aa984511ef9cebafc695686e13",
        "text": "秦霜听后 寒声说道：管他什么黄三黄四",
        "audio_url": "https://v6-vvecloud.yangyi08.com/0a8eb7561df7df93e1fa808a11f714ab/6724cbd6/video/tos/cn/tos-cn-v-2cd6b0/o8cKE4FXAfNF67VkAADCE3J8RhngvBAiALEIf6/?a=7073&ch=0&cr=0&dr=0&&br=0&bt=0&ft=xztlUQhhe6BMyqV5UupJD12Nzj&mime_type=audio_mpeg&rc=QGlAYSNz&btag=c0000000008000&dy_q=1730461126&l=202411011938290E1CAE78907F326485D6&format=mp3",
        "source_timerange": {
            "start_offset": 1.4749999999999943,
            "end_offset": 5.510000000000005
        },
        "target_timerange": {
            "start_offset": 118.475,
            "end_offset": 122.51
        },
        "ignore_audio": true,
        "audio_path": null
    },
    {
        "segment_id": "dbe44580984511ef9cebafc695686e13",
        "text": "敢对我身边人下手 就搞死他！",
        "audio_url": "https://v9-vvecloud.yangyi08.com/43c3f649c1e7b271ab624c001bd8944c/6724cbd6/video/tos/cn/tos-cn-v-2cd6b0/okTckB5plmAXTiEzAkifgAQa9vGA7PEJIAB1Ri/?a=7073&ch=0&cr=0&dr=0&&br=0&bt=0&ft=xztlUQhhe6BMyqV5UupJD12Nzj&mime_type=audio_mpeg&rc=QGlAYSNz&btag=c0000000008000&dy_q=1730461126&l=202411011938290E1CAE78907F326485D6&format=mp3",
        "source_timerange": {
            "start_offset": 0,
            "end_offset": 2.8149999999999977
        },
        "target_timerange": {
            "start_offset": 122.51,
            "end_offset": 125.325
        },
        "ignore_audio": false,
        "audio_path": null
    },
    {
        "segment_id": "dbe44760984511ef9cebafc695686e13",
        "text": "可是 他是德爷的心腹",
        "audio_url": "https://v9-vvecloud.yangyi08.com/43c3f649c1e7b271ab624c001bd8944c/6724cbd6/video/tos/cn/tos-cn-v-2cd6b0/okTckB5plmAXTiEzAkifgAQa9vGA7PEJIAB1Ri/?a=7073&ch=0&cr=0&dr=0&&br=0&bt=0&ft=xztlUQhhe6BMyqV5UupJD12Nzj&mime_type=audio_mpeg&rc=QGlAYSNz&btag=c0000000008000&dy_q=1730461126&l=202411011938290E1CAE78907F326485D6&format=mp3",
        "source_timerange": {
            "start_offset": 2.8149999999999977,
            "end_offset": 5.329999999999998
        },
        "target_timerange": {
            "start_offset": 125.325,
            "end_offset": 127.84
        },
        "ignore_audio": true,
        "audio_path": null
    },
    {
        "segment_id": "dbe48482984511ef9cebafc695686e13",
        "text": "德爷可是现在江城地下社团的霸主",
        "audio_url": "https://v6-vvecloud.yangyi08.com/03940a892ad2314eaecad8bc8ed0eb6d/6724cbd6/video/tos/cn/tos-cn-v-2cd6b0/ogzAmgkyiAMElBiI3ghEZcXAAkROQzfA77vBiN/?a=7073&ch=0&cr=0&dr=0&&br=0&bt=0&ft=xztlUQhhe6BMyqV5UupJD12Nzj&mime_type=audio_mpeg&rc=QGlAYSNz&btag=c0000000008000&dy_q=1730461126&l=202411011938290E1CAE78907F326485D6&format=mp3",
        "source_timerange": {
            "start_offset": 0,
            "end_offset": 3.1689999999999827
        },
        "target_timerange": {
            "start_offset": 127.84,
            "end_offset": 131.009
        },
        "ignore_audio": false,
        "audio_path": null
    },
    {
        "segment_id": "dbe4875c984511ef9cebafc695686e13",
        "text": "不仅掌握社团 还在官方拥有很大的影响",
        "audio_url": "https://v26-vvecloud.yangyi08.com/69f208a802a6d44d4b9a5cde570b4305/6724cbd6/video/tos/cn/tos-cn-v-2cd6b0/owmhk1WI3EYNRv2gizlQs7B9iifABAcAAEVkAx/?a=7073&ch=0&cr=0&dr=0&&br=0&bt=0&ft=xztlUQhhe6BMyqV5UupJD12Nzj&mime_type=audio_mpeg&rc=QGlAYSNz&btag=c0000000008000&dy_q=1730461126&l=202411011938290E1CAE78907F326485D6&format=mp3",
        "source_timerange": {
            "start_offset": 0,
            "end_offset": 3.8910000000000196
        },
        "target_timerange": {
            "start_offset": 131.009,
            "end_offset": 134.9
        },
        "ignore_audio": false,
        "audio_path": null
    },
    {
        "segment_id": "dbe4896e984511ef9cebafc695686e13",
        "text": "官方有三分之一的高层 是他控制的人",
        "audio_url": "https://v3-vvecloud.yangyi08.com/afd6227d0d028b3522cf218a04de76e4/6724cbd6/video/tos/cn/tos-cn-v-2cd6b0/oIvyNiMRiEAEQVkGlkf7UAiBIA9VzBmigAXcA5/?a=7073&ch=0&cr=0&dr=0&&br=0&bt=0&ft=xztlUQhhe6BMyqV5UupJD12Nzj&mime_type=audio_mpeg&rc=QGlAYSNz&btag=c0000000008000&dy_q=1730461126&l=202411011938290E1CAE78907F326485D6&format=mp3",
        "source_timerange": {
            "start_offset": 0,
            "end_offset": 3.335000000000008
        },
        "target_timerange": {
            "start_offset": 134.9,
            "end_offset": 138.235
        },
        "ignore_audio": false,
        "audio_path": null
    },
    {
        "segment_id": "dbe48b76984511ef9cebafc695686e13",
        "text": "天南小心地说",
        "audio_url": "https://v3-vvecloud.yangyi08.com/afd6227d0d028b3522cf218a04de76e4/6724cbd6/video/tos/cn/tos-cn-v-2cd6b0/oIvyNiMRiEAEQVkGlkf7UAiBIA9VzBmigAXcA5/?a=7073&ch=0&cr=0&dr=0&&br=0&bt=0&ft=xztlUQhhe6BMyqV5UupJD12Nzj&mime_type=audio_mpeg&rc=QGlAYSNz&btag=c0000000008000&dy_q=1730461126&l=202411011938290E1CAE78907F326485D6&format=mp3",
        "source_timerange": {
            "start_offset": 3.335000000000008,
            "end_offset": 4.819999999999993
        },
        "target_timerange": {
            "start_offset": 138.235,
            "end_offset": 139.72
        },
        "ignore_audio": true,
        "audio_path": null
    },
    {
        "segment_id": "dbe48d74984511ef9cebafc695686e13",
        "text": "我再次震惊 没想到秦家连这些都调查到了！",
        "audio_url": "https://v3-vvecloud.yangyi08.com/3688e6aea61477fa1621d383b91d11a2/6724cbd7/video/tos/cn/tos-cn-v-2cd6b0/osw4SFpOXaAv6IQOCSLeBCAeTeKAusQBjAG6EL/?a=7073&ch=0&cr=0&dr=0&&br=0&bt=0&ft=xztlUQhhe6BMyqX5UupJD12Nzj&mime_type=audio_mpeg&rc=QGlAYSNz&btag=c0000000008000&dy_q=1730461127&l=202411011938290E1CAE78907F326485D6&format=mp3",
        "source_timerange": {
            "start_offset": 0,
            "end_offset": 4.180000000000007
        },
        "target_timerange": {
            "start_offset": 139.72,
            "end_offset": 143.9
        },
        "ignore_audio": false,
        "audio_path": null
    },
    {
        "segment_id": "dbe48f4a984511ef9cebafc695686e13",
        "text": "德爷 哼！他之前不是还指使社团围堵我们吗？",
        "audio_url": "https://v26-vvecloud.yangyi08.com/537c900af463d6c8050307c7e1267cb3/6724cbd6/video/tos/cn/tos-cn-v-2cd6b0/oMIsPAjEQBFe4QCSAOAANAlnaCLu1eSGXBkLeU/?a=7073&ch=0&cr=0&dr=0&&br=0&bt=0&ft=xztlUQhhe6BMyqV5UupJD12Nzj&mime_type=audio_mpeg&rc=QGlAYSNz&btag=c0000000008000&dy_q=1730461126&l=202411011938290E1CAE78907F326485D6&format=mp3",
        "source_timerange": {
            "start_offset": 0,
            "end_offset": 4.719999999999999
        },
        "target_timerange": {
            "start_offset": 143.9,
            "end_offset": 148.62
        },
        "ignore_audio": false,
        "audio_path": null
    },
    {
        "segment_id": "dbe49184984511ef9cebafc695686e13",
        "text": "一个混社会的 永远上不了台面",
        "audio_url": "https://v9-vvecloud.yangyi08.com/4a941c6c3be79a8df6f4a2bc00af5cad/6724cbd7/video/tos/cn/tos-cn-v-2cd6b0/oQgmAzlAq47iRXiIa3EA0UBmYvQfXizkAAkEcB/?a=7073&ch=0&cr=0&dr=0&&br=0&bt=0&ft=xztlUQhhe6BMyqX5UupJD12Nzj&mime_type=audio_mpeg&rc=QGlAYSNz&btag=c0000000008000&dy_q=1730461127&l=202411011938290E1CAE78907F326485D6&format=mp3",
        "source_timerange": {
            "start_offset": 0,
            "end_offset": 3.3799999999999955
        },
        "target_timerange": {
            "start_offset": 148.62,
            "end_offset": 152
        },
        "ignore_audio": false,
        "audio_path": null
    },
    {
        "segment_id": "dbe49378984511ef9cebafc695686e13",
        "text": "他要是不服 立马组织官方",
        "audio_url": "https://v26-vvecloud.yangyi08.com/a8911c91c3e11914f84f10d6cb18efb9/6724cbd7/video/tos/cn/tos-cn-v-2cd6b0/o4ozvzAAfBAbAxBiRcck7dEQ9iIWlkVA8miEg1/?a=7073&ch=0&cr=0&dr=0&&br=0&bt=0&ft=xztlUQhhe6BMyqX5UupJD12Nzj&mime_type=audio_mpeg&rc=QGlAYSNz&btag=c0000000008000&dy_q=1730461127&l=202411011938290E1CAE78907F326485D6&format=mp3",
        "source_timerange": {
            "start_offset": 0,
            "end_offset": 2.4550000000000125
        },
        "target_timerange": {
            "start_offset": 152,
            "end_offset": 154.455
        },
        "ignore_audio": false,
        "audio_path": null
    },
    {
        "segment_id": "dbe4956c984511ef9cebafc695686e13",
        "text": "人员对他进行专项行动！",
        "audio_url": "https://v26-vvecloud.yangyi08.com/a8911c91c3e11914f84f10d6cb18efb9/6724cbd7/video/tos/cn/tos-cn-v-2cd6b0/o4ozvzAAfBAbAxBiRcck7dEQ9iIWlkVA8miEg1/?a=7073&ch=0&cr=0&dr=0&&br=0&bt=0&ft=xztlUQhhe6BMyqX5UupJD12Nzj&mime_type=audio_mpeg&rc=QGlAYSNz&btag=c0000000008000&dy_q=1730461127&l=202411011938290E1CAE78907F326485D6&format=mp3",
        "source_timerange": {
            "start_offset": 2.4550000000000125,
            "end_offset": 4.7050000000000125
        },
        "target_timerange": {
            "start_offset": 154.455,
            "end_offset": 156.705
        },
        "ignore_audio": true,
        "audio_path": null
    },
    {
        "segment_id": "dbe4976a984511ef9cebafc695686e13",
        "text": "秦霜淡淡地说道 眼神中透着不屈的决心",
        "audio_url": "https://v26-vvecloud.yangyi08.com/a8911c91c3e11914f84f10d6cb18efb9/6724cbd7/video/tos/cn/tos-cn-v-2cd6b0/o4ozvzAAfBAbAxBiRcck7dEQ9iIWlkVA8miEg1/?a=7073&ch=0&cr=0&dr=0&&br=0&bt=0&ft=xztlUQhhe6BMyqX5UupJD12Nzj&mime_type=audio_mpeg&rc=QGlAYSNz&btag=c0000000008000&dy_q=1730461127&l=202411011938290E1CAE78907F326485D6&format=mp3",
        "source_timerange": {
            "start_offset": 4.7050000000000125,
            "end_offset": 8.349999999999994
        },
        "target_timerange": {
            "start_offset": 156.705,
            "end_offset": 160.35
        },
        "ignore_audio": true,
        "audio_path": null
    },
    {
        "segment_id": "dbe4997c984511ef9cebafc695686e13",
        "text": "“明白！”天南应道 随后便离开了房间",
        "audio_url": "https://v6-vvecloud.yangyi08.com/db2dcd07be5b5a9b4995491817f20790/6724cbd6/video/tos/cn/tos-cn-v-2cd6b0/okEkEAAARvfJCVDnhFAGf66GO3kiFEAgNwLcBs/?a=7073&ch=0&cr=0&dr=0&&br=0&bt=0&ft=xztlUQhhe6BMyqV5UupJD12Nzj&mime_type=audio_mpeg&rc=QGlAYSNz&btag=c0000000008000&dy_q=1730461126&l=202411011938290E1CAE78907F326485D6&format=mp3",
        "source_timerange": {
            "start_offset": 0,
            "end_offset": 4.390000000000015
        },
        "target_timerange": {
            "start_offset": 160.35,
            "end_offset": 164.74
        },
        "ignore_audio": false,
        "audio_path": null
    },
    {
        "segment_id": "dbe49b8e984511ef9cebafc695686e13",
        "text": "秦霜这才收起冷酷",
        "audio_url": "https://v26-vvecloud.yangyi08.com/a62f5b9cf19690ad48231efab8577dc9/6724cbd7/video/tos/cn/tos-cn-v-2cd6b0/oQm6kLXIDEggRvGgizlQq7B9iifABAcAAEtkAG/?a=7073&ch=0&cr=0&dr=0&&br=0&bt=0&ft=xztlUQhhe6BMyqX5UupJD12Nzj&mime_type=audio_mpeg&rc=QGlAYSNz&btag=c0000000008000&dy_q=1730461127&l=202411011938290E1CAE78907F326485D6&format=mp3",
        "source_timerange": {
            "start_offset": 0,
            "end_offset": 2.299999999999983
        },
        "target_timerange": {
            "start_offset": 164.74,
            "end_offset": 167.04
        },
        "ignore_audio": false,
        "audio_path": null
    },
    {
        "segment_id": "dbe49d96984511ef9cebafc695686e13",
        "text": "无力地说道：这次无论他是江城的地头蛇",
        "audio_url": "https://v6-vvecloud.yangyi08.com/9be02c1a56196a70476922a599adb90f/6724cbd7/video/tos/cn/tos-cn-v-2cd6b0/ogffkWFCAABEANg1moDYNnEcJEA3svR3LFCiAY/?a=7073&ch=0&cr=0&dr=0&&br=0&bt=0&ft=xztlUQhhe6BMyqX5UupJD12Nzj&mime_type=audio_mpeg&rc=QGlAYSNz&btag=c0000000008000&dy_q=1730461127&l=202411011938290E1CAE78907F326485D6&format=mp3",
        "source_timerange": {
            "start_offset": 0,
            "end_offset": 3.920000000000016
        },
        "target_timerange": {
            "start_offset": 167.04,
            "end_offset": 170.96
        },
        "ignore_audio": false,
        "audio_path": null
    },
    {
        "segment_id": "dbe49f9e984511ef9cebafc695686e13",
        "text": "还是全国性的什么组织 统统的都给我去死！",
        "audio_url": "https://v9-vvecloud.yangyi08.com/ae53b632a193c6ab6423365e310212e0/6724cbd7/video/tos/cn/tos-cn-v-2cd6b0/oAWAtfvLFouEXVaOj8ICBxfYcIEFEALkAAASeG/?a=7073&ch=0&cr=0&dr=0&&br=0&bt=0&ft=xztlUQhhe6BMyqX5UupJD12Nzj&mime_type=audio_mpeg&rc=QGlAYSNz&btag=c0000000008000&dy_q=1730461127&l=202411011938290E1CAE78907F326485D6&format=mp3",
        "source_timerange": {
            "start_offset": 0,
            "end_offset": 3.484999999999985
        },
        "target_timerange": {
            "start_offset": 170.96,
            "end_offset": 174.445
        },
        "ignore_audio": false,
        "audio_path": null
    },
    {
        "segment_id": "dbe4a188984511ef9cebafc695686e13",
        "text": "见到她的样子 我的内心一暖 忍不住笑道：",
        "audio_url": "https://v9-vvecloud.yangyi08.com/ae53b632a193c6ab6423365e310212e0/6724cbd7/video/tos/cn/tos-cn-v-2cd6b0/oAWAtfvLFouEXVaOj8ICBxfYcIEFEALkAAASeG/?a=7073&ch=0&cr=0&dr=0&&br=0&bt=0&ft=xztlUQhhe6BMyqX5UupJD12Nzj&mime_type=audio_mpeg&rc=QGlAYSNz&btag=c0000000008000&dy_q=1730461127&l=202411011938290E1CAE78907F326485D6&format=mp3",
        "source_timerange": {
            "start_offset": 3.484999999999985,
            "end_offset": 7.489999999999981
        },
        "target_timerange": {
            "start_offset": 174.445,
            "end_offset": 178.45
        },
        "ignore_audio": true,
        "audio_path": null
    },
    {
        "segment_id": "dbe4a35e984511ef9cebafc695686e13",
        "text": "霜 你刚才的样子 真的太飒了！好迷人哦！",
        "audio_url": "https://v3-vvecloud.yangyi08.com/3f3096cf141087f9e8751edf428a4b2e/6724cbd7/video/tos/cn/tos-cn-v-2cd6b0/o8vlzgEy7AB4QYBiEVARAHLkDmicIkIiyA6ZfA/?a=7073&ch=0&cr=0&dr=0&&br=0&bt=0&ft=xztlUQhhe6BMyqX5UupJD12Nzj&mime_type=audio_mpeg&rc=QGlAYSNz&btag=c0000000008000&dy_q=1730461127&l=202411011938290E1CAE78907F326485D6&format=mp3",
        "source_timerange": {
            "start_offset": 0,
            "end_offset": 4.765000000000015
        },
        "target_timerange": {
            "start_offset": 178.45,
            "end_offset": 183.215
        },
        "ignore_audio": false,
        "audio_path": null
    },
    {
        "segment_id": "dbe4a55c984511ef9cebafc695686e13",
        "text": "她被我一夸 俏脸顿时绯红 害羞地问：“是吗！”",
        "audio_url": "https://v3-vvecloud.yangyi08.com/3f3096cf141087f9e8751edf428a4b2e/6724cbd7/video/tos/cn/tos-cn-v-2cd6b0/o8vlzgEy7AB4QYBiEVARAHLkDmicIkIiyA6ZfA/?a=7073&ch=0&cr=0&dr=0&&br=0&bt=0&ft=xztlUQhhe6BMyqX5UupJD12Nzj&mime_type=audio_mpeg&rc=QGlAYSNz&btag=c0000000008000&dy_q=1730461127&l=202411011938290E1CAE78907F326485D6&format=mp3",
        "source_timerange": {
            "start_offset": 4.765000000000015,
            "end_offset": 9.485000000000014
        },
        "target_timerange": {
            "start_offset": 183.215,
            "end_offset": 187.935
        },
        "ignore_audio": true,
        "audio_path": null
    },
    {
        "segment_id": "dbe4a75a984511ef9cebafc695686e13",
        "text": "对了 江河这事 能不能让我处理",
        "audio_url": "https://v3-vvecloud.yangyi08.com/3f3096cf141087f9e8751edf428a4b2e/6724cbd7/video/tos/cn/tos-cn-v-2cd6b0/o8vlzgEy7AB4QYBiEVARAHLkDmicIkIiyA6ZfA/?a=7073&ch=0&cr=0&dr=0&&br=0&bt=0&ft=xztlUQhhe6BMyqX5UupJD12Nzj&mime_type=audio_mpeg&rc=QGlAYSNz&btag=c0000000008000&dy_q=1730461127&l=202411011938290E1CAE78907F326485D6&format=mp3",
        "source_timerange": {
            "start_offset": 9.485000000000014,
            "end_offset": 12.640000000000015
        },
        "target_timerange": {
            "start_offset": 187.935,
            "end_offset": 191.09
        },
        "ignore_audio": true,
        "audio_path": null
    },
    {
        "segment_id": "dbe4a9da984511ef9cebafc695686e13",
        "text": "他只是别人的一把枪",
        "audio_url": "https://v3-vvecloud.yangyi08.com/b753e399949ce5dc4c254a2040255456/6724cbd7/video/tos/cn/tos-cn-v-2cd6b0/o8c7EziVAVminPJkgABBE7kzIOzQvAARAli5fN/?a=7073&ch=0&cr=0&dr=0&&br=0&bt=0&ft=xztlUQhhe6BMyqX5UupJD12Nzj&mime_type=audio_mpeg&rc=QGlAYSNz&btag=c0000000008000&dy_q=1730461127&l=202411011938290E1CAE78907F326485D6&format=mp3",
        "source_timerange": {
            "start_offset": 0,
            "end_offset": 2.1999999999999886
        },
        "target_timerange": {
            "start_offset": 191.09,
            "end_offset": 193.29
        },
        "ignore_audio": false,
        "audio_path": null
    },
    {
        "segment_id": "dbe4aca0984511ef9cebafc695686e13",
        "text": "如果我需要 请你帮忙如何？我提出了自己的想法",
        "audio_url": "https://v3-vvecloud.yangyi08.com/0540157d8d0127160f089b7cbf8b2b16/6724cbd6/video/tos/cn/tos-cn-v-2cd6b0/o0iIKsEk5A5aA9BPAQfVinBmA7EjcAViglkzvR/?a=7073&ch=0&cr=0&dr=0&&br=0&bt=0&ft=xztlUQhhe6BMyqV5UupJD12Nzj&mime_type=audio_mpeg&rc=QGlAYSNz&btag=c0000000008000&dy_q=1730461126&l=202411011938290E1CAE78907F326485D6&format=mp3",
        "source_timerange": {
            "start_offset": 0,
            "end_offset": 4.570000000000022
        },
        "target_timerange": {
            "start_offset": 193.29,
            "end_offset": 197.86
        },
        "ignore_audio": false,
        "audio_path": null
    },
    {
        "segment_id": "dbe4af20984511ef9cebafc695686e13",
        "text": "秦霜眯起了眸子 注视着我 沉吟道：",
        "audio_url": "https://v9-vvecloud.yangyi08.com/aaf934237d2fe73ddd2625f9d02746db/6724cbd7/video/tos/cn/tos-cn-v-2cd6b0/oUOCQSWEFMQqwAAAIefC8X4HuBa6LQeOjXSlrA/?a=7073&ch=0&cr=0&dr=0&&br=0&bt=0&ft=xztlUQhhe6BMyqX5UupJD12Nzj&mime_type=audio_mpeg&rc=QGlAYSNz&btag=c0000000008000&dy_q=1730461127&l=202411011938290E1CAE78907F326485D6&format=mp3",
        "source_timerange": {
            "start_offset": 0,
            "end_offset": 3.9199999999999875
        },
        "target_timerange": {
            "start_offset": 197.86,
            "end_offset": 201.78
        },
        "ignore_audio": false,
        "audio_path": null
    },
    {
        "segment_id": "dbe4b1f0984511ef9cebafc695686e13",
        "text": "我发现你最近越来越让人看不透了！",
        "audio_url": "https://v3-vvecloud.yangyi08.com/a12501dbd9ce7251960440e46ab4dfff/6724cbd7/video/tos/cn/tos-cn-v-2cd6b0/o43ZlCf2NJEATvRAiFgfEhFEFUAAAnkcDlALBY/?a=7073&ch=0&cr=0&dr=0&&br=0&bt=0&ft=xztlUQhhe6BMyqX5UupJD12Nzj&mime_type=audio_mpeg&rc=QGlAYSNz&btag=c0000000008000&dy_q=1730461127&l=202411011938290E1CAE78907F326485D6&format=mp3",
        "source_timerange": {
            "start_offset": 0,
            "end_offset": 3.1699999999999875
        },
        "target_timerange": {
            "start_offset": 201.78,
            "end_offset": 204.95
        },
        "ignore_audio": false,
        "audio_path": null
    },
    {
        "segment_id": "dbe4b4ac984511ef9cebafc695686e13",
        "text": "要不是知道你的情况",
        "audio_url": "https://v6-vvecloud.yangyi08.com/a97b7b8907c5ee8ce3688ead174f9e2f/6724cbd7/video/tos/cn/tos-cn-v-2cd6b0/oQAsvlWOBEAcqk17BmiAmQIitAfHzAgEiLQbRk/?a=7073&ch=0&cr=0&dr=0&&br=0&bt=0&ft=xztlUQhhe6BMyqX5UupJD12Nzj&mime_type=audio_mpeg&rc=QGlAYSNz&btag=c0000000008000&dy_q=1730461127&l=202411011938290E1CAE78907F326485D6&format=mp3",
        "source_timerange": {
            "start_offset": 0,
            "end_offset": 2.0900000000000034
        },
        "target_timerange": {
            "start_offset": 204.95,
            "end_offset": 207.04
        },
        "ignore_audio": false,
        "audio_path": null
    },
    {
        "segment_id": "dbe4b768984511ef9cebafc695686e13",
        "text": "我怀疑此刻在我面前的是一个社团大佬",
        "audio_url": "https://v9-vvecloud.yangyi08.com/6b274d4e0887c326707f9c74db15d9fc/6724cbd7/video/tos/cn/tos-cn-v-2cd6b0/ogAKBvQkTiAAIRlAEziB4cfVEAUjQ78xgmki6I/?a=7073&ch=0&cr=0&dr=0&&br=0&bt=0&ft=xztlUQhhe6BMyqX5UupJD12Nzj&mime_type=audio_mpeg&rc=QGlAYSNz&btag=c0000000008000&dy_q=1730461127&l=202411011938290E1CAE78907F326485D6&format=mp3",
        "source_timerange": {
            "start_offset": 0,
            "end_offset": 3.2450000000000045
        },
        "target_timerange": {
            "start_offset": 207.04,
            "end_offset": 210.285
        },
        "ignore_audio": false,
        "audio_path": null
    },
    {
        "segment_id": "dbe4ba06984511ef9cebafc695686e13",
        "text": "随着我们之间的互动",
        "audio_url": "https://v9-vvecloud.yangyi08.com/6b274d4e0887c326707f9c74db15d9fc/6724cbd7/video/tos/cn/tos-cn-v-2cd6b0/ogAKBvQkTiAAIRlAEziB4cfVEAUjQ78xgmki6I/?a=7073&ch=0&cr=0&dr=0&&br=0&bt=0&ft=xztlUQhhe6BMyqX5UupJD12Nzj&mime_type=audio_mpeg&rc=QGlAYSNz&btag=c0000000008000&dy_q=1730461127&l=202411011938290E1CAE78907F326485D6&format=mp3",
        "source_timerange": {
            "start_offset": 3.2450000000000045,
            "end_offset": 4.570000000000022
        },
        "target_timerange": {
            "start_offset": 210.285,
            "end_offset": 211.61
        },
        "ignore_audio": true,
        "audio_path": null
    },
    {
        "segment_id": "dbe4bcd6984511ef9cebafc695686e13",
        "text": "我感受到了一种默契与信任在逐渐加深",
        "audio_url": "https://v26-vvecloud.yangyi08.com/228f038b012085c1c0d21f842a170b1f/6724cbd7/video/tos/cn/tos-cn-v-2cd6b0/owgtAB7ELAilgmifRQ6kamzcvAIQkBIjiEoAAU/?a=7073&ch=0&cr=0&dr=0&&br=0&bt=0&ft=xztlUQhhe6BMyqX5UupJD12Nzj&mime_type=audio_mpeg&rc=QGlAYSNz&btag=c0000000008000&dy_q=1730461127&l=202411011938290E1CAE78907F326485D6&format=mp3",
        "source_timerange": {
            "start_offset": 0,
            "end_offset": 3.7099999999999795
        },
        "target_timerange": {
            "start_offset": 211.61,
            "end_offset": 215.32
        },
        "ignore_audio": false,
        "audio_path": null
    },
    {
        "segment_id": "dbe4bfb0984511ef9cebafc695686e13",
        "text": "未来的挑战可不简单",
        "audio_url": "https://v3-vvecloud.yangyi08.com/b081f001ddd1926beb2bcc8cf851a960/6724cbd7/video/tos/cn/tos-cn-v-2cd6b0/okzAm3k3iAKElBiI8g1ElcXAAkRrQpfAc7vBi9/?a=7073&ch=0&cr=0&dr=0&&br=0&bt=0&ft=xztlUQhhe6BMyqX5UupJD12Nzj&mime_type=audio_mpeg&rc=QGlAYSNz&btag=c0000000008000&dy_q=1730461127&l=202411011938290E1CAE78907F326485D6&format=mp3",
        "source_timerange": {
            "start_offset": 0,
            "end_offset": 2.3400000000000034
        },
        "target_timerange": {
            "start_offset": 215.32,
            "end_offset": 217.66
        },
        "ignore_audio": false,
        "audio_path": null
    },
    {
        "segment_id": "dbe4c280984511ef9cebafc695686e13",
        "text": "但有她在身边 我的心中充满了力量",
        "audio_url": "https://v26-vvecloud.yangyi08.com/c57383d0d628a73a6e487d4196139153/6724cbd7/video/tos/cn/tos-cn-v-2cd6b0/ocwevOAAeFCnAgGLEcPkuVEAeLjVXS6ABaIEBb/?a=7073&ch=0&cr=0&dr=0&&br=0&bt=0&ft=xztlUQhhe6BMyqX5UupJD12Nzj&mime_type=audio_mpeg&rc=QGlAYSNz&btag=c0000000008000&dy_q=1730461127&l=202411011938290E1CAE78907F326485D6&format=mp3",
        "source_timerange": {
            "start_offset": 0,
            "end_offset": 3.530000000000001
        },
        "target_timerange": {
            "start_offset": 217.66,
            "end_offset": 221.19
        },
        "ignore_audio": false,
        "audio_path": null
    },
    {
        "segment_id": "dbe4c528984511ef9cebafc695686e13",
        "text": "史金闻言 笑道：哈哈 为了能娶到我的好霜霜",
        "audio_url": "https://v6-vvecloud.yangyi08.com/b69fcdddb113dbe3ef025f5a8c2f48a8/6724cbd7/video/tos/cn/tos-cn-v-2cd6b0/o430lCflNJEAwvRAiFgjEeFEWUAYAnkcDiALBC/?a=7073&ch=0&cr=0&dr=0&&br=0&bt=0&ft=xztlUQhhe6BMyqX5UupJD12Nzj&mime_type=audio_mpeg&rc=QGlAYSNz&btag=c0000000008000&dy_q=1730461127&l=202411011938290E1CAE78907F326485D6&format=mp3",
        "source_timerange": {
            "start_offset": 0,
            "end_offset": 4.969999999999999
        },
        "target_timerange": {
            "start_offset": 221.19,
            "end_offset": 226.16
        },
        "ignore_audio": false,
        "audio_path": null
    },
    {
        "segment_id": "dbe4c820984511ef9cebafc695686e13",
        "text": "我不得不高调行事啊！去你的！都这样的还贫！",
        "audio_url": "https://v26-vvecloud.yangyi08.com/b4c58db3a94490959dd2be666a728fb5/6724cbd7/video/tos/cn/tos-cn-v-2cd6b0/oYQASOoEfCXARAjRCqQFCLIBu9Gf8SAR1eULxa/?a=7073&ch=0&cr=0&dr=0&&br=0&bt=0&ft=xztlUQhhe6BMyqX5UupJD12Nzj&mime_type=audio_mpeg&rc=QGlAYSNz&btag=c0000000008000&dy_q=1730461127&l=202411011938290E1CAE78907F326485D6&format=mp3",
        "source_timerange": {
            "start_offset": 0,
            "end_offset": 4.680000000000007
        },
        "target_timerange": {
            "start_offset": 226.16,
            "end_offset": 230.84
        },
        "ignore_audio": false,
        "audio_path": null
    },
    {
        "segment_id": "dbe4cb18984511ef9cebafc695686e13",
        "text": "不过 你既然有你的处理方法",
        "audio_url": "https://v26-vvecloud.yangyi08.com/d9ebc437dafff02e8300c138792e9500/6724cbd7/video/tos/cn/tos-cn-v-2cd6b0/owQANil1zgAXv0izBBANAArkiA7EmEfIcRo2kZ/?a=7073&ch=0&cr=0&dr=0&&br=0&bt=0&ft=xztlUQhhe6BMyqX5UupJD12Nzj&mime_type=audio_mpeg&rc=QGlAYSNz&btag=c0000000008000&dy_q=1730461127&l=202411011938290E1CAE78907F326485D6&format=mp3",
        "source_timerange": {
            "start_offset": 0,
            "end_offset": 3.1299999999999955
        },
        "target_timerange": {
            "start_offset": 230.84,
            "end_offset": 233.97
        },
        "ignore_audio": false,
        "audio_path": null
    },
    {
        "segment_id": "dbe4cdca984511ef9cebafc695686e13",
        "text": "我让人全力配合你就是！你有什么需要",
        "audio_url": "https://v6-vvecloud.yangyi08.com/4e640c4bd18242348f7f1da30b60563f/6724cbd7/video/tos/cn/tos-cn-v-2cd6b0/oUmBRAjAiA5AEciQzUnBLvlfU70IAiRkkEgutA/?a=7073&ch=0&cr=0&dr=0&&br=0&bt=0&ft=xztlUQhhe6BMyqX5UupJD12Nzj&mime_type=audio_mpeg&rc=QGlAYSNz&btag=c0000000008000&dy_q=1730461127&l=202411011938290E1CAE78907F326485D6&format=mp3",
        "source_timerange": {
            "start_offset": 0,
            "end_offset": 3.710000000000008
        },
        "target_timerange": {
            "start_offset": 233.97,
            "end_offset": 237.68
        },
        "ignore_audio": false,
        "audio_path": null
    },
    {
        "segment_id": "dbe4d0fe984511ef9cebafc695686e13",
        "text": "直接跟阿东说 他以后会随时保护你",
        "audio_url": "https://v9-vvecloud.yangyi08.com/02c993cd80884f058ab037c54aeb0756/6724cbd7/video/tos/cn/tos-cn-v-2cd6b0/oMfIER7AMzitAAKkLJAWEYcvQAicgzBlklBmAi/?a=7073&ch=0&cr=0&dr=0&&br=0&bt=0&ft=xztlUQhhe6BMyqX5UupJD12Nzj&mime_type=audio_mpeg&rc=QGlAYSNz&btag=c0000000008000&dy_q=1730461127&l=202411011938290E1CAE78907F326485D6&format=mp3",
        "source_timerange": {
            "start_offset": 0,
            "end_offset": 3.0649999999999977
        },
        "target_timerange": {
            "start_offset": 237.68,
            "end_offset": 240.745
        },
        "ignore_audio": false,
        "audio_path": null
    },
    {
        "segment_id": "dbe4d3f6984511ef9cebafc695686e13",
        "text": "秦霜尊重我的决定",
        "audio_url": "https://v9-vvecloud.yangyi08.com/02c993cd80884f058ab037c54aeb0756/6724cbd7/video/tos/cn/tos-cn-v-2cd6b0/oMfIER7AMzitAAKkLJAWEYcvQAicgzBlklBmAi/?a=7073&ch=0&cr=0&dr=0&&br=0&bt=0&ft=xztlUQhhe6BMyqX5UupJD12Nzj&mime_type=audio_mpeg&rc=QGlAYSNz&btag=c0000000008000&dy_q=1730461127&l=202411011938290E1CAE78907F326485D6&format=mp3",
        "source_timerange": {
            "start_offset": 3.0649999999999977,
            "end_offset": 4.539999999999992
        },
        "target_timerange": {
            "start_offset": 240.745,
            "end_offset": 242.22
        },
        "ignore_audio": true,
        "audio_path": null
    },
    {
        "segment_id": "dbe4d6b2984511ef9cebafc695686e13",
        "text": "“好的！”我心中一阵暖意 开心地点点头",
        "audio_url": "https://v26-vvecloud.yangyi08.com/f713132ce1a1c95002158a4c98a3ff57/6724cbd7/video/tos/cn/tos-cn-v-2cd6b0/oAAQeXruGQC4kSQuFoLAafjLPCeYOABQI2AcES/?a=7073&ch=0&cr=0&dr=0&&br=0&bt=0&ft=xztlUQhhe6BMyqX5UupJD12Nzj&mime_type=audio_mpeg&rc=QGlAYSNz&btag=c0000000008000&dy_q=1730461127&l=202411011938290E1CAE78907F326485D6&format=mp3",
        "source_timerange": {
            "start_offset": 0,
            "end_offset": 4.5
        },
        "target_timerange": {
            "start_offset": 242.22,
            "end_offset": 246.72
        },
        "ignore_audio": false,
        "audio_path": null
    },
    {
        "segment_id": "dbe4dbe4984511ef9cebafc695686e13",
        "text": "江城福德楼 楼后是一片幽静的别墅小院",
        "audio_url": "https://v9-vvecloud.yangyi08.com/44a461fb5513a32156085fd7c8f4c1d0/6724cbd7/video/tos/cn/tos-cn-v-2cd6b0/oYmB3AtAiAsAEciQzVKBovlfT7yIAiRkkEgy6w/?a=7073&ch=0&cr=0&dr=0&&br=0&bt=0&ft=xztlUQhhe6BMyqX5UupJD12Nzj&mime_type=audio_mpeg&rc=QGlAYSNz&btag=c0000000008000&dy_q=1730461127&l=202411011938290E1CAE78907F326485D6&format=mp3",
        "source_timerange": {
            "start_offset": 0,
            "end_offset": 3.9199999999999875
        },
        "target_timerange": {
            "start_offset": 246.72,
            "end_offset": 250.64
        },
        "ignore_audio": false,
        "audio_path": null
    },
    {
        "segment_id": "dbe4e09e984511ef9cebafc695686e13",
        "text": "每一幢小院都别有洞天",
        "audio_url": "https://v3-vvecloud.yangyi08.com/970184df55fac048b5dbf56064b8fc57/6724cbd7/video/tos/cn/tos-cn-v-2cd6b0/o44E0eXSFA3jGkAQALAIFLCaeBSLQfcPOjuWAC/?a=7073&ch=0&cr=0&dr=0&&br=0&bt=0&ft=xztlUQhhe6BMyqX5UupJD12Nzj&mime_type=audio_mpeg&rc=QGlAYSNz&btag=c0000000008000&dy_q=1730461127&l=202411011938290E1CAE78907F326485D6&format=mp3",
        "source_timerange": {
            "start_offset": 0,
            "end_offset": 2.5900000000000034
        },
        "target_timerange": {
            "start_offset": 250.64,
            "end_offset": 253.23
        },
        "ignore_audio": false,
        "audio_path": null
    },
    {
        "segment_id": "dbe4e562984511ef9cebafc695686e13",
        "text": "门口是杀气腾腾的社团保镖 里面许多重要路段",
        "audio_url": "https://v3-vvecloud.yangyi08.com/a7cefe29090ac5bf929bec1e65fe7c1b/6724cbd7/video/tos/cn/tos-cn-v-2cd6b0/osAkmEiEBrC7lAvbQifcBbAABiz9AzgR22sIbk/?a=7073&ch=0&cr=0&dr=0&&br=0&bt=0&ft=xztlUQhhe6BMyqX5UupJD12Nzj&mime_type=audio_mpeg&rc=QGlAYSNz&btag=c0000000008000&dy_q=1730461127&l=202411011938290E1CAE78907F326485D6&format=mp3",
        "source_timerange": {
            "start_offset": 0,
            "end_offset": 4.539000000000016
        },
        "target_timerange": {
            "start_offset": 253.23,
            "end_offset": 257.769
        },
        "ignore_audio": false,
        "audio_path": null
    },
    {
        "segment_id": "dbe4e986984511ef9cebafc695686e13",
        "text": "都有监控",
        "audio_url": "https://v6-vvecloud.yangyi08.com/a5f3fc3dd5f9df5aee89c2a2ae149979/6724cbd7/video/tos/cn/tos-cn-v-2cd6b0/osCBu4GzLAhNSeSxAjfAFCGEhqVQQaAeAOXyXI/?a=7073&ch=0&cr=0&dr=0&&br=0&bt=0&ft=xztlUQhhe6BMyqX5UupJD12Nzj&mime_type=audio_mpeg&rc=QGlAYSNz&btag=c0000000008000&dy_q=1730461127&l=202411011938290E1CAE78907F326485D6&format=mp3",
        "source_timerange": {
            "start_offset": 0,
            "end_offset": 1.6610000000000014
        },
        "target_timerange": {
            "start_offset": 257.769,
            "end_offset": 259.43
        },
        "ignore_audio": false,
        "audio_path": null
    },
    {
        "segment_id": "dbe4eda0984511ef9cebafc695686e13",
        "text": "在四个角的小楼里 还隐藏着二三十外社团保镖",
        "audio_url": "https://v9-vvecloud.yangyi08.com/f4338c6176ad6755575ae4e8332c3ba1/6724cbd7/video/tos/cn/tos-cn-v-2cd6b0/oQQiTYXxA3oEyB2FiAvkAZkmA9EI0ckvAASW5/?a=7073&ch=0&cr=0&dr=0&&br=0&bt=0&ft=xztlUQhhe6BMyqX5UupJD12Nzj&mime_type=audio_mpeg&rc=QGlAYSNz&btag=c0000000008000&dy_q=1730461127&l=202411011938290E1CAE78907F326485D6&format=mp3",
        "source_timerange": {
            "start_offset": 0,
            "end_offset": 4.389999999999986
        },
        "target_timerange": {
            "start_offset": 259.43,
            "end_offset": 263.82
        },
        "ignore_audio": false,
        "audio_path": null
    },
    {
        "segment_id": "dbe4f188984511ef9cebafc695686e13",
        "text": "我想象着这样的场景",
        "audio_url": "https://v26-vvecloud.yangyi08.com/55d3aea75fe0e4c7918211dfa273fa6c/6724cbd7/video/tos/cn/tos-cn-v-2cd6b0/oYYvDExQvEI5AATA3aA9lApiByTSZovcixkkk/?a=7073&ch=0&cr=0&dr=0&&br=0&bt=0&ft=xztlUQhhe6BMyqX5UupJD12Nzj&mime_type=audio_mpeg&rc=QGlAYSNz&btag=c0000000008000&dy_q=1730461127&l=202411011938290E1CAE78907F326485D6&format=mp3",
        "source_timerange": {
            "start_offset": 0,
            "end_offset": 2.340000000000032
        },
        "target_timerange": {
            "start_offset": 263.82,
            "end_offset": 266.16
        },
        "ignore_audio": false,
        "audio_path": null
    },
    {
        "segment_id": "dbe4f548984511ef9cebafc695686e13",
        "text": "德爷的地盘上 这样的防护措施真是到位",
        "audio_url": "https://v6-vvecloud.yangyi08.com/6ede416d26c981fcf052f7251dc1ffae/6724cbd7/video/tos/cn/tos-cn-v-2cd6b0/oMeAvXNaSCBLgoOEAE2AfAFaeCuAcOkwGEjkIA/?a=7073&ch=0&cr=0&dr=0&&br=0&bt=0&ft=xztlUQhhe6BMyqX5UupJD12Nzj&mime_type=audio_mpeg&rc=QGlAYSNz&btag=c0000000008000&dy_q=1730461127&l=202411011938290E1CAE78907F326485D6&format=mp3",
        "source_timerange": {
            "start_offset": 0,
            "end_offset": 4
        },
        "target_timerange": {
            "start_offset": 266.16,
            "end_offset": 270.16
        },
        "ignore_audio": false,
        "audio_path": null
    },
    {
        "segment_id": "dbe4fa70984511ef9cebafc695686e13",
        "text": "在一幢万福的楼里 光头西装的中年人紧锁着眉头",
        "audio_url": "https://v9-vvecloud.yangyi08.com/bab257e4f190262fa5132a89bba8d689/6724cbd7/video/tos/cn/tos-cn-v-2cd6b0/osEDnJApOeGLiBik9a3AunACEANckuAEGgfFRv/?a=7073&ch=0&cr=0&dr=0&&br=0&bt=0&ft=xztlUQhhe6BMyqX5UupJD12Nzj&mime_type=audio_mpeg&rc=QGlAYSNz&btag=c0000000008000&dy_q=1730461127&l=202411011938290E1CAE78907F326485D6&format=mp3",
        "source_timerange": {
            "start_offset": 0,
            "end_offset": 4.639999999999986
        },
        "target_timerange": {
            "start_offset": 270.16,
            "end_offset": 274.8
        },
        "ignore_audio": false,
        "audio_path": null
    },
    {
        "segment_id": "dbe506c8984511ef9cebafc695686e13",
        "text": "他便是江城地下世界的王——德爷！",
        "audio_url": "https://v3-vvecloud.yangyi08.com/23ecdf65069700618044fb7c31384eff/6724cbd7/video/tos/cn/tos-cn-v-2cd6b0/o8OGAMuQ4AXXBnN8EAOSpaOx9CjxSFefQQeCAp/?a=7073&ch=0&cr=0&dr=0&&br=0&bt=0&ft=xztlUQhhe6BMyqX5UupJD12Nzj&mime_type=audio_mpeg&rc=QGlAYSNz&btag=c0000000008000&dy_q=1730461127&l=202411011938290E1CAE78907F326485D6&format=mp3",
        "source_timerange": {
            "start_offset": 0,
            "end_offset": 3.1299999999999955
        },
        "target_timerange": {
            "start_offset": 274.8,
            "end_offset": 277.93
        },
        "ignore_audio": false,
        "audio_path": null
    },
    {
        "segment_id": "dbe50b14984511ef9cebafc695686e13",
        "text": "曾几何时 他也只是个小混混",
        "audio_url": "https://v26-vvecloud.yangyi08.com/8fec5bec49c56dbeb23537af22ddcd28/6724cbd7/video/tos/cn/tos-cn-v-2cd6b0/osOAa6SVNC6QXFXjVBoQs4zAASEfAe8CoueMQM/?a=7073&ch=0&cr=0&dr=0&&br=0&bt=0&ft=xztlUQhhe6BMyqX5UupJD12Nzj&mime_type=audio_mpeg&rc=QGlAYSNz&btag=c0000000008000&dy_q=1730461127&l=202411011938290E1CAE78907F326485D6&format=mp3",
        "source_timerange": {
            "start_offset": 0,
            "end_offset": 3.2799999999999727
        },
        "target_timerange": {
            "start_offset": 277.93,
            "end_offset": 281.21
        },
        "ignore_audio": false,
        "audio_path": null
    },
    {
        "segment_id": "dbe50f88984511ef9cebafc695686e13",
        "text": "但如今却是这个地下王国的掌控者",
        "audio_url": "https://v6-vvecloud.yangyi08.com/6333adb61671554fed71b1498de3284e/6724cbd7/video/tos/cn/tos-cn-v-2cd6b0/ocAALEAGkenC4nbvZtEbBFJiRAcDpg3NmEfA3q/?a=7073&ch=0&cr=0&dr=0&&br=0&bt=0&ft=xztlUQhhe6BMyqX5UupJD12Nzj&mime_type=audio_mpeg&rc=QGlAYSNz&btag=c0000000008000&dy_q=1730461127&l=202411011938290E1CAE78907F326485D6&format=mp3",
        "source_timerange": {
            "start_offset": 0,
            "end_offset": 3.1000000000000227
        },
        "target_timerange": {
            "start_offset": 281.21,
            "end_offset": 284.31
        },
        "ignore_audio": false,
        "audio_path": null
    },
    {
        "segment_id": "dbe51398984511ef9cebafc695686e13",
        "text": "德爷也曾是一个小混混",
        "audio_url": "https://v9-vvecloud.yangyi08.com/e6c71f889962886f346d70aa17df819f/6724cbd7/video/tos/cn/tos-cn-v-2cd6b0/o0NRJCYRNEESiv0AEnLgC3DeFGfACBcAAErkAd/?a=7073&ch=0&cr=0&dr=0&&br=0&bt=0&ft=xztlUQhhe6BMyqX5UupJD12Nzj&mime_type=audio_mpeg&rc=QGlAYSNz&btag=c0000000008000&dy_q=1730461127&l=202411011938290E1CAE78907F326485D6&format=mp3",
        "source_timerange": {
            "start_offset": 0,
            "end_offset": 2.3000000000000114
        },
        "target_timerange": {
            "start_offset": 284.31,
            "end_offset": 286.61
        },
        "ignore_audio": false,
        "audio_path": null
    },
    {
        "segment_id": "dbe51758984511ef9cebafc695686e13",
        "text": "后来与经商的代家结成了关系",
        "audio_url": "https://v3-vvecloud.yangyi08.com/f21dc72a6e7519cb9c8429b988fb14cb/6724cbd7/video/tos/cn/tos-cn-v-2cd6b0/owvYmILZxovg9BcBA6k9EkxSTuSAYyQiAEAAi/?a=7073&ch=0&cr=0&dr=0&&br=0&bt=0&ft=xztlUQhhe6BMyqX5UupJD12Nzj&mime_type=audio_mpeg&rc=QGlAYSNz&btag=c0000000008000&dy_q=1730461127&l=202411011938290E1CAE78907F326485D6&format=mp3",
        "source_timerange": {
            "start_offset": 0,
            "end_offset": 2.9499999999999886
        },
        "target_timerange": {
            "start_offset": 286.61,
            "end_offset": 289.56
        },
        "ignore_audio": false,
        "audio_path": null
    },
    {
        "segment_id": "dbe51b7c984511ef9cebafc695686e13",
        "text": "得到资金支持后",
        "audio_url": "https://v6-vvecloud.yangyi08.com/50e5732361df9b39d5b8d191920e88df/6724cbd7/video/tos/cn/tos-cn-v-2cd6b0/oUkOASGAAEOALAUujaeCjfNpccfZvXEnFIBXjE/?a=7073&ch=0&cr=0&dr=0&&br=0&bt=0&ft=xztlUQhhe6BMyqX5UupJD12Nzj&mime_type=audio_mpeg&rc=QGlAYSNz&btag=c0000000008000&dy_q=1730461127&l=202411011938290E1CAE78907F326485D6&format=mp3",
        "source_timerange": {
            "start_offset": 0,
            "end_offset": 1.9800000000000182
        },
        "target_timerange": {
            "start_offset": 289.56,
            "end_offset": 291.54
        },
        "ignore_audio": false,
        "audio_path": null
    },
    {
        "segment_id": "dbe52054984511ef9cebafc695686e13",
        "text": "他的势力在短短数年内便得到了极大的扩张",
        "audio_url": "https://v9-vvecloud.yangyi08.com/eb5d47fe69137cb7ac5420061ae9fb90/6724cbd7/video/tos/cn/tos-cn-v-2cd6b0/owXnaLGhjEBzWQANeSIQsuCFeAcA42AFSOeojC/?a=7073&ch=0&cr=0&dr=0&&br=0&bt=0&ft=xztlUQhhe6BMyqX5UupJD12Nzj&mime_type=audio_mpeg&rc=QGlAYSNz&btag=c0000000008000&dy_q=1730461127&l=202411011938290E1CAE78907F326485D6&format=mp3",
        "source_timerange": {
            "start_offset": 0,
            "end_offset": 3.8899999999999864
        },
        "target_timerange": {
            "start_offset": 291.54,
            "end_offset": 295.43
        },
        "ignore_audio": false,
        "audio_path": null
    },
    {
        "segment_id": "dbe52414984511ef9cebafc695686e13",
        "text": "并先后吞并了江城其他的几伙势力",
        "audio_url": "https://v26-vvecloud.yangyi08.com/fd269af32c8fd28596df8c926c0926d4/6724cbd7/video/tos/cn/tos-cn-v-2cd6b0/okmSsEkTEQxvAi1BAIpkbAtiAPZy5OE9bcvAo/?a=7073&ch=0&cr=0&dr=0&&br=0&bt=0&ft=xztlUQhhe6BMyqX5UupJD12Nzj&mime_type=audio_mpeg&rc=QGlAYSNz&btag=c0000000008000&dy_q=1730461127&l=202411011938290E1CAE78907F326485D6&format=mp3",
        "source_timerange": {
            "start_offset": 0,
            "end_offset": 3.349999999999966
        },
        "target_timerange": {
            "start_offset": 295.43,
            "end_offset": 298.78
        },
        "ignore_audio": false,
        "audio_path": null
    },
    {
        "segment_id": "dbe527ca984511ef9cebafc695686e13",
        "text": "成为了地下王者",
        "audio_url": "https://v6-vvecloud.yangyi08.com/d707b5714a8e05e1f63714e585b336ed/6724cbd7/video/tos/cn/tos-cn-v-2cd6b0/oAAFiGffRnERANAmBgDkY3FLAcEJgC9EEavAEi/?a=7073&ch=0&cr=0&dr=0&&br=0&bt=0&ft=xztlUQhhe6BMyqX5UupJD12Nzj&mime_type=audio_mpeg&rc=QGlAYSNz&btag=c0000000008000&dy_q=1730461127&l=202411011938290E1CAE78907F326485D6&format=mp3",
        "source_timerange": {
            "start_offset": 0,
            "end_offset": 1.9800000000000182
        },
        "target_timerange": {
            "start_offset": 298.78,
            "end_offset": 300.76
        },
        "ignore_audio": false,
        "audio_path": null
    },
    {
        "segment_id": "dbe52b6c984511ef9cebafc695686e13",
        "text": "德爷执掌江城地下世界已经有七八年了",
        "audio_url": "https://v3-vvecloud.yangyi08.com/15e26efded996826982261bb875a9f9f/6724cbd7/video/tos/cn/tos-cn-v-2cd6b0/os8OLejAEjMSfkjQavWuNEAcBSAbEACiXXAafF/?a=7073&ch=0&cr=0&dr=0&&br=0&bt=0&ft=xztlUQhhe6BMyqX5UupJD12Nzj&mime_type=audio_mpeg&rc=QGlAYSNz&btag=c0000000008000&dy_q=1730461127&l=202411011938290E1CAE78907F326485D6&format=mp3",
        "source_timerange": {
            "start_offset": 0,
            "end_offset": 3.670000000000016
        },
        "target_timerange": {
            "start_offset": 300.76,
            "end_offset": 304.43
        },
        "ignore_audio": false,
        "audio_path": null
    },
    {
        "segment_id": "dbe52ef0984511ef9cebafc695686e13",
        "text": "黑白两道 没有谁敢得罪他",
        "audio_url": "https://v9-vvecloud.yangyi08.com/549f79f14a74bf9af1344c53640806c0/6724cbd7/video/tos/cn/tos-cn-v-2cd6b0/oQZkvAA0cEIyhBT2Z6iy9iAAEkv5oxqQSMzXA/?a=7073&ch=0&cr=0&dr=0&&br=0&bt=0&ft=xztlUQhhe6BMyqX5UupJD12Nzj&mime_type=audio_mpeg&rc=QGlAYSNz&btag=c0000000008000&dy_q=1730461127&l=202411011938290E1CAE78907F326485D6&format=mp3",
        "source_timerange": {
            "start_offset": 0,
            "end_offset": 3.170000000000016
        },
        "target_timerange": {
            "start_offset": 304.43,
            "end_offset": 307.6
        },
        "ignore_audio": false,
        "audio_path": null
    },
    {
        "segment_id": "dbe5329c984511ef9cebafc695686e13",
        "text": "甚至包括曾经与他合作的代家 也不敢跟他闹僵！",
        "audio_url": "https://v26-vvecloud.yangyi08.com/3a6a494d4d8c574cf15b93664226831b/6724cbd7/video/tos/cn/tos-cn-v-2cd6b0/o8QESLOOXCA7B5G3Qe9eAaAAIOe90SPN7CuFj4/?a=7073&ch=0&cr=0&dr=0&&br=0&bt=0&ft=xztlUQhhe6BMyqX5UupJD12Nzj&mime_type=audio_mpeg&rc=QGlAYSNz&btag=c0000000008000&dy_q=1730461127&l=202411011938290E1CAE78907F326485D6&format=mp3",
        "source_timerange": {
            "start_offset": 0,
            "end_offset": 4.25
        },
        "target_timerange": {
            "start_offset": 307.6,
            "end_offset": 311.85
        },
        "ignore_audio": false,
        "audio_path": null
    },
    {
        "segment_id": "dbe536a2984511ef9cebafc695686e13",
        "text": "可是最近德爷接了几通神秘电话 却让他寝食难安",
        "audio_url": "https://v3-vvecloud.yangyi08.com/7ef174efe442a28b245135813b116850/6724cbd7/video/tos/cn/tos-cn-v-2cd6b0/owcmEGFZAtNGjeRkAADCE3J6R6ngvBAiALEdfJ/?a=7073&ch=0&cr=0&dr=0&&br=0&bt=0&ft=xztlUQhhe6BMyqX5UupJD12Nzj&mime_type=audio_mpeg&rc=QGlAYSNz&btag=c0000000008000&dy_q=1730461127&l=202411011938290E1CAE78907F326485D6&format=mp3",
        "source_timerange": {
            "start_offset": 0,
            "end_offset": 4.75
        },
        "target_timerange": {
            "start_offset": 311.85,
            "end_offset": 316.6
        },
        "ignore_audio": false,
        "audio_path": null
    },
    {
        "segment_id": "dbe53ab2984511ef9cebafc695686e13",
        "text": "德爷！江河已经到了！一名手下小心翼翼地通报",
        "audio_url": "https://v26-vvecloud.yangyi08.com/3a6c4a6eadc260d999276802b2562b83/6724cbd7/video/tos/cn/tos-cn-v-2cd6b0/oUSAA3nEk6jDoBjvgGNcLfEJFiCRAAJ1Yeo4AE/?a=7073&ch=0&cr=0&dr=0&&br=0&bt=0&ft=xztlUQhhe6BMyqX5UupJD12Nzj&mime_type=audio_mpeg&rc=QGlAYSNz&btag=c0000000008000&dy_q=1730461127&l=202411011938290E1CAE78907F326485D6&format=mp3",
        "source_timerange": {
            "start_offset": 0,
            "end_offset": 5.039999999999964
        },
        "target_timerange": {
            "start_offset": 316.6,
            "end_offset": 321.64
        },
        "ignore_audio": false,
        "audio_path": null
    },
    {
        "segment_id": "dbe53e90984511ef9cebafc695686e13",
        "text": "德爷摸了摸他光头",
        "audio_url": "https://v3-vvecloud.yangyi08.com/6474bd2489272a72867b8309e93f370d/6724cbd7/video/tos/cn/tos-cn-v-2cd6b0/oMRB3FAYANGfA7JAcnqLCfNkgAEiEA0BDLvGEg/?a=7073&ch=0&cr=0&dr=0&&br=0&bt=0&ft=xztlUQhhe6BMyqX5UupJD12Nzj&mime_type=audio_mpeg&rc=QGlAYSNz&btag=c0000000008000&dy_q=1730461127&l=202411011938290E1CAE78907F326485D6&format=mp3",
        "source_timerange": {
            "start_offset": 0,
            "end_offset": 2.090000000000032
        },
        "target_timerange": {
            "start_offset": 321.64,
            "end_offset": 323.73
        },
        "ignore_audio": false,
        "audio_path": null
    },
    {
        "segment_id": "dbe54214984511ef9cebafc695686e13",
        "text": "沉声道：“其他堂口的人都到了嘛？”“都到齐了！”",
        "audio_url": "https://v6-vvecloud.yangyi08.com/eefb73700c0967e67b70470a9c56e0fd/6724cbd7/video/tos/cn/tos-cn-v-2cd6b0/oQaCSwEFCXiGd3AfAAAj4NeuElBLSeIOAQMQZ1/?a=7073&ch=0&cr=0&dr=0&&br=0&bt=0&ft=xztlUQhhe6BMyqX5UupJD12Nzj&mime_type=audio_mpeg&rc=QGlAYSNz&btag=c0000000008000&dy_q=1730461127&l=202411011938290E1CAE78907F326485D6&format=mp3",
        "source_timerange": {
            "start_offset": 0,
            "end_offset": 4.414999999999964
        },
        "target_timerange": {
            "start_offset": 323.73,
            "end_offset": 328.145
        },
        "ignore_audio": false,
        "audio_path": null
    },
    {
        "segment_id": "dbe544d0984511ef9cebafc695686e13",
        "text": "手下严肃的道",
        "audio_url": "https://v6-vvecloud.yangyi08.com/eefb73700c0967e67b70470a9c56e0fd/6724cbd7/video/tos/cn/tos-cn-v-2cd6b0/oQaCSwEFCXiGd3AfAAAj4NeuElBLSeIOAQMQZ1/?a=7073&ch=0&cr=0&dr=0&&br=0&bt=0&ft=xztlUQhhe6BMyqX5UupJD12Nzj&mime_type=audio_mpeg&rc=QGlAYSNz&btag=c0000000008000&dy_q=1730461127&l=202411011938290E1CAE78907F326485D6&format=mp3",
        "source_timerange": {
            "start_offset": 4.414999999999964,
            "end_offset": 5.689999999999998
        },
        "target_timerange": {
            "start_offset": 328.145,
            "end_offset": 329.42
        },
        "ignore_audio": true,
        "audio_path": null
    },
    {
        "segment_id": "dbe547f0984511ef9cebafc695686e13",
        "text": "万福楼聚义堂前",
        "audio_url": "https://v9-vvecloud.yangyi08.com/563309a5ac46a6523e7f265ce1c34ebe/6724cbd7/video/tos/cn/tos-cn-v-2cd6b0/ogR3mANDnBveNkDFEAAL2CEtiAlkfJbgwREcAG/?a=7073&ch=0&cr=0&dr=0&&br=0&bt=0&ft=xztlUQhhe6BMyqX5UupJD12Nzj&mime_type=audio_mpeg&rc=QGlAYSNz&btag=c0000000008000&dy_q=1730461127&l=202411011938290E1CAE78907F326485D6&format=mp3",
        "source_timerange": {
            "start_offset": 0,
            "end_offset": 2.1999999999999886
        },
        "target_timerange": {
            "start_offset": 329.42,
            "end_offset": 331.62
        },
        "ignore_audio": false,
        "audio_path": null
    },
    {
        "segment_id": "dbe54aac984511ef9cebafc695686e13",
        "text": "江城八个堂口的话事人都严肃地坐在桌前",
        "audio_url": "https://v3-vvecloud.yangyi08.com/6589c1a619b8faf61ef331fdc5a3cf9c/6724cbd7/video/tos/cn/tos-cn-v-2cd6b0/okxyZkoARBJTAEABvSkvAc98iQIZ29Aa9DiWE/?a=7073&ch=0&cr=0&dr=0&&br=0&bt=0&ft=xztlUQhhe6BMyqX5UupJD12Nzj&mime_type=audio_mpeg&rc=QGlAYSNz&btag=c0000000008000&dy_q=1730461127&l=202411011938290E1CAE78907F326485D6&format=mp3",
        "source_timerange": {
            "start_offset": 0,
            "end_offset": 3.740000000000009
        },
        "target_timerange": {
            "start_offset": 331.62,
            "end_offset": 335.36
        },
        "ignore_audio": false,
        "audio_path": null
    },
    {
        "segment_id": "dbe54e44984511ef9cebafc695686e13",
        "text": "喝着茶水品尝着水果",
        "audio_url": "https://v26-vvecloud.yangyi08.com/66461ca8b932981ebc32685a652dd32c/6724cbd8/video/tos/cn/tos-cn-v-2cd6b0/oABTUAQkoc9SbxAE3AiiAAkZh0EwvzyAioIsv/?a=7073&ch=0&cr=0&dr=0&&br=0&bt=0&ft=xztlUQhhe6BMyqS5UupJD12Nzj&mime_type=audio_mpeg&rc=QGlAYSNz&btag=c0000000008000&dy_q=1730461128&l=202411011938290E1CAE78907F326485D6&format=mp3",
        "source_timerange": {
            "start_offset": 0,
            "end_offset": 2.409999999999968
        },
        "target_timerange": {
            "start_offset": 335.36,
            "end_offset": 337.77
        },
        "ignore_audio": false,
        "audio_path": null
    },
    {
        "segment_id": "dbe552c2984511ef9cebafc695686e13",
        "text": "“我们好久没有开这聚义会了吧！”是啊！",
        "audio_url": "https://v6-vvecloud.yangyi08.com/a3a2344d196a9545ac2417e4bcc290be/6724cbd8/video/tos/cn/tos-cn-v-2cd6b0/oICAkFhH3JGcDvxARfHBLciqgNE7AAAEJnyuEe/?a=7073&ch=0&cr=0&dr=0&&br=0&bt=0&ft=xztlUQhhe6BMyqS5UupJD12Nzj&mime_type=audio_mpeg&rc=QGlAYSNz&btag=c0000000008000&dy_q=1730461128&l=202411011938290E1CAE78907F326485D6&format=mp3",
        "source_timerange": {
            "start_offset": 0,
            "end_offset": 3.4600000000000364
        },
        "target_timerange": {
            "start_offset": 337.77,
            "end_offset": 341.23
        },
        "ignore_audio": false,
        "audio_path": null
    },
    {
        "segment_id": "dbe556be984511ef9cebafc695686e13",
        "text": "这次 怎么还带了个外人！",
        "audio_url": "https://v6-vvecloud.yangyi08.com/841fb4e6ffca7c04b666bab28c16e15f/6724cbd7/video/tos/cn/tos-cn-v-2cd6b0/o44EQeXSFA6jGtAQA47IFPCaeBSLQfM6OIu1AC/?a=7073&ch=0&cr=0&dr=0&&br=0&bt=0&ft=xztlUQhhe6BMyqX5UupJD12Nzj&mime_type=audio_mpeg&rc=QGlAYSNz&btag=c0000000008000&dy_q=1730461127&l=202411011938290E1CAE78907F326485D6&format=mp3",
        "source_timerange": {
            "start_offset": 0,
            "end_offset": 2.625
        },
        "target_timerange": {
            "start_offset": 341.23,
            "end_offset": 343.855
        },
        "ignore_audio": false,
        "audio_path": null
    },
    {
        "segment_id": "dbe55ad8984511ef9cebafc695686e13",
        "text": "众人看到角落里忐忑不安的江河",
        "audio_url": "https://v6-vvecloud.yangyi08.com/841fb4e6ffca7c04b666bab28c16e15f/6724cbd7/video/tos/cn/tos-cn-v-2cd6b0/o44EQeXSFA6jGtAQA47IFPCaeBSLQfM6OIu1AC/?a=7073&ch=0&cr=0&dr=0&&br=0&bt=0&ft=xztlUQhhe6BMyqX5UupJD12Nzj&mime_type=audio_mpeg&rc=QGlAYSNz&btag=c0000000008000&dy_q=1730461127&l=202411011938290E1CAE78907F326485D6&format=mp3",
        "source_timerange": {
            "start_offset": 2.625,
            "end_offset": 5.21999999999997
        },
        "target_timerange": {
            "start_offset": 343.855,
            "end_offset": 346.45
        },
        "ignore_audio": true,
        "audio_path": null
    },
    {
        "segment_id": "dbe5761c984511ef9cebafc695686e13",
        "text": "眼中虽有不满 但也不敢多说什么",
        "audio_url": "https://v3-vvecloud.yangyi08.com/ab01673f13b4650f5c8cbc335e193336/6724cbd8/video/tos/cn/tos-cn-v-2cd6b0/ostkjE7iAYIyAEdE7AizBvABQMmqAgocflkRq9/?a=7073&ch=0&cr=0&dr=0&&br=0&bt=0&ft=xztlUQhhe6BMyqS5UupJD12Nzj&mime_type=audio_mpeg&rc=QGlAYSNz&btag=c0000000008000&dy_q=1730461128&l=202411011938290E1CAE78907F326485D6&format=mp3",
        "source_timerange": {
            "start_offset": 0,
            "end_offset": 3.3500000000000227
        },
        "target_timerange": {
            "start_offset": 346.45,
            "end_offset": 349.8
        },
        "ignore_audio": false,
        "audio_path": null
    },
    {
        "segment_id": "dbe57a4a984511ef9cebafc695686e13",
        "text": "毕竟这里可是德爷的地盘",
        "audio_url": "https://v26-vvecloud.yangyi08.com/3730e97bf4c1958b2d62a4b8160f154d/6724cbd8/video/tos/cn/tos-cn-v-2cd6b0/ocSV8APEjQiF4aferCQAl8GOAWYLIBPXCAFueS/?a=7073&ch=0&cr=0&dr=0&&br=0&bt=0&ft=xztlUQhhe6BMyqS5UupJD12Nzj&mime_type=audio_mpeg&rc=QGlAYSNz&btag=c0000000008000&dy_q=1730461128&l=202411011938290E1CAE78907F326485D6&format=mp3",
        "source_timerange": {
            "start_offset": 0,
            "end_offset": 2.409999999999968
        },
        "target_timerange": {
            "start_offset": 349.8,
            "end_offset": 352.21
        },
        "ignore_audio": false,
        "audio_path": null
    },
    {
        "segment_id": "dbe57cfc984511ef9cebafc695686e13",
        "text": "在这样的氛围下",
        "audio_url": "https://v26-vvecloud.yangyi08.com/2fec1314096b7aad16c1d15b04fe4b4a/6724cbd8/video/tos/cn/tos-cn-v-2cd6b0/ognsEvAzgQAEcAIIAimcfAGBkjkBkix7lmSv8R/?a=7073&ch=0&cr=0&dr=0&&br=0&bt=0&ft=xztlUQhhe6BMyqS5UupJD12Nzj&mime_type=audio_mpeg&rc=QGlAYSNz&btag=c0000000008000&dy_q=1730461128&l=202411011938290E1CAE78907F326485D6&format=mp3",
        "source_timerange": {
            "start_offset": 0,
            "end_offset": 1.9800000000000182
        },
        "target_timerange": {
            "start_offset": 352.21,
            "end_offset": 354.19
        },
        "ignore_audio": false,
        "audio_path": null
    },
    {
        "segment_id": "dbe57fc2984511ef9cebafc695686e13",
        "text": "我知道 接下来的事情将会越来越复杂",
        "audio_url": "https://v26-vvecloud.yangyi08.com/b9ff06be5f99d707ee09f640012425b4/6724cbd8/video/tos/cn/tos-cn-v-2cd6b0/ogQSQABAjeySF9GORLCeexzawuTEPIAAa0X4Cm/?a=7073&ch=0&cr=0&dr=0&&br=0&bt=0&ft=xztlUQhhe6BMyqS5UupJD12Nzj&mime_type=audio_mpeg&rc=QGlAYSNz&btag=c0000000008000&dy_q=1730461128&l=202411011938290E1CAE78907F326485D6&format=mp3",
        "source_timerange": {
            "start_offset": 0,
            "end_offset": 3.920000000000016
        },
        "target_timerange": {
            "start_offset": 354.19,
            "end_offset": 358.11
        },
        "ignore_audio": false,
        "audio_path": null
    },
    {
        "segment_id": "dbe582f6984511ef9cebafc695686e13",
        "text": "作为史金 我必须做好准备 面对即将来临的风暴",
        "audio_url": "https://v9-vvecloud.yangyi08.com/009cc3845458ee1bf2bbaeae5645bbad/6724cbd8/video/tos/cn/tos-cn-v-2cd6b0/o0nMQEajAEeXSCM4BAAWvS4vQ8ecOPQCDAueSF/?a=7073&ch=0&cr=0&dr=0&&br=0&bt=0&ft=xztlUQhhe6BMyqS5UupJD12Nzj&mime_type=audio_mpeg&rc=QGlAYSNz&btag=c0000000008000&dy_q=1730461128&l=202411011938290E1CAE78907F326485D6&format=mp3",
        "source_timerange": {
            "start_offset": 0,
            "end_offset": 4.639999999999986
        },
        "target_timerange": {
            "start_offset": 358.11,
            "end_offset": 362.75
        },
        "ignore_audio": false,
        "audio_path": null
    }
]