[
    {
        "segment_id": "44647f40984511efac0800163e382b8e",
        "text": "梦中我被一阵拍打声惊醒",
        "audio_url": "https://v6-vvecloud.yangyi08.com/05ca24bdcebadbc2833e675076448d0a/6724cad8/video/tos/cn/tos-cn-v-2cd6b0/okkAAEIzyWB8SAEQlAAhoEZlvDkR1gViMQiyP/?a=7073&ch=0&cr=0&dr=0&&br=0&bt=0&ft=xztlUQhhe6BMyqScUupJD12Nzj&mime_type=audio_mpeg&rc=QGlAYSNz&btag=80000000008000&dy_q=1730460872&l=202411011934201E7538D8228B578C67F0&format=mp3",
        "source_timerange": {
            "start_offset": 0,
            "end_offset": 2.74
        },
        "target_timerange": {
            "start_offset": 0,
            "end_offset": 2.74
        },
        "ignore_audio": false,
        "audio_path": null
    },
    {
        "segment_id": "446481fc984511efac0800163e382b8e",
        "text": "猛地睁开眼 映入眼帘的是几个陌生的男女",
        "audio_url": "https://v6-vvecloud.yangyi08.com/1b0fe56c6342e38f6ea6c9a0eae4ff3f/6724cad8/video/tos/cn/tos-cn-v-2cd6b0/oIgkIszEAXRVAEiE0BFnCvADgbC9AAzMfLJiLe/?a=7073&ch=0&cr=0&dr=0&&br=0&bt=0&ft=xztlUQhhe6BMyqScUupJD12Nzj&mime_type=audio_mpeg&rc=QGlAYSNz&btag=80000000008000&dy_q=1730460872&l=202411011934201E7538D8228B578C67F0&format=mp3",
        "source_timerange": {
            "start_offset": 0,
            "end_offset": 3.8899999999999997
        },
        "target_timerange": {
            "start_offset": 2.74,
            "end_offset": 6.63
        },
        "ignore_audio": false,
        "audio_path": null
    },
    {
        "segment_id": "446483b4984511efac0800163e382b8e",
        "text": "他们正恶狠狠地盯着我",
        "audio_url": "https://v3-vvecloud.yangyi08.com/84dbd224004361bd4399451d47d6e3e2/6724cad8/video/tos/cn/tos-cn-v-2cd6b0/o0yZsIS7Ak8QAMAviiiPyEE8xLvrAAoBmAkWg/?a=7073&ch=0&cr=0&dr=0&&br=0&bt=0&ft=xztlUQhhe6BMyqScUupJD12Nzj&mime_type=audio_mpeg&rc=QGlAYSNz&btag=80000000008000&dy_q=1730460872&l=202411011934201E7538D8228B578C67F0&format=mp3",
        "source_timerange": {
            "start_offset": 0,
            "end_offset": 2.2
        },
        "target_timerange": {
            "start_offset": 6.63,
            "end_offset": 8.83
        },
        "ignore_audio": false,
        "audio_path": null
    },
    {
        "segment_id": "44648544984511efac0800163e382b8e",
        "text": "那一刻 我的心中涌起不祥的预感",
        "audio_url": "https://v6-vvecloud.yangyi08.com/bf7d7dbe15f1a5eb8749a31830b3e937/6724cad8/video/tos/cn/tos-cn-v-2cd6b0/oEUmVnyAISkouBg5AA8TTEi5QZiMkDyAEvhAP/?a=7073&ch=0&cr=0&dr=0&&br=0&bt=0&ft=xztlUQhhe6BMyqScUupJD12Nzj&mime_type=audio_mpeg&rc=QGlAYSNz&btag=80000000008000&dy_q=1730460872&l=202411011934201E7538D8228B578C67F0&format=mp3",
        "source_timerange": {
            "start_offset": 0,
            "end_offset": 3.5600000000000005
        },
        "target_timerange": {
            "start_offset": 8.83,
            "end_offset": 12.39
        },
        "ignore_audio": false,
        "audio_path": null
    },
    {
        "segment_id": "446486d4984511efac0800163e382b8e",
        "text": "“你是史金是吧？”",
        "audio_url": "https://v3-vvecloud.yangyi08.com/6a0600fd5eadd1816895b8ede89bf836/6724cad9/video/tos/cn/tos-cn-v-2cd6b0/oEErFRQAEFFL0IXeCEjrXSeQAmGfBCAQmAZOlS/?a=7073&ch=0&cr=0&dr=0&&br=0&bt=0&ft=xztlUQhhe6BMyqxcUupJD12Nzj&mime_type=audio_mpeg&rc=QGlAYSNz&btag=80000000008000&dy_q=1730460873&l=202411011934201E7538D8228B578C67F0&format=mp3",
        "source_timerange": {
            "start_offset": 0,
            "end_offset": 1.6849999999999987
        },
        "target_timerange": {
            "start_offset": 12.39,
            "end_offset": 14.075
        },
        "ignore_audio": false,
        "audio_path": null
    },
    {
        "segment_id": "44648846984511efac0800163e382b8e",
        "text": "为首的男子眼中闪烁着凶狠的光芒",
        "audio_url": "https://v3-vvecloud.yangyi08.com/6a0600fd5eadd1816895b8ede89bf836/6724cad9/video/tos/cn/tos-cn-v-2cd6b0/oEErFRQAEFFL0IXeCEjrXSeQAmGfBCAQmAZOlS/?a=7073&ch=0&cr=0&dr=0&&br=0&bt=0&ft=xztlUQhhe6BMyqxcUupJD12Nzj&mime_type=audio_mpeg&rc=QGlAYSNz&btag=80000000008000&dy_q=1730460873&l=202411011934201E7538D8228B578C67F0&format=mp3",
        "source_timerange": {
            "start_offset": 1.6849999999999987,
            "end_offset": 4.539999999999999
        },
        "target_timerange": {
            "start_offset": 14.075,
            "end_offset": 16.93
        },
        "ignore_audio": true,
        "audio_path": null
    },
    {
        "segment_id": "446489c2984511efac0800163e382b8e",
        "text": "手中握着一把寒光闪烁的刀子 直接指向我",
        "audio_url": "https://v9-vvecloud.yangyi08.com/41e94bb33404339f57bf459324b35374/6724cad8/video/tos/cn/tos-cn-v-2cd6b0/owvAdBZyQIAyMiNAci87A2bE4kkAPoSLigQvE/?a=7073&ch=0&cr=0&dr=0&&br=0&bt=0&ft=xztlUQhhe6BMyqScUupJD12Nzj&mime_type=audio_mpeg&rc=QGlAYSNz&btag=80000000008000&dy_q=1730460872&l=202411011934201E7538D8228B578C67F0&format=mp3",
        "source_timerange": {
            "start_offset": 0,
            "end_offset": 4.18
        },
        "target_timerange": {
            "start_offset": 16.93,
            "end_offset": 21.11
        },
        "ignore_audio": false,
        "audio_path": null
    },
    {
        "segment_id": "44648b3e984511efac0800163e382b8e",
        "text": "我的心瞬间沉到了谷底 这种场面我绝对不想面对",
        "audio_url": "https://v6-vvecloud.yangyi08.com/e8003d40cf8854c319a9e45116e7135d/6724cad9/video/tos/cn/tos-cn-v-2cd6b0/owgw8mykC4AABEbhMgPoZvA5kiIA8iAE6QSyx/?a=7073&ch=0&cr=0&dr=0&&br=0&bt=0&ft=xztlUQhhe6BMyqxcUupJD12Nzj&mime_type=audio_mpeg&rc=QGlAYSNz&btag=80000000008000&dy_q=1730460873&l=202411011934201E7538D8228B578C67F0&format=mp3",
        "source_timerange": {
            "start_offset": 0,
            "end_offset": 4.609999999999999
        },
        "target_timerange": {
            "start_offset": 21.11,
            "end_offset": 25.72
        },
        "ignore_audio": false,
        "audio_path": null
    },
    {
        "segment_id": "44648cce984511efac0800163e382b8e",
        "text": "被绑在椅子上 手脚都被胶带缠住",
        "audio_url": "https://v26-vvecloud.yangyi08.com/57c295c627e9eb8e1de97e95b2f5ccad/6724cad9/video/tos/cn/tos-cn-v-2cd6b0/oYARAfRADAAnFANiIkEvLOEMJBCEIF8gegRIzC/?a=7073&ch=0&cr=0&dr=0&&br=0&bt=0&ft=xztlUQhhe6BMyqxcUupJD12Nzj&mime_type=audio_mpeg&rc=QGlAYSNz&btag=80000000008000&dy_q=1730460873&l=202411011934201E7538D8228B578C67F0&format=mp3",
        "source_timerange": {
            "start_offset": 0,
            "end_offset": 3.530000000000001
        },
        "target_timerange": {
            "start_offset": 25.72,
            "end_offset": 29.25
        },
        "ignore_audio": false,
        "audio_path": null
    },
    {
        "segment_id": "44648ea4984511efac0800163e382b8e",
        "text": "手臂的伤口渗出了血 浑身无力",
        "audio_url": "https://v26-vvecloud.yangyi08.com/67105d99c274d5a6a6bd69bfbb4a0802/6724cad8/video/tos/cn/tos-cn-v-2cd6b0/oswEg6JEe3AvAFnUCFLIiXEAkDxMfhCTRABzAC/?a=7073&ch=0&cr=0&dr=0&&br=0&bt=0&ft=xztlUQhhe6BMyqScUupJD12Nzj&mime_type=audio_mpeg&rc=QGlAYSNz&btag=80000000008000&dy_q=1730460872&l=202411011934201E7538D8228B578C67F0&format=mp3",
        "source_timerange": {
            "start_offset": 0,
            "end_offset": 3.530000000000001
        },
        "target_timerange": {
            "start_offset": 29.25,
            "end_offset": 32.78
        },
        "ignore_audio": false,
        "audio_path": null
    },
    {
        "segment_id": "44649066984511efac0800163e382b8e",
        "text": "眼前的几张陌生面孔让我感到无比恐惧",
        "audio_url": "https://v9-vvecloud.yangyi08.com/e464bdd651d11a2fc16a5d892d20cedc/6724cad9/video/tos/cn/tos-cn-v-2cd6b0/oIjeCK4YIEfuGlcJevIeAkivkEMKogMAtAAjEA/?a=7073&ch=0&cr=0&dr=0&&br=0&bt=0&ft=xztlUQhhe6BMyqxcUupJD12Nzj&mime_type=audio_mpeg&rc=QGlAYSNz&btag=80000000008000&dy_q=1730460873&l=202411011934201E7538D8228B578C67F0&format=mp3",
        "source_timerange": {
            "start_offset": 0,
            "end_offset": 3.530000000000001
        },
        "target_timerange": {
            "start_offset": 32.78,
            "end_offset": 36.31
        },
        "ignore_audio": false,
        "audio_path": null
    },
    {
        "segment_id": "44649250984511efac0800163e382b8e",
        "text": "他冷冷地问我：你们是谁？这是要做什么？",
        "audio_url": "https://v6-vvecloud.yangyi08.com/8644750ac9cb8071dc718b979cc7caba/6724cad8/video/tos/cn/tos-cn-v-2cd6b0/oAqAckyiU8ByEk2AXZAAgjzZvMAkiEQSBkIPo/?a=7073&ch=0&cr=0&dr=0&&br=0&bt=0&ft=xztlUQhhe6BMyqScUupJD12Nzj&mime_type=audio_mpeg&rc=QGlAYSNz&btag=80000000008000&dy_q=1730460872&l=202411011934201E7538D8228B578C67F0&format=mp3",
        "source_timerange": {
            "start_offset": 0,
            "end_offset": 3.934999999999995
        },
        "target_timerange": {
            "start_offset": 36.31,
            "end_offset": 40.245
        },
        "ignore_audio": false,
        "audio_path": null
    },
    {
        "segment_id": "44649430984511efac0800163e382b8e",
        "text": "嘿嘿～我们当然是来要债的",
        "audio_url": "https://v6-vvecloud.yangyi08.com/8644750ac9cb8071dc718b979cc7caba/6724cad8/video/tos/cn/tos-cn-v-2cd6b0/oAqAckyiU8ByEk2AXZAAgjzZvMAkiEQSBkIPo/?a=7073&ch=0&cr=0&dr=0&&br=0&bt=0&ft=xztlUQhhe6BMyqScUupJD12Nzj&mime_type=audio_mpeg&rc=QGlAYSNz&btag=80000000008000&dy_q=1730460872&l=202411011934201E7538D8228B578C67F0&format=mp3",
        "source_timerange": {
            "start_offset": 3.934999999999995,
            "end_offset": 5.799999999999997
        },
        "target_timerange": {
            "start_offset": 40.245,
            "end_offset": 42.11
        },
        "ignore_audio": true,
        "audio_path": null
    },
    {
        "segment_id": "446495f2984511efac0800163e382b8e",
        "text": "你之前借了我们很多钱 怎么着？想赖账？",
        "audio_url": "https://v9-vvecloud.yangyi08.com/c8ed842debf84825fcc1e2c0ebd92ece/6724cad9/video/tos/cn/tos-cn-v-2cd6b0/oofREizfH5IDAAlkT2BhE3OvgAFMAnCLJbDCAE/?a=7073&ch=0&cr=0&dr=0&&br=0&bt=0&ft=xztlUQhhe6BMyqxcUupJD12Nzj&mime_type=audio_mpeg&rc=QGlAYSNz&btag=80000000008000&dy_q=1730460873&l=202411011934201E7538D8228B578C67F0&format=mp3",
        "source_timerange": {
            "start_offset": 0,
            "end_offset": 4.055
        },
        "target_timerange": {
            "start_offset": 42.11,
            "end_offset": 46.165
        },
        "ignore_audio": false,
        "audio_path": null
    },
    {
        "segment_id": "446497c8984511efac0800163e382b8e",
        "text": "他嘴角勾起一抹阴险的笑容",
        "audio_url": "https://v9-vvecloud.yangyi08.com/c8ed842debf84825fcc1e2c0ebd92ece/6724cad9/video/tos/cn/tos-cn-v-2cd6b0/oofREizfH5IDAAlkT2BhE3OvgAFMAnCLJbDCAE/?a=7073&ch=0&cr=0&dr=0&&br=0&bt=0&ft=xztlUQhhe6BMyqxcUupJD12Nzj&mime_type=audio_mpeg&rc=QGlAYSNz&btag=80000000008000&dy_q=1730460873&l=202411011934201E7538D8228B578C67F0&format=mp3",
        "source_timerange": {
            "start_offset": 4.055,
            "end_offset": 6.340000000000003
        },
        "target_timerange": {
            "start_offset": 46.165,
            "end_offset": 48.45
        },
        "ignore_audio": true,
        "audio_path": null
    },
    {
        "segment_id": "44649994984511efac0800163e382b8e",
        "text": "我心里一惊 心想自己根本没借过什么钱",
        "audio_url": "https://v9-vvecloud.yangyi08.com/5d3571bfa853461b9959a4460c2d3fc4/6724cad9/video/tos/cn/tos-cn-v-2cd6b0/o4MAkEVQ8BBghAA3HlAkPDEAioyiZEvyQISAr/?a=7073&ch=0&cr=0&dr=0&&br=0&bt=0&ft=xztlUQhhe6BMyqxcUupJD12Nzj&mime_type=audio_mpeg&rc=QGlAYSNz&btag=80000000008000&dy_q=1730460873&l=202411011934201E7538D8228B578C67F0&format=mp3",
        "source_timerange": {
            "start_offset": 0,
            "end_offset": 3.739999999999995
        },
        "target_timerange": {
            "start_offset": 48.45,
            "end_offset": 52.19
        },
        "ignore_audio": false,
        "audio_path": null
    },
    {
        "segment_id": "44649afc984511efac0800163e382b8e",
        "text": "难道这些人搞错了？我没有欠谁钱啊？",
        "audio_url": "https://v6-vvecloud.yangyi08.com/84edc98b73d80fa7809c847f66fc6672/6724cad9/video/tos/cn/tos-cn-v-2cd6b0/oEZAohyASbBpiMxEA8kuNg22kAvEAPiIDQ8yA/?a=7073&ch=0&cr=0&dr=0&&br=0&bt=0&ft=xztlUQhhe6BMyqxcUupJD12Nzj&mime_type=audio_mpeg&rc=QGlAYSNz&btag=80000000008000&dy_q=1730460873&l=202411011934201E7538D8228B578C67F0&format=mp3",
        "source_timerange": {
            "start_offset": 0,
            "end_offset": 3.6000000000000014
        },
        "target_timerange": {
            "start_offset": 52.19,
            "end_offset": 55.79
        },
        "ignore_audio": false,
        "audio_path": null
    },
    {
        "segment_id": "44649cf0984511efac0800163e382b8e",
        "text": "你是不是搞错了？我急忙辩解 搞错？",
        "audio_url": "https://v3-vvecloud.yangyi08.com/e02931889a261d32b1329a81603ec491/6724cad9/video/tos/cn/tos-cn-v-2cd6b0/oEvykIQiZDXDSPQMAA9AgAvEkyI8iPoEBAxiE/?a=7073&ch=0&cr=0&dr=0&&br=0&bt=0&ft=xztlUQhhe6BMyqxcUupJD12Nzj&mime_type=audio_mpeg&rc=QGlAYSNz&btag=80000000008000&dy_q=1730460873&l=202411011934201E7538D8228B578C67F0&format=mp3",
        "source_timerange": {
            "start_offset": 0,
            "end_offset": 4.210000000000001
        },
        "target_timerange": {
            "start_offset": 55.79,
            "end_offset": 60
        },
        "ignore_audio": false,
        "audio_path": null
    },
    {
        "segment_id": "44649ebc984511efac0800163e382b8e",
        "text": "不可能搞错的 让我们帮你回忆一下",
        "audio_url": "https://v6-vvecloud.yangyi08.com/594e404adcb8d7992d9c200a1a7ec6f1/6724cad9/video/tos/cn/tos-cn-v-2cd6b0/ooBtCvcJUFAAIiLAEnED4MffEAivgzN4ACkIWR/?a=7073&ch=0&cr=0&dr=0&&br=0&bt=0&ft=xztlUQhhe6BMyqxcUupJD12Nzj&mime_type=audio_mpeg&rc=QGlAYSNz&btag=80000000008000&dy_q=1730460873&l=202411011934201E7538D8228B578C67F0&format=mp3",
        "source_timerange": {
            "start_offset": 0,
            "end_offset": 3.1700000000000017
        },
        "target_timerange": {
            "start_offset": 60,
            "end_offset": 63.17
        },
        "ignore_audio": false,
        "audio_path": null
    },
    {
        "segment_id": "4464a07e984511efac0800163e382b8e",
        "text": "前些时日 你不是找网络贷款公司",
        "audio_url": "https://v26-vvecloud.yangyi08.com/5ab240634e2438d11b5de3842a51b6f9/6724cad9/video/tos/cn/tos-cn-v-2cd6b0/owAmEEIGAgeBTTgAvOXkEjfEMALF5jFSeRCRrA/?a=7073&ch=0&cr=0&dr=0&&br=0&bt=0&ft=xztlUQhhe6BMyqxcUupJD12Nzj&mime_type=audio_mpeg&rc=QGlAYSNz&btag=80000000008000&dy_q=1730460873&l=202411011934201E7538D8228B578C67F0&format=mp3",
        "source_timerange": {
            "start_offset": 0,
            "end_offset": 3.5600000000000023
        },
        "target_timerange": {
            "start_offset": 63.17,
            "end_offset": 66.73
        },
        "ignore_audio": false,
        "audio_path": null
    },
    {
        "segment_id": "4464a24a984511efac0800163e382b8e",
        "text": "借了好几百万吗？我们便是其中的工作人员",
        "audio_url": "https://v9-vvecloud.yangyi08.com/f77ffe22b88b8b71fcdb4b49cf3fd7b9/6724cad8/video/tos/cn/tos-cn-v-2cd6b0/oUAzECEDARfAaeiAvnLkiG7EMAFXyRCJGIBNjg/?a=7073&ch=0&cr=0&dr=0&&br=0&bt=0&ft=xztlUQhhe6BMyqScUupJD12Nzj&mime_type=audio_mpeg&rc=QGlAYSNz&btag=80000000008000&dy_q=1730460872&l=202411011934201E7538D8228B578C67F0&format=mp3",
        "source_timerange": {
            "start_offset": 0,
            "end_offset": 3.344999999999999
        },
        "target_timerange": {
            "start_offset": 66.73,
            "end_offset": 70.075
        },
        "ignore_audio": false,
        "audio_path": null
    },
    {
        "segment_id": "4464a3f8984511efac0800163e382b8e",
        "text": "他冷哼一声 眼神中闪烁着威胁的光芒",
        "audio_url": "https://v9-vvecloud.yangyi08.com/f77ffe22b88b8b71fcdb4b49cf3fd7b9/6724cad8/video/tos/cn/tos-cn-v-2cd6b0/oUAzECEDARfAaeiAvnLkiG7EMAFXyRCJGIBNjg/?a=7073&ch=0&cr=0&dr=0&&br=0&bt=0&ft=xztlUQhhe6BMyqScUupJD12Nzj&mime_type=audio_mpeg&rc=QGlAYSNz&btag=80000000008000&dy_q=1730460872&l=202411011934201E7538D8228B578C67F0&format=mp3",
        "source_timerange": {
            "start_offset": 3.344999999999999,
            "end_offset": 6.839999999999989
        },
        "target_timerange": {
            "start_offset": 70.075,
            "end_offset": 73.57
        },
        "ignore_audio": true,
        "audio_path": null
    },
    {
        "segment_id": "4464a5b0984511efac0800163e382b8e",
        "text": "我心中一沉 这才明白过来",
        "audio_url": "https://v26-vvecloud.yangyi08.com/c933e1b39bef6a31e8d84ee9fa1ab400/6724cad8/video/tos/cn/tos-cn-v-2cd6b0/oYEZkyvAiPriShBEA5vCgkoA8IFVAyXBnMzAQ/?a=7073&ch=0&cr=0&dr=0&&br=0&bt=0&ft=xztlUQhhe6BMyqScUupJD12Nzj&mime_type=audio_mpeg&rc=QGlAYSNz&btag=80000000008000&dy_q=1730460872&l=202411011934201E7538D8228B578C67F0&format=mp3",
        "source_timerange": {
            "start_offset": 0,
            "end_offset": 3.0200000000000102
        },
        "target_timerange": {
            "start_offset": 73.57,
            "end_offset": 76.59
        },
        "ignore_audio": false,
        "audio_path": null
    },
    {
        "segment_id": "4464a754984511efac0800163e382b8e",
        "text": "原来是那些网络贷款公司的人找上了我",
        "audio_url": "https://v9-vvecloud.yangyi08.com/a0157a4f9dceeff68f1b0426e42f3432/6724cad9/video/tos/cn/tos-cn-v-2cd6b0/osz1yP8uYgBAikAAQEgAZoMkQrAEIygBivZkS/?a=7073&ch=0&cr=0&dr=0&&br=0&bt=0&ft=xztlUQhhe6BMyqxcUupJD12Nzj&mime_type=audio_mpeg&rc=QGlAYSNz&btag=80000000008000&dy_q=1730460873&l=202411011934201E7538D8228B578C67F0&format=mp3",
        "source_timerange": {
            "start_offset": 0,
            "end_offset": 3.3499999999999943
        },
        "target_timerange": {
            "start_offset": 76.59,
            "end_offset": 79.94
        },
        "ignore_audio": false,
        "audio_path": null
    },
    {
        "segment_id": "4464a8ee984511efac0800163e382b8e",
        "text": "我的确借过钱",
        "audio_url": "https://v3-vvecloud.yangyi08.com/49c8cf7a46801040745986db4be4f107/6724cad9/video/tos/cn/tos-cn-v-2cd6b0/oMnJAfLvEALAB1oiEIAkhACqARFMgCfwGgaDzE/?a=7073&ch=0&cr=0&dr=0&&br=0&bt=0&ft=xztlUQhhe6BMyqxcUupJD12Nzj&mime_type=audio_mpeg&rc=QGlAYSNz&btag=80000000008000&dy_q=1730460873&l=202411011934201E7538D8228B578C67F0&format=mp3",
        "source_timerange": {
            "start_offset": 0,
            "end_offset": 1.980000000000004
        },
        "target_timerange": {
            "start_offset": 79.94,
            "end_offset": 81.92
        },
        "ignore_audio": false,
        "audio_path": null
    },
    {
        "segment_id": "4464aa88984511efac0800163e382b8e",
        "text": "但绝对没有想过会有这么严重的后果",
        "audio_url": "https://v3-vvecloud.yangyi08.com/72f68b3435cbdef46cb24162f3bdb6d7/6724cad9/video/tos/cn/tos-cn-v-2cd6b0/oIDhkMfzAuALnFAioM4BCICpEJEAvEkgRfAAh5/?a=7073&ch=0&cr=0&dr=0&&br=0&bt=0&ft=xztlUQhhe6BMyqxcUupJD12Nzj&mime_type=audio_mpeg&rc=QGlAYSNz&btag=80000000008000&dy_q=1730460873&l=202411011934201E7538D8228B578C67F0&format=mp3",
        "source_timerange": {
            "start_offset": 0,
            "end_offset": 3.280000000000001
        },
        "target_timerange": {
            "start_offset": 81.92,
            "end_offset": 85.2
        },
        "ignore_audio": false,
        "audio_path": null
    },
    {
        "segment_id": "4464ac40984511efac0800163e382b8e",
        "text": "就在我试图寻找逃脱的机会时",
        "audio_url": "https://v3-vvecloud.yangyi08.com/2cc20ce1ee93776b2a61be801a189f4c/6724cad8/video/tos/cn/tos-cn-v-2cd6b0/o8yyZkoAvIRQAEABvSkPAMK5igIBzbAg8MisE/?a=7073&ch=0&cr=0&dr=0&&br=0&bt=0&ft=xztlUQhhe6BMyqScUupJD12Nzj&mime_type=audio_mpeg&rc=QGlAYSNz&btag=80000000008000&dy_q=1730460872&l=202411011934201E7538D8228B578C67F0&format=mp3",
        "source_timerange": {
            "start_offset": 0,
            "end_offset": 2.950000000000003
        },
        "target_timerange": {
            "start_offset": 85.2,
            "end_offset": 88.15
        },
        "ignore_audio": false,
        "audio_path": null
    },
    {
        "segment_id": "4464add0984511efac0800163e382b8e",
        "text": "一个化妆护士的声音响起：大哥 跟他废话什么！",
        "audio_url": "https://v26-vvecloud.yangyi08.com/050671ea30300fd4cb7b8269598cebb6/6724cad9/video/tos/cn/tos-cn-v-2cd6b0/okyPQAOMtouykT8GiEIAP3ZvBkEAhg84giAAS/?a=7073&ch=0&cr=0&dr=0&&br=0&bt=0&ft=xztlUQhhe6BMyqxcUupJD12Nzj&mime_type=audio_mpeg&rc=QGlAYSNz&btag=80000000008000&dy_q=1730460873&l=202411011934201E7538D8228B578C67F0&format=mp3",
        "source_timerange": {
            "start_offset": 0,
            "end_offset": 4.569999999999993
        },
        "target_timerange": {
            "start_offset": 88.15,
            "end_offset": 92.72
        },
        "ignore_audio": false,
        "audio_path": null
    },
    {
        "segment_id": "4464af74984511efac0800163e382b8e",
        "text": "直接将他废了",
        "audio_url": "https://v26-vvecloud.yangyi08.com/b9a1f92a0e0a967553e0edd6a8dbabee/6724cad8/video/tos/cn/tos-cn-v-2cd6b0/oUgodAEhQyXiZMyB8IvAB0ukEPAkkAFlsKASi/?a=7073&ch=0&cr=0&dr=0&&br=0&bt=0&ft=xztlUQhhe6BMyqScUupJD12Nzj&mime_type=audio_mpeg&rc=QGlAYSNz&btag=80000000008000&dy_q=1730460872&l=202411011934201E7538D8228B578C67F0&format=mp3",
        "source_timerange": {
            "start_offset": 0,
            "end_offset": 1.8700000000000045
        },
        "target_timerange": {
            "start_offset": 92.72,
            "end_offset": 94.59
        },
        "ignore_audio": false,
        "audio_path": null
    },
    {
        "segment_id": "4464b104984511efac0800163e382b8e",
        "text": "把他的器官拿出去卖了…我瞬间感到一阵恐惧",
        "audio_url": "https://v6-vvecloud.yangyi08.com/8284bb680f7b6182e38066863eb1526d/6724cad8/video/tos/cn/tos-cn-v-2cd6b0/oYZTQ8WDAmERXfkSBAMFQmSPj0OAeCCEAXQ38e/?a=7073&ch=0&cr=0&dr=0&&br=0&bt=0&ft=xztlUQhhe6BMyqScUupJD12Nzj&mime_type=audio_mpeg&rc=QGlAYSNz&btag=80000000008000&dy_q=1730460872&l=202411011934201E7538D8228B578C67F0&format=mp3",
        "source_timerange": {
            "start_offset": 0,
            "end_offset": 3.614999999999995
        },
        "target_timerange": {
            "start_offset": 94.59,
            "end_offset": 98.205
        },
        "ignore_audio": false,
        "audio_path": null
    },
    {
        "segment_id": "4464b29e984511efac0800163e382b8e",
        "text": "这个护士竟然是之前在医院给我打药的那位！",
        "audio_url": "https://v6-vvecloud.yangyi08.com/8284bb680f7b6182e38066863eb1526d/6724cad8/video/tos/cn/tos-cn-v-2cd6b0/oYZTQ8WDAmERXfkSBAMFQmSPj0OAeCCEAXQ38e/?a=7073&ch=0&cr=0&dr=0&&br=0&bt=0&ft=xztlUQhhe6BMyqScUupJD12Nzj&mime_type=audio_mpeg&rc=QGlAYSNz&btag=80000000008000&dy_q=1730460872&l=202411011934201E7538D8228B578C67F0&format=mp3",
        "source_timerange": {
            "start_offset": 3.614999999999995,
            "end_offset": 6.840000000000003
        },
        "target_timerange": {
            "start_offset": 98.205,
            "end_offset": 101.43
        },
        "ignore_audio": true,
        "audio_path": null
    },
    {
        "segment_id": "4464b406984511efac0800163e382b8e",
        "text": "我没想到他们竟然渗透到了医院 直接把我绑来了",
        "audio_url": "https://v6-vvecloud.yangyi08.com/3ed289230003988615dc786affffa4d3/6724cad9/video/tos/cn/tos-cn-v-2cd6b0/owAkAA5L4QPkyy5iSNMAvYIvBAEZgia8xojAE/?a=7073&ch=0&cr=0&dr=0&&br=0&bt=0&ft=xztlUQhhe6BMyqxcUupJD12Nzj&mime_type=audio_mpeg&rc=QGlAYSNz&btag=80000000008000&dy_q=1730460873&l=202411011934201E7538D8228B578C67F0&format=mp3",
        "source_timerange": {
            "start_offset": 0,
            "end_offset": 4.179999999999993
        },
        "target_timerange": {
            "start_offset": 101.43,
            "end_offset": 105.61
        },
        "ignore_audio": false,
        "audio_path": null
    },
    {
        "segment_id": "4464b546984511efac0800163e382b8e",
        "text": "不要啊！各位大哥大姐 不要冲动",
        "audio_url": "https://v3-vvecloud.yangyi08.com/b01bdb66360cc41fffb7a9d12e0df613/6724cad9/video/tos/cn/tos-cn-v-2cd6b0/osjtnZMEPSCyiApiJoB08gIyKAQAkAvKkuApE/?a=7073&ch=0&cr=0&dr=0&&br=0&bt=0&ft=xztlUQhhe6BMyqxcUupJD12Nzj&mime_type=audio_mpeg&rc=QGlAYSNz&btag=80000000008000&dy_q=1730460873&l=202411011934201E7538D8228B578C67F0&format=mp3",
        "source_timerange": {
            "start_offset": 0,
            "end_offset": 3.7099999999999937
        },
        "target_timerange": {
            "start_offset": 105.61,
            "end_offset": 109.32
        },
        "ignore_audio": false,
        "audio_path": null
    },
    {
        "segment_id": "4464b6e0984511efac0800163e382b8e",
        "text": "你们不就是想要钱吗？",
        "audio_url": "https://v9-vvecloud.yangyi08.com/b471b32dcfa5689fa94dd1a611153280/6724cad8/video/tos/cn/tos-cn-v-2cd6b0/oIZEmAkkMQECAyogZQivA8i8ISAAZhUmIPCBy/?a=7073&ch=0&cr=0&dr=0&&br=0&bt=0&ft=xztlUQhhe6BMyqScUupJD12Nzj&mime_type=audio_mpeg&rc=QGlAYSNz&btag=80000000008000&dy_q=1730460872&l=202411011934201E7538D8228B578C67F0&format=mp3",
        "source_timerange": {
            "start_offset": 0,
            "end_offset": 2.0500000000000114
        },
        "target_timerange": {
            "start_offset": 109.32,
            "end_offset": 111.37
        },
        "ignore_audio": false,
        "audio_path": null
    },
    {
        "segment_id": "4464b870984511efac0800163e382b8e",
        "text": "你们伤害了我 那可就是犯罪了！",
        "audio_url": "https://v3-vvecloud.yangyi08.com/c867538c64fabccba264921dce1dcb9e/6724cad9/video/tos/cn/tos-cn-v-2cd6b0/oMeEMmOaADvJXCNkLOFAgzEERClgAOIfiABnAL/?a=7073&ch=0&cr=0&dr=0&&br=0&bt=0&ft=xztlUQhhe6BMyqxcUupJD12Nzj&mime_type=audio_mpeg&rc=QGlAYSNz&btag=80000000008000&dy_q=1730460873&l=202411011934201E7538D8228B578C67F0&format=mp3",
        "source_timerange": {
            "start_offset": 0,
            "end_offset": 3.0600000000000023
        },
        "target_timerange": {
            "start_offset": 111.37,
            "end_offset": 114.43
        },
        "ignore_audio": false,
        "audio_path": null
    },
    {
        "segment_id": "4464ba0a984511efac0800163e382b8e",
        "text": "是要被官方打击的 到时候全国都容不下你们",
        "audio_url": "https://v6-vvecloud.yangyi08.com/d44b978ebc9eae3e1a70ebff6fa85c86/6724cad9/video/tos/cn/tos-cn-v-2cd6b0/ogyoSVMKoyAiP8vA8kARSkAQBZE1EjIgMAmiQ/?a=7073&ch=0&cr=0&dr=0&&br=0&bt=0&ft=xztlUQhhe6BMyqxcUupJD12Nzj&mime_type=audio_mpeg&rc=QGlAYSNz&btag=80000000008000&dy_q=1730460873&l=202411011934201E7538D8228B578C67F0&format=mp3",
        "source_timerange": {
            "start_offset": 0,
            "end_offset": 4.209999999999994
        },
        "target_timerange": {
            "start_offset": 114.43,
            "end_offset": 118.64
        },
        "ignore_audio": false,
        "audio_path": null
    },
    {
        "segment_id": "4464bb9a984511efac0800163e382b8e",
        "text": "你们的日子可就艰难了啊！我拼命想要拖延时间",
        "audio_url": "https://v6-vvecloud.yangyi08.com/2d295f1715f89c9fc1df2a0e09cda25d/6724cad9/video/tos/cn/tos-cn-v-2cd6b0/o4AyEi41KyIBovBg8QjZkJkAAozSAydZAEiPM/?a=7073&ch=0&cr=0&dr=0&&br=0&bt=0&ft=xztlUQhhe6BMyqxcUupJD12Nzj&mime_type=audio_mpeg&rc=QGlAYSNz&btag=80000000008000&dy_q=1730460873&l=202411011934201E7538D8228B578C67F0&format=mp3",
        "source_timerange": {
            "start_offset": 0,
            "end_offset": 4.319999999999993
        },
        "target_timerange": {
            "start_offset": 118.64,
            "end_offset": 122.96
        },
        "ignore_audio": false,
        "audio_path": null
    },
    {
        "segment_id": "4464f74a984511efac0800163e382b8e",
        "text": "为了一点钱 犯不着以后过得跟个老鼠一样",
        "audio_url": "https://v9-vvecloud.yangyi08.com/07f00e4c1acf380695873331a414140a/6724cad9/video/tos/cn/tos-cn-v-2cd6b0/oYoR2JEAeAPFikCMiIzIvVgEDfCXFAAEpBAnLE/?a=7073&ch=0&cr=0&dr=0&&br=0&bt=0&ft=xztlUQhhe6BMyqxcUupJD12Nzj&mime_type=audio_mpeg&rc=QGlAYSNz&btag=80000000008000&dy_q=1730460873&l=202411011934201E7538D8228B578C67F0&format=mp3",
        "source_timerange": {
            "start_offset": 0,
            "end_offset": 3.740000000000009
        },
        "target_timerange": {
            "start_offset": 122.96,
            "end_offset": 126.7
        },
        "ignore_audio": false,
        "audio_path": null
    },
    {
        "segment_id": "4464fa42984511efac0800163e382b8e",
        "text": "不值得！为首男子冷冷地回应",
        "audio_url": "https://v9-vvecloud.yangyi08.com/bbe83645ee656de3706fa19f80281ffe/6724cad8/video/tos/cn/tos-cn-v-2cd6b0/oEGPAiyASBBgMkWy8ZohEQ1EAirvATokOKIAw/?a=7073&ch=0&cr=0&dr=0&&br=0&bt=0&ft=xztlUQhhe6BMyqScUupJD12Nzj&mime_type=audio_mpeg&rc=QGlAYSNz&btag=80000000008000&dy_q=1730460872&l=202411011934201E7538D8228B578C67F0&format=mp3",
        "source_timerange": {
            "start_offset": 0,
            "end_offset": 3.4200000000000017
        },
        "target_timerange": {
            "start_offset": 126.7,
            "end_offset": 130.12
        },
        "ignore_audio": false,
        "audio_path": null
    },
    {
        "segment_id": "4464fbdc984511efac0800163e382b8e",
        "text": "我心中明白 不管我说什么",
        "audio_url": "https://v9-vvecloud.yangyi08.com/fe0fea7de939bde2fd55a7f37031f6d3/6724cad9/video/tos/cn/tos-cn-v-2cd6b0/oAg98GykBuAABE6RMgPoZvAIkiIAziAE8QSy4/?a=7073&ch=0&cr=0&dr=0&&br=0&bt=0&ft=xztlUQhhe6BMyqxcUupJD12Nzj&mime_type=audio_mpeg&rc=QGlAYSNz&btag=80000000008000&dy_q=1730460873&l=202411011934201E7538D8228B578C67F0&format=mp3",
        "source_timerange": {
            "start_offset": 0,
            "end_offset": 2.8400000000000034
        },
        "target_timerange": {
            "start_offset": 130.12,
            "end_offset": 132.96
        },
        "ignore_audio": false,
        "audio_path": null
    },
    {
        "segment_id": "4464fd58984511efac0800163e382b8e",
        "text": "他们的目的显然不仅仅是要钱",
        "audio_url": "https://v6-vvecloud.yangyi08.com/cb32f7a0311bbe68c08dd5316df7cc61/6724cad9/video/tos/cn/tos-cn-v-2cd6b0/oYQMOSAaecRXECMq3CmBLnAFQCEZSeAQtA8Wje/?a=7073&ch=0&cr=0&dr=0&&br=0&bt=0&ft=xztlUQhhe6BMyqxcUupJD12Nzj&mime_type=audio_mpeg&rc=QGlAYSNz&btag=80000000008000&dy_q=1730460873&l=202411011934201E7538D8228B578C67F0&format=mp3",
        "source_timerange": {
            "start_offset": 0,
            "end_offset": 2.8400000000000034
        },
        "target_timerange": {
            "start_offset": 132.96,
            "end_offset": 135.8
        },
        "ignore_audio": false,
        "audio_path": null
    },
    {
        "segment_id": "4464fee8984511efac0800163e382b8e",
        "text": "我不禁冷笑道：大哥 既然是要钱 怎么能聊聊吗？",
        "audio_url": "https://v26-vvecloud.yangyi08.com/871e3dc4dd065ef63c3bc00d080590bc/6724cad9/video/tos/cn/tos-cn-v-2cd6b0/oURtISuSAm2jFEeMOAEAejLwEtBkEXevC6A1GA/?a=7073&ch=0&cr=0&dr=0&&br=0&bt=0&ft=xztlUQhhe6BMyqxcUupJD12Nzj&mime_type=audio_mpeg&rc=QGlAYSNz&btag=80000000008000&dy_q=1730460873&l=202411011934201E7538D8228B578C67F0&format=mp3",
        "source_timerange": {
            "start_offset": 0,
            "end_offset": 4.929999999999978
        },
        "target_timerange": {
            "start_offset": 135.8,
            "end_offset": 140.73
        },
        "ignore_audio": false,
        "audio_path": null
    },
    {
        "segment_id": "4465006e984511efac0800163e382b8e",
        "text": "你看我现在这个样子 能还钱吗？",
        "audio_url": "https://v3-vvecloud.yangyi08.com/5bfaa1e5e556cc07e65028211dcff289/6724cad9/video/tos/cn/tos-cn-v-2cd6b0/o0PjmIsZvovmzFMBA0k8EkytQgSAYygiAEAAi/?a=7073&ch=0&cr=0&dr=0&&br=0&bt=0&ft=xztlUQhhe6BMyqxcUupJD12Nzj&mime_type=audio_mpeg&rc=QGlAYSNz&btag=80000000008000&dy_q=1730460873&l=202411011934201E7538D8228B578C67F0&format=mp3",
        "source_timerange": {
            "start_offset": 0,
            "end_offset": 2.835000000000008
        },
        "target_timerange": {
            "start_offset": 140.73,
            "end_offset": 143.565
        },
        "ignore_audio": false,
        "audio_path": null
    },
    {
        "segment_id": "446501fe984511efac0800163e382b8e",
        "text": "你不能 但是你身边的人可以啊！",
        "audio_url": "https://v3-vvecloud.yangyi08.com/5bfaa1e5e556cc07e65028211dcff289/6724cad9/video/tos/cn/tos-cn-v-2cd6b0/o0PjmIsZvovmzFMBA0k8EkytQgSAYygiAEAAi/?a=7073&ch=0&cr=0&dr=0&&br=0&bt=0&ft=xztlUQhhe6BMyqxcUupJD12Nzj&mime_type=audio_mpeg&rc=QGlAYSNz&btag=80000000008000&dy_q=1730460873&l=202411011934201E7538D8228B578C67F0&format=mp3",
        "source_timerange": {
            "start_offset": 2.835000000000008,
            "end_offset": 5.5400000000000205
        },
        "target_timerange": {
            "start_offset": 143.565,
            "end_offset": 146.27
        },
        "ignore_audio": true,
        "audio_path": null
    },
    {
        "segment_id": "4465037a984511efac0800163e382b8e",
        "text": "我们可打听过你了",
        "audio_url": "https://v3-vvecloud.yangyi08.com/fc4636495f5298ef6c63ff9d24df9bec/6724cad9/video/tos/cn/tos-cn-v-2cd6b0/oskAAEI8yyB8SAtQ0AAioEZ9vRkE7gBiMkiyP/?a=7073&ch=0&cr=0&dr=0&&br=0&bt=0&ft=xztlUQhhe6BMyqxcUupJD12Nzj&mime_type=audio_mpeg&rc=QGlAYSNz&btag=80000000008000&dy_q=1730460873&l=202411011934201E7538D8228B578C67F0&format=mp3",
        "source_timerange": {
            "start_offset": 0,
            "end_offset": 1.9399999999999977
        },
        "target_timerange": {
            "start_offset": 146.27,
            "end_offset": 148.21
        },
        "ignore_audio": false,
        "audio_path": null
    },
    {
        "segment_id": "446504f6984511efac0800163e382b8e",
        "text": "借了几百万 现在出入保镖护卫",
        "audio_url": "https://v26-vvecloud.yangyi08.com/6912bc9df3900f0425af5f18c7698745/6724cad9/video/tos/cn/tos-cn-v-2cd6b0/owEAECLfLMYEK3iRIvJndAFztALD4AgACIfjkB/?a=7073&ch=0&cr=0&dr=0&&br=0&bt=0&ft=xztlUQhhe6BMyqxcUupJD12Nzj&mime_type=audio_mpeg&rc=QGlAYSNz&btag=80000000008000&dy_q=1730460873&l=202411011934201E7538D8228B578C67F0&format=mp3",
        "source_timerange": {
            "start_offset": 0,
            "end_offset": 3.1999999999999886
        },
        "target_timerange": {
            "start_offset": 148.21,
            "end_offset": 151.41
        },
        "ignore_audio": false,
        "audio_path": null
    },
    {
        "segment_id": "4465067c984511efac0800163e382b8e",
        "text": "更是豪车进出 你倒是享受了人间繁华",
        "audio_url": "https://v6-vvecloud.yangyi08.com/fc82f52607363b69ee81a3a7af280dc9/6724cad9/video/tos/cn/tos-cn-v-2cd6b0/oojcEAkIjEJeomAUvAAXjEASEFfOfbG4cRMBLC/?a=7073&ch=0&cr=0&dr=0&&br=0&bt=0&ft=xztlUQhhe6BMyqxcUupJD12Nzj&mime_type=audio_mpeg&rc=QGlAYSNz&btag=80000000008000&dy_q=1730460873&l=202411011934201E7538D8228B578C67F0&format=mp3",
        "source_timerange": {
            "start_offset": 0,
            "end_offset": 3.8499999999999943
        },
        "target_timerange": {
            "start_offset": 151.41,
            "end_offset": 155.26
        },
        "ignore_audio": false,
        "audio_path": null
    },
    {
        "segment_id": "446507f8984511efac0800163e382b8e",
        "text": "可是却苦了我们这些人！他的话让我心中一紧",
        "audio_url": "https://v3-vvecloud.yangyi08.com/ee26e1b5ac854c6b9a0bcbd53691209e/6724cad9/video/tos/cn/tos-cn-v-2cd6b0/ocAiZTAoikg4ZdAEyiPAm8BA2IkESyBvvQaMP/?a=7073&ch=0&cr=0&dr=0&&br=0&bt=0&ft=xztlUQhhe6BMyqxcUupJD12Nzj&mime_type=audio_mpeg&rc=QGlAYSNz&btag=80000000008000&dy_q=1730460873&l=202411011934201E7538D8228B578C67F0&format=mp3",
        "source_timerange": {
            "start_offset": 0,
            "end_offset": 4.180000000000007
        },
        "target_timerange": {
            "start_offset": 155.26,
            "end_offset": 159.44
        },
        "ignore_audio": false,
        "audio_path": null
    },
    {
        "segment_id": "4465097e984511efac0800163e382b8e",
        "text": "“你做得了初一 那我们就做得了十五 ”",
        "audio_url": "https://v6-vvecloud.yangyi08.com/a20edb3b292ecf85b252958f3888bcf9/6724cad9/video/tos/cn/tos-cn-v-2cd6b0/oYkAAEI2yuB8SAoQWAAhoEZKvakPdgoiMtiyP/?a=7073&ch=0&cr=0&dr=0&&br=0&bt=0&ft=xztlUQhhe6BMyqxcUupJD12Nzj&mime_type=audio_mpeg&rc=QGlAYSNz&btag=80000000008000&dy_q=1730460873&l=202411011934201E7538D8228B578C67F0&format=mp3",
        "source_timerange": {
            "start_offset": 0,
            "end_offset": 2.944999999999993
        },
        "target_timerange": {
            "start_offset": 159.44,
            "end_offset": 162.385
        },
        "ignore_audio": false,
        "audio_path": null
    },
    {
        "segment_id": "44650b04984511efac0800163e382b8e",
        "text": "他一脸不屑",
        "audio_url": "https://v6-vvecloud.yangyi08.com/a20edb3b292ecf85b252958f3888bcf9/6724cad9/video/tos/cn/tos-cn-v-2cd6b0/oYkAAEI2yuB8SAoQWAAhoEZKvakPdgoiMtiyP/?a=7073&ch=0&cr=0&dr=0&&br=0&bt=0&ft=xztlUQhhe6BMyqxcUupJD12Nzj&mime_type=audio_mpeg&rc=QGlAYSNz&btag=80000000008000&dy_q=1730460873&l=202411011934201E7538D8228B578C67F0&format=mp3",
        "source_timerange": {
            "start_offset": 2.944999999999993,
            "end_offset": 3.960000000000008
        },
        "target_timerange": {
            "start_offset": 162.385,
            "end_offset": 163.4
        },
        "ignore_audio": true,
        "audio_path": null
    },
    {
        "segment_id": "44650cee984511efac0800163e382b8e",
        "text": "慢慢冷静下来",
        "audio_url": "https://v9-vvecloud.yangyi08.com/bb00b6bc6c36ecac650e5c6862337d23/6724cad9/video/tos/cn/tos-cn-v-2cd6b0/oQMEgiP6ZAyIBJUESS8QAqkgAoA3yklqv8AiB/?a=7073&ch=0&cr=0&dr=0&&br=0&bt=0&ft=xztlUQhhe6BMyqxcUupJD12Nzj&mime_type=audio_mpeg&rc=QGlAYSNz&btag=80000000008000&dy_q=1730460873&l=202411011934201E7538D8228B578C67F0&format=mp3",
        "source_timerange": {
            "start_offset": 0,
            "end_offset": 1.9399999999999977
        },
        "target_timerange": {
            "start_offset": 163.4,
            "end_offset": 165.34
        },
        "ignore_audio": false,
        "audio_path": null
    },
    {
        "segment_id": "44650e6a984511efac0800163e382b8e",
        "text": "我心中暗想 既然他们已经看出了我的底细",
        "audio_url": "https://v9-vvecloud.yangyi08.com/f30498b5cfeeaca9c1bbf6437799b6bd/6724cad9/video/tos/cn/tos-cn-v-2cd6b0/ocERgQEkjA3YAPDpBgffFjCCAzEZMAhIALJnvi/?a=7073&ch=0&cr=0&dr=0&&br=0&bt=0&ft=xztlUQhhe6BMyqxcUupJD12Nzj&mime_type=audio_mpeg&rc=QGlAYSNz&btag=80000000008000&dy_q=1730460873&l=202411011934201E7538D8228B578C67F0&format=mp3",
        "source_timerange": {
            "start_offset": 0,
            "end_offset": 3.6699999999999875
        },
        "target_timerange": {
            "start_offset": 165.34,
            "end_offset": 169.01
        },
        "ignore_audio": false,
        "audio_path": null
    },
    {
        "segment_id": "44651004984511efac0800163e382b8e",
        "text": "我必须想办法拖延时间",
        "audio_url": "https://v3-vvecloud.yangyi08.com/c77d1cf6a195dbf27d46e9bed71f8b3e/6724cad9/video/tos/cn/tos-cn-v-2cd6b0/oAeQyHdLBM8SnEnSfEWCAmQQjFuLAeR8EACOAX/?a=7073&ch=0&cr=0&dr=0&&br=0&bt=0&ft=xztlUQhhe6BMyqxcUupJD12Nzj&mime_type=audio_mpeg&rc=QGlAYSNz&btag=80000000008000&dy_q=1730460873&l=202411011934201E7538D8228B578C67F0&format=mp3",
        "source_timerange": {
            "start_offset": 0,
            "end_offset": 2.3799999999999955
        },
        "target_timerange": {
            "start_offset": 169.01,
            "end_offset": 171.39
        },
        "ignore_audio": false,
        "audio_path": null
    },
    {
        "segment_id": "44651216984511efac0800163e382b8e",
        "text": "于是我故作轻松地问：",
        "audio_url": "https://v6-vvecloud.yangyi08.com/f38f2d7f8c88a5d963750676217bbce2/6724cad9/video/tos/cn/tos-cn-v-2cd6b0/oMoPy5KZA8Avy1KcBgEMAgMAPEZQiGIAIkkSi/?a=7073&ch=0&cr=0&dr=0&&br=0&bt=0&ft=xztlUQhhe6BMyqxcUupJD12Nzj&mime_type=audio_mpeg&rc=QGlAYSNz&btag=80000000008000&dy_q=1730460873&l=202411011934201E7538D8228B578C67F0&format=mp3",
        "source_timerange": {
            "start_offset": 0,
            "end_offset": 2.3400000000000034
        },
        "target_timerange": {
            "start_offset": 171.39,
            "end_offset": 173.73
        },
        "ignore_audio": false,
        "audio_path": null
    },
    {
        "segment_id": "446513a6984511efac0800163e382b8e",
        "text": "大哥 你当我是三岁小孩啊！",
        "audio_url": "https://v3-vvecloud.yangyi08.com/90cf009824bd05aaf29daeaeb5545ef9/6724cad9/video/tos/cn/tos-cn-v-2cd6b0/ocN8AgBFQkIogAyAAEPoM7y8WyKvEAnikiZSL/?a=7073&ch=0&cr=0&dr=0&&br=0&bt=0&ft=xztlUQhhe6BMyqxcUupJD12Nzj&mime_type=audio_mpeg&rc=QGlAYSNz&btag=80000000008000&dy_q=1730460873&l=202411011934201E7538D8228B578C67F0&format=mp3",
        "source_timerange": {
            "start_offset": 0,
            "end_offset": 3.0200000000000102
        },
        "target_timerange": {
            "start_offset": 173.73,
            "end_offset": 176.75
        },
        "ignore_audio": false,
        "audio_path": null
    },
    {
        "segment_id": "44651536984511efac0800163e382b8e",
        "text": "你们现在绑了我 恐怕不只是要钱这么简单吧？",
        "audio_url": "https://v3-vvecloud.yangyi08.com/b6d561e7207a12df332a8c783ee9090e/6724cad9/video/tos/cn/tos-cn-v-2cd6b0/ooEgoMgP8AAi3MAkZySJyBEkvQiE3MAIBANEg/?a=7073&ch=0&cr=0&dr=0&&br=0&bt=0&ft=xztlUQhhe6BMyqxcUupJD12Nzj&mime_type=audio_mpeg&rc=QGlAYSNz&btag=80000000008000&dy_q=1730460873&l=202411011934201E7538D8228B578C67F0&format=mp3",
        "source_timerange": {
            "start_offset": 0,
            "end_offset": 3.9199999999999875
        },
        "target_timerange": {
            "start_offset": 176.75,
            "end_offset": 180.67
        },
        "ignore_audio": false,
        "audio_path": null
    },
    {
        "segment_id": "446516bc984511efac0800163e382b8e",
        "text": "还不戴面具做伪装 一旦我真的给了钱",
        "audio_url": "https://v6-vvecloud.yangyi08.com/408bf3c49a7089aa9daac1009affa372/6724cad9/video/tos/cn/tos-cn-v-2cd6b0/osMPks0C8B4ggAAwjcAkPgEAioyiZEvyQISA1/?a=7073&ch=0&cr=0&dr=0&&br=0&bt=0&ft=xztlUQhhe6BMyqxcUupJD12Nzj&mime_type=audio_mpeg&rc=QGlAYSNz&btag=80000000008000&dy_q=1730460873&l=202411011934201E7538D8228B578C67F0&format=mp3",
        "source_timerange": {
            "start_offset": 0,
            "end_offset": 3.5600000000000023
        },
        "target_timerange": {
            "start_offset": 180.67,
            "end_offset": 184.23
        },
        "ignore_audio": false,
        "audio_path": null
    },
    {
        "segment_id": "44651842984511efac0800163e382b8e",
        "text": "你们恐怕也会杀了我吧！",
        "audio_url": "https://v3-vvecloud.yangyi08.com/54ab49616c991796a9c872019260b7ea/6724cad9/video/tos/cn/tos-cn-v-2cd6b0/oIXExSACcWOYFCEAfODRjfAAmQQi8BZMQSeZBg/?a=7073&ch=0&cr=0&dr=0&&br=0&bt=0&ft=xztlUQhhe6BMyqxcUupJD12Nzj&mime_type=audio_mpeg&rc=QGlAYSNz&btag=80000000008000&dy_q=1730460873&l=202411011934201E7538D8228B578C67F0&format=mp3",
        "source_timerange": {
            "start_offset": 0,
            "end_offset": 1.875
        },
        "target_timerange": {
            "start_offset": 184.23,
            "end_offset": 186.105
        },
        "ignore_audio": false,
        "audio_path": null
    },
    {
        "segment_id": "446519dc984511efac0800163e382b8e",
        "text": "“麻辣个巴子的…”旁边的无名男子怒喝着",
        "audio_url": "https://v3-vvecloud.yangyi08.com/54ab49616c991796a9c872019260b7ea/6724cad9/video/tos/cn/tos-cn-v-2cd6b0/oIXExSACcWOYFCEAfODRjfAAmQQi8BZMQSeZBg/?a=7073&ch=0&cr=0&dr=0&&br=0&bt=0&ft=xztlUQhhe6BMyqxcUupJD12Nzj&mime_type=audio_mpeg&rc=QGlAYSNz&btag=80000000008000&dy_q=1730460873&l=202411011934201E7538D8228B578C67F0&format=mp3",
        "source_timerange": {
            "start_offset": 1.875,
            "end_offset": 5.135000000000019
        },
        "target_timerange": {
            "start_offset": 186.105,
            "end_offset": 189.365
        },
        "ignore_audio": true,
        "audio_path": null
    },
    {
        "segment_id": "44651b80984511efac0800163e382b8e",
        "text": "准备冲上来对付我 却被为首男子拦住了",
        "audio_url": "https://v3-vvecloud.yangyi08.com/54ab49616c991796a9c872019260b7ea/6724cad9/video/tos/cn/tos-cn-v-2cd6b0/oIXExSACcWOYFCEAfODRjfAAmQQi8BZMQSeZBg/?a=7073&ch=0&cr=0&dr=0&&br=0&bt=0&ft=xztlUQhhe6BMyqxcUupJD12Nzj&mime_type=audio_mpeg&rc=QGlAYSNz&btag=80000000008000&dy_q=1730460873&l=202411011934201E7538D8228B578C67F0&format=mp3",
        "source_timerange": {
            "start_offset": 5.135000000000019,
            "end_offset": 8.350000000000023
        },
        "target_timerange": {
            "start_offset": 189.365,
            "end_offset": 192.58
        },
        "ignore_audio": true,
        "audio_path": null
    },
    {
        "segment_id": "44651d10984511efac0800163e382b8e",
        "text": "他将刀拍在我的脸边",
        "audio_url": "https://v3-vvecloud.yangyi08.com/a2a561235d82da309164ed067ae2f0b5/6724cad9/video/tos/cn/tos-cn-v-2cd6b0/oARnjwzOACA3ARbmgEFTJvCDIfr7eMLEAiBAkE/?a=7073&ch=0&cr=0&dr=0&&br=0&bt=0&ft=xztlUQhhe6BMyqxcUupJD12Nzj&mime_type=audio_mpeg&rc=QGlAYSNz&btag=80000000008000&dy_q=1730460873&l=202411011934201E7538D8228B578C67F0&format=mp3",
        "source_timerange": {
            "start_offset": 0,
            "end_offset": 2.119999999999976
        },
        "target_timerange": {
            "start_offset": 192.58,
            "end_offset": 194.7
        },
        "ignore_audio": false,
        "audio_path": null
    },
    {
        "segment_id": "44651e96984511efac0800163e382b8e",
        "text": "那冰冷的刀刃让我感到一阵紧张",
        "audio_url": "https://v26-vvecloud.yangyi08.com/63f89531f4fa66bb0acc3d39cf2ae24e/6724cad9/video/tos/cn/tos-cn-v-2cd6b0/oAGIziAlEEnUgmAALvnikDMBJEK5CZAfgCfFAR/?a=7073&ch=0&cr=0&dr=0&&br=0&bt=0&ft=xztlUQhhe6BMyqxcUupJD12Nzj&mime_type=audio_mpeg&rc=QGlAYSNz&btag=80000000008000&dy_q=1730460873&l=202411011934201E7538D8228B578C67F0&format=mp3",
        "source_timerange": {
            "start_offset": 0,
            "end_offset": 2.950000000000017
        },
        "target_timerange": {
            "start_offset": 194.7,
            "end_offset": 197.65
        },
        "ignore_audio": false,
        "audio_path": null
    },
    {
        "segment_id": "44652012984511efac0800163e382b8e",
        "text": "心中暗暗发誓 绝不会就这样被他们轻易撕票！",
        "audio_url": "https://v26-vvecloud.yangyi08.com/edd5d16bd95da7eb578d0f0ce804dcfd/6724cad9/video/tos/cn/tos-cn-v-2cd6b0/oYemQEMBRGFZesAEAXLpBjOACEcAOC2SQkeLSI/?a=7073&ch=0&cr=0&dr=0&&br=0&bt=0&ft=xztlUQhhe6BMyqxcUupJD12Nzj&mime_type=audio_mpeg&rc=QGlAYSNz&btag=80000000008000&dy_q=1730460873&l=202411011934201E7538D8228B578C67F0&format=mp3",
        "source_timerange": {
            "start_offset": 0,
            "end_offset": 4.280000000000001
        },
        "target_timerange": {
            "start_offset": 197.65,
            "end_offset": 201.93
        },
        "ignore_audio": false,
        "audio_path": null
    },
    {
        "segment_id": "446521ac984511efac0800163e382b8e",
        "text": "我必须想办法逃出去 不能让自己落入他们的手中",
        "audio_url": "https://v9-vvecloud.yangyi08.com/41043bd4fcc4d6b9a8c730354034b4e0/6724cad9/video/tos/cn/tos-cn-v-2cd6b0/o8ryE1vBIPAkXiygAEvASooAZAky0M8gqiQK3/?a=7073&ch=0&cr=0&dr=0&&br=0&bt=0&ft=xztlUQhhe6BMyqxcUupJD12Nzj&mime_type=audio_mpeg&rc=QGlAYSNz&btag=80000000008000&dy_q=1730460873&l=202411011934201E7538D8228B578C67F0&format=mp3",
        "source_timerange": {
            "start_offset": 0,
            "end_offset": 4.359999999999985
        },
        "target_timerange": {
            "start_offset": 201.93,
            "end_offset": 206.29
        },
        "ignore_audio": false,
        "audio_path": null
    },
    {
        "segment_id": "44652346984511efac0800163e382b8e",
        "text": "带头大哥的目光如刀般锋利",
        "audio_url": "https://v26-vvecloud.yangyi08.com/b7b659b39fadab4d2538efca3f6e9707/6724cad9/video/tos/cn/tos-cn-v-2cd6b0/oAkAAEIwymB8SAYQOAAjoEZtvOkMugsiMxiyP/?a=7073&ch=0&cr=0&dr=0&&br=0&bt=0&ft=xztlUQhhe6BMyqxcUupJD12Nzj&mime_type=audio_mpeg&rc=QGlAYSNz&btag=80000000008000&dy_q=1730460873&l=202411011934201E7538D8228B578C67F0&format=mp3",
        "source_timerange": {
            "start_offset": 0,
            "end_offset": 2.8100000000000023
        },
        "target_timerange": {
            "start_offset": 206.29,
            "end_offset": 209.1
        },
        "ignore_audio": false,
        "audio_path": null
    },
    {
        "segment_id": "446524cc984511efac0800163e382b8e",
        "text": "透着凶狠 我心中不禁一紧",
        "audio_url": "https://v6-vvecloud.yangyi08.com/16a4753c161242e3cf7274b24fc28732/6724cad9/video/tos/cn/tos-cn-v-2cd6b0/o4EzSXMiP28nBkgA7QAkEoBaovAZIA2yKAiyZ/?a=7073&ch=0&cr=0&dr=0&&br=0&bt=0&ft=xztlUQhhe6BMyqxcUupJD12Nzj&mime_type=audio_mpeg&rc=QGlAYSNz&btag=80000000008000&dy_q=1730460873&l=202411011934201E7538D8228B578C67F0&format=mp3",
        "source_timerange": {
            "start_offset": 0,
            "end_offset": 2.990000000000009
        },
        "target_timerange": {
            "start_offset": 209.1,
            "end_offset": 212.09
        },
        "ignore_audio": false,
        "audio_path": null
    },
    {
        "segment_id": "44652666984511efac0800163e382b8e",
        "text": "面对这样的人 生存的希望似乎渺茫",
        "audio_url": "https://v6-vvecloud.yangyi08.com/eb29652d31f96d48291358b47d8f9745/6724cad9/video/tos/cn/tos-cn-v-2cd6b0/oEPAA5zEkuHB0AovQkhMlfiEiRBIAAkxlZRKAE/?a=7073&ch=0&cr=0&dr=0&&br=0&bt=0&ft=xztlUQhhe6BMyqxcUupJD12Nzj&mime_type=audio_mpeg&rc=QGlAYSNz&btag=80000000008000&dy_q=1730460873&l=202411011934201E7538D8228B578C67F0&format=mp3",
        "source_timerange": {
            "start_offset": 0,
            "end_offset": 3.819999999999993
        },
        "target_timerange": {
            "start_offset": 212.09,
            "end_offset": 215.91
        },
        "ignore_audio": false,
        "audio_path": null
    },
    {
        "segment_id": "446527ec984511efac0800163e382b8e",
        "text": "我清楚 自己现在处于绝对的劣势",
        "audio_url": "https://v3-vvecloud.yangyi08.com/5de95d860d19d645e521ca99d10a4ed3/6724cad9/video/tos/cn/tos-cn-v-2cd6b0/oUQSQABAjebSFLMO4XCx89YEYmKETQAAEfXZCf/?a=7073&ch=0&cr=0&dr=0&&br=0&bt=0&ft=xztlUQhhe6BMyqxcUupJD12Nzj&mime_type=audio_mpeg&rc=QGlAYSNz&btag=80000000008000&dy_q=1730460873&l=202411011934201E7538D8228B578C67F0&format=mp3",
        "source_timerange": {
            "start_offset": 0,
            "end_offset": 3.640000000000015
        },
        "target_timerange": {
            "start_offset": 215.91,
            "end_offset": 219.55
        },
        "ignore_audio": false,
        "audio_path": null
    },
    {
        "segment_id": "44652972984511efac0800163e382b8e",
        "text": "但我绝不能让他们看出我的恐惧",
        "audio_url": "https://v9-vvecloud.yangyi08.com/fabc618b17c4c5fbb37b6d47f6391ef1/6724cad9/video/tos/cn/tos-cn-v-2cd6b0/o8EYlIAzYkkv5iKA0wABMQARhHAfBkHAiEAtil/?a=7073&ch=0&cr=0&dr=0&&br=0&bt=0&ft=xztlUQhhe6BMyqxcUupJD12Nzj&mime_type=audio_mpeg&rc=QGlAYSNz&btag=80000000008000&dy_q=1730460873&l=202411011934201E7538D8228B578C67F0&format=mp3",
        "source_timerange": {
            "start_offset": 0,
            "end_offset": 2.6599999999999966
        },
        "target_timerange": {
            "start_offset": 219.55,
            "end_offset": 222.21
        },
        "ignore_audio": false,
        "audio_path": null
    },
    {
        "segment_id": "44652aee984511efac0800163e382b8e",
        "text": "呵呵 十岁就出来混了",
        "audio_url": "https://v3-vvecloud.yangyi08.com/2afb42d43c426ef7b19eaf2b8a2ff944/6724cad9/video/tos/cn/tos-cn-v-2cd6b0/oYMkY4fnJgVIQZee9AcAuE1SQFGvKA7cCCLABe/?a=7073&ch=0&cr=0&dr=0&&br=0&bt=0&ft=xztlUQhhe6BMyqxcUupJD12Nzj&mime_type=audio_mpeg&rc=QGlAYSNz&btag=80000000008000&dy_q=1730460873&l=202411011934201E7538D8228B578C67F0&format=mp3",
        "source_timerange": {
            "start_offset": 0,
            "end_offset": 2.769999999999982
        },
        "target_timerange": {
            "start_offset": 222.21,
            "end_offset": 224.98
        },
        "ignore_audio": false,
        "audio_path": null
    },
    {
        "segment_id": "44652c74984511efac0800163e382b8e",
        "text": "我看你今天至少也有三四十了",
        "audio_url": "https://v9-vvecloud.yangyi08.com/d04ea1f236d0311f284a3a259f56342e/6724cad9/video/tos/cn/tos-cn-v-2cd6b0/o0AmIABvkAlf5AsZkc8ShlkiAW8iERzJAEQBMQ/?a=7073&ch=0&cr=0&dr=0&&br=0&bt=0&ft=xztlUQhhe6BMyqxcUupJD12Nzj&mime_type=audio_mpeg&rc=QGlAYSNz&btag=80000000008000&dy_q=1730460873&l=202411011934201E7538D8228B578C67F0&format=mp3",
        "source_timerange": {
            "start_offset": 0,
            "end_offset": 2.8400000000000034
        },
        "target_timerange": {
            "start_offset": 224.98,
            "end_offset": 227.82
        },
        "ignore_audio": false,
        "audio_path": null
    },
    {
        "segment_id": "44652dfa984511efac0800163e382b8e",
        "text": "十几二十年的江湖经验",
        "audio_url": "https://v26-vvecloud.yangyi08.com/ad8a0c3a6519bad5550e51d65eab6f6a/6724cad9/video/tos/cn/tos-cn-v-2cd6b0/oQRinkEQhJBioilvAlIU2kfgA5BzAAAETAMzbk/?a=7073&ch=0&cr=0&dr=0&&br=0&bt=0&ft=xztlUQhhe6BMyqxcUupJD12Nzj&mime_type=audio_mpeg&rc=QGlAYSNz&btag=80000000008000&dy_q=1730460873&l=202411011934201E7538D8228B578C67F0&format=mp3",
        "source_timerange": {
            "start_offset": 0,
            "end_offset": 2.480000000000018
        },
        "target_timerange": {
            "start_offset": 227.82,
            "end_offset": 230.3
        },
        "ignore_audio": false,
        "audio_path": null
    },
    {
        "segment_id": "44652f94984511efac0800163e382b8e",
        "text": "就混到这个给人要债的分上",
        "audio_url": "https://v26-vvecloud.yangyi08.com/070ef201adef39d1e4e13f503dbe2a8a/6724cad9/video/tos/cn/tos-cn-v-2cd6b0/oAemQE0sTGFy8rAQAXLuBjOACEoAnC0SQ6efSI/?a=7073&ch=0&cr=0&dr=0&&br=0&bt=0&ft=xztlUQhhe6BMyqxcUupJD12Nzj&mime_type=audio_mpeg&rc=QGlAYSNz&btag=80000000008000&dy_q=1730460873&l=202411011934201E7538D8228B578C67F0&format=mp3",
        "source_timerange": {
            "start_offset": 0,
            "end_offset": 2.6999999999999886
        },
        "target_timerange": {
            "start_offset": 230.3,
            "end_offset": 233
        },
        "ignore_audio": false,
        "audio_path": null
    },
    {
        "segment_id": "446531ce984511efac0800163e382b8e",
        "text": "而且还是赌上自己身家性命",
        "audio_url": "https://v3-vvecloud.yangyi08.com/3030dc089c8afe00922c9f4c42af4ef6/6724cad9/video/tos/cn/tos-cn-v-2cd6b0/okZSjOAJSC4IEe0fBFQA1ymeTSIA3LQGAVECoX/?a=7073&ch=0&cr=0&dr=0&&br=0&bt=0&ft=xztlUQhhe6BMyqxcUupJD12Nzj&mime_type=audio_mpeg&rc=QGlAYSNz&btag=80000000008000&dy_q=1730460873&l=202411011934201E7538D8228B578C67F0&format=mp3",
        "source_timerange": {
            "start_offset": 0,
            "end_offset": 2.2649999999999864
        },
        "target_timerange": {
            "start_offset": 233,
            "end_offset": 235.265
        },
        "ignore_audio": false,
        "audio_path": null
    },
    {
        "segment_id": "44653368984511efac0800163e382b8e",
        "text": "我微微一笑 试图用话语来刺激他们的情绪",
        "audio_url": "https://v3-vvecloud.yangyi08.com/3030dc089c8afe00922c9f4c42af4ef6/6724cad9/video/tos/cn/tos-cn-v-2cd6b0/okZSjOAJSC4IEe0fBFQA1ymeTSIA3LQGAVECoX/?a=7073&ch=0&cr=0&dr=0&&br=0&bt=0&ft=xztlUQhhe6BMyqxcUupJD12Nzj&mime_type=audio_mpeg&rc=QGlAYSNz&btag=80000000008000&dy_q=1730460873&l=202411011934201E7538D8228B578C67F0&format=mp3",
        "source_timerange": {
            "start_offset": 2.2649999999999864,
            "end_offset": 5.800000000000011
        },
        "target_timerange": {
            "start_offset": 235.265,
            "end_offset": 238.8
        },
        "ignore_audio": true,
        "audio_path": null
    },
    {
        "segment_id": "446534e4984511efac0800163e382b8e",
        "text": "带头大哥的脸色变得阴沉",
        "audio_url": "https://v6-vvecloud.yangyi08.com/26ee6c28c4ee8509f8ecdcda888a870b/6724cad9/video/tos/cn/tos-cn-v-2cd6b0/oMiAnAfi0QkMzk4h5EA5IHBbAcEniYRABxAlvk/?a=7073&ch=0&cr=0&dr=0&&br=0&bt=0&ft=xztlUQhhe6BMyqxcUupJD12Nzj&mime_type=audio_mpeg&rc=QGlAYSNz&btag=80000000008000&dy_q=1730460873&l=202411011934201E7538D8228B578C67F0&format=mp3",
        "source_timerange": {
            "start_offset": 0,
            "end_offset": 2.6599999999999966
        },
        "target_timerange": {
            "start_offset": 238.8,
            "end_offset": 241.46
        },
        "ignore_audio": false,
        "audio_path": null
    },
    {
        "segment_id": "44653674984511efac0800163e382b8e",
        "text": "旁边的小弟们愤怒地挥舞着刀",
        "audio_url": "https://v26-vvecloud.yangyi08.com/f1550534decb77e74e6b7e2336db65f6/6724cad9/video/tos/cn/tos-cn-v-2cd6b0/owIjiMQSZCf3AYGiCAeULZFEAmQIZALTBXSOeE/?a=7073&ch=0&cr=0&dr=0&&br=0&bt=0&ft=xztlUQhhe6BMyqxcUupJD12Nzj&mime_type=audio_mpeg&rc=QGlAYSNz&btag=80000000008000&dy_q=1730460873&l=202411011934201E7538D8228B578C67F0&format=mp3",
        "source_timerange": {
            "start_offset": 0,
            "end_offset": 2.6999999999999886
        },
        "target_timerange": {
            "start_offset": 241.46,
            "end_offset": 244.16
        },
        "ignore_audio": false,
        "audio_path": null
    },
    {
        "segment_id": "446537f0984511efac0800163e382b8e",
        "text": "我没能阻止他们的冲动 但我必须让他们冷静下来",
        "audio_url": "https://v9-vvecloud.yangyi08.com/6a5aac709f34d0d9700a579364dd0ba1/6724cad9/video/tos/cn/tos-cn-v-2cd6b0/oExkNRgEEJDCJCmFL9BpAnvzrAfARiAAEPM7fA/?a=7073&ch=0&cr=0&dr=0&&br=0&bt=0&ft=xztlUQhhe6BMyqxcUupJD12Nzj&mime_type=audio_mpeg&rc=QGlAYSNz&btag=80000000008000&dy_q=1730460873&l=202411011934201E7538D8228B578C67F0&format=mp3",
        "source_timerange": {
            "start_offset": 0,
            "end_offset": 4.280000000000001
        },
        "target_timerange": {
            "start_offset": 244.16,
            "end_offset": 248.44
        },
        "ignore_audio": false,
        "audio_path": null
    },
    {
        "segment_id": "4465451a984511efac0800163e382b8e",
        "text": "内心的紧张让我无法忽视 正要被他们的愤怒吞噬",
        "audio_url": "https://v6-vvecloud.yangyi08.com/bebf772b89af69cca2303f138267a822/6724cad9/video/tos/cn/tos-cn-v-2cd6b0/oUfIER5I88k6AA8kG2AlELxvQAiMAzBlk1BhAi/?a=7073&ch=0&cr=0&dr=0&&br=0&bt=0&ft=xztlUQhhe6BMyqxcUupJD12Nzj&mime_type=audio_mpeg&rc=QGlAYSNz&btag=80000000008000&dy_q=1730460873&l=202411011934201E7538D8228B578C67F0&format=mp3",
        "source_timerange": {
            "start_offset": 0,
            "end_offset": 4.460000000000008
        },
        "target_timerange": {
            "start_offset": 248.44,
            "end_offset": 252.9
        },
        "ignore_audio": false,
        "audio_path": null
    },
    {
        "segment_id": "446546dc984511efac0800163e382b8e",
        "text": "“等一下 让他说！”",
        "audio_url": "https://v3-vvecloud.yangyi08.com/9fb4843204c93614ef9be7bc670e895f/6724cad9/video/tos/cn/tos-cn-v-2cd6b0/o8fJvlkhkAAilr3EAEGAxABkWo5QMzCmBRIkiA/?a=7073&ch=0&cr=0&dr=0&&br=0&bt=0&ft=xztlUQhhe6BMyqxcUupJD12Nzj&mime_type=audio_mpeg&rc=QGlAYSNz&btag=80000000008000&dy_q=1730460873&l=202411011934201E7538D8228B578C67F0&format=mp3",
        "source_timerange": {
            "start_offset": 0,
            "end_offset": 2.164999999999992
        },
        "target_timerange": {
            "start_offset": 252.9,
            "end_offset": 255.065
        },
        "ignore_audio": false,
        "audio_path": null
    },
    {
        "segment_id": "44654894984511efac0800163e382b8e",
        "text": "带头大哥终于忍耐不住 示意我继续说下去",
        "audio_url": "https://v3-vvecloud.yangyi08.com/9fb4843204c93614ef9be7bc670e895f/6724cad9/video/tos/cn/tos-cn-v-2cd6b0/o8fJvlkhkAAilr3EAEGAxABkWo5QMzCmBRIkiA/?a=7073&ch=0&cr=0&dr=0&&br=0&bt=0&ft=xztlUQhhe6BMyqxcUupJD12Nzj&mime_type=audio_mpeg&rc=QGlAYSNz&btag=80000000008000&dy_q=1730460873&l=202411011934201E7538D8228B578C67F0&format=mp3",
        "source_timerange": {
            "start_offset": 2.164999999999992,
            "end_offset": 5.868999999999971
        },
        "target_timerange": {
            "start_offset": 255.065,
            "end_offset": 258.769
        },
        "ignore_audio": true,
        "audio_path": null
    },
    {
        "segment_id": "44654e84984511efac0800163e382b8e",
        "text": "他的眼神中透露出一丝好奇",
        "audio_url": "https://v3-vvecloud.yangyi08.com/967cff0a283594e310476519ee537226/6724cad9/video/tos/cn/tos-cn-v-2cd6b0/oYfkAXMAlzy7EQikv8UiDRWBAmABkEIk5xhBAA/?a=7073&ch=0&cr=0&dr=0&&br=0&bt=0&ft=xztlUQhhe6BMyqxcUupJD12Nzj&mime_type=audio_mpeg&rc=QGlAYSNz&btag=80000000008000&dy_q=1730460873&l=202411011934201E7538D8228B578C67F0&format=mp3",
        "source_timerange": {
            "start_offset": 0,
            "end_offset": 2.9209999999999923
        },
        "target_timerange": {
            "start_offset": 258.769,
            "end_offset": 261.69
        },
        "ignore_audio": false,
        "audio_path": null
    },
    {
        "segment_id": "44655078984511efac0800163e382b8e",
        "text": "我知道这是我争取时间的机会",
        "audio_url": "https://v9-vvecloud.yangyi08.com/c7ecc647a0ad59d1db6b83ab7a196d52/6724cad9/video/tos/cn/tos-cn-v-2cd6b0/o0AuvLnwDEAMfkszC4FAC6RJSBf5nAAEE9ghiJ/?a=7073&ch=0&cr=0&dr=0&&br=0&bt=0&ft=xztlUQhhe6BMyqxcUupJD12Nzj&mime_type=audio_mpeg&rc=QGlAYSNz&btag=80000000008000&dy_q=1730460873&l=202411011934201E7538D8228B578C67F0&format=mp3",
        "source_timerange": {
            "start_offset": 0,
            "end_offset": 2.740000000000009
        },
        "target_timerange": {
            "start_offset": 261.69,
            "end_offset": 264.43
        },
        "ignore_audio": false,
        "audio_path": null
    },
    {
        "segment_id": "44655258984511efac0800163e382b8e",
        "text": "我开始分析他们的处境",
        "audio_url": "https://v26-vvecloud.yangyi08.com/930a113118d177fa9d8c77ee5a631a8f/6724cad9/video/tos/cn/tos-cn-v-2cd6b0/ogBAkikk5kAMBv8AIfoAlkR8QhitAAAEczZ0EM/?a=7073&ch=0&cr=0&dr=0&&br=0&bt=0&ft=xztlUQhhe6BMyqxcUupJD12Nzj&mime_type=audio_mpeg&rc=QGlAYSNz&btag=80000000008000&dy_q=1730460873&l=202411011934201E7538D8228B578C67F0&format=mp3",
        "source_timerange": {
            "start_offset": 0,
            "end_offset": 2.3000000000000114
        },
        "target_timerange": {
            "start_offset": 264.43,
            "end_offset": 266.73
        },
        "ignore_audio": false,
        "audio_path": null
    },
    {
        "segment_id": "4465541a984511efac0800163e382b8e",
        "text": "尽量让他们意识到自己的选择",
        "audio_url": "https://v3-vvecloud.yangyi08.com/bf8189a08584408532a57bd490a20dd1/6724cad9/video/tos/cn/tos-cn-v-2cd6b0/oIAAzMDlFACJJvknARhhCByi3eHEECAfgnLB0E/?a=7073&ch=0&cr=0&dr=0&&br=0&bt=0&ft=xztlUQhhe6BMyqxcUupJD12Nzj&mime_type=audio_mpeg&rc=QGlAYSNz&btag=80000000008000&dy_q=1730460873&l=202411011934201E7538D8228B578C67F0&format=mp3",
        "source_timerange": {
            "start_offset": 0,
            "end_offset": 2.769999999999982
        },
        "target_timerange": {
            "start_offset": 266.73,
            "end_offset": 269.5
        },
        "ignore_audio": false,
        "audio_path": null
    },
    {
        "segment_id": "446555d2984511efac0800163e382b8e",
        "text": "虽然我面临生死存亡 但我必须冷静",
        "audio_url": "https://v6-vvecloud.yangyi08.com/7b0929972d06fc5b496622ef9e90693e/6724cad9/video/tos/cn/tos-cn-v-2cd6b0/owAA5MBliAqkkvknAINhBADRB41EEhAfQzlO2i/?a=7073&ch=0&cr=0&dr=0&&br=0&bt=0&ft=xztlUQhhe6BMyqxcUupJD12Nzj&mime_type=audio_mpeg&rc=QGlAYSNz&btag=80000000008000&dy_q=1730460873&l=202411011934201E7538D8228B578C67F0&format=mp3",
        "source_timerange": {
            "start_offset": 0,
            "end_offset": 3.7799999999999727
        },
        "target_timerange": {
            "start_offset": 269.5,
            "end_offset": 273.28
        },
        "ignore_audio": false,
        "audio_path": null
    },
    {
        "segment_id": "44655780984511efac0800163e382b8e",
        "text": "或许 他们的内心深处也在渴望改变",
        "audio_url": "https://v9-vvecloud.yangyi08.com/d3ff5d3e2a8557b7d0684607152ad10d/6724cad9/video/tos/cn/tos-cn-v-2cd6b0/oMCBJqICALeDlvzJAAARMJfzi4AFkvEngEqEBk/?a=7073&ch=0&cr=0&dr=0&&br=0&bt=0&ft=xztlUQhhe6BMyqxcUupJD12Nzj&mime_type=audio_mpeg&rc=QGlAYSNz&btag=80000000008000&dy_q=1730460873&l=202411011934201E7538D8228B578C67F0&format=mp3",
        "source_timerange": {
            "start_offset": 0,
            "end_offset": 3.82000000000005
        },
        "target_timerange": {
            "start_offset": 273.28,
            "end_offset": 277.1
        },
        "ignore_audio": false,
        "audio_path": null
    },
    {
        "segment_id": "44655924984511efac0800163e382b8e",
        "text": "“赖三 去 给他弄点热水！”",
        "audio_url": "https://v6-vvecloud.yangyi08.com/de41a57aa25a24ba8e61dee93ac07bb4/6724cad9/video/tos/cn/tos-cn-v-2cd6b0/oMcI3kiAMAEOnkhMRE5kvVQEBfBxiAAB3AAzlE/?a=7073&ch=0&cr=0&dr=0&&br=0&bt=0&ft=xztlUQhhe6BMyqxcUupJD12Nzj&mime_type=audio_mpeg&rc=QGlAYSNz&btag=80000000008000&dy_q=1730460873&l=202411011934201E7538D8228B578C67F0&format=mp3",
        "source_timerange": {
            "start_offset": 0,
            "end_offset": 3.1049999999999613
        },
        "target_timerange": {
            "start_offset": 277.1,
            "end_offset": 280.205
        },
        "ignore_audio": false,
        "audio_path": null
    },
    {
        "segment_id": "44655abe984511efac0800163e382b8e",
        "text": "带头大哥的命令让我松了一口气",
        "audio_url": "https://v6-vvecloud.yangyi08.com/de41a57aa25a24ba8e61dee93ac07bb4/6724cad9/video/tos/cn/tos-cn-v-2cd6b0/oMcI3kiAMAEOnkhMRE5kvVQEBfBxiAAB3AAzlE/?a=7073&ch=0&cr=0&dr=0&&br=0&bt=0&ft=xztlUQhhe6BMyqxcUupJD12Nzj&mime_type=audio_mpeg&rc=QGlAYSNz&btag=80000000008000&dy_q=1730460873&l=202411011934201E7538D8228B578C67F0&format=mp3",
        "source_timerange": {
            "start_offset": 3.1049999999999613,
            "end_offset": 5.359999999999957
        },
        "target_timerange": {
            "start_offset": 280.205,
            "end_offset": 282.46
        },
        "ignore_audio": true,
        "audio_path": null
    },
    {
        "segment_id": "44655c62984511efac0800163e382b8e",
        "text": "至少我可以拖延一些时间 继续我的计划",
        "audio_url": "https://v6-vvecloud.yangyi08.com/8152c7871095238a1492dc01341599cb/6724cad9/video/tos/cn/tos-cn-v-2cd6b0/oszC2CfhCJEAAvRAiJgfEqFEplAGAnkMD9ALB5/?a=7073&ch=0&cr=0&dr=0&&br=0&bt=0&ft=xztlUQhhe6BMyqxcUupJD12Nzj&mime_type=audio_mpeg&rc=QGlAYSNz&btag=80000000008000&dy_q=1730460873&l=202411011934201E7538D8228B578C67F0&format=mp3",
        "source_timerange": {
            "start_offset": 0,
            "end_offset": 3.5300000000000296
        },
        "target_timerange": {
            "start_offset": 282.46,
            "end_offset": 285.99
        },
        "ignore_audio": false,
        "audio_path": null
    },
    {
        "segment_id": "44655e1a984511efac0800163e382b8e",
        "text": "我知道 如果我能说服他们",
        "audio_url": "https://v3-vvecloud.yangyi08.com/dabb4e1b9b526ae836f24cec9df71911/6724cad9/video/tos/cn/tos-cn-v-2cd6b0/ooABXTQejOIeCEBYCtGSBmLXAZkSAFRQANeAQE/?a=7073&ch=0&cr=0&dr=0&&br=0&bt=0&ft=xztlUQhhe6BMyqxcUupJD12Nzj&mime_type=audio_mpeg&rc=QGlAYSNz&btag=80000000008000&dy_q=1730460873&l=202411011934201E7538D8228B578C67F0&format=mp3",
        "source_timerange": {
            "start_offset": 0,
            "end_offset": 2.839999999999975
        },
        "target_timerange": {
            "start_offset": 285.99,
            "end_offset": 288.83
        },
        "ignore_audio": false,
        "audio_path": null
    },
    {
        "segment_id": "44656018984511efac0800163e382b8e",
        "text": "或许可以争取一线生机",
        "audio_url": "https://v3-vvecloud.yangyi08.com/827f1b48bda3ac500d8cf8fb96020ed3/6724cad9/video/tos/cn/tos-cn-v-2cd6b0/okPI9kiAkAzZnkhMR75kvUQEBfBZiAAkZAAzlE/?a=7073&ch=0&cr=0&dr=0&&br=0&bt=0&ft=xztlUQhhe6BMyqxcUupJD12Nzj&mime_type=audio_mpeg&rc=QGlAYSNz&btag=80000000008000&dy_q=1730460873&l=202411011934201E7538D8228B578C67F0&format=mp3",
        "source_timerange": {
            "start_offset": 0,
            "end_offset": 2.590000000000032
        },
        "target_timerange": {
            "start_offset": 288.83,
            "end_offset": 291.42
        },
        "ignore_audio": false,
        "audio_path": null
    },
    {
        "segment_id": "446561c6984511efac0800163e382b8e",
        "text": "我看着他们 脑中快速运转",
        "audio_url": "https://v6-vvecloud.yangyi08.com/eddc665deb30ec9dee3a65d5f11de745/6724cad9/video/tos/cn/tos-cn-v-2cd6b0/oQ8zECn8JDCMv8AnALFeARnAAisgVBKJEjflkE/?a=7073&ch=0&cr=0&dr=0&&br=0&bt=0&ft=xztlUQhhe6BMyqxcUupJD12Nzj&mime_type=audio_mpeg&rc=QGlAYSNz&btag=80000000008000&dy_q=1730460873&l=202411011934201E7538D8228B578C67F0&format=mp3",
        "source_timerange": {
            "start_offset": 0,
            "end_offset": 3.0600000000000023
        },
        "target_timerange": {
            "start_offset": 291.42,
            "end_offset": 294.48
        },
        "ignore_audio": false,
        "audio_path": null
    },
    {
        "segment_id": "4465636a984511efac0800163e382b8e",
        "text": "想办法逃出这个地狱般的地方",
        "audio_url": "https://v3-vvecloud.yangyi08.com/2b4c2d236b48c56ebe197f50f4e7936e/6724cad9/video/tos/cn/tos-cn-v-2cd6b0/oskHAcfBhE25IlzRYvFtAkRlkAMBTi5AiAAkEQ/?a=7073&ch=0&cr=0&dr=0&&br=0&bt=0&ft=xztlUQhhe6BMyqxcUupJD12Nzj&mime_type=audio_mpeg&rc=QGlAYSNz&btag=80000000008000&dy_q=1730460873&l=202411011934201E7538D8228B578C67F0&format=mp3",
        "source_timerange": {
            "start_offset": 0,
            "end_offset": 2.6999999999999886
        },
        "target_timerange": {
            "start_offset": 294.48,
            "end_offset": 297.18
        },
        "ignore_audio": false,
        "audio_path": null
    },
    {
        "segment_id": "44656518984511efac0800163e382b8e",
        "text": "只有我才能掌握自己的命运",
        "audio_url": "https://v6-vvecloud.yangyi08.com/cbf66081df4cd2eb319630d820446b99/6724cad9/video/tos/cn/tos-cn-v-2cd6b0/oEbAA5zEkzuBwAavQkhMlfiLiRBIAAk1mHnmAE/?a=7073&ch=0&cr=0&dr=0&&br=0&bt=0&ft=xztlUQhhe6BMyqxcUupJD12Nzj&mime_type=audio_mpeg&rc=QGlAYSNz&btag=80000000008000&dy_q=1730460873&l=202411011934201E7538D8228B578C67F0&format=mp3",
        "source_timerange": {
            "start_offset": 0,
            "end_offset": 2.409999999999968
        },
        "target_timerange": {
            "start_offset": 297.18,
            "end_offset": 299.59
        },
        "ignore_audio": false,
        "audio_path": null
    },
    {
        "segment_id": "446566b2984511efac0800163e382b8e",
        "text": "不会轻易被他们的威胁所压倒",
        "audio_url": "https://v3-vvecloud.yangyi08.com/50fba07a9af004da547ae899c7fe8437/6724cad9/video/tos/cn/tos-cn-v-2cd6b0/owv81iBRiEAEQCkKlkf5mAkBIAPlzBhFAAhMAZ/?a=7073&ch=0&cr=0&dr=0&&br=0&bt=0&ft=xztlUQhhe6BMyqxcUupJD12Nzj&mime_type=audio_mpeg&rc=QGlAYSNz&btag=80000000008000&dy_q=1730460873&l=202411011934201E7538D8228B578C67F0&format=mp3",
        "source_timerange": {
            "start_offset": 0,
            "end_offset": 2.920000000000016
        },
        "target_timerange": {
            "start_offset": 299.59,
            "end_offset": 302.51
        },
        "ignore_audio": false,
        "audio_path": null
    }
]