[
    {
        "segment_id": "9651d230984011ef97fe836af37d64d0",
        "text": "我看着杨自奎准备拒绝这项疯狂的计划",
        "audio_url": "https://v9-vvecloud.yangyi08.com/2ee004ddcea5d38122f462134e204995/6724c2fe/video/tos/cn/tos-cn-v-2cd6b0/owBIjajdIYWEaXSCeJuGeBsjnbFLAAWAAfBOIy/?a=7073&ch=0&cr=0&dr=0&&br=0&bt=0&ft=xztlUQhhe6BMyq6pUupJD12Nzj&mime_type=audio_mpeg&rc=QGlAYSNz&btag=c0000000008000&dy_q=1730458862&l=2024110119004777B30CE79AF395A2F311&format=mp3",
        "source_timerange": {
            "start_offset": 0,
            "end_offset": 3.67
        },
        "target_timerange": {
            "start_offset": 0,
            "end_offset": 3.67
        },
        "ignore_audio": false,
        "audio_path": null
    },
    {
        "segment_id": "9651d64a984011ef97fe836af37d64d0",
        "text": "但我拿出手机 给他讲明了这并不是骗人",
        "audio_url": "https://v3-vvecloud.yangyi08.com/d3a047d4d9e4b1747c3365bd218e237c/6724c2fe/video/tos/cn/tos-cn-v-2cd6b0/oAAJj2VfIzirAmgPALBk9pilAOWkQBwE80tAER/?a=7073&ch=0&cr=0&dr=0&&br=0&bt=0&ft=xztlUQhhe6BMyq6pUupJD12Nzj&mime_type=audio_mpeg&rc=QGlAYSNz&btag=c0000000008000&dy_q=1730458862&l=2024110119004777B30CE79AF395A2F311&format=mp3",
        "source_timerange": {
            "start_offset": 0,
            "end_offset": 3.8899999999999997
        },
        "target_timerange": {
            "start_offset": 3.67,
            "end_offset": 7.56
        },
        "ignore_audio": false,
        "audio_path": null
    },
    {
        "segment_id": "9651d884984011ef97fe836af37d64d0",
        "text": "而是明码标价的商品附加价值",
        "audio_url": "https://v3-vvecloud.yangyi08.com/f6e29fde5d54c6ebd36ed9a5b7e9e6d7/6724c2fe/video/tos/cn/tos-cn-v-2cd6b0/ogLwNFDzRiA2hEAtFkEEeTBCtAvgOyAHJnf4CA/?a=7073&ch=0&cr=0&dr=0&&br=0&bt=0&ft=xztlUQhhe6BMyq6pUupJD12Nzj&mime_type=audio_mpeg&rc=QGlAYSNz&btag=c0000000008000&dy_q=1730458862&l=2024110119004777B30CE79AF395A2F311&format=mp3",
        "source_timerange": {
            "start_offset": 0,
            "end_offset": 3.13
        },
        "target_timerange": {
            "start_offset": 7.56,
            "end_offset": 10.69
        },
        "ignore_audio": false,
        "audio_path": null
    },
    {
        "segment_id": "9651dab4984011ef97fe836af37d64d0",
        "text": "“哦 我突然想起来 是谁说要直播吃翔来着？”",
        "audio_url": "https://v3-vvecloud.yangyi08.com/75883823b21a514cd4741fd14dfe09f6/6724c2ff/video/tos/cn/tos-cn-v-2cd6b0/owEkRLeHnENAiAAztBJFZATEEGDAl1CEtgfQOU/?a=7073&ch=0&cr=0&dr=0&&br=0&bt=0&ft=xztlUQhhe6BMyq3pUupJD12Nzj&mime_type=audio_mpeg&rc=QGlAYSNz&btag=c0000000008000&dy_q=1730458863&l=2024110119004777B30CE79AF395A2F311&format=mp3",
        "source_timerange": {
            "start_offset": 0,
            "end_offset": 4.195
        },
        "target_timerange": {
            "start_offset": 10.69,
            "end_offset": 14.885
        },
        "ignore_audio": false,
        "audio_path": null
    },
    {
        "segment_id": "9651dd84984011ef97fe836af37d64d0",
        "text": "我调侃他",
        "audio_url": "https://v3-vvecloud.yangyi08.com/75883823b21a514cd4741fd14dfe09f6/6724c2ff/video/tos/cn/tos-cn-v-2cd6b0/owEkRLeHnENAiAAztBJFZATEEGDAl1CEtgfQOU/?a=7073&ch=0&cr=0&dr=0&&br=0&bt=0&ft=xztlUQhhe6BMyq3pUupJD12Nzj&mime_type=audio_mpeg&rc=QGlAYSNz&btag=c0000000008000&dy_q=1730458863&l=2024110119004777B30CE79AF395A2F311&format=mp3",
        "source_timerange": {
            "start_offset": 4.195,
            "end_offset": 5.360000000000001
        },
        "target_timerange": {
            "start_offset": 14.885,
            "end_offset": 16.05
        },
        "ignore_audio": true,
        "audio_path": null
    },
    {
        "segment_id": "9651e180984011ef97fe836af37d64d0",
        "text": "虽然知道这句话会让他脸色变得不太好看",
        "audio_url": "https://v9-vvecloud.yangyi08.com/5dc3e93f60c7a8d8ca529d988879f7b1/6724c2fe/video/tos/cn/tos-cn-v-2cd6b0/owAEQi4AIpDEzBtfkAgkAlOu871BRAi2mq3gOq/?a=7073&ch=0&cr=0&dr=0&&br=0&bt=0&ft=xztlUQhhe6BMyq6pUupJD12Nzj&mime_type=audio_mpeg&rc=QGlAYSNz&btag=c0000000008000&dy_q=1730458862&l=2024110119004777B30CE79AF395A2F311&format=mp3",
        "source_timerange": {
            "start_offset": 0,
            "end_offset": 3.4899999999999984
        },
        "target_timerange": {
            "start_offset": 16.05,
            "end_offset": 19.54
        },
        "ignore_audio": false,
        "audio_path": null
    },
    {
        "segment_id": "9651e5b8984011ef97fe836af37d64d0",
        "text": "但为了避免尴尬 他只好屈服 答应了我的要求",
        "audio_url": "https://v9-vvecloud.yangyi08.com/31cec712f1209cbb919ba25ae83a3bc4/6724c2fe/video/tos/cn/tos-cn-v-2cd6b0/o8wTtANDnBt5OUfFEAALoCEdiAzkfJ1gWREOAt/?a=7073&ch=0&cr=0&dr=0&&br=0&bt=0&ft=xztlUQhhe6BMyq6pUupJD12Nzj&mime_type=audio_mpeg&rc=QGlAYSNz&btag=c0000000008000&dy_q=1730458862&l=2024110119004777B30CE79AF395A2F311&format=mp3",
        "source_timerange": {
            "start_offset": 0,
            "end_offset": 4.460000000000001
        },
        "target_timerange": {
            "start_offset": 19.54,
            "end_offset": 24
        },
        "ignore_audio": false,
        "audio_path": null
    },
    {
        "segment_id": "9651eb3a984011ef97fe836af37d64d0",
        "text": "放心吧 不会让你白辛苦的！",
        "audio_url": "https://v9-vvecloud.yangyi08.com/bc0aa5879eb7c95f9766792d8c9ca851/6724c2fe/video/tos/cn/tos-cn-v-2cd6b0/oAERkizvlAATgTB1EfWdAmAQi5tD0k32dApBIO/?a=7073&ch=0&cr=0&dr=0&&br=0&bt=0&ft=xztlUQhhe6BMyq6pUupJD12Nzj&mime_type=audio_mpeg&rc=QGlAYSNz&btag=c0000000008000&dy_q=1730458862&l=2024110119004777B30CE79AF395A2F311&format=mp3",
        "source_timerange": {
            "start_offset": 0,
            "end_offset": 2.9899999999999984
        },
        "target_timerange": {
            "start_offset": 24,
            "end_offset": 26.99
        },
        "ignore_audio": false,
        "audio_path": null
    },
    {
        "segment_id": "9651ee00984011ef97fe836af37d64d0",
        "text": "而且 可能还有美女加微信哦！",
        "audio_url": "https://v3-vvecloud.yangyi08.com/5d8bf75a8355f37c02671a82825c7a13/6724c2ff/video/tos/cn/tos-cn-v-2cd6b0/ooXAFgfiuQkOz27m8EApIaByAwE3ilRAByAltk/?a=7073&ch=0&cr=0&dr=0&&br=0&bt=0&ft=xztlUQhhe6BMyq3pUupJD12Nzj&mime_type=audio_mpeg&rc=QGlAYSNz&btag=c0000000008000&dy_q=1730458863&l=2024110119004777B30CE79AF395A2F311&format=mp3",
        "source_timerange": {
            "start_offset": 0,
            "end_offset": 2.625
        },
        "target_timerange": {
            "start_offset": 26.99,
            "end_offset": 29.615
        },
        "ignore_audio": false,
        "audio_path": null
    },
    {
        "segment_id": "9651f044984011ef97fe836af37d64d0",
        "text": "我忍不住再加了一句 心里暗自得意",
        "audio_url": "https://v3-vvecloud.yangyi08.com/5d8bf75a8355f37c02671a82825c7a13/6724c2ff/video/tos/cn/tos-cn-v-2cd6b0/ooXAFgfiuQkOz27m8EApIaByAwE3ilRAByAltk/?a=7073&ch=0&cr=0&dr=0&&br=0&bt=0&ft=xztlUQhhe6BMyq3pUupJD12Nzj&mime_type=audio_mpeg&rc=QGlAYSNz&btag=c0000000008000&dy_q=1730458863&l=2024110119004777B30CE79AF395A2F311&format=mp3",
        "source_timerange": {
            "start_offset": 2.625,
            "end_offset": 5.940000000000001
        },
        "target_timerange": {
            "start_offset": 29.615,
            "end_offset": 32.93
        },
        "ignore_audio": true,
        "audio_path": null
    },
    {
        "segment_id": "9651f242984011ef97fe836af37d64d0",
        "text": "半个小时后 我带着穿着",
        "audio_url": "https://v3-vvecloud.yangyi08.com/171de24594027a6fde8263fdde333f9f/6724c2ff/video/tos/cn/tos-cn-v-2cd6b0/oQtRNAikCEBg29ABpXAQfrimzkE1IMSgmAOltA/?a=7073&ch=0&cr=0&dr=0&&br=0&bt=0&ft=xztlUQhhe6BMyq3pUupJD12Nzj&mime_type=audio_mpeg&rc=QGlAYSNz&btag=c0000000008000&dy_q=1730458863&l=2024110119004777B30CE79AF395A2F311&format=mp3",
        "source_timerange": {
            "start_offset": 0,
            "end_offset": 2.155000000000001
        },
        "target_timerange": {
            "start_offset": 32.93,
            "end_offset": 35.085
        },
        "ignore_audio": false,
        "audio_path": null
    },
    {
        "segment_id": "9651f44a984011ef97fe836af37d64d0",
        "text": "女装的杨自奎出现在豪车前",
        "audio_url": "https://v3-vvecloud.yangyi08.com/171de24594027a6fde8263fdde333f9f/6724c2ff/video/tos/cn/tos-cn-v-2cd6b0/oQtRNAikCEBg29ABpXAQfrimzkE1IMSgmAOltA/?a=7073&ch=0&cr=0&dr=0&&br=0&bt=0&ft=xztlUQhhe6BMyq3pUupJD12Nzj&mime_type=audio_mpeg&rc=QGlAYSNz&btag=c0000000008000&dy_q=1730458863&l=2024110119004777B30CE79AF395A2F311&format=mp3",
        "source_timerange": {
            "start_offset": 2.155000000000001,
            "end_offset": 4.5
        },
        "target_timerange": {
            "start_offset": 35.085,
            "end_offset": 37.43
        },
        "ignore_audio": true,
        "audio_path": null
    },
    {
        "segment_id": "9651f634984011ef97fe836af37d64d0",
        "text": "他的样子实在是太搞笑了 吸引了不少路人的目光",
        "audio_url": "https://v6-vvecloud.yangyi08.com/8ba906a153e44e6e512dadfa736ba800/6724c2fe/video/tos/cn/tos-cn-v-2cd6b0/ociEgJJEizAtAxnZmFLti1EAkDfOf0CMRABTAN/?a=7073&ch=0&cr=0&dr=0&&br=0&bt=0&ft=xztlUQhhe6BMyq6pUupJD12Nzj&mime_type=audio_mpeg&rc=QGlAYSNz&btag=c0000000008000&dy_q=1730458862&l=2024110119004777B30CE79AF395A2F311&format=mp3",
        "source_timerange": {
            "start_offset": 0,
            "end_offset": 4.390000000000001
        },
        "target_timerange": {
            "start_offset": 37.43,
            "end_offset": 41.82
        },
        "ignore_audio": false,
        "audio_path": null
    },
    {
        "segment_id": "9651f814984011ef97fe836af37d64d0",
        "text": "看到围观的人群 我心里暗自窃喜",
        "audio_url": "https://v26-vvecloud.yangyi08.com/55f99b0da4563a18c939fdd40801e87d/6724c2ff/video/tos/cn/tos-cn-v-2cd6b0/o0lAAD2fAkPzigB0EpOaIt3BQixRm0AUo0knEA/?a=7073&ch=0&cr=0&dr=0&&br=0&bt=0&ft=xztlUQhhe6BMyq3pUupJD12Nzj&mime_type=audio_mpeg&rc=QGlAYSNz&btag=c0000000008000&dy_q=1730458863&l=2024110119004777B30CE79AF395A2F311&format=mp3",
        "source_timerange": {
            "start_offset": 0,
            "end_offset": 3.4200000000000017
        },
        "target_timerange": {
            "start_offset": 41.82,
            "end_offset": 45.24
        },
        "ignore_audio": false,
        "audio_path": null
    },
    {
        "segment_id": "9651fa08984011ef97fe836af37d64d0",
        "text": "这就是我想要的效果",
        "audio_url": "https://v26-vvecloud.yangyi08.com/51615ab82aae683776b99b7f90dfe99f/6724c2fe/video/tos/cn/tos-cn-v-2cd6b0/oofRIiTS8qtfBAmJD4BuI7nagAFdAnCLJlDNAE/?a=7073&ch=0&cr=0&dr=0&&br=0&bt=0&ft=xztlUQhhe6BMyq6pUupJD12Nzj&mime_type=audio_mpeg&rc=QGlAYSNz&btag=c0000000008000&dy_q=1730458862&l=2024110119004777B30CE79AF395A2F311&format=mp3",
        "source_timerange": {
            "start_offset": 0,
            "end_offset": 2.0899999999999963
        },
        "target_timerange": {
            "start_offset": 45.24,
            "end_offset": 47.33
        },
        "ignore_audio": false,
        "audio_path": null
    },
    {
        "segment_id": "9651fbf2984011ef97fe836af37d64d0",
        "text": "这有钱人家的家教就是不一样",
        "audio_url": "https://v3-vvecloud.yangyi08.com/c1cb52bb6b9e285a9e451988c319ec43/6724c2ff/video/tos/cn/tos-cn-v-2cd6b0/o46AiAfEpgJOnteNFEBTRsCVAgE1FXiAD2ALtk/?a=7073&ch=0&cr=0&dr=0&&br=0&bt=0&ft=xztlUQhhe6BMyq3pUupJD12Nzj&mime_type=audio_mpeg&rc=QGlAYSNz&btag=c0000000008000&dy_q=1730458863&l=2024110119004777B30CE79AF395A2F311&format=mp3",
        "source_timerange": {
            "start_offset": 0,
            "end_offset": 2.770000000000003
        },
        "target_timerange": {
            "start_offset": 47.33,
            "end_offset": 50.1
        },
        "ignore_audio": false,
        "audio_path": null
    },
    {
        "segment_id": "9651fde6984011ef97fe836af37d64d0",
        "text": "咱们普通人是想着不让孩子吃苦",
        "audio_url": "https://v26-vvecloud.yangyi08.com/7f31bc8d03bdd6fc21f0148df61e6e10/6724c2ff/video/tos/cn/tos-cn-v-2cd6b0/oIDAbgfiQQkOz2NmQEApIABdAyE2i8RAB5Altk/?a=7073&ch=0&cr=0&dr=0&&br=0&bt=0&ft=xztlUQhhe6BMyq3pUupJD12Nzj&mime_type=audio_mpeg&rc=QGlAYSNz&btag=c0000000008000&dy_q=1730458863&l=2024110119004777B30CE79AF395A2F311&format=mp3",
        "source_timerange": {
            "start_offset": 0,
            "end_offset": 3.059999999999995
        },
        "target_timerange": {
            "start_offset": 50.1,
            "end_offset": 53.16
        },
        "ignore_audio": false,
        "audio_path": null
    },
    {
        "segment_id": "9651ffda984011ef97fe836af37d64d0",
        "text": "这倒好 让孩子体验生活吃苦！",
        "audio_url": "https://v3-vvecloud.yangyi08.com/78b8203224e0a35f198f55f9cbb2ae04/6724c2ff/video/tos/cn/tos-cn-v-2cd6b0/oUIiJFnHLBALA2DtIfteANAgElaPoJytpBTCRd/?a=7073&ch=0&cr=0&dr=0&&br=0&bt=0&ft=xztlUQhhe6BMyq3pUupJD12Nzj&mime_type=audio_mpeg&rc=QGlAYSNz&btag=c0000000008000&dy_q=1730458863&l=2024110119004777B30CE79AF395A2F311&format=mp3",
        "source_timerange": {
            "start_offset": 0,
            "end_offset": 3.145000000000003
        },
        "target_timerange": {
            "start_offset": 53.16,
            "end_offset": 56.305
        },
        "ignore_audio": false,
        "audio_path": null
    },
    {
        "segment_id": "96520200984011ef97fe836af37d64d0",
        "text": "一个路过的中年人感叹道",
        "audio_url": "https://v3-vvecloud.yangyi08.com/78b8203224e0a35f198f55f9cbb2ae04/6724c2ff/video/tos/cn/tos-cn-v-2cd6b0/oUIiJFnHLBALA2DtIfteANAgElaPoJytpBTCRd/?a=7073&ch=0&cr=0&dr=0&&br=0&bt=0&ft=xztlUQhhe6BMyq3pUupJD12Nzj&mime_type=audio_mpeg&rc=QGlAYSNz&btag=c0000000008000&dy_q=1730458863&l=2024110119004777B30CE79AF395A2F311&format=mp3",
        "source_timerange": {
            "start_offset": 3.145000000000003,
            "end_offset": 5.1100000000000065
        },
        "target_timerange": {
            "start_offset": 56.305,
            "end_offset": 58.27
        },
        "ignore_audio": true,
        "audio_path": null
    },
    {
        "segment_id": "965204e4984011ef97fe836af37d64d0",
        "text": "旁边的年轻男女们则显得有些犹豫",
        "audio_url": "https://v3-vvecloud.yangyi08.com/81f4f93e086b30ca9f2e7eda17a8f94b/6724c2ff/video/tos/cn/tos-cn-v-2cd6b0/o0hEcBLSkIGybzAFnKAAeeIAOJIpjf4BaAdWaC/?a=7073&ch=0&cr=0&dr=0&&br=0&bt=0&ft=xztlUQhhe6BMyq3pUupJD12Nzj&mime_type=audio_mpeg&rc=QGlAYSNz&btag=c0000000008000&dy_q=1730458863&l=2024110119004777B30CE79AF395A2F311&format=mp3",
        "source_timerange": {
            "start_offset": 0,
            "end_offset": 3.059999999999995
        },
        "target_timerange": {
            "start_offset": 58.27,
            "end_offset": 61.33
        },
        "ignore_audio": false,
        "audio_path": null
    },
    {
        "segment_id": "965206f6984011ef97fe836af37d64d0",
        "text": "毕竟平时根本没机会接触到富家圈",
        "audio_url": "https://v26-vvecloud.yangyi08.com/74444488d8c4b54437614e409223e4a4/6724c2fe/video/tos/cn/tos-cn-v-2cd6b0/oAAENEt0gCTOAengRFfQLnDB1AJpNEi4OAMtAk/?a=7073&ch=0&cr=0&dr=0&&br=0&bt=0&ft=xztlUQhhe6BMyq6pUupJD12Nzj&mime_type=audio_mpeg&rc=QGlAYSNz&btag=c0000000008000&dy_q=1730458862&l=2024110119004777B30CE79AF395A2F311&format=mp3",
        "source_timerange": {
            "start_offset": 0,
            "end_offset": 3.3500000000000085
        },
        "target_timerange": {
            "start_offset": 61.33,
            "end_offset": 64.68
        },
        "ignore_audio": false,
        "audio_path": null
    },
    {
        "segment_id": "965208e0984011ef97fe836af37d64d0",
        "text": "就在这时 一位二十多岁的女子向杨自奎询问：",
        "audio_url": "https://v3-vvecloud.yangyi08.com/4bca012851979e8252b024069100fe96/6724c2ff/video/tos/cn/tos-cn-v-2cd6b0/oMLAigfiaQkOz2AmpEApIQBQAEE1ivRABxAltk/?a=7073&ch=0&cr=0&dr=0&&br=0&bt=0&ft=xztlUQhhe6BMyq3pUupJD12Nzj&mime_type=audio_mpeg&rc=QGlAYSNz&btag=c0000000008000&dy_q=1730458863&l=2024110119004777B30CE79AF395A2F311&format=mp3",
        "source_timerange": {
            "start_offset": 0,
            "end_offset": 4.459999999999994
        },
        "target_timerange": {
            "start_offset": 64.68,
            "end_offset": 69.14
        },
        "ignore_audio": false,
        "audio_path": null
    },
    {
        "segment_id": "96520af2984011ef97fe836af37d64d0",
        "text": "“美女小姐姐 真的买腰带就可以加微信吗？”",
        "audio_url": "https://v3-vvecloud.yangyi08.com/0ef0f52f9c93a573bdd2be5a26a1b3c2/6724c2fe/video/tos/cn/tos-cn-v-2cd6b0/osAictXOE2wRmXkAyk0BfgsIp2BiAAlQAljzEv/?a=7073&ch=0&cr=0&dr=0&&br=0&bt=0&ft=xztlUQhhe6BMyq6pUupJD12Nzj&mime_type=audio_mpeg&rc=QGlAYSNz&btag=c0000000008000&dy_q=1730458862&l=2024110119004777B30CE79AF395A2F311&format=mp3",
        "source_timerange": {
            "start_offset": 0,
            "end_offset": 3.6850000000000023
        },
        "target_timerange": {
            "start_offset": 69.14,
            "end_offset": 72.825
        },
        "ignore_audio": false,
        "audio_path": null
    },
    {
        "segment_id": "96520cd2984011ef97fe836af37d64d0",
        "text": "我看到杨自奎努力掐着声音回答：“是滴！”",
        "audio_url": "https://v3-vvecloud.yangyi08.com/0ef0f52f9c93a573bdd2be5a26a1b3c2/6724c2fe/video/tos/cn/tos-cn-v-2cd6b0/osAictXOE2wRmXkAyk0BfgsIp2BiAAlQAljzEv/?a=7073&ch=0&cr=0&dr=0&&br=0&bt=0&ft=xztlUQhhe6BMyq6pUupJD12Nzj&mime_type=audio_mpeg&rc=QGlAYSNz&btag=c0000000008000&dy_q=1730458862&l=2024110119004777B30CE79AF395A2F311&format=mp3",
        "source_timerange": {
            "start_offset": 3.6850000000000023,
            "end_offset": 7.444999999999993
        },
        "target_timerange": {
            "start_offset": 72.825,
            "end_offset": 76.585
        },
        "ignore_audio": true,
        "audio_path": null
    },
    {
        "segment_id": "96520fc0984011ef97fe836af37d64d0",
        "text": "那一瞬间",
        "audio_url": "https://v3-vvecloud.yangyi08.com/0ef0f52f9c93a573bdd2be5a26a1b3c2/6724c2fe/video/tos/cn/tos-cn-v-2cd6b0/osAictXOE2wRmXkAyk0BfgsIp2BiAAlQAljzEv/?a=7073&ch=0&cr=0&dr=0&&br=0&bt=0&ft=xztlUQhhe6BMyq6pUupJD12Nzj&mime_type=audio_mpeg&rc=QGlAYSNz&btag=c0000000008000&dy_q=1730458862&l=2024110119004777B30CE79AF395A2F311&format=mp3",
        "source_timerange": {
            "start_offset": 7.444999999999993,
            "end_offset": 8.569999999999993
        },
        "target_timerange": {
            "start_offset": 76.585,
            "end_offset": 77.71
        },
        "ignore_audio": true,
        "audio_path": null
    },
    {
        "segment_id": "96521312984011ef97fe836af37d64d0",
        "text": "我忍不住想笑 他那憋屈的样子真是让人心疼",
        "audio_url": "https://v3-vvecloud.yangyi08.com/79aafd3aaff4c1df62ac7e6c12045ba9/6724c2ff/video/tos/cn/tos-cn-v-2cd6b0/og7k2nQkfBE0tpAHABIz4OARtigmiRAT2lAEl9/?a=7073&ch=0&cr=0&dr=0&&br=0&bt=0&ft=xztlUQhhe6BMyq3pUupJD12Nzj&mime_type=audio_mpeg&rc=QGlAYSNz&btag=c0000000008000&dy_q=1730458863&l=2024110119004777B30CE79AF395A2F311&format=mp3",
        "source_timerange": {
            "start_offset": 0,
            "end_offset": 4.25
        },
        "target_timerange": {
            "start_offset": 77.71,
            "end_offset": 81.96
        },
        "ignore_audio": false,
        "audio_path": null
    },
    {
        "segment_id": "965216fa984011ef97fe836af37d64d0",
        "text": "接着 女子买了一根腰带",
        "audio_url": "https://v3-vvecloud.yangyi08.com/6bd36805acdbc459c9cddcbce8542418/6724c2fe/video/tos/cn/tos-cn-v-2cd6b0/oIlALgfi3QkOz2kmHEApITBSADE3i1RABzAltk/?a=7073&ch=0&cr=0&dr=0&&br=0&bt=0&ft=xztlUQhhe6BMyq6pUupJD12Nzj&mime_type=audio_mpeg&rc=QGlAYSNz&btag=c0000000008000&dy_q=1730458862&l=2024110119004777B30CE79AF395A2F311&format=mp3",
        "source_timerange": {
            "start_offset": 0,
            "end_offset": 2.7700000000000102
        },
        "target_timerange": {
            "start_offset": 81.96,
            "end_offset": 84.73
        },
        "ignore_audio": false,
        "audio_path": null
    },
    {
        "segment_id": "965219ca984011ef97fe836af37d64d0",
        "text": "加了微信 周围的同伴也开始动心",
        "audio_url": "https://v3-vvecloud.yangyi08.com/cb7c59fd05acdba723b928085da24574/6724c2fe/video/tos/cn/tos-cn-v-2cd6b0/o0DdJFSPWaAqhIIOBSLeBCAfPaMAneIOjAGOEb/?a=7073&ch=0&cr=0&dr=0&&br=0&bt=0&ft=xztlUQhhe6BMyq6pUupJD12Nzj&mime_type=audio_mpeg&rc=QGlAYSNz&btag=c0000000008000&dy_q=1730458862&l=2024110119004777B30CE79AF395A2F311&format=mp3",
        "source_timerange": {
            "start_offset": 0,
            "end_offset": 3.6400000000000006
        },
        "target_timerange": {
            "start_offset": 84.73,
            "end_offset": 88.37
        },
        "ignore_audio": false,
        "audio_path": null
    },
    {
        "segment_id": "96521bc8984011ef97fe836af37d64d0",
        "text": "一个小时不到 我们的腰带就卖完了",
        "audio_url": "https://v9-vvecloud.yangyi08.com/d31579f9e6cf5ef13b463240eea104d5/6724c2fe/video/tos/cn/tos-cn-v-2cd6b0/oUAPx2ofIziuAmgKAhBktpilAOAkQBxEp1tAER/?a=7073&ch=0&cr=0&dr=0&&br=0&bt=0&ft=xztlUQhhe6BMyq6pUupJD12Nzj&mime_type=audio_mpeg&rc=QGlAYSNz&btag=c0000000008000&dy_q=1730458862&l=2024110119004777B30CE79AF395A2F311&format=mp3",
        "source_timerange": {
            "start_offset": 0,
            "end_offset": 3.489999999999995
        },
        "target_timerange": {
            "start_offset": 88.37,
            "end_offset": 91.86
        },
        "ignore_audio": false,
        "audio_path": null
    },
    {
        "segment_id": "96521dd0984011ef97fe836af37d64d0",
        "text": "杨自奎看着眼前的热潮 心里也有些不舍",
        "audio_url": "https://v3-vvecloud.yangyi08.com/09711f40c0012d5065de434dd32e428b/6724c2fe/video/tos/cn/tos-cn-v-2cd6b0/owJCHBELOgDARAgBTuA8F1kAfeNAAnEitxEtMD/?a=7073&ch=0&cr=0&dr=0&&br=0&bt=0&ft=xztlUQhhe6BMyq6pUupJD12Nzj&mime_type=audio_mpeg&rc=QGlAYSNz&btag=c0000000008000&dy_q=1730458862&l=2024110119004777B30CE79AF395A2F311&format=mp3",
        "source_timerange": {
            "start_offset": 0,
            "end_offset": 4.030000000000001
        },
        "target_timerange": {
            "start_offset": 91.86,
            "end_offset": 95.89
        },
        "ignore_audio": false,
        "audio_path": null
    },
    {
        "segment_id": "9652200a984011ef97fe836af37d64d0",
        "text": "他感受到的快感和成就感简直太棒了",
        "audio_url": "https://v9-vvecloud.yangyi08.com/f398cd8255ce22b1a63cd8bfbc72c5a5/6724c2ff/video/tos/cn/tos-cn-v-2cd6b0/oMzFGiBvEaRNATAtzf3mkELfnOAtnD0EJAEgCA/?a=7073&ch=0&cr=0&dr=0&&br=0&bt=0&ft=xztlUQhhe6BMyq3pUupJD12Nzj&mime_type=audio_mpeg&rc=QGlAYSNz&btag=c0000000008000&dy_q=1730458863&l=2024110119004777B30CE79AF395A2F311&format=mp3",
        "source_timerange": {
            "start_offset": 0,
            "end_offset": 3.3799999999999955
        },
        "target_timerange": {
            "start_offset": 95.89,
            "end_offset": 99.27
        },
        "ignore_audio": false,
        "audio_path": null
    },
    {
        "segment_id": "965221ea984011ef97fe836af37d64d0",
        "text": "阿东见状 暗自佩服 随后开车把杨自奎送走",
        "audio_url": "https://v6-vvecloud.yangyi08.com/fd8a2e3eb79fa1304e6c65da904f58d4/6724c2fe/video/tos/cn/tos-cn-v-2cd6b0/oEOTENL6tDCOtEA3ALFqARnAAimgeB3JEGfrkE/?a=7073&ch=0&cr=0&dr=0&&br=0&bt=0&ft=xztlUQhhe6BMyq6pUupJD12Nzj&mime_type=audio_mpeg&rc=QGlAYSNz&btag=c0000000008000&dy_q=1730458862&l=2024110119004777B30CE79AF395A2F311&format=mp3",
        "source_timerange": {
            "start_offset": 0,
            "end_offset": 4.930000000000007
        },
        "target_timerange": {
            "start_offset": 99.27,
            "end_offset": 104.2
        },
        "ignore_audio": false,
        "audio_path": null
    },
    {
        "segment_id": "965223c0984011ef97fe836af37d64d0",
        "text": "看着我用不到两百块的腰带竟然赚了一万多",
        "audio_url": "https://v9-vvecloud.yangyi08.com/acefa4eaa916883716a95683b4e0b341/6724c2fe/video/tos/cn/tos-cn-v-2cd6b0/osi2gAIREgBfOEAkAzAQ2dVZmAipTtkBl5O2tw/?a=7073&ch=0&cr=0&dr=0&&br=0&bt=0&ft=xztlUQhhe6BMyq6pUupJD12Nzj&mime_type=audio_mpeg&rc=QGlAYSNz&btag=c0000000008000&dy_q=1730458862&l=2024110119004777B30CE79AF395A2F311&format=mp3",
        "source_timerange": {
            "start_offset": 0,
            "end_offset": 3.4599999999999937
        },
        "target_timerange": {
            "start_offset": 104.2,
            "end_offset": 107.66
        },
        "ignore_audio": false,
        "audio_path": null
    },
    {
        "segment_id": "965225c8984011ef97fe836af37d64d0",
        "text": "心里不禁有些得意忘形",
        "audio_url": "https://v26-vvecloud.yangyi08.com/2e97ac1159409f4688ee026b7fc1e609/6724c301/video/tos/cn/tos-cn-v-2cd6b0/o0ngApzEktWBAA9tQ2mOlfijiRBIAAk625PTAE/?a=7073&ch=0&cr=0&dr=0&&br=62&bt=62&ds=5&ft=xztlUQhhe6BMyq3pUupJD12Nzj&mime_type=audio_mpeg&qs=13&rc=anBudXQ5cnVldjMzNDdkM0BpanBudXQ5cnVldjMzNDdkM0BwcmM2MmRjNmZgLS1kL2FzYSNwcmM2MmRjNmZgLS1kL2Fzcw%3D%3D&btag=c0000000008000&dy_q=1730458863&l=2024110119004777B30CE79AF395A2F311&format=mp3",
        "source_timerange": {
            "start_offset": 0,
            "end_offset": 2.480000000000004
        },
        "target_timerange": {
            "start_offset": 107.66,
            "end_offset": 110.14
        },
        "ignore_audio": false,
        "audio_path": null
    },
    {
        "segment_id": "9652279e984011ef97fe836af37d64d0",
        "text": "杨自奎兴奋地抱着我的胳膊",
        "audio_url": "https://v26-vvecloud.yangyi08.com/6efb2671e141ac5341ce44c98c721b73/6724c2fe/video/tos/cn/tos-cn-v-2cd6b0/osaieEsDg8ABhTLFfAnRAAClIcJldJIRLttBdN/?a=7073&ch=0&cr=0&dr=0&&br=0&bt=0&ft=xztlUQhhe6BMyq6pUupJD12Nzj&mime_type=audio_mpeg&rc=QGlAYSNz&btag=c0000000008000&dy_q=1730458862&l=2024110119004777B30CE79AF395A2F311&format=mp3",
        "source_timerange": {
            "start_offset": 0,
            "end_offset": 2.450000000000003
        },
        "target_timerange": {
            "start_offset": 110.14,
            "end_offset": 112.59
        },
        "ignore_audio": false,
        "audio_path": null
    },
    {
        "segment_id": "9652296a984011ef97fe836af37d64d0",
        "text": "激动地问我：“金子啊 我女装美不美？”",
        "audio_url": "https://v3-vvecloud.yangyi08.com/356d42055674dbcffdcac89524540f02/6724c2ff/video/tos/cn/tos-cn-v-2cd6b0/oQAJNEtEDf5TLBt8gEfOC1AA0Fo0AnAi7g0Rkk/?a=7073&ch=0&cr=0&dr=0&&br=0&bt=0&ft=xztlUQhhe6BMyq3pUupJD12Nzj&mime_type=audio_mpeg&rc=QGlAYSNz&btag=c0000000008000&dy_q=1730458863&l=2024110119004777B30CE79AF395A2F311&format=mp3",
        "source_timerange": {
            "start_offset": 0,
            "end_offset": 3.6049999999999898
        },
        "target_timerange": {
            "start_offset": 112.59,
            "end_offset": 116.195
        },
        "ignore_audio": false,
        "audio_path": null
    },
    {
        "segment_id": "96522b54984011ef97fe836af37d64d0",
        "text": "我嫌弃地把他推开：",
        "audio_url": "https://v3-vvecloud.yangyi08.com/356d42055674dbcffdcac89524540f02/6724c2ff/video/tos/cn/tos-cn-v-2cd6b0/oQAJNEtEDf5TLBt8gEfOC1AA0Fo0AnAi7g0Rkk/?a=7073&ch=0&cr=0&dr=0&&br=0&bt=0&ft=xztlUQhhe6BMyq3pUupJD12Nzj&mime_type=audio_mpeg&rc=QGlAYSNz&btag=c0000000008000&dy_q=1730458863&l=2024110119004777B30CE79AF395A2F311&format=mp3",
        "source_timerange": {
            "start_offset": 3.6049999999999898,
            "end_offset": 5.179999999999993
        },
        "target_timerange": {
            "start_offset": 116.195,
            "end_offset": 117.77
        },
        "ignore_audio": true,
        "audio_path": null
    },
    {
        "segment_id": "96522dca984011ef97fe836af37d64d0",
        "text": "“离我玩点 这身衣服还得还给人家呢！”",
        "audio_url": "https://v9-vvecloud.yangyi08.com/5ba31aa9e8beb218820d734fdf126241/6724c304/video/tos/cn/tos-cn-v-2cd6b0/osVX0ADtEFCTEEBJkAENAtiAAuLtfRxkneOAgv/?a=7073&ch=0&cr=0&dr=0&&br=156&bt=156&ds=5&ft=xztlUQhhe6BMyq6pUupJD12Nzj&mime_type=audio_mpeg&qs=13&rc=M2k4aXE5cnVldjMzNDdkM0BpM2k4aXE5cnVldjMzNDdkM0BmY2oyMmRjNmZgLS1kL2FzYSNmY2oyMmRjNmZgLS1kL2Fzcw%3D%3D&btag=c0000000008000&dy_q=1730458862&l=2024110119004777B30CE79AF395A2F311&format=mp3",
        "source_timerange": {
            "start_offset": 0,
            "end_offset": 3.635000000000005
        },
        "target_timerange": {
            "start_offset": 117.77,
            "end_offset": 121.405
        },
        "ignore_audio": false,
        "audio_path": null
    },
    {
        "segment_id": "965261dc984011ef97fe836af37d64d0",
        "text": "心中对接下来的计划充满期待",
        "audio_url": "https://v9-vvecloud.yangyi08.com/5ba31aa9e8beb218820d734fdf126241/6724c304/video/tos/cn/tos-cn-v-2cd6b0/osVX0ADtEFCTEEBJkAENAtiAAuLtfRxkneOAgv/?a=7073&ch=0&cr=0&dr=0&&br=156&bt=156&ds=5&ft=xztlUQhhe6BMyq6pUupJD12Nzj&mime_type=audio_mpeg&qs=13&rc=M2k4aXE5cnVldjMzNDdkM0BpM2k4aXE5cnVldjMzNDdkM0BmY2oyMmRjNmZgLS1kL2FzYSNmY2oyMmRjNmZgLS1kL2Fzcw%3D%3D&btag=c0000000008000&dy_q=1730458862&l=2024110119004777B30CE79AF395A2F311&format=mp3",
        "source_timerange": {
            "start_offset": 3.635000000000005,
            "end_offset": 6.1200000000000045
        },
        "target_timerange": {
            "start_offset": 121.405,
            "end_offset": 123.89
        },
        "ignore_audio": true,
        "audio_path": null
    },
    {
        "segment_id": "9652663c984011ef97fe836af37d64d0",
        "text": "哎呀！紧赶慢赶 还是来晚了！",
        "audio_url": "https://v9-vvecloud.yangyi08.com/1f233c6bd4c52128709daffa6fb5aee0/6724c2ff/video/tos/cn/tos-cn-v-2cd6b0/oYEAkn7iSBLA3gRl0pECAFEATtDZJJA1efatON/?a=7073&ch=0&cr=0&dr=0&&br=0&bt=0&ft=xztlUQhhe6BMyq3pUupJD12Nzj&mime_type=audio_mpeg&rc=QGlAYSNz&btag=c0000000008000&dy_q=1730458863&l=2024110119004777B30CE79AF395A2F311&format=mp3",
        "source_timerange": {
            "start_offset": 0,
            "end_offset": 3.5849999999999937
        },
        "target_timerange": {
            "start_offset": 123.89,
            "end_offset": 127.475
        },
        "ignore_audio": false,
        "audio_path": null
    },
    {
        "segment_id": "965269ac984011ef97fe836af37d64d0",
        "text": "陈金莲和马蓉在广场旁边的奶茶店里",
        "audio_url": "https://v9-vvecloud.yangyi08.com/1f233c6bd4c52128709daffa6fb5aee0/6724c2ff/video/tos/cn/tos-cn-v-2cd6b0/oYEAkn7iSBLA3gRl0pECAFEATtDZJJA1efatON/?a=7073&ch=0&cr=0&dr=0&&br=0&bt=0&ft=xztlUQhhe6BMyq3pUupJD12Nzj&mime_type=audio_mpeg&rc=QGlAYSNz&btag=c0000000008000&dy_q=1730458863&l=2024110119004777B30CE79AF395A2F311&format=mp3",
        "source_timerange": {
            "start_offset": 3.5849999999999937,
            "end_offset": 6.589000000000027
        },
        "target_timerange": {
            "start_offset": 127.475,
            "end_offset": 130.479
        },
        "ignore_audio": true,
        "audio_path": null
    },
    {
        "segment_id": "96526cf4984011ef97fe836af37d64d0",
        "text": "听到路过的人说这里有富二代体验生活卖东西",
        "audio_url": "https://v6-vvecloud.yangyi08.com/ce445e7e6c0db63c702f38bec815b98e/6724c2fe/video/tos/cn/tos-cn-v-2cd6b0/oU1EQvkEJaAtgrzxCil2RViAkB3Of1BqIAApAm/?a=7073&ch=0&cr=0&dr=0&&br=0&bt=0&ft=xztlUQhhe6BMyq6pUupJD12Nzj&mime_type=audio_mpeg&rc=QGlAYSNz&btag=c0000000008000&dy_q=1730458862&l=2024110119004777B30CE79AF395A2F311&format=mp3",
        "source_timerange": {
            "start_offset": 0,
            "end_offset": 4.0309999999999775
        },
        "target_timerange": {
            "start_offset": 130.479,
            "end_offset": 134.51
        },
        "ignore_audio": false,
        "audio_path": null
    },
    {
        "segment_id": "96527014984011ef97fe836af37d64d0",
        "text": "她们远远地看了一眼",
        "audio_url": "https://v9-vvecloud.yangyi08.com/0fdb03c6637fc8ef362b9534f015797d/6724c2ff/video/tos/cn/tos-cn-v-2cd6b0/oQBAideJBamRQfBInikAAzIeolgeIe23pelAehi/?a=7073&ch=0&cr=0&dr=0&&br=0&bt=0&ft=xztlUQhhe6BMyq3pUupJD12Nzj&mime_type=audio_mpeg&rc=QGlAYSNz&btag=c0000000008000&dy_q=1730458863&l=2024110119004777B30CE79AF395A2F311&format=mp3",
        "source_timerange": {
            "start_offset": 0,
            "end_offset": 1.9800000000000182
        },
        "target_timerange": {
            "start_offset": 134.51,
            "end_offset": 136.49
        },
        "ignore_audio": false,
        "audio_path": null
    },
    {
        "segment_id": "965272f8984011ef97fe836af37d64d0",
        "text": "却看到让我熟悉的布加迪威龙与劳斯莱斯幻影",
        "audio_url": "https://v26-vvecloud.yangyi08.com/6dc5b7aa4de285da6242cf8f7c7854a9/6724c2fe/video/tos/cn/tos-cn-v-2cd6b0/ooiISaEk3AZ3ApB3AQfmiBBmApEnOA32glkztR/?a=7073&ch=0&cr=0&dr=0&&br=0&bt=0&ft=xztlUQhhe6BMyq6pUupJD12Nzj&mime_type=audio_mpeg&rc=QGlAYSNz&btag=c0000000008000&dy_q=1730458862&l=2024110119004777B30CE79AF395A2F311&format=mp3",
        "source_timerange": {
            "start_offset": 0,
            "end_offset": 3.819999999999993
        },
        "target_timerange": {
            "start_offset": 136.49,
            "end_offset": 140.31
        },
        "ignore_audio": false,
        "audio_path": null
    },
    {
        "segment_id": "965275e6984011ef97fe836af37d64d0",
        "text": "心中顿时涌起了企图结识的渴望",
        "audio_url": "https://v6-vvecloud.yangyi08.com/344136fd0be986b8031adcef9ff972a3/6724c2fe/video/tos/cn/tos-cn-v-2cd6b0/o8FTdAinJCfhAztAExJLBRaBNsJfIEvAiEcgID/?a=7073&ch=0&cr=0&dr=0&&br=0&bt=0&ft=xztlUQhhe6BMyq6pUupJD12Nzj&mime_type=audio_mpeg&rc=QGlAYSNz&btag=c0000000008000&dy_q=1730458862&l=2024110119004777B30CE79AF395A2F311&format=mp3",
        "source_timerange": {
            "start_offset": 0,
            "end_offset": 3.3100000000000023
        },
        "target_timerange": {
            "start_offset": 140.31,
            "end_offset": 143.62
        },
        "ignore_audio": false,
        "audio_path": null
    },
    {
        "segment_id": "965278fc984011ef97fe836af37d64d0",
        "text": "蓉蓉 我觉得咱们的缘分要到了！",
        "audio_url": "https://v6-vvecloud.yangyi08.com/f711e296b2168692adc475b3284e67ab/6724c2ff/video/tos/cn/tos-cn-v-2cd6b0/osAnEaexbGFOt0A1AWLdBjOAAEMAICRSEfetkI/?a=7073&ch=0&cr=0&dr=0&&br=0&bt=0&ft=xztlUQhhe6BMyq3pUupJD12Nzj&mime_type=audio_mpeg&rc=QGlAYSNz&btag=c0000000008000&dy_q=1730458863&l=2024110119004777B30CE79AF395A2F311&format=mp3",
        "source_timerange": {
            "start_offset": 0,
            "end_offset": 3.280000000000001
        },
        "target_timerange": {
            "start_offset": 143.62,
            "end_offset": 146.9
        },
        "ignore_audio": false,
        "audio_path": null
    },
    {
        "segment_id": "96527bea984011ef97fe836af37d64d0",
        "text": "最开始是在群里看到他的照片",
        "audio_url": "https://v6-vvecloud.yangyi08.com/fc5cff487352cdab223d0849bf4ea0ec/6724c2ff/video/tos/cn/tos-cn-v-2cd6b0/oABkAmA2EAokTEi1OfItR03gLpynlQYvApBAiz/?a=7073&ch=0&cr=0&dr=0&&br=0&bt=0&ft=xztlUQhhe6BMyq3pUupJD12Nzj&mime_type=audio_mpeg&rc=QGlAYSNz&btag=c0000000008000&dy_q=1730458863&l=2024110119004777B30CE79AF395A2F311&format=mp3",
        "source_timerange": {
            "start_offset": 0,
            "end_offset": 3.0999999999999943
        },
        "target_timerange": {
            "start_offset": 146.9,
            "end_offset": 150
        },
        "ignore_audio": false,
        "audio_path": null
    },
    {
        "segment_id": "96527f00984011ef97fe836af37d64d0",
        "text": "这次又是离得那么近",
        "audio_url": "https://v3-vvecloud.yangyi08.com/7189a5d112ae33a57349afe0c47cd057/6724c2ff/video/tos/cn/tos-cn-v-2cd6b0/oowtTlAEIEuAuJAALaniJDdBJIfhNRAfgCxFBR/?a=7073&ch=0&cr=0&dr=0&&br=0&bt=0&ft=xztlUQhhe6BMyq3pUupJD12Nzj&mime_type=audio_mpeg&rc=QGlAYSNz&btag=c0000000008000&dy_q=1730458863&l=2024110119004777B30CE79AF395A2F311&format=mp3",
        "source_timerange": {
            "start_offset": 0,
            "end_offset": 2.1200000000000045
        },
        "target_timerange": {
            "start_offset": 150,
            "end_offset": 152.12
        },
        "ignore_audio": false,
        "audio_path": null
    },
    {
        "segment_id": "96528202984011ef97fe836af37d64d0",
        "text": "下次会不会就停在我们的面前…",
        "audio_url": "https://v6-vvecloud.yangyi08.com/4f9836d56bb31a015c1da776769f9490/6724c2ff/video/tos/cn/tos-cn-v-2cd6b0/oQAiHtAOE64RmMkAVk2BfgRIp2BiAAlQARAzEA/?a=7073&ch=0&cr=0&dr=0&&br=0&bt=0&ft=xztlUQhhe6BMyq3pUupJD12Nzj&mime_type=audio_mpeg&rc=QGlAYSNz&btag=c0000000008000&dy_q=1730458863&l=2024110119004777B30CE79AF395A2F311&format=mp3",
        "source_timerange": {
            "start_offset": 0,
            "end_offset": 2.5349999999999966
        },
        "target_timerange": {
            "start_offset": 152.12,
            "end_offset": 154.655
        },
        "ignore_audio": false,
        "audio_path": null
    },
    {
        "segment_id": "965285f4984011ef97fe836af37d64d0",
        "text": "陈金莲眺望着马路 内心有些开心 嗯嗯！",
        "audio_url": "https://v6-vvecloud.yangyi08.com/4f9836d56bb31a015c1da776769f9490/6724c2ff/video/tos/cn/tos-cn-v-2cd6b0/oQAiHtAOE64RmMkAVk2BfgRIp2BiAAlQARAzEA/?a=7073&ch=0&cr=0&dr=0&&br=0&bt=0&ft=xztlUQhhe6BMyq3pUupJD12Nzj&mime_type=audio_mpeg&rc=QGlAYSNz&btag=c0000000008000&dy_q=1730458863&l=2024110119004777B30CE79AF395A2F311&format=mp3",
        "source_timerange": {
            "start_offset": 2.5349999999999966,
            "end_offset": 6.519999999999982
        },
        "target_timerange": {
            "start_offset": 154.655,
            "end_offset": 158.64
        },
        "ignore_audio": true,
        "audio_path": null
    },
    {
        "segment_id": "965288f6984011ef97fe836af37d64d0",
        "text": "莲莲你的机会很大",
        "audio_url": "https://v6-vvecloud.yangyi08.com/49803e4a7a43a4a92136f840c5c9669f/6724c2ff/video/tos/cn/tos-cn-v-2cd6b0/ooLnOAJOSFdeB7bAIiWWAjtCa0keEleAEkmAEG/?a=7073&ch=0&cr=0&dr=0&&br=0&bt=0&ft=xztlUQhhe6BMyq3pUupJD12Nzj&mime_type=audio_mpeg&rc=QGlAYSNz&btag=c0000000008000&dy_q=1730458863&l=2024110119004777B30CE79AF395A2F311&format=mp3",
        "source_timerange": {
            "start_offset": 0,
            "end_offset": 2.230000000000018
        },
        "target_timerange": {
            "start_offset": 158.64,
            "end_offset": 160.87
        },
        "ignore_audio": false,
        "audio_path": null
    },
    {
        "segment_id": "96528c34984011ef97fe836af37d64d0",
        "text": "你可是咱们学校这一届里的大校花",
        "audio_url": "https://v3-vvecloud.yangyi08.com/7ec1a6cb68e8b058319376422823325a/6724c2ff/video/tos/cn/tos-cn-v-2cd6b0/oQpkBf72Ri4mEOtmrAzQiA5kEYIlBAuzAg0Amn/?a=7073&ch=0&cr=0&dr=0&&br=0&bt=0&ft=xztlUQhhe6BMyq3pUupJD12Nzj&mime_type=audio_mpeg&rc=QGlAYSNz&btag=c0000000008000&dy_q=1730458863&l=2024110119004777B30CE79AF395A2F311&format=mp3",
        "source_timerange": {
            "start_offset": 0,
            "end_offset": 2.9499999999999886
        },
        "target_timerange": {
            "start_offset": 160.87,
            "end_offset": 163.82
        },
        "ignore_audio": false,
        "audio_path": null
    },
    {
        "segment_id": "96529008984011ef97fe836af37d64d0",
        "text": "又有才 他只要眼睛不瞎 一定会看到你的好",
        "audio_url": "https://v3-vvecloud.yangyi08.com/b48e5921e966870ba506fa55f11dc573/6724c2ff/video/tos/cn/tos-cn-v-2cd6b0/okNhJkqRzIEviaJAEnLg6TDxFtfACBdABIeJAw/?a=7073&ch=0&cr=0&dr=0&&br=0&bt=0&ft=xztlUQhhe6BMyq3pUupJD12Nzj&mime_type=audio_mpeg&rc=QGlAYSNz&btag=c0000000008000&dy_q=1730458863&l=2024110119004777B30CE79AF395A2F311&format=mp3",
        "source_timerange": {
            "start_offset": 0,
            "end_offset": 4.390000000000015
        },
        "target_timerange": {
            "start_offset": 163.82,
            "end_offset": 168.21
        },
        "ignore_audio": false,
        "audio_path": null
    },
    {
        "segment_id": "9652936e984011ef97fe836af37d64d0",
        "text": "一定会选你的~马蓉也开心地回应着",
        "audio_url": "https://v9-vvecloud.yangyi08.com/15f98fa34b2e0c06081f657eb36e8949/6724c2ff/video/tos/cn/tos-cn-v-2cd6b0/oUA9AfEVDAAnFAfitkEtLMEOJBNEBUrgn2RrTC/?a=7073&ch=0&cr=0&dr=0&&br=0&bt=0&ft=xztlUQhhe6BMyq3pUupJD12Nzj&mime_type=audio_mpeg&rc=QGlAYSNz&btag=c0000000008000&dy_q=1730458863&l=2024110119004777B30CE79AF395A2F311&format=mp3",
        "source_timerange": {
            "start_offset": 0,
            "end_offset": 3.1299999999999955
        },
        "target_timerange": {
            "start_offset": 168.21,
            "end_offset": 171.34
        },
        "ignore_audio": false,
        "audio_path": null
    },
    {
        "segment_id": "9652965c984011ef97fe836af37d64d0",
        "text": "“金莲同学 你们也在这啊！”",
        "audio_url": "https://v6-vvecloud.yangyi08.com/da4dbb0ee0862833461bdb9f07fb1281/6724c2ff/video/tos/cn/tos-cn-v-2cd6b0/oIzkA0BtEAlbA3YRE2AkngBtAIiO3mf4BQFBpi/?a=7073&ch=0&cr=0&dr=0&&br=0&bt=0&ft=xztlUQhhe6BMyq3pUupJD12Nzj&mime_type=audio_mpeg&rc=QGlAYSNz&btag=c0000000008000&dy_q=1730458863&l=2024110119004777B30CE79AF395A2F311&format=mp3",
        "source_timerange": {
            "start_offset": 0,
            "end_offset": 2.655000000000001
        },
        "target_timerange": {
            "start_offset": 171.34,
            "end_offset": 173.995
        },
        "ignore_audio": false,
        "audio_path": null
    },
    {
        "segment_id": "9652994a984011ef97fe836af37d64d0",
        "text": "这时 一位穿着华丽的男生出现在两人面前",
        "audio_url": "https://v6-vvecloud.yangyi08.com/da4dbb0ee0862833461bdb9f07fb1281/6724c2ff/video/tos/cn/tos-cn-v-2cd6b0/oIzkA0BtEAlbA3YRE2AkngBtAIiO3mf4BQFBpi/?a=7073&ch=0&cr=0&dr=0&&br=0&bt=0&ft=xztlUQhhe6BMyq3pUupJD12Nzj&mime_type=audio_mpeg&rc=QGlAYSNz&btag=c0000000008000&dy_q=1730458863&l=2024110119004777B30CE79AF395A2F311&format=mp3",
        "source_timerange": {
            "start_offset": 2.655000000000001,
            "end_offset": 6.659999999999997
        },
        "target_timerange": {
            "start_offset": 173.995,
            "end_offset": 178
        },
        "ignore_audio": true,
        "audio_path": null
    },
    {
        "segment_id": "96529c4c984011ef97fe836af37d64d0",
        "text": "从容自信地笑道 阮俊的出现让她们心中一震",
        "audio_url": "https://v6-vvecloud.yangyi08.com/814850501e772bd3ced88f5af919f928/6724c2ff/video/tos/cn/tos-cn-v-2cd6b0/o8tIzkiACAij1kmORFp2tgQEBfBkigAH0AAzlE/?a=7073&ch=0&cr=0&dr=0&&br=0&bt=0&ft=xztlUQhhe6BMyq3pUupJD12Nzj&mime_type=audio_mpeg&rc=QGlAYSNz&btag=c0000000008000&dy_q=1730458863&l=2024110119004777B30CE79AF395A2F311&format=mp3",
        "source_timerange": {
            "start_offset": 0,
            "end_offset": 4.460000000000008
        },
        "target_timerange": {
            "start_offset": 178,
            "end_offset": 182.46
        },
        "ignore_audio": false,
        "audio_path": null
    },
    {
        "segment_id": "96529f44984011ef97fe836af37d64d0",
        "text": "“阮学长 你怎么也在这里？”马蓉惊讶地问",
        "audio_url": "https://v9-vvecloud.yangyi08.com/06c3d79f6170893202cb90cca2080480/6724c2ff/video/tos/cn/tos-cn-v-2cd6b0/o0WEeSAAFLDzFCaAjOzbjWAAnIEceBfGEktO29/?a=7073&ch=0&cr=0&dr=0&&br=0&bt=0&ft=xztlUQhhe6BMyq3pUupJD12Nzj&mime_type=audio_mpeg&rc=QGlAYSNz&btag=c0000000008000&dy_q=1730458863&l=2024110119004777B30CE79AF395A2F311&format=mp3",
        "source_timerange": {
            "start_offset": 0,
            "end_offset": 4.179999999999978
        },
        "target_timerange": {
            "start_offset": 182.46,
            "end_offset": 186.64
        },
        "ignore_audio": false,
        "audio_path": null
    },
    {
        "segment_id": "9652a28c984011ef97fe836af37d64d0",
        "text": "阮俊挺了挺胸膛 满眼温柔地看着陈金莲",
        "audio_url": "https://v26-vvecloud.yangyi08.com/02f184c967ccb9c41c4a7c404e2792f9/6724c2ff/video/tos/cn/tos-cn-v-2cd6b0/ocyTeANDnBa9ivlFEAALWCIJiApJfJtgURIdBt/?a=7073&ch=0&cr=0&dr=0&&br=0&bt=0&ft=xztlUQhhe6BMyq3pUupJD12Nzj&mime_type=audio_mpeg&rc=QGlAYSNz&btag=c0000000008000&dy_q=1730458863&l=2024110119004777B30CE79AF395A2F311&format=mp3",
        "source_timerange": {
            "start_offset": 0,
            "end_offset": 4.180000000000007
        },
        "target_timerange": {
            "start_offset": 186.64,
            "end_offset": 190.82
        },
        "ignore_audio": false,
        "audio_path": null
    },
    {
        "segment_id": "9652a61a984011ef97fe836af37d64d0",
        "text": "语气轻松地说道：",
        "audio_url": "https://v26-vvecloud.yangyi08.com/e15bcf0dd43cd3faf61eb35b11f80dab/6724c2ff/video/tos/cn/tos-cn-v-2cd6b0/ocKpEmyD2BBOtmA3Ali9gIzAARKQuAnkEdf8ki/?a=7073&ch=0&cr=0&dr=0&&br=0&bt=0&ft=xztlUQhhe6BMyq3pUupJD12Nzj&mime_type=audio_mpeg&rc=QGlAYSNz&btag=c0000000008000&dy_q=1730458863&l=2024110119004777B30CE79AF395A2F311&format=mp3",
        "source_timerange": {
            "start_offset": 0,
            "end_offset": 2.0200000000000102
        },
        "target_timerange": {
            "start_offset": 190.82,
            "end_offset": 192.84
        },
        "ignore_audio": false,
        "audio_path": null
    },
    {
        "segment_id": "9652a9e4984011ef97fe836af37d64d0",
        "text": "我爸的公司在美食街道里有一个分部",
        "audio_url": "https://v6-vvecloud.yangyi08.com/a08a34e142ef3c2b7d1a51cd600bd324/6724c2ff/video/tos/cn/tos-cn-v-2cd6b0/oYAEAQ6AjneEOFt8kAESAWOBA6VMECWdaf4Bmf/?a=7073&ch=0&cr=0&dr=0&&br=0&bt=0&ft=xztlUQhhe6BMyq3pUupJD12Nzj&mime_type=audio_mpeg&rc=QGlAYSNz&btag=c0000000008000&dy_q=1730458863&l=2024110119004777B30CE79AF395A2F311&format=mp3",
        "source_timerange": {
            "start_offset": 0,
            "end_offset": 3.1699999999999875
        },
        "target_timerange": {
            "start_offset": 192.84,
            "end_offset": 196.01
        },
        "ignore_audio": false,
        "audio_path": null
    },
    {
        "segment_id": "9652ae9e984011ef97fe836af37d64d0",
        "text": "让我来送点东西",
        "audio_url": "https://v9-vvecloud.yangyi08.com/d38ed0112d090d066d61321b62872c23/6724c2ff/video/tos/cn/tos-cn-v-2cd6b0/oo4vqE7QTEIvAATA1yA0OAniByySZotOi9Gkk/?a=7073&ch=0&cr=0&dr=0&&br=0&bt=0&ft=xztlUQhhe6BMyq3pUupJD12Nzj&mime_type=audio_mpeg&rc=QGlAYSNz&btag=c0000000008000&dy_q=1730458863&l=2024110119004777B30CE79AF395A2F311&format=mp3",
        "source_timerange": {
            "start_offset": 0,
            "end_offset": 1.4150000000000205
        },
        "target_timerange": {
            "start_offset": 196.01,
            "end_offset": 197.425
        },
        "ignore_audio": false,
        "audio_path": null
    },
    {
        "segment_id": "9652b22c984011ef97fe836af37d64d0",
        "text": "他的身份无疑是她们心中的一颗星 光芒万丈",
        "audio_url": "https://v9-vvecloud.yangyi08.com/d38ed0112d090d066d61321b62872c23/6724c2ff/video/tos/cn/tos-cn-v-2cd6b0/oo4vqE7QTEIvAATA1yA0OAniByySZotOi9Gkk/?a=7073&ch=0&cr=0&dr=0&&br=0&bt=0&ft=xztlUQhhe6BMyq3pUupJD12Nzj&mime_type=audio_mpeg&rc=QGlAYSNz&btag=c0000000008000&dy_q=1730458863&l=2024110119004777B30CE79AF395A2F311&format=mp3",
        "source_timerange": {
            "start_offset": 1.4150000000000205,
            "end_offset": 5
        },
        "target_timerange": {
            "start_offset": 197.425,
            "end_offset": 201.01
        },
        "ignore_audio": true,
        "audio_path": null
    },
    {
        "segment_id": "9652b560984011ef97fe836af37d64d0",
        "text": "无数的女学生为阮俊倾倒",
        "audio_url": "https://v3-vvecloud.yangyi08.com/12a8858ba98901ef8064f3c05765bdc5/6724c2ff/video/tos/cn/tos-cn-v-2cd6b0/ocTBIAZkANXpO70NQAioyyp0EzAAtSnEkvio7/?a=7073&ch=0&cr=0&dr=0&&br=0&bt=0&ft=xztlUQhhe6BMyq3pUupJD12Nzj&mime_type=audio_mpeg&rc=QGlAYSNz&btag=c0000000008000&dy_q=1730458863&l=2024110119004777B30CE79AF395A2F311&format=mp3",
        "source_timerange": {
            "start_offset": 0,
            "end_offset": 2.740000000000009
        },
        "target_timerange": {
            "start_offset": 201.01,
            "end_offset": 203.75
        },
        "ignore_audio": false,
        "audio_path": null
    },
    {
        "segment_id": "9652b830984011ef97fe836af37d64d0",
        "text": "而此时的陈金莲却显得格外冷淡",
        "audio_url": "https://v3-vvecloud.yangyi08.com/95b5a7e85d051702be324660fa5cba79/6724c2ff/video/tos/cn/tos-cn-v-2cd6b0/oYOiZfLkfg7RDEAEA70ECuBNtAJFEPRanjTzAA/?a=7073&ch=0&cr=0&dr=0&&br=0&bt=0&ft=xztlUQhhe6BMyq3pUupJD12Nzj&mime_type=audio_mpeg&rc=QGlAYSNz&btag=c0000000008000&dy_q=1730458863&l=2024110119004777B30CE79AF395A2F311&format=mp3",
        "source_timerange": {
            "start_offset": 0,
            "end_offset": 3.1699999999999875
        },
        "target_timerange": {
            "start_offset": 203.75,
            "end_offset": 206.92
        },
        "ignore_audio": false,
        "audio_path": null
    },
    {
        "segment_id": "9652bad8984011ef97fe836af37d64d0",
        "text": "神情淡然 似乎在刻意保持一种高贵的距离",
        "audio_url": "https://v26-vvecloud.yangyi08.com/9c80195e6cdf026a5526a1a171e0c6c1/6724c2ff/video/tos/cn/tos-cn-v-2cd6b0/ocBjGIAuI7OAlYEdICJAeaLAASMQaBeW0eFxnd/?a=7073&ch=0&cr=0&dr=0&&br=0&bt=0&ft=xztlUQhhe6BMyq3pUupJD12Nzj&mime_type=audio_mpeg&rc=QGlAYSNz&btag=c0000000008000&dy_q=1730458863&l=2024110119004777B30CE79AF395A2F311&format=mp3",
        "source_timerange": {
            "start_offset": 0,
            "end_offset": 4.140000000000015
        },
        "target_timerange": {
            "start_offset": 206.92,
            "end_offset": 211.06
        },
        "ignore_audio": false,
        "audio_path": null
    },
    {
        "segment_id": "9652bdbc984011ef97fe836af37d64d0",
        "text": "阮俊见状 顺势问道：",
        "audio_url": "https://v26-vvecloud.yangyi08.com/89c287e3475fcab67fa6aefb881403e4/6724c2ff/video/tos/cn/tos-cn-v-2cd6b0/owOyknmh0BDQ4AAyuJAkvoEAioyiZEt7TISAS/?a=7073&ch=0&cr=0&dr=0&&br=0&bt=0&ft=xztlUQhhe6BMyq3pUupJD12Nzj&mime_type=audio_mpeg&rc=QGlAYSNz&btag=c0000000008000&dy_q=1730458863&l=2024110119004777B30CE79AF395A2F311&format=mp3",
        "source_timerange": {
            "start_offset": 0,
            "end_offset": 2.9199999999999875
        },
        "target_timerange": {
            "start_offset": 211.06,
            "end_offset": 213.98
        },
        "ignore_audio": false,
        "audio_path": null
    },
    {
        "segment_id": "9652c0be984011ef97fe836af37d64d0",
        "text": "“我听说昨天晚上你拒绝了那个史金的表白？”",
        "audio_url": "https://v6-vvecloud.yangyi08.com/4a2c27237b80bf8c1776dcd33a9220b0/6724c2ff/video/tos/cn/tos-cn-v-2cd6b0/oUQL0DykyVAABETcO5voZtAGkiIAkiAECTS7x/?a=7073&ch=0&cr=0&dr=0&&br=0&bt=0&ft=xztlUQhhe6BMyq3pUupJD12Nzj&mime_type=audio_mpeg&rc=QGlAYSNz&btag=c0000000008000&dy_q=1730458863&l=2024110119004777B30CE79AF395A2F311&format=mp3",
        "source_timerange": {
            "start_offset": 0,
            "end_offset": 3.2450000000000045
        },
        "target_timerange": {
            "start_offset": 213.98,
            "end_offset": 217.225
        },
        "ignore_audio": false,
        "audio_path": null
    },
    {
        "segment_id": "9652c3de984011ef97fe836af37d64d0",
        "text": "我在这个时候 未曾想到自己成了话题的中心",
        "audio_url": "https://v6-vvecloud.yangyi08.com/4a2c27237b80bf8c1776dcd33a9220b0/6724c2ff/video/tos/cn/tos-cn-v-2cd6b0/oUQL0DykyVAABETcO5voZtAGkiIAkiAECTS7x/?a=7073&ch=0&cr=0&dr=0&&br=0&bt=0&ft=xztlUQhhe6BMyq3pUupJD12Nzj&mime_type=audio_mpeg&rc=QGlAYSNz&btag=c0000000008000&dy_q=1730458863&l=2024110119004777B30CE79AF395A2F311&format=mp3",
        "source_timerange": {
            "start_offset": 3.2450000000000045,
            "end_offset": 7.02000000000001
        },
        "target_timerange": {
            "start_offset": 217.225,
            "end_offset": 221
        },
        "ignore_audio": true,
        "audio_path": null
    },
    {
        "segment_id": "9652c73a984011ef97fe836af37d64d0",
        "text": "史金虽然对我很好 但我真的不喜欢他",
        "audio_url": "https://v3-vvecloud.yangyi08.com/aa454d2ec2dbfb9632f9a72b48e84fee/6724c2ff/video/tos/cn/tos-cn-v-2cd6b0/oQOLJDJ4ECNuxTAifAtEFATA7EARgAF7nkBYNf/?a=7073&ch=0&cr=0&dr=0&&br=0&bt=0&ft=xztlUQhhe6BMyq3pUupJD12Nzj&mime_type=audio_mpeg&rc=QGlAYSNz&btag=c0000000008000&dy_q=1730458863&l=2024110119004777B30CE79AF395A2F311&format=mp3",
        "source_timerange": {
            "start_offset": 0,
            "end_offset": 3.530000000000001
        },
        "target_timerange": {
            "start_offset": 221,
            "end_offset": 224.53
        },
        "ignore_audio": false,
        "audio_path": null
    },
    {
        "segment_id": "9652ca82984011ef97fe836af37d64d0",
        "text": "况且我们现在都还是学生 一切要以学业为重",
        "audio_url": "https://v6-vvecloud.yangyi08.com/40e826520b5c370932657982806c07c9/6724c2ff/video/tos/cn/tos-cn-v-2cd6b0/oIzdJCveLNA1ZEInBJFfABgn6aRATmIWRADuiu/?a=7073&ch=0&cr=0&dr=0&&br=0&bt=0&ft=xztlUQhhe6BMyq3pUupJD12Nzj&mime_type=audio_mpeg&rc=QGlAYSNz&btag=c0000000008000&dy_q=1730458863&l=2024110119004777B30CE79AF395A2F311&format=mp3",
        "source_timerange": {
            "start_offset": 0,
            "end_offset": 3.6450000000000102
        },
        "target_timerange": {
            "start_offset": 224.53,
            "end_offset": 228.175
        },
        "ignore_audio": false,
        "audio_path": null
    },
    {
        "segment_id": "9652cdde984011ef97fe836af37d64d0",
        "text": "陈金莲冷漠地回应 似乎不愿过多纠缠",
        "audio_url": "https://v6-vvecloud.yangyi08.com/40e826520b5c370932657982806c07c9/6724c2ff/video/tos/cn/tos-cn-v-2cd6b0/oIzdJCveLNA1ZEInBJFfABgn6aRATmIWRADuiu/?a=7073&ch=0&cr=0&dr=0&&br=0&bt=0&ft=xztlUQhhe6BMyq3pUupJD12Nzj&mime_type=audio_mpeg&rc=QGlAYSNz&btag=c0000000008000&dy_q=1730458863&l=2024110119004777B30CE79AF395A2F311&format=mp3",
        "source_timerange": {
            "start_offset": 3.6450000000000102,
            "end_offset": 6.949999999999989
        },
        "target_timerange": {
            "start_offset": 228.175,
            "end_offset": 231.48
        },
        "ignore_audio": true,
        "audio_path": null
    },
    {
        "segment_id": "9652d0ea984011ef97fe836af37d64d0",
        "text": "马蓉在一旁笑道：",
        "audio_url": "https://v6-vvecloud.yangyi08.com/3902885d58e6a8b0af18741f69efe497/6724c2ff/video/tos/cn/tos-cn-v-2cd6b0/okOIt1Z9Akj4AiivT0ZAy44B2QW7kkEKAEoAS/?a=7073&ch=0&cr=0&dr=0&&br=0&bt=0&ft=xztlUQhhe6BMyq3pUupJD12Nzj&mime_type=audio_mpeg&rc=QGlAYSNz&btag=c0000000008000&dy_q=1730458863&l=2024110119004777B30CE79AF395A2F311&format=mp3",
        "source_timerange": {
            "start_offset": 0,
            "end_offset": 2.0900000000000034
        },
        "target_timerange": {
            "start_offset": 231.48,
            "end_offset": 233.57
        },
        "ignore_audio": false,
        "audio_path": null
    },
    {
        "segment_id": "9652d5d6984011ef97fe836af37d64d0",
        "text": "当然啦 如果我们莲莲能遇到自己喜欢的",
        "audio_url": "https://v9-vvecloud.yangyi08.com/2ba95a9e1d7771ded175c2fcc66abdfa/6724c2ff/video/tos/cn/tos-cn-v-2cd6b0/ogBATdD1FABuJaJCARToCB5i2v8IINAfgnL2fE/?a=7073&ch=0&cr=0&dr=0&&br=0&bt=0&ft=xztlUQhhe6BMyq3pUupJD12Nzj&mime_type=audio_mpeg&rc=QGlAYSNz&btag=c0000000008000&dy_q=1730458863&l=2024110119004777B30CE79AF395A2F311&format=mp3",
        "source_timerange": {
            "start_offset": 0,
            "end_offset": 3.740000000000009
        },
        "target_timerange": {
            "start_offset": 233.57,
            "end_offset": 237.31
        },
        "ignore_audio": false,
        "audio_path": null
    },
    {
        "segment_id": "9652d888984011ef97fe836af37d64d0",
        "text": "也会在校园里谈情说爱的",
        "audio_url": "https://v3-vvecloud.yangyi08.com/78a7cfc14973d8fb1854482a36f0a12e/6724c2ff/video/tos/cn/tos-cn-v-2cd6b0/oIefQIajAEtW4CMfBAAWUS7XQ809OdQC4AnESF/?a=7073&ch=0&cr=0&dr=0&&br=0&bt=0&ft=xztlUQhhe6BMyq3pUupJD12Nzj&mime_type=audio_mpeg&rc=QGlAYSNz&btag=c0000000008000&dy_q=1730458863&l=2024110119004777B30CE79AF395A2F311&format=mp3",
        "source_timerange": {
            "start_offset": 0,
            "end_offset": 2.6599999999999966
        },
        "target_timerange": {
            "start_offset": 237.31,
            "end_offset": 239.97
        },
        "ignore_audio": false,
        "audio_path": null
    },
    {
        "segment_id": "9652db58984011ef97fe836af37d64d0",
        "text": "毕竟 大学里最美好的回忆就是感情嘛！",
        "audio_url": "https://v3-vvecloud.yangyi08.com/7b64a1baef5c3f56cd101a2c554b7b85/6724c2ff/video/tos/cn/tos-cn-v-2cd6b0/ookAd7ASiQ0ASR3yBI7DZYtiEAOoOcnNvTEAk/?a=7073&ch=0&cr=0&dr=0&&br=0&bt=0&ft=xztlUQhhe6BMyq3pUupJD12Nzj&mime_type=audio_mpeg&rc=QGlAYSNz&btag=c0000000008000&dy_q=1730458863&l=2024110119004777B30CE79AF395A2F311&format=mp3",
        "source_timerange": {
            "start_offset": 0,
            "end_offset": 3.694999999999993
        },
        "target_timerange": {
            "start_offset": 239.97,
            "end_offset": 243.665
        },
        "ignore_audio": false,
        "audio_path": null
    },
    {
        "segment_id": "9652de28984011ef97fe836af37d64d0",
        "text": "她的话音中满是鼓励与向往",
        "audio_url": "https://v3-vvecloud.yangyi08.com/7b64a1baef5c3f56cd101a2c554b7b85/6724c2ff/video/tos/cn/tos-cn-v-2cd6b0/ookAd7ASiQ0ASR3yBI7DZYtiEAOoOcnNvTEAk/?a=7073&ch=0&cr=0&dr=0&&br=0&bt=0&ft=xztlUQhhe6BMyq3pUupJD12Nzj&mime_type=audio_mpeg&rc=QGlAYSNz&btag=c0000000008000&dy_q=1730458863&l=2024110119004777B30CE79AF395A2F311&format=mp3",
        "source_timerange": {
            "start_offset": 3.694999999999993,
            "end_offset": 6.050000000000011
        },
        "target_timerange": {
            "start_offset": 243.665,
            "end_offset": 246.02
        },
        "ignore_audio": true,
        "audio_path": null
    },
    {
        "segment_id": "9652e13e984011ef97fe836af37d64d0",
        "text": "“是吗？”阮俊听后开心地笑了",
        "audio_url": "https://v6-vvecloud.yangyi08.com/210c7177f55c2c68118189f8c93f21aa/6724c2ff/video/tos/cn/tos-cn-v-2cd6b0/oAZkvAAMOEIyBBTC4Bij0iAAEktao7ZQSszNA/?a=7073&ch=0&cr=0&dr=0&&br=0&bt=0&ft=xztlUQhhe6BMyq3pUupJD12Nzj&mime_type=audio_mpeg&rc=QGlAYSNz&btag=c0000000008000&dy_q=1730458863&l=2024110119004777B30CE79AF395A2F311&format=mp3",
        "source_timerange": {
            "start_offset": 0,
            "end_offset": 3.3499999999999943
        },
        "target_timerange": {
            "start_offset": 246.02,
            "end_offset": 249.37
        },
        "ignore_audio": false,
        "audio_path": null
    },
    {
        "segment_id": "9652e436984011ef97fe836af37d64d0",
        "text": "继续道：学校下学期将组织大学生创业大赛",
        "audio_url": "https://v3-vvecloud.yangyi08.com/6626d7b2cd349a1fc483dedbb4f8a7da/6724c2ff/video/tos/cn/tos-cn-v-2cd6b0/o0CE6rIAkiZ7BCiF08oGAEOStQ7ATYvBAAkNy/?a=7073&ch=0&cr=0&dr=0&&br=0&bt=0&ft=xztlUQhhe6BMyq3pUupJD12Nzj&mime_type=audio_mpeg&rc=QGlAYSNz&btag=c0000000008000&dy_q=1730458863&l=2024110119004777B30CE79AF395A2F311&format=mp3",
        "source_timerange": {
            "start_offset": 0,
            "end_offset": 4.460000000000008
        },
        "target_timerange": {
            "start_offset": 249.37,
            "end_offset": 253.83
        },
        "ignore_audio": false,
        "audio_path": null
    },
    {
        "segment_id": "9652e79c984011ef97fe836af37d64d0",
        "text": "只要是在校大学生都可以组团参加",
        "audio_url": "https://v3-vvecloud.yangyi08.com/63f18294008bee391f20de92807b6c52/6724c2ff/video/tos/cn/tos-cn-v-2cd6b0/oQQ302ykroAABEQqO4voZtAOkiIAtiAE7TS72/?a=7073&ch=0&cr=0&dr=0&&br=0&bt=0&ft=xztlUQhhe6BMyq3pUupJD12Nzj&mime_type=audio_mpeg&rc=QGlAYSNz&btag=c0000000008000&dy_q=1730458863&l=2024110119004777B30CE79AF395A2F311&format=mp3",
        "source_timerange": {
            "start_offset": 0,
            "end_offset": 3.198999999999984
        },
        "target_timerange": {
            "start_offset": 253.83,
            "end_offset": 257.029
        },
        "ignore_audio": false,
        "audio_path": null
    },
    {
        "segment_id": "9652eb02984011ef97fe836af37d64d0",
        "text": "头奖除了五万的创业奖金外",
        "audio_url": "https://v26-vvecloud.yangyi08.com/b51c58c2c8ea7945f633a2fbfe632ab7/6724c2ff/video/tos/cn/tos-cn-v-2cd6b0/ooZuoXxSk071IyAEnAvQkt1Oli0A6iABA2TES/?a=7073&ch=0&cr=0&dr=0&&br=0&bt=0&ft=xztlUQhhe6BMyq3pUupJD12Nzj&mime_type=audio_mpeg&rc=QGlAYSNz&btag=c0000000008000&dy_q=1730458863&l=2024110119004777B30CE79AF395A2F311&format=mp3",
        "source_timerange": {
            "start_offset": 0,
            "end_offset": 2.740000000000009
        },
        "target_timerange": {
            "start_offset": 257.029,
            "end_offset": 259.769
        },
        "ignore_audio": false,
        "audio_path": null
    },
    {
        "segment_id": "9652f520984011ef97fe836af37d64d0",
        "text": "还会有学校合作的企业投资",
        "audio_url": "https://v3-vvecloud.yangyi08.com/64de441eebab020c6e49dc12e948639b/6724c2ff/video/tos/cn/tos-cn-v-2cd6b0/oYBEdandIAliNeJB9JwDfACRTuCFAALgAAbnIT/?a=7073&ch=0&cr=0&dr=0&&br=0&bt=0&ft=xztlUQhhe6BMyq3pUupJD12Nzj&mime_type=audio_mpeg&rc=QGlAYSNz&btag=c0000000008000&dy_q=1730458863&l=2024110119004777B30CE79AF395A2F311&format=mp3",
        "source_timerange": {
            "start_offset": 0,
            "end_offset": 2.1850000000000023
        },
        "target_timerange": {
            "start_offset": 259.769,
            "end_offset": 261.954
        },
        "ignore_audio": false,
        "audio_path": null
    },
    {
        "segment_id": "9652f822984011ef97fe836af37d64d0",
        "text": "此时 马蓉显得异常兴奋 几乎要立马答应",
        "audio_url": "https://v3-vvecloud.yangyi08.com/64de441eebab020c6e49dc12e948639b/6724c2ff/video/tos/cn/tos-cn-v-2cd6b0/oYBEdandIAliNeJB9JwDfACRTuCFAALgAAbnIT/?a=7073&ch=0&cr=0&dr=0&&br=0&bt=0&ft=xztlUQhhe6BMyq3pUupJD12Nzj&mime_type=audio_mpeg&rc=QGlAYSNz&btag=c0000000008000&dy_q=1730458863&l=2024110119004777B30CE79AF395A2F311&format=mp3",
        "source_timerange": {
            "start_offset": 2.1850000000000023,
            "end_offset": 5.9809999999999945
        },
        "target_timerange": {
            "start_offset": 261.954,
            "end_offset": 265.75
        },
        "ignore_audio": true,
        "audio_path": null
    },
    {
        "segment_id": "9652fc0a984011ef97fe836af37d64d0",
        "text": "却被陈金莲给制止了",
        "audio_url": "https://v26-vvecloud.yangyi08.com/f23a82b11f37031abd3a67d720b4d01a/6724c2ff/video/tos/cn/tos-cn-v-2cd6b0/oIAAk1EIIAgnufJfoaFNJwBWadTiiiCjDBLRA7/?a=7073&ch=0&cr=0&dr=0&&br=0&bt=0&ft=xztlUQhhe6BMyq3pUupJD12Nzj&mime_type=audio_mpeg&rc=QGlAYSNz&btag=c0000000008000&dy_q=1730458863&l=2024110119004777B30CE79AF395A2F311&format=mp3",
        "source_timerange": {
            "start_offset": 0,
            "end_offset": 2.410000000000025
        },
        "target_timerange": {
            "start_offset": 265.75,
            "end_offset": 268.16
        },
        "ignore_audio": false,
        "audio_path": null
    },
    {
        "segment_id": "9652ff3e984011ef97fe836af37d64d0",
        "text": "她轻咳一声 道：嗯 谢谢学长",
        "audio_url": "https://v9-vvecloud.yangyi08.com/0d839d2c9d506347289442eb21bc106a/6724c2ff/video/tos/cn/tos-cn-v-2cd6b0/osedAjOAWORiEAI4tfTLJEzGCxAeSEjknMaFAB/?a=7073&ch=0&cr=0&dr=0&&br=0&bt=0&ft=xztlUQhhe6BMyq3pUupJD12Nzj&mime_type=audio_mpeg&rc=QGlAYSNz&btag=c0000000008000&dy_q=1730458863&l=2024110119004777B30CE79AF395A2F311&format=mp3",
        "source_timerange": {
            "start_offset": 0,
            "end_offset": 4
        },
        "target_timerange": {
            "start_offset": 268.16,
            "end_offset": 272.16
        },
        "ignore_audio": false,
        "audio_path": null
    },
    {
        "segment_id": "965302b8984011ef97fe836af37d64d0",
        "text": "我觉得大学生就是要有创新有活力",
        "audio_url": "https://v9-vvecloud.yangyi08.com/7bf48e47c52b6fb8798366af6bd40965/6724c2ff/video/tos/cn/tos-cn-v-2cd6b0/ok5uoZOEvS1yiA7i1oBy0QI7lATAkAtxkJAHE/?a=7073&ch=0&cr=0&dr=0&&br=0&bt=0&ft=xztlUQhhe6BMyq3pUupJD12Nzj&mime_type=audio_mpeg&rc=QGlAYSNz&btag=c0000000008000&dy_q=1730458863&l=2024110119004777B30CE79AF395A2F311&format=mp3",
        "source_timerange": {
            "start_offset": 0,
            "end_offset": 3.349999999999966
        },
        "target_timerange": {
            "start_offset": 272.16,
            "end_offset": 275.51
        },
        "ignore_audio": false,
        "audio_path": null
    },
    {
        "segment_id": "96530600984011ef97fe836af37d64d0",
        "text": "我们虽然学了许多书本上的知识",
        "audio_url": "https://v3-vvecloud.yangyi08.com/135bcee1c300ef422256558bcdb533f2/6724c2ff/video/tos/cn/tos-cn-v-2cd6b0/o4aLnAI7TADngECvIeBiBgwJiNFdRJHEaArFfA/?a=7073&ch=0&cr=0&dr=0&&br=0&bt=0&ft=xztlUQhhe6BMyq3pUupJD12Nzj&mime_type=audio_mpeg&rc=QGlAYSNz&btag=c0000000008000&dy_q=1730458863&l=2024110119004777B30CE79AF395A2F311&format=mp3",
        "source_timerange": {
            "start_offset": 0,
            "end_offset": 2.6999999999999886
        },
        "target_timerange": {
            "start_offset": 275.51,
            "end_offset": 278.21
        },
        "ignore_audio": false,
        "audio_path": null
    },
    {
        "segment_id": "965308f8984011ef97fe836af37d64d0",
        "text": "但是缺乏实践 谢谢学长给我们这个机会",
        "audio_url": "https://v6-vvecloud.yangyi08.com/a0cd942be50d523a1d2a6549d9e120fa/6724c2ff/video/tos/cn/tos-cn-v-2cd6b0/oEFTdAFnJCGbA9vAEwTLBRaBNeJfIT8AiEogID/?a=7073&ch=0&cr=0&dr=0&&br=0&bt=0&ft=xztlUQhhe6BMyq3pUupJD12Nzj&mime_type=audio_mpeg&rc=QGlAYSNz&btag=c0000000008000&dy_q=1730458863&l=2024110119004777B30CE79AF395A2F311&format=mp3",
        "source_timerange": {
            "start_offset": 0,
            "end_offset": 3.3850000000000477
        },
        "target_timerange": {
            "start_offset": 278.21,
            "end_offset": 281.595
        },
        "ignore_audio": false,
        "audio_path": null
    },
    {
        "segment_id": "96530bb4984011ef97fe836af37d64d0",
        "text": "阮俊的自信与陈金莲的矜持形成鲜明对比",
        "audio_url": "https://v6-vvecloud.yangyi08.com/a0cd942be50d523a1d2a6549d9e120fa/6724c2ff/video/tos/cn/tos-cn-v-2cd6b0/oEFTdAFnJCGbA9vAEwTLBRaBNeJfIT8AiEogID/?a=7073&ch=0&cr=0&dr=0&&br=0&bt=0&ft=xztlUQhhe6BMyq3pUupJD12Nzj&mime_type=audio_mpeg&rc=QGlAYSNz&btag=c0000000008000&dy_q=1730458863&l=2024110119004777B30CE79AF395A2F311&format=mp3",
        "source_timerange": {
            "start_offset": 3.3850000000000477,
            "end_offset": 6.770000000000039
        },
        "target_timerange": {
            "start_offset": 281.595,
            "end_offset": 284.98
        },
        "ignore_audio": true,
        "audio_path": null
    },
    {
        "segment_id": "96530ed4984011ef97fe836af37d64d0",
        "text": "似乎在预示着各自的命运轨迹",
        "audio_url": "https://v6-vvecloud.yangyi08.com/fab2a51fb34aa130a1bb3b50b667d4be/6724c2ff/video/tos/cn/tos-cn-v-2cd6b0/o0MfJd8OAxftcXAJbm1EKf0SQkICaIiAGoBAeD/?a=7073&ch=0&cr=0&dr=0&&br=0&bt=0&ft=xztlUQhhe6BMyq3pUupJD12Nzj&mime_type=audio_mpeg&rc=QGlAYSNz&btag=c0000000008000&dy_q=1730458863&l=2024110119004777B30CE79AF395A2F311&format=mp3",
        "source_timerange": {
            "start_offset": 0,
            "end_offset": 3.019999999999982
        },
        "target_timerange": {
            "start_offset": 284.98,
            "end_offset": 288
        },
        "ignore_audio": false,
        "audio_path": null
    }
]