[
    {
        "segment_id": "da3fbd0c9d8811efbee9b8cef68aba34",
        "text": "  [Illustration]  As no",
        "audio_url": "https://v16m-default.akamaized.net/943a02ef59300674c5eb31abff9a0a98/672de618/video/tos/maliva/tos-maliva-v-f15faa-us/oszFeekbHAeWG8AIAdwIufEkIFtLIi6ZcnZnAB/?a=7073&bti=OTU0QDItLmA%3D&ch=0&cr=0&dr=4&er=0&lr=unwatermarked&cd=0%7C0%7C0%7C0&br=312&bt=156&ds=5&ft=.cwOVInz7ThRDGvOXq8Zmo&qs=13&rc=anN3d3Y5cjpzdjUzNzhoM0BpanN3d3Y5cjpzdjUzNzhoM0BzMGYxMmRzMGpgLS1kLjZzYSNzMGYxMmRzMGpgLS1kLjZzcw%3D%3D&vvpl=1&l=02173103962103400000000000000000000ffff0a00afb97d90e8&btag=e00078000&format=mp3&mime_type=audio_mpeg",
        "source_timerange": {
            "start_offset": 0,
            "end_offset": 1.5390000000000015
        },
        "target_timerange": {
            "start_offset": 0,
            "end_offset": 1.5390000000000015
        },
        "ignore_audio": false,
        "audio_path": null
    },
    {
        "segment_id": "da3fbe609d8811efbee9b8cef68aba34",
        "text": "objection was made to the young",
        "audio_url": "https://v16m-default.akamaized.net/943a02ef59300674c5eb31abff9a0a98/672de618/video/tos/maliva/tos-maliva-v-f15faa-us/oszFeekbHAeWG8AIAdwIufEkIFtLIi6ZcnZnAB/?a=7073&bti=OTU0QDItLmA%3D&ch=0&cr=0&dr=4&er=0&lr=unwatermarked&cd=0%7C0%7C0%7C0&br=312&bt=156&ds=5&ft=.cwOVInz7ThRDGvOXq8Zmo&qs=13&rc=anN3d3Y5cjpzdjUzNzhoM0BpanN3d3Y5cjpzdjUzNzhoM0BzMGYxMmRzMGpgLS1kLjZzYSNzMGYxMmRzMGpgLS1kLjZzcw%3D%3D&vvpl=1&l=02173103962103400000000000000000000ffff0a00afb97d90e8&btag=e00078000&format=mp3&mime_type=audio_mpeg",
        "source_timerange": {
            "start_offset": 1.539,
            "end_offset": 3.0779999999999994
        },
        "target_timerange": {
            "start_offset": 1.539,
            "end_offset": 3.0779999999999994
        },
        "ignore_audio": true,
        "audio_path": null
    },
    {
        "segment_id": "da3fbf5a9d8811efbee9b8cef68aba34",
        "text": "people’s engagement with their",
        "audio_url": "https://v16m-default.akamaized.net/943a02ef59300674c5eb31abff9a0a98/672de618/video/tos/maliva/tos-maliva-v-f15faa-us/oszFeekbHAeWG8AIAdwIufEkIFtLIi6ZcnZnAB/?a=7073&bti=OTU0QDItLmA%3D&ch=0&cr=0&dr=4&er=0&lr=unwatermarked&cd=0%7C0%7C0%7C0&br=312&bt=156&ds=5&ft=.cwOVInz7ThRDGvOXq8Zmo&qs=13&rc=anN3d3Y5cjpzdjUzNzhoM0BpanN3d3Y5cjpzdjUzNzhoM0BzMGYxMmRzMGpgLS1kLjZzYSNzMGYxMmRzMGpgLS1kLjZzcw%3D%3D&vvpl=1&l=02173103962103400000000000000000000ffff0a00afb97d90e8&btag=e00078000&format=mp3&mime_type=audio_mpeg",
        "source_timerange": {
            "start_offset": 3.078,
            "end_offset": 4.617000000000001
        },
        "target_timerange": {
            "start_offset": 3.078,
            "end_offset": 4.617000000000001
        },
        "ignore_audio": true,
        "audio_path": null
    },
    {
        "segment_id": "da3fc0409d8811efbee9b8cef68aba34",
        "text": "aunt, and all Mr. Collins’s",
        "audio_url": "https://v16m-default.akamaized.net/943a02ef59300674c5eb31abff9a0a98/672de618/video/tos/maliva/tos-maliva-v-f15faa-us/oszFeekbHAeWG8AIAdwIufEkIFtLIi6ZcnZnAB/?a=7073&bti=OTU0QDItLmA%3D&ch=0&cr=0&dr=4&er=0&lr=unwatermarked&cd=0%7C0%7C0%7C0&br=312&bt=156&ds=5&ft=.cwOVInz7ThRDGvOXq8Zmo&qs=13&rc=anN3d3Y5cjpzdjUzNzhoM0BpanN3d3Y5cjpzdjUzNzhoM0BzMGYxMmRzMGpgLS1kLjZzYSNzMGYxMmRzMGpgLS1kLjZzcw%3D%3D&vvpl=1&l=02173103962103400000000000000000000ffff0a00afb97d90e8&btag=e00078000&format=mp3&mime_type=audio_mpeg",
        "source_timerange": {
            "start_offset": 4.617,
            "end_offset": 6.155999999999999
        },
        "target_timerange": {
            "start_offset": 4.617,
            "end_offset": 6.155999999999999
        },
        "ignore_audio": true,
        "audio_path": null
    },
    {
        "segment_id": "da3fc1309d8811efbee9b8cef68aba34",
        "text": "scruples of leaving Mr. and",
        "audio_url": "https://v16m-default.akamaized.net/943a02ef59300674c5eb31abff9a0a98/672de618/video/tos/maliva/tos-maliva-v-f15faa-us/oszFeekbHAeWG8AIAdwIufEkIFtLIi6ZcnZnAB/?a=7073&bti=OTU0QDItLmA%3D&ch=0&cr=0&dr=4&er=0&lr=unwatermarked&cd=0%7C0%7C0%7C0&br=312&bt=156&ds=5&ft=.cwOVInz7ThRDGvOXq8Zmo&qs=13&rc=anN3d3Y5cjpzdjUzNzhoM0BpanN3d3Y5cjpzdjUzNzhoM0BzMGYxMmRzMGpgLS1kLjZzYSNzMGYxMmRzMGpgLS1kLjZzcw%3D%3D&vvpl=1&l=02173103962103400000000000000000000ffff0a00afb97d90e8&btag=e00078000&format=mp3&mime_type=audio_mpeg",
        "source_timerange": {
            "start_offset": 6.156,
            "end_offset": 7.695
        },
        "target_timerange": {
            "start_offset": 6.156,
            "end_offset": 7.695
        },
        "ignore_audio": true,
        "audio_path": null
    },
    {
        "segment_id": "da3fc20c9d8811efbee9b8cef68aba34",
        "text": "Mrs. Bennet for a single",
        "audio_url": "https://v16m-default.akamaized.net/943a02ef59300674c5eb31abff9a0a98/672de618/video/tos/maliva/tos-maliva-v-f15faa-us/oszFeekbHAeWG8AIAdwIufEkIFtLIi6ZcnZnAB/?a=7073&bti=OTU0QDItLmA%3D&ch=0&cr=0&dr=4&er=0&lr=unwatermarked&cd=0%7C0%7C0%7C0&br=312&bt=156&ds=5&ft=.cwOVInz7ThRDGvOXq8Zmo&qs=13&rc=anN3d3Y5cjpzdjUzNzhoM0BpanN3d3Y5cjpzdjUzNzhoM0BzMGYxMmRzMGpgLS1kLjZzYSNzMGYxMmRzMGpgLS1kLjZzcw%3D%3D&vvpl=1&l=02173103962103400000000000000000000ffff0a00afb97d90e8&btag=e00078000&format=mp3&mime_type=audio_mpeg",
        "source_timerange": {
            "start_offset": 7.694999999999999,
            "end_offset": 9.234
        },
        "target_timerange": {
            "start_offset": 7.694999999999999,
            "end_offset": 9.234
        },
        "ignore_audio": true,
        "audio_path": null
    },
    {
        "segment_id": "da3fc2fc9d8811efbee9b8cef68aba34",
        "text": "evening during his visit were",
        "audio_url": "https://v16m-default.akamaized.net/943a02ef59300674c5eb31abff9a0a98/672de618/video/tos/maliva/tos-maliva-v-f15faa-us/oszFeekbHAeWG8AIAdwIufEkIFtLIi6ZcnZnAB/?a=7073&bti=OTU0QDItLmA%3D&ch=0&cr=0&dr=4&er=0&lr=unwatermarked&cd=0%7C0%7C0%7C0&br=312&bt=156&ds=5&ft=.cwOVInz7ThRDGvOXq8Zmo&qs=13&rc=anN3d3Y5cjpzdjUzNzhoM0BpanN3d3Y5cjpzdjUzNzhoM0BzMGYxMmRzMGpgLS1kLjZzYSNzMGYxMmRzMGpgLS1kLjZzcw%3D%3D&vvpl=1&l=02173103962103400000000000000000000ffff0a00afb97d90e8&btag=e00078000&format=mp3&mime_type=audio_mpeg",
        "source_timerange": {
            "start_offset": 9.234,
            "end_offset": 10.773
        },
        "target_timerange": {
            "start_offset": 9.234,
            "end_offset": 10.773
        },
        "ignore_audio": true,
        "audio_path": null
    },
    {
        "segment_id": "da3fc3e29d8811efbee9b8cef68aba34",
        "text": "most steadily resisted, the",
        "audio_url": "https://v16m-default.akamaized.net/943a02ef59300674c5eb31abff9a0a98/672de618/video/tos/maliva/tos-maliva-v-f15faa-us/oszFeekbHAeWG8AIAdwIufEkIFtLIi6ZcnZnAB/?a=7073&bti=OTU0QDItLmA%3D&ch=0&cr=0&dr=4&er=0&lr=unwatermarked&cd=0%7C0%7C0%7C0&br=312&bt=156&ds=5&ft=.cwOVInz7ThRDGvOXq8Zmo&qs=13&rc=anN3d3Y5cjpzdjUzNzhoM0BpanN3d3Y5cjpzdjUzNzhoM0BzMGYxMmRzMGpgLS1kLjZzYSNzMGYxMmRzMGpgLS1kLjZzcw%3D%3D&vvpl=1&l=02173103962103400000000000000000000ffff0a00afb97d90e8&btag=e00078000&format=mp3&mime_type=audio_mpeg",
        "source_timerange": {
            "start_offset": 10.773,
            "end_offset": 12.312
        },
        "target_timerange": {
            "start_offset": 10.773,
            "end_offset": 12.312
        },
        "ignore_audio": true,
        "audio_path": null
    },
    {
        "segment_id": "da3fc4c89d8811efbee9b8cef68aba34",
        "text": "coach conveyed him and his five",
        "audio_url": "https://v16m-default.akamaized.net/943a02ef59300674c5eb31abff9a0a98/672de618/video/tos/maliva/tos-maliva-v-f15faa-us/oszFeekbHAeWG8AIAdwIufEkIFtLIi6ZcnZnAB/?a=7073&bti=OTU0QDItLmA%3D&ch=0&cr=0&dr=4&er=0&lr=unwatermarked&cd=0%7C0%7C0%7C0&br=312&bt=156&ds=5&ft=.cwOVInz7ThRDGvOXq8Zmo&qs=13&rc=anN3d3Y5cjpzdjUzNzhoM0BpanN3d3Y5cjpzdjUzNzhoM0BzMGYxMmRzMGpgLS1kLjZzYSNzMGYxMmRzMGpgLS1kLjZzcw%3D%3D&vvpl=1&l=02173103962103400000000000000000000ffff0a00afb97d90e8&btag=e00078000&format=mp3&mime_type=audio_mpeg",
        "source_timerange": {
            "start_offset": 12.312,
            "end_offset": 13.850999999999999
        },
        "target_timerange": {
            "start_offset": 12.312,
            "end_offset": 13.850999999999999
        },
        "ignore_audio": true,
        "audio_path": null
    },
    {
        "segment_id": "da3fc5ae9d8811efbee9b8cef68aba34",
        "text": "cousins at a suitable hour to",
        "audio_url": "https://v16m-default.akamaized.net/943a02ef59300674c5eb31abff9a0a98/672de618/video/tos/maliva/tos-maliva-v-f15faa-us/oszFeekbHAeWG8AIAdwIufEkIFtLIi6ZcnZnAB/?a=7073&bti=OTU0QDItLmA%3D&ch=0&cr=0&dr=4&er=0&lr=unwatermarked&cd=0%7C0%7C0%7C0&br=312&bt=156&ds=5&ft=.cwOVInz7ThRDGvOXq8Zmo&qs=13&rc=anN3d3Y5cjpzdjUzNzhoM0BpanN3d3Y5cjpzdjUzNzhoM0BzMGYxMmRzMGpgLS1kLjZzYSNzMGYxMmRzMGpgLS1kLjZzcw%3D%3D&vvpl=1&l=02173103962103400000000000000000000ffff0a00afb97d90e8&btag=e00078000&format=mp3&mime_type=audio_mpeg",
        "source_timerange": {
            "start_offset": 13.850999999999999,
            "end_offset": 15.389999999999999
        },
        "target_timerange": {
            "start_offset": 13.850999999999999,
            "end_offset": 15.389999999999999
        },
        "ignore_audio": true,
        "audio_path": null
    },
    {
        "segment_id": "da3fc6809d8811efbee9b8cef68aba34",
        "text": "Meryton; and the girls had the",
        "audio_url": "https://v16m-default.akamaized.net/943a02ef59300674c5eb31abff9a0a98/672de618/video/tos/maliva/tos-maliva-v-f15faa-us/oszFeekbHAeWG8AIAdwIufEkIFtLIi6ZcnZnAB/?a=7073&bti=OTU0QDItLmA%3D&ch=0&cr=0&dr=4&er=0&lr=unwatermarked&cd=0%7C0%7C0%7C0&br=312&bt=156&ds=5&ft=.cwOVInz7ThRDGvOXq8Zmo&qs=13&rc=anN3d3Y5cjpzdjUzNzhoM0BpanN3d3Y5cjpzdjUzNzhoM0BzMGYxMmRzMGpgLS1kLjZzYSNzMGYxMmRzMGpgLS1kLjZzcw%3D%3D&vvpl=1&l=02173103962103400000000000000000000ffff0a00afb97d90e8&btag=e00078000&format=mp3&mime_type=audio_mpeg",
        "source_timerange": {
            "start_offset": 15.389999999999999,
            "end_offset": 16.929
        },
        "target_timerange": {
            "start_offset": 15.389999999999999,
            "end_offset": 16.929
        },
        "ignore_audio": true,
        "audio_path": null
    },
    {
        "segment_id": "da3fc7529d8811efbee9b8cef68aba34",
        "text": "pleasure of hearing, as they",
        "audio_url": "https://v16m-default.akamaized.net/943a02ef59300674c5eb31abff9a0a98/672de618/video/tos/maliva/tos-maliva-v-f15faa-us/oszFeekbHAeWG8AIAdwIufEkIFtLIi6ZcnZnAB/?a=7073&bti=OTU0QDItLmA%3D&ch=0&cr=0&dr=4&er=0&lr=unwatermarked&cd=0%7C0%7C0%7C0&br=312&bt=156&ds=5&ft=.cwOVInz7ThRDGvOXq8Zmo&qs=13&rc=anN3d3Y5cjpzdjUzNzhoM0BpanN3d3Y5cjpzdjUzNzhoM0BzMGYxMmRzMGpgLS1kLjZzYSNzMGYxMmRzMGpgLS1kLjZzcw%3D%3D&vvpl=1&l=02173103962103400000000000000000000ffff0a00afb97d90e8&btag=e00078000&format=mp3&mime_type=audio_mpeg",
        "source_timerange": {
            "start_offset": 16.929,
            "end_offset": 18.468
        },
        "target_timerange": {
            "start_offset": 16.929,
            "end_offset": 18.468
        },
        "ignore_audio": true,
        "audio_path": null
    },
    {
        "segment_id": "da3fc8249d8811efbee9b8cef68aba34",
        "text": "entered the drawing-room, that",
        "audio_url": "https://v16m-default.akamaized.net/943a02ef59300674c5eb31abff9a0a98/672de618/video/tos/maliva/tos-maliva-v-f15faa-us/oszFeekbHAeWG8AIAdwIufEkIFtLIi6ZcnZnAB/?a=7073&bti=OTU0QDItLmA%3D&ch=0&cr=0&dr=4&er=0&lr=unwatermarked&cd=0%7C0%7C0%7C0&br=312&bt=156&ds=5&ft=.cwOVInz7ThRDGvOXq8Zmo&qs=13&rc=anN3d3Y5cjpzdjUzNzhoM0BpanN3d3Y5cjpzdjUzNzhoM0BzMGYxMmRzMGpgLS1kLjZzYSNzMGYxMmRzMGpgLS1kLjZzcw%3D%3D&vvpl=1&l=02173103962103400000000000000000000ffff0a00afb97d90e8&btag=e00078000&format=mp3&mime_type=audio_mpeg",
        "source_timerange": {
            "start_offset": 18.468,
            "end_offset": 20.006999999999998
        },
        "target_timerange": {
            "start_offset": 18.468,
            "end_offset": 20.006999999999998
        },
        "ignore_audio": true,
        "audio_path": null
    },
    {
        "segment_id": "da3fc8f69d8811efbee9b8cef68aba34",
        "text": "Mr. Wickham had accepted their",
        "audio_url": "https://v16m-default.akamaized.net/943a02ef59300674c5eb31abff9a0a98/672de618/video/tos/maliva/tos-maliva-v-f15faa-us/oszFeekbHAeWG8AIAdwIufEkIFtLIi6ZcnZnAB/?a=7073&bti=OTU0QDItLmA%3D&ch=0&cr=0&dr=4&er=0&lr=unwatermarked&cd=0%7C0%7C0%7C0&br=312&bt=156&ds=5&ft=.cwOVInz7ThRDGvOXq8Zmo&qs=13&rc=anN3d3Y5cjpzdjUzNzhoM0BpanN3d3Y5cjpzdjUzNzhoM0BzMGYxMmRzMGpgLS1kLjZzYSNzMGYxMmRzMGpgLS1kLjZzcw%3D%3D&vvpl=1&l=02173103962103400000000000000000000ffff0a00afb97d90e8&btag=e00078000&format=mp3&mime_type=audio_mpeg",
        "source_timerange": {
            "start_offset": 20.006999999999998,
            "end_offset": 21.546
        },
        "target_timerange": {
            "start_offset": 20.006999999999998,
            "end_offset": 21.546
        },
        "ignore_audio": true,
        "audio_path": null
    },
    {
        "segment_id": "da3fc9c89d8811efbee9b8cef68aba34",
        "text": "uncle’s invitation, and was",
        "audio_url": "https://v16m-default.akamaized.net/943a02ef59300674c5eb31abff9a0a98/672de618/video/tos/maliva/tos-maliva-v-f15faa-us/oszFeekbHAeWG8AIAdwIufEkIFtLIi6ZcnZnAB/?a=7073&bti=OTU0QDItLmA%3D&ch=0&cr=0&dr=4&er=0&lr=unwatermarked&cd=0%7C0%7C0%7C0&br=312&bt=156&ds=5&ft=.cwOVInz7ThRDGvOXq8Zmo&qs=13&rc=anN3d3Y5cjpzdjUzNzhoM0BpanN3d3Y5cjpzdjUzNzhoM0BzMGYxMmRzMGpgLS1kLjZzYSNzMGYxMmRzMGpgLS1kLjZzcw%3D%3D&vvpl=1&l=02173103962103400000000000000000000ffff0a00afb97d90e8&btag=e00078000&format=mp3&mime_type=audio_mpeg",
        "source_timerange": {
            "start_offset": 21.546,
            "end_offset": 23.084999999999997
        },
        "target_timerange": {
            "start_offset": 21.546,
            "end_offset": 23.084999999999997
        },
        "ignore_audio": true,
        "audio_path": null
    },
    {
        "segment_id": "da3fcaa49d8811efbee9b8cef68aba34",
        "text": "then in the house.",
        "audio_url": "https://v16m-default.akamaized.net/943a02ef59300674c5eb31abff9a0a98/672de618/video/tos/maliva/tos-maliva-v-f15faa-us/oszFeekbHAeWG8AIAdwIufEkIFtLIi6ZcnZnAB/?a=7073&bti=OTU0QDItLmA%3D&ch=0&cr=0&dr=4&er=0&lr=unwatermarked&cd=0%7C0%7C0%7C0&br=312&bt=156&ds=5&ft=.cwOVInz7ThRDGvOXq8Zmo&qs=13&rc=anN3d3Y5cjpzdjUzNzhoM0BpanN3d3Y5cjpzdjUzNzhoM0BzMGYxMmRzMGpgLS1kLjZzYSNzMGYxMmRzMGpgLS1kLjZzcw%3D%3D&vvpl=1&l=02173103962103400000000000000000000ffff0a00afb97d90e8&btag=e00078000&format=mp3&mime_type=audio_mpeg",
        "source_timerange": {
            "start_offset": 23.084999999999997,
            "end_offset": 24.624
        },
        "target_timerange": {
            "start_offset": 23.084999999999997,
            "end_offset": 24.624
        },
        "ignore_audio": true,
        "audio_path": null
    },
    {
        "segment_id": "da40312e9d8811efbee9b8cef68aba34",
        "text": "When this information was",
        "audio_url": "https://v16m-default.akamaized.net/b2f781d9cd7b4650c7f029c6657b7319/672de627/video/tos/maliva/tos-maliva-v-f15faa-us/ogIfbc3s7QfNKRTKg5IBezYhuf4AcJnACQc2Ae/?a=7073&bti=OTU0QDItLmA%3D&ch=0&cr=0&dr=4&er=0&lr=unwatermarked&cd=0%7C0%7C0%7C0&br=312&bt=156&ds=5&ft=.cwOVInz7ThRDGvOXq8Zmo&qs=13&rc=ang5eHQ5cjpzdjUzNzhoM0Bpang5eHQ5cjpzdjUzNzhoM0Bvc2cwMmRzMGpgLS1kLjZzYSNvc2cwMmRzMGpgLS1kLjZzcw%3D%3D&vvpl=1&l=02173103962103400000000000000000000ffff0a00afb97d90e8&btag=e00048000&format=mp3&mime_type=audio_mpeg",
        "source_timerange": {
            "start_offset": 0,
            "end_offset": 1.5203076923076821
        },
        "target_timerange": {
            "start_offset": 24.624,
            "end_offset": 26.144307692307684
        },
        "ignore_audio": false,
        "audio_path": null
    },
    {
        "segment_id": "da40326e9d8811efbee9b8cef68aba34",
        "text": "given, and they had all taken",
        "audio_url": "https://v16m-default.akamaized.net/b2f781d9cd7b4650c7f029c6657b7319/672de627/video/tos/maliva/tos-maliva-v-f15faa-us/ogIfbc3s7QfNKRTKg5IBezYhuf4AcJnACQc2Ae/?a=7073&bti=OTU0QDItLmA%3D&ch=0&cr=0&dr=4&er=0&lr=unwatermarked&cd=0%7C0%7C0%7C0&br=312&bt=156&ds=5&ft=.cwOVInz7ThRDGvOXq8Zmo&qs=13&rc=ang5eHQ5cjpzdjUzNzhoM0Bpang5eHQ5cjpzdjUzNzhoM0Bvc2cwMmRzMGpgLS1kLjZzYSNvc2cwMmRzMGpgLS1kLjZzcw%3D%3D&vvpl=1&l=02173103962103400000000000000000000ffff0a00afb97d90e8&btag=e00048000&format=mp3&mime_type=audio_mpeg",
        "source_timerange": {
            "start_offset": 1.5203076923076928,
            "end_offset": 3.0406153846153785
        },
        "target_timerange": {
            "start_offset": 26.14430769230769,
            "end_offset": 27.66461538461538
        },
        "ignore_audio": true,
        "audio_path": null
    },
    {
        "segment_id": "da40334a9d8811efbee9b8cef68aba34",
        "text": "their seats, Mr. Collins was",
        "audio_url": "https://v16m-default.akamaized.net/b2f781d9cd7b4650c7f029c6657b7319/672de627/video/tos/maliva/tos-maliva-v-f15faa-us/ogIfbc3s7QfNKRTKg5IBezYhuf4AcJnACQc2Ae/?a=7073&bti=OTU0QDItLmA%3D&ch=0&cr=0&dr=4&er=0&lr=unwatermarked&cd=0%7C0%7C0%7C0&br=312&bt=156&ds=5&ft=.cwOVInz7ThRDGvOXq8Zmo&qs=13&rc=ang5eHQ5cjpzdjUzNzhoM0Bpang5eHQ5cjpzdjUzNzhoM0Bvc2cwMmRzMGpgLS1kLjZzYSNvc2cwMmRzMGpgLS1kLjZzcw%3D%3D&vvpl=1&l=02173103962103400000000000000000000ffff0a00afb97d90e8&btag=e00048000&format=mp3&mime_type=audio_mpeg",
        "source_timerange": {
            "start_offset": 3.0406153846153856,
            "end_offset": 4.560923076923068
        },
        "target_timerange": {
            "start_offset": 27.664615384615384,
            "end_offset": 29.18492307692307
        },
        "ignore_audio": true,
        "audio_path": null
    },
    {
        "segment_id": "da40343a9d8811efbee9b8cef68aba34",
        "text": "at leisure to look around him",
        "audio_url": "https://v16m-default.akamaized.net/b2f781d9cd7b4650c7f029c6657b7319/672de627/video/tos/maliva/tos-maliva-v-f15faa-us/ogIfbc3s7QfNKRTKg5IBezYhuf4AcJnACQc2Ae/?a=7073&bti=OTU0QDItLmA%3D&ch=0&cr=0&dr=4&er=0&lr=unwatermarked&cd=0%7C0%7C0%7C0&br=312&bt=156&ds=5&ft=.cwOVInz7ThRDGvOXq8Zmo&qs=13&rc=ang5eHQ5cjpzdjUzNzhoM0Bpang5eHQ5cjpzdjUzNzhoM0Bvc2cwMmRzMGpgLS1kLjZzYSNvc2cwMmRzMGpgLS1kLjZzcw%3D%3D&vvpl=1&l=02173103962103400000000000000000000ffff0a00afb97d90e8&btag=e00048000&format=mp3&mime_type=audio_mpeg",
        "source_timerange": {
            "start_offset": 4.560923076923078,
            "end_offset": 6.081230769230764
        },
        "target_timerange": {
            "start_offset": 29.184923076923077,
            "end_offset": 30.705230769230766
        },
        "ignore_audio": true,
        "audio_path": null
    },
    {
        "segment_id": "da4035209d8811efbee9b8cef68aba34",
        "text": "and admire, and he was so much",
        "audio_url": "https://v16m-default.akamaized.net/b2f781d9cd7b4650c7f029c6657b7319/672de627/video/tos/maliva/tos-maliva-v-f15faa-us/ogIfbc3s7QfNKRTKg5IBezYhuf4AcJnACQc2Ae/?a=7073&bti=OTU0QDItLmA%3D&ch=0&cr=0&dr=4&er=0&lr=unwatermarked&cd=0%7C0%7C0%7C0&br=312&bt=156&ds=5&ft=.cwOVInz7ThRDGvOXq8Zmo&qs=13&rc=ang5eHQ5cjpzdjUzNzhoM0Bpang5eHQ5cjpzdjUzNzhoM0Bvc2cwMmRzMGpgLS1kLjZzYSNvc2cwMmRzMGpgLS1kLjZzcw%3D%3D&vvpl=1&l=02173103962103400000000000000000000ffff0a00afb97d90e8&btag=e00048000&format=mp3&mime_type=audio_mpeg",
        "source_timerange": {
            "start_offset": 6.081230769230771,
            "end_offset": 7.601538461538453
        },
        "target_timerange": {
            "start_offset": 30.70523076923077,
            "end_offset": 32.225538461538456
        },
        "ignore_audio": true,
        "audio_path": null
    },
    {
        "segment_id": "da4036569d8811efbee9b8cef68aba34",
        "text": "struck with the size and",
        "audio_url": "https://v16m-default.akamaized.net/b2f781d9cd7b4650c7f029c6657b7319/672de627/video/tos/maliva/tos-maliva-v-f15faa-us/ogIfbc3s7QfNKRTKg5IBezYhuf4AcJnACQc2Ae/?a=7073&bti=OTU0QDItLmA%3D&ch=0&cr=0&dr=4&er=0&lr=unwatermarked&cd=0%7C0%7C0%7C0&br=312&bt=156&ds=5&ft=.cwOVInz7ThRDGvOXq8Zmo&qs=13&rc=ang5eHQ5cjpzdjUzNzhoM0Bpang5eHQ5cjpzdjUzNzhoM0Bvc2cwMmRzMGpgLS1kLjZzYSNvc2cwMmRzMGpgLS1kLjZzcw%3D%3D&vvpl=1&l=02173103962103400000000000000000000ffff0a00afb97d90e8&btag=e00048000&format=mp3&mime_type=audio_mpeg",
        "source_timerange": {
            "start_offset": 7.601538461538464,
            "end_offset": 9.121846153846143
        },
        "target_timerange": {
            "start_offset": 32.22553846153846,
            "end_offset": 33.745846153846145
        },
        "ignore_audio": true,
        "audio_path": null
    },
    {
        "segment_id": "da40373c9d8811efbee9b8cef68aba34",
        "text": "furniture of the apartment,",
        "audio_url": "https://v16m-default.akamaized.net/b2f781d9cd7b4650c7f029c6657b7319/672de627/video/tos/maliva/tos-maliva-v-f15faa-us/ogIfbc3s7QfNKRTKg5IBezYhuf4AcJnACQc2Ae/?a=7073&bti=OTU0QDItLmA%3D&ch=0&cr=0&dr=4&er=0&lr=unwatermarked&cd=0%7C0%7C0%7C0&br=312&bt=156&ds=5&ft=.cwOVInz7ThRDGvOXq8Zmo&qs=13&rc=ang5eHQ5cjpzdjUzNzhoM0Bpang5eHQ5cjpzdjUzNzhoM0Bvc2cwMmRzMGpgLS1kLjZzYSNvc2cwMmRzMGpgLS1kLjZzcw%3D%3D&vvpl=1&l=02173103962103400000000000000000000ffff0a00afb97d90e8&btag=e00048000&format=mp3&mime_type=audio_mpeg",
        "source_timerange": {
            "start_offset": 9.121846153846153,
            "end_offset": 10.642153846153839
        },
        "target_timerange": {
            "start_offset": 33.74584615384615,
            "end_offset": 35.26615384615384
        },
        "ignore_audio": true,
        "audio_path": null
    },
    {
        "segment_id": "da4038189d8811efbee9b8cef68aba34",
        "text": "that he declared he might",
        "audio_url": "https://v16m-default.akamaized.net/b2f781d9cd7b4650c7f029c6657b7319/672de627/video/tos/maliva/tos-maliva-v-f15faa-us/ogIfbc3s7QfNKRTKg5IBezYhuf4AcJnACQc2Ae/?a=7073&bti=OTU0QDItLmA%3D&ch=0&cr=0&dr=4&er=0&lr=unwatermarked&cd=0%7C0%7C0%7C0&br=312&bt=156&ds=5&ft=.cwOVInz7ThRDGvOXq8Zmo&qs=13&rc=ang5eHQ5cjpzdjUzNzhoM0Bpang5eHQ5cjpzdjUzNzhoM0Bvc2cwMmRzMGpgLS1kLjZzYSNvc2cwMmRzMGpgLS1kLjZzcw%3D%3D&vvpl=1&l=02173103962103400000000000000000000ffff0a00afb97d90e8&btag=e00048000&format=mp3&mime_type=audio_mpeg",
        "source_timerange": {
            "start_offset": 10.64215384615385,
            "end_offset": 12.162461538461535
        },
        "target_timerange": {
            "start_offset": 35.26615384615385,
            "end_offset": 36.78646153846154
        },
        "ignore_audio": true,
        "audio_path": null
    },
    {
        "segment_id": "da4039269d8811efbee9b8cef68aba34",
        "text": "almost have supposed himself",
        "audio_url": "https://v16m-default.akamaized.net/b2f781d9cd7b4650c7f029c6657b7319/672de627/video/tos/maliva/tos-maliva-v-f15faa-us/ogIfbc3s7QfNKRTKg5IBezYhuf4AcJnACQc2Ae/?a=7073&bti=OTU0QDItLmA%3D&ch=0&cr=0&dr=4&er=0&lr=unwatermarked&cd=0%7C0%7C0%7C0&br=312&bt=156&ds=5&ft=.cwOVInz7ThRDGvOXq8Zmo&qs=13&rc=ang5eHQ5cjpzdjUzNzhoM0Bpang5eHQ5cjpzdjUzNzhoM0Bvc2cwMmRzMGpgLS1kLjZzYSNvc2cwMmRzMGpgLS1kLjZzcw%3D%3D&vvpl=1&l=02173103962103400000000000000000000ffff0a00afb97d90e8&btag=e00048000&format=mp3&mime_type=audio_mpeg",
        "source_timerange": {
            "start_offset": 12.162461538461539,
            "end_offset": 13.682769230769225
        },
        "target_timerange": {
            "start_offset": 36.78646153846154,
            "end_offset": 38.30676923076923
        },
        "ignore_audio": true,
        "audio_path": null
    },
    {
        "segment_id": "da403a669d8811efbee9b8cef68aba34",
        "text": "in the small summer breakfast",
        "audio_url": "https://v16m-default.akamaized.net/b2f781d9cd7b4650c7f029c6657b7319/672de627/video/tos/maliva/tos-maliva-v-f15faa-us/ogIfbc3s7QfNKRTKg5IBezYhuf4AcJnACQc2Ae/?a=7073&bti=OTU0QDItLmA%3D&ch=0&cr=0&dr=4&er=0&lr=unwatermarked&cd=0%7C0%7C0%7C0&br=312&bt=156&ds=5&ft=.cwOVInz7ThRDGvOXq8Zmo&qs=13&rc=ang5eHQ5cjpzdjUzNzhoM0Bpang5eHQ5cjpzdjUzNzhoM0Bvc2cwMmRzMGpgLS1kLjZzYSNvc2cwMmRzMGpgLS1kLjZzcw%3D%3D&vvpl=1&l=02173103962103400000000000000000000ffff0a00afb97d90e8&btag=e00048000&format=mp3&mime_type=audio_mpeg",
        "source_timerange": {
            "start_offset": 13.682769230769235,
            "end_offset": 15.203076923076914
        },
        "target_timerange": {
            "start_offset": 38.306769230769234,
            "end_offset": 39.827076923076916
        },
        "ignore_audio": true,
        "audio_path": null
    },
    {
        "segment_id": "da403ba69d8811efbee9b8cef68aba34",
        "text": "parlour at Rosings; a",
        "audio_url": "https://v16m-default.akamaized.net/b2f781d9cd7b4650c7f029c6657b7319/672de627/video/tos/maliva/tos-maliva-v-f15faa-us/ogIfbc3s7QfNKRTKg5IBezYhuf4AcJnACQc2Ae/?a=7073&bti=OTU0QDItLmA%3D&ch=0&cr=0&dr=4&er=0&lr=unwatermarked&cd=0%7C0%7C0%7C0&br=312&bt=156&ds=5&ft=.cwOVInz7ThRDGvOXq8Zmo&qs=13&rc=ang5eHQ5cjpzdjUzNzhoM0Bpang5eHQ5cjpzdjUzNzhoM0Bvc2cwMmRzMGpgLS1kLjZzYSNvc2cwMmRzMGpgLS1kLjZzcw%3D%3D&vvpl=1&l=02173103962103400000000000000000000ffff0a00afb97d90e8&btag=e00048000&format=mp3&mime_type=audio_mpeg",
        "source_timerange": {
            "start_offset": 15.203076923076924,
            "end_offset": 16.72338461538461
        },
        "target_timerange": {
            "start_offset": 39.82707692307692,
            "end_offset": 41.34738461538461
        },
        "ignore_audio": true,
        "audio_path": null
    },
    {
        "segment_id": "da403cfa9d8811efbee9b8cef68aba34",
        "text": "comparison that did not at",
        "audio_url": "https://v16m-default.akamaized.net/b2f781d9cd7b4650c7f029c6657b7319/672de627/video/tos/maliva/tos-maliva-v-f15faa-us/ogIfbc3s7QfNKRTKg5IBezYhuf4AcJnACQc2Ae/?a=7073&bti=OTU0QDItLmA%3D&ch=0&cr=0&dr=4&er=0&lr=unwatermarked&cd=0%7C0%7C0%7C0&br=312&bt=156&ds=5&ft=.cwOVInz7ThRDGvOXq8Zmo&qs=13&rc=ang5eHQ5cjpzdjUzNzhoM0Bpang5eHQ5cjpzdjUzNzhoM0Bvc2cwMmRzMGpgLS1kLjZzYSNvc2cwMmRzMGpgLS1kLjZzcw%3D%3D&vvpl=1&l=02173103962103400000000000000000000ffff0a00afb97d90e8&btag=e00048000&format=mp3&mime_type=audio_mpeg",
        "source_timerange": {
            "start_offset": 16.723384615384614,
            "end_offset": 18.243692307692307
        },
        "target_timerange": {
            "start_offset": 41.34738461538461,
            "end_offset": 42.86769230769231
        },
        "ignore_audio": true,
        "audio_path": null
    },
    {
        "segment_id": "da403dea9d8811efbee9b8cef68aba34",
        "text": "first convey much",
        "audio_url": "https://v16m-default.akamaized.net/b2f781d9cd7b4650c7f029c6657b7319/672de627/video/tos/maliva/tos-maliva-v-f15faa-us/ogIfbc3s7QfNKRTKg5IBezYhuf4AcJnACQc2Ae/?a=7073&bti=OTU0QDItLmA%3D&ch=0&cr=0&dr=4&er=0&lr=unwatermarked&cd=0%7C0%7C0%7C0&br=312&bt=156&ds=5&ft=.cwOVInz7ThRDGvOXq8Zmo&qs=13&rc=ang5eHQ5cjpzdjUzNzhoM0Bpang5eHQ5cjpzdjUzNzhoM0Bvc2cwMmRzMGpgLS1kLjZzYSNvc2cwMmRzMGpgLS1kLjZzcw%3D%3D&vvpl=1&l=02173103962103400000000000000000000ffff0a00afb97d90e8&btag=e00048000&format=mp3&mime_type=audio_mpeg",
        "source_timerange": {
            "start_offset": 18.24369230769231,
            "end_offset": 19.763999999999996
        },
        "target_timerange": {
            "start_offset": 42.86769230769231,
            "end_offset": 44.388
        },
        "ignore_audio": true,
        "audio_path": null
    },
    {
        "segment_id": "da403ed09d8811efbee9b8cef68aba34",
        "text": "gratification; but when Mrs.",
        "audio_url": "https://v16m-default.akamaized.net/b2f781d9cd7b4650c7f029c6657b7319/672de627/video/tos/maliva/tos-maliva-v-f15faa-us/ogIfbc3s7QfNKRTKg5IBezYhuf4AcJnACQc2Ae/?a=7073&bti=OTU0QDItLmA%3D&ch=0&cr=0&dr=4&er=0&lr=unwatermarked&cd=0%7C0%7C0%7C0&br=312&bt=156&ds=5&ft=.cwOVInz7ThRDGvOXq8Zmo&qs=13&rc=ang5eHQ5cjpzdjUzNzhoM0Bpang5eHQ5cjpzdjUzNzhoM0Bvc2cwMmRzMGpgLS1kLjZzYSNvc2cwMmRzMGpgLS1kLjZzcw%3D%3D&vvpl=1&l=02173103962103400000000000000000000ffff0a00afb97d90e8&btag=e00048000&format=mp3&mime_type=audio_mpeg",
        "source_timerange": {
            "start_offset": 19.764000000000006,
            "end_offset": 21.284307692307685
        },
        "target_timerange": {
            "start_offset": 44.388000000000005,
            "end_offset": 45.90830769230769
        },
        "ignore_audio": true,
        "audio_path": null
    },
    {
        "segment_id": "da403fac9d8811efbee9b8cef68aba34",
        "text": "Philips understood from him",
        "audio_url": "https://v16m-default.akamaized.net/b2f781d9cd7b4650c7f029c6657b7319/672de627/video/tos/maliva/tos-maliva-v-f15faa-us/ogIfbc3s7QfNKRTKg5IBezYhuf4AcJnACQc2Ae/?a=7073&bti=OTU0QDItLmA%3D&ch=0&cr=0&dr=4&er=0&lr=unwatermarked&cd=0%7C0%7C0%7C0&br=312&bt=156&ds=5&ft=.cwOVInz7ThRDGvOXq8Zmo&qs=13&rc=ang5eHQ5cjpzdjUzNzhoM0Bpang5eHQ5cjpzdjUzNzhoM0Bvc2cwMmRzMGpgLS1kLjZzYSNvc2cwMmRzMGpgLS1kLjZzcw%3D%3D&vvpl=1&l=02173103962103400000000000000000000ffff0a00afb97d90e8&btag=e00048000&format=mp3&mime_type=audio_mpeg",
        "source_timerange": {
            "start_offset": 21.284307692307696,
            "end_offset": 22.80461538461538
        },
        "target_timerange": {
            "start_offset": 45.908307692307694,
            "end_offset": 47.428615384615384
        },
        "ignore_audio": true,
        "audio_path": null
    },
    {
        "segment_id": "da4040b09d8811efbee9b8cef68aba34",
        "text": "what Rosings was, and who was",
        "audio_url": "https://v16m-default.akamaized.net/b2f781d9cd7b4650c7f029c6657b7319/672de627/video/tos/maliva/tos-maliva-v-f15faa-us/ogIfbc3s7QfNKRTKg5IBezYhuf4AcJnACQc2Ae/?a=7073&bti=OTU0QDItLmA%3D&ch=0&cr=0&dr=4&er=0&lr=unwatermarked&cd=0%7C0%7C0%7C0&br=312&bt=156&ds=5&ft=.cwOVInz7ThRDGvOXq8Zmo&qs=13&rc=ang5eHQ5cjpzdjUzNzhoM0Bpang5eHQ5cjpzdjUzNzhoM0Bvc2cwMmRzMGpgLS1kLjZzYSNvc2cwMmRzMGpgLS1kLjZzcw%3D%3D&vvpl=1&l=02173103962103400000000000000000000ffff0a00afb97d90e8&btag=e00048000&format=mp3&mime_type=audio_mpeg",
        "source_timerange": {
            "start_offset": 22.804615384615385,
            "end_offset": 24.32492307692307
        },
        "target_timerange": {
            "start_offset": 47.428615384615384,
            "end_offset": 48.94892307692307
        },
        "ignore_audio": true,
        "audio_path": null
    },
    {
        "segment_id": "da4041829d8811efbee9b8cef68aba34",
        "text": "its proprietor, when she had",
        "audio_url": "https://v16m-default.akamaized.net/b2f781d9cd7b4650c7f029c6657b7319/672de627/video/tos/maliva/tos-maliva-v-f15faa-us/ogIfbc3s7QfNKRTKg5IBezYhuf4AcJnACQc2Ae/?a=7073&bti=OTU0QDItLmA%3D&ch=0&cr=0&dr=4&er=0&lr=unwatermarked&cd=0%7C0%7C0%7C0&br=312&bt=156&ds=5&ft=.cwOVInz7ThRDGvOXq8Zmo&qs=13&rc=ang5eHQ5cjpzdjUzNzhoM0Bpang5eHQ5cjpzdjUzNzhoM0Bvc2cwMmRzMGpgLS1kLjZzYSNvc2cwMmRzMGpgLS1kLjZzcw%3D%3D&vvpl=1&l=02173103962103400000000000000000000ffff0a00afb97d90e8&btag=e00048000&format=mp3&mime_type=audio_mpeg",
        "source_timerange": {
            "start_offset": 24.32492307692308,
            "end_offset": 25.845230769230767
        },
        "target_timerange": {
            "start_offset": 48.94892307692308,
            "end_offset": 50.46923076923077
        },
        "ignore_audio": true,
        "audio_path": null
    },
    {
        "segment_id": "da4042689d8811efbee9b8cef68aba34",
        "text": "listened to the description of",
        "audio_url": "https://v16m-default.akamaized.net/b2f781d9cd7b4650c7f029c6657b7319/672de627/video/tos/maliva/tos-maliva-v-f15faa-us/ogIfbc3s7QfNKRTKg5IBezYhuf4AcJnACQc2Ae/?a=7073&bti=OTU0QDItLmA%3D&ch=0&cr=0&dr=4&er=0&lr=unwatermarked&cd=0%7C0%7C0%7C0&br=312&bt=156&ds=5&ft=.cwOVInz7ThRDGvOXq8Zmo&qs=13&rc=ang5eHQ5cjpzdjUzNzhoM0Bpang5eHQ5cjpzdjUzNzhoM0Bvc2cwMmRzMGpgLS1kLjZzYSNvc2cwMmRzMGpgLS1kLjZzcw%3D%3D&vvpl=1&l=02173103962103400000000000000000000ffff0a00afb97d90e8&btag=e00048000&format=mp3&mime_type=audio_mpeg",
        "source_timerange": {
            "start_offset": 25.845230769230778,
            "end_offset": 27.365538461538456
        },
        "target_timerange": {
            "start_offset": 50.469230769230776,
            "end_offset": 51.98953846153846
        },
        "ignore_audio": true,
        "audio_path": null
    },
    {
        "segment_id": "da40434e9d8811efbee9b8cef68aba34",
        "text": "only one of Lady Catherine’s",
        "audio_url": "https://v16m-default.akamaized.net/b2f781d9cd7b4650c7f029c6657b7319/672de627/video/tos/maliva/tos-maliva-v-f15faa-us/ogIfbc3s7QfNKRTKg5IBezYhuf4AcJnACQc2Ae/?a=7073&bti=OTU0QDItLmA%3D&ch=0&cr=0&dr=4&er=0&lr=unwatermarked&cd=0%7C0%7C0%7C0&br=312&bt=156&ds=5&ft=.cwOVInz7ThRDGvOXq8Zmo&qs=13&rc=ang5eHQ5cjpzdjUzNzhoM0Bpang5eHQ5cjpzdjUzNzhoM0Bvc2cwMmRzMGpgLS1kLjZzYSNvc2cwMmRzMGpgLS1kLjZzcw%3D%3D&vvpl=1&l=02173103962103400000000000000000000ffff0a00afb97d90e8&btag=e00048000&format=mp3&mime_type=audio_mpeg",
        "source_timerange": {
            "start_offset": 27.365538461538467,
            "end_offset": 28.885846153846153
        },
        "target_timerange": {
            "start_offset": 51.989538461538466,
            "end_offset": 53.509846153846155
        },
        "ignore_audio": true,
        "audio_path": null
    },
    {
        "segment_id": "da4044209d8811efbee9b8cef68aba34",
        "text": "drawing-rooms, and found that",
        "audio_url": "https://v16m-default.akamaized.net/b2f781d9cd7b4650c7f029c6657b7319/672de627/video/tos/maliva/tos-maliva-v-f15faa-us/ogIfbc3s7QfNKRTKg5IBezYhuf4AcJnACQc2Ae/?a=7073&bti=OTU0QDItLmA%3D&ch=0&cr=0&dr=4&er=0&lr=unwatermarked&cd=0%7C0%7C0%7C0&br=312&bt=156&ds=5&ft=.cwOVInz7ThRDGvOXq8Zmo&qs=13&rc=ang5eHQ5cjpzdjUzNzhoM0Bpang5eHQ5cjpzdjUzNzhoM0Bvc2cwMmRzMGpgLS1kLjZzYSNvc2cwMmRzMGpgLS1kLjZzcw%3D%3D&vvpl=1&l=02173103962103400000000000000000000ffff0a00afb97d90e8&btag=e00048000&format=mp3&mime_type=audio_mpeg",
        "source_timerange": {
            "start_offset": 28.885846153846156,
            "end_offset": 30.406153846153842
        },
        "target_timerange": {
            "start_offset": 53.509846153846155,
            "end_offset": 55.030153846153844
        },
        "ignore_audio": true,
        "audio_path": null
    },
    {
        "segment_id": "da4044e89d8811efbee9b8cef68aba34",
        "text": "the chimney-piece alone had",
        "audio_url": "https://v16m-default.akamaized.net/b2f781d9cd7b4650c7f029c6657b7319/672de627/video/tos/maliva/tos-maliva-v-f15faa-us/ogIfbc3s7QfNKRTKg5IBezYhuf4AcJnACQc2Ae/?a=7073&bti=OTU0QDItLmA%3D&ch=0&cr=0&dr=4&er=0&lr=unwatermarked&cd=0%7C0%7C0%7C0&br=312&bt=156&ds=5&ft=.cwOVInz7ThRDGvOXq8Zmo&qs=13&rc=ang5eHQ5cjpzdjUzNzhoM0Bpang5eHQ5cjpzdjUzNzhoM0Bvc2cwMmRzMGpgLS1kLjZzYSNvc2cwMmRzMGpgLS1kLjZzcw%3D%3D&vvpl=1&l=02173103962103400000000000000000000ffff0a00afb97d90e8&btag=e00048000&format=mp3&mime_type=audio_mpeg",
        "source_timerange": {
            "start_offset": 30.406153846153853,
            "end_offset": 31.92646153846154
        },
        "target_timerange": {
            "start_offset": 55.03015384615385,
            "end_offset": 56.55046153846154
        },
        "ignore_audio": true,
        "audio_path": null
    },
    {
        "segment_id": "da4045ba9d8811efbee9b8cef68aba34",
        "text": "cost eight hundred pounds, she",
        "audio_url": "https://v16m-default.akamaized.net/b2f781d9cd7b4650c7f029c6657b7319/672de627/video/tos/maliva/tos-maliva-v-f15faa-us/ogIfbc3s7QfNKRTKg5IBezYhuf4AcJnACQc2Ae/?a=7073&bti=OTU0QDItLmA%3D&ch=0&cr=0&dr=4&er=0&lr=unwatermarked&cd=0%7C0%7C0%7C0&br=312&bt=156&ds=5&ft=.cwOVInz7ThRDGvOXq8Zmo&qs=13&rc=ang5eHQ5cjpzdjUzNzhoM0Bpang5eHQ5cjpzdjUzNzhoM0Bvc2cwMmRzMGpgLS1kLjZzYSNvc2cwMmRzMGpgLS1kLjZzcw%3D%3D&vvpl=1&l=02173103962103400000000000000000000ffff0a00afb97d90e8&btag=e00048000&format=mp3&mime_type=audio_mpeg",
        "source_timerange": {
            "start_offset": 31.92646153846155,
            "end_offset": 33.44676923076923
        },
        "target_timerange": {
            "start_offset": 56.55046153846155,
            "end_offset": 58.07076923076923
        },
        "ignore_audio": true,
        "audio_path": null
    },
    {
        "segment_id": "da4046b49d8811efbee9b8cef68aba34",
        "text": "felt all the force of the",
        "audio_url": "https://v16m-default.akamaized.net/b2f781d9cd7b4650c7f029c6657b7319/672de627/video/tos/maliva/tos-maliva-v-f15faa-us/ogIfbc3s7QfNKRTKg5IBezYhuf4AcJnACQc2Ae/?a=7073&bti=OTU0QDItLmA%3D&ch=0&cr=0&dr=4&er=0&lr=unwatermarked&cd=0%7C0%7C0%7C0&br=312&bt=156&ds=5&ft=.cwOVInz7ThRDGvOXq8Zmo&qs=13&rc=ang5eHQ5cjpzdjUzNzhoM0Bpang5eHQ5cjpzdjUzNzhoM0Bvc2cwMmRzMGpgLS1kLjZzYSNvc2cwMmRzMGpgLS1kLjZzcw%3D%3D&vvpl=1&l=02173103962103400000000000000000000ffff0a00afb97d90e8&btag=e00048000&format=mp3&mime_type=audio_mpeg",
        "source_timerange": {
            "start_offset": 33.446769230769235,
            "end_offset": 34.967076923076924
        },
        "target_timerange": {
            "start_offset": 58.07076923076923,
            "end_offset": 59.591076923076926
        },
        "ignore_audio": true,
        "audio_path": null
    },
    {
        "segment_id": "da4047869d8811efbee9b8cef68aba34",
        "text": "compliment, and would hardly",
        "audio_url": "https://v16m-default.akamaized.net/b2f781d9cd7b4650c7f029c6657b7319/672de627/video/tos/maliva/tos-maliva-v-f15faa-us/ogIfbc3s7QfNKRTKg5IBezYhuf4AcJnACQc2Ae/?a=7073&bti=OTU0QDItLmA%3D&ch=0&cr=0&dr=4&er=0&lr=unwatermarked&cd=0%7C0%7C0%7C0&br=312&bt=156&ds=5&ft=.cwOVInz7ThRDGvOXq8Zmo&qs=13&rc=ang5eHQ5cjpzdjUzNzhoM0Bpang5eHQ5cjpzdjUzNzhoM0Bvc2cwMmRzMGpgLS1kLjZzYSNvc2cwMmRzMGpgLS1kLjZzcw%3D%3D&vvpl=1&l=02173103962103400000000000000000000ffff0a00afb97d90e8&btag=e00048000&format=mp3&mime_type=audio_mpeg",
        "source_timerange": {
            "start_offset": 34.96707692307693,
            "end_offset": 36.48738461538461
        },
        "target_timerange": {
            "start_offset": 59.591076923076926,
            "end_offset": 61.111384615384615
        },
        "ignore_audio": true,
        "audio_path": null
    },
    {
        "segment_id": "da40486c9d8811efbee9b8cef68aba34",
        "text": "have resented a comparison",
        "audio_url": "https://v16m-default.akamaized.net/b2f781d9cd7b4650c7f029c6657b7319/672de627/video/tos/maliva/tos-maliva-v-f15faa-us/ogIfbc3s7QfNKRTKg5IBezYhuf4AcJnACQc2Ae/?a=7073&bti=OTU0QDItLmA%3D&ch=0&cr=0&dr=4&er=0&lr=unwatermarked&cd=0%7C0%7C0%7C0&br=312&bt=156&ds=5&ft=.cwOVInz7ThRDGvOXq8Zmo&qs=13&rc=ang5eHQ5cjpzdjUzNzhoM0Bpang5eHQ5cjpzdjUzNzhoM0Bvc2cwMmRzMGpgLS1kLjZzYSNvc2cwMmRzMGpgLS1kLjZzcw%3D%3D&vvpl=1&l=02173103962103400000000000000000000ffff0a00afb97d90e8&btag=e00048000&format=mp3&mime_type=audio_mpeg",
        "source_timerange": {
            "start_offset": 36.48738461538463,
            "end_offset": 38.00769230769231
        },
        "target_timerange": {
            "start_offset": 61.11138461538462,
            "end_offset": 62.63169230769231
        },
        "ignore_audio": true,
        "audio_path": null
    },
    {
        "segment_id": "da4049489d8811efbee9b8cef68aba34",
        "text": "with the housekeeper’s room.",
        "audio_url": "https://v16m-default.akamaized.net/b2f781d9cd7b4650c7f029c6657b7319/672de627/video/tos/maliva/tos-maliva-v-f15faa-us/ogIfbc3s7QfNKRTKg5IBezYhuf4AcJnACQc2Ae/?a=7073&bti=OTU0QDItLmA%3D&ch=0&cr=0&dr=4&er=0&lr=unwatermarked&cd=0%7C0%7C0%7C0&br=312&bt=156&ds=5&ft=.cwOVInz7ThRDGvOXq8Zmo&qs=13&rc=ang5eHQ5cjpzdjUzNzhoM0Bpang5eHQ5cjpzdjUzNzhoM0Bvc2cwMmRzMGpgLS1kLjZzYSNvc2cwMmRzMGpgLS1kLjZzcw%3D%3D&vvpl=1&l=02173103962103400000000000000000000ffff0a00afb97d90e8&btag=e00048000&format=mp3&mime_type=audio_mpeg",
        "source_timerange": {
            "start_offset": 38.007692307692324,
            "end_offset": 39.528
        },
        "target_timerange": {
            "start_offset": 62.63169230769232,
            "end_offset": 64.152
        },
        "ignore_audio": true,
        "audio_path": null
    },
    {
        "segment_id": "da408dd69d8811efbee9b8cef68aba34",
        "text": "In describing to her all the",
        "audio_url": "https://v16m-default.akamaized.net/e740ea144131f8cfad5a2494d3ed6b14/672de617/video/tos/maliva/tos-maliva-v-f15faa-us/oMec3OWBFsGtfbPIeILZfIAzFwAJIAESkKAkMu/?a=7073&bti=OTU0QDItLmA%3D&ch=0&cr=0&dr=4&er=0&lr=unwatermarked&cd=0%7C0%7C0%7C0&br=312&bt=156&ds=5&ft=.cwOVInz7ThRDGvOXq8Zmo&qs=13&rc=Mzh4am45cjpzdjUzNzhoM0BpMzh4am45cjpzdjUzNzhoM0BgYmdlMmRzMGpgLS1kLjZzYSNgYmdlMmRzMGpgLS1kLjZzcw%3D%3D&vvpl=1&l=02173103962103400000000000000000000ffff0a00afb97d90e8&btag=e00078000&format=mp3&mime_type=audio_mpeg",
        "source_timerange": {
            "start_offset": 0,
            "end_offset": 1.4940000000000033
        },
        "target_timerange": {
            "start_offset": 64.152,
            "end_offset": 65.646
        },
        "ignore_audio": false,
        "audio_path": null
    },
    {
        "segment_id": "da408f489d8811efbee9b8cef68aba34",
        "text": "grandeur of Lady Catherine",
        "audio_url": "https://v16m-default.akamaized.net/e740ea144131f8cfad5a2494d3ed6b14/672de617/video/tos/maliva/tos-maliva-v-f15faa-us/oMec3OWBFsGtfbPIeILZfIAzFwAJIAESkKAkMu/?a=7073&bti=OTU0QDItLmA%3D&ch=0&cr=0&dr=4&er=0&lr=unwatermarked&cd=0%7C0%7C0%7C0&br=312&bt=156&ds=5&ft=.cwOVInz7ThRDGvOXq8Zmo&qs=13&rc=Mzh4am45cjpzdjUzNzhoM0BpMzh4am45cjpzdjUzNzhoM0BgYmdlMmRzMGpgLS1kLjZzYSNgYmdlMmRzMGpgLS1kLjZzcw%3D%3D&vvpl=1&l=02173103962103400000000000000000000ffff0a00afb97d90e8&btag=e00078000&format=mp3&mime_type=audio_mpeg",
        "source_timerange": {
            "start_offset": 1.4939999999999998,
            "end_offset": 2.988000000000003
        },
        "target_timerange": {
            "start_offset": 65.646,
            "end_offset": 67.14
        },
        "ignore_audio": true,
        "audio_path": null
    },
    {
        "segment_id": "da40904c9d8811efbee9b8cef68aba34",
        "text": "and her mansion, with",
        "audio_url": "https://v16m-default.akamaized.net/e740ea144131f8cfad5a2494d3ed6b14/672de617/video/tos/maliva/tos-maliva-v-f15faa-us/oMec3OWBFsGtfbPIeILZfIAzFwAJIAESkKAkMu/?a=7073&bti=OTU0QDItLmA%3D&ch=0&cr=0&dr=4&er=0&lr=unwatermarked&cd=0%7C0%7C0%7C0&br=312&bt=156&ds=5&ft=.cwOVInz7ThRDGvOXq8Zmo&qs=13&rc=Mzh4am45cjpzdjUzNzhoM0BpMzh4am45cjpzdjUzNzhoM0BgYmdlMmRzMGpgLS1kLjZzYSNgYmdlMmRzMGpgLS1kLjZzcw%3D%3D&vvpl=1&l=02173103962103400000000000000000000ffff0a00afb97d90e8&btag=e00078000&format=mp3&mime_type=audio_mpeg",
        "source_timerange": {
            "start_offset": 2.9879999999999995,
            "end_offset": 4.482000000000003
        },
        "target_timerange": {
            "start_offset": 67.14,
            "end_offset": 68.634
        },
        "ignore_audio": true,
        "audio_path": null
    },
    {
        "segment_id": "da4091329d8811efbee9b8cef68aba34",
        "text": "occasional digressions in",
        "audio_url": "https://v16m-default.akamaized.net/e740ea144131f8cfad5a2494d3ed6b14/672de617/video/tos/maliva/tos-maliva-v-f15faa-us/oMec3OWBFsGtfbPIeILZfIAzFwAJIAESkKAkMu/?a=7073&bti=OTU0QDItLmA%3D&ch=0&cr=0&dr=4&er=0&lr=unwatermarked&cd=0%7C0%7C0%7C0&br=312&bt=156&ds=5&ft=.cwOVInz7ThRDGvOXq8Zmo&qs=13&rc=Mzh4am45cjpzdjUzNzhoM0BpMzh4am45cjpzdjUzNzhoM0BgYmdlMmRzMGpgLS1kLjZzYSNgYmdlMmRzMGpgLS1kLjZzcw%3D%3D&vvpl=1&l=02173103962103400000000000000000000ffff0a00afb97d90e8&btag=e00078000&format=mp3&mime_type=audio_mpeg",
        "source_timerange": {
            "start_offset": 4.481999999999999,
            "end_offset": 5.976000000000003
        },
        "target_timerange": {
            "start_offset": 68.634,
            "end_offset": 70.128
        },
        "ignore_audio": true,
        "audio_path": null
    },
    {
        "segment_id": "da40920e9d8811efbee9b8cef68aba34",
        "text": "praise of his own humble",
        "audio_url": "https://v16m-default.akamaized.net/e740ea144131f8cfad5a2494d3ed6b14/672de617/video/tos/maliva/tos-maliva-v-f15faa-us/oMec3OWBFsGtfbPIeILZfIAzFwAJIAESkKAkMu/?a=7073&bti=OTU0QDItLmA%3D&ch=0&cr=0&dr=4&er=0&lr=unwatermarked&cd=0%7C0%7C0%7C0&br=312&bt=156&ds=5&ft=.cwOVInz7ThRDGvOXq8Zmo&qs=13&rc=Mzh4am45cjpzdjUzNzhoM0BpMzh4am45cjpzdjUzNzhoM0BgYmdlMmRzMGpgLS1kLjZzYSNgYmdlMmRzMGpgLS1kLjZzcw%3D%3D&vvpl=1&l=02173103962103400000000000000000000ffff0a00afb97d90e8&btag=e00078000&format=mp3&mime_type=audio_mpeg",
        "source_timerange": {
            "start_offset": 5.975999999999999,
            "end_offset": 7.470000000000002
        },
        "target_timerange": {
            "start_offset": 70.128,
            "end_offset": 71.622
        },
        "ignore_audio": true,
        "audio_path": null
    },
    {
        "segment_id": "da4092ea9d8811efbee9b8cef68aba34",
        "text": "abode, and the improvements",
        "audio_url": "https://v16m-default.akamaized.net/e740ea144131f8cfad5a2494d3ed6b14/672de617/video/tos/maliva/tos-maliva-v-f15faa-us/oMec3OWBFsGtfbPIeILZfIAzFwAJIAESkKAkMu/?a=7073&bti=OTU0QDItLmA%3D&ch=0&cr=0&dr=4&er=0&lr=unwatermarked&cd=0%7C0%7C0%7C0&br=312&bt=156&ds=5&ft=.cwOVInz7ThRDGvOXq8Zmo&qs=13&rc=Mzh4am45cjpzdjUzNzhoM0BpMzh4am45cjpzdjUzNzhoM0BgYmdlMmRzMGpgLS1kLjZzYSNgYmdlMmRzMGpgLS1kLjZzcw%3D%3D&vvpl=1&l=02173103962103400000000000000000000ffff0a00afb97d90e8&btag=e00078000&format=mp3&mime_type=audio_mpeg",
        "source_timerange": {
            "start_offset": 7.469999999999999,
            "end_offset": 8.964000000000002
        },
        "target_timerange": {
            "start_offset": 71.622,
            "end_offset": 73.116
        },
        "ignore_audio": true,
        "audio_path": null
    },
    {
        "segment_id": "da4093bc9d8811efbee9b8cef68aba34",
        "text": "it was receiving, he was",
        "audio_url": "https://v16m-default.akamaized.net/e740ea144131f8cfad5a2494d3ed6b14/672de617/video/tos/maliva/tos-maliva-v-f15faa-us/oMec3OWBFsGtfbPIeILZfIAzFwAJIAESkKAkMu/?a=7073&bti=OTU0QDItLmA%3D&ch=0&cr=0&dr=4&er=0&lr=unwatermarked&cd=0%7C0%7C0%7C0&br=312&bt=156&ds=5&ft=.cwOVInz7ThRDGvOXq8Zmo&qs=13&rc=Mzh4am45cjpzdjUzNzhoM0BpMzh4am45cjpzdjUzNzhoM0BgYmdlMmRzMGpgLS1kLjZzYSNgYmdlMmRzMGpgLS1kLjZzcw%3D%3D&vvpl=1&l=02173103962103400000000000000000000ffff0a00afb97d90e8&btag=e00078000&format=mp3&mime_type=audio_mpeg",
        "source_timerange": {
            "start_offset": 8.963999999999999,
            "end_offset": 10.458000000000002
        },
        "target_timerange": {
            "start_offset": 73.116,
            "end_offset": 74.61
        },
        "ignore_audio": true,
        "audio_path": null
    },
    {
        "segment_id": "da40948e9d8811efbee9b8cef68aba34",
        "text": "happily employed until the",
        "audio_url": "https://v16m-default.akamaized.net/e740ea144131f8cfad5a2494d3ed6b14/672de617/video/tos/maliva/tos-maliva-v-f15faa-us/oMec3OWBFsGtfbPIeILZfIAzFwAJIAESkKAkMu/?a=7073&bti=OTU0QDItLmA%3D&ch=0&cr=0&dr=4&er=0&lr=unwatermarked&cd=0%7C0%7C0%7C0&br=312&bt=156&ds=5&ft=.cwOVInz7ThRDGvOXq8Zmo&qs=13&rc=Mzh4am45cjpzdjUzNzhoM0BpMzh4am45cjpzdjUzNzhoM0BgYmdlMmRzMGpgLS1kLjZzYSNgYmdlMmRzMGpgLS1kLjZzcw%3D%3D&vvpl=1&l=02173103962103400000000000000000000ffff0a00afb97d90e8&btag=e00078000&format=mp3&mime_type=audio_mpeg",
        "source_timerange": {
            "start_offset": 10.457999999999998,
            "end_offset": 11.952000000000002
        },
        "target_timerange": {
            "start_offset": 74.61,
            "end_offset": 76.104
        },
        "ignore_audio": true,
        "audio_path": null
    },
    {
        "segment_id": "da40956a9d8811efbee9b8cef68aba34",
        "text": "gentlemen joined them; and he",
        "audio_url": "https://v16m-default.akamaized.net/e740ea144131f8cfad5a2494d3ed6b14/672de617/video/tos/maliva/tos-maliva-v-f15faa-us/oMec3OWBFsGtfbPIeILZfIAzFwAJIAESkKAkMu/?a=7073&bti=OTU0QDItLmA%3D&ch=0&cr=0&dr=4&er=0&lr=unwatermarked&cd=0%7C0%7C0%7C0&br=312&bt=156&ds=5&ft=.cwOVInz7ThRDGvOXq8Zmo&qs=13&rc=Mzh4am45cjpzdjUzNzhoM0BpMzh4am45cjpzdjUzNzhoM0BgYmdlMmRzMGpgLS1kLjZzYSNgYmdlMmRzMGpgLS1kLjZzcw%3D%3D&vvpl=1&l=02173103962103400000000000000000000ffff0a00afb97d90e8&btag=e00078000&format=mp3&mime_type=audio_mpeg",
        "source_timerange": {
            "start_offset": 11.951999999999998,
            "end_offset": 13.446000000000002
        },
        "target_timerange": {
            "start_offset": 76.104,
            "end_offset": 77.598
        },
        "ignore_audio": true,
        "audio_path": null
    },
    {
        "segment_id": "da40963c9d8811efbee9b8cef68aba34",
        "text": "found in Mrs. Philips a very",
        "audio_url": "https://v16m-default.akamaized.net/e740ea144131f8cfad5a2494d3ed6b14/672de617/video/tos/maliva/tos-maliva-v-f15faa-us/oMec3OWBFsGtfbPIeILZfIAzFwAJIAESkKAkMu/?a=7073&bti=OTU0QDItLmA%3D&ch=0&cr=0&dr=4&er=0&lr=unwatermarked&cd=0%7C0%7C0%7C0&br=312&bt=156&ds=5&ft=.cwOVInz7ThRDGvOXq8Zmo&qs=13&rc=Mzh4am45cjpzdjUzNzhoM0BpMzh4am45cjpzdjUzNzhoM0BgYmdlMmRzMGpgLS1kLjZzYSNgYmdlMmRzMGpgLS1kLjZzcw%3D%3D&vvpl=1&l=02173103962103400000000000000000000ffff0a00afb97d90e8&btag=e00078000&format=mp3&mime_type=audio_mpeg",
        "source_timerange": {
            "start_offset": 13.445999999999998,
            "end_offset": 14.940000000000001
        },
        "target_timerange": {
            "start_offset": 77.598,
            "end_offset": 79.092
        },
        "ignore_audio": true,
        "audio_path": null
    },
    {
        "segment_id": "da40970e9d8811efbee9b8cef68aba34",
        "text": "attentive listener, whose",
        "audio_url": "https://v16m-default.akamaized.net/e740ea144131f8cfad5a2494d3ed6b14/672de617/video/tos/maliva/tos-maliva-v-f15faa-us/oMec3OWBFsGtfbPIeILZfIAzFwAJIAESkKAkMu/?a=7073&bti=OTU0QDItLmA%3D&ch=0&cr=0&dr=4&er=0&lr=unwatermarked&cd=0%7C0%7C0%7C0&br=312&bt=156&ds=5&ft=.cwOVInz7ThRDGvOXq8Zmo&qs=13&rc=Mzh4am45cjpzdjUzNzhoM0BpMzh4am45cjpzdjUzNzhoM0BgYmdlMmRzMGpgLS1kLjZzYSNgYmdlMmRzMGpgLS1kLjZzcw%3D%3D&vvpl=1&l=02173103962103400000000000000000000ffff0a00afb97d90e8&btag=e00078000&format=mp3&mime_type=audio_mpeg",
        "source_timerange": {
            "start_offset": 14.939999999999998,
            "end_offset": 16.434
        },
        "target_timerange": {
            "start_offset": 79.092,
            "end_offset": 80.586
        },
        "ignore_audio": true,
        "audio_path": null
    },
    {
        "segment_id": "da4097f49d8811efbee9b8cef68aba34",
        "text": "opinion of his consequence",
        "audio_url": "https://v16m-default.akamaized.net/e740ea144131f8cfad5a2494d3ed6b14/672de617/video/tos/maliva/tos-maliva-v-f15faa-us/oMec3OWBFsGtfbPIeILZfIAzFwAJIAESkKAkMu/?a=7073&bti=OTU0QDItLmA%3D&ch=0&cr=0&dr=4&er=0&lr=unwatermarked&cd=0%7C0%7C0%7C0&br=312&bt=156&ds=5&ft=.cwOVInz7ThRDGvOXq8Zmo&qs=13&rc=Mzh4am45cjpzdjUzNzhoM0BpMzh4am45cjpzdjUzNzhoM0BgYmdlMmRzMGpgLS1kLjZzYSNgYmdlMmRzMGpgLS1kLjZzcw%3D%3D&vvpl=1&l=02173103962103400000000000000000000ffff0a00afb97d90e8&btag=e00078000&format=mp3&mime_type=audio_mpeg",
        "source_timerange": {
            "start_offset": 16.433999999999997,
            "end_offset": 17.928
        },
        "target_timerange": {
            "start_offset": 80.586,
            "end_offset": 82.08
        },
        "ignore_audio": true,
        "audio_path": null
    },
    {
        "segment_id": "da4098bc9d8811efbee9b8cef68aba34",
        "text": "increased with what she",
        "audio_url": "https://v16m-default.akamaized.net/e740ea144131f8cfad5a2494d3ed6b14/672de617/video/tos/maliva/tos-maliva-v-f15faa-us/oMec3OWBFsGtfbPIeILZfIAzFwAJIAESkKAkMu/?a=7073&bti=OTU0QDItLmA%3D&ch=0&cr=0&dr=4&er=0&lr=unwatermarked&cd=0%7C0%7C0%7C0&br=312&bt=156&ds=5&ft=.cwOVInz7ThRDGvOXq8Zmo&qs=13&rc=Mzh4am45cjpzdjUzNzhoM0BpMzh4am45cjpzdjUzNzhoM0BgYmdlMmRzMGpgLS1kLjZzYSNgYmdlMmRzMGpgLS1kLjZzcw%3D%3D&vvpl=1&l=02173103962103400000000000000000000ffff0a00afb97d90e8&btag=e00078000&format=mp3&mime_type=audio_mpeg",
        "source_timerange": {
            "start_offset": 17.927999999999997,
            "end_offset": 19.422
        },
        "target_timerange": {
            "start_offset": 82.08,
            "end_offset": 83.574
        },
        "ignore_audio": true,
        "audio_path": null
    },
    {
        "segment_id": "da4099989d8811efbee9b8cef68aba34",
        "text": "heard, and who was resolving",
        "audio_url": "https://v16m-default.akamaized.net/e740ea144131f8cfad5a2494d3ed6b14/672de617/video/tos/maliva/tos-maliva-v-f15faa-us/oMec3OWBFsGtfbPIeILZfIAzFwAJIAESkKAkMu/?a=7073&bti=OTU0QDItLmA%3D&ch=0&cr=0&dr=4&er=0&lr=unwatermarked&cd=0%7C0%7C0%7C0&br=312&bt=156&ds=5&ft=.cwOVInz7ThRDGvOXq8Zmo&qs=13&rc=Mzh4am45cjpzdjUzNzhoM0BpMzh4am45cjpzdjUzNzhoM0BgYmdlMmRzMGpgLS1kLjZzYSNgYmdlMmRzMGpgLS1kLjZzcw%3D%3D&vvpl=1&l=02173103962103400000000000000000000ffff0a00afb97d90e8&btag=e00078000&format=mp3&mime_type=audio_mpeg",
        "source_timerange": {
            "start_offset": 19.421999999999997,
            "end_offset": 20.916
        },
        "target_timerange": {
            "start_offset": 83.574,
            "end_offset": 85.068
        },
        "ignore_audio": true,
        "audio_path": null
    },
    {
        "segment_id": "da409a749d8811efbee9b8cef68aba34",
        "text": "to retail it all among her",
        "audio_url": "https://v16m-default.akamaized.net/e740ea144131f8cfad5a2494d3ed6b14/672de617/video/tos/maliva/tos-maliva-v-f15faa-us/oMec3OWBFsGtfbPIeILZfIAzFwAJIAESkKAkMu/?a=7073&bti=OTU0QDItLmA%3D&ch=0&cr=0&dr=4&er=0&lr=unwatermarked&cd=0%7C0%7C0%7C0&br=312&bt=156&ds=5&ft=.cwOVInz7ThRDGvOXq8Zmo&qs=13&rc=Mzh4am45cjpzdjUzNzhoM0BpMzh4am45cjpzdjUzNzhoM0BgYmdlMmRzMGpgLS1kLjZzYSNgYmdlMmRzMGpgLS1kLjZzcw%3D%3D&vvpl=1&l=02173103962103400000000000000000000ffff0a00afb97d90e8&btag=e00078000&format=mp3&mime_type=audio_mpeg",
        "source_timerange": {
            "start_offset": 20.915999999999997,
            "end_offset": 22.41
        },
        "target_timerange": {
            "start_offset": 85.068,
            "end_offset": 86.562
        },
        "ignore_audio": true,
        "audio_path": null
    },
    {
        "segment_id": "da409b3c9d8811efbee9b8cef68aba34",
        "text": "neighbours as soon as she could.",
        "audio_url": "https://v16m-default.akamaized.net/e740ea144131f8cfad5a2494d3ed6b14/672de617/video/tos/maliva/tos-maliva-v-f15faa-us/oMec3OWBFsGtfbPIeILZfIAzFwAJIAESkKAkMu/?a=7073&bti=OTU0QDItLmA%3D&ch=0&cr=0&dr=4&er=0&lr=unwatermarked&cd=0%7C0%7C0%7C0&br=312&bt=156&ds=5&ft=.cwOVInz7ThRDGvOXq8Zmo&qs=13&rc=Mzh4am45cjpzdjUzNzhoM0BpMzh4am45cjpzdjUzNzhoM0BgYmdlMmRzMGpgLS1kLjZzYSNgYmdlMmRzMGpgLS1kLjZzcw%3D%3D&vvpl=1&l=02173103962103400000000000000000000ffff0a00afb97d90e8&btag=e00078000&format=mp3&mime_type=audio_mpeg",
        "source_timerange": {
            "start_offset": 22.409999999999997,
            "end_offset": 23.904
        },
        "target_timerange": {
            "start_offset": 86.562,
            "end_offset": 88.056
        },
        "ignore_audio": true,
        "audio_path": null
    },
    {
        "segment_id": "da40bb9e9d8811efbee9b8cef68aba34",
        "text": "To the girls, who could not",
        "audio_url": "https://v16m-default.akamaized.net/0214562c313d9b99b5ad207a2a158bb9/672de60c/video/tos/maliva/tos-maliva-v-f15faa-us/o0lFSAisZXBAqEoyjwACi9tgfzkAAzEwkTEPSs/?a=7073&bti=OTU0QDItLmA%3D&ch=0&cr=0&dr=4&er=0&lr=unwatermarked&cd=0%7C0%7C0%7C0&br=312&bt=156&ds=5&ft=.cwOVInz7ThRDGvOXq8Zmo&qs=13&rc=M2xmN205cjpzdjUzNzhoM0BpM2xmN205cjpzdjUzNzhoM0A2MmZsMmRzMGpgLS1kLjZzYSM2MmZsMmRzMGpgLS1kLjZzcw%3D%3D&vvpl=1&l=02173103962103400000000000000000000ffff0a00afb97d90e8&btag=e00070000&format=mp3&mime_type=audio_mpeg",
        "source_timerange": {
            "start_offset": 0,
            "end_offset": 1.5930000000000035
        },
        "target_timerange": {
            "start_offset": 88.056,
            "end_offset": 89.649
        },
        "ignore_audio": false,
        "audio_path": null
    },
    {
        "segment_id": "da40bcca9d8811efbee9b8cef68aba34",
        "text": "listen to their cousin, and who",
        "audio_url": "https://v16m-default.akamaized.net/0214562c313d9b99b5ad207a2a158bb9/672de60c/video/tos/maliva/tos-maliva-v-f15faa-us/o0lFSAisZXBAqEoyjwACi9tgfzkAAzEwkTEPSs/?a=7073&bti=OTU0QDItLmA%3D&ch=0&cr=0&dr=4&er=0&lr=unwatermarked&cd=0%7C0%7C0%7C0&br=312&bt=156&ds=5&ft=.cwOVInz7ThRDGvOXq8Zmo&qs=13&rc=M2xmN205cjpzdjUzNzhoM0BpM2xmN205cjpzdjUzNzhoM0A2MmZsMmRzMGpgLS1kLjZzYSM2MmZsMmRzMGpgLS1kLjZzcw%3D%3D&vvpl=1&l=02173103962103400000000000000000000ffff0a00afb97d90e8&btag=e00070000&format=mp3&mime_type=audio_mpeg",
        "source_timerange": {
            "start_offset": 1.5930000000000035,
            "end_offset": 3.185999999999993
        },
        "target_timerange": {
            "start_offset": 89.649,
            "end_offset": 91.24199999999999
        },
        "ignore_audio": true,
        "audio_path": null
    },
    {
        "segment_id": "da40bdba9d8811efbee9b8cef68aba34",
        "text": "had nothing to do but to wish",
        "audio_url": "https://v16m-default.akamaized.net/0214562c313d9b99b5ad207a2a158bb9/672de60c/video/tos/maliva/tos-maliva-v-f15faa-us/o0lFSAisZXBAqEoyjwACi9tgfzkAAzEwkTEPSs/?a=7073&bti=OTU0QDItLmA%3D&ch=0&cr=0&dr=4&er=0&lr=unwatermarked&cd=0%7C0%7C0%7C0&br=312&bt=156&ds=5&ft=.cwOVInz7ThRDGvOXq8Zmo&qs=13&rc=M2xmN205cjpzdjUzNzhoM0BpM2xmN205cjpzdjUzNzhoM0A2MmZsMmRzMGpgLS1kLjZzYSM2MmZsMmRzMGpgLS1kLjZzcw%3D%3D&vvpl=1&l=02173103962103400000000000000000000ffff0a00afb97d90e8&btag=e00070000&format=mp3&mime_type=audio_mpeg",
        "source_timerange": {
            "start_offset": 3.185999999999993,
            "end_offset": 4.778999999999996
        },
        "target_timerange": {
            "start_offset": 91.24199999999999,
            "end_offset": 92.835
        },
        "ignore_audio": true,
        "audio_path": null
    },
    {
        "segment_id": "da40be969d8811efbee9b8cef68aba34",
        "text": "for an instrument, and examine",
        "audio_url": "https://v16m-default.akamaized.net/0214562c313d9b99b5ad207a2a158bb9/672de60c/video/tos/maliva/tos-maliva-v-f15faa-us/o0lFSAisZXBAqEoyjwACi9tgfzkAAzEwkTEPSs/?a=7073&bti=OTU0QDItLmA%3D&ch=0&cr=0&dr=4&er=0&lr=unwatermarked&cd=0%7C0%7C0%7C0&br=312&bt=156&ds=5&ft=.cwOVInz7ThRDGvOXq8Zmo&qs=13&rc=M2xmN205cjpzdjUzNzhoM0BpM2xmN205cjpzdjUzNzhoM0A2MmZsMmRzMGpgLS1kLjZzYSM2MmZsMmRzMGpgLS1kLjZzcw%3D%3D&vvpl=1&l=02173103962103400000000000000000000ffff0a00afb97d90e8&btag=e00070000&format=mp3&mime_type=audio_mpeg",
        "source_timerange": {
            "start_offset": 4.778999999999996,
            "end_offset": 6.372
        },
        "target_timerange": {
            "start_offset": 92.835,
            "end_offset": 94.428
        },
        "ignore_audio": true,
        "audio_path": null
    },
    {
        "segment_id": "da40bf7c9d8811efbee9b8cef68aba34",
        "text": "their own indifferent",
        "audio_url": "https://v16m-default.akamaized.net/0214562c313d9b99b5ad207a2a158bb9/672de60c/video/tos/maliva/tos-maliva-v-f15faa-us/o0lFSAisZXBAqEoyjwACi9tgfzkAAzEwkTEPSs/?a=7073&bti=OTU0QDItLmA%3D&ch=0&cr=0&dr=4&er=0&lr=unwatermarked&cd=0%7C0%7C0%7C0&br=312&bt=156&ds=5&ft=.cwOVInz7ThRDGvOXq8Zmo&qs=13&rc=M2xmN205cjpzdjUzNzhoM0BpM2xmN205cjpzdjUzNzhoM0A2MmZsMmRzMGpgLS1kLjZzYSM2MmZsMmRzMGpgLS1kLjZzcw%3D%3D&vvpl=1&l=02173103962103400000000000000000000ffff0a00afb97d90e8&btag=e00070000&format=mp3&mime_type=audio_mpeg",
        "source_timerange": {
            "start_offset": 6.372,
            "end_offset": 7.965000000000003
        },
        "target_timerange": {
            "start_offset": 94.428,
            "end_offset": 96.021
        },
        "ignore_audio": true,
        "audio_path": null
    },
    {
        "segment_id": "da40c0589d8811efbee9b8cef68aba34",
        "text": "imitations of china on the",
        "audio_url": "https://v16m-default.akamaized.net/0214562c313d9b99b5ad207a2a158bb9/672de60c/video/tos/maliva/tos-maliva-v-f15faa-us/o0lFSAisZXBAqEoyjwACi9tgfzkAAzEwkTEPSs/?a=7073&bti=OTU0QDItLmA%3D&ch=0&cr=0&dr=4&er=0&lr=unwatermarked&cd=0%7C0%7C0%7C0&br=312&bt=156&ds=5&ft=.cwOVInz7ThRDGvOXq8Zmo&qs=13&rc=M2xmN205cjpzdjUzNzhoM0BpM2xmN205cjpzdjUzNzhoM0A2MmZsMmRzMGpgLS1kLjZzYSM2MmZsMmRzMGpgLS1kLjZzcw%3D%3D&vvpl=1&l=02173103962103400000000000000000000ffff0a00afb97d90e8&btag=e00070000&format=mp3&mime_type=audio_mpeg",
        "source_timerange": {
            "start_offset": 7.965000000000003,
            "end_offset": 9.558000000000007
        },
        "target_timerange": {
            "start_offset": 96.021,
            "end_offset": 97.614
        },
        "ignore_audio": true,
        "audio_path": null
    },
    {
        "segment_id": "da40c13e9d8811efbee9b8cef68aba34",
        "text": "mantel-piece, the interval of",
        "audio_url": "https://v16m-default.akamaized.net/0214562c313d9b99b5ad207a2a158bb9/672de60c/video/tos/maliva/tos-maliva-v-f15faa-us/o0lFSAisZXBAqEoyjwACi9tgfzkAAzEwkTEPSs/?a=7073&bti=OTU0QDItLmA%3D&ch=0&cr=0&dr=4&er=0&lr=unwatermarked&cd=0%7C0%7C0%7C0&br=312&bt=156&ds=5&ft=.cwOVInz7ThRDGvOXq8Zmo&qs=13&rc=M2xmN205cjpzdjUzNzhoM0BpM2xmN205cjpzdjUzNzhoM0A2MmZsMmRzMGpgLS1kLjZzYSM2MmZsMmRzMGpgLS1kLjZzcw%3D%3D&vvpl=1&l=02173103962103400000000000000000000ffff0a00afb97d90e8&btag=e00070000&format=mp3&mime_type=audio_mpeg",
        "source_timerange": {
            "start_offset": 9.558000000000007,
            "end_offset": 11.150999999999996
        },
        "target_timerange": {
            "start_offset": 97.614,
            "end_offset": 99.207
        },
        "ignore_audio": true,
        "audio_path": null
    },
    {
        "segment_id": "da40c2249d8811efbee9b8cef68aba34",
        "text": "waiting appeared very long.",
        "audio_url": "https://v16m-default.akamaized.net/0214562c313d9b99b5ad207a2a158bb9/672de60c/video/tos/maliva/tos-maliva-v-f15faa-us/o0lFSAisZXBAqEoyjwACi9tgfzkAAzEwkTEPSs/?a=7073&bti=OTU0QDItLmA%3D&ch=0&cr=0&dr=4&er=0&lr=unwatermarked&cd=0%7C0%7C0%7C0&br=312&bt=156&ds=5&ft=.cwOVInz7ThRDGvOXq8Zmo&qs=13&rc=M2xmN205cjpzdjUzNzhoM0BpM2xmN205cjpzdjUzNzhoM0A2MmZsMmRzMGpgLS1kLjZzYSM2MmZsMmRzMGpgLS1kLjZzcw%3D%3D&vvpl=1&l=02173103962103400000000000000000000ffff0a00afb97d90e8&btag=e00070000&format=mp3&mime_type=audio_mpeg",
        "source_timerange": {
            "start_offset": 11.150999999999996,
            "end_offset": 12.744
        },
        "target_timerange": {
            "start_offset": 99.207,
            "end_offset": 100.8
        },
        "ignore_audio": true,
        "audio_path": null
    },
    {
        "segment_id": "da40c9369d8811efbee9b8cef68aba34",
        "text": "It was over at last, however.",
        "audio_url": "https://v16m-default.akamaized.net/0af609fc8dbaf4d1f089c071388e551b/672de601/video/tos/maliva/tos-maliva-v-f15faa-us/ocsFoBLt8IGefPAuZeAAeAI6cbI9WGpFkAzkIE/?a=7073&bti=OTU0QDItLmA%3D&ch=0&cr=0&dr=4&er=0&lr=unwatermarked&cd=0%7C0%7C0%7C0&br=312&bt=156&ds=5&ft=.cwOVInz7ThRDGvOXq8Zmo&qs=13&rc=amk8O205cjpzdjUzNzhoM0Bpamk8O205cjpzdjUzNzhoM0A0aC5zMmRzMGpgLS1kLjZzYSM0aC5zMmRzMGpgLS1kLjZzcw%3D%3D&vvpl=1&l=02173103962103400000000000000000000ffff0a00afb97d90e8&btag=e00070000&format=mp3&mime_type=audio_mpeg",
        "source_timerange": {
            "start_offset": 0,
            "end_offset": 1.872
        },
        "target_timerange": {
            "start_offset": 100.8,
            "end_offset": 102.672
        },
        "ignore_audio": false,
        "audio_path": null
    },
    {
        "segment_id": "da40e84e9d8811efbee9b8cef68aba34",
        "text": "The gentlemen did approach:",
        "audio_url": "https://v16m-default.akamaized.net/92dc91c25a9a2dc6230018962cabc77e/672de60c/video/tos/maliva/tos-maliva-v-f15faa-us/osCryfIgSEXFUEyIBfrt4WfUAMD4CCAIuAzOZb/?a=7073&bti=OTU0QDItLmA%3D&ch=0&cr=0&dr=4&er=0&lr=unwatermarked&cd=0%7C0%7C0%7C0&br=312&bt=156&ds=5&ft=.cwOVInz7ThRDGvOXq8Zmo&qs=13&rc=M3BxZHY5cjpzdjUzNzhoM0BpM3BxZHY5cjpzdjUzNzhoM0BpYmYzMmRzMGpgLS1kLjZzYSNpYmYzMmRzMGpgLS1kLjZzcw%3D%3D&vvpl=1&l=02173103962103400000000000000000000ffff0a00afb97d90e8&btag=e00070000&format=mp3&mime_type=audio_mpeg",
        "source_timerange": {
            "start_offset": 0,
            "end_offset": 1.5420000000000034
        },
        "target_timerange": {
            "start_offset": 102.672,
            "end_offset": 104.214
        },
        "ignore_audio": false,
        "audio_path": null
    },
    {
        "segment_id": "da40e9709d8811efbee9b8cef68aba34",
        "text": "and when Mr. Wickham walked",
        "audio_url": "https://v16m-default.akamaized.net/92dc91c25a9a2dc6230018962cabc77e/672de60c/video/tos/maliva/tos-maliva-v-f15faa-us/osCryfIgSEXFUEyIBfrt4WfUAMD4CCAIuAzOZb/?a=7073&bti=OTU0QDItLmA%3D&ch=0&cr=0&dr=4&er=0&lr=unwatermarked&cd=0%7C0%7C0%7C0&br=312&bt=156&ds=5&ft=.cwOVInz7ThRDGvOXq8Zmo&qs=13&rc=M3BxZHY5cjpzdjUzNzhoM0BpM3BxZHY5cjpzdjUzNzhoM0BpYmYzMmRzMGpgLS1kLjZzYSNpYmYzMmRzMGpgLS1kLjZzcw%3D%3D&vvpl=1&l=02173103962103400000000000000000000ffff0a00afb97d90e8&btag=e00070000&format=mp3&mime_type=audio_mpeg",
        "source_timerange": {
            "start_offset": 1.5420000000000016,
            "end_offset": 3.084000000000005
        },
        "target_timerange": {
            "start_offset": 104.214,
            "end_offset": 105.756
        },
        "ignore_audio": true,
        "audio_path": null
    },
    {
        "segment_id": "da40eae29d8811efbee9b8cef68aba34",
        "text": "into the room, Elizabeth felt",
        "audio_url": "https://v16m-default.akamaized.net/92dc91c25a9a2dc6230018962cabc77e/672de60c/video/tos/maliva/tos-maliva-v-f15faa-us/osCryfIgSEXFUEyIBfrt4WfUAMD4CCAIuAzOZb/?a=7073&bti=OTU0QDItLmA%3D&ch=0&cr=0&dr=4&er=0&lr=unwatermarked&cd=0%7C0%7C0%7C0&br=312&bt=156&ds=5&ft=.cwOVInz7ThRDGvOXq8Zmo&qs=13&rc=M3BxZHY5cjpzdjUzNzhoM0BpM3BxZHY5cjpzdjUzNzhoM0BpYmYzMmRzMGpgLS1kLjZzYSNpYmYzMmRzMGpgLS1kLjZzcw%3D%3D&vvpl=1&l=02173103962103400000000000000000000ffff0a00afb97d90e8&btag=e00070000&format=mp3&mime_type=audio_mpeg",
        "source_timerange": {
            "start_offset": 3.084000000000003,
            "end_offset": 4.6260000000000066
        },
        "target_timerange": {
            "start_offset": 105.756,
            "end_offset": 107.298
        },
        "ignore_audio": true,
        "audio_path": null
    },
    {
        "segment_id": "da40ebc89d8811efbee9b8cef68aba34",
        "text": "that she had neither been",
        "audio_url": "https://v16m-default.akamaized.net/92dc91c25a9a2dc6230018962cabc77e/672de60c/video/tos/maliva/tos-maliva-v-f15faa-us/osCryfIgSEXFUEyIBfrt4WfUAMD4CCAIuAzOZb/?a=7073&bti=OTU0QDItLmA%3D&ch=0&cr=0&dr=4&er=0&lr=unwatermarked&cd=0%7C0%7C0%7C0&br=312&bt=156&ds=5&ft=.cwOVInz7ThRDGvOXq8Zmo&qs=13&rc=M3BxZHY5cjpzdjUzNzhoM0BpM3BxZHY5cjpzdjUzNzhoM0BpYmYzMmRzMGpgLS1kLjZzYSNpYmYzMmRzMGpgLS1kLjZzcw%3D%3D&vvpl=1&l=02173103962103400000000000000000000ffff0a00afb97d90e8&btag=e00070000&format=mp3&mime_type=audio_mpeg",
        "source_timerange": {
            "start_offset": 4.626000000000005,
            "end_offset": 6.168000000000008
        },
        "target_timerange": {
            "start_offset": 107.298,
            "end_offset": 108.84
        },
        "ignore_audio": true,
        "audio_path": null
    },
    {
        "segment_id": "da40ec9a9d8811efbee9b8cef68aba34",
        "text": "seeing him before, nor",
        "audio_url": "https://v16m-default.akamaized.net/92dc91c25a9a2dc6230018962cabc77e/672de60c/video/tos/maliva/tos-maliva-v-f15faa-us/osCryfIgSEXFUEyIBfrt4WfUAMD4CCAIuAzOZb/?a=7073&bti=OTU0QDItLmA%3D&ch=0&cr=0&dr=4&er=0&lr=unwatermarked&cd=0%7C0%7C0%7C0&br=312&bt=156&ds=5&ft=.cwOVInz7ThRDGvOXq8Zmo&qs=13&rc=M3BxZHY5cjpzdjUzNzhoM0BpM3BxZHY5cjpzdjUzNzhoM0BpYmYzMmRzMGpgLS1kLjZzYSNpYmYzMmRzMGpgLS1kLjZzcw%3D%3D&vvpl=1&l=02173103962103400000000000000000000ffff0a00afb97d90e8&btag=e00070000&format=mp3&mime_type=audio_mpeg",
        "source_timerange": {
            "start_offset": 6.168000000000006,
            "end_offset": 7.7099999999999955
        },
        "target_timerange": {
            "start_offset": 108.84,
            "end_offset": 110.38199999999999
        },
        "ignore_audio": true,
        "audio_path": null
    },
    {
        "segment_id": "da40ed6c9d8811efbee9b8cef68aba34",
        "text": "thinking of him since, with",
        "audio_url": "https://v16m-default.akamaized.net/92dc91c25a9a2dc6230018962cabc77e/672de60c/video/tos/maliva/tos-maliva-v-f15faa-us/osCryfIgSEXFUEyIBfrt4WfUAMD4CCAIuAzOZb/?a=7073&bti=OTU0QDItLmA%3D&ch=0&cr=0&dr=4&er=0&lr=unwatermarked&cd=0%7C0%7C0%7C0&br=312&bt=156&ds=5&ft=.cwOVInz7ThRDGvOXq8Zmo&qs=13&rc=M3BxZHY5cjpzdjUzNzhoM0BpM3BxZHY5cjpzdjUzNzhoM0BpYmYzMmRzMGpgLS1kLjZzYSNpYmYzMmRzMGpgLS1kLjZzcw%3D%3D&vvpl=1&l=02173103962103400000000000000000000ffff0a00afb97d90e8&btag=e00070000&format=mp3&mime_type=audio_mpeg",
        "source_timerange": {
            "start_offset": 7.709999999999994,
            "end_offset": 9.251999999999997
        },
        "target_timerange": {
            "start_offset": 110.38199999999999,
            "end_offset": 111.92399999999999
        },
        "ignore_audio": true,
        "audio_path": null
    },
    {
        "segment_id": "da40ee3e9d8811efbee9b8cef68aba34",
        "text": "the smallest degree of",
        "audio_url": "https://v16m-default.akamaized.net/92dc91c25a9a2dc6230018962cabc77e/672de60c/video/tos/maliva/tos-maliva-v-f15faa-us/osCryfIgSEXFUEyIBfrt4WfUAMD4CCAIuAzOZb/?a=7073&bti=OTU0QDItLmA%3D&ch=0&cr=0&dr=4&er=0&lr=unwatermarked&cd=0%7C0%7C0%7C0&br=312&bt=156&ds=5&ft=.cwOVInz7ThRDGvOXq8Zmo&qs=13&rc=M3BxZHY5cjpzdjUzNzhoM0BpM3BxZHY5cjpzdjUzNzhoM0BpYmYzMmRzMGpgLS1kLjZzYSNpYmYzMmRzMGpgLS1kLjZzcw%3D%3D&vvpl=1&l=02173103962103400000000000000000000ffff0a00afb97d90e8&btag=e00070000&format=mp3&mime_type=audio_mpeg",
        "source_timerange": {
            "start_offset": 9.251999999999995,
            "end_offset": 10.793999999999999
        },
        "target_timerange": {
            "start_offset": 111.92399999999999,
            "end_offset": 113.466
        },
        "ignore_audio": true,
        "audio_path": null
    },
    {
        "segment_id": "da40ef069d8811efbee9b8cef68aba34",
        "text": "unreasonable admiration.",
        "audio_url": "https://v16m-default.akamaized.net/92dc91c25a9a2dc6230018962cabc77e/672de60c/video/tos/maliva/tos-maliva-v-f15faa-us/osCryfIgSEXFUEyIBfrt4WfUAMD4CCAIuAzOZb/?a=7073&bti=OTU0QDItLmA%3D&ch=0&cr=0&dr=4&er=0&lr=unwatermarked&cd=0%7C0%7C0%7C0&br=312&bt=156&ds=5&ft=.cwOVInz7ThRDGvOXq8Zmo&qs=13&rc=M3BxZHY5cjpzdjUzNzhoM0BpM3BxZHY5cjpzdjUzNzhoM0BpYmYzMmRzMGpgLS1kLjZzYSNpYmYzMmRzMGpgLS1kLjZzcw%3D%3D&vvpl=1&l=02173103962103400000000000000000000ffff0a00afb97d90e8&btag=e00070000&format=mp3&mime_type=audio_mpeg",
        "source_timerange": {
            "start_offset": 10.793999999999997,
            "end_offset": 12.336
        },
        "target_timerange": {
            "start_offset": 113.466,
            "end_offset": 115.008
        },
        "ignore_audio": true,
        "audio_path": null
    },
    {
        "segment_id": "da41248a9d8811efbee9b8cef68aba34",
        "text": "The officers of the",
        "audio_url": "https://v16m-default.akamaized.net/e353b7a99f3e418c5729b7fdfeb2abd5/672de613/video/tos/maliva/tos-maliva-v-f15faa-us/oYZJEHL8ACkfqewtFAGuEZt7WecAkEAFAkIxes/?a=7073&bti=OTU0QDItLmA%3D&ch=0&cr=0&dr=4&er=0&lr=unwatermarked&cd=0%7C0%7C0%7C0&br=312&bt=156&ds=5&ft=.cwOVInz7ThRDGvOXq8Zmo&qs=13&rc=ang1ang5cjpzdjUzNzhoM0Bpang1ang5cjpzdjUzNzhoM0AwNl9zMmRzMGpgLS1kLjZzYSMwNl9zMmRzMGpgLS1kLjZzcw%3D%3D&vvpl=1&l=02173103962103400000000000000000000ffff0a00afb97d90e8&btag=e00078000&format=mp3&mime_type=audio_mpeg",
        "source_timerange": {
            "start_offset": 0,
            "end_offset": 1.4658461538461616
        },
        "target_timerange": {
            "start_offset": 115.008,
            "end_offset": 116.47384615384615
        },
        "ignore_audio": false,
        "audio_path": null
    },
    {
        "segment_id": "da4125c09d8811efbee9b8cef68aba34",
        "text": "----shire were in general a",
        "audio_url": "https://v16m-default.akamaized.net/e353b7a99f3e418c5729b7fdfeb2abd5/672de613/video/tos/maliva/tos-maliva-v-f15faa-us/oYZJEHL8ACkfqewtFAGuEZt7WecAkEAFAkIxes/?a=7073&bti=OTU0QDItLmA%3D&ch=0&cr=0&dr=4&er=0&lr=unwatermarked&cd=0%7C0%7C0%7C0&br=312&bt=156&ds=5&ft=.cwOVInz7ThRDGvOXq8Zmo&qs=13&rc=ang1ang5cjpzdjUzNzhoM0Bpang1ang5cjpzdjUzNzhoM0AwNl9zMmRzMGpgLS1kLjZzYSMwNl9zMmRzMGpgLS1kLjZzcw%3D%3D&vvpl=1&l=02173103962103400000000000000000000ffff0a00afb97d90e8&btag=e00078000&format=mp3&mime_type=audio_mpeg",
        "source_timerange": {
            "start_offset": 1.465846153846158,
            "end_offset": 2.9316923076923054
        },
        "target_timerange": {
            "start_offset": 116.47384615384615,
            "end_offset": 117.9396923076923
        },
        "ignore_audio": true,
        "audio_path": null
    },
    {
        "segment_id": "da4126b09d8811efbee9b8cef68aba34",
        "text": "very creditable,",
        "audio_url": "https://v16m-default.akamaized.net/e353b7a99f3e418c5729b7fdfeb2abd5/672de613/video/tos/maliva/tos-maliva-v-f15faa-us/oYZJEHL8ACkfqewtFAGuEZt7WecAkEAFAkIxes/?a=7073&bti=OTU0QDItLmA%3D&ch=0&cr=0&dr=4&er=0&lr=unwatermarked&cd=0%7C0%7C0%7C0&br=312&bt=156&ds=5&ft=.cwOVInz7ThRDGvOXq8Zmo&qs=13&rc=ang1ang5cjpzdjUzNzhoM0Bpang1ang5cjpzdjUzNzhoM0AwNl9zMmRzMGpgLS1kLjZzYSMwNl9zMmRzMGpgLS1kLjZzcw%3D%3D&vvpl=1&l=02173103962103400000000000000000000ffff0a00afb97d90e8&btag=e00078000&format=mp3&mime_type=audio_mpeg",
        "source_timerange": {
            "start_offset": 2.931692307692302,
            "end_offset": 4.397538461538463
        },
        "target_timerange": {
            "start_offset": 117.9396923076923,
            "end_offset": 119.40553846153846
        },
        "ignore_audio": true,
        "audio_path": null
    },
    {
        "segment_id": "da4127969d8811efbee9b8cef68aba34",
        "text": "gentlemanlike set and the",
        "audio_url": "https://v16m-default.akamaized.net/e353b7a99f3e418c5729b7fdfeb2abd5/672de613/video/tos/maliva/tos-maliva-v-f15faa-us/oYZJEHL8ACkfqewtFAGuEZt7WecAkEAFAkIxes/?a=7073&bti=OTU0QDItLmA%3D&ch=0&cr=0&dr=4&er=0&lr=unwatermarked&cd=0%7C0%7C0%7C0&br=312&bt=156&ds=5&ft=.cwOVInz7ThRDGvOXq8Zmo&qs=13&rc=ang1ang5cjpzdjUzNzhoM0Bpang1ang5cjpzdjUzNzhoM0AwNl9zMmRzMGpgLS1kLjZzYSMwNl9zMmRzMGpgLS1kLjZzcw%3D%3D&vvpl=1&l=02173103962103400000000000000000000ffff0a00afb97d90e8&btag=e00078000&format=mp3&mime_type=audio_mpeg",
        "source_timerange": {
            "start_offset": 4.39753846153846,
            "end_offset": 5.863384615384621
        },
        "target_timerange": {
            "start_offset": 119.40553846153846,
            "end_offset": 120.87138461538461
        },
        "ignore_audio": true,
        "audio_path": null
    },
    {
        "segment_id": "da4128729d8811efbee9b8cef68aba34",
        "text": "best of them were of the",
        "audio_url": "https://v16m-default.akamaized.net/e353b7a99f3e418c5729b7fdfeb2abd5/672de613/video/tos/maliva/tos-maliva-v-f15faa-us/oYZJEHL8ACkfqewtFAGuEZt7WecAkEAFAkIxes/?a=7073&bti=OTU0QDItLmA%3D&ch=0&cr=0&dr=4&er=0&lr=unwatermarked&cd=0%7C0%7C0%7C0&br=312&bt=156&ds=5&ft=.cwOVInz7ThRDGvOXq8Zmo&qs=13&rc=ang1ang5cjpzdjUzNzhoM0Bpang1ang5cjpzdjUzNzhoM0AwNl9zMmRzMGpgLS1kLjZzYSMwNl9zMmRzMGpgLS1kLjZzcw%3D%3D&vvpl=1&l=02173103962103400000000000000000000ffff0a00afb97d90e8&btag=e00078000&format=mp3&mime_type=audio_mpeg",
        "source_timerange": {
            "start_offset": 5.863384615384618,
            "end_offset": 7.329230769230765
        },
        "target_timerange": {
            "start_offset": 120.87138461538461,
            "end_offset": 122.33723076923076
        },
        "ignore_audio": true,
        "audio_path": null
    },
    {
        "segment_id": "da4129449d8811efbee9b8cef68aba34",
        "text": "present party; but Mr,",
        "audio_url": "https://v16m-default.akamaized.net/e353b7a99f3e418c5729b7fdfeb2abd5/672de613/video/tos/maliva/tos-maliva-v-f15faa-us/oYZJEHL8ACkfqewtFAGuEZt7WecAkEAFAkIxes/?a=7073&bti=OTU0QDItLmA%3D&ch=0&cr=0&dr=4&er=0&lr=unwatermarked&cd=0%7C0%7C0%7C0&br=312&bt=156&ds=5&ft=.cwOVInz7ThRDGvOXq8Zmo&qs=13&rc=ang1ang5cjpzdjUzNzhoM0Bpang1ang5cjpzdjUzNzhoM0AwNl9zMmRzMGpgLS1kLjZzYSMwNl9zMmRzMGpgLS1kLjZzcw%3D%3D&vvpl=1&l=02173103962103400000000000000000000ffff0a00afb97d90e8&btag=e00078000&format=mp3&mime_type=audio_mpeg",
        "source_timerange": {
            "start_offset": 7.329230769230762,
            "end_offset": 8.795076923076923
        },
        "target_timerange": {
            "start_offset": 122.33723076923076,
            "end_offset": 123.80307692307692
        },
        "ignore_audio": true,
        "audio_path": null
    },
    {
        "segment_id": "da412a209d8811efbee9b8cef68aba34",
        "text": "Wickham was as far beyond",
        "audio_url": "https://v16m-default.akamaized.net/e353b7a99f3e418c5729b7fdfeb2abd5/672de613/video/tos/maliva/tos-maliva-v-f15faa-us/oYZJEHL8ACkfqewtFAGuEZt7WecAkEAFAkIxes/?a=7073&bti=OTU0QDItLmA%3D&ch=0&cr=0&dr=4&er=0&lr=unwatermarked&cd=0%7C0%7C0%7C0&br=312&bt=156&ds=5&ft=.cwOVInz7ThRDGvOXq8Zmo&qs=13&rc=ang1ang5cjpzdjUzNzhoM0Bpang1ang5cjpzdjUzNzhoM0AwNl9zMmRzMGpgLS1kLjZzYSMwNl9zMmRzMGpgLS1kLjZzcw%3D%3D&vvpl=1&l=02173103962103400000000000000000000ffff0a00afb97d90e8&btag=e00078000&format=mp3&mime_type=audio_mpeg",
        "source_timerange": {
            "start_offset": 8.79507692307692,
            "end_offset": 10.260923076923081
        },
        "target_timerange": {
            "start_offset": 123.80307692307692,
            "end_offset": 125.26892307692307
        },
        "ignore_audio": true,
        "audio_path": null
    },
    {
        "segment_id": "da412af29d8811efbee9b8cef68aba34",
        "text": "them all in person,",
        "audio_url": "https://v16m-default.akamaized.net/e353b7a99f3e418c5729b7fdfeb2abd5/672de613/video/tos/maliva/tos-maliva-v-f15faa-us/oYZJEHL8ACkfqewtFAGuEZt7WecAkEAFAkIxes/?a=7073&bti=OTU0QDItLmA%3D&ch=0&cr=0&dr=4&er=0&lr=unwatermarked&cd=0%7C0%7C0%7C0&br=312&bt=156&ds=5&ft=.cwOVInz7ThRDGvOXq8Zmo&qs=13&rc=ang1ang5cjpzdjUzNzhoM0Bpang1ang5cjpzdjUzNzhoM0AwNl9zMmRzMGpgLS1kLjZzYSMwNl9zMmRzMGpgLS1kLjZzcw%3D%3D&vvpl=1&l=02173103962103400000000000000000000ffff0a00afb97d90e8&btag=e00078000&format=mp3&mime_type=audio_mpeg",
        "source_timerange": {
            "start_offset": 10.260923076923078,
            "end_offset": 11.72676923076924
        },
        "target_timerange": {
            "start_offset": 125.26892307692307,
            "end_offset": 126.73476923076923
        },
        "ignore_audio": true,
        "audio_path": null
    },
    {
        "segment_id": "da412bd89d8811efbee9b8cef68aba34",
        "text": "countenance, air, and walk,",
        "audio_url": "https://v16m-default.akamaized.net/e353b7a99f3e418c5729b7fdfeb2abd5/672de613/video/tos/maliva/tos-maliva-v-f15faa-us/oYZJEHL8ACkfqewtFAGuEZt7WecAkEAFAkIxes/?a=7073&bti=OTU0QDItLmA%3D&ch=0&cr=0&dr=4&er=0&lr=unwatermarked&cd=0%7C0%7C0%7C0&br=312&bt=156&ds=5&ft=.cwOVInz7ThRDGvOXq8Zmo&qs=13&rc=ang1ang5cjpzdjUzNzhoM0Bpang1ang5cjpzdjUzNzhoM0AwNl9zMmRzMGpgLS1kLjZzYSMwNl9zMmRzMGpgLS1kLjZzcw%3D%3D&vvpl=1&l=02173103962103400000000000000000000ffff0a00afb97d90e8&btag=e00078000&format=mp3&mime_type=audio_mpeg",
        "source_timerange": {
            "start_offset": 11.726769230769222,
            "end_offset": 13.192615384615397
        },
        "target_timerange": {
            "start_offset": 126.73476923076922,
            "end_offset": 128.2006153846154
        },
        "ignore_audio": true,
        "audio_path": null
    },
    {
        "segment_id": "da412cd29d8811efbee9b8cef68aba34",
        "text": "as _they_ were superior to",
        "audio_url": "https://v16m-default.akamaized.net/e353b7a99f3e418c5729b7fdfeb2abd5/672de613/video/tos/maliva/tos-maliva-v-f15faa-us/oYZJEHL8ACkfqewtFAGuEZt7WecAkEAFAkIxes/?a=7073&bti=OTU0QDItLmA%3D&ch=0&cr=0&dr=4&er=0&lr=unwatermarked&cd=0%7C0%7C0%7C0&br=312&bt=156&ds=5&ft=.cwOVInz7ThRDGvOXq8Zmo&qs=13&rc=ang1ang5cjpzdjUzNzhoM0Bpang1ang5cjpzdjUzNzhoM0AwNl9zMmRzMGpgLS1kLjZzYSMwNl9zMmRzMGpgLS1kLjZzcw%3D%3D&vvpl=1&l=02173103962103400000000000000000000ffff0a00afb97d90e8&btag=e00078000&format=mp3&mime_type=audio_mpeg",
        "source_timerange": {
            "start_offset": 13.192615384615394,
            "end_offset": 14.658461538461541
        },
        "target_timerange": {
            "start_offset": 128.2006153846154,
            "end_offset": 129.66646153846153
        },
        "ignore_audio": true,
        "audio_path": null
    },
    {
        "segment_id": "da412da49d8811efbee9b8cef68aba34",
        "text": "the broad-faced stuffy uncle",
        "audio_url": "https://v16m-default.akamaized.net/e353b7a99f3e418c5729b7fdfeb2abd5/672de613/video/tos/maliva/tos-maliva-v-f15faa-us/oYZJEHL8ACkfqewtFAGuEZt7WecAkEAFAkIxes/?a=7073&bti=OTU0QDItLmA%3D&ch=0&cr=0&dr=4&er=0&lr=unwatermarked&cd=0%7C0%7C0%7C0&br=312&bt=156&ds=5&ft=.cwOVInz7ThRDGvOXq8Zmo&qs=13&rc=ang1ang5cjpzdjUzNzhoM0Bpang1ang5cjpzdjUzNzhoM0AwNl9zMmRzMGpgLS1kLjZzYSMwNl9zMmRzMGpgLS1kLjZzcw%3D%3D&vvpl=1&l=02173103962103400000000000000000000ffff0a00afb97d90e8&btag=e00078000&format=mp3&mime_type=audio_mpeg",
        "source_timerange": {
            "start_offset": 14.658461538461538,
            "end_offset": 16.124307692307685
        },
        "target_timerange": {
            "start_offset": 129.66646153846153,
            "end_offset": 131.13230769230768
        },
        "ignore_audio": true,
        "audio_path": null
    },
    {
        "segment_id": "da412e809d8811efbee9b8cef68aba34",
        "text": "Philips, breathing port",
        "audio_url": "https://v16m-default.akamaized.net/e353b7a99f3e418c5729b7fdfeb2abd5/672de613/video/tos/maliva/tos-maliva-v-f15faa-us/oYZJEHL8ACkfqewtFAGuEZt7WecAkEAFAkIxes/?a=7073&bti=OTU0QDItLmA%3D&ch=0&cr=0&dr=4&er=0&lr=unwatermarked&cd=0%7C0%7C0%7C0&br=312&bt=156&ds=5&ft=.cwOVInz7ThRDGvOXq8Zmo&qs=13&rc=ang1ang5cjpzdjUzNzhoM0Bpang1ang5cjpzdjUzNzhoM0AwNl9zMmRzMGpgLS1kLjZzYSMwNl9zMmRzMGpgLS1kLjZzcw%3D%3D&vvpl=1&l=02173103962103400000000000000000000ffff0a00afb97d90e8&btag=e00078000&format=mp3&mime_type=audio_mpeg",
        "source_timerange": {
            "start_offset": 16.12430769230768,
            "end_offset": 17.590153846153857
        },
        "target_timerange": {
            "start_offset": 131.13230769230768,
            "end_offset": 132.59815384615385
        },
        "ignore_audio": true,
        "audio_path": null
    },
    {
        "segment_id": "da412f529d8811efbee9b8cef68aba34",
        "text": "wine, who followed them into the room.",
        "audio_url": "https://v16m-default.akamaized.net/e353b7a99f3e418c5729b7fdfeb2abd5/672de613/video/tos/maliva/tos-maliva-v-f15faa-us/oYZJEHL8ACkfqewtFAGuEZt7WecAkEAFAkIxes/?a=7073&bti=OTU0QDItLmA%3D&ch=0&cr=0&dr=4&er=0&lr=unwatermarked&cd=0%7C0%7C0%7C0&br=312&bt=156&ds=5&ft=.cwOVInz7ThRDGvOXq8Zmo&qs=13&rc=ang1ang5cjpzdjUzNzhoM0Bpang1ang5cjpzdjUzNzhoM0AwNl9zMmRzMGpgLS1kLjZzYSMwNl9zMmRzMGpgLS1kLjZzcw%3D%3D&vvpl=1&l=02173103962103400000000000000000000ffff0a00afb97d90e8&btag=e00078000&format=mp3&mime_type=audio_mpeg",
        "source_timerange": {
            "start_offset": 17.590153846153854,
            "end_offset": 19.056
        },
        "target_timerange": {
            "start_offset": 132.59815384615385,
            "end_offset": 134.064
        },
        "ignore_audio": true,
        "audio_path": null
    },
    {
        "segment_id": "da4181829d8811efbee9b8cef68aba34",
        "text": "[Illustration:  “The",
        "audio_url": "https://v16m-default.akamaized.net/a7b462a3094adc65b7d2f778bd901409/672de61e/video/tos/maliva/tos-maliva-v-f15faa-us/o0iqC5Et5AiRA6BVAofoiIFkAjETZA8Pgslzkw/?a=7073&bti=OTU0QDItLmA%3D&ch=0&cr=0&dr=4&er=0&lr=unwatermarked&cd=0%7C0%7C0%7C0&br=312&bt=156&ds=5&ft=.cwOVInz7ThRDGvOXq8Zmo&qs=13&rc=M208N3M5cjpzdjUzNzhoM0BpM208N3M5cjpzdjUzNzhoM0BoXjUxMmRzMGpgLS1kLjZzYSNoXjUxMmRzMGpgLS1kLjZzcw%3D%3D&vvpl=1&l=02173103962103400000000000000000000ffff0a00afb97d90e8&btag=e00048000&format=mp3&mime_type=audio_mpeg",
        "source_timerange": {
            "start_offset": 0,
            "end_offset": 1.5287999999999684
        },
        "target_timerange": {
            "start_offset": 134.064,
            "end_offset": 135.59279999999998
        },
        "ignore_audio": false,
        "audio_path": null
    },
    {
        "segment_id": "da4182b89d8811efbee9b8cef68aba34",
        "text": "officers of the ----shire”",
        "audio_url": "https://v16m-default.akamaized.net/a7b462a3094adc65b7d2f778bd901409/672de61e/video/tos/maliva/tos-maliva-v-f15faa-us/o0iqC5Et5AiRA6BVAofoiIFkAjETZA8Pgslzkw/?a=7073&bti=OTU0QDItLmA%3D&ch=0&cr=0&dr=4&er=0&lr=unwatermarked&cd=0%7C0%7C0%7C0&br=312&bt=156&ds=5&ft=.cwOVInz7ThRDGvOXq8Zmo&qs=13&rc=M208N3M5cjpzdjUzNzhoM0BpM208N3M5cjpzdjUzNzhoM0BoXjUxMmRzMGpgLS1kLjZzYSNoXjUxMmRzMGpgLS1kLjZzcw%3D%3D&vvpl=1&l=02173103962103400000000000000000000ffff0a00afb97d90e8&btag=e00048000&format=mp3&mime_type=audio_mpeg",
        "source_timerange": {
            "start_offset": 1.5287999999999897,
            "end_offset": 3.0575999999999866
        },
        "target_timerange": {
            "start_offset": 135.59279999999998,
            "end_offset": 137.1216
        },
        "ignore_audio": true,
        "audio_path": null
    },
    {
        "segment_id": "da4183b29d8811efbee9b8cef68aba34",
        "text": "[_Copyright 1894 by George",
        "audio_url": "https://v16m-default.akamaized.net/a7b462a3094adc65b7d2f778bd901409/672de61e/video/tos/maliva/tos-maliva-v-f15faa-us/o0iqC5Et5AiRA6BVAofoiIFkAjETZA8Pgslzkw/?a=7073&bti=OTU0QDItLmA%3D&ch=0&cr=0&dr=4&er=0&lr=unwatermarked&cd=0%7C0%7C0%7C0&br=312&bt=156&ds=5&ft=.cwOVInz7ThRDGvOXq8Zmo&qs=13&rc=M208N3M5cjpzdjUzNzhoM0BpM208N3M5cjpzdjUzNzhoM0BoXjUxMmRzMGpgLS1kLjZzYSNoXjUxMmRzMGpgLS1kLjZzcw%3D%3D&vvpl=1&l=02173103962103400000000000000000000ffff0a00afb97d90e8&btag=e00048000&format=mp3&mime_type=audio_mpeg",
        "source_timerange": {
            "start_offset": 3.057600000000008,
            "end_offset": 4.586399999999976
        },
        "target_timerange": {
            "start_offset": 137.1216,
            "end_offset": 138.6504
        },
        "ignore_audio": true,
        "audio_path": null
    },
    {
        "segment_id": "da4184a29d8811efbee9b8cef68aba34",
        "text": "Allen._]]  Mr. Wickham was",
        "audio_url": "https://v16m-default.akamaized.net/a7b462a3094adc65b7d2f778bd901409/672de61e/video/tos/maliva/tos-maliva-v-f15faa-us/o0iqC5Et5AiRA6BVAofoiIFkAjETZA8Pgslzkw/?a=7073&bti=OTU0QDItLmA%3D&ch=0&cr=0&dr=4&er=0&lr=unwatermarked&cd=0%7C0%7C0%7C0&br=312&bt=156&ds=5&ft=.cwOVInz7ThRDGvOXq8Zmo&qs=13&rc=M208N3M5cjpzdjUzNzhoM0BpM208N3M5cjpzdjUzNzhoM0BoXjUxMmRzMGpgLS1kLjZzYSNoXjUxMmRzMGpgLS1kLjZzcw%3D%3D&vvpl=1&l=02173103962103400000000000000000000ffff0a00afb97d90e8&btag=e00048000&format=mp3&mime_type=audio_mpeg",
        "source_timerange": {
            "start_offset": 4.586399999999998,
            "end_offset": 6.115199999999994
        },
        "target_timerange": {
            "start_offset": 138.6504,
            "end_offset": 140.1792
        },
        "ignore_audio": true,
        "audio_path": null
    },
    {
        "segment_id": "da4185889d8811efbee9b8cef68aba34",
        "text": "the happy man towards whom",
        "audio_url": "https://v16m-default.akamaized.net/a7b462a3094adc65b7d2f778bd901409/672de61e/video/tos/maliva/tos-maliva-v-f15faa-us/o0iqC5Et5AiRA6BVAofoiIFkAjETZA8Pgslzkw/?a=7073&bti=OTU0QDItLmA%3D&ch=0&cr=0&dr=4&er=0&lr=unwatermarked&cd=0%7C0%7C0%7C0&br=312&bt=156&ds=5&ft=.cwOVInz7ThRDGvOXq8Zmo&qs=13&rc=M208N3M5cjpzdjUzNzhoM0BpM208N3M5cjpzdjUzNzhoM0BoXjUxMmRzMGpgLS1kLjZzYSNoXjUxMmRzMGpgLS1kLjZzcw%3D%3D&vvpl=1&l=02173103962103400000000000000000000ffff0a00afb97d90e8&btag=e00048000&format=mp3&mime_type=audio_mpeg",
        "source_timerange": {
            "start_offset": 6.115200000000016,
            "end_offset": 7.643999999999984
        },
        "target_timerange": {
            "start_offset": 140.1792,
            "end_offset": 141.708
        },
        "ignore_audio": true,
        "audio_path": null
    },
    {
        "segment_id": "da4187189d8811efbee9b8cef68aba34",
        "text": "almost every female eye was",
        "audio_url": "https://v16m-default.akamaized.net/a7b462a3094adc65b7d2f778bd901409/672de61e/video/tos/maliva/tos-maliva-v-f15faa-us/o0iqC5Et5AiRA6BVAofoiIFkAjETZA8Pgslzkw/?a=7073&bti=OTU0QDItLmA%3D&ch=0&cr=0&dr=4&er=0&lr=unwatermarked&cd=0%7C0%7C0%7C0&br=312&bt=156&ds=5&ft=.cwOVInz7ThRDGvOXq8Zmo&qs=13&rc=M208N3M5cjpzdjUzNzhoM0BpM208N3M5cjpzdjUzNzhoM0BoXjUxMmRzMGpgLS1kLjZzYSNoXjUxMmRzMGpgLS1kLjZzcw%3D%3D&vvpl=1&l=02173103962103400000000000000000000ffff0a00afb97d90e8&btag=e00048000&format=mp3&mime_type=audio_mpeg",
        "source_timerange": {
            "start_offset": 7.6440000000000055,
            "end_offset": 9.172799999999974
        },
        "target_timerange": {
            "start_offset": 141.708,
            "end_offset": 143.2368
        },
        "ignore_audio": true,
        "audio_path": null
    },
    {
        "segment_id": "da4188449d8811efbee9b8cef68aba34",
        "text": "turned, and Elizabeth was",
        "audio_url": "https://v16m-default.akamaized.net/a7b462a3094adc65b7d2f778bd901409/672de61e/video/tos/maliva/tos-maliva-v-f15faa-us/o0iqC5Et5AiRA6BVAofoiIFkAjETZA8Pgslzkw/?a=7073&bti=OTU0QDItLmA%3D&ch=0&cr=0&dr=4&er=0&lr=unwatermarked&cd=0%7C0%7C0%7C0&br=312&bt=156&ds=5&ft=.cwOVInz7ThRDGvOXq8Zmo&qs=13&rc=M208N3M5cjpzdjUzNzhoM0BpM208N3M5cjpzdjUzNzhoM0BoXjUxMmRzMGpgLS1kLjZzYSNoXjUxMmRzMGpgLS1kLjZzcw%3D%3D&vvpl=1&l=02173103962103400000000000000000000ffff0a00afb97d90e8&btag=e00048000&format=mp3&mime_type=audio_mpeg",
        "source_timerange": {
            "start_offset": 9.172799999999995,
            "end_offset": 10.701599999999992
        },
        "target_timerange": {
            "start_offset": 143.2368,
            "end_offset": 144.7656
        },
        "ignore_audio": true,
        "audio_path": null
    },
    {
        "segment_id": "da41897a9d8811efbee9b8cef68aba34",
        "text": "the happy woman by whom he",
        "audio_url": "https://v16m-default.akamaized.net/a7b462a3094adc65b7d2f778bd901409/672de61e/video/tos/maliva/tos-maliva-v-f15faa-us/o0iqC5Et5AiRA6BVAofoiIFkAjETZA8Pgslzkw/?a=7073&bti=OTU0QDItLmA%3D&ch=0&cr=0&dr=4&er=0&lr=unwatermarked&cd=0%7C0%7C0%7C0&br=312&bt=156&ds=5&ft=.cwOVInz7ThRDGvOXq8Zmo&qs=13&rc=M208N3M5cjpzdjUzNzhoM0BpM208N3M5cjpzdjUzNzhoM0BoXjUxMmRzMGpgLS1kLjZzYSNoXjUxMmRzMGpgLS1kLjZzcw%3D%3D&vvpl=1&l=02173103962103400000000000000000000ffff0a00afb97d90e8&btag=e00048000&format=mp3&mime_type=audio_mpeg",
        "source_timerange": {
            "start_offset": 10.701600000000013,
            "end_offset": 12.230399999999982
        },
        "target_timerange": {
            "start_offset": 144.7656,
            "end_offset": 146.2944
        },
        "ignore_audio": true,
        "audio_path": null
    },
    {
        "segment_id": "da418a9c9d8811efbee9b8cef68aba34",
        "text": "finally seated himself; and",
        "audio_url": "https://v16m-default.akamaized.net/a7b462a3094adc65b7d2f778bd901409/672de61e/video/tos/maliva/tos-maliva-v-f15faa-us/o0iqC5Et5AiRA6BVAofoiIFkAjETZA8Pgslzkw/?a=7073&bti=OTU0QDItLmA%3D&ch=0&cr=0&dr=4&er=0&lr=unwatermarked&cd=0%7C0%7C0%7C0&br=312&bt=156&ds=5&ft=.cwOVInz7ThRDGvOXq8Zmo&qs=13&rc=M208N3M5cjpzdjUzNzhoM0BpM208N3M5cjpzdjUzNzhoM0BoXjUxMmRzMGpgLS1kLjZzYSNoXjUxMmRzMGpgLS1kLjZzcw%3D%3D&vvpl=1&l=02173103962103400000000000000000000ffff0a00afb97d90e8&btag=e00048000&format=mp3&mime_type=audio_mpeg",
        "source_timerange": {
            "start_offset": 12.230400000000003,
            "end_offset": 13.7592
        },
        "target_timerange": {
            "start_offset": 146.2944,
            "end_offset": 147.8232
        },
        "ignore_audio": true,
        "audio_path": null
    },
    {
        "segment_id": "da418bbe9d8811efbee9b8cef68aba34",
        "text": "the agreeable manner in",
        "audio_url": "https://v16m-default.akamaized.net/a7b462a3094adc65b7d2f778bd901409/672de61e/video/tos/maliva/tos-maliva-v-f15faa-us/o0iqC5Et5AiRA6BVAofoiIFkAjETZA8Pgslzkw/?a=7073&bti=OTU0QDItLmA%3D&ch=0&cr=0&dr=4&er=0&lr=unwatermarked&cd=0%7C0%7C0%7C0&br=312&bt=156&ds=5&ft=.cwOVInz7ThRDGvOXq8Zmo&qs=13&rc=M208N3M5cjpzdjUzNzhoM0BpM208N3M5cjpzdjUzNzhoM0BoXjUxMmRzMGpgLS1kLjZzYSNoXjUxMmRzMGpgLS1kLjZzcw%3D%3D&vvpl=1&l=02173103962103400000000000000000000ffff0a00afb97d90e8&btag=e00048000&format=mp3&mime_type=audio_mpeg",
        "source_timerange": {
            "start_offset": 13.759200000000021,
            "end_offset": 15.28799999999999
        },
        "target_timerange": {
            "start_offset": 147.8232,
            "end_offset": 149.352
        },
        "ignore_audio": true,
        "audio_path": null
    },
    {
        "segment_id": "da418cf49d8811efbee9b8cef68aba34",
        "text": "which he immediately fell",
        "audio_url": "https://v16m-default.akamaized.net/a7b462a3094adc65b7d2f778bd901409/672de61e/video/tos/maliva/tos-maliva-v-f15faa-us/o0iqC5Et5AiRA6BVAofoiIFkAjETZA8Pgslzkw/?a=7073&bti=OTU0QDItLmA%3D&ch=0&cr=0&dr=4&er=0&lr=unwatermarked&cd=0%7C0%7C0%7C0&br=312&bt=156&ds=5&ft=.cwOVInz7ThRDGvOXq8Zmo&qs=13&rc=M208N3M5cjpzdjUzNzhoM0BpM208N3M5cjpzdjUzNzhoM0BoXjUxMmRzMGpgLS1kLjZzYSNoXjUxMmRzMGpgLS1kLjZzcw%3D%3D&vvpl=1&l=02173103962103400000000000000000000ffff0a00afb97d90e8&btag=e00048000&format=mp3&mime_type=audio_mpeg",
        "source_timerange": {
            "start_offset": 15.288000000000011,
            "end_offset": 16.81679999999998
        },
        "target_timerange": {
            "start_offset": 149.352,
            "end_offset": 150.8808
        },
        "ignore_audio": true,
        "audio_path": null
    },
    {
        "segment_id": "da418e529d8811efbee9b8cef68aba34",
        "text": "into conversation, though it",
        "audio_url": "https://v16m-default.akamaized.net/a7b462a3094adc65b7d2f778bd901409/672de61e/video/tos/maliva/tos-maliva-v-f15faa-us/o0iqC5Et5AiRA6BVAofoiIFkAjETZA8Pgslzkw/?a=7073&bti=OTU0QDItLmA%3D&ch=0&cr=0&dr=4&er=0&lr=unwatermarked&cd=0%7C0%7C0%7C0&br=312&bt=156&ds=5&ft=.cwOVInz7ThRDGvOXq8Zmo&qs=13&rc=M208N3M5cjpzdjUzNzhoM0BpM208N3M5cjpzdjUzNzhoM0BoXjUxMmRzMGpgLS1kLjZzYSNoXjUxMmRzMGpgLS1kLjZzcw%3D%3D&vvpl=1&l=02173103962103400000000000000000000ffff0a00afb97d90e8&btag=e00048000&format=mp3&mime_type=audio_mpeg",
        "source_timerange": {
            "start_offset": 16.8168,
            "end_offset": 18.345599999999997
        },
        "target_timerange": {
            "start_offset": 150.8808,
            "end_offset": 152.4096
        },
        "ignore_audio": true,
        "audio_path": null
    },
    {
        "segment_id": "da418f929d8811efbee9b8cef68aba34",
        "text": "was only on its being a wet",
        "audio_url": "https://v16m-default.akamaized.net/a7b462a3094adc65b7d2f778bd901409/672de61e/video/tos/maliva/tos-maliva-v-f15faa-us/o0iqC5Et5AiRA6BVAofoiIFkAjETZA8Pgslzkw/?a=7073&bti=OTU0QDItLmA%3D&ch=0&cr=0&dr=4&er=0&lr=unwatermarked&cd=0%7C0%7C0%7C0&br=312&bt=156&ds=5&ft=.cwOVInz7ThRDGvOXq8Zmo&qs=13&rc=M208N3M5cjpzdjUzNzhoM0BpM208N3M5cjpzdjUzNzhoM0BoXjUxMmRzMGpgLS1kLjZzYSNoXjUxMmRzMGpgLS1kLjZzcw%3D%3D&vvpl=1&l=02173103962103400000000000000000000ffff0a00afb97d90e8&btag=e00048000&format=mp3&mime_type=audio_mpeg",
        "source_timerange": {
            "start_offset": 18.34560000000002,
            "end_offset": 19.874399999999987
        },
        "target_timerange": {
            "start_offset": 152.4096,
            "end_offset": 153.9384
        },
        "ignore_audio": true,
        "audio_path": null
    },
    {
        "segment_id": "da4190d29d8811efbee9b8cef68aba34",
        "text": "night, and on the",
        "audio_url": "https://v16m-default.akamaized.net/a7b462a3094adc65b7d2f778bd901409/672de61e/video/tos/maliva/tos-maliva-v-f15faa-us/o0iqC5Et5AiRA6BVAofoiIFkAjETZA8Pgslzkw/?a=7073&bti=OTU0QDItLmA%3D&ch=0&cr=0&dr=4&er=0&lr=unwatermarked&cd=0%7C0%7C0%7C0&br=312&bt=156&ds=5&ft=.cwOVInz7ThRDGvOXq8Zmo&qs=13&rc=M208N3M5cjpzdjUzNzhoM0BpM208N3M5cjpzdjUzNzhoM0BoXjUxMmRzMGpgLS1kLjZzYSNoXjUxMmRzMGpgLS1kLjZzcw%3D%3D&vvpl=1&l=02173103962103400000000000000000000ffff0a00afb97d90e8&btag=e00048000&format=mp3&mime_type=audio_mpeg",
        "source_timerange": {
            "start_offset": 19.87440000000001,
            "end_offset": 21.403200000000005
        },
        "target_timerange": {
            "start_offset": 153.9384,
            "end_offset": 155.46720000000002
        },
        "ignore_audio": true,
        "audio_path": null
    },
    {
        "segment_id": "da4192269d8811efbee9b8cef68aba34",
        "text": "probability of a rainy",
        "audio_url": "https://v16m-default.akamaized.net/a7b462a3094adc65b7d2f778bd901409/672de61e/video/tos/maliva/tos-maliva-v-f15faa-us/o0iqC5Et5AiRA6BVAofoiIFkAjETZA8Pgslzkw/?a=7073&bti=OTU0QDItLmA%3D&ch=0&cr=0&dr=4&er=0&lr=unwatermarked&cd=0%7C0%7C0%7C0&br=312&bt=156&ds=5&ft=.cwOVInz7ThRDGvOXq8Zmo&qs=13&rc=M208N3M5cjpzdjUzNzhoM0BpM208N3M5cjpzdjUzNzhoM0BoXjUxMmRzMGpgLS1kLjZzYSNoXjUxMmRzMGpgLS1kLjZzcw%3D%3D&vvpl=1&l=02173103962103400000000000000000000ffff0a00afb97d90e8&btag=e00048000&format=mp3&mime_type=audio_mpeg",
        "source_timerange": {
            "start_offset": 21.403200000000027,
            "end_offset": 22.931999999999995
        },
        "target_timerange": {
            "start_offset": 155.46720000000002,
            "end_offset": 156.996
        },
        "ignore_audio": true,
        "audio_path": null
    },
    {
        "segment_id": "da4193709d8811efbee9b8cef68aba34",
        "text": "season, made her feel that",
        "audio_url": "https://v16m-default.akamaized.net/a7b462a3094adc65b7d2f778bd901409/672de61e/video/tos/maliva/tos-maliva-v-f15faa-us/o0iqC5Et5AiRA6BVAofoiIFkAjETZA8Pgslzkw/?a=7073&bti=OTU0QDItLmA%3D&ch=0&cr=0&dr=4&er=0&lr=unwatermarked&cd=0%7C0%7C0%7C0&br=312&bt=156&ds=5&ft=.cwOVInz7ThRDGvOXq8Zmo&qs=13&rc=M208N3M5cjpzdjUzNzhoM0BpM208N3M5cjpzdjUzNzhoM0BoXjUxMmRzMGpgLS1kLjZzYSNoXjUxMmRzMGpgLS1kLjZzcw%3D%3D&vvpl=1&l=02173103962103400000000000000000000ffff0a00afb97d90e8&btag=e00048000&format=mp3&mime_type=audio_mpeg",
        "source_timerange": {
            "start_offset": 22.932000000000016,
            "end_offset": 24.460799999999985
        },
        "target_timerange": {
            "start_offset": 156.996,
            "end_offset": 158.5248
        },
        "ignore_audio": true,
        "audio_path": null
    },
    {
        "segment_id": "da4194b09d8811efbee9b8cef68aba34",
        "text": "the commonest, dullest, most",
        "audio_url": "https://v16m-default.akamaized.net/a7b462a3094adc65b7d2f778bd901409/672de61e/video/tos/maliva/tos-maliva-v-f15faa-us/o0iqC5Et5AiRA6BVAofoiIFkAjETZA8Pgslzkw/?a=7073&bti=OTU0QDItLmA%3D&ch=0&cr=0&dr=4&er=0&lr=unwatermarked&cd=0%7C0%7C0%7C0&br=312&bt=156&ds=5&ft=.cwOVInz7ThRDGvOXq8Zmo&qs=13&rc=M208N3M5cjpzdjUzNzhoM0BpM208N3M5cjpzdjUzNzhoM0BoXjUxMmRzMGpgLS1kLjZzYSNoXjUxMmRzMGpgLS1kLjZzcw%3D%3D&vvpl=1&l=02173103962103400000000000000000000ffff0a00afb97d90e8&btag=e00048000&format=mp3&mime_type=audio_mpeg",
        "source_timerange": {
            "start_offset": 24.460800000000006,
            "end_offset": 25.989600000000003
        },
        "target_timerange": {
            "start_offset": 158.5248,
            "end_offset": 160.05360000000002
        },
        "ignore_audio": true,
        "audio_path": null
    },
    {
        "segment_id": "da4195fa9d8811efbee9b8cef68aba34",
        "text": "threadbare topic might be",
        "audio_url": "https://v16m-default.akamaized.net/a7b462a3094adc65b7d2f778bd901409/672de61e/video/tos/maliva/tos-maliva-v-f15faa-us/o0iqC5Et5AiRA6BVAofoiIFkAjETZA8Pgslzkw/?a=7073&bti=OTU0QDItLmA%3D&ch=0&cr=0&dr=4&er=0&lr=unwatermarked&cd=0%7C0%7C0%7C0&br=312&bt=156&ds=5&ft=.cwOVInz7ThRDGvOXq8Zmo&qs=13&rc=M208N3M5cjpzdjUzNzhoM0BpM208N3M5cjpzdjUzNzhoM0BoXjUxMmRzMGpgLS1kLjZzYSNoXjUxMmRzMGpgLS1kLjZzcw%3D%3D&vvpl=1&l=02173103962103400000000000000000000ffff0a00afb97d90e8&btag=e00048000&format=mp3&mime_type=audio_mpeg",
        "source_timerange": {
            "start_offset": 25.989600000000024,
            "end_offset": 27.518399999999993
        },
        "target_timerange": {
            "start_offset": 160.05360000000002,
            "end_offset": 161.5824
        },
        "ignore_audio": true,
        "audio_path": null
    },
    {
        "segment_id": "da41971c9d8811efbee9b8cef68aba34",
        "text": "rendered interesting by the",
        "audio_url": "https://v16m-default.akamaized.net/a7b462a3094adc65b7d2f778bd901409/672de61e/video/tos/maliva/tos-maliva-v-f15faa-us/o0iqC5Et5AiRA6BVAofoiIFkAjETZA8Pgslzkw/?a=7073&bti=OTU0QDItLmA%3D&ch=0&cr=0&dr=4&er=0&lr=unwatermarked&cd=0%7C0%7C0%7C0&br=312&bt=156&ds=5&ft=.cwOVInz7ThRDGvOXq8Zmo&qs=13&rc=M208N3M5cjpzdjUzNzhoM0BpM208N3M5cjpzdjUzNzhoM0BoXjUxMmRzMGpgLS1kLjZzYSNoXjUxMmRzMGpgLS1kLjZzcw%3D%3D&vvpl=1&l=02173103962103400000000000000000000ffff0a00afb97d90e8&btag=e00048000&format=mp3&mime_type=audio_mpeg",
        "source_timerange": {
            "start_offset": 27.518400000000014,
            "end_offset": 29.04720000000001
        },
        "target_timerange": {
            "start_offset": 161.5824,
            "end_offset": 163.11120000000003
        },
        "ignore_audio": true,
        "audio_path": null
    },
    {
        "segment_id": "da41983e9d8811efbee9b8cef68aba34",
        "text": "skill of the speaker.",
        "audio_url": "https://v16m-default.akamaized.net/a7b462a3094adc65b7d2f778bd901409/672de61e/video/tos/maliva/tos-maliva-v-f15faa-us/o0iqC5Et5AiRA6BVAofoiIFkAjETZA8Pgslzkw/?a=7073&bti=OTU0QDItLmA%3D&ch=0&cr=0&dr=4&er=0&lr=unwatermarked&cd=0%7C0%7C0%7C0&br=312&bt=156&ds=5&ft=.cwOVInz7ThRDGvOXq8Zmo&qs=13&rc=M208N3M5cjpzdjUzNzhoM0BpM208N3M5cjpzdjUzNzhoM0BoXjUxMmRzMGpgLS1kLjZzYSNoXjUxMmRzMGpgLS1kLjZzcw%3D%3D&vvpl=1&l=02173103962103400000000000000000000ffff0a00afb97d90e8&btag=e00048000&format=mp3&mime_type=audio_mpeg",
        "source_timerange": {
            "start_offset": 29.047200000000032,
            "end_offset": 30.576
        },
        "target_timerange": {
            "start_offset": 163.11120000000003,
            "end_offset": 164.64000000000001
        },
        "ignore_audio": true,
        "audio_path": null
    },
    {
        "segment_id": "da41dfa69d8811efbee9b8cef68aba34",
        "text": "With such rivals for the",
        "audio_url": "https://v16m-default.akamaized.net/20d5688927248bd3c9ab2fc38c685a82/672de613/video/tos/maliva/tos-maliva-v-f15faa-us/oIXACCZOSEfAArEEM3tfCFkWADH83yEofkDZVg/?a=7073&bti=OTU0QDItLmA%3D&ch=0&cr=0&dr=4&er=0&lr=unwatermarked&cd=0%7C0%7C0%7C0&br=312&bt=156&ds=5&ft=.cwOVInz7ThRDGvOXq8Zmo&qs=13&rc=anlsdG45cjpzdjUzNzhoM0BpanlsdG45cjpzdjUzNzhoM0BvMGlhMmRzMGpgLS1kLjZzYSNvMGlhMmRzMGpgLS1kLjZzcw%3D%3D&vvpl=1&l=02173103962103400000000000000000000ffff0a00afb97d90e8&btag=e00078000&format=mp3&mime_type=audio_mpeg",
        "source_timerange": {
            "start_offset": 0,
            "end_offset": 1.4990769230769274
        },
        "target_timerange": {
            "start_offset": 164.64000000000001,
            "end_offset": 166.13907692307694
        },
        "ignore_audio": false,
        "audio_path": null
    },
    {
        "segment_id": "da41e0f09d8811efbee9b8cef68aba34",
        "text": "notice of the fair as Mr.",
        "audio_url": "https://v16m-default.akamaized.net/20d5688927248bd3c9ab2fc38c685a82/672de613/video/tos/maliva/tos-maliva-v-f15faa-us/oIXACCZOSEfAArEEM3tfCFkWADH83yEofkDZVg/?a=7073&bti=OTU0QDItLmA%3D&ch=0&cr=0&dr=4&er=0&lr=unwatermarked&cd=0%7C0%7C0%7C0&br=312&bt=156&ds=5&ft=.cwOVInz7ThRDGvOXq8Zmo&qs=13&rc=anlsdG45cjpzdjUzNzhoM0BpanlsdG45cjpzdjUzNzhoM0BvMGlhMmRzMGpgLS1kLjZzYSNvMGlhMmRzMGpgLS1kLjZzcw%3D%3D&vvpl=1&l=02173103962103400000000000000000000ffff0a00afb97d90e8&btag=e00078000&format=mp3&mime_type=audio_mpeg",
        "source_timerange": {
            "start_offset": 1.4990769230769274,
            "end_offset": 2.998153846153855
        },
        "target_timerange": {
            "start_offset": 166.13907692307694,
            "end_offset": 167.63815384615387
        },
        "ignore_audio": true,
        "audio_path": null
    },
    {
        "segment_id": "da41e1ea9d8811efbee9b8cef68aba34",
        "text": "Wickham and the officers,",
        "audio_url": "https://v16m-default.akamaized.net/20d5688927248bd3c9ab2fc38c685a82/672de613/video/tos/maliva/tos-maliva-v-f15faa-us/oIXACCZOSEfAArEEM3tfCFkWADH83yEofkDZVg/?a=7073&bti=OTU0QDItLmA%3D&ch=0&cr=0&dr=4&er=0&lr=unwatermarked&cd=0%7C0%7C0%7C0&br=312&bt=156&ds=5&ft=.cwOVInz7ThRDGvOXq8Zmo&qs=13&rc=anlsdG45cjpzdjUzNzhoM0BpanlsdG45cjpzdjUzNzhoM0BvMGlhMmRzMGpgLS1kLjZzYSNvMGlhMmRzMGpgLS1kLjZzcw%3D%3D&vvpl=1&l=02173103962103400000000000000000000ffff0a00afb97d90e8&btag=e00078000&format=mp3&mime_type=audio_mpeg",
        "source_timerange": {
            "start_offset": 2.998153846153855,
            "end_offset": 4.497230769230782
        },
        "target_timerange": {
            "start_offset": 167.63815384615387,
            "end_offset": 169.1372307692308
        },
        "ignore_audio": true,
        "audio_path": null
    },
    {
        "segment_id": "da41e2d09d8811efbee9b8cef68aba34",
        "text": "Mr. Collins seemed to sink",
        "audio_url": "https://v16m-default.akamaized.net/20d5688927248bd3c9ab2fc38c685a82/672de613/video/tos/maliva/tos-maliva-v-f15faa-us/oIXACCZOSEfAArEEM3tfCFkWADH83yEofkDZVg/?a=7073&bti=OTU0QDItLmA%3D&ch=0&cr=0&dr=4&er=0&lr=unwatermarked&cd=0%7C0%7C0%7C0&br=312&bt=156&ds=5&ft=.cwOVInz7ThRDGvOXq8Zmo&qs=13&rc=anlsdG45cjpzdjUzNzhoM0BpanlsdG45cjpzdjUzNzhoM0BvMGlhMmRzMGpgLS1kLjZzYSNvMGlhMmRzMGpgLS1kLjZzcw%3D%3D&vvpl=1&l=02173103962103400000000000000000000ffff0a00afb97d90e8&btag=e00078000&format=mp3&mime_type=audio_mpeg",
        "source_timerange": {
            "start_offset": 4.497230769230782,
            "end_offset": 5.996307692307681
        },
        "target_timerange": {
            "start_offset": 169.1372307692308,
            "end_offset": 170.6363076923077
        },
        "ignore_audio": true,
        "audio_path": null
    },
    {
        "segment_id": "da41e3ca9d8811efbee9b8cef68aba34",
        "text": "into insignificance; to the",
        "audio_url": "https://v16m-default.akamaized.net/20d5688927248bd3c9ab2fc38c685a82/672de613/video/tos/maliva/tos-maliva-v-f15faa-us/oIXACCZOSEfAArEEM3tfCFkWADH83yEofkDZVg/?a=7073&bti=OTU0QDItLmA%3D&ch=0&cr=0&dr=4&er=0&lr=unwatermarked&cd=0%7C0%7C0%7C0&br=312&bt=156&ds=5&ft=.cwOVInz7ThRDGvOXq8Zmo&qs=13&rc=anlsdG45cjpzdjUzNzhoM0BpanlsdG45cjpzdjUzNzhoM0BvMGlhMmRzMGpgLS1kLjZzYSNvMGlhMmRzMGpgLS1kLjZzcw%3D%3D&vvpl=1&l=02173103962103400000000000000000000ffff0a00afb97d90e8&btag=e00078000&format=mp3&mime_type=audio_mpeg",
        "source_timerange": {
            "start_offset": 5.996307692307681,
            "end_offset": 7.495384615384609
        },
        "target_timerange": {
            "start_offset": 170.6363076923077,
            "end_offset": 172.13538461538462
        },
        "ignore_audio": true,
        "audio_path": null
    },
    {
        "segment_id": "da41e4f69d8811efbee9b8cef68aba34",
        "text": "young ladies he certainly",
        "audio_url": "https://v16m-default.akamaized.net/20d5688927248bd3c9ab2fc38c685a82/672de613/video/tos/maliva/tos-maliva-v-f15faa-us/oIXACCZOSEfAArEEM3tfCFkWADH83yEofkDZVg/?a=7073&bti=OTU0QDItLmA%3D&ch=0&cr=0&dr=4&er=0&lr=unwatermarked&cd=0%7C0%7C0%7C0&br=312&bt=156&ds=5&ft=.cwOVInz7ThRDGvOXq8Zmo&qs=13&rc=anlsdG45cjpzdjUzNzhoM0BpanlsdG45cjpzdjUzNzhoM0BvMGlhMmRzMGpgLS1kLjZzYSNvMGlhMmRzMGpgLS1kLjZzcw%3D%3D&vvpl=1&l=02173103962103400000000000000000000ffff0a00afb97d90e8&btag=e00078000&format=mp3&mime_type=audio_mpeg",
        "source_timerange": {
            "start_offset": 7.495384615384609,
            "end_offset": 8.994461538461536
        },
        "target_timerange": {
            "start_offset": 172.13538461538462,
            "end_offset": 173.63446153846155
        },
        "ignore_audio": true,
        "audio_path": null
    },
    {
        "segment_id": "da41e5dc9d8811efbee9b8cef68aba34",
        "text": "was nothing; but he had",
        "audio_url": "https://v16m-default.akamaized.net/20d5688927248bd3c9ab2fc38c685a82/672de613/video/tos/maliva/tos-maliva-v-f15faa-us/oIXACCZOSEfAArEEM3tfCFkWADH83yEofkDZVg/?a=7073&bti=OTU0QDItLmA%3D&ch=0&cr=0&dr=4&er=0&lr=unwatermarked&cd=0%7C0%7C0%7C0&br=312&bt=156&ds=5&ft=.cwOVInz7ThRDGvOXq8Zmo&qs=13&rc=anlsdG45cjpzdjUzNzhoM0BpanlsdG45cjpzdjUzNzhoM0BvMGlhMmRzMGpgLS1kLjZzYSNvMGlhMmRzMGpgLS1kLjZzcw%3D%3D&vvpl=1&l=02173103962103400000000000000000000ffff0a00afb97d90e8&btag=e00078000&format=mp3&mime_type=audio_mpeg",
        "source_timerange": {
            "start_offset": 8.994461538461536,
            "end_offset": 10.493538461538463
        },
        "target_timerange": {
            "start_offset": 173.63446153846155,
            "end_offset": 175.13353846153848
        },
        "ignore_audio": true,
        "audio_path": null
    },
    {
        "segment_id": "da41e6cc9d8811efbee9b8cef68aba34",
        "text": "still at intervals a kind",
        "audio_url": "https://v16m-default.akamaized.net/20d5688927248bd3c9ab2fc38c685a82/672de613/video/tos/maliva/tos-maliva-v-f15faa-us/oIXACCZOSEfAArEEM3tfCFkWADH83yEofkDZVg/?a=7073&bti=OTU0QDItLmA%3D&ch=0&cr=0&dr=4&er=0&lr=unwatermarked&cd=0%7C0%7C0%7C0&br=312&bt=156&ds=5&ft=.cwOVInz7ThRDGvOXq8Zmo&qs=13&rc=anlsdG45cjpzdjUzNzhoM0BpanlsdG45cjpzdjUzNzhoM0BvMGlhMmRzMGpgLS1kLjZzYSNvMGlhMmRzMGpgLS1kLjZzcw%3D%3D&vvpl=1&l=02173103962103400000000000000000000ffff0a00afb97d90e8&btag=e00078000&format=mp3&mime_type=audio_mpeg",
        "source_timerange": {
            "start_offset": 10.493538461538463,
            "end_offset": 11.992615384615391
        },
        "target_timerange": {
            "start_offset": 175.13353846153848,
            "end_offset": 176.6326153846154
        },
        "ignore_audio": true,
        "audio_path": null
    },
    {
        "segment_id": "da41e7d09d8811efbee9b8cef68aba34",
        "text": "listener in Mrs. Philips,",
        "audio_url": "https://v16m-default.akamaized.net/20d5688927248bd3c9ab2fc38c685a82/672de613/video/tos/maliva/tos-maliva-v-f15faa-us/oIXACCZOSEfAArEEM3tfCFkWADH83yEofkDZVg/?a=7073&bti=OTU0QDItLmA%3D&ch=0&cr=0&dr=4&er=0&lr=unwatermarked&cd=0%7C0%7C0%7C0&br=312&bt=156&ds=5&ft=.cwOVInz7ThRDGvOXq8Zmo&qs=13&rc=anlsdG45cjpzdjUzNzhoM0BpanlsdG45cjpzdjUzNzhoM0BvMGlhMmRzMGpgLS1kLjZzYSNvMGlhMmRzMGpgLS1kLjZzcw%3D%3D&vvpl=1&l=02173103962103400000000000000000000ffff0a00afb97d90e8&btag=e00078000&format=mp3&mime_type=audio_mpeg",
        "source_timerange": {
            "start_offset": 11.992615384615391,
            "end_offset": 13.491692307692318
        },
        "target_timerange": {
            "start_offset": 176.6326153846154,
            "end_offset": 178.13169230769233
        },
        "ignore_audio": true,
        "audio_path": null
    },
    {
        "segment_id": "da41e8a29d8811efbee9b8cef68aba34",
        "text": "and was, by her",
        "audio_url": "https://v16m-default.akamaized.net/20d5688927248bd3c9ab2fc38c685a82/672de613/video/tos/maliva/tos-maliva-v-f15faa-us/oIXACCZOSEfAArEEM3tfCFkWADH83yEofkDZVg/?a=7073&bti=OTU0QDItLmA%3D&ch=0&cr=0&dr=4&er=0&lr=unwatermarked&cd=0%7C0%7C0%7C0&br=312&bt=156&ds=5&ft=.cwOVInz7ThRDGvOXq8Zmo&qs=13&rc=anlsdG45cjpzdjUzNzhoM0BpanlsdG45cjpzdjUzNzhoM0BvMGlhMmRzMGpgLS1kLjZzYSNvMGlhMmRzMGpgLS1kLjZzcw%3D%3D&vvpl=1&l=02173103962103400000000000000000000ffff0a00afb97d90e8&btag=e00078000&format=mp3&mime_type=audio_mpeg",
        "source_timerange": {
            "start_offset": 13.491692307692318,
            "end_offset": 14.990769230769217
        },
        "target_timerange": {
            "start_offset": 178.13169230769233,
            "end_offset": 179.63076923076923
        },
        "ignore_audio": true,
        "audio_path": null
    },
    {
        "segment_id": "da41e9749d8811efbee9b8cef68aba34",
        "text": "watchfulness, most",
        "audio_url": "https://v16m-default.akamaized.net/20d5688927248bd3c9ab2fc38c685a82/672de613/video/tos/maliva/tos-maliva-v-f15faa-us/oIXACCZOSEfAArEEM3tfCFkWADH83yEofkDZVg/?a=7073&bti=OTU0QDItLmA%3D&ch=0&cr=0&dr=4&er=0&lr=unwatermarked&cd=0%7C0%7C0%7C0&br=312&bt=156&ds=5&ft=.cwOVInz7ThRDGvOXq8Zmo&qs=13&rc=anlsdG45cjpzdjUzNzhoM0BpanlsdG45cjpzdjUzNzhoM0BvMGlhMmRzMGpgLS1kLjZzYSNvMGlhMmRzMGpgLS1kLjZzcw%3D%3D&vvpl=1&l=02173103962103400000000000000000000ffff0a00afb97d90e8&btag=e00078000&format=mp3&mime_type=audio_mpeg",
        "source_timerange": {
            "start_offset": 14.990769230769217,
            "end_offset": 16.489846153846145
        },
        "target_timerange": {
            "start_offset": 179.63076923076923,
            "end_offset": 181.12984615384616
        },
        "ignore_audio": true,
        "audio_path": null
    },
    {
        "segment_id": "da41ea3c9d8811efbee9b8cef68aba34",
        "text": "abundantly supplied with",
        "audio_url": "https://v16m-default.akamaized.net/20d5688927248bd3c9ab2fc38c685a82/672de613/video/tos/maliva/tos-maliva-v-f15faa-us/oIXACCZOSEfAArEEM3tfCFkWADH83yEofkDZVg/?a=7073&bti=OTU0QDItLmA%3D&ch=0&cr=0&dr=4&er=0&lr=unwatermarked&cd=0%7C0%7C0%7C0&br=312&bt=156&ds=5&ft=.cwOVInz7ThRDGvOXq8Zmo&qs=13&rc=anlsdG45cjpzdjUzNzhoM0BpanlsdG45cjpzdjUzNzhoM0BvMGlhMmRzMGpgLS1kLjZzYSNvMGlhMmRzMGpgLS1kLjZzcw%3D%3D&vvpl=1&l=02173103962103400000000000000000000ffff0a00afb97d90e8&btag=e00078000&format=mp3&mime_type=audio_mpeg",
        "source_timerange": {
            "start_offset": 16.489846153846145,
            "end_offset": 17.988923076923072
        },
        "target_timerange": {
            "start_offset": 181.12984615384616,
            "end_offset": 182.6289230769231
        },
        "ignore_audio": true,
        "audio_path": null
    },
    {
        "segment_id": "da41eb229d8811efbee9b8cef68aba34",
        "text": "coffee and muffin.",
        "audio_url": "https://v16m-default.akamaized.net/20d5688927248bd3c9ab2fc38c685a82/672de613/video/tos/maliva/tos-maliva-v-f15faa-us/oIXACCZOSEfAArEEM3tfCFkWADH83yEofkDZVg/?a=7073&bti=OTU0QDItLmA%3D&ch=0&cr=0&dr=4&er=0&lr=unwatermarked&cd=0%7C0%7C0%7C0&br=312&bt=156&ds=5&ft=.cwOVInz7ThRDGvOXq8Zmo&qs=13&rc=anlsdG45cjpzdjUzNzhoM0BpanlsdG45cjpzdjUzNzhoM0BvMGlhMmRzMGpgLS1kLjZzYSNvMGlhMmRzMGpgLS1kLjZzcw%3D%3D&vvpl=1&l=02173103962103400000000000000000000ffff0a00afb97d90e8&btag=e00078000&format=mp3&mime_type=audio_mpeg",
        "source_timerange": {
            "start_offset": 17.988923076923072,
            "end_offset": 19.488
        },
        "target_timerange": {
            "start_offset": 182.6289230769231,
            "end_offset": 184.12800000000001
        },
        "ignore_audio": true,
        "audio_path": null
    },
    {
        "segment_id": "da41fe789d8811efbee9b8cef68aba34",
        "text": "When the card tables were",
        "audio_url": "https://v16m-default.akamaized.net/a649624cbae14be88bbab53d07f06005/672de606/video/tos/maliva/tos-maliva-v-f15faa-us/ocswtlAACigZFAkAOz4PqhoAjiEyfgHBEtkZ83/?a=7073&bti=OTU0QDItLmA%3D&ch=0&cr=0&dr=4&er=0&lr=unwatermarked&cd=0%7C0%7C0%7C0&br=312&bt=156&ds=5&ft=.cwOVInz7ThRDGvOXq8Zmo&qs=13&rc=ajp0ZXI5cjpzdjUzNzhoM0Bpajp0ZXI5cjpzdjUzNzhoM0BgLTYuMmRzMGpgLS1kLjZzYSNgLTYuMmRzMGpgLS1kLjZzcw%3D%3D&vvpl=1&l=02173103962103400000000000000000000ffff0a00afb97d90e8&btag=e00070000&format=mp3&mime_type=audio_mpeg",
        "source_timerange": {
            "start_offset": 0,
            "end_offset": 1.5660000000000212
        },
        "target_timerange": {
            "start_offset": 184.12800000000001,
            "end_offset": 185.69400000000002
        },
        "ignore_audio": false,
        "audio_path": null
    },
    {
        "segment_id": "da41ff909d8811efbee9b8cef68aba34",
        "text": "placed, he had an opportunity",
        "audio_url": "https://v16m-default.akamaized.net/a649624cbae14be88bbab53d07f06005/672de606/video/tos/maliva/tos-maliva-v-f15faa-us/ocswtlAACigZFAkAOz4PqhoAjiEyfgHBEtkZ83/?a=7073&bti=OTU0QDItLmA%3D&ch=0&cr=0&dr=4&er=0&lr=unwatermarked&cd=0%7C0%7C0%7C0&br=312&bt=156&ds=5&ft=.cwOVInz7ThRDGvOXq8Zmo&qs=13&rc=ajp0ZXI5cjpzdjUzNzhoM0Bpajp0ZXI5cjpzdjUzNzhoM0BgLTYuMmRzMGpgLS1kLjZzYSNgLTYuMmRzMGpgLS1kLjZzcw%3D%3D&vvpl=1&l=02173103962103400000000000000000000ffff0a00afb97d90e8&btag=e00070000&format=mp3&mime_type=audio_mpeg",
        "source_timerange": {
            "start_offset": 1.5660000000000025,
            "end_offset": 3.1319999999999952
        },
        "target_timerange": {
            "start_offset": 185.69400000000002,
            "end_offset": 187.26
        },
        "ignore_audio": true,
        "audio_path": null
    },
    {
        "segment_id": "da42006c9d8811efbee9b8cef68aba34",
        "text": "of obliging her, in return, by",
        "audio_url": "https://v16m-default.akamaized.net/a649624cbae14be88bbab53d07f06005/672de606/video/tos/maliva/tos-maliva-v-f15faa-us/ocswtlAACigZFAkAOz4PqhoAjiEyfgHBEtkZ83/?a=7073&bti=OTU0QDItLmA%3D&ch=0&cr=0&dr=4&er=0&lr=unwatermarked&cd=0%7C0%7C0%7C0&br=312&bt=156&ds=5&ft=.cwOVInz7ThRDGvOXq8Zmo&qs=13&rc=ajp0ZXI5cjpzdjUzNzhoM0Bpajp0ZXI5cjpzdjUzNzhoM0BgLTYuMmRzMGpgLS1kLjZzYSNgLTYuMmRzMGpgLS1kLjZzcw%3D%3D&vvpl=1&l=02173103962103400000000000000000000ffff0a00afb97d90e8&btag=e00070000&format=mp3&mime_type=audio_mpeg",
        "source_timerange": {
            "start_offset": 3.1319999999999766,
            "end_offset": 4.697999999999998
        },
        "target_timerange": {
            "start_offset": 187.26,
            "end_offset": 188.826
        },
        "ignore_audio": true,
        "audio_path": null
    },
    {
        "segment_id": "da4201489d8811efbee9b8cef68aba34",
        "text": "sitting down to whist.",
        "audio_url": "https://v16m-default.akamaized.net/a649624cbae14be88bbab53d07f06005/672de606/video/tos/maliva/tos-maliva-v-f15faa-us/ocswtlAACigZFAkAOz4PqhoAjiEyfgHBEtkZ83/?a=7073&bti=OTU0QDItLmA%3D&ch=0&cr=0&dr=4&er=0&lr=unwatermarked&cd=0%7C0%7C0%7C0&br=312&bt=156&ds=5&ft=.cwOVInz7ThRDGvOXq8Zmo&qs=13&rc=ajp0ZXI5cjpzdjUzNzhoM0Bpajp0ZXI5cjpzdjUzNzhoM0BgLTYuMmRzMGpgLS1kLjZzYSNgLTYuMmRzMGpgLS1kLjZzcw%3D%3D&vvpl=1&l=02173103962103400000000000000000000ffff0a00afb97d90e8&btag=e00070000&format=mp3&mime_type=audio_mpeg",
        "source_timerange": {
            "start_offset": 4.697999999999979,
            "end_offset": 6.264
        },
        "target_timerange": {
            "start_offset": 188.826,
            "end_offset": 190.392
        },
        "ignore_audio": true,
        "audio_path": null
    },
    {
        "segment_id": "da4221f09d8811efbee9b8cef68aba34",
        "text": "“I know little of the game",
        "audio_url": "https://v16m-default.akamaized.net/fb06fb4be17c8d7a47efa24d37fb53d9/672de60b/video/tos/maliva/tos-maliva-v-f15faa-us/oYA9ky9BDEAZntfMXBFASBrf4CfnOACEEFgvCW/?a=7073&bti=OTU0QDItLmA%3D&ch=0&cr=0&dr=4&er=0&lr=unwatermarked&cd=0%7C0%7C0%7C0&br=312&bt=156&ds=5&ft=.cwOVInz7ThRDGvOXq8Zmo&qs=13&rc=anJudXk5cjpzdjUzNzhoM0BpanJudXk5cjpzdjUzNzhoM0BnMHMtMmRzMGpgLS1kLjZzYSNnMHMtMmRzMGpgLS1kLjZzcw%3D%3D&vvpl=1&l=02173103962103400000000000000000000ffff0a00afb97d90e8&btag=e00070000&format=mp3&mime_type=audio_mpeg",
        "source_timerange": {
            "start_offset": 0,
            "end_offset": 1.4669999999999952
        },
        "target_timerange": {
            "start_offset": 190.392,
            "end_offset": 191.859
        },
        "ignore_audio": false,
        "audio_path": null
    },
    {
        "segment_id": "da4223c69d8811efbee9b8cef68aba34",
        "text": "at present,” said he, “but I",
        "audio_url": "https://v16m-default.akamaized.net/fb06fb4be17c8d7a47efa24d37fb53d9/672de60b/video/tos/maliva/tos-maliva-v-f15faa-us/oYA9ky9BDEAZntfMXBFASBrf4CfnOACEEFgvCW/?a=7073&bti=OTU0QDItLmA%3D&ch=0&cr=0&dr=4&er=0&lr=unwatermarked&cd=0%7C0%7C0%7C0&br=312&bt=156&ds=5&ft=.cwOVInz7ThRDGvOXq8Zmo&qs=13&rc=anJudXk5cjpzdjUzNzhoM0BpanJudXk5cjpzdjUzNzhoM0BnMHMtMmRzMGpgLS1kLjZzYSNnMHMtMmRzMGpgLS1kLjZzcw%3D%3D&vvpl=1&l=02173103962103400000000000000000000ffff0a00afb97d90e8&btag=e00070000&format=mp3&mime_type=audio_mpeg",
        "source_timerange": {
            "start_offset": 1.467000000000013,
            "end_offset": 2.9339999999999797
        },
        "target_timerange": {
            "start_offset": 191.859,
            "end_offset": 193.326
        },
        "ignore_audio": true,
        "audio_path": null
    },
    {
        "segment_id": "da4224ac9d8811efbee9b8cef68aba34",
        "text": "shall be glad to improve",
        "audio_url": "https://v16m-default.akamaized.net/fb06fb4be17c8d7a47efa24d37fb53d9/672de60b/video/tos/maliva/tos-maliva-v-f15faa-us/oYA9ky9BDEAZntfMXBFASBrf4CfnOACEEFgvCW/?a=7073&bti=OTU0QDItLmA%3D&ch=0&cr=0&dr=4&er=0&lr=unwatermarked&cd=0%7C0%7C0%7C0&br=312&bt=156&ds=5&ft=.cwOVInz7ThRDGvOXq8Zmo&qs=13&rc=anJudXk5cjpzdjUzNzhoM0BpanJudXk5cjpzdjUzNzhoM0BnMHMtMmRzMGpgLS1kLjZzYSNnMHMtMmRzMGpgLS1kLjZzcw%3D%3D&vvpl=1&l=02173103962103400000000000000000000ffff0a00afb97d90e8&btag=e00070000&format=mp3&mime_type=audio_mpeg",
        "source_timerange": {
            "start_offset": 2.9339999999999975,
            "end_offset": 4.400999999999993
        },
        "target_timerange": {
            "start_offset": 193.326,
            "end_offset": 194.793
        },
        "ignore_audio": true,
        "audio_path": null
    },
    {
        "segment_id": "da4225929d8811efbee9b8cef68aba34",
        "text": "myself; for in my situation",
        "audio_url": "https://v16m-default.akamaized.net/fb06fb4be17c8d7a47efa24d37fb53d9/672de60b/video/tos/maliva/tos-maliva-v-f15faa-us/oYA9ky9BDEAZntfMXBFASBrf4CfnOACEEFgvCW/?a=7073&bti=OTU0QDItLmA%3D&ch=0&cr=0&dr=4&er=0&lr=unwatermarked&cd=0%7C0%7C0%7C0&br=312&bt=156&ds=5&ft=.cwOVInz7ThRDGvOXq8Zmo&qs=13&rc=anJudXk5cjpzdjUzNzhoM0BpanJudXk5cjpzdjUzNzhoM0BnMHMtMmRzMGpgLS1kLjZzYSNnMHMtMmRzMGpgLS1kLjZzcw%3D%3D&vvpl=1&l=02173103962103400000000000000000000ffff0a00afb97d90e8&btag=e00070000&format=mp3&mime_type=audio_mpeg",
        "source_timerange": {
            "start_offset": 4.4010000000000105,
            "end_offset": 5.867999999999977
        },
        "target_timerange": {
            "start_offset": 194.793,
            "end_offset": 196.26
        },
        "ignore_audio": true,
        "audio_path": null
    },
    {
        "segment_id": "da4226649d8811efbee9b8cef68aba34",
        "text": "of life----” Mrs. Philips",
        "audio_url": "https://v16m-default.akamaized.net/fb06fb4be17c8d7a47efa24d37fb53d9/672de60b/video/tos/maliva/tos-maliva-v-f15faa-us/oYA9ky9BDEAZntfMXBFASBrf4CfnOACEEFgvCW/?a=7073&bti=OTU0QDItLmA%3D&ch=0&cr=0&dr=4&er=0&lr=unwatermarked&cd=0%7C0%7C0%7C0&br=312&bt=156&ds=5&ft=.cwOVInz7ThRDGvOXq8Zmo&qs=13&rc=anJudXk5cjpzdjUzNzhoM0BpanJudXk5cjpzdjUzNzhoM0BnMHMtMmRzMGpgLS1kLjZzYSNnMHMtMmRzMGpgLS1kLjZzcw%3D%3D&vvpl=1&l=02173103962103400000000000000000000ffff0a00afb97d90e8&btag=e00070000&format=mp3&mime_type=audio_mpeg",
        "source_timerange": {
            "start_offset": 5.867999999999995,
            "end_offset": 7.33499999999999
        },
        "target_timerange": {
            "start_offset": 196.26,
            "end_offset": 197.727
        },
        "ignore_audio": true,
        "audio_path": null
    },
    {
        "segment_id": "da4227369d8811efbee9b8cef68aba34",
        "text": "was very thankful for his",
        "audio_url": "https://v16m-default.akamaized.net/fb06fb4be17c8d7a47efa24d37fb53d9/672de60b/video/tos/maliva/tos-maliva-v-f15faa-us/oYA9ky9BDEAZntfMXBFASBrf4CfnOACEEFgvCW/?a=7073&bti=OTU0QDItLmA%3D&ch=0&cr=0&dr=4&er=0&lr=unwatermarked&cd=0%7C0%7C0%7C0&br=312&bt=156&ds=5&ft=.cwOVInz7ThRDGvOXq8Zmo&qs=13&rc=anJudXk5cjpzdjUzNzhoM0BpanJudXk5cjpzdjUzNzhoM0BnMHMtMmRzMGpgLS1kLjZzYSNnMHMtMmRzMGpgLS1kLjZzcw%3D%3D&vvpl=1&l=02173103962103400000000000000000000ffff0a00afb97d90e8&btag=e00070000&format=mp3&mime_type=audio_mpeg",
        "source_timerange": {
            "start_offset": 7.335000000000008,
            "end_offset": 8.802000000000003
        },
        "target_timerange": {
            "start_offset": 197.727,
            "end_offset": 199.19400000000002
        },
        "ignore_audio": true,
        "audio_path": null
    },
    {
        "segment_id": "da4228089d8811efbee9b8cef68aba34",
        "text": "compliance, but could not",
        "audio_url": "https://v16m-default.akamaized.net/fb06fb4be17c8d7a47efa24d37fb53d9/672de60b/video/tos/maliva/tos-maliva-v-f15faa-us/oYA9ky9BDEAZntfMXBFASBrf4CfnOACEEFgvCW/?a=7073&bti=OTU0QDItLmA%3D&ch=0&cr=0&dr=4&er=0&lr=unwatermarked&cd=0%7C0%7C0%7C0&br=312&bt=156&ds=5&ft=.cwOVInz7ThRDGvOXq8Zmo&qs=13&rc=anJudXk5cjpzdjUzNzhoM0BpanJudXk5cjpzdjUzNzhoM0BnMHMtMmRzMGpgLS1kLjZzYSNnMHMtMmRzMGpgLS1kLjZzcw%3D%3D&vvpl=1&l=02173103962103400000000000000000000ffff0a00afb97d90e8&btag=e00070000&format=mp3&mime_type=audio_mpeg",
        "source_timerange": {
            "start_offset": 8.802000000000021,
            "end_offset": 10.268999999999988
        },
        "target_timerange": {
            "start_offset": 199.19400000000002,
            "end_offset": 200.661
        },
        "ignore_audio": true,
        "audio_path": null
    },
    {
        "segment_id": "da4228d09d8811efbee9b8cef68aba34",
        "text": "wait for his reason.",
        "audio_url": "https://v16m-default.akamaized.net/fb06fb4be17c8d7a47efa24d37fb53d9/672de60b/video/tos/maliva/tos-maliva-v-f15faa-us/oYA9ky9BDEAZntfMXBFASBrf4CfnOACEEFgvCW/?a=7073&bti=OTU0QDItLmA%3D&ch=0&cr=0&dr=4&er=0&lr=unwatermarked&cd=0%7C0%7C0%7C0&br=312&bt=156&ds=5&ft=.cwOVInz7ThRDGvOXq8Zmo&qs=13&rc=anJudXk5cjpzdjUzNzhoM0BpanJudXk5cjpzdjUzNzhoM0BnMHMtMmRzMGpgLS1kLjZzYSNnMHMtMmRzMGpgLS1kLjZzcw%3D%3D&vvpl=1&l=02173103962103400000000000000000000ffff0a00afb97d90e8&btag=e00070000&format=mp3&mime_type=audio_mpeg",
        "source_timerange": {
            "start_offset": 10.269000000000005,
            "end_offset": 11.736
        },
        "target_timerange": {
            "start_offset": 200.661,
            "end_offset": 202.12800000000001
        },
        "ignore_audio": true,
        "audio_path": null
    },
    {
        "segment_id": "da4239889d8811efbee9b8cef68aba34",
        "text": "Mr. Wickham did not play at",
        "audio_url": "https://v16m-default.akamaized.net/458a8d053c5f8ca172349ab3d56db665/672de606/video/tos/maliva/tos-maliva-v-f15faa-us/ocvIztHOFGIt4kebfiLBAZIIWuM7AufeFAEcAk/?a=7073&bti=OTU0QDItLmA%3D&ch=0&cr=0&dr=4&er=0&lr=unwatermarked&cd=0%7C0%7C0%7C0&br=312&bt=156&ds=5&ft=.cwOVInz7ThRDGvOXq8Zmo&qs=13&rc=ajZydm05cjpzdjUzNzhoM0BpajZydm05cjpzdjUzNzhoM0BscnEyMmRzMGpgLS1kLjZzYSNscnEyMmRzMGpgLS1kLjZzcw%3D%3D&vvpl=1&l=02173103962103400000000000000000000ffff0a00afb97d90e8&btag=e00070000&format=mp3&mime_type=audio_mpeg",
        "source_timerange": {
            "start_offset": 0,
            "end_offset": 1.6380000000000132
        },
        "target_timerange": {
            "start_offset": 202.12800000000001,
            "end_offset": 203.76600000000002
        },
        "ignore_audio": false,
        "audio_path": null
    },
    {
        "segment_id": "da423a8c9d8811efbee9b8cef68aba34",
        "text": "whist, and with ready delight was",
        "audio_url": "https://v16m-default.akamaized.net/458a8d053c5f8ca172349ab3d56db665/672de606/video/tos/maliva/tos-maliva-v-f15faa-us/ocvIztHOFGIt4kebfiLBAZIIWuM7AufeFAEcAk/?a=7073&bti=OTU0QDItLmA%3D&ch=0&cr=0&dr=4&er=0&lr=unwatermarked&cd=0%7C0%7C0%7C0&br=312&bt=156&ds=5&ft=.cwOVInz7ThRDGvOXq8Zmo&qs=13&rc=ajZydm05cjpzdjUzNzhoM0BpajZydm05cjpzdjUzNzhoM0BscnEyMmRzMGpgLS1kLjZzYSNscnEyMmRzMGpgLS1kLjZzcw%3D%3D&vvpl=1&l=02173103962103400000000000000000000ffff0a00afb97d90e8&btag=e00070000&format=mp3&mime_type=audio_mpeg",
        "source_timerange": {
            "start_offset": 1.6380000000000052,
            "end_offset": 3.27599999999999
        },
        "target_timerange": {
            "start_offset": 203.76600000000002,
            "end_offset": 205.404
        },
        "ignore_audio": true,
        "audio_path": null
    },
    {
        "segment_id": "da423b729d8811efbee9b8cef68aba34",
        "text": "he received at the other table",
        "audio_url": "https://v16m-default.akamaized.net/458a8d053c5f8ca172349ab3d56db665/672de606/video/tos/maliva/tos-maliva-v-f15faa-us/ocvIztHOFGIt4kebfiLBAZIIWuM7AufeFAEcAk/?a=7073&bti=OTU0QDItLmA%3D&ch=0&cr=0&dr=4&er=0&lr=unwatermarked&cd=0%7C0%7C0%7C0&br=312&bt=156&ds=5&ft=.cwOVInz7ThRDGvOXq8Zmo&qs=13&rc=ajZydm05cjpzdjUzNzhoM0BpajZydm05cjpzdjUzNzhoM0BscnEyMmRzMGpgLS1kLjZzYSNscnEyMmRzMGpgLS1kLjZzcw%3D%3D&vvpl=1&l=02173103962103400000000000000000000ffff0a00afb97d90e8&btag=e00070000&format=mp3&mime_type=audio_mpeg",
        "source_timerange": {
            "start_offset": 3.275999999999982,
            "end_offset": 4.913999999999995
        },
        "target_timerange": {
            "start_offset": 205.404,
            "end_offset": 207.042
        },
        "ignore_audio": true,
        "audio_path": null
    },
    {
        "segment_id": "da423c629d8811efbee9b8cef68aba34",
        "text": "between Elizabeth and Lydia.",
        "audio_url": "https://v16m-default.akamaized.net/458a8d053c5f8ca172349ab3d56db665/672de606/video/tos/maliva/tos-maliva-v-f15faa-us/ocvIztHOFGIt4kebfiLBAZIIWuM7AufeFAEcAk/?a=7073&bti=OTU0QDItLmA%3D&ch=0&cr=0&dr=4&er=0&lr=unwatermarked&cd=0%7C0%7C0%7C0&br=312&bt=156&ds=5&ft=.cwOVInz7ThRDGvOXq8Zmo&qs=13&rc=ajZydm05cjpzdjUzNzhoM0BpajZydm05cjpzdjUzNzhoM0BscnEyMmRzMGpgLS1kLjZzYSNscnEyMmRzMGpgLS1kLjZzcw%3D%3D&vvpl=1&l=02173103962103400000000000000000000ffff0a00afb97d90e8&btag=e00070000&format=mp3&mime_type=audio_mpeg",
        "source_timerange": {
            "start_offset": 4.913999999999987,
            "end_offset": 6.5520000000000005
        },
        "target_timerange": {
            "start_offset": 207.042,
            "end_offset": 208.68
        },
        "ignore_audio": true,
        "audio_path": null
    },
    {
        "segment_id": "da426ee49d8811efbee9b8cef68aba34",
        "text": "At first there seemed danger",
        "audio_url": "https://v16m-default.akamaized.net/d431de7fd863302f3e8eaaa3ad62b2d0/672de612/video/tos/maliva/tos-maliva-v-f15faa-us/ocEAtznw3AsAuoqx2SEFAiigjkB8tlA86fDPZk/?a=7073&bti=OTU0QDItLmA%3D&ch=0&cr=0&dr=4&er=0&lr=unwatermarked&cd=0%7C0%7C0%7C0&br=312&bt=156&ds=5&ft=.cwOVInz7ThRDGvOXq8Zmo&qs=13&rc=amdkZnA5cjpzdjUzNzhoM0BpamdkZnA5cjpzdjUzNzhoM0AuY15xMmRzMGpgLS1kLjZzYSMuY15xMmRzMGpgLS1kLjZzcw%3D%3D&vvpl=1&l=02173103962103400000000000000000000ffff0a00afb97d90e8&btag=e00078000&format=mp3&mime_type=audio_mpeg",
        "source_timerange": {
            "start_offset": 0,
            "end_offset": 1.5179999999999936
        },
        "target_timerange": {
            "start_offset": 208.68,
            "end_offset": 210.198
        },
        "ignore_audio": false,
        "audio_path": null
    },
    {
        "segment_id": "da42710a9d8811efbee9b8cef68aba34",
        "text": "of Lydia’s engrossing him",
        "audio_url": "https://v16m-default.akamaized.net/d431de7fd863302f3e8eaaa3ad62b2d0/672de612/video/tos/maliva/tos-maliva-v-f15faa-us/ocEAtznw3AsAuoqx2SEFAiigjkB8tlA86fDPZk/?a=7073&bti=OTU0QDItLmA%3D&ch=0&cr=0&dr=4&er=0&lr=unwatermarked&cd=0%7C0%7C0%7C0&br=312&bt=156&ds=5&ft=.cwOVInz7ThRDGvOXq8Zmo&qs=13&rc=amdkZnA5cjpzdjUzNzhoM0BpamdkZnA5cjpzdjUzNzhoM0AuY15xMmRzMGpgLS1kLjZzYSMuY15xMmRzMGpgLS1kLjZzcw%3D%3D&vvpl=1&l=02173103962103400000000000000000000ffff0a00afb97d90e8&btag=e00078000&format=mp3&mime_type=audio_mpeg",
        "source_timerange": {
            "start_offset": 1.5180000000000007,
            "end_offset": 3.0359999999999943
        },
        "target_timerange": {
            "start_offset": 210.198,
            "end_offset": 211.716
        },
        "ignore_audio": true,
        "audio_path": null
    },
    {
        "segment_id": "da42725e9d8811efbee9b8cef68aba34",
        "text": "entirely, for she was a most",
        "audio_url": "https://v16m-default.akamaized.net/d431de7fd863302f3e8eaaa3ad62b2d0/672de612/video/tos/maliva/tos-maliva-v-f15faa-us/ocEAtznw3AsAuoqx2SEFAiigjkB8tlA86fDPZk/?a=7073&bti=OTU0QDItLmA%3D&ch=0&cr=0&dr=4&er=0&lr=unwatermarked&cd=0%7C0%7C0%7C0&br=312&bt=156&ds=5&ft=.cwOVInz7ThRDGvOXq8Zmo&qs=13&rc=amdkZnA5cjpzdjUzNzhoM0BpamdkZnA5cjpzdjUzNzhoM0AuY15xMmRzMGpgLS1kLjZzYSMuY15xMmRzMGpgLS1kLjZzcw%3D%3D&vvpl=1&l=02173103962103400000000000000000000ffff0a00afb97d90e8&btag=e00078000&format=mp3&mime_type=audio_mpeg",
        "source_timerange": {
            "start_offset": 3.0360000000000014,
            "end_offset": 4.553999999999995
        },
        "target_timerange": {
            "start_offset": 211.716,
            "end_offset": 213.234
        },
        "ignore_audio": true,
        "audio_path": null
    },
    {
        "segment_id": "da4273a89d8811efbee9b8cef68aba34",
        "text": "determined talker; but being",
        "audio_url": "https://v16m-default.akamaized.net/d431de7fd863302f3e8eaaa3ad62b2d0/672de612/video/tos/maliva/tos-maliva-v-f15faa-us/ocEAtznw3AsAuoqx2SEFAiigjkB8tlA86fDPZk/?a=7073&bti=OTU0QDItLmA%3D&ch=0&cr=0&dr=4&er=0&lr=unwatermarked&cd=0%7C0%7C0%7C0&br=312&bt=156&ds=5&ft=.cwOVInz7ThRDGvOXq8Zmo&qs=13&rc=amdkZnA5cjpzdjUzNzhoM0BpamdkZnA5cjpzdjUzNzhoM0AuY15xMmRzMGpgLS1kLjZzYSMuY15xMmRzMGpgLS1kLjZzcw%3D%3D&vvpl=1&l=02173103962103400000000000000000000ffff0a00afb97d90e8&btag=e00078000&format=mp3&mime_type=audio_mpeg",
        "source_timerange": {
            "start_offset": 4.554000000000002,
            "end_offset": 6.071999999999996
        },
        "target_timerange": {
            "start_offset": 213.234,
            "end_offset": 214.752
        },
        "ignore_audio": true,
        "audio_path": null
    },
    {
        "segment_id": "da4274e89d8811efbee9b8cef68aba34",
        "text": "likewise extremely fond of",
        "audio_url": "https://v16m-default.akamaized.net/d431de7fd863302f3e8eaaa3ad62b2d0/672de612/video/tos/maliva/tos-maliva-v-f15faa-us/ocEAtznw3AsAuoqx2SEFAiigjkB8tlA86fDPZk/?a=7073&bti=OTU0QDItLmA%3D&ch=0&cr=0&dr=4&er=0&lr=unwatermarked&cd=0%7C0%7C0%7C0&br=312&bt=156&ds=5&ft=.cwOVInz7ThRDGvOXq8Zmo&qs=13&rc=amdkZnA5cjpzdjUzNzhoM0BpamdkZnA5cjpzdjUzNzhoM0AuY15xMmRzMGpgLS1kLjZzYSMuY15xMmRzMGpgLS1kLjZzcw%3D%3D&vvpl=1&l=02173103962103400000000000000000000ffff0a00afb97d90e8&btag=e00078000&format=mp3&mime_type=audio_mpeg",
        "source_timerange": {
            "start_offset": 6.072000000000003,
            "end_offset": 7.589999999999996
        },
        "target_timerange": {
            "start_offset": 214.752,
            "end_offset": 216.27
        },
        "ignore_audio": true,
        "audio_path": null
    },
    {
        "segment_id": "da42761e9d8811efbee9b8cef68aba34",
        "text": "lottery tickets, she soon",
        "audio_url": "https://v16m-default.akamaized.net/d431de7fd863302f3e8eaaa3ad62b2d0/672de612/video/tos/maliva/tos-maliva-v-f15faa-us/ocEAtznw3AsAuoqx2SEFAiigjkB8tlA86fDPZk/?a=7073&bti=OTU0QDItLmA%3D&ch=0&cr=0&dr=4&er=0&lr=unwatermarked&cd=0%7C0%7C0%7C0&br=312&bt=156&ds=5&ft=.cwOVInz7ThRDGvOXq8Zmo&qs=13&rc=amdkZnA5cjpzdjUzNzhoM0BpamdkZnA5cjpzdjUzNzhoM0AuY15xMmRzMGpgLS1kLjZzYSMuY15xMmRzMGpgLS1kLjZzcw%3D%3D&vvpl=1&l=02173103962103400000000000000000000ffff0a00afb97d90e8&btag=e00078000&format=mp3&mime_type=audio_mpeg",
        "source_timerange": {
            "start_offset": 7.590000000000003,
            "end_offset": 9.107999999999997
        },
        "target_timerange": {
            "start_offset": 216.27,
            "end_offset": 217.788
        },
        "ignore_audio": true,
        "audio_path": null
    },
    {
        "segment_id": "da42774a9d8811efbee9b8cef68aba34",
        "text": "grew too much interested in",
        "audio_url": "https://v16m-default.akamaized.net/d431de7fd863302f3e8eaaa3ad62b2d0/672de612/video/tos/maliva/tos-maliva-v-f15faa-us/ocEAtznw3AsAuoqx2SEFAiigjkB8tlA86fDPZk/?a=7073&bti=OTU0QDItLmA%3D&ch=0&cr=0&dr=4&er=0&lr=unwatermarked&cd=0%7C0%7C0%7C0&br=312&bt=156&ds=5&ft=.cwOVInz7ThRDGvOXq8Zmo&qs=13&rc=amdkZnA5cjpzdjUzNzhoM0BpamdkZnA5cjpzdjUzNzhoM0AuY15xMmRzMGpgLS1kLjZzYSMuY15xMmRzMGpgLS1kLjZzcw%3D%3D&vvpl=1&l=02173103962103400000000000000000000ffff0a00afb97d90e8&btag=e00078000&format=mp3&mime_type=audio_mpeg",
        "source_timerange": {
            "start_offset": 9.108000000000004,
            "end_offset": 10.625999999999998
        },
        "target_timerange": {
            "start_offset": 217.788,
            "end_offset": 219.306
        },
        "ignore_audio": true,
        "audio_path": null
    },
    {
        "segment_id": "da4278769d8811efbee9b8cef68aba34",
        "text": "the game, too eager in",
        "audio_url": "https://v16m-default.akamaized.net/d431de7fd863302f3e8eaaa3ad62b2d0/672de612/video/tos/maliva/tos-maliva-v-f15faa-us/ocEAtznw3AsAuoqx2SEFAiigjkB8tlA86fDPZk/?a=7073&bti=OTU0QDItLmA%3D&ch=0&cr=0&dr=4&er=0&lr=unwatermarked&cd=0%7C0%7C0%7C0&br=312&bt=156&ds=5&ft=.cwOVInz7ThRDGvOXq8Zmo&qs=13&rc=amdkZnA5cjpzdjUzNzhoM0BpamdkZnA5cjpzdjUzNzhoM0AuY15xMmRzMGpgLS1kLjZzYSMuY15xMmRzMGpgLS1kLjZzcw%3D%3D&vvpl=1&l=02173103962103400000000000000000000ffff0a00afb97d90e8&btag=e00078000&format=mp3&mime_type=audio_mpeg",
        "source_timerange": {
            "start_offset": 10.626000000000005,
            "end_offset": 12.143999999999998
        },
        "target_timerange": {
            "start_offset": 219.306,
            "end_offset": 220.824
        },
        "ignore_audio": true,
        "audio_path": null
    },
    {
        "segment_id": "da4279c09d8811efbee9b8cef68aba34",
        "text": "making bets and exclaiming",
        "audio_url": "https://v16m-default.akamaized.net/d431de7fd863302f3e8eaaa3ad62b2d0/672de612/video/tos/maliva/tos-maliva-v-f15faa-us/ocEAtznw3AsAuoqx2SEFAiigjkB8tlA86fDPZk/?a=7073&bti=OTU0QDItLmA%3D&ch=0&cr=0&dr=4&er=0&lr=unwatermarked&cd=0%7C0%7C0%7C0&br=312&bt=156&ds=5&ft=.cwOVInz7ThRDGvOXq8Zmo&qs=13&rc=amdkZnA5cjpzdjUzNzhoM0BpamdkZnA5cjpzdjUzNzhoM0AuY15xMmRzMGpgLS1kLjZzYSMuY15xMmRzMGpgLS1kLjZzcw%3D%3D&vvpl=1&l=02173103962103400000000000000000000ffff0a00afb97d90e8&btag=e00078000&format=mp3&mime_type=audio_mpeg",
        "source_timerange": {
            "start_offset": 12.144000000000005,
            "end_offset": 13.661999999999999
        },
        "target_timerange": {
            "start_offset": 220.824,
            "end_offset": 222.342
        },
        "ignore_audio": true,
        "audio_path": null
    },
    {
        "segment_id": "da427ac49d8811efbee9b8cef68aba34",
        "text": "after prizes, to have",
        "audio_url": "https://v16m-default.akamaized.net/d431de7fd863302f3e8eaaa3ad62b2d0/672de612/video/tos/maliva/tos-maliva-v-f15faa-us/ocEAtznw3AsAuoqx2SEFAiigjkB8tlA86fDPZk/?a=7073&bti=OTU0QDItLmA%3D&ch=0&cr=0&dr=4&er=0&lr=unwatermarked&cd=0%7C0%7C0%7C0&br=312&bt=156&ds=5&ft=.cwOVInz7ThRDGvOXq8Zmo&qs=13&rc=amdkZnA5cjpzdjUzNzhoM0BpamdkZnA5cjpzdjUzNzhoM0AuY15xMmRzMGpgLS1kLjZzYSMuY15xMmRzMGpgLS1kLjZzcw%3D%3D&vvpl=1&l=02173103962103400000000000000000000ffff0a00afb97d90e8&btag=e00078000&format=mp3&mime_type=audio_mpeg",
        "source_timerange": {
            "start_offset": 13.662000000000006,
            "end_offset": 15.18
        },
        "target_timerange": {
            "start_offset": 222.342,
            "end_offset": 223.86
        },
        "ignore_audio": true,
        "audio_path": null
    },
    {
        "segment_id": "da427ba09d8811efbee9b8cef68aba34",
        "text": "attention for anyone in",
        "audio_url": "https://v16m-default.akamaized.net/d431de7fd863302f3e8eaaa3ad62b2d0/672de612/video/tos/maliva/tos-maliva-v-f15faa-us/ocEAtznw3AsAuoqx2SEFAiigjkB8tlA86fDPZk/?a=7073&bti=OTU0QDItLmA%3D&ch=0&cr=0&dr=4&er=0&lr=unwatermarked&cd=0%7C0%7C0%7C0&br=312&bt=156&ds=5&ft=.cwOVInz7ThRDGvOXq8Zmo&qs=13&rc=amdkZnA5cjpzdjUzNzhoM0BpamdkZnA5cjpzdjUzNzhoM0AuY15xMmRzMGpgLS1kLjZzYSMuY15xMmRzMGpgLS1kLjZzcw%3D%3D&vvpl=1&l=02173103962103400000000000000000000ffff0a00afb97d90e8&btag=e00078000&format=mp3&mime_type=audio_mpeg",
        "source_timerange": {
            "start_offset": 15.180000000000007,
            "end_offset": 16.698
        },
        "target_timerange": {
            "start_offset": 223.86,
            "end_offset": 225.37800000000001
        },
        "ignore_audio": true,
        "audio_path": null
    },
    {
        "segment_id": "da427c689d8811efbee9b8cef68aba34",
        "text": "particular.",
        "audio_url": "https://v16m-default.akamaized.net/d431de7fd863302f3e8eaaa3ad62b2d0/672de612/video/tos/maliva/tos-maliva-v-f15faa-us/ocEAtznw3AsAuoqx2SEFAiigjkB8tlA86fDPZk/?a=7073&bti=OTU0QDItLmA%3D&ch=0&cr=0&dr=4&er=0&lr=unwatermarked&cd=0%7C0%7C0%7C0&br=312&bt=156&ds=5&ft=.cwOVInz7ThRDGvOXq8Zmo&qs=13&rc=amdkZnA5cjpzdjUzNzhoM0BpamdkZnA5cjpzdjUzNzhoM0AuY15xMmRzMGpgLS1kLjZzYSMuY15xMmRzMGpgLS1kLjZzcw%3D%3D&vvpl=1&l=02173103962103400000000000000000000ffff0a00afb97d90e8&btag=e00078000&format=mp3&mime_type=audio_mpeg",
        "source_timerange": {
            "start_offset": 16.698000000000008,
            "end_offset": 18.216
        },
        "target_timerange": {
            "start_offset": 225.37800000000001,
            "end_offset": 226.89600000000002
        },
        "ignore_audio": true,
        "audio_path": null
    },
    {
        "segment_id": "da42a5949d8811efbee9b8cef68aba34",
        "text": "Allowing for the common",
        "audio_url": "https://v16m-default.akamaized.net/9c3df00eac367edad21c2aa99dc65391/672de610/video/tos/maliva/tos-maliva-v-f15faa-us/ow9oJSkPF3jwswkzqS5AgkalZiEnEAitAAAlfB/?a=7073&bti=OTU0QDItLmA%3D&ch=0&cr=0&dr=4&er=0&lr=unwatermarked&cd=0%7C0%7C0%7C0&br=312&bt=156&ds=5&ft=.cwOVInz7ThRDGvOXq8Zmo&qs=13&rc=amxkbGo5cjpzdjUzNzhoM0BpamxkbGo5cjpzdjUzNzhoM0BwNV9vMmRzMGpgLS1kLjZzYSNwNV9vMmRzMGpgLS1kLjZzcw%3D%3D&vvpl=1&l=02173103962103400000000000000000000ffff0a00afb97d90e8&btag=e00078000&format=mp3&mime_type=audio_mpeg",
        "source_timerange": {
            "start_offset": 0,
            "end_offset": 1.49672727272727
        },
        "target_timerange": {
            "start_offset": 226.89600000000002,
            "end_offset": 228.39272727272729
        },
        "ignore_audio": false,
        "audio_path": null
    },
    {
        "segment_id": "da42a6a29d8811efbee9b8cef68aba34",
        "text": "demands of the game, Mr.",
        "audio_url": "https://v16m-default.akamaized.net/9c3df00eac367edad21c2aa99dc65391/672de610/video/tos/maliva/tos-maliva-v-f15faa-us/ow9oJSkPF3jwswkzqS5AgkalZiEnEAitAAAlfB/?a=7073&bti=OTU0QDItLmA%3D&ch=0&cr=0&dr=4&er=0&lr=unwatermarked&cd=0%7C0%7C0%7C0&br=312&bt=156&ds=5&ft=.cwOVInz7ThRDGvOXq8Zmo&qs=13&rc=amxkbGo5cjpzdjUzNzhoM0BpamxkbGo5cjpzdjUzNzhoM0BwNV9vMmRzMGpgLS1kLjZzYSNwNV9vMmRzMGpgLS1kLjZzcw%3D%3D&vvpl=1&l=02173103962103400000000000000000000ffff0a00afb97d90e8&btag=e00078000&format=mp3&mime_type=audio_mpeg",
        "source_timerange": {
            "start_offset": 1.49672727272727,
            "end_offset": 2.99345454545454
        },
        "target_timerange": {
            "start_offset": 228.39272727272729,
            "end_offset": 229.88945454545456
        },
        "ignore_audio": true,
        "audio_path": null
    },
    {
        "segment_id": "da42a7889d8811efbee9b8cef68aba34",
        "text": "Wickham was therefore at",
        "audio_url": "https://v16m-default.akamaized.net/9c3df00eac367edad21c2aa99dc65391/672de610/video/tos/maliva/tos-maliva-v-f15faa-us/ow9oJSkPF3jwswkzqS5AgkalZiEnEAitAAAlfB/?a=7073&bti=OTU0QDItLmA%3D&ch=0&cr=0&dr=4&er=0&lr=unwatermarked&cd=0%7C0%7C0%7C0&br=312&bt=156&ds=5&ft=.cwOVInz7ThRDGvOXq8Zmo&qs=13&rc=amxkbGo5cjpzdjUzNzhoM0BpamxkbGo5cjpzdjUzNzhoM0BwNV9vMmRzMGpgLS1kLjZzYSNwNV9vMmRzMGpgLS1kLjZzcw%3D%3D&vvpl=1&l=02173103962103400000000000000000000ffff0a00afb97d90e8&btag=e00078000&format=mp3&mime_type=audio_mpeg",
        "source_timerange": {
            "start_offset": 2.99345454545454,
            "end_offset": 4.49018181818181
        },
        "target_timerange": {
            "start_offset": 229.88945454545456,
            "end_offset": 231.38618181818183
        },
        "ignore_audio": true,
        "audio_path": null
    },
    {
        "segment_id": "da42a85a9d8811efbee9b8cef68aba34",
        "text": "leisure to talk to",
        "audio_url": "https://v16m-default.akamaized.net/9c3df00eac367edad21c2aa99dc65391/672de610/video/tos/maliva/tos-maliva-v-f15faa-us/ow9oJSkPF3jwswkzqS5AgkalZiEnEAitAAAlfB/?a=7073&bti=OTU0QDItLmA%3D&ch=0&cr=0&dr=4&er=0&lr=unwatermarked&cd=0%7C0%7C0%7C0&br=312&bt=156&ds=5&ft=.cwOVInz7ThRDGvOXq8Zmo&qs=13&rc=amxkbGo5cjpzdjUzNzhoM0BpamxkbGo5cjpzdjUzNzhoM0BwNV9vMmRzMGpgLS1kLjZzYSNwNV9vMmRzMGpgLS1kLjZzcw%3D%3D&vvpl=1&l=02173103962103400000000000000000000ffff0a00afb97d90e8&btag=e00078000&format=mp3&mime_type=audio_mpeg",
        "source_timerange": {
            "start_offset": 4.49018181818181,
            "end_offset": 5.98690909090908
        },
        "target_timerange": {
            "start_offset": 231.38618181818183,
            "end_offset": 232.8829090909091
        },
        "ignore_audio": true,
        "audio_path": null
    },
    {
        "segment_id": "da42a92c9d8811efbee9b8cef68aba34",
        "text": "Elizabeth, and she was",
        "audio_url": "https://v16m-default.akamaized.net/9c3df00eac367edad21c2aa99dc65391/672de610/video/tos/maliva/tos-maliva-v-f15faa-us/ow9oJSkPF3jwswkzqS5AgkalZiEnEAitAAAlfB/?a=7073&bti=OTU0QDItLmA%3D&ch=0&cr=0&dr=4&er=0&lr=unwatermarked&cd=0%7C0%7C0%7C0&br=312&bt=156&ds=5&ft=.cwOVInz7ThRDGvOXq8Zmo&qs=13&rc=amxkbGo5cjpzdjUzNzhoM0BpamxkbGo5cjpzdjUzNzhoM0BwNV9vMmRzMGpgLS1kLjZzYSNwNV9vMmRzMGpgLS1kLjZzcw%3D%3D&vvpl=1&l=02173103962103400000000000000000000ffff0a00afb97d90e8&btag=e00078000&format=mp3&mime_type=audio_mpeg",
        "source_timerange": {
            "start_offset": 5.98690909090908,
            "end_offset": 7.48363636363635
        },
        "target_timerange": {
            "start_offset": 232.8829090909091,
            "end_offset": 234.37963636363637
        },
        "ignore_audio": true,
        "audio_path": null
    },
    {
        "segment_id": "da42a9ea9d8811efbee9b8cef68aba34",
        "text": "very willing to hear him,",
        "audio_url": "https://v16m-default.akamaized.net/9c3df00eac367edad21c2aa99dc65391/672de610/video/tos/maliva/tos-maliva-v-f15faa-us/ow9oJSkPF3jwswkzqS5AgkalZiEnEAitAAAlfB/?a=7073&bti=OTU0QDItLmA%3D&ch=0&cr=0&dr=4&er=0&lr=unwatermarked&cd=0%7C0%7C0%7C0&br=312&bt=156&ds=5&ft=.cwOVInz7ThRDGvOXq8Zmo&qs=13&rc=amxkbGo5cjpzdjUzNzhoM0BpamxkbGo5cjpzdjUzNzhoM0BwNV9vMmRzMGpgLS1kLjZzYSNwNV9vMmRzMGpgLS1kLjZzcw%3D%3D&vvpl=1&l=02173103962103400000000000000000000ffff0a00afb97d90e8&btag=e00078000&format=mp3&mime_type=audio_mpeg",
        "source_timerange": {
            "start_offset": 7.48363636363635,
            "end_offset": 8.980363636363649
        },
        "target_timerange": {
            "start_offset": 234.37963636363637,
            "end_offset": 235.87636363636366
        },
        "ignore_audio": true,
        "audio_path": null
    },
    {
        "segment_id": "da42aad09d8811efbee9b8cef68aba34",
        "text": "though what she chiefly",
        "audio_url": "https://v16m-default.akamaized.net/9c3df00eac367edad21c2aa99dc65391/672de610/video/tos/maliva/tos-maliva-v-f15faa-us/ow9oJSkPF3jwswkzqS5AgkalZiEnEAitAAAlfB/?a=7073&bti=OTU0QDItLmA%3D&ch=0&cr=0&dr=4&er=0&lr=unwatermarked&cd=0%7C0%7C0%7C0&br=312&bt=156&ds=5&ft=.cwOVInz7ThRDGvOXq8Zmo&qs=13&rc=amxkbGo5cjpzdjUzNzhoM0BpamxkbGo5cjpzdjUzNzhoM0BwNV9vMmRzMGpgLS1kLjZzYSNwNV9vMmRzMGpgLS1kLjZzcw%3D%3D&vvpl=1&l=02173103962103400000000000000000000ffff0a00afb97d90e8&btag=e00078000&format=mp3&mime_type=audio_mpeg",
        "source_timerange": {
            "start_offset": 8.980363636363649,
            "end_offset": 10.477090909090919
        },
        "target_timerange": {
            "start_offset": 235.87636363636366,
            "end_offset": 237.37309090909093
        },
        "ignore_audio": true,
        "audio_path": null
    },
    {
        "segment_id": "da42ab8e9d8811efbee9b8cef68aba34",
        "text": "wished to hear she could",
        "audio_url": "https://v16m-default.akamaized.net/9c3df00eac367edad21c2aa99dc65391/672de610/video/tos/maliva/tos-maliva-v-f15faa-us/ow9oJSkPF3jwswkzqS5AgkalZiEnEAitAAAlfB/?a=7073&bti=OTU0QDItLmA%3D&ch=0&cr=0&dr=4&er=0&lr=unwatermarked&cd=0%7C0%7C0%7C0&br=312&bt=156&ds=5&ft=.cwOVInz7ThRDGvOXq8Zmo&qs=13&rc=amxkbGo5cjpzdjUzNzhoM0BpamxkbGo5cjpzdjUzNzhoM0BwNV9vMmRzMGpgLS1kLjZzYSNwNV9vMmRzMGpgLS1kLjZzcw%3D%3D&vvpl=1&l=02173103962103400000000000000000000ffff0a00afb97d90e8&btag=e00078000&format=mp3&mime_type=audio_mpeg",
        "source_timerange": {
            "start_offset": 10.477090909090919,
            "end_offset": 11.973818181818189
        },
        "target_timerange": {
            "start_offset": 237.37309090909093,
            "end_offset": 238.8698181818182
        },
        "ignore_audio": true,
        "audio_path": null
    },
    {
        "segment_id": "da42acba9d8811efbee9b8cef68aba34",
        "text": "not hope to be told, the",
        "audio_url": "https://v16m-default.akamaized.net/9c3df00eac367edad21c2aa99dc65391/672de610/video/tos/maliva/tos-maliva-v-f15faa-us/ow9oJSkPF3jwswkzqS5AgkalZiEnEAitAAAlfB/?a=7073&bti=OTU0QDItLmA%3D&ch=0&cr=0&dr=4&er=0&lr=unwatermarked&cd=0%7C0%7C0%7C0&br=312&bt=156&ds=5&ft=.cwOVInz7ThRDGvOXq8Zmo&qs=13&rc=amxkbGo5cjpzdjUzNzhoM0BpamxkbGo5cjpzdjUzNzhoM0BwNV9vMmRzMGpgLS1kLjZzYSNwNV9vMmRzMGpgLS1kLjZzcw%3D%3D&vvpl=1&l=02173103962103400000000000000000000ffff0a00afb97d90e8&btag=e00078000&format=mp3&mime_type=audio_mpeg",
        "source_timerange": {
            "start_offset": 11.973818181818189,
            "end_offset": 13.470545454545459
        },
        "target_timerange": {
            "start_offset": 238.8698181818182,
            "end_offset": 240.36654545454547
        },
        "ignore_audio": true,
        "audio_path": null
    },
    {
        "segment_id": "da42ada09d8811efbee9b8cef68aba34",
        "text": "history of his",
        "audio_url": "https://v16m-default.akamaized.net/9c3df00eac367edad21c2aa99dc65391/672de610/video/tos/maliva/tos-maliva-v-f15faa-us/ow9oJSkPF3jwswkzqS5AgkalZiEnEAitAAAlfB/?a=7073&bti=OTU0QDItLmA%3D&ch=0&cr=0&dr=4&er=0&lr=unwatermarked&cd=0%7C0%7C0%7C0&br=312&bt=156&ds=5&ft=.cwOVInz7ThRDGvOXq8Zmo&qs=13&rc=amxkbGo5cjpzdjUzNzhoM0BpamxkbGo5cjpzdjUzNzhoM0BwNV9vMmRzMGpgLS1kLjZzYSNwNV9vMmRzMGpgLS1kLjZzcw%3D%3D&vvpl=1&l=02173103962103400000000000000000000ffff0a00afb97d90e8&btag=e00078000&format=mp3&mime_type=audio_mpeg",
        "source_timerange": {
            "start_offset": 13.470545454545459,
            "end_offset": 14.967272727272729
        },
        "target_timerange": {
            "start_offset": 240.36654545454547,
            "end_offset": 241.86327272727274
        },
        "ignore_audio": true,
        "audio_path": null
    },
    {
        "segment_id": "da42ae689d8811efbee9b8cef68aba34",
        "text": "acquaintance with Mr. Darcy.",
        "audio_url": "https://v16m-default.akamaized.net/9c3df00eac367edad21c2aa99dc65391/672de610/video/tos/maliva/tos-maliva-v-f15faa-us/ow9oJSkPF3jwswkzqS5AgkalZiEnEAitAAAlfB/?a=7073&bti=OTU0QDItLmA%3D&ch=0&cr=0&dr=4&er=0&lr=unwatermarked&cd=0%7C0%7C0%7C0&br=312&bt=156&ds=5&ft=.cwOVInz7ThRDGvOXq8Zmo&qs=13&rc=amxkbGo5cjpzdjUzNzhoM0BpamxkbGo5cjpzdjUzNzhoM0BwNV9vMmRzMGpgLS1kLjZzYSNwNV9vMmRzMGpgLS1kLjZzcw%3D%3D&vvpl=1&l=02173103962103400000000000000000000ffff0a00afb97d90e8&btag=e00078000&format=mp3&mime_type=audio_mpeg",
        "source_timerange": {
            "start_offset": 14.967272727272729,
            "end_offset": 16.464
        },
        "target_timerange": {
            "start_offset": 241.86327272727274,
            "end_offset": 243.36
        },
        "ignore_audio": true,
        "audio_path": null
    },
    {
        "segment_id": "da42ba2a9d8811efbee9b8cef68aba34",
        "text": "She dared not even",
        "audio_url": "https://v16m-default.akamaized.net/7351792cf34c573d0842d0244c71cec4/672de602/video/tos/maliva/tos-maliva-v-f15faa-us/oQ9kZAAkOACYZFTtCkFEgMDfCWXrA9AEEjffSy/?a=7073&bti=OTU0QDItLmA%3D&ch=0&cr=0&dr=4&er=0&lr=unwatermarked&cd=0%7C0%7C0%7C0&br=312&bt=156&ds=5&ft=.cwOVInz7ThRDGvOXq8Zmo&qs=13&rc=Mzg6eWw5cjpzdjUzNzhoM0BpMzg6eWw5cjpzdjUzNzhoM0Bmcmk1MmRzMGpgLS1kLjZzYSNmcmk1MmRzMGpgLS1kLjZzcw%3D%3D&vvpl=1&l=02173103962103400000000000000000000ffff0a00afb97d90e8&btag=e00070000&format=mp3&mime_type=audio_mpeg",
        "source_timerange": {
            "start_offset": 0,
            "end_offset": 1.127999999999986
        },
        "target_timerange": {
            "start_offset": 243.36,
            "end_offset": 244.488
        },
        "ignore_audio": false,
        "audio_path": null
    },
    {
        "segment_id": "da42bb7e9d8811efbee9b8cef68aba34",
        "text": "mention that gentleman.",
        "audio_url": "https://v16m-default.akamaized.net/7351792cf34c573d0842d0244c71cec4/672de602/video/tos/maliva/tos-maliva-v-f15faa-us/oQ9kZAAkOACYZFTtCkFEgMDfCWXrA9AEEjffSy/?a=7073&bti=OTU0QDItLmA%3D&ch=0&cr=0&dr=4&er=0&lr=unwatermarked&cd=0%7C0%7C0%7C0&br=312&bt=156&ds=5&ft=.cwOVInz7ThRDGvOXq8Zmo&qs=13&rc=Mzg6eWw5cjpzdjUzNzhoM0BpMzg6eWw5cjpzdjUzNzhoM0Bmcmk1MmRzMGpgLS1kLjZzYSNmcmk1MmRzMGpgLS1kLjZzcw%3D%3D&vvpl=1&l=02173103962103400000000000000000000ffff0a00afb97d90e8&btag=e00070000&format=mp3&mime_type=audio_mpeg",
        "source_timerange": {
            "start_offset": 1.127999999999986,
            "end_offset": 2.2560000000000002
        },
        "target_timerange": {
            "start_offset": 244.488,
            "end_offset": 245.616
        },
        "ignore_audio": true,
        "audio_path": null
    },
    {
        "segment_id": "da42c6289d8811efbee9b8cef68aba34",
        "text": "Her curiosity, however, was",
        "audio_url": "https://v16m-default.akamaized.net/631c373abfc13e8e0a25a87697371280/672de603/video/tos/maliva/tos-maliva-v-f15faa-us/o8bsgWDAAIOAFB3MrSfCrVf6z42eIyC2XECcbI/?a=7073&bti=OTU0QDItLmA%3D&ch=0&cr=0&dr=4&er=0&lr=unwatermarked&cd=0%7C0%7C0%7C0&br=312&bt=156&ds=5&ft=.cwOVInz7ThRDGvOXq8Zmo&qs=13&rc=M3VnZ3Y5cjpzdjUzNzhoM0BpM3VnZ3Y5cjpzdjUzNzhoM0A0a2cyMmRzMGpgLS1kLjZzYSM0a2cyMmRzMGpgLS1kLjZzcw%3D%3D&vvpl=1&l=02173103962103400000000000000000000ffff0a00afb97d90e8&btag=e00070000&format=mp3&mime_type=audio_mpeg",
        "source_timerange": {
            "start_offset": 0,
            "end_offset": 1.5
        },
        "target_timerange": {
            "start_offset": 245.616,
            "end_offset": 247.116
        },
        "ignore_audio": false,
        "audio_path": null
    },
    {
        "segment_id": "da42c72c9d8811efbee9b8cef68aba34",
        "text": "unexpectedly relieved.",
        "audio_url": "https://v16m-default.akamaized.net/631c373abfc13e8e0a25a87697371280/672de603/video/tos/maliva/tos-maliva-v-f15faa-us/o8bsgWDAAIOAFB3MrSfCrVf6z42eIyC2XECcbI/?a=7073&bti=OTU0QDItLmA%3D&ch=0&cr=0&dr=4&er=0&lr=unwatermarked&cd=0%7C0%7C0%7C0&br=312&bt=156&ds=5&ft=.cwOVInz7ThRDGvOXq8Zmo&qs=13&rc=M3VnZ3Y5cjpzdjUzNzhoM0BpM3VnZ3Y5cjpzdjUzNzhoM0A0a2cyMmRzMGpgLS1kLjZzYSM0a2cyMmRzMGpgLS1kLjZzcw%3D%3D&vvpl=1&l=02173103962103400000000000000000000ffff0a00afb97d90e8&btag=e00070000&format=mp3&mime_type=audio_mpeg",
        "source_timerange": {
            "start_offset": 1.5,
            "end_offset": 3
        },
        "target_timerange": {
            "start_offset": 247.116,
            "end_offset": 248.616
        },
        "ignore_audio": true,
        "audio_path": null
    },
    {
        "segment_id": "da42cce09d8811efbee9b8cef68aba34",
        "text": "Mr. Wickham began the subject himself.",
        "audio_url": "https://v16m-default.akamaized.net/c4976c20ec1a2a23c19936024c638f04/672de602/video/tos/maliva/tos-maliva-v-f15faa-us/oYvZtXTbySA9CEEOAWFfCCgI3kvAMXEfrAD6Cf/?a=7073&bti=OTU0QDItLmA%3D&ch=0&cr=0&dr=4&er=0&lr=unwatermarked&cd=0%7C0%7C0%7C0&br=312&bt=156&ds=5&ft=.cwOVInz7ThRDGvOXq8Zmo&qs=13&rc=anE8dXc5cjpzdjUzNzhoM0BpanE8dXc5cjpzdjUzNzhoM0BfNGxjMmRzMGpgLS1kLjZzYSNfNGxjMmRzMGpgLS1kLjZzcw%3D%3D&vvpl=1&l=02173103962103400000000000000000000ffff0a00afb97d90e8&btag=e00070000&format=mp3&mime_type=audio_mpeg",
        "source_timerange": {
            "start_offset": 0,
            "end_offset": 2.112
        },
        "target_timerange": {
            "start_offset": 248.616,
            "end_offset": 250.728
        },
        "ignore_audio": false,
        "audio_path": null
    },
    {
        "segment_id": "da42e3ec9d8811efbee9b8cef68aba34",
        "text": "He inquired how far",
        "audio_url": "https://v16m-default.akamaized.net/cdf60a3bf1022f37b16fd840c091bafe/672de608/video/tos/maliva/tos-maliva-v-f15faa-us/ogZhQLAAMFf6LBJAGn9gV0QAGEEqfBbDEtkaAE/?a=7073&bti=OTU0QDItLmA%3D&ch=0&cr=0&dr=4&er=0&lr=unwatermarked&cd=0%7C0%7C0%7C0&br=312&bt=156&ds=5&ft=.cwOVInz7ThRDGvOXq8Zmo&qs=13&rc=M3VnNXg5cjtzdjUzNzhoM0BpM3VnNXg5cjtzdjUzNzhoM0Bxci1nMmQ0MGpgLS1kLjZzYSNxci1nMmQ0MGpgLS1kLjZzcw%3D%3D&vvpl=1&l=02173103962103400000000000000000000ffff0a00afb97d90e8&btag=e00070000&format=mp3&mime_type=audio_mpeg",
        "source_timerange": {
            "start_offset": 0,
            "end_offset": 1.496000000000011
        },
        "target_timerange": {
            "start_offset": 250.728,
            "end_offset": 252.22400000000002
        },
        "ignore_audio": false,
        "audio_path": null
    },
    {
        "segment_id": "da42e4f09d8811efbee9b8cef68aba34",
        "text": "Netherfield was from",
        "audio_url": "https://v16m-default.akamaized.net/cdf60a3bf1022f37b16fd840c091bafe/672de608/video/tos/maliva/tos-maliva-v-f15faa-us/ogZhQLAAMFf6LBJAGn9gV0QAGEEqfBbDEtkaAE/?a=7073&bti=OTU0QDItLmA%3D&ch=0&cr=0&dr=4&er=0&lr=unwatermarked&cd=0%7C0%7C0%7C0&br=312&bt=156&ds=5&ft=.cwOVInz7ThRDGvOXq8Zmo&qs=13&rc=M3VnNXg5cjtzdjUzNzhoM0BpM3VnNXg5cjtzdjUzNzhoM0Bxci1nMmQ0MGpgLS1kLjZzYSNxci1nMmQ0MGpgLS1kLjZzcw%3D%3D&vvpl=1&l=02173103962103400000000000000000000ffff0a00afb97d90e8&btag=e00070000&format=mp3&mime_type=audio_mpeg",
        "source_timerange": {
            "start_offset": 1.4960000000000093,
            "end_offset": 2.991999999999992
        },
        "target_timerange": {
            "start_offset": 252.22400000000002,
            "end_offset": 253.72
        },
        "ignore_audio": true,
        "audio_path": null
    },
    {
        "segment_id": "da42e6589d8811efbee9b8cef68aba34",
        "text": "Meryton; and, after",
        "audio_url": "https://v16m-default.akamaized.net/cdf60a3bf1022f37b16fd840c091bafe/672de608/video/tos/maliva/tos-maliva-v-f15faa-us/ogZhQLAAMFf6LBJAGn9gV0QAGEEqfBbDEtkaAE/?a=7073&bti=OTU0QDItLmA%3D&ch=0&cr=0&dr=4&er=0&lr=unwatermarked&cd=0%7C0%7C0%7C0&br=312&bt=156&ds=5&ft=.cwOVInz7ThRDGvOXq8Zmo&qs=13&rc=M3VnNXg5cjtzdjUzNzhoM0BpM3VnNXg5cjtzdjUzNzhoM0Bxci1nMmQ0MGpgLS1kLjZzYSNxci1nMmQ0MGpgLS1kLjZzcw%3D%3D&vvpl=1&l=02173103962103400000000000000000000ffff0a00afb97d90e8&btag=e00070000&format=mp3&mime_type=audio_mpeg",
        "source_timerange": {
            "start_offset": 2.9919999999999902,
            "end_offset": 4.488000000000001
        },
        "target_timerange": {
            "start_offset": 253.72,
            "end_offset": 255.216
        },
        "ignore_audio": true,
        "audio_path": null
    },
    {
        "segment_id": "da42e72a9d8811efbee9b8cef68aba34",
        "text": "receiving her answer, asked",
        "audio_url": "https://v16m-default.akamaized.net/cdf60a3bf1022f37b16fd840c091bafe/672de608/video/tos/maliva/tos-maliva-v-f15faa-us/ogZhQLAAMFf6LBJAGn9gV0QAGEEqfBbDEtkaAE/?a=7073&bti=OTU0QDItLmA%3D&ch=0&cr=0&dr=4&er=0&lr=unwatermarked&cd=0%7C0%7C0%7C0&br=312&bt=156&ds=5&ft=.cwOVInz7ThRDGvOXq8Zmo&qs=13&rc=M3VnNXg5cjtzdjUzNzhoM0BpM3VnNXg5cjtzdjUzNzhoM0Bxci1nMmQ0MGpgLS1kLjZzYSNxci1nMmQ0MGpgLS1kLjZzcw%3D%3D&vvpl=1&l=02173103962103400000000000000000000ffff0a00afb97d90e8&btag=e00070000&format=mp3&mime_type=audio_mpeg",
        "source_timerange": {
            "start_offset": 4.4879999999999995,
            "end_offset": 5.983999999999982
        },
        "target_timerange": {
            "start_offset": 255.216,
            "end_offset": 256.712
        },
        "ignore_audio": true,
        "audio_path": null
    },
    {
        "segment_id": "da42e8069d8811efbee9b8cef68aba34",
        "text": "in a hesitating manner how",
        "audio_url": "https://v16m-default.akamaized.net/cdf60a3bf1022f37b16fd840c091bafe/672de608/video/tos/maliva/tos-maliva-v-f15faa-us/ogZhQLAAMFf6LBJAGn9gV0QAGEEqfBbDEtkaAE/?a=7073&bti=OTU0QDItLmA%3D&ch=0&cr=0&dr=4&er=0&lr=unwatermarked&cd=0%7C0%7C0%7C0&br=312&bt=156&ds=5&ft=.cwOVInz7ThRDGvOXq8Zmo&qs=13&rc=M3VnNXg5cjtzdjUzNzhoM0BpM3VnNXg5cjtzdjUzNzhoM0Bxci1nMmQ0MGpgLS1kLjZzYSNxci1nMmQ0MGpgLS1kLjZzcw%3D%3D&vvpl=1&l=02173103962103400000000000000000000ffff0a00afb97d90e8&btag=e00070000&format=mp3&mime_type=audio_mpeg",
        "source_timerange": {
            "start_offset": 5.9839999999999804,
            "end_offset": 7.48000000000002
        },
        "target_timerange": {
            "start_offset": 256.712,
            "end_offset": 258.208
        },
        "ignore_audio": true,
        "audio_path": null
    },
    {
        "segment_id": "da42e8ce9d8811efbee9b8cef68aba34",
        "text": "long Mr. Darcy had been staying there.",
        "audio_url": "https://v16m-default.akamaized.net/cdf60a3bf1022f37b16fd840c091bafe/672de608/video/tos/maliva/tos-maliva-v-f15faa-us/ogZhQLAAMFf6LBJAGn9gV0QAGEEqfBbDEtkaAE/?a=7073&bti=OTU0QDItLmA%3D&ch=0&cr=0&dr=4&er=0&lr=unwatermarked&cd=0%7C0%7C0%7C0&br=312&bt=156&ds=5&ft=.cwOVInz7ThRDGvOXq8Zmo&qs=13&rc=M3VnNXg5cjtzdjUzNzhoM0BpM3VnNXg5cjtzdjUzNzhoM0Bxci1nMmQ0MGpgLS1kLjZzYSNxci1nMmQ0MGpgLS1kLjZzcw%3D%3D&vvpl=1&l=02173103962103400000000000000000000ffff0a00afb97d90e8&btag=e00070000&format=mp3&mime_type=audio_mpeg",
        "source_timerange": {
            "start_offset": 7.480000000000018,
            "end_offset": 8.976
        },
        "target_timerange": {
            "start_offset": 258.208,
            "end_offset": 259.704
        },
        "ignore_audio": true,
        "audio_path": null
    },
    {
        "segment_id": "da4300709d8811efbee9b8cef68aba34",
        "text": "“About a month,” said",
        "audio_url": "https://v16m-default.akamaized.net/73938b59c62cff40d14f03833882b06f/672de608/video/tos/maliva/tos-maliva-v-f15faa-us/oUMbAQhAZIItfWfFnk98BfizCfAaEWAXbcIkuF/?a=7073&bti=OTU0QDItLmA%3D&ch=0&cr=0&dr=4&er=0&lr=unwatermarked&cd=0%7C0%7C0%7C0&br=312&bt=156&ds=5&ft=.cwOVInz7ThRDGvOXq8Zmo&qs=13&rc=am15aG45cjpzdjUzNzhoM0Bpam15aG45cjpzdjUzNzhoM0Bqc28yMmRzMGpgLS1kLjZzYSNqc28yMmRzMGpgLS1kLjZzcw%3D%3D&vvpl=1&l=02173103962103400000000000000000000ffff0a00afb97d90e8&btag=e00070000&format=mp3&mime_type=audio_mpeg",
        "source_timerange": {
            "start_offset": 0,
            "end_offset": 1.4080000000000368
        },
        "target_timerange": {
            "start_offset": 259.704,
            "end_offset": 261.112
        },
        "ignore_audio": false,
        "audio_path": null
    },
    {
        "segment_id": "da43017e9d8811efbee9b8cef68aba34",
        "text": "Elizabeth; and then,",
        "audio_url": "https://v16m-default.akamaized.net/73938b59c62cff40d14f03833882b06f/672de608/video/tos/maliva/tos-maliva-v-f15faa-us/oUMbAQhAZIItfWfFnk98BfizCfAaEWAXbcIkuF/?a=7073&bti=OTU0QDItLmA%3D&ch=0&cr=0&dr=4&er=0&lr=unwatermarked&cd=0%7C0%7C0%7C0&br=312&bt=156&ds=5&ft=.cwOVInz7ThRDGvOXq8Zmo&qs=13&rc=am15aG45cjpzdjUzNzhoM0Bpam15aG45cjpzdjUzNzhoM0Bqc28yMmRzMGpgLS1kLjZzYSNqc28yMmRzMGpgLS1kLjZzcw%3D%3D&vvpl=1&l=02173103962103400000000000000000000ffff0a00afb97d90e8&btag=e00070000&format=mp3&mime_type=audio_mpeg",
        "source_timerange": {
            "start_offset": 1.4080000000000155,
            "end_offset": 2.8159999999999954
        },
        "target_timerange": {
            "start_offset": 261.112,
            "end_offset": 262.52
        },
        "ignore_audio": true,
        "audio_path": null
    },
    {
        "segment_id": "da43025a9d8811efbee9b8cef68aba34",
        "text": "unwilling to let the subject",
        "audio_url": "https://v16m-default.akamaized.net/73938b59c62cff40d14f03833882b06f/672de608/video/tos/maliva/tos-maliva-v-f15faa-us/oUMbAQhAZIItfWfFnk98BfizCfAaEWAXbcIkuF/?a=7073&bti=OTU0QDItLmA%3D&ch=0&cr=0&dr=4&er=0&lr=unwatermarked&cd=0%7C0%7C0%7C0&br=312&bt=156&ds=5&ft=.cwOVInz7ThRDGvOXq8Zmo&qs=13&rc=am15aG45cjpzdjUzNzhoM0Bpam15aG45cjpzdjUzNzhoM0Bqc28yMmRzMGpgLS1kLjZzYSNqc28yMmRzMGpgLS1kLjZzcw%3D%3D&vvpl=1&l=02173103962103400000000000000000000ffff0a00afb97d90e8&btag=e00070000&format=mp3&mime_type=audio_mpeg",
        "source_timerange": {
            "start_offset": 2.815999999999974,
            "end_offset": 4.224000000000011
        },
        "target_timerange": {
            "start_offset": 262.52,
            "end_offset": 263.928
        },
        "ignore_audio": true,
        "audio_path": null
    },
    {
        "segment_id": "da43032c9d8811efbee9b8cef68aba34",
        "text": "drop, added, “he is a man of",
        "audio_url": "https://v16m-default.akamaized.net/73938b59c62cff40d14f03833882b06f/672de608/video/tos/maliva/tos-maliva-v-f15faa-us/oUMbAQhAZIItfWfFnk98BfizCfAaEWAXbcIkuF/?a=7073&bti=OTU0QDItLmA%3D&ch=0&cr=0&dr=4&er=0&lr=unwatermarked&cd=0%7C0%7C0%7C0&br=312&bt=156&ds=5&ft=.cwOVInz7ThRDGvOXq8Zmo&qs=13&rc=am15aG45cjpzdjUzNzhoM0Bpam15aG45cjpzdjUzNzhoM0Bqc28yMmRzMGpgLS1kLjZzYSNqc28yMmRzMGpgLS1kLjZzcw%3D%3D&vvpl=1&l=02173103962103400000000000000000000ffff0a00afb97d90e8&btag=e00070000&format=mp3&mime_type=audio_mpeg",
        "source_timerange": {
            "start_offset": 4.2239999999999895,
            "end_offset": 5.632000000000026
        },
        "target_timerange": {
            "start_offset": 263.928,
            "end_offset": 265.336
        },
        "ignore_audio": true,
        "audio_path": null
    },
    {
        "segment_id": "da4303f49d8811efbee9b8cef68aba34",
        "text": "very large property in",
        "audio_url": "https://v16m-default.akamaized.net/73938b59c62cff40d14f03833882b06f/672de608/video/tos/maliva/tos-maliva-v-f15faa-us/oUMbAQhAZIItfWfFnk98BfizCfAaEWAXbcIkuF/?a=7073&bti=OTU0QDItLmA%3D&ch=0&cr=0&dr=4&er=0&lr=unwatermarked&cd=0%7C0%7C0%7C0&br=312&bt=156&ds=5&ft=.cwOVInz7ThRDGvOXq8Zmo&qs=13&rc=am15aG45cjpzdjUzNzhoM0Bpam15aG45cjpzdjUzNzhoM0Bqc28yMmRzMGpgLS1kLjZzYSNqc28yMmRzMGpgLS1kLjZzcw%3D%3D&vvpl=1&l=02173103962103400000000000000000000ffff0a00afb97d90e8&btag=e00070000&format=mp3&mime_type=audio_mpeg",
        "source_timerange": {
            "start_offset": 5.632000000000005,
            "end_offset": 7.039999999999985
        },
        "target_timerange": {
            "start_offset": 265.336,
            "end_offset": 266.74399999999997
        },
        "ignore_audio": true,
        "audio_path": null
    },
    {
        "segment_id": "da4304bc9d8811efbee9b8cef68aba34",
        "text": "Derbyshire, I understand.”",
        "audio_url": "https://v16m-default.akamaized.net/73938b59c62cff40d14f03833882b06f/672de608/video/tos/maliva/tos-maliva-v-f15faa-us/oUMbAQhAZIItfWfFnk98BfizCfAaEWAXbcIkuF/?a=7073&bti=OTU0QDItLmA%3D&ch=0&cr=0&dr=4&er=0&lr=unwatermarked&cd=0%7C0%7C0%7C0&br=312&bt=156&ds=5&ft=.cwOVInz7ThRDGvOXq8Zmo&qs=13&rc=am15aG45cjpzdjUzNzhoM0Bpam15aG45cjpzdjUzNzhoM0Bqc28yMmRzMGpgLS1kLjZzYSNqc28yMmRzMGpgLS1kLjZzcw%3D%3D&vvpl=1&l=02173103962103400000000000000000000ffff0a00afb97d90e8&btag=e00070000&format=mp3&mime_type=audio_mpeg",
        "source_timerange": {
            "start_offset": 7.039999999999964,
            "end_offset": 8.448
        },
        "target_timerange": {
            "start_offset": 266.74399999999997,
            "end_offset": 268.152
        },
        "ignore_audio": true,
        "audio_path": null
    },
    {
        "segment_id": "da430ff29d8811efbee9b8cef68aba34",
        "text": "“Yes,” replied Wickham; “his",
        "audio_url": "https://v16m-default.akamaized.net/9804cca03524a08fb5757dd7f8b07e85/672de603/video/tos/maliva/tos-maliva-v-f15faa-us/ogkEARf8BbkcXFuvIZzeWIsMAQ0FkfAHeJtNIA/?a=7073&bti=OTU0QDItLmA%3D&ch=0&cr=0&dr=4&er=0&lr=unwatermarked&cd=0%7C0%7C0%7C0&br=312&bt=156&ds=5&ft=.cwOVInz7ThRDGvOXq8Zmo&qs=13&rc=anU8cnc5cjpzdjUzNzhoM0BpanU8cnc5cjpzdjUzNzhoM0A0NWJzMmRzMGpgLS1kLjZzYSM0NWJzMmRzMGpgLS1kLjZzcw%3D%3D&vvpl=1&l=02173103962103400000000000000000000ffff0a00afb97d90e8&btag=e00070000&format=mp3&mime_type=audio_mpeg",
        "source_timerange": {
            "start_offset": 0,
            "end_offset": 1.8359999999999874
        },
        "target_timerange": {
            "start_offset": 268.152,
            "end_offset": 269.988
        },
        "ignore_audio": false,
        "audio_path": null
    },
    {
        "segment_id": "da4310e29d8811efbee9b8cef68aba34",
        "text": "estate there is a noble one.",
        "audio_url": "https://v16m-default.akamaized.net/9804cca03524a08fb5757dd7f8b07e85/672de603/video/tos/maliva/tos-maliva-v-f15faa-us/ogkEARf8BbkcXFuvIZzeWIsMAQ0FkfAHeJtNIA/?a=7073&bti=OTU0QDItLmA%3D&ch=0&cr=0&dr=4&er=0&lr=unwatermarked&cd=0%7C0%7C0%7C0&br=312&bt=156&ds=5&ft=.cwOVInz7ThRDGvOXq8Zmo&qs=13&rc=anU8cnc5cjpzdjUzNzhoM0BpanU8cnc5cjpzdjUzNzhoM0A0NWJzMmRzMGpgLS1kLjZzYSM0NWJzMmRzMGpgLS1kLjZzcw%3D%3D&vvpl=1&l=02173103962103400000000000000000000ffff0a00afb97d90e8&btag=e00070000&format=mp3&mime_type=audio_mpeg",
        "source_timerange": {
            "start_offset": 1.8360000000000127,
            "end_offset": 3.672
        },
        "target_timerange": {
            "start_offset": 269.988,
            "end_offset": 271.824
        },
        "ignore_audio": true,
        "audio_path": null
    },
    {
        "segment_id": "da4316969d8811efbee9b8cef68aba34",
        "text": "A clear ten thousand per annum.",
        "audio_url": "https://v16m-default.akamaized.net/39b0f471fadafe74781591733a241fe7/672de603/video/tos/maliva/tos-maliva-v-f15faa-us/ooQ46CECSyYiZaoBRUkAD9AWEPAVtArGroA2i/?a=7073&bti=OTU0QDItLmA%3D&ch=0&cr=0&dr=4&er=0&lr=unwatermarked&cd=0%7C0%7C0%7C0&br=312&bt=156&ds=5&ft=.cwOVInz7ThODGvOXq8Zmo&qs=13&rc=M2VoZHc5cjtzdjUzNzhoM0BpM2VoZHc5cjtzdjUzNzhoM0Atay1gMmQ0MGpgLS1kLjZzYSMtay1gMmQ0MGpgLS1kLjZzcw%3D%3D&vvpl=1&l=02173103962103400000000000000000000ffff0a00afb97d90e8&btag=e00070000&format=mp3&mime_type=audio_mpeg",
        "source_timerange": {
            "start_offset": 0,
            "end_offset": 2.16
        },
        "target_timerange": {
            "start_offset": 271.824,
            "end_offset": 273.984
        },
        "ignore_audio": false,
        "audio_path": null
    },
    {
        "segment_id": "da4332529d8811efbee9b8cef68aba34",
        "text": "You could not have met with a",
        "audio_url": "https://v16m-default.akamaized.net/9b9cee3bc367990da4a560b8289461b9/672de60b/video/tos/maliva/tos-maliva-v-f15faa-us/oUyACt1EPaSriEkiATwlzU4CQViBAoA4RZ27o/?a=7073&bti=OTU0QDItLmA%3D&ch=0&cr=0&dr=4&er=0&lr=unwatermarked&cd=0%7C0%7C0%7C0&br=312&bt=156&ds=5&ft=.cwOVInz7ThODGvOXq8Zmo&qs=13&rc=M2pleG85cjtzdjUzNzhoM0BpM2pleG85cjtzdjUzNzhoM0BoazFmMmQ0MGpgLS1kLjZzYSNoazFmMmQ0MGpgLS1kLjZzcw%3D%3D&vvpl=1&l=02173103962103400000000000000000000ffff0a00afb97d90e8&btag=e00070000&format=mp3&mime_type=audio_mpeg",
        "source_timerange": {
            "start_offset": 0,
            "end_offset": 1.4982857142857142
        },
        "target_timerange": {
            "start_offset": 273.984,
            "end_offset": 275.4822857142857
        },
        "ignore_audio": false,
        "audio_path": null
    },
    {
        "segment_id": "da4334509d8811efbee9b8cef68aba34",
        "text": "person more capable of giving",
        "audio_url": "https://v16m-default.akamaized.net/9b9cee3bc367990da4a560b8289461b9/672de60b/video/tos/maliva/tos-maliva-v-f15faa-us/oUyACt1EPaSriEkiATwlzU4CQViBAoA4RZ27o/?a=7073&bti=OTU0QDItLmA%3D&ch=0&cr=0&dr=4&er=0&lr=unwatermarked&cd=0%7C0%7C0%7C0&br=312&bt=156&ds=5&ft=.cwOVInz7ThODGvOXq8Zmo&qs=13&rc=M2pleG85cjtzdjUzNzhoM0BpM2pleG85cjtzdjUzNzhoM0BoazFmMmQ0MGpgLS1kLjZzYSNoazFmMmQ0MGpgLS1kLjZzcw%3D%3D&vvpl=1&l=02173103962103400000000000000000000ffff0a00afb97d90e8&btag=e00070000&format=mp3&mime_type=audio_mpeg",
        "source_timerange": {
            "start_offset": 1.4982857142857142,
            "end_offset": 2.9965714285714284
        },
        "target_timerange": {
            "start_offset": 275.4822857142857,
            "end_offset": 276.9805714285714
        },
        "ignore_audio": true,
        "audio_path": null
    },
    {
        "segment_id": "da43355e9d8811efbee9b8cef68aba34",
        "text": "you certain information on",
        "audio_url": "https://v16m-default.akamaized.net/9b9cee3bc367990da4a560b8289461b9/672de60b/video/tos/maliva/tos-maliva-v-f15faa-us/oUyACt1EPaSriEkiATwlzU4CQViBAoA4RZ27o/?a=7073&bti=OTU0QDItLmA%3D&ch=0&cr=0&dr=4&er=0&lr=unwatermarked&cd=0%7C0%7C0%7C0&br=312&bt=156&ds=5&ft=.cwOVInz7ThODGvOXq8Zmo&qs=13&rc=M2pleG85cjtzdjUzNzhoM0BpM2pleG85cjtzdjUzNzhoM0BoazFmMmQ0MGpgLS1kLjZzYSNoazFmMmQ0MGpgLS1kLjZzcw%3D%3D&vvpl=1&l=02173103962103400000000000000000000ffff0a00afb97d90e8&btag=e00070000&format=mp3&mime_type=audio_mpeg",
        "source_timerange": {
            "start_offset": 2.9965714285714284,
            "end_offset": 4.494857142857143
        },
        "target_timerange": {
            "start_offset": 276.9805714285714,
            "end_offset": 278.4788571428571
        },
        "ignore_audio": true,
        "audio_path": null
    },
    {
        "segment_id": "da4336309d8811efbee9b8cef68aba34",
        "text": "that head than myself--for I",
        "audio_url": "https://v16m-default.akamaized.net/9b9cee3bc367990da4a560b8289461b9/672de60b/video/tos/maliva/tos-maliva-v-f15faa-us/oUyACt1EPaSriEkiATwlzU4CQViBAoA4RZ27o/?a=7073&bti=OTU0QDItLmA%3D&ch=0&cr=0&dr=4&er=0&lr=unwatermarked&cd=0%7C0%7C0%7C0&br=312&bt=156&ds=5&ft=.cwOVInz7ThODGvOXq8Zmo&qs=13&rc=M2pleG85cjtzdjUzNzhoM0BpM2pleG85cjtzdjUzNzhoM0BoazFmMmQ0MGpgLS1kLjZzYSNoazFmMmQ0MGpgLS1kLjZzcw%3D%3D&vvpl=1&l=02173103962103400000000000000000000ffff0a00afb97d90e8&btag=e00070000&format=mp3&mime_type=audio_mpeg",
        "source_timerange": {
            "start_offset": 4.494857142857143,
            "end_offset": 5.993142857142857
        },
        "target_timerange": {
            "start_offset": 278.4788571428571,
            "end_offset": 279.97714285714284
        },
        "ignore_audio": true,
        "audio_path": null
    },
    {
        "segment_id": "da4337029d8811efbee9b8cef68aba34",
        "text": "have been connected with his",
        "audio_url": "https://v16m-default.akamaized.net/9b9cee3bc367990da4a560b8289461b9/672de60b/video/tos/maliva/tos-maliva-v-f15faa-us/oUyACt1EPaSriEkiATwlzU4CQViBAoA4RZ27o/?a=7073&bti=OTU0QDItLmA%3D&ch=0&cr=0&dr=4&er=0&lr=unwatermarked&cd=0%7C0%7C0%7C0&br=312&bt=156&ds=5&ft=.cwOVInz7ThODGvOXq8Zmo&qs=13&rc=M2pleG85cjtzdjUzNzhoM0BpM2pleG85cjtzdjUzNzhoM0BoazFmMmQ0MGpgLS1kLjZzYSNoazFmMmQ0MGpgLS1kLjZzcw%3D%3D&vvpl=1&l=02173103962103400000000000000000000ffff0a00afb97d90e8&btag=e00070000&format=mp3&mime_type=audio_mpeg",
        "source_timerange": {
            "start_offset": 5.993142857142857,
            "end_offset": 7.491428571428571
        },
        "target_timerange": {
            "start_offset": 279.97714285714284,
            "end_offset": 281.47542857142855
        },
        "ignore_audio": true,
        "audio_path": null
    },
    {
        "segment_id": "da4337d49d8811efbee9b8cef68aba34",
        "text": "family, in a particular",
        "audio_url": "https://v16m-default.akamaized.net/9b9cee3bc367990da4a560b8289461b9/672de60b/video/tos/maliva/tos-maliva-v-f15faa-us/oUyACt1EPaSriEkiATwlzU4CQViBAoA4RZ27o/?a=7073&bti=OTU0QDItLmA%3D&ch=0&cr=0&dr=4&er=0&lr=unwatermarked&cd=0%7C0%7C0%7C0&br=312&bt=156&ds=5&ft=.cwOVInz7ThODGvOXq8Zmo&qs=13&rc=M2pleG85cjtzdjUzNzhoM0BpM2pleG85cjtzdjUzNzhoM0BoazFmMmQ0MGpgLS1kLjZzYSNoazFmMmQ0MGpgLS1kLjZzcw%3D%3D&vvpl=1&l=02173103962103400000000000000000000ffff0a00afb97d90e8&btag=e00070000&format=mp3&mime_type=audio_mpeg",
        "source_timerange": {
            "start_offset": 7.491428571428571,
            "end_offset": 8.989714285714285
        },
        "target_timerange": {
            "start_offset": 281.47542857142855,
            "end_offset": 282.97371428571427
        },
        "ignore_audio": true,
        "audio_path": null
    },
    {
        "segment_id": "da43389c9d8811efbee9b8cef68aba34",
        "text": "manner, from my infancy.”",
        "audio_url": "https://v16m-default.akamaized.net/9b9cee3bc367990da4a560b8289461b9/672de60b/video/tos/maliva/tos-maliva-v-f15faa-us/oUyACt1EPaSriEkiATwlzU4CQViBAoA4RZ27o/?a=7073&bti=OTU0QDItLmA%3D&ch=0&cr=0&dr=4&er=0&lr=unwatermarked&cd=0%7C0%7C0%7C0&br=312&bt=156&ds=5&ft=.cwOVInz7ThODGvOXq8Zmo&qs=13&rc=M2pleG85cjtzdjUzNzhoM0BpM2pleG85cjtzdjUzNzhoM0BoazFmMmQ0MGpgLS1kLjZzYSNoazFmMmQ0MGpgLS1kLjZzcw%3D%3D&vvpl=1&l=02173103962103400000000000000000000ffff0a00afb97d90e8&btag=e00070000&format=mp3&mime_type=audio_mpeg",
        "source_timerange": {
            "start_offset": 8.989714285714285,
            "end_offset": 10.488
        },
        "target_timerange": {
            "start_offset": 282.97371428571427,
            "end_offset": 284.472
        },
        "ignore_audio": true,
        "audio_path": null
    },
    {
        "segment_id": "da4341f29d8811efbee9b8cef68aba34",
        "text": "Elizabeth could not but",
        "audio_url": "https://v16m-default.akamaized.net/6cdc4a182def68c091ff35840dadcb25/672de603/video/tos/maliva/tos-maliva-v-f15faa-us/o05tghQLfLEALGAQADVnwaBkkEBJFhAeIZAEvv/?a=7073&bti=OTU0QDItLmA%3D&ch=0&cr=0&dr=4&er=0&lr=unwatermarked&cd=0%7C0%7C0%7C0&br=312&bt=156&ds=5&ft=.cwOVInz7ThODGvOXq8Zmo&qs=13&rc=MzRtOXE5cjtzdjUzNzhoM0BpMzRtOXE5cjtzdjUzNzhoM0BmcTBmMmQ0MGpgLS1kLjZzYSNmcTBmMmQ0MGpgLS1kLjZzcw%3D%3D&vvpl=1&l=02173103962103400000000000000000000ffff0a00afb97d90e8&btag=e00070000&format=mp3&mime_type=audio_mpeg",
        "source_timerange": {
            "start_offset": 0,
            "end_offset": 1.2000000000000113
        },
        "target_timerange": {
            "start_offset": 284.472,
            "end_offset": 285.672
        },
        "ignore_audio": false,
        "audio_path": null
    },
    {
        "segment_id": "da4342f69d8811efbee9b8cef68aba34",
        "text": "look surprised.",
        "audio_url": "https://v16m-default.akamaized.net/6cdc4a182def68c091ff35840dadcb25/672de603/video/tos/maliva/tos-maliva-v-f15faa-us/o05tghQLfLEALGAQADVnwaBkkEBJFhAeIZAEvv/?a=7073&bti=OTU0QDItLmA%3D&ch=0&cr=0&dr=4&er=0&lr=unwatermarked&cd=0%7C0%7C0%7C0&br=312&bt=156&ds=5&ft=.cwOVInz7ThODGvOXq8Zmo&qs=13&rc=MzRtOXE5cjtzdjUzNzhoM0BpMzRtOXE5cjtzdjUzNzhoM0BmcTBmMmQ0MGpgLS1kLjZzYSNmcTBmMmQ0MGpgLS1kLjZzcw%3D%3D&vvpl=1&l=02173103962103400000000000000000000ffff0a00afb97d90e8&btag=e00070000&format=mp3&mime_type=audio_mpeg",
        "source_timerange": {
            "start_offset": 1.2000000000000455,
            "end_offset": 2.4
        },
        "target_timerange": {
            "start_offset": 285.672,
            "end_offset": 286.872
        },
        "ignore_audio": true,
        "audio_path": null
    },
    {
        "segment_id": "da438e6e9d8811efbee9b8cef68aba34",
        "text": "“You may well be surprised,",
        "audio_url": "https://v16m-default.akamaized.net/d02c81ef8c9b0c4ded48ab514dd03fd5/672de609/video/tos/maliva/tos-maliva-v-f15faa-us/o0CP5EoQMEUAAASA3iAR7ChiByT2Z4kaiaTVt/?a=7073&bti=OTU0QDItLmA%3D&ch=0&cr=0&dr=4&er=0&lr=unwatermarked&cd=0%7C0%7C0%7C0&br=312&bt=156&ds=5&ft=.cwOVInz7ThODGvOXq8Zmo&qs=13&rc=anRnaHE5cjtzdjUzNzhoM0BpanRnaHE5cjtzdjUzNzhoM0BxM14zMmQ0MGpgLS1kLjZzYSNxM14zMmQ0MGpgLS1kLjZzcw%3D%3D&vvpl=1&l=02173103962103400000000000000000000ffff0a00afb97d90e8&btag=e00070000&format=mp3&mime_type=audio_mpeg",
        "source_timerange": {
            "start_offset": 0,
            "end_offset": 1.4959999999999827
        },
        "target_timerange": {
            "start_offset": 286.872,
            "end_offset": 288.368
        },
        "ignore_audio": false,
        "audio_path": null
    },
    {
        "segment_id": "da438f9a9d8811efbee9b8cef68aba34",
        "text": "Miss Bennet, at such an",
        "audio_url": "https://v16m-default.akamaized.net/d02c81ef8c9b0c4ded48ab514dd03fd5/672de609/video/tos/maliva/tos-maliva-v-f15faa-us/o0CP5EoQMEUAAASA3iAR7ChiByT2Z4kaiaTVt/?a=7073&bti=OTU0QDItLmA%3D&ch=0&cr=0&dr=4&er=0&lr=unwatermarked&cd=0%7C0%7C0%7C0&br=312&bt=156&ds=5&ft=.cwOVInz7ThODGvOXq8Zmo&qs=13&rc=anRnaHE5cjtzdjUzNzhoM0BpanRnaHE5cjtzdjUzNzhoM0BxM14zMmQ0MGpgLS1kLjZzYSNxM14zMmQ0MGpgLS1kLjZzcw%3D%3D&vvpl=1&l=02173103962103400000000000000000000ffff0a00afb97d90e8&btag=e00070000&format=mp3&mime_type=audio_mpeg",
        "source_timerange": {
            "start_offset": 1.495999999999981,
            "end_offset": 2.9920000000000204
        },
        "target_timerange": {
            "start_offset": 288.368,
            "end_offset": 289.86400000000003
        },
        "ignore_audio": true,
        "audio_path": null
    },
    {
        "segment_id": "da4390769d8811efbee9b8cef68aba34",
        "text": "assertion, after seeing, as",
        "audio_url": "https://v16m-default.akamaized.net/d02c81ef8c9b0c4ded48ab514dd03fd5/672de609/video/tos/maliva/tos-maliva-v-f15faa-us/o0CP5EoQMEUAAASA3iAR7ChiByT2Z4kaiaTVt/?a=7073&bti=OTU0QDItLmA%3D&ch=0&cr=0&dr=4&er=0&lr=unwatermarked&cd=0%7C0%7C0%7C0&br=312&bt=156&ds=5&ft=.cwOVInz7ThODGvOXq8Zmo&qs=13&rc=anRnaHE5cjtzdjUzNzhoM0BpanRnaHE5cjtzdjUzNzhoM0BxM14zMmQ0MGpgLS1kLjZzYSNxM14zMmQ0MGpgLS1kLjZzcw%3D%3D&vvpl=1&l=02173103962103400000000000000000000ffff0a00afb97d90e8&btag=e00070000&format=mp3&mime_type=audio_mpeg",
        "source_timerange": {
            "start_offset": 2.9920000000000186,
            "end_offset": 4.488000000000001
        },
        "target_timerange": {
            "start_offset": 289.86400000000003,
            "end_offset": 291.36
        },
        "ignore_audio": true,
        "audio_path": null
    },
    {
        "segment_id": "da4391489d8811efbee9b8cef68aba34",
        "text": "you probably might, the",
        "audio_url": "https://v16m-default.akamaized.net/d02c81ef8c9b0c4ded48ab514dd03fd5/672de609/video/tos/maliva/tos-maliva-v-f15faa-us/o0CP5EoQMEUAAASA3iAR7ChiByT2Z4kaiaTVt/?a=7073&bti=OTU0QDItLmA%3D&ch=0&cr=0&dr=4&er=0&lr=unwatermarked&cd=0%7C0%7C0%7C0&br=312&bt=156&ds=5&ft=.cwOVInz7ThODGvOXq8Zmo&qs=13&rc=anRnaHE5cjtzdjUzNzhoM0BpanRnaHE5cjtzdjUzNzhoM0BxM14zMmQ0MGpgLS1kLjZzYSNxM14zMmQ0MGpgLS1kLjZzcw%3D%3D&vvpl=1&l=02173103962103400000000000000000000ffff0a00afb97d90e8&btag=e00070000&format=mp3&mime_type=audio_mpeg",
        "source_timerange": {
            "start_offset": 4.4879999999999995,
            "end_offset": 5.983999999999982
        },
        "target_timerange": {
            "start_offset": 291.36,
            "end_offset": 292.856
        },
        "ignore_audio": true,
        "audio_path": null
    },
    {
        "segment_id": "da4392109d8811efbee9b8cef68aba34",
        "text": "very cold manner of our",
        "audio_url": "https://v16m-default.akamaized.net/d02c81ef8c9b0c4ded48ab514dd03fd5/672de609/video/tos/maliva/tos-maliva-v-f15faa-us/o0CP5EoQMEUAAASA3iAR7ChiByT2Z4kaiaTVt/?a=7073&bti=OTU0QDItLmA%3D&ch=0&cr=0&dr=4&er=0&lr=unwatermarked&cd=0%7C0%7C0%7C0&br=312&bt=156&ds=5&ft=.cwOVInz7ThODGvOXq8Zmo&qs=13&rc=anRnaHE5cjtzdjUzNzhoM0BpanRnaHE5cjtzdjUzNzhoM0BxM14zMmQ0MGpgLS1kLjZzYSNxM14zMmQ0MGpgLS1kLjZzcw%3D%3D&vvpl=1&l=02173103962103400000000000000000000ffff0a00afb97d90e8&btag=e00070000&format=mp3&mime_type=audio_mpeg",
        "source_timerange": {
            "start_offset": 5.9839999999999804,
            "end_offset": 7.48000000000002
        },
        "target_timerange": {
            "start_offset": 292.856,
            "end_offset": 294.35200000000003
        },
        "ignore_audio": true,
        "audio_path": null
    },
    {
        "segment_id": "da4392d89d8811efbee9b8cef68aba34",
        "text": "meeting yesterday.",
        "audio_url": "https://v16m-default.akamaized.net/d02c81ef8c9b0c4ded48ab514dd03fd5/672de609/video/tos/maliva/tos-maliva-v-f15faa-us/o0CP5EoQMEUAAASA3iAR7ChiByT2Z4kaiaTVt/?a=7073&bti=OTU0QDItLmA%3D&ch=0&cr=0&dr=4&er=0&lr=unwatermarked&cd=0%7C0%7C0%7C0&br=312&bt=156&ds=5&ft=.cwOVInz7ThODGvOXq8Zmo&qs=13&rc=anRnaHE5cjtzdjUzNzhoM0BpanRnaHE5cjtzdjUzNzhoM0BxM14zMmQ0MGpgLS1kLjZzYSNxM14zMmQ0MGpgLS1kLjZzcw%3D%3D&vvpl=1&l=02173103962103400000000000000000000ffff0a00afb97d90e8&btag=e00070000&format=mp3&mime_type=audio_mpeg",
        "source_timerange": {
            "start_offset": 7.480000000000018,
            "end_offset": 8.976
        },
        "target_timerange": {
            "start_offset": 294.35200000000003,
            "end_offset": 295.848
        },
        "ignore_audio": true,
        "audio_path": null
    },
    {
        "segment_id": "da43a3409d8811efbee9b8cef68aba34",
        "text": "Are you much acquainted",
        "audio_url": "https://v16m-default.akamaized.net/b75fbc775557ce9658d36ba5ae81215e/672de60b/video/tos/maliva/tos-maliva-v-f15faa-us/o8hjygEQJSLFeEZkACVT6LfMAGDuBBAEZAanTt/?a=7073&bti=OTU0QDItLmA%3D&ch=0&cr=0&dr=4&er=0&lr=unwatermarked&cd=0%7C0%7C0%7C0&br=312&bt=156&ds=5&ft=.cwOVInz7ThyDGvOXq8Zmo&qs=13&rc=Mzw5c3c5cjtzdjUzNzhoM0BpMzw5c3c5cjtzdjUzNzhoM0BzbWYxMmQ0MGpgLS1kLjZzYSNzbWYxMmQ0MGpgLS1kLjZzcw%3D%3D&vvpl=1&l=02173103962103400000000000000000000ffff0a00afb97d90e8&btag=e00070000&format=mp3&mime_type=audio_mpeg",
        "source_timerange": {
            "start_offset": 0,
            "end_offset": 1.5119999999999987
        },
        "target_timerange": {
            "start_offset": 295.848,
            "end_offset": 297.36
        },
        "ignore_audio": false,
        "audio_path": null
    },
    {
        "segment_id": "da43a43a9d8811efbee9b8cef68aba34",
        "text": "with Mr. Darcy?”  “As much",
        "audio_url": "https://v16m-default.akamaized.net/b75fbc775557ce9658d36ba5ae81215e/672de60b/video/tos/maliva/tos-maliva-v-f15faa-us/o8hjygEQJSLFeEZkACVT6LfMAGDuBBAEZAanTt/?a=7073&bti=OTU0QDItLmA%3D&ch=0&cr=0&dr=4&er=0&lr=unwatermarked&cd=0%7C0%7C0%7C0&br=312&bt=156&ds=5&ft=.cwOVInz7ThyDGvOXq8Zmo&qs=13&rc=Mzw5c3c5cjtzdjUzNzhoM0BpMzw5c3c5cjtzdjUzNzhoM0BzbWYxMmQ0MGpgLS1kLjZzYSNzbWYxMmQ0MGpgLS1kLjZzcw%3D%3D&vvpl=1&l=02173103962103400000000000000000000ffff0a00afb97d90e8&btag=e00070000&format=mp3&mime_type=audio_mpeg",
        "source_timerange": {
            "start_offset": 1.5120000000000005,
            "end_offset": 3.023999999999999
        },
        "target_timerange": {
            "start_offset": 297.36,
            "end_offset": 298.872
        },
        "ignore_audio": true,
        "audio_path": null
    },
    {
        "segment_id": "da43a5029d8811efbee9b8cef68aba34",
        "text": "as I ever wish to be,”",
        "audio_url": "https://v16m-default.akamaized.net/b75fbc775557ce9658d36ba5ae81215e/672de60b/video/tos/maliva/tos-maliva-v-f15faa-us/o8hjygEQJSLFeEZkACVT6LfMAGDuBBAEZAanTt/?a=7073&bti=OTU0QDItLmA%3D&ch=0&cr=0&dr=4&er=0&lr=unwatermarked&cd=0%7C0%7C0%7C0&br=312&bt=156&ds=5&ft=.cwOVInz7ThyDGvOXq8Zmo&qs=13&rc=Mzw5c3c5cjtzdjUzNzhoM0BpMzw5c3c5cjtzdjUzNzhoM0BzbWYxMmQ0MGpgLS1kLjZzYSNzbWYxMmQ0MGpgLS1kLjZzcw%3D%3D&vvpl=1&l=02173103962103400000000000000000000ffff0a00afb97d90e8&btag=e00070000&format=mp3&mime_type=audio_mpeg",
        "source_timerange": {
            "start_offset": 3.024000000000001,
            "end_offset": 4.536
        },
        "target_timerange": {
            "start_offset": 298.872,
            "end_offset": 300.384
        },
        "ignore_audio": true,
        "audio_path": null
    },
    {
        "segment_id": "da43a5d49d8811efbee9b8cef68aba34",
        "text": "cried Elizabeth, warmly.",
        "audio_url": "https://v16m-default.akamaized.net/b75fbc775557ce9658d36ba5ae81215e/672de60b/video/tos/maliva/tos-maliva-v-f15faa-us/o8hjygEQJSLFeEZkACVT6LfMAGDuBBAEZAanTt/?a=7073&bti=OTU0QDItLmA%3D&ch=0&cr=0&dr=4&er=0&lr=unwatermarked&cd=0%7C0%7C0%7C0&br=312&bt=156&ds=5&ft=.cwOVInz7ThyDGvOXq8Zmo&qs=13&rc=Mzw5c3c5cjtzdjUzNzhoM0BpMzw5c3c5cjtzdjUzNzhoM0BzbWYxMmQ0MGpgLS1kLjZzYSNzbWYxMmQ0MGpgLS1kLjZzcw%3D%3D&vvpl=1&l=02173103962103400000000000000000000ffff0a00afb97d90e8&btag=e00070000&format=mp3&mime_type=audio_mpeg",
        "source_timerange": {
            "start_offset": 4.536000000000001,
            "end_offset": 6.048
        },
        "target_timerange": {
            "start_offset": 300.384,
            "end_offset": 301.896
        },
        "ignore_audio": true,
        "audio_path": null
    },
    {
        "segment_id": "da43b3c69d8811efbee9b8cef68aba34",
        "text": "“I have spent four days in the",
        "audio_url": "https://v16m-default.akamaized.net/6ed7c230abc6bd05f0a3237fd9a9c95c/672de605/video/tos/maliva/tos-maliva-v-f15faa-us/ooflbCgLBABEAuQbwfDaJnI0LIAGrIVIZFuhBY/?a=7073&bti=OTU0QDItLmA%3D&ch=0&cr=0&dr=4&er=0&lr=unwatermarked&cd=0%7C0%7C0%7C0&br=312&bt=156&ds=5&ft=.cwOVInz7ThODGvOXq8Zmo&qs=13&rc=amdldXI5cjtzdjUzNzhoM0BpamdldXI5cjtzdjUzNzhoM0BfYi8zMmQ0MGpgLS1kLjZzYSNfYi8zMmQ0MGpgLS1kLjZzcw%3D%3D&vvpl=1&l=02173103962103400000000000000000000ffff0a00afb97d90e8&btag=e00070000&format=mp3&mime_type=audio_mpeg",
        "source_timerange": {
            "start_offset": 0,
            "end_offset": 1.5439999999999774
        },
        "target_timerange": {
            "start_offset": 301.896,
            "end_offset": 303.44
        },
        "ignore_audio": false,
        "audio_path": null
    },
    {
        "segment_id": "da43b4ca9d8811efbee9b8cef68aba34",
        "text": "same house with him, and I think",
        "audio_url": "https://v16m-default.akamaized.net/6ed7c230abc6bd05f0a3237fd9a9c95c/672de605/video/tos/maliva/tos-maliva-v-f15faa-us/ooflbCgLBABEAuQbwfDaJnI0LIAGrIVIZFuhBY/?a=7073&bti=OTU0QDItLmA%3D&ch=0&cr=0&dr=4&er=0&lr=unwatermarked&cd=0%7C0%7C0%7C0&br=312&bt=156&ds=5&ft=.cwOVInz7ThODGvOXq8Zmo&qs=13&rc=amdldXI5cjtzdjUzNzhoM0BpamdldXI5cjtzdjUzNzhoM0BfYi8zMmQ0MGpgLS1kLjZzYSNfYi8zMmQ0MGpgLS1kLjZzcw%3D%3D&vvpl=1&l=02173103962103400000000000000000000ffff0a00afb97d90e8&btag=e00070000&format=mp3&mime_type=audio_mpeg",
        "source_timerange": {
            "start_offset": 1.5439999999999827,
            "end_offset": 3.088000000000017
        },
        "target_timerange": {
            "start_offset": 303.44,
            "end_offset": 304.98400000000004
        },
        "ignore_audio": true,
        "audio_path": null
    },
    {
        "segment_id": "da43b5a69d8811efbee9b8cef68aba34",
        "text": "him very disagreeable.”",
        "audio_url": "https://v16m-default.akamaized.net/6ed7c230abc6bd05f0a3237fd9a9c95c/672de605/video/tos/maliva/tos-maliva-v-f15faa-us/ooflbCgLBABEAuQbwfDaJnI0LIAGrIVIZFuhBY/?a=7073&bti=OTU0QDItLmA%3D&ch=0&cr=0&dr=4&er=0&lr=unwatermarked&cd=0%7C0%7C0%7C0&br=312&bt=156&ds=5&ft=.cwOVInz7ThODGvOXq8Zmo&qs=13&rc=amdldXI5cjtzdjUzNzhoM0BpamdldXI5cjtzdjUzNzhoM0BfYi8zMmQ0MGpgLS1kLjZzYSNfYi8zMmQ0MGpgLS1kLjZzcw%3D%3D&vvpl=1&l=02173103962103400000000000000000000ffff0a00afb97d90e8&btag=e00070000&format=mp3&mime_type=audio_mpeg",
        "source_timerange": {
            "start_offset": 3.0880000000000223,
            "end_offset": 4.632
        },
        "target_timerange": {
            "start_offset": 304.98400000000004,
            "end_offset": 306.528
        },
        "ignore_audio": true,
        "audio_path": null
    },
    {
        "segment_id": "da43c6729d8811efbee9b8cef68aba34",
        "text": "“I have no right to give",
        "audio_url": "https://v16m-default.akamaized.net/e314d024458b511b39af5d64f574ec10/672de606/video/tos/maliva/tos-maliva-v-f15faa-us/o8ba2AThVITL0JCfpBIAYxDnAfMFEBgZBQhGIL/?a=7073&bti=OTU0QDItLmA%3D&ch=0&cr=0&dr=4&er=0&lr=unwatermarked&cd=0%7C0%7C0%7C0&br=312&bt=156&ds=5&ft=.cwOVInz7ThODGvOXq8Zmo&qs=13&rc=M3U1dW45cjtzdjUzNzhoM0BpM3U1dW45cjtzdjUzNzhoM0AwbjBoMmQ0MGpgLS1kLjZzYSMwbjBoMmQ0MGpgLS1kLjZzcw%3D%3D&vvpl=1&l=02173103962103400000000000000000000ffff0a00afb97d90e8&btag=e00070000&format=mp3&mime_type=audio_mpeg",
        "source_timerange": {
            "start_offset": 0,
            "end_offset": 1.3200000000000207
        },
        "target_timerange": {
            "start_offset": 306.528,
            "end_offset": 307.848
        },
        "ignore_audio": false,
        "audio_path": null
    },
    {
        "segment_id": "da43c76c9d8811efbee9b8cef68aba34",
        "text": "_my_ opinion,” said",
        "audio_url": "https://v16m-default.akamaized.net/e314d024458b511b39af5d64f574ec10/672de606/video/tos/maliva/tos-maliva-v-f15faa-us/o8ba2AThVITL0JCfpBIAYxDnAfMFEBgZBQhGIL/?a=7073&bti=OTU0QDItLmA%3D&ch=0&cr=0&dr=4&er=0&lr=unwatermarked&cd=0%7C0%7C0%7C0&br=312&bt=156&ds=5&ft=.cwOVInz7ThODGvOXq8Zmo&qs=13&rc=M3U1dW45cjtzdjUzNzhoM0BpM3U1dW45cjtzdjUzNzhoM0AwbjBoMmQ0MGpgLS1kLjZzYSMwbjBoMmQ0MGpgLS1kLjZzcw%3D%3D&vvpl=1&l=02173103962103400000000000000000000ffff0a00afb97d90e8&btag=e00070000&format=mp3&mime_type=audio_mpeg",
        "source_timerange": {
            "start_offset": 1.3199999999999932,
            "end_offset": 2.640000000000014
        },
        "target_timerange": {
            "start_offset": 307.848,
            "end_offset": 309.168
        },
        "ignore_audio": true,
        "audio_path": null
    },
    {
        "segment_id": "da43c8669d8811efbee9b8cef68aba34",
        "text": "Wickham, “as to his being",
        "audio_url": "https://v16m-default.akamaized.net/e314d024458b511b39af5d64f574ec10/672de606/video/tos/maliva/tos-maliva-v-f15faa-us/o8ba2AThVITL0JCfpBIAYxDnAfMFEBgZBQhGIL/?a=7073&bti=OTU0QDItLmA%3D&ch=0&cr=0&dr=4&er=0&lr=unwatermarked&cd=0%7C0%7C0%7C0&br=312&bt=156&ds=5&ft=.cwOVInz7ThODGvOXq8Zmo&qs=13&rc=M3U1dW45cjtzdjUzNzhoM0BpM3U1dW45cjtzdjUzNzhoM0AwbjBoMmQ0MGpgLS1kLjZzYSMwbjBoMmQ0MGpgLS1kLjZzcw%3D%3D&vvpl=1&l=02173103962103400000000000000000000ffff0a00afb97d90e8&btag=e00070000&format=mp3&mime_type=audio_mpeg",
        "source_timerange": {
            "start_offset": 2.6399999999999864,
            "end_offset": 3.960000000000007
        },
        "target_timerange": {
            "start_offset": 309.168,
            "end_offset": 310.488
        },
        "ignore_audio": true,
        "audio_path": null
    },
    {
        "segment_id": "da43c9389d8811efbee9b8cef68aba34",
        "text": "agreeable or otherwise.",
        "audio_url": "https://v16m-default.akamaized.net/e314d024458b511b39af5d64f574ec10/672de606/video/tos/maliva/tos-maliva-v-f15faa-us/o8ba2AThVITL0JCfpBIAYxDnAfMFEBgZBQhGIL/?a=7073&bti=OTU0QDItLmA%3D&ch=0&cr=0&dr=4&er=0&lr=unwatermarked&cd=0%7C0%7C0%7C0&br=312&bt=156&ds=5&ft=.cwOVInz7ThODGvOXq8Zmo&qs=13&rc=M3U1dW45cjtzdjUzNzhoM0BpM3U1dW45cjtzdjUzNzhoM0AwbjBoMmQ0MGpgLS1kLjZzYSMwbjBoMmQ0MGpgLS1kLjZzcw%3D%3D&vvpl=1&l=02173103962103400000000000000000000ffff0a00afb97d90e8&btag=e00070000&format=mp3&mime_type=audio_mpeg",
        "source_timerange": {
            "start_offset": 3.9599999999999795,
            "end_offset": 5.28
        },
        "target_timerange": {
            "start_offset": 310.488,
            "end_offset": 311.808
        },
        "ignore_audio": true,
        "audio_path": null
    },
    {
        "segment_id": "da43cee29d8811efbee9b8cef68aba34",
        "text": "I am not qualified to form one.",
        "audio_url": "https://v16m-default.akamaized.net/52b23733ce73c2802543b72cb8b12e04/672de602/video/tos/maliva/tos-maliva-v-f15faa-us/oIw6yPRQoMsCitAAvEQAZ4aVSTAEUoCBikg52/?a=7073&bti=OTU0QDItLmA%3D&ch=0&cr=0&dr=4&er=0&lr=unwatermarked&cd=0%7C0%7C0%7C0&br=312&bt=156&ds=5&ft=.cwOVInz7ThODGvOXq8Zmo&qs=13&rc=MzN5N2o5cjtzdjUzNzhoM0BpMzN5N2o5cjtzdjUzNzhoM0BoaXFqMmQ0MGpgLS1kLjZzYSNoaXFqMmQ0MGpgLS1kLjZzcw%3D%3D&vvpl=1&l=02173103962103400000000000000000000ffff0a00afb97d90e8&btag=e00070000&format=mp3&mime_type=audio_mpeg",
        "source_timerange": {
            "start_offset": 0,
            "end_offset": 1.944
        },
        "target_timerange": {
            "start_offset": 311.808,
            "end_offset": 313.752
        },
        "ignore_audio": false,
        "audio_path": null
    },
    {
        "segment_id": "da43da7c9d8811efbee9b8cef68aba34",
        "text": "I have known him too long and",
        "audio_url": "https://v16m-default.akamaized.net/9dfd3fe37cf9ac7e648af93c615f0c1d/672de604/video/tos/maliva/tos-maliva-v-f15faa-us/oAIbIABAVI7LLCDnDFBffhXugGkhgEAQJcZ0BR/?a=7073&bti=OTU0QDItLmA%3D&ch=0&cr=0&dr=4&er=0&lr=unwatermarked&cd=0%7C0%7C0%7C0&br=312&bt=156&ds=5&ft=.cwOVInz7ThODGvOXq8Zmo&qs=13&rc=M2pwd2w5cjtzdjUzNzhoM0BpM2pwd2w5cjtzdjUzNzhoM0BscG8tMmQ0MGpgLS1kLjZzYSNscG8tMmQ0MGpgLS1kLjZzcw%3D%3D&vvpl=1&l=02173103962103400000000000000000000ffff0a00afb97d90e8&btag=e00070000&format=mp3&mime_type=audio_mpeg",
        "source_timerange": {
            "start_offset": 0,
            "end_offset": 1.5719999999999974
        },
        "target_timerange": {
            "start_offset": 313.752,
            "end_offset": 315.324
        },
        "ignore_audio": false,
        "audio_path": null
    },
    {
        "segment_id": "da43db9e9d8811efbee9b8cef68aba34",
        "text": "too well to be a fair judge.",
        "audio_url": "https://v16m-default.akamaized.net/9dfd3fe37cf9ac7e648af93c615f0c1d/672de604/video/tos/maliva/tos-maliva-v-f15faa-us/oAIbIABAVI7LLCDnDFBffhXugGkhgEAQJcZ0BR/?a=7073&bti=OTU0QDItLmA%3D&ch=0&cr=0&dr=4&er=0&lr=unwatermarked&cd=0%7C0%7C0%7C0&br=312&bt=156&ds=5&ft=.cwOVInz7ThODGvOXq8Zmo&qs=13&rc=M2pwd2w5cjtzdjUzNzhoM0BpM2pwd2w5cjtzdjUzNzhoM0BscG8tMmQ0MGpgLS1kLjZzYSNscG8tMmQ0MGpgLS1kLjZzcw%3D%3D&vvpl=1&l=02173103962103400000000000000000000ffff0a00afb97d90e8&btag=e00070000&format=mp3&mime_type=audio_mpeg",
        "source_timerange": {
            "start_offset": 1.5720000000000027,
            "end_offset": 3.144
        },
        "target_timerange": {
            "start_offset": 315.324,
            "end_offset": 316.896
        },
        "ignore_audio": true,
        "audio_path": null
    },
    {
        "segment_id": "da43e4a49d8811efbee9b8cef68aba34",
        "text": "It is impossible for",
        "audio_url": "https://v16m-default.akamaized.net/02e3df0a5c124b7d16d38f2ddd9ddac7/672de603/video/tos/maliva/tos-maliva-v-f15faa-us/oEaGCAJDnBkxfvVFEAAZxLExhBEtfLBQBVEaAg/?a=7073&bti=OTU0QDItLmA%3D&ch=0&cr=0&dr=4&er=0&lr=unwatermarked&cd=0%7C0%7C0%7C0&br=312&bt=156&ds=5&ft=.cwOVInz7ThODGvOXq8Zmo&qs=13&rc=M3k7O3I5cjtzdjUzNzhoM0BpM3k7O3I5cjtzdjUzNzhoM0BhaTFwMmQ0MGpgLS1kLjZzYSNhaTFwMmQ0MGpgLS1kLjZzcw%3D%3D&vvpl=1&l=02173103962103400000000000000000000ffff0a00afb97d90e8&btag=e00070000&format=mp3&mime_type=audio_mpeg",
        "source_timerange": {
            "start_offset": 0,
            "end_offset": 1.1640000000000126
        },
        "target_timerange": {
            "start_offset": 316.896,
            "end_offset": 318.06
        },
        "ignore_audio": false,
        "audio_path": null
    },
    {
        "segment_id": "da43e59e9d8811efbee9b8cef68aba34",
        "text": "_me_ to be impartial.",
        "audio_url": "https://v16m-default.akamaized.net/02e3df0a5c124b7d16d38f2ddd9ddac7/672de603/video/tos/maliva/tos-maliva-v-f15faa-us/oEaGCAJDnBkxfvVFEAAZxLExhBEtfLBQBVEaAg/?a=7073&bti=OTU0QDItLmA%3D&ch=0&cr=0&dr=4&er=0&lr=unwatermarked&cd=0%7C0%7C0%7C0&br=312&bt=156&ds=5&ft=.cwOVInz7ThODGvOXq8Zmo&qs=13&rc=M3k7O3I5cjtzdjUzNzhoM0BpM3k7O3I5cjtzdjUzNzhoM0BhaTFwMmQ0MGpgLS1kLjZzYSNhaTFwMmQ0MGpgLS1kLjZzcw%3D%3D&vvpl=1&l=02173103962103400000000000000000000ffff0a00afb97d90e8&btag=e00070000&format=mp3&mime_type=audio_mpeg",
        "source_timerange": {
            "start_offset": 1.1639999999999873,
            "end_offset": 2.328
        },
        "target_timerange": {
            "start_offset": 318.06,
            "end_offset": 319.224
        },
        "ignore_audio": true,
        "audio_path": null
    },
    {
        "segment_id": "da43fa029d8811efbee9b8cef68aba34",
        "text": "But I believe your opinion of",
        "audio_url": "https://v16m-default.akamaized.net/5fcb0141b3d79af46634fcf3211a68f0/672de608/video/tos/maliva/tos-maliva-v-f15faa-us/o8f6I0JVAhFZcBDHBAQFWL0uIfIHngEBpAGkbL/?a=7073&bti=OTU0QDItLmA%3D&ch=0&cr=0&dr=4&er=0&lr=unwatermarked&cd=0%7C0%7C0%7C0&br=312&bt=156&ds=5&ft=.cwOVInz7ThODGvOXq8Zmo&qs=13&rc=M2VoOGw5cjtzdjUzNzhoM0BpM2VoOGw5cjtzdjUzNzhoM0BhNDE0MmQ0MGpgLS1kLjZzYSNhNDE0MmQ0MGpgLS1kLjZzcw%3D%3D&vvpl=1&l=02173103962103400000000000000000000ffff0a00afb97d90e8&btag=e00070000&format=mp3&mime_type=audio_mpeg",
        "source_timerange": {
            "start_offset": 0,
            "end_offset": 1.4640000000000057
        },
        "target_timerange": {
            "start_offset": 319.224,
            "end_offset": 320.688
        },
        "ignore_audio": false,
        "audio_path": null
    },
    {
        "segment_id": "da43fafc9d8811efbee9b8cef68aba34",
        "text": "him would in general astonish",
        "audio_url": "https://v16m-default.akamaized.net/5fcb0141b3d79af46634fcf3211a68f0/672de608/video/tos/maliva/tos-maliva-v-f15faa-us/o8f6I0JVAhFZcBDHBAQFWL0uIfIHngEBpAGkbL/?a=7073&bti=OTU0QDItLmA%3D&ch=0&cr=0&dr=4&er=0&lr=unwatermarked&cd=0%7C0%7C0%7C0&br=312&bt=156&ds=5&ft=.cwOVInz7ThODGvOXq8Zmo&qs=13&rc=M2VoOGw5cjtzdjUzNzhoM0BpM2VoOGw5cjtzdjUzNzhoM0BhNDE0MmQ0MGpgLS1kLjZzYSNhNDE0MmQ0MGpgLS1kLjZzcw%3D%3D&vvpl=1&l=02173103962103400000000000000000000ffff0a00afb97d90e8&btag=e00070000&format=mp3&mime_type=audio_mpeg",
        "source_timerange": {
            "start_offset": 1.4639999999999986,
            "end_offset": 2.9280000000000044
        },
        "target_timerange": {
            "start_offset": 320.688,
            "end_offset": 322.152
        },
        "ignore_audio": true,
        "audio_path": null
    },
    {
        "segment_id": "da43fbd89d8811efbee9b8cef68aba34",
        "text": "--and, perhaps, you would not",
        "audio_url": "https://v16m-default.akamaized.net/5fcb0141b3d79af46634fcf3211a68f0/672de608/video/tos/maliva/tos-maliva-v-f15faa-us/o8f6I0JVAhFZcBDHBAQFWL0uIfIHngEBpAGkbL/?a=7073&bti=OTU0QDItLmA%3D&ch=0&cr=0&dr=4&er=0&lr=unwatermarked&cd=0%7C0%7C0%7C0&br=312&bt=156&ds=5&ft=.cwOVInz7ThODGvOXq8Zmo&qs=13&rc=M2VoOGw5cjtzdjUzNzhoM0BpM2VoOGw5cjtzdjUzNzhoM0BhNDE0MmQ0MGpgLS1kLjZzYSNhNDE0MmQ0MGpgLS1kLjZzcw%3D%3D&vvpl=1&l=02173103962103400000000000000000000ffff0a00afb97d90e8&btag=e00070000&format=mp3&mime_type=audio_mpeg",
        "source_timerange": {
            "start_offset": 2.9279999999999973,
            "end_offset": 4.392000000000003
        },
        "target_timerange": {
            "start_offset": 322.152,
            "end_offset": 323.616
        },
        "ignore_audio": true,
        "audio_path": null
    },
    {
        "segment_id": "da43fcaa9d8811efbee9b8cef68aba34",
        "text": "express it quite so strongly",
        "audio_url": "https://v16m-default.akamaized.net/5fcb0141b3d79af46634fcf3211a68f0/672de608/video/tos/maliva/tos-maliva-v-f15faa-us/o8f6I0JVAhFZcBDHBAQFWL0uIfIHngEBpAGkbL/?a=7073&bti=OTU0QDItLmA%3D&ch=0&cr=0&dr=4&er=0&lr=unwatermarked&cd=0%7C0%7C0%7C0&br=312&bt=156&ds=5&ft=.cwOVInz7ThODGvOXq8Zmo&qs=13&rc=M2VoOGw5cjtzdjUzNzhoM0BpM2VoOGw5cjtzdjUzNzhoM0BhNDE0MmQ0MGpgLS1kLjZzYSNhNDE0MmQ0MGpgLS1kLjZzcw%3D%3D&vvpl=1&l=02173103962103400000000000000000000ffff0a00afb97d90e8&btag=e00070000&format=mp3&mime_type=audio_mpeg",
        "source_timerange": {
            "start_offset": 4.391999999999996,
            "end_offset": 5.856000000000002
        },
        "target_timerange": {
            "start_offset": 323.616,
            "end_offset": 325.08
        },
        "ignore_audio": true,
        "audio_path": null
    },
    {
        "segment_id": "da43fd909d8811efbee9b8cef68aba34",
        "text": "anywhere else.",
        "audio_url": "https://v16m-default.akamaized.net/5fcb0141b3d79af46634fcf3211a68f0/672de608/video/tos/maliva/tos-maliva-v-f15faa-us/o8f6I0JVAhFZcBDHBAQFWL0uIfIHngEBpAGkbL/?a=7073&bti=OTU0QDItLmA%3D&ch=0&cr=0&dr=4&er=0&lr=unwatermarked&cd=0%7C0%7C0%7C0&br=312&bt=156&ds=5&ft=.cwOVInz7ThODGvOXq8Zmo&qs=13&rc=M2VoOGw5cjtzdjUzNzhoM0BpM2VoOGw5cjtzdjUzNzhoM0BhNDE0MmQ0MGpgLS1kLjZzYSNhNDE0MmQ0MGpgLS1kLjZzcw%3D%3D&vvpl=1&l=02173103962103400000000000000000000ffff0a00afb97d90e8&btag=e00070000&format=mp3&mime_type=audio_mpeg",
        "source_timerange": {
            "start_offset": 5.8559999999999945,
            "end_offset": 7.32
        },
        "target_timerange": {
            "start_offset": 325.08,
            "end_offset": 326.544
        },
        "ignore_audio": true,
        "audio_path": null
    },
    {
        "segment_id": "da4405109d8811efbee9b8cef68aba34",
        "text": "Here you are in your own family.”",
        "audio_url": "https://v16m-default.akamaized.net/41c58a4049b6e1451662dbada98427a9/672de602/video/tos/maliva/tos-maliva-v-f15faa-us/osA4yBCAWZiAkE0AVCQCoA1JZtEPSURa2kiS2/?a=7073&bti=OTU0QDItLmA%3D&ch=0&cr=0&dr=4&er=0&lr=unwatermarked&cd=0%7C0%7C0%7C0&br=312&bt=156&ds=5&ft=.cwOVInz7ThODGvOXq8Zmo&qs=13&rc=Mzw4M245cjtzdjUzNzhoM0BpMzw4M245cjtzdjUzNzhoM0BfMTBvMmQ0MGpgLS1kLjZzYSNfMTBvMmQ0MGpgLS1kLjZzcw%3D%3D&vvpl=1&l=02173103962103400000000000000000000ffff0a00afb97d90e8&btag=e00070000&format=mp3&mime_type=audio_mpeg",
        "source_timerange": {
            "start_offset": 0,
            "end_offset": 1.752
        },
        "target_timerange": {
            "start_offset": 326.544,
            "end_offset": 328.296
        },
        "ignore_audio": false,
        "audio_path": null
    },
    {
        "segment_id": "da44165e9d8811efbee9b8cef68aba34",
        "text": "“Upon my word I say no more",
        "audio_url": "https://v16m-default.akamaized.net/cb20e55711790f29d0de4bebbaee407b/672de607/video/tos/maliva/tos-maliva-v-f15faa-us/o8SxoBAy4PIVCkEZRA2aG4QZiiEgCUACaEAtd/?a=7073&bti=OTU0QDItLmA%3D&ch=0&cr=0&dr=4&er=0&lr=unwatermarked&cd=0%7C0%7C0%7C0&br=312&bt=156&ds=5&ft=.cwOVInz7ThODGvOXq8Zmo&qs=13&rc=M3dsOXI5cjtzdjUzNzhoM0BpM3dsOXI5cjtzdjUzNzhoM0AwLTVhMmQ0MGpgLS1kLjZzYSMwLTVhMmQ0MGpgLS1kLjZzcw%3D%3D&vvpl=1&l=02173103962103400000000000000000000ffff0a00afb97d90e8&btag=e00070000&format=mp3&mime_type=audio_mpeg",
        "source_timerange": {
            "start_offset": 0,
            "end_offset": 1.5119999999999987
        },
        "target_timerange": {
            "start_offset": 328.296,
            "end_offset": 329.808
        },
        "ignore_audio": false,
        "audio_path": null
    },
    {
        "segment_id": "da4417bc9d8811efbee9b8cef68aba34",
        "text": "_here_ than I might say in",
        "audio_url": "https://v16m-default.akamaized.net/cb20e55711790f29d0de4bebbaee407b/672de607/video/tos/maliva/tos-maliva-v-f15faa-us/o8SxoBAy4PIVCkEZRA2aG4QZiiEgCUACaEAtd/?a=7073&bti=OTU0QDItLmA%3D&ch=0&cr=0&dr=4&er=0&lr=unwatermarked&cd=0%7C0%7C0%7C0&br=312&bt=156&ds=5&ft=.cwOVInz7ThODGvOXq8Zmo&qs=13&rc=M3dsOXI5cjtzdjUzNzhoM0BpM3dsOXI5cjtzdjUzNzhoM0AwLTVhMmQ0MGpgLS1kLjZzYSMwLTVhMmQ0MGpgLS1kLjZzcw%3D%3D&vvpl=1&l=02173103962103400000000000000000000ffff0a00afb97d90e8&btag=e00070000&format=mp3&mime_type=audio_mpeg",
        "source_timerange": {
            "start_offset": 1.5120000000000005,
            "end_offset": 3.023999999999999
        },
        "target_timerange": {
            "start_offset": 329.808,
            "end_offset": 331.32
        },
        "ignore_audio": true,
        "audio_path": null
    },
    {
        "segment_id": "da4418ca9d8811efbee9b8cef68aba34",
        "text": "any house in the",
        "audio_url": "https://v16m-default.akamaized.net/cb20e55711790f29d0de4bebbaee407b/672de607/video/tos/maliva/tos-maliva-v-f15faa-us/o8SxoBAy4PIVCkEZRA2aG4QZiiEgCUACaEAtd/?a=7073&bti=OTU0QDItLmA%3D&ch=0&cr=0&dr=4&er=0&lr=unwatermarked&cd=0%7C0%7C0%7C0&br=312&bt=156&ds=5&ft=.cwOVInz7ThODGvOXq8Zmo&qs=13&rc=M3dsOXI5cjtzdjUzNzhoM0BpM3dsOXI5cjtzdjUzNzhoM0AwLTVhMmQ0MGpgLS1kLjZzYSMwLTVhMmQ0MGpgLS1kLjZzcw%3D%3D&vvpl=1&l=02173103962103400000000000000000000ffff0a00afb97d90e8&btag=e00070000&format=mp3&mime_type=audio_mpeg",
        "source_timerange": {
            "start_offset": 3.024000000000001,
            "end_offset": 4.536
        },
        "target_timerange": {
            "start_offset": 331.32,
            "end_offset": 332.832
        },
        "ignore_audio": true,
        "audio_path": null
    },
    {
        "segment_id": "da4419ce9d8811efbee9b8cef68aba34",
        "text": "neighbourhood, except Netherfield.",
        "audio_url": "https://v16m-default.akamaized.net/cb20e55711790f29d0de4bebbaee407b/672de607/video/tos/maliva/tos-maliva-v-f15faa-us/o8SxoBAy4PIVCkEZRA2aG4QZiiEgCUACaEAtd/?a=7073&bti=OTU0QDItLmA%3D&ch=0&cr=0&dr=4&er=0&lr=unwatermarked&cd=0%7C0%7C0%7C0&br=312&bt=156&ds=5&ft=.cwOVInz7ThODGvOXq8Zmo&qs=13&rc=M3dsOXI5cjtzdjUzNzhoM0BpM3dsOXI5cjtzdjUzNzhoM0AwLTVhMmQ0MGpgLS1kLjZzYSMwLTVhMmQ0MGpgLS1kLjZzcw%3D%3D&vvpl=1&l=02173103962103400000000000000000000ffff0a00afb97d90e8&btag=e00070000&format=mp3&mime_type=audio_mpeg",
        "source_timerange": {
            "start_offset": 4.536000000000001,
            "end_offset": 6.048
        },
        "target_timerange": {
            "start_offset": 332.832,
            "end_offset": 334.344
        },
        "ignore_audio": true,
        "audio_path": null
    },
    {
        "segment_id": "da4421629d8811efbee9b8cef68aba34",
        "text": "He is not at all liked in Hertfordshire.",
        "audio_url": "https://v16m-default.akamaized.net/2cc7798adab13f99e149c5bb7f2f92c3/672de603/video/tos/maliva/tos-maliva-v-f15faa-us/osAV8LEARAyADtJah6GgkbQEDfLRFBATeBAnZE/?a=7073&bti=OTU0QDItLmA%3D&ch=0&cr=0&dr=4&er=0&lr=unwatermarked&cd=0%7C0%7C0%7C0&br=312&bt=156&ds=5&ft=.cwOVInz7ThODGvOXq8Zmo&qs=13&rc=M202cXg5cjtzdjUzNzhoM0BpM202cXg5cjtzdjUzNzhoM0AtcDZgMmQ0MGpgLS1kLjZzYSMtcDZgMmQ0MGpgLS1kLjZzcw%3D%3D&vvpl=1&l=02173103962103400000000000000000000ffff0a00afb97d90e8&btag=e00070000&format=mp3&mime_type=audio_mpeg",
        "source_timerange": {
            "start_offset": 0,
            "end_offset": 2.16
        },
        "target_timerange": {
            "start_offset": 334.344,
            "end_offset": 336.504
        },
        "ignore_audio": false,
        "audio_path": null
    },
    {
        "segment_id": "da442b269d8811efbee9b8cef68aba34",
        "text": "Everybody is",
        "audio_url": "https://v16m-default.akamaized.net/e39b9ad8e56b5f2caf53f3fb083aefad/672de603/video/tos/maliva/tos-maliva-v-f15faa-us/oUBnVADkLAZfGAiUtEGhJAgEANfFEhnaBEQLaX/?a=7073&bti=OTU0QDItLmA%3D&ch=0&cr=0&dr=4&er=0&lr=unwatermarked&cd=0%7C0%7C0%7C0&br=312&bt=156&ds=5&ft=.cwOVInz7ThODGvOXq8Zmo&qs=13&rc=anFrO3k5cjtzdjUzNzhoM0BpanFrO3k5cjtzdjUzNzhoM0AzaF4vMmQ0MGpgLS1kLjZzYSMzaF4vMmQ0MGpgLS1kLjZzcw%3D%3D&vvpl=1&l=02173103962103400000000000000000000ffff0a00afb97d90e8&btag=e00070000&format=mp3&mime_type=audio_mpeg",
        "source_timerange": {
            "start_offset": 0,
            "end_offset": 1.1760000000000121
        },
        "target_timerange": {
            "start_offset": 336.504,
            "end_offset": 337.68
        },
        "ignore_audio": false,
        "audio_path": null
    },
    {
        "segment_id": "da442c209d8811efbee9b8cef68aba34",
        "text": "disgusted with his pride.",
        "audio_url": "https://v16m-default.akamaized.net/e39b9ad8e56b5f2caf53f3fb083aefad/672de603/video/tos/maliva/tos-maliva-v-f15faa-us/oUBnVADkLAZfGAiUtEGhJAgEANfFEhnaBEQLaX/?a=7073&bti=OTU0QDItLmA%3D&ch=0&cr=0&dr=4&er=0&lr=unwatermarked&cd=0%7C0%7C0%7C0&br=312&bt=156&ds=5&ft=.cwOVInz7ThODGvOXq8Zmo&qs=13&rc=anFrO3k5cjtzdjUzNzhoM0BpanFrO3k5cjtzdjUzNzhoM0AzaF4vMmQ0MGpgLS1kLjZzYSMzaF4vMmQ0MGpgLS1kLjZzcw%3D%3D&vvpl=1&l=02173103962103400000000000000000000ffff0a00afb97d90e8&btag=e00070000&format=mp3&mime_type=audio_mpeg",
        "source_timerange": {
            "start_offset": 1.1759999999999877,
            "end_offset": 2.352
        },
        "target_timerange": {
            "start_offset": 337.68,
            "end_offset": 338.856
        },
        "ignore_audio": true,
        "audio_path": null
    },
    {
        "segment_id": "da4436b69d8811efbee9b8cef68aba34",
        "text": "You will not find him more",
        "audio_url": "https://v16m-default.akamaized.net/26e76f2d01328bc2f54ec50e471093cd/672de604/video/tos/maliva/tos-maliva-v-f15faa-us/o064DLDgEFLGE7BL4AEJAkhABoZTfVotnFaAQf/?a=7073&bti=OTU0QDItLmA%3D&ch=0&cr=0&dr=4&er=0&lr=unwatermarked&cd=0%7C0%7C0%7C0&br=312&bt=156&ds=5&ft=.cwOVInz7ThODGvOXq8Zmo&qs=13&rc=M3lram45cjtzdjUzNzhoM0BpM3lram45cjtzdjUzNzhoM0BwbGpiMmQ0MGpgLS1kLjZzYSNwbGpiMmQ0MGpgLS1kLjZzcw%3D%3D&vvpl=1&l=02173103962103400000000000000000000ffff0a00afb97d90e8&btag=e00070000&format=mp3&mime_type=audio_mpeg",
        "source_timerange": {
            "start_offset": 0,
            "end_offset": 1.6439999999999948
        },
        "target_timerange": {
            "start_offset": 338.856,
            "end_offset": 340.5
        },
        "ignore_audio": false,
        "audio_path": null
    },
    {
        "segment_id": "da4437ba9d8811efbee9b8cef68aba34",
        "text": "favourably spoken of by anyone.”",
        "audio_url": "https://v16m-default.akamaized.net/26e76f2d01328bc2f54ec50e471093cd/672de604/video/tos/maliva/tos-maliva-v-f15faa-us/o064DLDgEFLGE7BL4AEJAkhABoZTfVotnFaAQf/?a=7073&bti=OTU0QDItLmA%3D&ch=0&cr=0&dr=4&er=0&lr=unwatermarked&cd=0%7C0%7C0%7C0&br=312&bt=156&ds=5&ft=.cwOVInz7ThODGvOXq8Zmo&qs=13&rc=M3lram45cjtzdjUzNzhoM0BpM3lram45cjtzdjUzNzhoM0BwbGpiMmQ0MGpgLS1kLjZzYSNwbGpiMmQ0MGpgLS1kLjZzcw%3D%3D&vvpl=1&l=02173103962103400000000000000000000ffff0a00afb97d90e8&btag=e00070000&format=mp3&mime_type=audio_mpeg",
        "source_timerange": {
            "start_offset": 1.6440000000000055,
            "end_offset": 3.2880000000000003
        },
        "target_timerange": {
            "start_offset": 340.5,
            "end_offset": 342.144
        },
        "ignore_audio": true,
        "audio_path": null
    },
    {
        "segment_id": "da44515a9d8811efbee9b8cef68aba34",
        "text": "“I cannot pretend to be",
        "audio_url": "https://v16m-default.akamaized.net/b2ab7531d64e8e34d8d06c337ae364b9/672de60a/video/tos/maliva/tos-maliva-v-f15faa-us/ok0zIuLBA2SBqfebCAGXINWJr0OgICBCAyIzex/?a=7073&bti=OTU0QDItLmA%3D&ch=0&cr=0&dr=4&er=0&lr=unwatermarked&cd=0%7C0%7C0%7C0&br=312&bt=156&ds=5&ft=.cwOVInz7ThODGvOXq8Zmo&qs=13&rc=anltbWw5cjtzdjUzNzhoM0BpanltbWw5cjtzdjUzNzhoM0BvbWFiMmQ0MGpgLS1kLjZzYSNvbWFiMmQ0MGpgLS1kLjZzcw%3D%3D&vvpl=1&l=02173103962103400000000000000000000ffff0a00afb97d90e8&btag=e00070000&format=mp3&mime_type=audio_mpeg",
        "source_timerange": {
            "start_offset": 0,
            "end_offset": 1.5199999999999783
        },
        "target_timerange": {
            "start_offset": 342.144,
            "end_offset": 343.664
        },
        "ignore_audio": false,
        "audio_path": null
    },
    {
        "segment_id": "da4452729d8811efbee9b8cef68aba34",
        "text": "sorry,” said Wickham, after a",
        "audio_url": "https://v16m-default.akamaized.net/b2ab7531d64e8e34d8d06c337ae364b9/672de60a/video/tos/maliva/tos-maliva-v-f15faa-us/ok0zIuLBA2SBqfebCAGXINWJr0OgICBCAyIzex/?a=7073&bti=OTU0QDItLmA%3D&ch=0&cr=0&dr=4&er=0&lr=unwatermarked&cd=0%7C0%7C0%7C0&br=312&bt=156&ds=5&ft=.cwOVInz7ThODGvOXq8Zmo&qs=13&rc=anltbWw5cjtzdjUzNzhoM0BpanltbWw5cjtzdjUzNzhoM0BvbWFiMmQ0MGpgLS1kLjZzYSNvbWFiMmQ0MGpgLS1kLjZzcw%3D%3D&vvpl=1&l=02173103962103400000000000000000000ffff0a00afb97d90e8&btag=e00070000&format=mp3&mime_type=audio_mpeg",
        "source_timerange": {
            "start_offset": 1.5199999999999818,
            "end_offset": 3.040000000000017
        },
        "target_timerange": {
            "start_offset": 343.664,
            "end_offset": 345.184
        },
        "ignore_audio": true,
        "audio_path": null
    },
    {
        "segment_id": "da4453449d8811efbee9b8cef68aba34",
        "text": "short interruption, “that he",
        "audio_url": "https://v16m-default.akamaized.net/b2ab7531d64e8e34d8d06c337ae364b9/672de60a/video/tos/maliva/tos-maliva-v-f15faa-us/ok0zIuLBA2SBqfebCAGXINWJr0OgICBCAyIzex/?a=7073&bti=OTU0QDItLmA%3D&ch=0&cr=0&dr=4&er=0&lr=unwatermarked&cd=0%7C0%7C0%7C0&br=312&bt=156&ds=5&ft=.cwOVInz7ThODGvOXq8Zmo&qs=13&rc=anltbWw5cjtzdjUzNzhoM0BpanltbWw5cjtzdjUzNzhoM0BvbWFiMmQ0MGpgLS1kLjZzYSNvbWFiMmQ0MGpgLS1kLjZzcw%3D%3D&vvpl=1&l=02173103962103400000000000000000000ffff0a00afb97d90e8&btag=e00070000&format=mp3&mime_type=audio_mpeg",
        "source_timerange": {
            "start_offset": 3.0400000000000205,
            "end_offset": 4.559999999999999
        },
        "target_timerange": {
            "start_offset": 345.184,
            "end_offset": 346.704
        },
        "ignore_audio": true,
        "audio_path": null
    },
    {
        "segment_id": "da44540c9d8811efbee9b8cef68aba34",
        "text": "or that any man should not be",
        "audio_url": "https://v16m-default.akamaized.net/b2ab7531d64e8e34d8d06c337ae364b9/672de60a/video/tos/maliva/tos-maliva-v-f15faa-us/ok0zIuLBA2SBqfebCAGXINWJr0OgICBCAyIzex/?a=7073&bti=OTU0QDItLmA%3D&ch=0&cr=0&dr=4&er=0&lr=unwatermarked&cd=0%7C0%7C0%7C0&br=312&bt=156&ds=5&ft=.cwOVInz7ThODGvOXq8Zmo&qs=13&rc=anltbWw5cjtzdjUzNzhoM0BpanltbWw5cjtzdjUzNzhoM0BvbWFiMmQ0MGpgLS1kLjZzYSNvbWFiMmQ0MGpgLS1kLjZzcw%3D%3D&vvpl=1&l=02173103962103400000000000000000000ffff0a00afb97d90e8&btag=e00070000&format=mp3&mime_type=audio_mpeg",
        "source_timerange": {
            "start_offset": 4.560000000000002,
            "end_offset": 6.0799999999999805
        },
        "target_timerange": {
            "start_offset": 346.704,
            "end_offset": 348.224
        },
        "ignore_audio": true,
        "audio_path": null
    },
    {
        "segment_id": "da4454d49d8811efbee9b8cef68aba34",
        "text": "estimated beyond their",
        "audio_url": "https://v16m-default.akamaized.net/b2ab7531d64e8e34d8d06c337ae364b9/672de60a/video/tos/maliva/tos-maliva-v-f15faa-us/ok0zIuLBA2SBqfebCAGXINWJr0OgICBCAyIzex/?a=7073&bti=OTU0QDItLmA%3D&ch=0&cr=0&dr=4&er=0&lr=unwatermarked&cd=0%7C0%7C0%7C0&br=312&bt=156&ds=5&ft=.cwOVInz7ThODGvOXq8Zmo&qs=13&rc=anltbWw5cjtzdjUzNzhoM0BpanltbWw5cjtzdjUzNzhoM0BvbWFiMmQ0MGpgLS1kLjZzYSNvbWFiMmQ0MGpgLS1kLjZzcw%3D%3D&vvpl=1&l=02173103962103400000000000000000000ffff0a00afb97d90e8&btag=e00070000&format=mp3&mime_type=audio_mpeg",
        "source_timerange": {
            "start_offset": 6.079999999999984,
            "end_offset": 7.600000000000019
        },
        "target_timerange": {
            "start_offset": 348.224,
            "end_offset": 349.744
        },
        "ignore_audio": true,
        "audio_path": null
    },
    {
        "segment_id": "da44559c9d8811efbee9b8cef68aba34",
        "text": "deserts; but with _him _",
        "audio_url": "https://v16m-default.akamaized.net/b2ab7531d64e8e34d8d06c337ae364b9/672de60a/video/tos/maliva/tos-maliva-v-f15faa-us/ok0zIuLBA2SBqfebCAGXINWJr0OgICBCAyIzex/?a=7073&bti=OTU0QDItLmA%3D&ch=0&cr=0&dr=4&er=0&lr=unwatermarked&cd=0%7C0%7C0%7C0&br=312&bt=156&ds=5&ft=.cwOVInz7ThODGvOXq8Zmo&qs=13&rc=anltbWw5cjtzdjUzNzhoM0BpanltbWw5cjtzdjUzNzhoM0BvbWFiMmQ0MGpgLS1kLjZzYSNvbWFiMmQ0MGpgLS1kLjZzcw%3D%3D&vvpl=1&l=02173103962103400000000000000000000ffff0a00afb97d90e8&btag=e00070000&format=mp3&mime_type=audio_mpeg",
        "source_timerange": {
            "start_offset": 7.600000000000023,
            "end_offset": 9.120000000000001
        },
        "target_timerange": {
            "start_offset": 349.744,
            "end_offset": 351.264
        },
        "ignore_audio": true,
        "audio_path": null
    },
    {
        "segment_id": "da445b509d8811efbee9b8cef68aba34",
        "text": "I believe it does not often happen.",
        "audio_url": "https://v16m-default.akamaized.net/f7d0599c881a1e5874525d2173015143/672de602/video/tos/maliva/tos-maliva-v-f15faa-us/oMa5E1FDAbJglf7tBADLEGLkV6nQkBAhAZEZfN/?a=7073&bti=OTU0QDItLmA%3D&ch=0&cr=0&dr=4&er=0&lr=unwatermarked&cd=0%7C0%7C0%7C0&br=312&bt=156&ds=5&ft=.cwOVInz7ThODGvOXq8Zmo&qs=13&rc=anltbWw5cjtzdjUzNzhoM0BpanltbWw5cjtzdjUzNzhoM0BubWFiMmQ0MGpgLS1kLjZzYSNubWFiMmQ0MGpgLS1kLjZzcw%3D%3D&vvpl=1&l=02173103962103400000000000000000000ffff0a00afb97d90e8&btag=e00070000&format=mp3&mime_type=audio_mpeg",
        "source_timerange": {
            "start_offset": 0,
            "end_offset": 1.944
        },
        "target_timerange": {
            "start_offset": 351.264,
            "end_offset": 353.208
        },
        "ignore_audio": false,
        "audio_path": null
    },
    {
        "segment_id": "da4475729d8811efbee9b8cef68aba34",
        "text": "The world is blinded by his",
        "audio_url": "https://v16m-default.akamaized.net/90bdbb49073ba918b439b36a7189769e/672de609/video/tos/maliva/tos-maliva-v-f15faa-us/oAtVEU4yoARQlRJiukFZLSCyAaxAB2i8PAEBX/?a=7073&bti=OTU0QDItLmA%3D&ch=0&cr=0&dr=4&er=0&lr=unwatermarked&cd=0%7C0%7C0%7C0&br=312&bt=156&ds=5&ft=.cwOVInz7ThODGvOXq8Zmo&qs=13&rc=ajw3dXY5cjtzdjUzNzhoM0Bpajw3dXY5cjtzdjUzNzhoM0AyXmZmMmQ0MGpgLS1kLjZzYSMyXmZmMmQ0MGpgLS1kLjZzcw%3D%3D&vvpl=1&l=02173103962103400000000000000000000ffff0a00afb97d90e8&btag=e00070000&format=mp3&mime_type=audio_mpeg",
        "source_timerange": {
            "start_offset": 0,
            "end_offset": 1.4320000000000324
        },
        "target_timerange": {
            "start_offset": 353.208,
            "end_offset": 354.64000000000004
        },
        "ignore_audio": false,
        "audio_path": null
    },
    {
        "segment_id": "da44766c9d8811efbee9b8cef68aba34",
        "text": "fortune and consequence, or",
        "audio_url": "https://v16m-default.akamaized.net/90bdbb49073ba918b439b36a7189769e/672de609/video/tos/maliva/tos-maliva-v-f15faa-us/oAtVEU4yoARQlRJiukFZLSCyAaxAB2i8PAEBX/?a=7073&bti=OTU0QDItLmA%3D&ch=0&cr=0&dr=4&er=0&lr=unwatermarked&cd=0%7C0%7C0%7C0&br=312&bt=156&ds=5&ft=.cwOVInz7ThODGvOXq8Zmo&qs=13&rc=ajw3dXY5cjtzdjUzNzhoM0Bpajw3dXY5cjtzdjUzNzhoM0AyXmZmMmQ0MGpgLS1kLjZzYSMyXmZmMmQ0MGpgLS1kLjZzcw%3D%3D&vvpl=1&l=02173103962103400000000000000000000ffff0a00afb97d90e8&btag=e00070000&format=mp3&mime_type=audio_mpeg",
        "source_timerange": {
            "start_offset": 1.4320000000000164,
            "end_offset": 2.863999999999992
        },
        "target_timerange": {
            "start_offset": 354.64000000000004,
            "end_offset": 356.072
        },
        "ignore_audio": true,
        "audio_path": null
    },
    {
        "segment_id": "da4477529d8811efbee9b8cef68aba34",
        "text": "frightened by his high and",
        "audio_url": "https://v16m-default.akamaized.net/90bdbb49073ba918b439b36a7189769e/672de609/video/tos/maliva/tos-maliva-v-f15faa-us/oAtVEU4yoARQlRJiukFZLSCyAaxAB2i8PAEBX/?a=7073&bti=OTU0QDItLmA%3D&ch=0&cr=0&dr=4&er=0&lr=unwatermarked&cd=0%7C0%7C0%7C0&br=312&bt=156&ds=5&ft=.cwOVInz7ThODGvOXq8Zmo&qs=13&rc=ajw3dXY5cjtzdjUzNzhoM0Bpajw3dXY5cjtzdjUzNzhoM0AyXmZmMmQ0MGpgLS1kLjZzYSMyXmZmMmQ0MGpgLS1kLjZzcw%3D%3D&vvpl=1&l=02173103962103400000000000000000000ffff0a00afb97d90e8&btag=e00070000&format=mp3&mime_type=audio_mpeg",
        "source_timerange": {
            "start_offset": 2.863999999999976,
            "end_offset": 4.296000000000008
        },
        "target_timerange": {
            "start_offset": 356.072,
            "end_offset": 357.504
        },
        "ignore_audio": true,
        "audio_path": null
    },
    {
        "segment_id": "da4478249d8811efbee9b8cef68aba34",
        "text": "imposing manners, and sees",
        "audio_url": "https://v16m-default.akamaized.net/90bdbb49073ba918b439b36a7189769e/672de609/video/tos/maliva/tos-maliva-v-f15faa-us/oAtVEU4yoARQlRJiukFZLSCyAaxAB2i8PAEBX/?a=7073&bti=OTU0QDItLmA%3D&ch=0&cr=0&dr=4&er=0&lr=unwatermarked&cd=0%7C0%7C0%7C0&br=312&bt=156&ds=5&ft=.cwOVInz7ThODGvOXq8Zmo&qs=13&rc=ajw3dXY5cjtzdjUzNzhoM0Bpajw3dXY5cjtzdjUzNzhoM0AyXmZmMmQ0MGpgLS1kLjZzYSMyXmZmMmQ0MGpgLS1kLjZzcw%3D%3D&vvpl=1&l=02173103962103400000000000000000000ffff0a00afb97d90e8&btag=e00070000&format=mp3&mime_type=audio_mpeg",
        "source_timerange": {
            "start_offset": 4.295999999999992,
            "end_offset": 5.728000000000025
        },
        "target_timerange": {
            "start_offset": 357.504,
            "end_offset": 358.93600000000004
        },
        "ignore_audio": true,
        "audio_path": null
    },
    {
        "segment_id": "da4478ec9d8811efbee9b8cef68aba34",
        "text": "him only as he chooses to",
        "audio_url": "https://v16m-default.akamaized.net/90bdbb49073ba918b439b36a7189769e/672de609/video/tos/maliva/tos-maliva-v-f15faa-us/oAtVEU4yoARQlRJiukFZLSCyAaxAB2i8PAEBX/?a=7073&bti=OTU0QDItLmA%3D&ch=0&cr=0&dr=4&er=0&lr=unwatermarked&cd=0%7C0%7C0%7C0&br=312&bt=156&ds=5&ft=.cwOVInz7ThODGvOXq8Zmo&qs=13&rc=ajw3dXY5cjtzdjUzNzhoM0Bpajw3dXY5cjtzdjUzNzhoM0AyXmZmMmQ0MGpgLS1kLjZzYSMyXmZmMmQ0MGpgLS1kLjZzcw%3D%3D&vvpl=1&l=02173103962103400000000000000000000ffff0a00afb97d90e8&btag=e00070000&format=mp3&mime_type=audio_mpeg",
        "source_timerange": {
            "start_offset": 5.728000000000009,
            "end_offset": 7.159999999999984
        },
        "target_timerange": {
            "start_offset": 358.93600000000004,
            "end_offset": 360.368
        },
        "ignore_audio": true,
        "audio_path": null
    },
    {
        "segment_id": "da4479be9d8811efbee9b8cef68aba34",
        "text": "be seen.”",
        "audio_url": "https://v16m-default.akamaized.net/90bdbb49073ba918b439b36a7189769e/672de609/video/tos/maliva/tos-maliva-v-f15faa-us/oAtVEU4yoARQlRJiukFZLSCyAaxAB2i8PAEBX/?a=7073&bti=OTU0QDItLmA%3D&ch=0&cr=0&dr=4&er=0&lr=unwatermarked&cd=0%7C0%7C0%7C0&br=312&bt=156&ds=5&ft=.cwOVInz7ThODGvOXq8Zmo&qs=13&rc=ajw3dXY5cjtzdjUzNzhoM0Bpajw3dXY5cjtzdjUzNzhoM0AyXmZmMmQ0MGpgLS1kLjZzYSMyXmZmMmQ0MGpgLS1kLjZzcw%3D%3D&vvpl=1&l=02173103962103400000000000000000000ffff0a00afb97d90e8&btag=e00070000&format=mp3&mime_type=audio_mpeg",
        "source_timerange": {
            "start_offset": 7.159999999999968,
            "end_offset": 8.592
        },
        "target_timerange": {
            "start_offset": 360.368,
            "end_offset": 361.8
        },
        "ignore_audio": true,
        "audio_path": null
    },
    {
        "segment_id": "da4487109d8811efbee9b8cef68aba34",
        "text": "“I should take him, even on",
        "audio_url": "https://v16m-default.akamaized.net/7a052a58624bcb69c926005fca2bedf2/672de605/video/tos/maliva/tos-maliva-v-f15faa-us/oYPaWE4zo6AAAD2BAUQEkiSn3HthiZWVdRyCi/?a=7073&bti=OTU0QDItLmA%3D&ch=0&cr=0&dr=4&er=0&lr=unwatermarked&cd=0%7C0%7C0%7C0&br=312&bt=156&ds=5&ft=.cwOVInz7ThODGvOXq8Zmo&qs=13&rc=ajR4b3Q5cjtzdjUzNzhoM0BpajR4b3Q5cjtzdjUzNzhoM0BiMmpnMmQ0MGpgLS1kLjZzYSNiMmpnMmQ0MGpgLS1kLjZzcw%3D%3D&vvpl=1&l=02173103962103400000000000000000000ffff0a00afb97d90e8&btag=e00070000&format=mp3&mime_type=audio_mpeg",
        "source_timerange": {
            "start_offset": 0,
            "end_offset": 1.6000000000000112
        },
        "target_timerange": {
            "start_offset": 361.8,
            "end_offset": 363.40000000000003
        },
        "ignore_audio": false,
        "audio_path": null
    },
    {
        "segment_id": "da44880a9d8811efbee9b8cef68aba34",
        "text": "_my_ slight acquaintance, to",
        "audio_url": "https://v16m-default.akamaized.net/7a052a58624bcb69c926005fca2bedf2/672de605/video/tos/maliva/tos-maliva-v-f15faa-us/oYPaWE4zo6AAAD2BAUQEkiSn3HthiZWVdRyCi/?a=7073&bti=OTU0QDItLmA%3D&ch=0&cr=0&dr=4&er=0&lr=unwatermarked&cd=0%7C0%7C0%7C0&br=312&bt=156&ds=5&ft=.cwOVInz7ThODGvOXq8Zmo&qs=13&rc=ajR4b3Q5cjtzdjUzNzhoM0BpajR4b3Q5cjtzdjUzNzhoM0BiMmpnMmQ0MGpgLS1kLjZzYSNiMmpnMmQ0MGpgLS1kLjZzcw%3D%3D&vvpl=1&l=02173103962103400000000000000000000ffff0a00afb97d90e8&btag=e00070000&format=mp3&mime_type=audio_mpeg",
        "source_timerange": {
            "start_offset": 1.6000000000000227,
            "end_offset": 3.199999999999977
        },
        "target_timerange": {
            "start_offset": 363.40000000000003,
            "end_offset": 365
        },
        "ignore_audio": true,
        "audio_path": null
    },
    {
        "segment_id": "da4488e69d8811efbee9b8cef68aba34",
        "text": "be an ill-tempered man.”",
        "audio_url": "https://v16m-default.akamaized.net/7a052a58624bcb69c926005fca2bedf2/672de605/video/tos/maliva/tos-maliva-v-f15faa-us/oYPaWE4zo6AAAD2BAUQEkiSn3HthiZWVdRyCi/?a=7073&bti=OTU0QDItLmA%3D&ch=0&cr=0&dr=4&er=0&lr=unwatermarked&cd=0%7C0%7C0%7C0&br=312&bt=156&ds=5&ft=.cwOVInz7ThODGvOXq8Zmo&qs=13&rc=ajR4b3Q5cjtzdjUzNzhoM0BpajR4b3Q5cjtzdjUzNzhoM0BiMmpnMmQ0MGpgLS1kLjZzYSNiMmpnMmQ0MGpgLS1kLjZzcw%3D%3D&vvpl=1&l=02173103962103400000000000000000000ffff0a00afb97d90e8&btag=e00070000&format=mp3&mime_type=audio_mpeg",
        "source_timerange": {
            "start_offset": 3.1999999999999886,
            "end_offset": 4.8
        },
        "target_timerange": {
            "start_offset": 365,
            "end_offset": 366.6
        },
        "ignore_audio": true,
        "audio_path": null
    },
    {
        "segment_id": "da448e729d8811efbee9b8cef68aba34",
        "text": "Wickham only shook his head.",
        "audio_url": "https://v16m-default.akamaized.net/29852dfeda85180b2627e4abb2985d27/672de602/video/tos/maliva/tos-maliva-v-f15faa-us/oUQvfFBlckAgaiqrz7vQjAkwoE2tASFEAA5si7/?a=7073&bti=OTU0QDItLmA%3D&ch=0&cr=0&dr=4&er=0&lr=unwatermarked&cd=0%7C0%7C0%7C0&br=312&bt=156&ds=5&ft=.cwOVInz7ThODGvOXq8Zmo&qs=13&rc=M2lpbnM5cjtzdjUzNzhoM0BpM2lpbnM5cjtzdjUzNzhoM0Bia2lxMmRjMGpgLS1kLjZzYSNia2lxMmRjMGpgLS1kLjZzcw%3D%3D&vvpl=1&l=02173103962103400000000000000000000ffff0a00afb97d90e8&btag=e00070000&format=mp3&mime_type=audio_mpeg",
        "source_timerange": {
            "start_offset": 0,
            "end_offset": 1.584
        },
        "target_timerange": {
            "start_offset": 366.6,
            "end_offset": 368.184
        },
        "ignore_audio": false,
        "audio_path": null
    },
    {
        "segment_id": "da44a7f49d8811efbee9b8cef68aba34",
        "text": "“I wonder,” said he, at",
        "audio_url": "https://v16m-default.akamaized.net/e4681315e327b7a3433e497378afff2b/672de608/video/tos/maliva/tos-maliva-v-f15faa-us/oMAVDEQjEGnATyhaEBtAKJFAfLudkBfZmVLHGh/?a=7073&bti=OTU0QDItLmA%3D&ch=0&cr=0&dr=4&er=0&lr=unwatermarked&cd=0%7C0%7C0%7C0&br=312&bt=156&ds=5&ft=.cwOVInz7ThODGvOXq8Zmo&qs=13&rc=M2RncW05cjtzdjUzNzhoM0BpM2RncW05cjtzdjUzNzhoM0BrM3AuMmRjMGpgLS1kLjZzYSNrM3AuMmRjMGpgLS1kLjZzcw%3D%3D&vvpl=1&l=02173103962103400000000000000000000ffff0a00afb97d90e8&btag=e00070000&format=mp3&mime_type=audio_mpeg",
        "source_timerange": {
            "start_offset": 0,
            "end_offset": 1.4015999999999922
        },
        "target_timerange": {
            "start_offset": 368.184,
            "end_offset": 369.5856
        },
        "ignore_audio": false,
        "audio_path": null
    },
    {
        "segment_id": "da44a97a9d8811efbee9b8cef68aba34",
        "text": "the next opportunity of",
        "audio_url": "https://v16m-default.akamaized.net/e4681315e327b7a3433e497378afff2b/672de608/video/tos/maliva/tos-maliva-v-f15faa-us/oMAVDEQjEGnATyhaEBtAKJFAfLudkBfZmVLHGh/?a=7073&bti=OTU0QDItLmA%3D&ch=0&cr=0&dr=4&er=0&lr=unwatermarked&cd=0%7C0%7C0%7C0&br=312&bt=156&ds=5&ft=.cwOVInz7ThODGvOXq8Zmo&qs=13&rc=M2RncW05cjtzdjUzNzhoM0BpM2RncW05cjtzdjUzNzhoM0BrM3AuMmRjMGpgLS1kLjZzYSNrM3AuMmRjMGpgLS1kLjZzcw%3D%3D&vvpl=1&l=02173103962103400000000000000000000ffff0a00afb97d90e8&btag=e00070000&format=mp3&mime_type=audio_mpeg",
        "source_timerange": {
            "start_offset": 1.4015999999999735,
            "end_offset": 2.8032000000000226
        },
        "target_timerange": {
            "start_offset": 369.5856,
            "end_offset": 370.98720000000003
        },
        "ignore_audio": true,
        "audio_path": null
    },
    {
        "segment_id": "da44aae29d8811efbee9b8cef68aba34",
        "text": "speaking, “whether he is",
        "audio_url": "https://v16m-default.akamaized.net/e4681315e327b7a3433e497378afff2b/672de608/video/tos/maliva/tos-maliva-v-f15faa-us/oMAVDEQjEGnATyhaEBtAKJFAfLudkBfZmVLHGh/?a=7073&bti=OTU0QDItLmA%3D&ch=0&cr=0&dr=4&er=0&lr=unwatermarked&cd=0%7C0%7C0%7C0&br=312&bt=156&ds=5&ft=.cwOVInz7ThODGvOXq8Zmo&qs=13&rc=M2RncW05cjtzdjUzNzhoM0BpM2RncW05cjtzdjUzNzhoM0BrM3AuMmRjMGpgLS1kLjZzYSNrM3AuMmRjMGpgLS1kLjZzcw%3D%3D&vvpl=1&l=02173103962103400000000000000000000ffff0a00afb97d90e8&btag=e00070000&format=mp3&mime_type=audio_mpeg",
        "source_timerange": {
            "start_offset": 2.803200000000004,
            "end_offset": 4.204799999999996
        },
        "target_timerange": {
            "start_offset": 370.98720000000003,
            "end_offset": 372.3888
        },
        "ignore_audio": true,
        "audio_path": null
    },
    {
        "segment_id": "da44ac189d8811efbee9b8cef68aba34",
        "text": "likely to be in this",
        "audio_url": "https://v16m-default.akamaized.net/e4681315e327b7a3433e497378afff2b/672de608/video/tos/maliva/tos-maliva-v-f15faa-us/oMAVDEQjEGnATyhaEBtAKJFAfLudkBfZmVLHGh/?a=7073&bti=OTU0QDItLmA%3D&ch=0&cr=0&dr=4&er=0&lr=unwatermarked&cd=0%7C0%7C0%7C0&br=312&bt=156&ds=5&ft=.cwOVInz7ThODGvOXq8Zmo&qs=13&rc=M2RncW05cjtzdjUzNzhoM0BpM2RncW05cjtzdjUzNzhoM0BrM3AuMmRjMGpgLS1kLjZzYSNrM3AuMmRjMGpgLS1kLjZzcw%3D%3D&vvpl=1&l=02173103962103400000000000000000000ffff0a00afb97d90e8&btag=e00070000&format=mp3&mime_type=audio_mpeg",
        "source_timerange": {
            "start_offset": 4.2047999999999774,
            "end_offset": 5.6064000000000265
        },
        "target_timerange": {
            "start_offset": 372.3888,
            "end_offset": 373.79040000000003
        },
        "ignore_audio": true,
        "audio_path": null
    },
    {
        "segment_id": "da44ad589d8811efbee9b8cef68aba34",
        "text": "country much longer.”",
        "audio_url": "https://v16m-default.akamaized.net/e4681315e327b7a3433e497378afff2b/672de608/video/tos/maliva/tos-maliva-v-f15faa-us/oMAVDEQjEGnATyhaEBtAKJFAfLudkBfZmVLHGh/?a=7073&bti=OTU0QDItLmA%3D&ch=0&cr=0&dr=4&er=0&lr=unwatermarked&cd=0%7C0%7C0%7C0&br=312&bt=156&ds=5&ft=.cwOVInz7ThODGvOXq8Zmo&qs=13&rc=M2RncW05cjtzdjUzNzhoM0BpM2RncW05cjtzdjUzNzhoM0BrM3AuMmRjMGpgLS1kLjZzYSNrM3AuMmRjMGpgLS1kLjZzcw%3D%3D&vvpl=1&l=02173103962103400000000000000000000ffff0a00afb97d90e8&btag=e00070000&format=mp3&mime_type=audio_mpeg",
        "source_timerange": {
            "start_offset": 5.606400000000008,
            "end_offset": 7.008
        },
        "target_timerange": {
            "start_offset": 373.79040000000003,
            "end_offset": 375.192
        },
        "ignore_audio": true,
        "audio_path": null
    },
    {
        "segment_id": "da44c6309d8811efbee9b8cef68aba34",
        "text": "“I do not at all know;",
        "audio_url": "https://v16m-default.akamaized.net/5c144cf5eb1cd49a3cc6dac90fe835b5/672de606/video/tos/maliva/tos-maliva-v-f15faa-us/ogQsaXot7iAFCAqzFFAwEkEtfjwA7AgkyB5qli/?a=7073&bti=OTU0QDItLmA%3D&ch=0&cr=0&dr=4&er=0&lr=unwatermarked&cd=0%7C0%7C0%7C0&br=312&bt=156&ds=5&ft=.cwOVInz7ThODGvOXq8Zmo&qs=13&rc=amxnZHM5cjtzdjUzNzhoM0BpamxnZHM5cjtzdjUzNzhoM0AvY2suMmRjMGpgLS1kLjZzYSMvY2suMmRjMGpgLS1kLjZzcw%3D%3D&vvpl=1&l=02173103962103400000000000000000000ffff0a00afb97d90e8&btag=e00070000&format=mp3&mime_type=audio_mpeg",
        "source_timerange": {
            "start_offset": 0,
            "end_offset": 1.3379999999999903
        },
        "target_timerange": {
            "start_offset": 375.192,
            "end_offset": 376.53
        },
        "ignore_audio": false,
        "audio_path": null
    },
    {
        "segment_id": "da44c7989d8811efbee9b8cef68aba34",
        "text": "but I _heard_ nothing of",
        "audio_url": "https://v16m-default.akamaized.net/5c144cf5eb1cd49a3cc6dac90fe835b5/672de606/video/tos/maliva/tos-maliva-v-f15faa-us/ogQsaXot7iAFCAqzFFAwEkEtfjwA7AgkyB5qli/?a=7073&bti=OTU0QDItLmA%3D&ch=0&cr=0&dr=4&er=0&lr=unwatermarked&cd=0%7C0%7C0%7C0&br=312&bt=156&ds=5&ft=.cwOVInz7ThODGvOXq8Zmo&qs=13&rc=amxnZHM5cjtzdjUzNzhoM0BpamxnZHM5cjtzdjUzNzhoM0AvY2suMmRjMGpgLS1kLjZzYSMvY2suMmRjMGpgLS1kLjZzcw%3D%3D&vvpl=1&l=02173103962103400000000000000000000ffff0a00afb97d90e8&btag=e00070000&format=mp3&mime_type=audio_mpeg",
        "source_timerange": {
            "start_offset": 1.3379999999999654,
            "end_offset": 2.6760000000000126
        },
        "target_timerange": {
            "start_offset": 376.53,
            "end_offset": 377.868
        },
        "ignore_audio": true,
        "audio_path": null
    },
    {
        "segment_id": "da44c8c49d8811efbee9b8cef68aba34",
        "text": "his going away when I was",
        "audio_url": "https://v16m-default.akamaized.net/5c144cf5eb1cd49a3cc6dac90fe835b5/672de606/video/tos/maliva/tos-maliva-v-f15faa-us/ogQsaXot7iAFCAqzFFAwEkEtfjwA7AgkyB5qli/?a=7073&bti=OTU0QDItLmA%3D&ch=0&cr=0&dr=4&er=0&lr=unwatermarked&cd=0%7C0%7C0%7C0&br=312&bt=156&ds=5&ft=.cwOVInz7ThODGvOXq8Zmo&qs=13&rc=amxnZHM5cjtzdjUzNzhoM0BpamxnZHM5cjtzdjUzNzhoM0AvY2suMmRjMGpgLS1kLjZzYSMvY2suMmRjMGpgLS1kLjZzcw%3D%3D&vvpl=1&l=02173103962103400000000000000000000ffff0a00afb97d90e8&btag=e00070000&format=mp3&mime_type=audio_mpeg",
        "source_timerange": {
            "start_offset": 2.6759999999999877,
            "end_offset": 4.014000000000035
        },
        "target_timerange": {
            "start_offset": 377.868,
            "end_offset": 379.206
        },
        "ignore_audio": true,
        "audio_path": null
    },
    {
        "segment_id": "da44c9e69d8811efbee9b8cef68aba34",
        "text": "at Netherfield.",
        "audio_url": "https://v16m-default.akamaized.net/5c144cf5eb1cd49a3cc6dac90fe835b5/672de606/video/tos/maliva/tos-maliva-v-f15faa-us/ogQsaXot7iAFCAqzFFAwEkEtfjwA7AgkyB5qli/?a=7073&bti=OTU0QDItLmA%3D&ch=0&cr=0&dr=4&er=0&lr=unwatermarked&cd=0%7C0%7C0%7C0&br=312&bt=156&ds=5&ft=.cwOVInz7ThODGvOXq8Zmo&qs=13&rc=amxnZHM5cjtzdjUzNzhoM0BpamxnZHM5cjtzdjUzNzhoM0AvY2suMmRjMGpgLS1kLjZzYSMvY2suMmRjMGpgLS1kLjZzcw%3D%3D&vvpl=1&l=02173103962103400000000000000000000ffff0a00afb97d90e8&btag=e00070000&format=mp3&mime_type=audio_mpeg",
        "source_timerange": {
            "start_offset": 4.01400000000001,
            "end_offset": 5.352
        },
        "target_timerange": {
            "start_offset": 379.206,
            "end_offset": 380.544
        },
        "ignore_audio": true,
        "audio_path": null
    },
    {
        "segment_id": "da44dcd89d8811efbee9b8cef68aba34",
        "text": "I hope your plans in favour of the",
        "audio_url": "https://v16m-default.akamaized.net/d829a9b8c96658a7fc70f0a272b3d4b9/672de605/video/tos/maliva/tos-maliva-v-f15faa-us/o0EV1LEBUAXkNbJ0hqGhItQIDfLfFBA1DBAnZI/?a=7073&bti=OTU0QDItLmA%3D&ch=0&cr=0&dr=4&er=0&lr=unwatermarked&cd=0%7C0%7C0%7C0&br=312&bt=156&ds=5&ft=.cwOVInz7ThODGvOXq8Zmo&qs=13&rc=M3Q7d3Q5cjtzdjUzNzhoM0BpM3Q7d3Q5cjtzdjUzNzhoM0BlMDZpMmRjMGpgLS1kLjZzYSNlMDZpMmRjMGpgLS1kLjZzcw%3D%3D&vvpl=1&l=02173103962103400000000000000000000ffff0a00afb97d90e8&btag=e00070000&format=mp3&mime_type=audio_mpeg",
        "source_timerange": {
            "start_offset": 0,
            "end_offset": 1.6000000000000112
        },
        "target_timerange": {
            "start_offset": 380.544,
            "end_offset": 382.144
        },
        "ignore_audio": false,
        "audio_path": null
    },
    {
        "segment_id": "da44de909d8811efbee9b8cef68aba34",
        "text": "----shire will not be affected by his",
        "audio_url": "https://v16m-default.akamaized.net/d829a9b8c96658a7fc70f0a272b3d4b9/672de605/video/tos/maliva/tos-maliva-v-f15faa-us/o0EV1LEBUAXkNbJ0hqGhItQIDfLfFBA1DBAnZI/?a=7073&bti=OTU0QDItLmA%3D&ch=0&cr=0&dr=4&er=0&lr=unwatermarked&cd=0%7C0%7C0%7C0&br=312&bt=156&ds=5&ft=.cwOVInz7ThODGvOXq8Zmo&qs=13&rc=M3Q7d3Q5cjtzdjUzNzhoM0BpM3Q7d3Q5cjtzdjUzNzhoM0BlMDZpMmRjMGpgLS1kLjZzYSNlMDZpMmRjMGpgLS1kLjZzcw%3D%3D&vvpl=1&l=02173103962103400000000000000000000ffff0a00afb97d90e8&btag=e00070000&format=mp3&mime_type=audio_mpeg",
        "source_timerange": {
            "start_offset": 1.6000000000000227,
            "end_offset": 3.199999999999977
        },
        "target_timerange": {
            "start_offset": 382.144,
            "end_offset": 383.74399999999997
        },
        "ignore_audio": true,
        "audio_path": null
    },
    {
        "segment_id": "da44e0029d8811efbee9b8cef68aba34",
        "text": "being in the neighbourhood.”",
        "audio_url": "https://v16m-default.akamaized.net/d829a9b8c96658a7fc70f0a272b3d4b9/672de605/video/tos/maliva/tos-maliva-v-f15faa-us/o0EV1LEBUAXkNbJ0hqGhItQIDfLfFBA1DBAnZI/?a=7073&bti=OTU0QDItLmA%3D&ch=0&cr=0&dr=4&er=0&lr=unwatermarked&cd=0%7C0%7C0%7C0&br=312&bt=156&ds=5&ft=.cwOVInz7ThODGvOXq8Zmo&qs=13&rc=M3Q7d3Q5cjtzdjUzNzhoM0BpM3Q7d3Q5cjtzdjUzNzhoM0BlMDZpMmRjMGpgLS1kLjZzYSNlMDZpMmRjMGpgLS1kLjZzcw%3D%3D&vvpl=1&l=02173103962103400000000000000000000ffff0a00afb97d90e8&btag=e00070000&format=mp3&mime_type=audio_mpeg",
        "source_timerange": {
            "start_offset": 3.1999999999999886,
            "end_offset": 4.8
        },
        "target_timerange": {
            "start_offset": 383.74399999999997,
            "end_offset": 385.344
        },
        "ignore_audio": true,
        "audio_path": null
    },
    {
        "segment_id": "da44ee449d8811efbee9b8cef68aba34",
        "text": "“Oh no--it is not for _me_ to",
        "audio_url": "https://v16m-default.akamaized.net/62921bf8eda8b977a9202182d0e3d4ac/672de604/video/tos/maliva/tos-maliva-v-f15faa-us/owJDEAKAEBeAI0FQnKQLYIZfKGsVBhhLbIBJqk/?a=7073&bti=OTU0QDItLmA%3D&ch=0&cr=0&dr=4&er=0&lr=unwatermarked&cd=0%7C0%7C0%7C0&br=312&bt=156&ds=5&ft=.cwOVInz7ThODGvOXq8Zmo&qs=13&rc=Mztrb3A5cjtzdjUzNzhoM0BpMztrb3A5cjtzdjUzNzhoM0AuMTYvMmRjMGpgLS1kLjZzYSMuMTYvMmRjMGpgLS1kLjZzcw%3D%3D&vvpl=1&l=02173103962103400000000000000000000ffff0a00afb97d90e8&btag=e00070000&format=mp3&mime_type=audio_mpeg",
        "source_timerange": {
            "start_offset": 0,
            "end_offset": 1.8599999999999866
        },
        "target_timerange": {
            "start_offset": 385.344,
            "end_offset": 387.204
        },
        "ignore_audio": false,
        "audio_path": null
    },
    {
        "segment_id": "da44efc09d8811efbee9b8cef68aba34",
        "text": "be driven away by Mr. Darcy.",
        "audio_url": "https://v16m-default.akamaized.net/62921bf8eda8b977a9202182d0e3d4ac/672de604/video/tos/maliva/tos-maliva-v-f15faa-us/owJDEAKAEBeAI0FQnKQLYIZfKGsVBhhLbIBJqk/?a=7073&bti=OTU0QDItLmA%3D&ch=0&cr=0&dr=4&er=0&lr=unwatermarked&cd=0%7C0%7C0%7C0&br=312&bt=156&ds=5&ft=.cwOVInz7ThODGvOXq8Zmo&qs=13&rc=Mztrb3A5cjtzdjUzNzhoM0BpMztrb3A5cjtzdjUzNzhoM0AuMTYvMmRjMGpgLS1kLjZzYSMuMTYvMmRjMGpgLS1kLjZzcw%3D%3D&vvpl=1&l=02173103962103400000000000000000000ffff0a00afb97d90e8&btag=e00070000&format=mp3&mime_type=audio_mpeg",
        "source_timerange": {
            "start_offset": 1.8600000000000136,
            "end_offset": 3.72
        },
        "target_timerange": {
            "start_offset": 387.204,
            "end_offset": 389.064
        },
        "ignore_audio": true,
        "audio_path": null
    },
    {
        "segment_id": "da44f8309d8811efbee9b8cef68aba34",
        "text": "If _he_ wishes to avoid seeing _me_",
        "audio_url": "https://v16m-default.akamaized.net/26aab6f5acccbe74badc58de556b998e/672de602/video/tos/maliva/tos-maliva-v-f15faa-us/oQEVGJnLZv57FhUtDBEemLFAzAABoQfqEkhAka/?a=7073&bti=OTU0QDItLmA%3D&ch=0&cr=0&dr=4&er=0&lr=unwatermarked&cd=0%7C0%7C0%7C0&br=312&bt=156&ds=5&ft=.cwOVInz7ThODGvOXq8Zmo&qs=13&rc=Mzlrdm85cjtzdjUzNzhoM0BpMzlrdm85cjtzdjUzNzhoM0BecWZiMmRjMGpgLS1kLjZzYSNecWZiMmRjMGpgLS1kLjZzcw%3D%3D&vvpl=1&l=02173103962103400000000000000000000ffff0a00afb97d90e8&btag=e00070000&format=mp3&mime_type=audio_mpeg",
        "source_timerange": {
            "start_offset": 0,
            "end_offset": 1.992
        },
        "target_timerange": {
            "start_offset": 389.064,
            "end_offset": 391.056
        },
        "ignore_audio": false,
        "audio_path": null
    },
    {
        "segment_id": "da45014a9d8811efbee9b8cef68aba34",
        "text": "he must go.",
        "audio_url": "https://v16m-default.akamaized.net/7c11cadc8a15048af6014de66c165940/672de602/video/tos/maliva/tos-maliva-v-f15faa-us/osAEhAb2EFLQHLAQEVLDJhdTZZkAGentlBSfBa/?a=7073&bti=OTU0QDItLmA%3D&ch=0&cr=0&dr=4&er=0&lr=unwatermarked&cd=0%7C0%7C0%7C0&br=312&bt=156&ds=5&ft=.cwOVInz7ThODGvOXq8Zmo&qs=13&rc=M3NvN3g5cjtzdjUzNzhoM0BpM3NvN3g5cjtzdjUzNzhoM0BvM2c1MmRjMGpgLS1kLjZzYSNvM2c1MmRjMGpgLS1kLjZzcw%3D%3D&vvpl=1&l=02173103962103400000000000000000000ffff0a00afb97d90e8&btag=e00070000&format=mp3&mime_type=audio_mpeg",
        "source_timerange": {
            "start_offset": 0,
            "end_offset": 1.032
        },
        "target_timerange": {
            "start_offset": 391.056,
            "end_offset": 392.088
        },
        "ignore_audio": false,
        "audio_path": null
    },
    {
        "segment_id": "da451ac29d8811efbee9b8cef68aba34",
        "text": "We are not on friendly terms,",
        "audio_url": "https://v16m-default.akamaized.net/c26dbf82a109aea1eab6ed1317013db8/672de607/video/tos/maliva/tos-maliva-v-f15faa-us/o8JBLLgLAZ0DGw3nAAAVahfGhqBFtkEnQESEeH/?a=7073&bti=OTU0QDItLmA%3D&ch=0&cr=0&dr=4&er=0&lr=unwatermarked&cd=0%7C0%7C0%7C0&br=312&bt=156&ds=5&ft=.cwOVInz7ThODGvOXq8Zmo&qs=13&rc=M2Q8N3U5cjtzdjUzNzhoM0BpM2Q8N3U5cjtzdjUzNzhoM0A2cTBwMmRjMGpgLS1kLjZzYSM2cTBwMmRjMGpgLS1kLjZzcw%3D%3D&vvpl=1&l=02173103962103400000000000000000000ffff0a00afb97d90e8&btag=e00070000&format=mp3&mime_type=audio_mpeg",
        "source_timerange": {
            "start_offset": 0,
            "end_offset": 1.6680000000000375
        },
        "target_timerange": {
            "start_offset": 392.088,
            "end_offset": 393.75600000000003
        },
        "ignore_audio": false,
        "audio_path": null
    },
    {
        "segment_id": "da451c8e9d8811efbee9b8cef68aba34",
        "text": "and it always gives me pain to",
        "audio_url": "https://v16m-default.akamaized.net/c26dbf82a109aea1eab6ed1317013db8/672de607/video/tos/maliva/tos-maliva-v-f15faa-us/o8JBLLgLAZ0DGw3nAAAVahfGhqBFtkEnQESEeH/?a=7073&bti=OTU0QDItLmA%3D&ch=0&cr=0&dr=4&er=0&lr=unwatermarked&cd=0%7C0%7C0%7C0&br=312&bt=156&ds=5&ft=.cwOVInz7ThODGvOXq8Zmo&qs=13&rc=M2Q8N3U5cjtzdjUzNzhoM0BpM2Q8N3U5cjtzdjUzNzhoM0A2cTBwMmRjMGpgLS1kLjZzYSM2cTBwMmRjMGpgLS1kLjZzcw%3D%3D&vvpl=1&l=02173103962103400000000000000000000ffff0a00afb97d90e8&btag=e00070000&format=mp3&mime_type=audio_mpeg",
        "source_timerange": {
            "start_offset": 1.6680000000000064,
            "end_offset": 3.335999999999987
        },
        "target_timerange": {
            "start_offset": 393.75600000000003,
            "end_offset": 395.424
        },
        "ignore_audio": true,
        "audio_path": null
    },
    {
        "segment_id": "da451df69d8811efbee9b8cef68aba34",
        "text": "meet him, but I have no reason",
        "audio_url": "https://v16m-default.akamaized.net/c26dbf82a109aea1eab6ed1317013db8/672de607/video/tos/maliva/tos-maliva-v-f15faa-us/o8JBLLgLAZ0DGw3nAAAVahfGhqBFtkEnQESEeH/?a=7073&bti=OTU0QDItLmA%3D&ch=0&cr=0&dr=4&er=0&lr=unwatermarked&cd=0%7C0%7C0%7C0&br=312&bt=156&ds=5&ft=.cwOVInz7ThODGvOXq8Zmo&qs=13&rc=M2Q8N3U5cjtzdjUzNzhoM0BpM2Q8N3U5cjtzdjUzNzhoM0A2cTBwMmRjMGpgLS1kLjZzYSM2cTBwMmRjMGpgLS1kLjZzcw%3D%3D&vvpl=1&l=02173103962103400000000000000000000ffff0a00afb97d90e8&btag=e00070000&format=mp3&mime_type=audio_mpeg",
        "source_timerange": {
            "start_offset": 3.335999999999956,
            "end_offset": 5.003999999999993
        },
        "target_timerange": {
            "start_offset": 395.424,
            "end_offset": 397.092
        },
        "ignore_audio": true,
        "audio_path": null
    },
    {
        "segment_id": "da451f2c9d8811efbee9b8cef68aba34",
        "text": "for avoiding _him_",
        "audio_url": "https://v16m-default.akamaized.net/c26dbf82a109aea1eab6ed1317013db8/672de607/video/tos/maliva/tos-maliva-v-f15faa-us/o8JBLLgLAZ0DGw3nAAAVahfGhqBFtkEnQESEeH/?a=7073&bti=OTU0QDItLmA%3D&ch=0&cr=0&dr=4&er=0&lr=unwatermarked&cd=0%7C0%7C0%7C0&br=312&bt=156&ds=5&ft=.cwOVInz7ThODGvOXq8Zmo&qs=13&rc=M2Q8N3U5cjtzdjUzNzhoM0BpM2Q8N3U5cjtzdjUzNzhoM0A2cTBwMmRjMGpgLS1kLjZzYSM2cTBwMmRjMGpgLS1kLjZzcw%3D%3D&vvpl=1&l=02173103962103400000000000000000000ffff0a00afb97d90e8&btag=e00070000&format=mp3&mime_type=audio_mpeg",
        "source_timerange": {
            "start_offset": 5.003999999999962,
            "end_offset": 6.672
        },
        "target_timerange": {
            "start_offset": 397.092,
            "end_offset": 398.76
        },
        "ignore_audio": true,
        "audio_path": null
    },
    {
        "segment_id": "da4540889d8811efbee9b8cef68aba34",
        "text": "but what I might proclaim to",
        "audio_url": "https://v16m-default.akamaized.net/444de7c8702bc4d1f585d017245de76d/672de608/video/tos/maliva/tos-maliva-v-f15faa-us/o4jlBf1QwihkEakXhAzoiABtEbqsFAoMAgEA8Q/?a=7073&bti=OTU0QDItLmA%3D&ch=0&cr=0&dr=4&er=0&lr=unwatermarked&cd=0%7C0%7C0%7C0&br=312&bt=156&ds=5&ft=.cwOVInz7ThODGvOXq8Zmo&qs=13&rc=M3Fsam85cjtzdjUzNzhoM0BpM3Fsam85cjtzdjUzNzhoM0AzZGNkMmRjMGpgLS1kLjZzYSMzZGNkMmRjMGpgLS1kLjZzcw%3D%3D&vvpl=1&l=02173103962103400000000000000000000ffff0a00afb97d90e8&btag=e00070000&format=mp3&mime_type=audio_mpeg",
        "source_timerange": {
            "start_offset": 0,
            "end_offset": 1.40639999999998
        },
        "target_timerange": {
            "start_offset": 398.76,
            "end_offset": 400.1664
        },
        "ignore_audio": false,
        "audio_path": null
    },
    {
        "segment_id": "da4542369d8811efbee9b8cef68aba34",
        "text": "all the world--a sense of",
        "audio_url": "https://v16m-default.akamaized.net/444de7c8702bc4d1f585d017245de76d/672de608/video/tos/maliva/tos-maliva-v-f15faa-us/o4jlBf1QwihkEakXhAzoiABtEbqsFAoMAgEA8Q/?a=7073&bti=OTU0QDItLmA%3D&ch=0&cr=0&dr=4&er=0&lr=unwatermarked&cd=0%7C0%7C0%7C0&br=312&bt=156&ds=5&ft=.cwOVInz7ThODGvOXq8Zmo&qs=13&rc=M3Fsam85cjtzdjUzNzhoM0BpM3Fsam85cjtzdjUzNzhoM0AzZGNkMmRjMGpgLS1kLjZzYSMzZGNkMmRjMGpgLS1kLjZzcw%3D%3D&vvpl=1&l=02173103962103400000000000000000000ffff0a00afb97d90e8&btag=e00070000&format=mp3&mime_type=audio_mpeg",
        "source_timerange": {
            "start_offset": 1.4064000000000192,
            "end_offset": 2.8127999999999993
        },
        "target_timerange": {
            "start_offset": 400.1664,
            "end_offset": 401.57280000000003
        },
        "ignore_audio": true,
        "audio_path": null
    },
    {
        "segment_id": "da45439e9d8811efbee9b8cef68aba34",
        "text": "very great ill-usage, and",
        "audio_url": "https://v16m-default.akamaized.net/444de7c8702bc4d1f585d017245de76d/672de608/video/tos/maliva/tos-maliva-v-f15faa-us/o4jlBf1QwihkEakXhAzoiABtEbqsFAoMAgEA8Q/?a=7073&bti=OTU0QDItLmA%3D&ch=0&cr=0&dr=4&er=0&lr=unwatermarked&cd=0%7C0%7C0%7C0&br=312&bt=156&ds=5&ft=.cwOVInz7ThODGvOXq8Zmo&qs=13&rc=M3Fsam85cjtzdjUzNzhoM0BpM3Fsam85cjtzdjUzNzhoM0AzZGNkMmRjMGpgLS1kLjZzYSMzZGNkMmRjMGpgLS1kLjZzcw%3D%3D&vvpl=1&l=02173103962103400000000000000000000ffff0a00afb97d90e8&btag=e00070000&format=mp3&mime_type=audio_mpeg",
        "source_timerange": {
            "start_offset": 2.8128000000000384,
            "end_offset": 4.219199999999962
        },
        "target_timerange": {
            "start_offset": 401.57280000000003,
            "end_offset": 402.9792
        },
        "ignore_audio": true,
        "audio_path": null
    },
    {
        "segment_id": "da4544f29d8811efbee9b8cef68aba34",
        "text": "most painful regrets at his",
        "audio_url": "https://v16m-default.akamaized.net/444de7c8702bc4d1f585d017245de76d/672de608/video/tos/maliva/tos-maliva-v-f15faa-us/o4jlBf1QwihkEakXhAzoiABtEbqsFAoMAgEA8Q/?a=7073&bti=OTU0QDItLmA%3D&ch=0&cr=0&dr=4&er=0&lr=unwatermarked&cd=0%7C0%7C0%7C0&br=312&bt=156&ds=5&ft=.cwOVInz7ThODGvOXq8Zmo&qs=13&rc=M3Fsam85cjtzdjUzNzhoM0BpM3Fsam85cjtzdjUzNzhoM0AzZGNkMmRjMGpgLS1kLjZzYSMzZGNkMmRjMGpgLS1kLjZzcw%3D%3D&vvpl=1&l=02173103962103400000000000000000000ffff0a00afb97d90e8&btag=e00070000&format=mp3&mime_type=audio_mpeg",
        "source_timerange": {
            "start_offset": 4.219200000000001,
            "end_offset": 5.625599999999981
        },
        "target_timerange": {
            "start_offset": 402.9792,
            "end_offset": 404.3856
        },
        "ignore_audio": true,
        "audio_path": null
    },
    {
        "segment_id": "da4546509d8811efbee9b8cef68aba34",
        "text": "being what he is.",
        "audio_url": "https://v16m-default.akamaized.net/444de7c8702bc4d1f585d017245de76d/672de608/video/tos/maliva/tos-maliva-v-f15faa-us/o4jlBf1QwihkEakXhAzoiABtEbqsFAoMAgEA8Q/?a=7073&bti=OTU0QDItLmA%3D&ch=0&cr=0&dr=4&er=0&lr=unwatermarked&cd=0%7C0%7C0%7C0&br=312&bt=156&ds=5&ft=.cwOVInz7ThODGvOXq8Zmo&qs=13&rc=M3Fsam85cjtzdjUzNzhoM0BpM3Fsam85cjtzdjUzNzhoM0AzZGNkMmRjMGpgLS1kLjZzYSMzZGNkMmRjMGpgLS1kLjZzcw%3D%3D&vvpl=1&l=02173103962103400000000000000000000ffff0a00afb97d90e8&btag=e00070000&format=mp3&mime_type=audio_mpeg",
        "source_timerange": {
            "start_offset": 5.62560000000002,
            "end_offset": 7.032
        },
        "target_timerange": {
            "start_offset": 404.3856,
            "end_offset": 405.79200000000003
        },
        "ignore_audio": true,
        "audio_path": null
    },
    {
        "segment_id": "da45803e9d8811efbee9b8cef68aba34",
        "text": "His father, Miss Bennet, the",
        "audio_url": "https://v16m-default.akamaized.net/94797ae23392756e3026d404b6a04a00/672de60e/video/tos/maliva/tos-maliva-v-f15faa-us/oAgAeIyeOCAEkoDUXGCUAaMWLANESEeraCsKtJ/?a=7073&bti=OTU0QDItLmA%3D&ch=0&cr=0&dr=4&er=0&lr=unwatermarked&cd=0%7C0%7C0%7C0&br=312&bt=156&ds=5&ft=.cwOVInz7ThODGvOXq8Zmo&qs=13&rc=ajt3ZG85cjtzdjUzNzhoM0Bpajt3ZG85cjtzdjUzNzhoM0AxcW0uMmRjMGpgLS1kLjZzYSMxcW0uMmRjMGpgLS1kLjZzcw%3D%3D&vvpl=1&l=02173103962103400000000000000000000ffff0a00afb97d90e8&btag=e00070000&format=mp3&mime_type=audio_mpeg",
        "source_timerange": {
            "start_offset": 0,
            "end_offset": 1.5546666666667015
        },
        "target_timerange": {
            "start_offset": 405.79200000000003,
            "end_offset": 407.3466666666667
        },
        "ignore_audio": false,
        "audio_path": null
    },
    {
        "segment_id": "da45820a9d8811efbee9b8cef68aba34",
        "text": "late Mr. Darcy, was one of",
        "audio_url": "https://v16m-default.akamaized.net/94797ae23392756e3026d404b6a04a00/672de60e/video/tos/maliva/tos-maliva-v-f15faa-us/oAgAeIyeOCAEkoDUXGCUAaMWLANESEeraCsKtJ/?a=7073&bti=OTU0QDItLmA%3D&ch=0&cr=0&dr=4&er=0&lr=unwatermarked&cd=0%7C0%7C0%7C0&br=312&bt=156&ds=5&ft=.cwOVInz7ThODGvOXq8Zmo&qs=13&rc=ajt3ZG85cjtzdjUzNzhoM0Bpajt3ZG85cjtzdjUzNzhoM0AxcW0uMmRjMGpgLS1kLjZzYSMxcW0uMmRjMGpgLS1kLjZzcw%3D%3D&vvpl=1&l=02173103962103400000000000000000000ffff0a00afb97d90e8&btag=e00070000&format=mp3&mime_type=audio_mpeg",
        "source_timerange": {
            "start_offset": 1.5546666666666624,
            "end_offset": 3.109333333333364
        },
        "target_timerange": {
            "start_offset": 407.3466666666667,
            "end_offset": 408.90133333333335
        },
        "ignore_audio": true,
        "audio_path": null
    },
    {
        "segment_id": "da4583909d8811efbee9b8cef68aba34",
        "text": "the best men that ever",
        "audio_url": "https://v16m-default.akamaized.net/94797ae23392756e3026d404b6a04a00/672de60e/video/tos/maliva/tos-maliva-v-f15faa-us/oAgAeIyeOCAEkoDUXGCUAaMWLANESEeraCsKtJ/?a=7073&bti=OTU0QDItLmA%3D&ch=0&cr=0&dr=4&er=0&lr=unwatermarked&cd=0%7C0%7C0%7C0&br=312&bt=156&ds=5&ft=.cwOVInz7ThODGvOXq8Zmo&qs=13&rc=ajt3ZG85cjtzdjUzNzhoM0Bpajt3ZG85cjtzdjUzNzhoM0AxcW0uMmRjMGpgLS1kLjZzYSMxcW0uMmRjMGpgLS1kLjZzcw%3D%3D&vvpl=1&l=02173103962103400000000000000000000ffff0a00afb97d90e8&btag=e00070000&format=mp3&mime_type=audio_mpeg",
        "source_timerange": {
            "start_offset": 3.109333333333325,
            "end_offset": 4.664000000000026
        },
        "target_timerange": {
            "start_offset": 408.90133333333335,
            "end_offset": 410.456
        },
        "ignore_audio": true,
        "audio_path": null
    },
    {
        "segment_id": "da4584f89d8811efbee9b8cef68aba34",
        "text": "breathed, and the truest",
        "audio_url": "https://v16m-default.akamaized.net/94797ae23392756e3026d404b6a04a00/672de60e/video/tos/maliva/tos-maliva-v-f15faa-us/oAgAeIyeOCAEkoDUXGCUAaMWLANESEeraCsKtJ/?a=7073&bti=OTU0QDItLmA%3D&ch=0&cr=0&dr=4&er=0&lr=unwatermarked&cd=0%7C0%7C0%7C0&br=312&bt=156&ds=5&ft=.cwOVInz7ThODGvOXq8Zmo&qs=13&rc=ajt3ZG85cjtzdjUzNzhoM0Bpajt3ZG85cjtzdjUzNzhoM0AxcW0uMmRjMGpgLS1kLjZzYSMxcW0uMmRjMGpgLS1kLjZzcw%3D%3D&vvpl=1&l=02173103962103400000000000000000000ffff0a00afb97d90e8&btag=e00070000&format=mp3&mime_type=audio_mpeg",
        "source_timerange": {
            "start_offset": 4.663999999999987,
            "end_offset": 6.218666666666689
        },
        "target_timerange": {
            "start_offset": 410.456,
            "end_offset": 412.0106666666667
        },
        "ignore_audio": true,
        "audio_path": null
    },
    {
        "segment_id": "da45866a9d8811efbee9b8cef68aba34",
        "text": "friend I ever had; and I can",
        "audio_url": "https://v16m-default.akamaized.net/94797ae23392756e3026d404b6a04a00/672de60e/video/tos/maliva/tos-maliva-v-f15faa-us/oAgAeIyeOCAEkoDUXGCUAaMWLANESEeraCsKtJ/?a=7073&bti=OTU0QDItLmA%3D&ch=0&cr=0&dr=4&er=0&lr=unwatermarked&cd=0%7C0%7C0%7C0&br=312&bt=156&ds=5&ft=.cwOVInz7ThODGvOXq8Zmo&qs=13&rc=ajt3ZG85cjtzdjUzNzhoM0Bpajt3ZG85cjtzdjUzNzhoM0AxcW0uMmRjMGpgLS1kLjZzYSMxcW0uMmRjMGpgLS1kLjZzcw%3D%3D&vvpl=1&l=02173103962103400000000000000000000ffff0a00afb97d90e8&btag=e00070000&format=mp3&mime_type=audio_mpeg",
        "source_timerange": {
            "start_offset": 6.21866666666665,
            "end_offset": 7.773333333333351
        },
        "target_timerange": {
            "start_offset": 412.0106666666667,
            "end_offset": 413.56533333333334
        },
        "ignore_audio": true,
        "audio_path": null
    },
    {
        "segment_id": "da4587e69d8811efbee9b8cef68aba34",
        "text": "never be in company with this",
        "audio_url": "https://v16m-default.akamaized.net/94797ae23392756e3026d404b6a04a00/672de60e/video/tos/maliva/tos-maliva-v-f15faa-us/oAgAeIyeOCAEkoDUXGCUAaMWLANESEeraCsKtJ/?a=7073&bti=OTU0QDItLmA%3D&ch=0&cr=0&dr=4&er=0&lr=unwatermarked&cd=0%7C0%7C0%7C0&br=312&bt=156&ds=5&ft=.cwOVInz7ThODGvOXq8Zmo&qs=13&rc=ajt3ZG85cjtzdjUzNzhoM0Bpajt3ZG85cjtzdjUzNzhoM0AxcW0uMmRjMGpgLS1kLjZzYSMxcW0uMmRjMGpgLS1kLjZzcw%3D%3D&vvpl=1&l=02173103962103400000000000000000000ffff0a00afb97d90e8&btag=e00070000&format=mp3&mime_type=audio_mpeg",
        "source_timerange": {
            "start_offset": 7.773333333333312,
            "end_offset": 9.328000000000014
        },
        "target_timerange": {
            "start_offset": 413.56533333333334,
            "end_offset": 415.12
        },
        "ignore_audio": true,
        "audio_path": null
    },
    {
        "segment_id": "da4589449d8811efbee9b8cef68aba34",
        "text": "Mr. Darcy without being",
        "audio_url": "https://v16m-default.akamaized.net/94797ae23392756e3026d404b6a04a00/672de60e/video/tos/maliva/tos-maliva-v-f15faa-us/oAgAeIyeOCAEkoDUXGCUAaMWLANESEeraCsKtJ/?a=7073&bti=OTU0QDItLmA%3D&ch=0&cr=0&dr=4&er=0&lr=unwatermarked&cd=0%7C0%7C0%7C0&br=312&bt=156&ds=5&ft=.cwOVInz7ThODGvOXq8Zmo&qs=13&rc=ajt3ZG85cjtzdjUzNzhoM0Bpajt3ZG85cjtzdjUzNzhoM0AxcW0uMmRjMGpgLS1kLjZzYSMxcW0uMmRjMGpgLS1kLjZzcw%3D%3D&vvpl=1&l=02173103962103400000000000000000000ffff0a00afb97d90e8&btag=e00070000&format=mp3&mime_type=audio_mpeg",
        "source_timerange": {
            "start_offset": 9.327999999999975,
            "end_offset": 10.882666666666676
        },
        "target_timerange": {
            "start_offset": 415.12,
            "end_offset": 416.67466666666667
        },
        "ignore_audio": true,
        "audio_path": null
    },
    {
        "segment_id": "da458b1a9d8811efbee9b8cef68aba34",
        "text": "grieved to the soul by a",
        "audio_url": "https://v16m-default.akamaized.net/94797ae23392756e3026d404b6a04a00/672de60e/video/tos/maliva/tos-maliva-v-f15faa-us/oAgAeIyeOCAEkoDUXGCUAaMWLANESEeraCsKtJ/?a=7073&bti=OTU0QDItLmA%3D&ch=0&cr=0&dr=4&er=0&lr=unwatermarked&cd=0%7C0%7C0%7C0&br=312&bt=156&ds=5&ft=.cwOVInz7ThODGvOXq8Zmo&qs=13&rc=ajt3ZG85cjtzdjUzNzhoM0Bpajt3ZG85cjtzdjUzNzhoM0AxcW0uMmRjMGpgLS1kLjZzYSMxcW0uMmRjMGpgLS1kLjZzcw%3D%3D&vvpl=1&l=02173103962103400000000000000000000ffff0a00afb97d90e8&btag=e00070000&format=mp3&mime_type=audio_mpeg",
        "source_timerange": {
            "start_offset": 10.882666666666637,
            "end_offset": 12.437333333333338
        },
        "target_timerange": {
            "start_offset": 416.67466666666667,
            "end_offset": 418.22933333333333
        },
        "ignore_audio": true,
        "audio_path": null
    },
    {
        "segment_id": "da458c829d8811efbee9b8cef68aba34",
        "text": "thousand tender recollections.",
        "audio_url": "https://v16m-default.akamaized.net/94797ae23392756e3026d404b6a04a00/672de60e/video/tos/maliva/tos-maliva-v-f15faa-us/oAgAeIyeOCAEkoDUXGCUAaMWLANESEeraCsKtJ/?a=7073&bti=OTU0QDItLmA%3D&ch=0&cr=0&dr=4&er=0&lr=unwatermarked&cd=0%7C0%7C0%7C0&br=312&bt=156&ds=5&ft=.cwOVInz7ThODGvOXq8Zmo&qs=13&rc=ajt3ZG85cjtzdjUzNzhoM0Bpajt3ZG85cjtzdjUzNzhoM0AxcW0uMmRjMGpgLS1kLjZzYSMxcW0uMmRjMGpgLS1kLjZzcw%3D%3D&vvpl=1&l=02173103962103400000000000000000000ffff0a00afb97d90e8&btag=e00070000&format=mp3&mime_type=audio_mpeg",
        "source_timerange": {
            "start_offset": 12.4373333333333,
            "end_offset": 13.992
        },
        "target_timerange": {
            "start_offset": 418.22933333333333,
            "end_offset": 419.784
        },
        "ignore_audio": true,
        "audio_path": null
    },
    {
        "segment_id": "da45bd9c9d8811efbee9b8cef68aba34",
        "text": "His behaviour to myself has",
        "audio_url": "https://v16m-default.akamaized.net/85f4e2b90cb0e8fb36f8533523ebc09f/672de60c/video/tos/maliva/tos-maliva-v-f15faa-us/oYaXEPiEA5kQA1btgABFEjl9qlzokAAwAsiDf1/?a=7073&bti=OTU0QDItLmA%3D&ch=0&cr=0&dr=4&er=0&lr=unwatermarked&cd=0%7C0%7C0%7C0&br=312&bt=156&ds=5&ft=.cwOVInz7ThmDGvOXq8Zmo&qs=13&rc=am9neHc5cjtzdjUzNzhoM0Bpam9neHc5cjtzdjUzNzhoM0A0YzVmMmRjMGpgLS1kLjZzYSM0YzVmMmRjMGpgLS1kLjZzcw%3D%3D&vvpl=1&l=02173103962103400000000000000000000ffff0a00afb97d90e8&btag=e00070000&format=mp3&mime_type=audio_mpeg",
        "source_timerange": {
            "start_offset": 0,
            "end_offset": 1.5291428571428511
        },
        "target_timerange": {
            "start_offset": 419.784,
            "end_offset": 421.31314285714285
        },
        "ignore_audio": false,
        "audio_path": null
    },
    {
        "segment_id": "da45bf9a9d8811efbee9b8cef68aba34",
        "text": "been scandalous; but I verily",
        "audio_url": "https://v16m-default.akamaized.net/85f4e2b90cb0e8fb36f8533523ebc09f/672de60c/video/tos/maliva/tos-maliva-v-f15faa-us/oYaXEPiEA5kQA1btgABFEjl9qlzokAAwAsiDf1/?a=7073&bti=OTU0QDItLmA%3D&ch=0&cr=0&dr=4&er=0&lr=unwatermarked&cd=0%7C0%7C0%7C0&br=312&bt=156&ds=5&ft=.cwOVInz7ThmDGvOXq8Zmo&qs=13&rc=am9neHc5cjtzdjUzNzhoM0Bpam9neHc5cjtzdjUzNzhoM0A0YzVmMmRjMGpgLS1kLjZzYSM0YzVmMmRjMGpgLS1kLjZzcw%3D%3D&vvpl=1&l=02173103962103400000000000000000000ffff0a00afb97d90e8&btag=e00070000&format=mp3&mime_type=audio_mpeg",
        "source_timerange": {
            "start_offset": 1.5291428571428582,
            "end_offset": 3.0582857142857094
        },
        "target_timerange": {
            "start_offset": 421.31314285714285,
            "end_offset": 422.8422857142857
        },
        "ignore_audio": true,
        "audio_path": null
    },
    {
        "segment_id": "da45c1489d8811efbee9b8cef68aba34",
        "text": "believe I could forgive him",
        "audio_url": "https://v16m-default.akamaized.net/85f4e2b90cb0e8fb36f8533523ebc09f/672de60c/video/tos/maliva/tos-maliva-v-f15faa-us/oYaXEPiEA5kQA1btgABFEjl9qlzokAAwAsiDf1/?a=7073&bti=OTU0QDItLmA%3D&ch=0&cr=0&dr=4&er=0&lr=unwatermarked&cd=0%7C0%7C0%7C0&br=312&bt=156&ds=5&ft=.cwOVInz7ThmDGvOXq8Zmo&qs=13&rc=am9neHc5cjtzdjUzNzhoM0Bpam9neHc5cjtzdjUzNzhoM0A0YzVmMmRjMGpgLS1kLjZzYSM0YzVmMmRjMGpgLS1kLjZzcw%3D%3D&vvpl=1&l=02173103962103400000000000000000000ffff0a00afb97d90e8&btag=e00070000&format=mp3&mime_type=audio_mpeg",
        "source_timerange": {
            "start_offset": 3.0582857142857165,
            "end_offset": 4.587428571428568
        },
        "target_timerange": {
            "start_offset": 422.8422857142857,
            "end_offset": 424.37142857142857
        },
        "ignore_audio": true,
        "audio_path": null
    },
    {
        "segment_id": "da45c2a69d8811efbee9b8cef68aba34",
        "text": "anything and everything,",
        "audio_url": "https://v16m-default.akamaized.net/85f4e2b90cb0e8fb36f8533523ebc09f/672de60c/video/tos/maliva/tos-maliva-v-f15faa-us/oYaXEPiEA5kQA1btgABFEjl9qlzokAAwAsiDf1/?a=7073&bti=OTU0QDItLmA%3D&ch=0&cr=0&dr=4&er=0&lr=unwatermarked&cd=0%7C0%7C0%7C0&br=312&bt=156&ds=5&ft=.cwOVInz7ThmDGvOXq8Zmo&qs=13&rc=am9neHc5cjtzdjUzNzhoM0Bpam9neHc5cjtzdjUzNzhoM0A0YzVmMmRjMGpgLS1kLjZzYSM0YzVmMmRjMGpgLS1kLjZzcw%3D%3D&vvpl=1&l=02173103962103400000000000000000000ffff0a00afb97d90e8&btag=e00070000&format=mp3&mime_type=audio_mpeg",
        "source_timerange": {
            "start_offset": 4.587428571428575,
            "end_offset": 6.116571428571426
        },
        "target_timerange": {
            "start_offset": 424.37142857142857,
            "end_offset": 425.9005714285714
        },
        "ignore_audio": true,
        "audio_path": null
    },
    {
        "segment_id": "da45c3fa9d8811efbee9b8cef68aba34",
        "text": "rather than his disappointing",
        "audio_url": "https://v16m-default.akamaized.net/85f4e2b90cb0e8fb36f8533523ebc09f/672de60c/video/tos/maliva/tos-maliva-v-f15faa-us/oYaXEPiEA5kQA1btgABFEjl9qlzokAAwAsiDf1/?a=7073&bti=OTU0QDItLmA%3D&ch=0&cr=0&dr=4&er=0&lr=unwatermarked&cd=0%7C0%7C0%7C0&br=312&bt=156&ds=5&ft=.cwOVInz7ThmDGvOXq8Zmo&qs=13&rc=am9neHc5cjtzdjUzNzhoM0Bpam9neHc5cjtzdjUzNzhoM0A0YzVmMmRjMGpgLS1kLjZzYSM0YzVmMmRjMGpgLS1kLjZzcw%3D%3D&vvpl=1&l=02173103962103400000000000000000000ffff0a00afb97d90e8&btag=e00070000&format=mp3&mime_type=audio_mpeg",
        "source_timerange": {
            "start_offset": 6.116571428571433,
            "end_offset": 7.645714285714284
        },
        "target_timerange": {
            "start_offset": 425.9005714285714,
            "end_offset": 427.4297142857143
        },
        "ignore_audio": true,
        "audio_path": null
    },
    {
        "segment_id": "da45c5449d8811efbee9b8cef68aba34",
        "text": "the hopes and disgracing the",
        "audio_url": "https://v16m-default.akamaized.net/85f4e2b90cb0e8fb36f8533523ebc09f/672de60c/video/tos/maliva/tos-maliva-v-f15faa-us/oYaXEPiEA5kQA1btgABFEjl9qlzokAAwAsiDf1/?a=7073&bti=OTU0QDItLmA%3D&ch=0&cr=0&dr=4&er=0&lr=unwatermarked&cd=0%7C0%7C0%7C0&br=312&bt=156&ds=5&ft=.cwOVInz7ThmDGvOXq8Zmo&qs=13&rc=am9neHc5cjtzdjUzNzhoM0Bpam9neHc5cjtzdjUzNzhoM0A0YzVmMmRjMGpgLS1kLjZzYSM0YzVmMmRjMGpgLS1kLjZzcw%3D%3D&vvpl=1&l=02173103962103400000000000000000000ffff0a00afb97d90e8&btag=e00070000&format=mp3&mime_type=audio_mpeg",
        "source_timerange": {
            "start_offset": 7.645714285714291,
            "end_offset": 9.174857142857142
        },
        "target_timerange": {
            "start_offset": 427.4297142857143,
            "end_offset": 428.95885714285714
        },
        "ignore_audio": true,
        "audio_path": null
    },
    {
        "segment_id": "da45c6989d8811efbee9b8cef68aba34",
        "text": "memory of his father.”",
        "audio_url": "https://v16m-default.akamaized.net/85f4e2b90cb0e8fb36f8533523ebc09f/672de60c/video/tos/maliva/tos-maliva-v-f15faa-us/oYaXEPiEA5kQA1btgABFEjl9qlzokAAwAsiDf1/?a=7073&bti=OTU0QDItLmA%3D&ch=0&cr=0&dr=4&er=0&lr=unwatermarked&cd=0%7C0%7C0%7C0&br=312&bt=156&ds=5&ft=.cwOVInz7ThmDGvOXq8Zmo&qs=13&rc=am9neHc5cjtzdjUzNzhoM0Bpam9neHc5cjtzdjUzNzhoM0A0YzVmMmRjMGpgLS1kLjZzYSM0YzVmMmRjMGpgLS1kLjZzcw%3D%3D&vvpl=1&l=02173103962103400000000000000000000ffff0a00afb97d90e8&btag=e00070000&format=mp3&mime_type=audio_mpeg",
        "source_timerange": {
            "start_offset": 9.17485714285715,
            "end_offset": 10.704
        },
        "target_timerange": {
            "start_offset": 428.95885714285714,
            "end_offset": 430.488
        },
        "ignore_audio": true,
        "audio_path": null
    },
    {
        "segment_id": "da45e83a9d8811efbee9b8cef68aba34",
        "text": "Elizabeth found the interest",
        "audio_url": "https://v16m-default.akamaized.net/dd54ffcd2ce5d427fab7713393a3011f/672de609/video/tos/maliva/tos-maliva-v-f15faa-us/oggjRAkBzAk4NoTiiAAsnFEqwgxtflEoYqEaAQ/?a=7073&bti=OTU0QDItLmA%3D&ch=0&cr=0&dr=4&er=0&lr=unwatermarked&cd=0%7C0%7C0%7C0&br=312&bt=156&ds=5&ft=.cwOVInz7ThmDGvOXq8Zmo&qs=13&rc=M2c4OXI5cjtzdjUzNzhoM0BpM2c4OXI5cjtzdjUzNzhoM0BkMzNpMmRjMGpgLS1kLjZzYSNkMzNpMmRjMGpgLS1kLjZzcw%3D%3D&vvpl=1&l=02173103962103400000000000000000000ffff0a00afb97d90e8&btag=e00070000&format=mp3&mime_type=audio_mpeg",
        "source_timerange": {
            "start_offset": 0,
            "end_offset": 1.5407999999999822
        },
        "target_timerange": {
            "start_offset": 430.488,
            "end_offset": 432.0288
        },
        "ignore_audio": false,
        "audio_path": null
    },
    {
        "segment_id": "da45e9f29d8811efbee9b8cef68aba34",
        "text": "of the subject increase, and",
        "audio_url": "https://v16m-default.akamaized.net/dd54ffcd2ce5d427fab7713393a3011f/672de609/video/tos/maliva/tos-maliva-v-f15faa-us/oggjRAkBzAk4NoTiiAAsnFEqwgxtflEoYqEaAQ/?a=7073&bti=OTU0QDItLmA%3D&ch=0&cr=0&dr=4&er=0&lr=unwatermarked&cd=0%7C0%7C0%7C0&br=312&bt=156&ds=5&ft=.cwOVInz7ThmDGvOXq8Zmo&qs=13&rc=M2c4OXI5cjtzdjUzNzhoM0BpM2c4OXI5cjtzdjUzNzhoM0BkMzNpMmRjMGpgLS1kLjZzYSNkMzNpMmRjMGpgLS1kLjZzcw%3D%3D&vvpl=1&l=02173103962103400000000000000000000ffff0a00afb97d90e8&btag=e00070000&format=mp3&mime_type=audio_mpeg",
        "source_timerange": {
            "start_offset": 1.5407999999999902,
            "end_offset": 3.0815999999999724
        },
        "target_timerange": {
            "start_offset": 432.0288,
            "end_offset": 433.5696
        },
        "ignore_audio": true,
        "audio_path": null
    },
    {
        "segment_id": "da45eb5a9d8811efbee9b8cef68aba34",
        "text": "listened with all her heart;",
        "audio_url": "https://v16m-default.akamaized.net/dd54ffcd2ce5d427fab7713393a3011f/672de609/video/tos/maliva/tos-maliva-v-f15faa-us/oggjRAkBzAk4NoTiiAAsnFEqwgxtflEoYqEaAQ/?a=7073&bti=OTU0QDItLmA%3D&ch=0&cr=0&dr=4&er=0&lr=unwatermarked&cd=0%7C0%7C0%7C0&br=312&bt=156&ds=5&ft=.cwOVInz7ThmDGvOXq8Zmo&qs=13&rc=M2c4OXI5cjtzdjUzNzhoM0BpM2c4OXI5cjtzdjUzNzhoM0BkMzNpMmRjMGpgLS1kLjZzYSNkMzNpMmRjMGpgLS1kLjZzcw%3D%3D&vvpl=1&l=02173103962103400000000000000000000ffff0a00afb97d90e8&btag=e00070000&format=mp3&mime_type=audio_mpeg",
        "source_timerange": {
            "start_offset": 3.0815999999999804,
            "end_offset": 4.622400000000019
        },
        "target_timerange": {
            "start_offset": 433.5696,
            "end_offset": 435.1104
        },
        "ignore_audio": true,
        "audio_path": null
    },
    {
        "segment_id": "da45ecc29d8811efbee9b8cef68aba34",
        "text": "but the delicacy of it",
        "audio_url": "https://v16m-default.akamaized.net/dd54ffcd2ce5d427fab7713393a3011f/672de609/video/tos/maliva/tos-maliva-v-f15faa-us/oggjRAkBzAk4NoTiiAAsnFEqwgxtflEoYqEaAQ/?a=7073&bti=OTU0QDItLmA%3D&ch=0&cr=0&dr=4&er=0&lr=unwatermarked&cd=0%7C0%7C0%7C0&br=312&bt=156&ds=5&ft=.cwOVInz7ThmDGvOXq8Zmo&qs=13&rc=M2c4OXI5cjtzdjUzNzhoM0BpM2c4OXI5cjtzdjUzNzhoM0BkMzNpMmRjMGpgLS1kLjZzYSNkMzNpMmRjMGpgLS1kLjZzcw%3D%3D&vvpl=1&l=02173103962103400000000000000000000ffff0a00afb97d90e8&btag=e00070000&format=mp3&mime_type=audio_mpeg",
        "source_timerange": {
            "start_offset": 4.622400000000027,
            "end_offset": 6.16320000000001
        },
        "target_timerange": {
            "start_offset": 435.1104,
            "end_offset": 436.6512
        },
        "ignore_audio": true,
        "audio_path": null
    },
    {
        "segment_id": "da45ee209d8811efbee9b8cef68aba34",
        "text": "prevented further inquiry.",
        "audio_url": "https://v16m-default.akamaized.net/dd54ffcd2ce5d427fab7713393a3011f/672de609/video/tos/maliva/tos-maliva-v-f15faa-us/oggjRAkBzAk4NoTiiAAsnFEqwgxtflEoYqEaAQ/?a=7073&bti=OTU0QDItLmA%3D&ch=0&cr=0&dr=4&er=0&lr=unwatermarked&cd=0%7C0%7C0%7C0&br=312&bt=156&ds=5&ft=.cwOVInz7ThmDGvOXq8Zmo&qs=13&rc=M2c4OXI5cjtzdjUzNzhoM0BpM2c4OXI5cjtzdjUzNzhoM0BkMzNpMmRjMGpgLS1kLjZzYSNkMzNpMmRjMGpgLS1kLjZzcw%3D%3D&vvpl=1&l=02173103962103400000000000000000000ffff0a00afb97d90e8&btag=e00070000&format=mp3&mime_type=audio_mpeg",
        "source_timerange": {
            "start_offset": 6.1632000000000176,
            "end_offset": 7.704
        },
        "target_timerange": {
            "start_offset": 436.6512,
            "end_offset": 438.192
        },
        "ignore_audio": true,
        "audio_path": null
    },
    {
        "segment_id": "da462cb49d8811efbee9b8cef68aba34",
        "text": "Mr. Wickham began to speak",
        "audio_url": "https://v16m-default.akamaized.net/47dcea5da3476a5d1bfa15933ff1d91d/672de610/video/tos/maliva/tos-maliva-v-f15faa-us/oUhI0R6SBDILTJ8bYmFBQGIEVL1MAfhfhABnAZ/?a=7073&bti=OTU0QDItLmA%3D&ch=0&cr=0&dr=4&er=0&lr=unwatermarked&cd=0%7C0%7C0%7C0&br=312&bt=156&ds=5&ft=.cwOVInz7ThmDGvOXq8Zmo&qs=13&rc=anc6ZHQ5cjtzdjUzNzhoM0Bpanc6ZHQ5cjtzdjUzNzhoM0A2cDZsMmRjMGpgLS1kLjZzYSM2cDZsMmRjMGpgLS1kLjZzcw%3D%3D&vvpl=1&l=02173103962103400000000000000000000ffff0a00afb97d90e8&btag=e00070000&format=mp3&mime_type=audio_mpeg",
        "source_timerange": {
            "start_offset": 0,
            "end_offset": 1.4448000000000079
        },
        "target_timerange": {
            "start_offset": 438.192,
            "end_offset": 439.6368
        },
        "ignore_audio": false,
        "audio_path": null
    },
    {
        "segment_id": "da462e769d8811efbee9b8cef68aba34",
        "text": "on more general topics,",
        "audio_url": "https://v16m-default.akamaized.net/47dcea5da3476a5d1bfa15933ff1d91d/672de610/video/tos/maliva/tos-maliva-v-f15faa-us/oUhI0R6SBDILTJ8bYmFBQGIEVL1MAfhfhABnAZ/?a=7073&bti=OTU0QDItLmA%3D&ch=0&cr=0&dr=4&er=0&lr=unwatermarked&cd=0%7C0%7C0%7C0&br=312&bt=156&ds=5&ft=.cwOVInz7ThmDGvOXq8Zmo&qs=13&rc=anc6ZHQ5cjtzdjUzNzhoM0Bpanc6ZHQ5cjtzdjUzNzhoM0A2cDZsMmRjMGpgLS1kLjZzYSM2cDZsMmRjMGpgLS1kLjZzcw%3D%3D&vvpl=1&l=02173103962103400000000000000000000ffff0a00afb97d90e8&btag=e00070000&format=mp3&mime_type=audio_mpeg",
        "source_timerange": {
            "start_offset": 1.4447999999999865,
            "end_offset": 2.8895999999999944
        },
        "target_timerange": {
            "start_offset": 439.6368,
            "end_offset": 441.0816
        },
        "ignore_audio": true,
        "audio_path": null
    },
    {
        "segment_id": "da462fde9d8811efbee9b8cef68aba34",
        "text": "Meryton, the",
        "audio_url": "https://v16m-default.akamaized.net/47dcea5da3476a5d1bfa15933ff1d91d/672de610/video/tos/maliva/tos-maliva-v-f15faa-us/oUhI0R6SBDILTJ8bYmFBQGIEVL1MAfhfhABnAZ/?a=7073&bti=OTU0QDItLmA%3D&ch=0&cr=0&dr=4&er=0&lr=unwatermarked&cd=0%7C0%7C0%7C0&br=312&bt=156&ds=5&ft=.cwOVInz7ThmDGvOXq8Zmo&qs=13&rc=anc6ZHQ5cjtzdjUzNzhoM0Bpanc6ZHQ5cjtzdjUzNzhoM0A2cDZsMmRjMGpgLS1kLjZzYSM2cDZsMmRjMGpgLS1kLjZzcw%3D%3D&vvpl=1&l=02173103962103400000000000000000000ffff0a00afb97d90e8&btag=e00070000&format=mp3&mime_type=audio_mpeg",
        "source_timerange": {
            "start_offset": 2.889599999999973,
            "end_offset": 4.334400000000038
        },
        "target_timerange": {
            "start_offset": 441.0816,
            "end_offset": 442.5264
        },
        "ignore_audio": true,
        "audio_path": null
    },
    {
        "segment_id": "da46313c9d8811efbee9b8cef68aba34",
        "text": "neighbourhood, the",
        "audio_url": "https://v16m-default.akamaized.net/47dcea5da3476a5d1bfa15933ff1d91d/672de610/video/tos/maliva/tos-maliva-v-f15faa-us/oUhI0R6SBDILTJ8bYmFBQGIEVL1MAfhfhABnAZ/?a=7073&bti=OTU0QDItLmA%3D&ch=0&cr=0&dr=4&er=0&lr=unwatermarked&cd=0%7C0%7C0%7C0&br=312&bt=156&ds=5&ft=.cwOVInz7ThmDGvOXq8Zmo&qs=13&rc=anc6ZHQ5cjtzdjUzNzhoM0Bpanc6ZHQ5cjtzdjUzNzhoM0A2cDZsMmRjMGpgLS1kLjZzYSM2cDZsMmRjMGpgLS1kLjZzcw%3D%3D&vvpl=1&l=02173103962103400000000000000000000ffff0a00afb97d90e8&btag=e00070000&format=mp3&mime_type=audio_mpeg",
        "source_timerange": {
            "start_offset": 4.3344000000000165,
            "end_offset": 5.779200000000024
        },
        "target_timerange": {
            "start_offset": 442.5264,
            "end_offset": 443.9712
        },
        "ignore_audio": true,
        "audio_path": null
    },
    {
        "segment_id": "da4632a49d8811efbee9b8cef68aba34",
        "text": "society, appearing highly",
        "audio_url": "https://v16m-default.akamaized.net/47dcea5da3476a5d1bfa15933ff1d91d/672de610/video/tos/maliva/tos-maliva-v-f15faa-us/oUhI0R6SBDILTJ8bYmFBQGIEVL1MAfhfhABnAZ/?a=7073&bti=OTU0QDItLmA%3D&ch=0&cr=0&dr=4&er=0&lr=unwatermarked&cd=0%7C0%7C0%7C0&br=312&bt=156&ds=5&ft=.cwOVInz7ThmDGvOXq8Zmo&qs=13&rc=anc6ZHQ5cjtzdjUzNzhoM0Bpanc6ZHQ5cjtzdjUzNzhoM0A2cDZsMmRjMGpgLS1kLjZzYSM2cDZsMmRjMGpgLS1kLjZzcw%3D%3D&vvpl=1&l=02173103962103400000000000000000000ffff0a00afb97d90e8&btag=e00070000&format=mp3&mime_type=audio_mpeg",
        "source_timerange": {
            "start_offset": 5.779200000000003,
            "end_offset": 7.224000000000011
        },
        "target_timerange": {
            "start_offset": 443.9712,
            "end_offset": 445.416
        },
        "ignore_audio": true,
        "audio_path": null
    },
    {
        "segment_id": "da4634029d8811efbee9b8cef68aba34",
        "text": "pleased with all that he",
        "audio_url": "https://v16m-default.akamaized.net/47dcea5da3476a5d1bfa15933ff1d91d/672de610/video/tos/maliva/tos-maliva-v-f15faa-us/oUhI0R6SBDILTJ8bYmFBQGIEVL1MAfhfhABnAZ/?a=7073&bti=OTU0QDItLmA%3D&ch=0&cr=0&dr=4&er=0&lr=unwatermarked&cd=0%7C0%7C0%7C0&br=312&bt=156&ds=5&ft=.cwOVInz7ThmDGvOXq8Zmo&qs=13&rc=anc6ZHQ5cjtzdjUzNzhoM0Bpanc6ZHQ5cjtzdjUzNzhoM0A2cDZsMmRjMGpgLS1kLjZzYSM2cDZsMmRjMGpgLS1kLjZzcw%3D%3D&vvpl=1&l=02173103962103400000000000000000000ffff0a00afb97d90e8&btag=e00070000&format=mp3&mime_type=audio_mpeg",
        "source_timerange": {
            "start_offset": 7.2239999999999895,
            "end_offset": 8.668799999999997
        },
        "target_timerange": {
            "start_offset": 445.416,
            "end_offset": 446.8608
        },
        "ignore_audio": true,
        "audio_path": null
    },
    {
        "segment_id": "da4635a69d8811efbee9b8cef68aba34",
        "text": "had yet seen, and speaking",
        "audio_url": "https://v16m-default.akamaized.net/47dcea5da3476a5d1bfa15933ff1d91d/672de610/video/tos/maliva/tos-maliva-v-f15faa-us/oUhI0R6SBDILTJ8bYmFBQGIEVL1MAfhfhABnAZ/?a=7073&bti=OTU0QDItLmA%3D&ch=0&cr=0&dr=4&er=0&lr=unwatermarked&cd=0%7C0%7C0%7C0&br=312&bt=156&ds=5&ft=.cwOVInz7ThmDGvOXq8Zmo&qs=13&rc=anc6ZHQ5cjtzdjUzNzhoM0Bpanc6ZHQ5cjtzdjUzNzhoM0A2cDZsMmRjMGpgLS1kLjZzYSM2cDZsMmRjMGpgLS1kLjZzcw%3D%3D&vvpl=1&l=02173103962103400000000000000000000ffff0a00afb97d90e8&btag=e00070000&format=mp3&mime_type=audio_mpeg",
        "source_timerange": {
            "start_offset": 8.668799999999976,
            "end_offset": 10.113599999999984
        },
        "target_timerange": {
            "start_offset": 446.8608,
            "end_offset": 448.30559999999997
        },
        "ignore_audio": true,
        "audio_path": null
    },
    {
        "segment_id": "da46375e9d8811efbee9b8cef68aba34",
        "text": "of the latter, especially,",
        "audio_url": "https://v16m-default.akamaized.net/47dcea5da3476a5d1bfa15933ff1d91d/672de610/video/tos/maliva/tos-maliva-v-f15faa-us/oUhI0R6SBDILTJ8bYmFBQGIEVL1MAfhfhABnAZ/?a=7073&bti=OTU0QDItLmA%3D&ch=0&cr=0&dr=4&er=0&lr=unwatermarked&cd=0%7C0%7C0%7C0&br=312&bt=156&ds=5&ft=.cwOVInz7ThmDGvOXq8Zmo&qs=13&rc=anc6ZHQ5cjtzdjUzNzhoM0Bpanc6ZHQ5cjtzdjUzNzhoM0A2cDZsMmRjMGpgLS1kLjZzYSM2cDZsMmRjMGpgLS1kLjZzcw%3D%3D&vvpl=1&l=02173103962103400000000000000000000ffff0a00afb97d90e8&btag=e00070000&format=mp3&mime_type=audio_mpeg",
        "source_timerange": {
            "start_offset": 10.113599999999963,
            "end_offset": 11.558400000000027
        },
        "target_timerange": {
            "start_offset": 448.30559999999997,
            "end_offset": 449.7504
        },
        "ignore_audio": true,
        "audio_path": null
    },
    {
        "segment_id": "da4638bc9d8811efbee9b8cef68aba34",
        "text": "with gentle but very",
        "audio_url": "https://v16m-default.akamaized.net/47dcea5da3476a5d1bfa15933ff1d91d/672de610/video/tos/maliva/tos-maliva-v-f15faa-us/oUhI0R6SBDILTJ8bYmFBQGIEVL1MAfhfhABnAZ/?a=7073&bti=OTU0QDItLmA%3D&ch=0&cr=0&dr=4&er=0&lr=unwatermarked&cd=0%7C0%7C0%7C0&br=312&bt=156&ds=5&ft=.cwOVInz7ThmDGvOXq8Zmo&qs=13&rc=anc6ZHQ5cjtzdjUzNzhoM0Bpanc6ZHQ5cjtzdjUzNzhoM0A2cDZsMmRjMGpgLS1kLjZzYSM2cDZsMmRjMGpgLS1kLjZzcw%3D%3D&vvpl=1&l=02173103962103400000000000000000000ffff0a00afb97d90e8&btag=e00070000&format=mp3&mime_type=audio_mpeg",
        "source_timerange": {
            "start_offset": 11.558400000000006,
            "end_offset": 13.003200000000014
        },
        "target_timerange": {
            "start_offset": 449.7504,
            "end_offset": 451.1952
        },
        "ignore_audio": true,
        "audio_path": null
    },
    {
        "segment_id": "da463a249d8811efbee9b8cef68aba34",
        "text": "intelligible gallantry.",
        "audio_url": "https://v16m-default.akamaized.net/47dcea5da3476a5d1bfa15933ff1d91d/672de610/video/tos/maliva/tos-maliva-v-f15faa-us/oUhI0R6SBDILTJ8bYmFBQGIEVL1MAfhfhABnAZ/?a=7073&bti=OTU0QDItLmA%3D&ch=0&cr=0&dr=4&er=0&lr=unwatermarked&cd=0%7C0%7C0%7C0&br=312&bt=156&ds=5&ft=.cwOVInz7ThmDGvOXq8Zmo&qs=13&rc=anc6ZHQ5cjtzdjUzNzhoM0Bpanc6ZHQ5cjtzdjUzNzhoM0A2cDZsMmRjMGpgLS1kLjZzYSM2cDZsMmRjMGpgLS1kLjZzcw%3D%3D&vvpl=1&l=02173103962103400000000000000000000ffff0a00afb97d90e8&btag=e00070000&format=mp3&mime_type=audio_mpeg",
        "source_timerange": {
            "start_offset": 13.003199999999993,
            "end_offset": 14.448
        },
        "target_timerange": {
            "start_offset": 451.1952,
            "end_offset": 452.64
        },
        "ignore_audio": true,
        "audio_path": null
    },
    {
        "segment_id": "da4665f89d8811efbee9b8cef68aba34",
        "text": "“It was the prospect of",
        "audio_url": "https://v16m-default.akamaized.net/9e6cd8867b8be5f72c8830557f654374/672de609/video/tos/maliva/tos-maliva-v-f15faa-us/okEqjkzFsBoXFQ3tBgEMaliAJAAAQof0ikwAZa/?a=7073&bti=OTU0QDItLmA%3D&ch=0&cr=0&dr=4&er=0&lr=unwatermarked&cd=0%7C0%7C0%7C0&br=312&bt=156&ds=5&ft=.cwOVInz7ThmDGvOXq8Zmo&qs=13&rc=anQzcG45cjtzdjUzNzhoM0BpanQzcG45cjtzdjUzNzhoM0BvbF5fMmRjMGpgLS1kLjZzYSNvbF5fMmRjMGpgLS1kLjZzcw%3D%3D&vvpl=1&l=02173103962103400000000000000000000ffff0a00afb97d90e8&btag=e00070000&format=mp3&mime_type=audio_mpeg",
        "source_timerange": {
            "start_offset": 0,
            "end_offset": 1.4784000000000264
        },
        "target_timerange": {
            "start_offset": 452.64,
            "end_offset": 454.1184
        },
        "ignore_audio": false,
        "audio_path": null
    },
    {
        "segment_id": "da4667ba9d8811efbee9b8cef68aba34",
        "text": "constant society, and good",
        "audio_url": "https://v16m-default.akamaized.net/9e6cd8867b8be5f72c8830557f654374/672de609/video/tos/maliva/tos-maliva-v-f15faa-us/okEqjkzFsBoXFQ3tBgEMaliAJAAAQof0ikwAZa/?a=7073&bti=OTU0QDItLmA%3D&ch=0&cr=0&dr=4&er=0&lr=unwatermarked&cd=0%7C0%7C0%7C0&br=312&bt=156&ds=5&ft=.cwOVInz7ThmDGvOXq8Zmo&qs=13&rc=anQzcG45cjtzdjUzNzhoM0BpanQzcG45cjtzdjUzNzhoM0BvbF5fMmRjMGpgLS1kLjZzYSNvbF5fMmRjMGpgLS1kLjZzcw%3D%3D&vvpl=1&l=02173103962103400000000000000000000ffff0a00afb97d90e8&btag=e00070000&format=mp3&mime_type=audio_mpeg",
        "source_timerange": {
            "start_offset": 1.478400000000022,
            "end_offset": 2.9567999999999914
        },
        "target_timerange": {
            "start_offset": 454.1184,
            "end_offset": 455.5968
        },
        "ignore_audio": true,
        "audio_path": null
    },
    {
        "segment_id": "da4669fe9d8811efbee9b8cef68aba34",
        "text": "society,” he added, “which",
        "audio_url": "https://v16m-default.akamaized.net/9e6cd8867b8be5f72c8830557f654374/672de609/video/tos/maliva/tos-maliva-v-f15faa-us/okEqjkzFsBoXFQ3tBgEMaliAJAAAQof0ikwAZa/?a=7073&bti=OTU0QDItLmA%3D&ch=0&cr=0&dr=4&er=0&lr=unwatermarked&cd=0%7C0%7C0%7C0&br=312&bt=156&ds=5&ft=.cwOVInz7ThmDGvOXq8Zmo&qs=13&rc=anQzcG45cjtzdjUzNzhoM0BpanQzcG45cjtzdjUzNzhoM0BvbF5fMmRjMGpgLS1kLjZzYSNvbF5fMmRjMGpgLS1kLjZzcw%3D%3D&vvpl=1&l=02173103962103400000000000000000000ffff0a00afb97d90e8&btag=e00070000&format=mp3&mime_type=audio_mpeg",
        "source_timerange": {
            "start_offset": 2.956799999999987,
            "end_offset": 4.435200000000013
        },
        "target_timerange": {
            "start_offset": 455.5968,
            "end_offset": 457.0752
        },
        "ignore_audio": true,
        "audio_path": null
    },
    {
        "segment_id": "da466b709d8811efbee9b8cef68aba34",
        "text": "was my chief inducement to",
        "audio_url": "https://v16m-default.akamaized.net/9e6cd8867b8be5f72c8830557f654374/672de609/video/tos/maliva/tos-maliva-v-f15faa-us/okEqjkzFsBoXFQ3tBgEMaliAJAAAQof0ikwAZa/?a=7073&bti=OTU0QDItLmA%3D&ch=0&cr=0&dr=4&er=0&lr=unwatermarked&cd=0%7C0%7C0%7C0&br=312&bt=156&ds=5&ft=.cwOVInz7ThmDGvOXq8Zmo&qs=13&rc=anQzcG45cjtzdjUzNzhoM0BpanQzcG45cjtzdjUzNzhoM0BvbF5fMmRjMGpgLS1kLjZzYSNvbF5fMmRjMGpgLS1kLjZzcw%3D%3D&vvpl=1&l=02173103962103400000000000000000000ffff0a00afb97d90e8&btag=e00070000&format=mp3&mime_type=audio_mpeg",
        "source_timerange": {
            "start_offset": 4.435200000000009,
            "end_offset": 5.913599999999978
        },
        "target_timerange": {
            "start_offset": 457.0752,
            "end_offset": 458.55359999999996
        },
        "ignore_audio": true,
        "audio_path": null
    },
    {
        "segment_id": "da466cce9d8811efbee9b8cef68aba34",
        "text": "enter the ----shire.",
        "audio_url": "https://v16m-default.akamaized.net/9e6cd8867b8be5f72c8830557f654374/672de609/video/tos/maliva/tos-maliva-v-f15faa-us/okEqjkzFsBoXFQ3tBgEMaliAJAAAQof0ikwAZa/?a=7073&bti=OTU0QDItLmA%3D&ch=0&cr=0&dr=4&er=0&lr=unwatermarked&cd=0%7C0%7C0%7C0&br=312&bt=156&ds=5&ft=.cwOVInz7ThmDGvOXq8Zmo&qs=13&rc=anQzcG45cjtzdjUzNzhoM0BpanQzcG45cjtzdjUzNzhoM0BvbF5fMmRjMGpgLS1kLjZzYSNvbF5fMmRjMGpgLS1kLjZzcw%3D%3D&vvpl=1&l=02173103962103400000000000000000000ffff0a00afb97d90e8&btag=e00070000&format=mp3&mime_type=audio_mpeg",
        "source_timerange": {
            "start_offset": 5.913599999999974,
            "end_offset": 7.392
        },
        "target_timerange": {
            "start_offset": 458.55359999999996,
            "end_offset": 460.032
        },
        "ignore_audio": true,
        "audio_path": null
    },
    {
        "segment_id": "da46a23e9d8811efbee9b8cef68aba34",
        "text": "I know it to be a most",
        "audio_url": "https://v16m-default.akamaized.net/69e9957410eba77e4bcb56a28aeb6146/672de60d/video/tos/maliva/tos-maliva-v-f15faa-us/owAlkEQEBjnjsAkHoifaFEAAviBYAzgwA4TqPt/?a=7073&bti=OTU0QDItLmA%3D&ch=0&cr=0&dr=4&er=0&lr=unwatermarked&cd=0%7C0%7C0%7C0&br=312&bt=156&ds=5&ft=.cwOVInz7ThmDGvOXq8Zmo&qs=13&rc=ajpocHI5cjtzdjUzNzhoM0BpajpocHI5cjtzdjUzNzhoM0A2cjEtMmRjMGpgLS1kLjZzYSM2cjEtMmRjMGpgLS1kLjZzcw%3D%3D&vvpl=1&l=02173103962103400000000000000000000ffff0a00afb97d90e8&btag=e00070000&format=mp3&mime_type=audio_mpeg",
        "source_timerange": {
            "start_offset": 0,
            "end_offset": 1.4789999999999353
        },
        "target_timerange": {
            "start_offset": 460.032,
            "end_offset": 461.51099999999997
        },
        "ignore_audio": false,
        "audio_path": null
    },
    {
        "segment_id": "da46a4009d8811efbee9b8cef68aba34",
        "text": "respectable, agreeable corps;",
        "audio_url": "https://v16m-default.akamaized.net/69e9957410eba77e4bcb56a28aeb6146/672de60d/video/tos/maliva/tos-maliva-v-f15faa-us/owAlkEQEBjnjsAkHoifaFEAAviBYAzgwA4TqPt/?a=7073&bti=OTU0QDItLmA%3D&ch=0&cr=0&dr=4&er=0&lr=unwatermarked&cd=0%7C0%7C0%7C0&br=312&bt=156&ds=5&ft=.cwOVInz7ThmDGvOXq8Zmo&qs=13&rc=ajpocHI5cjtzdjUzNzhoM0BpajpocHI5cjtzdjUzNzhoM0A2cjEtMmRjMGpgLS1kLjZzYSM2cjEtMmRjMGpgLS1kLjZzcw%3D%3D&vvpl=1&l=02173103962103400000000000000000000ffff0a00afb97d90e8&btag=e00070000&format=mp3&mime_type=audio_mpeg",
        "source_timerange": {
            "start_offset": 1.478999999999985,
            "end_offset": 2.957999999999977
        },
        "target_timerange": {
            "start_offset": 461.51099999999997,
            "end_offset": 462.99
        },
        "ignore_audio": true,
        "audio_path": null
    },
    {
        "segment_id": "da46a5689d8811efbee9b8cef68aba34",
        "text": "and my friend Denny tempted me",
        "audio_url": "https://v16m-default.akamaized.net/69e9957410eba77e4bcb56a28aeb6146/672de60d/video/tos/maliva/tos-maliva-v-f15faa-us/owAlkEQEBjnjsAkHoifaFEAAviBYAzgwA4TqPt/?a=7073&bti=OTU0QDItLmA%3D&ch=0&cr=0&dr=4&er=0&lr=unwatermarked&cd=0%7C0%7C0%7C0&br=312&bt=156&ds=5&ft=.cwOVInz7ThmDGvOXq8Zmo&qs=13&rc=ajpocHI5cjtzdjUzNzhoM0BpajpocHI5cjtzdjUzNzhoM0A2cjEtMmRjMGpgLS1kLjZzYSM2cjEtMmRjMGpgLS1kLjZzcw%3D%3D&vvpl=1&l=02173103962103400000000000000000000ffff0a00afb97d90e8&btag=e00070000&format=mp3&mime_type=audio_mpeg",
        "source_timerange": {
            "start_offset": 2.958000000000027,
            "end_offset": 4.436999999999962
        },
        "target_timerange": {
            "start_offset": 462.99,
            "end_offset": 464.469
        },
        "ignore_audio": true,
        "audio_path": null
    },
    {
        "segment_id": "da46a6bc9d8811efbee9b8cef68aba34",
        "text": "further by his account of",
        "audio_url": "https://v16m-default.akamaized.net/69e9957410eba77e4bcb56a28aeb6146/672de60d/video/tos/maliva/tos-maliva-v-f15faa-us/owAlkEQEBjnjsAkHoifaFEAAviBYAzgwA4TqPt/?a=7073&bti=OTU0QDItLmA%3D&ch=0&cr=0&dr=4&er=0&lr=unwatermarked&cd=0%7C0%7C0%7C0&br=312&bt=156&ds=5&ft=.cwOVInz7ThmDGvOXq8Zmo&qs=13&rc=ajpocHI5cjtzdjUzNzhoM0BpajpocHI5cjtzdjUzNzhoM0A2cjEtMmRjMGpgLS1kLjZzYSM2cjEtMmRjMGpgLS1kLjZzcw%3D%3D&vvpl=1&l=02173103962103400000000000000000000ffff0a00afb97d90e8&btag=e00070000&format=mp3&mime_type=audio_mpeg",
        "source_timerange": {
            "start_offset": 4.437000000000012,
            "end_offset": 5.915999999999947
        },
        "target_timerange": {
            "start_offset": 464.469,
            "end_offset": 465.948
        },
        "ignore_audio": true,
        "audio_path": null
    },
    {
        "segment_id": "da46a8069d8811efbee9b8cef68aba34",
        "text": "their present quarters, and",
        "audio_url": "https://v16m-default.akamaized.net/69e9957410eba77e4bcb56a28aeb6146/672de60d/video/tos/maliva/tos-maliva-v-f15faa-us/owAlkEQEBjnjsAkHoifaFEAAviBYAzgwA4TqPt/?a=7073&bti=OTU0QDItLmA%3D&ch=0&cr=0&dr=4&er=0&lr=unwatermarked&cd=0%7C0%7C0%7C0&br=312&bt=156&ds=5&ft=.cwOVInz7ThmDGvOXq8Zmo&qs=13&rc=ajpocHI5cjtzdjUzNzhoM0BpajpocHI5cjtzdjUzNzhoM0A2cjEtMmRjMGpgLS1kLjZzYSM2cjEtMmRjMGpgLS1kLjZzcw%3D%3D&vvpl=1&l=02173103962103400000000000000000000ffff0a00afb97d90e8&btag=e00070000&format=mp3&mime_type=audio_mpeg",
        "source_timerange": {
            "start_offset": 5.915999999999997,
            "end_offset": 7.394999999999989
        },
        "target_timerange": {
            "start_offset": 465.948,
            "end_offset": 467.427
        },
        "ignore_audio": true,
        "audio_path": null
    },
    {
        "segment_id": "da46a9509d8811efbee9b8cef68aba34",
        "text": "the very great attentions and",
        "audio_url": "https://v16m-default.akamaized.net/69e9957410eba77e4bcb56a28aeb6146/672de60d/video/tos/maliva/tos-maliva-v-f15faa-us/owAlkEQEBjnjsAkHoifaFEAAviBYAzgwA4TqPt/?a=7073&bti=OTU0QDItLmA%3D&ch=0&cr=0&dr=4&er=0&lr=unwatermarked&cd=0%7C0%7C0%7C0&br=312&bt=156&ds=5&ft=.cwOVInz7ThmDGvOXq8Zmo&qs=13&rc=ajpocHI5cjtzdjUzNzhoM0BpajpocHI5cjtzdjUzNzhoM0A2cjEtMmRjMGpgLS1kLjZzYSM2cjEtMmRjMGpgLS1kLjZzcw%3D%3D&vvpl=1&l=02173103962103400000000000000000000ffff0a00afb97d90e8&btag=e00070000&format=mp3&mime_type=audio_mpeg",
        "source_timerange": {
            "start_offset": 7.395000000000039,
            "end_offset": 8.873999999999974
        },
        "target_timerange": {
            "start_offset": 467.427,
            "end_offset": 468.906
        },
        "ignore_audio": true,
        "audio_path": null
    },
    {
        "segment_id": "da46aaa49d8811efbee9b8cef68aba34",
        "text": "excellent acquaintance Meryton",
        "audio_url": "https://v16m-default.akamaized.net/69e9957410eba77e4bcb56a28aeb6146/672de60d/video/tos/maliva/tos-maliva-v-f15faa-us/owAlkEQEBjnjsAkHoifaFEAAviBYAzgwA4TqPt/?a=7073&bti=OTU0QDItLmA%3D&ch=0&cr=0&dr=4&er=0&lr=unwatermarked&cd=0%7C0%7C0%7C0&br=312&bt=156&ds=5&ft=.cwOVInz7ThmDGvOXq8Zmo&qs=13&rc=ajpocHI5cjtzdjUzNzhoM0BpajpocHI5cjtzdjUzNzhoM0A2cjEtMmRjMGpgLS1kLjZzYSM2cjEtMmRjMGpgLS1kLjZzcw%3D%3D&vvpl=1&l=02173103962103400000000000000000000ffff0a00afb97d90e8&btag=e00070000&format=mp3&mime_type=audio_mpeg",
        "source_timerange": {
            "start_offset": 8.874000000000024,
            "end_offset": 10.353000000000016
        },
        "target_timerange": {
            "start_offset": 468.906,
            "end_offset": 470.38500000000005
        },
        "ignore_audio": true,
        "audio_path": null
    },
    {
        "segment_id": "da46abe49d8811efbee9b8cef68aba34",
        "text": "had procured them.",
        "audio_url": "https://v16m-default.akamaized.net/69e9957410eba77e4bcb56a28aeb6146/672de60d/video/tos/maliva/tos-maliva-v-f15faa-us/owAlkEQEBjnjsAkHoifaFEAAviBYAzgwA4TqPt/?a=7073&bti=OTU0QDItLmA%3D&ch=0&cr=0&dr=4&er=0&lr=unwatermarked&cd=0%7C0%7C0%7C0&br=312&bt=156&ds=5&ft=.cwOVInz7ThmDGvOXq8Zmo&qs=13&rc=ajpocHI5cjtzdjUzNzhoM0BpajpocHI5cjtzdjUzNzhoM0A2cjEtMmRjMGpgLS1kLjZzYSM2cjEtMmRjMGpgLS1kLjZzcw%3D%3D&vvpl=1&l=02173103962103400000000000000000000ffff0a00afb97d90e8&btag=e00070000&format=mp3&mime_type=audio_mpeg",
        "source_timerange": {
            "start_offset": 10.353000000000065,
            "end_offset": 11.832
        },
        "target_timerange": {
            "start_offset": 470.38500000000005,
            "end_offset": 471.86400000000003
        },
        "ignore_audio": true,
        "audio_path": null
    },
    {
        "segment_id": "da46bc9c9d8811efbee9b8cef68aba34",
        "text": "Society, I own, is",
        "audio_url": "https://v16m-default.akamaized.net/bd5378deb41c3b806f489ff4d7934891/672de605/video/tos/maliva/tos-maliva-v-f15faa-us/oYEwHqAzvltkjiRZyGABaoAwk2gfFQJArEAyis/?a=7073&bti=OTU0QDItLmA%3D&ch=0&cr=0&dr=4&er=0&lr=unwatermarked&cd=0%7C0%7C0%7C0&br=312&bt=156&ds=5&ft=.cwOVInz7ThmDGvOXq8Zmo&qs=13&rc=M3Bndmw5cjtzdjUzNzhoM0BpM3Bndmw5cjtzdjUzNzhoM0AwMGkxMmRjMGpgLS1kLjZzYSMwMGkxMmRjMGpgLS1kLjZzcw%3D%3D&vvpl=1&l=02173103962103400000000000000000000ffff0a00afb97d90e8&btag=e00070000&format=mp3&mime_type=audio_mpeg",
        "source_timerange": {
            "start_offset": 0,
            "end_offset": 1.679999999999993
        },
        "target_timerange": {
            "start_offset": 471.86400000000003,
            "end_offset": 473.544
        },
        "ignore_audio": false,
        "audio_path": null
    },
    {
        "segment_id": "da46be869d8811efbee9b8cef68aba34",
        "text": "necessary to me.",
        "audio_url": "https://v16m-default.akamaized.net/bd5378deb41c3b806f489ff4d7934891/672de605/video/tos/maliva/tos-maliva-v-f15faa-us/oYEwHqAzvltkjiRZyGABaoAwk2gfFQJArEAyis/?a=7073&bti=OTU0QDItLmA%3D&ch=0&cr=0&dr=4&er=0&lr=unwatermarked&cd=0%7C0%7C0%7C0&br=312&bt=156&ds=5&ft=.cwOVInz7ThmDGvOXq8Zmo&qs=13&rc=M3Bndmw5cjtzdjUzNzhoM0BpM3Bndmw5cjtzdjUzNzhoM0AwMGkxMmRjMGpgLS1kLjZzYSMwMGkxMmRjMGpgLS1kLjZzcw%3D%3D&vvpl=1&l=02173103962103400000000000000000000ffff0a00afb97d90e8&btag=e00070000&format=mp3&mime_type=audio_mpeg",
        "source_timerange": {
            "start_offset": 1.67999999999995,
            "end_offset": 3.36
        },
        "target_timerange": {
            "start_offset": 473.544,
            "end_offset": 475.224
        },
        "ignore_audio": true,
        "audio_path": null
    },
    {
        "segment_id": "da46d40c9d8811efbee9b8cef68aba34",
        "text": "I have been a disappointed",
        "audio_url": "https://v16m-default.akamaized.net/9e519a41d80e5c79e38329c64e4456dc/672de606/video/tos/maliva/tos-maliva-v-f15faa-us/ocFG0AfnLL8IBmhAEhSZBVIBJLbfIX1AhusQID/?a=7073&bti=OTU0QDItLmA%3D&ch=0&cr=0&dr=4&er=0&lr=unwatermarked&cd=0%7C0%7C0%7C0&br=312&bt=156&ds=5&ft=.cwOVInz7ThmDGvOXq8Zmo&qs=13&rc=M21kbGo5cjtzdjUzNzhoM0BpM21kbGo5cjtzdjUzNzhoM0BfNV9vMmRjMGpgLS1kLjZzYSNfNV9vMmRjMGpgLS1kLjZzcw%3D%3D&vvpl=1&l=02173103962103400000000000000000000ffff0a00afb97d90e8&btag=e00070000&format=mp3&mime_type=audio_mpeg",
        "source_timerange": {
            "start_offset": 0,
            "end_offset": 1.383999999999971
        },
        "target_timerange": {
            "start_offset": 475.224,
            "end_offset": 476.608
        },
        "ignore_audio": false,
        "audio_path": null
    },
    {
        "segment_id": "da46d5ce9d8811efbee9b8cef68aba34",
        "text": "man, and my spirits will",
        "audio_url": "https://v16m-default.akamaized.net/9e519a41d80e5c79e38329c64e4456dc/672de606/video/tos/maliva/tos-maliva-v-f15faa-us/ocFG0AfnLL8IBmhAEhSZBVIBJLbfIX1AhusQID/?a=7073&bti=OTU0QDItLmA%3D&ch=0&cr=0&dr=4&er=0&lr=unwatermarked&cd=0%7C0%7C0%7C0&br=312&bt=156&ds=5&ft=.cwOVInz7ThmDGvOXq8Zmo&qs=13&rc=M21kbGo5cjtzdjUzNzhoM0BpM21kbGo5cjtzdjUzNzhoM0BfNV9vMmRjMGpgLS1kLjZzYSNfNV9vMmRjMGpgLS1kLjZzcw%3D%3D&vvpl=1&l=02173103962103400000000000000000000ffff0a00afb97d90e8&btag=e00070000&format=mp3&mime_type=audio_mpeg",
        "source_timerange": {
            "start_offset": 1.3840000000000146,
            "end_offset": 2.7679999999999856
        },
        "target_timerange": {
            "start_offset": 476.608,
            "end_offset": 477.992
        },
        "ignore_audio": true,
        "audio_path": null
    },
    {
        "segment_id": "da46d7409d8811efbee9b8cef68aba34",
        "text": "not bear solitude.",
        "audio_url": "https://v16m-default.akamaized.net/9e519a41d80e5c79e38329c64e4456dc/672de606/video/tos/maliva/tos-maliva-v-f15faa-us/ocFG0AfnLL8IBmhAEhSZBVIBJLbfIX1AhusQID/?a=7073&bti=OTU0QDItLmA%3D&ch=0&cr=0&dr=4&er=0&lr=unwatermarked&cd=0%7C0%7C0%7C0&br=312&bt=156&ds=5&ft=.cwOVInz7ThmDGvOXq8Zmo&qs=13&rc=M21kbGo5cjtzdjUzNzhoM0BpM21kbGo5cjtzdjUzNzhoM0BfNV9vMmRjMGpgLS1kLjZzYSNfNV9vMmRjMGpgLS1kLjZzcw%3D%3D&vvpl=1&l=02173103962103400000000000000000000ffff0a00afb97d90e8&btag=e00070000&format=mp3&mime_type=audio_mpeg",
        "source_timerange": {
            "start_offset": 2.768000000000029,
            "end_offset": 4.152
        },
        "target_timerange": {
            "start_offset": 477.992,
            "end_offset": 479.37600000000003
        },
        "ignore_audio": true,
        "audio_path": null
    },
    {
        "segment_id": "da46e73a9d8811efbee9b8cef68aba34",
        "text": "I _must_ have",
        "audio_url": "https://v16m-default.akamaized.net/0a827659b36c80473bbf56a69e2fce3b/672de604/video/tos/maliva/tos-maliva-v-f15faa-us/oAakaAAjzAgA6jatAyiiojBQwlFqJGAEEbf8ks/?a=7073&bti=OTU0QDItLmA%3D&ch=0&cr=0&dr=4&er=0&lr=unwatermarked&cd=0%7C0%7C0%7C0&br=312&bt=156&ds=5&ft=.cwOVInz7ThmDGvOXq8Zmo&qs=13&rc=ajZlcGw5cjtzdjUzNzhoM0BpajZlcGw5cjtzdjUzNzhoM0BlbWdhMmRjMGpgLS1kLjZzYSNlbWdhMmRjMGpgLS1kLjZzcw%3D%3D&vvpl=1&l=02173103962103400000000000000000000ffff0a00afb97d90e8&btag=e00070000&format=mp3&mime_type=audio_mpeg",
        "source_timerange": {
            "start_offset": 0,
            "end_offset": 1.1640000000000126
        },
        "target_timerange": {
            "start_offset": 479.37600000000003,
            "end_offset": 480.54
        },
        "ignore_audio": false,
        "audio_path": null
    },
    {
        "segment_id": "da46e8d49d8811efbee9b8cef68aba34",
        "text": "employment and society.",
        "audio_url": "https://v16m-default.akamaized.net/0a827659b36c80473bbf56a69e2fce3b/672de604/video/tos/maliva/tos-maliva-v-f15faa-us/oAakaAAjzAgA6jatAyiiojBQwlFqJGAEEbf8ks/?a=7073&bti=OTU0QDItLmA%3D&ch=0&cr=0&dr=4&er=0&lr=unwatermarked&cd=0%7C0%7C0%7C0&br=312&bt=156&ds=5&ft=.cwOVInz7ThmDGvOXq8Zmo&qs=13&rc=ajZlcGw5cjtzdjUzNzhoM0BpajZlcGw5cjtzdjUzNzhoM0BlbWdhMmRjMGpgLS1kLjZzYSNlbWdhMmRjMGpgLS1kLjZzcw%3D%3D&vvpl=1&l=02173103962103400000000000000000000ffff0a00afb97d90e8&btag=e00070000&format=mp3&mime_type=audio_mpeg",
        "source_timerange": {
            "start_offset": 1.1639999999999873,
            "end_offset": 2.328
        },
        "target_timerange": {
            "start_offset": 480.54,
            "end_offset": 481.704
        },
        "ignore_audio": true,
        "audio_path": null
    },
    {
        "segment_id": "da4703969d8811efbee9b8cef68aba34",
        "text": "A military life is not",
        "audio_url": "https://v16m-default.akamaized.net/c7ca188e84a130fd4896afd77c36f76b/672de607/video/tos/maliva/tos-maliva-v-f15faa-us/owAAsEAQtyzFEZGkstiRAilwqgaB5ojkyEfAta/?a=7073&bti=OTU0QDItLmA%3D&ch=0&cr=0&dr=4&er=0&lr=unwatermarked&cd=0%7C0%7C0%7C0&br=312&bt=156&ds=5&ft=.cwOVInz7ThmDGvOXq8Zmo&qs=13&rc=M3RkdWw5cjtzdjUzNzhoM0BpM3RkdWw5cjtzdjUzNzhoM0AvbjNwMmRjMGpgLS1kLjZzYSMvbjNwMmRjMGpgLS1kLjZzcw%3D%3D&vvpl=1&l=02173103962103400000000000000000000ffff0a00afb97d90e8&btag=e00070000&format=mp3&mime_type=audio_mpeg",
        "source_timerange": {
            "start_offset": 0,
            "end_offset": 1.344000000000018
        },
        "target_timerange": {
            "start_offset": 481.704,
            "end_offset": 483.048
        },
        "ignore_audio": false,
        "audio_path": null
    },
    {
        "segment_id": "da4705ee9d8811efbee9b8cef68aba34",
        "text": "what I was intended for,",
        "audio_url": "https://v16m-default.akamaized.net/c7ca188e84a130fd4896afd77c36f76b/672de607/video/tos/maliva/tos-maliva-v-f15faa-us/owAAsEAQtyzFEZGkstiRAilwqgaB5ojkyEfAta/?a=7073&bti=OTU0QDItLmA%3D&ch=0&cr=0&dr=4&er=0&lr=unwatermarked&cd=0%7C0%7C0%7C0&br=312&bt=156&ds=5&ft=.cwOVInz7ThmDGvOXq8Zmo&qs=13&rc=M3RkdWw5cjtzdjUzNzhoM0BpM3RkdWw5cjtzdjUzNzhoM0AvbjNwMmRjMGpgLS1kLjZzYSMvbjNwMmRjMGpgLS1kLjZzcw%3D%3D&vvpl=1&l=02173103962103400000000000000000000ffff0a00afb97d90e8&btag=e00070000&format=mp3&mime_type=audio_mpeg",
        "source_timerange": {
            "start_offset": 1.343999999999994,
            "end_offset": 2.688000000000012
        },
        "target_timerange": {
            "start_offset": 483.048,
            "end_offset": 484.392
        },
        "ignore_audio": true,
        "audio_path": null
    },
    {
        "segment_id": "da4707569d8811efbee9b8cef68aba34",
        "text": "but circumstances have",
        "audio_url": "https://v16m-default.akamaized.net/c7ca188e84a130fd4896afd77c36f76b/672de607/video/tos/maliva/tos-maliva-v-f15faa-us/owAAsEAQtyzFEZGkstiRAilwqgaB5ojkyEfAta/?a=7073&bti=OTU0QDItLmA%3D&ch=0&cr=0&dr=4&er=0&lr=unwatermarked&cd=0%7C0%7C0%7C0&br=312&bt=156&ds=5&ft=.cwOVInz7ThmDGvOXq8Zmo&qs=13&rc=M3RkdWw5cjtzdjUzNzhoM0BpM3RkdWw5cjtzdjUzNzhoM0AvbjNwMmRjMGpgLS1kLjZzYSMvbjNwMmRjMGpgLS1kLjZzcw%3D%3D&vvpl=1&l=02173103962103400000000000000000000ffff0a00afb97d90e8&btag=e00070000&format=mp3&mime_type=audio_mpeg",
        "source_timerange": {
            "start_offset": 2.687999999999988,
            "end_offset": 4.032000000000006
        },
        "target_timerange": {
            "start_offset": 484.392,
            "end_offset": 485.736
        },
        "ignore_audio": true,
        "audio_path": null
    },
    {
        "segment_id": "da4708aa9d8811efbee9b8cef68aba34",
        "text": "now made it eligible.",
        "audio_url": "https://v16m-default.akamaized.net/c7ca188e84a130fd4896afd77c36f76b/672de607/video/tos/maliva/tos-maliva-v-f15faa-us/owAAsEAQtyzFEZGkstiRAilwqgaB5ojkyEfAta/?a=7073&bti=OTU0QDItLmA%3D&ch=0&cr=0&dr=4&er=0&lr=unwatermarked&cd=0%7C0%7C0%7C0&br=312&bt=156&ds=5&ft=.cwOVInz7ThmDGvOXq8Zmo&qs=13&rc=M3RkdWw5cjtzdjUzNzhoM0BpM3RkdWw5cjtzdjUzNzhoM0AvbjNwMmRjMGpgLS1kLjZzYSMvbjNwMmRjMGpgLS1kLjZzcw%3D%3D&vvpl=1&l=02173103962103400000000000000000000ffff0a00afb97d90e8&btag=e00070000&format=mp3&mime_type=audio_mpeg",
        "source_timerange": {
            "start_offset": 4.031999999999982,
            "end_offset": 5.376
        },
        "target_timerange": {
            "start_offset": 485.736,
            "end_offset": 487.08
        },
        "ignore_audio": true,
        "audio_path": null
    },
    {
        "segment_id": "da473afa9d8811efbee9b8cef68aba34",
        "text": "The church _ought_ to have been my",
        "audio_url": "https://v16m-default.akamaized.net/e97622eaf75da861d648c5711d063207/672de60d/video/tos/maliva/tos-maliva-v-f15faa-us/oEBsAi2AjEklQiow4kEfAv9a9zAmAqoLtzEsFg/?a=7073&bti=OTU0QDItLmA%3D&ch=0&cr=0&dr=4&er=0&lr=unwatermarked&cd=0%7C0%7C0%7C0&br=312&bt=156&ds=5&ft=.cwOVInz7ThmDGvOXq8Zmo&qs=13&rc=M3J5dXA5cjtzdjUzNzhoM0BpM3J5dXA5cjtzdjUzNzhoM0BnNDIyMmRjMGpgLS1kLjZzYSNnNDIyMmRjMGpgLS1kLjZzcw%3D%3D&vvpl=1&l=02173103962103400000000000000000000ffff0a00afb97d90e8&btag=e00070000&format=mp3&mime_type=audio_mpeg",
        "source_timerange": {
            "start_offset": 0,
            "end_offset": 1.5771428571428405
        },
        "target_timerange": {
            "start_offset": 487.08,
            "end_offset": 488.65714285714284
        },
        "ignore_audio": false,
        "audio_path": null
    },
    {
        "segment_id": "da473cc69d8811efbee9b8cef68aba34",
        "text": "profession--I was brought up for",
        "audio_url": "https://v16m-default.akamaized.net/e97622eaf75da861d648c5711d063207/672de60d/video/tos/maliva/tos-maliva-v-f15faa-us/oEBsAi2AjEklQiow4kEfAv9a9zAmAqoLtzEsFg/?a=7073&bti=OTU0QDItLmA%3D&ch=0&cr=0&dr=4&er=0&lr=unwatermarked&cd=0%7C0%7C0%7C0&br=312&bt=156&ds=5&ft=.cwOVInz7ThmDGvOXq8Zmo&qs=13&rc=M3J5dXA5cjtzdjUzNzhoM0BpM3J5dXA5cjtzdjUzNzhoM0BnNDIyMmRjMGpgLS1kLjZzYSNnNDIyMmRjMGpgLS1kLjZzcw%3D%3D&vvpl=1&l=02173103962103400000000000000000000ffff0a00afb97d90e8&btag=e00070000&format=mp3&mime_type=audio_mpeg",
        "source_timerange": {
            "start_offset": 1.57714285714286,
            "end_offset": 3.1542857142857006
        },
        "target_timerange": {
            "start_offset": 488.65714285714284,
            "end_offset": 490.2342857142857
        },
        "ignore_audio": true,
        "audio_path": null
    },
    {
        "segment_id": "da473e389d8811efbee9b8cef68aba34",
        "text": "the church; and I should at this",
        "audio_url": "https://v16m-default.akamaized.net/e97622eaf75da861d648c5711d063207/672de60d/video/tos/maliva/tos-maliva-v-f15faa-us/oEBsAi2AjEklQiow4kEfAv9a9zAmAqoLtzEsFg/?a=7073&bti=OTU0QDItLmA%3D&ch=0&cr=0&dr=4&er=0&lr=unwatermarked&cd=0%7C0%7C0%7C0&br=312&bt=156&ds=5&ft=.cwOVInz7ThmDGvOXq8Zmo&qs=13&rc=M3J5dXA5cjtzdjUzNzhoM0BpM3J5dXA5cjtzdjUzNzhoM0BnNDIyMmRjMGpgLS1kLjZzYSNnNDIyMmRjMGpgLS1kLjZzcw%3D%3D&vvpl=1&l=02173103962103400000000000000000000ffff0a00afb97d90e8&btag=e00070000&format=mp3&mime_type=audio_mpeg",
        "source_timerange": {
            "start_offset": 3.15428571428572,
            "end_offset": 4.731428571428561
        },
        "target_timerange": {
            "start_offset": 490.2342857142857,
            "end_offset": 491.81142857142856
        },
        "ignore_audio": true,
        "audio_path": null
    },
    {
        "segment_id": "da473f969d8811efbee9b8cef68aba34",
        "text": "time have been in possession of a",
        "audio_url": "https://v16m-default.akamaized.net/e97622eaf75da861d648c5711d063207/672de60d/video/tos/maliva/tos-maliva-v-f15faa-us/oEBsAi2AjEklQiow4kEfAv9a9zAmAqoLtzEsFg/?a=7073&bti=OTU0QDItLmA%3D&ch=0&cr=0&dr=4&er=0&lr=unwatermarked&cd=0%7C0%7C0%7C0&br=312&bt=156&ds=5&ft=.cwOVInz7ThmDGvOXq8Zmo&qs=13&rc=M3J5dXA5cjtzdjUzNzhoM0BpM3J5dXA5cjtzdjUzNzhoM0BnNDIyMmRjMGpgLS1kLjZzYSNnNDIyMmRjMGpgLS1kLjZzcw%3D%3D&vvpl=1&l=02173103962103400000000000000000000ffff0a00afb97d90e8&btag=e00070000&format=mp3&mime_type=audio_mpeg",
        "source_timerange": {
            "start_offset": 4.73142857142858,
            "end_offset": 6.308571428571421
        },
        "target_timerange": {
            "start_offset": 491.81142857142856,
            "end_offset": 493.3885714285714
        },
        "ignore_audio": true,
        "audio_path": null
    },
    {
        "segment_id": "da4740e09d8811efbee9b8cef68aba34",
        "text": "most valuable living, had it",
        "audio_url": "https://v16m-default.akamaized.net/e97622eaf75da861d648c5711d063207/672de60d/video/tos/maliva/tos-maliva-v-f15faa-us/oEBsAi2AjEklQiow4kEfAv9a9zAmAqoLtzEsFg/?a=7073&bti=OTU0QDItLmA%3D&ch=0&cr=0&dr=4&er=0&lr=unwatermarked&cd=0%7C0%7C0%7C0&br=312&bt=156&ds=5&ft=.cwOVInz7ThmDGvOXq8Zmo&qs=13&rc=M3J5dXA5cjtzdjUzNzhoM0BpM3J5dXA5cjtzdjUzNzhoM0BnNDIyMmRjMGpgLS1kLjZzYSNnNDIyMmRjMGpgLS1kLjZzcw%3D%3D&vvpl=1&l=02173103962103400000000000000000000ffff0a00afb97d90e8&btag=e00070000&format=mp3&mime_type=audio_mpeg",
        "source_timerange": {
            "start_offset": 6.30857142857144,
            "end_offset": 7.885714285714281
        },
        "target_timerange": {
            "start_offset": 493.3885714285714,
            "end_offset": 494.9657142857143
        },
        "ignore_audio": true,
        "audio_path": null
    },
    {
        "segment_id": "da4742349d8811efbee9b8cef68aba34",
        "text": "pleased the gentleman we were",
        "audio_url": "https://v16m-default.akamaized.net/e97622eaf75da861d648c5711d063207/672de60d/video/tos/maliva/tos-maliva-v-f15faa-us/oEBsAi2AjEklQiow4kEfAv9a9zAmAqoLtzEsFg/?a=7073&bti=OTU0QDItLmA%3D&ch=0&cr=0&dr=4&er=0&lr=unwatermarked&cd=0%7C0%7C0%7C0&br=312&bt=156&ds=5&ft=.cwOVInz7ThmDGvOXq8Zmo&qs=13&rc=M3J5dXA5cjtzdjUzNzhoM0BpM3J5dXA5cjtzdjUzNzhoM0BnNDIyMmRjMGpgLS1kLjZzYSNnNDIyMmRjMGpgLS1kLjZzcw%3D%3D&vvpl=1&l=02173103962103400000000000000000000ffff0a00afb97d90e8&btag=e00070000&format=mp3&mime_type=audio_mpeg",
        "source_timerange": {
            "start_offset": 7.8857142857143,
            "end_offset": 9.46285714285714
        },
        "target_timerange": {
            "start_offset": 494.9657142857143,
            "end_offset": 496.54285714285714
        },
        "ignore_audio": true,
        "audio_path": null
    },
    {
        "segment_id": "da47437e9d8811efbee9b8cef68aba34",
        "text": "speaking of just now.”  “Indeed!”",
        "audio_url": "https://v16m-default.akamaized.net/e97622eaf75da861d648c5711d063207/672de60d/video/tos/maliva/tos-maliva-v-f15faa-us/oEBsAi2AjEklQiow4kEfAv9a9zAmAqoLtzEsFg/?a=7073&bti=OTU0QDItLmA%3D&ch=0&cr=0&dr=4&er=0&lr=unwatermarked&cd=0%7C0%7C0%7C0&br=312&bt=156&ds=5&ft=.cwOVInz7ThmDGvOXq8Zmo&qs=13&rc=M3J5dXA5cjtzdjUzNzhoM0BpM3J5dXA5cjtzdjUzNzhoM0BnNDIyMmRjMGpgLS1kLjZzYSNnNDIyMmRjMGpgLS1kLjZzcw%3D%3D&vvpl=1&l=02173103962103400000000000000000000ffff0a00afb97d90e8&btag=e00070000&format=mp3&mime_type=audio_mpeg",
        "source_timerange": {
            "start_offset": 9.46285714285716,
            "end_offset": 11.040000000000001
        },
        "target_timerange": {
            "start_offset": 496.54285714285714,
            "end_offset": 498.12
        },
        "ignore_audio": true,
        "audio_path": null
    },
    {
        "segment_id": "da475f4e9d8811efbee9b8cef68aba34",
        "text": "“Yes--the late Mr. Darcy",
        "audio_url": "https://v16m-default.akamaized.net/773f74c1738132678392cde8a4720fa3/672de607/video/tos/maliva/tos-maliva-v-f15faa-us/oEXA0BfEnQLanhSJ3EBGVkLiAGEFFmhADfAZkt/?a=7073&bti=OTU0QDItLmA%3D&ch=0&cr=0&dr=4&er=0&lr=unwatermarked&cd=0%7C0%7C0%7C0&br=312&bt=156&ds=5&ft=.cwOVInz7ThmDGvOXq8Zmo&qs=13&rc=M250a3k5cjtzdjUzNzhoM0BpM250a3k5cjtzdjUzNzhoM0A2NmhvMmRjMGpgLS1kLjZzYSM2NmhvMmRjMGpgLS1kLjZzcw%3D%3D&vvpl=1&l=02173103962103400000000000000000000ffff0a00afb97d90e8&btag=e00070000&format=mp3&mime_type=audio_mpeg",
        "source_timerange": {
            "start_offset": 0,
            "end_offset": 1.3259999999999916
        },
        "target_timerange": {
            "start_offset": 498.12,
            "end_offset": 499.446
        },
        "ignore_audio": false,
        "audio_path": null
    },
    {
        "segment_id": "da4760f29d8811efbee9b8cef68aba34",
        "text": "bequeathed me the next",
        "audio_url": "https://v16m-default.akamaized.net/773f74c1738132678392cde8a4720fa3/672de607/video/tos/maliva/tos-maliva-v-f15faa-us/oEXA0BfEnQLanhSJ3EBGVkLiAGEFFmhADfAZkt/?a=7073&bti=OTU0QDItLmA%3D&ch=0&cr=0&dr=4&er=0&lr=unwatermarked&cd=0%7C0%7C0%7C0&br=312&bt=156&ds=5&ft=.cwOVInz7ThmDGvOXq8Zmo&qs=13&rc=M250a3k5cjtzdjUzNzhoM0BpM250a3k5cjtzdjUzNzhoM0A2NmhvMmRjMGpgLS1kLjZzYSM2NmhvMmRjMGpgLS1kLjZzcw%3D%3D&vvpl=1&l=02173103962103400000000000000000000ffff0a00afb97d90e8&btag=e00070000&format=mp3&mime_type=audio_mpeg",
        "source_timerange": {
            "start_offset": 1.3260000000000218,
            "end_offset": 2.6520000000000135
        },
        "target_timerange": {
            "start_offset": 499.446,
            "end_offset": 500.77200000000005
        },
        "ignore_audio": true,
        "audio_path": null
    },
    {
        "segment_id": "da4762509d8811efbee9b8cef68aba34",
        "text": "presentation of the best",
        "audio_url": "https://v16m-default.akamaized.net/773f74c1738132678392cde8a4720fa3/672de607/video/tos/maliva/tos-maliva-v-f15faa-us/oEXA0BfEnQLanhSJ3EBGVkLiAGEFFmhADfAZkt/?a=7073&bti=OTU0QDItLmA%3D&ch=0&cr=0&dr=4&er=0&lr=unwatermarked&cd=0%7C0%7C0%7C0&br=312&bt=156&ds=5&ft=.cwOVInz7ThmDGvOXq8Zmo&qs=13&rc=M250a3k5cjtzdjUzNzhoM0BpM250a3k5cjtzdjUzNzhoM0A2NmhvMmRjMGpgLS1kLjZzYSM2NmhvMmRjMGpgLS1kLjZzcw%3D%3D&vvpl=1&l=02173103962103400000000000000000000ffff0a00afb97d90e8&btag=e00070000&format=mp3&mime_type=audio_mpeg",
        "source_timerange": {
            "start_offset": 2.6520000000000437,
            "end_offset": 3.9779999999999784
        },
        "target_timerange": {
            "start_offset": 500.77200000000005,
            "end_offset": 502.098
        },
        "ignore_audio": true,
        "audio_path": null
    },
    {
        "segment_id": "da47639a9d8811efbee9b8cef68aba34",
        "text": "living in his gift.",
        "audio_url": "https://v16m-default.akamaized.net/773f74c1738132678392cde8a4720fa3/672de607/video/tos/maliva/tos-maliva-v-f15faa-us/oEXA0BfEnQLanhSJ3EBGVkLiAGEFFmhADfAZkt/?a=7073&bti=OTU0QDItLmA%3D&ch=0&cr=0&dr=4&er=0&lr=unwatermarked&cd=0%7C0%7C0%7C0&br=312&bt=156&ds=5&ft=.cwOVInz7ThmDGvOXq8Zmo&qs=13&rc=M250a3k5cjtzdjUzNzhoM0BpM250a3k5cjtzdjUzNzhoM0A2NmhvMmRjMGpgLS1kLjZzYSM2NmhvMmRjMGpgLS1kLjZzcw%3D%3D&vvpl=1&l=02173103962103400000000000000000000ffff0a00afb97d90e8&btag=e00070000&format=mp3&mime_type=audio_mpeg",
        "source_timerange": {
            "start_offset": 3.9780000000000086,
            "end_offset": 5.304
        },
        "target_timerange": {
            "start_offset": 502.098,
            "end_offset": 503.42400000000004
        },
        "ignore_audio": true,
        "audio_path": null
    },
    {
        "segment_id": "da4771f09d8811efbee9b8cef68aba34",
        "text": "He was my godfather, and",
        "audio_url": "https://v16m-default.akamaized.net/f4d981328f4fc11023979ab759eb77c1/672de605/video/tos/maliva/tos-maliva-v-f15faa-us/oclF8hBgEEVJAGAhkf5ftEZwnaAklDHJLAEQLB/?a=7073&bti=OTU0QDItLmA%3D&ch=0&cr=0&dr=4&er=0&lr=unwatermarked&cd=0%7C0%7C0%7C0&br=312&bt=156&ds=5&ft=.cwOVInz7ThmDGvOXq8Zmo&qs=13&rc=Mzg1c3Y5cjtzdjUzNzhoM0BpMzg1c3Y5cjtzdjUzNzhoM0ByLmJzMmRjMGpgLS1kLjZzYSNyLmJzMmRjMGpgLS1kLjZzcw%3D%3D&vvpl=1&l=02173103962103400000000000000000000ffff0a00afb97d90e8&btag=e00070000&format=mp3&mime_type=audio_mpeg",
        "source_timerange": {
            "start_offset": 0,
            "end_offset": 1.5359999999999987
        },
        "target_timerange": {
            "start_offset": 503.42400000000004,
            "end_offset": 504.96000000000004
        },
        "ignore_audio": false,
        "audio_path": null
    },
    {
        "segment_id": "da4773a89d8811efbee9b8cef68aba34",
        "text": "excessively attached to me.",
        "audio_url": "https://v16m-default.akamaized.net/f4d981328f4fc11023979ab759eb77c1/672de605/video/tos/maliva/tos-maliva-v-f15faa-us/oclF8hBgEEVJAGAhkf5ftEZwnaAklDHJLAEQLB/?a=7073&bti=OTU0QDItLmA%3D&ch=0&cr=0&dr=4&er=0&lr=unwatermarked&cd=0%7C0%7C0%7C0&br=312&bt=156&ds=5&ft=.cwOVInz7ThmDGvOXq8Zmo&qs=13&rc=Mzg1c3Y5cjtzdjUzNzhoM0BpMzg1c3Y5cjtzdjUzNzhoM0ByLmJzMmRjMGpgLS1kLjZzYSNyLmJzMmRjMGpgLS1kLjZzcw%3D%3D&vvpl=1&l=02173103962103400000000000000000000ffff0a00afb97d90e8&btag=e00070000&format=mp3&mime_type=audio_mpeg",
        "source_timerange": {
            "start_offset": 1.5360000000000014,
            "end_offset": 3.072
        },
        "target_timerange": {
            "start_offset": 504.96000000000004,
            "end_offset": 506.49600000000004
        },
        "ignore_audio": true,
        "audio_path": null
    },
    {
        "segment_id": "da477d949d8811efbee9b8cef68aba34",
        "text": "I cannot do justice to his kindness.",
        "audio_url": "https://v16m-default.akamaized.net/834df9df111fe8c6e336b3e364b5ad8e/672de604/video/tos/maliva/tos-maliva-v-f15faa-us/oEAEkEkBoFjBgj6AqifYszBAEAlsMiwQaASQAt/?a=7073&bti=OTU0QDItLmA%3D&ch=0&cr=0&dr=4&er=0&lr=unwatermarked&cd=0%7C0%7C0%7C0&br=312&bt=156&ds=5&ft=.cwOVInz7ThmDGvOXq8Zmo&qs=13&rc=MzM8cHQ5cjtzdjUzNzhoM0BpMzM8cHQ5cjtzdjUzNzhoM0AzLS9lMmRjMGpgLS1kLjZzYSMzLS9lMmRjMGpgLS1kLjZzcw%3D%3D&vvpl=1&l=02173103962103400000000000000000000ffff0a00afb97d90e8&btag=e00070000&format=mp3&mime_type=audio_mpeg",
        "source_timerange": {
            "start_offset": 0,
            "end_offset": 2.232
        },
        "target_timerange": {
            "start_offset": 506.49600000000004,
            "end_offset": 508.728
        },
        "ignore_audio": false,
        "audio_path": null
    },
    {
        "segment_id": "da4797529d8811efbee9b8cef68aba34",
        "text": "He meant to provide for me",
        "audio_url": "https://v16m-default.akamaized.net/c9ec339b5b9039395f88dd155e72d7d1/672de608/video/tos/maliva/tos-maliva-v-f15faa-us/oUJBLeALBZrD7K87AAAV0hfGhdBFbIEnQICI9I/?a=7073&bti=OTU0QDItLmA%3D&ch=0&cr=0&dr=4&er=0&lr=unwatermarked&cd=0%7C0%7C0%7C0&br=312&bt=156&ds=5&ft=.cwOVInz7ThmDGvOXq8Zmo&qs=13&rc=amhxang5cjtzdjUzNzhoM0Bpamhxang5cjtzdjUzNzhoM0BkcS8vMmRjMGpgLS1kLjZzYSNkcS8vMmRjMGpgLS1kLjZzcw%3D%3D&vvpl=1&l=02173103962103400000000000000000000ffff0a00afb97d90e8&btag=e00070000&format=mp3&mime_type=audio_mpeg",
        "source_timerange": {
            "start_offset": 0,
            "end_offset": 1.505999999999971
        },
        "target_timerange": {
            "start_offset": 508.728,
            "end_offset": 510.23400000000004
        },
        "ignore_audio": false,
        "audio_path": null
    },
    {
        "segment_id": "da4799149d8811efbee9b8cef68aba34",
        "text": "amply, and thought he had done",
        "audio_url": "https://v16m-default.akamaized.net/c9ec339b5b9039395f88dd155e72d7d1/672de608/video/tos/maliva/tos-maliva-v-f15faa-us/oUJBLeALBZrD7K87AAAV0hfGhdBFbIEnQICI9I/?a=7073&bti=OTU0QDItLmA%3D&ch=0&cr=0&dr=4&er=0&lr=unwatermarked&cd=0%7C0%7C0%7C0&br=312&bt=156&ds=5&ft=.cwOVInz7ThmDGvOXq8Zmo&qs=13&rc=amhxang5cjtzdjUzNzhoM0Bpamhxang5cjtzdjUzNzhoM0BkcS8vMmRjMGpgLS1kLjZzYSNkcS8vMmRjMGpgLS1kLjZzcw%3D%3D&vvpl=1&l=02173103962103400000000000000000000ffff0a00afb97d90e8&btag=e00070000&format=mp3&mime_type=audio_mpeg",
        "source_timerange": {
            "start_offset": 1.5060000000000286,
            "end_offset": 3.0119999999999427
        },
        "target_timerange": {
            "start_offset": 510.23400000000004,
            "end_offset": 511.74
        },
        "ignore_audio": true,
        "audio_path": null
    },
    {
        "segment_id": "da479aae9d8811efbee9b8cef68aba34",
        "text": "it; but when the living fell,",
        "audio_url": "https://v16m-default.akamaized.net/c9ec339b5b9039395f88dd155e72d7d1/672de608/video/tos/maliva/tos-maliva-v-f15faa-us/oUJBLeALBZrD7K87AAAV0hfGhdBFbIEnQICI9I/?a=7073&bti=OTU0QDItLmA%3D&ch=0&cr=0&dr=4&er=0&lr=unwatermarked&cd=0%7C0%7C0%7C0&br=312&bt=156&ds=5&ft=.cwOVInz7ThmDGvOXq8Zmo&qs=13&rc=amhxang5cjtzdjUzNzhoM0Bpamhxang5cjtzdjUzNzhoM0BkcS8vMmRjMGpgLS1kLjZzYSNkcS8vMmRjMGpgLS1kLjZzcw%3D%3D&vvpl=1&l=02173103962103400000000000000000000ffff0a00afb97d90e8&btag=e00070000&format=mp3&mime_type=audio_mpeg",
        "source_timerange": {
            "start_offset": 3.0120000000000005,
            "end_offset": 4.518000000000028
        },
        "target_timerange": {
            "start_offset": 511.74,
            "end_offset": 513.2460000000001
        },
        "ignore_audio": true,
        "audio_path": null
    },
    {
        "segment_id": "da479c2a9d8811efbee9b8cef68aba34",
        "text": "it was given elsewhere.”",
        "audio_url": "https://v16m-default.akamaized.net/c9ec339b5b9039395f88dd155e72d7d1/672de608/video/tos/maliva/tos-maliva-v-f15faa-us/oUJBLeALBZrD7K87AAAV0hfGhdBFbIEnQICI9I/?a=7073&bti=OTU0QDItLmA%3D&ch=0&cr=0&dr=4&er=0&lr=unwatermarked&cd=0%7C0%7C0%7C0&br=312&bt=156&ds=5&ft=.cwOVInz7ThmDGvOXq8Zmo&qs=13&rc=amhxang5cjtzdjUzNzhoM0Bpamhxang5cjtzdjUzNzhoM0BkcS8vMmRjMGpgLS1kLjZzYSNkcS8vMmRjMGpgLS1kLjZzcw%3D%3D&vvpl=1&l=02173103962103400000000000000000000ffff0a00afb97d90e8&btag=e00070000&format=mp3&mime_type=audio_mpeg",
        "source_timerange": {
            "start_offset": 4.518000000000086,
            "end_offset": 6.024
        },
        "target_timerange": {
            "start_offset": 513.2460000000001,
            "end_offset": 514.7520000000001
        },
        "ignore_audio": true,
        "audio_path": null
    },
    {
        "segment_id": "da47b1a69d8811efbee9b8cef68aba34",
        "text": "“Good heavens!” cried",
        "audio_url": "https://v16m-default.akamaized.net/06c423db6289cf18f22df44db95b467f/672de605/video/tos/maliva/tos-maliva-v-f15faa-us/oYFAgwazkiQAAqsEjktfAiklABbFLsEwLk6mao/?a=7073&bti=OTU0QDItLmA%3D&ch=0&cr=0&dr=4&er=0&lr=unwatermarked&cd=0%7C0%7C0%7C0&br=312&bt=156&ds=5&ft=.cwOVInz7ThmDGvOXq8Zmo&qs=13&rc=M2V1cGo5cjtzdjUzNzhoM0BpM2V1cGo5cjtzdjUzNzhoM0BmaGgyMmRjMGpgLS1kLjZzYSNmaGgyMmRjMGpgLS1kLjZzcw%3D%3D&vvpl=1&l=02173103962103400000000000000000000ffff0a00afb97d90e8&btag=e00070000&format=mp3&mime_type=audio_mpeg",
        "source_timerange": {
            "start_offset": 0,
            "end_offset": 1.2880000000000917
        },
        "target_timerange": {
            "start_offset": 514.7520000000001,
            "end_offset": 516.0400000000001
        },
        "ignore_audio": false,
        "audio_path": null
    },
    {
        "segment_id": "da47b3549d8811efbee9b8cef68aba34",
        "text": "Elizabeth; “but how",
        "audio_url": "https://v16m-default.akamaized.net/06c423db6289cf18f22df44db95b467f/672de605/video/tos/maliva/tos-maliva-v-f15faa-us/oYFAgwazkiQAAqsEjktfAiklABbFLsEwLk6mao/?a=7073&bti=OTU0QDItLmA%3D&ch=0&cr=0&dr=4&er=0&lr=unwatermarked&cd=0%7C0%7C0%7C0&br=312&bt=156&ds=5&ft=.cwOVInz7ThmDGvOXq8Zmo&qs=13&rc=M2V1cGo5cjtzdjUzNzhoM0BpM2V1cGo5cjtzdjUzNzhoM0BmaGgyMmRjMGpgLS1kLjZzYSNmaGgyMmRjMGpgLS1kLjZzcw%3D%3D&vvpl=1&l=02173103962103400000000000000000000ffff0a00afb97d90e8&btag=e00070000&format=mp3&mime_type=audio_mpeg",
        "source_timerange": {
            "start_offset": 1.288000000000011,
            "end_offset": 2.575999999999989
        },
        "target_timerange": {
            "start_offset": 516.0400000000001,
            "end_offset": 517.328
        },
        "ignore_audio": true,
        "audio_path": null
    },
    {
        "segment_id": "da47b4a89d8811efbee9b8cef68aba34",
        "text": "could _that_ be?",
        "audio_url": "https://v16m-default.akamaized.net/06c423db6289cf18f22df44db95b467f/672de605/video/tos/maliva/tos-maliva-v-f15faa-us/oYFAgwazkiQAAqsEjktfAiklABbFLsEwLk6mao/?a=7073&bti=OTU0QDItLmA%3D&ch=0&cr=0&dr=4&er=0&lr=unwatermarked&cd=0%7C0%7C0%7C0&br=312&bt=156&ds=5&ft=.cwOVInz7ThmDGvOXq8Zmo&qs=13&rc=M2V1cGo5cjtzdjUzNzhoM0BpM2V1cGo5cjtzdjUzNzhoM0BmaGgyMmRjMGpgLS1kLjZzYSNmaGgyMmRjMGpgLS1kLjZzcw%3D%3D&vvpl=1&l=02173103962103400000000000000000000ffff0a00afb97d90e8&btag=e00070000&format=mp3&mime_type=audio_mpeg",
        "source_timerange": {
            "start_offset": 2.575999999999908,
            "end_offset": 3.864
        },
        "target_timerange": {
            "start_offset": 517.328,
            "end_offset": 518.616
        },
        "ignore_audio": true,
        "audio_path": null
    },
    {
        "segment_id": "da47bdcc9d8811efbee9b8cef68aba34",
        "text": "How could his will be disregarded?",
        "audio_url": "https://v16m-default.akamaized.net/85d169629fcdcd375a3bdf647c9cdd29/672de603/video/tos/maliva/tos-maliva-v-f15faa-us/ocCaAOyCibNIChLrqeEAlEXSfkgeCDAtAAWEaG/?a=7073&bti=OTU0QDItLmA%3D&ch=0&cr=0&dr=4&er=0&lr=unwatermarked&cd=0%7C0%7C0%7C0&br=312&bt=156&ds=5&ft=.cwOVInz7ThmDGvOXq8Zmo&qs=13&rc=M3h4PGo5cjtzdjUzNzhoM0BpM3h4PGo5cjtzdjUzNzhoM0Aub2kxMmRjMGpgLS1kLjZzYSMub2kxMmRjMGpgLS1kLjZzcw%3D%3D&vvpl=1&l=02173103962103400000000000000000000ffff0a00afb97d90e8&btag=e00070000&format=mp3&mime_type=audio_mpeg",
        "source_timerange": {
            "start_offset": 0,
            "end_offset": 1.824
        },
        "target_timerange": {
            "start_offset": 518.616,
            "end_offset": 520.44
        },
        "ignore_audio": false,
        "audio_path": null
    },
    {
        "segment_id": "da47dfdc9d8811efbee9b8cef68aba34",
        "text": "Why did not you seek legal",
        "audio_url": "https://v16m-default.akamaized.net/210549b862469f23d9e72de7891b8f48/672de609/video/tos/maliva/tos-maliva-v-f15faa-us/ocAtAA45YSvVoyui2sars7UkBAEZQiqRY4JCE/?a=7073&bti=OTU0QDItLmA%3D&ch=0&cr=0&dr=4&er=0&lr=unwatermarked&cd=0%7C0%7C0%7C0&br=312&bt=156&ds=5&ft=.cwOVInz7ThmDGvOXq8Zmo&qs=13&rc=anVlZXI5cjtzdjUzNzhoM0BpanVlZXI5cjtzdjUzNzhoM0BpZzJqMmRrMGpgLS1kLjZzYSNpZzJqMmRrMGpgLS1kLjZzcw%3D%3D&vvpl=1&l=02173103962103400000000000000000000ffff0a00afb97d90e8&btag=e00070000&format=mp3&mime_type=audio_mpeg",
        "source_timerange": {
            "start_offset": 0,
            "end_offset": 1.5648000000000355
        },
        "target_timerange": {
            "start_offset": 520.44,
            "end_offset": 522.0048
        },
        "ignore_audio": false,
        "audio_path": null
    },
    {
        "segment_id": "da47e19e9d8811efbee9b8cef68aba34",
        "text": "redress?”  “There was just",
        "audio_url": "https://v16m-default.akamaized.net/210549b862469f23d9e72de7891b8f48/672de609/video/tos/maliva/tos-maliva-v-f15faa-us/ocAtAA45YSvVoyui2sars7UkBAEZQiqRY4JCE/?a=7073&bti=OTU0QDItLmA%3D&ch=0&cr=0&dr=4&er=0&lr=unwatermarked&cd=0%7C0%7C0%7C0&br=312&bt=156&ds=5&ft=.cwOVInz7ThmDGvOXq8Zmo&qs=13&rc=anVlZXI5cjtzdjUzNzhoM0BpanVlZXI5cjtzdjUzNzhoM0BpZzJqMmRrMGpgLS1kLjZzYSNpZzJqMmRrMGpgLS1kLjZzcw%3D%3D&vvpl=1&l=02173103962103400000000000000000000ffff0a00afb97d90e8&btag=e00070000&format=mp3&mime_type=audio_mpeg",
        "source_timerange": {
            "start_offset": 1.564799999999991,
            "end_offset": 3.1296000000000266
        },
        "target_timerange": {
            "start_offset": 522.0048,
            "end_offset": 523.5696
        },
        "ignore_audio": true,
        "audio_path": null
    },
    {
        "segment_id": "da47e2de9d8811efbee9b8cef68aba34",
        "text": "such an informality in the",
        "audio_url": "https://v16m-default.akamaized.net/210549b862469f23d9e72de7891b8f48/672de609/video/tos/maliva/tos-maliva-v-f15faa-us/ocAtAA45YSvVoyui2sars7UkBAEZQiqRY4JCE/?a=7073&bti=OTU0QDItLmA%3D&ch=0&cr=0&dr=4&er=0&lr=unwatermarked&cd=0%7C0%7C0%7C0&br=312&bt=156&ds=5&ft=.cwOVInz7ThmDGvOXq8Zmo&qs=13&rc=anVlZXI5cjtzdjUzNzhoM0BpanVlZXI5cjtzdjUzNzhoM0BpZzJqMmRrMGpgLS1kLjZzYSNpZzJqMmRrMGpgLS1kLjZzcw%3D%3D&vvpl=1&l=02173103962103400000000000000000000ffff0a00afb97d90e8&btag=e00070000&format=mp3&mime_type=audio_mpeg",
        "source_timerange": {
            "start_offset": 3.129599999999982,
            "end_offset": 4.694400000000018
        },
        "target_timerange": {
            "start_offset": 523.5696,
            "end_offset": 525.1344
        },
        "ignore_audio": true,
        "audio_path": null
    },
    {
        "segment_id": "da47e4509d8811efbee9b8cef68aba34",
        "text": "terms of the bequest as to",
        "audio_url": "https://v16m-default.akamaized.net/210549b862469f23d9e72de7891b8f48/672de609/video/tos/maliva/tos-maliva-v-f15faa-us/ocAtAA45YSvVoyui2sars7UkBAEZQiqRY4JCE/?a=7073&bti=OTU0QDItLmA%3D&ch=0&cr=0&dr=4&er=0&lr=unwatermarked&cd=0%7C0%7C0%7C0&br=312&bt=156&ds=5&ft=.cwOVInz7ThmDGvOXq8Zmo&qs=13&rc=anVlZXI5cjtzdjUzNzhoM0BpanVlZXI5cjtzdjUzNzhoM0BpZzJqMmRrMGpgLS1kLjZzYSNpZzJqMmRrMGpgLS1kLjZzcw%3D%3D&vvpl=1&l=02173103962103400000000000000000000ffff0a00afb97d90e8&btag=e00070000&format=mp3&mime_type=audio_mpeg",
        "source_timerange": {
            "start_offset": 4.694399999999973,
            "end_offset": 6.259200000000009
        },
        "target_timerange": {
            "start_offset": 525.1344,
            "end_offset": 526.6992
        },
        "ignore_audio": true,
        "audio_path": null
    },
    {
        "segment_id": "da47e5c29d8811efbee9b8cef68aba34",
        "text": "give me no hope from law.",
        "audio_url": "https://v16m-default.akamaized.net/210549b862469f23d9e72de7891b8f48/672de609/video/tos/maliva/tos-maliva-v-f15faa-us/ocAtAA45YSvVoyui2sars7UkBAEZQiqRY4JCE/?a=7073&bti=OTU0QDItLmA%3D&ch=0&cr=0&dr=4&er=0&lr=unwatermarked&cd=0%7C0%7C0%7C0&br=312&bt=156&ds=5&ft=.cwOVInz7ThmDGvOXq8Zmo&qs=13&rc=anVlZXI5cjtzdjUzNzhoM0BpanVlZXI5cjtzdjUzNzhoM0BpZzJqMmRrMGpgLS1kLjZzYSNpZzJqMmRrMGpgLS1kLjZzcw%3D%3D&vvpl=1&l=02173103962103400000000000000000000ffff0a00afb97d90e8&btag=e00070000&format=mp3&mime_type=audio_mpeg",
        "source_timerange": {
            "start_offset": 6.259199999999964,
            "end_offset": 7.824
        },
        "target_timerange": {
            "start_offset": 526.6992,
            "end_offset": 528.264
        },
        "ignore_audio": true,
        "audio_path": null
    },
    {
        "segment_id": "da481c729d8811efbee9b8cef68aba34",
        "text": "A man of honour could not",
        "audio_url": "https://v16m-default.akamaized.net/e642acc85aeda17633165322398f3fa7/672de610/video/tos/maliva/tos-maliva-v-f15faa-us/oMA4yBCAJJiAPEyhVKQRoAK4ZtEvzURa2kiSH/?a=7073&bti=OTU0QDItLmA%3D&ch=0&cr=0&dr=4&er=0&lr=unwatermarked&cd=0%7C0%7C0%7C0&br=312&bt=156&ds=5&ft=.cwOVInz7ThmDGvOXq8Zmo&qs=13&rc=anI6cmw5cjtzdjUzNzhoM0BpanI6cmw5cjtzdjUzNzhoM0AxNDYwMmRrMGpgLS1kLjZzYSMxNDYwMmRrMGpgLS1kLjZzcw%3D%3D&vvpl=1&l=02173103962103400000000000000000000ffff0a00afb97d90e8&btag=e00078000&format=mp3&mime_type=audio_mpeg",
        "source_timerange": {
            "start_offset": 0,
            "end_offset": 1.487999999999948
        },
        "target_timerange": {
            "start_offset": 528.264,
            "end_offset": 529.752
        },
        "ignore_audio": false,
        "audio_path": null
    },
    {
        "segment_id": "da481e169d8811efbee9b8cef68aba34",
        "text": "have doubted the intention,",
        "audio_url": "https://v16m-default.akamaized.net/e642acc85aeda17633165322398f3fa7/672de610/video/tos/maliva/tos-maliva-v-f15faa-us/oMA4yBCAJJiAPEyhVKQRoAK4ZtEvzURa2kiSH/?a=7073&bti=OTU0QDItLmA%3D&ch=0&cr=0&dr=4&er=0&lr=unwatermarked&cd=0%7C0%7C0%7C0&br=312&bt=156&ds=5&ft=.cwOVInz7ThmDGvOXq8Zmo&qs=13&rc=anI6cmw5cjtzdjUzNzhoM0BpanI6cmw5cjtzdjUzNzhoM0AxNDYwMmRrMGpgLS1kLjZzYSMxNDYwMmRrMGpgLS1kLjZzcw%3D%3D&vvpl=1&l=02173103962103400000000000000000000ffff0a00afb97d90e8&btag=e00078000&format=mp3&mime_type=audio_mpeg",
        "source_timerange": {
            "start_offset": 1.4879999999999427,
            "end_offset": 2.9760000000000044
        },
        "target_timerange": {
            "start_offset": 529.752,
            "end_offset": 531.24
        },
        "ignore_audio": true,
        "audio_path": null
    },
    {
        "segment_id": "da481fa69d8811efbee9b8cef68aba34",
        "text": "but Mr. Darcy chose to doubt",
        "audio_url": "https://v16m-default.akamaized.net/e642acc85aeda17633165322398f3fa7/672de610/video/tos/maliva/tos-maliva-v-f15faa-us/oMA4yBCAJJiAPEyhVKQRoAK4ZtEvzURa2kiSH/?a=7073&bti=OTU0QDItLmA%3D&ch=0&cr=0&dr=4&er=0&lr=unwatermarked&cd=0%7C0%7C0%7C0&br=312&bt=156&ds=5&ft=.cwOVInz7ThmDGvOXq8Zmo&qs=13&rc=anI6cmw5cjtzdjUzNzhoM0BpanI6cmw5cjtzdjUzNzhoM0AxNDYwMmRrMGpgLS1kLjZzYSMxNDYwMmRrMGpgLS1kLjZzcw%3D%3D&vvpl=1&l=02173103962103400000000000000000000ffff0a00afb97d90e8&btag=e00078000&format=mp3&mime_type=audio_mpeg",
        "source_timerange": {
            "start_offset": 2.975999999999999,
            "end_offset": 4.464000000000061
        },
        "target_timerange": {
            "start_offset": 531.24,
            "end_offset": 532.7280000000001
        },
        "ignore_audio": true,
        "audio_path": null
    },
    {
        "segment_id": "da4821189d8811efbee9b8cef68aba34",
        "text": "it--or to treat it as a",
        "audio_url": "https://v16m-default.akamaized.net/e642acc85aeda17633165322398f3fa7/672de610/video/tos/maliva/tos-maliva-v-f15faa-us/oMA4yBCAJJiAPEyhVKQRoAK4ZtEvzURa2kiSH/?a=7073&bti=OTU0QDItLmA%3D&ch=0&cr=0&dr=4&er=0&lr=unwatermarked&cd=0%7C0%7C0%7C0&br=312&bt=156&ds=5&ft=.cwOVInz7ThmDGvOXq8Zmo&qs=13&rc=anI6cmw5cjtzdjUzNzhoM0BpanI6cmw5cjtzdjUzNzhoM0AxNDYwMmRrMGpgLS1kLjZzYSMxNDYwMmRrMGpgLS1kLjZzcw%3D%3D&vvpl=1&l=02173103962103400000000000000000000ffff0a00afb97d90e8&btag=e00078000&format=mp3&mime_type=audio_mpeg",
        "source_timerange": {
            "start_offset": 4.4640000000000555,
            "end_offset": 5.9520000000000035
        },
        "target_timerange": {
            "start_offset": 532.7280000000001,
            "end_offset": 534.216
        },
        "ignore_audio": true,
        "audio_path": null
    },
    {
        "segment_id": "da48229e9d8811efbee9b8cef68aba34",
        "text": "merely conditional",
        "audio_url": "https://v16m-default.akamaized.net/e642acc85aeda17633165322398f3fa7/672de610/video/tos/maliva/tos-maliva-v-f15faa-us/oMA4yBCAJJiAPEyhVKQRoAK4ZtEvzURa2kiSH/?a=7073&bti=OTU0QDItLmA%3D&ch=0&cr=0&dr=4&er=0&lr=unwatermarked&cd=0%7C0%7C0%7C0&br=312&bt=156&ds=5&ft=.cwOVInz7ThmDGvOXq8Zmo&qs=13&rc=anI6cmw5cjtzdjUzNzhoM0BpanI6cmw5cjtzdjUzNzhoM0AxNDYwMmRrMGpgLS1kLjZzYSMxNDYwMmRrMGpgLS1kLjZzcw%3D%3D&vvpl=1&l=02173103962103400000000000000000000ffff0a00afb97d90e8&btag=e00078000&format=mp3&mime_type=audio_mpeg",
        "source_timerange": {
            "start_offset": 5.951999999999998,
            "end_offset": 7.439999999999946
        },
        "target_timerange": {
            "start_offset": 534.216,
            "end_offset": 535.704
        },
        "ignore_audio": true,
        "audio_path": null
    },
    {
        "segment_id": "da4824429d8811efbee9b8cef68aba34",
        "text": "recommendation, and to",
        "audio_url": "https://v16m-default.akamaized.net/e642acc85aeda17633165322398f3fa7/672de610/video/tos/maliva/tos-maliva-v-f15faa-us/oMA4yBCAJJiAPEyhVKQRoAK4ZtEvzURa2kiSH/?a=7073&bti=OTU0QDItLmA%3D&ch=0&cr=0&dr=4&er=0&lr=unwatermarked&cd=0%7C0%7C0%7C0&br=312&bt=156&ds=5&ft=.cwOVInz7ThmDGvOXq8Zmo&qs=13&rc=anI6cmw5cjtzdjUzNzhoM0BpanI6cmw5cjtzdjUzNzhoM0AxNDYwMmRrMGpgLS1kLjZzYSMxNDYwMmRrMGpgLS1kLjZzcw%3D%3D&vvpl=1&l=02173103962103400000000000000000000ffff0a00afb97d90e8&btag=e00078000&format=mp3&mime_type=audio_mpeg",
        "source_timerange": {
            "start_offset": 7.439999999999941,
            "end_offset": 8.928000000000003
        },
        "target_timerange": {
            "start_offset": 535.704,
            "end_offset": 537.192
        },
        "ignore_audio": true,
        "audio_path": null
    },
    {
        "segment_id": "da48256e9d8811efbee9b8cef68aba34",
        "text": "assert that I had forfeited",
        "audio_url": "https://v16m-default.akamaized.net/e642acc85aeda17633165322398f3fa7/672de610/video/tos/maliva/tos-maliva-v-f15faa-us/oMA4yBCAJJiAPEyhVKQRoAK4ZtEvzURa2kiSH/?a=7073&bti=OTU0QDItLmA%3D&ch=0&cr=0&dr=4&er=0&lr=unwatermarked&cd=0%7C0%7C0%7C0&br=312&bt=156&ds=5&ft=.cwOVInz7ThmDGvOXq8Zmo&qs=13&rc=anI6cmw5cjtzdjUzNzhoM0BpanI6cmw5cjtzdjUzNzhoM0AxNDYwMmRrMGpgLS1kLjZzYSMxNDYwMmRrMGpgLS1kLjZzcw%3D%3D&vvpl=1&l=02173103962103400000000000000000000ffff0a00afb97d90e8&btag=e00078000&format=mp3&mime_type=audio_mpeg",
        "source_timerange": {
            "start_offset": 8.927999999999997,
            "end_offset": 10.416000000000059
        },
        "target_timerange": {
            "start_offset": 537.192,
            "end_offset": 538.6800000000001
        },
        "ignore_audio": true,
        "audio_path": null
    },
    {
        "segment_id": "da48267c9d8811efbee9b8cef68aba34",
        "text": "all claim to it by",
        "audio_url": "https://v16m-default.akamaized.net/e642acc85aeda17633165322398f3fa7/672de610/video/tos/maliva/tos-maliva-v-f15faa-us/oMA4yBCAJJiAPEyhVKQRoAK4ZtEvzURa2kiSH/?a=7073&bti=OTU0QDItLmA%3D&ch=0&cr=0&dr=4&er=0&lr=unwatermarked&cd=0%7C0%7C0%7C0&br=312&bt=156&ds=5&ft=.cwOVInz7ThmDGvOXq8Zmo&qs=13&rc=anI6cmw5cjtzdjUzNzhoM0BpanI6cmw5cjtzdjUzNzhoM0AxNDYwMmRrMGpgLS1kLjZzYSMxNDYwMmRrMGpgLS1kLjZzcw%3D%3D&vvpl=1&l=02173103962103400000000000000000000ffff0a00afb97d90e8&btag=e00078000&format=mp3&mime_type=audio_mpeg",
        "source_timerange": {
            "start_offset": 10.416000000000054,
            "end_offset": 11.904000000000002
        },
        "target_timerange": {
            "start_offset": 538.6800000000001,
            "end_offset": 540.168
        },
        "ignore_audio": true,
        "audio_path": null
    },
    {
        "segment_id": "da4827769d8811efbee9b8cef68aba34",
        "text": "extravagance, imprudence, in",
        "audio_url": "https://v16m-default.akamaized.net/e642acc85aeda17633165322398f3fa7/672de610/video/tos/maliva/tos-maliva-v-f15faa-us/oMA4yBCAJJiAPEyhVKQRoAK4ZtEvzURa2kiSH/?a=7073&bti=OTU0QDItLmA%3D&ch=0&cr=0&dr=4&er=0&lr=unwatermarked&cd=0%7C0%7C0%7C0&br=312&bt=156&ds=5&ft=.cwOVInz7ThmDGvOXq8Zmo&qs=13&rc=anI6cmw5cjtzdjUzNzhoM0BpanI6cmw5cjtzdjUzNzhoM0AxNDYwMmRrMGpgLS1kLjZzYSMxNDYwMmRrMGpgLS1kLjZzcw%3D%3D&vvpl=1&l=02173103962103400000000000000000000ffff0a00afb97d90e8&btag=e00078000&format=mp3&mime_type=audio_mpeg",
        "source_timerange": {
            "start_offset": 11.903999999999996,
            "end_offset": 13.391999999999944
        },
        "target_timerange": {
            "start_offset": 540.168,
            "end_offset": 541.656
        },
        "ignore_audio": true,
        "audio_path": null
    },
    {
        "segment_id": "da4828d49d8811efbee9b8cef68aba34",
        "text": "short, anything or nothing.",
        "audio_url": "https://v16m-default.akamaized.net/e642acc85aeda17633165322398f3fa7/672de610/video/tos/maliva/tos-maliva-v-f15faa-us/oMA4yBCAJJiAPEyhVKQRoAK4ZtEvzURa2kiSH/?a=7073&bti=OTU0QDItLmA%3D&ch=0&cr=0&dr=4&er=0&lr=unwatermarked&cd=0%7C0%7C0%7C0&br=312&bt=156&ds=5&ft=.cwOVInz7ThmDGvOXq8Zmo&qs=13&rc=anI6cmw5cjtzdjUzNzhoM0BpanI6cmw5cjtzdjUzNzhoM0AxNDYwMmRrMGpgLS1kLjZzYSMxNDYwMmRrMGpgLS1kLjZzcw%3D%3D&vvpl=1&l=02173103962103400000000000000000000ffff0a00afb97d90e8&btag=e00078000&format=mp3&mime_type=audio_mpeg",
        "source_timerange": {
            "start_offset": 13.391999999999939,
            "end_offset": 14.88
        },
        "target_timerange": {
            "start_offset": 541.656,
            "end_offset": 543.144
        },
        "ignore_audio": true,
        "audio_path": null
    },
    {
        "segment_id": "da4864d49d8811efbee9b8cef68aba34",
        "text": "Certain it is that the",
        "audio_url": "https://v16m-default.akamaized.net/63d14e2d305f688c6a8aa6d85f8fc61a/672de610/video/tos/maliva/tos-maliva-v-f15faa-us/oMEZtykAiv8i2JBEC3qjQV4ARUloAoosVaZAS/?a=7073&bti=OTU0QDItLmA%3D&ch=0&cr=0&dr=4&er=0&lr=unwatermarked&cd=0%7C0%7C0%7C0&br=312&bt=156&ds=5&ft=.cwOVInz7ThmDGvOXq8Zmo&qs=13&rc=ajg8ZXE5cjtzdjUzNzhoM0Bpajg8ZXE5cjtzdjUzNzhoM0BlZzJoMmRrMGpgLS1kLjZzYSNlZzJoMmRrMGpgLS1kLjZzcw%3D%3D&vvpl=1&l=02173103962103400000000000000000000ffff0a00afb97d90e8&btag=e00070000&format=mp3&mime_type=audio_mpeg",
        "source_timerange": {
            "start_offset": 0,
            "end_offset": 1.4448000000000079
        },
        "target_timerange": {
            "start_offset": 543.144,
            "end_offset": 544.5888
        },
        "ignore_audio": false,
        "audio_path": null
    },
    {
        "segment_id": "da4866c89d8811efbee9b8cef68aba34",
        "text": "living became vacant two",
        "audio_url": "https://v16m-default.akamaized.net/63d14e2d305f688c6a8aa6d85f8fc61a/672de610/video/tos/maliva/tos-maliva-v-f15faa-us/oMEZtykAiv8i2JBEC3qjQV4ARUloAoosVaZAS/?a=7073&bti=OTU0QDItLmA%3D&ch=0&cr=0&dr=4&er=0&lr=unwatermarked&cd=0%7C0%7C0%7C0&br=312&bt=156&ds=5&ft=.cwOVInz7ThmDGvOXq8Zmo&qs=13&rc=ajg8ZXE5cjtzdjUzNzhoM0Bpajg8ZXE5cjtzdjUzNzhoM0BlZzJoMmRrMGpgLS1kLjZzYSNlZzJoMmRrMGpgLS1kLjZzcw%3D%3D&vvpl=1&l=02173103962103400000000000000000000ffff0a00afb97d90e8&btag=e00070000&format=mp3&mime_type=audio_mpeg",
        "source_timerange": {
            "start_offset": 1.4447999999999865,
            "end_offset": 2.8895999999999944
        },
        "target_timerange": {
            "start_offset": 544.5888,
            "end_offset": 546.0336
        },
        "ignore_audio": true,
        "audio_path": null
    },
    {
        "segment_id": "da4867fe9d8811efbee9b8cef68aba34",
        "text": "years ago, exactly as I was",
        "audio_url": "https://v16m-default.akamaized.net/63d14e2d305f688c6a8aa6d85f8fc61a/672de610/video/tos/maliva/tos-maliva-v-f15faa-us/oMEZtykAiv8i2JBEC3qjQV4ARUloAoosVaZAS/?a=7073&bti=OTU0QDItLmA%3D&ch=0&cr=0&dr=4&er=0&lr=unwatermarked&cd=0%7C0%7C0%7C0&br=312&bt=156&ds=5&ft=.cwOVInz7ThmDGvOXq8Zmo&qs=13&rc=ajg8ZXE5cjtzdjUzNzhoM0Bpajg8ZXE5cjtzdjUzNzhoM0BlZzJoMmRrMGpgLS1kLjZzYSNlZzJoMmRrMGpgLS1kLjZzcw%3D%3D&vvpl=1&l=02173103962103400000000000000000000ffff0a00afb97d90e8&btag=e00070000&format=mp3&mime_type=audio_mpeg",
        "source_timerange": {
            "start_offset": 2.889599999999973,
            "end_offset": 4.334399999999981
        },
        "target_timerange": {
            "start_offset": 546.0336,
            "end_offset": 547.4784
        },
        "ignore_audio": true,
        "audio_path": null
    },
    {
        "segment_id": "da48692a9d8811efbee9b8cef68aba34",
        "text": "of an age to hold it, and",
        "audio_url": "https://v16m-default.akamaized.net/63d14e2d305f688c6a8aa6d85f8fc61a/672de610/video/tos/maliva/tos-maliva-v-f15faa-us/oMEZtykAiv8i2JBEC3qjQV4ARUloAoosVaZAS/?a=7073&bti=OTU0QDItLmA%3D&ch=0&cr=0&dr=4&er=0&lr=unwatermarked&cd=0%7C0%7C0%7C0&br=312&bt=156&ds=5&ft=.cwOVInz7ThmDGvOXq8Zmo&qs=13&rc=ajg8ZXE5cjtzdjUzNzhoM0Bpajg8ZXE5cjtzdjUzNzhoM0BlZzJoMmRrMGpgLS1kLjZzYSNlZzJoMmRrMGpgLS1kLjZzcw%3D%3D&vvpl=1&l=02173103962103400000000000000000000ffff0a00afb97d90e8&btag=e00070000&format=mp3&mime_type=audio_mpeg",
        "source_timerange": {
            "start_offset": 4.33439999999996,
            "end_offset": 5.7791999999999675
        },
        "target_timerange": {
            "start_offset": 547.4784,
            "end_offset": 548.9232
        },
        "ignore_audio": true,
        "audio_path": null
    },
    {
        "segment_id": "da486a1a9d8811efbee9b8cef68aba34",
        "text": "that it was given to",
        "audio_url": "https://v16m-default.akamaized.net/63d14e2d305f688c6a8aa6d85f8fc61a/672de610/video/tos/maliva/tos-maliva-v-f15faa-us/oMEZtykAiv8i2JBEC3qjQV4ARUloAoosVaZAS/?a=7073&bti=OTU0QDItLmA%3D&ch=0&cr=0&dr=4&er=0&lr=unwatermarked&cd=0%7C0%7C0%7C0&br=312&bt=156&ds=5&ft=.cwOVInz7ThmDGvOXq8Zmo&qs=13&rc=ajg8ZXE5cjtzdjUzNzhoM0Bpajg8ZXE5cjtzdjUzNzhoM0BlZzJoMmRrMGpgLS1kLjZzYSNlZzJoMmRrMGpgLS1kLjZzcw%3D%3D&vvpl=1&l=02173103962103400000000000000000000ffff0a00afb97d90e8&btag=e00070000&format=mp3&mime_type=audio_mpeg",
        "source_timerange": {
            "start_offset": 5.779199999999946,
            "end_offset": 7.223999999999954
        },
        "target_timerange": {
            "start_offset": 548.9232,
            "end_offset": 550.3679999999999
        },
        "ignore_audio": true,
        "audio_path": null
    },
    {
        "segment_id": "da486b289d8811efbee9b8cef68aba34",
        "text": "another man; and no less",
        "audio_url": "https://v16m-default.akamaized.net/63d14e2d305f688c6a8aa6d85f8fc61a/672de610/video/tos/maliva/tos-maliva-v-f15faa-us/oMEZtykAiv8i2JBEC3qjQV4ARUloAoosVaZAS/?a=7073&bti=OTU0QDItLmA%3D&ch=0&cr=0&dr=4&er=0&lr=unwatermarked&cd=0%7C0%7C0%7C0&br=312&bt=156&ds=5&ft=.cwOVInz7ThmDGvOXq8Zmo&qs=13&rc=ajg8ZXE5cjtzdjUzNzhoM0Bpajg8ZXE5cjtzdjUzNzhoM0BlZzJoMmRrMGpgLS1kLjZzYSNlZzJoMmRrMGpgLS1kLjZzcw%3D%3D&vvpl=1&l=02173103962103400000000000000000000ffff0a00afb97d90e8&btag=e00070000&format=mp3&mime_type=audio_mpeg",
        "source_timerange": {
            "start_offset": 7.223999999999933,
            "end_offset": 8.668800000000054
        },
        "target_timerange": {
            "start_offset": 550.3679999999999,
            "end_offset": 551.8128
        },
        "ignore_audio": true,
        "audio_path": null
    },
    {
        "segment_id": "da486c909d8811efbee9b8cef68aba34",
        "text": "certain is it, that I",
        "audio_url": "https://v16m-default.akamaized.net/63d14e2d305f688c6a8aa6d85f8fc61a/672de610/video/tos/maliva/tos-maliva-v-f15faa-us/oMEZtykAiv8i2JBEC3qjQV4ARUloAoosVaZAS/?a=7073&bti=OTU0QDItLmA%3D&ch=0&cr=0&dr=4&er=0&lr=unwatermarked&cd=0%7C0%7C0%7C0&br=312&bt=156&ds=5&ft=.cwOVInz7ThmDGvOXq8Zmo&qs=13&rc=ajg8ZXE5cjtzdjUzNzhoM0Bpajg8ZXE5cjtzdjUzNzhoM0BlZzJoMmRrMGpgLS1kLjZzYSNlZzJoMmRrMGpgLS1kLjZzcw%3D%3D&vvpl=1&l=02173103962103400000000000000000000ffff0a00afb97d90e8&btag=e00070000&format=mp3&mime_type=audio_mpeg",
        "source_timerange": {
            "start_offset": 8.668800000000033,
            "end_offset": 10.11360000000004
        },
        "target_timerange": {
            "start_offset": 551.8128,
            "end_offset": 553.2576
        },
        "ignore_audio": true,
        "audio_path": null
    },
    {
        "segment_id": "da486df89d8811efbee9b8cef68aba34",
        "text": "cannot accuse myself of",
        "audio_url": "https://v16m-default.akamaized.net/63d14e2d305f688c6a8aa6d85f8fc61a/672de610/video/tos/maliva/tos-maliva-v-f15faa-us/oMEZtykAiv8i2JBEC3qjQV4ARUloAoosVaZAS/?a=7073&bti=OTU0QDItLmA%3D&ch=0&cr=0&dr=4&er=0&lr=unwatermarked&cd=0%7C0%7C0%7C0&br=312&bt=156&ds=5&ft=.cwOVInz7ThmDGvOXq8Zmo&qs=13&rc=ajg8ZXE5cjtzdjUzNzhoM0Bpajg8ZXE5cjtzdjUzNzhoM0BlZzJoMmRrMGpgLS1kLjZzYSNlZzJoMmRrMGpgLS1kLjZzcw%3D%3D&vvpl=1&l=02173103962103400000000000000000000ffff0a00afb97d90e8&btag=e00070000&format=mp3&mime_type=audio_mpeg",
        "source_timerange": {
            "start_offset": 10.11360000000002,
            "end_offset": 11.558400000000027
        },
        "target_timerange": {
            "start_offset": 553.2576,
            "end_offset": 554.7024
        },
        "ignore_audio": true,
        "audio_path": null
    },
    {
        "segment_id": "da486f569d8811efbee9b8cef68aba34",
        "text": "having really done anything",
        "audio_url": "https://v16m-default.akamaized.net/63d14e2d305f688c6a8aa6d85f8fc61a/672de610/video/tos/maliva/tos-maliva-v-f15faa-us/oMEZtykAiv8i2JBEC3qjQV4ARUloAoosVaZAS/?a=7073&bti=OTU0QDItLmA%3D&ch=0&cr=0&dr=4&er=0&lr=unwatermarked&cd=0%7C0%7C0%7C0&br=312&bt=156&ds=5&ft=.cwOVInz7ThmDGvOXq8Zmo&qs=13&rc=ajg8ZXE5cjtzdjUzNzhoM0Bpajg8ZXE5cjtzdjUzNzhoM0BlZzJoMmRrMGpgLS1kLjZzYSNlZzJoMmRrMGpgLS1kLjZzcw%3D%3D&vvpl=1&l=02173103962103400000000000000000000ffff0a00afb97d90e8&btag=e00070000&format=mp3&mime_type=audio_mpeg",
        "source_timerange": {
            "start_offset": 11.558400000000006,
            "end_offset": 13.003200000000014
        },
        "target_timerange": {
            "start_offset": 554.7024,
            "end_offset": 556.1472
        },
        "ignore_audio": true,
        "audio_path": null
    },
    {
        "segment_id": "da4870aa9d8811efbee9b8cef68aba34",
        "text": "to deserve to lose it.",
        "audio_url": "https://v16m-default.akamaized.net/63d14e2d305f688c6a8aa6d85f8fc61a/672de610/video/tos/maliva/tos-maliva-v-f15faa-us/oMEZtykAiv8i2JBEC3qjQV4ARUloAoosVaZAS/?a=7073&bti=OTU0QDItLmA%3D&ch=0&cr=0&dr=4&er=0&lr=unwatermarked&cd=0%7C0%7C0%7C0&br=312&bt=156&ds=5&ft=.cwOVInz7ThmDGvOXq8Zmo&qs=13&rc=ajg8ZXE5cjtzdjUzNzhoM0Bpajg8ZXE5cjtzdjUzNzhoM0BlZzJoMmRrMGpgLS1kLjZzYSNlZzJoMmRrMGpgLS1kLjZzcw%3D%3D&vvpl=1&l=02173103962103400000000000000000000ffff0a00afb97d90e8&btag=e00070000&format=mp3&mime_type=audio_mpeg",
        "source_timerange": {
            "start_offset": 13.003199999999993,
            "end_offset": 14.448
        },
        "target_timerange": {
            "start_offset": 556.1472,
            "end_offset": 557.592
        },
        "ignore_audio": true,
        "audio_path": null
    },
    {
        "segment_id": "da488f729d8811efbee9b8cef68aba34",
        "text": "I have a warm unguarded",
        "audio_url": "https://v16m-default.akamaized.net/5284e94cdfbc5ce1112fb81843c85bdd/672de608/video/tos/maliva/tos-maliva-v-f15faa-us/oMvauE4DoxAAAb2BAUQEkiSbdKtD6Z5VkRyCi/?a=7073&bti=OTU0QDItLmA%3D&ch=0&cr=0&dr=4&er=0&lr=unwatermarked&cd=0%7C0%7C0%7C0&br=312&bt=156&ds=5&ft=.cwOVInz7ThmDGvOXq8Zmo&qs=13&rc=MzZxeGs5cjtzdjUzNzhoM0BpMzZxeGs5cjtzdjUzNzhoM0BmaF9hMmRrMGpgLS1kLjZzYSNmaF9hMmRrMGpgLS1kLjZzcw%3D%3D&vvpl=1&l=02173103962103400000000000000000000ffff0a00afb97d90e8&btag=e00070000&format=mp3&mime_type=audio_mpeg",
        "source_timerange": {
            "start_offset": 0,
            "end_offset": 1.363199999999975
        },
        "target_timerange": {
            "start_offset": 557.592,
            "end_offset": 558.9552
        },
        "ignore_audio": false,
        "audio_path": null
    },
    {
        "segment_id": "da48913e9d8811efbee9b8cef68aba34",
        "text": "temper, and I may perhaps",
        "audio_url": "https://v16m-default.akamaized.net/5284e94cdfbc5ce1112fb81843c85bdd/672de608/video/tos/maliva/tos-maliva-v-f15faa-us/oMvauE4DoxAAAb2BAUQEkiSbdKtD6Z5VkRyCi/?a=7073&bti=OTU0QDItLmA%3D&ch=0&cr=0&dr=4&er=0&lr=unwatermarked&cd=0%7C0%7C0%7C0&br=312&bt=156&ds=5&ft=.cwOVInz7ThmDGvOXq8Zmo&qs=13&rc=MzZxeGs5cjtzdjUzNzhoM0BpMzZxeGs5cjtzdjUzNzhoM0BmaF9hMmRrMGpgLS1kLjZzYSNmaF9hMmRrMGpgLS1kLjZzcw%3D%3D&vvpl=1&l=02173103962103400000000000000000000ffff0a00afb97d90e8&btag=e00070000&format=mp3&mime_type=audio_mpeg",
        "source_timerange": {
            "start_offset": 1.3632000000000062,
            "end_offset": 2.7263999999999813
        },
        "target_timerange": {
            "start_offset": 558.9552,
            "end_offset": 560.3184
        },
        "ignore_audio": true,
        "audio_path": null
    },
    {
        "segment_id": "da4892b09d8811efbee9b8cef68aba34",
        "text": "have sometimes spoken my",
        "audio_url": "https://v16m-default.akamaized.net/5284e94cdfbc5ce1112fb81843c85bdd/672de608/video/tos/maliva/tos-maliva-v-f15faa-us/oMvauE4DoxAAAb2BAUQEkiSbdKtD6Z5VkRyCi/?a=7073&bti=OTU0QDItLmA%3D&ch=0&cr=0&dr=4&er=0&lr=unwatermarked&cd=0%7C0%7C0%7C0&br=312&bt=156&ds=5&ft=.cwOVInz7ThmDGvOXq8Zmo&qs=13&rc=MzZxeGs5cjtzdjUzNzhoM0BpMzZxeGs5cjtzdjUzNzhoM0BmaF9hMmRrMGpgLS1kLjZzYSNmaF9hMmRrMGpgLS1kLjZzcw%3D%3D&vvpl=1&l=02173103962103400000000000000000000ffff0a00afb97d90e8&btag=e00070000&format=mp3&mime_type=audio_mpeg",
        "source_timerange": {
            "start_offset": 2.7264000000000124,
            "end_offset": 4.0895999999999875
        },
        "target_timerange": {
            "start_offset": 560.3184,
            "end_offset": 561.6816
        },
        "ignore_audio": true,
        "audio_path": null
    },
    {
        "segment_id": "da4894189d8811efbee9b8cef68aba34",
        "text": "opinion _of_ him, and _to_",
        "audio_url": "https://v16m-default.akamaized.net/5284e94cdfbc5ce1112fb81843c85bdd/672de608/video/tos/maliva/tos-maliva-v-f15faa-us/oMvauE4DoxAAAb2BAUQEkiSbdKtD6Z5VkRyCi/?a=7073&bti=OTU0QDItLmA%3D&ch=0&cr=0&dr=4&er=0&lr=unwatermarked&cd=0%7C0%7C0%7C0&br=312&bt=156&ds=5&ft=.cwOVInz7ThmDGvOXq8Zmo&qs=13&rc=MzZxeGs5cjtzdjUzNzhoM0BpMzZxeGs5cjtzdjUzNzhoM0BmaF9hMmRrMGpgLS1kLjZzYSNmaF9hMmRrMGpgLS1kLjZzcw%3D%3D&vvpl=1&l=02173103962103400000000000000000000ffff0a00afb97d90e8&btag=e00070000&format=mp3&mime_type=audio_mpeg",
        "source_timerange": {
            "start_offset": 4.0896000000000186,
            "end_offset": 5.452799999999994
        },
        "target_timerange": {
            "start_offset": 561.6816,
            "end_offset": 563.0448
        },
        "ignore_audio": true,
        "audio_path": null
    },
    {
        "segment_id": "da4895769d8811efbee9b8cef68aba34",
        "text": "him, too freely.",
        "audio_url": "https://v16m-default.akamaized.net/5284e94cdfbc5ce1112fb81843c85bdd/672de608/video/tos/maliva/tos-maliva-v-f15faa-us/oMvauE4DoxAAAb2BAUQEkiSbdKtD6Z5VkRyCi/?a=7073&bti=OTU0QDItLmA%3D&ch=0&cr=0&dr=4&er=0&lr=unwatermarked&cd=0%7C0%7C0%7C0&br=312&bt=156&ds=5&ft=.cwOVInz7ThmDGvOXq8Zmo&qs=13&rc=MzZxeGs5cjtzdjUzNzhoM0BpMzZxeGs5cjtzdjUzNzhoM0BmaF9hMmRrMGpgLS1kLjZzYSNmaF9hMmRrMGpgLS1kLjZzcw%3D%3D&vvpl=1&l=02173103962103400000000000000000000ffff0a00afb97d90e8&btag=e00070000&format=mp3&mime_type=audio_mpeg",
        "source_timerange": {
            "start_offset": 5.452800000000025,
            "end_offset": 6.816
        },
        "target_timerange": {
            "start_offset": 563.0448,
            "end_offset": 564.408
        },
        "ignore_audio": true,
        "audio_path": null
    },
    {
        "segment_id": "da489e0e9d8811efbee9b8cef68aba34",
        "text": "I can recall nothing worse.",
        "audio_url": "https://v16m-default.akamaized.net/10943cdf3c1128e1eb0097efd8f18dec/672de603/video/tos/maliva/tos-maliva-v-f15faa-us/oMA4yBCAhDiAYE95VKQRoAp1ZtEvXURa2kiSl/?a=7073&bti=OTU0QDItLmA%3D&ch=0&cr=0&dr=4&er=0&lr=unwatermarked&cd=0%7C0%7C0%7C0&br=312&bt=156&ds=5&ft=.cwOVInz7ThmDGvOXq8Zmo&qs=13&rc=am9neHc5cjtzdjUzNzhoM0Bpam9neHc5cjtzdjUzNzhoM0BkYzVmMmRrMGpgLS1kLjZzYSNkYzVmMmRrMGpgLS1kLjZzcw%3D%3D&vvpl=1&l=02173103962103400000000000000000000ffff0a00afb97d90e8&btag=e00070000&format=mp3&mime_type=audio_mpeg",
        "source_timerange": {
            "start_offset": 0,
            "end_offset": 1.8
        },
        "target_timerange": {
            "start_offset": 564.408,
            "end_offset": 566.208
        },
        "ignore_audio": false,
        "audio_path": null
    },
    {
        "segment_id": "da48b1969d8811efbee9b8cef68aba34",
        "text": "But the fact is, that we are",
        "audio_url": "https://v16m-default.akamaized.net/56bf384ee366b43884ba738b556ac443/672de606/video/tos/maliva/tos-maliva-v-f15faa-us/okAATJEEEBQniwLf0kFJttAbMaGeShLCDBZVAp/?a=7073&bti=OTU0QDItLmA%3D&ch=0&cr=0&dr=4&er=0&lr=unwatermarked&cd=0%7C0%7C0%7C0&br=312&bt=156&ds=5&ft=.cwOVInz7ThmDGvOXq8Zmo&qs=13&rc=M21zcG45cjtzdjUzNzhoM0BpM21zcG45cjtzdjUzNzhoM0AzamdkMmRrMGpgLS1kLjZzYSMzamdkMmRrMGpgLS1kLjZzcw%3D%3D&vvpl=1&l=02173103962103400000000000000000000ffff0a00afb97d90e8&btag=e00070000&format=mp3&mime_type=audio_mpeg",
        "source_timerange": {
            "start_offset": 0,
            "end_offset": 1.495999999999925
        },
        "target_timerange": {
            "start_offset": 566.208,
            "end_offset": 567.704
        },
        "ignore_audio": false,
        "audio_path": null
    },
    {
        "segment_id": "da48b4029d8811efbee9b8cef68aba34",
        "text": "very different sort of men,",
        "audio_url": "https://v16m-default.akamaized.net/56bf384ee366b43884ba738b556ac443/672de606/video/tos/maliva/tos-maliva-v-f15faa-us/okAATJEEEBQniwLf0kFJttAbMaGeShLCDBZVAp/?a=7073&bti=OTU0QDItLmA%3D&ch=0&cr=0&dr=4&er=0&lr=unwatermarked&cd=0%7C0%7C0%7C0&br=312&bt=156&ds=5&ft=.cwOVInz7ThmDGvOXq8Zmo&qs=13&rc=M21zcG45cjtzdjUzNzhoM0BpM21zcG45cjtzdjUzNzhoM0AzamdkMmRrMGpgLS1kLjZzYSMzamdkMmRrMGpgLS1kLjZzcw%3D%3D&vvpl=1&l=02173103962103400000000000000000000ffff0a00afb97d90e8&btag=e00070000&format=mp3&mime_type=audio_mpeg",
        "source_timerange": {
            "start_offset": 1.495999999999981,
            "end_offset": 2.9920000000000195
        },
        "target_timerange": {
            "start_offset": 567.704,
            "end_offset": 569.2
        },
        "ignore_audio": true,
        "audio_path": null
    },
    {
        "segment_id": "da48b5609d8811efbee9b8cef68aba34",
        "text": "and that he hates me.”",
        "audio_url": "https://v16m-default.akamaized.net/56bf384ee366b43884ba738b556ac443/672de606/video/tos/maliva/tos-maliva-v-f15faa-us/okAATJEEEBQniwLf0kFJttAbMaGeShLCDBZVAp/?a=7073&bti=OTU0QDItLmA%3D&ch=0&cr=0&dr=4&er=0&lr=unwatermarked&cd=0%7C0%7C0%7C0&br=312&bt=156&ds=5&ft=.cwOVInz7ThmDGvOXq8Zmo&qs=13&rc=M21zcG45cjtzdjUzNzhoM0BpM21zcG45cjtzdjUzNzhoM0AzamdkMmRrMGpgLS1kLjZzYSMzamdkMmRrMGpgLS1kLjZzcw%3D%3D&vvpl=1&l=02173103962103400000000000000000000ffff0a00afb97d90e8&btag=e00070000&format=mp3&mime_type=audio_mpeg",
        "source_timerange": {
            "start_offset": 2.9920000000000755,
            "end_offset": 4.488
        },
        "target_timerange": {
            "start_offset": 569.2,
            "end_offset": 570.696
        },
        "ignore_audio": true,
        "audio_path": null
    },
    {
        "segment_id": "da48bdc69d8811efbee9b8cef68aba34",
        "text": "“This is quite shocking!",
        "audio_url": "https://v16m-default.akamaized.net/b4086002ccf61e2022de92c4cdcd58d9/672de603/video/tos/maliva/tos-maliva-v-f15faa-us/oIvAuiRE4QCtiUo4RgVaAZUkC7AyEKASiBv20/?a=7073&bti=OTU0QDItLmA%3D&ch=0&cr=0&dr=4&er=0&lr=unwatermarked&cd=0%7C0%7C0%7C0&br=312&bt=156&ds=5&ft=.cwOVInz7ThmDGvOXq8Zmo&qs=13&rc=ajN4M3U5cjtzdjUzNzhoM0BpajN4M3U5cjtzdjUzNzhoM0A1MmlwMmRrMGpgLS1kLjZzYSM1MmlwMmRrMGpgLS1kLjZzcw%3D%3D&vvpl=1&l=02173103962103400000000000000000000ffff0a00afb97d90e8&btag=e00070000&format=mp3&mime_type=audio_mpeg",
        "source_timerange": {
            "start_offset": 0,
            "end_offset": 1.584
        },
        "target_timerange": {
            "start_offset": 570.696,
            "end_offset": 572.28
        },
        "ignore_audio": false,
        "audio_path": null
    },
    {
        "segment_id": "da48cbe09d8811efbee9b8cef68aba34",
        "text": "He deserves to be",
        "audio_url": "https://v16m-default.akamaized.net/498e483b3454a0614ab6228e261957a6/672de604/video/tos/maliva/tos-maliva-v-f15faa-us/o0BA1VyiqRBoEn1AvZAAQK0AkaCtiES2soUv4/?a=7073&bti=OTU0QDItLmA%3D&ch=0&cr=0&dr=4&er=0&lr=unwatermarked&cd=0%7C0%7C0%7C0&br=312&bt=156&ds=5&ft=.cwOVInz7ThmDGvOXq8Zmo&qs=13&rc=M282c285cjtzdjUzNzhoM0BpM282c285cjtzdjUzNzhoM0BoNmxrMmRrMGpgLS1kLjZzYSNoNmxrMmRrMGpgLS1kLjZzcw%3D%3D&vvpl=1&l=02173103962103400000000000000000000ffff0a00afb97d90e8&btag=e00070000&format=mp3&mime_type=audio_mpeg",
        "source_timerange": {
            "start_offset": 0,
            "end_offset": 1.1880000000000117
        },
        "target_timerange": {
            "start_offset": 572.28,
            "end_offset": 573.4680000000001
        },
        "ignore_audio": false,
        "audio_path": null
    },
    {
        "segment_id": "da48cdfc9d8811efbee9b8cef68aba34",
        "text": "publicly disgraced.”",
        "audio_url": "https://v16m-default.akamaized.net/498e483b3454a0614ab6228e261957a6/672de604/video/tos/maliva/tos-maliva-v-f15faa-us/o0BA1VyiqRBoEn1AvZAAQK0AkaCtiES2soUv4/?a=7073&bti=OTU0QDItLmA%3D&ch=0&cr=0&dr=4&er=0&lr=unwatermarked&cd=0%7C0%7C0%7C0&br=312&bt=156&ds=5&ft=.cwOVInz7ThmDGvOXq8Zmo&qs=13&rc=M282c285cjtzdjUzNzhoM0BpM282c285cjtzdjUzNzhoM0BoNmxrMmRrMGpgLS1kLjZzYSNoNmxrMmRrMGpgLS1kLjZzcw%3D%3D&vvpl=1&l=02173103962103400000000000000000000ffff0a00afb97d90e8&btag=e00070000&format=mp3&mime_type=audio_mpeg",
        "source_timerange": {
            "start_offset": 1.1880000000001019,
            "end_offset": 2.376
        },
        "target_timerange": {
            "start_offset": 573.4680000000001,
            "end_offset": 574.6560000000001
        },
        "ignore_audio": true,
        "audio_path": null
    },
    {
        "segment_id": "da48dd9c9d8811efbee9b8cef68aba34",
        "text": "“Some time or other he _will_ be",
        "audio_url": "https://v16m-default.akamaized.net/37facaee9c10c6e48eaa62370f059c76/672de605/video/tos/maliva/tos-maliva-v-f15faa-us/o0AIkZIfDEAa3tuGLhFAJBViTBfznABEEOQUhL/?a=7073&bti=OTU0QDItLmA%3D&ch=0&cr=0&dr=4&er=0&lr=unwatermarked&cd=0%7C0%7C0%7C0&br=312&bt=156&ds=5&ft=.cwOVInz7ThmDGvOXq8Zmo&qs=13&rc=am01b3E5cjtzdjUzNzhoM0Bpam01b3E5cjtzdjUzNzhoM0BvLy5jMmRrMGpgLS1kLjZzYSNvLy5jMmRrMGpgLS1kLjZzcw%3D%3D&vvpl=1&l=02173103962103400000000000000000000ffff0a00afb97d90e8&btag=e00070000&format=mp3&mime_type=audio_mpeg",
        "source_timerange": {
            "start_offset": 0,
            "end_offset": 1.7280000000000482
        },
        "target_timerange": {
            "start_offset": 574.6560000000001,
            "end_offset": 576.384
        },
        "ignore_audio": false,
        "audio_path": null
    },
    {
        "segment_id": "da48df409d8811efbee9b8cef68aba34",
        "text": "--but it shall not be by _me_.",
        "audio_url": "https://v16m-default.akamaized.net/37facaee9c10c6e48eaa62370f059c76/672de605/video/tos/maliva/tos-maliva-v-f15faa-us/o0AIkZIfDEAa3tuGLhFAJBViTBfznABEEOQUhL/?a=7073&bti=OTU0QDItLmA%3D&ch=0&cr=0&dr=4&er=0&lr=unwatermarked&cd=0%7C0%7C0%7C0&br=312&bt=156&ds=5&ft=.cwOVInz7ThmDGvOXq8Zmo&qs=13&rc=am01b3E5cjtzdjUzNzhoM0Bpam01b3E5cjtzdjUzNzhoM0BvLy5jMmRrMGpgLS1kLjZzYSNvLy5jMmRrMGpgLS1kLjZzcw%3D%3D&vvpl=1&l=02173103962103400000000000000000000ffff0a00afb97d90e8&btag=e00070000&format=mp3&mime_type=audio_mpeg",
        "source_timerange": {
            "start_offset": 1.7279999999999518,
            "end_offset": 3.456
        },
        "target_timerange": {
            "start_offset": 576.384,
            "end_offset": 578.112
        },
        "ignore_audio": true,
        "audio_path": null
    },
    {
        "segment_id": "da48f0349d8811efbee9b8cef68aba34",
        "text": "Till I can forget his",
        "audio_url": "https://v16m-default.akamaized.net/01b7e6d6b9795711b73716298eed87f3/672de605/video/tos/maliva/tos-maliva-v-f15faa-us/ocBIJIIiQLG1BaoWVFf1ZnDBTALesEhP0AYiAb/?a=7073&bti=OTU0QDItLmA%3D&ch=0&cr=0&dr=4&er=0&lr=unwatermarked&cd=0%7C0%7C0%7C0&br=312&bt=156&ds=5&ft=.cwOVInz7ThmDGvOXq8Zmo&qs=13&rc=M2VqcG45cjtzdjUzNzhoM0BpM2VqcG45cjtzdjUzNzhoM0BfY2kzMmRrMGpgLS1kLjZzYSNfY2kzMmRrMGpgLS1kLjZzcw%3D%3D&vvpl=1&l=02173103962103400000000000000000000ffff0a00afb97d90e8&btag=e00070000&format=mp3&mime_type=audio_mpeg",
        "source_timerange": {
            "start_offset": 0,
            "end_offset": 1.2960000000000154
        },
        "target_timerange": {
            "start_offset": 578.112,
            "end_offset": 579.408
        },
        "ignore_audio": false,
        "audio_path": null
    },
    {
        "segment_id": "da48f1ce9d8811efbee9b8cef68aba34",
        "text": "father, I can never defy",
        "audio_url": "https://v16m-default.akamaized.net/01b7e6d6b9795711b73716298eed87f3/672de605/video/tos/maliva/tos-maliva-v-f15faa-us/ocBIJIIiQLG1BaoWVFf1ZnDBTALesEhP0AYiAb/?a=7073&bti=OTU0QDItLmA%3D&ch=0&cr=0&dr=4&er=0&lr=unwatermarked&cd=0%7C0%7C0%7C0&br=312&bt=156&ds=5&ft=.cwOVInz7ThmDGvOXq8Zmo&qs=13&rc=M2VqcG45cjtzdjUzNzhoM0BpM2VqcG45cjtzdjUzNzhoM0BfY2kzMmRrMGpgLS1kLjZzYSNfY2kzMmRrMGpgLS1kLjZzcw%3D%3D&vvpl=1&l=02173103962103400000000000000000000ffff0a00afb97d90e8&btag=e00070000&format=mp3&mime_type=audio_mpeg",
        "source_timerange": {
            "start_offset": 1.2960000000000491,
            "end_offset": 2.591999999999951
        },
        "target_timerange": {
            "start_offset": 579.408,
            "end_offset": 580.704
        },
        "ignore_audio": true,
        "audio_path": null
    },
    {
        "segment_id": "da48f3189d8811efbee9b8cef68aba34",
        "text": "or expose _him_.”",
        "audio_url": "https://v16m-default.akamaized.net/01b7e6d6b9795711b73716298eed87f3/672de605/video/tos/maliva/tos-maliva-v-f15faa-us/ocBIJIIiQLG1BaoWVFf1ZnDBTALesEhP0AYiAb/?a=7073&bti=OTU0QDItLmA%3D&ch=0&cr=0&dr=4&er=0&lr=unwatermarked&cd=0%7C0%7C0%7C0&br=312&bt=156&ds=5&ft=.cwOVInz7ThmDGvOXq8Zmo&qs=13&rc=M2VqcG45cjtzdjUzNzhoM0BpM2VqcG45cjtzdjUzNzhoM0BfY2kzMmRrMGpgLS1kLjZzYSNfY2kzMmRrMGpgLS1kLjZzcw%3D%3D&vvpl=1&l=02173103962103400000000000000000000ffff0a00afb97d90e8&btag=e00070000&format=mp3&mime_type=audio_mpeg",
        "source_timerange": {
            "start_offset": 2.5919999999999845,
            "end_offset": 3.888
        },
        "target_timerange": {
            "start_offset": 580.704,
            "end_offset": 582
        },
        "ignore_audio": true,
        "audio_path": null
    },
    {
        "segment_id": "da490ace9d8811efbee9b8cef68aba34",
        "text": "Elizabeth honoured him for",
        "audio_url": "https://v16m-default.akamaized.net/e67488f38dbc1d7fe09a571bb981e933/672de607/video/tos/maliva/tos-maliva-v-f15faa-us/oYaUk4Z4AtbIAiivSRRAy74BpQvoVEEHAE4C2/?a=7073&bti=OTU0QDItLmA%3D&ch=0&cr=0&dr=4&er=0&lr=unwatermarked&cd=0%7C0%7C0%7C0&br=312&bt=156&ds=5&ft=.cwOVInz7ThmDGvOXq8Zmo&qs=13&rc=anV5aHU5cjtzdjUzNzhoM0BpanV5aHU5cjtzdjUzNzhoM0BoZDJwMmRrMGpgLS1kLjZzYSNoZDJwMmRrMGpgLS1kLjZzcw%3D%3D&vvpl=1&l=02173103962103400000000000000000000ffff0a00afb97d90e8&btag=e00070000&format=mp3&mime_type=audio_mpeg",
        "source_timerange": {
            "start_offset": 0,
            "end_offset": 1.3379999999999903
        },
        "target_timerange": {
            "start_offset": 582,
            "end_offset": 583.338
        },
        "ignore_audio": false,
        "audio_path": null
    },
    {
        "segment_id": "da490c409d8811efbee9b8cef68aba34",
        "text": "such feelings, and thought",
        "audio_url": "https://v16m-default.akamaized.net/e67488f38dbc1d7fe09a571bb981e933/672de607/video/tos/maliva/tos-maliva-v-f15faa-us/oYaUk4Z4AtbIAiivSRRAy74BpQvoVEEHAE4C2/?a=7073&bti=OTU0QDItLmA%3D&ch=0&cr=0&dr=4&er=0&lr=unwatermarked&cd=0%7C0%7C0%7C0&br=312&bt=156&ds=5&ft=.cwOVInz7ThmDGvOXq8Zmo&qs=13&rc=anV5aHU5cjtzdjUzNzhoM0BpanV5aHU5cjtzdjUzNzhoM0BoZDJwMmRrMGpgLS1kLjZzYSNoZDJwMmRrMGpgLS1kLjZzcw%3D%3D&vvpl=1&l=02173103962103400000000000000000000ffff0a00afb97d90e8&btag=e00070000&format=mp3&mime_type=audio_mpeg",
        "source_timerange": {
            "start_offset": 1.3379999999999654,
            "end_offset": 2.6759999999999557
        },
        "target_timerange": {
            "start_offset": 583.338,
            "end_offset": 584.6759999999999
        },
        "ignore_audio": true,
        "audio_path": null
    },
    {
        "segment_id": "da490d9e9d8811efbee9b8cef68aba34",
        "text": "him handsomer than ever as",
        "audio_url": "https://v16m-default.akamaized.net/e67488f38dbc1d7fe09a571bb981e933/672de607/video/tos/maliva/tos-maliva-v-f15faa-us/oYaUk4Z4AtbIAiivSRRAy74BpQvoVEEHAE4C2/?a=7073&bti=OTU0QDItLmA%3D&ch=0&cr=0&dr=4&er=0&lr=unwatermarked&cd=0%7C0%7C0%7C0&br=312&bt=156&ds=5&ft=.cwOVInz7ThmDGvOXq8Zmo&qs=13&rc=anV5aHU5cjtzdjUzNzhoM0BpanV5aHU5cjtzdjUzNzhoM0BoZDJwMmRrMGpgLS1kLjZzYSNoZDJwMmRrMGpgLS1kLjZzcw%3D%3D&vvpl=1&l=02173103962103400000000000000000000ffff0a00afb97d90e8&btag=e00070000&format=mp3&mime_type=audio_mpeg",
        "source_timerange": {
            "start_offset": 2.675999999999931,
            "end_offset": 4.014000000000035
        },
        "target_timerange": {
            "start_offset": 584.6759999999999,
            "end_offset": 586.014
        },
        "ignore_audio": true,
        "audio_path": null
    },
    {
        "segment_id": "da490ede9d8811efbee9b8cef68aba34",
        "text": "he expressed them.",
        "audio_url": "https://v16m-default.akamaized.net/e67488f38dbc1d7fe09a571bb981e933/672de607/video/tos/maliva/tos-maliva-v-f15faa-us/oYaUk4Z4AtbIAiivSRRAy74BpQvoVEEHAE4C2/?a=7073&bti=OTU0QDItLmA%3D&ch=0&cr=0&dr=4&er=0&lr=unwatermarked&cd=0%7C0%7C0%7C0&br=312&bt=156&ds=5&ft=.cwOVInz7ThmDGvOXq8Zmo&qs=13&rc=anV5aHU5cjtzdjUzNzhoM0BpanV5aHU5cjtzdjUzNzhoM0BoZDJwMmRrMGpgLS1kLjZzYSNoZDJwMmRrMGpgLS1kLjZzcw%3D%3D&vvpl=1&l=02173103962103400000000000000000000ffff0a00afb97d90e8&btag=e00070000&format=mp3&mime_type=audio_mpeg",
        "source_timerange": {
            "start_offset": 4.01400000000001,
            "end_offset": 5.352
        },
        "target_timerange": {
            "start_offset": 586.014,
            "end_offset": 587.352
        },
        "ignore_audio": true,
        "audio_path": null
    },
    {
        "segment_id": "da49204a9d8811efbee9b8cef68aba34",
        "text": "“But what,” said she,",
        "audio_url": "https://v16m-default.akamaized.net/cccdda5a3944d8a8483490e00b1a8140/672de605/video/tos/maliva/tos-maliva-v-f15faa-us/oYhXHiEQJNLFdEZkALV21LfeAGDgBBAExAanRt/?a=7073&bti=OTU0QDItLmA%3D&ch=0&cr=0&dr=4&er=0&lr=unwatermarked&cd=0%7C0%7C0%7C0&br=312&bt=156&ds=5&ft=.cwOVInz7ThmDGvOXq8Zmo&qs=13&rc=anB5aXQ5cjtzdjUzNzhoM0BpanB5aXQ5cjtzdjUzNzhoM0BiMGZoMmRrMGpgLS1kLjZzYSNiMGZoMmRrMGpgLS1kLjZzcw%3D%3D&vvpl=1&l=02173103962103400000000000000000000ffff0a00afb97d90e8&btag=e00070000&format=mp3&mime_type=audio_mpeg",
        "source_timerange": {
            "start_offset": 0,
            "end_offset": 1.3119999999999763
        },
        "target_timerange": {
            "start_offset": 587.352,
            "end_offset": 588.664
        },
        "ignore_audio": false,
        "audio_path": null
    },
    {
        "segment_id": "da4921d09d8811efbee9b8cef68aba34",
        "text": "after a pause, “can",
        "audio_url": "https://v16m-default.akamaized.net/cccdda5a3944d8a8483490e00b1a8140/672de605/video/tos/maliva/tos-maliva-v-f15faa-us/oYhXHiEQJNLFdEZkALV21LfeAGDgBBAExAanRt/?a=7073&bti=OTU0QDItLmA%3D&ch=0&cr=0&dr=4&er=0&lr=unwatermarked&cd=0%7C0%7C0%7C0&br=312&bt=156&ds=5&ft=.cwOVInz7ThmDGvOXq8Zmo&qs=13&rc=anB5aXQ5cjtzdjUzNzhoM0BpanB5aXQ5cjtzdjUzNzhoM0BiMGZoMmRrMGpgLS1kLjZzYSNiMGZoMmRrMGpgLS1kLjZzcw%3D%3D&vvpl=1&l=02173103962103400000000000000000000ffff0a00afb97d90e8&btag=e00070000&format=mp3&mime_type=audio_mpeg",
        "source_timerange": {
            "start_offset": 1.3120000000000118,
            "end_offset": 2.623999999999988
        },
        "target_timerange": {
            "start_offset": 588.664,
            "end_offset": 589.976
        },
        "ignore_audio": true,
        "audio_path": null
    },
    {
        "segment_id": "da4922c09d8811efbee9b8cef68aba34",
        "text": "have been his motive?",
        "audio_url": "https://v16m-default.akamaized.net/cccdda5a3944d8a8483490e00b1a8140/672de605/video/tos/maliva/tos-maliva-v-f15faa-us/oYhXHiEQJNLFdEZkALV21LfeAGDgBBAExAanRt/?a=7073&bti=OTU0QDItLmA%3D&ch=0&cr=0&dr=4&er=0&lr=unwatermarked&cd=0%7C0%7C0%7C0&br=312&bt=156&ds=5&ft=.cwOVInz7ThmDGvOXq8Zmo&qs=13&rc=anB5aXQ5cjtzdjUzNzhoM0BpanB5aXQ5cjtzdjUzNzhoM0BiMGZoMmRrMGpgLS1kLjZzYSNiMGZoMmRrMGpgLS1kLjZzcw%3D%3D&vvpl=1&l=02173103962103400000000000000000000ffff0a00afb97d90e8&btag=e00070000&format=mp3&mime_type=audio_mpeg",
        "source_timerange": {
            "start_offset": 2.6240000000000236,
            "end_offset": 3.936
        },
        "target_timerange": {
            "start_offset": 589.976,
            "end_offset": 591.288
        },
        "ignore_audio": true,
        "audio_path": null
    },
    {
        "segment_id": "da493d009d8811efbee9b8cef68aba34",
        "text": "what can have induced him to",
        "audio_url": "https://v16m-default.akamaized.net/a7546520f1178dba2caffbff6211b5a9/672de60b/video/tos/maliva/tos-maliva-v-f15faa-us/oAnAJEtfiBrEZLFViB3E4aJAALhAQjfAPGkDE4/?a=7073&bti=OTU0QDItLmA%3D&ch=0&cr=0&dr=4&er=0&lr=unwatermarked&cd=0%7C0%7C0%7C0&br=312&bt=156&ds=5&ft=.cwOVInz7ThFDGvOXq8Zmo&qs=13&rc=M2U2eGs5cjtzdjUzNzhoM0BpM2U2eGs5cjtzdjUzNzhoM0BwYy1jMmRrMGpgLS1kLjZzYSNwYy1jMmRrMGpgLS1kLjZzcw%3D%3D&vvpl=1&l=02173103962103400000000000000000000ffff0a00afb97d90e8&btag=e00070000&format=mp3&mime_type=audio_mpeg",
        "source_timerange": {
            "start_offset": 0,
            "end_offset": 1.6463999999999999
        },
        "target_timerange": {
            "start_offset": 591.288,
            "end_offset": 592.9344
        },
        "ignore_audio": false,
        "audio_path": null
    },
    {
        "segment_id": "da493ecc9d8811efbee9b8cef68aba34",
        "text": "behave so cruelly?”  “A thorough,",
        "audio_url": "https://v16m-default.akamaized.net/a7546520f1178dba2caffbff6211b5a9/672de60b/video/tos/maliva/tos-maliva-v-f15faa-us/oAnAJEtfiBrEZLFViB3E4aJAALhAQjfAPGkDE4/?a=7073&bti=OTU0QDItLmA%3D&ch=0&cr=0&dr=4&er=0&lr=unwatermarked&cd=0%7C0%7C0%7C0&br=312&bt=156&ds=5&ft=.cwOVInz7ThFDGvOXq8Zmo&qs=13&rc=M2U2eGs5cjtzdjUzNzhoM0BpM2U2eGs5cjtzdjUzNzhoM0BwYy1jMmRrMGpgLS1kLjZzYSNwYy1jMmRrMGpgLS1kLjZzcw%3D%3D&vvpl=1&l=02173103962103400000000000000000000ffff0a00afb97d90e8&btag=e00070000&format=mp3&mime_type=audio_mpeg",
        "source_timerange": {
            "start_offset": 1.6463999999999714,
            "end_offset": 3.2927999999999713
        },
        "target_timerange": {
            "start_offset": 592.9344,
            "end_offset": 594.5808
        },
        "ignore_audio": true,
        "audio_path": null
    },
    {
        "segment_id": "da4940489d8811efbee9b8cef68aba34",
        "text": "determined dislike of me--a",
        "audio_url": "https://v16m-default.akamaized.net/a7546520f1178dba2caffbff6211b5a9/672de60b/video/tos/maliva/tos-maliva-v-f15faa-us/oAnAJEtfiBrEZLFViB3E4aJAALhAQjfAPGkDE4/?a=7073&bti=OTU0QDItLmA%3D&ch=0&cr=0&dr=4&er=0&lr=unwatermarked&cd=0%7C0%7C0%7C0&br=312&bt=156&ds=5&ft=.cwOVInz7ThFDGvOXq8Zmo&qs=13&rc=M2U2eGs5cjtzdjUzNzhoM0BpM2U2eGs5cjtzdjUzNzhoM0BwYy1jMmRrMGpgLS1kLjZzYSNwYy1jMmRrMGpgLS1kLjZzcw%3D%3D&vvpl=1&l=02173103962103400000000000000000000ffff0a00afb97d90e8&btag=e00070000&format=mp3&mime_type=audio_mpeg",
        "source_timerange": {
            "start_offset": 3.292799999999943,
            "end_offset": 4.939200000000056
        },
        "target_timerange": {
            "start_offset": 594.5808,
            "end_offset": 596.2272
        },
        "ignore_audio": true,
        "audio_path": null
    },
    {
        "segment_id": "da49419c9d8811efbee9b8cef68aba34",
        "text": "dislike which I cannot but",
        "audio_url": "https://v16m-default.akamaized.net/a7546520f1178dba2caffbff6211b5a9/672de60b/video/tos/maliva/tos-maliva-v-f15faa-us/oAnAJEtfiBrEZLFViB3E4aJAALhAQjfAPGkDE4/?a=7073&bti=OTU0QDItLmA%3D&ch=0&cr=0&dr=4&er=0&lr=unwatermarked&cd=0%7C0%7C0%7C0&br=312&bt=156&ds=5&ft=.cwOVInz7ThFDGvOXq8Zmo&qs=13&rc=M2U2eGs5cjtzdjUzNzhoM0BpM2U2eGs5cjtzdjUzNzhoM0BwYy1jMmRrMGpgLS1kLjZzYSNwYy1jMmRrMGpgLS1kLjZzcw%3D%3D&vvpl=1&l=02173103962103400000000000000000000ffff0a00afb97d90e8&btag=e00070000&format=mp3&mime_type=audio_mpeg",
        "source_timerange": {
            "start_offset": 4.939200000000028,
            "end_offset": 6.585600000000028
        },
        "target_timerange": {
            "start_offset": 596.2272,
            "end_offset": 597.8736
        },
        "ignore_audio": true,
        "audio_path": null
    },
    {
        "segment_id": "da4942e69d8811efbee9b8cef68aba34",
        "text": "attribute in some measure to jealousy.",
        "audio_url": "https://v16m-default.akamaized.net/a7546520f1178dba2caffbff6211b5a9/672de60b/video/tos/maliva/tos-maliva-v-f15faa-us/oAnAJEtfiBrEZLFViB3E4aJAALhAQjfAPGkDE4/?a=7073&bti=OTU0QDItLmA%3D&ch=0&cr=0&dr=4&er=0&lr=unwatermarked&cd=0%7C0%7C0%7C0&br=312&bt=156&ds=5&ft=.cwOVInz7ThFDGvOXq8Zmo&qs=13&rc=M2U2eGs5cjtzdjUzNzhoM0BpM2U2eGs5cjtzdjUzNzhoM0BwYy1jMmRrMGpgLS1kLjZzYSNwYy1jMmRrMGpgLS1kLjZzcw%3D%3D&vvpl=1&l=02173103962103400000000000000000000ffff0a00afb97d90e8&btag=e00070000&format=mp3&mime_type=audio_mpeg",
        "source_timerange": {
            "start_offset": 6.5855999999999995,
            "end_offset": 8.232
        },
        "target_timerange": {
            "start_offset": 597.8736,
            "end_offset": 599.52
        },
        "ignore_audio": true,
        "audio_path": null
    },
    {
        "segment_id": "da49694c9d8811efbee9b8cef68aba34",
        "text": "Had the late Mr. Darcy",
        "audio_url": "https://v16m-default.akamaized.net/9e97055ad5762e02e2e4409d6ca2f74b/672de60d/video/tos/maliva/tos-maliva-v-f15faa-us/oAQvIR4yFtBEVUSgXAAoyiDzxAaykiEZC2pA8/?a=7073&bti=OTU0QDItLmA%3D&ch=0&cr=0&dr=4&er=0&lr=unwatermarked&cd=0%7C0%7C0%7C0&br=312&bt=156&ds=5&ft=.cwOVInz7ThFDGvOXq8Zmo&qs=13&rc=ajM3Zm05cjtzdjUzNzhoM0BpajM3Zm05cjtzdjUzNzhoM0BsX2ltMmRrMGpgLS1kLjZzYSNsX2ltMmRrMGpgLS1kLjZzcw%3D%3D&vvpl=1&l=02173103962103400000000000000000000ffff0a00afb97d90e8&btag=e00070000&format=mp3&mime_type=audio_mpeg",
        "source_timerange": {
            "start_offset": 0,
            "end_offset": 1.4605714285714377
        },
        "target_timerange": {
            "start_offset": 599.52,
            "end_offset": 600.9805714285715
        },
        "ignore_audio": false,
        "audio_path": null
    },
    {
        "segment_id": "da496af09d8811efbee9b8cef68aba34",
        "text": "liked me less, his son",
        "audio_url": "https://v16m-default.akamaized.net/9e97055ad5762e02e2e4409d6ca2f74b/672de60d/video/tos/maliva/tos-maliva-v-f15faa-us/oAQvIR4yFtBEVUSgXAAoyiDzxAaykiEZC2pA8/?a=7073&bti=OTU0QDItLmA%3D&ch=0&cr=0&dr=4&er=0&lr=unwatermarked&cd=0%7C0%7C0%7C0&br=312&bt=156&ds=5&ft=.cwOVInz7ThFDGvOXq8Zmo&qs=13&rc=ajM3Zm05cjtzdjUzNzhoM0BpajM3Zm05cjtzdjUzNzhoM0BsX2ltMmRrMGpgLS1kLjZzYSNsX2ltMmRrMGpgLS1kLjZzcw%3D%3D&vvpl=1&l=02173103962103400000000000000000000ffff0a00afb97d90e8&btag=e00070000&format=mp3&mime_type=audio_mpeg",
        "source_timerange": {
            "start_offset": 1.460571428571484,
            "end_offset": 2.921142857142808
        },
        "target_timerange": {
            "start_offset": 600.9805714285715,
            "end_offset": 602.4411428571428
        },
        "ignore_audio": true,
        "audio_path": null
    },
    {
        "segment_id": "da496c4e9d8811efbee9b8cef68aba34",
        "text": "might have borne with me",
        "audio_url": "https://v16m-default.akamaized.net/9e97055ad5762e02e2e4409d6ca2f74b/672de60d/video/tos/maliva/tos-maliva-v-f15faa-us/oAQvIR4yFtBEVUSgXAAoyiDzxAaykiEZC2pA8/?a=7073&bti=OTU0QDItLmA%3D&ch=0&cr=0&dr=4&er=0&lr=unwatermarked&cd=0%7C0%7C0%7C0&br=312&bt=156&ds=5&ft=.cwOVInz7ThFDGvOXq8Zmo&qs=13&rc=ajM3Zm05cjtzdjUzNzhoM0BpajM3Zm05cjtzdjUzNzhoM0BsX2ltMmRrMGpgLS1kLjZzYSNsX2ltMmRrMGpgLS1kLjZzcw%3D%3D&vvpl=1&l=02173103962103400000000000000000000ffff0a00afb97d90e8&btag=e00070000&format=mp3&mime_type=audio_mpeg",
        "source_timerange": {
            "start_offset": 2.921142857142854,
            "end_offset": 4.381714285714292
        },
        "target_timerange": {
            "start_offset": 602.4411428571428,
            "end_offset": 603.9017142857143
        },
        "ignore_audio": true,
        "audio_path": null
    },
    {
        "segment_id": "da496d989d8811efbee9b8cef68aba34",
        "text": "better; but his father’s",
        "audio_url": "https://v16m-default.akamaized.net/9e97055ad5762e02e2e4409d6ca2f74b/672de60d/video/tos/maliva/tos-maliva-v-f15faa-us/oAQvIR4yFtBEVUSgXAAoyiDzxAaykiEZC2pA8/?a=7073&bti=OTU0QDItLmA%3D&ch=0&cr=0&dr=4&er=0&lr=unwatermarked&cd=0%7C0%7C0%7C0&br=312&bt=156&ds=5&ft=.cwOVInz7ThFDGvOXq8Zmo&qs=13&rc=ajM3Zm05cjtzdjUzNzhoM0BpajM3Zm05cjtzdjUzNzhoM0BsX2ltMmRrMGpgLS1kLjZzYSNsX2ltMmRrMGpgLS1kLjZzcw%3D%3D&vvpl=1&l=02173103962103400000000000000000000ffff0a00afb97d90e8&btag=e00070000&format=mp3&mime_type=audio_mpeg",
        "source_timerange": {
            "start_offset": 4.381714285714338,
            "end_offset": 5.842285714285662
        },
        "target_timerange": {
            "start_offset": 603.9017142857143,
            "end_offset": 605.3622857142857
        },
        "ignore_audio": true,
        "audio_path": null
    },
    {
        "segment_id": "da496ed89d8811efbee9b8cef68aba34",
        "text": "uncommon attachment to me",
        "audio_url": "https://v16m-default.akamaized.net/9e97055ad5762e02e2e4409d6ca2f74b/672de60d/video/tos/maliva/tos-maliva-v-f15faa-us/oAQvIR4yFtBEVUSgXAAoyiDzxAaykiEZC2pA8/?a=7073&bti=OTU0QDItLmA%3D&ch=0&cr=0&dr=4&er=0&lr=unwatermarked&cd=0%7C0%7C0%7C0&br=312&bt=156&ds=5&ft=.cwOVInz7ThFDGvOXq8Zmo&qs=13&rc=ajM3Zm05cjtzdjUzNzhoM0BpajM3Zm05cjtzdjUzNzhoM0BsX2ltMmRrMGpgLS1kLjZzYSNsX2ltMmRrMGpgLS1kLjZzcw%3D%3D&vvpl=1&l=02173103962103400000000000000000000ffff0a00afb97d90e8&btag=e00070000&format=mp3&mime_type=audio_mpeg",
        "source_timerange": {
            "start_offset": 5.842285714285708,
            "end_offset": 7.302857142857146
        },
        "target_timerange": {
            "start_offset": 605.3622857142857,
            "end_offset": 606.8228571428572
        },
        "ignore_audio": true,
        "audio_path": null
    },
    {
        "segment_id": "da49702c9d8811efbee9b8cef68aba34",
        "text": "irritated him, I believe,",
        "audio_url": "https://v16m-default.akamaized.net/9e97055ad5762e02e2e4409d6ca2f74b/672de60d/video/tos/maliva/tos-maliva-v-f15faa-us/oAQvIR4yFtBEVUSgXAAoyiDzxAaykiEZC2pA8/?a=7073&bti=OTU0QDItLmA%3D&ch=0&cr=0&dr=4&er=0&lr=unwatermarked&cd=0%7C0%7C0%7C0&br=312&bt=156&ds=5&ft=.cwOVInz7ThFDGvOXq8Zmo&qs=13&rc=ajM3Zm05cjtzdjUzNzhoM0BpajM3Zm05cjtzdjUzNzhoM0BsX2ltMmRrMGpgLS1kLjZzYSNsX2ltMmRrMGpgLS1kLjZzcw%3D%3D&vvpl=1&l=02173103962103400000000000000000000ffff0a00afb97d90e8&btag=e00070000&format=mp3&mime_type=audio_mpeg",
        "source_timerange": {
            "start_offset": 7.302857142857192,
            "end_offset": 8.763428571428516
        },
        "target_timerange": {
            "start_offset": 606.8228571428572,
            "end_offset": 608.2834285714285
        },
        "ignore_audio": true,
        "audio_path": null
    },
    {
        "segment_id": "da4971769d8811efbee9b8cef68aba34",
        "text": "very early in life.",
        "audio_url": "https://v16m-default.akamaized.net/9e97055ad5762e02e2e4409d6ca2f74b/672de60d/video/tos/maliva/tos-maliva-v-f15faa-us/oAQvIR4yFtBEVUSgXAAoyiDzxAaykiEZC2pA8/?a=7073&bti=OTU0QDItLmA%3D&ch=0&cr=0&dr=4&er=0&lr=unwatermarked&cd=0%7C0%7C0%7C0&br=312&bt=156&ds=5&ft=.cwOVInz7ThFDGvOXq8Zmo&qs=13&rc=ajM3Zm05cjtzdjUzNzhoM0BpajM3Zm05cjtzdjUzNzhoM0BsX2ltMmRrMGpgLS1kLjZzYSNsX2ltMmRrMGpgLS1kLjZzcw%3D%3D&vvpl=1&l=02173103962103400000000000000000000ffff0a00afb97d90e8&btag=e00070000&format=mp3&mime_type=audio_mpeg",
        "source_timerange": {
            "start_offset": 8.763428571428562,
            "end_offset": 10.224
        },
        "target_timerange": {
            "start_offset": 608.2834285714285,
            "end_offset": 609.744
        },
        "ignore_audio": true,
        "audio_path": null
    },
    {
        "segment_id": "da498a8a9d8811efbee9b8cef68aba34",
        "text": "He had not a temper to bear the",
        "audio_url": "https://v16m-default.akamaized.net/106f0eeafd0d32e3f67ca4fdb3c5b7ad/672de608/video/tos/maliva/tos-maliva-v-f15faa-us/o8yI0AAyOBCkexfbCYLIgNGFCWXrGXAIIuenSy/?a=7073&bti=OTU0QDItLmA%3D&ch=0&cr=0&dr=4&er=0&lr=unwatermarked&cd=0%7C0%7C0%7C0&br=312&bt=156&ds=5&ft=.cwOVInz7ThFDGvOXq8Zmo&qs=13&rc=anJ5dXA5cjtzdjUzNzhoM0BpanJ5dXA5cjtzdjUzNzhoM0BwNDIyMmRrMGpgLS1kLjZzYSNwNDIyMmRrMGpgLS1kLjZzcw%3D%3D&vvpl=1&l=02173103962103400000000000000000000ffff0a00afb97d90e8&btag=e00070000&format=mp3&mime_type=audio_mpeg",
        "source_timerange": {
            "start_offset": 0,
            "end_offset": 1.4520000000000053
        },
        "target_timerange": {
            "start_offset": 609.744,
            "end_offset": 611.196
        },
        "ignore_audio": false,
        "audio_path": null
    },
    {
        "segment_id": "da498c069d8811efbee9b8cef68aba34",
        "text": "sort of competition in which we",
        "audio_url": "https://v16m-default.akamaized.net/106f0eeafd0d32e3f67ca4fdb3c5b7ad/672de608/video/tos/maliva/tos-maliva-v-f15faa-us/o8yI0AAyOBCkexfbCYLIgNGFCWXrGXAIIuenSy/?a=7073&bti=OTU0QDItLmA%3D&ch=0&cr=0&dr=4&er=0&lr=unwatermarked&cd=0%7C0%7C0%7C0&br=312&bt=156&ds=5&ft=.cwOVInz7ThFDGvOXq8Zmo&qs=13&rc=anJ5dXA5cjtzdjUzNzhoM0BpanJ5dXA5cjtzdjUzNzhoM0BwNDIyMmRrMGpgLS1kLjZzYSNwNDIyMmRrMGpgLS1kLjZzcw%3D%3D&vvpl=1&l=02173103962103400000000000000000000ffff0a00afb97d90e8&btag=e00070000&format=mp3&mime_type=audio_mpeg",
        "source_timerange": {
            "start_offset": 1.4519999999999982,
            "end_offset": 2.9040000000000035
        },
        "target_timerange": {
            "start_offset": 611.196,
            "end_offset": 612.648
        },
        "ignore_audio": true,
        "audio_path": null
    },
    {
        "segment_id": "da498d469d8811efbee9b8cef68aba34",
        "text": "stood--the sort of preference",
        "audio_url": "https://v16m-default.akamaized.net/106f0eeafd0d32e3f67ca4fdb3c5b7ad/672de608/video/tos/maliva/tos-maliva-v-f15faa-us/o8yI0AAyOBCkexfbCYLIgNGFCWXrGXAIIuenSy/?a=7073&bti=OTU0QDItLmA%3D&ch=0&cr=0&dr=4&er=0&lr=unwatermarked&cd=0%7C0%7C0%7C0&br=312&bt=156&ds=5&ft=.cwOVInz7ThFDGvOXq8Zmo&qs=13&rc=anJ5dXA5cjtzdjUzNzhoM0BpanJ5dXA5cjtzdjUzNzhoM0BwNDIyMmRrMGpgLS1kLjZzYSNwNDIyMmRrMGpgLS1kLjZzcw%3D%3D&vvpl=1&l=02173103962103400000000000000000000ffff0a00afb97d90e8&btag=e00070000&format=mp3&mime_type=audio_mpeg",
        "source_timerange": {
            "start_offset": 2.9039999999999964,
            "end_offset": 4.356000000000002
        },
        "target_timerange": {
            "start_offset": 612.648,
            "end_offset": 614.1
        },
        "ignore_audio": true,
        "audio_path": null
    },
    {
        "segment_id": "da498e869d8811efbee9b8cef68aba34",
        "text": "which was often given me.”",
        "audio_url": "https://v16m-default.akamaized.net/106f0eeafd0d32e3f67ca4fdb3c5b7ad/672de608/video/tos/maliva/tos-maliva-v-f15faa-us/o8yI0AAyOBCkexfbCYLIgNGFCWXrGXAIIuenSy/?a=7073&bti=OTU0QDItLmA%3D&ch=0&cr=0&dr=4&er=0&lr=unwatermarked&cd=0%7C0%7C0%7C0&br=312&bt=156&ds=5&ft=.cwOVInz7ThFDGvOXq8Zmo&qs=13&rc=anJ5dXA5cjtzdjUzNzhoM0BpanJ5dXA5cjtzdjUzNzhoM0BwNDIyMmRrMGpgLS1kLjZzYSNwNDIyMmRrMGpgLS1kLjZzcw%3D%3D&vvpl=1&l=02173103962103400000000000000000000ffff0a00afb97d90e8&btag=e00070000&format=mp3&mime_type=audio_mpeg",
        "source_timerange": {
            "start_offset": 4.3559999999999945,
            "end_offset": 5.808
        },
        "target_timerange": {
            "start_offset": 614.1,
            "end_offset": 615.552
        },
        "ignore_audio": true,
        "audio_path": null
    },
    {
        "segment_id": "da49ce789d8811efbee9b8cef68aba34",
        "text": "“I had not thought Mr. Darcy",
        "audio_url": "https://v16m-default.akamaized.net/d025e4d3a5ac2d1e82e1eb0f0692f40b/672de613/video/tos/maliva/tos-maliva-v-f15faa-us/oYTQuWIiLEGhZ1JnViwBBkVf0EI9IAFbABALfD/?a=7073&bti=OTU0QDItLmA%3D&ch=0&cr=0&dr=4&er=0&lr=unwatermarked&cd=0%7C0%7C0%7C0&br=312&bt=156&ds=5&ft=.cwOVInz7ThFDGvOXq8Zmo&qs=13&rc=M2VlOHQ5cjtzdjUzNzhoM0BpM2VlOHQ5cjtzdjUzNzhoM0BgMW1lMmRrMGpgLS1kLjZzYSNgMW1lMmRrMGpgLS1kLjZzcw%3D%3D&vvpl=1&l=02173103962103400000000000000000000ffff0a00afb97d90e8&btag=e00078000&format=mp3&mime_type=audio_mpeg",
        "source_timerange": {
            "start_offset": 0,
            "end_offset": 1.470545454545416
        },
        "target_timerange": {
            "start_offset": 615.552,
            "end_offset": 617.0225454545455
        },
        "ignore_audio": false,
        "audio_path": null
    },
    {
        "segment_id": "da49d0089d8811efbee9b8cef68aba34",
        "text": "so bad as this--though I have",
        "audio_url": "https://v16m-default.akamaized.net/d025e4d3a5ac2d1e82e1eb0f0692f40b/672de613/video/tos/maliva/tos-maliva-v-f15faa-us/oYTQuWIiLEGhZ1JnViwBBkVf0EI9IAFbABALfD/?a=7073&bti=OTU0QDItLmA%3D&ch=0&cr=0&dr=4&er=0&lr=unwatermarked&cd=0%7C0%7C0%7C0&br=312&bt=156&ds=5&ft=.cwOVInz7ThFDGvOXq8Zmo&qs=13&rc=M2VlOHQ5cjtzdjUzNzhoM0BpM2VlOHQ5cjtzdjUzNzhoM0BgMW1lMmRrMGpgLS1kLjZzYSNgMW1lMmRrMGpgLS1kLjZzcw%3D%3D&vvpl=1&l=02173103962103400000000000000000000ffff0a00afb97d90e8&btag=e00078000&format=mp3&mime_type=audio_mpeg",
        "source_timerange": {
            "start_offset": 1.4705454545454586,
            "end_offset": 2.9410909090908746
        },
        "target_timerange": {
            "start_offset": 617.0225454545455,
            "end_offset": 618.4930909090909
        },
        "ignore_audio": true,
        "audio_path": null
    },
    {
        "segment_id": "da49d1709d8811efbee9b8cef68aba34",
        "text": "never liked him, I had not",
        "audio_url": "https://v16m-default.akamaized.net/d025e4d3a5ac2d1e82e1eb0f0692f40b/672de613/video/tos/maliva/tos-maliva-v-f15faa-us/oYTQuWIiLEGhZ1JnViwBBkVf0EI9IAFbABALfD/?a=7073&bti=OTU0QDItLmA%3D&ch=0&cr=0&dr=4&er=0&lr=unwatermarked&cd=0%7C0%7C0%7C0&br=312&bt=156&ds=5&ft=.cwOVInz7ThFDGvOXq8Zmo&qs=13&rc=M2VlOHQ5cjtzdjUzNzhoM0BpM2VlOHQ5cjtzdjUzNzhoM0BgMW1lMmRrMGpgLS1kLjZzYSNgMW1lMmRrMGpgLS1kLjZzcw%3D%3D&vvpl=1&l=02173103962103400000000000000000000ffff0a00afb97d90e8&btag=e00078000&format=mp3&mime_type=audio_mpeg",
        "source_timerange": {
            "start_offset": 2.941090909090917,
            "end_offset": 4.411636363636333
        },
        "target_timerange": {
            "start_offset": 618.4930909090909,
            "end_offset": 619.9636363636364
        },
        "ignore_audio": true,
        "audio_path": null
    },
    {
        "segment_id": "da49d2b09d8811efbee9b8cef68aba34",
        "text": "thought so very ill of him--I",
        "audio_url": "https://v16m-default.akamaized.net/d025e4d3a5ac2d1e82e1eb0f0692f40b/672de613/video/tos/maliva/tos-maliva-v-f15faa-us/oYTQuWIiLEGhZ1JnViwBBkVf0EI9IAFbABALfD/?a=7073&bti=OTU0QDItLmA%3D&ch=0&cr=0&dr=4&er=0&lr=unwatermarked&cd=0%7C0%7C0%7C0&br=312&bt=156&ds=5&ft=.cwOVInz7ThFDGvOXq8Zmo&qs=13&rc=M2VlOHQ5cjtzdjUzNzhoM0BpM2VlOHQ5cjtzdjUzNzhoM0BgMW1lMmRrMGpgLS1kLjZzYSNgMW1lMmRrMGpgLS1kLjZzcw%3D%3D&vvpl=1&l=02173103962103400000000000000000000ffff0a00afb97d90e8&btag=e00078000&format=mp3&mime_type=audio_mpeg",
        "source_timerange": {
            "start_offset": 4.411636363636376,
            "end_offset": 5.882181818181792
        },
        "target_timerange": {
            "start_offset": 619.9636363636364,
            "end_offset": 621.4341818181819
        },
        "ignore_audio": true,
        "audio_path": null
    },
    {
        "segment_id": "da49d3e69d8811efbee9b8cef68aba34",
        "text": "had supposed him to be",
        "audio_url": "https://v16m-default.akamaized.net/d025e4d3a5ac2d1e82e1eb0f0692f40b/672de613/video/tos/maliva/tos-maliva-v-f15faa-us/oYTQuWIiLEGhZ1JnViwBBkVf0EI9IAFbABALfD/?a=7073&bti=OTU0QDItLmA%3D&ch=0&cr=0&dr=4&er=0&lr=unwatermarked&cd=0%7C0%7C0%7C0&br=312&bt=156&ds=5&ft=.cwOVInz7ThFDGvOXq8Zmo&qs=13&rc=M2VlOHQ5cjtzdjUzNzhoM0BpM2VlOHQ5cjtzdjUzNzhoM0BgMW1lMmRrMGpgLS1kLjZzYSNgMW1lMmRrMGpgLS1kLjZzcw%3D%3D&vvpl=1&l=02173103962103400000000000000000000ffff0a00afb97d90e8&btag=e00078000&format=mp3&mime_type=audio_mpeg",
        "source_timerange": {
            "start_offset": 5.882181818181834,
            "end_offset": 7.35272727272725
        },
        "target_timerange": {
            "start_offset": 621.4341818181819,
            "end_offset": 622.9047272727273
        },
        "ignore_audio": true,
        "audio_path": null
    },
    {
        "segment_id": "da49d5269d8811efbee9b8cef68aba34",
        "text": "despising his fellow-",
        "audio_url": "https://v16m-default.akamaized.net/d025e4d3a5ac2d1e82e1eb0f0692f40b/672de613/video/tos/maliva/tos-maliva-v-f15faa-us/oYTQuWIiLEGhZ1JnViwBBkVf0EI9IAFbABALfD/?a=7073&bti=OTU0QDItLmA%3D&ch=0&cr=0&dr=4&er=0&lr=unwatermarked&cd=0%7C0%7C0%7C0&br=312&bt=156&ds=5&ft=.cwOVInz7ThFDGvOXq8Zmo&qs=13&rc=M2VlOHQ5cjtzdjUzNzhoM0BpM2VlOHQ5cjtzdjUzNzhoM0BgMW1lMmRrMGpgLS1kLjZzYSNgMW1lMmRrMGpgLS1kLjZzcw%3D%3D&vvpl=1&l=02173103962103400000000000000000000ffff0a00afb97d90e8&btag=e00078000&format=mp3&mime_type=audio_mpeg",
        "source_timerange": {
            "start_offset": 7.352727272727293,
            "end_offset": 8.823272727272709
        },
        "target_timerange": {
            "start_offset": 622.9047272727273,
            "end_offset": 624.3752727272728
        },
        "ignore_audio": true,
        "audio_path": null
    },
    {
        "segment_id": "da49d6669d8811efbee9b8cef68aba34",
        "text": "creatures in general, but did",
        "audio_url": "https://v16m-default.akamaized.net/d025e4d3a5ac2d1e82e1eb0f0692f40b/672de613/video/tos/maliva/tos-maliva-v-f15faa-us/oYTQuWIiLEGhZ1JnViwBBkVf0EI9IAFbABALfD/?a=7073&bti=OTU0QDItLmA%3D&ch=0&cr=0&dr=4&er=0&lr=unwatermarked&cd=0%7C0%7C0%7C0&br=312&bt=156&ds=5&ft=.cwOVInz7ThFDGvOXq8Zmo&qs=13&rc=M2VlOHQ5cjtzdjUzNzhoM0BpM2VlOHQ5cjtzdjUzNzhoM0BgMW1lMmRrMGpgLS1kLjZzYSNgMW1lMmRrMGpgLS1kLjZzcw%3D%3D&vvpl=1&l=02173103962103400000000000000000000ffff0a00afb97d90e8&btag=e00078000&format=mp3&mime_type=audio_mpeg",
        "source_timerange": {
            "start_offset": 8.823272727272752,
            "end_offset": 10.293818181818168
        },
        "target_timerange": {
            "start_offset": 624.3752727272728,
            "end_offset": 625.8458181818182
        },
        "ignore_audio": true,
        "audio_path": null
    },
    {
        "segment_id": "da49d79c9d8811efbee9b8cef68aba34",
        "text": "not suspect him of descending",
        "audio_url": "https://v16m-default.akamaized.net/d025e4d3a5ac2d1e82e1eb0f0692f40b/672de613/video/tos/maliva/tos-maliva-v-f15faa-us/oYTQuWIiLEGhZ1JnViwBBkVf0EI9IAFbABALfD/?a=7073&bti=OTU0QDItLmA%3D&ch=0&cr=0&dr=4&er=0&lr=unwatermarked&cd=0%7C0%7C0%7C0&br=312&bt=156&ds=5&ft=.cwOVInz7ThFDGvOXq8Zmo&qs=13&rc=M2VlOHQ5cjtzdjUzNzhoM0BpM2VlOHQ5cjtzdjUzNzhoM0BgMW1lMmRrMGpgLS1kLjZzYSNgMW1lMmRrMGpgLS1kLjZzcw%3D%3D&vvpl=1&l=02173103962103400000000000000000000ffff0a00afb97d90e8&btag=e00078000&format=mp3&mime_type=audio_mpeg",
        "source_timerange": {
            "start_offset": 10.29381818181821,
            "end_offset": 11.764363636363626
        },
        "target_timerange": {
            "start_offset": 625.8458181818182,
            "end_offset": 627.3163636363637
        },
        "ignore_audio": true,
        "audio_path": null
    },
    {
        "segment_id": "da49d8d29d8811efbee9b8cef68aba34",
        "text": "to such malicious revenge,",
        "audio_url": "https://v16m-default.akamaized.net/d025e4d3a5ac2d1e82e1eb0f0692f40b/672de613/video/tos/maliva/tos-maliva-v-f15faa-us/oYTQuWIiLEGhZ1JnViwBBkVf0EI9IAFbABALfD/?a=7073&bti=OTU0QDItLmA%3D&ch=0&cr=0&dr=4&er=0&lr=unwatermarked&cd=0%7C0%7C0%7C0&br=312&bt=156&ds=5&ft=.cwOVInz7ThFDGvOXq8Zmo&qs=13&rc=M2VlOHQ5cjtzdjUzNzhoM0BpM2VlOHQ5cjtzdjUzNzhoM0BgMW1lMmRrMGpgLS1kLjZzYSNgMW1lMmRrMGpgLS1kLjZzcw%3D%3D&vvpl=1&l=02173103962103400000000000000000000ffff0a00afb97d90e8&btag=e00078000&format=mp3&mime_type=audio_mpeg",
        "source_timerange": {
            "start_offset": 11.764363636363669,
            "end_offset": 13.234909090909085
        },
        "target_timerange": {
            "start_offset": 627.3163636363637,
            "end_offset": 628.7869090909091
        },
        "ignore_audio": true,
        "audio_path": null
    },
    {
        "segment_id": "da49da089d8811efbee9b8cef68aba34",
        "text": "such injustice, such",
        "audio_url": "https://v16m-default.akamaized.net/d025e4d3a5ac2d1e82e1eb0f0692f40b/672de613/video/tos/maliva/tos-maliva-v-f15faa-us/oYTQuWIiLEGhZ1JnViwBBkVf0EI9IAFbABALfD/?a=7073&bti=OTU0QDItLmA%3D&ch=0&cr=0&dr=4&er=0&lr=unwatermarked&cd=0%7C0%7C0%7C0&br=312&bt=156&ds=5&ft=.cwOVInz7ThFDGvOXq8Zmo&qs=13&rc=M2VlOHQ5cjtzdjUzNzhoM0BpM2VlOHQ5cjtzdjUzNzhoM0BgMW1lMmRrMGpgLS1kLjZzYSNgMW1lMmRrMGpgLS1kLjZzcw%3D%3D&vvpl=1&l=02173103962103400000000000000000000ffff0a00afb97d90e8&btag=e00078000&format=mp3&mime_type=audio_mpeg",
        "source_timerange": {
            "start_offset": 13.234909090909127,
            "end_offset": 14.705454545454543
        },
        "target_timerange": {
            "start_offset": 628.7869090909091,
            "end_offset": 630.2574545454546
        },
        "ignore_audio": true,
        "audio_path": null
    },
    {
        "segment_id": "da49db349d8811efbee9b8cef68aba34",
        "text": "inhumanity as this!”",
        "audio_url": "https://v16m-default.akamaized.net/d025e4d3a5ac2d1e82e1eb0f0692f40b/672de613/video/tos/maliva/tos-maliva-v-f15faa-us/oYTQuWIiLEGhZ1JnViwBBkVf0EI9IAFbABALfD/?a=7073&bti=OTU0QDItLmA%3D&ch=0&cr=0&dr=4&er=0&lr=unwatermarked&cd=0%7C0%7C0%7C0&br=312&bt=156&ds=5&ft=.cwOVInz7ThFDGvOXq8Zmo&qs=13&rc=M2VlOHQ5cjtzdjUzNzhoM0BpM2VlOHQ5cjtzdjUzNzhoM0BgMW1lMmRrMGpgLS1kLjZzYSNgMW1lMmRrMGpgLS1kLjZzcw%3D%3D&vvpl=1&l=02173103962103400000000000000000000ffff0a00afb97d90e8&btag=e00078000&format=mp3&mime_type=audio_mpeg",
        "source_timerange": {
            "start_offset": 14.705454545454586,
            "end_offset": 16.176000000000002
        },
        "target_timerange": {
            "start_offset": 630.2574545454546,
            "end_offset": 631.7280000000001
        },
        "ignore_audio": true,
        "audio_path": null
    },
    {
        "segment_id": "da4a02269d8811efbee9b8cef68aba34",
        "text": "After a few minutes’",
        "audio_url": "https://v16m-default.akamaized.net/d951b98ec976fbb1af6a60fb9e236703/672de60e/video/tos/maliva/tos-maliva-v-f15faa-us/owAVDEQIEfnAhJhaEBtAUJFAULH9kBfZu1LLGi/?a=7073&bti=OTU0QDItLmA%3D&ch=0&cr=0&dr=4&er=0&lr=unwatermarked&cd=0%7C0%7C0%7C0&br=312&bt=156&ds=5&ft=.cwOVInz7ThFDGvOXq8Zmo&qs=13&rc=am41b3E5cjtzdjUzNzhoM0Bpam41b3E5cjtzdjUzNzhoM0AwLy5jMmRrMGpgLS1kLjZzYSMwLy5jMmRrMGpgLS1kLjZzcw%3D%3D&vvpl=1&l=02173103962103400000000000000000000ffff0a00afb97d90e8&btag=e00070000&format=mp3&mime_type=audio_mpeg",
        "source_timerange": {
            "start_offset": 0,
            "end_offset": 1.5977142857142645
        },
        "target_timerange": {
            "start_offset": 631.7280000000001,
            "end_offset": 633.3257142857143
        },
        "ignore_audio": false,
        "audio_path": null
    },
    {
        "segment_id": "da4a03ac9d8811efbee9b8cef68aba34",
        "text": "reflection, however, she",
        "audio_url": "https://v16m-default.akamaized.net/d951b98ec976fbb1af6a60fb9e236703/672de60e/video/tos/maliva/tos-maliva-v-f15faa-us/owAVDEQIEfnAhJhaEBtAUJFAULH9kBfZu1LLGi/?a=7073&bti=OTU0QDItLmA%3D&ch=0&cr=0&dr=4&er=0&lr=unwatermarked&cd=0%7C0%7C0%7C0&br=312&bt=156&ds=5&ft=.cwOVInz7ThFDGvOXq8Zmo&qs=13&rc=am41b3E5cjtzdjUzNzhoM0Bpam41b3E5cjtzdjUzNzhoM0AwLy5jMmRrMGpgLS1kLjZzYSMwLy5jMmRrMGpgLS1kLjZzcw%3D%3D&vvpl=1&l=02173103962103400000000000000000000ffff0a00afb97d90e8&btag=e00070000&format=mp3&mime_type=audio_mpeg",
        "source_timerange": {
            "start_offset": 1.5977142857142326,
            "end_offset": 3.195428571428611
        },
        "target_timerange": {
            "start_offset": 633.3257142857143,
            "end_offset": 634.9234285714286
        },
        "ignore_audio": true,
        "audio_path": null
    },
    {
        "segment_id": "da4a05009d8811efbee9b8cef68aba34",
        "text": "continued, “I _do_ remember",
        "audio_url": "https://v16m-default.akamaized.net/d951b98ec976fbb1af6a60fb9e236703/672de60e/video/tos/maliva/tos-maliva-v-f15faa-us/owAVDEQIEfnAhJhaEBtAUJFAULH9kBfZu1LLGi/?a=7073&bti=OTU0QDItLmA%3D&ch=0&cr=0&dr=4&er=0&lr=unwatermarked&cd=0%7C0%7C0%7C0&br=312&bt=156&ds=5&ft=.cwOVInz7ThFDGvOXq8Zmo&qs=13&rc=am41b3E5cjtzdjUzNzhoM0Bpam41b3E5cjtzdjUzNzhoM0AwLy5jMmRrMGpgLS1kLjZzYSMwLy5jMmRrMGpgLS1kLjZzcw%3D%3D&vvpl=1&l=02173103962103400000000000000000000ffff0a00afb97d90e8&btag=e00070000&format=mp3&mime_type=audio_mpeg",
        "source_timerange": {
            "start_offset": 3.195428571428579,
            "end_offset": 4.793142857142843
        },
        "target_timerange": {
            "start_offset": 634.9234285714286,
            "end_offset": 636.5211428571429
        },
        "ignore_audio": true,
        "audio_path": null
    },
    {
        "segment_id": "da4a064a9d8811efbee9b8cef68aba34",
        "text": "his boasting one day, at",
        "audio_url": "https://v16m-default.akamaized.net/d951b98ec976fbb1af6a60fb9e236703/672de60e/video/tos/maliva/tos-maliva-v-f15faa-us/owAVDEQIEfnAhJhaEBtAUJFAULH9kBfZu1LLGi/?a=7073&bti=OTU0QDItLmA%3D&ch=0&cr=0&dr=4&er=0&lr=unwatermarked&cd=0%7C0%7C0%7C0&br=312&bt=156&ds=5&ft=.cwOVInz7ThFDGvOXq8Zmo&qs=13&rc=am41b3E5cjtzdjUzNzhoM0Bpam41b3E5cjtzdjUzNzhoM0AwLy5jMmRrMGpgLS1kLjZzYSMwLy5jMmRrMGpgLS1kLjZzcw%3D%3D&vvpl=1&l=02173103962103400000000000000000000ffff0a00afb97d90e8&btag=e00070000&format=mp3&mime_type=audio_mpeg",
        "source_timerange": {
            "start_offset": 4.793142857142811,
            "end_offset": 6.39085714285719
        },
        "target_timerange": {
            "start_offset": 636.5211428571429,
            "end_offset": 638.1188571428572
        },
        "ignore_audio": true,
        "audio_path": null
    },
    {
        "segment_id": "da4a07b29d8811efbee9b8cef68aba34",
        "text": "Netherfield, of the",
        "audio_url": "https://v16m-default.akamaized.net/d951b98ec976fbb1af6a60fb9e236703/672de60e/video/tos/maliva/tos-maliva-v-f15faa-us/owAVDEQIEfnAhJhaEBtAUJFAULH9kBfZu1LLGi/?a=7073&bti=OTU0QDItLmA%3D&ch=0&cr=0&dr=4&er=0&lr=unwatermarked&cd=0%7C0%7C0%7C0&br=312&bt=156&ds=5&ft=.cwOVInz7ThFDGvOXq8Zmo&qs=13&rc=am41b3E5cjtzdjUzNzhoM0Bpam41b3E5cjtzdjUzNzhoM0AwLy5jMmRrMGpgLS1kLjZzYSMwLy5jMmRrMGpgLS1kLjZzcw%3D%3D&vvpl=1&l=02173103962103400000000000000000000ffff0a00afb97d90e8&btag=e00070000&format=mp3&mime_type=audio_mpeg",
        "source_timerange": {
            "start_offset": 6.390857142857158,
            "end_offset": 7.988571428571422
        },
        "target_timerange": {
            "start_offset": 638.1188571428572,
            "end_offset": 639.7165714285715
        },
        "ignore_audio": true,
        "audio_path": null
    },
    {
        "segment_id": "da4a08f29d8811efbee9b8cef68aba34",
        "text": "implacability of his",
        "audio_url": "https://v16m-default.akamaized.net/d951b98ec976fbb1af6a60fb9e236703/672de60e/video/tos/maliva/tos-maliva-v-f15faa-us/owAVDEQIEfnAhJhaEBtAUJFAULH9kBfZu1LLGi/?a=7073&bti=OTU0QDItLmA%3D&ch=0&cr=0&dr=4&er=0&lr=unwatermarked&cd=0%7C0%7C0%7C0&br=312&bt=156&ds=5&ft=.cwOVInz7ThFDGvOXq8Zmo&qs=13&rc=am41b3E5cjtzdjUzNzhoM0Bpam41b3E5cjtzdjUzNzhoM0AwLy5jMmRrMGpgLS1kLjZzYSMwLy5jMmRrMGpgLS1kLjZzcw%3D%3D&vvpl=1&l=02173103962103400000000000000000000ffff0a00afb97d90e8&btag=e00070000&format=mp3&mime_type=audio_mpeg",
        "source_timerange": {
            "start_offset": 7.98857142857139,
            "end_offset": 9.586285714285768
        },
        "target_timerange": {
            "start_offset": 639.7165714285715,
            "end_offset": 641.3142857142858
        },
        "ignore_audio": true,
        "audio_path": null
    },
    {
        "segment_id": "da4a0a3c9d8811efbee9b8cef68aba34",
        "text": "resentments, of his having an unforgiving\ntemper.",
        "audio_url": "https://v16m-default.akamaized.net/d951b98ec976fbb1af6a60fb9e236703/672de60e/video/tos/maliva/tos-maliva-v-f15faa-us/owAVDEQIEfnAhJhaEBtAUJFAULH9kBfZu1LLGi/?a=7073&bti=OTU0QDItLmA%3D&ch=0&cr=0&dr=4&er=0&lr=unwatermarked&cd=0%7C0%7C0%7C0&br=312&bt=156&ds=5&ft=.cwOVInz7ThFDGvOXq8Zmo&qs=13&rc=am41b3E5cjtzdjUzNzhoM0Bpam41b3E5cjtzdjUzNzhoM0AwLy5jMmRrMGpgLS1kLjZzYSMwLy5jMmRrMGpgLS1kLjZzcw%3D%3D&vvpl=1&l=02173103962103400000000000000000000ffff0a00afb97d90e8&btag=e00070000&format=mp3&mime_type=audio_mpeg",
        "source_timerange": {
            "start_offset": 9.586285714285737,
            "end_offset": 11.184000000000001
        },
        "target_timerange": {
            "start_offset": 641.3142857142858,
            "end_offset": 642.912
        },
        "ignore_audio": true,
        "audio_path": null
    },
    {
        "segment_id": "da4a12ac9d8811efbee9b8cef68aba34",
        "text": "His disposition must be dreadful.”",
        "audio_url": "https://v16m-default.akamaized.net/f57aa03c0436dc2d2dd846178291009a/672de605/video/tos/maliva/tos-maliva-v-f15faa-us/oQA9wAVyUFQPRbC24AtSEEp2ALvkWoiaazBiZ/?a=7073&bti=OTU0QDItLmA%3D&ch=0&cr=0&dr=4&er=0&lr=unwatermarked&cd=0%7C0%7C0%7C0&br=312&bt=156&ds=5&ft=.cwOVInz7ThFDGvOXq8Zmo&qs=13&rc=M3AzOW05cjtzdjUzNzhoM0BpM3AzOW05cjtzdjUzNzhoM0BvXnJhMmRrMGpgLS1kLjZzYSNvXnJhMmRrMGpgLS1kLjZzcw%3D%3D&vvpl=1&l=02173103962103400000000000000000000ffff0a00afb97d90e8&btag=e00070000&format=mp3&mime_type=audio_mpeg",
        "source_timerange": {
            "start_offset": 0,
            "end_offset": 2.112
        },
        "target_timerange": {
            "start_offset": 642.912,
            "end_offset": 645.024
        },
        "ignore_audio": false,
        "audio_path": null
    },
    {
        "segment_id": "da4a2a309d8811efbee9b8cef68aba34",
        "text": "“I will not trust myself",
        "audio_url": "https://v16m-default.akamaized.net/dd5aba1f2f0ae943f80a609e83095152/672de608/video/tos/maliva/tos-maliva-v-f15faa-us/oUJfLgKVGEjThk9BEnZQEGDkFifALBaAAEvtAV/?a=7073&bti=OTU0QDItLmA%3D&ch=0&cr=0&dr=4&er=0&lr=unwatermarked&cd=0%7C0%7C0%7C0&br=312&bt=156&ds=5&ft=.cwOVInz7ThFDGvOXq8Zmo&qs=13&rc=Mzk6eWw5cjtzdjUzNzhoM0BpMzk6eWw5cjtzdjUzNzhoM0Bkcmk1MmRrMGpgLS1kLjZzYSNkcmk1MmRrMGpgLS1kLjZzcw%3D%3D&vvpl=1&l=02173103962103400000000000000000000ffff0a00afb97d90e8&btag=e00070000&format=mp3&mime_type=audio_mpeg",
        "source_timerange": {
            "start_offset": 0,
            "end_offset": 1.3200000000000776
        },
        "target_timerange": {
            "start_offset": 645.024,
            "end_offset": 646.344
        },
        "ignore_audio": false,
        "audio_path": null
    },
    {
        "segment_id": "da4a2bc09d8811efbee9b8cef68aba34",
        "text": "on the subject,” replied",
        "audio_url": "https://v16m-default.akamaized.net/dd5aba1f2f0ae943f80a609e83095152/672de608/video/tos/maliva/tos-maliva-v-f15faa-us/oUJfLgKVGEjThk9BEnZQEGDkFifALBaAAEvtAV/?a=7073&bti=OTU0QDItLmA%3D&ch=0&cr=0&dr=4&er=0&lr=unwatermarked&cd=0%7C0%7C0%7C0&br=312&bt=156&ds=5&ft=.cwOVInz7ThFDGvOXq8Zmo&qs=13&rc=Mzk6eWw5cjtzdjUzNzhoM0BpMzk6eWw5cjtzdjUzNzhoM0Bkcmk1MmRrMGpgLS1kLjZzYSNkcmk1MmRrMGpgLS1kLjZzcw%3D%3D&vvpl=1&l=02173103962103400000000000000000000ffff0a00afb97d90e8&btag=e00070000&format=mp3&mime_type=audio_mpeg",
        "source_timerange": {
            "start_offset": 1.32000000000005,
            "end_offset": 2.640000000000014
        },
        "target_timerange": {
            "start_offset": 646.344,
            "end_offset": 647.664
        },
        "ignore_audio": true,
        "audio_path": null
    },
    {
        "segment_id": "da4a2d0a9d8811efbee9b8cef68aba34",
        "text": "Wickham; “_I_ can hardly",
        "audio_url": "https://v16m-default.akamaized.net/dd5aba1f2f0ae943f80a609e83095152/672de608/video/tos/maliva/tos-maliva-v-f15faa-us/oUJfLgKVGEjThk9BEnZQEGDkFifALBaAAEvtAV/?a=7073&bti=OTU0QDItLmA%3D&ch=0&cr=0&dr=4&er=0&lr=unwatermarked&cd=0%7C0%7C0%7C0&br=312&bt=156&ds=5&ft=.cwOVInz7ThFDGvOXq8Zmo&qs=13&rc=Mzk6eWw5cjtzdjUzNzhoM0BpMzk6eWw5cjtzdjUzNzhoM0Bkcmk1MmRrMGpgLS1kLjZzYSNkcmk1MmRrMGpgLS1kLjZzcw%3D%3D&vvpl=1&l=02173103962103400000000000000000000ffff0a00afb97d90e8&btag=e00070000&format=mp3&mime_type=audio_mpeg",
        "source_timerange": {
            "start_offset": 2.6399999999999864,
            "end_offset": 3.9599999999999502
        },
        "target_timerange": {
            "start_offset": 647.664,
            "end_offset": 648.9839999999999
        },
        "ignore_audio": true,
        "audio_path": null
    },
    {
        "segment_id": "da4a2e409d8811efbee9b8cef68aba34",
        "text": "be just to him.”",
        "audio_url": "https://v16m-default.akamaized.net/dd5aba1f2f0ae943f80a609e83095152/672de608/video/tos/maliva/tos-maliva-v-f15faa-us/oUJfLgKVGEjThk9BEnZQEGDkFifALBaAAEvtAV/?a=7073&bti=OTU0QDItLmA%3D&ch=0&cr=0&dr=4&er=0&lr=unwatermarked&cd=0%7C0%7C0%7C0&br=312&bt=156&ds=5&ft=.cwOVInz7ThFDGvOXq8Zmo&qs=13&rc=Mzk6eWw5cjtzdjUzNzhoM0BpMzk6eWw5cjtzdjUzNzhoM0Bkcmk1MmRrMGpgLS1kLjZzYSNkcmk1MmRrMGpgLS1kLjZzcw%3D%3D&vvpl=1&l=02173103962103400000000000000000000ffff0a00afb97d90e8&btag=e00070000&format=mp3&mime_type=audio_mpeg",
        "source_timerange": {
            "start_offset": 3.9599999999999227,
            "end_offset": 5.28
        },
        "target_timerange": {
            "start_offset": 648.9839999999999,
            "end_offset": 650.304
        },
        "ignore_audio": true,
        "audio_path": null
    },
    {
        "segment_id": "da4a4fb09d8811efbee9b8cef68aba34",
        "text": "Elizabeth was again deep in",
        "audio_url": "https://v16m-default.akamaized.net/bf832484643cc697462334ea7a955ff3/672de60b/video/tos/maliva/tos-maliva-v-f15faa-us/oUAB5GnHAkV8EiMhFZLAqEEDtQgJLA3BSJfRae/?a=7073&bti=OTU0QDItLmA%3D&ch=0&cr=0&dr=4&er=0&lr=unwatermarked&cd=0%7C0%7C0%7C0&br=312&bt=156&ds=5&ft=.cwOVInz7ThFDGvOXq8Zmo&qs=13&rc=M3Y6NHg5cjtzdjUzNzhoM0BpM3Y6NHg5cjtzdjUzNzhoM0A2Y3MzMmRrMGpgLS1kLjZzYSM2Y3MzMmRrMGpgLS1kLjZzcw%3D%3D&vvpl=1&l=02173103962103400000000000000000000ffff0a00afb97d90e8&btag=e00070000&format=mp3&mime_type=audio_mpeg",
        "source_timerange": {
            "start_offset": 0,
            "end_offset": 1.4800000000000235
        },
        "target_timerange": {
            "start_offset": 650.304,
            "end_offset": 651.784
        },
        "ignore_audio": false,
        "audio_path": null
    },
    {
        "segment_id": "da4a51369d8811efbee9b8cef68aba34",
        "text": "thought, and after a time",
        "audio_url": "https://v16m-default.akamaized.net/bf832484643cc697462334ea7a955ff3/672de60b/video/tos/maliva/tos-maliva-v-f15faa-us/oUAB5GnHAkV8EiMhFZLAqEEDtQgJLA3BSJfRae/?a=7073&bti=OTU0QDItLmA%3D&ch=0&cr=0&dr=4&er=0&lr=unwatermarked&cd=0%7C0%7C0%7C0&br=312&bt=156&ds=5&ft=.cwOVInz7ThFDGvOXq8Zmo&qs=13&rc=M3Y6NHg5cjtzdjUzNzhoM0BpM3Y6NHg5cjtzdjUzNzhoM0A2Y3MzMmRrMGpgLS1kLjZzYSM2Y3MzMmRrMGpgLS1kLjZzcw%3D%3D&vvpl=1&l=02173103962103400000000000000000000ffff0a00afb97d90e8&btag=e00070000&format=mp3&mime_type=audio_mpeg",
        "source_timerange": {
            "start_offset": 1.4800000000000182,
            "end_offset": 2.9600000000000417
        },
        "target_timerange": {
            "start_offset": 651.784,
            "end_offset": 653.264
        },
        "ignore_audio": true,
        "audio_path": null
    },
    {
        "segment_id": "da4a526c9d8811efbee9b8cef68aba34",
        "text": "exclaimed, “To treat in",
        "audio_url": "https://v16m-default.akamaized.net/bf832484643cc697462334ea7a955ff3/672de60b/video/tos/maliva/tos-maliva-v-f15faa-us/oUAB5GnHAkV8EiMhFZLAqEEDtQgJLA3BSJfRae/?a=7073&bti=OTU0QDItLmA%3D&ch=0&cr=0&dr=4&er=0&lr=unwatermarked&cd=0%7C0%7C0%7C0&br=312&bt=156&ds=5&ft=.cwOVInz7ThFDGvOXq8Zmo&qs=13&rc=M3Y6NHg5cjtzdjUzNzhoM0BpM3Y6NHg5cjtzdjUzNzhoM0A2Y3MzMmRrMGpgLS1kLjZzYSM2Y3MzMmRrMGpgLS1kLjZzcw%3D%3D&vvpl=1&l=02173103962103400000000000000000000ffff0a00afb97d90e8&btag=e00070000&format=mp3&mime_type=audio_mpeg",
        "source_timerange": {
            "start_offset": 2.9600000000000364,
            "end_offset": 4.439999999999946
        },
        "target_timerange": {
            "start_offset": 653.264,
            "end_offset": 654.7439999999999
        },
        "ignore_audio": true,
        "audio_path": null
    },
    {
        "segment_id": "da4a53a29d8811efbee9b8cef68aba34",
        "text": "such a manner the godson,",
        "audio_url": "https://v16m-default.akamaized.net/bf832484643cc697462334ea7a955ff3/672de60b/video/tos/maliva/tos-maliva-v-f15faa-us/oUAB5GnHAkV8EiMhFZLAqEEDtQgJLA3BSJfRae/?a=7073&bti=OTU0QDItLmA%3D&ch=0&cr=0&dr=4&er=0&lr=unwatermarked&cd=0%7C0%7C0%7C0&br=312&bt=156&ds=5&ft=.cwOVInz7ThFDGvOXq8Zmo&qs=13&rc=M3Y6NHg5cjtzdjUzNzhoM0BpM3Y6NHg5cjtzdjUzNzhoM0A2Y3MzMmRrMGpgLS1kLjZzYSM2Y3MzMmRrMGpgLS1kLjZzcw%3D%3D&vvpl=1&l=02173103962103400000000000000000000ffff0a00afb97d90e8&btag=e00070000&format=mp3&mime_type=audio_mpeg",
        "source_timerange": {
            "start_offset": 4.439999999999941,
            "end_offset": 5.919999999999964
        },
        "target_timerange": {
            "start_offset": 654.7439999999999,
            "end_offset": 656.2239999999999
        },
        "ignore_audio": true,
        "audio_path": null
    },
    {
        "segment_id": "da4a54e29d8811efbee9b8cef68aba34",
        "text": "the friend, the favourite",
        "audio_url": "https://v16m-default.akamaized.net/bf832484643cc697462334ea7a955ff3/672de60b/video/tos/maliva/tos-maliva-v-f15faa-us/oUAB5GnHAkV8EiMhFZLAqEEDtQgJLA3BSJfRae/?a=7073&bti=OTU0QDItLmA%3D&ch=0&cr=0&dr=4&er=0&lr=unwatermarked&cd=0%7C0%7C0%7C0&br=312&bt=156&ds=5&ft=.cwOVInz7ThFDGvOXq8Zmo&qs=13&rc=M3Y6NHg5cjtzdjUzNzhoM0BpM3Y6NHg5cjtzdjUzNzhoM0A2Y3MzMmRrMGpgLS1kLjZzYSM2Y3MzMmRrMGpgLS1kLjZzcw%3D%3D&vvpl=1&l=02173103962103400000000000000000000ffff0a00afb97d90e8&btag=e00070000&format=mp3&mime_type=audio_mpeg",
        "source_timerange": {
            "start_offset": 5.919999999999959,
            "end_offset": 7.399999999999983
        },
        "target_timerange": {
            "start_offset": 656.2239999999999,
            "end_offset": 657.704
        },
        "ignore_audio": true,
        "audio_path": null
    },
    {
        "segment_id": "da4a56369d8811efbee9b8cef68aba34",
        "text": "of his father!”",
        "audio_url": "https://v16m-default.akamaized.net/bf832484643cc697462334ea7a955ff3/672de60b/video/tos/maliva/tos-maliva-v-f15faa-us/oUAB5GnHAkV8EiMhFZLAqEEDtQgJLA3BSJfRae/?a=7073&bti=OTU0QDItLmA%3D&ch=0&cr=0&dr=4&er=0&lr=unwatermarked&cd=0%7C0%7C0%7C0&br=312&bt=156&ds=5&ft=.cwOVInz7ThFDGvOXq8Zmo&qs=13&rc=M3Y6NHg5cjtzdjUzNzhoM0BpM3Y6NHg5cjtzdjUzNzhoM0A2Y3MzMmRrMGpgLS1kLjZzYSM2Y3MzMmRrMGpgLS1kLjZzcw%3D%3D&vvpl=1&l=02173103962103400000000000000000000ffff0a00afb97d90e8&btag=e00070000&format=mp3&mime_type=audio_mpeg",
        "source_timerange": {
            "start_offset": 7.399999999999977,
            "end_offset": 8.88
        },
        "target_timerange": {
            "start_offset": 657.704,
            "end_offset": 659.184
        },
        "ignore_audio": true,
        "audio_path": null
    },
    {
        "segment_id": "da4a6e5a9d8811efbee9b8cef68aba34",
        "text": "She could have added, “A young",
        "audio_url": "https://v16m-default.akamaized.net/eead67dbb613b54e7a38b72770297485/672de609/video/tos/maliva/tos-maliva-v-f15faa-us/ogvLBUTZc4kh9AaBAlVREtoHSE2AoyQiAEACi/?a=7073&bti=OTU0QDItLmA%3D&ch=0&cr=0&dr=4&er=0&lr=unwatermarked&cd=0%7C0%7C0%7C0&br=312&bt=156&ds=5&ft=.cwOVInz7ThFDGvOXq8Zmo&qs=13&rc=ajdmOnc5cjtzdjUzNzhoM0BpajdmOnc5cjtzdjUzNzhoM0AwLy8tMmRrMGpgLS1kLjZzYSMwLy8tMmRrMGpgLS1kLjZzcw%3D%3D&vvpl=1&l=02173103962103400000000000000000000ffff0a00afb97d90e8&btag=e00070000&format=mp3&mime_type=audio_mpeg",
        "source_timerange": {
            "start_offset": 0,
            "end_offset": 1.6620000000000106
        },
        "target_timerange": {
            "start_offset": 659.184,
            "end_offset": 660.846
        },
        "ignore_audio": false,
        "audio_path": null
    },
    {
        "segment_id": "da4a6fd69d8811efbee9b8cef68aba34",
        "text": "man, too, like _you_, whose",
        "audio_url": "https://v16m-default.akamaized.net/eead67dbb613b54e7a38b72770297485/672de609/video/tos/maliva/tos-maliva-v-f15faa-us/ogvLBUTZc4kh9AaBAlVREtoHSE2AoyQiAEACi/?a=7073&bti=OTU0QDItLmA%3D&ch=0&cr=0&dr=4&er=0&lr=unwatermarked&cd=0%7C0%7C0%7C0&br=312&bt=156&ds=5&ft=.cwOVInz7ThFDGvOXq8Zmo&qs=13&rc=ajdmOnc5cjtzdjUzNzhoM0BpajdmOnc5cjtzdjUzNzhoM0AwLy8tMmRrMGpgLS1kLjZzYSMwLy8tMmRrMGpgLS1kLjZzcw%3D%3D&vvpl=1&l=02173103962103400000000000000000000ffff0a00afb97d90e8&btag=e00070000&format=mp3&mime_type=audio_mpeg",
        "source_timerange": {
            "start_offset": 1.6620000000000346,
            "end_offset": 3.324000000000045
        },
        "target_timerange": {
            "start_offset": 660.846,
            "end_offset": 662.508
        },
        "ignore_audio": true,
        "audio_path": null
    },
    {
        "segment_id": "da4a712a9d8811efbee9b8cef68aba34",
        "text": "very countenance may vouch for",
        "audio_url": "https://v16m-default.akamaized.net/eead67dbb613b54e7a38b72770297485/672de609/video/tos/maliva/tos-maliva-v-f15faa-us/ogvLBUTZc4kh9AaBAlVREtoHSE2AoyQiAEACi/?a=7073&bti=OTU0QDItLmA%3D&ch=0&cr=0&dr=4&er=0&lr=unwatermarked&cd=0%7C0%7C0%7C0&br=312&bt=156&ds=5&ft=.cwOVInz7ThFDGvOXq8Zmo&qs=13&rc=ajdmOnc5cjtzdjUzNzhoM0BpajdmOnc5cjtzdjUzNzhoM0AwLy8tMmRrMGpgLS1kLjZzYSMwLy8tMmRrMGpgLS1kLjZzcw%3D%3D&vvpl=1&l=02173103962103400000000000000000000ffff0a00afb97d90e8&btag=e00070000&format=mp3&mime_type=audio_mpeg",
        "source_timerange": {
            "start_offset": 3.324000000000069,
            "end_offset": 4.985999999999966
        },
        "target_timerange": {
            "start_offset": 662.508,
            "end_offset": 664.17
        },
        "ignore_audio": true,
        "audio_path": null
    },
    {
        "segment_id": "da4a726a9d8811efbee9b8cef68aba34",
        "text": "your being amiable.”",
        "audio_url": "https://v16m-default.akamaized.net/eead67dbb613b54e7a38b72770297485/672de609/video/tos/maliva/tos-maliva-v-f15faa-us/ogvLBUTZc4kh9AaBAlVREtoHSE2AoyQiAEACi/?a=7073&bti=OTU0QDItLmA%3D&ch=0&cr=0&dr=4&er=0&lr=unwatermarked&cd=0%7C0%7C0%7C0&br=312&bt=156&ds=5&ft=.cwOVInz7ThFDGvOXq8Zmo&qs=13&rc=ajdmOnc5cjtzdjUzNzhoM0BpajdmOnc5cjtzdjUzNzhoM0AwLy8tMmRrMGpgLS1kLjZzYSMwLy8tMmRrMGpgLS1kLjZzcw%3D%3D&vvpl=1&l=02173103962103400000000000000000000ffff0a00afb97d90e8&btag=e00070000&format=mp3&mime_type=audio_mpeg",
        "source_timerange": {
            "start_offset": 4.98599999999999,
            "end_offset": 6.648000000000001
        },
        "target_timerange": {
            "start_offset": 664.17,
            "end_offset": 665.832
        },
        "ignore_audio": true,
        "audio_path": null
    },
    {
        "segment_id": "da4a990c9d8811efbee9b8cef68aba34",
        "text": "But she contented herself",
        "audio_url": "https://v16m-default.akamaized.net/3a6691907e8be6b98802ff5023e9462a/672de60d/video/tos/maliva/tos-maliva-v-f15faa-us/ocUJiAZkBpCvRKt1yaStVAiE4YovRQhEA2AIQ/?a=7073&bti=OTU0QDItLmA%3D&ch=0&cr=0&dr=4&er=0&lr=unwatermarked&cd=0%7C0%7C0%7C0&br=312&bt=156&ds=5&ft=.cwOVInz7ThFDGvOXq8Zmo&qs=13&rc=anJvZG85cjtzdjUzNzhoM0BpanJvZG85cjtzdjUzNzhoM0AxL2E1MmRrMGpgLS1kLjZzYSMxL2E1MmRrMGpgLS1kLjZzcw%3D%3D&vvpl=1&l=02173103962103400000000000000000000ffff0a00afb97d90e8&btag=e00070000&format=mp3&mime_type=audio_mpeg",
        "source_timerange": {
            "start_offset": 0,
            "end_offset": 1.436571428571444
        },
        "target_timerange": {
            "start_offset": 665.832,
            "end_offset": 667.2685714285715
        },
        "ignore_audio": false,
        "audio_path": null
    },
    {
        "segment_id": "da4a9a889d8811efbee9b8cef68aba34",
        "text": "with--“And one, too, who",
        "audio_url": "https://v16m-default.akamaized.net/3a6691907e8be6b98802ff5023e9462a/672de60d/video/tos/maliva/tos-maliva-v-f15faa-us/ocUJiAZkBpCvRKt1yaStVAiE4YovRQhEA2AIQ/?a=7073&bti=OTU0QDItLmA%3D&ch=0&cr=0&dr=4&er=0&lr=unwatermarked&cd=0%7C0%7C0%7C0&br=312&bt=156&ds=5&ft=.cwOVInz7ThFDGvOXq8Zmo&qs=13&rc=anJvZG85cjtzdjUzNzhoM0BpanJvZG85cjtzdjUzNzhoM0AxL2E1MmRrMGpgLS1kLjZzYSMxL2E1MmRrMGpgLS1kLjZzcw%3D%3D&vvpl=1&l=02173103962103400000000000000000000ffff0a00afb97d90e8&btag=e00070000&format=mp3&mime_type=audio_mpeg",
        "source_timerange": {
            "start_offset": 1.436571428571483,
            "end_offset": 2.8731428571428133
        },
        "target_timerange": {
            "start_offset": 667.2685714285715,
            "end_offset": 668.7051428571428
        },
        "ignore_audio": true,
        "audio_path": null
    },
    {
        "segment_id": "da4a9bc89d8811efbee9b8cef68aba34",
        "text": "had probably been his own",
        "audio_url": "https://v16m-default.akamaized.net/3a6691907e8be6b98802ff5023e9462a/672de60d/video/tos/maliva/tos-maliva-v-f15faa-us/ocUJiAZkBpCvRKt1yaStVAiE4YovRQhEA2AIQ/?a=7073&bti=OTU0QDItLmA%3D&ch=0&cr=0&dr=4&er=0&lr=unwatermarked&cd=0%7C0%7C0%7C0&br=312&bt=156&ds=5&ft=.cwOVInz7ThFDGvOXq8Zmo&qs=13&rc=anJvZG85cjtzdjUzNzhoM0BpanJvZG85cjtzdjUzNzhoM0AxL2E1MmRrMGpgLS1kLjZzYSMxL2E1MmRrMGpgLS1kLjZzcw%3D%3D&vvpl=1&l=02173103962103400000000000000000000ffff0a00afb97d90e8&btag=e00070000&format=mp3&mime_type=audio_mpeg",
        "source_timerange": {
            "start_offset": 2.8731428571428523,
            "end_offset": 4.309714285714296
        },
        "target_timerange": {
            "start_offset": 668.7051428571428,
            "end_offset": 670.1417142857143
        },
        "ignore_audio": true,
        "audio_path": null
    },
    {
        "segment_id": "da4a9d309d8811efbee9b8cef68aba34",
        "text": "companion from childhood,",
        "audio_url": "https://v16m-default.akamaized.net/3a6691907e8be6b98802ff5023e9462a/672de60d/video/tos/maliva/tos-maliva-v-f15faa-us/ocUJiAZkBpCvRKt1yaStVAiE4YovRQhEA2AIQ/?a=7073&bti=OTU0QDItLmA%3D&ch=0&cr=0&dr=4&er=0&lr=unwatermarked&cd=0%7C0%7C0%7C0&br=312&bt=156&ds=5&ft=.cwOVInz7ThFDGvOXq8Zmo&qs=13&rc=anJvZG85cjtzdjUzNzhoM0BpanJvZG85cjtzdjUzNzhoM0AxL2E1MmRrMGpgLS1kLjZzYSMxL2E1MmRrMGpgLS1kLjZzcw%3D%3D&vvpl=1&l=02173103962103400000000000000000000ffff0a00afb97d90e8&btag=e00070000&format=mp3&mime_type=audio_mpeg",
        "source_timerange": {
            "start_offset": 4.309714285714335,
            "end_offset": 5.746285714285666
        },
        "target_timerange": {
            "start_offset": 670.1417142857143,
            "end_offset": 671.5782857142857
        },
        "ignore_audio": true,
        "audio_path": null
    },
    {
        "segment_id": "da4a9e709d8811efbee9b8cef68aba34",
        "text": "connected together, as I",
        "audio_url": "https://v16m-default.akamaized.net/3a6691907e8be6b98802ff5023e9462a/672de60d/video/tos/maliva/tos-maliva-v-f15faa-us/ocUJiAZkBpCvRKt1yaStVAiE4YovRQhEA2AIQ/?a=7073&bti=OTU0QDItLmA%3D&ch=0&cr=0&dr=4&er=0&lr=unwatermarked&cd=0%7C0%7C0%7C0&br=312&bt=156&ds=5&ft=.cwOVInz7ThFDGvOXq8Zmo&qs=13&rc=anJvZG85cjtzdjUzNzhoM0BpanJvZG85cjtzdjUzNzhoM0AxL2E1MmRrMGpgLS1kLjZzYSMxL2E1MmRrMGpgLS1kLjZzcw%3D%3D&vvpl=1&l=02173103962103400000000000000000000ffff0a00afb97d90e8&btag=e00070000&format=mp3&mime_type=audio_mpeg",
        "source_timerange": {
            "start_offset": 5.746285714285705,
            "end_offset": 7.182857142857149
        },
        "target_timerange": {
            "start_offset": 671.5782857142857,
            "end_offset": 673.0148571428572
        },
        "ignore_audio": true,
        "audio_path": null
    },
    {
        "segment_id": "da4a9fba9d8811efbee9b8cef68aba34",
        "text": "think you said, in the",
        "audio_url": "https://v16m-default.akamaized.net/3a6691907e8be6b98802ff5023e9462a/672de60d/video/tos/maliva/tos-maliva-v-f15faa-us/ocUJiAZkBpCvRKt1yaStVAiE4YovRQhEA2AIQ/?a=7073&bti=OTU0QDItLmA%3D&ch=0&cr=0&dr=4&er=0&lr=unwatermarked&cd=0%7C0%7C0%7C0&br=312&bt=156&ds=5&ft=.cwOVInz7ThFDGvOXq8Zmo&qs=13&rc=anJvZG85cjtzdjUzNzhoM0BpanJvZG85cjtzdjUzNzhoM0AxL2E1MmRrMGpgLS1kLjZzYSMxL2E1MmRrMGpgLS1kLjZzcw%3D%3D&vvpl=1&l=02173103962103400000000000000000000ffff0a00afb97d90e8&btag=e00070000&format=mp3&mime_type=audio_mpeg",
        "source_timerange": {
            "start_offset": 7.182857142857188,
            "end_offset": 8.619428571428518
        },
        "target_timerange": {
            "start_offset": 673.0148571428572,
            "end_offset": 674.4514285714286
        },
        "ignore_audio": true,
        "audio_path": null
    },
    {
        "segment_id": "da4aa0fa9d8811efbee9b8cef68aba34",
        "text": "closest manner.”",
        "audio_url": "https://v16m-default.akamaized.net/3a6691907e8be6b98802ff5023e9462a/672de60d/video/tos/maliva/tos-maliva-v-f15faa-us/ocUJiAZkBpCvRKt1yaStVAiE4YovRQhEA2AIQ/?a=7073&bti=OTU0QDItLmA%3D&ch=0&cr=0&dr=4&er=0&lr=unwatermarked&cd=0%7C0%7C0%7C0&br=312&bt=156&ds=5&ft=.cwOVInz7ThFDGvOXq8Zmo&qs=13&rc=anJvZG85cjtzdjUzNzhoM0BpanJvZG85cjtzdjUzNzhoM0AxL2E1MmRrMGpgLS1kLjZzYSMxL2E1MmRrMGpgLS1kLjZzcw%3D%3D&vvpl=1&l=02173103962103400000000000000000000ffff0a00afb97d90e8&btag=e00070000&format=mp3&mime_type=audio_mpeg",
        "source_timerange": {
            "start_offset": 8.619428571428557,
            "end_offset": 10.056000000000001
        },
        "target_timerange": {
            "start_offset": 674.4514285714286,
            "end_offset": 675.888
        },
        "ignore_audio": true,
        "audio_path": null
    },
    {
        "segment_id": "da4accba9d8811efbee9b8cef68aba34",
        "text": "“We were born in the same",
        "audio_url": "https://v16m-default.akamaized.net/4f636cc4c0962d25d905fb14eac0e2ab/672de60e/video/tos/maliva/tos-maliva-v-f15faa-us/o8AEhAiBEFL9ILAQEVBDJifyZGkAG2ntyBufBa/?a=7073&bti=OTU0QDItLmA%3D&ch=0&cr=0&dr=4&er=0&lr=unwatermarked&cd=0%7C0%7C0%7C0&br=312&bt=156&ds=5&ft=.cwOVInz7ThFDGvOXq8Zmo&qs=13&rc=ajl5Z3U5cjtzdjUzNzhoM0Bpajl5Z3U5cjtzdjUzNzhoM0AtMW9jMmRrMGpgLS1kLjZzYSMtMW9jMmRrMGpgLS1kLjZzcw%3D%3D&vvpl=1&l=02173103962103400000000000000000000ffff0a00afb97d90e8&btag=e00070000&format=mp3&mime_type=audio_mpeg",
        "source_timerange": {
            "start_offset": 0,
            "end_offset": 1.4550000000000551
        },
        "target_timerange": {
            "start_offset": 675.888,
            "end_offset": 677.3430000000001
        },
        "ignore_audio": false,
        "audio_path": null
    },
    {
        "segment_id": "da4ace689d8811efbee9b8cef68aba34",
        "text": "parish, within the same",
        "audio_url": "https://v16m-default.akamaized.net/4f636cc4c0962d25d905fb14eac0e2ab/672de60e/video/tos/maliva/tos-maliva-v-f15faa-us/o8AEhAiBEFL9ILAQEVBDJifyZGkAG2ntyBufBa/?a=7073&bti=OTU0QDItLmA%3D&ch=0&cr=0&dr=4&er=0&lr=unwatermarked&cd=0%7C0%7C0%7C0&br=312&bt=156&ds=5&ft=.cwOVInz7ThFDGvOXq8Zmo&qs=13&rc=ajl5Z3U5cjtzdjUzNzhoM0Bpajl5Z3U5cjtzdjUzNzhoM0AtMW9jMmRrMGpgLS1kLjZzYSMtMW9jMmRrMGpgLS1kLjZzcw%3D%3D&vvpl=1&l=02173103962103400000000000000000000ffff0a00afb97d90e8&btag=e00070000&format=mp3&mime_type=audio_mpeg",
        "source_timerange": {
            "start_offset": 1.455000000000041,
            "end_offset": 2.9099999999999824
        },
        "target_timerange": {
            "start_offset": 677.3430000000001,
            "end_offset": 678.798
        },
        "ignore_audio": true,
        "audio_path": null
    },
    {
        "segment_id": "da4acfc69d8811efbee9b8cef68aba34",
        "text": "park; the greatest part of",
        "audio_url": "https://v16m-default.akamaized.net/4f636cc4c0962d25d905fb14eac0e2ab/672de60e/video/tos/maliva/tos-maliva-v-f15faa-us/o8AEhAiBEFL9ILAQEVBDJifyZGkAG2ntyBufBa/?a=7073&bti=OTU0QDItLmA%3D&ch=0&cr=0&dr=4&er=0&lr=unwatermarked&cd=0%7C0%7C0%7C0&br=312&bt=156&ds=5&ft=.cwOVInz7ThFDGvOXq8Zmo&qs=13&rc=ajl5Z3U5cjtzdjUzNzhoM0Bpajl5Z3U5cjtzdjUzNzhoM0AtMW9jMmRrMGpgLS1kLjZzYSMtMW9jMmRrMGpgLS1kLjZzcw%3D%3D&vvpl=1&l=02173103962103400000000000000000000ffff0a00afb97d90e8&btag=e00070000&format=mp3&mime_type=audio_mpeg",
        "source_timerange": {
            "start_offset": 2.909999999999968,
            "end_offset": 4.365000000000023
        },
        "target_timerange": {
            "start_offset": 678.798,
            "end_offset": 680.253
        },
        "ignore_audio": true,
        "audio_path": null
    },
    {
        "segment_id": "da4ad1569d8811efbee9b8cef68aba34",
        "text": "our youth was passed",
        "audio_url": "https://v16m-default.akamaized.net/4f636cc4c0962d25d905fb14eac0e2ab/672de60e/video/tos/maliva/tos-maliva-v-f15faa-us/o8AEhAiBEFL9ILAQEVBDJifyZGkAG2ntyBufBa/?a=7073&bti=OTU0QDItLmA%3D&ch=0&cr=0&dr=4&er=0&lr=unwatermarked&cd=0%7C0%7C0%7C0&br=312&bt=156&ds=5&ft=.cwOVInz7ThFDGvOXq8Zmo&qs=13&rc=ajl5Z3U5cjtzdjUzNzhoM0Bpajl5Z3U5cjtzdjUzNzhoM0AtMW9jMmRrMGpgLS1kLjZzYSMtMW9jMmRrMGpgLS1kLjZzcw%3D%3D&vvpl=1&l=02173103962103400000000000000000000ffff0a00afb97d90e8&btag=e00070000&format=mp3&mime_type=audio_mpeg",
        "source_timerange": {
            "start_offset": 4.365000000000009,
            "end_offset": 5.820000000000064
        },
        "target_timerange": {
            "start_offset": 680.253,
            "end_offset": 681.7080000000001
        },
        "ignore_audio": true,
        "audio_path": null
    },
    {
        "segment_id": "da4ad28c9d8811efbee9b8cef68aba34",
        "text": "together: inmates of the",
        "audio_url": "https://v16m-default.akamaized.net/4f636cc4c0962d25d905fb14eac0e2ab/672de60e/video/tos/maliva/tos-maliva-v-f15faa-us/o8AEhAiBEFL9ILAQEVBDJifyZGkAG2ntyBufBa/?a=7073&bti=OTU0QDItLmA%3D&ch=0&cr=0&dr=4&er=0&lr=unwatermarked&cd=0%7C0%7C0%7C0&br=312&bt=156&ds=5&ft=.cwOVInz7ThFDGvOXq8Zmo&qs=13&rc=ajl5Z3U5cjtzdjUzNzhoM0Bpajl5Z3U5cjtzdjUzNzhoM0AtMW9jMmRrMGpgLS1kLjZzYSMtMW9jMmRrMGpgLS1kLjZzcw%3D%3D&vvpl=1&l=02173103962103400000000000000000000ffff0a00afb97d90e8&btag=e00070000&format=mp3&mime_type=audio_mpeg",
        "source_timerange": {
            "start_offset": 5.82000000000005,
            "end_offset": 7.2749999999999915
        },
        "target_timerange": {
            "start_offset": 681.7080000000001,
            "end_offset": 683.163
        },
        "ignore_audio": true,
        "audio_path": null
    },
    {
        "segment_id": "da4ad3cc9d8811efbee9b8cef68aba34",
        "text": "same house, sharing the",
        "audio_url": "https://v16m-default.akamaized.net/4f636cc4c0962d25d905fb14eac0e2ab/672de60e/video/tos/maliva/tos-maliva-v-f15faa-us/o8AEhAiBEFL9ILAQEVBDJifyZGkAG2ntyBufBa/?a=7073&bti=OTU0QDItLmA%3D&ch=0&cr=0&dr=4&er=0&lr=unwatermarked&cd=0%7C0%7C0%7C0&br=312&bt=156&ds=5&ft=.cwOVInz7ThFDGvOXq8Zmo&qs=13&rc=ajl5Z3U5cjtzdjUzNzhoM0Bpajl5Z3U5cjtzdjUzNzhoM0AtMW9jMmRrMGpgLS1kLjZzYSMtMW9jMmRrMGpgLS1kLjZzcw%3D%3D&vvpl=1&l=02173103962103400000000000000000000ffff0a00afb97d90e8&btag=e00070000&format=mp3&mime_type=audio_mpeg",
        "source_timerange": {
            "start_offset": 7.274999999999977,
            "end_offset": 8.730000000000032
        },
        "target_timerange": {
            "start_offset": 683.163,
            "end_offset": 684.618
        },
        "ignore_audio": true,
        "audio_path": null
    },
    {
        "segment_id": "da4ad5529d8811efbee9b8cef68aba34",
        "text": "same amusements, objects of",
        "audio_url": "https://v16m-default.akamaized.net/4f636cc4c0962d25d905fb14eac0e2ab/672de60e/video/tos/maliva/tos-maliva-v-f15faa-us/o8AEhAiBEFL9ILAQEVBDJifyZGkAG2ntyBufBa/?a=7073&bti=OTU0QDItLmA%3D&ch=0&cr=0&dr=4&er=0&lr=unwatermarked&cd=0%7C0%7C0%7C0&br=312&bt=156&ds=5&ft=.cwOVInz7ThFDGvOXq8Zmo&qs=13&rc=ajl5Z3U5cjtzdjUzNzhoM0Bpajl5Z3U5cjtzdjUzNzhoM0AtMW9jMmRrMGpgLS1kLjZzYSMtMW9jMmRrMGpgLS1kLjZzcw%3D%3D&vvpl=1&l=02173103962103400000000000000000000ffff0a00afb97d90e8&btag=e00070000&format=mp3&mime_type=audio_mpeg",
        "source_timerange": {
            "start_offset": 8.730000000000018,
            "end_offset": 10.18499999999996
        },
        "target_timerange": {
            "start_offset": 684.618,
            "end_offset": 686.073
        },
        "ignore_audio": true,
        "audio_path": null
    },
    {
        "segment_id": "da4ad6929d8811efbee9b8cef68aba34",
        "text": "the same parental care. _",
        "audio_url": "https://v16m-default.akamaized.net/4f636cc4c0962d25d905fb14eac0e2ab/672de60e/video/tos/maliva/tos-maliva-v-f15faa-us/o8AEhAiBEFL9ILAQEVBDJifyZGkAG2ntyBufBa/?a=7073&bti=OTU0QDItLmA%3D&ch=0&cr=0&dr=4&er=0&lr=unwatermarked&cd=0%7C0%7C0%7C0&br=312&bt=156&ds=5&ft=.cwOVInz7ThFDGvOXq8Zmo&qs=13&rc=ajl5Z3U5cjtzdjUzNzhoM0Bpajl5Z3U5cjtzdjUzNzhoM0AtMW9jMmRrMGpgLS1kLjZzYSMtMW9jMmRrMGpgLS1kLjZzcw%3D%3D&vvpl=1&l=02173103962103400000000000000000000ffff0a00afb97d90e8&btag=e00070000&format=mp3&mime_type=audio_mpeg",
        "source_timerange": {
            "start_offset": 10.184999999999945,
            "end_offset": 11.64
        },
        "target_timerange": {
            "start_offset": 686.073,
            "end_offset": 687.528
        },
        "ignore_audio": true,
        "audio_path": null
    },
    {
        "segment_id": "da4b08c49d8811efbee9b8cef68aba34",
        "text": "My_ father began life in the",
        "audio_url": "https://v16m-default.akamaized.net/ff428bd795fffd3aaf7b01f9569d4bd5/672de610/video/tos/maliva/tos-maliva-v-f15faa-us/oYnAJWteiBpEZLFV1BWEMaIAALhqQqfApGkDEr/?a=7073&bti=OTU0QDItLmA%3D&ch=0&cr=0&dr=4&er=0&lr=unwatermarked&cd=0%7C0%7C0%7C0&br=312&bt=156&ds=5&ft=.cwOVInz7ThFDGvOXq8Zmo&qs=13&rc=ajw8NnQ5cjtzdjUzNzhoM0Bpajw8NnQ5cjtzdjUzNzhoM0BpYTJzMmRrMGpgLS1kLjZzYSNpYTJzMmRrMGpgLS1kLjZzcw%3D%3D&vvpl=1&l=02173103962103400000000000000000000ffff0a00afb97d90e8&btag=e00070000&format=mp3&mime_type=audio_mpeg",
        "source_timerange": {
            "start_offset": 0,
            "end_offset": 1.5040000000000742
        },
        "target_timerange": {
            "start_offset": 687.528,
            "end_offset": 689.032
        },
        "ignore_audio": false,
        "audio_path": null
    },
    {
        "segment_id": "da4b0a549d8811efbee9b8cef68aba34",
        "text": "profession which your uncle,",
        "audio_url": "https://v16m-default.akamaized.net/ff428bd795fffd3aaf7b01f9569d4bd5/672de610/video/tos/maliva/tos-maliva-v-f15faa-us/oYnAJWteiBpEZLFV1BWEMaIAALhqQqfApGkDEr/?a=7073&bti=OTU0QDItLmA%3D&ch=0&cr=0&dr=4&er=0&lr=unwatermarked&cd=0%7C0%7C0%7C0&br=312&bt=156&ds=5&ft=.cwOVInz7ThFDGvOXq8Zmo&qs=13&rc=ajw8NnQ5cjtzdjUzNzhoM0Bpajw8NnQ5cjtzdjUzNzhoM0BpYTJzMmRrMGpgLS1kLjZzYSNpYTJzMmRrMGpgLS1kLjZzcw%3D%3D&vvpl=1&l=02173103962103400000000000000000000ffff0a00afb97d90e8&btag=e00070000&format=mp3&mime_type=audio_mpeg",
        "source_timerange": {
            "start_offset": 1.504000000000019,
            "end_offset": 3.0080000000000933
        },
        "target_timerange": {
            "start_offset": 689.032,
            "end_offset": 690.5360000000001
        },
        "ignore_audio": true,
        "audio_path": null
    },
    {
        "segment_id": "da4b0b8a9d8811efbee9b8cef68aba34",
        "text": "Mr. Philips, appears to do",
        "audio_url": "https://v16m-default.akamaized.net/ff428bd795fffd3aaf7b01f9569d4bd5/672de610/video/tos/maliva/tos-maliva-v-f15faa-us/oYnAJWteiBpEZLFV1BWEMaIAALhqQqfApGkDEr/?a=7073&bti=OTU0QDItLmA%3D&ch=0&cr=0&dr=4&er=0&lr=unwatermarked&cd=0%7C0%7C0%7C0&br=312&bt=156&ds=5&ft=.cwOVInz7ThFDGvOXq8Zmo&qs=13&rc=ajw8NnQ5cjtzdjUzNzhoM0Bpajw8NnQ5cjtzdjUzNzhoM0BpYTJzMmRrMGpgLS1kLjZzYSNpYTJzMmRrMGpgLS1kLjZzcw%3D%3D&vvpl=1&l=02173103962103400000000000000000000ffff0a00afb97d90e8&btag=e00070000&format=mp3&mime_type=audio_mpeg",
        "source_timerange": {
            "start_offset": 3.008000000000038,
            "end_offset": 4.511999999999999
        },
        "target_timerange": {
            "start_offset": 690.5360000000001,
            "end_offset": 692.04
        },
        "ignore_audio": true,
        "audio_path": null
    },
    {
        "segment_id": "da4b0cca9d8811efbee9b8cef68aba34",
        "text": "so much credit to; but he",
        "audio_url": "https://v16m-default.akamaized.net/ff428bd795fffd3aaf7b01f9569d4bd5/672de610/video/tos/maliva/tos-maliva-v-f15faa-us/oYnAJWteiBpEZLFV1BWEMaIAALhqQqfApGkDEr/?a=7073&bti=OTU0QDItLmA%3D&ch=0&cr=0&dr=4&er=0&lr=unwatermarked&cd=0%7C0%7C0%7C0&br=312&bt=156&ds=5&ft=.cwOVInz7ThFDGvOXq8Zmo&qs=13&rc=ajw8NnQ5cjtzdjUzNzhoM0Bpajw8NnQ5cjtzdjUzNzhoM0BpYTJzMmRrMGpgLS1kLjZzYSNpYTJzMmRrMGpgLS1kLjZzcw%3D%3D&vvpl=1&l=02173103962103400000000000000000000ffff0a00afb97d90e8&btag=e00070000&format=mp3&mime_type=audio_mpeg",
        "source_timerange": {
            "start_offset": 4.511999999999944,
            "end_offset": 6.016000000000018
        },
        "target_timerange": {
            "start_offset": 692.04,
            "end_offset": 693.544
        },
        "ignore_audio": true,
        "audio_path": null
    },
    {
        "segment_id": "da4b0e009d8811efbee9b8cef68aba34",
        "text": "gave up everything to be of",
        "audio_url": "https://v16m-default.akamaized.net/ff428bd795fffd3aaf7b01f9569d4bd5/672de610/video/tos/maliva/tos-maliva-v-f15faa-us/oYnAJWteiBpEZLFV1BWEMaIAALhqQqfApGkDEr/?a=7073&bti=OTU0QDItLmA%3D&ch=0&cr=0&dr=4&er=0&lr=unwatermarked&cd=0%7C0%7C0%7C0&br=312&bt=156&ds=5&ft=.cwOVInz7ThFDGvOXq8Zmo&qs=13&rc=ajw8NnQ5cjtzdjUzNzhoM0Bpajw8NnQ5cjtzdjUzNzhoM0BpYTJzMmRrMGpgLS1kLjZzYSNpYTJzMmRrMGpgLS1kLjZzcw%3D%3D&vvpl=1&l=02173103962103400000000000000000000ffff0a00afb97d90e8&btag=e00070000&format=mp3&mime_type=audio_mpeg",
        "source_timerange": {
            "start_offset": 6.015999999999963,
            "end_offset": 7.520000000000037
        },
        "target_timerange": {
            "start_offset": 693.544,
            "end_offset": 695.048
        },
        "ignore_audio": true,
        "audio_path": null
    },
    {
        "segment_id": "da4b0f2c9d8811efbee9b8cef68aba34",
        "text": "use to the late Mr. Darcy,",
        "audio_url": "https://v16m-default.akamaized.net/ff428bd795fffd3aaf7b01f9569d4bd5/672de610/video/tos/maliva/tos-maliva-v-f15faa-us/oYnAJWteiBpEZLFV1BWEMaIAALhqQqfApGkDEr/?a=7073&bti=OTU0QDItLmA%3D&ch=0&cr=0&dr=4&er=0&lr=unwatermarked&cd=0%7C0%7C0%7C0&br=312&bt=156&ds=5&ft=.cwOVInz7ThFDGvOXq8Zmo&qs=13&rc=ajw8NnQ5cjtzdjUzNzhoM0Bpajw8NnQ5cjtzdjUzNzhoM0BpYTJzMmRrMGpgLS1kLjZzYSNpYTJzMmRrMGpgLS1kLjZzcw%3D%3D&vvpl=1&l=02173103962103400000000000000000000ffff0a00afb97d90e8&btag=e00070000&format=mp3&mime_type=audio_mpeg",
        "source_timerange": {
            "start_offset": 7.519999999999982,
            "end_offset": 9.024000000000056
        },
        "target_timerange": {
            "start_offset": 695.048,
            "end_offset": 696.552
        },
        "ignore_audio": true,
        "audio_path": null
    },
    {
        "segment_id": "da4b104e9d8811efbee9b8cef68aba34",
        "text": "and devoted all his time to",
        "audio_url": "https://v16m-default.akamaized.net/ff428bd795fffd3aaf7b01f9569d4bd5/672de610/video/tos/maliva/tos-maliva-v-f15faa-us/oYnAJWteiBpEZLFV1BWEMaIAALhqQqfApGkDEr/?a=7073&bti=OTU0QDItLmA%3D&ch=0&cr=0&dr=4&er=0&lr=unwatermarked&cd=0%7C0%7C0%7C0&br=312&bt=156&ds=5&ft=.cwOVInz7ThFDGvOXq8Zmo&qs=13&rc=ajw8NnQ5cjtzdjUzNzhoM0Bpajw8NnQ5cjtzdjUzNzhoM0BpYTJzMmRrMGpgLS1kLjZzYSNpYTJzMmRrMGpgLS1kLjZzcw%3D%3D&vvpl=1&l=02173103962103400000000000000000000ffff0a00afb97d90e8&btag=e00070000&format=mp3&mime_type=audio_mpeg",
        "source_timerange": {
            "start_offset": 9.024000000000001,
            "end_offset": 10.527999999999961
        },
        "target_timerange": {
            "start_offset": 696.552,
            "end_offset": 698.0559999999999
        },
        "ignore_audio": true,
        "audio_path": null
    },
    {
        "segment_id": "da4b117a9d8811efbee9b8cef68aba34",
        "text": "the care of the Pemberley",
        "audio_url": "https://v16m-default.akamaized.net/ff428bd795fffd3aaf7b01f9569d4bd5/672de610/video/tos/maliva/tos-maliva-v-f15faa-us/oYnAJWteiBpEZLFV1BWEMaIAALhqQqfApGkDEr/?a=7073&bti=OTU0QDItLmA%3D&ch=0&cr=0&dr=4&er=0&lr=unwatermarked&cd=0%7C0%7C0%7C0&br=312&bt=156&ds=5&ft=.cwOVInz7ThFDGvOXq8Zmo&qs=13&rc=ajw8NnQ5cjtzdjUzNzhoM0Bpajw8NnQ5cjtzdjUzNzhoM0BpYTJzMmRrMGpgLS1kLjZzYSNpYTJzMmRrMGpgLS1kLjZzcw%3D%3D&vvpl=1&l=02173103962103400000000000000000000ffff0a00afb97d90e8&btag=e00070000&format=mp3&mime_type=audio_mpeg",
        "source_timerange": {
            "start_offset": 10.527999999999906,
            "end_offset": 12.03199999999998
        },
        "target_timerange": {
            "start_offset": 698.0559999999999,
            "end_offset": 699.56
        },
        "ignore_audio": true,
        "audio_path": null
    },
    {
        "segment_id": "da4b12b09d8811efbee9b8cef68aba34",
        "text": "property.",
        "audio_url": "https://v16m-default.akamaized.net/ff428bd795fffd3aaf7b01f9569d4bd5/672de610/video/tos/maliva/tos-maliva-v-f15faa-us/oYnAJWteiBpEZLFV1BWEMaIAALhqQqfApGkDEr/?a=7073&bti=OTU0QDItLmA%3D&ch=0&cr=0&dr=4&er=0&lr=unwatermarked&cd=0%7C0%7C0%7C0&br=312&bt=156&ds=5&ft=.cwOVInz7ThFDGvOXq8Zmo&qs=13&rc=ajw8NnQ5cjtzdjUzNzhoM0Bpajw8NnQ5cjtzdjUzNzhoM0BpYTJzMmRrMGpgLS1kLjZzYSNpYTJzMmRrMGpgLS1kLjZzcw%3D%3D&vvpl=1&l=02173103962103400000000000000000000ffff0a00afb97d90e8&btag=e00070000&format=mp3&mime_type=audio_mpeg",
        "source_timerange": {
            "start_offset": 12.031999999999925,
            "end_offset": 13.536
        },
        "target_timerange": {
            "start_offset": 699.56,
            "end_offset": 701.064
        },
        "ignore_audio": true,
        "audio_path": null
    },
    {
        "segment_id": "da4b29809d8811efbee9b8cef68aba34",
        "text": "He was most highly",
        "audio_url": "https://v16m-default.akamaized.net/20a58aa213cb0d4b03b0710311e4ba1d/672de608/video/tos/maliva/tos-maliva-v-f15faa-us/oc8vZ4AaAE2ESRiyvQVi4bALt79AoC75B4Uk4/?a=7073&bti=OTU0QDItLmA%3D&ch=0&cr=0&dr=4&er=0&lr=unwatermarked&cd=0%7C0%7C0%7C0&br=312&bt=156&ds=5&ft=.cwOVInz7ThFDGvOXq8Zmo&qs=13&rc=anV5aHU5cjtzdjUzNzhoM0BpanV5aHU5cjtzdjUzNzhoM0BwZDJwMmRrMGpgLS1kLjZzYSNwZDJwMmRrMGpgLS1kLjZzcw%3D%3D&vvpl=1&l=02173103962103400000000000000000000ffff0a00afb97d90e8&btag=e00070000&format=mp3&mime_type=audio_mpeg",
        "source_timerange": {
            "start_offset": 0,
            "end_offset": 1.385999999999985
        },
        "target_timerange": {
            "start_offset": 701.064,
            "end_offset": 702.45
        },
        "ignore_audio": false,
        "audio_path": null
    },
    {
        "segment_id": "da4b2afc9d8811efbee9b8cef68aba34",
        "text": "esteemed by Mr. Darcy,",
        "audio_url": "https://v16m-default.akamaized.net/20a58aa213cb0d4b03b0710311e4ba1d/672de608/video/tos/maliva/tos-maliva-v-f15faa-us/oc8vZ4AaAE2ESRiyvQVi4bALt79AoC75B4Uk4/?a=7073&bti=OTU0QDItLmA%3D&ch=0&cr=0&dr=4&er=0&lr=unwatermarked&cd=0%7C0%7C0%7C0&br=312&bt=156&ds=5&ft=.cwOVInz7ThFDGvOXq8Zmo&qs=13&rc=anV5aHU5cjtzdjUzNzhoM0BpanV5aHU5cjtzdjUzNzhoM0BwZDJwMmRrMGpgLS1kLjZzYSNwZDJwMmRrMGpgLS1kLjZzcw%3D%3D&vvpl=1&l=02173103962103400000000000000000000ffff0a00afb97d90e8&btag=e00070000&format=mp3&mime_type=audio_mpeg",
        "source_timerange": {
            "start_offset": 1.386000000000081,
            "end_offset": 2.7719999999999523
        },
        "target_timerange": {
            "start_offset": 702.45,
            "end_offset": 703.836
        },
        "ignore_audio": true,
        "audio_path": null
    },
    {
        "segment_id": "da4b2c469d8811efbee9b8cef68aba34",
        "text": "a most intimate,",
        "audio_url": "https://v16m-default.akamaized.net/20a58aa213cb0d4b03b0710311e4ba1d/672de608/video/tos/maliva/tos-maliva-v-f15faa-us/oc8vZ4AaAE2ESRiyvQVi4bALt79AoC75B4Uk4/?a=7073&bti=OTU0QDItLmA%3D&ch=0&cr=0&dr=4&er=0&lr=unwatermarked&cd=0%7C0%7C0%7C0&br=312&bt=156&ds=5&ft=.cwOVInz7ThFDGvOXq8Zmo&qs=13&rc=anV5aHU5cjtzdjUzNzhoM0BpanV5aHU5cjtzdjUzNzhoM0BwZDJwMmRrMGpgLS1kLjZzYSNwZDJwMmRrMGpgLS1kLjZzcw%3D%3D&vvpl=1&l=02173103962103400000000000000000000ffff0a00afb97d90e8&btag=e00070000&format=mp3&mime_type=audio_mpeg",
        "source_timerange": {
            "start_offset": 2.772000000000048,
            "end_offset": 4.1579999999999195
        },
        "target_timerange": {
            "start_offset": 703.836,
            "end_offset": 705.222
        },
        "ignore_audio": true,
        "audio_path": null
    },
    {
        "segment_id": "da4b2d869d8811efbee9b8cef68aba34",
        "text": "confidential friend.",
        "audio_url": "https://v16m-default.akamaized.net/20a58aa213cb0d4b03b0710311e4ba1d/672de608/video/tos/maliva/tos-maliva-v-f15faa-us/oc8vZ4AaAE2ESRiyvQVi4bALt79AoC75B4Uk4/?a=7073&bti=OTU0QDItLmA%3D&ch=0&cr=0&dr=4&er=0&lr=unwatermarked&cd=0%7C0%7C0%7C0&br=312&bt=156&ds=5&ft=.cwOVInz7ThFDGvOXq8Zmo&qs=13&rc=anV5aHU5cjtzdjUzNzhoM0BpanV5aHU5cjtzdjUzNzhoM0BwZDJwMmRrMGpgLS1kLjZzYSNwZDJwMmRrMGpgLS1kLjZzcw%3D%3D&vvpl=1&l=02173103962103400000000000000000000ffff0a00afb97d90e8&btag=e00070000&format=mp3&mime_type=audio_mpeg",
        "source_timerange": {
            "start_offset": 4.1580000000000155,
            "end_offset": 5.5440000000000005
        },
        "target_timerange": {
            "start_offset": 705.222,
            "end_offset": 706.6080000000001
        },
        "ignore_audio": true,
        "audio_path": null
    },
    {
        "segment_id": "da4b6d6e9d8811efbee9b8cef68aba34",
        "text": "Mr. Darcy often",
        "audio_url": "https://v16m-default.akamaized.net/54fec25d31561e0d2cfde30b0ea0f1b2/672de614/video/tos/maliva/tos-maliva-v-f15faa-us/os8OmerACAMWetQQLkWNFEAaC8AiEgCeyEASoX/?a=7073&bti=OTU0QDItLmA%3D&ch=0&cr=0&dr=4&er=0&lr=unwatermarked&cd=0%7C0%7C0%7C0&br=312&bt=156&ds=5&ft=.cwOVInz7ThFDGvOXq8Zmo&qs=13&rc=Mzd3NXE5cjtzdjUzNzhoM0BpMzd3NXE5cjtzdjUzNzhoM0BycDJpMmRrMGpgLS1kLjZzYSNycDJpMmRrMGpgLS1kLjZzcw%3D%3D&vvpl=1&l=02173103962103400000000000000000000ffff0a00afb97d90e8&btag=e00078000&format=mp3&mime_type=audio_mpeg",
        "source_timerange": {
            "start_offset": 0,
            "end_offset": 1.4620000000000068
        },
        "target_timerange": {
            "start_offset": 706.6080000000001,
            "end_offset": 708.07
        },
        "ignore_audio": false,
        "audio_path": null
    },
    {
        "segment_id": "da4b6efe9d8811efbee9b8cef68aba34",
        "text": "acknowledged himself to be",
        "audio_url": "https://v16m-default.akamaized.net/54fec25d31561e0d2cfde30b0ea0f1b2/672de614/video/tos/maliva/tos-maliva-v-f15faa-us/os8OmerACAMWetQQLkWNFEAaC8AiEgCeyEASoX/?a=7073&bti=OTU0QDItLmA%3D&ch=0&cr=0&dr=4&er=0&lr=unwatermarked&cd=0%7C0%7C0%7C0&br=312&bt=156&ds=5&ft=.cwOVInz7ThFDGvOXq8Zmo&qs=13&rc=Mzd3NXE5cjtzdjUzNzhoM0BpMzd3NXE5cjtzdjUzNzhoM0BycDJpMmRrMGpgLS1kLjZzYSNycDJpMmRrMGpgLS1kLjZzcw%3D%3D&vvpl=1&l=02173103962103400000000000000000000ffff0a00afb97d90e8&btag=e00078000&format=mp3&mime_type=audio_mpeg",
        "source_timerange": {
            "start_offset": 1.461999999999989,
            "end_offset": 2.923999999999996
        },
        "target_timerange": {
            "start_offset": 708.07,
            "end_offset": 709.532
        },
        "ignore_audio": true,
        "audio_path": null
    },
    {
        "segment_id": "da4b70489d8811efbee9b8cef68aba34",
        "text": "under the greatest",
        "audio_url": "https://v16m-default.akamaized.net/54fec25d31561e0d2cfde30b0ea0f1b2/672de614/video/tos/maliva/tos-maliva-v-f15faa-us/os8OmerACAMWetQQLkWNFEAaC8AiEgCeyEASoX/?a=7073&bti=OTU0QDItLmA%3D&ch=0&cr=0&dr=4&er=0&lr=unwatermarked&cd=0%7C0%7C0%7C0&br=312&bt=156&ds=5&ft=.cwOVInz7ThFDGvOXq8Zmo&qs=13&rc=Mzd3NXE5cjtzdjUzNzhoM0BpMzd3NXE5cjtzdjUzNzhoM0BycDJpMmRrMGpgLS1kLjZzYSNycDJpMmRrMGpgLS1kLjZzcw%3D%3D&vvpl=1&l=02173103962103400000000000000000000ffff0a00afb97d90e8&btag=e00078000&format=mp3&mime_type=audio_mpeg",
        "source_timerange": {
            "start_offset": 2.923999999999978,
            "end_offset": 4.385999999999985
        },
        "target_timerange": {
            "start_offset": 709.532,
            "end_offset": 710.994
        },
        "ignore_audio": true,
        "audio_path": null
    },
    {
        "segment_id": "da4b71f69d8811efbee9b8cef68aba34",
        "text": "obligations to my father’s",
        "audio_url": "https://v16m-default.akamaized.net/54fec25d31561e0d2cfde30b0ea0f1b2/672de614/video/tos/maliva/tos-maliva-v-f15faa-us/os8OmerACAMWetQQLkWNFEAaC8AiEgCeyEASoX/?a=7073&bti=OTU0QDItLmA%3D&ch=0&cr=0&dr=4&er=0&lr=unwatermarked&cd=0%7C0%7C0%7C0&br=312&bt=156&ds=5&ft=.cwOVInz7ThFDGvOXq8Zmo&qs=13&rc=Mzd3NXE5cjtzdjUzNzhoM0BpMzd3NXE5cjtzdjUzNzhoM0BycDJpMmRrMGpgLS1kLjZzYSNycDJpMmRrMGpgLS1kLjZzcw%3D%3D&vvpl=1&l=02173103962103400000000000000000000ffff0a00afb97d90e8&btag=e00078000&format=mp3&mime_type=audio_mpeg",
        "source_timerange": {
            "start_offset": 4.385999999999967,
            "end_offset": 5.847999999999974
        },
        "target_timerange": {
            "start_offset": 710.994,
            "end_offset": 712.456
        },
        "ignore_audio": true,
        "audio_path": null
    },
    {
        "segment_id": "da4b734a9d8811efbee9b8cef68aba34",
        "text": "active superintendence; and",
        "audio_url": "https://v16m-default.akamaized.net/54fec25d31561e0d2cfde30b0ea0f1b2/672de614/video/tos/maliva/tos-maliva-v-f15faa-us/os8OmerACAMWetQQLkWNFEAaC8AiEgCeyEASoX/?a=7073&bti=OTU0QDItLmA%3D&ch=0&cr=0&dr=4&er=0&lr=unwatermarked&cd=0%7C0%7C0%7C0&br=312&bt=156&ds=5&ft=.cwOVInz7ThFDGvOXq8Zmo&qs=13&rc=Mzd3NXE5cjtzdjUzNzhoM0BpMzd3NXE5cjtzdjUzNzhoM0BycDJpMmRrMGpgLS1kLjZzYSNycDJpMmRrMGpgLS1kLjZzcw%3D%3D&vvpl=1&l=02173103962103400000000000000000000ffff0a00afb97d90e8&btag=e00078000&format=mp3&mime_type=audio_mpeg",
        "source_timerange": {
            "start_offset": 5.847999999999956,
            "end_offset": 7.309999999999963
        },
        "target_timerange": {
            "start_offset": 712.456,
            "end_offset": 713.918
        },
        "ignore_audio": true,
        "audio_path": null
    },
    {
        "segment_id": "da4b748a9d8811efbee9b8cef68aba34",
        "text": "when, immediately before my",
        "audio_url": "https://v16m-default.akamaized.net/54fec25d31561e0d2cfde30b0ea0f1b2/672de614/video/tos/maliva/tos-maliva-v-f15faa-us/os8OmerACAMWetQQLkWNFEAaC8AiEgCeyEASoX/?a=7073&bti=OTU0QDItLmA%3D&ch=0&cr=0&dr=4&er=0&lr=unwatermarked&cd=0%7C0%7C0%7C0&br=312&bt=156&ds=5&ft=.cwOVInz7ThFDGvOXq8Zmo&qs=13&rc=Mzd3NXE5cjtzdjUzNzhoM0BpMzd3NXE5cjtzdjUzNzhoM0BycDJpMmRrMGpgLS1kLjZzYSNycDJpMmRrMGpgLS1kLjZzcw%3D%3D&vvpl=1&l=02173103962103400000000000000000000ffff0a00afb97d90e8&btag=e00078000&format=mp3&mime_type=audio_mpeg",
        "source_timerange": {
            "start_offset": 7.309999999999945,
            "end_offset": 8.772000000000066
        },
        "target_timerange": {
            "start_offset": 713.918,
            "end_offset": 715.3800000000001
        },
        "ignore_audio": true,
        "audio_path": null
    },
    {
        "segment_id": "da4b75b69d8811efbee9b8cef68aba34",
        "text": "father’s death, Mr. Darcy",
        "audio_url": "https://v16m-default.akamaized.net/54fec25d31561e0d2cfde30b0ea0f1b2/672de614/video/tos/maliva/tos-maliva-v-f15faa-us/os8OmerACAMWetQQLkWNFEAaC8AiEgCeyEASoX/?a=7073&bti=OTU0QDItLmA%3D&ch=0&cr=0&dr=4&er=0&lr=unwatermarked&cd=0%7C0%7C0%7C0&br=312&bt=156&ds=5&ft=.cwOVInz7ThFDGvOXq8Zmo&qs=13&rc=Mzd3NXE5cjtzdjUzNzhoM0BpMzd3NXE5cjtzdjUzNzhoM0BycDJpMmRrMGpgLS1kLjZzYSNycDJpMmRrMGpgLS1kLjZzcw%3D%3D&vvpl=1&l=02173103962103400000000000000000000ffff0a00afb97d90e8&btag=e00078000&format=mp3&mime_type=audio_mpeg",
        "source_timerange": {
            "start_offset": 8.772000000000048,
            "end_offset": 10.234000000000055
        },
        "target_timerange": {
            "start_offset": 715.3800000000001,
            "end_offset": 716.8420000000001
        },
        "ignore_audio": true,
        "audio_path": null
    },
    {
        "segment_id": "da4b76ec9d8811efbee9b8cef68aba34",
        "text": "gave him a voluntary",
        "audio_url": "https://v16m-default.akamaized.net/54fec25d31561e0d2cfde30b0ea0f1b2/672de614/video/tos/maliva/tos-maliva-v-f15faa-us/os8OmerACAMWetQQLkWNFEAaC8AiEgCeyEASoX/?a=7073&bti=OTU0QDItLmA%3D&ch=0&cr=0&dr=4&er=0&lr=unwatermarked&cd=0%7C0%7C0%7C0&br=312&bt=156&ds=5&ft=.cwOVInz7ThFDGvOXq8Zmo&qs=13&rc=Mzd3NXE5cjtzdjUzNzhoM0BpMzd3NXE5cjtzdjUzNzhoM0BycDJpMmRrMGpgLS1kLjZzYSNycDJpMmRrMGpgLS1kLjZzcw%3D%3D&vvpl=1&l=02173103962103400000000000000000000ffff0a00afb97d90e8&btag=e00078000&format=mp3&mime_type=audio_mpeg",
        "source_timerange": {
            "start_offset": 10.234000000000037,
            "end_offset": 11.696000000000044
        },
        "target_timerange": {
            "start_offset": 716.8420000000001,
            "end_offset": 718.3040000000001
        },
        "ignore_audio": true,
        "audio_path": null
    },
    {
        "segment_id": "da4b78189d8811efbee9b8cef68aba34",
        "text": "promise of providing for",
        "audio_url": "https://v16m-default.akamaized.net/54fec25d31561e0d2cfde30b0ea0f1b2/672de614/video/tos/maliva/tos-maliva-v-f15faa-us/os8OmerACAMWetQQLkWNFEAaC8AiEgCeyEASoX/?a=7073&bti=OTU0QDItLmA%3D&ch=0&cr=0&dr=4&er=0&lr=unwatermarked&cd=0%7C0%7C0%7C0&br=312&bt=156&ds=5&ft=.cwOVInz7ThFDGvOXq8Zmo&qs=13&rc=Mzd3NXE5cjtzdjUzNzhoM0BpMzd3NXE5cjtzdjUzNzhoM0BycDJpMmRrMGpgLS1kLjZzYSNycDJpMmRrMGpgLS1kLjZzcw%3D%3D&vvpl=1&l=02173103962103400000000000000000000ffff0a00afb97d90e8&btag=e00078000&format=mp3&mime_type=audio_mpeg",
        "source_timerange": {
            "start_offset": 11.696000000000026,
            "end_offset": 13.158000000000033
        },
        "target_timerange": {
            "start_offset": 718.3040000000001,
            "end_offset": 719.7660000000001
        },
        "ignore_audio": true,
        "audio_path": null
    },
    {
        "segment_id": "da4b794e9d8811efbee9b8cef68aba34",
        "text": "me, I am convinced that he",
        "audio_url": "https://v16m-default.akamaized.net/54fec25d31561e0d2cfde30b0ea0f1b2/672de614/video/tos/maliva/tos-maliva-v-f15faa-us/os8OmerACAMWetQQLkWNFEAaC8AiEgCeyEASoX/?a=7073&bti=OTU0QDItLmA%3D&ch=0&cr=0&dr=4&er=0&lr=unwatermarked&cd=0%7C0%7C0%7C0&br=312&bt=156&ds=5&ft=.cwOVInz7ThFDGvOXq8Zmo&qs=13&rc=Mzd3NXE5cjtzdjUzNzhoM0BpMzd3NXE5cjtzdjUzNzhoM0BycDJpMmRrMGpgLS1kLjZzYSNycDJpMmRrMGpgLS1kLjZzcw%3D%3D&vvpl=1&l=02173103962103400000000000000000000ffff0a00afb97d90e8&btag=e00078000&format=mp3&mime_type=audio_mpeg",
        "source_timerange": {
            "start_offset": 13.158000000000015,
            "end_offset": 14.620000000000022
        },
        "target_timerange": {
            "start_offset": 719.7660000000001,
            "end_offset": 721.2280000000001
        },
        "ignore_audio": true,
        "audio_path": null
    },
    {
        "segment_id": "da4b7a989d8811efbee9b8cef68aba34",
        "text": "felt it to be as much a",
        "audio_url": "https://v16m-default.akamaized.net/54fec25d31561e0d2cfde30b0ea0f1b2/672de614/video/tos/maliva/tos-maliva-v-f15faa-us/os8OmerACAMWetQQLkWNFEAaC8AiEgCeyEASoX/?a=7073&bti=OTU0QDItLmA%3D&ch=0&cr=0&dr=4&er=0&lr=unwatermarked&cd=0%7C0%7C0%7C0&br=312&bt=156&ds=5&ft=.cwOVInz7ThFDGvOXq8Zmo&qs=13&rc=Mzd3NXE5cjtzdjUzNzhoM0BpMzd3NXE5cjtzdjUzNzhoM0BycDJpMmRrMGpgLS1kLjZzYSNycDJpMmRrMGpgLS1kLjZzcw%3D%3D&vvpl=1&l=02173103962103400000000000000000000ffff0a00afb97d90e8&btag=e00078000&format=mp3&mime_type=audio_mpeg",
        "source_timerange": {
            "start_offset": 14.620000000000005,
            "end_offset": 16.08200000000001
        },
        "target_timerange": {
            "start_offset": 721.2280000000001,
            "end_offset": 722.69
        },
        "ignore_audio": true,
        "audio_path": null
    },
    {
        "segment_id": "da4b7bce9d8811efbee9b8cef68aba34",
        "text": "debt of gratitude to _him_",
        "audio_url": "https://v16m-default.akamaized.net/54fec25d31561e0d2cfde30b0ea0f1b2/672de614/video/tos/maliva/tos-maliva-v-f15faa-us/os8OmerACAMWetQQLkWNFEAaC8AiEgCeyEASoX/?a=7073&bti=OTU0QDItLmA%3D&ch=0&cr=0&dr=4&er=0&lr=unwatermarked&cd=0%7C0%7C0%7C0&br=312&bt=156&ds=5&ft=.cwOVInz7ThFDGvOXq8Zmo&qs=13&rc=Mzd3NXE5cjtzdjUzNzhoM0BpMzd3NXE5cjtzdjUzNzhoM0BycDJpMmRrMGpgLS1kLjZzYSNycDJpMmRrMGpgLS1kLjZzcw%3D%3D&vvpl=1&l=02173103962103400000000000000000000ffff0a00afb97d90e8&btag=e00078000&format=mp3&mime_type=audio_mpeg",
        "source_timerange": {
            "start_offset": 16.081999999999994,
            "end_offset": 17.544
        },
        "target_timerange": {
            "start_offset": 722.69,
            "end_offset": 724.152
        },
        "ignore_audio": true,
        "audio_path": null
    },
    {
        "segment_id": "da4b8dda9d8811efbee9b8cef68aba34",
        "text": "as of affection to",
        "audio_url": "https://v16m-default.akamaized.net/767fef5d7520510bbde6d9bd2f7afd3f/672de607/video/tos/maliva/tos-maliva-v-f15faa-us/o0EZtykAivOi2LBEC58dQV4ARUpPAoR2masAS/?a=7073&bti=OTU0QDItLmA%3D&ch=0&cr=0&dr=4&er=0&lr=unwatermarked&cd=0%7C0%7C0%7C0&br=312&bt=156&ds=5&ft=.cwOVInz7ThFDGvOXq8Zmo&qs=13&rc=ajxsd3M5cjtzdjUzNzhoM0Bpajxsd3M5cjtzdjUzNzhoM0BibWs0MmRrMGpgLS1kLjZzYSNibWs0MmRrMGpgLS1kLjZzcw%3D%3D&vvpl=1&l=02173103962103400000000000000000000ffff0a00afb97d90e8&btag=e00070000&format=mp3&mime_type=audio_mpeg",
        "source_timerange": {
            "start_offset": 0,
            "end_offset": 1.3360000000000882
        },
        "target_timerange": {
            "start_offset": 724.152,
            "end_offset": 725.488
        },
        "ignore_audio": false,
        "audio_path": null
    },
    {
        "segment_id": "da4b8f609d8811efbee9b8cef68aba34",
        "text": "myself.”  “How",
        "audio_url": "https://v16m-default.akamaized.net/767fef5d7520510bbde6d9bd2f7afd3f/672de607/video/tos/maliva/tos-maliva-v-f15faa-us/o0EZtykAivOi2LBEC58dQV4ARUpPAoR2masAS/?a=7073&bti=OTU0QDItLmA%3D&ch=0&cr=0&dr=4&er=0&lr=unwatermarked&cd=0%7C0%7C0%7C0&br=312&bt=156&ds=5&ft=.cwOVInz7ThFDGvOXq8Zmo&qs=13&rc=ajxsd3M5cjtzdjUzNzhoM0Bpajxsd3M5cjtzdjUzNzhoM0BibWs0MmRrMGpgLS1kLjZzYSNibWs0MmRrMGpgLS1kLjZzcw%3D%3D&vvpl=1&l=02173103962103400000000000000000000ffff0a00afb97d90e8&btag=e00070000&format=mp3&mime_type=audio_mpeg",
        "source_timerange": {
            "start_offset": 1.3360000000000127,
            "end_offset": 2.6719999999999873
        },
        "target_timerange": {
            "start_offset": 725.488,
            "end_offset": 726.824
        },
        "ignore_audio": true,
        "audio_path": null
    },
    {
        "segment_id": "da4b90969d8811efbee9b8cef68aba34",
        "text": "strange!” cried Elizabeth.",
        "audio_url": "https://v16m-default.akamaized.net/767fef5d7520510bbde6d9bd2f7afd3f/672de607/video/tos/maliva/tos-maliva-v-f15faa-us/o0EZtykAivOi2LBEC58dQV4ARUpPAoR2masAS/?a=7073&bti=OTU0QDItLmA%3D&ch=0&cr=0&dr=4&er=0&lr=unwatermarked&cd=0%7C0%7C0%7C0&br=312&bt=156&ds=5&ft=.cwOVInz7ThFDGvOXq8Zmo&qs=13&rc=ajxsd3M5cjtzdjUzNzhoM0Bpajxsd3M5cjtzdjUzNzhoM0BibWs0MmRrMGpgLS1kLjZzYSNibWs0MmRrMGpgLS1kLjZzcw%3D%3D&vvpl=1&l=02173103962103400000000000000000000ffff0a00afb97d90e8&btag=e00070000&format=mp3&mime_type=audio_mpeg",
        "source_timerange": {
            "start_offset": 2.671999999999912,
            "end_offset": 4.008
        },
        "target_timerange": {
            "start_offset": 726.824,
            "end_offset": 728.16
        },
        "ignore_audio": true,
        "audio_path": null
    },
    {
        "segment_id": "da4b99069d8811efbee9b8cef68aba34",
        "text": "“How abominable!",
        "audio_url": "https://v16m-default.akamaized.net/f34b93b1e8f8feac5a88c694233dd7e9/672de604/video/tos/maliva/tos-maliva-v-f15faa-us/owikANxiAayYRkZ4ESnUolvOyAEBA2QtAFVsC/?a=7073&bti=OTU0QDItLmA%3D&ch=0&cr=0&dr=4&er=0&lr=unwatermarked&cd=0%7C0%7C0%7C0&br=312&bt=156&ds=5&ft=.cwOVInz7ThFDGvOXq8Zmo&qs=13&rc=amhvdWw5cjtzdjUzNzhoM0BpamhvdWw5cjtzdjUzNzhoM0BnZC1sMmRrMGpgLS1kLjZzYSNnZC1sMmRrMGpgLS1kLjZzcw%3D%3D&vvpl=1&l=02173103962103400000000000000000000ffff0a00afb97d90e8&btag=e00070000&format=mp3&mime_type=audio_mpeg",
        "source_timerange": {
            "start_offset": 0,
            "end_offset": 1.272
        },
        "target_timerange": {
            "start_offset": 728.16,
            "end_offset": 729.432
        },
        "ignore_audio": false,
        "audio_path": null
    },
    {
        "segment_id": "da4bab449d8811efbee9b8cef68aba34",
        "text": "I wonder that the very pride",
        "audio_url": "https://v16m-default.akamaized.net/e24b79d4781a497c2391c086579788aa/672de607/video/tos/maliva/tos-maliva-v-f15faa-us/osakEfFOAuJjTWZtBADLEGL1VEnQkBAhAZEVfM/?a=7073&bti=OTU0QDItLmA%3D&ch=0&cr=0&dr=4&er=0&lr=unwatermarked&cd=0%7C0%7C0%7C0&br=312&bt=156&ds=5&ft=.cwOVInz7ThFDGvOXq8Zmo&qs=13&rc=amVlOHQ5cjtzdjUzNzhoM0BpamVlOHQ5cjtzdjUzNzhoM0BjMW1lMmRzMGpgLS1kLjZzYSNjMW1lMmRzMGpgLS1kLjZzcw%3D%3D&vvpl=1&l=02173103962103400000000000000000000ffff0a00afb97d90e8&btag=e00070000&format=mp3&mime_type=audio_mpeg",
        "source_timerange": {
            "start_offset": 0,
            "end_offset": 1.36800000000001
        },
        "target_timerange": {
            "start_offset": 729.432,
            "end_offset": 730.8000000000001
        },
        "ignore_audio": false,
        "audio_path": null
    },
    {
        "segment_id": "da4bacd49d8811efbee9b8cef68aba34",
        "text": "of this Mr. Darcy has not",
        "audio_url": "https://v16m-default.akamaized.net/e24b79d4781a497c2391c086579788aa/672de607/video/tos/maliva/tos-maliva-v-f15faa-us/osakEfFOAuJjTWZtBADLEGL1VEnQkBAhAZEVfM/?a=7073&bti=OTU0QDItLmA%3D&ch=0&cr=0&dr=4&er=0&lr=unwatermarked&cd=0%7C0%7C0%7C0&br=312&bt=156&ds=5&ft=.cwOVInz7ThFDGvOXq8Zmo&qs=13&rc=amVlOHQ5cjtzdjUzNzhoM0BpamVlOHQ5cjtzdjUzNzhoM0BjMW1lMmRzMGpgLS1kLjZzYSNjMW1lMmRzMGpgLS1kLjZzcw%3D%3D&vvpl=1&l=02173103962103400000000000000000000ffff0a00afb97d90e8&btag=e00070000&format=mp3&mime_type=audio_mpeg",
        "source_timerange": {
            "start_offset": 1.3680000000000518,
            "end_offset": 2.7359999999999483
        },
        "target_timerange": {
            "start_offset": 730.8000000000001,
            "end_offset": 732.168
        },
        "ignore_audio": true,
        "audio_path": null
    },
    {
        "segment_id": "da4bae0a9d8811efbee9b8cef68aba34",
        "text": "made him just to you.",
        "audio_url": "https://v16m-default.akamaized.net/e24b79d4781a497c2391c086579788aa/672de607/video/tos/maliva/tos-maliva-v-f15faa-us/osakEfFOAuJjTWZtBADLEGL1VEnQkBAhAZEVfM/?a=7073&bti=OTU0QDItLmA%3D&ch=0&cr=0&dr=4&er=0&lr=unwatermarked&cd=0%7C0%7C0%7C0&br=312&bt=156&ds=5&ft=.cwOVInz7ThFDGvOXq8Zmo&qs=13&rc=amVlOHQ5cjtzdjUzNzhoM0BpamVlOHQ5cjtzdjUzNzhoM0BjMW1lMmRzMGpgLS1kLjZzYSNjMW1lMmRzMGpgLS1kLjZzcw%3D%3D&vvpl=1&l=02173103962103400000000000000000000ffff0a00afb97d90e8&btag=e00070000&format=mp3&mime_type=audio_mpeg",
        "source_timerange": {
            "start_offset": 2.73599999999999,
            "end_offset": 4.104
        },
        "target_timerange": {
            "start_offset": 732.168,
            "end_offset": 733.5360000000001
        },
        "ignore_audio": true,
        "audio_path": null
    },
    {
        "segment_id": "da4bc3689d8811efbee9b8cef68aba34",
        "text": "If from no better motive, that",
        "audio_url": "https://v16m-default.akamaized.net/1563c4d211fc3485c8301565a6e197b3/672de608/video/tos/maliva/tos-maliva-v-f15faa-us/oszAkptpRAhEsFiqxg7ECaMAAlwToWfAIjkBin/?a=7073&bti=OTU0QDItLmA%3D&ch=0&cr=0&dr=4&er=0&lr=unwatermarked&cd=0%7C0%7C0%7C0&br=312&bt=156&ds=5&ft=.cwOVInz7ThFDGvOXq8Zmo&qs=13&rc=ajRpams5cjtzdjUzNzhoM0BpajRpams5cjtzdjUzNzhoM0Bna2ZoMmRzMGpgLS1kLjZzYSNna2ZoMmRzMGpgLS1kLjZzcw%3D%3D&vvpl=1&l=02173103962103400000000000000000000ffff0a00afb97d90e8&btag=e00070000&format=mp3&mime_type=audio_mpeg",
        "source_timerange": {
            "start_offset": 0,
            "end_offset": 1.4880000000000582
        },
        "target_timerange": {
            "start_offset": 733.5360000000001,
            "end_offset": 735.0240000000001
        },
        "ignore_audio": false,
        "audio_path": null
    },
    {
        "segment_id": "da4bc5029d8811efbee9b8cef68aba34",
        "text": "he should not have been too",
        "audio_url": "https://v16m-default.akamaized.net/1563c4d211fc3485c8301565a6e197b3/672de608/video/tos/maliva/tos-maliva-v-f15faa-us/oszAkptpRAhEsFiqxg7ECaMAAlwToWfAIjkBin/?a=7073&bti=OTU0QDItLmA%3D&ch=0&cr=0&dr=4&er=0&lr=unwatermarked&cd=0%7C0%7C0%7C0&br=312&bt=156&ds=5&ft=.cwOVInz7ThFDGvOXq8Zmo&qs=13&rc=ajRpams5cjtzdjUzNzhoM0BpajRpams5cjtzdjUzNzhoM0Bna2ZoMmRzMGpgLS1kLjZzYSNna2ZoMmRzMGpgLS1kLjZzcw%3D%3D&vvpl=1&l=02173103962103400000000000000000000ffff0a00afb97d90e8&btag=e00070000&format=mp3&mime_type=audio_mpeg",
        "source_timerange": {
            "start_offset": 1.4880000000000564,
            "end_offset": 2.976000000000001
        },
        "target_timerange": {
            "start_offset": 735.0240000000001,
            "end_offset": 736.5120000000001
        },
        "ignore_audio": true,
        "audio_path": null
    },
    {
        "segment_id": "da4bc62e9d8811efbee9b8cef68aba34",
        "text": "proud to be dishonest,--for",
        "audio_url": "https://v16m-default.akamaized.net/1563c4d211fc3485c8301565a6e197b3/672de608/video/tos/maliva/tos-maliva-v-f15faa-us/oszAkptpRAhEsFiqxg7ECaMAAlwToWfAIjkBin/?a=7073&bti=OTU0QDItLmA%3D&ch=0&cr=0&dr=4&er=0&lr=unwatermarked&cd=0%7C0%7C0%7C0&br=312&bt=156&ds=5&ft=.cwOVInz7ThFDGvOXq8Zmo&qs=13&rc=ajRpams5cjtzdjUzNzhoM0BpajRpams5cjtzdjUzNzhoM0Bna2ZoMmRzMGpgLS1kLjZzYSNna2ZoMmRzMGpgLS1kLjZzcw%3D%3D&vvpl=1&l=02173103962103400000000000000000000ffff0a00afb97d90e8&btag=e00070000&format=mp3&mime_type=audio_mpeg",
        "source_timerange": {
            "start_offset": 2.975999999999999,
            "end_offset": 4.463999999999944
        },
        "target_timerange": {
            "start_offset": 736.5120000000001,
            "end_offset": 738
        },
        "ignore_audio": true,
        "audio_path": null
    },
    {
        "segment_id": "da4bc7b49d8811efbee9b8cef68aba34",
        "text": "dishonesty I must call it.”",
        "audio_url": "https://v16m-default.akamaized.net/1563c4d211fc3485c8301565a6e197b3/672de608/video/tos/maliva/tos-maliva-v-f15faa-us/oszAkptpRAhEsFiqxg7ECaMAAlwToWfAIjkBin/?a=7073&bti=OTU0QDItLmA%3D&ch=0&cr=0&dr=4&er=0&lr=unwatermarked&cd=0%7C0%7C0%7C0&br=312&bt=156&ds=5&ft=.cwOVInz7ThFDGvOXq8Zmo&qs=13&rc=ajRpams5cjtzdjUzNzhoM0BpajRpams5cjtzdjUzNzhoM0Bna2ZoMmRzMGpgLS1kLjZzYSNna2ZoMmRzMGpgLS1kLjZzcw%3D%3D&vvpl=1&l=02173103962103400000000000000000000ffff0a00afb97d90e8&btag=e00070000&format=mp3&mime_type=audio_mpeg",
        "source_timerange": {
            "start_offset": 4.463999999999942,
            "end_offset": 5.952
        },
        "target_timerange": {
            "start_offset": 738,
            "end_offset": 739.488
        },
        "ignore_audio": true,
        "audio_path": null
    },
    {
        "segment_id": "da4bdfce9d8811efbee9b8cef68aba34",
        "text": "“It _is_ wonderful,” replied",
        "audio_url": "https://v16m-default.akamaized.net/a6d7b346e8351918f5935d9a95da5bc0/672de60a/video/tos/maliva/tos-maliva-v-f15faa-us/o0fRA5aAszRcEoiMkcjiiwUBARA9lEqtjxkFAg/?a=7073&bti=OTU0QDItLmA%3D&ch=0&cr=0&dr=4&er=0&lr=unwatermarked&cd=0%7C0%7C0%7C0&br=312&bt=156&ds=5&ft=.cwOVInz7ThFDGvOXq8Zmo&qs=13&rc=anNsN2s5cjtzdjUzNzhoM0BpanNsN2s5cjtzdjUzNzhoM0ByNF9lMmRzMGpgLS1kLjZzYSNyNF9lMmRzMGpgLS1kLjZzcw%3D%3D&vvpl=1&l=02173103962103400000000000000000000ffff0a00afb97d90e8&btag=e00070000&format=mp3&mime_type=audio_mpeg",
        "source_timerange": {
            "start_offset": 0,
            "end_offset": 1.5599999999999907
        },
        "target_timerange": {
            "start_offset": 739.488,
            "end_offset": 741.048
        },
        "ignore_audio": false,
        "audio_path": null
    },
    {
        "segment_id": "da4be0f09d8811efbee9b8cef68aba34",
        "text": "Wickham; “for almost all his",
        "audio_url": "https://v16m-default.akamaized.net/a6d7b346e8351918f5935d9a95da5bc0/672de60a/video/tos/maliva/tos-maliva-v-f15faa-us/o0fRA5aAszRcEoiMkcjiiwUBARA9lEqtjxkFAg/?a=7073&bti=OTU0QDItLmA%3D&ch=0&cr=0&dr=4&er=0&lr=unwatermarked&cd=0%7C0%7C0%7C0&br=312&bt=156&ds=5&ft=.cwOVInz7ThFDGvOXq8Zmo&qs=13&rc=anNsN2s5cjtzdjUzNzhoM0BpanNsN2s5cjtzdjUzNzhoM0ByNF9lMmRzMGpgLS1kLjZzYSNyNF9lMmRzMGpgLS1kLjZzcw%3D%3D&vvpl=1&l=02173103962103400000000000000000000ffff0a00afb97d90e8&btag=e00070000&format=mp3&mime_type=audio_mpeg",
        "source_timerange": {
            "start_offset": 1.5599999999999454,
            "end_offset": 3.12000000000005
        },
        "target_timerange": {
            "start_offset": 741.048,
            "end_offset": 742.6080000000001
        },
        "ignore_audio": true,
        "audio_path": null
    },
    {
        "segment_id": "da4be1d69d8811efbee9b8cef68aba34",
        "text": "actions may be traced to",
        "audio_url": "https://v16m-default.akamaized.net/a6d7b346e8351918f5935d9a95da5bc0/672de60a/video/tos/maliva/tos-maliva-v-f15faa-us/o0fRA5aAszRcEoiMkcjiiwUBARA9lEqtjxkFAg/?a=7073&bti=OTU0QDItLmA%3D&ch=0&cr=0&dr=4&er=0&lr=unwatermarked&cd=0%7C0%7C0%7C0&br=312&bt=156&ds=5&ft=.cwOVInz7ThFDGvOXq8Zmo&qs=13&rc=anNsN2s5cjtzdjUzNzhoM0BpanNsN2s5cjtzdjUzNzhoM0ByNF9lMmRzMGpgLS1kLjZzYSNyNF9lMmRzMGpgLS1kLjZzcw%3D%3D&vvpl=1&l=02173103962103400000000000000000000ffff0a00afb97d90e8&btag=e00070000&format=mp3&mime_type=audio_mpeg",
        "source_timerange": {
            "start_offset": 3.1200000000000045,
            "end_offset": 4.679999999999995
        },
        "target_timerange": {
            "start_offset": 742.6080000000001,
            "end_offset": 744.168
        },
        "ignore_audio": true,
        "audio_path": null
    },
    {
        "segment_id": "da4be29e9d8811efbee9b8cef68aba34",
        "text": "pride; and pride has often",
        "audio_url": "https://v16m-default.akamaized.net/a6d7b346e8351918f5935d9a95da5bc0/672de60a/video/tos/maliva/tos-maliva-v-f15faa-us/o0fRA5aAszRcEoiMkcjiiwUBARA9lEqtjxkFAg/?a=7073&bti=OTU0QDItLmA%3D&ch=0&cr=0&dr=4&er=0&lr=unwatermarked&cd=0%7C0%7C0%7C0&br=312&bt=156&ds=5&ft=.cwOVInz7ThFDGvOXq8Zmo&qs=13&rc=anNsN2s5cjtzdjUzNzhoM0BpanNsN2s5cjtzdjUzNzhoM0ByNF9lMmRzMGpgLS1kLjZzYSNyNF9lMmRzMGpgLS1kLjZzcw%3D%3D&vvpl=1&l=02173103962103400000000000000000000ffff0a00afb97d90e8&btag=e00070000&format=mp3&mime_type=audio_mpeg",
        "source_timerange": {
            "start_offset": 4.67999999999995,
            "end_offset": 6.240000000000054
        },
        "target_timerange": {
            "start_offset": 744.168,
            "end_offset": 745.7280000000001
        },
        "ignore_audio": true,
        "audio_path": null
    },
    {
        "segment_id": "da4be38e9d8811efbee9b8cef68aba34",
        "text": "been his best friend.",
        "audio_url": "https://v16m-default.akamaized.net/a6d7b346e8351918f5935d9a95da5bc0/672de60a/video/tos/maliva/tos-maliva-v-f15faa-us/o0fRA5aAszRcEoiMkcjiiwUBARA9lEqtjxkFAg/?a=7073&bti=OTU0QDItLmA%3D&ch=0&cr=0&dr=4&er=0&lr=unwatermarked&cd=0%7C0%7C0%7C0&br=312&bt=156&ds=5&ft=.cwOVInz7ThFDGvOXq8Zmo&qs=13&rc=anNsN2s5cjtzdjUzNzhoM0BpanNsN2s5cjtzdjUzNzhoM0ByNF9lMmRzMGpgLS1kLjZzYSNyNF9lMmRzMGpgLS1kLjZzcw%3D%3D&vvpl=1&l=02173103962103400000000000000000000ffff0a00afb97d90e8&btag=e00070000&format=mp3&mime_type=audio_mpeg",
        "source_timerange": {
            "start_offset": 6.240000000000009,
            "end_offset": 7.8
        },
        "target_timerange": {
            "start_offset": 745.7280000000001,
            "end_offset": 747.288
        },
        "ignore_audio": true,
        "audio_path": null
    },
    {
        "segment_id": "da4bed669d8811efbee9b8cef68aba34",
        "text": "It has connected him nearer with",
        "audio_url": "https://v16m-default.akamaized.net/c6906a3368f92d5d42e95d3d489e0d43/672de606/video/tos/maliva/tos-maliva-v-f15faa-us/ow4fADGEMAFZBIjfhQ6tvJnakAVTLLOjEECBAP/?a=7073&bti=OTU0QDItLmA%3D&ch=0&cr=0&dr=4&er=0&lr=unwatermarked&cd=0%7C0%7C0%7C0&br=312&bt=156&ds=5&ft=.cwOVInz7ThFDGvOXq8Zmo&qs=13&rc=M3I8dXc5cjtzdjUzNzhoM0BpM3I8dXc5cjtzdjUzNzhoM0AzNGxjMmRzMGpgLS1kLjZzYSMzNGxjMmRzMGpgLS1kLjZzcw%3D%3D&vvpl=1&l=02173103962103400000000000000000000ffff0a00afb97d90e8&btag=e00070000&format=mp3&mime_type=audio_mpeg",
        "source_timerange": {
            "start_offset": 0,
            "end_offset": 1.76399999999999
        },
        "target_timerange": {
            "start_offset": 747.288,
            "end_offset": 749.052
        },
        "ignore_audio": false,
        "audio_path": null
    },
    {
        "segment_id": "da4bee609d8811efbee9b8cef68aba34",
        "text": "virtue than any other feeling.",
        "audio_url": "https://v16m-default.akamaized.net/c6906a3368f92d5d42e95d3d489e0d43/672de606/video/tos/maliva/tos-maliva-v-f15faa-us/ow4fADGEMAFZBIjfhQ6tvJnakAVTLLOjEECBAP/?a=7073&bti=OTU0QDItLmA%3D&ch=0&cr=0&dr=4&er=0&lr=unwatermarked&cd=0%7C0%7C0%7C0&br=312&bt=156&ds=5&ft=.cwOVInz7ThFDGvOXq8Zmo&qs=13&rc=M3I8dXc5cjtzdjUzNzhoM0BpM3I8dXc5cjtzdjUzNzhoM0AzNGxjMmRzMGpgLS1kLjZzYSMzNGxjMmRzMGpgLS1kLjZzcw%3D%3D&vvpl=1&l=02173103962103400000000000000000000ffff0a00afb97d90e8&btag=e00070000&format=mp3&mime_type=audio_mpeg",
        "source_timerange": {
            "start_offset": 1.76400000000001,
            "end_offset": 3.528
        },
        "target_timerange": {
            "start_offset": 749.052,
            "end_offset": 750.816
        },
        "ignore_audio": true,
        "audio_path": null
    },
    {
        "segment_id": "da4bff049d8811efbee9b8cef68aba34",
        "text": "But we are none of us",
        "audio_url": "https://v16m-default.akamaized.net/49b9146ffad8b59af192051b08c62845/672de609/video/tos/maliva/tos-maliva-v-f15faa-us/oIB8tafjAUAsziAwh31AFRkwilEgkEcoq1AAOV/?a=7073&bti=OTU0QDItLmA%3D&ch=0&cr=0&dr=4&er=0&lr=unwatermarked&cd=0%7C0%7C0%7C0&br=312&bt=156&ds=5&ft=.cwOVInz7ThFDGvOXq8Zmo&qs=13&rc=MzNtOm85cjtzdjUzNzhoM0BpMzNtOm85cjtzdjUzNzhoM0BsXi9yMmRzMGpgLS1kLjZzYSNsXi9yMmRzMGpgLS1kLjZzcw%3D%3D&vvpl=1&l=02173103962103400000000000000000000ffff0a00afb97d90e8&btag=e00070000&format=mp3&mime_type=audio_mpeg",
        "source_timerange": {
            "start_offset": 0,
            "end_offset": 1.5299999999999683
        },
        "target_timerange": {
            "start_offset": 750.816,
            "end_offset": 752.346
        },
        "ignore_audio": false,
        "audio_path": null
    },
    {
        "segment_id": "da4c00089d8811efbee9b8cef68aba34",
        "text": "consistent; and in his",
        "audio_url": "https://v16m-default.akamaized.net/49b9146ffad8b59af192051b08c62845/672de609/video/tos/maliva/tos-maliva-v-f15faa-us/oIB8tafjAUAsziAwh31AFRkwilEgkEcoq1AAOV/?a=7073&bti=OTU0QDItLmA%3D&ch=0&cr=0&dr=4&er=0&lr=unwatermarked&cd=0%7C0%7C0%7C0&br=312&bt=156&ds=5&ft=.cwOVInz7ThFDGvOXq8Zmo&qs=13&rc=MzNtOm85cjtzdjUzNzhoM0BpMzNtOm85cjtzdjUzNzhoM0BsXi9yMmRzMGpgLS1kLjZzYSNsXi9yMmRzMGpgLS1kLjZzcw%3D%3D&vvpl=1&l=02173103962103400000000000000000000ffff0a00afb97d90e8&btag=e00070000&format=mp3&mime_type=audio_mpeg",
        "source_timerange": {
            "start_offset": 1.5299999999999727,
            "end_offset": 3.059999999999941
        },
        "target_timerange": {
            "start_offset": 752.346,
            "end_offset": 753.876
        },
        "ignore_audio": true,
        "audio_path": null
    },
    {
        "segment_id": "da4c00e49d8811efbee9b8cef68aba34",
        "text": "behaviour to me there were",
        "audio_url": "https://v16m-default.akamaized.net/49b9146ffad8b59af192051b08c62845/672de609/video/tos/maliva/tos-maliva-v-f15faa-us/oIB8tafjAUAsziAwh31AFRkwilEgkEcoq1AAOV/?a=7073&bti=OTU0QDItLmA%3D&ch=0&cr=0&dr=4&er=0&lr=unwatermarked&cd=0%7C0%7C0%7C0&br=312&bt=156&ds=5&ft=.cwOVInz7ThFDGvOXq8Zmo&qs=13&rc=MzNtOm85cjtzdjUzNzhoM0BpMzNtOm85cjtzdjUzNzhoM0BsXi9yMmRzMGpgLS1kLjZzYSNsXi9yMmRzMGpgLS1kLjZzcw%3D%3D&vvpl=1&l=02173103962103400000000000000000000ffff0a00afb97d90e8&btag=e00070000&format=mp3&mime_type=audio_mpeg",
        "source_timerange": {
            "start_offset": 3.0599999999999454,
            "end_offset": 4.590000000000027
        },
        "target_timerange": {
            "start_offset": 753.876,
            "end_offset": 755.4060000000001
        },
        "ignore_audio": true,
        "audio_path": null
    },
    {
        "segment_id": "da4c01ac9d8811efbee9b8cef68aba34",
        "text": "stronger impulses even than pride.”",
        "audio_url": "https://v16m-default.akamaized.net/49b9146ffad8b59af192051b08c62845/672de609/video/tos/maliva/tos-maliva-v-f15faa-us/oIB8tafjAUAsziAwh31AFRkwilEgkEcoq1AAOV/?a=7073&bti=OTU0QDItLmA%3D&ch=0&cr=0&dr=4&er=0&lr=unwatermarked&cd=0%7C0%7C0%7C0&br=312&bt=156&ds=5&ft=.cwOVInz7ThFDGvOXq8Zmo&qs=13&rc=MzNtOm85cjtzdjUzNzhoM0BpMzNtOm85cjtzdjUzNzhoM0BsXi9yMmRzMGpgLS1kLjZzYSNsXi9yMmRzMGpgLS1kLjZzcw%3D%3D&vvpl=1&l=02173103962103400000000000000000000ffff0a00afb97d90e8&btag=e00070000&format=mp3&mime_type=audio_mpeg",
        "source_timerange": {
            "start_offset": 4.590000000000032,
            "end_offset": 6.12
        },
        "target_timerange": {
            "start_offset": 755.4060000000001,
            "end_offset": 756.936
        },
        "ignore_audio": true,
        "audio_path": null
    },
    {
        "segment_id": "da4c25069d8811efbee9b8cef68aba34",
        "text": "“Can such abominable pride",
        "audio_url": "https://v16m-default.akamaized.net/00c7f30369d586117539d0cdb1c987e0/672de610/video/tos/maliva/tos-maliva-v-f15faa-us/o07xAtNIyHEfWAaOXeAErkCL6eAELNCSCGRCgJ/?a=7073&bti=OTU0QDItLmA%3D&ch=0&cr=0&dr=4&er=0&lr=unwatermarked&cd=0%7C0%7C0%7C0&br=312&bt=156&ds=5&ft=.cwOVInz7ThFDGvOXq8Zmo&qs=13&rc=ank1ang5cjtzdjUzNzhoM0Bpank1ang5cjtzdjUzNzhoM0A1Nl9zMmRzMGpgLS1kLjZzYSM1Nl9zMmRzMGpgLS1kLjZzcw%3D%3D&vvpl=1&l=02173103962103400000000000000000000ffff0a00afb97d90e8&btag=e00070000&format=mp3&mime_type=audio_mpeg",
        "source_timerange": {
            "start_offset": 0,
            "end_offset": 1.4586666666667298
        },
        "target_timerange": {
            "start_offset": 756.936,
            "end_offset": 758.3946666666667
        },
        "ignore_audio": false,
        "audio_path": null
    },
    {
        "segment_id": "da4c26149d8811efbee9b8cef68aba34",
        "text": "as his have ever done him",
        "audio_url": "https://v16m-default.akamaized.net/00c7f30369d586117539d0cdb1c987e0/672de610/video/tos/maliva/tos-maliva-v-f15faa-us/o07xAtNIyHEfWAaOXeAErkCL6eAELNCSCGRCgJ/?a=7073&bti=OTU0QDItLmA%3D&ch=0&cr=0&dr=4&er=0&lr=unwatermarked&cd=0%7C0%7C0%7C0&br=312&bt=156&ds=5&ft=.cwOVInz7ThFDGvOXq8Zmo&qs=13&rc=ank1ang5cjtzdjUzNzhoM0Bpank1ang5cjtzdjUzNzhoM0A1Nl9zMmRzMGpgLS1kLjZzYSM1Nl9zMmRzMGpgLS1kLjZzcw%3D%3D&vvpl=1&l=02173103962103400000000000000000000ffff0a00afb97d90e8&btag=e00070000&format=mp3&mime_type=audio_mpeg",
        "source_timerange": {
            "start_offset": 1.4586666666666588,
            "end_offset": 2.9173333333333886
        },
        "target_timerange": {
            "start_offset": 758.3946666666667,
            "end_offset": 759.8533333333334
        },
        "ignore_audio": true,
        "audio_path": null
    },
    {
        "segment_id": "da4c26f09d8811efbee9b8cef68aba34",
        "text": "good?”  “Yes; it has often",
        "audio_url": "https://v16m-default.akamaized.net/00c7f30369d586117539d0cdb1c987e0/672de610/video/tos/maliva/tos-maliva-v-f15faa-us/o07xAtNIyHEfWAaOXeAErkCL6eAELNCSCGRCgJ/?a=7073&bti=OTU0QDItLmA%3D&ch=0&cr=0&dr=4&er=0&lr=unwatermarked&cd=0%7C0%7C0%7C0&br=312&bt=156&ds=5&ft=.cwOVInz7ThFDGvOXq8Zmo&qs=13&rc=ank1ang5cjtzdjUzNzhoM0Bpank1ang5cjtzdjUzNzhoM0A1Nl9zMmRzMGpgLS1kLjZzYSM1Nl9zMmRzMGpgLS1kLjZzcw%3D%3D&vvpl=1&l=02173103962103400000000000000000000ffff0a00afb97d90e8&btag=e00070000&format=mp3&mime_type=audio_mpeg",
        "source_timerange": {
            "start_offset": 2.9173333333333176,
            "end_offset": 4.376000000000047
        },
        "target_timerange": {
            "start_offset": 759.8533333333334,
            "end_offset": 761.312
        },
        "ignore_audio": true,
        "audio_path": null
    },
    {
        "segment_id": "da4c27cc9d8811efbee9b8cef68aba34",
        "text": "led him to be liberal and",
        "audio_url": "https://v16m-default.akamaized.net/00c7f30369d586117539d0cdb1c987e0/672de610/video/tos/maliva/tos-maliva-v-f15faa-us/o07xAtNIyHEfWAaOXeAErkCL6eAELNCSCGRCgJ/?a=7073&bti=OTU0QDItLmA%3D&ch=0&cr=0&dr=4&er=0&lr=unwatermarked&cd=0%7C0%7C0%7C0&br=312&bt=156&ds=5&ft=.cwOVInz7ThFDGvOXq8Zmo&qs=13&rc=ank1ang5cjtzdjUzNzhoM0Bpank1ang5cjtzdjUzNzhoM0A1Nl9zMmRzMGpgLS1kLjZzYSM1Nl9zMmRzMGpgLS1kLjZzcw%3D%3D&vvpl=1&l=02173103962103400000000000000000000ffff0a00afb97d90e8&btag=e00070000&format=mp3&mime_type=audio_mpeg",
        "source_timerange": {
            "start_offset": 4.375999999999976,
            "end_offset": 5.834666666666706
        },
        "target_timerange": {
            "start_offset": 761.312,
            "end_offset": 762.7706666666667
        },
        "ignore_audio": true,
        "audio_path": null
    },
    {
        "segment_id": "da4c28a89d8811efbee9b8cef68aba34",
        "text": "generous; to give his",
        "audio_url": "https://v16m-default.akamaized.net/00c7f30369d586117539d0cdb1c987e0/672de610/video/tos/maliva/tos-maliva-v-f15faa-us/o07xAtNIyHEfWAaOXeAErkCL6eAELNCSCGRCgJ/?a=7073&bti=OTU0QDItLmA%3D&ch=0&cr=0&dr=4&er=0&lr=unwatermarked&cd=0%7C0%7C0%7C0&br=312&bt=156&ds=5&ft=.cwOVInz7ThFDGvOXq8Zmo&qs=13&rc=ank1ang5cjtzdjUzNzhoM0Bpank1ang5cjtzdjUzNzhoM0A1Nl9zMmRzMGpgLS1kLjZzYSM1Nl9zMmRzMGpgLS1kLjZzcw%3D%3D&vvpl=1&l=02173103962103400000000000000000000ffff0a00afb97d90e8&btag=e00070000&format=mp3&mime_type=audio_mpeg",
        "source_timerange": {
            "start_offset": 5.834666666666635,
            "end_offset": 7.293333333333365
        },
        "target_timerange": {
            "start_offset": 762.7706666666667,
            "end_offset": 764.2293333333333
        },
        "ignore_audio": true,
        "audio_path": null
    },
    {
        "segment_id": "da4c297a9d8811efbee9b8cef68aba34",
        "text": "money freely, to display",
        "audio_url": "https://v16m-default.akamaized.net/00c7f30369d586117539d0cdb1c987e0/672de610/video/tos/maliva/tos-maliva-v-f15faa-us/o07xAtNIyHEfWAaOXeAErkCL6eAELNCSCGRCgJ/?a=7073&bti=OTU0QDItLmA%3D&ch=0&cr=0&dr=4&er=0&lr=unwatermarked&cd=0%7C0%7C0%7C0&br=312&bt=156&ds=5&ft=.cwOVInz7ThFDGvOXq8Zmo&qs=13&rc=ank1ang5cjtzdjUzNzhoM0Bpank1ang5cjtzdjUzNzhoM0A1Nl9zMmRzMGpgLS1kLjZzYSM1Nl9zMmRzMGpgLS1kLjZzcw%3D%3D&vvpl=1&l=02173103962103400000000000000000000ffff0a00afb97d90e8&btag=e00070000&format=mp3&mime_type=audio_mpeg",
        "source_timerange": {
            "start_offset": 7.293333333333294,
            "end_offset": 8.752000000000024
        },
        "target_timerange": {
            "start_offset": 764.2293333333333,
            "end_offset": 765.688
        },
        "ignore_audio": true,
        "audio_path": null
    },
    {
        "segment_id": "da4c2a429d8811efbee9b8cef68aba34",
        "text": "hospitality, to assist his",
        "audio_url": "https://v16m-default.akamaized.net/00c7f30369d586117539d0cdb1c987e0/672de610/video/tos/maliva/tos-maliva-v-f15faa-us/o07xAtNIyHEfWAaOXeAErkCL6eAELNCSCGRCgJ/?a=7073&bti=OTU0QDItLmA%3D&ch=0&cr=0&dr=4&er=0&lr=unwatermarked&cd=0%7C0%7C0%7C0&br=312&bt=156&ds=5&ft=.cwOVInz7ThFDGvOXq8Zmo&qs=13&rc=ank1ang5cjtzdjUzNzhoM0Bpank1ang5cjtzdjUzNzhoM0A1Nl9zMmRzMGpgLS1kLjZzYSM1Nl9zMmRzMGpgLS1kLjZzcw%3D%3D&vvpl=1&l=02173103962103400000000000000000000ffff0a00afb97d90e8&btag=e00070000&format=mp3&mime_type=audio_mpeg",
        "source_timerange": {
            "start_offset": 8.751999999999953,
            "end_offset": 10.210666666666683
        },
        "target_timerange": {
            "start_offset": 765.688,
            "end_offset": 767.1466666666666
        },
        "ignore_audio": true,
        "audio_path": null
    },
    {
        "segment_id": "da4c2b009d8811efbee9b8cef68aba34",
        "text": "tenants, and relieve the",
        "audio_url": "https://v16m-default.akamaized.net/00c7f30369d586117539d0cdb1c987e0/672de610/video/tos/maliva/tos-maliva-v-f15faa-us/o07xAtNIyHEfWAaOXeAErkCL6eAELNCSCGRCgJ/?a=7073&bti=OTU0QDItLmA%3D&ch=0&cr=0&dr=4&er=0&lr=unwatermarked&cd=0%7C0%7C0%7C0&br=312&bt=156&ds=5&ft=.cwOVInz7ThFDGvOXq8Zmo&qs=13&rc=ank1ang5cjtzdjUzNzhoM0Bpank1ang5cjtzdjUzNzhoM0A1Nl9zMmRzMGpgLS1kLjZzYSM1Nl9zMmRzMGpgLS1kLjZzcw%3D%3D&vvpl=1&l=02173103962103400000000000000000000ffff0a00afb97d90e8&btag=e00070000&format=mp3&mime_type=audio_mpeg",
        "source_timerange": {
            "start_offset": 10.210666666666611,
            "end_offset": 11.669333333333341
        },
        "target_timerange": {
            "start_offset": 767.1466666666666,
            "end_offset": 768.6053333333333
        },
        "ignore_audio": true,
        "audio_path": null
    },
    {
        "segment_id": "da4c2bbe9d8811efbee9b8cef68aba34",
        "text": "poor.",
        "audio_url": "https://v16m-default.akamaized.net/00c7f30369d586117539d0cdb1c987e0/672de610/video/tos/maliva/tos-maliva-v-f15faa-us/o07xAtNIyHEfWAaOXeAErkCL6eAELNCSCGRCgJ/?a=7073&bti=OTU0QDItLmA%3D&ch=0&cr=0&dr=4&er=0&lr=unwatermarked&cd=0%7C0%7C0%7C0&br=312&bt=156&ds=5&ft=.cwOVInz7ThFDGvOXq8Zmo&qs=13&rc=ank1ang5cjtzdjUzNzhoM0Bpank1ang5cjtzdjUzNzhoM0A1Nl9zMmRzMGpgLS1kLjZzYSM1Nl9zMmRzMGpgLS1kLjZzcw%3D%3D&vvpl=1&l=02173103962103400000000000000000000ffff0a00afb97d90e8&btag=e00070000&format=mp3&mime_type=audio_mpeg",
        "source_timerange": {
            "start_offset": 11.66933333333327,
            "end_offset": 13.128
        },
        "target_timerange": {
            "start_offset": 768.6053333333333,
            "end_offset": 770.064
        },
        "ignore_audio": true,
        "audio_path": null
    },
    {
        "segment_id": "da4c3c809d8811efbee9b8cef68aba34",
        "text": "Family pride, and _filial_",
        "audio_url": "https://v16m-default.akamaized.net/a8d6bf52ebdea6f96e06ed9fee44d58d/672de609/video/tos/maliva/tos-maliva-v-f15faa-us/oQziywAkEkqkAjARpf8HtEs8zaAklBOylAioFg/?a=7073&bti=OTU0QDItLmA%3D&ch=0&cr=0&dr=4&er=0&lr=unwatermarked&cd=0%7C0%7C0%7C0&br=312&bt=156&ds=5&ft=.cwOVInz7ThUDGvOXq8Zmo&qs=13&rc=M21sc3Y5cjtzdjUzNzhoM0BpM21sc3Y5cjtzdjUzNzhoM0BtNmMwMmRzMGpgLS1kLjZzYSNtNmMwMmRzMGpgLS1kLjZzcw%3D%3D&vvpl=1&l=02173103962103400000000000000000000ffff0a00afb97d90e8&btag=e00070000&format=mp3&mime_type=audio_mpeg",
        "source_timerange": {
            "start_offset": 0,
            "end_offset": 1.4159999999999524
        },
        "target_timerange": {
            "start_offset": 770.064,
            "end_offset": 771.48
        },
        "ignore_audio": false,
        "audio_path": null
    },
    {
        "segment_id": "da4c3d7a9d8811efbee9b8cef68aba34",
        "text": "pride, for he is very",
        "audio_url": "https://v16m-default.akamaized.net/a8d6bf52ebdea6f96e06ed9fee44d58d/672de609/video/tos/maliva/tos-maliva-v-f15faa-us/oQziywAkEkqkAjARpf8HtEs8zaAklBOylAioFg/?a=7073&bti=OTU0QDItLmA%3D&ch=0&cr=0&dr=4&er=0&lr=unwatermarked&cd=0%7C0%7C0%7C0&br=312&bt=156&ds=5&ft=.cwOVInz7ThUDGvOXq8Zmo&qs=13&rc=M21sc3Y5cjtzdjUzNzhoM0BpM21sc3Y5cjtzdjUzNzhoM0BtNmMwMmRzMGpgLS1kLjZzYSNtNmMwMmRzMGpgLS1kLjZzcw%3D%3D&vvpl=1&l=02173103962103400000000000000000000ffff0a00afb97d90e8&btag=e00070000&format=mp3&mime_type=audio_mpeg",
        "source_timerange": {
            "start_offset": 1.4160000000000537,
            "end_offset": 2.8319999999998924
        },
        "target_timerange": {
            "start_offset": 771.48,
            "end_offset": 772.896
        },
        "ignore_audio": true,
        "audio_path": null
    },
    {
        "segment_id": "da4c3e6a9d8811efbee9b8cef68aba34",
        "text": "proud of what his father",
        "audio_url": "https://v16m-default.akamaized.net/a8d6bf52ebdea6f96e06ed9fee44d58d/672de609/video/tos/maliva/tos-maliva-v-f15faa-us/oQziywAkEkqkAjARpf8HtEs8zaAklBOylAioFg/?a=7073&bti=OTU0QDItLmA%3D&ch=0&cr=0&dr=4&er=0&lr=unwatermarked&cd=0%7C0%7C0%7C0&br=312&bt=156&ds=5&ft=.cwOVInz7ThUDGvOXq8Zmo&qs=13&rc=M21sc3Y5cjtzdjUzNzhoM0BpM21sc3Y5cjtzdjUzNzhoM0BtNmMwMmRzMGpgLS1kLjZzYSNtNmMwMmRzMGpgLS1kLjZzcw%3D%3D&vvpl=1&l=02173103962103400000000000000000000ffff0a00afb97d90e8&btag=e00070000&format=mp3&mime_type=audio_mpeg",
        "source_timerange": {
            "start_offset": 2.8319999999999936,
            "end_offset": 4.247999999999946
        },
        "target_timerange": {
            "start_offset": 772.896,
            "end_offset": 774.312
        },
        "ignore_audio": true,
        "audio_path": null
    },
    {
        "segment_id": "da4c3f469d8811efbee9b8cef68aba34",
        "text": "was, have done this.",
        "audio_url": "https://v16m-default.akamaized.net/a8d6bf52ebdea6f96e06ed9fee44d58d/672de609/video/tos/maliva/tos-maliva-v-f15faa-us/oQziywAkEkqkAjARpf8HtEs8zaAklBOylAioFg/?a=7073&bti=OTU0QDItLmA%3D&ch=0&cr=0&dr=4&er=0&lr=unwatermarked&cd=0%7C0%7C0%7C0&br=312&bt=156&ds=5&ft=.cwOVInz7ThUDGvOXq8Zmo&qs=13&rc=M21sc3Y5cjtzdjUzNzhoM0BpM21sc3Y5cjtzdjUzNzhoM0BtNmMwMmRzMGpgLS1kLjZzYSNtNmMwMmRzMGpgLS1kLjZzcw%3D%3D&vvpl=1&l=02173103962103400000000000000000000ffff0a00afb97d90e8&btag=e00070000&format=mp3&mime_type=audio_mpeg",
        "source_timerange": {
            "start_offset": 4.248000000000047,
            "end_offset": 5.664
        },
        "target_timerange": {
            "start_offset": 774.312,
            "end_offset": 775.7280000000001
        },
        "ignore_audio": true,
        "audio_path": null
    },
    {
        "segment_id": "da4c55da9d8811efbee9b8cef68aba34",
        "text": "Not to appear to disgrace",
        "audio_url": "https://v16m-default.akamaized.net/63af369a99935d8811acd22dfb781e6e/672de60b/video/tos/maliva/tos-maliva-v-f15faa-us/okG92LfuJLEALkVAhjQfEyFEJNAGAntaD5BZBN/?a=7073&bti=OTU0QDItLmA%3D&ch=0&cr=0&dr=4&er=0&lr=unwatermarked&cd=0%7C0%7C0%7C0&br=312&bt=156&ds=5&ft=.cwOVInz7ThFDGvOXq8Zmo&qs=13&rc=ajl5Z3U5cjtzdjUzNzhoM0Bpajl5Z3U5cjtzdjUzNzhoM0AyMW9jMmRzMGpgLS1kLjZzYSMyMW9jMmRzMGpgLS1kLjZzcw%3D%3D&vvpl=1&l=02173103962103400000000000000000000ffff0a00afb97d90e8&btag=e00070000&format=mp3&mime_type=audio_mpeg",
        "source_timerange": {
            "start_offset": 0,
            "end_offset": 1.4639999999999507
        },
        "target_timerange": {
            "start_offset": 775.7280000000001,
            "end_offset": 777.192
        },
        "ignore_audio": false,
        "audio_path": null
    },
    {
        "segment_id": "da4c56de9d8811efbee9b8cef68aba34",
        "text": "his family, to degenerate",
        "audio_url": "https://v16m-default.akamaized.net/63af369a99935d8811acd22dfb781e6e/672de60b/video/tos/maliva/tos-maliva-v-f15faa-us/okG92LfuJLEALkVAhjQfEyFEJNAGAntaD5BZBN/?a=7073&bti=OTU0QDItLmA%3D&ch=0&cr=0&dr=4&er=0&lr=unwatermarked&cd=0%7C0%7C0%7C0&br=312&bt=156&ds=5&ft=.cwOVInz7ThFDGvOXq8Zmo&qs=13&rc=ajl5Z3U5cjtzdjUzNzhoM0Bpajl5Z3U5cjtzdjUzNzhoM0AyMW9jMmRzMGpgLS1kLjZzYSMyMW9jMmRzMGpgLS1kLjZzcw%3D%3D&vvpl=1&l=02173103962103400000000000000000000ffff0a00afb97d90e8&btag=e00070000&format=mp3&mime_type=audio_mpeg",
        "source_timerange": {
            "start_offset": 1.4639999999999418,
            "end_offset": 2.928000000000006
        },
        "target_timerange": {
            "start_offset": 777.192,
            "end_offset": 778.6560000000001
        },
        "ignore_audio": true,
        "audio_path": null
    },
    {
        "segment_id": "da4c57b09d8811efbee9b8cef68aba34",
        "text": "from the popular qualities,",
        "audio_url": "https://v16m-default.akamaized.net/63af369a99935d8811acd22dfb781e6e/672de60b/video/tos/maliva/tos-maliva-v-f15faa-us/okG92LfuJLEALkVAhjQfEyFEJNAGAntaD5BZBN/?a=7073&bti=OTU0QDItLmA%3D&ch=0&cr=0&dr=4&er=0&lr=unwatermarked&cd=0%7C0%7C0%7C0&br=312&bt=156&ds=5&ft=.cwOVInz7ThFDGvOXq8Zmo&qs=13&rc=ajl5Z3U5cjtzdjUzNzhoM0Bpajl5Z3U5cjtzdjUzNzhoM0AyMW9jMmRzMGpgLS1kLjZzYSMyMW9jMmRzMGpgLS1kLjZzcw%3D%3D&vvpl=1&l=02173103962103400000000000000000000ffff0a00afb97d90e8&btag=e00070000&format=mp3&mime_type=audio_mpeg",
        "source_timerange": {
            "start_offset": 2.9279999999999973,
            "end_offset": 4.392000000000062
        },
        "target_timerange": {
            "start_offset": 778.6560000000001,
            "end_offset": 780.1200000000001
        },
        "ignore_audio": true,
        "audio_path": null
    },
    {
        "segment_id": "da4c588c9d8811efbee9b8cef68aba34",
        "text": "or lose the influence of",
        "audio_url": "https://v16m-default.akamaized.net/63af369a99935d8811acd22dfb781e6e/672de60b/video/tos/maliva/tos-maliva-v-f15faa-us/okG92LfuJLEALkVAhjQfEyFEJNAGAntaD5BZBN/?a=7073&bti=OTU0QDItLmA%3D&ch=0&cr=0&dr=4&er=0&lr=unwatermarked&cd=0%7C0%7C0%7C0&br=312&bt=156&ds=5&ft=.cwOVInz7ThFDGvOXq8Zmo&qs=13&rc=ajl5Z3U5cjtzdjUzNzhoM0Bpajl5Z3U5cjtzdjUzNzhoM0AyMW9jMmRzMGpgLS1kLjZzYSMyMW9jMmRzMGpgLS1kLjZzcw%3D%3D&vvpl=1&l=02173103962103400000000000000000000ffff0a00afb97d90e8&btag=e00070000&format=mp3&mime_type=audio_mpeg",
        "source_timerange": {
            "start_offset": 4.392000000000053,
            "end_offset": 5.856000000000003
        },
        "target_timerange": {
            "start_offset": 780.1200000000001,
            "end_offset": 781.5840000000001
        },
        "ignore_audio": true,
        "audio_path": null
    },
    {
        "segment_id": "da4c59549d8811efbee9b8cef68aba34",
        "text": "the Pemberley House, is a",
        "audio_url": "https://v16m-default.akamaized.net/63af369a99935d8811acd22dfb781e6e/672de60b/video/tos/maliva/tos-maliva-v-f15faa-us/okG92LfuJLEALkVAhjQfEyFEJNAGAntaD5BZBN/?a=7073&bti=OTU0QDItLmA%3D&ch=0&cr=0&dr=4&er=0&lr=unwatermarked&cd=0%7C0%7C0%7C0&br=312&bt=156&ds=5&ft=.cwOVInz7ThFDGvOXq8Zmo&qs=13&rc=ajl5Z3U5cjtzdjUzNzhoM0Bpajl5Z3U5cjtzdjUzNzhoM0AyMW9jMmRzMGpgLS1kLjZzYSMyMW9jMmRzMGpgLS1kLjZzcw%3D%3D&vvpl=1&l=02173103962103400000000000000000000ffff0a00afb97d90e8&btag=e00070000&format=mp3&mime_type=audio_mpeg",
        "source_timerange": {
            "start_offset": 5.8559999999999945,
            "end_offset": 7.319999999999945
        },
        "target_timerange": {
            "start_offset": 781.5840000000001,
            "end_offset": 783.048
        },
        "ignore_audio": true,
        "audio_path": null
    },
    {
        "segment_id": "da4c5a129d8811efbee9b8cef68aba34",
        "text": "powerful motive.",
        "audio_url": "https://v16m-default.akamaized.net/63af369a99935d8811acd22dfb781e6e/672de60b/video/tos/maliva/tos-maliva-v-f15faa-us/okG92LfuJLEALkVAhjQfEyFEJNAGAntaD5BZBN/?a=7073&bti=OTU0QDItLmA%3D&ch=0&cr=0&dr=4&er=0&lr=unwatermarked&cd=0%7C0%7C0%7C0&br=312&bt=156&ds=5&ft=.cwOVInz7ThFDGvOXq8Zmo&qs=13&rc=ajl5Z3U5cjtzdjUzNzhoM0Bpajl5Z3U5cjtzdjUzNzhoM0AyMW9jMmRzMGpgLS1kLjZzYSMyMW9jMmRzMGpgLS1kLjZzcw%3D%3D&vvpl=1&l=02173103962103400000000000000000000ffff0a00afb97d90e8&btag=e00070000&format=mp3&mime_type=audio_mpeg",
        "source_timerange": {
            "start_offset": 7.319999999999936,
            "end_offset": 8.784
        },
        "target_timerange": {
            "start_offset": 783.048,
            "end_offset": 784.5120000000001
        },
        "ignore_audio": true,
        "audio_path": null
    },
    {
        "segment_id": "da4c793e9d8811efbee9b8cef68aba34",
        "text": "He has also _brotherly_",
        "audio_url": "https://v16m-default.akamaized.net/5bd30acd02fe90ce1a6b05d90b7b5bee/672de60f/video/tos/maliva/tos-maliva-v-f15faa-us/owqatLW2ZJAMNEEnALFfBBQsDkvAGREaVADehj/?a=7073&bti=OTU0QDItLmA%3D&ch=0&cr=0&dr=4&er=0&lr=unwatermarked&cd=0%7C0%7C0%7C0&br=312&bt=156&ds=5&ft=.cwOVInz7ThFDGvOXq8Zmo&qs=13&rc=ajZvZHg5cjtzdjUzNzhoM0BpajZvZHg5cjtzdjUzNzhoM0A1YGVhMmRzMGpgLS1kLjZzYSM1YGVhMmRzMGpgLS1kLjZzcw%3D%3D&vvpl=1&l=02173103962103400000000000000000000ffff0a00afb97d90e8&btag=e00070000&format=mp3&mime_type=audio_mpeg",
        "source_timerange": {
            "start_offset": 0,
            "end_offset": 1.5600000000000414
        },
        "target_timerange": {
            "start_offset": 784.5120000000001,
            "end_offset": 786.072
        },
        "ignore_audio": false,
        "audio_path": null
    },
    {
        "segment_id": "da4c7a429d8811efbee9b8cef68aba34",
        "text": "pride, which, with _some_",
        "audio_url": "https://v16m-default.akamaized.net/5bd30acd02fe90ce1a6b05d90b7b5bee/672de60f/video/tos/maliva/tos-maliva-v-f15faa-us/owqatLW2ZJAMNEEnALFfBBQsDkvAGREaVADehj/?a=7073&bti=OTU0QDItLmA%3D&ch=0&cr=0&dr=4&er=0&lr=unwatermarked&cd=0%7C0%7C0%7C0&br=312&bt=156&ds=5&ft=.cwOVInz7ThFDGvOXq8Zmo&qs=13&rc=ajZvZHg5cjtzdjUzNzhoM0BpajZvZHg5cjtzdjUzNzhoM0A1YGVhMmRzMGpgLS1kLjZzYSM1YGVhMmRzMGpgLS1kLjZzcw%3D%3D&vvpl=1&l=02173103962103400000000000000000000ffff0a00afb97d90e8&btag=e00070000&format=mp3&mime_type=audio_mpeg",
        "source_timerange": {
            "start_offset": 1.5599999999999454,
            "end_offset": 3.1200000000001005
        },
        "target_timerange": {
            "start_offset": 786.072,
            "end_offset": 787.6320000000001
        },
        "ignore_audio": true,
        "audio_path": null
    },
    {
        "segment_id": "da4c7b1e9d8811efbee9b8cef68aba34",
        "text": "brotherly affection, makes",
        "audio_url": "https://v16m-default.akamaized.net/5bd30acd02fe90ce1a6b05d90b7b5bee/672de60f/video/tos/maliva/tos-maliva-v-f15faa-us/owqatLW2ZJAMNEEnALFfBBQsDkvAGREaVADehj/?a=7073&bti=OTU0QDItLmA%3D&ch=0&cr=0&dr=4&er=0&lr=unwatermarked&cd=0%7C0%7C0%7C0&br=312&bt=156&ds=5&ft=.cwOVInz7ThFDGvOXq8Zmo&qs=13&rc=ajZvZHg5cjtzdjUzNzhoM0BpajZvZHg5cjtzdjUzNzhoM0A1YGVhMmRzMGpgLS1kLjZzYSM1YGVhMmRzMGpgLS1kLjZzcw%3D%3D&vvpl=1&l=02173103962103400000000000000000000ffff0a00afb97d90e8&btag=e00070000&format=mp3&mime_type=audio_mpeg",
        "source_timerange": {
            "start_offset": 3.1200000000000045,
            "end_offset": 4.680000000000046
        },
        "target_timerange": {
            "start_offset": 787.6320000000001,
            "end_offset": 789.192
        },
        "ignore_audio": true,
        "audio_path": null
    },
    {
        "segment_id": "da4c7bf09d8811efbee9b8cef68aba34",
        "text": "him a very kind and careful",
        "audio_url": "https://v16m-default.akamaized.net/5bd30acd02fe90ce1a6b05d90b7b5bee/672de60f/video/tos/maliva/tos-maliva-v-f15faa-us/owqatLW2ZJAMNEEnALFfBBQsDkvAGREaVADehj/?a=7073&bti=OTU0QDItLmA%3D&ch=0&cr=0&dr=4&er=0&lr=unwatermarked&cd=0%7C0%7C0%7C0&br=312&bt=156&ds=5&ft=.cwOVInz7ThFDGvOXq8Zmo&qs=13&rc=ajZvZHg5cjtzdjUzNzhoM0BpajZvZHg5cjtzdjUzNzhoM0A1YGVhMmRzMGpgLS1kLjZzYSM1YGVhMmRzMGpgLS1kLjZzcw%3D%3D&vvpl=1&l=02173103962103400000000000000000000ffff0a00afb97d90e8&btag=e00070000&format=mp3&mime_type=audio_mpeg",
        "source_timerange": {
            "start_offset": 4.67999999999995,
            "end_offset": 6.239999999999991
        },
        "target_timerange": {
            "start_offset": 789.192,
            "end_offset": 790.752
        },
        "ignore_audio": true,
        "audio_path": null
    },
    {
        "segment_id": "da4c7cc29d8811efbee9b8cef68aba34",
        "text": "guardian of his sister; and",
        "audio_url": "https://v16m-default.akamaized.net/5bd30acd02fe90ce1a6b05d90b7b5bee/672de60f/video/tos/maliva/tos-maliva-v-f15faa-us/owqatLW2ZJAMNEEnALFfBBQsDkvAGREaVADehj/?a=7073&bti=OTU0QDItLmA%3D&ch=0&cr=0&dr=4&er=0&lr=unwatermarked&cd=0%7C0%7C0%7C0&br=312&bt=156&ds=5&ft=.cwOVInz7ThFDGvOXq8Zmo&qs=13&rc=ajZvZHg5cjtzdjUzNzhoM0BpajZvZHg5cjtzdjUzNzhoM0A1YGVhMmRzMGpgLS1kLjZzYSM1YGVhMmRzMGpgLS1kLjZzcw%3D%3D&vvpl=1&l=02173103962103400000000000000000000ffff0a00afb97d90e8&btag=e00070000&format=mp3&mime_type=audio_mpeg",
        "source_timerange": {
            "start_offset": 6.239999999999895,
            "end_offset": 7.8000000000000504
        },
        "target_timerange": {
            "start_offset": 790.752,
            "end_offset": 792.312
        },
        "ignore_audio": true,
        "audio_path": null
    },
    {
        "segment_id": "da4c7d8a9d8811efbee9b8cef68aba34",
        "text": "you will hear him generally",
        "audio_url": "https://v16m-default.akamaized.net/5bd30acd02fe90ce1a6b05d90b7b5bee/672de60f/video/tos/maliva/tos-maliva-v-f15faa-us/owqatLW2ZJAMNEEnALFfBBQsDkvAGREaVADehj/?a=7073&bti=OTU0QDItLmA%3D&ch=0&cr=0&dr=4&er=0&lr=unwatermarked&cd=0%7C0%7C0%7C0&br=312&bt=156&ds=5&ft=.cwOVInz7ThFDGvOXq8Zmo&qs=13&rc=ajZvZHg5cjtzdjUzNzhoM0BpajZvZHg5cjtzdjUzNzhoM0A1YGVhMmRzMGpgLS1kLjZzYSM1YGVhMmRzMGpgLS1kLjZzcw%3D%3D&vvpl=1&l=02173103962103400000000000000000000ffff0a00afb97d90e8&btag=e00070000&format=mp3&mime_type=audio_mpeg",
        "source_timerange": {
            "start_offset": 7.7999999999999545,
            "end_offset": 9.359999999999996
        },
        "target_timerange": {
            "start_offset": 792.312,
            "end_offset": 793.872
        },
        "ignore_audio": true,
        "audio_path": null
    },
    {
        "segment_id": "da4c7e489d8811efbee9b8cef68aba34",
        "text": "cried up as the most",
        "audio_url": "https://v16m-default.akamaized.net/5bd30acd02fe90ce1a6b05d90b7b5bee/672de60f/video/tos/maliva/tos-maliva-v-f15faa-us/owqatLW2ZJAMNEEnALFfBBQsDkvAGREaVADehj/?a=7073&bti=OTU0QDItLmA%3D&ch=0&cr=0&dr=4&er=0&lr=unwatermarked&cd=0%7C0%7C0%7C0&br=312&bt=156&ds=5&ft=.cwOVInz7ThFDGvOXq8Zmo&qs=13&rc=ajZvZHg5cjtzdjUzNzhoM0BpajZvZHg5cjtzdjUzNzhoM0A1YGVhMmRzMGpgLS1kLjZzYSM1YGVhMmRzMGpgLS1kLjZzcw%3D%3D&vvpl=1&l=02173103962103400000000000000000000ffff0a00afb97d90e8&btag=e00070000&format=mp3&mime_type=audio_mpeg",
        "source_timerange": {
            "start_offset": 9.3599999999999,
            "end_offset": 10.920000000000055
        },
        "target_timerange": {
            "start_offset": 793.872,
            "end_offset": 795.432
        },
        "ignore_audio": true,
        "audio_path": null
    },
    {
        "segment_id": "da4c7f069d8811efbee9b8cef68aba34",
        "text": "attentive and best of brothers.”",
        "audio_url": "https://v16m-default.akamaized.net/5bd30acd02fe90ce1a6b05d90b7b5bee/672de60f/video/tos/maliva/tos-maliva-v-f15faa-us/owqatLW2ZJAMNEEnALFfBBQsDkvAGREaVADehj/?a=7073&bti=OTU0QDItLmA%3D&ch=0&cr=0&dr=4&er=0&lr=unwatermarked&cd=0%7C0%7C0%7C0&br=312&bt=156&ds=5&ft=.cwOVInz7ThFDGvOXq8Zmo&qs=13&rc=ajZvZHg5cjtzdjUzNzhoM0BpajZvZHg5cjtzdjUzNzhoM0A1YGVhMmRzMGpgLS1kLjZzYSM1YGVhMmRzMGpgLS1kLjZzcw%3D%3D&vvpl=1&l=02173103962103400000000000000000000ffff0a00afb97d90e8&btag=e00070000&format=mp3&mime_type=audio_mpeg",
        "source_timerange": {
            "start_offset": 10.919999999999959,
            "end_offset": 12.48
        },
        "target_timerange": {
            "start_offset": 795.432,
            "end_offset": 796.992
        },
        "ignore_audio": true,
        "audio_path": null
    },
    {
        "segment_id": "da4c8adc9d8811efbee9b8cef68aba34",
        "text": "“What sort of a girl is Miss",
        "audio_url": "https://v16m-default.akamaized.net/05ee3d5d83774105e5a09cc06d1e1e67/672de607/video/tos/maliva/tos-maliva-v-f15faa-us/ogAtRHjiA6qZAEOEFAizFkABoAk9AgDafslww6/?a=7073&bti=OTU0QDItLmA%3D&ch=0&cr=0&dr=4&er=0&lr=unwatermarked&cd=0%7C0%7C0%7C0&br=312&bt=156&ds=5&ft=.cwOVInz7ThUDGvOXq8Zmo&qs=13&rc=MzM6eHQ5cjtzdjUzNzhoM0BpMzM6eHQ5cjtzdjUzNzhoM0AtLWcwMmRzMGpgLS1kLjZzYSMtLWcwMmRzMGpgLS1kLjZzcw%3D%3D&vvpl=1&l=02173103962103400000000000000000000ffff0a00afb97d90e8&btag=e00070000&format=mp3&mime_type=audio_mpeg",
        "source_timerange": {
            "start_offset": 0,
            "end_offset": 1.5719999999999974
        },
        "target_timerange": {
            "start_offset": 796.992,
            "end_offset": 798.564
        },
        "ignore_audio": false,
        "audio_path": null
    },
    {
        "segment_id": "da4c8c089d8811efbee9b8cef68aba34",
        "text": "Darcy?”  He shook his head.",
        "audio_url": "https://v16m-default.akamaized.net/05ee3d5d83774105e5a09cc06d1e1e67/672de607/video/tos/maliva/tos-maliva-v-f15faa-us/ogAtRHjiA6qZAEOEFAizFkABoAk9AgDafslww6/?a=7073&bti=OTU0QDItLmA%3D&ch=0&cr=0&dr=4&er=0&lr=unwatermarked&cd=0%7C0%7C0%7C0&br=312&bt=156&ds=5&ft=.cwOVInz7ThUDGvOXq8Zmo&qs=13&rc=MzM6eHQ5cjtzdjUzNzhoM0BpMzM6eHQ5cjtzdjUzNzhoM0AtLWcwMmRzMGpgLS1kLjZzYSMtLWcwMmRzMGpgLS1kLjZzcw%3D%3D&vvpl=1&l=02173103962103400000000000000000000ffff0a00afb97d90e8&btag=e00070000&format=mp3&mime_type=audio_mpeg",
        "source_timerange": {
            "start_offset": 1.5720000000000027,
            "end_offset": 3.144
        },
        "target_timerange": {
            "start_offset": 798.564,
            "end_offset": 800.136
        },
        "ignore_audio": true,
        "audio_path": null
    },
    {
        "segment_id": "da4c92d49d8811efbee9b8cef68aba34",
        "text": "“I wish I could call her amiable.",
        "audio_url": "https://v16m-default.akamaized.net/539985b34142635c01a42a7df9f87c80/672de604/video/tos/maliva/tos-maliva-v-f15faa-us/oojlBf8RwijkEak7JAzoiA2tE0qsFARNAgNAX8/?a=7073&bti=OTU0QDItLmA%3D&ch=0&cr=0&dr=4&er=0&lr=unwatermarked&cd=0%7C0%7C0%7C0&br=312&bt=156&ds=5&ft=.cwOVInz7ThFDGvOXq8Zmo&qs=13&rc=anV3d3Y5cjtzdjUzNzhoM0BpanV3d3Y5cjtzdjUzNzhoM0AzMGYxMmRzMGpgLS1kLjZzYSMzMGYxMmRzMGpgLS1kLjZzcw%3D%3D&vvpl=1&l=02173103962103400000000000000000000ffff0a00afb97d90e8&btag=e00070000&format=mp3&mime_type=audio_mpeg",
        "source_timerange": {
            "start_offset": 0,
            "end_offset": 1.92
        },
        "target_timerange": {
            "start_offset": 800.136,
            "end_offset": 802.056
        },
        "ignore_audio": false,
        "audio_path": null
    },
    {
        "segment_id": "da4ca7069d8811efbee9b8cef68aba34",
        "text": "It gives me pain to speak",
        "audio_url": "https://v16m-default.akamaized.net/dae8c192185db04abf90e935f760d9b6/672de609/video/tos/maliva/tos-maliva-v-f15faa-us/okEtEABAVk9LLPDnBFAaf5hvyGfhjEAQJBZaB7/?a=7073&bti=OTU0QDItLmA%3D&ch=0&cr=0&dr=4&er=0&lr=unwatermarked&cd=0%7C0%7C0%7C0&br=312&bt=156&ds=5&ft=.cwOVInz7ThFDGvOXq8Zmo&qs=13&rc=M3NudXk5cjtzdjUzNzhoM0BpM3NudXk5cjtzdjUzNzhoM0BtMHMtMmRzMGpgLS1kLjZzYSNtMHMtMmRzMGpgLS1kLjZzcw%3D%3D&vvpl=1&l=02173103962103400000000000000000000ffff0a00afb97d90e8&btag=e00070000&format=mp3&mime_type=audio_mpeg",
        "source_timerange": {
            "start_offset": 0,
            "end_offset": 1.5840000000000476
        },
        "target_timerange": {
            "start_offset": 802.056,
            "end_offset": 803.6400000000001
        },
        "ignore_audio": false,
        "audio_path": null
    },
    {
        "segment_id": "da4ca8d29d8811efbee9b8cef68aba34",
        "text": "ill of a Darcy; but she is",
        "audio_url": "https://v16m-default.akamaized.net/dae8c192185db04abf90e935f760d9b6/672de609/video/tos/maliva/tos-maliva-v-f15faa-us/okEtEABAVk9LLPDnBFAaf5hvyGfhjEAQJBZaB7/?a=7073&bti=OTU0QDItLmA%3D&ch=0&cr=0&dr=4&er=0&lr=unwatermarked&cd=0%7C0%7C0%7C0&br=312&bt=156&ds=5&ft=.cwOVInz7ThFDGvOXq8Zmo&qs=13&rc=M3NudXk5cjtzdjUzNzhoM0BpM3NudXk5cjtzdjUzNzhoM0BtMHMtMmRzMGpgLS1kLjZzYSNtMHMtMmRzMGpgLS1kLjZzcw%3D%3D&vvpl=1&l=02173103962103400000000000000000000ffff0a00afb97d90e8&btag=e00070000&format=mp3&mime_type=audio_mpeg",
        "source_timerange": {
            "start_offset": 1.58400000000006,
            "end_offset": 3.167999999999994
        },
        "target_timerange": {
            "start_offset": 803.6400000000001,
            "end_offset": 805.224
        },
        "ignore_audio": true,
        "audio_path": null
    },
    {
        "segment_id": "da4caae49d8811efbee9b8cef68aba34",
        "text": "too much like her brother,",
        "audio_url": "https://v16m-default.akamaized.net/dae8c192185db04abf90e935f760d9b6/672de609/video/tos/maliva/tos-maliva-v-f15faa-us/okEtEABAVk9LLPDnBFAaf5hvyGfhjEAQJBZaB7/?a=7073&bti=OTU0QDItLmA%3D&ch=0&cr=0&dr=4&er=0&lr=unwatermarked&cd=0%7C0%7C0%7C0&br=312&bt=156&ds=5&ft=.cwOVInz7ThFDGvOXq8Zmo&qs=13&rc=M3NudXk5cjtzdjUzNzhoM0BpM3NudXk5cjtzdjUzNzhoM0BtMHMtMmRzMGpgLS1kLjZzYSNtMHMtMmRzMGpgLS1kLjZzcw%3D%3D&vvpl=1&l=02173103962103400000000000000000000ffff0a00afb97d90e8&btag=e00070000&format=mp3&mime_type=audio_mpeg",
        "source_timerange": {
            "start_offset": 3.1680000000000064,
            "end_offset": 4.75199999999994
        },
        "target_timerange": {
            "start_offset": 805.224,
            "end_offset": 806.808
        },
        "ignore_audio": true,
        "audio_path": null
    },
    {
        "segment_id": "da4cac1a9d8811efbee9b8cef68aba34",
        "text": "--very, very proud.",
        "audio_url": "https://v16m-default.akamaized.net/dae8c192185db04abf90e935f760d9b6/672de609/video/tos/maliva/tos-maliva-v-f15faa-us/okEtEABAVk9LLPDnBFAaf5hvyGfhjEAQJBZaB7/?a=7073&bti=OTU0QDItLmA%3D&ch=0&cr=0&dr=4&er=0&lr=unwatermarked&cd=0%7C0%7C0%7C0&br=312&bt=156&ds=5&ft=.cwOVInz7ThFDGvOXq8Zmo&qs=13&rc=M3NudXk5cjtzdjUzNzhoM0BpM3NudXk5cjtzdjUzNzhoM0BtMHMtMmRzMGpgLS1kLjZzYSNtMHMtMmRzMGpgLS1kLjZzcw%3D%3D&vvpl=1&l=02173103962103400000000000000000000ffff0a00afb97d90e8&btag=e00070000&format=mp3&mime_type=audio_mpeg",
        "source_timerange": {
            "start_offset": 4.751999999999953,
            "end_offset": 6.336
        },
        "target_timerange": {
            "start_offset": 806.808,
            "end_offset": 808.392
        },
        "ignore_audio": true,
        "audio_path": null
    },
    {
        "segment_id": "da4cc1c89d8811efbee9b8cef68aba34",
        "text": "As a child, she was",
        "audio_url": "https://v16m-default.akamaized.net/a20d4dd823745e6ccff553ba6faa860f/672de60c/video/tos/maliva/tos-maliva-v-f15faa-us/oct8olBAAEzAiAVjRkfAqMRra5TNkswYFigDiE/?a=7073&bti=OTU0QDItLmA%3D&ch=0&cr=0&dr=4&er=0&lr=unwatermarked&cd=0%7C0%7C0%7C0&br=312&bt=156&ds=5&ft=.cwOVInz7ThUDGvOXq8Zmo&qs=13&rc=am00aXM5cjtzdjUzNzhoM0Bpam00aXM5cjtzdjUzNzhoM0AuXjAzMmRzMGpgLS1kLjZzYSMuXjAzMmRzMGpgLS1kLjZzcw%3D%3D&vvpl=1&l=02173103962103400000000000000000000ffff0a00afb97d90e8&btag=e00070000&format=mp3&mime_type=audio_mpeg",
        "source_timerange": {
            "start_offset": 0,
            "end_offset": 1.6368000000000258
        },
        "target_timerange": {
            "start_offset": 808.392,
            "end_offset": 810.0288
        },
        "ignore_audio": false,
        "audio_path": null
    },
    {
        "segment_id": "da4cc2e09d8811efbee9b8cef68aba34",
        "text": "affectionate and pleasing,",
        "audio_url": "https://v16m-default.akamaized.net/a20d4dd823745e6ccff553ba6faa860f/672de60c/video/tos/maliva/tos-maliva-v-f15faa-us/oct8olBAAEzAiAVjRkfAqMRra5TNkswYFigDiE/?a=7073&bti=OTU0QDItLmA%3D&ch=0&cr=0&dr=4&er=0&lr=unwatermarked&cd=0%7C0%7C0%7C0&br=312&bt=156&ds=5&ft=.cwOVInz7ThUDGvOXq8Zmo&qs=13&rc=am00aXM5cjtzdjUzNzhoM0Bpam00aXM5cjtzdjUzNzhoM0AuXjAzMmRzMGpgLS1kLjZzYSMuXjAzMmRzMGpgLS1kLjZzcw%3D%3D&vvpl=1&l=02173103962103400000000000000000000ffff0a00afb97d90e8&btag=e00070000&format=mp3&mime_type=audio_mpeg",
        "source_timerange": {
            "start_offset": 1.6367999999999938,
            "end_offset": 3.2736000000000196
        },
        "target_timerange": {
            "start_offset": 810.0288,
            "end_offset": 811.6656
        },
        "ignore_audio": true,
        "audio_path": null
    },
    {
        "segment_id": "da4cc40c9d8811efbee9b8cef68aba34",
        "text": "and extremely fond of me;",
        "audio_url": "https://v16m-default.akamaized.net/a20d4dd823745e6ccff553ba6faa860f/672de60c/video/tos/maliva/tos-maliva-v-f15faa-us/oct8olBAAEzAiAVjRkfAqMRra5TNkswYFigDiE/?a=7073&bti=OTU0QDItLmA%3D&ch=0&cr=0&dr=4&er=0&lr=unwatermarked&cd=0%7C0%7C0%7C0&br=312&bt=156&ds=5&ft=.cwOVInz7ThUDGvOXq8Zmo&qs=13&rc=am00aXM5cjtzdjUzNzhoM0Bpam00aXM5cjtzdjUzNzhoM0AuXjAzMmRzMGpgLS1kLjZzYSMuXjAzMmRzMGpgLS1kLjZzcw%3D%3D&vvpl=1&l=02173103962103400000000000000000000ffff0a00afb97d90e8&btag=e00070000&format=mp3&mime_type=audio_mpeg",
        "source_timerange": {
            "start_offset": 3.2735999999999876,
            "end_offset": 4.910400000000013
        },
        "target_timerange": {
            "start_offset": 811.6656,
            "end_offset": 813.3024
        },
        "ignore_audio": true,
        "audio_path": null
    },
    {
        "segment_id": "da4cc51a9d8811efbee9b8cef68aba34",
        "text": "and I have devoted hours",
        "audio_url": "https://v16m-default.akamaized.net/a20d4dd823745e6ccff553ba6faa860f/672de60c/video/tos/maliva/tos-maliva-v-f15faa-us/oct8olBAAEzAiAVjRkfAqMRra5TNkswYFigDiE/?a=7073&bti=OTU0QDItLmA%3D&ch=0&cr=0&dr=4&er=0&lr=unwatermarked&cd=0%7C0%7C0%7C0&br=312&bt=156&ds=5&ft=.cwOVInz7ThUDGvOXq8Zmo&qs=13&rc=am00aXM5cjtzdjUzNzhoM0Bpam00aXM5cjtzdjUzNzhoM0AuXjAzMmRzMGpgLS1kLjZzYSMuXjAzMmRzMGpgLS1kLjZzcw%3D%3D&vvpl=1&l=02173103962103400000000000000000000ffff0a00afb97d90e8&btag=e00070000&format=mp3&mime_type=audio_mpeg",
        "source_timerange": {
            "start_offset": 4.9103999999999814,
            "end_offset": 6.547200000000007
        },
        "target_timerange": {
            "start_offset": 813.3024,
            "end_offset": 814.9392
        },
        "ignore_audio": true,
        "audio_path": null
    },
    {
        "segment_id": "da4cc6289d8811efbee9b8cef68aba34",
        "text": "and hours to her amusement.",
        "audio_url": "https://v16m-default.akamaized.net/a20d4dd823745e6ccff553ba6faa860f/672de60c/video/tos/maliva/tos-maliva-v-f15faa-us/oct8olBAAEzAiAVjRkfAqMRra5TNkswYFigDiE/?a=7073&bti=OTU0QDItLmA%3D&ch=0&cr=0&dr=4&er=0&lr=unwatermarked&cd=0%7C0%7C0%7C0&br=312&bt=156&ds=5&ft=.cwOVInz7ThUDGvOXq8Zmo&qs=13&rc=am00aXM5cjtzdjUzNzhoM0Bpam00aXM5cjtzdjUzNzhoM0AuXjAzMmRzMGpgLS1kLjZzYSMuXjAzMmRzMGpgLS1kLjZzcw%3D%3D&vvpl=1&l=02173103962103400000000000000000000ffff0a00afb97d90e8&btag=e00070000&format=mp3&mime_type=audio_mpeg",
        "source_timerange": {
            "start_offset": 6.547199999999975,
            "end_offset": 8.184000000000001
        },
        "target_timerange": {
            "start_offset": 814.9392,
            "end_offset": 816.576
        },
        "ignore_audio": true,
        "audio_path": null
    },
    {
        "segment_id": "da4ccc229d8811efbee9b8cef68aba34",
        "text": "But she is nothing to me now.",
        "audio_url": "https://v16m-default.akamaized.net/7c9ef580f08e62260708edaf9a92a9ed/672de605/video/tos/maliva/tos-maliva-v-f15faa-us/oQAzP3jwAFA9AqhjoEiAlkkBRf5zLasigwAAtE/?a=7073&bti=OTU0QDItLmA%3D&ch=0&cr=0&dr=4&er=0&lr=unwatermarked&cd=0%7C0%7C0%7C0&br=312&bt=156&ds=5&ft=.cwOVInz7ThUDGvOXq8Zmo&qs=13&rc=M20zaHc5cjtzdjUzNzhoM0BpM20zaHc5cjtzdjUzNzhoM0Ata2ItMmRzMGpgLS1kLjZzYSMta2ItMmRzMGpgLS1kLjZzcw%3D%3D&vvpl=1&l=02173103962103400000000000000000000ffff0a00afb97d90e8&btag=e00070000&format=mp3&mime_type=audio_mpeg",
        "source_timerange": {
            "start_offset": 0,
            "end_offset": 1.776
        },
        "target_timerange": {
            "start_offset": 816.576,
            "end_offset": 818.352
        },
        "ignore_audio": false,
        "audio_path": null
    },
    {
        "segment_id": "da4cddc09d8811efbee9b8cef68aba34",
        "text": "She is a handsome girl,",
        "audio_url": "https://v16m-default.akamaized.net/95e6eb58e6f6b89ae724815e1e039b47/672de609/video/tos/maliva/tos-maliva-v-f15faa-us/oEjWEO6LQG5VLEJanAEAfPFIhEBtJZfkB7AADA/?a=7073&bti=OTU0QDItLmA%3D&ch=0&cr=0&dr=4&er=0&lr=unwatermarked&cd=0%7C0%7C0%7C0&br=312&bt=156&ds=5&ft=.cwOVInz7ThUDGvOXq8Zmo&qs=13&rc=M3U3cXY5cjtzdjUzNzhoM0BpM3U3cXY5cjtzdjUzNzhoM0AtNm1nMmRzMGpgLS1kLjZzYSMtNm1nMmRzMGpgLS1kLjZzcw%3D%3D&vvpl=1&l=02173103962103400000000000000000000ffff0a00afb97d90e8&btag=e00070000&format=mp3&mime_type=audio_mpeg",
        "source_timerange": {
            "start_offset": 0,
            "end_offset": 1.4819999999999736
        },
        "target_timerange": {
            "start_offset": 818.352,
            "end_offset": 819.834
        },
        "ignore_audio": false,
        "audio_path": null
    },
    {
        "segment_id": "da4cdee29d8811efbee9b8cef68aba34",
        "text": "about fifteen or sixteen,",
        "audio_url": "https://v16m-default.akamaized.net/95e6eb58e6f6b89ae724815e1e039b47/672de609/video/tos/maliva/tos-maliva-v-f15faa-us/oEjWEO6LQG5VLEJanAEAfPFIhEBtJZfkB7AADA/?a=7073&bti=OTU0QDItLmA%3D&ch=0&cr=0&dr=4&er=0&lr=unwatermarked&cd=0%7C0%7C0%7C0&br=312&bt=156&ds=5&ft=.cwOVInz7ThUDGvOXq8Zmo&qs=13&rc=M3U3cXY5cjtzdjUzNzhoM0BpM3U3cXY5cjtzdjUzNzhoM0AtNm1nMmRzMGpgLS1kLjZzYSMtNm1nMmRzMGpgLS1kLjZzcw%3D%3D&vvpl=1&l=02173103962103400000000000000000000ffff0a00afb97d90e8&btag=e00070000&format=mp3&mime_type=audio_mpeg",
        "source_timerange": {
            "start_offset": 1.481999999999971,
            "end_offset": 2.964000000000058
        },
        "target_timerange": {
            "start_offset": 819.834,
            "end_offset": 821.316
        },
        "ignore_audio": true,
        "audio_path": null
    },
    {
        "segment_id": "da4cdfc89d8811efbee9b8cef68aba34",
        "text": "and, I understand, highly",
        "audio_url": "https://v16m-default.akamaized.net/95e6eb58e6f6b89ae724815e1e039b47/672de609/video/tos/maliva/tos-maliva-v-f15faa-us/oEjWEO6LQG5VLEJanAEAfPFIhEBtJZfkB7AADA/?a=7073&bti=OTU0QDItLmA%3D&ch=0&cr=0&dr=4&er=0&lr=unwatermarked&cd=0%7C0%7C0%7C0&br=312&bt=156&ds=5&ft=.cwOVInz7ThUDGvOXq8Zmo&qs=13&rc=M3U3cXY5cjtzdjUzNzhoM0BpM3U3cXY5cjtzdjUzNzhoM0AtNm1nMmRzMGpgLS1kLjZzYSMtNm1nMmRzMGpgLS1kLjZzcw%3D%3D&vvpl=1&l=02173103962103400000000000000000000ffff0a00afb97d90e8&btag=e00070000&format=mp3&mime_type=audio_mpeg",
        "source_timerange": {
            "start_offset": 2.9640000000000555,
            "end_offset": 4.446000000000029
        },
        "target_timerange": {
            "start_offset": 821.316,
            "end_offset": 822.798
        },
        "ignore_audio": true,
        "audio_path": null
    },
    {
        "segment_id": "da4ce09a9d8811efbee9b8cef68aba34",
        "text": "accomplished.",
        "audio_url": "https://v16m-default.akamaized.net/95e6eb58e6f6b89ae724815e1e039b47/672de609/video/tos/maliva/tos-maliva-v-f15faa-us/oEjWEO6LQG5VLEJanAEAfPFIhEBtJZfkB7AADA/?a=7073&bti=OTU0QDItLmA%3D&ch=0&cr=0&dr=4&er=0&lr=unwatermarked&cd=0%7C0%7C0%7C0&br=312&bt=156&ds=5&ft=.cwOVInz7ThUDGvOXq8Zmo&qs=13&rc=M3U3cXY5cjtzdjUzNzhoM0BpM3U3cXY5cjtzdjUzNzhoM0AtNm1nMmRzMGpgLS1kLjZzYSMtNm1nMmRzMGpgLS1kLjZzcw%3D%3D&vvpl=1&l=02173103962103400000000000000000000ffff0a00afb97d90e8&btag=e00070000&format=mp3&mime_type=audio_mpeg",
        "source_timerange": {
            "start_offset": 4.446000000000026,
            "end_offset": 5.928
        },
        "target_timerange": {
            "start_offset": 822.798,
            "end_offset": 824.28
        },
        "ignore_audio": true,
        "audio_path": null
    },
    {
        "segment_id": "da4cf3b49d8811efbee9b8cef68aba34",
        "text": "Since her father’s death her",
        "audio_url": "https://v16m-default.akamaized.net/47dedaa392b8120e6ae4c2066b0a642b/672de60a/video/tos/maliva/tos-maliva-v-f15faa-us/oUqatFsXskAPMiEzAlifgAoPdk8AjbEPqAB1wR/?a=7073&bti=OTU0QDItLmA%3D&ch=0&cr=0&dr=4&er=0&lr=unwatermarked&cd=0%7C0%7C0%7C0&br=312&bt=156&ds=5&ft=.cwOVInz7ThUDGvOXq8Zmo&qs=13&rc=andsdG85cjtzdjUzNzhoM0BpandsdG85cjtzdjUzNzhoM0BhbGU0MmRzMGpgLS1kLjZzYSNhbGU0MmRzMGpgLS1kLjZzcw%3D%3D&vvpl=1&l=02173103962103400000000000000000000ffff0a00afb97d90e8&btag=e00070000&format=mp3&mime_type=audio_mpeg",
        "source_timerange": {
            "start_offset": 0,
            "end_offset": 1.5539999999999656
        },
        "target_timerange": {
            "start_offset": 824.28,
            "end_offset": 825.834
        },
        "ignore_audio": false,
        "audio_path": null
    },
    {
        "segment_id": "da4cf5269d8811efbee9b8cef68aba34",
        "text": "home has been London, where a",
        "audio_url": "https://v16m-default.akamaized.net/47dedaa392b8120e6ae4c2066b0a642b/672de60a/video/tos/maliva/tos-maliva-v-f15faa-us/oUqatFsXskAPMiEzAlifgAoPdk8AjbEPqAB1wR/?a=7073&bti=OTU0QDItLmA%3D&ch=0&cr=0&dr=4&er=0&lr=unwatermarked&cd=0%7C0%7C0%7C0&br=312&bt=156&ds=5&ft=.cwOVInz7ThUDGvOXq8Zmo&qs=13&rc=andsdG85cjtzdjUzNzhoM0BpandsdG85cjtzdjUzNzhoM0BhbGU0MmRzMGpgLS1kLjZzYSNhbGU0MmRzMGpgLS1kLjZzcw%3D%3D&vvpl=1&l=02173103962103400000000000000000000ffff0a00afb97d90e8&btag=e00070000&format=mp3&mime_type=audio_mpeg",
        "source_timerange": {
            "start_offset": 1.5539999999999736,
            "end_offset": 3.1079999999999393
        },
        "target_timerange": {
            "start_offset": 825.834,
            "end_offset": 827.3879999999999
        },
        "ignore_audio": true,
        "audio_path": null
    },
    {
        "segment_id": "da4cf6529d8811efbee9b8cef68aba34",
        "text": "lady lives with her, and",
        "audio_url": "https://v16m-default.akamaized.net/47dedaa392b8120e6ae4c2066b0a642b/672de60a/video/tos/maliva/tos-maliva-v-f15faa-us/oUqatFsXskAPMiEzAlifgAoPdk8AjbEPqAB1wR/?a=7073&bti=OTU0QDItLmA%3D&ch=0&cr=0&dr=4&er=0&lr=unwatermarked&cd=0%7C0%7C0%7C0&br=312&bt=156&ds=5&ft=.cwOVInz7ThUDGvOXq8Zmo&qs=13&rc=andsdG85cjtzdjUzNzhoM0BpandsdG85cjtzdjUzNzhoM0BhbGU0MmRzMGpgLS1kLjZzYSNhbGU0MmRzMGpgLS1kLjZzcw%3D%3D&vvpl=1&l=02173103962103400000000000000000000ffff0a00afb97d90e8&btag=e00070000&format=mp3&mime_type=audio_mpeg",
        "source_timerange": {
            "start_offset": 3.1079999999999472,
            "end_offset": 4.662000000000027
        },
        "target_timerange": {
            "start_offset": 827.3879999999999,
            "end_offset": 828.942
        },
        "ignore_audio": true,
        "audio_path": null
    },
    {
        "segment_id": "da4cffb29d8811efbee9b8cef68aba34",
        "text": "superintends her education.”",
        "audio_url": "https://v16m-default.akamaized.net/47dedaa392b8120e6ae4c2066b0a642b/672de60a/video/tos/maliva/tos-maliva-v-f15faa-us/oUqatFsXskAPMiEzAlifgAoPdk8AjbEPqAB1wR/?a=7073&bti=OTU0QDItLmA%3D&ch=0&cr=0&dr=4&er=0&lr=unwatermarked&cd=0%7C0%7C0%7C0&br=312&bt=156&ds=5&ft=.cwOVInz7ThUDGvOXq8Zmo&qs=13&rc=andsdG85cjtzdjUzNzhoM0BpandsdG85cjtzdjUzNzhoM0BhbGU0MmRzMGpgLS1kLjZzYSNhbGU0MmRzMGpgLS1kLjZzcw%3D%3D&vvpl=1&l=02173103962103400000000000000000000ffff0a00afb97d90e8&btag=e00070000&format=mp3&mime_type=audio_mpeg",
        "source_timerange": {
            "start_offset": 4.662000000000035,
            "end_offset": 6.216
        },
        "target_timerange": {
            "start_offset": 828.942,
            "end_offset": 830.496
        },
        "ignore_audio": true,
        "audio_path": null
    },
    {
        "segment_id": "da4d22769d8811efbee9b8cef68aba34",
        "text": "After many pauses and many",
        "audio_url": "https://v16m-default.akamaized.net/0935d906d491aff84d59a197ff795a1e/672de60e/video/tos/maliva/tos-maliva-v-f15faa-us/owmRj0AOEiLKO9AgskzwtBaAlEymkaAfoFmiAq/?a=7073&bti=OTU0QDItLmA%3D&ch=0&cr=0&dr=4&er=0&lr=unwatermarked&cd=0%7C0%7C0%7C0&br=312&bt=156&ds=5&ft=.cwOVInz7ThUDGvOXq8Zmo&qs=13&rc=M2U8PG45cjtzdjUzNzhoM0BpM2U8PG45cjtzdjUzNzhoM0A0aGVnMmRzMGpgLS1kLjZzYSM0aGVnMmRzMGpgLS1kLjZzcw%3D%3D&vvpl=1&l=02173103962103400000000000000000000ffff0a00afb97d90e8&btag=e00070000&format=mp3&mime_type=audio_mpeg",
        "source_timerange": {
            "start_offset": 0,
            "end_offset": 1.4948571428571444
        },
        "target_timerange": {
            "start_offset": 830.496,
            "end_offset": 831.9908571428572
        },
        "ignore_audio": false,
        "audio_path": null
    },
    {
        "segment_id": "da4d23989d8811efbee9b8cef68aba34",
        "text": "trials of other subjects,",
        "audio_url": "https://v16m-default.akamaized.net/0935d906d491aff84d59a197ff795a1e/672de60e/video/tos/maliva/tos-maliva-v-f15faa-us/owmRj0AOEiLKO9AgskzwtBaAlEymkaAfoFmiAq/?a=7073&bti=OTU0QDItLmA%3D&ch=0&cr=0&dr=4&er=0&lr=unwatermarked&cd=0%7C0%7C0%7C0&br=312&bt=156&ds=5&ft=.cwOVInz7ThUDGvOXq8Zmo&qs=13&rc=M2U8PG45cjtzdjUzNzhoM0BpM2U8PG45cjtzdjUzNzhoM0A0aGVnMmRzMGpgLS1kLjZzYSM0aGVnMmRzMGpgLS1kLjZzcw%3D%3D&vvpl=1&l=02173103962103400000000000000000000ffff0a00afb97d90e8&btag=e00070000&format=mp3&mime_type=audio_mpeg",
        "source_timerange": {
            "start_offset": 1.4948571428571995,
            "end_offset": 2.9897142857142303
        },
        "target_timerange": {
            "start_offset": 831.9908571428572,
            "end_offset": 833.4857142857143
        },
        "ignore_audio": true,
        "audio_path": null
    },
    {
        "segment_id": "da4d24749d8811efbee9b8cef68aba34",
        "text": "Elizabeth could not help",
        "audio_url": "https://v16m-default.akamaized.net/0935d906d491aff84d59a197ff795a1e/672de60e/video/tos/maliva/tos-maliva-v-f15faa-us/owmRj0AOEiLKO9AgskzwtBaAlEymkaAfoFmiAq/?a=7073&bti=OTU0QDItLmA%3D&ch=0&cr=0&dr=4&er=0&lr=unwatermarked&cd=0%7C0%7C0%7C0&br=312&bt=156&ds=5&ft=.cwOVInz7ThUDGvOXq8Zmo&qs=13&rc=M2U8PG45cjtzdjUzNzhoM0BpM2U8PG45cjtzdjUzNzhoM0A0aGVnMmRzMGpgLS1kLjZzYSM0aGVnMmRzMGpgLS1kLjZzcw%3D%3D&vvpl=1&l=02173103962103400000000000000000000ffff0a00afb97d90e8&btag=e00070000&format=mp3&mime_type=audio_mpeg",
        "source_timerange": {
            "start_offset": 2.9897142857142853,
            "end_offset": 4.48457142857143
        },
        "target_timerange": {
            "start_offset": 833.4857142857143,
            "end_offset": 834.9805714285715
        },
        "ignore_audio": true,
        "audio_path": null
    },
    {
        "segment_id": "da4d25469d8811efbee9b8cef68aba34",
        "text": "reverting once more to the",
        "audio_url": "https://v16m-default.akamaized.net/0935d906d491aff84d59a197ff795a1e/672de60e/video/tos/maliva/tos-maliva-v-f15faa-us/owmRj0AOEiLKO9AgskzwtBaAlEymkaAfoFmiAq/?a=7073&bti=OTU0QDItLmA%3D&ch=0&cr=0&dr=4&er=0&lr=unwatermarked&cd=0%7C0%7C0%7C0&br=312&bt=156&ds=5&ft=.cwOVInz7ThUDGvOXq8Zmo&qs=13&rc=M2U8PG45cjtzdjUzNzhoM0BpM2U8PG45cjtzdjUzNzhoM0A0aGVnMmRzMGpgLS1kLjZzYSM0aGVnMmRzMGpgLS1kLjZzcw%3D%3D&vvpl=1&l=02173103962103400000000000000000000ffff0a00afb97d90e8&btag=e00070000&format=mp3&mime_type=audio_mpeg",
        "source_timerange": {
            "start_offset": 4.484571428571485,
            "end_offset": 5.979428571428516
        },
        "target_timerange": {
            "start_offset": 834.9805714285715,
            "end_offset": 836.4754285714286
        },
        "ignore_audio": true,
        "audio_path": null
    },
    {
        "segment_id": "da4d260e9d8811efbee9b8cef68aba34",
        "text": "first, and saying,--  “I am",
        "audio_url": "https://v16m-default.akamaized.net/0935d906d491aff84d59a197ff795a1e/672de60e/video/tos/maliva/tos-maliva-v-f15faa-us/owmRj0AOEiLKO9AgskzwtBaAlEymkaAfoFmiAq/?a=7073&bti=OTU0QDItLmA%3D&ch=0&cr=0&dr=4&er=0&lr=unwatermarked&cd=0%7C0%7C0%7C0&br=312&bt=156&ds=5&ft=.cwOVInz7ThUDGvOXq8Zmo&qs=13&rc=M2U8PG45cjtzdjUzNzhoM0BpM2U8PG45cjtzdjUzNzhoM0A0aGVnMmRzMGpgLS1kLjZzYSM0aGVnMmRzMGpgLS1kLjZzcw%3D%3D&vvpl=1&l=02173103962103400000000000000000000ffff0a00afb97d90e8&btag=e00070000&format=mp3&mime_type=audio_mpeg",
        "source_timerange": {
            "start_offset": 5.979428571428571,
            "end_offset": 7.474285714285715
        },
        "target_timerange": {
            "start_offset": 836.4754285714286,
            "end_offset": 837.9702857142858
        },
        "ignore_audio": true,
        "audio_path": null
    },
    {
        "segment_id": "da4d26cc9d8811efbee9b8cef68aba34",
        "text": "astonished at his intimacy",
        "audio_url": "https://v16m-default.akamaized.net/0935d906d491aff84d59a197ff795a1e/672de60e/video/tos/maliva/tos-maliva-v-f15faa-us/owmRj0AOEiLKO9AgskzwtBaAlEymkaAfoFmiAq/?a=7073&bti=OTU0QDItLmA%3D&ch=0&cr=0&dr=4&er=0&lr=unwatermarked&cd=0%7C0%7C0%7C0&br=312&bt=156&ds=5&ft=.cwOVInz7ThUDGvOXq8Zmo&qs=13&rc=M2U8PG45cjtzdjUzNzhoM0BpM2U8PG45cjtzdjUzNzhoM0A0aGVnMmRzMGpgLS1kLjZzYSM0aGVnMmRzMGpgLS1kLjZzcw%3D%3D&vvpl=1&l=02173103962103400000000000000000000ffff0a00afb97d90e8&btag=e00070000&format=mp3&mime_type=audio_mpeg",
        "source_timerange": {
            "start_offset": 7.47428571428577,
            "end_offset": 8.969142857142801
        },
        "target_timerange": {
            "start_offset": 837.9702857142858,
            "end_offset": 839.4651428571428
        },
        "ignore_audio": true,
        "audio_path": null
    },
    {
        "segment_id": "da4d27949d8811efbee9b8cef68aba34",
        "text": "with Mr. Bingley.",
        "audio_url": "https://v16m-default.akamaized.net/0935d906d491aff84d59a197ff795a1e/672de60e/video/tos/maliva/tos-maliva-v-f15faa-us/owmRj0AOEiLKO9AgskzwtBaAlEymkaAfoFmiAq/?a=7073&bti=OTU0QDItLmA%3D&ch=0&cr=0&dr=4&er=0&lr=unwatermarked&cd=0%7C0%7C0%7C0&br=312&bt=156&ds=5&ft=.cwOVInz7ThUDGvOXq8Zmo&qs=13&rc=M2U8PG45cjtzdjUzNzhoM0BpM2U8PG45cjtzdjUzNzhoM0A0aGVnMmRzMGpgLS1kLjZzYSM0aGVnMmRzMGpgLS1kLjZzcw%3D%3D&vvpl=1&l=02173103962103400000000000000000000ffff0a00afb97d90e8&btag=e00070000&format=mp3&mime_type=audio_mpeg",
        "source_timerange": {
            "start_offset": 8.969142857142856,
            "end_offset": 10.464
        },
        "target_timerange": {
            "start_offset": 839.4651428571428,
            "end_offset": 840.96
        },
        "ignore_audio": true,
        "audio_path": null
    },
    {
        "segment_id": "da4d3f2c9d8811efbee9b8cef68aba34",
        "text": "How can Mr. Bingley,",
        "audio_url": "https://v16m-default.akamaized.net/ecb69af473fb223e6b082112eb0089c6/672de60c/video/tos/maliva/tos-maliva-v-f15faa-us/oQAibkyaEJ6wkglATtNBfgcqjRFiAAsoAaxzEC/?a=7073&bti=OTU0QDItLmA%3D&ch=0&cr=0&dr=4&er=0&lr=unwatermarked&cd=0%7C0%7C0%7C0&br=312&bt=156&ds=5&ft=.cwOVInz7ThUDGvOXq8Zmo&qs=13&rc=M21panQ5cjtzdjUzNzhoM0BpM21panQ5cjtzdjUzNzhoM0BiMWcxMmRzMGpgLS1kLjZzYSNiMWcxMmRzMGpgLS1kLjZzcw%3D%3D&vvpl=1&l=02173103962103400000000000000000000ffff0a00afb97d90e8&btag=e00070000&format=mp3&mime_type=audio_mpeg",
        "source_timerange": {
            "start_offset": 0,
            "end_offset": 1.48800000000006
        },
        "target_timerange": {
            "start_offset": 840.96,
            "end_offset": 842.4480000000001
        },
        "ignore_audio": false,
        "audio_path": null
    },
    {
        "segment_id": "da4d409e9d8811efbee9b8cef68aba34",
        "text": "who seems good-humour",
        "audio_url": "https://v16m-default.akamaized.net/ecb69af473fb223e6b082112eb0089c6/672de60c/video/tos/maliva/tos-maliva-v-f15faa-us/oQAibkyaEJ6wkglATtNBfgcqjRFiAAsoAaxzEC/?a=7073&bti=OTU0QDItLmA%3D&ch=0&cr=0&dr=4&er=0&lr=unwatermarked&cd=0%7C0%7C0%7C0&br=312&bt=156&ds=5&ft=.cwOVInz7ThUDGvOXq8Zmo&qs=13&rc=M21panQ5cjtzdjUzNzhoM0BpM21panQ5cjtzdjUzNzhoM0BiMWcxMmRzMGpgLS1kLjZzYSNiMWcxMmRzMGpgLS1kLjZzcw%3D%3D&vvpl=1&l=02173103962103400000000000000000000ffff0a00afb97d90e8&btag=e00070000&format=mp3&mime_type=audio_mpeg",
        "source_timerange": {
            "start_offset": 1.4880000000000564,
            "end_offset": 2.9760000000000026
        },
        "target_timerange": {
            "start_offset": 842.4480000000001,
            "end_offset": 843.936
        },
        "ignore_audio": true,
        "audio_path": null
    },
    {
        "segment_id": "da4d41c09d8811efbee9b8cef68aba34",
        "text": "itself, and is, I",
        "audio_url": "https://v16m-default.akamaized.net/ecb69af473fb223e6b082112eb0089c6/672de60c/video/tos/maliva/tos-maliva-v-f15faa-us/oQAibkyaEJ6wkglATtNBfgcqjRFiAAsoAaxzEC/?a=7073&bti=OTU0QDItLmA%3D&ch=0&cr=0&dr=4&er=0&lr=unwatermarked&cd=0%7C0%7C0%7C0&br=312&bt=156&ds=5&ft=.cwOVInz7ThUDGvOXq8Zmo&qs=13&rc=M21panQ5cjtzdjUzNzhoM0BpM21panQ5cjtzdjUzNzhoM0BiMWcxMmRzMGpgLS1kLjZzYSNiMWcxMmRzMGpgLS1kLjZzcw%3D%3D&vvpl=1&l=02173103962103400000000000000000000ffff0a00afb97d90e8&btag=e00070000&format=mp3&mime_type=audio_mpeg",
        "source_timerange": {
            "start_offset": 2.975999999999999,
            "end_offset": 4.463999999999945
        },
        "target_timerange": {
            "start_offset": 843.936,
            "end_offset": 845.424
        },
        "ignore_audio": true,
        "audio_path": null
    },
    {
        "segment_id": "da4d42e29d8811efbee9b8cef68aba34",
        "text": "really believe, truly",
        "audio_url": "https://v16m-default.akamaized.net/ecb69af473fb223e6b082112eb0089c6/672de60c/video/tos/maliva/tos-maliva-v-f15faa-us/oQAibkyaEJ6wkglATtNBfgcqjRFiAAsoAaxzEC/?a=7073&bti=OTU0QDItLmA%3D&ch=0&cr=0&dr=4&er=0&lr=unwatermarked&cd=0%7C0%7C0%7C0&br=312&bt=156&ds=5&ft=.cwOVInz7ThUDGvOXq8Zmo&qs=13&rc=M21panQ5cjtzdjUzNzhoM0BpM21panQ5cjtzdjUzNzhoM0BiMWcxMmRzMGpgLS1kLjZzYSNiMWcxMmRzMGpgLS1kLjZzcw%3D%3D&vvpl=1&l=02173103962103400000000000000000000ffff0a00afb97d90e8&btag=e00070000&format=mp3&mime_type=audio_mpeg",
        "source_timerange": {
            "start_offset": 4.463999999999942,
            "end_offset": 5.952000000000002
        },
        "target_timerange": {
            "start_offset": 845.424,
            "end_offset": 846.912
        },
        "ignore_audio": true,
        "audio_path": null
    },
    {
        "segment_id": "da4d43b49d8811efbee9b8cef68aba34",
        "text": "amiable, be in",
        "audio_url": "https://v16m-default.akamaized.net/ecb69af473fb223e6b082112eb0089c6/672de60c/video/tos/maliva/tos-maliva-v-f15faa-us/oQAibkyaEJ6wkglATtNBfgcqjRFiAAsoAaxzEC/?a=7073&bti=OTU0QDItLmA%3D&ch=0&cr=0&dr=4&er=0&lr=unwatermarked&cd=0%7C0%7C0%7C0&br=312&bt=156&ds=5&ft=.cwOVInz7ThUDGvOXq8Zmo&qs=13&rc=M21panQ5cjtzdjUzNzhoM0BpM21panQ5cjtzdjUzNzhoM0BiMWcxMmRzMGpgLS1kLjZzYSNiMWcxMmRzMGpgLS1kLjZzcw%3D%3D&vvpl=1&l=02173103962103400000000000000000000ffff0a00afb97d90e8&btag=e00070000&format=mp3&mime_type=audio_mpeg",
        "source_timerange": {
            "start_offset": 5.951999999999998,
            "end_offset": 7.440000000000058
        },
        "target_timerange": {
            "start_offset": 846.912,
            "end_offset": 848.4000000000001
        },
        "ignore_audio": true,
        "audio_path": null
    },
    {
        "segment_id": "da4d449a9d8811efbee9b8cef68aba34",
        "text": "friendship with such a man?",
        "audio_url": "https://v16m-default.akamaized.net/ecb69af473fb223e6b082112eb0089c6/672de60c/video/tos/maliva/tos-maliva-v-f15faa-us/oQAibkyaEJ6wkglATtNBfgcqjRFiAAsoAaxzEC/?a=7073&bti=OTU0QDItLmA%3D&ch=0&cr=0&dr=4&er=0&lr=unwatermarked&cd=0%7C0%7C0%7C0&br=312&bt=156&ds=5&ft=.cwOVInz7ThUDGvOXq8Zmo&qs=13&rc=M21panQ5cjtzdjUzNzhoM0BpM21panQ5cjtzdjUzNzhoM0BiMWcxMmRzMGpgLS1kLjZzYSNiMWcxMmRzMGpgLS1kLjZzcw%3D%3D&vvpl=1&l=02173103962103400000000000000000000ffff0a00afb97d90e8&btag=e00070000&format=mp3&mime_type=audio_mpeg",
        "source_timerange": {
            "start_offset": 7.440000000000055,
            "end_offset": 8.928
        },
        "target_timerange": {
            "start_offset": 848.4000000000001,
            "end_offset": 849.888
        },
        "ignore_audio": true,
        "audio_path": null
    },
    {
        "segment_id": "da4d4af89d8811efbee9b8cef68aba34",
        "text": "How can they suit each other?",
        "audio_url": "https://v16m-default.akamaized.net/f14525fa6d7928723222d0cba91d0467/672de605/video/tos/maliva/tos-maliva-v-f15faa-us/o0kAlpKFAs2B0zzMAAAqaRfjwLgitkizoEuEvN/?a=7073&bti=OTU0QDItLmA%3D&ch=0&cr=0&dr=4&er=0&lr=unwatermarked&cd=0%7C0%7C0%7C0&br=312&bt=156&ds=5&ft=.cwOVInz7ThUDGvOXq8Zmo&qs=13&rc=M2V0bG05cjtzdjUzNzhoM0BpM2V0bG05cjtzdjUzNzhoM0BrcmptMmRzMGpgLS1kLjZzYSNrcmptMmRzMGpgLS1kLjZzcw%3D%3D&vvpl=1&l=02173103962103400000000000000000000ffff0a00afb97d90e8&btag=e00070000&format=mp3&mime_type=audio_mpeg",
        "source_timerange": {
            "start_offset": 0,
            "end_offset": 1.512
        },
        "target_timerange": {
            "start_offset": 849.888,
            "end_offset": 851.4
        },
        "ignore_audio": false,
        "audio_path": null
    },
    {
        "segment_id": "da4d544e9d8811efbee9b8cef68aba34",
        "text": "Do you know Mr.",
        "audio_url": "https://v16m-default.akamaized.net/d656dfef7c4e4989f30e3c01bd6598ec/672de606/video/tos/maliva/tos-maliva-v-f15faa-us/o4AyksP5BEAattyjFtiAkzqRaAf7zAgEiaoswl/?a=7073&bti=OTU0QDItLmA%3D&ch=0&cr=0&dr=4&er=0&lr=unwatermarked&cd=0%7C0%7C0%7C0&br=312&bt=156&ds=5&ft=.cwOVInz7ThUDGvOXq8Zmo&qs=13&rc=anRkdWw5cjtzdjUzNzhoM0BpanRkdWw5cjtzdjUzNzhoM0BqbjNwMmRzMGpgLS1kLjZzYSNqbjNwMmRzMGpgLS1kLjZzcw%3D%3D&vvpl=1&l=02173103962103400000000000000000000ffff0a00afb97d90e8&btag=e00070000&format=mp3&mime_type=audio_mpeg",
        "source_timerange": {
            "start_offset": 0,
            "end_offset": 1.3439999999999492
        },
        "target_timerange": {
            "start_offset": 851.4,
            "end_offset": 852.7439999999999
        },
        "ignore_audio": false,
        "audio_path": null
    },
    {
        "segment_id": "da4d55489d8811efbee9b8cef68aba34",
        "text": "Bingley?”  “Not at all.”",
        "audio_url": "https://v16m-default.akamaized.net/d656dfef7c4e4989f30e3c01bd6598ec/672de606/video/tos/maliva/tos-maliva-v-f15faa-us/o4AyksP5BEAattyjFtiAkzqRaAf7zAgEiaoswl/?a=7073&bti=OTU0QDItLmA%3D&ch=0&cr=0&dr=4&er=0&lr=unwatermarked&cd=0%7C0%7C0%7C0&br=312&bt=156&ds=5&ft=.cwOVInz7ThUDGvOXq8Zmo&qs=13&rc=anRkdWw5cjtzdjUzNzhoM0BpanRkdWw5cjtzdjUzNzhoM0BqbjNwMmRzMGpgLS1kLjZzYSNqbjNwMmRzMGpgLS1kLjZzcw%3D%3D&vvpl=1&l=02173103962103400000000000000000000ffff0a00afb97d90e8&btag=e00070000&format=mp3&mime_type=audio_mpeg",
        "source_timerange": {
            "start_offset": 1.3439999999999372,
            "end_offset": 2.688
        },
        "target_timerange": {
            "start_offset": 852.7439999999999,
            "end_offset": 854.088
        },
        "ignore_audio": true,
        "audio_path": null
    },
    {
        "segment_id": "da4d5f0c9d8811efbee9b8cef68aba34",
        "text": "“He is a sweet-tempered,",
        "audio_url": "https://v16m-default.akamaized.net/2d7e16f333d18052c52d94db4cdd4ff1/672de606/video/tos/maliva/tos-maliva-v-f15faa-us/o8wVOREokoFiDiskAMqnxlfOAjBOgAAE4Aazdt/?a=7073&bti=OTU0QDItLmA%3D&ch=0&cr=0&dr=4&er=0&lr=unwatermarked&cd=0%7C0%7C0%7C0&br=312&bt=156&ds=5&ft=.cwOVInz7ThUDGvOXq8Zmo&qs=13&rc=ajpxbWs5cjtzdjUzNzhoM0BpajpxbWs5cjtzdjUzNzhoM0AuZWZiMmRzMGpgLS1kLjZzYSMuZWZiMmRzMGpgLS1kLjZzcw%3D%3D&vvpl=1&l=02173103962103400000000000000000000ffff0a00afb97d90e8&btag=e00070000&format=mp3&mime_type=audio_mpeg",
        "source_timerange": {
            "start_offset": 0,
            "end_offset": 1.4399999999999453
        },
        "target_timerange": {
            "start_offset": 854.088,
            "end_offset": 855.528
        },
        "ignore_audio": false,
        "audio_path": null
    },
    {
        "segment_id": "da4d5ffc9d8811efbee9b8cef68aba34",
        "text": "amiable, charming man.",
        "audio_url": "https://v16m-default.akamaized.net/2d7e16f333d18052c52d94db4cdd4ff1/672de606/video/tos/maliva/tos-maliva-v-f15faa-us/o8wVOREokoFiDiskAMqnxlfOAjBOgAAE4Aazdt/?a=7073&bti=OTU0QDItLmA%3D&ch=0&cr=0&dr=4&er=0&lr=unwatermarked&cd=0%7C0%7C0%7C0&br=312&bt=156&ds=5&ft=.cwOVInz7ThUDGvOXq8Zmo&qs=13&rc=ajpxbWs5cjtzdjUzNzhoM0BpajpxbWs5cjtzdjUzNzhoM0AuZWZiMmRzMGpgLS1kLjZzYSMuZWZiMmRzMGpgLS1kLjZzcw%3D%3D&vvpl=1&l=02173103962103400000000000000000000ffff0a00afb97d90e8&btag=e00070000&format=mp3&mime_type=audio_mpeg",
        "source_timerange": {
            "start_offset": 1.4400000000000546,
            "end_offset": 2.88
        },
        "target_timerange": {
            "start_offset": 855.528,
            "end_offset": 856.9680000000001
        },
        "ignore_audio": true,
        "audio_path": null
    },
    {
        "segment_id": "da4d710e9d8811efbee9b8cef68aba34",
        "text": "He cannot know what Mr.",
        "audio_url": "https://v16m-default.akamaized.net/1f520d59556105bbdb5a7809b03eb42f/672de60a/video/tos/maliva/tos-maliva-v-f15faa-us/ocrARCHjXfAEzAaOiySLINfWECDehAPtIgGkC0/?a=7073&bti=OTU0QDItLmA%3D&ch=0&cr=0&dr=4&er=0&lr=unwatermarked&cd=0%7C0%7C0%7C0&br=312&bt=156&ds=5&ft=.cwOVInz7ThUDGvOXq8Zmo&qs=13&rc=M206M3k5cjtzdjUzNzhoM0BpM206M3k5cjtzdjUzNzhoM0Blc2JxMmRzMGpgLS1kLjZzYSNlc2JxMmRzMGpgLS1kLjZzcw%3D%3D&vvpl=1&l=02173103962103400000000000000000000ffff0a00afb97d90e8&btag=e00070000&format=mp3&mime_type=audio_mpeg",
        "source_timerange": {
            "start_offset": 0,
            "end_offset": 1.5480000000001084
        },
        "target_timerange": {
            "start_offset": 856.9680000000001,
            "end_offset": 858.5160000000001
        },
        "ignore_audio": false,
        "audio_path": null
    },
    {
        "segment_id": "da4d72129d8811efbee9b8cef68aba34",
        "text": "Darcy is.”  “Probably not;",
        "audio_url": "https://v16m-default.akamaized.net/1f520d59556105bbdb5a7809b03eb42f/672de60a/video/tos/maliva/tos-maliva-v-f15faa-us/ocrARCHjXfAEzAaOiySLINfWECDehAPtIgGkC0/?a=7073&bti=OTU0QDItLmA%3D&ch=0&cr=0&dr=4&er=0&lr=unwatermarked&cd=0%7C0%7C0%7C0&br=312&bt=156&ds=5&ft=.cwOVInz7ThUDGvOXq8Zmo&qs=13&rc=M206M3k5cjtzdjUzNzhoM0BpM206M3k5cjtzdjUzNzhoM0Blc2JxMmRzMGpgLS1kLjZzYSNlc2JxMmRzMGpgLS1kLjZzcw%3D%3D&vvpl=1&l=02173103962103400000000000000000000ffff0a00afb97d90e8&btag=e00070000&format=mp3&mime_type=audio_mpeg",
        "source_timerange": {
            "start_offset": 1.5480000000000018,
            "end_offset": 3.09600000000011
        },
        "target_timerange": {
            "start_offset": 858.5160000000001,
            "end_offset": 860.0640000000001
        },
        "ignore_audio": true,
        "audio_path": null
    },
    {
        "segment_id": "da4d72e49d8811efbee9b8cef68aba34",
        "text": "but Mr. Darcy can please",
        "audio_url": "https://v16m-default.akamaized.net/1f520d59556105bbdb5a7809b03eb42f/672de60a/video/tos/maliva/tos-maliva-v-f15faa-us/ocrARCHjXfAEzAaOiySLINfWECDehAPtIgGkC0/?a=7073&bti=OTU0QDItLmA%3D&ch=0&cr=0&dr=4&er=0&lr=unwatermarked&cd=0%7C0%7C0%7C0&br=312&bt=156&ds=5&ft=.cwOVInz7ThUDGvOXq8Zmo&qs=13&rc=M206M3k5cjtzdjUzNzhoM0BpM206M3k5cjtzdjUzNzhoM0Blc2JxMmRzMGpgLS1kLjZzYSNlc2JxMmRzMGpgLS1kLjZzcw%3D%3D&vvpl=1&l=02173103962103400000000000000000000ffff0a00afb97d90e8&btag=e00070000&format=mp3&mime_type=audio_mpeg",
        "source_timerange": {
            "start_offset": 3.0960000000000036,
            "end_offset": 4.643999999999998
        },
        "target_timerange": {
            "start_offset": 860.0640000000001,
            "end_offset": 861.612
        },
        "ignore_audio": true,
        "audio_path": null
    },
    {
        "segment_id": "da4d73b69d8811efbee9b8cef68aba34",
        "text": "where he chooses.",
        "audio_url": "https://v16m-default.akamaized.net/1f520d59556105bbdb5a7809b03eb42f/672de60a/video/tos/maliva/tos-maliva-v-f15faa-us/ocrARCHjXfAEzAaOiySLINfWECDehAPtIgGkC0/?a=7073&bti=OTU0QDItLmA%3D&ch=0&cr=0&dr=4&er=0&lr=unwatermarked&cd=0%7C0%7C0%7C0&br=312&bt=156&ds=5&ft=.cwOVInz7ThUDGvOXq8Zmo&qs=13&rc=M206M3k5cjtzdjUzNzhoM0BpM206M3k5cjtzdjUzNzhoM0Blc2JxMmRzMGpgLS1kLjZzYSNlc2JxMmRzMGpgLS1kLjZzcw%3D%3D&vvpl=1&l=02173103962103400000000000000000000ffff0a00afb97d90e8&btag=e00070000&format=mp3&mime_type=audio_mpeg",
        "source_timerange": {
            "start_offset": 4.643999999999892,
            "end_offset": 6.192
        },
        "target_timerange": {
            "start_offset": 861.612,
            "end_offset": 863.16
        },
        "ignore_audio": true,
        "audio_path": null
    },
    {
        "segment_id": "da4d79889d8811efbee9b8cef68aba34",
        "text": "He does not want abilities.",
        "audio_url": "https://v16m-default.akamaized.net/5d3edda1e2d2c2968563c613e74deb7d/672de605/video/tos/maliva/tos-maliva-v-f15faa-us/okZh6LAAyF8fLBJARn8jViQAGEEJfBnDEtkaOm/?a=7073&bti=OTU0QDItLmA%3D&ch=0&cr=0&dr=4&er=0&lr=unwatermarked&cd=0%7C0%7C0%7C0&br=312&bt=156&ds=5&ft=.cwOVInz7ThUDGvOXq8Zmo&qs=13&rc=am02cXg5cjtzdjUzNzhoM0Bpam02cXg5cjtzdjUzNzhoM0BzcDZgMmRzMGpgLS1kLjZzYSNzcDZgMmRzMGpgLS1kLjZzcw%3D%3D&vvpl=1&l=02173103962103400000000000000000000ffff0a00afb97d90e8&btag=e00070000&format=mp3&mime_type=audio_mpeg",
        "source_timerange": {
            "start_offset": 0,
            "end_offset": 1.6560000000000001
        },
        "target_timerange": {
            "start_offset": 863.16,
            "end_offset": 864.816
        },
        "ignore_audio": false,
        "audio_path": null
    },
    {
        "segment_id": "da4d837e9d8811efbee9b8cef68aba34",
        "text": "He can be a conversible companion",
        "audio_url": "https://v16m-default.akamaized.net/070ad349841869c68f4b7b5e6a9284cf/672de607/video/tos/maliva/tos-maliva-v-f15faa-us/ooayrGW5EXSHieAClCkIVwNAOEArgALeOtCGxe/?a=7073&bti=OTU0QDItLmA%3D&ch=0&cr=0&dr=4&er=0&lr=unwatermarked&cd=0%7C0%7C0%7C0&br=312&bt=156&ds=5&ft=.cwOVInz7ThUDGvOXq8Zmo&qs=13&rc=anh3O3M5cjtzdjUzNzhoM0Bpanh3O3M5cjtzdjUzNzhoM0BsZGFgMmRzMGpgLS1kLjZzYSNsZGFgMmRzMGpgLS1kLjZzcw%3D%3D&vvpl=1&l=02173103962103400000000000000000000ffff0a00afb97d90e8&btag=e00070000&format=mp3&mime_type=audio_mpeg",
        "source_timerange": {
            "start_offset": 0,
            "end_offset": 1.8240000000000447
        },
        "target_timerange": {
            "start_offset": 864.816,
            "end_offset": 866.6400000000001
        },
        "ignore_audio": false,
        "audio_path": null
    },
    {
        "segment_id": "da4d84b49d8811efbee9b8cef68aba34",
        "text": "if he thinks it worth his while.",
        "audio_url": "https://v16m-default.akamaized.net/070ad349841869c68f4b7b5e6a9284cf/672de607/video/tos/maliva/tos-maliva-v-f15faa-us/ooayrGW5EXSHieAClCkIVwNAOEArgALeOtCGxe/?a=7073&bti=OTU0QDItLmA%3D&ch=0&cr=0&dr=4&er=0&lr=unwatermarked&cd=0%7C0%7C0%7C0&br=312&bt=156&ds=5&ft=.cwOVInz7ThUDGvOXq8Zmo&qs=13&rc=anh3O3M5cjtzdjUzNzhoM0Bpanh3O3M5cjtzdjUzNzhoM0BsZGFgMmRzMGpgLS1kLjZzYSNsZGFgMmRzMGpgLS1kLjZzcw%3D%3D&vvpl=1&l=02173103962103400000000000000000000ffff0a00afb97d90e8&btag=e00070000&format=mp3&mime_type=audio_mpeg",
        "source_timerange": {
            "start_offset": 1.8240000000000691,
            "end_offset": 3.648
        },
        "target_timerange": {
            "start_offset": 866.6400000000001,
            "end_offset": 868.464
        },
        "ignore_audio": true,
        "audio_path": null
    },
    {
        "segment_id": "da4d97569d8811efbee9b8cef68aba34",
        "text": "Among those who are at all his",
        "audio_url": "https://v16m-default.akamaized.net/49cfcfb4566be92499625d0785dd7b08/672de60a/video/tos/maliva/tos-maliva-v-f15faa-us/ocwybREokKFiqiskAOqNwlfVAjBagAAEjAazht/?a=7073&bti=OTU0QDItLmA%3D&ch=0&cr=0&dr=4&er=0&lr=unwatermarked&cd=0%7C0%7C0%7C0&br=312&bt=156&ds=5&ft=.cwOVInz7ThUDGvOXq8Zmo&qs=13&rc=M2dkb2o5cjtzdjUzNzhoM0BpM2dkb2o5cjtzdjUzNzhoM0BpM2JkMmRzMGpgLS1kLjZzYSNpM2JkMmRzMGpgLS1kLjZzcw%3D%3D&vvpl=1&l=02173103962103400000000000000000000ffff0a00afb97d90e8&btag=e00070000&format=mp3&mime_type=audio_mpeg",
        "source_timerange": {
            "start_offset": 0,
            "end_offset": 1.6560000000000397
        },
        "target_timerange": {
            "start_offset": 868.464,
            "end_offset": 870.12
        },
        "ignore_audio": false,
        "audio_path": null
    },
    {
        "segment_id": "da4d986e9d8811efbee9b8cef68aba34",
        "text": "equals in consequence, he is a",
        "audio_url": "https://v16m-default.akamaized.net/49cfcfb4566be92499625d0785dd7b08/672de60a/video/tos/maliva/tos-maliva-v-f15faa-us/ocwybREokKFiqiskAOqNwlfVAjBagAAEjAazht/?a=7073&bti=OTU0QDItLmA%3D&ch=0&cr=0&dr=4&er=0&lr=unwatermarked&cd=0%7C0%7C0%7C0&br=312&bt=156&ds=5&ft=.cwOVInz7ThUDGvOXq8Zmo&qs=13&rc=M2dkb2o5cjtzdjUzNzhoM0BpM2dkb2o5cjtzdjUzNzhoM0BpM2JkMmRzMGpgLS1kLjZzYSNpM2JkMmRzMGpgLS1kLjZzcw%3D%3D&vvpl=1&l=02173103962103400000000000000000000ffff0a00afb97d90e8&btag=e00070000&format=mp3&mime_type=audio_mpeg",
        "source_timerange": {
            "start_offset": 1.655999999999949,
            "end_offset": 3.3120000000001024
        },
        "target_timerange": {
            "start_offset": 870.12,
            "end_offset": 871.7760000000001
        },
        "ignore_audio": true,
        "audio_path": null
    },
    {
        "segment_id": "da4d99409d8811efbee9b8cef68aba34",
        "text": "very different man from what he",
        "audio_url": "https://v16m-default.akamaized.net/49cfcfb4566be92499625d0785dd7b08/672de60a/video/tos/maliva/tos-maliva-v-f15faa-us/ocwybREokKFiqiskAOqNwlfVAjBagAAEjAazht/?a=7073&bti=OTU0QDItLmA%3D&ch=0&cr=0&dr=4&er=0&lr=unwatermarked&cd=0%7C0%7C0%7C0&br=312&bt=156&ds=5&ft=.cwOVInz7ThUDGvOXq8Zmo&qs=13&rc=M2dkb2o5cjtzdjUzNzhoM0BpM2dkb2o5cjtzdjUzNzhoM0BpM2JkMmRzMGpgLS1kLjZzYSNpM2JkMmRzMGpgLS1kLjZzcw%3D%3D&vvpl=1&l=02173103962103400000000000000000000ffff0a00afb97d90e8&btag=e00070000&format=mp3&mime_type=audio_mpeg",
        "source_timerange": {
            "start_offset": 3.312000000000012,
            "end_offset": 4.9680000000000515
        },
        "target_timerange": {
            "start_offset": 871.7760000000001,
            "end_offset": 873.432
        },
        "ignore_audio": true,
        "audio_path": null
    },
    {
        "segment_id": "da4d9a129d8811efbee9b8cef68aba34",
        "text": "is to the less prosperous.",
        "audio_url": "https://v16m-default.akamaized.net/49cfcfb4566be92499625d0785dd7b08/672de60a/video/tos/maliva/tos-maliva-v-f15faa-us/ocwybREokKFiqiskAOqNwlfVAjBagAAEjAazht/?a=7073&bti=OTU0QDItLmA%3D&ch=0&cr=0&dr=4&er=0&lr=unwatermarked&cd=0%7C0%7C0%7C0&br=312&bt=156&ds=5&ft=.cwOVInz7ThUDGvOXq8Zmo&qs=13&rc=M2dkb2o5cjtzdjUzNzhoM0BpM2dkb2o5cjtzdjUzNzhoM0BpM2JkMmRzMGpgLS1kLjZzYSNpM2JkMmRzMGpgLS1kLjZzcw%3D%3D&vvpl=1&l=02173103962103400000000000000000000ffff0a00afb97d90e8&btag=e00070000&format=mp3&mime_type=audio_mpeg",
        "source_timerange": {
            "start_offset": 4.967999999999961,
            "end_offset": 6.6240000000000006
        },
        "target_timerange": {
            "start_offset": 873.432,
            "end_offset": 875.088
        },
        "ignore_audio": true,
        "audio_path": null
    },
    {
        "segment_id": "da4db8809d8811efbee9b8cef68aba34",
        "text": "His pride never deserts",
        "audio_url": "https://v16m-default.akamaized.net/4f997253c08d01a53c6bb270e10bb880/672de610/video/tos/maliva/tos-maliva-v-f15faa-us/oURcEvAzgoAEOAqlAi0afAVFtR7BliyjskHkyw/?a=7073&bti=OTU0QDItLmA%3D&ch=0&cr=0&dr=4&er=0&lr=unwatermarked&cd=0%7C0%7C0%7C0&br=312&bt=156&ds=5&ft=.cwOVInz7ThUDGvOXq8Zmo&qs=13&rc=am87cWw5cjtzdjUzNzhoM0Bpam87cWw5cjtzdjUzNzhoM0BmYjM1MmRzMGpgLS1kLjZzYSNmYjM1MmRzMGpgLS1kLjZzcw%3D%3D&vvpl=1&l=02173103962103400000000000000000000ffff0a00afb97d90e8&btag=e00070000&format=mp3&mime_type=audio_mpeg",
        "source_timerange": {
            "start_offset": 0,
            "end_offset": 1.5330000000000066
        },
        "target_timerange": {
            "start_offset": 875.088,
            "end_offset": 876.621
        },
        "ignore_audio": false,
        "audio_path": null
    },
    {
        "segment_id": "da4db98e9d8811efbee9b8cef68aba34",
        "text": "him; but with the rich",
        "audio_url": "https://v16m-default.akamaized.net/4f997253c08d01a53c6bb270e10bb880/672de610/video/tos/maliva/tos-maliva-v-f15faa-us/oURcEvAzgoAEOAqlAi0afAVFtR7BliyjskHkyw/?a=7073&bti=OTU0QDItLmA%3D&ch=0&cr=0&dr=4&er=0&lr=unwatermarked&cd=0%7C0%7C0%7C0&br=312&bt=156&ds=5&ft=.cwOVInz7ThUDGvOXq8Zmo&qs=13&rc=am87cWw5cjtzdjUzNzhoM0Bpam87cWw5cjtzdjUzNzhoM0BmYjM1MmRzMGpgLS1kLjZzYSNmYjM1MmRzMGpgLS1kLjZzcw%3D%3D&vvpl=1&l=02173103962103400000000000000000000ffff0a00afb97d90e8&btag=e00070000&format=mp3&mime_type=audio_mpeg",
        "source_timerange": {
            "start_offset": 1.5330000000000155,
            "end_offset": 3.066000000000022
        },
        "target_timerange": {
            "start_offset": 876.621,
            "end_offset": 878.154
        },
        "ignore_audio": true,
        "audio_path": null
    },
    {
        "segment_id": "da4dba7e9d8811efbee9b8cef68aba34",
        "text": "he is liberal-minded,",
        "audio_url": "https://v16m-default.akamaized.net/4f997253c08d01a53c6bb270e10bb880/672de610/video/tos/maliva/tos-maliva-v-f15faa-us/oURcEvAzgoAEOAqlAi0afAVFtR7BliyjskHkyw/?a=7073&bti=OTU0QDItLmA%3D&ch=0&cr=0&dr=4&er=0&lr=unwatermarked&cd=0%7C0%7C0%7C0&br=312&bt=156&ds=5&ft=.cwOVInz7ThUDGvOXq8Zmo&qs=13&rc=am87cWw5cjtzdjUzNzhoM0Bpam87cWw5cjtzdjUzNzhoM0BmYjM1MmRzMGpgLS1kLjZzYSNmYjM1MmRzMGpgLS1kLjZzcw%3D%3D&vvpl=1&l=02173103962103400000000000000000000ffff0a00afb97d90e8&btag=e00070000&format=mp3&mime_type=audio_mpeg",
        "source_timerange": {
            "start_offset": 3.066000000000031,
            "end_offset": 4.5990000000000375
        },
        "target_timerange": {
            "start_offset": 878.154,
            "end_offset": 879.687
        },
        "ignore_audio": true,
        "audio_path": null
    },
    {
        "segment_id": "da4dbc229d8811efbee9b8cef68aba34",
        "text": "just, sincere, rational,",
        "audio_url": "https://v16m-default.akamaized.net/4f997253c08d01a53c6bb270e10bb880/672de610/video/tos/maliva/tos-maliva-v-f15faa-us/oURcEvAzgoAEOAqlAi0afAVFtR7BliyjskHkyw/?a=7073&bti=OTU0QDItLmA%3D&ch=0&cr=0&dr=4&er=0&lr=unwatermarked&cd=0%7C0%7C0%7C0&br=312&bt=156&ds=5&ft=.cwOVInz7ThUDGvOXq8Zmo&qs=13&rc=am87cWw5cjtzdjUzNzhoM0Bpam87cWw5cjtzdjUzNzhoM0BmYjM1MmRzMGpgLS1kLjZzYSNmYjM1MmRzMGpgLS1kLjZzcw%3D%3D&vvpl=1&l=02173103962103400000000000000000000ffff0a00afb97d90e8&btag=e00070000&format=mp3&mime_type=audio_mpeg",
        "source_timerange": {
            "start_offset": 4.599000000000046,
            "end_offset": 6.132000000000053
        },
        "target_timerange": {
            "start_offset": 879.687,
            "end_offset": 881.22
        },
        "ignore_audio": true,
        "audio_path": null
    },
    {
        "segment_id": "da4dbd269d8811efbee9b8cef68aba34",
        "text": "honourable, and,",
        "audio_url": "https://v16m-default.akamaized.net/4f997253c08d01a53c6bb270e10bb880/672de610/video/tos/maliva/tos-maliva-v-f15faa-us/oURcEvAzgoAEOAqlAi0afAVFtR7BliyjskHkyw/?a=7073&bti=OTU0QDItLmA%3D&ch=0&cr=0&dr=4&er=0&lr=unwatermarked&cd=0%7C0%7C0%7C0&br=312&bt=156&ds=5&ft=.cwOVInz7ThUDGvOXq8Zmo&qs=13&rc=am87cWw5cjtzdjUzNzhoM0Bpam87cWw5cjtzdjUzNzhoM0BmYjM1MmRzMGpgLS1kLjZzYSNmYjM1MmRzMGpgLS1kLjZzcw%3D%3D&vvpl=1&l=02173103962103400000000000000000000ffff0a00afb97d90e8&btag=e00070000&format=mp3&mime_type=audio_mpeg",
        "source_timerange": {
            "start_offset": 6.132000000000062,
            "end_offset": 7.664999999999955
        },
        "target_timerange": {
            "start_offset": 881.22,
            "end_offset": 882.7529999999999
        },
        "ignore_audio": true,
        "audio_path": null
    },
    {
        "segment_id": "da4dbdf89d8811efbee9b8cef68aba34",
        "text": "perhaps, agreeable,--",
        "audio_url": "https://v16m-default.akamaized.net/4f997253c08d01a53c6bb270e10bb880/672de610/video/tos/maliva/tos-maliva-v-f15faa-us/oURcEvAzgoAEOAqlAi0afAVFtR7BliyjskHkyw/?a=7073&bti=OTU0QDItLmA%3D&ch=0&cr=0&dr=4&er=0&lr=unwatermarked&cd=0%7C0%7C0%7C0&br=312&bt=156&ds=5&ft=.cwOVInz7ThUDGvOXq8Zmo&qs=13&rc=am87cWw5cjtzdjUzNzhoM0Bpam87cWw5cjtzdjUzNzhoM0BmYjM1MmRzMGpgLS1kLjZzYSNmYjM1MmRzMGpgLS1kLjZzcw%3D%3D&vvpl=1&l=02173103962103400000000000000000000ffff0a00afb97d90e8&btag=e00070000&format=mp3&mime_type=audio_mpeg",
        "source_timerange": {
            "start_offset": 7.664999999999964,
            "end_offset": 9.19799999999997
        },
        "target_timerange": {
            "start_offset": 882.7529999999999,
            "end_offset": 884.286
        },
        "ignore_audio": true,
        "audio_path": null
    },
    {
        "segment_id": "da4dbec09d8811efbee9b8cef68aba34",
        "text": "allowing something for",
        "audio_url": "https://v16m-default.akamaized.net/4f997253c08d01a53c6bb270e10bb880/672de610/video/tos/maliva/tos-maliva-v-f15faa-us/oURcEvAzgoAEOAqlAi0afAVFtR7BliyjskHkyw/?a=7073&bti=OTU0QDItLmA%3D&ch=0&cr=0&dr=4&er=0&lr=unwatermarked&cd=0%7C0%7C0%7C0&br=312&bt=156&ds=5&ft=.cwOVInz7ThUDGvOXq8Zmo&qs=13&rc=am87cWw5cjtzdjUzNzhoM0Bpam87cWw5cjtzdjUzNzhoM0BmYjM1MmRzMGpgLS1kLjZzYSNmYjM1MmRzMGpgLS1kLjZzcw%3D%3D&vvpl=1&l=02173103962103400000000000000000000ffff0a00afb97d90e8&btag=e00070000&format=mp3&mime_type=audio_mpeg",
        "source_timerange": {
            "start_offset": 9.197999999999979,
            "end_offset": 10.730999999999986
        },
        "target_timerange": {
            "start_offset": 884.286,
            "end_offset": 885.819
        },
        "ignore_audio": true,
        "audio_path": null
    },
    {
        "segment_id": "da4dbf929d8811efbee9b8cef68aba34",
        "text": "fortune and figure.”",
        "audio_url": "https://v16m-default.akamaized.net/4f997253c08d01a53c6bb270e10bb880/672de610/video/tos/maliva/tos-maliva-v-f15faa-us/oURcEvAzgoAEOAqlAi0afAVFtR7BliyjskHkyw/?a=7073&bti=OTU0QDItLmA%3D&ch=0&cr=0&dr=4&er=0&lr=unwatermarked&cd=0%7C0%7C0%7C0&br=312&bt=156&ds=5&ft=.cwOVInz7ThUDGvOXq8Zmo&qs=13&rc=am87cWw5cjtzdjUzNzhoM0Bpam87cWw5cjtzdjUzNzhoM0BmYjM1MmRzMGpgLS1kLjZzYSNmYjM1MmRzMGpgLS1kLjZzcw%3D%3D&vvpl=1&l=02173103962103400000000000000000000ffff0a00afb97d90e8&btag=e00070000&format=mp3&mime_type=audio_mpeg",
        "source_timerange": {
            "start_offset": 10.730999999999995,
            "end_offset": 12.264000000000001
        },
        "target_timerange": {
            "start_offset": 885.819,
            "end_offset": 887.352
        },
        "ignore_audio": true,
        "audio_path": null
    },
    {
        "segment_id": "da4ddab89d8811efbee9b8cef68aba34",
        "text": "The whist party soon",
        "audio_url": "https://v16m-default.akamaized.net/1d5b6bcfc9f4e06988ce19b839101fef/672de60d/video/tos/maliva/tos-maliva-v-f15faa-us/oU04kzAAfFALAbBRwaxtjkEo9iqMslkAhkiEgI/?a=7073&bti=OTU0QDItLmA%3D&ch=0&cr=0&dr=4&er=0&lr=unwatermarked&cd=0%7C0%7C0%7C0&br=312&bt=156&ds=5&ft=.cwOVInz7ThUDGvOXq8Zmo&qs=13&rc=M25wOXI5cjtzdjUzNzhoM0BpM25wOXI5cjtzdjUzNzhoM0AxMHNmMmRzMGpgLS1kLjZzYSMxMHNmMmRzMGpgLS1kLjZzcw%3D%3D&vvpl=1&l=02173103962103400000000000000000000ffff0a00afb97d90e8&btag=e00070000&format=mp3&mime_type=audio_mpeg",
        "source_timerange": {
            "start_offset": 0,
            "end_offset": 1.5560000000000276
        },
        "target_timerange": {
            "start_offset": 887.352,
            "end_offset": 888.908
        },
        "ignore_audio": false,
        "audio_path": null
    },
    {
        "segment_id": "da4ddc3e9d8811efbee9b8cef68aba34",
        "text": "afterwards breaking up, the",
        "audio_url": "https://v16m-default.akamaized.net/1d5b6bcfc9f4e06988ce19b839101fef/672de60d/video/tos/maliva/tos-maliva-v-f15faa-us/oU04kzAAfFALAbBRwaxtjkEo9iqMslkAhkiEgI/?a=7073&bti=OTU0QDItLmA%3D&ch=0&cr=0&dr=4&er=0&lr=unwatermarked&cd=0%7C0%7C0%7C0&br=312&bt=156&ds=5&ft=.cwOVInz7ThUDGvOXq8Zmo&qs=13&rc=M25wOXI5cjtzdjUzNzhoM0BpM25wOXI5cjtzdjUzNzhoM0AxMHNmMmRzMGpgLS1kLjZzYSMxMHNmMmRzMGpgLS1kLjZzcw%3D%3D&vvpl=1&l=02173103962103400000000000000000000ffff0a00afb97d90e8&btag=e00070000&format=mp3&mime_type=audio_mpeg",
        "source_timerange": {
            "start_offset": 1.55600000000004,
            "end_offset": 3.111999999999954
        },
        "target_timerange": {
            "start_offset": 888.908,
            "end_offset": 890.4639999999999
        },
        "ignore_audio": true,
        "audio_path": null
    },
    {
        "segment_id": "da4ddda69d8811efbee9b8cef68aba34",
        "text": "players gathered round the",
        "audio_url": "https://v16m-default.akamaized.net/1d5b6bcfc9f4e06988ce19b839101fef/672de60d/video/tos/maliva/tos-maliva-v-f15faa-us/oU04kzAAfFALAbBRwaxtjkEo9iqMslkAhkiEgI/?a=7073&bti=OTU0QDItLmA%3D&ch=0&cr=0&dr=4&er=0&lr=unwatermarked&cd=0%7C0%7C0%7C0&br=312&bt=156&ds=5&ft=.cwOVInz7ThUDGvOXq8Zmo&qs=13&rc=M25wOXI5cjtzdjUzNzhoM0BpM25wOXI5cjtzdjUzNzhoM0AxMHNmMmRzMGpgLS1kLjZzYSMxMHNmMmRzMGpgLS1kLjZzcw%3D%3D&vvpl=1&l=02173103962103400000000000000000000ffff0a00afb97d90e8&btag=e00070000&format=mp3&mime_type=audio_mpeg",
        "source_timerange": {
            "start_offset": 3.1119999999999663,
            "end_offset": 4.667999999999994
        },
        "target_timerange": {
            "start_offset": 890.4639999999999,
            "end_offset": 892.02
        },
        "ignore_audio": true,
        "audio_path": null
    },
    {
        "segment_id": "da4ddee69d8811efbee9b8cef68aba34",
        "text": "other table, and Mr. Collins",
        "audio_url": "https://v16m-default.akamaized.net/1d5b6bcfc9f4e06988ce19b839101fef/672de60d/video/tos/maliva/tos-maliva-v-f15faa-us/oU04kzAAfFALAbBRwaxtjkEo9iqMslkAhkiEgI/?a=7073&bti=OTU0QDItLmA%3D&ch=0&cr=0&dr=4&er=0&lr=unwatermarked&cd=0%7C0%7C0%7C0&br=312&bt=156&ds=5&ft=.cwOVInz7ThUDGvOXq8Zmo&qs=13&rc=M25wOXI5cjtzdjUzNzhoM0BpM25wOXI5cjtzdjUzNzhoM0AxMHNmMmRzMGpgLS1kLjZzYSMxMHNmMmRzMGpgLS1kLjZzcw%3D%3D&vvpl=1&l=02173103962103400000000000000000000ffff0a00afb97d90e8&btag=e00070000&format=mp3&mime_type=audio_mpeg",
        "source_timerange": {
            "start_offset": 4.668000000000006,
            "end_offset": 6.224000000000034
        },
        "target_timerange": {
            "start_offset": 892.02,
            "end_offset": 893.576
        },
        "ignore_audio": true,
        "audio_path": null
    },
    {
        "segment_id": "da4de0309d8811efbee9b8cef68aba34",
        "text": "took his station between his",
        "audio_url": "https://v16m-default.akamaized.net/1d5b6bcfc9f4e06988ce19b839101fef/672de60d/video/tos/maliva/tos-maliva-v-f15faa-us/oU04kzAAfFALAbBRwaxtjkEo9iqMslkAhkiEgI/?a=7073&bti=OTU0QDItLmA%3D&ch=0&cr=0&dr=4&er=0&lr=unwatermarked&cd=0%7C0%7C0%7C0&br=312&bt=156&ds=5&ft=.cwOVInz7ThUDGvOXq8Zmo&qs=13&rc=M25wOXI5cjtzdjUzNzhoM0BpM25wOXI5cjtzdjUzNzhoM0AxMHNmMmRzMGpgLS1kLjZzYSMxMHNmMmRzMGpgLS1kLjZzcw%3D%3D&vvpl=1&l=02173103962103400000000000000000000ffff0a00afb97d90e8&btag=e00070000&format=mp3&mime_type=audio_mpeg",
        "source_timerange": {
            "start_offset": 6.224000000000046,
            "end_offset": 7.77999999999996
        },
        "target_timerange": {
            "start_offset": 893.576,
            "end_offset": 895.132
        },
        "ignore_audio": true,
        "audio_path": null
    },
    {
        "segment_id": "da4de1709d8811efbee9b8cef68aba34",
        "text": "cousin Elizabeth and Mrs. Philips.",
        "audio_url": "https://v16m-default.akamaized.net/1d5b6bcfc9f4e06988ce19b839101fef/672de60d/video/tos/maliva/tos-maliva-v-f15faa-us/oU04kzAAfFALAbBRwaxtjkEo9iqMslkAhkiEgI/?a=7073&bti=OTU0QDItLmA%3D&ch=0&cr=0&dr=4&er=0&lr=unwatermarked&cd=0%7C0%7C0%7C0&br=312&bt=156&ds=5&ft=.cwOVInz7ThUDGvOXq8Zmo&qs=13&rc=M25wOXI5cjtzdjUzNzhoM0BpM25wOXI5cjtzdjUzNzhoM0AxMHNmMmRzMGpgLS1kLjZzYSMxMHNmMmRzMGpgLS1kLjZzcw%3D%3D&vvpl=1&l=02173103962103400000000000000000000ffff0a00afb97d90e8&btag=e00070000&format=mp3&mime_type=audio_mpeg",
        "source_timerange": {
            "start_offset": 7.779999999999973,
            "end_offset": 9.336
        },
        "target_timerange": {
            "start_offset": 895.132,
            "end_offset": 896.688
        },
        "ignore_audio": true,
        "audio_path": null
    },
    {
        "segment_id": "da4def589d8811efbee9b8cef68aba34",
        "text": "The usual inquiries as to his",
        "audio_url": "https://v16m-default.akamaized.net/c323a1309370318fdaac7cc10c489c8f/672de607/video/tos/maliva/tos-maliva-v-f15faa-us/o4hJNzAREICeTMACykOCtGaCWEMJSMAegXeLAr/?a=7073&bti=OTU0QDItLmA%3D&ch=0&cr=0&dr=4&er=0&lr=unwatermarked&cd=0%7C0%7C0%7C0&br=312&bt=156&ds=5&ft=.cwOVInz7ThUDGvOXq8Zmo&qs=13&rc=ajVya3Y5cjxzdjUzNzhoM0BpajVya3Y5cjxzdjUzNzhoM0A1bDRzMmQ0MGpgLS1kLjZzYSM1bDRzMmQ0MGpgLS1kLjZzcw%3D%3D&vvpl=1&l=02173103962103400000000000000000000ffff0a00afb97d90e8&btag=e00070000&format=mp3&mime_type=audio_mpeg",
        "source_timerange": {
            "start_offset": 0,
            "end_offset": 1.823999999999931
        },
        "target_timerange": {
            "start_offset": 896.688,
            "end_offset": 898.512
        },
        "ignore_audio": false,
        "audio_path": null
    },
    {
        "segment_id": "da4df0e89d8811efbee9b8cef68aba34",
        "text": "success were made by the latter.",
        "audio_url": "https://v16m-default.akamaized.net/c323a1309370318fdaac7cc10c489c8f/672de607/video/tos/maliva/tos-maliva-v-f15faa-us/o4hJNzAREICeTMACykOCtGaCWEMJSMAegXeLAr/?a=7073&bti=OTU0QDItLmA%3D&ch=0&cr=0&dr=4&er=0&lr=unwatermarked&cd=0%7C0%7C0%7C0&br=312&bt=156&ds=5&ft=.cwOVInz7ThUDGvOXq8Zmo&qs=13&rc=ajVya3Y5cjxzdjUzNzhoM0BpajVya3Y5cjxzdjUzNzhoM0A1bDRzMmQ0MGpgLS1kLjZzYSM1bDRzMmQ0MGpgLS1kLjZzcw%3D%3D&vvpl=1&l=02173103962103400000000000000000000ffff0a00afb97d90e8&btag=e00070000&format=mp3&mime_type=audio_mpeg",
        "source_timerange": {
            "start_offset": 1.8239999999999554,
            "end_offset": 3.648
        },
        "target_timerange": {
            "start_offset": 898.512,
            "end_offset": 900.336
        },
        "ignore_audio": true,
        "audio_path": null
    },
    {
        "segment_id": "da4e2b949d8811efbee9b8cef68aba34",
        "text": "It had not been very great;",
        "audio_url": "https://v16m-default.akamaized.net/c3e6230d392a9922176fddf48ba87eea/672de615/video/tos/maliva/tos-maliva-v-f15faa-us/ooQiSScpAs4EyB2LiAkw5ZtwAREUvaVPAC22z/?a=7073&bti=OTU0QDItLmA%3D&ch=0&cr=0&dr=4&er=0&lr=unwatermarked&cd=0%7C0%7C0%7C0&br=312&bt=156&ds=5&ft=.cwOVInz7ThUDGvOXq8Zmo&qs=13&rc=M3N5dXA5cjxzdjUzNzhoM0BpM3N5dXA5cjxzdjUzNzhoM0BiNDIyMmQ0MGpgLS1kLjZzYSNiNDIyMmQ0MGpgLS1kLjZzcw%3D%3D&vvpl=1&l=02173103962103400000000000000000000ffff0a00afb97d90e8&btag=e00078000&format=mp3&mime_type=audio_mpeg",
        "source_timerange": {
            "start_offset": 0,
            "end_offset": 1.4420000000000357
        },
        "target_timerange": {
            "start_offset": 900.336,
            "end_offset": 901.778
        },
        "ignore_audio": false,
        "audio_path": null
    },
    {
        "segment_id": "da4e2cca9d8811efbee9b8cef68aba34",
        "text": "he had lost every point;",
        "audio_url": "https://v16m-default.akamaized.net/c3e6230d392a9922176fddf48ba87eea/672de615/video/tos/maliva/tos-maliva-v-f15faa-us/ooQiSScpAs4EyB2LiAkw5ZtwAREUvaVPAC22z/?a=7073&bti=OTU0QDItLmA%3D&ch=0&cr=0&dr=4&er=0&lr=unwatermarked&cd=0%7C0%7C0%7C0&br=312&bt=156&ds=5&ft=.cwOVInz7ThUDGvOXq8Zmo&qs=13&rc=M3N5dXA5cjxzdjUzNzhoM0BpM3N5dXA5cjxzdjUzNzhoM0BiNDIyMmQ0MGpgLS1kLjZzYSNiNDIyMmQ0MGpgLS1kLjZzcw%3D%3D&vvpl=1&l=02173103962103400000000000000000000ffff0a00afb97d90e8&btag=e00078000&format=mp3&mime_type=audio_mpeg",
        "source_timerange": {
            "start_offset": 1.4420000000000073,
            "end_offset": 2.884000000000043
        },
        "target_timerange": {
            "start_offset": 901.778,
            "end_offset": 903.22
        },
        "ignore_audio": true,
        "audio_path": null
    },
    {
        "segment_id": "da4e2dce9d8811efbee9b8cef68aba34",
        "text": "but when Mrs. Philips began",
        "audio_url": "https://v16m-default.akamaized.net/c3e6230d392a9922176fddf48ba87eea/672de615/video/tos/maliva/tos-maliva-v-f15faa-us/ooQiSScpAs4EyB2LiAkw5ZtwAREUvaVPAC22z/?a=7073&bti=OTU0QDItLmA%3D&ch=0&cr=0&dr=4&er=0&lr=unwatermarked&cd=0%7C0%7C0%7C0&br=312&bt=156&ds=5&ft=.cwOVInz7ThUDGvOXq8Zmo&qs=13&rc=M3N5dXA5cjxzdjUzNzhoM0BpM3N5dXA5cjxzdjUzNzhoM0BiNDIyMmQ0MGpgLS1kLjZzYSNiNDIyMmQ0MGpgLS1kLjZzcw%3D%3D&vvpl=1&l=02173103962103400000000000000000000ffff0a00afb97d90e8&btag=e00078000&format=mp3&mime_type=audio_mpeg",
        "source_timerange": {
            "start_offset": 2.8840000000000146,
            "end_offset": 4.32600000000005
        },
        "target_timerange": {
            "start_offset": 903.22,
            "end_offset": 904.662
        },
        "ignore_audio": true,
        "audio_path": null
    },
    {
        "segment_id": "da4e2ea09d8811efbee9b8cef68aba34",
        "text": "to express her concern",
        "audio_url": "https://v16m-default.akamaized.net/c3e6230d392a9922176fddf48ba87eea/672de615/video/tos/maliva/tos-maliva-v-f15faa-us/ooQiSScpAs4EyB2LiAkw5ZtwAREUvaVPAC22z/?a=7073&bti=OTU0QDItLmA%3D&ch=0&cr=0&dr=4&er=0&lr=unwatermarked&cd=0%7C0%7C0%7C0&br=312&bt=156&ds=5&ft=.cwOVInz7ThUDGvOXq8Zmo&qs=13&rc=M3N5dXA5cjxzdjUzNzhoM0BpM3N5dXA5cjxzdjUzNzhoM0BiNDIyMmQ0MGpgLS1kLjZzYSNiNDIyMmQ0MGpgLS1kLjZzcw%3D%3D&vvpl=1&l=02173103962103400000000000000000000ffff0a00afb97d90e8&btag=e00078000&format=mp3&mime_type=audio_mpeg",
        "source_timerange": {
            "start_offset": 4.326000000000022,
            "end_offset": 5.7680000000000575
        },
        "target_timerange": {
            "start_offset": 904.662,
            "end_offset": 906.104
        },
        "ignore_audio": true,
        "audio_path": null
    },
    {
        "segment_id": "da4e2f909d8811efbee9b8cef68aba34",
        "text": "thereupon, he assured her,",
        "audio_url": "https://v16m-default.akamaized.net/c3e6230d392a9922176fddf48ba87eea/672de615/video/tos/maliva/tos-maliva-v-f15faa-us/ooQiSScpAs4EyB2LiAkw5ZtwAREUvaVPAC22z/?a=7073&bti=OTU0QDItLmA%3D&ch=0&cr=0&dr=4&er=0&lr=unwatermarked&cd=0%7C0%7C0%7C0&br=312&bt=156&ds=5&ft=.cwOVInz7ThUDGvOXq8Zmo&qs=13&rc=M3N5dXA5cjxzdjUzNzhoM0BpM3N5dXA5cjxzdjUzNzhoM0BiNDIyMmQ0MGpgLS1kLjZzYSNiNDIyMmQ0MGpgLS1kLjZzcw%3D%3D&vvpl=1&l=02173103962103400000000000000000000ffff0a00afb97d90e8&btag=e00078000&format=mp3&mime_type=audio_mpeg",
        "source_timerange": {
            "start_offset": 5.768000000000029,
            "end_offset": 7.210000000000065
        },
        "target_timerange": {
            "start_offset": 906.104,
            "end_offset": 907.546
        },
        "ignore_audio": true,
        "audio_path": null
    },
    {
        "segment_id": "da4e31529d8811efbee9b8cef68aba34",
        "text": "with much earnest gravity,",
        "audio_url": "https://v16m-default.akamaized.net/c3e6230d392a9922176fddf48ba87eea/672de615/video/tos/maliva/tos-maliva-v-f15faa-us/ooQiSScpAs4EyB2LiAkw5ZtwAREUvaVPAC22z/?a=7073&bti=OTU0QDItLmA%3D&ch=0&cr=0&dr=4&er=0&lr=unwatermarked&cd=0%7C0%7C0%7C0&br=312&bt=156&ds=5&ft=.cwOVInz7ThUDGvOXq8Zmo&qs=13&rc=M3N5dXA5cjxzdjUzNzhoM0BpM3N5dXA5cjxzdjUzNzhoM0BiNDIyMmQ0MGpgLS1kLjZzYSNiNDIyMmQ0MGpgLS1kLjZzcw%3D%3D&vvpl=1&l=02173103962103400000000000000000000ffff0a00afb97d90e8&btag=e00078000&format=mp3&mime_type=audio_mpeg",
        "source_timerange": {
            "start_offset": 7.210000000000036,
            "end_offset": 8.652000000000072
        },
        "target_timerange": {
            "start_offset": 907.546,
            "end_offset": 908.988
        },
        "ignore_audio": true,
        "audio_path": null
    },
    {
        "segment_id": "da4e32929d8811efbee9b8cef68aba34",
        "text": "that it was not of the",
        "audio_url": "https://v16m-default.akamaized.net/c3e6230d392a9922176fddf48ba87eea/672de615/video/tos/maliva/tos-maliva-v-f15faa-us/ooQiSScpAs4EyB2LiAkw5ZtwAREUvaVPAC22z/?a=7073&bti=OTU0QDItLmA%3D&ch=0&cr=0&dr=4&er=0&lr=unwatermarked&cd=0%7C0%7C0%7C0&br=312&bt=156&ds=5&ft=.cwOVInz7ThUDGvOXq8Zmo&qs=13&rc=M3N5dXA5cjxzdjUzNzhoM0BpM3N5dXA5cjxzdjUzNzhoM0BiNDIyMmQ0MGpgLS1kLjZzYSNiNDIyMmQ0MGpgLS1kLjZzcw%3D%3D&vvpl=1&l=02173103962103400000000000000000000ffff0a00afb97d90e8&btag=e00078000&format=mp3&mime_type=audio_mpeg",
        "source_timerange": {
            "start_offset": 8.652000000000044,
            "end_offset": 10.093999999999966
        },
        "target_timerange": {
            "start_offset": 908.988,
            "end_offset": 910.43
        },
        "ignore_audio": true,
        "audio_path": null
    },
    {
        "segment_id": "da4e33be9d8811efbee9b8cef68aba34",
        "text": "least importance; that he",
        "audio_url": "https://v16m-default.akamaized.net/c3e6230d392a9922176fddf48ba87eea/672de615/video/tos/maliva/tos-maliva-v-f15faa-us/ooQiSScpAs4EyB2LiAkw5ZtwAREUvaVPAC22z/?a=7073&bti=OTU0QDItLmA%3D&ch=0&cr=0&dr=4&er=0&lr=unwatermarked&cd=0%7C0%7C0%7C0&br=312&bt=156&ds=5&ft=.cwOVInz7ThUDGvOXq8Zmo&qs=13&rc=M3N5dXA5cjxzdjUzNzhoM0BpM3N5dXA5cjxzdjUzNzhoM0BiNDIyMmQ0MGpgLS1kLjZzYSNiNDIyMmQ0MGpgLS1kLjZzcw%3D%3D&vvpl=1&l=02173103962103400000000000000000000ffff0a00afb97d90e8&btag=e00078000&format=mp3&mime_type=audio_mpeg",
        "source_timerange": {
            "start_offset": 10.093999999999937,
            "end_offset": 11.535999999999973
        },
        "target_timerange": {
            "start_offset": 910.43,
            "end_offset": 911.872
        },
        "ignore_audio": true,
        "audio_path": null
    },
    {
        "segment_id": "da4e34f49d8811efbee9b8cef68aba34",
        "text": "considered the money as a",
        "audio_url": "https://v16m-default.akamaized.net/c3e6230d392a9922176fddf48ba87eea/672de615/video/tos/maliva/tos-maliva-v-f15faa-us/ooQiSScpAs4EyB2LiAkw5ZtwAREUvaVPAC22z/?a=7073&bti=OTU0QDItLmA%3D&ch=0&cr=0&dr=4&er=0&lr=unwatermarked&cd=0%7C0%7C0%7C0&br=312&bt=156&ds=5&ft=.cwOVInz7ThUDGvOXq8Zmo&qs=13&rc=M3N5dXA5cjxzdjUzNzhoM0BpM3N5dXA5cjxzdjUzNzhoM0BiNDIyMmQ0MGpgLS1kLjZzYSNiNDIyMmQ0MGpgLS1kLjZzcw%3D%3D&vvpl=1&l=02173103962103400000000000000000000ffff0a00afb97d90e8&btag=e00078000&format=mp3&mime_type=audio_mpeg",
        "source_timerange": {
            "start_offset": 11.535999999999945,
            "end_offset": 12.97799999999998
        },
        "target_timerange": {
            "start_offset": 911.872,
            "end_offset": 913.314
        },
        "ignore_audio": true,
        "audio_path": null
    },
    {
        "segment_id": "da4e35d09d8811efbee9b8cef68aba34",
        "text": "mere trifle, and begged she",
        "audio_url": "https://v16m-default.akamaized.net/c3e6230d392a9922176fddf48ba87eea/672de615/video/tos/maliva/tos-maliva-v-f15faa-us/ooQiSScpAs4EyB2LiAkw5ZtwAREUvaVPAC22z/?a=7073&bti=OTU0QDItLmA%3D&ch=0&cr=0&dr=4&er=0&lr=unwatermarked&cd=0%7C0%7C0%7C0&br=312&bt=156&ds=5&ft=.cwOVInz7ThUDGvOXq8Zmo&qs=13&rc=M3N5dXA5cjxzdjUzNzhoM0BpM3N5dXA5cjxzdjUzNzhoM0BiNDIyMmQ0MGpgLS1kLjZzYSNiNDIyMmQ0MGpgLS1kLjZzcw%3D%3D&vvpl=1&l=02173103962103400000000000000000000ffff0a00afb97d90e8&btag=e00078000&format=mp3&mime_type=audio_mpeg",
        "source_timerange": {
            "start_offset": 12.977999999999952,
            "end_offset": 14.419999999999987
        },
        "target_timerange": {
            "start_offset": 913.314,
            "end_offset": 914.756
        },
        "ignore_audio": true,
        "audio_path": null
    },
    {
        "segment_id": "da4e36c09d8811efbee9b8cef68aba34",
        "text": "would not make herself",
        "audio_url": "https://v16m-default.akamaized.net/c3e6230d392a9922176fddf48ba87eea/672de615/video/tos/maliva/tos-maliva-v-f15faa-us/ooQiSScpAs4EyB2LiAkw5ZtwAREUvaVPAC22z/?a=7073&bti=OTU0QDItLmA%3D&ch=0&cr=0&dr=4&er=0&lr=unwatermarked&cd=0%7C0%7C0%7C0&br=312&bt=156&ds=5&ft=.cwOVInz7ThUDGvOXq8Zmo&qs=13&rc=M3N5dXA5cjxzdjUzNzhoM0BpM3N5dXA5cjxzdjUzNzhoM0BiNDIyMmQ0MGpgLS1kLjZzYSNiNDIyMmQ0MGpgLS1kLjZzcw%3D%3D&vvpl=1&l=02173103962103400000000000000000000ffff0a00afb97d90e8&btag=e00078000&format=mp3&mime_type=audio_mpeg",
        "source_timerange": {
            "start_offset": 14.419999999999959,
            "end_offset": 15.861999999999995
        },
        "target_timerange": {
            "start_offset": 914.756,
            "end_offset": 916.198
        },
        "ignore_audio": true,
        "audio_path": null
    },
    {
        "segment_id": "da4e379c9d8811efbee9b8cef68aba34",
        "text": "uneasy.",
        "audio_url": "https://v16m-default.akamaized.net/c3e6230d392a9922176fddf48ba87eea/672de615/video/tos/maliva/tos-maliva-v-f15faa-us/ooQiSScpAs4EyB2LiAkw5ZtwAREUvaVPAC22z/?a=7073&bti=OTU0QDItLmA%3D&ch=0&cr=0&dr=4&er=0&lr=unwatermarked&cd=0%7C0%7C0%7C0&br=312&bt=156&ds=5&ft=.cwOVInz7ThUDGvOXq8Zmo&qs=13&rc=M3N5dXA5cjxzdjUzNzhoM0BpM3N5dXA5cjxzdjUzNzhoM0BiNDIyMmQ0MGpgLS1kLjZzYSNiNDIyMmQ0MGpgLS1kLjZzcw%3D%3D&vvpl=1&l=02173103962103400000000000000000000ffff0a00afb97d90e8&btag=e00078000&format=mp3&mime_type=audio_mpeg",
        "source_timerange": {
            "start_offset": 15.861999999999966,
            "end_offset": 17.304000000000002
        },
        "target_timerange": {
            "start_offset": 916.198,
            "end_offset": 917.64
        },
        "ignore_audio": true,
        "audio_path": null
    },
    {
        "segment_id": "da4e5f889d8811efbee9b8cef68aba34",
        "text": "“I know very well, madam,”",
        "audio_url": "https://v16m-default.akamaized.net/f0b741c3b11a56f0fb9d2c1a14549902/672de610/video/tos/maliva/tos-maliva-v-f15faa-us/o8IvkZiVtpp4EACYiQRU4ASAAAy2EaBRiBKjP/?a=7073&bti=OTU0QDItLmA%3D&ch=0&cr=0&dr=4&er=0&lr=unwatermarked&cd=0%7C0%7C0%7C0&br=312&bt=156&ds=5&ft=.cwOVInz7ThUDGvOXq8Zmo&qs=13&rc=MztocHI5cjxzdjUzNzhoM0BpMztocHI5cjxzdjUzNzhoM0AtcjEtMmQ0MGpgLS1kLjZzYSMtcjEtMmQ0MGpgLS1kLjZzcw%3D%3D&vvpl=1&l=02173103962103400000000000000000000ffff0a00afb97d90e8&btag=e00070000&format=mp3&mime_type=audio_mpeg",
        "source_timerange": {
            "start_offset": 0,
            "end_offset": 1.5389999999999748
        },
        "target_timerange": {
            "start_offset": 917.64,
            "end_offset": 919.179
        },
        "ignore_audio": false,
        "audio_path": null
    },
    {
        "segment_id": "da4e60f09d8811efbee9b8cef68aba34",
        "text": "said he, “that when persons",
        "audio_url": "https://v16m-default.akamaized.net/f0b741c3b11a56f0fb9d2c1a14549902/672de610/video/tos/maliva/tos-maliva-v-f15faa-us/o8IvkZiVtpp4EACYiQRU4ASAAAy2EaBRiBKjP/?a=7073&bti=OTU0QDItLmA%3D&ch=0&cr=0&dr=4&er=0&lr=unwatermarked&cd=0%7C0%7C0%7C0&br=312&bt=156&ds=5&ft=.cwOVInz7ThUDGvOXq8Zmo&qs=13&rc=MztocHI5cjxzdjUzNzhoM0BpMztocHI5cjxzdjUzNzhoM0AtcjEtMmQ0MGpgLS1kLjZzYSMtcjEtMmQ0MGpgLS1kLjZzcw%3D%3D&vvpl=1&l=02173103962103400000000000000000000ffff0a00afb97d90e8&btag=e00070000&format=mp3&mime_type=audio_mpeg",
        "source_timerange": {
            "start_offset": 1.5389999999999873,
            "end_offset": 3.077999999999962
        },
        "target_timerange": {
            "start_offset": 919.179,
            "end_offset": 920.718
        },
        "ignore_audio": true,
        "audio_path": null
    },
    {
        "segment_id": "da4e62449d8811efbee9b8cef68aba34",
        "text": "sit down to a card table",
        "audio_url": "https://v16m-default.akamaized.net/f0b741c3b11a56f0fb9d2c1a14549902/672de610/video/tos/maliva/tos-maliva-v-f15faa-us/o8IvkZiVtpp4EACYiQRU4ASAAAy2EaBRiBKjP/?a=7073&bti=OTU0QDItLmA%3D&ch=0&cr=0&dr=4&er=0&lr=unwatermarked&cd=0%7C0%7C0%7C0&br=312&bt=156&ds=5&ft=.cwOVInz7ThUDGvOXq8Zmo&qs=13&rc=MztocHI5cjxzdjUzNzhoM0BpMztocHI5cjxzdjUzNzhoM0AtcjEtMmQ0MGpgLS1kLjZzYSMtcjEtMmQ0MGpgLS1kLjZzcw%3D%3D&vvpl=1&l=02173103962103400000000000000000000ffff0a00afb97d90e8&btag=e00070000&format=mp3&mime_type=audio_mpeg",
        "source_timerange": {
            "start_offset": 3.0779999999999745,
            "end_offset": 4.616999999999949
        },
        "target_timerange": {
            "start_offset": 920.718,
            "end_offset": 922.257
        },
        "ignore_audio": true,
        "audio_path": null
    },
    {
        "segment_id": "da4e63849d8811efbee9b8cef68aba34",
        "text": "they must take their chance",
        "audio_url": "https://v16m-default.akamaized.net/f0b741c3b11a56f0fb9d2c1a14549902/672de610/video/tos/maliva/tos-maliva-v-f15faa-us/o8IvkZiVtpp4EACYiQRU4ASAAAy2EaBRiBKjP/?a=7073&bti=OTU0QDItLmA%3D&ch=0&cr=0&dr=4&er=0&lr=unwatermarked&cd=0%7C0%7C0%7C0&br=312&bt=156&ds=5&ft=.cwOVInz7ThUDGvOXq8Zmo&qs=13&rc=MztocHI5cjxzdjUzNzhoM0BpMztocHI5cjxzdjUzNzhoM0AtcjEtMmQ0MGpgLS1kLjZzYSMtcjEtMmQ0MGpgLS1kLjZzcw%3D%3D&vvpl=1&l=02173103962103400000000000000000000ffff0a00afb97d90e8&btag=e00070000&format=mp3&mime_type=audio_mpeg",
        "source_timerange": {
            "start_offset": 4.616999999999962,
            "end_offset": 6.15600000000005
        },
        "target_timerange": {
            "start_offset": 922.257,
            "end_offset": 923.796
        },
        "ignore_audio": true,
        "audio_path": null
    },
    {
        "segment_id": "da4e64ba9d8811efbee9b8cef68aba34",
        "text": "of these things,--and",
        "audio_url": "https://v16m-default.akamaized.net/f0b741c3b11a56f0fb9d2c1a14549902/672de610/video/tos/maliva/tos-maliva-v-f15faa-us/o8IvkZiVtpp4EACYiQRU4ASAAAy2EaBRiBKjP/?a=7073&bti=OTU0QDItLmA%3D&ch=0&cr=0&dr=4&er=0&lr=unwatermarked&cd=0%7C0%7C0%7C0&br=312&bt=156&ds=5&ft=.cwOVInz7ThUDGvOXq8Zmo&qs=13&rc=MztocHI5cjxzdjUzNzhoM0BpMztocHI5cjxzdjUzNzhoM0AtcjEtMmQ0MGpgLS1kLjZzYSMtcjEtMmQ0MGpgLS1kLjZzcw%3D%3D&vvpl=1&l=02173103962103400000000000000000000ffff0a00afb97d90e8&btag=e00070000&format=mp3&mime_type=audio_mpeg",
        "source_timerange": {
            "start_offset": 6.156000000000063,
            "end_offset": 7.695000000000038
        },
        "target_timerange": {
            "start_offset": 923.796,
            "end_offset": 925.335
        },
        "ignore_audio": true,
        "audio_path": null
    },
    {
        "segment_id": "da4e65f09d8811efbee9b8cef68aba34",
        "text": "happily I am not in such",
        "audio_url": "https://v16m-default.akamaized.net/f0b741c3b11a56f0fb9d2c1a14549902/672de610/video/tos/maliva/tos-maliva-v-f15faa-us/o8IvkZiVtpp4EACYiQRU4ASAAAy2EaBRiBKjP/?a=7073&bti=OTU0QDItLmA%3D&ch=0&cr=0&dr=4&er=0&lr=unwatermarked&cd=0%7C0%7C0%7C0&br=312&bt=156&ds=5&ft=.cwOVInz7ThUDGvOXq8Zmo&qs=13&rc=MztocHI5cjxzdjUzNzhoM0BpMztocHI5cjxzdjUzNzhoM0AtcjEtMmQ0MGpgLS1kLjZzYSMtcjEtMmQ0MGpgLS1kLjZzcw%3D%3D&vvpl=1&l=02173103962103400000000000000000000ffff0a00afb97d90e8&btag=e00070000&format=mp3&mime_type=audio_mpeg",
        "source_timerange": {
            "start_offset": 7.69500000000005,
            "end_offset": 9.234000000000025
        },
        "target_timerange": {
            "start_offset": 925.335,
            "end_offset": 926.874
        },
        "ignore_audio": true,
        "audio_path": null
    },
    {
        "segment_id": "da4e67309d8811efbee9b8cef68aba34",
        "text": "circumstances as to make",
        "audio_url": "https://v16m-default.akamaized.net/f0b741c3b11a56f0fb9d2c1a14549902/672de610/video/tos/maliva/tos-maliva-v-f15faa-us/o8IvkZiVtpp4EACYiQRU4ASAAAy2EaBRiBKjP/?a=7073&bti=OTU0QDItLmA%3D&ch=0&cr=0&dr=4&er=0&lr=unwatermarked&cd=0%7C0%7C0%7C0&br=312&bt=156&ds=5&ft=.cwOVInz7ThUDGvOXq8Zmo&qs=13&rc=MztocHI5cjxzdjUzNzhoM0BpMztocHI5cjxzdjUzNzhoM0AtcjEtMmQ0MGpgLS1kLjZzYSMtcjEtMmQ0MGpgLS1kLjZzcw%3D%3D&vvpl=1&l=02173103962103400000000000000000000ffff0a00afb97d90e8&btag=e00070000&format=mp3&mime_type=audio_mpeg",
        "source_timerange": {
            "start_offset": 9.234000000000037,
            "end_offset": 10.773000000000012
        },
        "target_timerange": {
            "start_offset": 926.874,
            "end_offset": 928.413
        },
        "ignore_audio": true,
        "audio_path": null
    },
    {
        "segment_id": "da4e68709d8811efbee9b8cef68aba34",
        "text": "five shillings any object.",
        "audio_url": "https://v16m-default.akamaized.net/f0b741c3b11a56f0fb9d2c1a14549902/672de610/video/tos/maliva/tos-maliva-v-f15faa-us/o8IvkZiVtpp4EACYiQRU4ASAAAy2EaBRiBKjP/?a=7073&bti=OTU0QDItLmA%3D&ch=0&cr=0&dr=4&er=0&lr=unwatermarked&cd=0%7C0%7C0%7C0&br=312&bt=156&ds=5&ft=.cwOVInz7ThUDGvOXq8Zmo&qs=13&rc=MztocHI5cjxzdjUzNzhoM0BpMztocHI5cjxzdjUzNzhoM0AtcjEtMmQ0MGpgLS1kLjZzYSMtcjEtMmQ0MGpgLS1kLjZzcw%3D%3D&vvpl=1&l=02173103962103400000000000000000000ffff0a00afb97d90e8&btag=e00070000&format=mp3&mime_type=audio_mpeg",
        "source_timerange": {
            "start_offset": 10.773000000000025,
            "end_offset": 12.312
        },
        "target_timerange": {
            "start_offset": 928.413,
            "end_offset": 929.952
        },
        "ignore_audio": true,
        "audio_path": null
    },
    {
        "segment_id": "da4eabaa9d8811efbee9b8cef68aba34",
        "text": "There are, undoubtedly,",
        "audio_url": "https://v16m-default.akamaized.net/cb0b1acc169f09b43780806072f86a19/672de61a/video/tos/maliva/tos-maliva-v-f15faa-us/osXACC0OSIJAArJINkbeCLIWBGQlUyI4ee6XBg/?a=7073&bti=OTU0QDItLmA%3D&ch=0&cr=0&dr=4&er=0&lr=unwatermarked&cd=0%7C0%7C0%7C0&br=312&bt=156&ds=5&ft=.cwOVInz7ThUDGvOXq8Zmo&qs=13&rc=M2lxang5cjxzdjUzNzhoM0BpM2lxang5cjxzdjUzNzhoM0A2cS8vMmQ0MGpgLS1kLjZzYSM2cS8vMmQ0MGpgLS1kLjZzcw%3D%3D&vvpl=1&l=02173103962103400000000000000000000ffff0a00afb97d90e8&btag=e00078000&format=mp3&mime_type=audio_mpeg",
        "source_timerange": {
            "start_offset": 0,
            "end_offset": 1.5039999999999587
        },
        "target_timerange": {
            "start_offset": 929.952,
            "end_offset": 931.456
        },
        "ignore_audio": false,
        "audio_path": null
    },
    {
        "segment_id": "da4ead309d8811efbee9b8cef68aba34",
        "text": "many who could not say the",
        "audio_url": "https://v16m-default.akamaized.net/cb0b1acc169f09b43780806072f86a19/672de61a/video/tos/maliva/tos-maliva-v-f15faa-us/osXACC0OSIJAArJINkbeCLIWBGQlUyI4ee6XBg/?a=7073&bti=OTU0QDItLmA%3D&ch=0&cr=0&dr=4&er=0&lr=unwatermarked&cd=0%7C0%7C0%7C0&br=312&bt=156&ds=5&ft=.cwOVInz7ThUDGvOXq8Zmo&qs=13&rc=M2lxang5cjxzdjUzNzhoM0BpM2lxang5cjxzdjUzNzhoM0A2cS8vMmQ0MGpgLS1kLjZzYSM2cS8vMmQ0MGpgLS1kLjZzcw%3D%3D&vvpl=1&l=02173103962103400000000000000000000ffff0a00afb97d90e8&btag=e00078000&format=mp3&mime_type=audio_mpeg",
        "source_timerange": {
            "start_offset": 1.504000000000019,
            "end_offset": 3.007999999999978
        },
        "target_timerange": {
            "start_offset": 931.456,
            "end_offset": 932.96
        },
        "ignore_audio": true,
        "audio_path": null
    },
    {
        "segment_id": "da4eae849d8811efbee9b8cef68aba34",
        "text": "same; but, thanks to Lady",
        "audio_url": "https://v16m-default.akamaized.net/cb0b1acc169f09b43780806072f86a19/672de61a/video/tos/maliva/tos-maliva-v-f15faa-us/osXACC0OSIJAArJINkbeCLIWBGQlUyI4ee6XBg/?a=7073&bti=OTU0QDItLmA%3D&ch=0&cr=0&dr=4&er=0&lr=unwatermarked&cd=0%7C0%7C0%7C0&br=312&bt=156&ds=5&ft=.cwOVInz7ThUDGvOXq8Zmo&qs=13&rc=M2lxang5cjxzdjUzNzhoM0BpM2lxang5cjxzdjUzNzhoM0A2cS8vMmQ0MGpgLS1kLjZzYSM2cS8vMmQ0MGpgLS1kLjZzcw%3D%3D&vvpl=1&l=02173103962103400000000000000000000ffff0a00afb97d90e8&btag=e00078000&format=mp3&mime_type=audio_mpeg",
        "source_timerange": {
            "start_offset": 3.008000000000038,
            "end_offset": 4.511999999999997
        },
        "target_timerange": {
            "start_offset": 932.96,
            "end_offset": 934.464
        },
        "ignore_audio": true,
        "audio_path": null
    },
    {
        "segment_id": "da4eafce9d8811efbee9b8cef68aba34",
        "text": "Catherine de Bourgh, I am",
        "audio_url": "https://v16m-default.akamaized.net/cb0b1acc169f09b43780806072f86a19/672de61a/video/tos/maliva/tos-maliva-v-f15faa-us/osXACC0OSIJAArJINkbeCLIWBGQlUyI4ee6XBg/?a=7073&bti=OTU0QDItLmA%3D&ch=0&cr=0&dr=4&er=0&lr=unwatermarked&cd=0%7C0%7C0%7C0&br=312&bt=156&ds=5&ft=.cwOVInz7ThUDGvOXq8Zmo&qs=13&rc=M2lxang5cjxzdjUzNzhoM0BpM2lxang5cjxzdjUzNzhoM0A2cS8vMmQ0MGpgLS1kLjZzYSM2cS8vMmQ0MGpgLS1kLjZzcw%3D%3D&vvpl=1&l=02173103962103400000000000000000000ffff0a00afb97d90e8&btag=e00078000&format=mp3&mime_type=audio_mpeg",
        "source_timerange": {
            "start_offset": 4.512000000000057,
            "end_offset": 6.015999999999902
        },
        "target_timerange": {
            "start_offset": 934.464,
            "end_offset": 935.968
        },
        "ignore_audio": true,
        "audio_path": null
    },
    {
        "segment_id": "da4eb0b49d8811efbee9b8cef68aba34",
        "text": "removed far beyond the",
        "audio_url": "https://v16m-default.akamaized.net/cb0b1acc169f09b43780806072f86a19/672de61a/video/tos/maliva/tos-maliva-v-f15faa-us/osXACC0OSIJAArJINkbeCLIWBGQlUyI4ee6XBg/?a=7073&bti=OTU0QDItLmA%3D&ch=0&cr=0&dr=4&er=0&lr=unwatermarked&cd=0%7C0%7C0%7C0&br=312&bt=156&ds=5&ft=.cwOVInz7ThUDGvOXq8Zmo&qs=13&rc=M2lxang5cjxzdjUzNzhoM0BpM2lxang5cjxzdjUzNzhoM0A2cS8vMmQ0MGpgLS1kLjZzYSM2cS8vMmQ0MGpgLS1kLjZzcw%3D%3D&vvpl=1&l=02173103962103400000000000000000000ffff0a00afb97d90e8&btag=e00078000&format=mp3&mime_type=audio_mpeg",
        "source_timerange": {
            "start_offset": 6.015999999999963,
            "end_offset": 7.519999999999921
        },
        "target_timerange": {
            "start_offset": 935.968,
            "end_offset": 937.472
        },
        "ignore_audio": true,
        "audio_path": null
    },
    {
        "segment_id": "da4eb1869d8811efbee9b8cef68aba34",
        "text": "necessity of regarding",
        "audio_url": "https://v16m-default.akamaized.net/cb0b1acc169f09b43780806072f86a19/672de61a/video/tos/maliva/tos-maliva-v-f15faa-us/osXACC0OSIJAArJINkbeCLIWBGQlUyI4ee6XBg/?a=7073&bti=OTU0QDItLmA%3D&ch=0&cr=0&dr=4&er=0&lr=unwatermarked&cd=0%7C0%7C0%7C0&br=312&bt=156&ds=5&ft=.cwOVInz7ThUDGvOXq8Zmo&qs=13&rc=M2lxang5cjxzdjUzNzhoM0BpM2lxang5cjxzdjUzNzhoM0A2cS8vMmQ0MGpgLS1kLjZzYSM2cS8vMmQ0MGpgLS1kLjZzcw%3D%3D&vvpl=1&l=02173103962103400000000000000000000ffff0a00afb97d90e8&btag=e00078000&format=mp3&mime_type=audio_mpeg",
        "source_timerange": {
            "start_offset": 7.519999999999982,
            "end_offset": 9.02399999999994
        },
        "target_timerange": {
            "start_offset": 937.472,
            "end_offset": 938.976
        },
        "ignore_audio": true,
        "audio_path": null
    },
    {
        "segment_id": "da4eb2769d8811efbee9b8cef68aba34",
        "text": "little matters.”  Mr.",
        "audio_url": "https://v16m-default.akamaized.net/cb0b1acc169f09b43780806072f86a19/672de61a/video/tos/maliva/tos-maliva-v-f15faa-us/osXACC0OSIJAArJINkbeCLIWBGQlUyI4ee6XBg/?a=7073&bti=OTU0QDItLmA%3D&ch=0&cr=0&dr=4&er=0&lr=unwatermarked&cd=0%7C0%7C0%7C0&br=312&bt=156&ds=5&ft=.cwOVInz7ThUDGvOXq8Zmo&qs=13&rc=M2lxang5cjxzdjUzNzhoM0BpM2lxang5cjxzdjUzNzhoM0A2cS8vMmQ0MGpgLS1kLjZzYSM2cS8vMmQ0MGpgLS1kLjZzcw%3D%3D&vvpl=1&l=02173103962103400000000000000000000ffff0a00afb97d90e8&btag=e00078000&format=mp3&mime_type=audio_mpeg",
        "source_timerange": {
            "start_offset": 9.024000000000001,
            "end_offset": 10.52799999999996
        },
        "target_timerange": {
            "start_offset": 938.976,
            "end_offset": 940.48
        },
        "ignore_audio": true,
        "audio_path": null
    },
    {
        "segment_id": "da4eb3529d8811efbee9b8cef68aba34",
        "text": "Wickham’s attention was",
        "audio_url": "https://v16m-default.akamaized.net/cb0b1acc169f09b43780806072f86a19/672de61a/video/tos/maliva/tos-maliva-v-f15faa-us/osXACC0OSIJAArJINkbeCLIWBGQlUyI4ee6XBg/?a=7073&bti=OTU0QDItLmA%3D&ch=0&cr=0&dr=4&er=0&lr=unwatermarked&cd=0%7C0%7C0%7C0&br=312&bt=156&ds=5&ft=.cwOVInz7ThUDGvOXq8Zmo&qs=13&rc=M2lxang5cjxzdjUzNzhoM0BpM2lxang5cjxzdjUzNzhoM0A2cS8vMmQ0MGpgLS1kLjZzYSM2cS8vMmQ0MGpgLS1kLjZzcw%3D%3D&vvpl=1&l=02173103962103400000000000000000000ffff0a00afb97d90e8&btag=e00078000&format=mp3&mime_type=audio_mpeg",
        "source_timerange": {
            "start_offset": 10.52800000000002,
            "end_offset": 12.031999999999979
        },
        "target_timerange": {
            "start_offset": 940.48,
            "end_offset": 941.984
        },
        "ignore_audio": true,
        "audio_path": null
    },
    {
        "segment_id": "da4eb4389d8811efbee9b8cef68aba34",
        "text": "caught; and after observing",
        "audio_url": "https://v16m-default.akamaized.net/cb0b1acc169f09b43780806072f86a19/672de61a/video/tos/maliva/tos-maliva-v-f15faa-us/osXACC0OSIJAArJINkbeCLIWBGQlUyI4ee6XBg/?a=7073&bti=OTU0QDItLmA%3D&ch=0&cr=0&dr=4&er=0&lr=unwatermarked&cd=0%7C0%7C0%7C0&br=312&bt=156&ds=5&ft=.cwOVInz7ThUDGvOXq8Zmo&qs=13&rc=M2lxang5cjxzdjUzNzhoM0BpM2lxang5cjxzdjUzNzhoM0A2cS8vMmQ0MGpgLS1kLjZzYSM2cS8vMmQ0MGpgLS1kLjZzcw%3D%3D&vvpl=1&l=02173103962103400000000000000000000ffff0a00afb97d90e8&btag=e00078000&format=mp3&mime_type=audio_mpeg",
        "source_timerange": {
            "start_offset": 12.032000000000039,
            "end_offset": 13.535999999999998
        },
        "target_timerange": {
            "start_offset": 941.984,
            "end_offset": 943.488
        },
        "ignore_audio": true,
        "audio_path": null
    },
    {
        "segment_id": "da4eb51e9d8811efbee9b8cef68aba34",
        "text": "Mr. Collins for a few",
        "audio_url": "https://v16m-default.akamaized.net/cb0b1acc169f09b43780806072f86a19/672de61a/video/tos/maliva/tos-maliva-v-f15faa-us/osXACC0OSIJAArJINkbeCLIWBGQlUyI4ee6XBg/?a=7073&bti=OTU0QDItLmA%3D&ch=0&cr=0&dr=4&er=0&lr=unwatermarked&cd=0%7C0%7C0%7C0&br=312&bt=156&ds=5&ft=.cwOVInz7ThUDGvOXq8Zmo&qs=13&rc=M2lxang5cjxzdjUzNzhoM0BpM2lxang5cjxzdjUzNzhoM0A2cS8vMmQ0MGpgLS1kLjZzYSM2cS8vMmQ0MGpgLS1kLjZzcw%3D%3D&vvpl=1&l=02173103962103400000000000000000000ffff0a00afb97d90e8&btag=e00078000&format=mp3&mime_type=audio_mpeg",
        "source_timerange": {
            "start_offset": 13.536000000000058,
            "end_offset": 15.040000000000017
        },
        "target_timerange": {
            "start_offset": 943.488,
            "end_offset": 944.9920000000001
        },
        "ignore_audio": true,
        "audio_path": null
    },
    {
        "segment_id": "da4eb5f09d8811efbee9b8cef68aba34",
        "text": "moments, he asked Elizabeth",
        "audio_url": "https://v16m-default.akamaized.net/cb0b1acc169f09b43780806072f86a19/672de61a/video/tos/maliva/tos-maliva-v-f15faa-us/osXACC0OSIJAArJINkbeCLIWBGQlUyI4ee6XBg/?a=7073&bti=OTU0QDItLmA%3D&ch=0&cr=0&dr=4&er=0&lr=unwatermarked&cd=0%7C0%7C0%7C0&br=312&bt=156&ds=5&ft=.cwOVInz7ThUDGvOXq8Zmo&qs=13&rc=M2lxang5cjxzdjUzNzhoM0BpM2lxang5cjxzdjUzNzhoM0A2cS8vMmQ0MGpgLS1kLjZzYSM2cS8vMmQ0MGpgLS1kLjZzcw%3D%3D&vvpl=1&l=02173103962103400000000000000000000ffff0a00afb97d90e8&btag=e00078000&format=mp3&mime_type=audio_mpeg",
        "source_timerange": {
            "start_offset": 15.040000000000077,
            "end_offset": 16.544000000000036
        },
        "target_timerange": {
            "start_offset": 944.9920000000001,
            "end_offset": 946.4960000000001
        },
        "ignore_audio": true,
        "audio_path": null
    },
    {
        "segment_id": "da4eb6f49d8811efbee9b8cef68aba34",
        "text": "in a low voice whether her",
        "audio_url": "https://v16m-default.akamaized.net/cb0b1acc169f09b43780806072f86a19/672de61a/video/tos/maliva/tos-maliva-v-f15faa-us/osXACC0OSIJAArJINkbeCLIWBGQlUyI4ee6XBg/?a=7073&bti=OTU0QDItLmA%3D&ch=0&cr=0&dr=4&er=0&lr=unwatermarked&cd=0%7C0%7C0%7C0&br=312&bt=156&ds=5&ft=.cwOVInz7ThUDGvOXq8Zmo&qs=13&rc=M2lxang5cjxzdjUzNzhoM0BpM2lxang5cjxzdjUzNzhoM0A2cS8vMmQ0MGpgLS1kLjZzYSM2cS8vMmQ0MGpgLS1kLjZzcw%3D%3D&vvpl=1&l=02173103962103400000000000000000000ffff0a00afb97d90e8&btag=e00078000&format=mp3&mime_type=audio_mpeg",
        "source_timerange": {
            "start_offset": 16.544000000000096,
            "end_offset": 18.04799999999994
        },
        "target_timerange": {
            "start_offset": 946.4960000000001,
            "end_offset": 948
        },
        "ignore_audio": true,
        "audio_path": null
    },
    {
        "segment_id": "da4eb8209d8811efbee9b8cef68aba34",
        "text": "relations were very",
        "audio_url": "https://v16m-default.akamaized.net/cb0b1acc169f09b43780806072f86a19/672de61a/video/tos/maliva/tos-maliva-v-f15faa-us/osXACC0OSIJAArJINkbeCLIWBGQlUyI4ee6XBg/?a=7073&bti=OTU0QDItLmA%3D&ch=0&cr=0&dr=4&er=0&lr=unwatermarked&cd=0%7C0%7C0%7C0&br=312&bt=156&ds=5&ft=.cwOVInz7ThUDGvOXq8Zmo&qs=13&rc=M2lxang5cjxzdjUzNzhoM0BpM2lxang5cjxzdjUzNzhoM0A2cS8vMmQ0MGpgLS1kLjZzYSM2cS8vMmQ0MGpgLS1kLjZzcw%3D%3D&vvpl=1&l=02173103962103400000000000000000000ffff0a00afb97d90e8&btag=e00078000&format=mp3&mime_type=audio_mpeg",
        "source_timerange": {
            "start_offset": 18.048000000000002,
            "end_offset": 19.55199999999996
        },
        "target_timerange": {
            "start_offset": 948,
            "end_offset": 949.504
        },
        "ignore_audio": true,
        "audio_path": null
    },
    {
        "segment_id": "da4eb9609d8811efbee9b8cef68aba34",
        "text": "intimately acquainted with",
        "audio_url": "https://v16m-default.akamaized.net/cb0b1acc169f09b43780806072f86a19/672de61a/video/tos/maliva/tos-maliva-v-f15faa-us/osXACC0OSIJAArJINkbeCLIWBGQlUyI4ee6XBg/?a=7073&bti=OTU0QDItLmA%3D&ch=0&cr=0&dr=4&er=0&lr=unwatermarked&cd=0%7C0%7C0%7C0&br=312&bt=156&ds=5&ft=.cwOVInz7ThUDGvOXq8Zmo&qs=13&rc=M2lxang5cjxzdjUzNzhoM0BpM2lxang5cjxzdjUzNzhoM0A2cS8vMmQ0MGpgLS1kLjZzYSM2cS8vMmQ0MGpgLS1kLjZzcw%3D%3D&vvpl=1&l=02173103962103400000000000000000000ffff0a00afb97d90e8&btag=e00078000&format=mp3&mime_type=audio_mpeg",
        "source_timerange": {
            "start_offset": 19.55200000000002,
            "end_offset": 21.05599999999998
        },
        "target_timerange": {
            "start_offset": 949.504,
            "end_offset": 951.008
        },
        "ignore_audio": true,
        "audio_path": null
    },
    {
        "segment_id": "da4eba509d8811efbee9b8cef68aba34",
        "text": "the family of De Bourgh.",
        "audio_url": "https://v16m-default.akamaized.net/cb0b1acc169f09b43780806072f86a19/672de61a/video/tos/maliva/tos-maliva-v-f15faa-us/osXACC0OSIJAArJINkbeCLIWBGQlUyI4ee6XBg/?a=7073&bti=OTU0QDItLmA%3D&ch=0&cr=0&dr=4&er=0&lr=unwatermarked&cd=0%7C0%7C0%7C0&br=312&bt=156&ds=5&ft=.cwOVInz7ThUDGvOXq8Zmo&qs=13&rc=M2lxang5cjxzdjUzNzhoM0BpM2lxang5cjxzdjUzNzhoM0A2cS8vMmQ0MGpgLS1kLjZzYSM2cS8vMmQ0MGpgLS1kLjZzcw%3D%3D&vvpl=1&l=02173103962103400000000000000000000ffff0a00afb97d90e8&btag=e00078000&format=mp3&mime_type=audio_mpeg",
        "source_timerange": {
            "start_offset": 21.05600000000004,
            "end_offset": 22.56
        },
        "target_timerange": {
            "start_offset": 951.008,
            "end_offset": 952.5120000000001
        },
        "ignore_audio": true,
        "audio_path": null
    },
    {
        "segment_id": "da4ec9b49d8811efbee9b8cef68aba34",
        "text": "“Lady Catherine de Bourgh,”",
        "audio_url": "https://v16m-default.akamaized.net/9a065c2c5ac7ef8c26112718f6e6da6a/672de609/video/tos/maliva/tos-maliva-v-f15faa-us/ooDDAErAGIILkFlhwJifB5s0eQAOBVQCbnIZLB/?a=7073&bti=OTU0QDItLmA%3D&ch=0&cr=0&dr=4&er=0&lr=unwatermarked&cd=0%7C0%7C0%7C0&br=312&bt=156&ds=5&ft=.cwOVInz7ThUDGvOXq8Zmo&qs=13&rc=anJsam85cjxzdjUzNzhoM0BpanJsam85cjxzdjUzNzhoM0AwZGNkMmQ0MGpgLS1kLjZzYSMwZGNkMmQ0MGpgLS1kLjZzcw%3D%3D&vvpl=1&l=02173103962103400000000000000000000ffff0a00afb97d90e8&btag=e00070000&format=mp3&mime_type=audio_mpeg",
        "source_timerange": {
            "start_offset": 0,
            "end_offset": 1.6720000000000628
        },
        "target_timerange": {
            "start_offset": 952.5120000000001,
            "end_offset": 954.1840000000001
        },
        "ignore_audio": false,
        "audio_path": null
    },
    {
        "segment_id": "da4ecb309d8811efbee9b8cef68aba34",
        "text": "she replied, “has very",
        "audio_url": "https://v16m-default.akamaized.net/9a065c2c5ac7ef8c26112718f6e6da6a/672de609/video/tos/maliva/tos-maliva-v-f15faa-us/ooDDAErAGIILkFlhwJifB5s0eQAOBVQCbnIZLB/?a=7073&bti=OTU0QDItLmA%3D&ch=0&cr=0&dr=4&er=0&lr=unwatermarked&cd=0%7C0%7C0%7C0&br=312&bt=156&ds=5&ft=.cwOVInz7ThUDGvOXq8Zmo&qs=13&rc=anJsam85cjxzdjUzNzhoM0BpanJsam85cjxzdjUzNzhoM0AwZGNkMmQ0MGpgLS1kLjZzYSMwZGNkMmQ0MGpgLS1kLjZzcw%3D%3D&vvpl=1&l=02173103962103400000000000000000000ffff0a00afb97d90e8&btag=e00070000&format=mp3&mime_type=audio_mpeg",
        "source_timerange": {
            "start_offset": 1.6720000000000255,
            "end_offset": 3.3439999999999745
        },
        "target_timerange": {
            "start_offset": 954.1840000000001,
            "end_offset": 955.856
        },
        "ignore_audio": true,
        "audio_path": null
    },
    {
        "segment_id": "da4ecd1a9d8811efbee9b8cef68aba34",
        "text": "lately given him a living.",
        "audio_url": "https://v16m-default.akamaized.net/9a065c2c5ac7ef8c26112718f6e6da6a/672de609/video/tos/maliva/tos-maliva-v-f15faa-us/ooDDAErAGIILkFlhwJifB5s0eQAOBVQCbnIZLB/?a=7073&bti=OTU0QDItLmA%3D&ch=0&cr=0&dr=4&er=0&lr=unwatermarked&cd=0%7C0%7C0%7C0&br=312&bt=156&ds=5&ft=.cwOVInz7ThUDGvOXq8Zmo&qs=13&rc=anJsam85cjxzdjUzNzhoM0BpanJsam85cjxzdjUzNzhoM0AwZGNkMmQ0MGpgLS1kLjZzYSMwZGNkMmQ0MGpgLS1kLjZzcw%3D%3D&vvpl=1&l=02173103962103400000000000000000000ffff0a00afb97d90e8&btag=e00070000&format=mp3&mime_type=audio_mpeg",
        "source_timerange": {
            "start_offset": 3.3439999999999372,
            "end_offset": 5.016
        },
        "target_timerange": {
            "start_offset": 955.856,
            "end_offset": 957.528
        },
        "ignore_audio": true,
        "audio_path": null
    },
    {
        "segment_id": "da4f0be09d8811efbee9b8cef68aba34",
        "text": "I hardly know how Mr.",
        "audio_url": "https://v16m-default.akamaized.net/3233af26e0ea0e45ab21e1342c6312da/672de615/video/tos/maliva/tos-maliva-v-f15faa-us/okuGMAJDnBk7hceFEAAZWLEchBjtfLRQjVEaAk/?a=7073&bti=OTU0QDItLmA%3D&ch=0&cr=0&dr=4&er=0&lr=unwatermarked&cd=0%7C0%7C0%7C0&br=312&bt=156&ds=5&ft=.cwOVInz7ThUDGvOXq8Zmo&qs=13&rc=MzQ6N3c5cjxzdjUzNzhoM0BpMzQ6N3c5cjxzdjUzNzhoM0BrcWJrMmQ0MGpgLS1kLjZzYSNrcWJrMmQ0MGpgLS1kLjZzcw%3D%3D&vvpl=1&l=02173103962103400000000000000000000ffff0a00afb97d90e8&btag=e00078000&format=mp3&mime_type=audio_mpeg",
        "source_timerange": {
            "start_offset": 0,
            "end_offset": 1.4760000000000097
        },
        "target_timerange": {
            "start_offset": 957.528,
            "end_offset": 959.004
        },
        "ignore_audio": false,
        "audio_path": null
    },
    {
        "segment_id": "da4f0d169d8811efbee9b8cef68aba34",
        "text": "Collins was first",
        "audio_url": "https://v16m-default.akamaized.net/3233af26e0ea0e45ab21e1342c6312da/672de615/video/tos/maliva/tos-maliva-v-f15faa-us/okuGMAJDnBk7hceFEAAZWLEchBjtfLRQjVEaAk/?a=7073&bti=OTU0QDItLmA%3D&ch=0&cr=0&dr=4&er=0&lr=unwatermarked&cd=0%7C0%7C0%7C0&br=312&bt=156&ds=5&ft=.cwOVInz7ThUDGvOXq8Zmo&qs=13&rc=MzQ6N3c5cjxzdjUzNzhoM0BpMzQ6N3c5cjxzdjUzNzhoM0BrcWJrMmQ0MGpgLS1kLjZzYSNrcWJrMmQ0MGpgLS1kLjZzcw%3D%3D&vvpl=1&l=02173103962103400000000000000000000ffff0a00afb97d90e8&btag=e00078000&format=mp3&mime_type=audio_mpeg",
        "source_timerange": {
            "start_offset": 1.475999999999999,
            "end_offset": 2.952000000000009
        },
        "target_timerange": {
            "start_offset": 959.004,
            "end_offset": 960.48
        },
        "ignore_audio": true,
        "audio_path": null
    },
    {
        "segment_id": "da4f0dfc9d8811efbee9b8cef68aba34",
        "text": "introduced to her notice,",
        "audio_url": "https://v16m-default.akamaized.net/3233af26e0ea0e45ab21e1342c6312da/672de615/video/tos/maliva/tos-maliva-v-f15faa-us/okuGMAJDnBk7hceFEAAZWLEchBjtfLRQjVEaAk/?a=7073&bti=OTU0QDItLmA%3D&ch=0&cr=0&dr=4&er=0&lr=unwatermarked&cd=0%7C0%7C0%7C0&br=312&bt=156&ds=5&ft=.cwOVInz7ThUDGvOXq8Zmo&qs=13&rc=MzQ6N3c5cjxzdjUzNzhoM0BpMzQ6N3c5cjxzdjUzNzhoM0BrcWJrMmQ0MGpgLS1kLjZzYSNrcWJrMmQ0MGpgLS1kLjZzcw%3D%3D&vvpl=1&l=02173103962103400000000000000000000ffff0a00afb97d90e8&btag=e00078000&format=mp3&mime_type=audio_mpeg",
        "source_timerange": {
            "start_offset": 2.951999999999998,
            "end_offset": 4.428000000000008
        },
        "target_timerange": {
            "start_offset": 960.48,
            "end_offset": 961.956
        },
        "ignore_audio": true,
        "audio_path": null
    },
    {
        "segment_id": "da4f0ed89d8811efbee9b8cef68aba34",
        "text": "but he certainly has not",
        "audio_url": "https://v16m-default.akamaized.net/3233af26e0ea0e45ab21e1342c6312da/672de615/video/tos/maliva/tos-maliva-v-f15faa-us/okuGMAJDnBk7hceFEAAZWLEchBjtfLRQjVEaAk/?a=7073&bti=OTU0QDItLmA%3D&ch=0&cr=0&dr=4&er=0&lr=unwatermarked&cd=0%7C0%7C0%7C0&br=312&bt=156&ds=5&ft=.cwOVInz7ThUDGvOXq8Zmo&qs=13&rc=MzQ6N3c5cjxzdjUzNzhoM0BpMzQ6N3c5cjxzdjUzNzhoM0BrcWJrMmQ0MGpgLS1kLjZzYSNrcWJrMmQ0MGpgLS1kLjZzcw%3D%3D&vvpl=1&l=02173103962103400000000000000000000ffff0a00afb97d90e8&btag=e00078000&format=mp3&mime_type=audio_mpeg",
        "source_timerange": {
            "start_offset": 4.427999999999997,
            "end_offset": 5.904000000000007
        },
        "target_timerange": {
            "start_offset": 961.956,
            "end_offset": 963.432
        },
        "ignore_audio": true,
        "audio_path": null
    },
    {
        "segment_id": "da4f0fa09d8811efbee9b8cef68aba34",
        "text": "known her long.”  “You",
        "audio_url": "https://v16m-default.akamaized.net/3233af26e0ea0e45ab21e1342c6312da/672de615/video/tos/maliva/tos-maliva-v-f15faa-us/okuGMAJDnBk7hceFEAAZWLEchBjtfLRQjVEaAk/?a=7073&bti=OTU0QDItLmA%3D&ch=0&cr=0&dr=4&er=0&lr=unwatermarked&cd=0%7C0%7C0%7C0&br=312&bt=156&ds=5&ft=.cwOVInz7ThUDGvOXq8Zmo&qs=13&rc=MzQ6N3c5cjxzdjUzNzhoM0BpMzQ6N3c5cjxzdjUzNzhoM0BrcWJrMmQ0MGpgLS1kLjZzYSNrcWJrMmQ0MGpgLS1kLjZzcw%3D%3D&vvpl=1&l=02173103962103400000000000000000000ffff0a00afb97d90e8&btag=e00078000&format=mp3&mime_type=audio_mpeg",
        "source_timerange": {
            "start_offset": 5.903999999999996,
            "end_offset": 7.380000000000006
        },
        "target_timerange": {
            "start_offset": 963.432,
            "end_offset": 964.908
        },
        "ignore_audio": true,
        "audio_path": null
    },
    {
        "segment_id": "da4f105e9d8811efbee9b8cef68aba34",
        "text": "know of course that Lady",
        "audio_url": "https://v16m-default.akamaized.net/3233af26e0ea0e45ab21e1342c6312da/672de615/video/tos/maliva/tos-maliva-v-f15faa-us/okuGMAJDnBk7hceFEAAZWLEchBjtfLRQjVEaAk/?a=7073&bti=OTU0QDItLmA%3D&ch=0&cr=0&dr=4&er=0&lr=unwatermarked&cd=0%7C0%7C0%7C0&br=312&bt=156&ds=5&ft=.cwOVInz7ThUDGvOXq8Zmo&qs=13&rc=MzQ6N3c5cjxzdjUzNzhoM0BpMzQ6N3c5cjxzdjUzNzhoM0BrcWJrMmQ0MGpgLS1kLjZzYSNrcWJrMmQ0MGpgLS1kLjZzcw%3D%3D&vvpl=1&l=02173103962103400000000000000000000ffff0a00afb97d90e8&btag=e00078000&format=mp3&mime_type=audio_mpeg",
        "source_timerange": {
            "start_offset": 7.3799999999999955,
            "end_offset": 8.856000000000005
        },
        "target_timerange": {
            "start_offset": 964.908,
            "end_offset": 966.384
        },
        "ignore_audio": true,
        "audio_path": null
    },
    {
        "segment_id": "da4f111c9d8811efbee9b8cef68aba34",
        "text": "Catherine de Bourgh and",
        "audio_url": "https://v16m-default.akamaized.net/3233af26e0ea0e45ab21e1342c6312da/672de615/video/tos/maliva/tos-maliva-v-f15faa-us/okuGMAJDnBk7hceFEAAZWLEchBjtfLRQjVEaAk/?a=7073&bti=OTU0QDItLmA%3D&ch=0&cr=0&dr=4&er=0&lr=unwatermarked&cd=0%7C0%7C0%7C0&br=312&bt=156&ds=5&ft=.cwOVInz7ThUDGvOXq8Zmo&qs=13&rc=MzQ6N3c5cjxzdjUzNzhoM0BpMzQ6N3c5cjxzdjUzNzhoM0BrcWJrMmQ0MGpgLS1kLjZzYSNrcWJrMmQ0MGpgLS1kLjZzcw%3D%3D&vvpl=1&l=02173103962103400000000000000000000ffff0a00afb97d90e8&btag=e00078000&format=mp3&mime_type=audio_mpeg",
        "source_timerange": {
            "start_offset": 8.855999999999995,
            "end_offset": 10.332000000000004
        },
        "target_timerange": {
            "start_offset": 966.384,
            "end_offset": 967.86
        },
        "ignore_audio": true,
        "audio_path": null
    },
    {
        "segment_id": "da4f11da9d8811efbee9b8cef68aba34",
        "text": "Lady Anne Darcy were",
        "audio_url": "https://v16m-default.akamaized.net/3233af26e0ea0e45ab21e1342c6312da/672de615/video/tos/maliva/tos-maliva-v-f15faa-us/okuGMAJDnBk7hceFEAAZWLEchBjtfLRQjVEaAk/?a=7073&bti=OTU0QDItLmA%3D&ch=0&cr=0&dr=4&er=0&lr=unwatermarked&cd=0%7C0%7C0%7C0&br=312&bt=156&ds=5&ft=.cwOVInz7ThUDGvOXq8Zmo&qs=13&rc=MzQ6N3c5cjxzdjUzNzhoM0BpMzQ6N3c5cjxzdjUzNzhoM0BrcWJrMmQ0MGpgLS1kLjZzYSNrcWJrMmQ0MGpgLS1kLjZzcw%3D%3D&vvpl=1&l=02173103962103400000000000000000000ffff0a00afb97d90e8&btag=e00078000&format=mp3&mime_type=audio_mpeg",
        "source_timerange": {
            "start_offset": 10.331999999999994,
            "end_offset": 11.808000000000003
        },
        "target_timerange": {
            "start_offset": 967.86,
            "end_offset": 969.336
        },
        "ignore_audio": true,
        "audio_path": null
    },
    {
        "segment_id": "da4f13249d8811efbee9b8cef68aba34",
        "text": "sisters; consequently",
        "audio_url": "https://v16m-default.akamaized.net/3233af26e0ea0e45ab21e1342c6312da/672de615/video/tos/maliva/tos-maliva-v-f15faa-us/okuGMAJDnBk7hceFEAAZWLEchBjtfLRQjVEaAk/?a=7073&bti=OTU0QDItLmA%3D&ch=0&cr=0&dr=4&er=0&lr=unwatermarked&cd=0%7C0%7C0%7C0&br=312&bt=156&ds=5&ft=.cwOVInz7ThUDGvOXq8Zmo&qs=13&rc=MzQ6N3c5cjxzdjUzNzhoM0BpMzQ6N3c5cjxzdjUzNzhoM0BrcWJrMmQ0MGpgLS1kLjZzYSNrcWJrMmQ0MGpgLS1kLjZzcw%3D%3D&vvpl=1&l=02173103962103400000000000000000000ffff0a00afb97d90e8&btag=e00078000&format=mp3&mime_type=audio_mpeg",
        "source_timerange": {
            "start_offset": 11.807999999999993,
            "end_offset": 13.284000000000002
        },
        "target_timerange": {
            "start_offset": 969.336,
            "end_offset": 970.812
        },
        "ignore_audio": true,
        "audio_path": null
    },
    {
        "segment_id": "da4f140a9d8811efbee9b8cef68aba34",
        "text": "that she is aunt to the",
        "audio_url": "https://v16m-default.akamaized.net/3233af26e0ea0e45ab21e1342c6312da/672de615/video/tos/maliva/tos-maliva-v-f15faa-us/okuGMAJDnBk7hceFEAAZWLEchBjtfLRQjVEaAk/?a=7073&bti=OTU0QDItLmA%3D&ch=0&cr=0&dr=4&er=0&lr=unwatermarked&cd=0%7C0%7C0%7C0&br=312&bt=156&ds=5&ft=.cwOVInz7ThUDGvOXq8Zmo&qs=13&rc=MzQ6N3c5cjxzdjUzNzhoM0BpMzQ6N3c5cjxzdjUzNzhoM0BrcWJrMmQ0MGpgLS1kLjZzYSNrcWJrMmQ0MGpgLS1kLjZzcw%3D%3D&vvpl=1&l=02173103962103400000000000000000000ffff0a00afb97d90e8&btag=e00078000&format=mp3&mime_type=audio_mpeg",
        "source_timerange": {
            "start_offset": 13.283999999999992,
            "end_offset": 14.760000000000002
        },
        "target_timerange": {
            "start_offset": 970.812,
            "end_offset": 972.288
        },
        "ignore_audio": true,
        "audio_path": null
    },
    {
        "segment_id": "da4f14d29d8811efbee9b8cef68aba34",
        "text": "present Mr. Darcy.”  “No,",
        "audio_url": "https://v16m-default.akamaized.net/3233af26e0ea0e45ab21e1342c6312da/672de615/video/tos/maliva/tos-maliva-v-f15faa-us/okuGMAJDnBk7hceFEAAZWLEchBjtfLRQjVEaAk/?a=7073&bti=OTU0QDItLmA%3D&ch=0&cr=0&dr=4&er=0&lr=unwatermarked&cd=0%7C0%7C0%7C0&br=312&bt=156&ds=5&ft=.cwOVInz7ThUDGvOXq8Zmo&qs=13&rc=MzQ6N3c5cjxzdjUzNzhoM0BpMzQ6N3c5cjxzdjUzNzhoM0BrcWJrMmQ0MGpgLS1kLjZzYSNrcWJrMmQ0MGpgLS1kLjZzcw%3D%3D&vvpl=1&l=02173103962103400000000000000000000ffff0a00afb97d90e8&btag=e00078000&format=mp3&mime_type=audio_mpeg",
        "source_timerange": {
            "start_offset": 14.759999999999991,
            "end_offset": 16.236
        },
        "target_timerange": {
            "start_offset": 972.288,
            "end_offset": 973.764
        },
        "ignore_audio": true,
        "audio_path": null
    },
    {
        "segment_id": "da4f15a49d8811efbee9b8cef68aba34",
        "text": "indeed, I did not.",
        "audio_url": "https://v16m-default.akamaized.net/3233af26e0ea0e45ab21e1342c6312da/672de615/video/tos/maliva/tos-maliva-v-f15faa-us/okuGMAJDnBk7hceFEAAZWLEchBjtfLRQjVEaAk/?a=7073&bti=OTU0QDItLmA%3D&ch=0&cr=0&dr=4&er=0&lr=unwatermarked&cd=0%7C0%7C0%7C0&br=312&bt=156&ds=5&ft=.cwOVInz7ThUDGvOXq8Zmo&qs=13&rc=MzQ6N3c5cjxzdjUzNzhoM0BpMzQ6N3c5cjxzdjUzNzhoM0BrcWJrMmQ0MGpgLS1kLjZzYSNrcWJrMmQ0MGpgLS1kLjZzcw%3D%3D&vvpl=1&l=02173103962103400000000000000000000ffff0a00afb97d90e8&btag=e00078000&format=mp3&mime_type=audio_mpeg",
        "source_timerange": {
            "start_offset": 16.23599999999999,
            "end_offset": 17.712
        },
        "target_timerange": {
            "start_offset": 973.764,
            "end_offset": 975.24
        },
        "ignore_audio": true,
        "audio_path": null
    },
    {
        "segment_id": "da4f22ba9d8811efbee9b8cef68aba34",
        "text": "I knew nothing at all of Lady",
        "audio_url": "https://v16m-default.akamaized.net/ce7e540d78985f95302f580af6d4b2c8/672de606/video/tos/maliva/tos-maliva-v-f15faa-us/ook72MCAPBQZA0VQAtiZhXjAiQyb4apSEFREU/?a=7073&bti=OTU0QDItLmA%3D&ch=0&cr=0&dr=4&er=0&lr=unwatermarked&cd=0%7C0%7C0%7C0&br=312&bt=156&ds=5&ft=.cwOVInz7ThUDGvOXq8Zmo&qs=13&rc=anUzcG45cjxzdjUzNzhoM0BpanUzcG45cjxzdjUzNzhoM0BlbF5fMmQ0MGpgLS1kLjZzYSNlbF5fMmQ0MGpgLS1kLjZzcw%3D%3D&vvpl=1&l=02173103962103400000000000000000000ffff0a00afb97d90e8&btag=e00070000&format=mp3&mime_type=audio_mpeg",
        "source_timerange": {
            "start_offset": 0,
            "end_offset": 1.440000000000059
        },
        "target_timerange": {
            "start_offset": 975.24,
            "end_offset": 976.6800000000001
        },
        "ignore_audio": false,
        "audio_path": null
    },
    {
        "segment_id": "da4f23dc9d8811efbee9b8cef68aba34",
        "text": "Catherine’s connections.",
        "audio_url": "https://v16m-default.akamaized.net/ce7e540d78985f95302f580af6d4b2c8/672de606/video/tos/maliva/tos-maliva-v-f15faa-us/ook72MCAPBQZA0VQAtiZhXjAiQyb4apSEFREU/?a=7073&bti=OTU0QDItLmA%3D&ch=0&cr=0&dr=4&er=0&lr=unwatermarked&cd=0%7C0%7C0%7C0&br=312&bt=156&ds=5&ft=.cwOVInz7ThUDGvOXq8Zmo&qs=13&rc=anUzcG45cjxzdjUzNzhoM0BpanUzcG45cjxzdjUzNzhoM0BlbF5fMmQ0MGpgLS1kLjZzYSNlbF5fMmQ0MGpgLS1kLjZzcw%3D%3D&vvpl=1&l=02173103962103400000000000000000000ffff0a00afb97d90e8&btag=e00070000&format=mp3&mime_type=audio_mpeg",
        "source_timerange": {
            "start_offset": 1.4400000000000546,
            "end_offset": 2.88
        },
        "target_timerange": {
            "start_offset": 976.6800000000001,
            "end_offset": 978.12
        },
        "ignore_audio": true,
        "audio_path": null
    },
    {
        "segment_id": "da4f300c9d8811efbee9b8cef68aba34",
        "text": "I never heard of her existence",
        "audio_url": "https://v16m-default.akamaized.net/72d6b3c1399f8c3a1461e13242abf4a8/672de607/video/tos/maliva/tos-maliva-v-f15faa-us/oIyACtxEPaSQ9EkiAVSH1U4RQViBApA7RZ2jP/?a=7073&bti=OTU0QDItLmA%3D&ch=0&cr=0&dr=4&er=0&lr=unwatermarked&cd=0%7C0%7C0%7C0&br=312&bt=156&ds=5&ft=.cwOVInz7ThUDGvOXq8Zmo&qs=13&rc=amxweGs5cjxzdjUzNzhoM0BpamxweGs5cjxzdjUzNzhoM0A0M3MwMmQ0MGpgLS1kLjZzYSM0M3MwMmQ0MGpgLS1kLjZzcw%3D%3D&vvpl=1&l=02173103962103400000000000000000000ffff0a00afb97d90e8&btag=e00070000&format=mp3&mime_type=audio_mpeg",
        "source_timerange": {
            "start_offset": 0,
            "end_offset": 1.6919999999999926
        },
        "target_timerange": {
            "start_offset": 978.12,
            "end_offset": 979.812
        },
        "ignore_audio": false,
        "audio_path": null
    },
    {
        "segment_id": "da4f314c9d8811efbee9b8cef68aba34",
        "text": "till the day before yesterday.”",
        "audio_url": "https://v16m-default.akamaized.net/72d6b3c1399f8c3a1461e13242abf4a8/672de607/video/tos/maliva/tos-maliva-v-f15faa-us/oIyACtxEPaSQ9EkiAVSH1U4RQViBApA7RZ2jP/?a=7073&bti=OTU0QDItLmA%3D&ch=0&cr=0&dr=4&er=0&lr=unwatermarked&cd=0%7C0%7C0%7C0&br=312&bt=156&ds=5&ft=.cwOVInz7ThUDGvOXq8Zmo&qs=13&rc=amxweGs5cjxzdjUzNzhoM0BpamxweGs5cjxzdjUzNzhoM0A0M3MwMmQ0MGpgLS1kLjZzYSM0M3MwMmQ0MGpgLS1kLjZzcw%3D%3D&vvpl=1&l=02173103962103400000000000000000000ffff0a00afb97d90e8&btag=e00070000&format=mp3&mime_type=audio_mpeg",
        "source_timerange": {
            "start_offset": 1.6920000000000073,
            "end_offset": 3.384
        },
        "target_timerange": {
            "start_offset": 979.812,
            "end_offset": 981.504
        },
        "ignore_audio": true,
        "audio_path": null
    },
    {
        "segment_id": "da4f4c5e9d8811efbee9b8cef68aba34",
        "text": "“Her daughter, Miss de Bourgh,",
        "audio_url": "https://v16m-default.akamaized.net/f4a87ed84232163bb0f62f6c53c2ac14/672de60b/video/tos/maliva/tos-maliva-v-f15faa-us/oQNIQBLItvAIBenyHFZkh9EAbD10fjL0VABGBJ/?a=7073&bti=OTU0QDItLmA%3D&ch=0&cr=0&dr=4&er=0&lr=unwatermarked&cd=0%7C0%7C0%7C0&br=312&bt=156&ds=5&ft=.cwOVInz7ThUDGvOXq8Zmo&qs=13&rc=anR4O3Q5cjxzdjUzNzhoM0BpanR4O3Q5cjxzdjUzNzhoM0BgYXJvMmQ0MGpgLS1kLjZzYSNgYXJvMmQ0MGpgLS1kLjZzcw%3D%3D&vvpl=1&l=02173103962103400000000000000000000ffff0a00afb97d90e8&btag=e00070000&format=mp3&mime_type=audio_mpeg",
        "source_timerange": {
            "start_offset": 0,
            "end_offset": 1.5839999999999872
        },
        "target_timerange": {
            "start_offset": 981.504,
            "end_offset": 983.088
        },
        "ignore_audio": false,
        "audio_path": null
    },
    {
        "segment_id": "da4f4e029d8811efbee9b8cef68aba34",
        "text": "will have a very large",
        "audio_url": "https://v16m-default.akamaized.net/f4a87ed84232163bb0f62f6c53c2ac14/672de60b/video/tos/maliva/tos-maliva-v-f15faa-us/oQNIQBLItvAIBenyHFZkh9EAbD10fjL0VABGBJ/?a=7073&bti=OTU0QDItLmA%3D&ch=0&cr=0&dr=4&er=0&lr=unwatermarked&cd=0%7C0%7C0%7C0&br=312&bt=156&ds=5&ft=.cwOVInz7ThUDGvOXq8Zmo&qs=13&rc=anR4O3Q5cjxzdjUzNzhoM0BpanR4O3Q5cjxzdjUzNzhoM0BgYXJvMmQ0MGpgLS1kLjZzYSNgYXJvMmQ0MGpgLS1kLjZzcw%3D%3D&vvpl=1&l=02173103962103400000000000000000000ffff0a00afb97d90e8&btag=e00070000&format=mp3&mime_type=audio_mpeg",
        "source_timerange": {
            "start_offset": 1.5839999999999463,
            "end_offset": 3.1680000000000472
        },
        "target_timerange": {
            "start_offset": 983.088,
            "end_offset": 984.672
        },
        "ignore_audio": true,
        "audio_path": null
    },
    {
        "segment_id": "da4f4f4c9d8811efbee9b8cef68aba34",
        "text": "fortune, and it is believed",
        "audio_url": "https://v16m-default.akamaized.net/f4a87ed84232163bb0f62f6c53c2ac14/672de60b/video/tos/maliva/tos-maliva-v-f15faa-us/oQNIQBLItvAIBenyHFZkh9EAbD10fjL0VABGBJ/?a=7073&bti=OTU0QDItLmA%3D&ch=0&cr=0&dr=4&er=0&lr=unwatermarked&cd=0%7C0%7C0%7C0&br=312&bt=156&ds=5&ft=.cwOVInz7ThUDGvOXq8Zmo&qs=13&rc=anR4O3Q5cjxzdjUzNzhoM0BpanR4O3Q5cjxzdjUzNzhoM0BgYXJvMmQ0MGpgLS1kLjZzYSNgYXJvMmQ0MGpgLS1kLjZzcw%3D%3D&vvpl=1&l=02173103962103400000000000000000000ffff0a00afb97d90e8&btag=e00070000&format=mp3&mime_type=audio_mpeg",
        "source_timerange": {
            "start_offset": 3.1680000000000064,
            "end_offset": 4.751999999999994
        },
        "target_timerange": {
            "start_offset": 984.672,
            "end_offset": 986.256
        },
        "ignore_audio": true,
        "audio_path": null
    },
    {
        "segment_id": "da4f506e9d8811efbee9b8cef68aba34",
        "text": "that she and her cousin will",
        "audio_url": "https://v16m-default.akamaized.net/f4a87ed84232163bb0f62f6c53c2ac14/672de60b/video/tos/maliva/tos-maliva-v-f15faa-us/oQNIQBLItvAIBenyHFZkh9EAbD10fjL0VABGBJ/?a=7073&bti=OTU0QDItLmA%3D&ch=0&cr=0&dr=4&er=0&lr=unwatermarked&cd=0%7C0%7C0%7C0&br=312&bt=156&ds=5&ft=.cwOVInz7ThUDGvOXq8Zmo&qs=13&rc=anR4O3Q5cjxzdjUzNzhoM0BpanR4O3Q5cjxzdjUzNzhoM0BgYXJvMmQ0MGpgLS1kLjZzYSNgYXJvMmQ0MGpgLS1kLjZzcw%3D%3D&vvpl=1&l=02173103962103400000000000000000000ffff0a00afb97d90e8&btag=e00070000&format=mp3&mime_type=audio_mpeg",
        "source_timerange": {
            "start_offset": 4.751999999999953,
            "end_offset": 6.336000000000054
        },
        "target_timerange": {
            "start_offset": 986.256,
            "end_offset": 987.84
        },
        "ignore_audio": true,
        "audio_path": null
    },
    {
        "segment_id": "da4f51ae9d8811efbee9b8cef68aba34",
        "text": "unite the two estates.”",
        "audio_url": "https://v16m-default.akamaized.net/f4a87ed84232163bb0f62f6c53c2ac14/672de60b/video/tos/maliva/tos-maliva-v-f15faa-us/oQNIQBLItvAIBenyHFZkh9EAbD10fjL0VABGBJ/?a=7073&bti=OTU0QDItLmA%3D&ch=0&cr=0&dr=4&er=0&lr=unwatermarked&cd=0%7C0%7C0%7C0&br=312&bt=156&ds=5&ft=.cwOVInz7ThUDGvOXq8Zmo&qs=13&rc=anR4O3Q5cjxzdjUzNzhoM0BpanR4O3Q5cjxzdjUzNzhoM0BgYXJvMmQ0MGpgLS1kLjZzYSNgYXJvMmQ0MGpgLS1kLjZzcw%3D%3D&vvpl=1&l=02173103962103400000000000000000000ffff0a00afb97d90e8&btag=e00070000&format=mp3&mime_type=audio_mpeg",
        "source_timerange": {
            "start_offset": 6.336000000000013,
            "end_offset": 7.92
        },
        "target_timerange": {
            "start_offset": 987.84,
            "end_offset": 989.424
        },
        "ignore_audio": true,
        "audio_path": null
    },
    {
        "segment_id": "da4f61589d8811efbee9b8cef68aba34",
        "text": "This information made",
        "audio_url": "https://v16m-default.akamaized.net/9fc24187131b95d17f1c8da2f09c4972/672de608/video/tos/maliva/tos-maliva-v-f15faa-us/osanEBFRAxJkpeFtBADLEGL5V2nQkBAhAZEEfs/?a=7073&bti=OTU0QDItLmA%3D&ch=0&cr=0&dr=4&er=0&lr=unwatermarked&cd=0%7C0%7C0%7C0&br=312&bt=156&ds=5&ft=.cwOVInz7ThUDGvOXq8Zmo&qs=13&rc=ang8cHY5cjxzdjUzNzhoM0Bpang8cHY5cjxzdjUzNzhoM0AtNDFxMmQ0MGpgLS1kLjZzYSMtNDFxMmQ0MGpgLS1kLjZzcw%3D%3D&vvpl=1&l=02173103962103400000000000000000000ffff0a00afb97d90e8&btag=e00070000&format=mp3&mime_type=audio_mpeg",
        "source_timerange": {
            "start_offset": 0,
            "end_offset": 1.3599999999999728
        },
        "target_timerange": {
            "start_offset": 989.424,
            "end_offset": 990.784
        },
        "ignore_audio": false,
        "audio_path": null
    },
    {
        "segment_id": "da4f62fc9d8811efbee9b8cef68aba34",
        "text": "Elizabeth smile, as she",
        "audio_url": "https://v16m-default.akamaized.net/9fc24187131b95d17f1c8da2f09c4972/672de608/video/tos/maliva/tos-maliva-v-f15faa-us/osanEBFRAxJkpeFtBADLEGL5V2nQkBAhAZEEfs/?a=7073&bti=OTU0QDItLmA%3D&ch=0&cr=0&dr=4&er=0&lr=unwatermarked&cd=0%7C0%7C0%7C0&br=312&bt=156&ds=5&ft=.cwOVInz7ThUDGvOXq8Zmo&qs=13&rc=ang8cHY5cjxzdjUzNzhoM0Bpang8cHY5cjxzdjUzNzhoM0AtNDFxMmQ0MGpgLS1kLjZzYSMtNDFxMmQ0MGpgLS1kLjZzcw%3D%3D&vvpl=1&l=02173103962103400000000000000000000ffff0a00afb97d90e8&btag=e00070000&format=mp3&mime_type=audio_mpeg",
        "source_timerange": {
            "start_offset": 1.3600000000000136,
            "end_offset": 2.7199999999999864
        },
        "target_timerange": {
            "start_offset": 990.784,
            "end_offset": 992.144
        },
        "ignore_audio": true,
        "audio_path": null
    },
    {
        "segment_id": "da4f646e9d8811efbee9b8cef68aba34",
        "text": "thought of poor Miss Bingley.",
        "audio_url": "https://v16m-default.akamaized.net/9fc24187131b95d17f1c8da2f09c4972/672de608/video/tos/maliva/tos-maliva-v-f15faa-us/osanEBFRAxJkpeFtBADLEGL5V2nQkBAhAZEEfs/?a=7073&bti=OTU0QDItLmA%3D&ch=0&cr=0&dr=4&er=0&lr=unwatermarked&cd=0%7C0%7C0%7C0&br=312&bt=156&ds=5&ft=.cwOVInz7ThUDGvOXq8Zmo&qs=13&rc=ang8cHY5cjxzdjUzNzhoM0Bpang8cHY5cjxzdjUzNzhoM0AtNDFxMmQ0MGpgLS1kLjZzYSMtNDFxMmQ0MGpgLS1kLjZzcw%3D%3D&vvpl=1&l=02173103962103400000000000000000000ffff0a00afb97d90e8&btag=e00070000&format=mp3&mime_type=audio_mpeg",
        "source_timerange": {
            "start_offset": 2.7200000000000273,
            "end_offset": 4.08
        },
        "target_timerange": {
            "start_offset": 992.144,
            "end_offset": 993.504
        },
        "ignore_audio": true,
        "audio_path": null
    },
    {
        "segment_id": "da4f7f129d8811efbee9b8cef68aba34",
        "text": "Vain indeed must be all her",
        "audio_url": "https://v16m-default.akamaized.net/494a5d1603501871af7a2450cc902bea/672de60d/video/tos/maliva/tos-maliva-v-f15faa-us/o0AeyLN7XawrRGl9EfkCJiAeAkICWOmSgACtEG/?a=7073&bti=OTU0QDItLmA%3D&ch=0&cr=0&dr=4&er=0&lr=unwatermarked&cd=0%7C0%7C0%7C0&br=312&bt=156&ds=5&ft=.cwOVInz7ThUDGvOXq8Zmo&qs=13&rc=anh3O3M5cjxzdjUzNzhoM0Bpanh3O3M5cjxzdjUzNzhoM0BzZGFgMmQ0MGpgLS1kLjZzYSNzZGFgMmQ0MGpgLS1kLjZzcw%3D%3D&vvpl=1&l=02173103962103400000000000000000000ffff0a00afb97d90e8&btag=e00070000&format=mp3&mime_type=audio_mpeg",
        "source_timerange": {
            "start_offset": 0,
            "end_offset": 1.5999999999999996
        },
        "target_timerange": {
            "start_offset": 993.504,
            "end_offset": 995.104
        },
        "ignore_audio": false,
        "audio_path": null
    },
    {
        "segment_id": "da4f80349d8811efbee9b8cef68aba34",
        "text": "attentions, vain and useless",
        "audio_url": "https://v16m-default.akamaized.net/494a5d1603501871af7a2450cc902bea/672de60d/video/tos/maliva/tos-maliva-v-f15faa-us/o0AeyLN7XawrRGl9EfkCJiAeAkICWOmSgACtEG/?a=7073&bti=OTU0QDItLmA%3D&ch=0&cr=0&dr=4&er=0&lr=unwatermarked&cd=0%7C0%7C0%7C0&br=312&bt=156&ds=5&ft=.cwOVInz7ThUDGvOXq8Zmo&qs=13&rc=anh3O3M5cjxzdjUzNzhoM0Bpanh3O3M5cjxzdjUzNzhoM0BzZGFgMmQ0MGpgLS1kLjZzYSNzZGFgMmQ0MGpgLS1kLjZzcw%3D%3D&vvpl=1&l=02173103962103400000000000000000000ffff0a00afb97d90e8&btag=e00070000&format=mp3&mime_type=audio_mpeg",
        "source_timerange": {
            "start_offset": 1.6000000000000227,
            "end_offset": 3.2000000000000224
        },
        "target_timerange": {
            "start_offset": 995.104,
            "end_offset": 996.7040000000001
        },
        "ignore_audio": true,
        "audio_path": null
    },
    {
        "segment_id": "da4f811a9d8811efbee9b8cef68aba34",
        "text": "her affection for his sister",
        "audio_url": "https://v16m-default.akamaized.net/494a5d1603501871af7a2450cc902bea/672de60d/video/tos/maliva/tos-maliva-v-f15faa-us/o0AeyLN7XawrRGl9EfkCJiAeAkICWOmSgACtEG/?a=7073&bti=OTU0QDItLmA%3D&ch=0&cr=0&dr=4&er=0&lr=unwatermarked&cd=0%7C0%7C0%7C0&br=312&bt=156&ds=5&ft=.cwOVInz7ThUDGvOXq8Zmo&qs=13&rc=anh3O3M5cjxzdjUzNzhoM0Bpanh3O3M5cjxzdjUzNzhoM0BzZGFgMmQ0MGpgLS1kLjZzYSNzZGFgMmQ0MGpgLS1kLjZzcw%3D%3D&vvpl=1&l=02173103962103400000000000000000000ffff0a00afb97d90e8&btag=e00070000&format=mp3&mime_type=audio_mpeg",
        "source_timerange": {
            "start_offset": 3.2000000000000455,
            "end_offset": 4.800000000000045
        },
        "target_timerange": {
            "start_offset": 996.7040000000001,
            "end_offset": 998.3040000000001
        },
        "ignore_audio": true,
        "audio_path": null
    },
    {
        "segment_id": "da4f81f69d8811efbee9b8cef68aba34",
        "text": "and her praise of himself, if",
        "audio_url": "https://v16m-default.akamaized.net/494a5d1603501871af7a2450cc902bea/672de60d/video/tos/maliva/tos-maliva-v-f15faa-us/o0AeyLN7XawrRGl9EfkCJiAeAkICWOmSgACtEG/?a=7073&bti=OTU0QDItLmA%3D&ch=0&cr=0&dr=4&er=0&lr=unwatermarked&cd=0%7C0%7C0%7C0&br=312&bt=156&ds=5&ft=.cwOVInz7ThUDGvOXq8Zmo&qs=13&rc=anh3O3M5cjxzdjUzNzhoM0Bpanh3O3M5cjxzdjUzNzhoM0BzZGFgMmQ0MGpgLS1kLjZzYSNzZGFgMmQ0MGpgLS1kLjZzcw%3D%3D&vvpl=1&l=02173103962103400000000000000000000ffff0a00afb97d90e8&btag=e00070000&format=mp3&mime_type=audio_mpeg",
        "source_timerange": {
            "start_offset": 4.800000000000068,
            "end_offset": 6.399999999999954
        },
        "target_timerange": {
            "start_offset": 998.3040000000001,
            "end_offset": 999.904
        },
        "ignore_audio": true,
        "audio_path": null
    },
    {
        "segment_id": "da4f82f09d8811efbee9b8cef68aba34",
        "text": "he were already self-destined",
        "audio_url": "https://v16m-default.akamaized.net/494a5d1603501871af7a2450cc902bea/672de60d/video/tos/maliva/tos-maliva-v-f15faa-us/o0AeyLN7XawrRGl9EfkCJiAeAkICWOmSgACtEG/?a=7073&bti=OTU0QDItLmA%3D&ch=0&cr=0&dr=4&er=0&lr=unwatermarked&cd=0%7C0%7C0%7C0&br=312&bt=156&ds=5&ft=.cwOVInz7ThUDGvOXq8Zmo&qs=13&rc=anh3O3M5cjxzdjUzNzhoM0Bpanh3O3M5cjxzdjUzNzhoM0BzZGFgMmQ0MGpgLS1kLjZzYSNzZGFgMmQ0MGpgLS1kLjZzcw%3D%3D&vvpl=1&l=02173103962103400000000000000000000ffff0a00afb97d90e8&btag=e00070000&format=mp3&mime_type=audio_mpeg",
        "source_timerange": {
            "start_offset": 6.399999999999977,
            "end_offset": 7.999999999999977
        },
        "target_timerange": {
            "start_offset": 999.904,
            "end_offset": 1001.504
        },
        "ignore_audio": true,
        "audio_path": null
    },
    {
        "segment_id": "da4f83c29d8811efbee9b8cef68aba34",
        "text": "to another.",
        "audio_url": "https://v16m-default.akamaized.net/494a5d1603501871af7a2450cc902bea/672de60d/video/tos/maliva/tos-maliva-v-f15faa-us/o0AeyLN7XawrRGl9EfkCJiAeAkICWOmSgACtEG/?a=7073&bti=OTU0QDItLmA%3D&ch=0&cr=0&dr=4&er=0&lr=unwatermarked&cd=0%7C0%7C0%7C0&br=312&bt=156&ds=5&ft=.cwOVInz7ThUDGvOXq8Zmo&qs=13&rc=anh3O3M5cjxzdjUzNzhoM0Bpanh3O3M5cjxzdjUzNzhoM0BzZGFgMmQ0MGpgLS1kLjZzYSNzZGFgMmQ0MGpgLS1kLjZzcw%3D%3D&vvpl=1&l=02173103962103400000000000000000000ffff0a00afb97d90e8&btag=e00070000&format=mp3&mime_type=audio_mpeg",
        "source_timerange": {
            "start_offset": 8,
            "end_offset": 9.6
        },
        "target_timerange": {
            "start_offset": 1001.504,
            "end_offset": 1003.104
        },
        "ignore_audio": true,
        "audio_path": null
    },
    {
        "segment_id": "da4fc0a89d8811efbee9b8cef68aba34",
        "text": "“Mr. Collins,” said she,",
        "audio_url": "https://v16m-default.akamaized.net/6056c61615fa7d771cd0c9070f35c79b/672de614/video/tos/maliva/tos-maliva-v-f15faa-us/owGLDfjkhEVJEakf7AnQFBrtEhVZLAtGABSA6M/?a=7073&bti=OTU0QDItLmA%3D&ch=0&cr=0&dr=4&er=0&lr=unwatermarked&cd=0%7C0%7C0%7C0&br=312&bt=156&ds=5&ft=.cwOVInz7ThUDGvOXq8Zmo&qs=13&rc=M3lvd2s5cjxzdjUzNzhoM0BpM3lvd2s5cjxzdjUzNzhoM0AwYWNyMmQ0MGpgLS1kLjZzYSMwYWNyMmQ0MGpgLS1kLjZzcw%3D%3D&vvpl=1&l=02173103962103400000000000000000000ffff0a00afb97d90e8&btag=e00078000&format=mp3&mime_type=audio_mpeg",
        "source_timerange": {
            "start_offset": 0,
            "end_offset": 1.4618181818182912
        },
        "target_timerange": {
            "start_offset": 1003.104,
            "end_offset": 1004.5658181818183
        },
        "ignore_audio": false,
        "audio_path": null
    },
    {
        "segment_id": "da4fc24c9d8811efbee9b8cef68aba34",
        "text": "“speaks highly both of Lady",
        "audio_url": "https://v16m-default.akamaized.net/6056c61615fa7d771cd0c9070f35c79b/672de614/video/tos/maliva/tos-maliva-v-f15faa-us/owGLDfjkhEVJEakf7AnQFBrtEhVZLAtGABSA6M/?a=7073&bti=OTU0QDItLmA%3D&ch=0&cr=0&dr=4&er=0&lr=unwatermarked&cd=0%7C0%7C0%7C0&br=312&bt=156&ds=5&ft=.cwOVInz7ThUDGvOXq8Zmo&qs=13&rc=M3lvd2s5cjxzdjUzNzhoM0BpM3lvd2s5cjxzdjUzNzhoM0AwYWNyMmQ0MGpgLS1kLjZzYSMwYWNyMmQ0MGpgLS1kLjZzcw%3D%3D&vvpl=1&l=02173103962103400000000000000000000ffff0a00afb97d90e8&btag=e00078000&format=mp3&mime_type=audio_mpeg",
        "source_timerange": {
            "start_offset": 1.4618181818182165,
            "end_offset": 2.923636363636394
        },
        "target_timerange": {
            "start_offset": 1004.5658181818183,
            "end_offset": 1006.0276363636364
        },
        "ignore_audio": true,
        "audio_path": null
    },
    {
        "segment_id": "da4fc3a09d8811efbee9b8cef68aba34",
        "text": "Catherine and her daughter;",
        "audio_url": "https://v16m-default.akamaized.net/6056c61615fa7d771cd0c9070f35c79b/672de614/video/tos/maliva/tos-maliva-v-f15faa-us/owGLDfjkhEVJEakf7AnQFBrtEhVZLAtGABSA6M/?a=7073&bti=OTU0QDItLmA%3D&ch=0&cr=0&dr=4&er=0&lr=unwatermarked&cd=0%7C0%7C0%7C0&br=312&bt=156&ds=5&ft=.cwOVInz7ThUDGvOXq8Zmo&qs=13&rc=M3lvd2s5cjxzdjUzNzhoM0BpM3lvd2s5cjxzdjUzNzhoM0AwYWNyMmQ0MGpgLS1kLjZzYSMwYWNyMmQ0MGpgLS1kLjZzcw%3D%3D&vvpl=1&l=02173103962103400000000000000000000ffff0a00afb97d90e8&btag=e00078000&format=mp3&mime_type=audio_mpeg",
        "source_timerange": {
            "start_offset": 2.9236363636363194,
            "end_offset": 4.3854545454546106
        },
        "target_timerange": {
            "start_offset": 1006.0276363636364,
            "end_offset": 1007.4894545454546
        },
        "ignore_audio": true,
        "audio_path": null
    },
    {
        "segment_id": "da4fc5089d8811efbee9b8cef68aba34",
        "text": "but, from some particulars",
        "audio_url": "https://v16m-default.akamaized.net/6056c61615fa7d771cd0c9070f35c79b/672de614/video/tos/maliva/tos-maliva-v-f15faa-us/owGLDfjkhEVJEakf7AnQFBrtEhVZLAtGABSA6M/?a=7073&bti=OTU0QDItLmA%3D&ch=0&cr=0&dr=4&er=0&lr=unwatermarked&cd=0%7C0%7C0%7C0&br=312&bt=156&ds=5&ft=.cwOVInz7ThUDGvOXq8Zmo&qs=13&rc=M3lvd2s5cjxzdjUzNzhoM0BpM3lvd2s5cjxzdjUzNzhoM0AwYWNyMmQ0MGpgLS1kLjZzYSMwYWNyMmQ0MGpgLS1kLjZzcw%3D%3D&vvpl=1&l=02173103962103400000000000000000000ffff0a00afb97d90e8&btag=e00078000&format=mp3&mime_type=audio_mpeg",
        "source_timerange": {
            "start_offset": 4.385454545454536,
            "end_offset": 5.847272727272827
        },
        "target_timerange": {
            "start_offset": 1007.4894545454546,
            "end_offset": 1008.9512727272728
        },
        "ignore_audio": true,
        "audio_path": null
    },
    {
        "segment_id": "da4fc6709d8811efbee9b8cef68aba34",
        "text": "that he has related of her",
        "audio_url": "https://v16m-default.akamaized.net/6056c61615fa7d771cd0c9070f35c79b/672de614/video/tos/maliva/tos-maliva-v-f15faa-us/owGLDfjkhEVJEakf7AnQFBrtEhVZLAtGABSA6M/?a=7073&bti=OTU0QDItLmA%3D&ch=0&cr=0&dr=4&er=0&lr=unwatermarked&cd=0%7C0%7C0%7C0&br=312&bt=156&ds=5&ft=.cwOVInz7ThUDGvOXq8Zmo&qs=13&rc=M3lvd2s5cjxzdjUzNzhoM0BpM3lvd2s5cjxzdjUzNzhoM0AwYWNyMmQ0MGpgLS1kLjZzYSMwYWNyMmQ0MGpgLS1kLjZzcw%3D%3D&vvpl=1&l=02173103962103400000000000000000000ffff0a00afb97d90e8&btag=e00078000&format=mp3&mime_type=audio_mpeg",
        "source_timerange": {
            "start_offset": 5.8472727272727525,
            "end_offset": 7.30909090909093
        },
        "target_timerange": {
            "start_offset": 1008.9512727272728,
            "end_offset": 1010.4130909090909
        },
        "ignore_audio": true,
        "audio_path": null
    },
    {
        "segment_id": "da4fc7ba9d8811efbee9b8cef68aba34",
        "text": "Ladyship, I suspect his",
        "audio_url": "https://v16m-default.akamaized.net/6056c61615fa7d771cd0c9070f35c79b/672de614/video/tos/maliva/tos-maliva-v-f15faa-us/owGLDfjkhEVJEakf7AnQFBrtEhVZLAtGABSA6M/?a=7073&bti=OTU0QDItLmA%3D&ch=0&cr=0&dr=4&er=0&lr=unwatermarked&cd=0%7C0%7C0%7C0&br=312&bt=156&ds=5&ft=.cwOVInz7ThUDGvOXq8Zmo&qs=13&rc=M3lvd2s5cjxzdjUzNzhoM0BpM3lvd2s5cjxzdjUzNzhoM0AwYWNyMmQ0MGpgLS1kLjZzYSMwYWNyMmQ0MGpgLS1kLjZzcw%3D%3D&vvpl=1&l=02173103962103400000000000000000000ffff0a00afb97d90e8&btag=e00078000&format=mp3&mime_type=audio_mpeg",
        "source_timerange": {
            "start_offset": 7.309090909090855,
            "end_offset": 8.770909090909146
        },
        "target_timerange": {
            "start_offset": 1010.4130909090909,
            "end_offset": 1011.8749090909091
        },
        "ignore_audio": true,
        "audio_path": null
    },
    {
        "segment_id": "da4fc8fa9d8811efbee9b8cef68aba34",
        "text": "gratitude misleads him; and",
        "audio_url": "https://v16m-default.akamaized.net/6056c61615fa7d771cd0c9070f35c79b/672de614/video/tos/maliva/tos-maliva-v-f15faa-us/owGLDfjkhEVJEakf7AnQFBrtEhVZLAtGABSA6M/?a=7073&bti=OTU0QDItLmA%3D&ch=0&cr=0&dr=4&er=0&lr=unwatermarked&cd=0%7C0%7C0%7C0&br=312&bt=156&ds=5&ft=.cwOVInz7ThUDGvOXq8Zmo&qs=13&rc=M3lvd2s5cjxzdjUzNzhoM0BpM3lvd2s5cjxzdjUzNzhoM0AwYWNyMmQ0MGpgLS1kLjZzYSMwYWNyMmQ0MGpgLS1kLjZzcw%3D%3D&vvpl=1&l=02173103962103400000000000000000000ffff0a00afb97d90e8&btag=e00078000&format=mp3&mime_type=audio_mpeg",
        "source_timerange": {
            "start_offset": 8.770909090909072,
            "end_offset": 10.23272727272725
        },
        "target_timerange": {
            "start_offset": 1011.8749090909091,
            "end_offset": 1013.3367272727272
        },
        "ignore_audio": true,
        "audio_path": null
    },
    {
        "segment_id": "da4fca269d8811efbee9b8cef68aba34",
        "text": "that, in spite of her being",
        "audio_url": "https://v16m-default.akamaized.net/6056c61615fa7d771cd0c9070f35c79b/672de614/video/tos/maliva/tos-maliva-v-f15faa-us/owGLDfjkhEVJEakf7AnQFBrtEhVZLAtGABSA6M/?a=7073&bti=OTU0QDItLmA%3D&ch=0&cr=0&dr=4&er=0&lr=unwatermarked&cd=0%7C0%7C0%7C0&br=312&bt=156&ds=5&ft=.cwOVInz7ThUDGvOXq8Zmo&qs=13&rc=M3lvd2s5cjxzdjUzNzhoM0BpM3lvd2s5cjxzdjUzNzhoM0AwYWNyMmQ0MGpgLS1kLjZzYSMwYWNyMmQ0MGpgLS1kLjZzcw%3D%3D&vvpl=1&l=02173103962103400000000000000000000ffff0a00afb97d90e8&btag=e00078000&format=mp3&mime_type=audio_mpeg",
        "source_timerange": {
            "start_offset": 10.232727272727175,
            "end_offset": 11.694545454545466
        },
        "target_timerange": {
            "start_offset": 1013.3367272727272,
            "end_offset": 1014.7985454545454
        },
        "ignore_audio": true,
        "audio_path": null
    },
    {
        "segment_id": "da4fcb489d8811efbee9b8cef68aba34",
        "text": "his patroness, she is an",
        "audio_url": "https://v16m-default.akamaized.net/6056c61615fa7d771cd0c9070f35c79b/672de614/video/tos/maliva/tos-maliva-v-f15faa-us/owGLDfjkhEVJEakf7AnQFBrtEhVZLAtGABSA6M/?a=7073&bti=OTU0QDItLmA%3D&ch=0&cr=0&dr=4&er=0&lr=unwatermarked&cd=0%7C0%7C0%7C0&br=312&bt=156&ds=5&ft=.cwOVInz7ThUDGvOXq8Zmo&qs=13&rc=M3lvd2s5cjxzdjUzNzhoM0BpM3lvd2s5cjxzdjUzNzhoM0AwYWNyMmQ0MGpgLS1kLjZzYSMwYWNyMmQ0MGpgLS1kLjZzcw%3D%3D&vvpl=1&l=02173103962103400000000000000000000ffff0a00afb97d90e8&btag=e00078000&format=mp3&mime_type=audio_mpeg",
        "source_timerange": {
            "start_offset": 11.694545454545391,
            "end_offset": 13.156363636363682
        },
        "target_timerange": {
            "start_offset": 1014.7985454545454,
            "end_offset": 1016.2603636363636
        },
        "ignore_audio": true,
        "audio_path": null
    },
    {
        "segment_id": "da4fcca69d8811efbee9b8cef68aba34",
        "text": "arrogant, conceited woman.”",
        "audio_url": "https://v16m-default.akamaized.net/6056c61615fa7d771cd0c9070f35c79b/672de614/video/tos/maliva/tos-maliva-v-f15faa-us/owGLDfjkhEVJEakf7AnQFBrtEhVZLAtGABSA6M/?a=7073&bti=OTU0QDItLmA%3D&ch=0&cr=0&dr=4&er=0&lr=unwatermarked&cd=0%7C0%7C0%7C0&br=312&bt=156&ds=5&ft=.cwOVInz7ThUDGvOXq8Zmo&qs=13&rc=M3lvd2s5cjxzdjUzNzhoM0BpM3lvd2s5cjxzdjUzNzhoM0AwYWNyMmQ0MGpgLS1kLjZzYSMwYWNyMmQ0MGpgLS1kLjZzcw%3D%3D&vvpl=1&l=02173103962103400000000000000000000ffff0a00afb97d90e8&btag=e00078000&format=mp3&mime_type=audio_mpeg",
        "source_timerange": {
            "start_offset": 13.156363636363608,
            "end_offset": 14.618181818181785
        },
        "target_timerange": {
            "start_offset": 1016.2603636363636,
            "end_offset": 1017.7221818181818
        },
        "ignore_audio": true,
        "audio_path": null
    },
    {
        "segment_id": "da4ff1d69d8811efbee9b8cef68aba34",
        "text": "“I believe her to be both",
        "audio_url": "https://v16m-default.akamaized.net/be8cdec8df4938f2adbcda5839e7dfc4/672de60f/video/tos/maliva/tos-maliva-v-f15faa-us/o8PA6iRE4QCtiApOysVaAZUkUyAyETASjBj23/?a=7073&bti=OTU0QDItLmA%3D&ch=0&cr=0&dr=4&er=0&lr=unwatermarked&cd=0%7C0%7C0%7C0&br=312&bt=156&ds=5&ft=.cwOVInz7ThUDGvOXq8Zmo&qs=13&rc=M2ZoOGw5cjxzdjUzNzhoM0BpM2ZoOGw5cjxzdjUzNzhoM0BtNDE0MmQ0MGpgLS1kLjZzYSNtNDE0MmQ0MGpgLS1kLjZzcw%3D%3D&vvpl=1&l=02173103962103400000000000000000000ffff0a00afb97d90e8&btag=e00070000&format=mp3&mime_type=audio_mpeg",
        "source_timerange": {
            "start_offset": 0,
            "end_offset": 1.4760000000000062
        },
        "target_timerange": {
            "start_offset": 1019.184,
            "end_offset": 1020.66
        },
        "ignore_audio": false,
        "audio_path": null
    },
    {
        "segment_id": "da4ff37a9d8811efbee9b8cef68aba34",
        "text": "in a great degree,” replied",
        "audio_url": "https://v16m-default.akamaized.net/be8cdec8df4938f2adbcda5839e7dfc4/672de60f/video/tos/maliva/tos-maliva-v-f15faa-us/o8PA6iRE4QCtiApOysVaAZUkUyAyETASjBj23/?a=7073&bti=OTU0QDItLmA%3D&ch=0&cr=0&dr=4&er=0&lr=unwatermarked&cd=0%7C0%7C0%7C0&br=312&bt=156&ds=5&ft=.cwOVInz7ThUDGvOXq8Zmo&qs=13&rc=M2ZoOGw5cjxzdjUzNzhoM0BpM2ZoOGw5cjxzdjUzNzhoM0BtNDE0MmQ0MGpgLS1kLjZzYSNtNDE0MmQ0MGpgLS1kLjZzcw%3D%3D&vvpl=1&l=02173103962103400000000000000000000ffff0a00afb97d90e8&btag=e00070000&format=mp3&mime_type=audio_mpeg",
        "source_timerange": {
            "start_offset": 1.475999999999999,
            "end_offset": 2.9520000000000053
        },
        "target_timerange": {
            "start_offset": 1020.66,
            "end_offset": 1022.136
        },
        "ignore_audio": true,
        "audio_path": null
    },
    {
        "segment_id": "da4ff4d89d8811efbee9b8cef68aba34",
        "text": "Wickham; “I have not seen",
        "audio_url": "https://v16m-default.akamaized.net/be8cdec8df4938f2adbcda5839e7dfc4/672de60f/video/tos/maliva/tos-maliva-v-f15faa-us/o8PA6iRE4QCtiApOysVaAZUkUyAyETASjBj23/?a=7073&bti=OTU0QDItLmA%3D&ch=0&cr=0&dr=4&er=0&lr=unwatermarked&cd=0%7C0%7C0%7C0&br=312&bt=156&ds=5&ft=.cwOVInz7ThUDGvOXq8Zmo&qs=13&rc=M2ZoOGw5cjxzdjUzNzhoM0BpM2ZoOGw5cjxzdjUzNzhoM0BtNDE0MmQ0MGpgLS1kLjZzYSNtNDE0MmQ0MGpgLS1kLjZzcw%3D%3D&vvpl=1&l=02173103962103400000000000000000000ffff0a00afb97d90e8&btag=e00070000&format=mp3&mime_type=audio_mpeg",
        "source_timerange": {
            "start_offset": 2.951999999999998,
            "end_offset": 4.428000000000004
        },
        "target_timerange": {
            "start_offset": 1022.136,
            "end_offset": 1023.612
        },
        "ignore_audio": true,
        "audio_path": null
    },
    {
        "segment_id": "da4ff5d29d8811efbee9b8cef68aba34",
        "text": "her for many years; but I",
        "audio_url": "https://v16m-default.akamaized.net/be8cdec8df4938f2adbcda5839e7dfc4/672de60f/video/tos/maliva/tos-maliva-v-f15faa-us/o8PA6iRE4QCtiApOysVaAZUkUyAyETASjBj23/?a=7073&bti=OTU0QDItLmA%3D&ch=0&cr=0&dr=4&er=0&lr=unwatermarked&cd=0%7C0%7C0%7C0&br=312&bt=156&ds=5&ft=.cwOVInz7ThUDGvOXq8Zmo&qs=13&rc=M2ZoOGw5cjxzdjUzNzhoM0BpM2ZoOGw5cjxzdjUzNzhoM0BtNDE0MmQ0MGpgLS1kLjZzYSNtNDE0MmQ0MGpgLS1kLjZzcw%3D%3D&vvpl=1&l=02173103962103400000000000000000000ffff0a00afb97d90e8&btag=e00070000&format=mp3&mime_type=audio_mpeg",
        "source_timerange": {
            "start_offset": 4.427999999999997,
            "end_offset": 5.9040000000000035
        },
        "target_timerange": {
            "start_offset": 1023.612,
            "end_offset": 1025.088
        },
        "ignore_audio": true,
        "audio_path": null
    },
    {
        "segment_id": "da4ff6a49d8811efbee9b8cef68aba34",
        "text": "very well remember that I",
        "audio_url": "https://v16m-default.akamaized.net/be8cdec8df4938f2adbcda5839e7dfc4/672de60f/video/tos/maliva/tos-maliva-v-f15faa-us/o8PA6iRE4QCtiApOysVaAZUkUyAyETASjBj23/?a=7073&bti=OTU0QDItLmA%3D&ch=0&cr=0&dr=4&er=0&lr=unwatermarked&cd=0%7C0%7C0%7C0&br=312&bt=156&ds=5&ft=.cwOVInz7ThUDGvOXq8Zmo&qs=13&rc=M2ZoOGw5cjxzdjUzNzhoM0BpM2ZoOGw5cjxzdjUzNzhoM0BtNDE0MmQ0MGpgLS1kLjZzYSNtNDE0MmQ0MGpgLS1kLjZzcw%3D%3D&vvpl=1&l=02173103962103400000000000000000000ffff0a00afb97d90e8&btag=e00070000&format=mp3&mime_type=audio_mpeg",
        "source_timerange": {
            "start_offset": 5.903999999999996,
            "end_offset": 7.379999999999889
        },
        "target_timerange": {
            "start_offset": 1025.088,
            "end_offset": 1026.5639999999999
        },
        "ignore_audio": true,
        "audio_path": null
    },
    {
        "segment_id": "da4ff7b29d8811efbee9b8cef68aba34",
        "text": "never liked her, and that",
        "audio_url": "https://v16m-default.akamaized.net/be8cdec8df4938f2adbcda5839e7dfc4/672de60f/video/tos/maliva/tos-maliva-v-f15faa-us/o8PA6iRE4QCtiApOysVaAZUkUyAyETASjBj23/?a=7073&bti=OTU0QDItLmA%3D&ch=0&cr=0&dr=4&er=0&lr=unwatermarked&cd=0%7C0%7C0%7C0&br=312&bt=156&ds=5&ft=.cwOVInz7ThUDGvOXq8Zmo&qs=13&rc=M2ZoOGw5cjxzdjUzNzhoM0BpM2ZoOGw5cjxzdjUzNzhoM0BtNDE0MmQ0MGpgLS1kLjZzYSNtNDE0MmQ0MGpgLS1kLjZzcw%3D%3D&vvpl=1&l=02173103962103400000000000000000000ffff0a00afb97d90e8&btag=e00070000&format=mp3&mime_type=audio_mpeg",
        "source_timerange": {
            "start_offset": 7.379999999999882,
            "end_offset": 8.856000000000002
        },
        "target_timerange": {
            "start_offset": 1026.5639999999999,
            "end_offset": 1028.04
        },
        "ignore_audio": true,
        "audio_path": null
    },
    {
        "segment_id": "da4ff8fc9d8811efbee9b8cef68aba34",
        "text": "her manners were",
        "audio_url": "https://v16m-default.akamaized.net/be8cdec8df4938f2adbcda5839e7dfc4/672de60f/video/tos/maliva/tos-maliva-v-f15faa-us/o8PA6iRE4QCtiApOysVaAZUkUyAyETASjBj23/?a=7073&bti=OTU0QDItLmA%3D&ch=0&cr=0&dr=4&er=0&lr=unwatermarked&cd=0%7C0%7C0%7C0&br=312&bt=156&ds=5&ft=.cwOVInz7ThUDGvOXq8Zmo&qs=13&rc=M2ZoOGw5cjxzdjUzNzhoM0BpM2ZoOGw5cjxzdjUzNzhoM0BtNDE0MmQ0MGpgLS1kLjZzYSNtNDE0MmQ0MGpgLS1kLjZzcw%3D%3D&vvpl=1&l=02173103962103400000000000000000000ffff0a00afb97d90e8&btag=e00070000&format=mp3&mime_type=audio_mpeg",
        "source_timerange": {
            "start_offset": 8.855999999999995,
            "end_offset": 10.332000000000114
        },
        "target_timerange": {
            "start_offset": 1028.04,
            "end_offset": 1029.516
        },
        "ignore_audio": true,
        "audio_path": null
    },
    {
        "segment_id": "da4ffa3c9d8811efbee9b8cef68aba34",
        "text": "dictatorial and insolent.",
        "audio_url": "https://v16m-default.akamaized.net/be8cdec8df4938f2adbcda5839e7dfc4/672de60f/video/tos/maliva/tos-maliva-v-f15faa-us/o8PA6iRE4QCtiApOysVaAZUkUyAyETASjBj23/?a=7073&bti=OTU0QDItLmA%3D&ch=0&cr=0&dr=4&er=0&lr=unwatermarked&cd=0%7C0%7C0%7C0&br=312&bt=156&ds=5&ft=.cwOVInz7ThUDGvOXq8Zmo&qs=13&rc=M2ZoOGw5cjxzdjUzNzhoM0BpM2ZoOGw5cjxzdjUzNzhoM0BtNDE0MmQ0MGpgLS1kLjZzYSNtNDE0MmQ0MGpgLS1kLjZzcw%3D%3D&vvpl=1&l=02173103962103400000000000000000000ffff0a00afb97d90e8&btag=e00070000&format=mp3&mime_type=audio_mpeg",
        "source_timerange": {
            "start_offset": 10.332000000000107,
            "end_offset": 11.808
        },
        "target_timerange": {
            "start_offset": 1029.516,
            "end_offset": 1030.992
        },
        "ignore_audio": true,
        "audio_path": null
    },
    {
        "segment_id": "da503c049d8811efbee9b8cef68aba34",
        "text": "She has the reputation of",
        "audio_url": "https://v16m-default.akamaized.net/c6729c58c37898db441d38698192baae/672de616/video/tos/maliva/tos-maliva-v-f15faa-us/oIRHjZaEP2TyiCxiY4BxRQUp7ASAtAkFV9ASE/?a=7073&bti=OTU0QDItLmA%3D&ch=0&cr=0&dr=4&er=0&lr=unwatermarked&cd=0%7C0%7C0%7C0&br=312&bt=156&ds=5&ft=.cwOVInz7ThUDGvOXq8Zmo&qs=13&rc=amxweGs5cjxzdjUzNzhoM0BpamxweGs5cjxzdjUzNzhoM0A2M3MwMmQ0MGpgLS1kLjZzYSM2M3MwMmQ0MGpgLS1kLjZzcw%3D%3D&vvpl=1&l=02173103962103400000000000000000000ffff0a00afb97d90e8&btag=e00078000&format=mp3&mime_type=audio_mpeg",
        "source_timerange": {
            "start_offset": 0,
            "end_offset": 1.5099999999998737
        },
        "target_timerange": {
            "start_offset": 1030.992,
            "end_offset": 1032.502
        },
        "ignore_audio": false,
        "audio_path": null
    },
    {
        "segment_id": "da503d4e9d8811efbee9b8cef68aba34",
        "text": "being remarkably sensible and",
        "audio_url": "https://v16m-default.akamaized.net/c6729c58c37898db441d38698192baae/672de616/video/tos/maliva/tos-maliva-v-f15faa-us/oIRHjZaEP2TyiCxiY4BxRQUp7ASAtAkFV9ASE/?a=7073&bti=OTU0QDItLmA%3D&ch=0&cr=0&dr=4&er=0&lr=unwatermarked&cd=0%7C0%7C0%7C0&br=312&bt=156&ds=5&ft=.cwOVInz7ThUDGvOXq8Zmo&qs=13&rc=amxweGs5cjxzdjUzNzhoM0BpamxweGs5cjxzdjUzNzhoM0A2M3MwMmQ0MGpgLS1kLjZzYSM2M3MwMmQ0MGpgLS1kLjZzcw%3D%3D&vvpl=1&l=02173103962103400000000000000000000ffff0a00afb97d90e8&btag=e00078000&format=mp3&mime_type=audio_mpeg",
        "source_timerange": {
            "start_offset": 1.509999999999991,
            "end_offset": 3.0199999999998646
        },
        "target_timerange": {
            "start_offset": 1032.502,
            "end_offset": 1034.012
        },
        "ignore_audio": true,
        "audio_path": null
    },
    {
        "segment_id": "da503ea29d8811efbee9b8cef68aba34",
        "text": "clever; but I rather believe",
        "audio_url": "https://v16m-default.akamaized.net/c6729c58c37898db441d38698192baae/672de616/video/tos/maliva/tos-maliva-v-f15faa-us/oIRHjZaEP2TyiCxiY4BxRQUp7ASAtAkFV9ASE/?a=7073&bti=OTU0QDItLmA%3D&ch=0&cr=0&dr=4&er=0&lr=unwatermarked&cd=0%7C0%7C0%7C0&br=312&bt=156&ds=5&ft=.cwOVInz7ThUDGvOXq8Zmo&qs=13&rc=amxweGs5cjxzdjUzNzhoM0BpamxweGs5cjxzdjUzNzhoM0A2M3MwMmQ0MGpgLS1kLjZzYSM2M3MwMmQ0MGpgLS1kLjZzcw%3D%3D&vvpl=1&l=02173103962103400000000000000000000ffff0a00afb97d90e8&btag=e00078000&format=mp3&mime_type=audio_mpeg",
        "source_timerange": {
            "start_offset": 3.019999999999982,
            "end_offset": 4.5299999999998555
        },
        "target_timerange": {
            "start_offset": 1034.012,
            "end_offset": 1035.522
        },
        "ignore_audio": true,
        "audio_path": null
    },
    {
        "segment_id": "da503f929d8811efbee9b8cef68aba34",
        "text": "she derives part of her",
        "audio_url": "https://v16m-default.akamaized.net/c6729c58c37898db441d38698192baae/672de616/video/tos/maliva/tos-maliva-v-f15faa-us/oIRHjZaEP2TyiCxiY4BxRQUp7ASAtAkFV9ASE/?a=7073&bti=OTU0QDItLmA%3D&ch=0&cr=0&dr=4&er=0&lr=unwatermarked&cd=0%7C0%7C0%7C0&br=312&bt=156&ds=5&ft=.cwOVInz7ThUDGvOXq8Zmo&qs=13&rc=amxweGs5cjxzdjUzNzhoM0BpamxweGs5cjxzdjUzNzhoM0A2M3MwMmQ0MGpgLS1kLjZzYSM2M3MwMmQ0MGpgLS1kLjZzcw%3D%3D&vvpl=1&l=02173103962103400000000000000000000ffff0a00afb97d90e8&btag=e00078000&format=mp3&mime_type=audio_mpeg",
        "source_timerange": {
            "start_offset": 4.529999999999973,
            "end_offset": 6.039999999999846
        },
        "target_timerange": {
            "start_offset": 1035.522,
            "end_offset": 1037.032
        },
        "ignore_audio": true,
        "audio_path": null
    },
    {
        "segment_id": "da5040649d8811efbee9b8cef68aba34",
        "text": "abilities from her rank and",
        "audio_url": "https://v16m-default.akamaized.net/c6729c58c37898db441d38698192baae/672de616/video/tos/maliva/tos-maliva-v-f15faa-us/oIRHjZaEP2TyiCxiY4BxRQUp7ASAtAkFV9ASE/?a=7073&bti=OTU0QDItLmA%3D&ch=0&cr=0&dr=4&er=0&lr=unwatermarked&cd=0%7C0%7C0%7C0&br=312&bt=156&ds=5&ft=.cwOVInz7ThUDGvOXq8Zmo&qs=13&rc=amxweGs5cjxzdjUzNzhoM0BpamxweGs5cjxzdjUzNzhoM0A2M3MwMmQ0MGpgLS1kLjZzYSM2M3MwMmQ0MGpgLS1kLjZzcw%3D%3D&vvpl=1&l=02173103962103400000000000000000000ffff0a00afb97d90e8&btag=e00078000&format=mp3&mime_type=audio_mpeg",
        "source_timerange": {
            "start_offset": 6.039999999999964,
            "end_offset": 7.549999999999837
        },
        "target_timerange": {
            "start_offset": 1037.032,
            "end_offset": 1038.542
        },
        "ignore_audio": true,
        "audio_path": null
    },
    {
        "segment_id": "da5041549d8811efbee9b8cef68aba34",
        "text": "fortune, part from her",
        "audio_url": "https://v16m-default.akamaized.net/c6729c58c37898db441d38698192baae/672de616/video/tos/maliva/tos-maliva-v-f15faa-us/oIRHjZaEP2TyiCxiY4BxRQUp7ASAtAkFV9ASE/?a=7073&bti=OTU0QDItLmA%3D&ch=0&cr=0&dr=4&er=0&lr=unwatermarked&cd=0%7C0%7C0%7C0&br=312&bt=156&ds=5&ft=.cwOVInz7ThUDGvOXq8Zmo&qs=13&rc=amxweGs5cjxzdjUzNzhoM0BpamxweGs5cjxzdjUzNzhoM0A2M3MwMmQ0MGpgLS1kLjZzYSM2M3MwMmQ0MGpgLS1kLjZzcw%3D%3D&vvpl=1&l=02173103962103400000000000000000000ffff0a00afb97d90e8&btag=e00078000&format=mp3&mime_type=audio_mpeg",
        "source_timerange": {
            "start_offset": 7.5499999999999545,
            "end_offset": 9.060000000000056
        },
        "target_timerange": {
            "start_offset": 1038.542,
            "end_offset": 1040.0520000000001
        },
        "ignore_audio": true,
        "audio_path": null
    },
    {
        "segment_id": "da5042269d8811efbee9b8cef68aba34",
        "text": "authoritative manner, and the",
        "audio_url": "https://v16m-default.akamaized.net/c6729c58c37898db441d38698192baae/672de616/video/tos/maliva/tos-maliva-v-f15faa-us/oIRHjZaEP2TyiCxiY4BxRQUp7ASAtAkFV9ASE/?a=7073&bti=OTU0QDItLmA%3D&ch=0&cr=0&dr=4&er=0&lr=unwatermarked&cd=0%7C0%7C0%7C0&br=312&bt=156&ds=5&ft=.cwOVInz7ThUDGvOXq8Zmo&qs=13&rc=amxweGs5cjxzdjUzNzhoM0BpamxweGs5cjxzdjUzNzhoM0A2M3MwMmQ0MGpgLS1kLjZzYSM2M3MwMmQ0MGpgLS1kLjZzcw%3D%3D&vvpl=1&l=02173103962103400000000000000000000ffff0a00afb97d90e8&btag=e00078000&format=mp3&mime_type=audio_mpeg",
        "source_timerange": {
            "start_offset": 9.060000000000173,
            "end_offset": 10.570000000000046
        },
        "target_timerange": {
            "start_offset": 1040.0520000000001,
            "end_offset": 1041.5620000000001
        },
        "ignore_audio": true,
        "audio_path": null
    },
    {
        "segment_id": "da50435c9d8811efbee9b8cef68aba34",
        "text": "rest from the pride of her",
        "audio_url": "https://v16m-default.akamaized.net/c6729c58c37898db441d38698192baae/672de616/video/tos/maliva/tos-maliva-v-f15faa-us/oIRHjZaEP2TyiCxiY4BxRQUp7ASAtAkFV9ASE/?a=7073&bti=OTU0QDItLmA%3D&ch=0&cr=0&dr=4&er=0&lr=unwatermarked&cd=0%7C0%7C0%7C0&br=312&bt=156&ds=5&ft=.cwOVInz7ThUDGvOXq8Zmo&qs=13&rc=amxweGs5cjxzdjUzNzhoM0BpamxweGs5cjxzdjUzNzhoM0A2M3MwMmQ0MGpgLS1kLjZzYSM2M3MwMmQ0MGpgLS1kLjZzcw%3D%3D&vvpl=1&l=02173103962103400000000000000000000ffff0a00afb97d90e8&btag=e00078000&format=mp3&mime_type=audio_mpeg",
        "source_timerange": {
            "start_offset": 10.570000000000164,
            "end_offset": 12.080000000000037
        },
        "target_timerange": {
            "start_offset": 1041.5620000000001,
            "end_offset": 1043.0720000000001
        },
        "ignore_audio": true,
        "audio_path": null
    },
    {
        "segment_id": "da5044a69d8811efbee9b8cef68aba34",
        "text": "nephew, who chooses that",
        "audio_url": "https://v16m-default.akamaized.net/c6729c58c37898db441d38698192baae/672de616/video/tos/maliva/tos-maliva-v-f15faa-us/oIRHjZaEP2TyiCxiY4BxRQUp7ASAtAkFV9ASE/?a=7073&bti=OTU0QDItLmA%3D&ch=0&cr=0&dr=4&er=0&lr=unwatermarked&cd=0%7C0%7C0%7C0&br=312&bt=156&ds=5&ft=.cwOVInz7ThUDGvOXq8Zmo&qs=13&rc=amxweGs5cjxzdjUzNzhoM0BpamxweGs5cjxzdjUzNzhoM0A2M3MwMmQ0MGpgLS1kLjZzYSM2M3MwMmQ0MGpgLS1kLjZzcw%3D%3D&vvpl=1&l=02173103962103400000000000000000000ffff0a00afb97d90e8&btag=e00078000&format=mp3&mime_type=audio_mpeg",
        "source_timerange": {
            "start_offset": 12.080000000000155,
            "end_offset": 13.590000000000028
        },
        "target_timerange": {
            "start_offset": 1043.0720000000001,
            "end_offset": 1044.582
        },
        "ignore_audio": true,
        "audio_path": null
    },
    {
        "segment_id": "da5045c89d8811efbee9b8cef68aba34",
        "text": "everyone connected with him",
        "audio_url": "https://v16m-default.akamaized.net/c6729c58c37898db441d38698192baae/672de616/video/tos/maliva/tos-maliva-v-f15faa-us/oIRHjZaEP2TyiCxiY4BxRQUp7ASAtAkFV9ASE/?a=7073&bti=OTU0QDItLmA%3D&ch=0&cr=0&dr=4&er=0&lr=unwatermarked&cd=0%7C0%7C0%7C0&br=312&bt=156&ds=5&ft=.cwOVInz7ThUDGvOXq8Zmo&qs=13&rc=amxweGs5cjxzdjUzNzhoM0BpamxweGs5cjxzdjUzNzhoM0A2M3MwMmQ0MGpgLS1kLjZzYSM2M3MwMmQ0MGpgLS1kLjZzcw%3D%3D&vvpl=1&l=02173103962103400000000000000000000ffff0a00afb97d90e8&btag=e00078000&format=mp3&mime_type=audio_mpeg",
        "source_timerange": {
            "start_offset": 13.590000000000146,
            "end_offset": 15.10000000000002
        },
        "target_timerange": {
            "start_offset": 1044.582,
            "end_offset": 1046.092
        },
        "ignore_audio": true,
        "audio_path": null
    },
    {
        "segment_id": "da5046e09d8811efbee9b8cef68aba34",
        "text": "should have an understanding",
        "audio_url": "https://v16m-default.akamaized.net/c6729c58c37898db441d38698192baae/672de616/video/tos/maliva/tos-maliva-v-f15faa-us/oIRHjZaEP2TyiCxiY4BxRQUp7ASAtAkFV9ASE/?a=7073&bti=OTU0QDItLmA%3D&ch=0&cr=0&dr=4&er=0&lr=unwatermarked&cd=0%7C0%7C0%7C0&br=312&bt=156&ds=5&ft=.cwOVInz7ThUDGvOXq8Zmo&qs=13&rc=amxweGs5cjxzdjUzNzhoM0BpamxweGs5cjxzdjUzNzhoM0A2M3MwMmQ0MGpgLS1kLjZzYSM2M3MwMmQ0MGpgLS1kLjZzcw%3D%3D&vvpl=1&l=02173103962103400000000000000000000ffff0a00afb97d90e8&btag=e00078000&format=mp3&mime_type=audio_mpeg",
        "source_timerange": {
            "start_offset": 15.100000000000136,
            "end_offset": 16.61000000000001
        },
        "target_timerange": {
            "start_offset": 1046.092,
            "end_offset": 1047.602
        },
        "ignore_audio": true,
        "audio_path": null
    },
    {
        "segment_id": "da50480c9d8811efbee9b8cef68aba34",
        "text": "of the first class.”",
        "audio_url": "https://v16m-default.akamaized.net/c6729c58c37898db441d38698192baae/672de616/video/tos/maliva/tos-maliva-v-f15faa-us/oIRHjZaEP2TyiCxiY4BxRQUp7ASAtAkFV9ASE/?a=7073&bti=OTU0QDItLmA%3D&ch=0&cr=0&dr=4&er=0&lr=unwatermarked&cd=0%7C0%7C0%7C0&br=312&bt=156&ds=5&ft=.cwOVInz7ThUDGvOXq8Zmo&qs=13&rc=amxweGs5cjxzdjUzNzhoM0BpamxweGs5cjxzdjUzNzhoM0A2M3MwMmQ0MGpgLS1kLjZzYSM2M3MwMmQ0MGpgLS1kLjZzcw%3D%3D&vvpl=1&l=02173103962103400000000000000000000ffff0a00afb97d90e8&btag=e00078000&format=mp3&mime_type=audio_mpeg",
        "source_timerange": {
            "start_offset": 16.610000000000127,
            "end_offset": 18.12
        },
        "target_timerange": {
            "start_offset": 1047.602,
            "end_offset": 1049.112
        },
        "ignore_audio": true,
        "audio_path": null
    },
    {
        "segment_id": "da506daa9d8811efbee9b8cef68aba34",
        "text": "Elizabeth allowed that he had",
        "audio_url": "https://v16m-default.akamaized.net/3f584dcdc1addd99f02152ef8bb434bc/672de610/video/tos/maliva/tos-maliva-v-f15faa-us/oYQPSR4lptBEVUS4UAApEi723AaykiEZC2pAV/?a=7073&bti=OTU0QDItLmA%3D&ch=0&cr=0&dr=4&er=0&lr=unwatermarked&cd=0%7C0%7C0%7C0&br=312&bt=156&ds=5&ft=.cwOVInz7ThUDGvOXq8Zmo&qs=13&rc=anI5a3A5cjxzdjUzNzhoM0BpanI5a3A5cjxzdjUzNzhoM0BvZzJmMmQ0MGpgLS1kLjZzYSNvZzJmMmQ0MGpgLS1kLjZzcw%3D%3D&vvpl=1&l=02173103962103400000000000000000000ffff0a00afb97d90e8&btag=e00070000&format=mp3&mime_type=audio_mpeg",
        "source_timerange": {
            "start_offset": 0,
            "end_offset": 1.5540000000000713
        },
        "target_timerange": {
            "start_offset": 1049.112,
            "end_offset": 1050.6660000000002
        },
        "ignore_audio": false,
        "audio_path": null
    },
    {
        "segment_id": "da506ecc9d8811efbee9b8cef68aba34",
        "text": "given a very rational account",
        "audio_url": "https://v16m-default.akamaized.net/3f584dcdc1addd99f02152ef8bb434bc/672de610/video/tos/maliva/tos-maliva-v-f15faa-us/oYQPSR4lptBEVUS4UAApEi723AaykiEZC2pAV/?a=7073&bti=OTU0QDItLmA%3D&ch=0&cr=0&dr=4&er=0&lr=unwatermarked&cd=0%7C0%7C0%7C0&br=312&bt=156&ds=5&ft=.cwOVInz7ThUDGvOXq8Zmo&qs=13&rc=anI5a3A5cjxzdjUzNzhoM0BpanI5a3A5cjxzdjUzNzhoM0BvZzJmMmQ0MGpgLS1kLjZzYSNvZzJmMmQ0MGpgLS1kLjZzcw%3D%3D&vvpl=1&l=02173103962103400000000000000000000ffff0a00afb97d90e8&btag=e00070000&format=mp3&mime_type=audio_mpeg",
        "source_timerange": {
            "start_offset": 1.5540000000000873,
            "end_offset": 3.1079999999999313
        },
        "target_timerange": {
            "start_offset": 1050.6660000000002,
            "end_offset": 1052.22
        },
        "ignore_audio": true,
        "audio_path": null
    },
    {
        "segment_id": "da506fa89d8811efbee9b8cef68aba34",
        "text": "of it, and they continued",
        "audio_url": "https://v16m-default.akamaized.net/3f584dcdc1addd99f02152ef8bb434bc/672de610/video/tos/maliva/tos-maliva-v-f15faa-us/oYQPSR4lptBEVUS4UAApEi723AaykiEZC2pAV/?a=7073&bti=OTU0QDItLmA%3D&ch=0&cr=0&dr=4&er=0&lr=unwatermarked&cd=0%7C0%7C0%7C0&br=312&bt=156&ds=5&ft=.cwOVInz7ThUDGvOXq8Zmo&qs=13&rc=anI5a3A5cjxzdjUzNzhoM0BpanI5a3A5cjxzdjUzNzhoM0BvZzJmMmQ0MGpgLS1kLjZzYSNvZzJmMmQ0MGpgLS1kLjZzcw%3D%3D&vvpl=1&l=02173103962103400000000000000000000ffff0a00afb97d90e8&btag=e00070000&format=mp3&mime_type=audio_mpeg",
        "source_timerange": {
            "start_offset": 3.1079999999999472,
            "end_offset": 4.662000000000019
        },
        "target_timerange": {
            "start_offset": 1052.22,
            "end_offset": 1053.7740000000001
        },
        "ignore_audio": true,
        "audio_path": null
    },
    {
        "segment_id": "da5070709d8811efbee9b8cef68aba34",
        "text": "talking together with mutual",
        "audio_url": "https://v16m-default.akamaized.net/3f584dcdc1addd99f02152ef8bb434bc/672de610/video/tos/maliva/tos-maliva-v-f15faa-us/oYQPSR4lptBEVUS4UAApEi723AaykiEZC2pAV/?a=7073&bti=OTU0QDItLmA%3D&ch=0&cr=0&dr=4&er=0&lr=unwatermarked&cd=0%7C0%7C0%7C0&br=312&bt=156&ds=5&ft=.cwOVInz7ThUDGvOXq8Zmo&qs=13&rc=anI5a3A5cjxzdjUzNzhoM0BpanI5a3A5cjxzdjUzNzhoM0BvZzJmMmQ0MGpgLS1kLjZzYSNvZzJmMmQ0MGpgLS1kLjZzcw%3D%3D&vvpl=1&l=02173103962103400000000000000000000ffff0a00afb97d90e8&btag=e00070000&format=mp3&mime_type=audio_mpeg",
        "source_timerange": {
            "start_offset": 4.662000000000035,
            "end_offset": 6.2159999999998785
        },
        "target_timerange": {
            "start_offset": 1053.7740000000001,
            "end_offset": 1055.328
        },
        "ignore_audio": true,
        "audio_path": null
    },
    {
        "segment_id": "da5071429d8811efbee9b8cef68aba34",
        "text": "satisfaction till supper put an",
        "audio_url": "https://v16m-default.akamaized.net/3f584dcdc1addd99f02152ef8bb434bc/672de610/video/tos/maliva/tos-maliva-v-f15faa-us/oYQPSR4lptBEVUS4UAApEi723AaykiEZC2pAV/?a=7073&bti=OTU0QDItLmA%3D&ch=0&cr=0&dr=4&er=0&lr=unwatermarked&cd=0%7C0%7C0%7C0&br=312&bt=156&ds=5&ft=.cwOVInz7ThUDGvOXq8Zmo&qs=13&rc=anI5a3A5cjxzdjUzNzhoM0BpanI5a3A5cjxzdjUzNzhoM0BvZzJmMmQ0MGpgLS1kLjZzYSNvZzJmMmQ0MGpgLS1kLjZzcw%3D%3D&vvpl=1&l=02173103962103400000000000000000000ffff0a00afb97d90e8&btag=e00070000&format=mp3&mime_type=audio_mpeg",
        "source_timerange": {
            "start_offset": 6.2159999999998945,
            "end_offset": 7.769999999999966
        },
        "target_timerange": {
            "start_offset": 1055.328,
            "end_offset": 1056.882
        },
        "ignore_audio": true,
        "audio_path": null
    },
    {
        "segment_id": "da5072009d8811efbee9b8cef68aba34",
        "text": "end to cards, and gave the rest",
        "audio_url": "https://v16m-default.akamaized.net/3f584dcdc1addd99f02152ef8bb434bc/672de610/video/tos/maliva/tos-maliva-v-f15faa-us/oYQPSR4lptBEVUS4UAApEi723AaykiEZC2pAV/?a=7073&bti=OTU0QDItLmA%3D&ch=0&cr=0&dr=4&er=0&lr=unwatermarked&cd=0%7C0%7C0%7C0&br=312&bt=156&ds=5&ft=.cwOVInz7ThUDGvOXq8Zmo&qs=13&rc=anI5a3A5cjxzdjUzNzhoM0BpanI5a3A5cjxzdjUzNzhoM0BvZzJmMmQ0MGpgLS1kLjZzYSNvZzJmMmQ0MGpgLS1kLjZzcw%3D%3D&vvpl=1&l=02173103962103400000000000000000000ffff0a00afb97d90e8&btag=e00070000&format=mp3&mime_type=audio_mpeg",
        "source_timerange": {
            "start_offset": 7.769999999999982,
            "end_offset": 9.324000000000053
        },
        "target_timerange": {
            "start_offset": 1056.882,
            "end_offset": 1058.4360000000001
        },
        "ignore_audio": true,
        "audio_path": null
    },
    {
        "segment_id": "da5072c89d8811efbee9b8cef68aba34",
        "text": "of the ladies their share of",
        "audio_url": "https://v16m-default.akamaized.net/3f584dcdc1addd99f02152ef8bb434bc/672de610/video/tos/maliva/tos-maliva-v-f15faa-us/oYQPSR4lptBEVUS4UAApEi723AaykiEZC2pAV/?a=7073&bti=OTU0QDItLmA%3D&ch=0&cr=0&dr=4&er=0&lr=unwatermarked&cd=0%7C0%7C0%7C0&br=312&bt=156&ds=5&ft=.cwOVInz7ThUDGvOXq8Zmo&qs=13&rc=anI5a3A5cjxzdjUzNzhoM0BpanI5a3A5cjxzdjUzNzhoM0BvZzJmMmQ0MGpgLS1kLjZzYSNvZzJmMmQ0MGpgLS1kLjZzcw%3D%3D&vvpl=1&l=02173103962103400000000000000000000ffff0a00afb97d90e8&btag=e00070000&format=mp3&mime_type=audio_mpeg",
        "source_timerange": {
            "start_offset": 9.32400000000007,
            "end_offset": 10.877999999999913
        },
        "target_timerange": {
            "start_offset": 1058.4360000000001,
            "end_offset": 1059.99
        },
        "ignore_audio": true,
        "audio_path": null
    },
    {
        "segment_id": "da5073909d8811efbee9b8cef68aba34",
        "text": "Mr. Wickham’s attentions.",
        "audio_url": "https://v16m-default.akamaized.net/3f584dcdc1addd99f02152ef8bb434bc/672de610/video/tos/maliva/tos-maliva-v-f15faa-us/oYQPSR4lptBEVUS4UAApEi723AaykiEZC2pAV/?a=7073&bti=OTU0QDItLmA%3D&ch=0&cr=0&dr=4&er=0&lr=unwatermarked&cd=0%7C0%7C0%7C0&br=312&bt=156&ds=5&ft=.cwOVInz7ThUDGvOXq8Zmo&qs=13&rc=anI5a3A5cjxzdjUzNzhoM0BpanI5a3A5cjxzdjUzNzhoM0BvZzJmMmQ0MGpgLS1kLjZzYSNvZzJmMmQ0MGpgLS1kLjZzcw%3D%3D&vvpl=1&l=02173103962103400000000000000000000ffff0a00afb97d90e8&btag=e00070000&format=mp3&mime_type=audio_mpeg",
        "source_timerange": {
            "start_offset": 10.877999999999929,
            "end_offset": 12.432
        },
        "target_timerange": {
            "start_offset": 1059.99,
            "end_offset": 1061.544
        },
        "ignore_audio": true,
        "audio_path": null
    },
    {
        "segment_id": "da5089349d8811efbee9b8cef68aba34",
        "text": "There could be no",
        "audio_url": "https://v16m-default.akamaized.net/a394a6e3fb6bcf94024bf28ee715d4f9/672de60a/video/tos/maliva/tos-maliva-v-f15faa-us/osAAO244EEVObP2TmUZi4tBSaQiwQAyjpAkCR/?a=7073&bti=OTU0QDItLmA%3D&ch=0&cr=0&dr=4&er=0&lr=unwatermarked&cd=0%7C0%7C0%7C0&br=312&bt=156&ds=5&ft=.cwOVInz7ThUDGvOXq8Zmo&qs=13&rc=anVyZnI5cjxzdjUzNzhoM0BpanVyZnI5cjxzdjUzNzhoM0A2cDNnMmQ0MGpgLS1kLjZzYSM2cDNnMmQ0MGpgLS1kLjZzcw%3D%3D&vvpl=1&l=02173103962103400000000000000000000ffff0a00afb97d90e8&btag=e00070000&format=mp3&mime_type=audio_mpeg",
        "source_timerange": {
            "start_offset": 0,
            "end_offset": 1.3823999999999268
        },
        "target_timerange": {
            "start_offset": 1061.544,
            "end_offset": 1062.9264
        },
        "ignore_audio": false,
        "audio_path": null
    },
    {
        "segment_id": "da508a4c9d8811efbee9b8cef68aba34",
        "text": "conversation in the noise",
        "audio_url": "https://v16m-default.akamaized.net/a394a6e3fb6bcf94024bf28ee715d4f9/672de60a/video/tos/maliva/tos-maliva-v-f15faa-us/osAAO244EEVObP2TmUZi4tBSaQiwQAyjpAkCR/?a=7073&bti=OTU0QDItLmA%3D&ch=0&cr=0&dr=4&er=0&lr=unwatermarked&cd=0%7C0%7C0%7C0&br=312&bt=156&ds=5&ft=.cwOVInz7ThUDGvOXq8Zmo&qs=13&rc=anVyZnI5cjxzdjUzNzhoM0BpanVyZnI5cjxzdjUzNzhoM0A2cDNnMmQ0MGpgLS1kLjZzYSM2cDNnMmQ0MGpgLS1kLjZzcw%3D%3D&vvpl=1&l=02173103962103400000000000000000000ffff0a00afb97d90e8&btag=e00070000&format=mp3&mime_type=audio_mpeg",
        "source_timerange": {
            "start_offset": 1.3823999999999614,
            "end_offset": 2.7647999999998882
        },
        "target_timerange": {
            "start_offset": 1062.9264,
            "end_offset": 1064.3088
        },
        "ignore_audio": true,
        "audio_path": null
    },
    {
        "segment_id": "da508b289d8811efbee9b8cef68aba34",
        "text": "of Mrs. Philips’s supper",
        "audio_url": "https://v16m-default.akamaized.net/a394a6e3fb6bcf94024bf28ee715d4f9/672de60a/video/tos/maliva/tos-maliva-v-f15faa-us/osAAO244EEVObP2TmUZi4tBSaQiwQAyjpAkCR/?a=7073&bti=OTU0QDItLmA%3D&ch=0&cr=0&dr=4&er=0&lr=unwatermarked&cd=0%7C0%7C0%7C0&br=312&bt=156&ds=5&ft=.cwOVInz7ThUDGvOXq8Zmo&qs=13&rc=anVyZnI5cjxzdjUzNzhoM0BpanVyZnI5cjxzdjUzNzhoM0A2cDNnMmQ0MGpgLS1kLjZzYSM2cDNnMmQ0MGpgLS1kLjZzcw%3D%3D&vvpl=1&l=02173103962103400000000000000000000ffff0a00afb97d90e8&btag=e00070000&format=mp3&mime_type=audio_mpeg",
        "source_timerange": {
            "start_offset": 2.764799999999923,
            "end_offset": 4.147200000000077
        },
        "target_timerange": {
            "start_offset": 1064.3088,
            "end_offset": 1065.6912000000002
        },
        "ignore_audio": true,
        "audio_path": null
    },
    {
        "segment_id": "da508bf09d8811efbee9b8cef68aba34",
        "text": "party, but his manners",
        "audio_url": "https://v16m-default.akamaized.net/a394a6e3fb6bcf94024bf28ee715d4f9/672de60a/video/tos/maliva/tos-maliva-v-f15faa-us/osAAO244EEVObP2TmUZi4tBSaQiwQAyjpAkCR/?a=7073&bti=OTU0QDItLmA%3D&ch=0&cr=0&dr=4&er=0&lr=unwatermarked&cd=0%7C0%7C0%7C0&br=312&bt=156&ds=5&ft=.cwOVInz7ThUDGvOXq8Zmo&qs=13&rc=anVyZnI5cjxzdjUzNzhoM0BpanVyZnI5cjxzdjUzNzhoM0A2cDNnMmQ0MGpgLS1kLjZzYSM2cDNnMmQ0MGpgLS1kLjZzcw%3D%3D&vvpl=1&l=02173103962103400000000000000000000ffff0a00afb97d90e8&btag=e00070000&format=mp3&mime_type=audio_mpeg",
        "source_timerange": {
            "start_offset": 4.147200000000112,
            "end_offset": 5.5296000000000385
        },
        "target_timerange": {
            "start_offset": 1065.6912000000002,
            "end_offset": 1067.0736000000002
        },
        "ignore_audio": true,
        "audio_path": null
    },
    {
        "segment_id": "da508ca49d8811efbee9b8cef68aba34",
        "text": "recommended him to everybody.",
        "audio_url": "https://v16m-default.akamaized.net/a394a6e3fb6bcf94024bf28ee715d4f9/672de60a/video/tos/maliva/tos-maliva-v-f15faa-us/osAAO244EEVObP2TmUZi4tBSaQiwQAyjpAkCR/?a=7073&bti=OTU0QDItLmA%3D&ch=0&cr=0&dr=4&er=0&lr=unwatermarked&cd=0%7C0%7C0%7C0&br=312&bt=156&ds=5&ft=.cwOVInz7ThUDGvOXq8Zmo&qs=13&rc=anVyZnI5cjxzdjUzNzhoM0BpanVyZnI5cjxzdjUzNzhoM0A2cDNnMmQ0MGpgLS1kLjZzYSM2cDNnMmQ0MGpgLS1kLjZzcw%3D%3D&vvpl=1&l=02173103962103400000000000000000000ffff0a00afb97d90e8&btag=e00070000&format=mp3&mime_type=audio_mpeg",
        "source_timerange": {
            "start_offset": 5.529600000000073,
            "end_offset": 6.912
        },
        "target_timerange": {
            "start_offset": 1067.0736000000002,
            "end_offset": 1068.4560000000001
        },
        "ignore_audio": true,
        "audio_path": null
    },
    {
        "segment_id": "da5099569d8811efbee9b8cef68aba34",
        "text": "Whatever he said, was said",
        "audio_url": "https://v16m-default.akamaized.net/39f62e05f1934d5fa00929c89b39397f/672de608/video/tos/maliva/tos-maliva-v-f15faa-us/ooA42VPVTRSRuEUyACEAitpmjAarZpWkQBI1i/?a=7073&bti=OTU0QDItLmA%3D&ch=0&cr=0&dr=4&er=0&lr=unwatermarked&cd=0%7C0%7C0%7C0&br=312&bt=156&ds=5&ft=.cwOVInz7ThUDGvOXq8Zmo&qs=13&rc=amhob285cjxzdjUzNzhoM0Bpamhob285cjxzdjUzNzhoM0BoYWBpMmQ0MGpgLS1kLjZzYSNoYWBpMmQ0MGpgLS1kLjZzcw%3D%3D&vvpl=1&l=02173103962103400000000000000000000ffff0a00afb97d90e8&btag=e00070000&format=mp3&mime_type=audio_mpeg",
        "source_timerange": {
            "start_offset": 0,
            "end_offset": 1.6479999999999508
        },
        "target_timerange": {
            "start_offset": 1068.4560000000001,
            "end_offset": 1070.104
        },
        "ignore_audio": false,
        "audio_path": null
    },
    {
        "segment_id": "da509a509d8811efbee9b8cef68aba34",
        "text": "well; and whatever he did,",
        "audio_url": "https://v16m-default.akamaized.net/39f62e05f1934d5fa00929c89b39397f/672de608/video/tos/maliva/tos-maliva-v-f15faa-us/ooA42VPVTRSRuEUyACEAitpmjAarZpWkQBI1i/?a=7073&bti=OTU0QDItLmA%3D&ch=0&cr=0&dr=4&er=0&lr=unwatermarked&cd=0%7C0%7C0%7C0&br=312&bt=156&ds=5&ft=.cwOVInz7ThUDGvOXq8Zmo&qs=13&rc=amhob285cjxzdjUzNzhoM0Bpamhob285cjxzdjUzNzhoM0BoYWBpMmQ0MGpgLS1kLjZzYSNoYWBpMmQ0MGpgLS1kLjZzcw%3D%3D&vvpl=1&l=02173103962103400000000000000000000ffff0a00afb97d90e8&btag=e00070000&format=mp3&mime_type=audio_mpeg",
        "source_timerange": {
            "start_offset": 1.6479999999999109,
            "end_offset": 3.296000000000089
        },
        "target_timerange": {
            "start_offset": 1070.104,
            "end_offset": 1071.7520000000002
        },
        "ignore_audio": true,
        "audio_path": null
    },
    {
        "segment_id": "da509b2c9d8811efbee9b8cef68aba34",
        "text": "done gracefully.",
        "audio_url": "https://v16m-default.akamaized.net/39f62e05f1934d5fa00929c89b39397f/672de608/video/tos/maliva/tos-maliva-v-f15faa-us/ooA42VPVTRSRuEUyACEAitpmjAarZpWkQBI1i/?a=7073&bti=OTU0QDItLmA%3D&ch=0&cr=0&dr=4&er=0&lr=unwatermarked&cd=0%7C0%7C0%7C0&br=312&bt=156&ds=5&ft=.cwOVInz7ThUDGvOXq8Zmo&qs=13&rc=amhob285cjxzdjUzNzhoM0Bpamhob285cjxzdjUzNzhoM0BoYWBpMmQ0MGpgLS1kLjZzYSNoYWBpMmQ0MGpgLS1kLjZzcw%3D%3D&vvpl=1&l=02173103962103400000000000000000000ffff0a00afb97d90e8&btag=e00070000&format=mp3&mime_type=audio_mpeg",
        "source_timerange": {
            "start_offset": 3.296000000000049,
            "end_offset": 4.944
        },
        "target_timerange": {
            "start_offset": 1071.7520000000002,
            "end_offset": 1073.4
        },
        "ignore_audio": true,
        "audio_path": null
    },
    {
        "segment_id": "da50a5b89d8811efbee9b8cef68aba34",
        "text": "Elizabeth went away with",
        "audio_url": "https://v16m-default.akamaized.net/5ce4b1c06799c7cd1d2beb30d841d368/672de606/video/tos/maliva/tos-maliva-v-f15faa-us/ocrBfCJgXEAIeA0OmySLINvWICCeSAkbGgGICL/?a=7073&bti=OTU0QDItLmA%3D&ch=0&cr=0&dr=4&er=0&lr=unwatermarked&cd=0%7C0%7C0%7C0&br=312&bt=156&ds=5&ft=.cwOVInz7ThUDGvOXq8Zmo&qs=13&rc=ankzZms5cjxzdjUzNzhoM0BpankzZms5cjxzdjUzNzhoM0A2azIuMmQ0MGpgLS1kLjZzYSM2azIuMmQ0MGpgLS1kLjZzcw%3D%3D&vvpl=1&l=02173103962103400000000000000000000ffff0a00afb97d90e8&btag=e00070000&format=mp3&mime_type=audio_mpeg",
        "source_timerange": {
            "start_offset": 0,
            "end_offset": 1.2600000000000091
        },
        "target_timerange": {
            "start_offset": 1073.4,
            "end_offset": 1074.66
        },
        "ignore_audio": false,
        "audio_path": null
    },
    {
        "segment_id": "da50a73e9d8811efbee9b8cef68aba34",
        "text": "her head full of him.",
        "audio_url": "https://v16m-default.akamaized.net/5ce4b1c06799c7cd1d2beb30d841d368/672de606/video/tos/maliva/tos-maliva-v-f15faa-us/ocrBfCJgXEAIeA0OmySLINvWICCeSAkbGgGICL/?a=7073&bti=OTU0QDItLmA%3D&ch=0&cr=0&dr=4&er=0&lr=unwatermarked&cd=0%7C0%7C0%7C0&br=312&bt=156&ds=5&ft=.cwOVInz7ThUDGvOXq8Zmo&qs=13&rc=ankzZms5cjxzdjUzNzhoM0BpankzZms5cjxzdjUzNzhoM0A2azIuMmQ0MGpgLS1kLjZzYSM2azIuMmQ0MGpgLS1kLjZzcw%3D%3D&vvpl=1&l=02173103962103400000000000000000000ffff0a00afb97d90e8&btag=e00070000&format=mp3&mime_type=audio_mpeg",
        "source_timerange": {
            "start_offset": 1.259999999999991,
            "end_offset": 2.52
        },
        "target_timerange": {
            "start_offset": 1074.66,
            "end_offset": 1075.92
        },
        "ignore_audio": true,
        "audio_path": null
    },
    {
        "segment_id": "da50cf2a9d8811efbee9b8cef68aba34",
        "text": "She could think of nothing",
        "audio_url": "https://v16m-default.akamaized.net/0272b59e7d76705c4a6cc98acce68df1/672de612/video/tos/maliva/tos-maliva-v-f15faa-us/oY7kaAAEOACLujntCuLIgNGJCWXrIQAEEfefSy/?a=7073&bti=OTU0QDItLmA%3D&ch=0&cr=0&dr=4&er=0&lr=unwatermarked&cd=0%7C0%7C0%7C0&br=312&bt=156&ds=5&ft=.cwOVInz7ThyDGvOXq8Zmo&qs=13&rc=MzZpeXU5cjxzdjUzNzhoM0BpMzZpeXU5cjxzdjUzNzhoM0Avc2JrMmQ0MGpgLS1kLjZzYSMvc2JrMmQ0MGpgLS1kLjZzcw%3D%3D&vvpl=1&l=02173103962103400000000000000000000ffff0a00afb97d90e8&btag=e00070000&format=mp3&mime_type=audio_mpeg",
        "source_timerange": {
            "start_offset": 0,
            "end_offset": 1.4719999999999338
        },
        "target_timerange": {
            "start_offset": 1075.92,
            "end_offset": 1077.392
        },
        "ignore_audio": false,
        "audio_path": null
    },
    {
        "segment_id": "da50d0b09d8811efbee9b8cef68aba34",
        "text": "but of Mr. Wickham, and of",
        "audio_url": "https://v16m-default.akamaized.net/0272b59e7d76705c4a6cc98acce68df1/672de612/video/tos/maliva/tos-maliva-v-f15faa-us/oY7kaAAEOACLujntCuLIgNGJCWXrIQAEEfefSy/?a=7073&bti=OTU0QDItLmA%3D&ch=0&cr=0&dr=4&er=0&lr=unwatermarked&cd=0%7C0%7C0%7C0&br=312&bt=156&ds=5&ft=.cwOVInz7ThyDGvOXq8Zmo&qs=13&rc=MzZpeXU5cjxzdjUzNzhoM0BpMzZpeXU5cjxzdjUzNzhoM0Avc2JrMmQ0MGpgLS1kLjZzYSMvc2JrMmQ0MGpgLS1kLjZzcw%3D%3D&vvpl=1&l=02173103962103400000000000000000000ffff0a00afb97d90e8&btag=e00070000&format=mp3&mime_type=audio_mpeg",
        "source_timerange": {
            "start_offset": 1.47199999999998,
            "end_offset": 2.943999999999914
        },
        "target_timerange": {
            "start_offset": 1077.392,
            "end_offset": 1078.864
        },
        "ignore_audio": true,
        "audio_path": null
    },
    {
        "segment_id": "da50d1fa9d8811efbee9b8cef68aba34",
        "text": "what he had told her, all",
        "audio_url": "https://v16m-default.akamaized.net/0272b59e7d76705c4a6cc98acce68df1/672de612/video/tos/maliva/tos-maliva-v-f15faa-us/oY7kaAAEOACLujntCuLIgNGJCWXrIQAEEfefSy/?a=7073&bti=OTU0QDItLmA%3D&ch=0&cr=0&dr=4&er=0&lr=unwatermarked&cd=0%7C0%7C0%7C0&br=312&bt=156&ds=5&ft=.cwOVInz7ThyDGvOXq8Zmo&qs=13&rc=MzZpeXU5cjxzdjUzNzhoM0BpMzZpeXU5cjxzdjUzNzhoM0Avc2JrMmQ0MGpgLS1kLjZzYSMvc2JrMmQ0MGpgLS1kLjZzcw%3D%3D&vvpl=1&l=02173103962103400000000000000000000ffff0a00afb97d90e8&btag=e00070000&format=mp3&mime_type=audio_mpeg",
        "source_timerange": {
            "start_offset": 2.94399999999996,
            "end_offset": 4.415999999999894
        },
        "target_timerange": {
            "start_offset": 1078.864,
            "end_offset": 1080.336
        },
        "ignore_audio": true,
        "audio_path": null
    },
    {
        "segment_id": "da50d3589d8811efbee9b8cef68aba34",
        "text": "the way home; but there",
        "audio_url": "https://v16m-default.akamaized.net/0272b59e7d76705c4a6cc98acce68df1/672de612/video/tos/maliva/tos-maliva-v-f15faa-us/oY7kaAAEOACLujntCuLIgNGJCWXrIQAEEfefSy/?a=7073&bti=OTU0QDItLmA%3D&ch=0&cr=0&dr=4&er=0&lr=unwatermarked&cd=0%7C0%7C0%7C0&br=312&bt=156&ds=5&ft=.cwOVInz7ThyDGvOXq8Zmo&qs=13&rc=MzZpeXU5cjxzdjUzNzhoM0BpMzZpeXU5cjxzdjUzNzhoM0Avc2JrMmQ0MGpgLS1kLjZzYSMvc2JrMmQ0MGpgLS1kLjZzcw%3D%3D&vvpl=1&l=02173103962103400000000000000000000ffff0a00afb97d90e8&btag=e00070000&format=mp3&mime_type=audio_mpeg",
        "source_timerange": {
            "start_offset": 4.41599999999994,
            "end_offset": 5.887999999999874
        },
        "target_timerange": {
            "start_offset": 1080.336,
            "end_offset": 1081.808
        },
        "ignore_audio": true,
        "audio_path": null
    },
    {
        "segment_id": "da50d4709d8811efbee9b8cef68aba34",
        "text": "was not time for her even",
        "audio_url": "https://v16m-default.akamaized.net/0272b59e7d76705c4a6cc98acce68df1/672de612/video/tos/maliva/tos-maliva-v-f15faa-us/oY7kaAAEOACLujntCuLIgNGJCWXrIQAEEfefSy/?a=7073&bti=OTU0QDItLmA%3D&ch=0&cr=0&dr=4&er=0&lr=unwatermarked&cd=0%7C0%7C0%7C0&br=312&bt=156&ds=5&ft=.cwOVInz7ThyDGvOXq8Zmo&qs=13&rc=MzZpeXU5cjxzdjUzNzhoM0BpMzZpeXU5cjxzdjUzNzhoM0Avc2JrMmQ0MGpgLS1kLjZzYSMvc2JrMmQ0MGpgLS1kLjZzcw%3D%3D&vvpl=1&l=02173103962103400000000000000000000ffff0a00afb97d90e8&btag=e00070000&format=mp3&mime_type=audio_mpeg",
        "source_timerange": {
            "start_offset": 5.88799999999992,
            "end_offset": 7.360000000000081
        },
        "target_timerange": {
            "start_offset": 1081.808,
            "end_offset": 1083.2800000000002
        },
        "ignore_audio": true,
        "audio_path": null
    },
    {
        "segment_id": "da50d5a69d8811efbee9b8cef68aba34",
        "text": "to mention his name as",
        "audio_url": "https://v16m-default.akamaized.net/0272b59e7d76705c4a6cc98acce68df1/672de612/video/tos/maliva/tos-maliva-v-f15faa-us/oY7kaAAEOACLujntCuLIgNGJCWXrIQAEEfefSy/?a=7073&bti=OTU0QDItLmA%3D&ch=0&cr=0&dr=4&er=0&lr=unwatermarked&cd=0%7C0%7C0%7C0&br=312&bt=156&ds=5&ft=.cwOVInz7ThyDGvOXq8Zmo&qs=13&rc=MzZpeXU5cjxzdjUzNzhoM0BpMzZpeXU5cjxzdjUzNzhoM0Avc2JrMmQ0MGpgLS1kLjZzYSMvc2JrMmQ0MGpgLS1kLjZzcw%3D%3D&vvpl=1&l=02173103962103400000000000000000000ffff0a00afb97d90e8&btag=e00070000&format=mp3&mime_type=audio_mpeg",
        "source_timerange": {
            "start_offset": 7.360000000000127,
            "end_offset": 8.832000000000061
        },
        "target_timerange": {
            "start_offset": 1083.2800000000002,
            "end_offset": 1084.7520000000002
        },
        "ignore_audio": true,
        "audio_path": null
    },
    {
        "segment_id": "da50d6e69d8811efbee9b8cef68aba34",
        "text": "they went, for neither",
        "audio_url": "https://v16m-default.akamaized.net/0272b59e7d76705c4a6cc98acce68df1/672de612/video/tos/maliva/tos-maliva-v-f15faa-us/oY7kaAAEOACLujntCuLIgNGJCWXrIQAEEfefSy/?a=7073&bti=OTU0QDItLmA%3D&ch=0&cr=0&dr=4&er=0&lr=unwatermarked&cd=0%7C0%7C0%7C0&br=312&bt=156&ds=5&ft=.cwOVInz7ThyDGvOXq8Zmo&qs=13&rc=MzZpeXU5cjxzdjUzNzhoM0BpMzZpeXU5cjxzdjUzNzhoM0Avc2JrMmQ0MGpgLS1kLjZzYSMvc2JrMmQ0MGpgLS1kLjZzcw%3D%3D&vvpl=1&l=02173103962103400000000000000000000ffff0a00afb97d90e8&btag=e00070000&format=mp3&mime_type=audio_mpeg",
        "source_timerange": {
            "start_offset": 8.832000000000107,
            "end_offset": 10.304000000000041
        },
        "target_timerange": {
            "start_offset": 1084.7520000000002,
            "end_offset": 1086.2240000000002
        },
        "ignore_audio": true,
        "audio_path": null
    },
    {
        "segment_id": "da50d81c9d8811efbee9b8cef68aba34",
        "text": "Lydia nor Mr. Collins were",
        "audio_url": "https://v16m-default.akamaized.net/0272b59e7d76705c4a6cc98acce68df1/672de612/video/tos/maliva/tos-maliva-v-f15faa-us/oY7kaAAEOACLujntCuLIgNGJCWXrIQAEEfefSy/?a=7073&bti=OTU0QDItLmA%3D&ch=0&cr=0&dr=4&er=0&lr=unwatermarked&cd=0%7C0%7C0%7C0&br=312&bt=156&ds=5&ft=.cwOVInz7ThyDGvOXq8Zmo&qs=13&rc=MzZpeXU5cjxzdjUzNzhoM0BpMzZpeXU5cjxzdjUzNzhoM0Avc2JrMmQ0MGpgLS1kLjZzYSMvc2JrMmQ0MGpgLS1kLjZzcw%3D%3D&vvpl=1&l=02173103962103400000000000000000000ffff0a00afb97d90e8&btag=e00070000&format=mp3&mime_type=audio_mpeg",
        "source_timerange": {
            "start_offset": 10.304000000000087,
            "end_offset": 11.776000000000021
        },
        "target_timerange": {
            "start_offset": 1086.2240000000002,
            "end_offset": 1087.6960000000001
        },
        "ignore_audio": true,
        "audio_path": null
    },
    {
        "segment_id": "da50d97a9d8811efbee9b8cef68aba34",
        "text": "once silent.",
        "audio_url": "https://v16m-default.akamaized.net/0272b59e7d76705c4a6cc98acce68df1/672de612/video/tos/maliva/tos-maliva-v-f15faa-us/oY7kaAAEOACLujntCuLIgNGJCWXrIQAEEfefSy/?a=7073&bti=OTU0QDItLmA%3D&ch=0&cr=0&dr=4&er=0&lr=unwatermarked&cd=0%7C0%7C0%7C0&br=312&bt=156&ds=5&ft=.cwOVInz7ThyDGvOXq8Zmo&qs=13&rc=MzZpeXU5cjxzdjUzNzhoM0BpMzZpeXU5cjxzdjUzNzhoM0Avc2JrMmQ0MGpgLS1kLjZzYSMvc2JrMmQ0MGpgLS1kLjZzcw%3D%3D&vvpl=1&l=02173103962103400000000000000000000ffff0a00afb97d90e8&btag=e00070000&format=mp3&mime_type=audio_mpeg",
        "source_timerange": {
            "start_offset": 11.776000000000067,
            "end_offset": 13.248000000000001
        },
        "target_timerange": {
            "start_offset": 1087.6960000000001,
            "end_offset": 1089.1680000000001
        },
        "ignore_audio": true,
        "audio_path": null
    },
    {
        "segment_id": "da5165f29d8811efbee9b8cef68aba34",
        "text": "Lydia talked incessantly of",
        "audio_url": "https://v16m-default.akamaized.net/7f7fb5afa185d751fd3db90154008a4d/672de61d/video/tos/maliva/tos-maliva-v-f15faa-us/o8A42VPM8RSQiEUyACEAitV3vAaHZp3kQBH5i/?a=7073&bti=OTU0QDItLmA%3D&ch=0&cr=0&dr=4&er=0&lr=unwatermarked&cd=0%7C0%7C0%7C0&br=312&bt=156&ds=5&ft=.cwOVInz7ThUDGvOXq8Zmo&qs=13&rc=ajV5bXM5cjxzdjUzNzhoM0BpajV5bXM5cjxzdjUzNzhoM0BeYzIwMmQ0MGpgLS1kLjZzYSNeYzIwMmQ0MGpgLS1kLjZzcw%3D%3D&vvpl=1&l=02173103962103400000000000000000000ffff0a00afb97d90e8&btag=e00078000&format=mp3&mime_type=audio_mpeg",
        "source_timerange": {
            "start_offset": 0,
            "end_offset": 1.524705882353075
        },
        "target_timerange": {
            "start_offset": 1089.1680000000001,
            "end_offset": 1090.692705882353
        },
        "ignore_audio": false,
        "audio_path": null
    },
    {
        "segment_id": "da5167789d8811efbee9b8cef68aba34",
        "text": "lottery tickets, of the",
        "audio_url": "https://v16m-default.akamaized.net/7f7fb5afa185d751fd3db90154008a4d/672de61d/video/tos/maliva/tos-maliva-v-f15faa-us/o8A42VPM8RSQiEUyACEAitV3vAaHZp3kQBH5i/?a=7073&bti=OTU0QDItLmA%3D&ch=0&cr=0&dr=4&er=0&lr=unwatermarked&cd=0%7C0%7C0%7C0&br=312&bt=156&ds=5&ft=.cwOVInz7ThUDGvOXq8Zmo&qs=13&rc=ajV5bXM5cjxzdjUzNzhoM0BpajV5bXM5cjxzdjUzNzhoM0BeYzIwMmQ0MGpgLS1kLjZzYSNeYzIwMmQ0MGpgLS1kLjZzcw%3D%3D&vvpl=1&l=02173103962103400000000000000000000ffff0a00afb97d90e8&btag=e00078000&format=mp3&mime_type=audio_mpeg",
        "source_timerange": {
            "start_offset": 1.5247058823529187,
            "end_offset": 3.0494117647059937
        },
        "target_timerange": {
            "start_offset": 1090.692705882353,
            "end_offset": 1092.217411764706
        },
        "ignore_audio": true,
        "audio_path": null
    },
    {
        "segment_id": "da51689a9d8811efbee9b8cef68aba34",
        "text": "fish she had lost and the",
        "audio_url": "https://v16m-default.akamaized.net/7f7fb5afa185d751fd3db90154008a4d/672de61d/video/tos/maliva/tos-maliva-v-f15faa-us/o8A42VPM8RSQiEUyACEAitV3vAaHZp3kQBH5i/?a=7073&bti=OTU0QDItLmA%3D&ch=0&cr=0&dr=4&er=0&lr=unwatermarked&cd=0%7C0%7C0%7C0&br=312&bt=156&ds=5&ft=.cwOVInz7ThUDGvOXq8Zmo&qs=13&rc=ajV5bXM5cjxzdjUzNzhoM0BpajV5bXM5cjxzdjUzNzhoM0BeYzIwMmQ0MGpgLS1kLjZzYSNeYzIwMmQ0MGpgLS1kLjZzcw%3D%3D&vvpl=1&l=02173103962103400000000000000000000ffff0a00afb97d90e8&btag=e00078000&format=mp3&mime_type=audio_mpeg",
        "source_timerange": {
            "start_offset": 3.0494117647058374,
            "end_offset": 4.574117647058912
        },
        "target_timerange": {
            "start_offset": 1092.217411764706,
            "end_offset": 1093.7421176470589
        },
        "ignore_audio": true,
        "audio_path": null
    },
    {
        "segment_id": "da5169a89d8811efbee9b8cef68aba34",
        "text": "fish she had won; and Mr.",
        "audio_url": "https://v16m-default.akamaized.net/7f7fb5afa185d751fd3db90154008a4d/672de61d/video/tos/maliva/tos-maliva-v-f15faa-us/o8A42VPM8RSQiEUyACEAitV3vAaHZp3kQBH5i/?a=7073&bti=OTU0QDItLmA%3D&ch=0&cr=0&dr=4&er=0&lr=unwatermarked&cd=0%7C0%7C0%7C0&br=312&bt=156&ds=5&ft=.cwOVInz7ThUDGvOXq8Zmo&qs=13&rc=ajV5bXM5cjxzdjUzNzhoM0BpajV5bXM5cjxzdjUzNzhoM0BeYzIwMmQ0MGpgLS1kLjZzYSNeYzIwMmQ0MGpgLS1kLjZzcw%3D%3D&vvpl=1&l=02173103962103400000000000000000000ffff0a00afb97d90e8&btag=e00078000&format=mp3&mime_type=audio_mpeg",
        "source_timerange": {
            "start_offset": 4.574117647058756,
            "end_offset": 6.098823529411831
        },
        "target_timerange": {
            "start_offset": 1093.7421176470589,
            "end_offset": 1095.2668235294118
        },
        "ignore_audio": true,
        "audio_path": null
    },
    {
        "segment_id": "da516aac9d8811efbee9b8cef68aba34",
        "text": "Collins, in describing the",
        "audio_url": "https://v16m-default.akamaized.net/7f7fb5afa185d751fd3db90154008a4d/672de61d/video/tos/maliva/tos-maliva-v-f15faa-us/o8A42VPM8RSQiEUyACEAitV3vAaHZp3kQBH5i/?a=7073&bti=OTU0QDItLmA%3D&ch=0&cr=0&dr=4&er=0&lr=unwatermarked&cd=0%7C0%7C0%7C0&br=312&bt=156&ds=5&ft=.cwOVInz7ThUDGvOXq8Zmo&qs=13&rc=ajV5bXM5cjxzdjUzNzhoM0BpajV5bXM5cjxzdjUzNzhoM0BeYzIwMmQ0MGpgLS1kLjZzYSNeYzIwMmQ0MGpgLS1kLjZzcw%3D%3D&vvpl=1&l=02173103962103400000000000000000000ffff0a00afb97d90e8&btag=e00078000&format=mp3&mime_type=audio_mpeg",
        "source_timerange": {
            "start_offset": 6.098823529411675,
            "end_offset": 7.62352941176475
        },
        "target_timerange": {
            "start_offset": 1095.2668235294118,
            "end_offset": 1096.7915294117647
        },
        "ignore_audio": true,
        "audio_path": null
    },
    {
        "segment_id": "da516bba9d8811efbee9b8cef68aba34",
        "text": "civility of Mr. and Mrs.",
        "audio_url": "https://v16m-default.akamaized.net/7f7fb5afa185d751fd3db90154008a4d/672de61d/video/tos/maliva/tos-maliva-v-f15faa-us/o8A42VPM8RSQiEUyACEAitV3vAaHZp3kQBH5i/?a=7073&bti=OTU0QDItLmA%3D&ch=0&cr=0&dr=4&er=0&lr=unwatermarked&cd=0%7C0%7C0%7C0&br=312&bt=156&ds=5&ft=.cwOVInz7ThUDGvOXq8Zmo&qs=13&rc=ajV5bXM5cjxzdjUzNzhoM0BpajV5bXM5cjxzdjUzNzhoM0BeYzIwMmQ0MGpgLS1kLjZzYSNeYzIwMmQ0MGpgLS1kLjZzcw%3D%3D&vvpl=1&l=02173103962103400000000000000000000ffff0a00afb97d90e8&btag=e00078000&format=mp3&mime_type=audio_mpeg",
        "source_timerange": {
            "start_offset": 7.6235294117645935,
            "end_offset": 9.148235294117669
        },
        "target_timerange": {
            "start_offset": 1096.7915294117647,
            "end_offset": 1098.3162352941176
        },
        "ignore_audio": true,
        "audio_path": null
    },
    {
        "segment_id": "da516cbe9d8811efbee9b8cef68aba34",
        "text": "Philips, protesting that he",
        "audio_url": "https://v16m-default.akamaized.net/7f7fb5afa185d751fd3db90154008a4d/672de61d/video/tos/maliva/tos-maliva-v-f15faa-us/o8A42VPM8RSQiEUyACEAitV3vAaHZp3kQBH5i/?a=7073&bti=OTU0QDItLmA%3D&ch=0&cr=0&dr=4&er=0&lr=unwatermarked&cd=0%7C0%7C0%7C0&br=312&bt=156&ds=5&ft=.cwOVInz7ThUDGvOXq8Zmo&qs=13&rc=ajV5bXM5cjxzdjUzNzhoM0BpajV5bXM5cjxzdjUzNzhoM0BeYzIwMmQ0MGpgLS1kLjZzYSNeYzIwMmQ0MGpgLS1kLjZzcw%3D%3D&vvpl=1&l=02173103962103400000000000000000000ffff0a00afb97d90e8&btag=e00078000&format=mp3&mime_type=audio_mpeg",
        "source_timerange": {
            "start_offset": 9.148235294117512,
            "end_offset": 10.672941176470587
        },
        "target_timerange": {
            "start_offset": 1098.3162352941176,
            "end_offset": 1099.8409411764706
        },
        "ignore_audio": true,
        "audio_path": null
    },
    {
        "segment_id": "da516dc29d8811efbee9b8cef68aba34",
        "text": "did not in the least regard",
        "audio_url": "https://v16m-default.akamaized.net/7f7fb5afa185d751fd3db90154008a4d/672de61d/video/tos/maliva/tos-maliva-v-f15faa-us/o8A42VPM8RSQiEUyACEAitV3vAaHZp3kQBH5i/?a=7073&bti=OTU0QDItLmA%3D&ch=0&cr=0&dr=4&er=0&lr=unwatermarked&cd=0%7C0%7C0%7C0&br=312&bt=156&ds=5&ft=.cwOVInz7ThUDGvOXq8Zmo&qs=13&rc=ajV5bXM5cjxzdjUzNzhoM0BpajV5bXM5cjxzdjUzNzhoM0BeYzIwMmQ0MGpgLS1kLjZzYSNeYzIwMmQ0MGpgLS1kLjZzcw%3D%3D&vvpl=1&l=02173103962103400000000000000000000ffff0a00afb97d90e8&btag=e00078000&format=mp3&mime_type=audio_mpeg",
        "source_timerange": {
            "start_offset": 10.672941176470431,
            "end_offset": 12.197647058823506
        },
        "target_timerange": {
            "start_offset": 1099.8409411764706,
            "end_offset": 1101.3656470588235
        },
        "ignore_audio": true,
        "audio_path": null
    },
    {
        "segment_id": "da516eda9d8811efbee9b8cef68aba34",
        "text": "his losses at whist,",
        "audio_url": "https://v16m-default.akamaized.net/7f7fb5afa185d751fd3db90154008a4d/672de61d/video/tos/maliva/tos-maliva-v-f15faa-us/o8A42VPM8RSQiEUyACEAitV3vAaHZp3kQBH5i/?a=7073&bti=OTU0QDItLmA%3D&ch=0&cr=0&dr=4&er=0&lr=unwatermarked&cd=0%7C0%7C0%7C0&br=312&bt=156&ds=5&ft=.cwOVInz7ThUDGvOXq8Zmo&qs=13&rc=ajV5bXM5cjxzdjUzNzhoM0BpajV5bXM5cjxzdjUzNzhoM0BeYzIwMmQ0MGpgLS1kLjZzYSNeYzIwMmQ0MGpgLS1kLjZzcw%3D%3D&vvpl=1&l=02173103962103400000000000000000000ffff0a00afb97d90e8&btag=e00078000&format=mp3&mime_type=audio_mpeg",
        "source_timerange": {
            "start_offset": 12.19764705882335,
            "end_offset": 13.722352941176652
        },
        "target_timerange": {
            "start_offset": 1101.3656470588235,
            "end_offset": 1102.8903529411766
        },
        "ignore_audio": true,
        "audio_path": null
    },
    {
        "segment_id": "da516fd49d8811efbee9b8cef68aba34",
        "text": "enumerating all the dishes",
        "audio_url": "https://v16m-default.akamaized.net/7f7fb5afa185d751fd3db90154008a4d/672de61d/video/tos/maliva/tos-maliva-v-f15faa-us/o8A42VPM8RSQiEUyACEAitV3vAaHZp3kQBH5i/?a=7073&bti=OTU0QDItLmA%3D&ch=0&cr=0&dr=4&er=0&lr=unwatermarked&cd=0%7C0%7C0%7C0&br=312&bt=156&ds=5&ft=.cwOVInz7ThUDGvOXq8Zmo&qs=13&rc=ajV5bXM5cjxzdjUzNzhoM0BpajV5bXM5cjxzdjUzNzhoM0BeYzIwMmQ0MGpgLS1kLjZzYSNeYzIwMmQ0MGpgLS1kLjZzcw%3D%3D&vvpl=1&l=02173103962103400000000000000000000ffff0a00afb97d90e8&btag=e00078000&format=mp3&mime_type=audio_mpeg",
        "source_timerange": {
            "start_offset": 13.722352941176496,
            "end_offset": 15.24705882352957
        },
        "target_timerange": {
            "start_offset": 1102.8903529411766,
            "end_offset": 1104.4150588235295
        },
        "ignore_audio": true,
        "audio_path": null
    },
    {
        "segment_id": "da5170c49d8811efbee9b8cef68aba34",
        "text": "at supper, and repeatedly",
        "audio_url": "https://v16m-default.akamaized.net/7f7fb5afa185d751fd3db90154008a4d/672de61d/video/tos/maliva/tos-maliva-v-f15faa-us/o8A42VPM8RSQiEUyACEAitV3vAaHZp3kQBH5i/?a=7073&bti=OTU0QDItLmA%3D&ch=0&cr=0&dr=4&er=0&lr=unwatermarked&cd=0%7C0%7C0%7C0&br=312&bt=156&ds=5&ft=.cwOVInz7ThUDGvOXq8Zmo&qs=13&rc=ajV5bXM5cjxzdjUzNzhoM0BpajV5bXM5cjxzdjUzNzhoM0BeYzIwMmQ0MGpgLS1kLjZzYSNeYzIwMmQ0MGpgLS1kLjZzcw%3D%3D&vvpl=1&l=02173103962103400000000000000000000ffff0a00afb97d90e8&btag=e00078000&format=mp3&mime_type=audio_mpeg",
        "source_timerange": {
            "start_offset": 15.247058823529414,
            "end_offset": 16.77176470588249
        },
        "target_timerange": {
            "start_offset": 1104.4150588235295,
            "end_offset": 1105.9397647058825
        },
        "ignore_audio": true,
        "audio_path": null
    },
    {
        "segment_id": "da5171dc9d8811efbee9b8cef68aba34",
        "text": "fearing that he crowded his",
        "audio_url": "https://v16m-default.akamaized.net/7f7fb5afa185d751fd3db90154008a4d/672de61d/video/tos/maliva/tos-maliva-v-f15faa-us/o8A42VPM8RSQiEUyACEAitV3vAaHZp3kQBH5i/?a=7073&bti=OTU0QDItLmA%3D&ch=0&cr=0&dr=4&er=0&lr=unwatermarked&cd=0%7C0%7C0%7C0&br=312&bt=156&ds=5&ft=.cwOVInz7ThUDGvOXq8Zmo&qs=13&rc=ajV5bXM5cjxzdjUzNzhoM0BpajV5bXM5cjxzdjUzNzhoM0BeYzIwMmQ0MGpgLS1kLjZzYSNeYzIwMmQ0MGpgLS1kLjZzcw%3D%3D&vvpl=1&l=02173103962103400000000000000000000ffff0a00afb97d90e8&btag=e00078000&format=mp3&mime_type=audio_mpeg",
        "source_timerange": {
            "start_offset": 16.771764705882333,
            "end_offset": 18.296470588235408
        },
        "target_timerange": {
            "start_offset": 1105.9397647058825,
            "end_offset": 1107.4644705882354
        },
        "ignore_audio": true,
        "audio_path": null
    },
    {
        "segment_id": "da5172b89d8811efbee9b8cef68aba34",
        "text": "cousins, had more to say",
        "audio_url": "https://v16m-default.akamaized.net/7f7fb5afa185d751fd3db90154008a4d/672de61d/video/tos/maliva/tos-maliva-v-f15faa-us/o8A42VPM8RSQiEUyACEAitV3vAaHZp3kQBH5i/?a=7073&bti=OTU0QDItLmA%3D&ch=0&cr=0&dr=4&er=0&lr=unwatermarked&cd=0%7C0%7C0%7C0&br=312&bt=156&ds=5&ft=.cwOVInz7ThUDGvOXq8Zmo&qs=13&rc=ajV5bXM5cjxzdjUzNzhoM0BpajV5bXM5cjxzdjUzNzhoM0BeYzIwMmQ0MGpgLS1kLjZzYSNeYzIwMmQ0MGpgLS1kLjZzcw%3D%3D&vvpl=1&l=02173103962103400000000000000000000ffff0a00afb97d90e8&btag=e00078000&format=mp3&mime_type=audio_mpeg",
        "source_timerange": {
            "start_offset": 18.296470588235252,
            "end_offset": 19.821176470588327
        },
        "target_timerange": {
            "start_offset": 1107.4644705882354,
            "end_offset": 1108.9891764705883
        },
        "ignore_audio": true,
        "audio_path": null
    },
    {
        "segment_id": "da5173809d8811efbee9b8cef68aba34",
        "text": "than he could well manage",
        "audio_url": "https://v16m-default.akamaized.net/7f7fb5afa185d751fd3db90154008a4d/672de61d/video/tos/maliva/tos-maliva-v-f15faa-us/o8A42VPM8RSQiEUyACEAitV3vAaHZp3kQBH5i/?a=7073&bti=OTU0QDItLmA%3D&ch=0&cr=0&dr=4&er=0&lr=unwatermarked&cd=0%7C0%7C0%7C0&br=312&bt=156&ds=5&ft=.cwOVInz7ThUDGvOXq8Zmo&qs=13&rc=ajV5bXM5cjxzdjUzNzhoM0BpajV5bXM5cjxzdjUzNzhoM0BeYzIwMmQ0MGpgLS1kLjZzYSNeYzIwMmQ0MGpgLS1kLjZzcw%3D%3D&vvpl=1&l=02173103962103400000000000000000000ffff0a00afb97d90e8&btag=e00078000&format=mp3&mime_type=audio_mpeg",
        "source_timerange": {
            "start_offset": 19.82117647058817,
            "end_offset": 21.345882352941246
        },
        "target_timerange": {
            "start_offset": 1108.9891764705883,
            "end_offset": 1110.5138823529412
        },
        "ignore_audio": true,
        "audio_path": null
    },
    {
        "segment_id": "da5174489d8811efbee9b8cef68aba34",
        "text": "before the carriage stopped",
        "audio_url": "https://v16m-default.akamaized.net/7f7fb5afa185d751fd3db90154008a4d/672de61d/video/tos/maliva/tos-maliva-v-f15faa-us/o8A42VPM8RSQiEUyACEAitV3vAaHZp3kQBH5i/?a=7073&bti=OTU0QDItLmA%3D&ch=0&cr=0&dr=4&er=0&lr=unwatermarked&cd=0%7C0%7C0%7C0&br=312&bt=156&ds=5&ft=.cwOVInz7ThUDGvOXq8Zmo&qs=13&rc=ajV5bXM5cjxzdjUzNzhoM0BpajV5bXM5cjxzdjUzNzhoM0BeYzIwMmQ0MGpgLS1kLjZzYSNeYzIwMmQ0MGpgLS1kLjZzcw%3D%3D&vvpl=1&l=02173103962103400000000000000000000ffff0a00afb97d90e8&btag=e00078000&format=mp3&mime_type=audio_mpeg",
        "source_timerange": {
            "start_offset": 21.34588235294109,
            "end_offset": 22.870588235294164
        },
        "target_timerange": {
            "start_offset": 1110.5138823529412,
            "end_offset": 1112.0385882352941
        },
        "ignore_audio": true,
        "audio_path": null
    },
    {
        "segment_id": "da5175249d8811efbee9b8cef68aba34",
        "text": "at Longbourn House.",
        "audio_url": "https://v16m-default.akamaized.net/7f7fb5afa185d751fd3db90154008a4d/672de61d/video/tos/maliva/tos-maliva-v-f15faa-us/o8A42VPM8RSQiEUyACEAitV3vAaHZp3kQBH5i/?a=7073&bti=OTU0QDItLmA%3D&ch=0&cr=0&dr=4&er=0&lr=unwatermarked&cd=0%7C0%7C0%7C0&br=312&bt=156&ds=5&ft=.cwOVInz7ThUDGvOXq8Zmo&qs=13&rc=ajV5bXM5cjxzdjUzNzhoM0BpajV5bXM5cjxzdjUzNzhoM0BeYzIwMmQ0MGpgLS1kLjZzYSNeYzIwMmQ0MGpgLS1kLjZzcw%3D%3D&vvpl=1&l=02173103962103400000000000000000000ffff0a00afb97d90e8&btag=e00078000&format=mp3&mime_type=audio_mpeg",
        "source_timerange": {
            "start_offset": 22.870588235294008,
            "end_offset": 24.395294117647083
        },
        "target_timerange": {
            "start_offset": 1112.0385882352941,
            "end_offset": 1113.563294117647
        },
        "ignore_audio": true,
        "audio_path": null
    },
    {
        "segment_id": "da5182269d8811efbee9b8cef68aba34",
        "text": "[Illustration:       “delighted to",
        "audio_url": "https://v16m-default.akamaized.net/c6bd4a34f6d7a20312a1457c54daa7c3/672de607/video/tos/maliva/tos-maliva-v-f15faa-us/o4BIhAHoEFL8lLAQIVpDJkJnZuIAGrnbfBQfB0/?a=7073&bti=OTU0QDItLmA%3D&ch=0&cr=0&dr=4&er=0&lr=unwatermarked&cd=0%7C0%7C0%7C0&br=312&bt=156&ds=5&ft=.cwOVInz7ThUDGvOXq8Zmo&qs=13&rc=M3FtNW85cjxzdjUzNzhoM0BpM3FtNW85cjxzdjUzNzhoM0BeNC1zMmQ0MGpgLS1kLjZzYSNeNC1zMmQ0MGpgLS1kLjZzcw%3D%3D&vvpl=1&l=02173103962103400000000000000000000ffff0a00afb97d90e8&btag=e00070000&format=mp3&mime_type=audio_mpeg",
        "source_timerange": {
            "start_offset": 0,
            "end_offset": 1.6919999999999926
        },
        "target_timerange": {
            "start_offset": 1115.088,
            "end_offset": 1116.78
        },
        "ignore_audio": false,
        "audio_path": null
    },
    {
        "segment_id": "da5183709d8811efbee9b8cef68aba34",
        "text": "see their dear friend again” ]",
        "audio_url": "https://v16m-default.akamaized.net/c6bd4a34f6d7a20312a1457c54daa7c3/672de607/video/tos/maliva/tos-maliva-v-f15faa-us/o4BIhAHoEFL8lLAQIVpDJkJnZuIAGrnbfBQfB0/?a=7073&bti=OTU0QDItLmA%3D&ch=0&cr=0&dr=4&er=0&lr=unwatermarked&cd=0%7C0%7C0%7C0&br=312&bt=156&ds=5&ft=.cwOVInz7ThUDGvOXq8Zmo&qs=13&rc=M3FtNW85cjxzdjUzNzhoM0BpM3FtNW85cjxzdjUzNzhoM0BeNC1zMmQ0MGpgLS1kLjZzYSNeNC1zMmQ0MGpgLS1kLjZzcw%3D%3D&vvpl=1&l=02173103962103400000000000000000000ffff0a00afb97d90e8&btag=e00070000&format=mp3&mime_type=audio_mpeg",
        "source_timerange": {
            "start_offset": 1.6920000000000073,
            "end_offset": 3.384
        },
        "target_timerange": {
            "start_offset": 1116.78,
            "end_offset": 1118.472
        },
        "ignore_audio": true,
        "audio_path": null
    }
]