[
    {
        "segment_id": "f2894dc0984111ef880e3436ac12000c",
        "text": "怎么？史老总将我的人都支走",
        "audio_url": "https://v3-vvecloud.yangyi08.com/b4777758c1bd1e8657ad898b84ea93d3/6724c546/video/tos/cn/tos-cn-v-2cd6b0/owAAuzBViAmaktkGAIuRBADR2xQEEhAfQzlsOi/?a=7073&ch=0&cr=0&dr=0&&br=0&bt=0&ft=xztlUQhhe6BMyqa1UupJD12Nzj&mime_type=audio_mpeg&rc=QGlAYSNz&btag=80000000008000&dy_q=1730459446&l=202411011910316C45C0AF9BF5856858DA&format=mp3",
        "source_timerange": {
            "start_offset": 0,
            "end_offset": 3.31
        },
        "target_timerange": {
            "start_offset": 0,
            "end_offset": 3.31
        },
        "ignore_audio": false,
        "audio_path": null
    },
    {
        "segment_id": "f2895108984111ef880e3436ac12000c",
        "text": "这是准备对我做什么不可告人的事吗？",
        "audio_url": "https://v6-vvecloud.yangyi08.com/2e7ea1e63b700227d1fd6b6908fd34c9/6724c546/video/tos/cn/tos-cn-v-2cd6b0/o8lzAkEAiazi2AtBZQAEkJFAIu30BAA2RfVE1h/?a=7073&ch=0&cr=0&dr=0&&br=0&bt=0&ft=xztlUQhhe6BMyqa1UupJD12Nzj&mime_type=audio_mpeg&rc=QGlAYSNz&btag=80000000008000&dy_q=1730459446&l=202411011910316C45C0AF9BF5856858DA&format=mp3",
        "source_timerange": {
            "start_offset": 0,
            "end_offset": 2.7550000000000003
        },
        "target_timerange": {
            "start_offset": 3.31,
            "end_offset": 6.065
        },
        "ignore_audio": false,
        "audio_path": null
    },
    {
        "segment_id": "f2895306984111ef880e3436ac12000c",
        "text": "秦霜的话语中透着挑衅 我心中暗自一笑",
        "audio_url": "https://v6-vvecloud.yangyi08.com/2e7ea1e63b700227d1fd6b6908fd34c9/6724c546/video/tos/cn/tos-cn-v-2cd6b0/o8lzAkEAiazi2AtBZQAEkJFAIu30BAA2RfVE1h/?a=7073&ch=0&cr=0&dr=0&&br=0&bt=0&ft=xztlUQhhe6BMyqa1UupJD12Nzj&mime_type=audio_mpeg&rc=QGlAYSNz&btag=80000000008000&dy_q=1730459446&l=202411011910316C45C0AF9BF5856858DA&format=mp3",
        "source_timerange": {
            "start_offset": 2.7550000000000003,
            "end_offset": 6.3
        },
        "target_timerange": {
            "start_offset": 6.065,
            "end_offset": 9.61
        },
        "ignore_audio": true,
        "audio_path": null
    },
    {
        "segment_id": "f28954d2984111ef880e3436ac12000c",
        "text": "这小姑娘就是喜欢跟我斗嘴",
        "audio_url": "https://v26-vvecloud.yangyi08.com/2cc81ba71ccc2b81e384e6254efa44b4/6724c547/video/tos/cn/tos-cn-v-2cd6b0/ociuzAwzkBKoA6aAizGlAItAhWkfEmDARV1QEB/?a=7073&ch=0&cr=0&dr=0&&br=0&bt=0&ft=xztlUQhhe6BMyqO1UupJD12Nzj&mime_type=audio_mpeg&rc=QGlAYSNz&btag=80000000008000&dy_q=1730459447&l=202411011910316C45C0AF9BF5856858DA&format=mp3",
        "source_timerange": {
            "start_offset": 0,
            "end_offset": 2.66
        },
        "target_timerange": {
            "start_offset": 9.61,
            "end_offset": 12.27
        },
        "ignore_audio": false,
        "audio_path": null
    },
    {
        "segment_id": "f28956bc984111ef880e3436ac12000c",
        "text": "我缓缓坐到秦霜的身边",
        "audio_url": "https://v9-vvecloud.yangyi08.com/3f87ed6fd775118a0b95d44edfa6b9e0/6724c546/video/tos/cn/tos-cn-v-2cd6b0/ooAi5tGzER2RhskAckWBfANIuaBiAAlQAJXzEU/?a=7073&ch=0&cr=0&dr=0&&br=0&bt=0&ft=xztlUQhhe6BMyqa1UupJD12Nzj&mime_type=audio_mpeg&rc=QGlAYSNz&btag=80000000008000&dy_q=1730459446&l=202411011910316C45C0AF9BF5856858DA&format=mp3",
        "source_timerange": {
            "start_offset": 0,
            "end_offset": 2.450000000000001
        },
        "target_timerange": {
            "start_offset": 12.27,
            "end_offset": 14.72
        },
        "ignore_audio": false,
        "audio_path": null
    },
    {
        "segment_id": "f2895888984111ef880e3436ac12000c",
        "text": "故作轻松地问：“我的霜姐姐吃醋啦！”去去！",
        "audio_url": "https://v9-vvecloud.yangyi08.com/3ecd4ba6645b83fbd23bae26e9af2b2c/6724c547/video/tos/cn/tos-cn-v-2cd6b0/oIt5ci1RiEAEQgkklkfuaAaBIAnUzBhFAA8zAh/?a=7073&ch=0&cr=0&dr=0&&br=0&bt=0&ft=xztlUQhhe6BMyqO1UupJD12Nzj&mime_type=audio_mpeg&rc=QGlAYSNz&btag=80000000008000&dy_q=1730459447&l=202411011910316C45C0AF9BF5856858DA&format=mp3",
        "source_timerange": {
            "start_offset": 0,
            "end_offset": 4.359999999999998
        },
        "target_timerange": {
            "start_offset": 14.72,
            "end_offset": 19.08
        },
        "ignore_audio": false,
        "audio_path": null
    },
    {
        "segment_id": "f2895a68984111ef880e3436ac12000c",
        "text": "谁是你的 谁吃你的醋！再乱说 小心我揍你！",
        "audio_url": "https://v26-vvecloud.yangyi08.com/f52fb803a0f9f612b3273f8f5985cbb1/6724c547/video/tos/cn/tos-cn-v-2cd6b0/o4pEzdkrADtJMCtkNtFAgcEERCeYAk2fiABnAL/?a=7073&ch=0&cr=0&dr=0&&br=0&bt=0&ft=xztlUQhhe6BMyqO1UupJD12Nzj&mime_type=audio_mpeg&rc=QGlAYSNz&btag=80000000008000&dy_q=1730459447&l=202411011910316C45C0AF9BF5856858DA&format=mp3",
        "source_timerange": {
            "start_offset": 0,
            "end_offset": 5.135000000000002
        },
        "target_timerange": {
            "start_offset": 19.08,
            "end_offset": 24.215
        },
        "ignore_audio": false,
        "audio_path": null
    },
    {
        "segment_id": "f2895c20984111ef880e3436ac12000c",
        "text": "虽然她狡辩 但我能感受到她的脸颊微微泛红",
        "audio_url": "https://v26-vvecloud.yangyi08.com/f52fb803a0f9f612b3273f8f5985cbb1/6724c547/video/tos/cn/tos-cn-v-2cd6b0/o4pEzdkrADtJMCtkNtFAgcEERCeYAk2fiABnAL/?a=7073&ch=0&cr=0&dr=0&&br=0&bt=0&ft=xztlUQhhe6BMyqO1UupJD12Nzj&mime_type=audio_mpeg&rc=QGlAYSNz&btag=80000000008000&dy_q=1730459447&l=202411011910316C45C0AF9BF5856858DA&format=mp3",
        "source_timerange": {
            "start_offset": 5.135000000000002,
            "end_offset": 8.709999999999997
        },
        "target_timerange": {
            "start_offset": 24.215,
            "end_offset": 27.79
        },
        "ignore_audio": true,
        "audio_path": null
    },
    {
        "segment_id": "f2895dec984111ef880e3436ac12000c",
        "text": "显然是受了我的挑逗",
        "audio_url": "https://v9-vvecloud.yangyi08.com/fa3c58c63dd7cb3062eb33b57c52c64a/6724c547/video/tos/cn/tos-cn-v-2cd6b0/ocmEIkFqAcC1eBSJAADCIcJgRzngbBBiALELfi/?a=7073&ch=0&cr=0&dr=0&&br=0&bt=0&ft=xztlUQhhe6BMyqO1UupJD12Nzj&mime_type=audio_mpeg&rc=QGlAYSNz&btag=80000000008000&dy_q=1730459447&l=202411011910316C45C0AF9BF5856858DA&format=mp3",
        "source_timerange": {
            "start_offset": 0,
            "end_offset": 2.34
        },
        "target_timerange": {
            "start_offset": 27.79,
            "end_offset": 30.13
        },
        "ignore_audio": false,
        "audio_path": null
    },
    {
        "segment_id": "f2895fc2984111ef880e3436ac12000c",
        "text": "我挪了挪位置 凑近她 挑衅道：",
        "audio_url": "https://v26-vvecloud.yangyi08.com/5288f11fd1f1183a5504e880bb6df952/6724c546/video/tos/cn/tos-cn-v-2cd6b0/oUAwv1ffRnEiACAmB0DklcFLAzSJgCtEyUtAEi/?a=7073&ch=0&cr=0&dr=0&&br=0&bt=0&ft=xztlUQhhe6BMyqa1UupJD12Nzj&mime_type=audio_mpeg&rc=QGlAYSNz&btag=80000000008000&dy_q=1730459446&l=202411011910316C45C0AF9BF5856858DA&format=mp3",
        "source_timerange": {
            "start_offset": 0,
            "end_offset": 3.640000000000004
        },
        "target_timerange": {
            "start_offset": 30.13,
            "end_offset": 33.77
        },
        "ignore_audio": false,
        "audio_path": null
    },
    {
        "segment_id": "f2896184984111ef880e3436ac12000c",
        "text": "那你刚才酸溜溜的挤兑我是为啥？",
        "audio_url": "https://v26-vvecloud.yangyi08.com/787b03c6266b17a58a0a59cfa6fbce2e/6724c546/video/tos/cn/tos-cn-v-2cd6b0/oQRAlA1ZCqAEeAznlLCFEckJEBOfiAWkigDtic/?a=7073&ch=0&cr=0&dr=0&&br=0&bt=0&ft=xztlUQhhe6BMyqa1UupJD12Nzj&mime_type=audio_mpeg&rc=QGlAYSNz&btag=80000000008000&dy_q=1730459446&l=202411011910316C45C0AF9BF5856858DA&format=mp3",
        "source_timerange": {
            "start_offset": 0,
            "end_offset": 3.019999999999996
        },
        "target_timerange": {
            "start_offset": 33.77,
            "end_offset": 36.79
        },
        "ignore_audio": false,
        "audio_path": null
    },
    {
        "segment_id": "f2896346984111ef880e3436ac12000c",
        "text": "不就是今天有一个学姐激动了一下",
        "audio_url": "https://v9-vvecloud.yangyi08.com/b5dd2df86e158e76d7d522589d09e70a/6724c546/video/tos/cn/tos-cn-v-2cd6b0/oYXtzAACzAAIEIvkA0iiQuBaRkBI0VAEE3fFhl/?a=7073&ch=0&cr=0&dr=0&&br=0&bt=0&ft=xztlUQhhe6BMyqa1UupJD12Nzj&mime_type=audio_mpeg&rc=QGlAYSNz&btag=80000000008000&dy_q=1730459446&l=202411011910316C45C0AF9BF5856858DA&format=mp3",
        "source_timerange": {
            "start_offset": 0,
            "end_offset": 3.0600000000000023
        },
        "target_timerange": {
            "start_offset": 36.79,
            "end_offset": 39.85
        },
        "ignore_audio": false,
        "audio_path": null
    },
    {
        "segment_id": "f28964fe984111ef880e3436ac12000c",
        "text": "贸然亲了我一下嘛！看把你给酸的！",
        "audio_url": "https://v26-vvecloud.yangyi08.com/efa2454c4af02977d5052e69da26e823/6724c546/video/tos/cn/tos-cn-v-2cd6b0/ogJAiABiREA7AIAQpWRkBuEl8wtaBfnAhzszpk/?a=7073&ch=0&cr=0&dr=0&&br=0&bt=0&ft=xztlUQhhe6BMyqa1UupJD12Nzj&mime_type=audio_mpeg&rc=QGlAYSNz&btag=80000000008000&dy_q=1730459446&l=202411011910316C45C0AF9BF5856858DA&format=mp3",
        "source_timerange": {
            "start_offset": 0,
            "end_offset": 3.3799999999999955
        },
        "target_timerange": {
            "start_offset": 39.85,
            "end_offset": 43.23
        },
        "ignore_audio": false,
        "audio_path": null
    },
    {
        "segment_id": "f28966c0984111ef880e3436ac12000c",
        "text": "秦霜气鼓鼓地拿起书本 轻轻拍打我的手臂",
        "audio_url": "https://v3-vvecloud.yangyi08.com/4f667bbb0c758af71579b9a58e44a541/6724c546/video/tos/cn/tos-cn-v-2cd6b0/oYIDnJA88l1LiBQG3qcAflACEBCmJqAISgfFRb/?a=7073&ch=0&cr=0&dr=0&&br=0&bt=0&ft=xztlUQhhe6BMyqa1UupJD12Nzj&mime_type=audio_mpeg&rc=QGlAYSNz&btag=80000000008000&dy_q=1730459446&l=202411011910316C45C0AF9BF5856858DA&format=mp3",
        "source_timerange": {
            "start_offset": 0,
            "end_offset": 4.030000000000001
        },
        "target_timerange": {
            "start_offset": 43.23,
            "end_offset": 47.26
        },
        "ignore_audio": false,
        "audio_path": null
    },
    {
        "segment_id": "f28968f0984111ef880e3436ac12000c",
        "text": "娇声骂道：去 谁酸你了！",
        "audio_url": "https://v26-vvecloud.yangyi08.com/80bcdf5c97b32ae14378de8e67f206d8/6724c547/video/tos/cn/tos-cn-v-2cd6b0/oIrkaLQkfBEVCuAHABIz2zAbtiAhiRA9klAE78/?a=7073&ch=0&cr=0&dr=0&&br=0&bt=0&ft=xztlUQhhe6BMyqO1UupJD12Nzj&mime_type=audio_mpeg&rc=QGlAYSNz&btag=80000000008000&dy_q=1730459447&l=202411011910316C45C0AF9BF5856858DA&format=mp3",
        "source_timerange": {
            "start_offset": 0,
            "end_offset": 3.3100000000000023
        },
        "target_timerange": {
            "start_offset": 47.26,
            "end_offset": 50.57
        },
        "ignore_audio": false,
        "audio_path": null
    },
    {
        "segment_id": "f2896ab2984111ef880e3436ac12000c",
        "text": "你爱跟谁好跟谁好 你又不是我的啥！",
        "audio_url": "https://v9-vvecloud.yangyi08.com/4a6a950a0bcbe63e2a229979673077cb/6724c546/video/tos/cn/tos-cn-v-2cd6b0/oYVzkCkxLCAUeEEnAJFfABgFctdAcPEWRAD3i1/?a=7073&ch=0&cr=0&dr=0&&br=0&bt=0&ft=xztlUQhhe6BMyqa1UupJD12Nzj&mime_type=audio_mpeg&rc=QGlAYSNz&btag=80000000008000&dy_q=1730459446&l=202411011910316C45C0AF9BF5856858DA&format=mp3",
        "source_timerange": {
            "start_offset": 0,
            "end_offset": 3.460000000000001
        },
        "target_timerange": {
            "start_offset": 50.57,
            "end_offset": 54.03
        },
        "ignore_audio": false,
        "audio_path": null
    },
    {
        "segment_id": "f2896c6a984111ef880e3436ac12000c",
        "text": "只要不回去做你的舔狗 谁爱亲你谁亲你",
        "audio_url": "https://v3-vvecloud.yangyi08.com/d7acf79957af574a6a5c58f09b41a6a1/6724c547/video/tos/cn/tos-cn-v-2cd6b0/oAfnXic2ACApARIBgEFlJtCD1f9GtzLEAiBAkE/?a=7073&ch=0&cr=0&dr=0&&br=0&bt=0&ft=xztlUQhhe6BMyqO1UupJD12Nzj&mime_type=audio_mpeg&rc=QGlAYSNz&btag=80000000008000&dy_q=1730459447&l=202411011910316C45C0AF9BF5856858DA&format=mp3",
        "source_timerange": {
            "start_offset": 0,
            "end_offset": 3.7049999999999983
        },
        "target_timerange": {
            "start_offset": 54.03,
            "end_offset": 57.735
        },
        "ignore_audio": false,
        "audio_path": null
    },
    {
        "segment_id": "f2896e22984111ef880e3436ac12000c",
        "text": "我猛地抓住了她拿书的手 感受到那温热的触感",
        "audio_url": "https://v3-vvecloud.yangyi08.com/d7acf79957af574a6a5c58f09b41a6a1/6724c547/video/tos/cn/tos-cn-v-2cd6b0/oAfnXic2ACApARIBgEFlJtCD1f9GtzLEAiBAkE/?a=7073&ch=0&cr=0&dr=0&&br=0&bt=0&ft=xztlUQhhe6BMyqO1UupJD12Nzj&mime_type=audio_mpeg&rc=QGlAYSNz&btag=80000000008000&dy_q=1730459447&l=202411011910316C45C0AF9BF5856858DA&format=mp3",
        "source_timerange": {
            "start_offset": 3.7049999999999983,
            "end_offset": 7.1299999999999955
        },
        "target_timerange": {
            "start_offset": 57.735,
            "end_offset": 61.16
        },
        "ignore_audio": true,
        "audio_path": null
    },
    {
        "segment_id": "f2896fee984111ef880e3436ac12000c",
        "text": "心中一阵悸动 我要做舔狗 也只做你的舔狗",
        "audio_url": "https://v3-vvecloud.yangyi08.com/9c47436e48301f6e9b5f4044a2dceff8/6724c546/video/tos/cn/tos-cn-v-2cd6b0/owc5EEecrGFztcAUAWLWBjOAAEfAJCkSEgeckI/?a=7073&ch=0&cr=0&dr=0&&br=0&bt=0&ft=xztlUQhhe6BMyqa1UupJD12Nzj&mime_type=audio_mpeg&rc=QGlAYSNz&btag=80000000008000&dy_q=1730459446&l=202411011910316C45C0AF9BF5856858DA&format=mp3",
        "source_timerange": {
            "start_offset": 0,
            "end_offset": 4.75
        },
        "target_timerange": {
            "start_offset": 61.16,
            "end_offset": 65.91
        },
        "ignore_audio": false,
        "audio_path": null
    },
    {
        "segment_id": "f28971a6984111ef880e3436ac12000c",
        "text": "之前我做了许多错事 不管将来如何 从今往后",
        "audio_url": "https://v26-vvecloud.yangyi08.com/bfd1b81cb2fdc7461bd27056dea17663/6724c547/video/tos/cn/tos-cn-v-2cd6b0/oMn5X3GrELF5ErCSkAIEAtEABfW5ejfkO9zAAi/?a=7073&ch=0&cr=0&dr=0&&br=0&bt=0&ft=xztlUQhhe6BMyqO1UupJD12Nzj&mime_type=audio_mpeg&rc=QGlAYSNz&btag=80000000008000&dy_q=1730459447&l=202411011910316C45C0AF9BF5856858DA&format=mp3",
        "source_timerange": {
            "start_offset": 0,
            "end_offset": 4.75
        },
        "target_timerange": {
            "start_offset": 65.91,
            "end_offset": 70.66
        },
        "ignore_audio": false,
        "audio_path": null
    },
    {
        "segment_id": "f289735e984111ef880e3436ac12000c",
        "text": "我只对你好 我会努力 让你幸福！",
        "audio_url": "https://v6-vvecloud.yangyi08.com/a23dc3fdb8794c689f744458767ab4f4/6724c547/video/tos/cn/tos-cn-v-2cd6b0/okAEhEtvQBudAzyvIif0lzBAVAkFUiRVzAyaAk/?a=7073&ch=0&cr=0&dr=0&&br=0&bt=0&ft=xztlUQhhe6BMyqO1UupJD12Nzj&mime_type=audio_mpeg&rc=QGlAYSNz&btag=80000000008000&dy_q=1730459447&l=202411011910316C45C0AF9BF5856858DA&format=mp3",
        "source_timerange": {
            "start_offset": 0,
            "end_offset": 3.4549999999999983
        },
        "target_timerange": {
            "start_offset": 70.66,
            "end_offset": 74.115
        },
        "ignore_audio": false,
        "audio_path": null
    },
    {
        "segment_id": "f2897502984111ef880e3436ac12000c",
        "text": "我的声音充满了诚意",
        "audio_url": "https://v6-vvecloud.yangyi08.com/a23dc3fdb8794c689f744458767ab4f4/6724c547/video/tos/cn/tos-cn-v-2cd6b0/okAEhEtvQBudAzyvIif0lzBAVAkFUiRVzAyaAk/?a=7073&ch=0&cr=0&dr=0&&br=0&bt=0&ft=xztlUQhhe6BMyqO1UupJD12Nzj&mime_type=audio_mpeg&rc=QGlAYSNz&btag=80000000008000&dy_q=1730459447&l=202411011910316C45C0AF9BF5856858DA&format=mp3",
        "source_timerange": {
            "start_offset": 3.4549999999999983,
            "end_offset": 5.219999999999999
        },
        "target_timerange": {
            "start_offset": 74.115,
            "end_offset": 75.88
        },
        "ignore_audio": true,
        "audio_path": null
    },
    {
        "segment_id": "f28976f6984111ef880e3436ac12000c",
        "text": "她微微一愣 似乎被我的话打动了",
        "audio_url": "https://v26-vvecloud.yangyi08.com/065d2008e68531b0810ee3327ac93d8a/6724c546/video/tos/cn/tos-cn-v-2cd6b0/oQfzjXIARqBkNkuiVtiuaEAzAnAgEQA0l9AhRB/?a=7073&ch=0&cr=0&dr=0&&br=0&bt=0&ft=xztlUQhhe6BMyqa1UupJD12Nzj&mime_type=audio_mpeg&rc=QGlAYSNz&btag=80000000008000&dy_q=1730459446&l=202411011910316C45C0AF9BF5856858DA&format=mp3",
        "source_timerange": {
            "start_offset": 0,
            "end_offset": 3.280000000000001
        },
        "target_timerange": {
            "start_offset": 75.88,
            "end_offset": 79.16
        },
        "ignore_audio": false,
        "audio_path": null
    },
    {
        "segment_id": "f28978ae984111ef880e3436ac12000c",
        "text": "但仍然嘴硬：咦！你怎么突然变得这么臭不要脸了",
        "audio_url": "https://v6-vvecloud.yangyi08.com/1769cfed073b5fe4a841b7d7fe741e93/6724c547/video/tos/cn/tos-cn-v-2cd6b0/okAIgEpARc3InCbfJAqJBLmedNdDiBF1CQqAEJ/?a=7073&ch=0&cr=0&dr=0&&br=0&bt=0&ft=xztlUQhhe6BMyqO1UupJD12Nzj&mime_type=audio_mpeg&rc=QGlAYSNz&btag=80000000008000&dy_q=1730459447&l=202411011910316C45C0AF9BF5856858DA&format=mp3",
        "source_timerange": {
            "start_offset": 0,
            "end_offset": 4.680000000000007
        },
        "target_timerange": {
            "start_offset": 79.16,
            "end_offset": 83.84
        },
        "ignore_audio": false,
        "audio_path": null
    },
    {
        "segment_id": "f2897a5c984111ef880e3436ac12000c",
        "text": "我再次警告你 我可不是你们学校的那些小姑娘",
        "audio_url": "https://v26-vvecloud.yangyi08.com/51200afb798efd7ad542b6b723af8d1c/6724c547/video/tos/cn/tos-cn-v-2cd6b0/o8tJiAkERCff6cAitgALVEAJECOnqwDYq1zAFB/?a=7073&ch=0&cr=0&dr=0&&br=0&bt=0&ft=xztlUQhhe6BMyqO1UupJD12Nzj&mime_type=audio_mpeg&rc=QGlAYSNz&btag=80000000008000&dy_q=1730459447&l=202411011910316C45C0AF9BF5856858DA&format=mp3",
        "source_timerange": {
            "start_offset": 0,
            "end_offset": 4
        },
        "target_timerange": {
            "start_offset": 83.84,
            "end_offset": 87.84
        },
        "ignore_audio": false,
        "audio_path": null
    },
    {
        "segment_id": "f2897c1e984111ef880e3436ac12000c",
        "text": "容易被你的花言巧语给骗了！",
        "audio_url": "https://v26-vvecloud.yangyi08.com/7afd66c73e524a309ea8cce1541695d5/6724c546/video/tos/cn/tos-cn-v-2cd6b0/o8zloBkkEBha5mARyAtiyIuAVEAIQAi1zkAsnf/?a=7073&ch=0&cr=0&dr=0&&br=0&bt=0&ft=xztlUQhhe6BMyqa1UupJD12Nzj&mime_type=audio_mpeg&rc=QGlAYSNz&btag=80000000008000&dy_q=1730459446&l=202411011910316C45C0AF9BF5856858DA&format=mp3",
        "source_timerange": {
            "start_offset": 0,
            "end_offset": 2.769999999999996
        },
        "target_timerange": {
            "start_offset": 87.84,
            "end_offset": 90.61
        },
        "ignore_audio": false,
        "audio_path": null
    },
    {
        "segment_id": "f2897dd6984111ef880e3436ac12000c",
        "text": "我轻轻握紧她的手 眼神温柔：真的！",
        "audio_url": "https://v6-vvecloud.yangyi08.com/2bb4a73fef086769ab7be6941009bab2/6724c547/video/tos/cn/tos-cn-v-2cd6b0/okukBf7aRighEztHoAzQiA1kEzIlBAZMAAVAnI/?a=7073&ch=0&cr=0&dr=0&&br=0&bt=0&ft=xztlUQhhe6BMyqO1UupJD12Nzj&mime_type=audio_mpeg&rc=QGlAYSNz&btag=80000000008000&dy_q=1730459447&l=202411011910316C45C0AF9BF5856858DA&format=mp3",
        "source_timerange": {
            "start_offset": 0,
            "end_offset": 3.8900000000000006
        },
        "target_timerange": {
            "start_offset": 90.61,
            "end_offset": 94.5
        },
        "ignore_audio": false,
        "audio_path": null
    },
    {
        "segment_id": "f2897f98984111ef880e3436ac12000c",
        "text": "霜姐 我真的醒悟了！我只要你！",
        "audio_url": "https://v9-vvecloud.yangyi08.com/eb104fcc8e1adbf1bbb1a7e98e22ccc8/6724c547/video/tos/cn/tos-cn-v-2cd6b0/o4pAEACFIIA4BRAgloiJjcILLWb1DffBCm8nPJ/?a=7073&ch=0&cr=0&dr=0&&br=0&bt=0&ft=xztlUQhhe6BMyqO1UupJD12Nzj&mime_type=audio_mpeg&rc=QGlAYSNz&btag=80000000008000&dy_q=1730459447&l=202411011910316C45C0AF9BF5856858DA&format=mp3",
        "source_timerange": {
            "start_offset": 0,
            "end_offset": 3.7099999999999937
        },
        "target_timerange": {
            "start_offset": 94.5,
            "end_offset": 98.21
        },
        "ignore_audio": false,
        "audio_path": null
    },
    {
        "segment_id": "f2898150984111ef880e3436ac12000c",
        "text": "我知道我最近的变化有点大 你一时还难以接受！",
        "audio_url": "https://v6-vvecloud.yangyi08.com/d7699b88ef1acac6818990b7f5af181d/6724c546/video/tos/cn/tos-cn-v-2cd6b0/owAfLFcgCm6RqD4xIabA1pAHBeEiJnsCgABJIk/?a=7073&ch=0&cr=0&dr=0&&br=0&bt=0&ft=xztlUQhhe6BMyqa1UupJD12Nzj&mime_type=audio_mpeg&rc=QGlAYSNz&btag=80000000008000&dy_q=1730459446&l=202411011910316C45C0AF9BF5856858DA&format=mp3",
        "source_timerange": {
            "start_offset": 0,
            "end_offset": 4.390000000000001
        },
        "target_timerange": {
            "start_offset": 98.21,
            "end_offset": 102.6
        },
        "ignore_audio": false,
        "audio_path": null
    },
    {
        "segment_id": "f28982f4984111ef880e3436ac12000c",
        "text": "但我会用实际行动证明",
        "audio_url": "https://v26-vvecloud.yangyi08.com/8f86c551d9faf960dc4b5f81556d888b/6724c546/video/tos/cn/tos-cn-v-2cd6b0/oEB5Ct8JLFAAyiLAEnEDezfWEAUwgc8WACk1RR/?a=7073&ch=0&cr=0&dr=0&&br=0&bt=0&ft=xztlUQhhe6BMyqa1UupJD12Nzj&mime_type=audio_mpeg&rc=QGlAYSNz&btag=80000000008000&dy_q=1730459446&l=202411011910316C45C0AF9BF5856858DA&format=mp3",
        "source_timerange": {
            "start_offset": 0,
            "end_offset": 1.9050000000000011
        },
        "target_timerange": {
            "start_offset": 102.6,
            "end_offset": 104.505
        },
        "ignore_audio": false,
        "audio_path": null
    },
    {
        "segment_id": "f28984a2984111ef880e3436ac12000c",
        "text": "秦霜抬眼盯着我 似乎在思索我的话：",
        "audio_url": "https://v26-vvecloud.yangyi08.com/8f86c551d9faf960dc4b5f81556d888b/6724c546/video/tos/cn/tos-cn-v-2cd6b0/oEB5Ct8JLFAAyiLAEnEDezfWEAUwgc8WACk1RR/?a=7073&ch=0&cr=0&dr=0&&br=0&bt=0&ft=xztlUQhhe6BMyqa1UupJD12Nzj&mime_type=audio_mpeg&rc=QGlAYSNz&btag=80000000008000&dy_q=1730459446&l=202411011910316C45C0AF9BF5856858DA&format=mp3",
        "source_timerange": {
            "start_offset": 1.9050000000000011,
            "end_offset": 4.969999999999999
        },
        "target_timerange": {
            "start_offset": 104.505,
            "end_offset": 107.57
        },
        "ignore_audio": true,
        "audio_path": null
    },
    {
        "segment_id": "f2898650984111ef880e3436ac12000c",
        "text": "你究竟是不是我之前认识的史金？",
        "audio_url": "https://v26-vvecloud.yangyi08.com/550347ac3a54818616112e8f150b764a/6724c547/video/tos/cn/tos-cn-v-2cd6b0/osBAAzkkUyzEfAnA6ABlKEa4hktIiuiQApBRb4/?a=7073&ch=0&cr=0&dr=0&&br=0&bt=0&ft=xztlUQhhe6BMyqO1UupJD12Nzj&mime_type=audio_mpeg&rc=QGlAYSNz&btag=80000000008000&dy_q=1730459447&l=202411011910316C45C0AF9BF5856858DA&format=mp3",
        "source_timerange": {
            "start_offset": 0,
            "end_offset": 3.0600000000000023
        },
        "target_timerange": {
            "start_offset": 107.57,
            "end_offset": 110.63
        },
        "ignore_audio": false,
        "audio_path": null
    },
    {
        "segment_id": "f2898808984111ef880e3436ac12000c",
        "text": "说 你倒底是谁 为什么要假冒他！",
        "audio_url": "https://v3-vvecloud.yangyi08.com/1ef0a55fe3e2f39ae90c11c4afc63ec6/6724c547/video/tos/cn/tos-cn-v-2cd6b0/ocQnJADZEABEAA0DfiCgEVAFNLk1Dfgczy5RCt/?a=7073&ch=0&cr=0&dr=0&&br=0&bt=0&ft=xztlUQhhe6BMyqO1UupJD12Nzj&mime_type=audio_mpeg&rc=QGlAYSNz&btag=80000000008000&dy_q=1730459447&l=202411011910316C45C0AF9BF5856858DA&format=mp3",
        "source_timerange": {
            "start_offset": 0,
            "end_offset": 3.8200000000000074
        },
        "target_timerange": {
            "start_offset": 110.63,
            "end_offset": 114.45
        },
        "ignore_audio": false,
        "audio_path": null
    },
    {
        "segment_id": "f28989c0984111ef880e3436ac12000c",
        "text": "我无奈地摊手：我就是史金啊！怎么？",
        "audio_url": "https://v9-vvecloud.yangyi08.com/6e576c05c4764dd92eb014265e966698/6724c547/video/tos/cn/tos-cn-v-2cd6b0/ooAACXiEEAQzavkfUtihkZAQjzu7gRBmBAlIA3/?a=7073&ch=0&cr=0&dr=0&&br=0&bt=0&ft=xztlUQhhe6BMyqO1UupJD12Nzj&mime_type=audio_mpeg&rc=QGlAYSNz&btag=80000000008000&dy_q=1730459447&l=202411011910316C45C0AF9BF5856858DA&format=mp3",
        "source_timerange": {
            "start_offset": 0,
            "end_offset": 3.8900000000000006
        },
        "target_timerange": {
            "start_offset": 114.45,
            "end_offset": 118.34
        },
        "ignore_audio": false,
        "audio_path": null
    },
    {
        "segment_id": "f2898b64984111ef880e3436ac12000c",
        "text": "你是不是玄幻小说看多了 以为我被人夺舍了？",
        "audio_url": "https://v26-vvecloud.yangyi08.com/d360a77795f2bee1d921c0ed8b3fad2c/6724c546/video/tos/cn/tos-cn-v-2cd6b0/oALiLJAAyFwVCBCATnf1RQgAcEEwfASDEktzWx/?a=7073&ch=0&cr=0&dr=0&&br=0&bt=0&ft=xztlUQhhe6BMyqa1UupJD12Nzj&mime_type=audio_mpeg&rc=QGlAYSNz&btag=80000000008000&dy_q=1730459446&l=202411011910316C45C0AF9BF5856858DA&format=mp3",
        "source_timerange": {
            "start_offset": 0,
            "end_offset": 3.9200000000000017
        },
        "target_timerange": {
            "start_offset": 118.34,
            "end_offset": 122.26
        },
        "ignore_audio": false,
        "audio_path": null
    },
    {
        "segment_id": "f2898d1c984111ef880e3436ac12000c",
        "text": "我这身体 样貌 哪样你不熟悉嘛？",
        "audio_url": "https://v26-vvecloud.yangyi08.com/d2b2b702ee69ade2b9c7e0a19712e869/6724c546/video/tos/cn/tos-cn-v-2cd6b0/oQ6EQxkEYdAtAbzMxilaRviAkB7zfUBtIAAuAh/?a=7073&ch=0&cr=0&dr=0&&br=0&bt=0&ft=xztlUQhhe6BMyqa1UupJD12Nzj&mime_type=audio_mpeg&rc=QGlAYSNz&btag=80000000008000&dy_q=1730459446&l=202411011910316C45C0AF9BF5856858DA&format=mp3",
        "source_timerange": {
            "start_offset": 0,
            "end_offset": 3.8900000000000006
        },
        "target_timerange": {
            "start_offset": 122.26,
            "end_offset": 126.15
        },
        "ignore_audio": false,
        "audio_path": null
    },
    {
        "segment_id": "f2898f38984111ef880e3436ac12000c",
        "text": "她的脸红得像个苹果 连忙反驳：呸！",
        "audio_url": "https://v26-vvecloud.yangyi08.com/8623ab3e09ba9e45582beeb3d7304339/6724c547/video/tos/cn/tos-cn-v-2cd6b0/ooEkEAAAIt5kBXBz4iAlfFxoUu6RaiAQhVlzAu/?a=7073&ch=0&cr=0&dr=0&&br=0&bt=0&ft=xztlUQhhe6BMyqO1UupJD12Nzj&mime_type=audio_mpeg&rc=QGlAYSNz&btag=80000000008000&dy_q=1730459447&l=202411011910316C45C0AF9BF5856858DA&format=mp3",
        "source_timerange": {
            "start_offset": 0,
            "end_offset": 4.030000000000001
        },
        "target_timerange": {
            "start_offset": 126.15,
            "end_offset": 130.18
        },
        "ignore_audio": false,
        "audio_path": null
    },
    {
        "segment_id": "f289caac984111ef880e3436ac12000c",
        "text": "谁熟悉你的身体了…不要脸！",
        "audio_url": "https://v3-vvecloud.yangyi08.com/a8e563009699054350022b6f0d6020c0/6724c546/video/tos/cn/tos-cn-v-2cd6b0/oYk77iAIhBzAkFRutQAQBjzZEfWaaUAiUTEAlA/?a=7073&ch=0&cr=0&dr=0&&br=0&bt=0&ft=xztlUQhhe6BMyqa1UupJD12Nzj&mime_type=audio_mpeg&rc=QGlAYSNz&btag=80000000008000&dy_q=1730459446&l=202411011910316C45C0AF9BF5856858DA&format=mp3",
        "source_timerange": {
            "start_offset": 0,
            "end_offset": 3.2399999999999807
        },
        "target_timerange": {
            "start_offset": 130.18,
            "end_offset": 133.42
        },
        "ignore_audio": false,
        "audio_path": null
    },
    {
        "segment_id": "f289cdae984111ef880e3436ac12000c",
        "text": "我心中一喜 继续向她表露心迹：你啊！",
        "audio_url": "https://v9-vvecloud.yangyi08.com/e130d60221e4c2bda4479df4b09b2661/6724c547/video/tos/cn/tos-cn-v-2cd6b0/oIEGlADAIAWAEzLAOWiFftWen5fjCrESkEBx95/?a=7073&ch=0&cr=0&dr=0&&br=0&bt=0&ft=xztlUQhhe6BMyqO1UupJD12Nzj&mime_type=audio_mpeg&rc=QGlAYSNz&btag=80000000008000&dy_q=1730459447&l=202411011910316C45C0AF9BF5856858DA&format=mp3",
        "source_timerange": {
            "start_offset": 0,
            "end_offset": 4.070000000000022
        },
        "target_timerange": {
            "start_offset": 133.42,
            "end_offset": 137.49
        },
        "ignore_audio": false,
        "audio_path": null
    },
    {
        "segment_id": "f289cf98984111ef880e3436ac12000c",
        "text": "我一夜成熟了 男人成熟 只需要一件事！",
        "audio_url": "https://v9-vvecloud.yangyi08.com/52a5abda3623a78177e47a6e5fec207b/6724c547/video/tos/cn/tos-cn-v-2cd6b0/oU2CErdJgceRCECznAEApbFOixAkCLftBCAYDA/?a=7073&ch=0&cr=0&dr=0&&br=0&bt=0&ft=xztlUQhhe6BMyqO1UupJD12Nzj&mime_type=audio_mpeg&rc=QGlAYSNz&btag=80000000008000&dy_q=1730459447&l=202411011910316C45C0AF9BF5856858DA&format=mp3",
        "source_timerange": {
            "start_offset": 0,
            "end_offset": 4.2099999999999795
        },
        "target_timerange": {
            "start_offset": 137.49,
            "end_offset": 141.7
        },
        "ignore_audio": false,
        "audio_path": null
    },
    {
        "segment_id": "f289d16e984111ef880e3436ac12000c",
        "text": "我算彻底的想明白了",
        "audio_url": "https://v9-vvecloud.yangyi08.com/f7cde2ab10d0320bdb2127165841a08d/6724c547/video/tos/cn/tos-cn-v-2cd6b0/oolRKkAA8i8OBAhAYzxaIPQAuiE3fAdBEktzXA/?a=7073&ch=0&cr=0&dr=0&&br=0&bt=0&ft=xztlUQhhe6BMyqO1UupJD12Nzj&mime_type=audio_mpeg&rc=QGlAYSNz&btag=80000000008000&dy_q=1730459447&l=202411011910316C45C0AF9BF5856858DA&format=mp3",
        "source_timerange": {
            "start_offset": 0,
            "end_offset": 2.1200000000000045
        },
        "target_timerange": {
            "start_offset": 141.7,
            "end_offset": 143.82
        },
        "ignore_audio": false,
        "audio_path": null
    },
    {
        "segment_id": "f289d31c984111ef880e3436ac12000c",
        "text": "与其去跪舔一个根本就不喜欢我的人",
        "audio_url": "https://v6-vvecloud.yangyi08.com/c74cd85a6cd6676e3c5fe5ed7d4d2fac/6724c546/video/tos/cn/tos-cn-v-2cd6b0/ogzbmAAGnBATfZzJB1FEgcD1iJCR7pAIIwfQCL/?a=7073&ch=0&cr=0&dr=0&&br=0&bt=0&ft=xztlUQhhe6BMyqa1UupJD12Nzj&mime_type=audio_mpeg&rc=QGlAYSNz&btag=80000000008000&dy_q=1730459446&l=202411011910316C45C0AF9BF5856858DA&format=mp3",
        "source_timerange": {
            "start_offset": 0,
            "end_offset": 2.950000000000017
        },
        "target_timerange": {
            "start_offset": 143.82,
            "end_offset": 146.77
        },
        "ignore_audio": false,
        "audio_path": null
    },
    {
        "segment_id": "f289d4ca984111ef880e3436ac12000c",
        "text": "为什么不珍惜默默喜欢我的人呢？",
        "audio_url": "https://v9-vvecloud.yangyi08.com/c2a10b45f07aa61b0f9488dbbf0d4503/6724c547/video/tos/cn/tos-cn-v-2cd6b0/osva7IoZLotr8LzBA3k3EkNEQ4SAtygiAEAAi/?a=7073&ch=0&cr=0&dr=0&&br=0&bt=0&ft=xztlUQhhe6BMyqO1UupJD12Nzj&mime_type=audio_mpeg&rc=QGlAYSNz&btag=80000000008000&dy_q=1730459447&l=202411011910316C45C0AF9BF5856858DA&format=mp3",
        "source_timerange": {
            "start_offset": 0,
            "end_offset": 2.7399999999999807
        },
        "target_timerange": {
            "start_offset": 146.77,
            "end_offset": 149.51
        },
        "ignore_audio": false,
        "audio_path": null
    },
    {
        "segment_id": "f289d66e984111ef880e3436ac12000c",
        "text": "老实说！谁默默喜欢你了 姐姐怎么不知道？",
        "audio_url": "https://v3-vvecloud.yangyi08.com/34a8ceb1868c23e92d083358fa9dcd2e/6724c547/video/tos/cn/tos-cn-v-2cd6b0/oEWOCJnAQtmXeBbF4AfISqHAj5umMBA5E8wIeE/?a=7073&ch=0&cr=0&dr=0&&br=0&bt=0&ft=xztlUQhhe6BMyqO1UupJD12Nzj&mime_type=audio_mpeg&rc=QGlAYSNz&btag=80000000008000&dy_q=1730459447&l=202411011910316C45C0AF9BF5856858DA&format=mp3",
        "source_timerange": {
            "start_offset": 0,
            "end_offset": 4.175000000000011
        },
        "target_timerange": {
            "start_offset": 149.51,
            "end_offset": 153.685
        },
        "ignore_audio": false,
        "audio_path": null
    },
    {
        "segment_id": "f289d8a8984111ef880e3436ac12000c",
        "text": "她的反问像是要打破我的幻想",
        "audio_url": "https://v3-vvecloud.yangyi08.com/34a8ceb1868c23e92d083358fa9dcd2e/6724c547/video/tos/cn/tos-cn-v-2cd6b0/oEWOCJnAQtmXeBbF4AfISqHAj5umMBA5E8wIeE/?a=7073&ch=0&cr=0&dr=0&&br=0&bt=0&ft=xztlUQhhe6BMyqO1UupJD12Nzj&mime_type=audio_mpeg&rc=QGlAYSNz&btag=80000000008000&dy_q=1730459447&l=202411011910316C45C0AF9BF5856858DA&format=mp3",
        "source_timerange": {
            "start_offset": 4.175000000000011,
            "end_offset": 6.550000000000011
        },
        "target_timerange": {
            "start_offset": 153.685,
            "end_offset": 156.06
        },
        "ignore_audio": true,
        "audio_path": null
    },
    {
        "segment_id": "f289daa6984111ef880e3436ac12000c",
        "text": "但我知道她的内心其实在期待我的回答",
        "audio_url": "https://v26-vvecloud.yangyi08.com/acc2f095864d9925db9559d979b186ea/6724c547/video/tos/cn/tos-cn-v-2cd6b0/osPACCbzEA7QE2zvkyiIAPEANkS3ioZgtMYAB/?a=7073&ch=0&cr=0&dr=0&&br=0&bt=0&ft=xztlUQhhe6BMyqO1UupJD12Nzj&mime_type=audio_mpeg&rc=QGlAYSNz&btag=80000000008000&dy_q=1730459447&l=202411011910316C45C0AF9BF5856858DA&format=mp3",
        "source_timerange": {
            "start_offset": 0,
            "end_offset": 3.460000000000008
        },
        "target_timerange": {
            "start_offset": 156.06,
            "end_offset": 159.52
        },
        "ignore_audio": false,
        "audio_path": null
    },
    {
        "segment_id": "f289dcb8984111ef880e3436ac12000c",
        "text": "是你啊！你就是默默爱我 默默为我付出的人！",
        "audio_url": "https://v9-vvecloud.yangyi08.com/7092038818f1e8c072c19c43e5f9201c/6724c547/video/tos/cn/tos-cn-v-2cd6b0/ogovy66ZA3AtNIwbBaEGAgzAQEIQiIgAIkkSi/?a=7073&ch=0&cr=0&dr=0&&br=0&bt=0&ft=xztlUQhhe6BMyqO1UupJD12Nzj&mime_type=audio_mpeg&rc=QGlAYSNz&btag=80000000008000&dy_q=1730459447&l=202411011910316C45C0AF9BF5856858DA&format=mp3",
        "source_timerange": {
            "start_offset": 0,
            "end_offset": 4.4599999999999795
        },
        "target_timerange": {
            "start_offset": 159.52,
            "end_offset": 163.98
        },
        "ignore_audio": false,
        "audio_path": null
    },
    {
        "segment_id": "f289de7a984111ef880e3436ac12000c",
        "text": "我眼瞎么才不会选你！我直视她的眼睛 满怀诚意",
        "audio_url": "https://v26-vvecloud.yangyi08.com/327d5e6dc05d3563b06de8c14e1782fa/6724c547/video/tos/cn/tos-cn-v-2cd6b0/oQgozAEZQyQiZzNB3ItA72VoEvAkkAUm0DASi/?a=7073&ch=0&cr=0&dr=0&&br=0&bt=0&ft=xztlUQhhe6BMyqO1UupJD12Nzj&mime_type=audio_mpeg&rc=QGlAYSNz&btag=80000000008000&dy_q=1730459447&l=202411011910316C45C0AF9BF5856858DA&format=mp3",
        "source_timerange": {
            "start_offset": 0,
            "end_offset": 4.900000000000006
        },
        "target_timerange": {
            "start_offset": 163.98,
            "end_offset": 168.88
        },
        "ignore_audio": false,
        "audio_path": null
    },
    {
        "segment_id": "f289e032984111ef880e3436ac12000c",
        "text": "秦霜愣住了 似乎在思索我的话",
        "audio_url": "https://v3-vvecloud.yangyi08.com/8c376896a0e0eed48f5927ee095535b0/6724c547/video/tos/cn/tos-cn-v-2cd6b0/oc6jaSIB9AhD3JEmEb5tbZAIGeFeLBAfSCAOWI/?a=7073&ch=0&cr=0&dr=0&&br=0&bt=0&ft=xztlUQhhe6BMyqO1UupJD12Nzj&mime_type=audio_mpeg&rc=QGlAYSNz&btag=80000000008000&dy_q=1730459447&l=202411011910316C45C0AF9BF5856858DA&format=mp3",
        "source_timerange": {
            "start_offset": 0,
            "end_offset": 3.3499999999999943
        },
        "target_timerange": {
            "start_offset": 168.88,
            "end_offset": 172.23
        },
        "ignore_audio": false,
        "audio_path": null
    },
    {
        "segment_id": "f289e1cc984111ef880e3436ac12000c",
        "text": "心中却是兴奋不已：",
        "audio_url": "https://v9-vvecloud.yangyi08.com/00d6a9689e314be2de0a24ea011b455c/6724c547/video/tos/cn/tos-cn-v-2cd6b0/okBcICEDAifAMs3AbnLJi4mImAFvpRCJy2Bcfg/?a=7073&ch=0&cr=0&dr=0&&br=0&bt=0&ft=xztlUQhhe6BMyqO1UupJD12Nzj&mime_type=audio_mpeg&rc=QGlAYSNz&btag=80000000008000&dy_q=1730459447&l=202411011910316C45C0AF9BF5856858DA&format=mp3",
        "source_timerange": {
            "start_offset": 0,
            "end_offset": 2.230000000000018
        },
        "target_timerange": {
            "start_offset": 172.23,
            "end_offset": 174.46
        },
        "ignore_audio": false,
        "audio_path": null
    },
    {
        "segment_id": "f289e37a984111ef880e3436ac12000c",
        "text": "他真的感受到我对他的好了 注意到我了吗？",
        "audio_url": "https://v26-vvecloud.yangyi08.com/61204cdd877fdc53f6075c28ae6a5cf4/6724c547/video/tos/cn/tos-cn-v-2cd6b0/ocE3Srzivv3bmkgA7QAkEyBmotAyIAVNjAiyZ/?a=7073&ch=0&cr=0&dr=0&&br=0&bt=0&ft=xztlUQhhe6BMyqO1UupJD12Nzj&mime_type=audio_mpeg&rc=QGlAYSNz&btag=80000000008000&dy_q=1730459447&l=202411011910316C45C0AF9BF5856858DA&format=mp3",
        "source_timerange": {
            "start_offset": 0,
            "end_offset": 3.6699999999999875
        },
        "target_timerange": {
            "start_offset": 174.46,
            "end_offset": 178.13
        },
        "ignore_audio": false,
        "audio_path": null
    },
    {
        "segment_id": "f289e532984111ef880e3436ac12000c",
        "text": "我伸出手 猛地将她抱住 心中充满了不舍：",
        "audio_url": "https://v6-vvecloud.yangyi08.com/7fbb4aefedb8ce19ea7ea86a45f31730/6724c547/video/tos/cn/tos-cn-v-2cd6b0/o0EkEAAARtQJCYDnfFA1forsSc7i2EAgCCLzBc/?a=7073&ch=0&cr=0&dr=0&&br=0&bt=0&ft=xztlUQhhe6BMyqO1UupJD12Nzj&mime_type=audio_mpeg&rc=QGlAYSNz&btag=80000000008000&dy_q=1730459447&l=202411011910316C45C0AF9BF5856858DA&format=mp3",
        "source_timerange": {
            "start_offset": 0,
            "end_offset": 4.360000000000014
        },
        "target_timerange": {
            "start_offset": 178.13,
            "end_offset": 182.49
        },
        "ignore_audio": false,
        "audio_path": null
    },
    {
        "segment_id": "f289e6e0984111ef880e3436ac12000c",
        "text": "霜姐 你别再嘴硬了！也别再欺骗自己的内心了！",
        "audio_url": "https://v6-vvecloud.yangyi08.com/c061cda4fe6dfb1b40161f99d041598b/6724c547/video/tos/cn/tos-cn-v-2cd6b0/o0nmJFq0WEAyOIIOBSLeBCAefbZA5GIwjAGSEt/?a=7073&ch=0&cr=0&dr=0&&br=0&bt=0&ft=xztlUQhhe6BMyqO1UupJD12Nzj&mime_type=audio_mpeg&rc=QGlAYSNz&btag=80000000008000&dy_q=1730459447&l=202411011910316C45C0AF9BF5856858DA&format=mp3",
        "source_timerange": {
            "start_offset": 0,
            "end_offset": 4.719999999999999
        },
        "target_timerange": {
            "start_offset": 182.49,
            "end_offset": 187.21
        },
        "ignore_audio": false,
        "audio_path": null
    },
    {
        "segment_id": "f289e88e984111ef880e3436ac12000c",
        "text": "你喜欢我 我也喜欢你！",
        "audio_url": "https://v9-vvecloud.yangyi08.com/03200b5fb1f8f7289b6b30e2910465bd/6724c547/video/tos/cn/tos-cn-v-2cd6b0/osfVkY2CAABEA2ges9DrCnEzJEAcCtRjLFOiAo/?a=7073&ch=0&cr=0&dr=0&&br=0&bt=0&ft=xztlUQhhe6BMyqO1UupJD12Nzj&mime_type=audio_mpeg&rc=QGlAYSNz&btag=80000000008000&dy_q=1730459447&l=202411011910316C45C0AF9BF5856858DA&format=mp3",
        "source_timerange": {
            "start_offset": 0,
            "end_offset": 2.5900000000000034
        },
        "target_timerange": {
            "start_offset": 187.21,
            "end_offset": 189.8
        },
        "ignore_audio": false,
        "audio_path": null
    },
    {
        "segment_id": "f289ea32984111ef880e3436ac12000c",
        "text": "咱们一起努力 共同编织我们的人生 好吗？",
        "audio_url": "https://v9-vvecloud.yangyi08.com/4d00a9891379bd24ca509fe8619b3ce3/6724c547/video/tos/cn/tos-cn-v-2cd6b0/o0Ai6yAoikg8ZXAENZvAM3BAjIkESykt2QPzJ/?a=7073&ch=0&cr=0&dr=0&&br=0&bt=0&ft=xztlUQhhe6BMyqO1UupJD12Nzj&mime_type=audio_mpeg&rc=QGlAYSNz&btag=80000000008000&dy_q=1730459447&l=202411011910316C45C0AF9BF5856858DA&format=mp3",
        "source_timerange": {
            "start_offset": 0,
            "end_offset": 4.2099999999999795
        },
        "target_timerange": {
            "start_offset": 189.8,
            "end_offset": 194.01
        },
        "ignore_audio": false,
        "audio_path": null
    },
    {
        "segment_id": "f289ec3a984111ef880e3436ac12000c",
        "text": "抱住她的瞬间 我感受到了一种无比充实的幸福",
        "audio_url": "https://v9-vvecloud.yangyi08.com/ca2175b85df664839c3fa42c8dd3fd4e/6724c547/video/tos/cn/tos-cn-v-2cd6b0/ooAwEiX2JyIwotBg3QZZkskAAq2SANFbAEivz/?a=7073&ch=0&cr=0&dr=0&&br=0&bt=0&ft=xztlUQhhe6BMyqO1UupJD12Nzj&mime_type=audio_mpeg&rc=QGlAYSNz&btag=80000000008000&dy_q=1730459447&l=202411011910316C45C0AF9BF5856858DA&format=mp3",
        "source_timerange": {
            "start_offset": 0,
            "end_offset": 4.180000000000007
        },
        "target_timerange": {
            "start_offset": 194.01,
            "end_offset": 198.19
        },
        "ignore_audio": false,
        "audio_path": null
    },
    {
        "segment_id": "f289ede8984111ef880e3436ac12000c",
        "text": "过去的遗憾在这一刻仿佛都化为乌有",
        "audio_url": "https://v26-vvecloud.yangyi08.com/979dc987955087e6947ad9e1aaab4e8c/6724c547/video/tos/cn/tos-cn-v-2cd6b0/oABJCI2ID32cLBbLgEfmCxAALFSaAnAie3qRDJ/?a=7073&ch=0&cr=0&dr=0&&br=0&bt=0&ft=xztlUQhhe6BMyqO1UupJD12Nzj&mime_type=audio_mpeg&rc=QGlAYSNz&btag=80000000008000&dy_q=1730459447&l=202411011910316C45C0AF9BF5856858DA&format=mp3",
        "source_timerange": {
            "start_offset": 0,
            "end_offset": 3.420000000000016
        },
        "target_timerange": {
            "start_offset": 198.19,
            "end_offset": 201.61
        },
        "ignore_audio": false,
        "audio_path": null
    },
    {
        "segment_id": "f289ef8c984111ef880e3436ac12000c",
        "text": "我不想松手 生怕失去她",
        "audio_url": "https://v6-vvecloud.yangyi08.com/e2aa97749f9e1c5e44bf86da82bf1f6e/6724c547/video/tos/cn/tos-cn-v-2cd6b0/ooFABEzOEItAAjbE5YkeCLtSAGGZxWEGLVmffA/?a=7073&ch=0&cr=0&dr=0&&br=0&bt=0&ft=xztlUQhhe6BMyqO1UupJD12Nzj&mime_type=audio_mpeg&rc=QGlAYSNz&btag=80000000008000&dy_q=1730459447&l=202411011910316C45C0AF9BF5856858DA&format=mp3",
        "source_timerange": {
            "start_offset": 0,
            "end_offset": 3.019999999999982
        },
        "target_timerange": {
            "start_offset": 201.61,
            "end_offset": 204.63
        },
        "ignore_audio": false,
        "audio_path": null
    },
    {
        "segment_id": "f289f130984111ef880e3436ac12000c",
        "text": "秦霜的身体微微颤抖 想要挣脱 却被我抱得更紧",
        "audio_url": "https://v3-vvecloud.yangyi08.com/ca7d51ab80f8ffb64c03e4fe9fd9ed17/6724c547/video/tos/cn/tos-cn-v-2cd6b0/o4GzAI4A5EtStLiEYEYeAeOz5eAnCjArkOEWFB/?a=7073&ch=0&cr=0&dr=0&&br=0&bt=0&ft=xztlUQhhe6BMyqO1UupJD12Nzj&mime_type=audio_mpeg&rc=QGlAYSNz&btag=80000000008000&dy_q=1730459447&l=202411011910316C45C0AF9BF5856858DA&format=mp3",
        "source_timerange": {
            "start_offset": 0,
            "end_offset": 4.719999999999999
        },
        "target_timerange": {
            "start_offset": 204.63,
            "end_offset": 209.35
        },
        "ignore_audio": false,
        "audio_path": null
    },
    {
        "segment_id": "f289f2e8984111ef880e3436ac12000c",
        "text": "她的心跳与我的交织在一起",
        "audio_url": "https://v3-vvecloud.yangyi08.com/b03837650579b92bafd97b1f3a2926af/6724c547/video/tos/cn/tos-cn-v-2cd6b0/oAoDWA7QtEaqiiEk3AF2yZIi1ASABAzvNkgJZ/?a=7073&ch=0&cr=0&dr=0&&br=0&bt=0&ft=xztlUQhhe6BMyqO1UupJD12Nzj&mime_type=audio_mpeg&rc=QGlAYSNz&btag=80000000008000&dy_q=1730459447&l=202411011910316C45C0AF9BF5856858DA&format=mp3",
        "source_timerange": {
            "start_offset": 0,
            "end_offset": 2.740000000000009
        },
        "target_timerange": {
            "start_offset": 209.35,
            "end_offset": 212.09
        },
        "ignore_audio": false,
        "audio_path": null
    },
    {
        "segment_id": "f289f48c984111ef880e3436ac12000c",
        "text": "仿佛在诉说着彼此的心声",
        "audio_url": "https://v26-vvecloud.yangyi08.com/2bb5e552459cfa20a6c60b69059fa418/6724c547/video/tos/cn/tos-cn-v-2cd6b0/okYvwENgJEIvAAQA9pA3UAsiBy3SZotzi1jkk/?a=7073&ch=0&cr=0&dr=0&&br=0&bt=0&ft=xztlUQhhe6BMyqO1UupJD12Nzj&mime_type=audio_mpeg&rc=QGlAYSNz&btag=80000000008000&dy_q=1730459447&l=202411011910316C45C0AF9BF5856858DA&format=mp3",
        "source_timerange": {
            "start_offset": 0,
            "end_offset": 2.6999999999999886
        },
        "target_timerange": {
            "start_offset": 212.09,
            "end_offset": 214.79
        },
        "ignore_audio": false,
        "audio_path": null
    },
    {
        "segment_id": "f289f63a984111ef880e3436ac12000c",
        "text": "沉默！寂静！这一刻 时间仿佛停滞",
        "audio_url": "https://v9-vvecloud.yangyi08.com/c4c541e44152a8827b937d1bcf78db0d/6724c547/video/tos/cn/tos-cn-v-2cd6b0/o4LnBkjAE2zFuAtCHgEEJdkARcfjDAAkifaEKC/?a=7073&ch=0&cr=0&dr=0&&br=0&bt=0&ft=xztlUQhhe6BMyqO1UupJD12Nzj&mime_type=audio_mpeg&rc=QGlAYSNz&btag=80000000008000&dy_q=1730459447&l=202411011910316C45C0AF9BF5856858DA&format=mp3",
        "source_timerange": {
            "start_offset": 0,
            "end_offset": 5.0400000000000205
        },
        "target_timerange": {
            "start_offset": 214.79,
            "end_offset": 219.83
        },
        "ignore_audio": false,
        "audio_path": null
    },
    {
        "segment_id": "f289f7de984111ef880e3436ac12000c",
        "text": "只剩下我们两人的心跳声在耳边回荡",
        "audio_url": "https://v3-vvecloud.yangyi08.com/8ea6c5a9cff73466ff40b9d56d813f7c/6724c547/video/tos/cn/tos-cn-v-2cd6b0/oAzIt6ZzAkWbAiivQ3XAyxsBzggNkLEdAEoAS/?a=7073&ch=0&cr=0&dr=0&&br=0&bt=0&ft=xztlUQhhe6BMyqO1UupJD12Nzj&mime_type=audio_mpeg&rc=QGlAYSNz&btag=80000000008000&dy_q=1730459447&l=202411011910316C45C0AF9BF5856858DA&format=mp3",
        "source_timerange": {
            "start_offset": 0,
            "end_offset": 3.059999999999974
        },
        "target_timerange": {
            "start_offset": 219.83,
            "end_offset": 222.89
        },
        "ignore_audio": false,
        "audio_path": null
    },
    {
        "segment_id": "f289f996984111ef880e3436ac12000c",
        "text": "短短的几秒钟 我注意到秦霜在思考",
        "audio_url": "https://v3-vvecloud.yangyi08.com/b10f86334affb9816688671b28ecd15a/6724c547/video/tos/cn/tos-cn-v-2cd6b0/o0WCASteBJeOLBFlI5mcjbnGAImEEwAOgeSUIA/?a=7073&ch=0&cr=0&dr=0&&br=0&bt=0&ft=xztlUQhhe6BMyqO1UupJD12Nzj&mime_type=audio_mpeg&rc=QGlAYSNz&btag=80000000008000&dy_q=1730459447&l=202411011910316C45C0AF9BF5856858DA&format=mp3",
        "source_timerange": {
            "start_offset": 0,
            "end_offset": 3.780000000000001
        },
        "target_timerange": {
            "start_offset": 222.89,
            "end_offset": 226.67
        },
        "ignore_audio": false,
        "audio_path": null
    },
    {
        "segment_id": "f289fb3a984111ef880e3436ac12000c",
        "text": "她很想答应我 但理智却在此时战胜了冲动",
        "audio_url": "https://v3-vvecloud.yangyi08.com/14417c237f092a7545b1ce887a5a041a/6724c547/video/tos/cn/tos-cn-v-2cd6b0/o0IQvACEgzZiA3S6kt9NyAZRiACHkDAbBEpAo/?a=7073&ch=0&cr=0&dr=0&&br=0&bt=0&ft=xztlUQhhe6BMyqO1UupJD12Nzj&mime_type=audio_mpeg&rc=QGlAYSNz&btag=80000000008000&dy_q=1730459447&l=202411011910316C45C0AF9BF5856858DA&format=mp3",
        "source_timerange": {
            "start_offset": 0,
            "end_offset": 4.210000000000008
        },
        "target_timerange": {
            "start_offset": 226.67,
            "end_offset": 230.88
        },
        "ignore_audio": false,
        "audio_path": null
    },
    {
        "segment_id": "f289fce8984111ef880e3436ac12000c",
        "text": "她认真地问：“你 你真的这样想？”",
        "audio_url": "https://v6-vvecloud.yangyi08.com/1b532014f2e5b3c1bea9fa1fa6d97008/6724c547/video/tos/cn/tos-cn-v-2cd6b0/oYSQ3gZtkIhACaNiAkABExoviZArAy7zEPEKr/?a=7073&ch=0&cr=0&dr=0&&br=0&bt=0&ft=xztlUQhhe6BMyqO1UupJD12Nzj&mime_type=audio_mpeg&rc=QGlAYSNz&btag=80000000008000&dy_q=1730459447&l=202411011910316C45C0AF9BF5856858DA&format=mp3",
        "source_timerange": {
            "start_offset": 0,
            "end_offset": 3.5600000000000023
        },
        "target_timerange": {
            "start_offset": 230.88,
            "end_offset": 234.44
        },
        "ignore_audio": false,
        "audio_path": null
    },
    {
        "segment_id": "f289fe96984111ef880e3436ac12000c",
        "text": "嗯！我不但这样想 我还要这样做！",
        "audio_url": "https://v6-vvecloud.yangyi08.com/826ddcdc5ceaa31c844a7d4c5a0bee8c/6724c547/video/tos/cn/tos-cn-v-2cd6b0/o8bkBLHEIIBIAaSAWJe5mAtFjAf1OGEmBAimCf/?a=7073&ch=0&cr=0&dr=0&&br=0&bt=0&ft=xztlUQhhe6BMyqO1UupJD12Nzj&mime_type=audio_mpeg&rc=QGlAYSNz&btag=80000000008000&dy_q=1730459447&l=202411011910316C45C0AF9BF5856858DA&format=mp3",
        "source_timerange": {
            "start_offset": 0,
            "end_offset": 3.365000000000009
        },
        "target_timerange": {
            "start_offset": 234.44,
            "end_offset": 237.805
        },
        "ignore_audio": false,
        "audio_path": null
    },
    {
        "segment_id": "f28a003a984111ef880e3436ac12000c",
        "text": "我坚定地回答 心中早已为未来铺好了蓝图",
        "audio_url": "https://v6-vvecloud.yangyi08.com/826ddcdc5ceaa31c844a7d4c5a0bee8c/6724c547/video/tos/cn/tos-cn-v-2cd6b0/o8bkBLHEIIBIAaSAWJe5mAtFjAf1OGEmBAimCf/?a=7073&ch=0&cr=0&dr=0&&br=0&bt=0&ft=xztlUQhhe6BMyqO1UupJD12Nzj&mime_type=audio_mpeg&rc=QGlAYSNz&btag=80000000008000&dy_q=1730459447&l=202411011910316C45C0AF9BF5856858DA&format=mp3",
        "source_timerange": {
            "start_offset": 3.365000000000009,
            "end_offset": 7.02000000000001
        },
        "target_timerange": {
            "start_offset": 237.805,
            "end_offset": 241.46
        },
        "ignore_audio": true,
        "audio_path": null
    },
    {
        "segment_id": "f28a0256984111ef880e3436ac12000c",
        "text": "她收起了之前的戏谑 严肃道：我还是那句话",
        "audio_url": "https://v9-vvecloud.yangyi08.com/de64d93c6961e47505580bc2f4cff3fc/6724c547/video/tos/cn/tos-cn-v-2cd6b0/oky3AXQABtCiZiEkSNIAZ4EdkEAoa43gydAzv/?a=7073&ch=0&cr=0&dr=0&&br=0&bt=0&ft=xztlUQhhe6BMyqO1UupJD12Nzj&mime_type=audio_mpeg&rc=QGlAYSNz&btag=80000000008000&dy_q=1730459447&l=202411011910316C45C0AF9BF5856858DA&format=mp3",
        "source_timerange": {
            "start_offset": 0,
            "end_offset": 4.429999999999978
        },
        "target_timerange": {
            "start_offset": 241.46,
            "end_offset": 245.89
        },
        "ignore_audio": false,
        "audio_path": null
    },
    {
        "segment_id": "f28a04c2984111ef880e3436ac12000c",
        "text": "你如果真的如你所说 那就看你接下来的表现",
        "audio_url": "https://v9-vvecloud.yangyi08.com/da593bba6eccfe4b02ae81ae1edf0b3c/6724c547/video/tos/cn/tos-cn-v-2cd6b0/ocAJCE2EDnQcLBtagEfzCZAAtFDfAnAiy2FRvk/?a=7073&ch=0&cr=0&dr=0&&br=0&bt=0&ft=xztlUQhhe6BMyqO1UupJD12Nzj&mime_type=audio_mpeg&rc=QGlAYSNz&btag=80000000008000&dy_q=1730459447&l=202411011910316C45C0AF9BF5856858DA&format=mp3",
        "source_timerange": {
            "start_offset": 0,
            "end_offset": 3.890000000000015
        },
        "target_timerange": {
            "start_offset": 245.89,
            "end_offset": 249.78
        },
        "ignore_audio": false,
        "audio_path": null
    },
    {
        "segment_id": "f28a067a984111ef880e3436ac12000c",
        "text": "鉴于你这么甜言密语 我是不会提供资金支持的",
        "audio_url": "https://v9-vvecloud.yangyi08.com/a016158bde6b9fa222cda6649c4b26e2/6724c547/video/tos/cn/tos-cn-v-2cd6b0/o4SQ3gbtkIgA4RNiAkABM0oviZAHAy0zEVE4h/?a=7073&ch=0&cr=0&dr=0&&br=0&bt=0&ft=xztlUQhhe6BMyqO1UupJD12Nzj&mime_type=audio_mpeg&rc=QGlAYSNz&btag=80000000008000&dy_q=1730459447&l=202411011910316C45C0AF9BF5856858DA&format=mp3",
        "source_timerange": {
            "start_offset": 0,
            "end_offset": 3.5649999999999977
        },
        "target_timerange": {
            "start_offset": 249.78,
            "end_offset": 253.345
        },
        "ignore_audio": false,
        "audio_path": null
    },
    {
        "segment_id": "f28a0814984111ef880e3436ac12000c",
        "text": "毕竟 史老总今天的几个业务谈得不错",
        "audio_url": "https://v9-vvecloud.yangyi08.com/a016158bde6b9fa222cda6649c4b26e2/6724c547/video/tos/cn/tos-cn-v-2cd6b0/o4SQ3gbtkIgA4RNiAkABM0oviZAHAy0zEVE4h/?a=7073&ch=0&cr=0&dr=0&&br=0&bt=0&ft=xztlUQhhe6BMyqO1UupJD12Nzj&mime_type=audio_mpeg&rc=QGlAYSNz&btag=80000000008000&dy_q=1730459447&l=202411011910316C45C0AF9BF5856858DA&format=mp3",
        "source_timerange": {
            "start_offset": 3.5649999999999977,
            "end_offset": 6.840000000000003
        },
        "target_timerange": {
            "start_offset": 253.345,
            "end_offset": 256.62
        },
        "ignore_audio": true,
        "audio_path": null
    },
    {
        "segment_id": "f28a09c2984111ef880e3436ac12000c",
        "text": "世人都说男人有了钱就变坏",
        "audio_url": "https://v6-vvecloud.yangyi08.com/90e792bd1eaf16aac170d7502b95c799/6724c547/video/tos/cn/tos-cn-v-2cd6b0/o0yPBIeGEI7fjtOE9bMeBSUWJCmFPI5ALAAtIA/?a=7073&ch=0&cr=0&dr=0&&br=0&bt=0&ft=xztlUQhhe6BMyqO1UupJD12Nzj&mime_type=audio_mpeg&rc=QGlAYSNz&btag=80000000008000&dy_q=1730459447&l=202411011910316C45C0AF9BF5856858DA&format=mp3",
        "source_timerange": {
            "start_offset": 0,
            "end_offset": 2.9499999999999886
        },
        "target_timerange": {
            "start_offset": 256.62,
            "end_offset": 259.57
        },
        "ignore_audio": false,
        "audio_path": null
    },
    {
        "segment_id": "f28a0ba2984111ef880e3436ac12000c",
        "text": "不知道你会不会变坏？",
        "audio_url": "https://v6-vvecloud.yangyi08.com/cc4d6c9d334de9c5d4e1067b3924bdae/6724c547/video/tos/cn/tos-cn-v-2cd6b0/o0cJDff2iEKCEztH9AngFBEkEdRLCAivAAbAmj/?a=7073&ch=0&cr=0&dr=0&&br=0&bt=0&ft=xztlUQhhe6BMyqO1UupJD12Nzj&mime_type=audio_mpeg&rc=QGlAYSNz&btag=80000000008000&dy_q=1730459447&l=202411011910316C45C0AF9BF5856858DA&format=mp3",
        "source_timerange": {
            "start_offset": 0,
            "end_offset": 1.6949999999999932
        },
        "target_timerange": {
            "start_offset": 259.57,
            "end_offset": 261.265
        },
        "ignore_audio": false,
        "audio_path": null
    },
    {
        "segment_id": "f28a0d64984111ef880e3436ac12000c",
        "text": "她的目光如同探测器 想要看穿我的心思",
        "audio_url": "https://v6-vvecloud.yangyi08.com/cc4d6c9d334de9c5d4e1067b3924bdae/6724c547/video/tos/cn/tos-cn-v-2cd6b0/o0cJDff2iEKCEztH9AngFBEkEdRLCAivAAbAmj/?a=7073&ch=0&cr=0&dr=0&&br=0&bt=0&ft=xztlUQhhe6BMyqO1UupJD12Nzj&mime_type=audio_mpeg&rc=QGlAYSNz&btag=80000000008000&dy_q=1730459447&l=202411011910316C45C0AF9BF5856858DA&format=mp3",
        "source_timerange": {
            "start_offset": 1.6949999999999932,
            "end_offset": 5.509999999999991
        },
        "target_timerange": {
            "start_offset": 261.265,
            "end_offset": 265.08
        },
        "ignore_audio": true,
        "audio_path": null
    },
    {
        "segment_id": "f28a0f08984111ef880e3436ac12000c",
        "text": "我心中坦然 哂然一笑：这有啥！",
        "audio_url": "https://v9-vvecloud.yangyi08.com/c4705f8d562506075f4632c1b32ae3e2/6724c547/video/tos/cn/tos-cn-v-2cd6b0/ooLiIJABKF3mCBCAhnw2RegAcEI7fAQDIJbmzH/?a=7073&ch=0&cr=0&dr=0&&br=0&bt=0&ft=xztlUQhhe6BMyqO1UupJD12Nzj&mime_type=audio_mpeg&rc=QGlAYSNz&btag=80000000008000&dy_q=1730459447&l=202411011910316C45C0AF9BF5856858DA&format=mp3",
        "source_timerange": {
            "start_offset": 0,
            "end_offset": 3.8500000000000227
        },
        "target_timerange": {
            "start_offset": 265.08,
            "end_offset": 268.93
        },
        "ignore_audio": false,
        "audio_path": null
    },
    {
        "segment_id": "f28a10c0984111ef880e3436ac12000c",
        "text": "接下来就看我的本事吧",
        "audio_url": "https://v6-vvecloud.yangyi08.com/1a6dc7e39734b4a3356fdea01f64efd9/6724c548/video/tos/cn/tos-cn-v-2cd6b0/oAA7EiGJcyIgotBg3QZZkUkAABwSANoOAEivz/?a=7073&ch=0&cr=0&dr=0&&br=0&bt=0&ft=xztlUQhhe6BMyqd1UupJD12Nzj&mime_type=audio_mpeg&rc=QGlAYSNz&btag=80000000008000&dy_q=1730459448&l=202411011910316C45C0AF9BF5856858DA&format=mp3",
        "source_timerange": {
            "start_offset": 0,
            "end_offset": 2.339999999999975
        },
        "target_timerange": {
            "start_offset": 268.93,
            "end_offset": 271.27
        },
        "ignore_audio": false,
        "audio_path": null
    },
    {
        "segment_id": "f28a126e984111ef880e3436ac12000c",
        "text": "我赚很多的钱 风风光光的娶你！",
        "audio_url": "https://v26-vvecloud.yangyi08.com/09c5e081d78d1b2c7737d8055ea608fb/6724c547/video/tos/cn/tos-cn-v-2cd6b0/oMAkAA5v0QvkNywiSqztjbItBAEZgi43boaAE/?a=7073&ch=0&cr=0&dr=0&&br=0&bt=0&ft=xztlUQhhe6BMyqO1UupJD12Nzj&mime_type=audio_mpeg&rc=QGlAYSNz&btag=80000000008000&dy_q=1730459447&l=202411011910316C45C0AF9BF5856858DA&format=mp3",
        "source_timerange": {
            "start_offset": 0,
            "end_offset": 3.3100000000000023
        },
        "target_timerange": {
            "start_offset": 271.27,
            "end_offset": 274.58
        },
        "ignore_audio": false,
        "audio_path": null
    },
    {
        "segment_id": "f28a146c984111ef880e3436ac12000c",
        "text": "切！别吹牛！那咱们就拭目以待喽！",
        "audio_url": "https://v3-vvecloud.yangyi08.com/a11fc95916239e20a261ba13a3e3b5b2/6724c547/video/tos/cn/tos-cn-v-2cd6b0/okEAkO5EyCWAKAjefvEFALIB5tGdqSAY4eMtzE/?a=7073&ch=0&cr=0&dr=0&&br=0&bt=0&ft=xztlUQhhe6BMyqO1UupJD12Nzj&mime_type=audio_mpeg&rc=QGlAYSNz&btag=80000000008000&dy_q=1730459447&l=202411011910316C45C0AF9BF5856858DA&format=mp3",
        "source_timerange": {
            "start_offset": 0,
            "end_offset": 4.569999999999993
        },
        "target_timerange": {
            "start_offset": 274.58,
            "end_offset": 279.15
        },
        "ignore_audio": false,
        "audio_path": null
    },
    {
        "segment_id": "f28a161a984111ef880e3436ac12000c",
        "text": "不过 我可耗不起了",
        "audio_url": "https://v6-vvecloud.yangyi08.com/d89e9bcce0d0d210a4778ab84171c91e/6724c547/video/tos/cn/tos-cn-v-2cd6b0/oUlMfCDJgtAAzFRZn2H2cACigEPkBVaEAAqLEf/?a=7073&ch=0&cr=0&dr=0&&br=0&bt=0&ft=xztlUQhhe6BMyqO1UupJD12Nzj&mime_type=audio_mpeg&rc=QGlAYSNz&btag=80000000008000&dy_q=1730459447&l=202411011910316C45C0AF9BF5856858DA&format=mp3",
        "source_timerange": {
            "start_offset": 0,
            "end_offset": 2.480000000000018
        },
        "target_timerange": {
            "start_offset": 279.15,
            "end_offset": 281.63
        },
        "ignore_audio": false,
        "audio_path": null
    },
    {
        "segment_id": "f28a17dc984111ef880e3436ac12000c",
        "text": "我今年已经二十七了…她突然止住了话",
        "audio_url": "https://v9-vvecloud.yangyi08.com/6548ef6db2227cd7cd45fa901343fa35/6724c547/video/tos/cn/tos-cn-v-2cd6b0/oo3kgikviSaIzAyE4Ag5CQJAozZBA53T3EtNA/?a=7073&ch=0&cr=0&dr=0&&br=0&bt=0&ft=xztlUQhhe6BMyqO1UupJD12Nzj&mime_type=audio_mpeg&rc=QGlAYSNz&btag=80000000008000&dy_q=1730459447&l=202411011910316C45C0AF9BF5856858DA&format=mp3",
        "source_timerange": {
            "start_offset": 0,
            "end_offset": 2.9150000000000205
        },
        "target_timerange": {
            "start_offset": 281.63,
            "end_offset": 284.545
        },
        "ignore_audio": false,
        "audio_path": null
    },
    {
        "segment_id": "f28a1b88984111ef880e3436ac12000c",
        "text": "似乎不想给我这个还在上学的年轻人太大压力",
        "audio_url": "https://v9-vvecloud.yangyi08.com/6548ef6db2227cd7cd45fa901343fa35/6724c547/video/tos/cn/tos-cn-v-2cd6b0/oo3kgikviSaIzAyE4Ag5CQJAozZBA53T3EtNA/?a=7073&ch=0&cr=0&dr=0&&br=0&bt=0&ft=xztlUQhhe6BMyqO1UupJD12Nzj&mime_type=audio_mpeg&rc=QGlAYSNz&btag=80000000008000&dy_q=1730459447&l=202411011910316C45C0AF9BF5856858DA&format=mp3",
        "source_timerange": {
            "start_offset": 2.9150000000000205,
            "end_offset": 6.230000000000018
        },
        "target_timerange": {
            "start_offset": 284.545,
            "end_offset": 287.86
        },
        "ignore_audio": true,
        "audio_path": null
    },
    {
        "segment_id": "f28a1d40984111ef880e3436ac12000c",
        "text": "你放心 快则一年",
        "audio_url": "https://v3-vvecloud.yangyi08.com/a81097b2efdef19b2f40ed245ee7f79b/6724c547/video/tos/cn/tos-cn-v-2cd6b0/o0NmJC4mLCAyAEInBJFfABgfdb4AcaIoRAD2i2/?a=7073&ch=0&cr=0&dr=0&&br=0&bt=0&ft=xztlUQhhe6BMyqO1UupJD12Nzj&mime_type=audio_mpeg&rc=QGlAYSNz&btag=80000000008000&dy_q=1730459447&l=202411011910316C45C0AF9BF5856858DA&format=mp3",
        "source_timerange": {
            "start_offset": 0,
            "end_offset": 2.4499999999999886
        },
        "target_timerange": {
            "start_offset": 287.86,
            "end_offset": 290.31
        },
        "ignore_audio": false,
        "audio_path": null
    },
    {
        "segment_id": "f28a1eee984111ef880e3436ac12000c",
        "text": "短则三五年 我一定会小有成就的",
        "audio_url": "https://v6-vvecloud.yangyi08.com/f4b9d773c92e2d412176c25a33501b25/6724c547/video/tos/cn/tos-cn-v-2cd6b0/oYEkEAAARteJCaDn2FAdftnGXcki2EAgC0LzBt/?a=7073&ch=0&cr=0&dr=0&&br=0&bt=0&ft=xztlUQhhe6BMyqO1UupJD12Nzj&mime_type=audio_mpeg&rc=QGlAYSNz&btag=80000000008000&dy_q=1730459447&l=202411011910316C45C0AF9BF5856858DA&format=mp3",
        "source_timerange": {
            "start_offset": 0,
            "end_offset": 2.805000000000007
        },
        "target_timerange": {
            "start_offset": 290.31,
            "end_offset": 293.115
        },
        "ignore_audio": false,
        "audio_path": null
    },
    {
        "segment_id": "f28a20a6984111ef880e3436ac12000c",
        "text": "我坚定地说 心中暗暗发誓 前世辜负她太多了",
        "audio_url": "https://v6-vvecloud.yangyi08.com/f4b9d773c92e2d412176c25a33501b25/6724c547/video/tos/cn/tos-cn-v-2cd6b0/oYEkEAAARteJCaDn2FAdftnGXcki2EAgC0LzBt/?a=7073&ch=0&cr=0&dr=0&&br=0&bt=0&ft=xztlUQhhe6BMyqO1UupJD12Nzj&mime_type=audio_mpeg&rc=QGlAYSNz&btag=80000000008000&dy_q=1730459447&l=202411011910316C45C0AF9BF5856858DA&format=mp3",
        "source_timerange": {
            "start_offset": 2.805000000000007,
            "end_offset": 6.949999999999989
        },
        "target_timerange": {
            "start_offset": 293.115,
            "end_offset": 297.26
        },
        "ignore_audio": true,
        "audio_path": null
    },
    {
        "segment_id": "f28a2272984111ef880e3436ac12000c",
        "text": "这一世我一定要为她付出更多",
        "audio_url": "https://v3-vvecloud.yangyi08.com/ec2251cd79cd444ac213f350712dfe63/6724c547/video/tos/cn/tos-cn-v-2cd6b0/osv92fD2IFCcIuBJIAECAbiAAnL0fRzJn5mBgg/?a=7073&ch=0&cr=0&dr=0&&br=0&bt=0&ft=xztlUQhhe6BMyqO1UupJD12Nzj&mime_type=audio_mpeg&rc=QGlAYSNz&btag=80000000008000&dy_q=1730459447&l=202411011910316C45C0AF9BF5856858DA&format=mp3",
        "source_timerange": {
            "start_offset": 0,
            "end_offset": 2.920000000000016
        },
        "target_timerange": {
            "start_offset": 297.26,
            "end_offset": 300.18
        },
        "ignore_audio": false,
        "audio_path": null
    },
    {
        "segment_id": "f28a242a984111ef880e3436ac12000c",
        "text": "“能不能先把我松开 勒得我快喘不过气来了！”",
        "audio_url": "https://v26-vvecloud.yangyi08.com/708cdc04be8b1a6aa49104ba08d4b977/6724c547/video/tos/cn/tos-cn-v-2cd6b0/ogzEaivUZANIgCBES0FQA3kgAoA9ykant3AiB/?a=7073&ch=0&cr=0&dr=0&&br=0&bt=0&ft=xztlUQhhe6BMyqO1UupJD12Nzj&mime_type=audio_mpeg&rc=QGlAYSNz&btag=80000000008000&dy_q=1730459447&l=202411011910316C45C0AF9BF5856858DA&format=mp3",
        "source_timerange": {
            "start_offset": 0,
            "end_offset": 3.634999999999991
        },
        "target_timerange": {
            "start_offset": 300.18,
            "end_offset": 303.815
        },
        "ignore_audio": false,
        "audio_path": null
    },
    {
        "segment_id": "f28a25e2984111ef880e3436ac12000c",
        "text": "她的脸红得像个苹果",
        "audio_url": "https://v26-vvecloud.yangyi08.com/708cdc04be8b1a6aa49104ba08d4b977/6724c547/video/tos/cn/tos-cn-v-2cd6b0/ogzEaivUZANIgCBES0FQA3kgAoA9ykant3AiB/?a=7073&ch=0&cr=0&dr=0&&br=0&bt=0&ft=xztlUQhhe6BMyqO1UupJD12Nzj&mime_type=audio_mpeg&rc=QGlAYSNz&btag=80000000008000&dy_q=1730459447&l=202411011910316C45C0AF9BF5856858DA&format=mp3",
        "source_timerange": {
            "start_offset": 3.634999999999991,
            "end_offset": 5.2900000000000205
        },
        "target_timerange": {
            "start_offset": 303.815,
            "end_offset": 305.47
        },
        "ignore_audio": true,
        "audio_path": null
    },
    {
        "segment_id": "f28a2790984111ef880e3436ac12000c",
        "text": "我抱着她 似乎感受到了她的心跳加速",
        "audio_url": "https://v3-vvecloud.yangyi08.com/78dec01d2d87cb2bfd508c7a14fbce99/6724c547/video/tos/cn/tos-cn-v-2cd6b0/ogAIbL7JDIBmSJwcCTFACBR3uBfwnAAIEeghiJ/?a=7073&ch=0&cr=0&dr=0&&br=0&bt=0&ft=xztlUQhhe6BMyqO1UupJD12Nzj&mime_type=audio_mpeg&rc=QGlAYSNz&btag=80000000008000&dy_q=1730459447&l=202411011910316C45C0AF9BF5856858DA&format=mp3",
        "source_timerange": {
            "start_offset": 0,
            "end_offset": 3.7099999999999795
        },
        "target_timerange": {
            "start_offset": 305.47,
            "end_offset": 309.18
        },
        "ignore_audio": false,
        "audio_path": null
    },
    {
        "segment_id": "f28a2948984111ef880e3436ac12000c",
        "text": "我却不想轻易放开她 摇晃着双臂 调皮地说：",
        "audio_url": "https://v9-vvecloud.yangyi08.com/82d751ce6eb8034793365fab39412de5/6724c547/video/tos/cn/tos-cn-v-2cd6b0/o8AAifEIIAgn3WJfxbFCJIB1amcyAiCBDBLRAw/?a=7073&ch=0&cr=0&dr=0&&br=0&bt=0&ft=xztlUQhhe6BMyqO1UupJD12Nzj&mime_type=audio_mpeg&rc=QGlAYSNz&btag=80000000008000&dy_q=1730459447&l=202411011910316C45C0AF9BF5856858DA&format=mp3",
        "source_timerange": {
            "start_offset": 0,
            "end_offset": 4.5400000000000205
        },
        "target_timerange": {
            "start_offset": 309.18,
            "end_offset": 313.72
        },
        "ignore_audio": false,
        "audio_path": null
    },
    {
        "segment_id": "f28a2b50984111ef880e3436ac12000c",
        "text": "不放！我就喜欢抱着你 我以后要多抱你！快放开！",
        "audio_url": "https://v9-vvecloud.yangyi08.com/6cf51f387fbece9fb97c78a1283708d9/6724c548/video/tos/cn/tos-cn-v-2cd6b0/ocBAAzskdrzEfATAyABljEbnhktIiuiQARUR6j/?a=7073&ch=0&cr=0&dr=0&&br=0&bt=0&ft=xztlUQhhe6BMyqd1UupJD12Nzj&mime_type=audio_mpeg&rc=QGlAYSNz&btag=80000000008000&dy_q=1730459448&l=202411011910316C45C0AF9BF5856858DA&format=mp3",
        "source_timerange": {
            "start_offset": 0,
            "end_offset": 5.259999999999991
        },
        "target_timerange": {
            "start_offset": 313.72,
            "end_offset": 318.98
        },
        "ignore_audio": false,
        "audio_path": null
    },
    {
        "segment_id": "f28a2d1c984111ef880e3436ac12000c",
        "text": "都还没吃饭呢！她的声音带着紧张",
        "audio_url": "https://v26-vvecloud.yangyi08.com/03d1f5cb92b75fc81d04ec012e2d1f8b/6724c548/video/tos/cn/tos-cn-v-2cd6b0/ocmE8eWJ1AejG6AIA6mIFvCEbBSLIkVdOf55AB/?a=7073&ch=0&cr=0&dr=0&&br=0&bt=0&ft=xztlUQhhe6BMyqd1UupJD12Nzj&mime_type=audio_mpeg&rc=QGlAYSNz&btag=80000000008000&dy_q=1730459448&l=202411011910316C45C0AF9BF5856858DA&format=mp3",
        "source_timerange": {
            "start_offset": 0,
            "end_offset": 3.6399999999999864
        },
        "target_timerange": {
            "start_offset": 318.98,
            "end_offset": 322.62
        },
        "ignore_audio": false,
        "audio_path": null
    },
    {
        "segment_id": "f28a2ec0984111ef880e3436ac12000c",
        "text": "显然是被我的举动弄得越来越慌乱",
        "audio_url": "https://v26-vvecloud.yangyi08.com/df2e4ab673c5a7c7167df2b7ddea9465/6724c548/video/tos/cn/tos-cn-v-2cd6b0/osBAAzdkc3zEfAAA1ABlgEbIhktIiuiQA6FRNS/?a=7073&ch=0&cr=0&dr=0&&br=0&bt=0&ft=xztlUQhhe6BMyqd1UupJD12Nzj&mime_type=audio_mpeg&rc=QGlAYSNz&btag=80000000008000&dy_q=1730459448&l=202411011910316C45C0AF9BF5856858DA&format=mp3",
        "source_timerange": {
            "start_offset": 0,
            "end_offset": 3.2799999999999727
        },
        "target_timerange": {
            "start_offset": 322.62,
            "end_offset": 325.9
        },
        "ignore_audio": false,
        "audio_path": null
    },
    {
        "segment_id": "f28a3064984111ef880e3436ac12000c",
        "text": "“你饿啦！”",
        "audio_url": "https://v26-vvecloud.yangyi08.com/59596aa36b2a42077597949d558229dd/6724c547/video/tos/cn/tos-cn-v-2cd6b0/oAx3cpA6EEDxdbAALtnikDzBJEkxCyAfgCeFAR/?a=7073&ch=0&cr=0&dr=0&&br=0&bt=0&ft=xztlUQhhe6BMyqO1UupJD12Nzj&mime_type=audio_mpeg&rc=QGlAYSNz&btag=80000000008000&dy_q=1730459447&l=202411011910316C45C0AF9BF5856858DA&format=mp3",
        "source_timerange": {
            "start_offset": 0,
            "end_offset": 0.8650000000000091
        },
        "target_timerange": {
            "start_offset": 325.9,
            "end_offset": 326.765
        },
        "ignore_audio": false,
        "audio_path": null
    },
    {
        "segment_id": "f28a3208984111ef880e3436ac12000c",
        "text": "我忍不住放开了她 脑海中闪过一个主意：",
        "audio_url": "https://v26-vvecloud.yangyi08.com/59596aa36b2a42077597949d558229dd/6724c547/video/tos/cn/tos-cn-v-2cd6b0/oAx3cpA6EEDxdbAALtnikDzBJEkxCyAfgCeFAR/?a=7073&ch=0&cr=0&dr=0&&br=0&bt=0&ft=xztlUQhhe6BMyqO1UupJD12Nzj&mime_type=audio_mpeg&rc=QGlAYSNz&btag=80000000008000&dy_q=1730459447&l=202411011910316C45C0AF9BF5856858DA&format=mp3",
        "source_timerange": {
            "start_offset": 0.8650000000000091,
            "end_offset": 4.680000000000007
        },
        "target_timerange": {
            "start_offset": 326.765,
            "end_offset": 330.58
        },
        "ignore_audio": true,
        "audio_path": null
    },
    {
        "segment_id": "f28a33b6984111ef880e3436ac12000c",
        "text": "一会儿用完晚餐 咱们去电影房一起看看电影",
        "audio_url": "https://v3-vvecloud.yangyi08.com/0f6b3d71bb049aee7bb82a3e4a3fdd7c/6724c547/video/tos/cn/tos-cn-v-2cd6b0/oQ6iItBnAgAIfBRkAE4mfARCJ3BDJFwcLC8bQi/?a=7073&ch=0&cr=0&dr=0&&br=0&bt=0&ft=xztlUQhhe6BMyqO1UupJD12Nzj&mime_type=audio_mpeg&rc=QGlAYSNz&btag=80000000008000&dy_q=1730459447&l=202411011910316C45C0AF9BF5856858DA&format=mp3",
        "source_timerange": {
            "start_offset": 0,
            "end_offset": 3.8249999999999886
        },
        "target_timerange": {
            "start_offset": 330.58,
            "end_offset": 334.405
        },
        "ignore_audio": false,
        "audio_path": null
    },
    {
        "segment_id": "f28a3578984111ef880e3436ac12000c",
        "text": "“好！”她没有拒绝 转身奔向房间换衣服",
        "audio_url": "https://v3-vvecloud.yangyi08.com/0f6b3d71bb049aee7bb82a3e4a3fdd7c/6724c547/video/tos/cn/tos-cn-v-2cd6b0/oQ6iItBnAgAIfBRkAE4mfARCJ3BDJFwcLC8bQi/?a=7073&ch=0&cr=0&dr=0&&br=0&bt=0&ft=xztlUQhhe6BMyqO1UupJD12Nzj&mime_type=audio_mpeg&rc=QGlAYSNz&btag=80000000008000&dy_q=1730459447&l=202411011910316C45C0AF9BF5856858DA&format=mp3",
        "source_timerange": {
            "start_offset": 3.8249999999999886,
            "end_offset": 7.449999999999989
        },
        "target_timerange": {
            "start_offset": 334.405,
            "end_offset": 338.03
        },
        "ignore_audio": true,
        "audio_path": null
    },
    {
        "segment_id": "f28a373a984111ef880e3436ac12000c",
        "text": "心中暗自期待着我们的约会",
        "audio_url": "https://v9-vvecloud.yangyi08.com/b29a0e1c885fb62d8d30b38a2835c9ce/6724c548/video/tos/cn/tos-cn-v-2cd6b0/owdyiAJERCPfgcBQbgALeIAJICVnHuDRy3mAFB/?a=7073&ch=0&cr=0&dr=0&&br=0&bt=0&ft=xztlUQhhe6BMyqd1UupJD12Nzj&mime_type=audio_mpeg&rc=QGlAYSNz&btag=80000000008000&dy_q=1730459448&l=202411011910316C45C0AF9BF5856858DA&format=mp3",
        "source_timerange": {
            "start_offset": 0,
            "end_offset": 2.6300000000000523
        },
        "target_timerange": {
            "start_offset": 338.03,
            "end_offset": 340.66
        },
        "ignore_audio": false,
        "audio_path": null
    }
]