[
    {
        "segment_id": "c5f44b00984311ef8fab71120292016a",
        "text": "秦霜也没想到代红伟会来 原本很是棘手的问题",
        "audio_url": "https://v3-vvecloud.yangyi08.com/01fc1761bdf1dab7b48d43b27422986e/6724c855/video/tos/cn/tos-cn-v-2cd6b0/o4rREsrBIPAkZiyQAEuASoUAZAk3xk6QViTIc/?a=7073&ch=0&cr=0&dr=0&&br=0&bt=0&ft=xztlUQhhe6BMyquNUupJD12Nzj&mime_type=audio_mpeg&rc=QGlAYSNz&btag=c0000000008000&dy_q=1730460229&l=20241101192331A16A97A36093DC99A197&format=mp3",
        "source_timerange": {
            "start_offset": 0,
            "end_offset": 4.61
        },
        "target_timerange": {
            "start_offset": 0,
            "end_offset": 4.61
        },
        "ignore_audio": false,
        "audio_path": null
    },
    {
        "segment_id": "c5f44f1a984311ef8fab71120292016a",
        "text": "竟然顺利解决了！之前漫天要价的村民也散去了",
        "audio_url": "https://v26-vvecloud.yangyi08.com/c6f8818873f5ccdd6a7d177ec4b8b5d7/6724c855/video/tos/cn/tos-cn-v-2cd6b0/oQXAEIRMri8ZuAkT5SZRP2k6AykAoiHEccQBA/?a=7073&ch=0&cr=0&dr=0&&br=0&bt=0&ft=xztlUQhhe6BMyquNUupJD12Nzj&mime_type=audio_mpeg&rc=QGlAYSNz&btag=c0000000008000&dy_q=1730460229&l=20241101192331A16A97A36093DC99A197&format=mp3",
        "source_timerange": {
            "start_offset": 0,
            "end_offset": 4.72
        },
        "target_timerange": {
            "start_offset": 4.61,
            "end_offset": 9.33
        },
        "ignore_audio": false,
        "audio_path": null
    },
    {
        "segment_id": "c5f4512c984311ef8fab71120292016a",
        "text": "她对代红伟有一丝感激 也有一丝愧疚",
        "audio_url": "https://v26-vvecloud.yangyi08.com/4a102864266fd48c1badeffd7ee6a85d/6724c855/video/tos/cn/tos-cn-v-2cd6b0/ooItiAZuB4Ad6Zk7ykTikAiEoZRPjKUEASAQQ/?a=7073&ch=0&cr=0&dr=0&&br=0&bt=0&ft=xztlUQhhe6BMyquNUupJD12Nzj&mime_type=audio_mpeg&rc=QGlAYSNz&btag=c0000000008000&dy_q=1730460229&l=20241101192331A16A97A36093DC99A197&format=mp3",
        "source_timerange": {
            "start_offset": 0,
            "end_offset": 3.67
        },
        "target_timerange": {
            "start_offset": 9.33,
            "end_offset": 13
        },
        "ignore_audio": false,
        "audio_path": null
    },
    {
        "segment_id": "c5f4535c984311ef8fab71120292016a",
        "text": "毕竟她知道他是在追求自己",
        "audio_url": "https://v26-vvecloud.yangyi08.com/c5dfa908adabb5a23ce67c50a2a43eab/6724c856/video/tos/cn/tos-cn-v-2cd6b0/oIQPQ6olWkBEkITJQAARRi51EAkyuiEZASvAH/?a=7073&ch=0&cr=0&dr=0&&br=0&bt=0&ft=xztlUQhhe6BMyqVNUupJD12Nzj&mime_type=audio_mpeg&rc=QGlAYSNz&btag=c0000000008000&dy_q=1730460230&l=20241101192331A16A97A36093DC99A197&format=mp3",
        "source_timerange": {
            "start_offset": 0,
            "end_offset": 2.59
        },
        "target_timerange": {
            "start_offset": 13,
            "end_offset": 15.59
        },
        "ignore_audio": false,
        "audio_path": null
    },
    {
        "segment_id": "c5f455a0984311ef8fab71120292016a",
        "text": "而她还拿史金来刺激他",
        "audio_url": "https://v6-vvecloud.yangyi08.com/95195807c76d579189b6ae8f93db97e0/6724c855/video/tos/cn/tos-cn-v-2cd6b0/okXEbSAAeLv9FCaAfOqJjRAASIEBeBYGEkukSu/?a=7073&ch=0&cr=0&dr=0&&br=0&bt=0&ft=xztlUQhhe6BMyquNUupJD12Nzj&mime_type=audio_mpeg&rc=QGlAYSNz&btag=c0000000008000&dy_q=1730460229&l=20241101192331A16A97A36093DC99A197&format=mp3",
        "source_timerange": {
            "start_offset": 0,
            "end_offset": 2.5599999999999987
        },
        "target_timerange": {
            "start_offset": 15.59,
            "end_offset": 18.15
        },
        "ignore_audio": false,
        "audio_path": null
    },
    {
        "segment_id": "c5f45852984311ef8fab71120292016a",
        "text": "但秦霜决定 有些事还是要讲清楚",
        "audio_url": "https://v26-vvecloud.yangyi08.com/1e868c0a8a9a671bf03e9c89f987de87/6724c855/video/tos/cn/tos-cn-v-2cd6b0/oAZRuAQ0cE1ko3EAyIkiTQ5SBPWaAAikoN7A6/?a=7073&ch=0&cr=0&dr=0&&br=0&bt=0&ft=xztlUQhhe6BMyquNUupJD12Nzj&mime_type=audio_mpeg&rc=QGlAYSNz&btag=c0000000008000&dy_q=1730460229&l=20241101192331A16A97A36093DC99A197&format=mp3",
        "source_timerange": {
            "start_offset": 0,
            "end_offset": 3.8200000000000003
        },
        "target_timerange": {
            "start_offset": 18.15,
            "end_offset": 21.97
        },
        "ignore_audio": false,
        "audio_path": null
    },
    {
        "segment_id": "c5f45a3c984311ef8fab71120292016a",
        "text": "免得代红伟一直纠缠着不放",
        "audio_url": "https://v3-vvecloud.yangyi08.com/4f47874d885852903a235aeea796d706/6724c856/video/tos/cn/tos-cn-v-2cd6b0/oMDIAE4ApIdJEFei6NgfBvJIEhAyBRgwJnILCA/?a=7073&ch=0&cr=0&dr=0&&br=0&bt=0&ft=xztlUQhhe6BMyqVNUupJD12Nzj&mime_type=audio_mpeg&rc=QGlAYSNz&btag=c0000000008000&dy_q=1730460230&l=20241101192331A16A97A36093DC99A197&format=mp3",
        "source_timerange": {
            "start_offset": 0,
            "end_offset": 2.700000000000003
        },
        "target_timerange": {
            "start_offset": 21.97,
            "end_offset": 24.67
        },
        "ignore_audio": false,
        "audio_path": null
    },
    {
        "segment_id": "c5f45c12984311ef8fab71120292016a",
        "text": "对他与她都没有任何好处",
        "audio_url": "https://v26-vvecloud.yangyi08.com/9344b600cf0581ff53876d690633b3d2/6724c858/video/tos/cn/tos-cn-v-2cd6b0/owEi6jExkikRQlTgAuAScIT6AnBZtoAZkyoPA/?a=7073&ch=0&cr=0&dr=0&&br=62&bt=62&ds=5&ft=xztlUQhhe6BMyqVNUupJD12Nzj&mime_type=audio_mpeg&qs=13&rc=ajttdWs5cmtldjMzNDdkM0BpajttdWs5cmtldjMzNDdkM0BmaV9lMmQ0aGZgLS1kL2FzYSNmaV9lMmQ0aGZgLS1kL2Fzcw%3D%3D&btag=c0000000008000&dy_q=1730460230&l=20241101192331A16A97A36093DC99A197&format=mp3",
        "source_timerange": {
            "start_offset": 0,
            "end_offset": 2.5599999999999987
        },
        "target_timerange": {
            "start_offset": 24.67,
            "end_offset": 27.23
        },
        "ignore_audio": false,
        "audio_path": null
    },
    {
        "segment_id": "c5f45df2984311ef8fab71120292016a",
        "text": "我送你回去吧！",
        "audio_url": "https://v9-vvecloud.yangyi08.com/756f50f14f83d737d906c1b7874e7f36/6724c855/video/tos/cn/tos-cn-v-2cd6b0/owZAoTyASRBlikuEA6ktkQzAk8uEAPiI6T0RA/?a=7073&ch=0&cr=0&dr=0&&br=0&bt=0&ft=xztlUQhhe6BMyquNUupJD12Nzj&mime_type=audio_mpeg&rc=QGlAYSNz&btag=c0000000008000&dy_q=1730460229&l=20241101192331A16A97A36093DC99A197&format=mp3",
        "source_timerange": {
            "start_offset": 0,
            "end_offset": 1.7300000000000004
        },
        "target_timerange": {
            "start_offset": 27.23,
            "end_offset": 28.96
        },
        "ignore_audio": false,
        "audio_path": null
    },
    {
        "segment_id": "c5f45fc8984311ef8fab71120292016a",
        "text": "这么晚了 以防还有一些暴民暗中搞什么鬼！",
        "audio_url": "https://v9-vvecloud.yangyi08.com/414835f73846f482198734d3013f6d3b/6724c856/video/tos/cn/tos-cn-v-2cd6b0/o0AARTIEEBAOJQSeOuLakbAeIkSK2EFeGCXjA1/?a=7073&ch=0&cr=0&dr=0&&br=0&bt=0&ft=xztlUQhhe6BMyqVNUupJD12Nzj&mime_type=audio_mpeg&rc=QGlAYSNz&btag=c0000000008000&dy_q=1730460230&l=20241101192331A16A97A36093DC99A197&format=mp3",
        "source_timerange": {
            "start_offset": 0,
            "end_offset": 3.6850000000000023
        },
        "target_timerange": {
            "start_offset": 28.96,
            "end_offset": 32.645
        },
        "ignore_audio": false,
        "audio_path": null
    },
    {
        "segment_id": "c5f461b2984311ef8fab71120292016a",
        "text": "代红伟谦逊地说道 他此刻表现得很是绅士",
        "audio_url": "https://v9-vvecloud.yangyi08.com/414835f73846f482198734d3013f6d3b/6724c856/video/tos/cn/tos-cn-v-2cd6b0/o0AARTIEEBAOJQSeOuLakbAeIkSK2EFeGCXjA1/?a=7073&ch=0&cr=0&dr=0&&br=0&bt=0&ft=xztlUQhhe6BMyqVNUupJD12Nzj&mime_type=audio_mpeg&rc=QGlAYSNz&btag=c0000000008000&dy_q=1730460230&l=20241101192331A16A97A36093DC99A197&format=mp3",
        "source_timerange": {
            "start_offset": 3.6850000000000023,
            "end_offset": 7.310000000000002
        },
        "target_timerange": {
            "start_offset": 32.645,
            "end_offset": 36.27
        },
        "ignore_audio": true,
        "audio_path": null
    },
    {
        "segment_id": "c5f46464984311ef8fab71120292016a",
        "text": "高丽梅见状 打趣道：",
        "audio_url": "https://v3-vvecloud.yangyi08.com/34ba599b7de91e6273df518f305b3b47/6724c856/video/tos/cn/tos-cn-v-2cd6b0/ooSDiTuAiAAYkQkAIkAB3XZUSoETPBVPREk6y/?a=7073&ch=0&cr=0&dr=0&&br=0&bt=0&ft=xztlUQhhe6BMyqVNUupJD12Nzj&mime_type=audio_mpeg&rc=QGlAYSNz&btag=c0000000008000&dy_q=1730460230&l=20241101192331A16A97A36093DC99A197&format=mp3",
        "source_timerange": {
            "start_offset": 0,
            "end_offset": 2.6599999999999966
        },
        "target_timerange": {
            "start_offset": 36.27,
            "end_offset": 38.93
        },
        "ignore_audio": false,
        "audio_path": null
    },
    {
        "segment_id": "c5f468ec984311ef8fab71120292016a",
        "text": "“霜 代少绅士有礼 你们真是郎才女貌啊！”",
        "audio_url": "https://v6-vvecloud.yangyi08.com/714d7e35429c76e08bbe46fd712815f1/6724c856/video/tos/cn/tos-cn-v-2cd6b0/oEPQjIqZ1ouqw6kBA3k6EkRRTuSA0yQiAEAAi/?a=7073&ch=0&cr=0&dr=0&&br=0&bt=0&ft=xztlUQhhe6BMyqVNUupJD12Nzj&mime_type=audio_mpeg&rc=QGlAYSNz&btag=c0000000008000&dy_q=1730460230&l=20241101192331A16A97A36093DC99A197&format=mp3",
        "source_timerange": {
            "start_offset": 0,
            "end_offset": 4.280000000000001
        },
        "target_timerange": {
            "start_offset": 38.93,
            "end_offset": 43.21
        },
        "ignore_audio": false,
        "audio_path": null
    },
    {
        "segment_id": "c5f46e32984311ef8fab71120292016a",
        "text": "代红伟闻言 只是淡然一笑 期待地看向秦霜",
        "audio_url": "https://v3-vvecloud.yangyi08.com/9e9c4b7b0f9a09aa288c91930278c97d/6724c856/video/tos/cn/tos-cn-v-2cd6b0/oUQ1AefDNE8vRBniyuyqAJTLkBkCDEpAFAAEEg/?a=7073&ch=0&cr=0&dr=0&&br=0&bt=0&ft=xztlUQhhe6BMyqVNUupJD12Nzj&mime_type=audio_mpeg&rc=QGlAYSNz&btag=c0000000008000&dy_q=1730460230&l=20241101192331A16A97A36093DC99A197&format=mp3",
        "source_timerange": {
            "start_offset": 0,
            "end_offset": 4.719999999999999
        },
        "target_timerange": {
            "start_offset": 43.21,
            "end_offset": 47.93
        },
        "ignore_audio": false,
        "audio_path": null
    },
    {
        "segment_id": "c5f47436984311ef8fab71120292016a",
        "text": "秦霜却是俏脸一红 骂道：我的大警花",
        "audio_url": "https://v26-vvecloud.yangyi08.com/9b2cfcb3e748be52959af18d21d50f68/6724c856/video/tos/cn/tos-cn-v-2cd6b0/o0TPKERQGEIwAATAwyA6RANiBySSZoukiThkk/?a=7073&ch=0&cr=0&dr=0&&br=0&bt=0&ft=xztlUQhhe6BMyqVNUupJD12Nzj&mime_type=audio_mpeg&rc=QGlAYSNz&btag=c0000000008000&dy_q=1730460230&l=20241101192331A16A97A36093DC99A197&format=mp3",
        "source_timerange": {
            "start_offset": 0,
            "end_offset": 4.18
        },
        "target_timerange": {
            "start_offset": 47.93,
            "end_offset": 52.11
        },
        "ignore_audio": false,
        "audio_path": null
    },
    {
        "segment_id": "c5f47a4e984311ef8fab71120292016a",
        "text": "你就别乱点鸳鸯谱了！",
        "audio_url": "https://v26-vvecloud.yangyi08.com/b72d76dbfa0fa7a766a0bc77da4553ba/6724c856/video/tos/cn/tos-cn-v-2cd6b0/ooAoSkPQi6TRSEIyAAEAikiJKAkRZRQuQB79i/?a=7073&ch=0&cr=0&dr=0&&br=0&bt=0&ft=xztlUQhhe6BMyqVNUupJD12Nzj&mime_type=audio_mpeg&rc=QGlAYSNz&btag=c0000000008000&dy_q=1730460230&l=20241101192331A16A97A36093DC99A197&format=mp3",
        "source_timerange": {
            "start_offset": 0,
            "end_offset": 2.270000000000003
        },
        "target_timerange": {
            "start_offset": 52.11,
            "end_offset": 54.38
        },
        "ignore_audio": false,
        "audio_path": null
    },
    {
        "segment_id": "c5f48066984311ef8fab71120292016a",
        "text": "你也不小了 别整天跟个男人似的 该嫁人了！",
        "audio_url": "https://v9-vvecloud.yangyi08.com/1e043a5e4ec1c8d4f5f64a0d451a373d/6724c855/video/tos/cn/tos-cn-v-2cd6b0/owBIiAfwEFCsmJAgIRkDNEyoLvdAp2nJiAEfBI/?a=7073&ch=0&cr=0&dr=0&&br=0&bt=0&ft=xztlUQhhe6BMyquNUupJD12Nzj&mime_type=audio_mpeg&rc=QGlAYSNz&btag=c0000000008000&dy_q=1730460229&l=20241101192331A16A97A36093DC99A197&format=mp3",
        "source_timerange": {
            "start_offset": 0,
            "end_offset": 4.359999999999999
        },
        "target_timerange": {
            "start_offset": 54.38,
            "end_offset": 58.74
        },
        "ignore_audio": false,
        "audio_path": null
    },
    {
        "segment_id": "c5f486e2984311ef8fab71120292016a",
        "text": "高丽梅见状 将傲人的身材一挺",
        "audio_url": "https://v6-vvecloud.yangyi08.com/64a104a6086387583a940d8037505473/6724c855/video/tos/cn/tos-cn-v-2cd6b0/oMEZkyuAiPhiSRBEA8GCQkoA6ItCARicKkSAT/?a=7073&ch=0&cr=0&dr=0&&br=0&bt=0&ft=xztlUQhhe6BMyquNUupJD12Nzj&mime_type=audio_mpeg&rc=QGlAYSNz&btag=c0000000008000&dy_q=1730460229&l=20241101192331A16A97A36093DC99A197&format=mp3",
        "source_timerange": {
            "start_offset": 0,
            "end_offset": 3.3500000000000014
        },
        "target_timerange": {
            "start_offset": 58.74,
            "end_offset": 62.09
        },
        "ignore_audio": false,
        "audio_path": null
    },
    {
        "segment_id": "c5f48d9a984311ef8fab71120292016a",
        "text": "高傲地道：“这天下男人 有几个配得上我的？”",
        "audio_url": "https://v6-vvecloud.yangyi08.com/3f0ffb8ce5d02f845213d504f0182bd0/6724c855/video/tos/cn/tos-cn-v-2cd6b0/okucxYkTiIMyoXmAPbA6iAQdTkkSAEREQZBA8/?a=7073&ch=0&cr=0&dr=0&&br=0&bt=0&ft=xztlUQhhe6BMyquNUupJD12Nzj&mime_type=audio_mpeg&rc=QGlAYSNz&btag=c0000000008000&dy_q=1730460229&l=20241101192331A16A97A36093DC99A197&format=mp3",
        "source_timerange": {
            "start_offset": 0,
            "end_offset": 4.280000000000001
        },
        "target_timerange": {
            "start_offset": 62.09,
            "end_offset": 66.37
        },
        "ignore_audio": false,
        "audio_path": null
    },
    {
        "segment_id": "c5f493ee984311ef8fab71120292016a",
        "text": "秦霜无语地白了她一眼 道：别太挑了",
        "audio_url": "https://v6-vvecloud.yangyi08.com/d96602279c0d377d3564231b6a1c40fd/6724c856/video/tos/cn/tos-cn-v-2cd6b0/oQEDnJAySfELiBmTRTpAApACEANkkBAEAgfFRu/?a=7073&ch=0&cr=0&dr=0&&br=0&bt=0&ft=xztlUQhhe6BMyqVNUupJD12Nzj&mime_type=audio_mpeg&rc=QGlAYSNz&btag=c0000000008000&dy_q=1730460230&l=20241101192331A16A97A36093DC99A197&format=mp3",
        "source_timerange": {
            "start_offset": 0,
            "end_offset": 4
        },
        "target_timerange": {
            "start_offset": 66.37,
            "end_offset": 70.37
        },
        "ignore_audio": false,
        "audio_path": null
    },
    {
        "segment_id": "c5f49a88984311ef8fab71120292016a",
        "text": "再挑就成老女人了！",
        "audio_url": "https://v26-vvecloud.yangyi08.com/2be3031fe55abaa3221070b7535cbf23/6724c855/video/tos/cn/tos-cn-v-2cd6b0/oI6VATBBTkIMQA0AAEPokWR6jyUuEAJikiZSx/?a=7073&ch=0&cr=0&dr=0&&br=0&bt=0&ft=xztlUQhhe6BMyquNUupJD12Nzj&mime_type=audio_mpeg&rc=QGlAYSNz&btag=c0000000008000&dy_q=1730460229&l=20241101192331A16A97A36093DC99A197&format=mp3",
        "source_timerange": {
            "start_offset": 0,
            "end_offset": 2.1999999999999886
        },
        "target_timerange": {
            "start_offset": 70.37,
            "end_offset": 72.57
        },
        "ignore_audio": false,
        "audio_path": null
    },
    {
        "segment_id": "c5f4a078984311ef8fab71120292016a",
        "text": "高丽梅反唇相讥道：",
        "audio_url": "https://v3-vvecloud.yangyi08.com/c5f0c2028ab05040de60822c6336d49c/6724c856/video/tos/cn/tos-cn-v-2cd6b0/oUxUuZikkRu4EAAR7Q6Io9TAAAySEkaRiBVPP/?a=7073&ch=0&cr=0&dr=0&&br=0&bt=0&ft=xztlUQhhe6BMyqVNUupJD12Nzj&mime_type=audio_mpeg&rc=QGlAYSNz&btag=c0000000008000&dy_q=1730460230&l=20241101192331A16A97A36093DC99A197&format=mp3",
        "source_timerange": {
            "start_offset": 0,
            "end_offset": 2.230000000000004
        },
        "target_timerange": {
            "start_offset": 72.57,
            "end_offset": 74.8
        },
        "ignore_audio": false,
        "audio_path": null
    },
    {
        "segment_id": "c5f4a4c4984311ef8fab71120292016a",
        "text": "别说我了 你比我大一岁 现在不还是单身",
        "audio_url": "https://v26-vvecloud.yangyi08.com/94a8ce81a171714eb3574ce7054d447e/6724c856/video/tos/cn/tos-cn-v-2cd6b0/oA5A3BQREAGTu9kPkyiIA1EARkS6ioZQugxAB/?a=7073&ch=0&cr=0&dr=0&&br=0&bt=0&ft=xztlUQhhe6BMyqVNUupJD12Nzj&mime_type=audio_mpeg&rc=QGlAYSNz&btag=c0000000008000&dy_q=1730460230&l=20241101192331A16A97A36093DC99A197&format=mp3",
        "source_timerange": {
            "start_offset": 0,
            "end_offset": 4.140000000000001
        },
        "target_timerange": {
            "start_offset": 74.8,
            "end_offset": 78.94
        },
        "ignore_audio": false,
        "audio_path": null
    },
    {
        "segment_id": "c5f4a758984311ef8fab71120292016a",
        "text": "我看代少对你一往情深 要不你就从了吧？",
        "audio_url": "https://v9-vvecloud.yangyi08.com/36cf779ee8aa78a5cc8d21813fc4ec38/6724c856/video/tos/cn/tos-cn-v-2cd6b0/oUoQkkZBixVuLRAkAAHAShQERC6PAyiRTIEkH/?a=7073&ch=0&cr=0&dr=0&&br=0&bt=0&ft=xztlUQhhe6BMyqVNUupJD12Nzj&mime_type=audio_mpeg&rc=QGlAYSNz&btag=c0000000008000&dy_q=1730460230&l=20241101192331A16A97A36093DC99A197&format=mp3",
        "source_timerange": {
            "start_offset": 0,
            "end_offset": 3.6400000000000006
        },
        "target_timerange": {
            "start_offset": 78.94,
            "end_offset": 82.58
        },
        "ignore_audio": false,
        "audio_path": null
    },
    {
        "segment_id": "c5f4a9e2984311ef8fab71120292016a",
        "text": "呸！什么叫从了？再说 我已经有喜欢的人了",
        "audio_url": "https://v6-vvecloud.yangyi08.com/aa70f56a22e4fd3fcf815ba78fc10921/6724c855/video/tos/cn/tos-cn-v-2cd6b0/oMQL66ykRRAABEnHkRPoZuATkiIAPiAEsTSR3/?a=7073&ch=0&cr=0&dr=0&&br=0&bt=0&ft=xztlUQhhe6BMyquNUupJD12Nzj&mime_type=audio_mpeg&rc=QGlAYSNz&btag=c0000000008000&dy_q=1730460229&l=20241101192331A16A97A36093DC99A197&format=mp3",
        "source_timerange": {
            "start_offset": 0,
            "end_offset": 5.439999999999998
        },
        "target_timerange": {
            "start_offset": 82.58,
            "end_offset": 88.02
        },
        "ignore_audio": false,
        "audio_path": null
    },
    {
        "segment_id": "c5f4ac80984311ef8fab71120292016a",
        "text": "我一直把代少当哥哥一样！秦霜看了一眼代红伟",
        "audio_url": "https://v9-vvecloud.yangyi08.com/5a87667e054d261e769746572d1b916b/6724c856/video/tos/cn/tos-cn-v-2cd6b0/oskA5RAliQ6ASvzyBIQmZBuiEAWokwAFPTEAk/?a=7073&ch=0&cr=0&dr=0&&br=0&bt=0&ft=xztlUQhhe6BMyqVNUupJD12Nzj&mime_type=audio_mpeg&rc=QGlAYSNz&btag=c0000000008000&dy_q=1730460230&l=20241101192331A16A97A36093DC99A197&format=mp3",
        "source_timerange": {
            "start_offset": 0,
            "end_offset": 4.25
        },
        "target_timerange": {
            "start_offset": 88.02,
            "end_offset": 92.27
        },
        "ignore_audio": false,
        "audio_path": null
    },
    {
        "segment_id": "c5f4af28984311ef8fab71120292016a",
        "text": "只见他的笑容有那么一丝僵硬",
        "audio_url": "https://v26-vvecloud.yangyi08.com/6e58d81cfe054b398d2c8bcd41775473/6724c855/video/tos/cn/tos-cn-v-2cd6b0/ogExiTuAiAAxgQkAIkAB1qZWSoESPUqAREk6y/?a=7073&ch=0&cr=0&dr=0&&br=0&bt=0&ft=xztlUQhhe6BMyquNUupJD12Nzj&mime_type=audio_mpeg&rc=QGlAYSNz&btag=c0000000008000&dy_q=1730460229&l=20241101192331A16A97A36093DC99A197&format=mp3",
        "source_timerange": {
            "start_offset": 0,
            "end_offset": 2.7700000000000102
        },
        "target_timerange": {
            "start_offset": 92.27,
            "end_offset": 95.04
        },
        "ignore_audio": false,
        "audio_path": null
    },
    {
        "segment_id": "c5f4b108984311ef8fab71120292016a",
        "text": "哟！铁树开花了啊！快告诉我 你喜欢的人是谁？",
        "audio_url": "https://v6-vvecloud.yangyi08.com/e822c9d2325d880633b9725ba2a2ed31/6724c855/video/tos/cn/tos-cn-v-2cd6b0/oQnANGkYEBMELCFRkAMEzkQAAJiegJfAOpuDEK/?a=7073&ch=0&cr=0&dr=0&&br=0&bt=0&ft=xztlUQhhe6BMyquNUupJD12Nzj&mime_type=audio_mpeg&rc=QGlAYSNz&btag=c0000000008000&dy_q=1730460229&l=20241101192331A16A97A36093DC99A197&format=mp3",
        "source_timerange": {
            "start_offset": 0,
            "end_offset": 5.1499999999999915
        },
        "target_timerange": {
            "start_offset": 95.04,
            "end_offset": 100.19
        },
        "ignore_audio": false,
        "audio_path": null
    },
    {
        "segment_id": "c5f4b2c0984311ef8fab71120292016a",
        "text": "别人你可以瞒着 但我你得把他给我介绍介绍",
        "audio_url": "https://v9-vvecloud.yangyi08.com/d5a9bc9bb7e960c8fbeebbf48309a150/6724c859/video/tos/cn/tos-cn-v-2cd6b0/okBPAiRASTBQkkYy6ZcQETbEAiQuAmoknYIA8/?a=7073&ch=0&cr=0&dr=0&&br=62&bt=62&ds=5&ft=xztlUQhhe6BMyqVNUupJD12Nzj&mime_type=audio_mpeg&qs=13&rc=MzlrOXY5cmtldjMzNDdkM0BpMzlrOXY5cmtldjMzNDdkM0BgazA1MmQ0aGZgLS1kL2FzYSNgazA1MmQ0aGZgLS1kL2Fzcw%3D%3D&btag=c0000000008000&dy_q=1730460230&l=20241101192331A16A97A36093DC99A197&format=mp3",
        "source_timerange": {
            "start_offset": 0,
            "end_offset": 3.8500000000000085
        },
        "target_timerange": {
            "start_offset": 100.19,
            "end_offset": 104.04
        },
        "ignore_audio": false,
        "audio_path": null
    },
    {
        "segment_id": "c5f4b464984311ef8fab71120292016a",
        "text": "让我帮你把把关",
        "audio_url": "https://v26-vvecloud.yangyi08.com/225dc100be3b678c9305a06138e74806/6724c855/video/tos/cn/tos-cn-v-2cd6b0/ocGISEAoPAuQwp4mAZMARkcTYAk6iiyTExBkM/?a=7073&ch=0&cr=0&dr=0&&br=0&bt=0&ft=xztlUQhhe6BMyquNUupJD12Nzj&mime_type=audio_mpeg&rc=QGlAYSNz&btag=c0000000008000&dy_q=1730460229&l=20241101192331A16A97A36093DC99A197&format=mp3",
        "source_timerange": {
            "start_offset": 0,
            "end_offset": 1.8699999999999903
        },
        "target_timerange": {
            "start_offset": 104.04,
            "end_offset": 105.91
        },
        "ignore_audio": false,
        "audio_path": null
    },
    {
        "segment_id": "c5f4b702984311ef8fab71120292016a",
        "text": "看他是不是冲着你秦家千金的身份来的",
        "audio_url": "https://v26-vvecloud.yangyi08.com/0f124f6a89038c8918c0a84714aaa499/6724c856/video/tos/cn/tos-cn-v-2cd6b0/ocEAknxiiBLAJgRxl3ECAFEApuDFIJAQefwEkN/?a=7073&ch=0&cr=0&dr=0&&br=0&bt=0&ft=xztlUQhhe6BMyqVNUupJD12Nzj&mime_type=audio_mpeg&rc=QGlAYSNz&btag=c0000000008000&dy_q=1730460230&l=20241101192331A16A97A36093DC99A197&format=mp3",
        "source_timerange": {
            "start_offset": 0,
            "end_offset": 2.6850000000000023
        },
        "target_timerange": {
            "start_offset": 105.91,
            "end_offset": 108.595
        },
        "ignore_audio": false,
        "audio_path": null
    },
    {
        "segment_id": "c5f4b900984311ef8fab71120292016a",
        "text": "高丽梅道",
        "audio_url": "https://v26-vvecloud.yangyi08.com/0f124f6a89038c8918c0a84714aaa499/6724c856/video/tos/cn/tos-cn-v-2cd6b0/ocEAknxiiBLAJgRxl3ECAFEApuDFIJAQefwEkN/?a=7073&ch=0&cr=0&dr=0&&br=0&bt=0&ft=xztlUQhhe6BMyqVNUupJD12Nzj&mime_type=audio_mpeg&rc=QGlAYSNz&btag=c0000000008000&dy_q=1730460230&l=20241101192331A16A97A36093DC99A197&format=mp3",
        "source_timerange": {
            "start_offset": 2.6850000000000023,
            "end_offset": 3.6000000000000085
        },
        "target_timerange": {
            "start_offset": 108.595,
            "end_offset": 109.51
        },
        "ignore_audio": true,
        "audio_path": null
    },
    {
        "segment_id": "c5f4ba9a984311ef8fab71120292016a",
        "text": "代红伟闻言 带着僵硬的笑容附和道：就是就是！",
        "audio_url": "https://v26-vvecloud.yangyi08.com/f66b50835d4cdd5b4f13c135c08838f6/6724c855/video/tos/cn/tos-cn-v-2cd6b0/oUAfLFpxCI6RmD6DI2dAElA2BfEiJnNNgABJI7/?a=7073&ch=0&cr=0&dr=0&&br=0&bt=0&ft=xztlUQhhe6BMyquNUupJD12Nzj&mime_type=audio_mpeg&rc=QGlAYSNz&btag=c0000000008000&dy_q=1730460229&l=20241101192331A16A97A36093DC99A197&format=mp3",
        "source_timerange": {
            "start_offset": 0,
            "end_offset": 4.569999999999993
        },
        "target_timerange": {
            "start_offset": 109.51,
            "end_offset": 114.08
        },
        "ignore_audio": false,
        "audio_path": null
    },
    {
        "segment_id": "c5f4bc34984311ef8fab71120292016a",
        "text": "改天给我们介绍介绍！",
        "audio_url": "https://v3-vvecloud.yangyi08.com/29720a4ce63f311a6a817fa32b25bcf7/6724c856/video/tos/cn/tos-cn-v-2cd6b0/oMQDFBY8LieAlApkEAAkEf9ENuJxnECbWADRgV/?a=7073&ch=0&cr=0&dr=0&&br=0&bt=0&ft=xztlUQhhe6BMyqVNUupJD12Nzj&mime_type=audio_mpeg&rc=QGlAYSNz&btag=c0000000008000&dy_q=1730460230&l=20241101192331A16A97A36093DC99A197&format=mp3",
        "source_timerange": {
            "start_offset": 0,
            "end_offset": 2.269999999999996
        },
        "target_timerange": {
            "start_offset": 114.08,
            "end_offset": 116.35
        },
        "ignore_audio": false,
        "audio_path": null
    },
    {
        "segment_id": "c5f4bdc4984311ef8fab71120292016a",
        "text": "呵呵 好的 一定 今天很晚了！",
        "audio_url": "https://v9-vvecloud.yangyi08.com/b129f4d703ec067dcdc13cf82f214c5b/6724c855/video/tos/cn/tos-cn-v-2cd6b0/o4QPR6oOtkBEkIT4GAARwij9vAkyuiEZASLAA/?a=7073&ch=0&cr=0&dr=0&&br=0&bt=0&ft=xztlUQhhe6BMyquNUupJD12Nzj&mime_type=audio_mpeg&rc=QGlAYSNz&btag=c0000000008000&dy_q=1730460229&l=20241101192331A16A97A36093DC99A197&format=mp3",
        "source_timerange": {
            "start_offset": 0,
            "end_offset": 3.8900000000000006
        },
        "target_timerange": {
            "start_offset": 116.35,
            "end_offset": 120.24
        },
        "ignore_audio": false,
        "audio_path": null
    },
    {
        "segment_id": "c5f4bf54984311ef8fab71120292016a",
        "text": "谢谢你们的帮助 改天设宴感谢你们！",
        "audio_url": "https://v3-vvecloud.yangyi08.com/e76fca39dfeaa3a756f1d96c43dd64f7/6724c855/video/tos/cn/tos-cn-v-2cd6b0/oMkmkgTE6BQQSAA2ZuAkPzEAioyiZEuRTISAX/?a=7073&ch=0&cr=0&dr=0&&br=0&bt=0&ft=xztlUQhhe6BMyquNUupJD12Nzj&mime_type=audio_mpeg&rc=QGlAYSNz&btag=c0000000008000&dy_q=1730460229&l=20241101192331A16A97A36093DC99A197&format=mp3",
        "source_timerange": {
            "start_offset": 0,
            "end_offset": 3.3950000000000102
        },
        "target_timerange": {
            "start_offset": 120.24,
            "end_offset": 123.635
        },
        "ignore_audio": false,
        "audio_path": null
    },
    {
        "segment_id": "c5f5122e984311ef8fab71120292016a",
        "text": "秦霜最近工作很忙 又没休息便赶到项目工地",
        "audio_url": "https://v3-vvecloud.yangyi08.com/e76fca39dfeaa3a756f1d96c43dd64f7/6724c855/video/tos/cn/tos-cn-v-2cd6b0/oMkmkgTE6BQQSAA2ZuAkPzEAioyiZEuRTISAX/?a=7073&ch=0&cr=0&dr=0&&br=0&bt=0&ft=xztlUQhhe6BMyquNUupJD12Nzj&mime_type=audio_mpeg&rc=QGlAYSNz&btag=c0000000008000&dy_q=1730460229&l=20241101192331A16A97A36093DC99A197&format=mp3",
        "source_timerange": {
            "start_offset": 3.3950000000000102,
            "end_offset": 7.450000000000003
        },
        "target_timerange": {
            "start_offset": 123.635,
            "end_offset": 127.69
        },
        "ignore_audio": true,
        "audio_path": null
    },
    {
        "segment_id": "c5f514c2984311ef8fab71120292016a",
        "text": "这一呆就是大半夜 眼看着天快亮了 她也很疲惫",
        "audio_url": "https://v3-vvecloud.yangyi08.com/0acc12b4d493e8dff3d721097ed9936a/6724c856/video/tos/cn/tos-cn-v-2cd6b0/oQHREJrBIPAkliyQAEuASo3AZAk38k6SBiTy3/?a=7073&ch=0&cr=0&dr=0&&br=0&bt=0&ft=xztlUQhhe6BMyqVNUupJD12Nzj&mime_type=audio_mpeg&rc=QGlAYSNz&btag=c0000000008000&dy_q=1730460230&l=20241101192331A16A97A36093DC99A197&format=mp3",
        "source_timerange": {
            "start_offset": 0,
            "end_offset": 4.75
        },
        "target_timerange": {
            "start_offset": 127.69,
            "end_offset": 132.44
        },
        "ignore_audio": false,
        "audio_path": null
    },
    {
        "segment_id": "c5f516de984311ef8fab71120292016a",
        "text": "好 好！那我就不客气了！我等着你的感谢宴！",
        "audio_url": "https://v26-vvecloud.yangyi08.com/0434c12a92ea22879a320bbf8b74e313/6724c856/video/tos/cn/tos-cn-v-2cd6b0/okk3kKC66BcQTAAxFpAkPREAioyiZEuRTISAB/?a=7073&ch=0&cr=0&dr=0&&br=0&bt=0&ft=xztlUQhhe6BMyqVNUupJD12Nzj&mime_type=audio_mpeg&rc=QGlAYSNz&btag=c0000000008000&dy_q=1730460230&l=20241101192331A16A97A36093DC99A197&format=mp3",
        "source_timerange": {
            "start_offset": 0,
            "end_offset": 4.685000000000002
        },
        "target_timerange": {
            "start_offset": 132.44,
            "end_offset": 137.125
        },
        "ignore_audio": false,
        "audio_path": null
    },
    {
        "segment_id": "c5f51922984311ef8fab71120292016a",
        "text": "代红伟笑道",
        "audio_url": "https://v26-vvecloud.yangyi08.com/0434c12a92ea22879a320bbf8b74e313/6724c856/video/tos/cn/tos-cn-v-2cd6b0/okk3kKC66BcQTAAxFpAkPREAioyiZEuRTISAB/?a=7073&ch=0&cr=0&dr=0&&br=0&bt=0&ft=xztlUQhhe6BMyqVNUupJD12Nzj&mime_type=audio_mpeg&rc=QGlAYSNz&btag=c0000000008000&dy_q=1730460230&l=20241101192331A16A97A36093DC99A197&format=mp3",
        "source_timerange": {
            "start_offset": 4.685000000000002,
            "end_offset": 5.97999999999999
        },
        "target_timerange": {
            "start_offset": 137.125,
            "end_offset": 138.42
        },
        "ignore_audio": true,
        "audio_path": null
    },
    {
        "segment_id": "c5f51bde984311ef8fab71120292016a",
        "text": "高丽梅则道：顺道把你喜欢的人带上",
        "audio_url": "https://v9-vvecloud.yangyi08.com/df2297151009302639f4f503c1d6903c/6724c856/video/tos/cn/tos-cn-v-2cd6b0/o8yQGEy1PARAAAiuiNwE9kmSIkoZBT6rk4TLA/?a=7073&ch=0&cr=0&dr=0&&br=0&bt=0&ft=xztlUQhhe6BMyqVNUupJD12Nzj&mime_type=audio_mpeg&rc=QGlAYSNz&btag=c0000000008000&dy_q=1730460230&l=20241101192331A16A97A36093DC99A197&format=mp3",
        "source_timerange": {
            "start_offset": 0,
            "end_offset": 3.420000000000016
        },
        "target_timerange": {
            "start_offset": 138.42,
            "end_offset": 141.84
        },
        "ignore_audio": false,
        "audio_path": null
    },
    {
        "segment_id": "c5f51db4984311ef8fab71120292016a",
        "text": "让我认识认识 一定！一定！",
        "audio_url": "https://v6-vvecloud.yangyi08.com/35c3f2999ea0e33c63c6594bd56a75bf/6724c855/video/tos/cn/tos-cn-v-2cd6b0/ogTBIAZkAEJSkT5rQAioMy66EDAAuSyEkPi0R/?a=7073&ch=0&cr=0&dr=0&&br=0&bt=0&ft=xztlUQhhe6BMyquNUupJD12Nzj&mime_type=audio_mpeg&rc=QGlAYSNz&btag=c0000000008000&dy_q=1730460229&l=20241101192331A16A97A36093DC99A197&format=mp3",
        "source_timerange": {
            "start_offset": 0,
            "end_offset": 3.134999999999991
        },
        "target_timerange": {
            "start_offset": 141.84,
            "end_offset": 144.975
        },
        "ignore_audio": false,
        "audio_path": null
    },
    {
        "segment_id": "c5f51f58984311ef8fab71120292016a",
        "text": "秦霜还不知道如何把史金介绍给高丽梅认识",
        "audio_url": "https://v6-vvecloud.yangyi08.com/35c3f2999ea0e33c63c6594bd56a75bf/6724c855/video/tos/cn/tos-cn-v-2cd6b0/ogTBIAZkAEJSkT5rQAioMy66EDAAuSyEkPi0R/?a=7073&ch=0&cr=0&dr=0&&br=0&bt=0&ft=xztlUQhhe6BMyquNUupJD12Nzj&mime_type=audio_mpeg&rc=QGlAYSNz&btag=c0000000008000&dy_q=1730460229&l=20241101192331A16A97A36093DC99A197&format=mp3",
        "source_timerange": {
            "start_offset": 3.134999999999991,
            "end_offset": 6.3700000000000045
        },
        "target_timerange": {
            "start_offset": 144.975,
            "end_offset": 148.21
        },
        "ignore_audio": true,
        "audio_path": null
    },
    {
        "segment_id": "c5f521a6984311ef8fab71120292016a",
        "text": "当她得知她与小自己七岁的大学生恋爱时",
        "audio_url": "https://v6-vvecloud.yangyi08.com/846969f862854dba8317e89a9988fb14/6724c856/video/tos/cn/tos-cn-v-2cd6b0/o8AsuXQZMEAklkLSFeXAaOjJeC8oOABEQ0AfES/?a=7073&ch=0&cr=0&dr=0&&br=0&bt=0&ft=xztlUQhhe6BMyqVNUupJD12Nzj&mime_type=audio_mpeg&rc=QGlAYSNz&btag=c0000000008000&dy_q=1730460230&l=20241101192331A16A97A36093DC99A197&format=mp3",
        "source_timerange": {
            "start_offset": 0,
            "end_offset": 3.780000000000001
        },
        "target_timerange": {
            "start_offset": 148.21,
            "end_offset": 151.99
        },
        "ignore_audio": false,
        "audio_path": null
    },
    {
        "segment_id": "c5f5241c984311ef8fab71120292016a",
        "text": "她会是什么样的表情？",
        "audio_url": "https://v9-vvecloud.yangyi08.com/01dfa2172d7774c0973a8b295f297a48/6724c856/video/tos/cn/tos-cn-v-2cd6b0/o8u6hqkQiI3yo73APnA6iA4xTkkSAEREQZBA9/?a=7073&ch=0&cr=0&dr=0&&br=0&bt=0&ft=xztlUQhhe6BMyqVNUupJD12Nzj&mime_type=audio_mpeg&rc=QGlAYSNz&btag=c0000000008000&dy_q=1730460230&l=20241101192331A16A97A36093DC99A197&format=mp3",
        "source_timerange": {
            "start_offset": 0,
            "end_offset": 2.1999999999999886
        },
        "target_timerange": {
            "start_offset": 151.99,
            "end_offset": 154.19
        },
        "ignore_audio": false,
        "audio_path": null
    },
    {
        "segment_id": "c5f52688984311ef8fab71120292016a",
        "text": "见秦霜上车离开 高丽梅看向一旁的代红伟",
        "audio_url": "https://v3-vvecloud.yangyi08.com/15677b5ce11939cec97f94c68915ac88/6724c856/video/tos/cn/tos-cn-v-2cd6b0/oIOhiTuAiAAoBQkAIkAB0aZdSoERPmTyREk6y/?a=7073&ch=0&cr=0&dr=0&&br=0&bt=0&ft=xztlUQhhe6BMyqVNUupJD12Nzj&mime_type=audio_mpeg&rc=QGlAYSNz&btag=c0000000008000&dy_q=1730460230&l=20241101192331A16A97A36093DC99A197&format=mp3",
        "source_timerange": {
            "start_offset": 0,
            "end_offset": 4.280000000000001
        },
        "target_timerange": {
            "start_offset": 154.19,
            "end_offset": 158.47
        },
        "ignore_audio": false,
        "audio_path": null
    },
    {
        "segment_id": "c5f528f4984311ef8fab71120292016a",
        "text": "戏谑地道：“代大少 霜霜喜欢的人 不是你吗？”",
        "audio_url": "https://v3-vvecloud.yangyi08.com/991cf00160e109bb3545335f7b4965d1/6724c856/video/tos/cn/tos-cn-v-2cd6b0/oIkEgKJEAFAuAjndeFLEiuEAkDmkfRCIRABpAN/?a=7073&ch=0&cr=0&dr=0&&br=0&bt=0&ft=xztlUQhhe6BMyqVNUupJD12Nzj&mime_type=audio_mpeg&rc=QGlAYSNz&btag=c0000000008000&dy_q=1730460230&l=20241101192331A16A97A36093DC99A197&format=mp3",
        "source_timerange": {
            "start_offset": 0,
            "end_offset": 4.930000000000007
        },
        "target_timerange": {
            "start_offset": 158.47,
            "end_offset": 163.4
        },
        "ignore_audio": false,
        "audio_path": null
    },
    {
        "segment_id": "c5f52bce984311ef8fab71120292016a",
        "text": "代红伟尴尬地道：",
        "audio_url": "https://v3-vvecloud.yangyi08.com/91979cd2c9b035780857495ffd9b56b0/6724c856/video/tos/cn/tos-cn-v-2cd6b0/osc5qAkTZk6quI4EARoQiSAEAABiPyukC6QSE/?a=7073&ch=0&cr=0&dr=0&&br=0&bt=0&ft=xztlUQhhe6BMyqVNUupJD12Nzj&mime_type=audio_mpeg&rc=QGlAYSNz&btag=c0000000008000&dy_q=1730460230&l=20241101192331A16A97A36093DC99A197&format=mp3",
        "source_timerange": {
            "start_offset": 0,
            "end_offset": 1.9799999999999898
        },
        "target_timerange": {
            "start_offset": 163.4,
            "end_offset": 165.38
        },
        "ignore_audio": false,
        "audio_path": null
    },
    {
        "segment_id": "c5f52e6c984311ef8fab71120292016a",
        "text": "这我哪知道 我虽然喜欢她 但她喜不喜欢我",
        "audio_url": "https://v6-vvecloud.yangyi08.com/2dc70ffc331f00b790604fd954eb977d/6724c856/video/tos/cn/tos-cn-v-2cd6b0/ooAoSkP176TTpEIyAAEAik3J7Ak8ZRjuQBZ8i/?a=7073&ch=0&cr=0&dr=0&&br=0&bt=0&ft=xztlUQhhe6BMyqVNUupJD12Nzj&mime_type=audio_mpeg&rc=QGlAYSNz&btag=c0000000008000&dy_q=1730460230&l=20241101192331A16A97A36093DC99A197&format=mp3",
        "source_timerange": {
            "start_offset": 0,
            "end_offset": 4.360000000000014
        },
        "target_timerange": {
            "start_offset": 165.38,
            "end_offset": 169.74
        },
        "ignore_audio": false,
        "audio_path": null
    },
    {
        "segment_id": "c5f5304c984311ef8fab71120292016a",
        "text": "这个就不好说了！",
        "audio_url": "https://v26-vvecloud.yangyi08.com/7a7255b58862072a6e9052711b40fb64/6724c856/video/tos/cn/tos-cn-v-2cd6b0/okXOCJeAIJILeBdFSAEISgNAjSw5GBA6EehIXa/?a=7073&ch=0&cr=0&dr=0&&br=0&bt=0&ft=xztlUQhhe6BMyqVNUupJD12Nzj&mime_type=audio_mpeg&rc=QGlAYSNz&btag=c0000000008000&dy_q=1730460230&l=20241101192331A16A97A36093DC99A197&format=mp3",
        "source_timerange": {
            "start_offset": 0,
            "end_offset": 1.9099999999999966
        },
        "target_timerange": {
            "start_offset": 169.74,
            "end_offset": 171.65
        },
        "ignore_audio": false,
        "audio_path": null
    },
    {
        "segment_id": "c5f532d6984311ef8fab71120292016a",
        "text": "代红伟眼中闪烁着一抹贪婪 瞅了高丽梅一眼",
        "audio_url": "https://v9-vvecloud.yangyi08.com/12bbff729b5e8b36a66472924cc877d3/6724c856/video/tos/cn/tos-cn-v-2cd6b0/og5pENOHEDCkujARALFrARnAAiogdBmJEffVkE/?a=7073&ch=0&cr=0&dr=0&&br=0&bt=0&ft=xztlUQhhe6BMyqVNUupJD12Nzj&mime_type=audio_mpeg&rc=QGlAYSNz&btag=c0000000008000&dy_q=1730460230&l=20241101192331A16A97A36093DC99A197&format=mp3",
        "source_timerange": {
            "start_offset": 0,
            "end_offset": 4.280000000000001
        },
        "target_timerange": {
            "start_offset": 171.65,
            "end_offset": 175.93
        },
        "ignore_audio": false,
        "audio_path": null
    },
    {
        "segment_id": "c5f53506984311ef8fab71120292016a",
        "text": "便也带着人离开了",
        "audio_url": "https://v26-vvecloud.yangyi08.com/18662875ce471bb31d773709d27ece15/6724c856/video/tos/cn/tos-cn-v-2cd6b0/oEkIuyZiAkSTAiiPT6EAy9DBIQZRklEWAEoAS/?a=7073&ch=0&cr=0&dr=0&&br=0&bt=0&ft=xztlUQhhe6BMyqVNUupJD12Nzj&mime_type=audio_mpeg&rc=QGlAYSNz&btag=c0000000008000&dy_q=1730460230&l=20241101192331A16A97A36093DC99A197&format=mp3",
        "source_timerange": {
            "start_offset": 0,
            "end_offset": 1.9799999999999898
        },
        "target_timerange": {
            "start_offset": 175.93,
            "end_offset": 177.91
        },
        "ignore_audio": false,
        "audio_path": null
    },
    {
        "segment_id": "c5f5377c984311ef8fab71120292016a",
        "text": "我没有睡觉 吴龙飞收拾了一下 去睡觉了",
        "audio_url": "https://v6-vvecloud.yangyi08.com/032b2001f0d0ce19aec6c95c064f092a/6724c856/video/tos/cn/tos-cn-v-2cd6b0/owAJNEEEDUupLBuAgEfkCTAAIFeOAnAi8tVRdk/?a=7073&ch=0&cr=0&dr=0&&br=0&bt=0&ft=xztlUQhhe6BMyqVNUupJD12Nzj&mime_type=audio_mpeg&rc=QGlAYSNz&btag=c0000000008000&dy_q=1730460230&l=20241101192331A16A97A36093DC99A197&format=mp3",
        "source_timerange": {
            "start_offset": 0,
            "end_offset": 4.180000000000007
        },
        "target_timerange": {
            "start_offset": 177.91,
            "end_offset": 182.09
        },
        "ignore_audio": false,
        "audio_path": null
    },
    {
        "segment_id": "c5f5393e984311ef8fab71120292016a",
        "text": "此时的我 心中有些期待和不安",
        "audio_url": "https://v3-vvecloud.yangyi08.com/6fa2c8e5db52c72308ecc4a22f34b41a/6724c856/video/tos/cn/tos-cn-v-2cd6b0/oAkEQiP1ZARIqrjESZ1TAMkQAoAwyku6u6AiB/?a=7073&ch=0&cr=0&dr=0&&br=0&bt=0&ft=xztlUQhhe6BMyqVNUupJD12Nzj&mime_type=audio_mpeg&rc=QGlAYSNz&btag=c0000000008000&dy_q=1730460230&l=20241101192331A16A97A36093DC99A197&format=mp3",
        "source_timerange": {
            "start_offset": 0,
            "end_offset": 3.3499999999999943
        },
        "target_timerange": {
            "start_offset": 182.09,
            "end_offset": 185.44
        },
        "ignore_audio": false,
        "audio_path": null
    },
    {
        "segment_id": "c5f53aec984311ef8fab71120292016a",
        "text": "想起了秦霜对我的关心 更让我感到温暖",
        "audio_url": "https://v9-vvecloud.yangyi08.com/76b764a560e57ec3eb2490fe613a1da2/6724c856/video/tos/cn/tos-cn-v-2cd6b0/owOkeOAEIJGFSaTLXhCwAOuSiArBjEAAEJkkee/?a=7073&ch=0&cr=0&dr=0&&br=0&bt=0&ft=xztlUQhhe6BMyqVNUupJD12Nzj&mime_type=audio_mpeg&rc=QGlAYSNz&btag=c0000000008000&dy_q=1730460230&l=20241101192331A16A97A36093DC99A197&format=mp3",
        "source_timerange": {
            "start_offset": 0,
            "end_offset": 3.740000000000009
        },
        "target_timerange": {
            "start_offset": 185.44,
            "end_offset": 189.18
        },
        "ignore_audio": false,
        "audio_path": null
    },
    {
        "segment_id": "c5f53cb8984311ef8fab71120292016a",
        "text": "正在这时 我的电话响了 是秦霜打过来的",
        "audio_url": "https://v6-vvecloud.yangyi08.com/59449f9773edb85fc72a4d66e7f4c0af/6724c856/video/tos/cn/tos-cn-v-2cd6b0/o44myP6wb1vAikAAuEQAZokkTSAEIRTBiuKqS/?a=7073&ch=0&cr=0&dr=0&&br=0&bt=0&ft=xztlUQhhe6BMyqVNUupJD12Nzj&mime_type=audio_mpeg&rc=QGlAYSNz&btag=c0000000008000&dy_q=1730460230&l=20241101192331A16A97A36093DC99A197&format=mp3",
        "source_timerange": {
            "start_offset": 0,
            "end_offset": 4.389999999999986
        },
        "target_timerange": {
            "start_offset": 189.18,
            "end_offset": 193.57
        },
        "ignore_audio": false,
        "audio_path": null
    },
    {
        "segment_id": "c5f53f2e984311ef8fab71120292016a",
        "text": "霜姐？怎么样？事情处理好了没有？我急忙问道",
        "audio_url": "https://v6-vvecloud.yangyi08.com/701e94f9cc0fa73604f74839a8ddef4b/6724c856/video/tos/cn/tos-cn-v-2cd6b0/oAAoSkP5J6TRhEIyAAEAik0pMAkxZRBuQBzzi/?a=7073&ch=0&cr=0&dr=0&&br=0&bt=0&ft=xztlUQhhe6BMyqVNUupJD12Nzj&mime_type=audio_mpeg&rc=QGlAYSNz&btag=c0000000008000&dy_q=1730460230&l=20241101192331A16A97A36093DC99A197&format=mp3",
        "source_timerange": {
            "start_offset": 0,
            "end_offset": 5.2900000000000205
        },
        "target_timerange": {
            "start_offset": 193.57,
            "end_offset": 198.86
        },
        "ignore_audio": false,
        "audio_path": null
    },
    {
        "segment_id": "c5f541a4984311ef8fab71120292016a",
        "text": "秦霜闻言 道：处理好了 你去哪了？",
        "audio_url": "https://v26-vvecloud.yangyi08.com/f8659fe57c84c2315660eb220f5e8f9c/6724c857/video/tos/cn/tos-cn-v-2cd6b0/ocERpNnCLKtYQERkDAEAGJFAWAABAgfeEuiAxk/?a=7073&ch=0&cr=0&dr=0&&br=0&bt=0&ft=xztlUQhhe6BMyqXNUupJD12Nzj&mime_type=audio_mpeg&rc=QGlAYSNz&btag=c0000000008000&dy_q=1730460231&l=20241101192331A16A97A36093DC99A197&format=mp3",
        "source_timerange": {
            "start_offset": 0,
            "end_offset": 4.359999999999985
        },
        "target_timerange": {
            "start_offset": 198.86,
            "end_offset": 203.22
        },
        "ignore_audio": false,
        "audio_path": null
    },
    {
        "segment_id": "c5f54456984311ef8fab71120292016a",
        "text": "听阿兰说 你已经一夜没回了？",
        "audio_url": "https://v6-vvecloud.yangyi08.com/9178624ed288aa09d21f619bab3110f1/6724c857/video/tos/cn/tos-cn-v-2cd6b0/oskEkeXkaASjG8AEAfJIFJCauBSLE20fODSPAA/?a=7073&ch=0&cr=0&dr=0&&br=0&bt=0&ft=xztlUQhhe6BMyqXNUupJD12Nzj&mime_type=audio_mpeg&rc=QGlAYSNz&btag=c0000000008000&dy_q=1730460231&l=20241101192331A16A97A36093DC99A197&format=mp3",
        "source_timerange": {
            "start_offset": 0,
            "end_offset": 3.0600000000000023
        },
        "target_timerange": {
            "start_offset": 203.22,
            "end_offset": 206.28
        },
        "ignore_audio": false,
        "audio_path": null
    },
    {
        "segment_id": "c5f546f4984311ef8fab71120292016a",
        "text": "我心里一暖 这是秦霜关心在乎我的表现 道：哦！",
        "audio_url": "https://v26-vvecloud.yangyi08.com/6231173b254c353107c155d5be024320/6724c857/video/tos/cn/tos-cn-v-2cd6b0/o4ugYEkSiIAyoJDAPxA6iAL4TkkSAEREQZBA9/?a=7073&ch=0&cr=0&dr=0&&br=0&bt=0&ft=xztlUQhhe6BMyqXNUupJD12Nzj&mime_type=audio_mpeg&rc=QGlAYSNz&btag=c0000000008000&dy_q=1730460231&l=20241101192331A16A97A36093DC99A197&format=mp3",
        "source_timerange": {
            "start_offset": 0,
            "end_offset": 5
        },
        "target_timerange": {
            "start_offset": 206.28,
            "end_offset": 211.28
        },
        "ignore_audio": false,
        "audio_path": null
    },
    {
        "segment_id": "c5f54992984311ef8fab71120292016a",
        "text": "我学校有点事 我提前赶过来处理了 你到家了？",
        "audio_url": "https://v9-vvecloud.yangyi08.com/a21c8cc5c688e51fdedf55e95619cf82/6724c857/video/tos/cn/tos-cn-v-2cd6b0/o4iIMTEk7ASIAkBDAQfWiTBmA0EskAWiglkzuR/?a=7073&ch=0&cr=0&dr=0&&br=0&bt=0&ft=xztlUQhhe6BMyqXNUupJD12Nzj&mime_type=audio_mpeg&rc=QGlAYSNz&btag=c0000000008000&dy_q=1730460231&l=20241101192331A16A97A36093DC99A197&format=mp3",
        "source_timerange": {
            "start_offset": 0,
            "end_offset": 4.5
        },
        "target_timerange": {
            "start_offset": 211.28,
            "end_offset": 215.78
        },
        "ignore_audio": false,
        "audio_path": null
    },
    {
        "segment_id": "c5f54c26984311ef8fab71120292016a",
        "text": "嗯！事情处理完了 我就回来了！你呢？",
        "audio_url": "https://v6-vvecloud.yangyi08.com/896d579436f1655972a9b2f9f34d39a5/6724c857/video/tos/cn/tos-cn-v-2cd6b0/oYWYAffDNEmpRKni1uw1AJYLkBkCwEpAFAAFEg/?a=7073&ch=0&cr=0&dr=0&&br=0&bt=0&ft=xztlUQhhe6BMyqXNUupJD12Nzj&mime_type=audio_mpeg&rc=QGlAYSNz&btag=c0000000008000&dy_q=1730460231&l=20241101192331A16A97A36093DC99A197&format=mp3",
        "source_timerange": {
            "start_offset": 0,
            "end_offset": 4.539999999999992
        },
        "target_timerange": {
            "start_offset": 215.78,
            "end_offset": 220.32
        },
        "ignore_audio": false,
        "audio_path": null
    },
    {
        "segment_id": "c5f54f50984311ef8fab71120292016a",
        "text": "忙完了没有 还回来不？秦霜问道",
        "audio_url": "https://v26-vvecloud.yangyi08.com/e5e8fb746674f0c06353bede3ecb730a/6724c857/video/tos/cn/tos-cn-v-2cd6b0/okOi8RAnEcImA0AiBfwtkElazkAuUBWPkAiQBg/?a=7073&ch=0&cr=0&dr=0&&br=0&bt=0&ft=xztlUQhhe6BMyqXNUupJD12Nzj&mime_type=audio_mpeg&rc=QGlAYSNz&btag=c0000000008000&dy_q=1730460231&l=20241101192331A16A97A36093DC99A197&format=mp3",
        "source_timerange": {
            "start_offset": 0,
            "end_offset": 3.960000000000008
        },
        "target_timerange": {
            "start_offset": 220.32,
            "end_offset": 224.28
        },
        "ignore_audio": false,
        "audio_path": null
    },
    {
        "segment_id": "c5f55252984311ef8fab71120292016a",
        "text": "经过头一天晚上的相处 秦霜算是接受了我",
        "audio_url": "https://v9-vvecloud.yangyi08.com/33ee9deb73a72a32854eee7401bab49f/6724c857/video/tos/cn/tos-cn-v-2cd6b0/ooR2ExNRAiWL8ADOAAgF9JknEfuFnFEBeAp7kC/?a=7073&ch=0&cr=0&dr=0&&br=0&bt=0&ft=xztlUQhhe6BMyqXNUupJD12Nzj&mime_type=audio_mpeg&rc=QGlAYSNz&btag=c0000000008000&dy_q=1730460231&l=20241101192331A16A97A36093DC99A197&format=mp3",
        "source_timerange": {
            "start_offset": 0,
            "end_offset": 4.030000000000001
        },
        "target_timerange": {
            "start_offset": 224.28,
            "end_offset": 228.31
        },
        "ignore_audio": false,
        "audio_path": null
    },
    {
        "segment_id": "c5f554c8984311ef8fab71120292016a",
        "text": "打消了之前的怀疑",
        "audio_url": "https://v6-vvecloud.yangyi08.com/fe5c2c8c185d18e6fe60bc5a6ffdc663/6724c857/video/tos/cn/tos-cn-v-2cd6b0/oAAMFiSfIziYAmgiAyBkk0ilAknkQB9ELVuAER/?a=7073&ch=0&cr=0&dr=0&&br=0&bt=0&ft=xztlUQhhe6BMyqXNUupJD12Nzj&mime_type=audio_mpeg&rc=QGlAYSNz&btag=c0000000008000&dy_q=1730460231&l=20241101192331A16A97A36093DC99A197&format=mp3",
        "source_timerange": {
            "start_offset": 0,
            "end_offset": 2.0900000000000034
        },
        "target_timerange": {
            "start_offset": 228.31,
            "end_offset": 230.4
        },
        "ignore_audio": false,
        "audio_path": null
    },
    {
        "segment_id": "c5f55720984311ef8fab71120292016a",
        "text": "我也忙完了 这不 天亮了 马上要上课了！",
        "audio_url": "https://v9-vvecloud.yangyi08.com/87b6ddb2255b16e82cf9c827cd5ecf3e/6724c857/video/tos/cn/tos-cn-v-2cd6b0/oMAApkDWFAFFJukGARTNCBfiQxuEENAfgnLOGE/?a=7073&ch=0&cr=0&dr=0&&br=0&bt=0&ft=xztlUQhhe6BMyqXNUupJD12Nzj&mime_type=audio_mpeg&rc=QGlAYSNz&btag=c0000000008000&dy_q=1730460231&l=20241101192331A16A97A36093DC99A197&format=mp3",
        "source_timerange": {
            "start_offset": 0,
            "end_offset": 4.609999999999985
        },
        "target_timerange": {
            "start_offset": 230.4,
            "end_offset": 235.01
        },
        "ignore_audio": false,
        "audio_path": null
    },
    {
        "segment_id": "c5f558e2984311ef8fab71120292016a",
        "text": "我晚点放学了再回去！我解释道",
        "audio_url": "https://v6-vvecloud.yangyi08.com/ee92a24799660ca39d5ec59b66d50f86/6724c857/video/tos/cn/tos-cn-v-2cd6b0/oE7OSAGVIBCIABzweEFAIuALiXJLAafSIfijad/?a=7073&ch=0&cr=0&dr=0&&br=0&bt=0&ft=xztlUQhhe6BMyqXNUupJD12Nzj&mime_type=audio_mpeg&rc=QGlAYSNz&btag=c0000000008000&dy_q=1730460231&l=20241101192331A16A97A36093DC99A197&format=mp3",
        "source_timerange": {
            "start_offset": 0,
            "end_offset": 3.530000000000001
        },
        "target_timerange": {
            "start_offset": 235.01,
            "end_offset": 238.54
        },
        "ignore_audio": false,
        "audio_path": null
    },
    {
        "segment_id": "c5f55a90984311ef8fab71120292016a",
        "text": "秦霜听了 沉默了几秒",
        "audio_url": "https://v26-vvecloud.yangyi08.com/fdc2536f825f1664f9d400bd006ee18d/6724c857/video/tos/cn/tos-cn-v-2cd6b0/osEBzkAyvuilRAwgZW0gX4ABiAmkkOAEJQfiIu/?a=7073&ch=0&cr=0&dr=0&&br=0&bt=0&ft=xztlUQhhe6BMyqXNUupJD12Nzj&mime_type=audio_mpeg&rc=QGlAYSNz&btag=c0000000008000&dy_q=1730460231&l=20241101192331A16A97A36093DC99A197&format=mp3",
        "source_timerange": {
            "start_offset": 0,
            "end_offset": 2.8100000000000023
        },
        "target_timerange": {
            "start_offset": 238.54,
            "end_offset": 241.35
        },
        "ignore_audio": false,
        "audio_path": null
    },
    {
        "segment_id": "c5f55c84984311ef8fab71120292016a",
        "text": "道：我知道你想要创业赚钱证明自己",
        "audio_url": "https://v9-vvecloud.yangyi08.com/daca99d75c1263627170daba7eb40107/6724c857/video/tos/cn/tos-cn-v-2cd6b0/o8ERkizFlAAbgGBVEflJAmAQiwuCYk1ijA0BIk/?a=7073&ch=0&cr=0&dr=0&&br=0&bt=0&ft=xztlUQhhe6BMyqXNUupJD12Nzj&mime_type=audio_mpeg&rc=QGlAYSNz&btag=c0000000008000&dy_q=1730460231&l=20241101192331A16A97A36093DC99A197&format=mp3",
        "source_timerange": {
            "start_offset": 0,
            "end_offset": 3.5600000000000023
        },
        "target_timerange": {
            "start_offset": 241.35,
            "end_offset": 244.91
        },
        "ignore_audio": false,
        "audio_path": null
    },
    {
        "segment_id": "c5f55e96984311ef8fab71120292016a",
        "text": "但你跟几个同学合伙还差点东西",
        "audio_url": "https://v26-vvecloud.yangyi08.com/90cc671de54b72f840b560b6cd886615/6724c857/video/tos/cn/tos-cn-v-2cd6b0/ocDzkABNEgAiAA1FfRBQEVAi3lkiRpl0kkDImu/?a=7073&ch=0&cr=0&dr=0&&br=0&bt=0&ft=xztlUQhhe6BMyqXNUupJD12Nzj&mime_type=audio_mpeg&rc=QGlAYSNz&btag=c0000000008000&dy_q=1730460231&l=20241101192331A16A97A36093DC99A197&format=mp3",
        "source_timerange": {
            "start_offset": 0,
            "end_offset": 3.1299999999999955
        },
        "target_timerange": {
            "start_offset": 244.91,
            "end_offset": 248.04
        },
        "ignore_audio": false,
        "audio_path": null
    },
    {
        "segment_id": "c5f560a8984311ef8fab71120292016a",
        "text": "这样 过两天我介绍一个做某宝",
        "audio_url": "https://v26-vvecloud.yangyi08.com/84a16b2283fdb9d1cb60573246c7a943/6724c857/video/tos/cn/tos-cn-v-2cd6b0/oU10EmUCiBBkuOAWAli6gIzAAR2QkAXkESfNki/?a=7073&ch=0&cr=0&dr=0&&br=0&bt=0&ft=xztlUQhhe6BMyqXNUupJD12Nzj&mime_type=audio_mpeg&rc=QGlAYSNz&btag=c0000000008000&dy_q=1730460231&l=20241101192331A16A97A36093DC99A197&format=mp3",
        "source_timerange": {
            "start_offset": 0,
            "end_offset": 2.545000000000016
        },
        "target_timerange": {
            "start_offset": 248.04,
            "end_offset": 250.585
        },
        "ignore_audio": false,
        "audio_path": null
    },
    {
        "segment_id": "c5f56288984311ef8fab71120292016a",
        "text": "赚到千万身价的朋友给你认识认识",
        "audio_url": "https://v26-vvecloud.yangyi08.com/84a16b2283fdb9d1cb60573246c7a943/6724c857/video/tos/cn/tos-cn-v-2cd6b0/oU10EmUCiBBkuOAWAli6gIzAAR2QkAXkESfNki/?a=7073&ch=0&cr=0&dr=0&&br=0&bt=0&ft=xztlUQhhe6BMyqXNUupJD12Nzj&mime_type=audio_mpeg&rc=QGlAYSNz&btag=c0000000008000&dy_q=1730460231&l=20241101192331A16A97A36093DC99A197&format=mp3",
        "source_timerange": {
            "start_offset": 2.545000000000016,
            "end_offset": 4.945000000000022
        },
        "target_timerange": {
            "start_offset": 250.585,
            "end_offset": 252.985
        },
        "ignore_audio": true,
        "audio_path": null
    },
    {
        "segment_id": "c5f56454984311ef8fab71120292016a",
        "text": "我内心一暖 秦霜开始给我介绍资源了",
        "audio_url": "https://v26-vvecloud.yangyi08.com/84a16b2283fdb9d1cb60573246c7a943/6724c857/video/tos/cn/tos-cn-v-2cd6b0/oU10EmUCiBBkuOAWAli6gIzAAR2QkAXkESfNki/?a=7073&ch=0&cr=0&dr=0&&br=0&bt=0&ft=xztlUQhhe6BMyqXNUupJD12Nzj&mime_type=audio_mpeg&rc=QGlAYSNz&btag=c0000000008000&dy_q=1730460231&l=20241101192331A16A97A36093DC99A197&format=mp3",
        "source_timerange": {
            "start_offset": 4.945000000000022,
            "end_offset": 7.960000000000036
        },
        "target_timerange": {
            "start_offset": 252.985,
            "end_offset": 256
        },
        "ignore_audio": true,
        "audio_path": null
    },
    {
        "segment_id": "c5f5665c984311ef8fab71120292016a",
        "text": "但我有自己的判断 前世好多做某宝起来的大网店",
        "audio_url": "https://v6-vvecloud.yangyi08.com/ab607d17c94be59bbc84a2d0dfdb7ebb/6724c857/video/tos/cn/tos-cn-v-2cd6b0/oYiIjFEk1A4sAyBHAQfKimBmA0EDkAXiglkzuR/?a=7073&ch=0&cr=0&dr=0&&br=0&bt=0&ft=xztlUQhhe6BMyqXNUupJD12Nzj&mime_type=audio_mpeg&rc=QGlAYSNz&btag=c0000000008000&dy_q=1730460231&l=20241101192331A16A97A36093DC99A197&format=mp3",
        "source_timerange": {
            "start_offset": 0,
            "end_offset": 4.278999999999996
        },
        "target_timerange": {
            "start_offset": 256,
            "end_offset": 260.279
        },
        "ignore_audio": false,
        "audio_path": null
    },
    {
        "segment_id": "c5f568a0984311ef8fab71120292016a",
        "text": "后面有很多依旧没有适应直播带货",
        "audio_url": "https://v26-vvecloud.yangyi08.com/39e9130d711b7a98ddfb496e46750b44/6724c857/video/tos/cn/tos-cn-v-2cd6b0/ocIzEamIARUl1ABVgAQiTkkjEfukziiAUA0ykB/?a=7073&ch=0&cr=0&dr=0&&br=0&bt=0&ft=xztlUQhhe6BMyqXNUupJD12Nzj&mime_type=audio_mpeg&rc=QGlAYSNz&btag=c0000000008000&dy_q=1730460231&l=20241101192331A16A97A36093DC99A197&format=mp3",
        "source_timerange": {
            "start_offset": 0,
            "end_offset": 3.1709999999999923
        },
        "target_timerange": {
            "start_offset": 260.279,
            "end_offset": 263.45
        },
        "ignore_audio": false,
        "audio_path": null
    },
    {
        "segment_id": "c5f56a94984311ef8fab71120292016a",
        "text": "最终淘汰出局 便道：",
        "audio_url": "https://v3-vvecloud.yangyi08.com/ecef238998cc97a4eaaf192c3e407ea5/6724c857/video/tos/cn/tos-cn-v-2cd6b0/osAZIABukAlf0Ao2kQK9mWiiAX0iERzWgEQBkZ/?a=7073&ch=0&cr=0&dr=0&&br=0&bt=0&ft=xztlUQhhe6BMyqXNUupJD12Nzj&mime_type=audio_mpeg&rc=QGlAYSNz&btag=c0000000008000&dy_q=1730460231&l=20241101192331A16A97A36093DC99A197&format=mp3",
        "source_timerange": {
            "start_offset": 0,
            "end_offset": 2.920000000000016
        },
        "target_timerange": {
            "start_offset": 263.45,
            "end_offset": 266.37
        },
        "ignore_audio": false,
        "audio_path": null
    },
    {
        "segment_id": "c5f56c74984311ef8fab71120292016a",
        "text": "好的 谢谢亲爱的 我有自己的计划安排",
        "audio_url": "https://v3-vvecloud.yangyi08.com/a70597c259f4f5d0696166cdedf8aad7/6724c857/video/tos/cn/tos-cn-v-2cd6b0/oAAkmEiEBXi0lAu9QifkBXAAwiYEAzgRz82ITk/?a=7073&ch=0&cr=0&dr=0&&br=0&bt=0&ft=xztlUQhhe6BMyqXNUupJD12Nzj&mime_type=audio_mpeg&rc=QGlAYSNz&btag=c0000000008000&dy_q=1730460231&l=20241101192331A16A97A36093DC99A197&format=mp3",
        "source_timerange": {
            "start_offset": 0,
            "end_offset": 4.180000000000007
        },
        "target_timerange": {
            "start_offset": 266.37,
            "end_offset": 270.55
        },
        "ignore_audio": false,
        "audio_path": null
    },
    {
        "segment_id": "c5f56ed6984311ef8fab71120292016a",
        "text": "后面肯定需要你帮助 好吧！",
        "audio_url": "https://v26-vvecloud.yangyi08.com/b97d60711d1ed87b49811105d6605078/6724c857/video/tos/cn/tos-cn-v-2cd6b0/ooaCSkRFBXCGeNe9AAAjINeSEXBLJdIOAIOI43/?a=7073&ch=0&cr=0&dr=0&&br=0&bt=0&ft=xztlUQhhe6BMyqXNUupJD12Nzj&mime_type=audio_mpeg&rc=QGlAYSNz&btag=c0000000008000&dy_q=1730460231&l=20241101192331A16A97A36093DC99A197&format=mp3",
        "source_timerange": {
            "start_offset": 0,
            "end_offset": 2.8100000000000023
        },
        "target_timerange": {
            "start_offset": 270.55,
            "end_offset": 273.36
        },
        "ignore_audio": false,
        "audio_path": null
    },
    {
        "segment_id": "c5f5711a984311ef8fab71120292016a",
        "text": "你注意身体 晚上等你回来！",
        "audio_url": "https://v3-vvecloud.yangyi08.com/2a818f87fbd4893f884e6993eff8446f/6724c857/video/tos/cn/tos-cn-v-2cd6b0/oMkkIzADkAjiRugggBEAd20fibZQyiEBA7mA6l/?a=7073&ch=0&cr=0&dr=0&&br=0&bt=0&ft=xztlUQhhe6BMyqXNUupJD12Nzj&mime_type=audio_mpeg&rc=QGlAYSNz&btag=c0000000008000&dy_q=1730460231&l=20241101192331A16A97A36093DC99A197&format=mp3",
        "source_timerange": {
            "start_offset": 0,
            "end_offset": 2.8449999999999704
        },
        "target_timerange": {
            "start_offset": 273.36,
            "end_offset": 276.205
        },
        "ignore_audio": false,
        "audio_path": null
    },
    {
        "segment_id": "c5f57958984311ef8fab71120292016a",
        "text": "秦霜回来的路上也接到几个电话",
        "audio_url": "https://v3-vvecloud.yangyi08.com/2a818f87fbd4893f884e6993eff8446f/6724c857/video/tos/cn/tos-cn-v-2cd6b0/oMkkIzADkAjiRugggBEAd20fibZQyiEBA7mA6l/?a=7073&ch=0&cr=0&dr=0&&br=0&bt=0&ft=xztlUQhhe6BMyqXNUupJD12Nzj&mime_type=audio_mpeg&rc=QGlAYSNz&btag=c0000000008000&dy_q=1730460231&l=20241101192331A16A97A36093DC99A197&format=mp3",
        "source_timerange": {
            "start_offset": 2.8449999999999704,
            "end_offset": 5.329999999999984
        },
        "target_timerange": {
            "start_offset": 276.205,
            "end_offset": 278.69
        },
        "ignore_audio": true,
        "audio_path": null
    },
    {
        "segment_id": "c5f57c32984311ef8fab71120292016a",
        "text": "之前在江城难以推进的项目 先后都出现了转机",
        "audio_url": "https://v6-vvecloud.yangyi08.com/6e7c5163abbbe1dda1d25ff2b675fcf2/6724c857/video/tos/cn/tos-cn-v-2cd6b0/ooAAZ7uAQiEkAZ4kRZBAITv6Qk2yAS8xoiVEj/?a=7073&ch=0&cr=0&dr=0&&br=0&bt=0&ft=xztlUQhhe6BMyqXNUupJD12Nzj&mime_type=audio_mpeg&rc=QGlAYSNz&btag=c0000000008000&dy_q=1730460231&l=20241101192331A16A97A36093DC99A197&format=mp3",
        "source_timerange": {
            "start_offset": 0,
            "end_offset": 4.5400000000000205
        },
        "target_timerange": {
            "start_offset": 278.69,
            "end_offset": 283.23
        },
        "ignore_audio": false,
        "audio_path": null
    },
    {
        "segment_id": "c5f57f0c984311ef8fab71120292016a",
        "text": "而代家代仲青更是打来电话",
        "audio_url": "https://v9-vvecloud.yangyi08.com/84337be696fed2e2439883c13de405ad/6724c857/video/tos/cn/tos-cn-v-2cd6b0/oYDkkNRETAZiAQBSREAsVQzhbIuokvXiAAEy6/?a=7073&ch=0&cr=0&dr=0&&br=0&bt=0&ft=xztlUQhhe6BMyqXNUupJD12Nzj&mime_type=audio_mpeg&rc=QGlAYSNz&btag=c0000000008000&dy_q=1730460231&l=20241101192331A16A97A36093DC99A197&format=mp3",
        "source_timerange": {
            "start_offset": 0,
            "end_offset": 2.919999999999959
        },
        "target_timerange": {
            "start_offset": 283.23,
            "end_offset": 286.15
        },
        "ignore_audio": false,
        "audio_path": null
    },
    {
        "segment_id": "c5f581e6984311ef8fab71120292016a",
        "text": "责备秦霜没有把他这个长辈放在眼里",
        "audio_url": "https://v3-vvecloud.yangyi08.com/9d1ceaabe368976d4cb8a16f4715d30f/6724c857/video/tos/cn/tos-cn-v-2cd6b0/oMgAfELunAAZuFGxCDBTAPqJFApENEfRkiOQkR/?a=7073&ch=0&cr=0&dr=0&&br=0&bt=0&ft=xztlUQhhe6BMyqXNUupJD12Nzj&mime_type=audio_mpeg&rc=QGlAYSNz&btag=c0000000008000&dy_q=1730460231&l=20241101192331A16A97A36093DC99A197&format=mp3",
        "source_timerange": {
            "start_offset": 0,
            "end_offset": 3.2800000000000296
        },
        "target_timerange": {
            "start_offset": 286.15,
            "end_offset": 289.43
        },
        "ignore_audio": false,
        "audio_path": null
    },
    {
        "segment_id": "c5f584e8984311ef8fab71120292016a",
        "text": "经营公司遇到麻烦了也不给他打电话",
        "audio_url": "https://v26-vvecloud.yangyi08.com/ce72266f41a50f1302efad8ae2b90bc1/6724c857/video/tos/cn/tos-cn-v-2cd6b0/ooiyPvAkE8iYQ1ko4A6ukZiTBRAImSJAAEZ98/?a=7073&ch=0&cr=0&dr=0&&br=0&bt=0&ft=xztlUQhhe6BMyqXNUupJD12Nzj&mime_type=audio_mpeg&rc=QGlAYSNz&btag=c0000000008000&dy_q=1730460231&l=20241101192331A16A97A36093DC99A197&format=mp3",
        "source_timerange": {
            "start_offset": 0,
            "end_offset": 3.170000000000016
        },
        "target_timerange": {
            "start_offset": 289.43,
            "end_offset": 292.6
        },
        "ignore_audio": false,
        "audio_path": null
    },
    {
        "segment_id": "c5f587ea984311ef8fab71120292016a",
        "text": "暗示秦霜她遇到的麻烦 代家帮忙解决了",
        "audio_url": "https://v9-vvecloud.yangyi08.com/e129d62a99ffdc69ff7856b1dc88bd99/6724c857/video/tos/cn/tos-cn-v-2cd6b0/ogLRfJEAAADMakNkiqpGuvgEDfCMFAAKABAnLE/?a=7073&ch=0&cr=0&dr=0&&br=0&bt=0&ft=xztlUQhhe6BMyqXNUupJD12Nzj&mime_type=audio_mpeg&rc=QGlAYSNz&btag=c0000000008000&dy_q=1730460231&l=20241101192331A16A97A36093DC99A197&format=mp3",
        "source_timerange": {
            "start_offset": 0,
            "end_offset": 3.919999999999959
        },
        "target_timerange": {
            "start_offset": 292.6,
            "end_offset": 296.52
        },
        "ignore_audio": false,
        "audio_path": null
    },
    {
        "segment_id": "c5f58af6984311ef8fab71120292016a",
        "text": "代家刷了一波好人卡 但只有秦霜清楚",
        "audio_url": "https://v9-vvecloud.yangyi08.com/f42c23daca8b73e227d23118d30e140f/6724c857/video/tos/cn/tos-cn-v-2cd6b0/osuLnAEepADDgdCGEYAiBAzkhNFkRJhEmAxDfA/?a=7073&ch=0&cr=0&dr=0&&br=0&bt=0&ft=xztlUQhhe6BMyqXNUupJD12Nzj&mime_type=audio_mpeg&rc=QGlAYSNz&btag=c0000000008000&dy_q=1730460231&l=20241101192331A16A97A36093DC99A197&format=mp3",
        "source_timerange": {
            "start_offset": 0,
            "end_offset": 3.819999999999993
        },
        "target_timerange": {
            "start_offset": 296.52,
            "end_offset": 300.34
        },
        "ignore_audio": false,
        "audio_path": null
    },
    {
        "segment_id": "c5f58df8984311ef8fab71120292016a",
        "text": "那些为难她的事 或许有代家的人在后面作祟",
        "audio_url": "https://v26-vvecloud.yangyi08.com/00a0eac71386838c4758b544bdac2ac4/6724c857/video/tos/cn/tos-cn-v-2cd6b0/oExyqvAkEKixQxkouA6ukYiTBRAITSQAAEZ73/?a=7073&ch=0&cr=0&dr=0&&br=0&bt=0&ft=xztlUQhhe6BMyqXNUupJD12Nzj&mime_type=audio_mpeg&rc=QGlAYSNz&btag=c0000000008000&dy_q=1730460231&l=20241101192331A16A97A36093DC99A197&format=mp3",
        "source_timerange": {
            "start_offset": 0,
            "end_offset": 4.180000000000007
        },
        "target_timerange": {
            "start_offset": 300.34,
            "end_offset": 304.52
        },
        "ignore_audio": false,
        "audio_path": null
    },
    {
        "segment_id": "c5f590a0984311ef8fab71120292016a",
        "text": "但秦霜没有证据 也便没有多说什么",
        "audio_url": "https://v6-vvecloud.yangyi08.com/fc380b5d9a4f516d9527d871660a9ef8/6724c857/video/tos/cn/tos-cn-v-2cd6b0/oInANdJaGBJILCFRoAwIvIwAAJiPgffB9pdDEC/?a=7073&ch=0&cr=0&dr=0&&br=0&bt=0&ft=xztlUQhhe6BMyqXNUupJD12Nzj&mime_type=audio_mpeg&rc=QGlAYSNz&btag=c0000000008000&dy_q=1730460231&l=20241101192331A16A97A36093DC99A197&format=mp3",
        "source_timerange": {
            "start_offset": 0,
            "end_offset": 3.490000000000009
        },
        "target_timerange": {
            "start_offset": 304.52,
            "end_offset": 308.01
        },
        "ignore_audio": false,
        "audio_path": null
    },
    {
        "segment_id": "c5f5937a984311ef8fab71120292016a",
        "text": "客气两句便挂了",
        "audio_url": "https://v26-vvecloud.yangyi08.com/2dc004d2b6401f14602884abd1e9c18c/6724c857/video/tos/cn/tos-cn-v-2cd6b0/oouykIiaZ4AjSUTkAA7AQAKFkRX6ivoEBAxiE/?a=7073&ch=0&cr=0&dr=0&&br=0&bt=0&ft=xztlUQhhe6BMyqXNUupJD12Nzj&mime_type=audio_mpeg&rc=QGlAYSNz&btag=c0000000008000&dy_q=1730460231&l=20241101192331A16A97A36093DC99A197&format=mp3",
        "source_timerange": {
            "start_offset": 0,
            "end_offset": 2.0500000000000114
        },
        "target_timerange": {
            "start_offset": 308.01,
            "end_offset": 310.06
        },
        "ignore_audio": false,
        "audio_path": null
    },
    {
        "segment_id": "c5f59654984311ef8fab71120292016a",
        "text": "嗯？他们为何突然都转变了态度？",
        "audio_url": "https://v6-vvecloud.yangyi08.com/fc50386bb67295c557e5fa3f8e2f715a/6724c857/video/tos/cn/tos-cn-v-2cd6b0/osJWgJDAAInAFBnp4NfBRUGeI4F3dLisCEA2XI/?a=7073&ch=0&cr=0&dr=0&&br=0&bt=0&ft=xztlUQhhe6BMyqXNUupJD12Nzj&mime_type=audio_mpeg&rc=QGlAYSNz&btag=c0000000008000&dy_q=1730460231&l=20241101192331A16A97A36093DC99A197&format=mp3",
        "source_timerange": {
            "start_offset": 0,
            "end_offset": 3.1549999999999727
        },
        "target_timerange": {
            "start_offset": 310.06,
            "end_offset": 313.215
        },
        "ignore_audio": false,
        "audio_path": null
    },
    {
        "segment_id": "c5f59910984311ef8fab71120292016a",
        "text": "秦霜内心很是疑惑",
        "audio_url": "https://v6-vvecloud.yangyi08.com/fc50386bb67295c557e5fa3f8e2f715a/6724c857/video/tos/cn/tos-cn-v-2cd6b0/osJWgJDAAInAFBnp4NfBRUGeI4F3dLisCEA2XI/?a=7073&ch=0&cr=0&dr=0&&br=0&bt=0&ft=xztlUQhhe6BMyqXNUupJD12Nzj&mime_type=audio_mpeg&rc=QGlAYSNz&btag=c0000000008000&dy_q=1730460231&l=20241101192331A16A97A36093DC99A197&format=mp3",
        "source_timerange": {
            "start_offset": 3.1549999999999727,
            "end_offset": 4.930000000000007
        },
        "target_timerange": {
            "start_offset": 313.215,
            "end_offset": 314.99
        },
        "ignore_audio": true,
        "audio_path": null
    },
    {
        "segment_id": "c5f59bea984311ef8fab71120292016a",
        "text": "或许代家真的不知道德爷在私下里为难她",
        "audio_url": "https://v3-vvecloud.yangyi08.com/be3bc125247cdd26a1247e13442f0fea/6724c857/video/tos/cn/tos-cn-v-2cd6b0/o0pSoCffNJEA6uRAiGgXEKFEUaA9AnkkDBALBD/?a=7073&ch=0&cr=0&dr=0&&br=0&bt=0&ft=xztlUQhhe6BMyqXNUupJD12Nzj&mime_type=audio_mpeg&rc=QGlAYSNz&btag=c0000000008000&dy_q=1730460231&l=20241101192331A16A97A36093DC99A197&format=mp3",
        "source_timerange": {
            "start_offset": 0,
            "end_offset": 3.490000000000009
        },
        "target_timerange": {
            "start_offset": 314.99,
            "end_offset": 318.48
        },
        "ignore_audio": false,
        "audio_path": null
    },
    {
        "segment_id": "c5f59ee2984311ef8fab71120292016a",
        "text": "“难道是哥哥给代家打电话了！”",
        "audio_url": "https://v6-vvecloud.yangyi08.com/e1b65eb101b57062cb754ab4c060e104/6724c857/video/tos/cn/tos-cn-v-2cd6b0/owudoJkaiIHyo0gAv5A6iArqTkkSAEREQZBA2/?a=7073&ch=0&cr=0&dr=0&&br=0&bt=0&ft=xztlUQhhe6BMyqXNUupJD12Nzj&mime_type=audio_mpeg&rc=QGlAYSNz&btag=c0000000008000&dy_q=1730460231&l=20241101192331A16A97A36093DC99A197&format=mp3",
        "source_timerange": {
            "start_offset": 0,
            "end_offset": 2.6749999999999545
        },
        "target_timerange": {
            "start_offset": 318.48,
            "end_offset": 321.155
        },
        "ignore_audio": false,
        "audio_path": null
    },
    {
        "segment_id": "c5f5a388984311ef8fab71120292016a",
        "text": "这让秦霜把这次的功劳都记在了代家身上",
        "audio_url": "https://v6-vvecloud.yangyi08.com/e1b65eb101b57062cb754ab4c060e104/6724c857/video/tos/cn/tos-cn-v-2cd6b0/owudoJkaiIHyo0gAv5A6iArqTkkSAEREQZBA2/?a=7073&ch=0&cr=0&dr=0&&br=0&bt=0&ft=xztlUQhhe6BMyqXNUupJD12Nzj&mime_type=audio_mpeg&rc=QGlAYSNz&btag=c0000000008000&dy_q=1730460231&l=20241101192331A16A97A36093DC99A197&format=mp3",
        "source_timerange": {
            "start_offset": 2.6749999999999545,
            "end_offset": 5.759999999999991
        },
        "target_timerange": {
            "start_offset": 321.155,
            "end_offset": 324.24
        },
        "ignore_audio": true,
        "audio_path": null
    },
    {
        "segment_id": "c5f5a66c984311ef8fab71120292016a",
        "text": "咦？你们看 那么早史金就来了 看他两眼黑眼圈",
        "audio_url": "https://v9-vvecloud.yangyi08.com/d14017b68219a50f2e43262dd549c663/6724c857/video/tos/cn/tos-cn-v-2cd6b0/o4Qva6o6okBEkITbuAAR7ity0AkyuiEZASlAN/?a=7073&ch=0&cr=0&dr=0&&br=0&bt=0&ft=xztlUQhhe6BMyqXNUupJD12Nzj&mime_type=audio_mpeg&rc=QGlAYSNz&btag=c0000000008000&dy_q=1730460231&l=20241101192331A16A97A36093DC99A197&format=mp3",
        "source_timerange": {
            "start_offset": 0,
            "end_offset": 5.399999999999977
        },
        "target_timerange": {
            "start_offset": 324.24,
            "end_offset": 329.64
        },
        "ignore_audio": false,
        "audio_path": null
    },
    {
        "segment_id": "c5f5a96e984311ef8fab71120292016a",
        "text": "肯定很久没有休息好了！",
        "audio_url": "https://v26-vvecloud.yangyi08.com/01407de7f21816ed5c712e00374c3ac0/6724c857/video/tos/cn/tos-cn-v-2cd6b0/oAQva6oSQkBEkITp2AARAi95ZAkyuiEZASDAd/?a=7073&ch=0&cr=0&dr=0&&br=0&bt=0&ft=xztlUQhhe6BMyqXNUupJD12Nzj&mime_type=audio_mpeg&rc=QGlAYSNz&btag=c0000000008000&dy_q=1730460231&l=20241101192331A16A97A36093DC99A197&format=mp3",
        "source_timerange": {
            "start_offset": 0,
            "end_offset": 1.9950000000000045
        },
        "target_timerange": {
            "start_offset": 329.64,
            "end_offset": 331.635
        },
        "ignore_audio": false,
        "audio_path": null
    },
    {
        "segment_id": "c5f5ac5c984311ef8fab71120292016a",
        "text": "马蓉的声音在我耳边响起 带着一丝嘲讽",
        "audio_url": "https://v26-vvecloud.yangyi08.com/01407de7f21816ed5c712e00374c3ac0/6724c857/video/tos/cn/tos-cn-v-2cd6b0/oAQva6oSQkBEkITp2AARAi95ZAkyuiEZASDAd/?a=7073&ch=0&cr=0&dr=0&&br=0&bt=0&ft=xztlUQhhe6BMyqXNUupJD12Nzj&mime_type=audio_mpeg&rc=QGlAYSNz&btag=c0000000008000&dy_q=1730460231&l=20241101192331A16A97A36093DC99A197&format=mp3",
        "source_timerange": {
            "start_offset": 1.9950000000000045,
            "end_offset": 5.400000000000034
        },
        "target_timerange": {
            "start_offset": 331.635,
            "end_offset": 335.04
        },
        "ignore_audio": true,
        "audio_path": null
    },
    {
        "segment_id": "c5f5af5e984311ef8fab71120292016a",
        "text": "我心中一阵无奈",
        "audio_url": "https://v3-vvecloud.yangyi08.com/38a808b6374ada9ed3ffad4a1f0df24e/6724c857/video/tos/cn/tos-cn-v-2cd6b0/oIAoyBAAO6iAlEyIkaQ9RAbCZkEv3I6kSuiT2/?a=7073&ch=0&cr=0&dr=0&&br=0&bt=0&ft=xztlUQhhe6BMyqXNUupJD12Nzj&mime_type=audio_mpeg&rc=QGlAYSNz&btag=c0000000008000&dy_q=1730460231&l=20241101192331A16A97A36093DC99A197&format=mp3",
        "source_timerange": {
            "start_offset": 0,
            "end_offset": 2.1200000000000045
        },
        "target_timerange": {
            "start_offset": 335.04,
            "end_offset": 337.16
        },
        "ignore_audio": false,
        "audio_path": null
    },
    {
        "segment_id": "c5f5b27e984311ef8fab71120292016a",
        "text": "看来我的疲惫状态已经成为众人关注的焦点了",
        "audio_url": "https://v3-vvecloud.yangyi08.com/bfe57c954e49eedb6732583a38461ab9/6724c857/video/tos/cn/tos-cn-v-2cd6b0/oQB4EAmkQxkBIAASAoKuFAATiaZvdRIn6iyEk/?a=7073&ch=0&cr=0&dr=0&&br=0&bt=0&ft=xztlUQhhe6BMyqXNUupJD12Nzj&mime_type=audio_mpeg&rc=QGlAYSNz&btag=c0000000008000&dy_q=1730460231&l=20241101192331A16A97A36093DC99A197&format=mp3",
        "source_timerange": {
            "start_offset": 0,
            "end_offset": 3.849999999999966
        },
        "target_timerange": {
            "start_offset": 337.16,
            "end_offset": 341.01
        },
        "ignore_audio": false,
        "audio_path": null
    },
    {
        "segment_id": "c5f5b5b2984311ef8fab71120292016a",
        "text": "陈金莲得意地说道：哼！",
        "audio_url": "https://v9-vvecloud.yangyi08.com/740f24880fee19aceddf52e9143ff0c8/6724c857/video/tos/cn/tos-cn-v-2cd6b0/osJCuBELIRDARVglpuARFyJAfgNABnIidxIGZe/?a=7073&ch=0&cr=0&dr=0&&br=0&bt=0&ft=xztlUQhhe6BMyqXNUupJD12Nzj&mime_type=audio_mpeg&rc=QGlAYSNz&btag=c0000000008000&dy_q=1730460231&l=20241101192331A16A97A36093DC99A197&format=mp3",
        "source_timerange": {
            "start_offset": 0,
            "end_offset": 2.8100000000000023
        },
        "target_timerange": {
            "start_offset": 341.01,
            "end_offset": 343.82
        },
        "ignore_audio": false,
        "audio_path": null
    },
    {
        "segment_id": "c5f5b8aa984311ef8fab71120292016a",
        "text": "借网络高利贷 那不是自己找死吗？怪得了谁",
        "audio_url": "https://v26-vvecloud.yangyi08.com/73c8f63b4d958a92e866d9934154626d/6724c857/video/tos/cn/tos-cn-v-2cd6b0/o08RyQDAkEDZiB5oAAcoAE0kTIvAZJ6kTYiuS/?a=7073&ch=0&cr=0&dr=0&&br=0&bt=0&ft=xztlUQhhe6BMyqXNUupJD12Nzj&mime_type=audio_mpeg&rc=QGlAYSNz&btag=c0000000008000&dy_q=1730460231&l=20241101192331A16A97A36093DC99A197&format=mp3",
        "source_timerange": {
            "start_offset": 0,
            "end_offset": 3.9350000000000023
        },
        "target_timerange": {
            "start_offset": 343.82,
            "end_offset": 347.755
        },
        "ignore_audio": false,
        "audio_path": null
    },
    {
        "segment_id": "c5f5bb84984311ef8fab71120292016a",
        "text": "杨自奎也赶到了 看到我这样疲惫的样子",
        "audio_url": "https://v26-vvecloud.yangyi08.com/73c8f63b4d958a92e866d9934154626d/6724c857/video/tos/cn/tos-cn-v-2cd6b0/o08RyQDAkEDZiB5oAAcoAE0kTIvAZJ6kTYiuS/?a=7073&ch=0&cr=0&dr=0&&br=0&bt=0&ft=xztlUQhhe6BMyqXNUupJD12Nzj&mime_type=audio_mpeg&rc=QGlAYSNz&btag=c0000000008000&dy_q=1730460231&l=20241101192331A16A97A36093DC99A197&format=mp3",
        "source_timerange": {
            "start_offset": 3.9350000000000023,
            "end_offset": 7.060000000000002
        },
        "target_timerange": {
            "start_offset": 347.755,
            "end_offset": 350.88
        },
        "ignore_audio": true,
        "audio_path": null
    },
    {
        "segment_id": "c5f5be86984311ef8fab71120292016a",
        "text": "惊讶地说道：金子",
        "audio_url": "https://v26-vvecloud.yangyi08.com/fc69b85610300667b186505cc9af007c/6724c857/video/tos/cn/tos-cn-v-2cd6b0/oYIJIAAARdnJC3DnCFBefG2WypliGEAgNlLIBV/?a=7073&ch=0&cr=0&dr=0&&br=0&bt=0&ft=xztlUQhhe6BMyqXNUupJD12Nzj&mime_type=audio_mpeg&rc=QGlAYSNz&btag=c0000000008000&dy_q=1730460231&l=20241101192331A16A97A36093DC99A197&format=mp3",
        "source_timerange": {
            "start_offset": 0,
            "end_offset": 2.4499999999999886
        },
        "target_timerange": {
            "start_offset": 350.88,
            "end_offset": 353.33
        },
        "ignore_audio": false,
        "audio_path": null
    },
    {
        "segment_id": "c5f5c160984311ef8fab71120292016a",
        "text": "你昨晚是不是做‘一夜九次狼’了 搞得这么疲惫",
        "audio_url": "https://v3-vvecloud.yangyi08.com/45126413a6da3eeaf0c9685f189cb11d/6724c857/video/tos/cn/tos-cn-v-2cd6b0/oQNnbIpIACAnAR4cgEFfJuNDGfKzRkLEAiBAkE/?a=7073&ch=0&cr=0&dr=0&&br=0&bt=0&ft=xztlUQhhe6BMyqXNUupJD12Nzj&mime_type=audio_mpeg&rc=QGlAYSNz&btag=c0000000008000&dy_q=1730460231&l=20241101192331A16A97A36093DC99A197&format=mp3",
        "source_timerange": {
            "start_offset": 0,
            "end_offset": 4.069999999999993
        },
        "target_timerange": {
            "start_offset": 353.33,
            "end_offset": 357.4
        },
        "ignore_audio": false,
        "audio_path": null
    },
    {
        "segment_id": "c5f5c48a984311ef8fab71120292016a",
        "text": "我跟你说 少年不知精宝贵 老来扶床空叹息",
        "audio_url": "https://v3-vvecloud.yangyi08.com/310cde173d3aea4f943200394546ca22/6724c857/video/tos/cn/tos-cn-v-2cd6b0/okvAbi6EoQAkiTRzTdkkAZIuR9AyEYATRBsS0/?a=7073&ch=0&cr=0&dr=0&&br=0&bt=0&ft=xztlUQhhe6BMyqXNUupJD12Nzj&mime_type=audio_mpeg&rc=QGlAYSNz&btag=c0000000008000&dy_q=1730460231&l=20241101192331A16A97A36093DC99A197&format=mp3",
        "source_timerange": {
            "start_offset": 0,
            "end_offset": 4.055000000000007
        },
        "target_timerange": {
            "start_offset": 357.4,
            "end_offset": 361.455
        },
        "ignore_audio": false,
        "audio_path": null
    },
    {
        "segment_id": "c5f5c84a984311ef8fab71120292016a",
        "text": "我对杨自奎的玩笑感到无奈 踢了他一脚 骂道：",
        "audio_url": "https://v3-vvecloud.yangyi08.com/310cde173d3aea4f943200394546ca22/6724c857/video/tos/cn/tos-cn-v-2cd6b0/okvAbi6EoQAkiTRzTdkkAZIuR9AyEYATRBsS0/?a=7073&ch=0&cr=0&dr=0&&br=0&bt=0&ft=xztlUQhhe6BMyqXNUupJD12Nzj&mime_type=audio_mpeg&rc=QGlAYSNz&btag=c0000000008000&dy_q=1730460231&l=20241101192331A16A97A36093DC99A197&format=mp3",
        "source_timerange": {
            "start_offset": 4.055000000000007,
            "end_offset": 7.850000000000023
        },
        "target_timerange": {
            "start_offset": 361.455,
            "end_offset": 365.25
        },
        "ignore_audio": true,
        "audio_path": null
    },
    {
        "segment_id": "c5f5cb7e984311ef8fab71120292016a",
        "text": "狗嘴里吐不出象牙",
        "audio_url": "https://v26-vvecloud.yangyi08.com/3dba5056c677df7ecd32ccd544ddcba2/6724c857/video/tos/cn/tos-cn-v-2cd6b0/osrPEANRAiaLrADbAAgFfJk2EfuFnGEBUAp3kC/?a=7073&ch=0&cr=0&dr=0&&br=0&bt=0&ft=xztlUQhhe6BMyqXNUupJD12Nzj&mime_type=audio_mpeg&rc=QGlAYSNz&btag=c0000000008000&dy_q=1730460231&l=20241101192331A16A97A36093DC99A197&format=mp3",
        "source_timerange": {
            "start_offset": 0,
            "end_offset": 2.339999999999975
        },
        "target_timerange": {
            "start_offset": 365.25,
            "end_offset": 367.59
        },
        "ignore_audio": false,
        "audio_path": null
    },
    {
        "segment_id": "c5f5cef8984311ef8fab71120292016a",
        "text": "滚滚 老子昨晚加班忙了一晚上",
        "audio_url": "https://v26-vvecloud.yangyi08.com/577d30ee7361de679c23ddbbf8e5fd64/6724c857/video/tos/cn/tos-cn-v-2cd6b0/o0HAukyid6BREL7AcZAAQZmmukAkiETS7mIvo/?a=7073&ch=0&cr=0&dr=0&&br=0&bt=0&ft=xztlUQhhe6BMyqXNUupJD12Nzj&mime_type=audio_mpeg&rc=QGlAYSNz&btag=c0000000008000&dy_q=1730460231&l=20241101192331A16A97A36093DC99A197&format=mp3",
        "source_timerange": {
            "start_offset": 0,
            "end_offset": 3.4600000000000364
        },
        "target_timerange": {
            "start_offset": 367.59,
            "end_offset": 371.05
        },
        "ignore_audio": false,
        "audio_path": null
    },
    {
        "segment_id": "c5f5d218984311ef8fab71120292016a",
        "text": "终于搞定了咱们电子商务公司的事",
        "audio_url": "https://v3-vvecloud.yangyi08.com/e238bc960c846cbcb846b68f3f634563/6724c857/video/tos/cn/tos-cn-v-2cd6b0/o0IAEaYeXkvEfdEjNuSOoALSfAYG7AABFCZbkC/?a=7073&ch=0&cr=0&dr=0&&br=0&bt=0&ft=xztlUQhhe6BMyqXNUupJD12Nzj&mime_type=audio_mpeg&rc=QGlAYSNz&btag=c0000000008000&dy_q=1730460231&l=20241101192331A16A97A36093DC99A197&format=mp3",
        "source_timerange": {
            "start_offset": 0,
            "end_offset": 3.1999999999999886
        },
        "target_timerange": {
            "start_offset": 371.05,
            "end_offset": 374.25
        },
        "ignore_audio": false,
        "audio_path": null
    },
    {
        "segment_id": "c5f5d52e984311ef8fab71120292016a",
        "text": "回头再招几个懂电脑的女同学 咱们就开工整",
        "audio_url": "https://v6-vvecloud.yangyi08.com/cc868fcda6158966d01b9635983cf092/6724c857/video/tos/cn/tos-cn-v-2cd6b0/osCISEAovAuQjb1CAZXARkFTGAk6iiybEjBkQ/?a=7073&ch=0&cr=0&dr=0&&br=0&bt=0&ft=xztlUQhhe6BMyqXNUupJD12Nzj&mime_type=audio_mpeg&rc=QGlAYSNz&btag=c0000000008000&dy_q=1730460231&l=20241101192331A16A97A36093DC99A197&format=mp3",
        "source_timerange": {
            "start_offset": 0,
            "end_offset": 3.7250000000000227
        },
        "target_timerange": {
            "start_offset": 374.25,
            "end_offset": 377.975
        },
        "ignore_audio": false,
        "audio_path": null
    },
    {
        "segment_id": "c5f5d84e984311ef8fab71120292016a",
        "text": "杨自奎听后兴奋地说道：什么？",
        "audio_url": "https://v6-vvecloud.yangyi08.com/cc868fcda6158966d01b9635983cf092/6724c857/video/tos/cn/tos-cn-v-2cd6b0/osCISEAovAuQjb1CAZXARkFTGAk6iiybEjBkQ/?a=7073&ch=0&cr=0&dr=0&&br=0&bt=0&ft=xztlUQhhe6BMyqXNUupJD12Nzj&mime_type=audio_mpeg&rc=QGlAYSNz&btag=c0000000008000&dy_q=1730460231&l=20241101192331A16A97A36093DC99A197&format=mp3",
        "source_timerange": {
            "start_offset": 3.7250000000000227,
            "end_offset": 6.410000000000025
        },
        "target_timerange": {
            "start_offset": 377.975,
            "end_offset": 380.66
        },
        "ignore_audio": true,
        "audio_path": null
    },
    {
        "segment_id": "c5f5db50984311ef8fab71120292016a",
        "text": "招女同学 这个好事 必须得交给我啊！",
        "audio_url": "https://v3-vvecloud.yangyi08.com/ea649cf1cc244e8a32bd72b8364ab3d5/6724c857/video/tos/cn/tos-cn-v-2cd6b0/oIAJNEGEDFopLBufgEfkCZAAbFrUAnAiP3CRdk/?a=7073&ch=0&cr=0&dr=0&&br=0&bt=0&ft=xztlUQhhe6BMyqXNUupJD12Nzj&mime_type=audio_mpeg&rc=QGlAYSNz&btag=c0000000008000&dy_q=1730460231&l=20241101192331A16A97A36093DC99A197&format=mp3",
        "source_timerange": {
            "start_offset": 0,
            "end_offset": 4.17999999999995
        },
        "target_timerange": {
            "start_offset": 380.66,
            "end_offset": 384.84
        },
        "ignore_audio": false,
        "audio_path": null
    },
    {
        "segment_id": "c5f5de66984311ef8fab71120292016a",
        "text": "怎么说 我也是二把手的！嘿嘿！",
        "audio_url": "https://v26-vvecloud.yangyi08.com/03ec8715d8f2ae1ec41f3afd97f516dc/6724c857/video/tos/cn/tos-cn-v-2cd6b0/oAWIJCHfLNA20EInBJFfABgISddApIIdRAD5iG/?a=7073&ch=0&cr=0&dr=0&&br=0&bt=0&ft=xztlUQhhe6BMyqXNUupJD12Nzj&mime_type=audio_mpeg&rc=QGlAYSNz&btag=c0000000008000&dy_q=1730460231&l=20241101192331A16A97A36093DC99A197&format=mp3",
        "source_timerange": {
            "start_offset": 0,
            "end_offset": 3.275000000000034
        },
        "target_timerange": {
            "start_offset": 384.84,
            "end_offset": 388.115
        },
        "ignore_audio": false,
        "audio_path": null
    },
    {
        "segment_id": "c5f5e140984311ef8fab71120292016a",
        "text": "他露出了猥琐的笑容",
        "audio_url": "https://v26-vvecloud.yangyi08.com/03ec8715d8f2ae1ec41f3afd97f516dc/6724c857/video/tos/cn/tos-cn-v-2cd6b0/oAWIJCHfLNA20EInBJFfABgISddApIIdRAD5iG/?a=7073&ch=0&cr=0&dr=0&&br=0&bt=0&ft=xztlUQhhe6BMyqXNUupJD12Nzj&mime_type=audio_mpeg&rc=QGlAYSNz&btag=c0000000008000&dy_q=1730460231&l=20241101192331A16A97A36093DC99A197&format=mp3",
        "source_timerange": {
            "start_offset": 3.275000000000034,
            "end_offset": 5.360000000000014
        },
        "target_timerange": {
            "start_offset": 388.115,
            "end_offset": 390.2
        },
        "ignore_audio": true,
        "audio_path": null
    },
    {
        "segment_id": "c5f5e442984311ef8fab71120292016a",
        "text": "我白了他一眼 决定不再搭理他",
        "audio_url": "https://v6-vvecloud.yangyi08.com/61aa6423cd6d2f1fcf11a3a97471f2c1/6724c858/video/tos/cn/tos-cn-v-2cd6b0/okZcoDwSkCR6IyAEKAvQkunkCi6AZiABA8TES/?a=7073&ch=0&cr=0&dr=0&&br=0&bt=0&ft=xztlUQhhe6BMyqSNUupJD12Nzj&mime_type=audio_mpeg&rc=QGlAYSNz&btag=c0000000008000&dy_q=1730460232&l=20241101192331A16A97A36093DC99A197&format=mp3",
        "source_timerange": {
            "start_offset": 0,
            "end_offset": 3.0600000000000023
        },
        "target_timerange": {
            "start_offset": 390.2,
            "end_offset": 393.26
        },
        "ignore_audio": false,
        "audio_path": null
    },
    {
        "segment_id": "c5f5e762984311ef8fab71120292016a",
        "text": "这节课是思政老师的",
        "audio_url": "https://v9-vvecloud.yangyi08.com/7ac7de712868abaf2aa22533b9b5bd06/6724c857/video/tos/cn/tos-cn-v-2cd6b0/oIA4EiHFjyIdouBQ6TaZkskAALISARMxAEivk/?a=7073&ch=0&cr=0&dr=0&&br=0&bt=0&ft=xztlUQhhe6BMyqXNUupJD12Nzj&mime_type=audio_mpeg&rc=QGlAYSNz&btag=c0000000008000&dy_q=1730460231&l=20241101192331A16A97A36093DC99A197&format=mp3",
        "source_timerange": {
            "start_offset": 0,
            "end_offset": 2.480000000000018
        },
        "target_timerange": {
            "start_offset": 393.26,
            "end_offset": 395.74
        },
        "ignore_audio": false,
        "audio_path": null
    },
    {
        "segment_id": "c5f5ea96984311ef8fab71120292016a",
        "text": "他可是位大佬 上课非常严谨",
        "audio_url": "https://v3-vvecloud.yangyi08.com/bcfb56ddb09e36eb751f381ba1ee285e/6724c857/video/tos/cn/tos-cn-v-2cd6b0/ocIiMfLJag1RD3AIA6mECGBNdAJFIif0nOpCAB/?a=7073&ch=0&cr=0&dr=0&&br=0&bt=0&ft=xztlUQhhe6BMyqXNUupJD12Nzj&mime_type=audio_mpeg&rc=QGlAYSNz&btag=c0000000008000&dy_q=1730460231&l=20241101192331A16A97A36093DC99A197&format=mp3",
        "source_timerange": {
            "start_offset": 0,
            "end_offset": 3.2799999999999727
        },
        "target_timerange": {
            "start_offset": 395.74,
            "end_offset": 399.02
        },
        "ignore_audio": false,
        "audio_path": null
    },
    {
        "segment_id": "c5f5ee10984311ef8fab71120292016a",
        "text": "点名也认真 一旦被抽到 那就基本挂了",
        "audio_url": "https://v9-vvecloud.yangyi08.com/2956b7589c579036a93c91089e6bede7/6724c857/video/tos/cn/tos-cn-v-2cd6b0/okube3DHIFCpIoBJAAENAdiAAkLcfRkJnjIBgi/?a=7073&ch=0&cr=0&dr=0&&br=0&bt=0&ft=xztlUQhhe6BMyqXNUupJD12Nzj&mime_type=audio_mpeg&rc=QGlAYSNz&btag=c0000000008000&dy_q=1730460231&l=20241101192331A16A97A36093DC99A197&format=mp3",
        "source_timerange": {
            "start_offset": 0,
            "end_offset": 4.28000000000003
        },
        "target_timerange": {
            "start_offset": 399.02,
            "end_offset": 403.3
        },
        "ignore_audio": false,
        "audio_path": null
    },
    {
        "segment_id": "c5f5f68a984311ef8fab71120292016a",
        "text": "我可不想因为这些闲事影响到我的学业",
        "audio_url": "https://v9-vvecloud.yangyi08.com/7517751edbc888c1df0d83366d830422/6724c857/video/tos/cn/tos-cn-v-2cd6b0/ooJdIAA2nBA3OkuJB3FEgpDHiJCRCeAIIyfDNL/?a=7073&ch=0&cr=0&dr=0&&br=0&bt=0&ft=xztlUQhhe6BMyqXNUupJD12Nzj&mime_type=audio_mpeg&rc=QGlAYSNz&btag=c0000000008000&dy_q=1730460231&l=20241101192331A16A97A36093DC99A197&format=mp3",
        "source_timerange": {
            "start_offset": 0,
            "end_offset": 3.2799999999999727
        },
        "target_timerange": {
            "start_offset": 403.3,
            "end_offset": 406.58
        },
        "ignore_audio": false,
        "audio_path": null
    },
    {
        "segment_id": "c5f5f87e984311ef8fab71120292016a",
        "text": "哼！他们还在唱双簧",
        "audio_url": "https://v26-vvecloud.yangyi08.com/32c617f089064ffe9b0d0593b37a385e/6724c857/video/tos/cn/tos-cn-v-2cd6b0/oIidIAAOnBAMWAZJByFEgpDHiJCRBfAIINfDNL/?a=7073&ch=0&cr=0&dr=0&&br=0&bt=0&ft=xztlUQhhe6BMyqXNUupJD12Nzj&mime_type=audio_mpeg&rc=QGlAYSNz&btag=c0000000008000&dy_q=1730460231&l=20241101192331A16A97A36093DC99A197&format=mp3",
        "source_timerange": {
            "start_offset": 0,
            "end_offset": 2.9499999999999886
        },
        "target_timerange": {
            "start_offset": 406.58,
            "end_offset": 409.53
        },
        "ignore_audio": false,
        "audio_path": null
    },
    {
        "segment_id": "c5f5fa4a984311ef8fab71120292016a",
        "text": "负债几百万 还怎么招得到人！",
        "audio_url": "https://v3-vvecloud.yangyi08.com/45e74ec771328d57ff81a5a57684dbfd/6724c858/video/tos/cn/tos-cn-v-2cd6b0/oIEAINcfLIWIMOiRHdJncAFpcAADpBgACCmeJB/?a=7073&ch=0&cr=0&dr=0&&br=0&bt=0&ft=xztlUQhhe6BMyqSNUupJD12Nzj&mime_type=audio_mpeg&rc=QGlAYSNz&btag=c0000000008000&dy_q=1730460232&l=20241101192331A16A97A36093DC99A197&format=mp3",
        "source_timerange": {
            "start_offset": 0,
            "end_offset": 2.965000000000032
        },
        "target_timerange": {
            "start_offset": 409.53,
            "end_offset": 412.495
        },
        "ignore_audio": false,
        "audio_path": null
    },
    {
        "segment_id": "c5f5fc16984311ef8fab71120292016a",
        "text": "马蓉鄙夷地说道 显然是对我的计划不屑一顾",
        "audio_url": "https://v3-vvecloud.yangyi08.com/45e74ec771328d57ff81a5a57684dbfd/6724c858/video/tos/cn/tos-cn-v-2cd6b0/oIEAINcfLIWIMOiRHdJncAFpcAADpBgACCmeJB/?a=7073&ch=0&cr=0&dr=0&&br=0&bt=0&ft=xztlUQhhe6BMyqSNUupJD12Nzj&mime_type=audio_mpeg&rc=QGlAYSNz&btag=c0000000008000&dy_q=1730460232&l=20241101192331A16A97A36093DC99A197&format=mp3",
        "source_timerange": {
            "start_offset": 2.965000000000032,
            "end_offset": 6.550000000000011
        },
        "target_timerange": {
            "start_offset": 412.495,
            "end_offset": 416.08
        },
        "ignore_audio": true,
        "audio_path": null
    },
    {
        "segment_id": "c5f5fe14984311ef8fab71120292016a",
        "text": "虽然我心里明白她说的有道理 但我有我的打算",
        "audio_url": "https://v3-vvecloud.yangyi08.com/a810a121de0fe2a1ac2b9afc071a14dd/6724c858/video/tos/cn/tos-cn-v-2cd6b0/oYA0EmiBAEfgn9dAuzlkRx5EkAi8YIBkyjAT6Q/?a=7073&ch=0&cr=0&dr=0&&br=0&bt=0&ft=xztlUQhhe6BMyqSNUupJD12Nzj&mime_type=audio_mpeg&rc=QGlAYSNz&btag=c0000000008000&dy_q=1730460232&l=20241101192331A16A97A36093DC99A197&format=mp3",
        "source_timerange": {
            "start_offset": 0,
            "end_offset": 4.03000000000003
        },
        "target_timerange": {
            "start_offset": 416.08,
            "end_offset": 420.11
        },
        "ignore_audio": false,
        "audio_path": null
    },
    {
        "segment_id": "c5f60012984311ef8fab71120292016a",
        "text": "我知道 只要努力 就一定会迎来转机",
        "audio_url": "https://v26-vvecloud.yangyi08.com/c4f86579750ae8915b907f68f598bdcf/6724c858/video/tos/cn/tos-cn-v-2cd6b0/oYLnBkBAEHkFIAuCXg6EJfqARp5EDAAzifdEUN/?a=7073&ch=0&cr=0&dr=0&&br=0&bt=0&ft=xztlUQhhe6BMyqSNUupJD12Nzj&mime_type=audio_mpeg&rc=QGlAYSNz&btag=c0000000008000&dy_q=1730460232&l=20241101192331A16A97A36093DC99A197&format=mp3",
        "source_timerange": {
            "start_offset": 0,
            "end_offset": 3.849999999999966
        },
        "target_timerange": {
            "start_offset": 420.11,
            "end_offset": 423.96
        },
        "ignore_audio": false,
        "audio_path": null
    }
]