[
    {
        "segment_id": "edf73e1a984211efad70fa163e917467",
        "text": "秦霜的声音突然打断了我的思绪：你被她气到了？",
        "audio_url": "https://v26-vvecloud.yangyi08.com/6c5e923ec97f2db545bc3700415766b4/6724c6ed/video/tos/cn/tos-cn-v-2cd6b0/osGMOFekGSQAA4jCE3AnQyLIfeASAOS2GdBXCK/?a=7073&ch=0&cr=0&dr=0&&br=0&bt=0&ft=xztlUQhhe6BMyqMIUupJD12Nzj&mime_type=audio_mpeg&rc=QGlAYSNz&btag=c0000000008000&dy_q=1730459869&l=20241101191736D9ABE757E6C552976900&format=mp3",
        "source_timerange": {
            "start_offset": 0,
            "end_offset": 4.25
        },
        "target_timerange": {
            "start_offset": 0,
            "end_offset": 4.25
        },
        "ignore_audio": false,
        "audio_path": null
    },
    {
        "segment_id": "edf744f0984211efad70fa163e917467",
        "text": "你对她还念念不忘吧？",
        "audio_url": "https://v6-vvecloud.yangyi08.com/c2f5304878d0c934131cef712d24c0e9/6724c6ec/video/tos/cn/tos-cn-v-2cd6b0/oI32AkxiltE1kANzBJAEIubitfAGzuRhgBvAQm/?a=7073&ch=0&cr=0&dr=0&&br=0&bt=0&ft=xztlUQhhe6BMyqDIUupJD12Nzj&mime_type=audio_mpeg&rc=QGlAYSNz&btag=c0000000008000&dy_q=1730459868&l=20241101191736D9ABE757E6C552976900&format=mp3",
        "source_timerange": {
            "start_offset": 0,
            "end_offset": 2.115
        },
        "target_timerange": {
            "start_offset": 4.25,
            "end_offset": 6.365
        },
        "ignore_audio": false,
        "audio_path": null
    },
    {
        "segment_id": "edf749b4984211efad70fa163e917467",
        "text": "我一愣 心里暗想她是不是在吃醋",
        "audio_url": "https://v6-vvecloud.yangyi08.com/c2f5304878d0c934131cef712d24c0e9/6724c6ec/video/tos/cn/tos-cn-v-2cd6b0/oI32AkxiltE1kANzBJAEIubitfAGzuRhgBvAQm/?a=7073&ch=0&cr=0&dr=0&&br=0&bt=0&ft=xztlUQhhe6BMyqDIUupJD12Nzj&mime_type=audio_mpeg&rc=QGlAYSNz&btag=c0000000008000&dy_q=1730459868&l=20241101191736D9ABE757E6C552976900&format=mp3",
        "source_timerange": {
            "start_offset": 2.115,
            "end_offset": 5.15
        },
        "target_timerange": {
            "start_offset": 6.365,
            "end_offset": 9.4
        },
        "ignore_audio": true,
        "audio_path": null
    },
    {
        "segment_id": "edf74f72984211efad70fa163e917467",
        "text": "我连忙解释 我对她的感觉已经淡了",
        "audio_url": "https://v9-vvecloud.yangyi08.com/d9ec141694f0468d1f974d6d619f81be/6724c6ec/video/tos/cn/tos-cn-v-2cd6b0/o8G2AIuAGQ4S3LREFGyeC6e2fjAECjAwSOQXFB/?a=7073&ch=0&cr=0&dr=0&&br=0&bt=0&ft=xztlUQhhe6BMyqDIUupJD12Nzj&mime_type=audio_mpeg&rc=QGlAYSNz&btag=c0000000008000&dy_q=1730459868&l=20241101191736D9ABE757E6C552976900&format=mp3",
        "source_timerange": {
            "start_offset": 0,
            "end_offset": 3.639999999999999
        },
        "target_timerange": {
            "start_offset": 9.4,
            "end_offset": 13.04
        },
        "ignore_audio": false,
        "audio_path": null
    },
    {
        "segment_id": "edf75440984211efad70fa163e917467",
        "text": "只剩下无尽的恨",
        "audio_url": "https://v26-vvecloud.yangyi08.com/2bd1e3a7bf024a0f1bab4bd880faf030/6724c6ed/video/tos/cn/tos-cn-v-2cd6b0/oguRfL8EIEAEAESiXkeGIA3FjAetOGGCBA2NCa/?a=7073&ch=0&cr=0&dr=0&&br=0&bt=0&ft=xztlUQhhe6BMyqMIUupJD12Nzj&mime_type=audio_mpeg&rc=QGlAYSNz&btag=c0000000008000&dy_q=1730459869&l=20241101191736D9ABE757E6C552976900&format=mp3",
        "source_timerange": {
            "start_offset": 0,
            "end_offset": 2.0500000000000007
        },
        "target_timerange": {
            "start_offset": 13.04,
            "end_offset": 15.09
        },
        "ignore_audio": false,
        "audio_path": null
    },
    {
        "segment_id": "edf7581e984211efad70fa163e917467",
        "text": "之前那些都是过去的事了",
        "audio_url": "https://v9-vvecloud.yangyi08.com/2faca6379efb05e4dd8b0bb95cdcb6eb/6724c6ec/video/tos/cn/tos-cn-v-2cd6b0/o0fzR5IARLBkuk6ituixtEANg4AmEQAwlxAh8B/?a=7073&ch=0&cr=0&dr=0&&br=0&bt=0&ft=xztlUQhhe6BMyqDIUupJD12Nzj&mime_type=audio_mpeg&rc=QGlAYSNz&btag=c0000000008000&dy_q=1730459868&l=20241101191736D9ABE757E6C552976900&format=mp3",
        "source_timerange": {
            "start_offset": 0,
            "end_offset": 2.379999999999999
        },
        "target_timerange": {
            "start_offset": 15.09,
            "end_offset": 17.47
        },
        "ignore_audio": false,
        "audio_path": null
    },
    {
        "segment_id": "edf75b8e984211efad70fa163e917467",
        "text": "现在最重要的是我身边的这个女人",
        "audio_url": "https://v9-vvecloud.yangyi08.com/25f2a646487d753b2296d705926bc5fa/6724c6ed/video/tos/cn/tos-cn-v-2cd6b0/okAuNAAEzAg7FI0kA5iiQxBtRkBInvAEEtfghl/?a=7073&ch=0&cr=0&dr=0&&br=0&bt=0&ft=xztlUQhhe6BMyqMIUupJD12Nzj&mime_type=audio_mpeg&rc=QGlAYSNz&btag=c0000000008000&dy_q=1730459869&l=20241101191736D9ABE757E6C552976900&format=mp3",
        "source_timerange": {
            "start_offset": 0,
            "end_offset": 3.200000000000003
        },
        "target_timerange": {
            "start_offset": 17.47,
            "end_offset": 20.67
        },
        "ignore_audio": false,
        "audio_path": null
    },
    {
        "segment_id": "edf75df0984211efad70fa163e917467",
        "text": "我轻轻拉起秦霜的手 感受到她微微的怦然心动",
        "audio_url": "https://v26-vvecloud.yangyi08.com/7495ac5f2c237a34d440aca6946ebdca/6724c6ed/video/tos/cn/tos-cn-v-2cd6b0/oQnJAeuuEALNBIciEbAkrACGARFNtDfS6gjDjE/?a=7073&ch=0&cr=0&dr=0&&br=0&bt=0&ft=xztlUQhhe6BMyqMIUupJD12Nzj&mime_type=audio_mpeg&rc=QGlAYSNz&btag=c0000000008000&dy_q=1730459869&l=20241101191736D9ABE757E6C552976900&format=mp3",
        "source_timerange": {
            "start_offset": 0,
            "end_offset": 4.209999999999997
        },
        "target_timerange": {
            "start_offset": 20.67,
            "end_offset": 24.88
        },
        "ignore_audio": false,
        "audio_path": null
    },
    {
        "segment_id": "edf76052984211efad70fa163e917467",
        "text": "她的眼神中流露出一丝惊讶 却并没有拒绝",
        "audio_url": "https://v26-vvecloud.yangyi08.com/f865b64e94ceb7d866218ca1d03d5ece/6724c6ec/video/tos/cn/tos-cn-v-2cd6b0/o0MuNAAHzAgTRMmkA0iiQxBtRkBInuAEE0f5hl/?a=7073&ch=0&cr=0&dr=0&&br=0&bt=0&ft=xztlUQhhe6BMyqDIUupJD12Nzj&mime_type=audio_mpeg&rc=QGlAYSNz&btag=c0000000008000&dy_q=1730459868&l=20241101191736D9ABE757E6C552976900&format=mp3",
        "source_timerange": {
            "start_offset": 0,
            "end_offset": 4.18
        },
        "target_timerange": {
            "start_offset": 24.88,
            "end_offset": 29.06
        },
        "ignore_audio": false,
        "audio_path": null
    },
    {
        "segment_id": "edf76318984211efad70fa163e917467",
        "text": "我趁机向她表白：霜姐 相信我",
        "audio_url": "https://v9-vvecloud.yangyi08.com/4793e485addfb076c525f55c3d988967/6724c6ec/video/tos/cn/tos-cn-v-2cd6b0/oke3Av2CXOceQAIe4CELFERGC0A0SQjSGxGFAB/?a=7073&ch=0&cr=0&dr=0&&br=0&bt=0&ft=xztlUQhhe6BMyqDIUupJD12Nzj&mime_type=audio_mpeg&rc=QGlAYSNz&btag=c0000000008000&dy_q=1730459868&l=20241101191736D9ABE757E6C552976900&format=mp3",
        "source_timerange": {
            "start_offset": 0,
            "end_offset": 3.7800000000000047
        },
        "target_timerange": {
            "start_offset": 29.06,
            "end_offset": 32.84
        },
        "ignore_audio": false,
        "audio_path": null
    },
    {
        "segment_id": "edf767d2984211efad70fa163e917467",
        "text": "我接下来会用实际证明我对你的爱",
        "audio_url": "https://v9-vvecloud.yangyi08.com/a95b845b6c49fdcb178037c0d2a89536/6724c6ed/video/tos/cn/tos-cn-v-2cd6b0/oAbLNyg5aEAtNAnnCIAyEuEkfjiAzBADyDfRJF/?a=7073&ch=0&cr=0&dr=0&&br=0&bt=0&ft=xztlUQhhe6BMyqMIUupJD12Nzj&mime_type=audio_mpeg&rc=QGlAYSNz&btag=c0000000008000&dy_q=1730459869&l=20241101191736D9ABE757E6C552976900&format=mp3",
        "source_timerange": {
            "start_offset": 0,
            "end_offset": 2.7149999999999963
        },
        "target_timerange": {
            "start_offset": 32.84,
            "end_offset": 35.555
        },
        "ignore_audio": false,
        "audio_path": null
    },
    {
        "segment_id": "edf76c50984211efad70fa163e917467",
        "text": "这时 我能感受到她的心跳加速",
        "audio_url": "https://v9-vvecloud.yangyi08.com/a95b845b6c49fdcb178037c0d2a89536/6724c6ed/video/tos/cn/tos-cn-v-2cd6b0/oAbLNyg5aEAtNAnnCIAyEuEkfjiAzBADyDfRJF/?a=7073&ch=0&cr=0&dr=0&&br=0&bt=0&ft=xztlUQhhe6BMyqMIUupJD12Nzj&mime_type=audio_mpeg&rc=QGlAYSNz&btag=c0000000008000&dy_q=1730459869&l=20241101191736D9ABE757E6C552976900&format=mp3",
        "source_timerange": {
            "start_offset": 2.7149999999999963,
            "end_offset": 5.579999999999998
        },
        "target_timerange": {
            "start_offset": 35.555,
            "end_offset": 38.42
        },
        "ignore_audio": true,
        "audio_path": null
    },
    {
        "segment_id": "edf77088984211efad70fa163e917467",
        "text": "脸颊微红 心中不禁暗自得意",
        "audio_url": "https://v3-vvecloud.yangyi08.com/4f8ff545cefca70436325e9f4b3594a4/6724c6ec/video/tos/cn/tos-cn-v-2cd6b0/osa6EJAzgQAEsAIsAiANfAvBktyBkizxlhlu8R/?a=7073&ch=0&cr=0&dr=0&&br=0&bt=0&ft=xztlUQhhe6BMyqDIUupJD12Nzj&mime_type=audio_mpeg&rc=QGlAYSNz&btag=c0000000008000&dy_q=1730459868&l=20241101191736D9ABE757E6C552976900&format=mp3",
        "source_timerange": {
            "start_offset": 0,
            "end_offset": 3.3799999999999955
        },
        "target_timerange": {
            "start_offset": 38.42,
            "end_offset": 41.8
        },
        "ignore_audio": false,
        "audio_path": null
    },
    {
        "segment_id": "edf77682984211efad70fa163e917467",
        "text": "正当我们沉浸在这个温馨的瞬间时",
        "audio_url": "https://v6-vvecloud.yangyi08.com/472c58d43a43cff5b15b375fcd110116/6724c6ec/video/tos/cn/tos-cn-v-2cd6b0/oMAUultXBEANIk9xBqiAhRItJAfazAgEiMQHRk/?a=7073&ch=0&cr=0&dr=0&&br=0&bt=0&ft=xztlUQhhe6BMyqDIUupJD12Nzj&mime_type=audio_mpeg&rc=QGlAYSNz&btag=c0000000008000&dy_q=1730459868&l=20241101191736D9ABE757E6C552976900&format=mp3",
        "source_timerange": {
            "start_offset": 0,
            "end_offset": 3.020000000000003
        },
        "target_timerange": {
            "start_offset": 41.8,
            "end_offset": 44.82
        },
        "ignore_audio": false,
        "audio_path": null
    },
    {
        "segment_id": "edf77a92984211efad70fa163e917467",
        "text": "门外突然传来了管家的声音：小姐 代少来了！",
        "audio_url": "https://v26-vvecloud.yangyi08.com/87e41d60134931666d4299ef1bd6653d/6724c6ed/video/tos/cn/tos-cn-v-2cd6b0/o0HkIlMmzEhARAg0uAkiwAxiErBAdvBStQf3NS/?a=7073&ch=0&cr=0&dr=0&&br=0&bt=0&ft=xztlUQhhe6BMyqMIUupJD12Nzj&mime_type=audio_mpeg&rc=QGlAYSNz&btag=c0000000008000&dy_q=1730459869&l=20241101191736D9ABE757E6C552976900&format=mp3",
        "source_timerange": {
            "start_offset": 0,
            "end_offset": 4.5
        },
        "target_timerange": {
            "start_offset": 44.82,
            "end_offset": 49.32
        },
        "ignore_audio": false,
        "audio_path": null
    },
    {
        "segment_id": "edf77cfe984211efad70fa163e917467",
        "text": "正在外面等着呢！我和秦霜的心情顿时紧张起来",
        "audio_url": "https://v9-vvecloud.yangyi08.com/b2d944070fe2d55b1f0185f57b796cfc/6724c6ed/video/tos/cn/tos-cn-v-2cd6b0/okulzgE3xABHQpBtEvARABcknhiNIkpiEAF5fA/?a=7073&ch=0&cr=0&dr=0&&br=0&bt=0&ft=xztlUQhhe6BMyqMIUupJD12Nzj&mime_type=audio_mpeg&rc=QGlAYSNz&btag=c0000000008000&dy_q=1730459869&l=20241101191736D9ABE757E6C552976900&format=mp3",
        "source_timerange": {
            "start_offset": 0,
            "end_offset": 4.5
        },
        "target_timerange": {
            "start_offset": 49.32,
            "end_offset": 53.82
        },
        "ignore_audio": false,
        "audio_path": null
    },
    {
        "segment_id": "edf77ff6984211efad70fa163e917467",
        "text": "刚才的温馨气氛瞬间被打破",
        "audio_url": "https://v3-vvecloud.yangyi08.com/360e14891e2c68356d39130fd5826ef4/6724c6ec/video/tos/cn/tos-cn-v-2cd6b0/osixNAzzkBqogUtAi52lAIuAhskfECgARToQEB/?a=7073&ch=0&cr=0&dr=0&&br=0&bt=0&ft=xztlUQhhe6BMyqDIUupJD12Nzj&mime_type=audio_mpeg&rc=QGlAYSNz&btag=c0000000008000&dy_q=1730459868&l=20241101191736D9ABE757E6C552976900&format=mp3",
        "source_timerange": {
            "start_offset": 0,
            "end_offset": 2.950000000000003
        },
        "target_timerange": {
            "start_offset": 53.82,
            "end_offset": 56.77
        },
        "ignore_audio": false,
        "audio_path": null
    },
    {
        "segment_id": "edf78438984211efad70fa163e917467",
        "text": "我想要离开 却被秦霜一把拉住",
        "audio_url": "https://v3-vvecloud.yangyi08.com/10ef33edbb5c317a13ddc18c06cae4f0/6724c6ec/video/tos/cn/tos-cn-v-2cd6b0/okBkAhAtEAskMEirNfIuRuwgkxvElQcPAIBAiz/?a=7073&ch=0&cr=0&dr=0&&br=0&bt=0&ft=xztlUQhhe6BMyqDIUupJD12Nzj&mime_type=audio_mpeg&rc=QGlAYSNz&btag=c0000000008000&dy_q=1730459868&l=20241101191736D9ABE757E6C552976900&format=mp3",
        "source_timerange": {
            "start_offset": 0,
            "end_offset": 3.309999999999995
        },
        "target_timerange": {
            "start_offset": 56.77,
            "end_offset": 60.08
        },
        "ignore_audio": false,
        "audio_path": null
    },
    {
        "segment_id": "edf78848984211efad70fa163e917467",
        "text": "她的眼中透出一丝坚定：",
        "audio_url": "https://v26-vvecloud.yangyi08.com/61fbaabd0404b6f39f917fe01c1ac84e/6724c6ed/video/tos/cn/tos-cn-v-2cd6b0/oMLBANbfBJynFACuIjbiRcrDgE4iDaA3StJfIA/?a=7073&ch=0&cr=0&dr=0&&br=0&bt=0&ft=xztlUQhhe6BMyqMIUupJD12Nzj&mime_type=audio_mpeg&rc=QGlAYSNz&btag=c0000000008000&dy_q=1730459869&l=20241101191736D9ABE757E6C552976900&format=mp3",
        "source_timerange": {
            "start_offset": 0,
            "end_offset": 2.480000000000004
        },
        "target_timerange": {
            "start_offset": 60.08,
            "end_offset": 62.56
        },
        "ignore_audio": false,
        "audio_path": null
    },
    {
        "segment_id": "edf78ab4984211efad70fa163e917467",
        "text": "“一起 他肯定是冲你来的！”",
        "audio_url": "https://v26-vvecloud.yangyi08.com/caf99b4e4c80af557d17bbc02db921a4/6724c6ed/video/tos/cn/tos-cn-v-2cd6b0/o05bJCyzLDAYpEInBJFfABgelcpAjGIIRADqib/?a=7073&ch=0&cr=0&dr=0&&br=0&bt=0&ft=xztlUQhhe6BMyqMIUupJD12Nzj&mime_type=audio_mpeg&rc=QGlAYSNz&btag=c0000000008000&dy_q=1730459869&l=20241101191736D9ABE757E6C552976900&format=mp3",
        "source_timerange": {
            "start_offset": 0,
            "end_offset": 2.6850000000000023
        },
        "target_timerange": {
            "start_offset": 62.56,
            "end_offset": 65.245
        },
        "ignore_audio": false,
        "audio_path": null
    },
    {
        "segment_id": "edf78cf8984211efad70fa163e917467",
        "text": "我心中一惊 代红伟这个家伙非但不善罢甘休",
        "audio_url": "https://v26-vvecloud.yangyi08.com/caf99b4e4c80af557d17bbc02db921a4/6724c6ed/video/tos/cn/tos-cn-v-2cd6b0/o05bJCyzLDAYpEInBJFfABgelcpAjGIIRADqib/?a=7073&ch=0&cr=0&dr=0&&br=0&bt=0&ft=xztlUQhhe6BMyqMIUupJD12Nzj&mime_type=audio_mpeg&rc=QGlAYSNz&btag=c0000000008000&dy_q=1730459869&l=20241101191736D9ABE757E6C552976900&format=mp3",
        "source_timerange": {
            "start_offset": 2.6850000000000023,
            "end_offset": 6.6200000000000045
        },
        "target_timerange": {
            "start_offset": 65.245,
            "end_offset": 69.18
        },
        "ignore_audio": true,
        "audio_path": null
    },
    {
        "segment_id": "edf78f6e984211efad70fa163e917467",
        "text": "恐怕还会来捣乱",
        "audio_url": "https://v9-vvecloud.yangyi08.com/ec968ece3c9f66353b0a83e5118623c9/6724c6ed/video/tos/cn/tos-cn-v-2cd6b0/oAPXABxE5AilgrtfRQ8kMhzNuAIXkBVGiEdAAu/?a=7073&ch=0&cr=0&dr=0&&br=0&bt=0&ft=xztlUQhhe6BMyqMIUupJD12Nzj&mime_type=audio_mpeg&rc=QGlAYSNz&btag=c0000000008000&dy_q=1730459869&l=20241101191736D9ABE757E6C552976900&format=mp3",
        "source_timerange": {
            "start_offset": 0,
            "end_offset": 2.089999999999989
        },
        "target_timerange": {
            "start_offset": 69.18,
            "end_offset": 71.27
        },
        "ignore_audio": false,
        "audio_path": null
    },
    {
        "segment_id": "edf791b2984211efad70fa163e917467",
        "text": "我尽量保持镇定",
        "audio_url": "https://v6-vvecloud.yangyi08.com/a1b39ecee213c0fa996139e1f34b46b7/6724c6ec/video/tos/cn/tos-cn-v-2cd6b0/oEBgANhksGzEfAVA7ABlVEtIhkuIixiQA22Rir/?a=7073&ch=0&cr=0&dr=0&&br=0&bt=0&ft=xztlUQhhe6BMyqDIUupJD12Nzj&mime_type=audio_mpeg&rc=QGlAYSNz&btag=c0000000008000&dy_q=1730459868&l=20241101191736D9ABE757E6C552976900&format=mp3",
        "source_timerange": {
            "start_offset": 0,
            "end_offset": 2.0200000000000102
        },
        "target_timerange": {
            "start_offset": 71.27,
            "end_offset": 73.29
        },
        "ignore_audio": false,
        "audio_path": null
    },
    {
        "segment_id": "edf7940a984211efad70fa163e917467",
        "text": "坐在秦霜身边 拿起一旁的水果刀",
        "audio_url": "https://v6-vvecloud.yangyi08.com/cb33e50ad9319823e60180365a63ba89/6724c6ed/video/tos/cn/tos-cn-v-2cd6b0/ochBqAIAiAZAENiQzvkBCulfmx2IAtRkkEgUcE/?a=7073&ch=0&cr=0&dr=0&&br=0&bt=0&ft=xztlUQhhe6BMyqMIUupJD12Nzj&mime_type=audio_mpeg&rc=QGlAYSNz&btag=c0000000008000&dy_q=1730459869&l=20241101191736D9ABE757E6C552976900&format=mp3",
        "source_timerange": {
            "start_offset": 0,
            "end_offset": 3.529999999999987
        },
        "target_timerange": {
            "start_offset": 73.29,
            "end_offset": 76.82
        },
        "ignore_audio": false,
        "audio_path": null
    },
    {
        "segment_id": "edf7964e984211efad70fa163e917467",
        "text": "认真地削起了苹果",
        "audio_url": "https://v3-vvecloud.yangyi08.com/bcdb3b372073a42f3b0d64099649eeab/6724c6ed/video/tos/cn/tos-cn-v-2cd6b0/owBIpcfbIKhEGfSCGJaGeBojG3FLAAXAABQOIX/?a=7073&ch=0&cr=0&dr=0&&br=0&bt=0&ft=xztlUQhhe6BMyqMIUupJD12Nzj&mime_type=audio_mpeg&rc=QGlAYSNz&btag=c0000000008000&dy_q=1730459869&l=20241101191736D9ABE757E6C552976900&format=mp3",
        "source_timerange": {
            "start_offset": 0,
            "end_offset": 2.0500000000000114
        },
        "target_timerange": {
            "start_offset": 76.82,
            "end_offset": 78.87
        },
        "ignore_audio": false,
        "audio_path": null
    },
    {
        "segment_id": "edf799f0984211efad70fa163e917467",
        "text": "再过不久 阿东便将代红伟带了进来",
        "audio_url": "https://v3-vvecloud.yangyi08.com/31147367b00a1e9bdd2c0b2a4f964f4e/6724c6ec/video/tos/cn/tos-cn-v-2cd6b0/oQw3AkxiltE8kANzB2AEIuji5fAyksRhgBcAQ4/?a=7073&ch=0&cr=0&dr=0&&br=0&bt=0&ft=xztlUQhhe6BMyqDIUupJD12Nzj&mime_type=audio_mpeg&rc=QGlAYSNz&btag=c0000000008000&dy_q=1730459868&l=20241101191736D9ABE757E6C552976900&format=mp3",
        "source_timerange": {
            "start_offset": 0,
            "end_offset": 3.8499999999999943
        },
        "target_timerange": {
            "start_offset": 78.87,
            "end_offset": 82.72
        },
        "ignore_audio": false,
        "audio_path": null
    },
    {
        "segment_id": "edf79fa4984211efad70fa163e917467",
        "text": "他看到我和秦霜如此亲密 脸上瞬间变得阴沉",
        "audio_url": "https://v3-vvecloud.yangyi08.com/534a6b6ce02c73b9670d017c7ce361d3/6724c6ed/video/tos/cn/tos-cn-v-2cd6b0/oUfnhGRAijDJvkPEvuFjbEANAnAdEgBeLOADLC/?a=7073&ch=0&cr=0&dr=0&&br=0&bt=0&ft=xztlUQhhe6BMyqMIUupJD12Nzj&mime_type=audio_mpeg&rc=QGlAYSNz&btag=c0000000008000&dy_q=1730459869&l=20241101191736D9ABE757E6C552976900&format=mp3",
        "source_timerange": {
            "start_offset": 0,
            "end_offset": 4.5
        },
        "target_timerange": {
            "start_offset": 82.72,
            "end_offset": 87.22
        },
        "ignore_audio": false,
        "audio_path": null
    },
    {
        "segment_id": "edf7a490984211efad70fa163e917467",
        "text": "秦霜 我这么晚过来 并不是为了公事",
        "audio_url": "https://v26-vvecloud.yangyi08.com/75e9b760c3fed2d2609598e827870b09/6724c6ed/video/tos/cn/tos-cn-v-2cd6b0/oALBAWbfBJenFACuIjbURcKDgE0iDYAaD4JSIA/?a=7073&ch=0&cr=0&dr=0&&br=0&bt=0&ft=xztlUQhhe6BMyqMIUupJD12Nzj&mime_type=audio_mpeg&rc=QGlAYSNz&btag=c0000000008000&dy_q=1730459869&l=20241101191736D9ABE757E6C552976900&format=mp3",
        "source_timerange": {
            "start_offset": 0,
            "end_offset": 3.8900000000000006
        },
        "target_timerange": {
            "start_offset": 87.22,
            "end_offset": 91.11
        },
        "ignore_audio": false,
        "audio_path": null
    },
    {
        "segment_id": "edf7a71a984211efad70fa163e917467",
        "text": "而是专程向你道歉解释的",
        "audio_url": "https://v9-vvecloud.yangyi08.com/b833d610cf4be0c44399c1ef12cf683a/6724c6ed/video/tos/cn/tos-cn-v-2cd6b0/oIQASOaEECXARAj58qQFCLIBG4GeJSAfCeo32G/?a=7073&ch=0&cr=0&dr=0&&br=0&bt=0&ft=xztlUQhhe6BMyqMIUupJD12Nzj&mime_type=audio_mpeg&rc=QGlAYSNz&btag=c0000000008000&dy_q=1730459869&l=20241101191736D9ABE757E6C552976900&format=mp3",
        "source_timerange": {
            "start_offset": 0,
            "end_offset": 2.0849999999999937
        },
        "target_timerange": {
            "start_offset": 91.11,
            "end_offset": 93.195
        },
        "ignore_audio": false,
        "audio_path": null
    },
    {
        "segment_id": "edf7a968984211efad70fa163e917467",
        "text": "代红伟的声音中带着压抑的愤怒",
        "audio_url": "https://v9-vvecloud.yangyi08.com/b833d610cf4be0c44399c1ef12cf683a/6724c6ed/video/tos/cn/tos-cn-v-2cd6b0/oIQASOaEECXARAj58qQFCLIBG4GeJSAfCeo32G/?a=7073&ch=0&cr=0&dr=0&&br=0&bt=0&ft=xztlUQhhe6BMyqMIUupJD12Nzj&mime_type=audio_mpeg&rc=QGlAYSNz&btag=c0000000008000&dy_q=1730459869&l=20241101191736D9ABE757E6C552976900&format=mp3",
        "source_timerange": {
            "start_offset": 2.0849999999999937,
            "end_offset": 4.5
        },
        "target_timerange": {
            "start_offset": 93.195,
            "end_offset": 95.61
        },
        "ignore_audio": true,
        "audio_path": null
    },
    {
        "segment_id": "edf7abca984211efad70fa163e917467",
        "text": "他的眼神透着一股无名的怒火 让我心中一紧",
        "audio_url": "https://v9-vvecloud.yangyi08.com/95f4688235d8920a9384c83482a6dff0/6724c6ec/video/tos/cn/tos-cn-v-2cd6b0/ooCjED2JbDCNu9AuALFfARnAAikgtBjJEmfYkE/?a=7073&ch=0&cr=0&dr=0&&br=0&bt=0&ft=xztlUQhhe6BMyqDIUupJD12Nzj&mime_type=audio_mpeg&rc=QGlAYSNz&btag=c0000000008000&dy_q=1730459868&l=20241101191736D9ABE757E6C552976900&format=mp3",
        "source_timerange": {
            "start_offset": 0,
            "end_offset": 3.9200000000000017
        },
        "target_timerange": {
            "start_offset": 95.61,
            "end_offset": 99.53
        },
        "ignore_audio": false,
        "audio_path": null
    },
    {
        "segment_id": "edf7ae0e984211efad70fa163e917467",
        "text": "哦？解释？解释什么？我们有什么误会吗？",
        "audio_url": "https://v3-vvecloud.yangyi08.com/38fe1deac5051621732ded00ca5f0874/6724c6ed/video/tos/cn/tos-cn-v-2cd6b0/owWAeB8QeASbO3eGjICGjXFcAUIbWVEAMZBXcJ/?a=7073&ch=0&cr=0&dr=0&&br=0&bt=0&ft=xztlUQhhe6BMyqMIUupJD12Nzj&mime_type=audio_mpeg&rc=QGlAYSNz&btag=c0000000008000&dy_q=1730459869&l=20241101191736D9ABE757E6C552976900&format=mp3",
        "source_timerange": {
            "start_offset": 0,
            "end_offset": 4.875
        },
        "target_timerange": {
            "start_offset": 99.53,
            "end_offset": 104.405
        },
        "ignore_audio": false,
        "audio_path": null
    },
    {
        "segment_id": "edf7b07a984211efad70fa163e917467",
        "text": "秦霜的冷淡态度让代红伟愈发愤怒",
        "audio_url": "https://v3-vvecloud.yangyi08.com/38fe1deac5051621732ded00ca5f0874/6724c6ed/video/tos/cn/tos-cn-v-2cd6b0/owWAeB8QeASbO3eGjICGjXFcAUIbWVEAMZBXcJ/?a=7073&ch=0&cr=0&dr=0&&br=0&bt=0&ft=xztlUQhhe6BMyqMIUupJD12Nzj&mime_type=audio_mpeg&rc=QGlAYSNz&btag=c0000000008000&dy_q=1730459869&l=20241101191736D9ABE757E6C552976900&format=mp3",
        "source_timerange": {
            "start_offset": 4.875,
            "end_offset": 7.700000000000003
        },
        "target_timerange": {
            "start_offset": 104.405,
            "end_offset": 107.23
        },
        "ignore_audio": true,
        "audio_path": null
    },
    {
        "segment_id": "edf7b458984211efad70fa163e917467",
        "text": "他开始强调我的存在",
        "audio_url": "https://v9-vvecloud.yangyi08.com/0f578c8c7c27c3bd9c38d8219b184806/6724c6ec/video/tos/cn/tos-cn-v-2cd6b0/oIagAxzEkjQBCAsuQthNlfiTiRBIAAkxtPnTAE/?a=7073&ch=0&cr=0&dr=0&&br=0&bt=0&ft=xztlUQhhe6BMyqDIUupJD12Nzj&mime_type=audio_mpeg&rc=QGlAYSNz&btag=c0000000008000&dy_q=1730459868&l=20241101191736D9ABE757E6C552976900&format=mp3",
        "source_timerange": {
            "start_offset": 0,
            "end_offset": 2.269999999999996
        },
        "target_timerange": {
            "start_offset": 107.23,
            "end_offset": 109.5
        },
        "ignore_audio": false,
        "audio_path": null
    },
    {
        "segment_id": "edf7b6ce984211efad70fa163e917467",
        "text": "试图提醒秦霜注意她的身份和周围的舆论",
        "audio_url": "https://v26-vvecloud.yangyi08.com/7c9c86b0c634cf2d752fa0a60b461c31/6724c6ed/video/tos/cn/tos-cn-v-2cd6b0/ogNHEditA8htBJjkgABBExk1IczQuAARAliWfV/?a=7073&ch=0&cr=0&dr=0&&br=0&bt=0&ft=xztlUQhhe6BMyqMIUupJD12Nzj&mime_type=audio_mpeg&rc=QGlAYSNz&btag=c0000000008000&dy_q=1730459869&l=20241101191736D9ABE757E6C552976900&format=mp3",
        "source_timerange": {
            "start_offset": 0,
            "end_offset": 3.819999999999993
        },
        "target_timerange": {
            "start_offset": 109.5,
            "end_offset": 113.32
        },
        "ignore_audio": false,
        "audio_path": null
    },
    {
        "segment_id": "edf7bafc984211efad70fa163e917467",
        "text": "我能感受到他对我隐隐的警告",
        "audio_url": "https://v9-vvecloud.yangyi08.com/019209d30acdcda4faec272c53729437/6724c6ed/video/tos/cn/tos-cn-v-2cd6b0/oUtlN9QhWiAt7AFzB9AbEuEkfxRAcAghpByIki/?a=7073&ch=0&cr=0&dr=0&&br=0&bt=0&ft=xztlUQhhe6BMyqMIUupJD12Nzj&mime_type=audio_mpeg&rc=QGlAYSNz&btag=c0000000008000&dy_q=1730459869&l=20241101191736D9ABE757E6C552976900&format=mp3",
        "source_timerange": {
            "start_offset": 0,
            "end_offset": 2.700000000000003
        },
        "target_timerange": {
            "start_offset": 113.32,
            "end_offset": 116.02
        },
        "ignore_audio": false,
        "audio_path": null
    },
    {
        "segment_id": "edf7bfb6984211efad70fa163e917467",
        "text": "但此刻我已经不再是过去那个畏惧他的年轻人",
        "audio_url": "https://v6-vvecloud.yangyi08.com/dfa8cd073f128b524257b2b1896e7b68/6724c6ed/video/tos/cn/tos-cn-v-2cd6b0/owfbJFzNXGAaVIIOBSLeBCAfOcRAGSIWjAGHE3/?a=7073&ch=0&cr=0&dr=0&&br=0&bt=0&ft=xztlUQhhe6BMyqMIUupJD12Nzj&mime_type=audio_mpeg&rc=QGlAYSNz&btag=c0000000008000&dy_q=1730459869&l=20241101191736D9ABE757E6C552976900&format=mp3",
        "source_timerange": {
            "start_offset": 0,
            "end_offset": 3.6700000000000017
        },
        "target_timerange": {
            "start_offset": 116.02,
            "end_offset": 119.69
        },
        "ignore_audio": false,
        "audio_path": null
    },
    {
        "segment_id": "edf7c43e984211efad70fa163e917467",
        "text": "我冷静地坐在一旁 心里暗暗不屑",
        "audio_url": "https://v3-vvecloud.yangyi08.com/d66e5d8633f3d31429c1bdca36a04ad6/6724c6f0/video/tos/cn/tos-cn-v-2cd6b0/oMCAAbbJZznIfBeAkBDLDIb1DJcREjFgAPoiqT/?a=7073&ch=0&cr=0&dr=0&&br=62&bt=62&ds=5&ft=xztlUQhhe6BMyqMIUupJD12Nzj&mime_type=audio_mpeg&qs=13&rc=amdqdGw5cnBldjMzNDdkM0BpamdqdGw5cnBldjMzNDdkM0BuMGJgMmRzZWZgLS1kLzBzYSNuMGJgMmRzZWZgLS1kLzBzcw%3D%3D&btag=c0000000008000&dy_q=1730459869&l=20241101191736D9ABE757E6C552976900&format=mp3",
        "source_timerange": {
            "start_offset": 0,
            "end_offset": 3.3799999999999955
        },
        "target_timerange": {
            "start_offset": 119.69,
            "end_offset": 123.07
        },
        "ignore_audio": false,
        "audio_path": null
    },
    {
        "segment_id": "edf7c998984211efad70fa163e917467",
        "text": "代少！吃水果！我主动递给代红伟一个削好的苹果",
        "audio_url": "https://v26-vvecloud.yangyi08.com/b68cc415df174c131227488872bdbe61/6724c6f2/video/tos/cn/tos-cn-v-2cd6b0/owulzgE3xABiQyBtEvARA8mkXhiNIkhiIADUfA/?a=7073&ch=0&cr=0&dr=0&&br=62&bt=62&ds=5&ft=xztlUQhhe6BMyqMIUupJD12Nzj&mime_type=audio_mpeg&qs=13&rc=ajRkPHE5cnBldjMzNDdkM0BpajRkPHE5cnBldjMzNDdkM0BfMmpeMmRzZWZgLS1kLzBzYSNfMmpeMmRzZWZgLS1kLzBzcw%3D%3D&btag=c0000000008000&dy_q=1730459869&l=20241101191736D9ABE757E6C552976900&format=mp3",
        "source_timerange": {
            "start_offset": 0,
            "end_offset": 5.438999999999993
        },
        "target_timerange": {
            "start_offset": 123.07,
            "end_offset": 128.509
        },
        "ignore_audio": false,
        "audio_path": null
    },
    {
        "segment_id": "edf8700a984211efad70fa163e917467",
        "text": "想看看他会有什么反应",
        "audio_url": "https://v9-vvecloud.yangyi08.com/92e31bfeb081c20b316ddc581d2f9864/6724c6ef/video/tos/cn/tos-cn-v-2cd6b0/oYLitJABgFZKCBDArn7bRYgAjEIAfAODIJcbae/?a=7073&ch=0&cr=0&dr=0&&br=62&bt=62&ds=5&ft=xztlUQhhe6BMyqMIUupJD12Nzj&mime_type=audio_mpeg&qs=13&rc=ajpwOHc5cnBldjMzNDdkM0BpajpwOHc5cnBldjMzNDdkM0AvbWpsMmRzZWZgLS1kLzBzYSMvbWpsMmRzZWZgLS1kLzBzcw%3D%3D&btag=c0000000008000&dy_q=1730459869&l=20241101191736D9ABE757E6C552976900&format=mp3",
        "source_timerange": {
            "start_offset": 0,
            "end_offset": 2.301000000000016
        },
        "target_timerange": {
            "start_offset": 128.509,
            "end_offset": 130.81
        },
        "ignore_audio": false,
        "audio_path": null
    },
    {
        "segment_id": "edf875aa984211efad70fa163e917467",
        "text": "代红伟的脸色瞬间扭曲",
        "audio_url": "https://v26-vvecloud.yangyi08.com/2eed96a872172efbecd59d84e7d19b20/6724c6ed/video/tos/cn/tos-cn-v-2cd6b0/ogNlTBkAEBhtJ1AR3guiVmxAtEAIQAi2zkAbyf/?a=7073&ch=0&cr=0&dr=0&&br=0&bt=0&ft=xztlUQhhe6BMyqMIUupJD12Nzj&mime_type=audio_mpeg&rc=QGlAYSNz&btag=c0000000008000&dy_q=1730459869&l=20241101191736D9ABE757E6C552976900&format=mp3",
        "source_timerange": {
            "start_offset": 0,
            "end_offset": 2.6599999999999966
        },
        "target_timerange": {
            "start_offset": 130.81,
            "end_offset": 133.47
        },
        "ignore_audio": false,
        "audio_path": null
    },
    {
        "segment_id": "edf87a32984211efad70fa163e917467",
        "text": "愤怒到极点 最终还是选择了离开",
        "audio_url": "https://v9-vvecloud.yangyi08.com/ab988133698a89d4fa8609c53fcb6680/6724c6ed/video/tos/cn/tos-cn-v-2cd6b0/oYzNkByxlhAtHiEzAkifgAQxBuOAxFEHIAB2Rt/?a=7073&ch=0&cr=0&dr=0&&br=0&bt=0&ft=xztlUQhhe6BMyqMIUupJD12Nzj&mime_type=audio_mpeg&rc=QGlAYSNz&btag=c0000000008000&dy_q=1730459869&l=20241101191736D9ABE757E6C552976900&format=mp3",
        "source_timerange": {
            "start_offset": 0,
            "end_offset": 3.490000000000009
        },
        "target_timerange": {
            "start_offset": 133.47,
            "end_offset": 136.96
        },
        "ignore_audio": false,
        "audio_path": null
    },
    {
        "segment_id": "edf87e1a984211efad70fa163e917467",
        "text": "他气愤地说道：“我还有事 打扰了！”",
        "audio_url": "https://v26-vvecloud.yangyi08.com/21644f8cd9cf3f7ff0b6a0810a600913/6724c6ed/video/tos/cn/tos-cn-v-2cd6b0/osjNkB8UlhAsOiEzAkifgAQ9IuUAxvEtIAB8Rt/?a=7073&ch=0&cr=0&dr=0&&br=0&bt=0&ft=xztlUQhhe6BMyqMIUupJD12Nzj&mime_type=audio_mpeg&rc=QGlAYSNz&btag=c0000000008000&dy_q=1730459869&l=20241101191736D9ABE757E6C552976900&format=mp3",
        "source_timerange": {
            "start_offset": 0,
            "end_offset": 3.234999999999985
        },
        "target_timerange": {
            "start_offset": 136.96,
            "end_offset": 140.195
        },
        "ignore_audio": false,
        "audio_path": null
    },
    {
        "segment_id": "edf88324984211efad70fa163e917467",
        "text": "看着他离开的背影 我心里暗自松了口气",
        "audio_url": "https://v26-vvecloud.yangyi08.com/21644f8cd9cf3f7ff0b6a0810a600913/6724c6ed/video/tos/cn/tos-cn-v-2cd6b0/osjNkB8UlhAsOiEzAkifgAQ9IuUAxvEtIAB8Rt/?a=7073&ch=0&cr=0&dr=0&&br=0&bt=0&ft=xztlUQhhe6BMyqMIUupJD12Nzj&mime_type=audio_mpeg&rc=QGlAYSNz&btag=c0000000008000&dy_q=1730459869&l=20241101191736D9ABE757E6C552976900&format=mp3",
        "source_timerange": {
            "start_offset": 3.234999999999985,
            "end_offset": 6.72999999999999
        },
        "target_timerange": {
            "start_offset": 140.195,
            "end_offset": 143.69
        },
        "ignore_audio": true,
        "audio_path": null
    },
    {
        "segment_id": "edf88798984211efad70fa163e917467",
        "text": "我转头看向秦霜 心中满是对她的渴望与期待",
        "audio_url": "https://v9-vvecloud.yangyi08.com/2b6c5faad51718a10df8e4ac0fe999d7/6724c6ed/video/tos/cn/tos-cn-v-2cd6b0/ogA84XffMQC2ESbGFiXAGsj3sC86OABQQfAZES/?a=7073&ch=0&cr=0&dr=0&&br=0&bt=0&ft=xztlUQhhe6BMyqMIUupJD12Nzj&mime_type=audio_mpeg&rc=QGlAYSNz&btag=c0000000008000&dy_q=1730459869&l=20241101191736D9ABE757E6C552976900&format=mp3",
        "source_timerange": {
            "start_offset": 0,
            "end_offset": 4.390000000000015
        },
        "target_timerange": {
            "start_offset": 143.69,
            "end_offset": 148.08
        },
        "ignore_audio": false,
        "audio_path": null
    },
    {
        "segment_id": "edf88cc0984211efad70fa163e917467",
        "text": "这场面虽然有些尴尬",
        "audio_url": "https://v26-vvecloud.yangyi08.com/7c135efcd4412d18cc8765e3296f2d54/6724c6ed/video/tos/cn/tos-cn-v-2cd6b0/oIUFwiBFE9RDAjAbHffVkELAnNAu4DupJAEgCA/?a=7073&ch=0&cr=0&dr=0&&br=0&bt=0&ft=xztlUQhhe6BMyqMIUupJD12Nzj&mime_type=audio_mpeg&rc=QGlAYSNz&btag=c0000000008000&dy_q=1730459869&l=20241101191736D9ABE757E6C552976900&format=mp3",
        "source_timerange": {
            "start_offset": 0,
            "end_offset": 2.339999999999975
        },
        "target_timerange": {
            "start_offset": 148.08,
            "end_offset": 150.42
        },
        "ignore_audio": false,
        "audio_path": null
    },
    {
        "segment_id": "edf89102984211efad70fa163e917467",
        "text": "但我知道我们之间的距离在逐渐缩短",
        "audio_url": "https://v6-vvecloud.yangyi08.com/1ebb4fc27bda3d99f7770fe1bda374ff/6724c6ed/video/tos/cn/tos-cn-v-2cd6b0/o8kWzAbiREvCNDuf9AEAUfDnAc3FEAbLBgUjuJ/?a=7073&ch=0&cr=0&dr=0&&br=0&bt=0&ft=xztlUQhhe6BMyqMIUupJD12Nzj&mime_type=audio_mpeg&rc=QGlAYSNz&btag=c0000000008000&dy_q=1730459869&l=20241101191736D9ABE757E6C552976900&format=mp3",
        "source_timerange": {
            "start_offset": 0,
            "end_offset": 3.280000000000001
        },
        "target_timerange": {
            "start_offset": 150.42,
            "end_offset": 153.7
        },
        "ignore_audio": false,
        "audio_path": null
    },
    {
        "segment_id": "edf8951c984211efad70fa163e917467",
        "text": "秦霜冷冷地道：想不开又能怎么滴！",
        "audio_url": "https://v3-vvecloud.yangyi08.com/f87494fa320c55e73df67ea92fa58f10/6724c6ed/video/tos/cn/tos-cn-v-2cd6b0/o4CAAiNnDEbAARdEjFkfBFuJADHtdLEelYqOLg/?a=7073&ch=0&cr=0&dr=0&&br=0&bt=0&ft=xztlUQhhe6BMyqMIUupJD12Nzj&mime_type=audio_mpeg&rc=QGlAYSNz&btag=c0000000008000&dy_q=1730459869&l=20241101191736D9ABE757E6C552976900&format=mp3",
        "source_timerange": {
            "start_offset": 0,
            "end_offset": 3.490000000000009
        },
        "target_timerange": {
            "start_offset": 153.7,
            "end_offset": 157.19
        },
        "ignore_audio": false,
        "audio_path": null
    },
    {
        "segment_id": "edf89990984211efad70fa163e917467",
        "text": "我秦霜选谁 难道还要由他定吗？",
        "audio_url": "https://v26-vvecloud.yangyi08.com/01794f9606945d7669383b21d2210c78/6724c6ed/video/tos/cn/tos-cn-v-2cd6b0/oggmAzlAdExiR4iIE6EAStBhPuQfvtykAAkENB/?a=7073&ch=0&cr=0&dr=0&&br=0&bt=0&ft=xztlUQhhe6BMyqMIUupJD12Nzj&mime_type=audio_mpeg&rc=QGlAYSNz&btag=c0000000008000&dy_q=1730459869&l=20241101191736D9ABE757E6C552976900&format=mp3",
        "source_timerange": {
            "start_offset": 0,
            "end_offset": 3.3100000000000023
        },
        "target_timerange": {
            "start_offset": 157.19,
            "end_offset": 160.5
        },
        "ignore_audio": false,
        "audio_path": null
    },
    {
        "segment_id": "edf89de6984211efad70fa163e917467",
        "text": "我倒是想看看 他们接下来要做什么？",
        "audio_url": "https://v3-vvecloud.yangyi08.com/c4a352d589c47c1921ec552caf4d9911/6724c6ed/video/tos/cn/tos-cn-v-2cd6b0/oMtZAGfDDEfqRiniCu4FAJHLkBNChEjAFAAbEg/?a=7073&ch=0&cr=0&dr=0&&br=0&bt=0&ft=xztlUQhhe6BMyqMIUupJD12Nzj&mime_type=audio_mpeg&rc=QGlAYSNz&btag=c0000000008000&dy_q=1730459869&l=20241101191736D9ABE757E6C552976900&format=mp3",
        "source_timerange": {
            "start_offset": 0,
            "end_offset": 3.460000000000008
        },
        "target_timerange": {
            "start_offset": 160.5,
            "end_offset": 163.96
        },
        "ignore_audio": false,
        "audio_path": null
    },
    {
        "segment_id": "edf8a138984211efad70fa163e917467",
        "text": "听到她的话 我心中涌起一股温暖",
        "audio_url": "https://v3-vvecloud.yangyi08.com/5cd5a445d0f7e03e7005c6d0d4597045/6724c6ed/video/tos/cn/tos-cn-v-2cd6b0/osCtx5AMEiI0sUAgluzRkBNAkEoAhgAfQBtiAI/?a=7073&ch=0&cr=0&dr=0&&br=0&bt=0&ft=xztlUQhhe6BMyqMIUupJD12Nzj&mime_type=audio_mpeg&rc=QGlAYSNz&btag=c0000000008000&dy_q=1730459869&l=20241101191736D9ABE757E6C552976900&format=mp3",
        "source_timerange": {
            "start_offset": 0,
            "end_offset": 3.530000000000001
        },
        "target_timerange": {
            "start_offset": 163.96,
            "end_offset": 167.49
        },
        "ignore_audio": false,
        "audio_path": null
    },
    {
        "segment_id": "edf8a3a4984211efad70fa163e917467",
        "text": "秦霜的坚定让我感受到了一种强烈的支持",
        "audio_url": "https://v26-vvecloud.yangyi08.com/f96a45a1cce641c014e0901fedfa2475/6724c6ed/video/tos/cn/tos-cn-v-2cd6b0/ocJNkC1GLDAvcEEnAJFfABgoMu2AjtEyRADfib/?a=7073&ch=0&cr=0&dr=0&&br=0&bt=0&ft=xztlUQhhe6BMyqMIUupJD12Nzj&mime_type=audio_mpeg&rc=QGlAYSNz&btag=c0000000008000&dy_q=1730459869&l=20241101191736D9ABE757E6C552976900&format=mp3",
        "source_timerange": {
            "start_offset": 0,
            "end_offset": 3.6399999999999864
        },
        "target_timerange": {
            "start_offset": 167.49,
            "end_offset": 171.13
        },
        "ignore_audio": false,
        "audio_path": null
    },
    {
        "segment_id": "edf8a728984211efad70fa163e917467",
        "text": "她并不在意别人的眼光",
        "audio_url": "https://v6-vvecloud.yangyi08.com/a80d92465cfa5be8d0848c9c32920617/6724c6ed/video/tos/cn/tos-cn-v-2cd6b0/oUNRUflk3QvIBAAEAW2iBtAhugkiEENDzFxFAA/?a=7073&ch=0&cr=0&dr=0&&br=0&bt=0&ft=xztlUQhhe6BMyqMIUupJD12Nzj&mime_type=audio_mpeg&rc=QGlAYSNz&btag=c0000000008000&dy_q=1730459869&l=20241101191736D9ABE757E6C552976900&format=mp3",
        "source_timerange": {
            "start_offset": 0,
            "end_offset": 2.3400000000000034
        },
        "target_timerange": {
            "start_offset": 171.13,
            "end_offset": 173.47
        },
        "ignore_audio": false,
        "audio_path": null
    },
    {
        "segment_id": "edf8ac28984211efad70fa163e917467",
        "text": "反而愿意为自己的选择而战",
        "audio_url": "https://v3-vvecloud.yangyi08.com/348d73e0509b73115e3d14ece01ce0da/6724c6ed/video/tos/cn/tos-cn-v-2cd6b0/owuLnAEmjADdgzCbEsAiBBMkTDFNRJxEbAFefA/?a=7073&ch=0&cr=0&dr=0&&br=0&bt=0&ft=xztlUQhhe6BMyqMIUupJD12Nzj&mime_type=audio_mpeg&rc=QGlAYSNz&btag=c0000000008000&dy_q=1730459869&l=20241101191736D9ABE757E6C552976900&format=mp3",
        "source_timerange": {
            "start_offset": 0,
            "end_offset": 2.6299999999999955
        },
        "target_timerange": {
            "start_offset": 173.47,
            "end_offset": 176.1
        },
        "ignore_audio": false,
        "audio_path": null
    },
    {
        "segment_id": "edf8b06a984211efad70fa163e917467",
        "text": "这一刻 我对她的admiration更加深厚",
        "audio_url": "https://v26-vvecloud.yangyi08.com/1e5c81dbc954284dfd671c81f22a284a/6724c6ed/video/tos/cn/tos-cn-v-2cd6b0/ooA8AnLBskjEiyFR7vEAauCDzugfabfkAAJEND/?a=7073&ch=0&cr=0&dr=0&&br=0&bt=0&ft=xztlUQhhe6BMyqMIUupJD12Nzj&mime_type=audio_mpeg&rc=QGlAYSNz&btag=c0000000008000&dy_q=1730459869&l=20241101191736D9ABE757E6C552976900&format=mp3",
        "source_timerange": {
            "start_offset": 0,
            "end_offset": 3.780000000000001
        },
        "target_timerange": {
            "start_offset": 176.1,
            "end_offset": 179.88
        },
        "ignore_audio": false,
        "audio_path": null
    },
    {
        "segment_id": "edf8b34e984211efad70fa163e917467",
        "text": "“霜姐 你说的对 选择权在于你自己 ”",
        "audio_url": "https://v9-vvecloud.yangyi08.com/5508ffccae1ec8258b7eb6b197a0c81b/6724c6ed/video/tos/cn/tos-cn-v-2cd6b0/oYNRMflkSQvIBDAEAz0iBtAhugkiEsY6zgxjAA/?a=7073&ch=0&cr=0&dr=0&&br=0&bt=0&ft=xztlUQhhe6BMyqMIUupJD12Nzj&mime_type=audio_mpeg&rc=QGlAYSNz&btag=c0000000008000&dy_q=1730459869&l=20241101191736D9ABE757E6C552976900&format=mp3",
        "source_timerange": {
            "start_offset": 0,
            "end_offset": 3.625
        },
        "target_timerange": {
            "start_offset": 179.88,
            "end_offset": 183.505
        },
        "ignore_audio": false,
        "audio_path": null
    },
    {
        "segment_id": "edf8b704984211efad70fa163e917467",
        "text": "我柔声回应 感受到她的勇气也在激励着我",
        "audio_url": "https://v9-vvecloud.yangyi08.com/5508ffccae1ec8258b7eb6b197a0c81b/6724c6ed/video/tos/cn/tos-cn-v-2cd6b0/oYNRMflkSQvIBDAEAz0iBtAhugkiEsY6zgxjAA/?a=7073&ch=0&cr=0&dr=0&&br=0&bt=0&ft=xztlUQhhe6BMyqMIUupJD12Nzj&mime_type=audio_mpeg&rc=QGlAYSNz&btag=c0000000008000&dy_q=1730459869&l=20241101191736D9ABE757E6C552976900&format=mp3",
        "source_timerange": {
            "start_offset": 3.625,
            "end_offset": 7.060000000000002
        },
        "target_timerange": {
            "start_offset": 183.505,
            "end_offset": 186.94
        },
        "ignore_audio": true,
        "audio_path": null
    },
    {
        "segment_id": "edf8bb82984211efad70fa163e917467",
        "text": "“无论他们想怎么做 我都会站在你这一边 ”",
        "audio_url": "https://v9-vvecloud.yangyi08.com/23a85c3fe42ad5392f5b128425dfa515/6724c6ed/video/tos/cn/tos-cn-v-2cd6b0/oULGbAdOSFK3B43AI7dXBjcCGdJeIf8AEFeAIG/?a=7073&ch=0&cr=0&dr=0&&br=0&bt=0&ft=xztlUQhhe6BMyqMIUupJD12Nzj&mime_type=audio_mpeg&rc=QGlAYSNz&btag=c0000000008000&dy_q=1730459869&l=20241101191736D9ABE757E6C552976900&format=mp3",
        "source_timerange": {
            "start_offset": 0,
            "end_offset": 3.045000000000016
        },
        "target_timerange": {
            "start_offset": 186.94,
            "end_offset": 189.985
        },
        "ignore_audio": false,
        "audio_path": null
    },
    {
        "segment_id": "edf8bf74984211efad70fa163e917467",
        "text": "秦霜的眼神中闪过一丝光芒 似乎被我的话触动",
        "audio_url": "https://v9-vvecloud.yangyi08.com/23a85c3fe42ad5392f5b128425dfa515/6724c6ed/video/tos/cn/tos-cn-v-2cd6b0/oULGbAdOSFK3B43AI7dXBjcCGdJeIf8AEFeAIG/?a=7073&ch=0&cr=0&dr=0&&br=0&bt=0&ft=xztlUQhhe6BMyqMIUupJD12Nzj&mime_type=audio_mpeg&rc=QGlAYSNz&btag=c0000000008000&dy_q=1730459869&l=20241101191736D9ABE757E6C552976900&format=mp3",
        "source_timerange": {
            "start_offset": 3.045000000000016,
            "end_offset": 6.800000000000011
        },
        "target_timerange": {
            "start_offset": 189.985,
            "end_offset": 193.74
        },
        "ignore_audio": true,
        "audio_path": null
    },
    {
        "segment_id": "edf8c2f8984211efad70fa163e917467",
        "text": "她微微一笑 带着一股不屈的气势：",
        "audio_url": "https://v3-vvecloud.yangyi08.com/735a63bc4e862906cd6f5f219dc90557/6724c6ed/video/tos/cn/tos-cn-v-2cd6b0/oMAGAf22BgAziASRtkiulsENkAhEk6ZQzsIwxB/?a=7073&ch=0&cr=0&dr=0&&br=0&bt=0&ft=xztlUQhhe6BMyqMIUupJD12Nzj&mime_type=audio_mpeg&rc=QGlAYSNz&btag=c0000000008000&dy_q=1730459869&l=20241101191736D9ABE757E6C552976900&format=mp3",
        "source_timerange": {
            "start_offset": 0,
            "end_offset": 3.4199999999999875
        },
        "target_timerange": {
            "start_offset": 193.74,
            "end_offset": 197.16
        },
        "ignore_audio": false,
        "audio_path": null
    },
    {
        "segment_id": "edf8c5e6984211efad70fa163e917467",
        "text": "“那就让我们看看 这些人会如何反应吧！”",
        "audio_url": "https://v3-vvecloud.yangyi08.com/07fa7e420a8cfba5f4136c8f008a89a4/6724c6ed/video/tos/cn/tos-cn-v-2cd6b0/oEw84jyklpAABERXNwPoZuAUkiIASiAEBQS34/?a=7073&ch=0&cr=0&dr=0&&br=0&bt=0&ft=xztlUQhhe6BMyqMIUupJD12Nzj&mime_type=audio_mpeg&rc=QGlAYSNz&btag=c0000000008000&dy_q=1730459869&l=20241101191736D9ABE757E6C552976900&format=mp3",
        "source_timerange": {
            "start_offset": 0,
            "end_offset": 3.640000000000015
        },
        "target_timerange": {
            "start_offset": 197.16,
            "end_offset": 200.8
        },
        "ignore_audio": false,
        "audio_path": null
    },
    {
        "segment_id": "edf8c834984211efad70fa163e917467",
        "text": "我们对视着 心中都明白",
        "audio_url": "https://v3-vvecloud.yangyi08.com/1ea179a0fef998327a94fa1311d05685/6724c6ed/video/tos/cn/tos-cn-v-2cd6b0/oIk5gJDAAEnAFAfjmDfBRXckNnBwuLi1CEApHE/?a=7073&ch=0&cr=0&dr=0&&br=0&bt=0&ft=xztlUQhhe6BMyqMIUupJD12Nzj&mime_type=audio_mpeg&rc=QGlAYSNz&btag=c0000000008000&dy_q=1730459869&l=20241101191736D9ABE757E6C552976900&format=mp3",
        "source_timerange": {
            "start_offset": 0,
            "end_offset": 2.839999999999975
        },
        "target_timerange": {
            "start_offset": 200.8,
            "end_offset": 203.64
        },
        "ignore_audio": false,
        "audio_path": null
    },
    {
        "segment_id": "edf8cc80984211efad70fa163e917467",
        "text": "接下来可能会有一场风波",
        "audio_url": "https://v6-vvecloud.yangyi08.com/671cb25c874c8409d8a4de9a122aa5e7/6724c6ed/video/tos/cn/tos-cn-v-2cd6b0/ocEgPykBAkNAEozIXZ9ESGwkyKA3A4tiAxuiQ/?a=7073&ch=0&cr=0&dr=0&&br=0&bt=0&ft=xztlUQhhe6BMyqMIUupJD12Nzj&mime_type=audio_mpeg&rc=QGlAYSNz&btag=c0000000008000&dy_q=1730459869&l=20241101191736D9ABE757E6C552976900&format=mp3",
        "source_timerange": {
            "start_offset": 0,
            "end_offset": 2.480000000000018
        },
        "target_timerange": {
            "start_offset": 203.64,
            "end_offset": 206.12
        },
        "ignore_audio": false,
        "audio_path": null
    },
    {
        "segment_id": "edf8cf6e984211efad70fa163e917467",
        "text": "但此时此刻 我只想和她一起面对未来的挑战",
        "audio_url": "https://v9-vvecloud.yangyi08.com/4bf5837727065de14ea32eef67f80431/6724c6ed/video/tos/cn/tos-cn-v-2cd6b0/oYLrIAQiZPzkABJoA34NQAEEkyyAEwS1ouird/?a=7073&ch=0&cr=0&dr=0&&br=0&bt=0&ft=xztlUQhhe6BMyqMIUupJD12Nzj&mime_type=audio_mpeg&rc=QGlAYSNz&btag=c0000000008000&dy_q=1730459869&l=20241101191736D9ABE757E6C552976900&format=mp3",
        "source_timerange": {
            "start_offset": 0,
            "end_offset": 4.180000000000007
        },
        "target_timerange": {
            "start_offset": 206.12,
            "end_offset": 210.3
        },
        "ignore_audio": false,
        "audio_path": null
    },
    {
        "segment_id": "edf8d48c984211efad70fa163e917467",
        "text": "无论是代红伟的阴险 还是那些潜藏在暗处的威胁",
        "audio_url": "https://v3-vvecloud.yangyi08.com/1e0bec8a4629e600d8e01ca1038b3d0b/6724c6ed/video/tos/cn/tos-cn-v-2cd6b0/oAbEeeXJvAjjG4AIAwcIF5CGcBSLIfG7OCGsAB/?a=7073&ch=0&cr=0&dr=0&&br=0&bt=0&ft=xztlUQhhe6BMyqMIUupJD12Nzj&mime_type=audio_mpeg&rc=QGlAYSNz&btag=c0000000008000&dy_q=1730459869&l=20241101191736D9ABE757E6C552976900&format=mp3",
        "source_timerange": {
            "start_offset": 0,
            "end_offset": 4.539999999999992
        },
        "target_timerange": {
            "start_offset": 210.3,
            "end_offset": 214.84
        },
        "ignore_audio": false,
        "audio_path": null
    },
    {
        "segment_id": "edf8d96e984211efad70fa163e917467",
        "text": "我都会与她并肩作战",
        "audio_url": "https://v26-vvecloud.yangyi08.com/30179d6dc6b49b74e9738a79504b17cf/6724c6ed/video/tos/cn/tos-cn-v-2cd6b0/okmNAywoAS7EkAPidzAZiAJk34CoIMvSuBErQ/?a=7073&ch=0&cr=0&dr=0&&br=0&bt=0&ft=xztlUQhhe6BMyqMIUupJD12Nzj&mime_type=audio_mpeg&rc=QGlAYSNz&btag=c0000000008000&dy_q=1730459869&l=20241101191736D9ABE757E6C552976900&format=mp3",
        "source_timerange": {
            "start_offset": 0,
            "end_offset": 2.1200000000000045
        },
        "target_timerange": {
            "start_offset": 214.84,
            "end_offset": 216.96
        },
        "ignore_audio": false,
        "audio_path": null
    },
    {
        "segment_id": "edf8dcd4984211efad70fa163e917467",
        "text": "“准备好迎接挑战了吗？”我问她 心中满是期待",
        "audio_url": "https://v9-vvecloud.yangyi08.com/d158e578da7653a22e69469300b508b0/6724c6ed/video/tos/cn/tos-cn-v-2cd6b0/osuxADjE5AFLAncfig2kFDnNuAReJCWBEEqBAx/?a=7073&ch=0&cr=0&dr=0&&br=0&bt=0&ft=xztlUQhhe6BMyqMIUupJD12Nzj&mime_type=audio_mpeg&rc=QGlAYSNz&btag=c0000000008000&dy_q=1730459869&l=20241101191736D9ABE757E6C552976900&format=mp3",
        "source_timerange": {
            "start_offset": 0,
            "end_offset": 4.569999999999993
        },
        "target_timerange": {
            "start_offset": 216.96,
            "end_offset": 221.53
        },
        "ignore_audio": false,
        "audio_path": null
    },
    {
        "segment_id": "edf8df54984211efad70fa163e917467",
        "text": "“当然！”秦霜坚定地点头 眼中闪烁着自信的光辉",
        "audio_url": "https://v6-vvecloud.yangyi08.com/5da8bfdf348850b38b786754239702d4/6724c6ed/video/tos/cn/tos-cn-v-2cd6b0/ogkA53A4iw4ASIyyBIzuZkuiEAZoNdtbPQEAk/?a=7073&ch=0&cr=0&dr=0&&br=0&bt=0&ft=xztlUQhhe6BMyqMIUupJD12Nzj&mime_type=audio_mpeg&rc=QGlAYSNz&btag=c0000000008000&dy_q=1730459869&l=20241101191736D9ABE757E6C552976900&format=mp3",
        "source_timerange": {
            "start_offset": 0,
            "end_offset": 5.259999999999991
        },
        "target_timerange": {
            "start_offset": 221.53,
            "end_offset": 226.79
        },
        "ignore_audio": false,
        "audio_path": null
    },
    {
        "segment_id": "edf8e3a0984211efad70fa163e917467",
        "text": "在那一刻 我知道我们之间的默契越来越深",
        "audio_url": "https://v9-vvecloud.yangyi08.com/0300aa416390476cc3d6166c95001b7a/6724c6ed/video/tos/cn/tos-cn-v-2cd6b0/oIufRFniEEAEgTJiLkfjEAcCRASznDD1AAzNBg/?a=7073&ch=0&cr=0&dr=0&&br=0&bt=0&ft=xztlUQhhe6BMyqMIUupJD12Nzj&mime_type=audio_mpeg&rc=QGlAYSNz&btag=c0000000008000&dy_q=1730459869&l=20241101191736D9ABE757E6C552976900&format=mp3",
        "source_timerange": {
            "start_offset": 0,
            "end_offset": 3.890000000000015
        },
        "target_timerange": {
            "start_offset": 226.79,
            "end_offset": 230.68
        },
        "ignore_audio": false,
        "audio_path": null
    },
    {
        "segment_id": "edf8e7b0984211efad70fa163e917467",
        "text": "我们的未来将会是充满挑战但也更加精彩的旅程",
        "audio_url": "https://v9-vvecloud.yangyi08.com/090d4644d11e5061f95e9f54f53808a0/6724c6ed/video/tos/cn/tos-cn-v-2cd6b0/ooAmAfU1DAAnFAxickEuLYENJBDEACfgowRcjC/?a=7073&ch=0&cr=0&dr=0&&br=0&bt=0&ft=xztlUQhhe6BMyqMIUupJD12Nzj&mime_type=audio_mpeg&rc=QGlAYSNz&btag=c0000000008000&dy_q=1730459869&l=20241101191736D9ABE757E6C552976900&format=mp3",
        "source_timerange": {
            "start_offset": 0,
            "end_offset": 4.099999999999994
        },
        "target_timerange": {
            "start_offset": 230.68,
            "end_offset": 234.78
        },
        "ignore_audio": false,
        "audio_path": null
    }
]