[
    {
        "segment_id": "9bc03d369d8811efa3727cd30a5182b8",
        "text": "  [Illustration]  During",
        "audio_url": "https://v16m-default.akamaized.net/a90a14fd1d06f06ff973181ee07890f1/672de5af/video/tos/maliva/tos-maliva-v-f15faa-us/osrBeCeKXlAIdAnO8ySFEJvWICYfgAzbogDICj/?a=7073&bti=OTU0QDItLmA%3D&ch=0&cr=0&dr=4&er=0&lr=unwatermarked&cd=0%7C0%7C0%7C0&br=312&bt=156&ds=5&ft=.cwOVInz7Th9VGvOXq8Zmo&qs=13&rc=M2hvdWw5cmlzdjUzNzhoM0BpM2hvdWw5cmlzdjUzNzhoM0BzYy1sMmRrL2pgLS1kLjZzYSNzYy1sMmRrL2pgLS1kLjZzcw%3D%3D&vvpl=1&l=02173103953905200000000000000000000ffff0a00a7d8bb39e0&btag=e00078000&format=mp3&mime_type=audio_mpeg",
        "source_timerange": {
            "start_offset": 0,
            "end_offset": 1.4684545454545468
        },
        "target_timerange": {
            "start_offset": 0,
            "end_offset": 1.4684545454545468
        },
        "ignore_audio": false,
        "audio_path": null
    },
    {
        "segment_id": "9bc03eb29d8811efa3727cd30a5182b8",
        "text": "dinner, Mr. Bennet scarcely",
        "audio_url": "https://v16m-default.akamaized.net/a90a14fd1d06f06ff973181ee07890f1/672de5af/video/tos/maliva/tos-maliva-v-f15faa-us/osrBeCeKXlAIdAnO8ySFEJvWICYfgAzbogDICj/?a=7073&bti=OTU0QDItLmA%3D&ch=0&cr=0&dr=4&er=0&lr=unwatermarked&cd=0%7C0%7C0%7C0&br=312&bt=156&ds=5&ft=.cwOVInz7Th9VGvOXq8Zmo&qs=13&rc=M2hvdWw5cmlzdjUzNzhoM0BpM2hvdWw5cmlzdjUzNzhoM0BzYy1sMmRrL2pgLS1kLjZzYSNzYy1sMmRrL2pgLS1kLjZzcw%3D%3D&vvpl=1&l=02173103953905200000000000000000000ffff0a00a7d8bb39e0&btag=e00078000&format=mp3&mime_type=audio_mpeg",
        "source_timerange": {
            "start_offset": 1.4684545454545452,
            "end_offset": 2.936909090909092
        },
        "target_timerange": {
            "start_offset": 1.4684545454545452,
            "end_offset": 2.936909090909092
        },
        "ignore_audio": true,
        "audio_path": null
    },
    {
        "segment_id": "9bc03fd49d8811efa3727cd30a5182b8",
        "text": "spoke at all; but when the",
        "audio_url": "https://v16m-default.akamaized.net/a90a14fd1d06f06ff973181ee07890f1/672de5af/video/tos/maliva/tos-maliva-v-f15faa-us/osrBeCeKXlAIdAnO8ySFEJvWICYfgAzbogDICj/?a=7073&bti=OTU0QDItLmA%3D&ch=0&cr=0&dr=4&er=0&lr=unwatermarked&cd=0%7C0%7C0%7C0&br=312&bt=156&ds=5&ft=.cwOVInz7Th9VGvOXq8Zmo&qs=13&rc=M2hvdWw5cmlzdjUzNzhoM0BpM2hvdWw5cmlzdjUzNzhoM0BzYy1sMmRrL2pgLS1kLjZzYSNzYy1sMmRrL2pgLS1kLjZzcw%3D%3D&vvpl=1&l=02173103953905200000000000000000000ffff0a00a7d8bb39e0&btag=e00078000&format=mp3&mime_type=audio_mpeg",
        "source_timerange": {
            "start_offset": 2.9369090909090905,
            "end_offset": 4.405363636363637
        },
        "target_timerange": {
            "start_offset": 2.9369090909090905,
            "end_offset": 4.405363636363637
        },
        "ignore_audio": true,
        "audio_path": null
    },
    {
        "segment_id": "9bc040ce9d8811efa3727cd30a5182b8",
        "text": "servants were withdrawn, he",
        "audio_url": "https://v16m-default.akamaized.net/a90a14fd1d06f06ff973181ee07890f1/672de5af/video/tos/maliva/tos-maliva-v-f15faa-us/osrBeCeKXlAIdAnO8ySFEJvWICYfgAzbogDICj/?a=7073&bti=OTU0QDItLmA%3D&ch=0&cr=0&dr=4&er=0&lr=unwatermarked&cd=0%7C0%7C0%7C0&br=312&bt=156&ds=5&ft=.cwOVInz7Th9VGvOXq8Zmo&qs=13&rc=M2hvdWw5cmlzdjUzNzhoM0BpM2hvdWw5cmlzdjUzNzhoM0BzYy1sMmRrL2pgLS1kLjZzYSNzYy1sMmRrL2pgLS1kLjZzcw%3D%3D&vvpl=1&l=02173103953905200000000000000000000ffff0a00a7d8bb39e0&btag=e00078000&format=mp3&mime_type=audio_mpeg",
        "source_timerange": {
            "start_offset": 4.405363636363636,
            "end_offset": 5.873818181818182
        },
        "target_timerange": {
            "start_offset": 4.405363636363636,
            "end_offset": 5.873818181818182
        },
        "ignore_audio": true,
        "audio_path": null
    },
    {
        "segment_id": "9bc041c89d8811efa3727cd30a5182b8",
        "text": "thought it time to have some",
        "audio_url": "https://v16m-default.akamaized.net/a90a14fd1d06f06ff973181ee07890f1/672de5af/video/tos/maliva/tos-maliva-v-f15faa-us/osrBeCeKXlAIdAnO8ySFEJvWICYfgAzbogDICj/?a=7073&bti=OTU0QDItLmA%3D&ch=0&cr=0&dr=4&er=0&lr=unwatermarked&cd=0%7C0%7C0%7C0&br=312&bt=156&ds=5&ft=.cwOVInz7Th9VGvOXq8Zmo&qs=13&rc=M2hvdWw5cmlzdjUzNzhoM0BpM2hvdWw5cmlzdjUzNzhoM0BzYy1sMmRrL2pgLS1kLjZzYSNzYy1sMmRrL2pgLS1kLjZzcw%3D%3D&vvpl=1&l=02173103953905200000000000000000000ffff0a00a7d8bb39e0&btag=e00078000&format=mp3&mime_type=audio_mpeg",
        "source_timerange": {
            "start_offset": 5.873818181818181,
            "end_offset": 7.342272727272727
        },
        "target_timerange": {
            "start_offset": 5.873818181818181,
            "end_offset": 7.342272727272727
        },
        "ignore_audio": true,
        "audio_path": null
    },
    {
        "segment_id": "9bc042b89d8811efa3727cd30a5182b8",
        "text": "conversation with his guest,",
        "audio_url": "https://v16m-default.akamaized.net/a90a14fd1d06f06ff973181ee07890f1/672de5af/video/tos/maliva/tos-maliva-v-f15faa-us/osrBeCeKXlAIdAnO8ySFEJvWICYfgAzbogDICj/?a=7073&bti=OTU0QDItLmA%3D&ch=0&cr=0&dr=4&er=0&lr=unwatermarked&cd=0%7C0%7C0%7C0&br=312&bt=156&ds=5&ft=.cwOVInz7Th9VGvOXq8Zmo&qs=13&rc=M2hvdWw5cmlzdjUzNzhoM0BpM2hvdWw5cmlzdjUzNzhoM0BzYy1sMmRrL2pgLS1kLjZzYSNzYy1sMmRrL2pgLS1kLjZzcw%3D%3D&vvpl=1&l=02173103953905200000000000000000000ffff0a00a7d8bb39e0&btag=e00078000&format=mp3&mime_type=audio_mpeg",
        "source_timerange": {
            "start_offset": 7.342272727272726,
            "end_offset": 8.810727272727274
        },
        "target_timerange": {
            "start_offset": 7.342272727272726,
            "end_offset": 8.810727272727274
        },
        "ignore_audio": true,
        "audio_path": null
    },
    {
        "segment_id": "9bc043a89d8811efa3727cd30a5182b8",
        "text": "and therefore started a",
        "audio_url": "https://v16m-default.akamaized.net/a90a14fd1d06f06ff973181ee07890f1/672de5af/video/tos/maliva/tos-maliva-v-f15faa-us/osrBeCeKXlAIdAnO8ySFEJvWICYfgAzbogDICj/?a=7073&bti=OTU0QDItLmA%3D&ch=0&cr=0&dr=4&er=0&lr=unwatermarked&cd=0%7C0%7C0%7C0&br=312&bt=156&ds=5&ft=.cwOVInz7Th9VGvOXq8Zmo&qs=13&rc=M2hvdWw5cmlzdjUzNzhoM0BpM2hvdWw5cmlzdjUzNzhoM0BzYy1sMmRrL2pgLS1kLjZzYSNzYy1sMmRrL2pgLS1kLjZzcw%3D%3D&vvpl=1&l=02173103953905200000000000000000000ffff0a00a7d8bb39e0&btag=e00078000&format=mp3&mime_type=audio_mpeg",
        "source_timerange": {
            "start_offset": 8.810727272727272,
            "end_offset": 10.279181818181819
        },
        "target_timerange": {
            "start_offset": 8.810727272727272,
            "end_offset": 10.279181818181819
        },
        "ignore_audio": true,
        "audio_path": null
    },
    {
        "segment_id": "9bc0448e9d8811efa3727cd30a5182b8",
        "text": "subject in which he expected",
        "audio_url": "https://v16m-default.akamaized.net/a90a14fd1d06f06ff973181ee07890f1/672de5af/video/tos/maliva/tos-maliva-v-f15faa-us/osrBeCeKXlAIdAnO8ySFEJvWICYfgAzbogDICj/?a=7073&bti=OTU0QDItLmA%3D&ch=0&cr=0&dr=4&er=0&lr=unwatermarked&cd=0%7C0%7C0%7C0&br=312&bt=156&ds=5&ft=.cwOVInz7Th9VGvOXq8Zmo&qs=13&rc=M2hvdWw5cmlzdjUzNzhoM0BpM2hvdWw5cmlzdjUzNzhoM0BzYy1sMmRrL2pgLS1kLjZzYSNzYy1sMmRrL2pgLS1kLjZzcw%3D%3D&vvpl=1&l=02173103953905200000000000000000000ffff0a00a7d8bb39e0&btag=e00078000&format=mp3&mime_type=audio_mpeg",
        "source_timerange": {
            "start_offset": 10.279181818181817,
            "end_offset": 11.747636363636364
        },
        "target_timerange": {
            "start_offset": 10.279181818181817,
            "end_offset": 11.747636363636364
        },
        "ignore_audio": true,
        "audio_path": null
    },
    {
        "segment_id": "9bc045b09d8811efa3727cd30a5182b8",
        "text": "him to shine, by observing",
        "audio_url": "https://v16m-default.akamaized.net/a90a14fd1d06f06ff973181ee07890f1/672de5af/video/tos/maliva/tos-maliva-v-f15faa-us/osrBeCeKXlAIdAnO8ySFEJvWICYfgAzbogDICj/?a=7073&bti=OTU0QDItLmA%3D&ch=0&cr=0&dr=4&er=0&lr=unwatermarked&cd=0%7C0%7C0%7C0&br=312&bt=156&ds=5&ft=.cwOVInz7Th9VGvOXq8Zmo&qs=13&rc=M2hvdWw5cmlzdjUzNzhoM0BpM2hvdWw5cmlzdjUzNzhoM0BzYy1sMmRrL2pgLS1kLjZzYSNzYy1sMmRrL2pgLS1kLjZzcw%3D%3D&vvpl=1&l=02173103953905200000000000000000000ffff0a00a7d8bb39e0&btag=e00078000&format=mp3&mime_type=audio_mpeg",
        "source_timerange": {
            "start_offset": 11.747636363636362,
            "end_offset": 13.216090909090909
        },
        "target_timerange": {
            "start_offset": 11.747636363636362,
            "end_offset": 13.216090909090909
        },
        "ignore_audio": true,
        "audio_path": null
    },
    {
        "segment_id": "9bc047229d8811efa3727cd30a5182b8",
        "text": "that he seemed very fortunate",
        "audio_url": "https://v16m-default.akamaized.net/a90a14fd1d06f06ff973181ee07890f1/672de5af/video/tos/maliva/tos-maliva-v-f15faa-us/osrBeCeKXlAIdAnO8ySFEJvWICYfgAzbogDICj/?a=7073&bti=OTU0QDItLmA%3D&ch=0&cr=0&dr=4&er=0&lr=unwatermarked&cd=0%7C0%7C0%7C0&br=312&bt=156&ds=5&ft=.cwOVInz7Th9VGvOXq8Zmo&qs=13&rc=M2hvdWw5cmlzdjUzNzhoM0BpM2hvdWw5cmlzdjUzNzhoM0BzYy1sMmRrL2pgLS1kLjZzYSNzYy1sMmRrL2pgLS1kLjZzcw%3D%3D&vvpl=1&l=02173103953905200000000000000000000ffff0a00a7d8bb39e0&btag=e00078000&format=mp3&mime_type=audio_mpeg",
        "source_timerange": {
            "start_offset": 13.216090909090907,
            "end_offset": 14.684545454545454
        },
        "target_timerange": {
            "start_offset": 13.216090909090907,
            "end_offset": 14.684545454545454
        },
        "ignore_audio": true,
        "audio_path": null
    },
    {
        "segment_id": "9bc048449d8811efa3727cd30a5182b8",
        "text": "in his patroness.",
        "audio_url": "https://v16m-default.akamaized.net/a90a14fd1d06f06ff973181ee07890f1/672de5af/video/tos/maliva/tos-maliva-v-f15faa-us/osrBeCeKXlAIdAnO8ySFEJvWICYfgAzbogDICj/?a=7073&bti=OTU0QDItLmA%3D&ch=0&cr=0&dr=4&er=0&lr=unwatermarked&cd=0%7C0%7C0%7C0&br=312&bt=156&ds=5&ft=.cwOVInz7Th9VGvOXq8Zmo&qs=13&rc=M2hvdWw5cmlzdjUzNzhoM0BpM2hvdWw5cmlzdjUzNzhoM0BzYy1sMmRrL2pgLS1kLjZzYSNzYy1sMmRrL2pgLS1kLjZzcw%3D%3D&vvpl=1&l=02173103953905200000000000000000000ffff0a00a7d8bb39e0&btag=e00078000&format=mp3&mime_type=audio_mpeg",
        "source_timerange": {
            "start_offset": 14.684545454545452,
            "end_offset": 16.153
        },
        "target_timerange": {
            "start_offset": 14.684545454545452,
            "end_offset": 16.153
        },
        "ignore_audio": true,
        "audio_path": null
    },
    {
        "segment_id": "9bc05f329d8811efa3727cd30a5182b8",
        "text": "Lady Catherine de Bourgh’s",
        "audio_url": "https://v16m-default.akamaized.net/3d2e86de9f5b1c1ca7b659beb7ed430f/672de5a4/video/tos/maliva/tos-maliva-v-f15faa-us/oc8RAgSABkviZi9V2PUC5uEitEA45tRQyqATv/?a=7073&bti=OTU0QDItLmA%3D&ch=0&cr=0&dr=4&er=0&lr=unwatermarked&cd=0%7C0%7C0%7C0&br=312&bt=156&ds=5&ft=.cwOVInz7ThuVGvOXq8Zmo&qs=13&rc=amtlZXY5cmlzdjUzNzhoM0BpamtlZXY5cmlzdjUzNzhoM0BrbmhkMmRrL2pgLS1kLjZzYSNrbmhkMmRrL2pgLS1kLjZzcw%3D%3D&vvpl=1&l=02173103953905200000000000000000000ffff0a00a7d8bb39e0&btag=e00070000&format=mp3&mime_type=audio_mpeg",
        "source_timerange": {
            "start_offset": 0,
            "end_offset": 1.679999999999997
        },
        "target_timerange": {
            "start_offset": 16.153,
            "end_offset": 17.833
        },
        "ignore_audio": false,
        "audio_path": null
    },
    {
        "segment_id": "9bc060c29d8811efa3727cd30a5182b8",
        "text": "attention to his wishes, and",
        "audio_url": "https://v16m-default.akamaized.net/3d2e86de9f5b1c1ca7b659beb7ed430f/672de5a4/video/tos/maliva/tos-maliva-v-f15faa-us/oc8RAgSABkviZi9V2PUC5uEitEA45tRQyqATv/?a=7073&bti=OTU0QDItLmA%3D&ch=0&cr=0&dr=4&er=0&lr=unwatermarked&cd=0%7C0%7C0%7C0&br=312&bt=156&ds=5&ft=.cwOVInz7ThuVGvOXq8Zmo&qs=13&rc=amtlZXY5cmlzdjUzNzhoM0BpamtlZXY5cmlzdjUzNzhoM0BrbmhkMmRrL2pgLS1kLjZzYSNrbmhkMmRrL2pgLS1kLjZzcw%3D%3D&vvpl=1&l=02173103953905200000000000000000000ffff0a00a7d8bb39e0&btag=e00070000&format=mp3&mime_type=audio_mpeg",
        "source_timerange": {
            "start_offset": 1.6799999999999997,
            "end_offset": 3.3599999999999968
        },
        "target_timerange": {
            "start_offset": 17.833,
            "end_offset": 19.512999999999998
        },
        "ignore_audio": true,
        "audio_path": null
    },
    {
        "segment_id": "9bc061f89d8811efa3727cd30a5182b8",
        "text": "consideration for his comfort,",
        "audio_url": "https://v16m-default.akamaized.net/3d2e86de9f5b1c1ca7b659beb7ed430f/672de5a4/video/tos/maliva/tos-maliva-v-f15faa-us/oc8RAgSABkviZi9V2PUC5uEitEA45tRQyqATv/?a=7073&bti=OTU0QDItLmA%3D&ch=0&cr=0&dr=4&er=0&lr=unwatermarked&cd=0%7C0%7C0%7C0&br=312&bt=156&ds=5&ft=.cwOVInz7ThuVGvOXq8Zmo&qs=13&rc=amtlZXY5cmlzdjUzNzhoM0BpamtlZXY5cmlzdjUzNzhoM0BrbmhkMmRrL2pgLS1kLjZzYSNrbmhkMmRrL2pgLS1kLjZzcw%3D%3D&vvpl=1&l=02173103953905200000000000000000000ffff0a00a7d8bb39e0&btag=e00070000&format=mp3&mime_type=audio_mpeg",
        "source_timerange": {
            "start_offset": 3.3599999999999994,
            "end_offset": 5.04
        },
        "target_timerange": {
            "start_offset": 19.512999999999998,
            "end_offset": 21.193
        },
        "ignore_audio": true,
        "audio_path": null
    },
    {
        "segment_id": "9bc062f29d8811efa3727cd30a5182b8",
        "text": "appeared very remarkable.",
        "audio_url": "https://v16m-default.akamaized.net/3d2e86de9f5b1c1ca7b659beb7ed430f/672de5a4/video/tos/maliva/tos-maliva-v-f15faa-us/oc8RAgSABkviZi9V2PUC5uEitEA45tRQyqATv/?a=7073&bti=OTU0QDItLmA%3D&ch=0&cr=0&dr=4&er=0&lr=unwatermarked&cd=0%7C0%7C0%7C0&br=312&bt=156&ds=5&ft=.cwOVInz7ThuVGvOXq8Zmo&qs=13&rc=amtlZXY5cmlzdjUzNzhoM0BpamtlZXY5cmlzdjUzNzhoM0BrbmhkMmRrL2pgLS1kLjZzYSNrbmhkMmRrL2pgLS1kLjZzcw%3D%3D&vvpl=1&l=02173103953905200000000000000000000ffff0a00a7d8bb39e0&btag=e00070000&format=mp3&mime_type=audio_mpeg",
        "source_timerange": {
            "start_offset": 5.040000000000003,
            "end_offset": 6.72
        },
        "target_timerange": {
            "start_offset": 21.193,
            "end_offset": 22.873
        },
        "ignore_audio": true,
        "audio_path": null
    },
    {
        "segment_id": "9bc06dd89d8811efa3727cd30a5182b8",
        "text": "Mr. Bennet could not",
        "audio_url": "https://v16m-default.akamaized.net/269d2382e04983f0376610ee5971efe1/672de5a0/video/tos/maliva/tos-maliva-v-f15faa-us/oYOASStVeCuEyXFrfCPE9T4AAWC8gcfAhJkDEC/?a=7073&bti=OTU0QDItLmA%3D&ch=0&cr=0&dr=4&er=0&lr=unwatermarked&cd=0%7C0%7C0%7C0&br=312&bt=156&ds=5&ft=.cwOVInz7ThuVGvOXq8Zmo&qs=13&rc=M2hqeXk5cmlzdjUzNzhoM0BpM2hqeXk5cmlzdjUzNzhoM0Auc2NeMmRrL2pgLS1kLjZzYSMuc2NeMmRrL2pgLS1kLjZzcw%3D%3D&vvpl=1&l=02173103953905200000000000000000000ffff0a00a7d8bb39e0&btag=e00070000&format=mp3&mime_type=audio_mpeg",
        "source_timerange": {
            "start_offset": 0,
            "end_offset": 1.1519999999999992
        },
        "target_timerange": {
            "start_offset": 22.873,
            "end_offset": 24.025
        },
        "ignore_audio": false,
        "audio_path": null
    },
    {
        "segment_id": "9bc06f4a9d8811efa3727cd30a5182b8",
        "text": "have chosen better.",
        "audio_url": "https://v16m-default.akamaized.net/269d2382e04983f0376610ee5971efe1/672de5a0/video/tos/maliva/tos-maliva-v-f15faa-us/oYOASStVeCuEyXFrfCPE9T4AAWC8gcfAhJkDEC/?a=7073&bti=OTU0QDItLmA%3D&ch=0&cr=0&dr=4&er=0&lr=unwatermarked&cd=0%7C0%7C0%7C0&br=312&bt=156&ds=5&ft=.cwOVInz7ThuVGvOXq8Zmo&qs=13&rc=M2hqeXk5cmlzdjUzNzhoM0BpM2hqeXk5cmlzdjUzNzhoM0Auc2NeMmRrL2pgLS1kLjZzYSMuc2NeMmRrL2pgLS1kLjZzcw%3D%3D&vvpl=1&l=02173103953905200000000000000000000ffff0a00a7d8bb39e0&btag=e00070000&format=mp3&mime_type=audio_mpeg",
        "source_timerange": {
            "start_offset": 1.1519999999999975,
            "end_offset": 2.3040000000000003
        },
        "target_timerange": {
            "start_offset": 24.025,
            "end_offset": 25.177
        },
        "ignore_audio": true,
        "audio_path": null
    },
    {
        "segment_id": "9bc07a629d8811efa3727cd30a5182b8",
        "text": "Mr. Collins was",
        "audio_url": "https://v16m-default.akamaized.net/e3164896b1a9c08174129f586bb737de/672de5a0/video/tos/maliva/tos-maliva-v-f15faa-us/oIFeJ5AuEEGw4kACykOCtDTCWE1lSgAfgXfFAr/?a=7073&bti=OTU0QDItLmA%3D&ch=0&cr=0&dr=4&er=0&lr=unwatermarked&cd=0%7C0%7C0%7C0&br=312&bt=156&ds=5&ft=.cwOVInz7ThuVGvOXq8Zmo&qs=13&rc=Mzk1c3Y5cmlzdjUzNzhoM0BpMzk1c3Y5cmlzdjUzNzhoM0BrLWJzMmRrL2pgLS1kLjZzYSNrLWJzMmRrL2pgLS1kLjZzcw%3D%3D&vvpl=1&l=02173103953905200000000000000000000ffff0a00a7d8bb39e0&btag=e00070000&format=mp3&mime_type=audio_mpeg",
        "source_timerange": {
            "start_offset": 0,
            "end_offset": 1.343999999999999
        },
        "target_timerange": {
            "start_offset": 25.177,
            "end_offset": 26.521
        },
        "ignore_audio": false,
        "audio_path": null
    },
    {
        "segment_id": "9bc07b8e9d8811efa3727cd30a5182b8",
        "text": "eloquent in her praise.",
        "audio_url": "https://v16m-default.akamaized.net/e3164896b1a9c08174129f586bb737de/672de5a0/video/tos/maliva/tos-maliva-v-f15faa-us/oIFeJ5AuEEGw4kACykOCtDTCWE1lSgAfgXfFAr/?a=7073&bti=OTU0QDItLmA%3D&ch=0&cr=0&dr=4&er=0&lr=unwatermarked&cd=0%7C0%7C0%7C0&br=312&bt=156&ds=5&ft=.cwOVInz7ThuVGvOXq8Zmo&qs=13&rc=Mzk1c3Y5cmlzdjUzNzhoM0BpMzk1c3Y5cmlzdjUzNzhoM0BrLWJzMmRrL2pgLS1kLjZzYSNrLWJzMmRrL2pgLS1kLjZzcw%3D%3D&vvpl=1&l=02173103953905200000000000000000000ffff0a00a7d8bb39e0&btag=e00070000&format=mp3&mime_type=audio_mpeg",
        "source_timerange": {
            "start_offset": 1.3440000000000012,
            "end_offset": 2.688
        },
        "target_timerange": {
            "start_offset": 26.521,
            "end_offset": 27.865000000000002
        },
        "ignore_audio": true,
        "audio_path": null
    },
    {
        "segment_id": "9bc0a8ac9d8811efa3727cd30a5182b8",
        "text": "The subject elevated him to",
        "audio_url": "https://v16m-default.akamaized.net/94af6a6f6aeef5aaa42dbad01671d1f8/672de5ae/video/tos/maliva/tos-maliva-v-f15faa-us/ocQJvASDOCI68PVFEAAyeXIxCCHbfW2gQrInBe/?a=7073&bti=OTU0QDItLmA%3D&ch=0&cr=0&dr=4&er=0&lr=unwatermarked&cd=0%7C0%7C0%7C0&br=312&bt=156&ds=5&ft=.cwOVInz7Th9VGvOXq8Zmo&qs=13&rc=M3hoZHc5cmlzdjUzNzhoM0BpM3hoZHc5cmlzdjUzNzhoM0AxaS1gMmRrL2pgLS1kLjZzYSMxaS1gMmRrL2pgLS1kLjZzcw%3D%3D&vvpl=1&l=02173103953905200000000000000000000ffff0a00a7d8bb39e0&btag=e00078000&format=mp3&mime_type=audio_mpeg",
        "source_timerange": {
            "start_offset": 0,
            "end_offset": 1.4530909090909088
        },
        "target_timerange": {
            "start_offset": 27.865000000000002,
            "end_offset": 29.318090909090913
        },
        "ignore_audio": false,
        "audio_path": null
    },
    {
        "segment_id": "9bc0a9f69d8811efa3727cd30a5182b8",
        "text": "more than usual solemnity",
        "audio_url": "https://v16m-default.akamaized.net/94af6a6f6aeef5aaa42dbad01671d1f8/672de5ae/video/tos/maliva/tos-maliva-v-f15faa-us/ocQJvASDOCI68PVFEAAyeXIxCCHbfW2gQrInBe/?a=7073&bti=OTU0QDItLmA%3D&ch=0&cr=0&dr=4&er=0&lr=unwatermarked&cd=0%7C0%7C0%7C0&br=312&bt=156&ds=5&ft=.cwOVInz7Th9VGvOXq8Zmo&qs=13&rc=M3hoZHc5cmlzdjUzNzhoM0BpM3hoZHc5cmlzdjUzNzhoM0AxaS1gMmRrL2pgLS1kLjZzYSMxaS1gMmRrL2pgLS1kLjZzcw%3D%3D&vvpl=1&l=02173103953905200000000000000000000ffff0a00a7d8bb39e0&btag=e00078000&format=mp3&mime_type=audio_mpeg",
        "source_timerange": {
            "start_offset": 1.4530909090909105,
            "end_offset": 2.9061818181818193
        },
        "target_timerange": {
            "start_offset": 29.318090909090913,
            "end_offset": 30.771181818181823
        },
        "ignore_audio": true,
        "audio_path": null
    },
    {
        "segment_id": "9bc0ab049d8811efa3727cd30a5182b8",
        "text": "of manner; and with a most",
        "audio_url": "https://v16m-default.akamaized.net/94af6a6f6aeef5aaa42dbad01671d1f8/672de5ae/video/tos/maliva/tos-maliva-v-f15faa-us/ocQJvASDOCI68PVFEAAyeXIxCCHbfW2gQrInBe/?a=7073&bti=OTU0QDItLmA%3D&ch=0&cr=0&dr=4&er=0&lr=unwatermarked&cd=0%7C0%7C0%7C0&br=312&bt=156&ds=5&ft=.cwOVInz7Th9VGvOXq8Zmo&qs=13&rc=M3hoZHc5cmlzdjUzNzhoM0BpM3hoZHc5cmlzdjUzNzhoM0AxaS1gMmRrL2pgLS1kLjZzYSMxaS1gMmRrL2pgLS1kLjZzcw%3D%3D&vvpl=1&l=02173103953905200000000000000000000ffff0a00a7d8bb39e0&btag=e00078000&format=mp3&mime_type=audio_mpeg",
        "source_timerange": {
            "start_offset": 2.9061818181818175,
            "end_offset": 4.35927272727273
        },
        "target_timerange": {
            "start_offset": 30.77118181818182,
            "end_offset": 32.224272727272734
        },
        "ignore_audio": true,
        "audio_path": null
    },
    {
        "segment_id": "9bc0abf49d8811efa3727cd30a5182b8",
        "text": "important aspect he",
        "audio_url": "https://v16m-default.akamaized.net/94af6a6f6aeef5aaa42dbad01671d1f8/672de5ae/video/tos/maliva/tos-maliva-v-f15faa-us/ocQJvASDOCI68PVFEAAyeXIxCCHbfW2gQrInBe/?a=7073&bti=OTU0QDItLmA%3D&ch=0&cr=0&dr=4&er=0&lr=unwatermarked&cd=0%7C0%7C0%7C0&br=312&bt=156&ds=5&ft=.cwOVInz7Th9VGvOXq8Zmo&qs=13&rc=M3hoZHc5cmlzdjUzNzhoM0BpM3hoZHc5cmlzdjUzNzhoM0AxaS1gMmRrL2pgLS1kLjZzYSMxaS1gMmRrL2pgLS1kLjZzcw%3D%3D&vvpl=1&l=02173103953905200000000000000000000ffff0a00a7d8bb39e0&btag=e00078000&format=mp3&mime_type=audio_mpeg",
        "source_timerange": {
            "start_offset": 4.359272727272732,
            "end_offset": 5.812363636363633
        },
        "target_timerange": {
            "start_offset": 32.224272727272734,
            "end_offset": 33.67736363636364
        },
        "ignore_audio": true,
        "audio_path": null
    },
    {
        "segment_id": "9bc0acee9d8811efa3727cd30a5182b8",
        "text": "protested that he had never",
        "audio_url": "https://v16m-default.akamaized.net/94af6a6f6aeef5aaa42dbad01671d1f8/672de5ae/video/tos/maliva/tos-maliva-v-f15faa-us/ocQJvASDOCI68PVFEAAyeXIxCCHbfW2gQrInBe/?a=7073&bti=OTU0QDItLmA%3D&ch=0&cr=0&dr=4&er=0&lr=unwatermarked&cd=0%7C0%7C0%7C0&br=312&bt=156&ds=5&ft=.cwOVInz7Th9VGvOXq8Zmo&qs=13&rc=M3hoZHc5cmlzdjUzNzhoM0BpM3hoZHc5cmlzdjUzNzhoM0AxaS1gMmRrL2pgLS1kLjZzYSMxaS1gMmRrL2pgLS1kLjZzcw%3D%3D&vvpl=1&l=02173103953905200000000000000000000ffff0a00a7d8bb39e0&btag=e00078000&format=mp3&mime_type=audio_mpeg",
        "source_timerange": {
            "start_offset": 5.812363636363635,
            "end_offset": 7.265454545454544
        },
        "target_timerange": {
            "start_offset": 33.67736363636364,
            "end_offset": 35.13045454545455
        },
        "ignore_audio": true,
        "audio_path": null
    },
    {
        "segment_id": "9bc0ade89d8811efa3727cd30a5182b8",
        "text": "in his life witnessed such",
        "audio_url": "https://v16m-default.akamaized.net/94af6a6f6aeef5aaa42dbad01671d1f8/672de5ae/video/tos/maliva/tos-maliva-v-f15faa-us/ocQJvASDOCI68PVFEAAyeXIxCCHbfW2gQrInBe/?a=7073&bti=OTU0QDItLmA%3D&ch=0&cr=0&dr=4&er=0&lr=unwatermarked&cd=0%7C0%7C0%7C0&br=312&bt=156&ds=5&ft=.cwOVInz7Th9VGvOXq8Zmo&qs=13&rc=M3hoZHc5cmlzdjUzNzhoM0BpM3hoZHc5cmlzdjUzNzhoM0AxaS1gMmRrL2pgLS1kLjZzYSMxaS1gMmRrL2pgLS1kLjZzcw%3D%3D&vvpl=1&l=02173103953905200000000000000000000ffff0a00a7d8bb39e0&btag=e00078000&format=mp3&mime_type=audio_mpeg",
        "source_timerange": {
            "start_offset": 7.265454545454546,
            "end_offset": 8.718545454545454
        },
        "target_timerange": {
            "start_offset": 35.13045454545455,
            "end_offset": 36.58354545454546
        },
        "ignore_audio": true,
        "audio_path": null
    },
    {
        "segment_id": "9bc0af469d8811efa3727cd30a5182b8",
        "text": "behaviour in a person of",
        "audio_url": "https://v16m-default.akamaized.net/94af6a6f6aeef5aaa42dbad01671d1f8/672de5ae/video/tos/maliva/tos-maliva-v-f15faa-us/ocQJvASDOCI68PVFEAAyeXIxCCHbfW2gQrInBe/?a=7073&bti=OTU0QDItLmA%3D&ch=0&cr=0&dr=4&er=0&lr=unwatermarked&cd=0%7C0%7C0%7C0&br=312&bt=156&ds=5&ft=.cwOVInz7Th9VGvOXq8Zmo&qs=13&rc=M3hoZHc5cmlzdjUzNzhoM0BpM3hoZHc5cmlzdjUzNzhoM0AxaS1gMmRrL2pgLS1kLjZzYSMxaS1gMmRrL2pgLS1kLjZzcw%3D%3D&vvpl=1&l=02173103953905200000000000000000000ffff0a00a7d8bb39e0&btag=e00078000&format=mp3&mime_type=audio_mpeg",
        "source_timerange": {
            "start_offset": 8.718545454545456,
            "end_offset": 10.171636363636365
        },
        "target_timerange": {
            "start_offset": 36.58354545454546,
            "end_offset": 38.03663636363637
        },
        "ignore_audio": true,
        "audio_path": null
    },
    {
        "segment_id": "9bc0b0409d8811efa3727cd30a5182b8",
        "text": "rank--such affability and",
        "audio_url": "https://v16m-default.akamaized.net/94af6a6f6aeef5aaa42dbad01671d1f8/672de5ae/video/tos/maliva/tos-maliva-v-f15faa-us/ocQJvASDOCI68PVFEAAyeXIxCCHbfW2gQrInBe/?a=7073&bti=OTU0QDItLmA%3D&ch=0&cr=0&dr=4&er=0&lr=unwatermarked&cd=0%7C0%7C0%7C0&br=312&bt=156&ds=5&ft=.cwOVInz7Th9VGvOXq8Zmo&qs=13&rc=M3hoZHc5cmlzdjUzNzhoM0BpM3hoZHc5cmlzdjUzNzhoM0AxaS1gMmRrL2pgLS1kLjZzYSMxaS1gMmRrL2pgLS1kLjZzcw%3D%3D&vvpl=1&l=02173103953905200000000000000000000ffff0a00a7d8bb39e0&btag=e00078000&format=mp3&mime_type=audio_mpeg",
        "source_timerange": {
            "start_offset": 10.171636363636367,
            "end_offset": 11.624727272727275
        },
        "target_timerange": {
            "start_offset": 38.03663636363637,
            "end_offset": 39.48972727272728
        },
        "ignore_audio": true,
        "audio_path": null
    },
    {
        "segment_id": "9bc0b1269d8811efa3727cd30a5182b8",
        "text": "condescension, as he had",
        "audio_url": "https://v16m-default.akamaized.net/94af6a6f6aeef5aaa42dbad01671d1f8/672de5ae/video/tos/maliva/tos-maliva-v-f15faa-us/ocQJvASDOCI68PVFEAAyeXIxCCHbfW2gQrInBe/?a=7073&bti=OTU0QDItLmA%3D&ch=0&cr=0&dr=4&er=0&lr=unwatermarked&cd=0%7C0%7C0%7C0&br=312&bt=156&ds=5&ft=.cwOVInz7Th9VGvOXq8Zmo&qs=13&rc=M3hoZHc5cmlzdjUzNzhoM0BpM3hoZHc5cmlzdjUzNzhoM0AxaS1gMmRrL2pgLS1kLjZzYSMxaS1gMmRrL2pgLS1kLjZzcw%3D%3D&vvpl=1&l=02173103953905200000000000000000000ffff0a00a7d8bb39e0&btag=e00078000&format=mp3&mime_type=audio_mpeg",
        "source_timerange": {
            "start_offset": 11.624727272727277,
            "end_offset": 13.077818181818179
        },
        "target_timerange": {
            "start_offset": 39.48972727272728,
            "end_offset": 40.94281818181818
        },
        "ignore_audio": true,
        "audio_path": null
    },
    {
        "segment_id": "9bc0b2849d8811efa3727cd30a5182b8",
        "text": "himself experienced from",
        "audio_url": "https://v16m-default.akamaized.net/94af6a6f6aeef5aaa42dbad01671d1f8/672de5ae/video/tos/maliva/tos-maliva-v-f15faa-us/ocQJvASDOCI68PVFEAAyeXIxCCHbfW2gQrInBe/?a=7073&bti=OTU0QDItLmA%3D&ch=0&cr=0&dr=4&er=0&lr=unwatermarked&cd=0%7C0%7C0%7C0&br=312&bt=156&ds=5&ft=.cwOVInz7Th9VGvOXq8Zmo&qs=13&rc=M3hoZHc5cmlzdjUzNzhoM0BpM3hoZHc5cmlzdjUzNzhoM0AxaS1gMmRrL2pgLS1kLjZzYSMxaS1gMmRrL2pgLS1kLjZzcw%3D%3D&vvpl=1&l=02173103953905200000000000000000000ffff0a00a7d8bb39e0&btag=e00078000&format=mp3&mime_type=audio_mpeg",
        "source_timerange": {
            "start_offset": 13.07781818181818,
            "end_offset": 14.53090909090909
        },
        "target_timerange": {
            "start_offset": 40.94281818181818,
            "end_offset": 42.39590909090909
        },
        "ignore_audio": true,
        "audio_path": null
    },
    {
        "segment_id": "9bc0b37e9d8811efa3727cd30a5182b8",
        "text": "Lady Catherine.",
        "audio_url": "https://v16m-default.akamaized.net/94af6a6f6aeef5aaa42dbad01671d1f8/672de5ae/video/tos/maliva/tos-maliva-v-f15faa-us/ocQJvASDOCI68PVFEAAyeXIxCCHbfW2gQrInBe/?a=7073&bti=OTU0QDItLmA%3D&ch=0&cr=0&dr=4&er=0&lr=unwatermarked&cd=0%7C0%7C0%7C0&br=312&bt=156&ds=5&ft=.cwOVInz7Th9VGvOXq8Zmo&qs=13&rc=M3hoZHc5cmlzdjUzNzhoM0BpM3hoZHc5cmlzdjUzNzhoM0AxaS1gMmRrL2pgLS1kLjZzYSMxaS1gMmRrL2pgLS1kLjZzcw%3D%3D&vvpl=1&l=02173103953905200000000000000000000ffff0a00a7d8bb39e0&btag=e00078000&format=mp3&mime_type=audio_mpeg",
        "source_timerange": {
            "start_offset": 14.530909090909091,
            "end_offset": 15.984
        },
        "target_timerange": {
            "start_offset": 42.39590909090909,
            "end_offset": 43.849000000000004
        },
        "ignore_audio": true,
        "audio_path": null
    },
    {
        "segment_id": "9bc0c7429d8811efa3727cd30a5182b8",
        "text": "She had been graciously pleased to",
        "audio_url": "https://v16m-default.akamaized.net/e80293b5f27ac1055d4d49514975f67b/672de5a4/video/tos/maliva/tos-maliva-v-f15faa-us/oY8tryXDOESACACrkCWFHAJEEcDAx4XNegf6Tf/?a=7073&bti=OTU0QDItLmA%3D&ch=0&cr=0&dr=4&er=0&lr=unwatermarked&cd=0%7C0%7C0%7C0&br=312&bt=156&ds=5&ft=.cwOVInz7ThuVGvOXq8Zmo&qs=13&rc=anZqaW85cmlzdjUzNzhoM0BpanZqaW85cmlzdjUzNzhoM0Bfb29wMmRrL2pgLS1kLjZzYSNfb29wMmRrL2pgLS1kLjZzcw%3D%3D&vvpl=1&l=02173103953905200000000000000000000ffff0a00a7d8bb39e0&btag=e00070000&format=mp3&mime_type=audio_mpeg",
        "source_timerange": {
            "start_offset": 0,
            "end_offset": 1.5600000000000076
        },
        "target_timerange": {
            "start_offset": 43.849000000000004,
            "end_offset": 45.409000000000006
        },
        "ignore_audio": false,
        "audio_path": null
    },
    {
        "segment_id": "9bc0c86e9d8811efa3727cd30a5182b8",
        "text": "approve of both the discourses",
        "audio_url": "https://v16m-default.akamaized.net/e80293b5f27ac1055d4d49514975f67b/672de5a4/video/tos/maliva/tos-maliva-v-f15faa-us/oY8tryXDOESACACrkCWFHAJEEcDAx4XNegf6Tf/?a=7073&bti=OTU0QDItLmA%3D&ch=0&cr=0&dr=4&er=0&lr=unwatermarked&cd=0%7C0%7C0%7C0&br=312&bt=156&ds=5&ft=.cwOVInz7ThuVGvOXq8Zmo&qs=13&rc=anZqaW85cmlzdjUzNzhoM0BpanZqaW85cmlzdjUzNzhoM0Bfb29wMmRrL2pgLS1kLjZzYSNfb29wMmRrL2pgLS1kLjZzcw%3D%3D&vvpl=1&l=02173103953905200000000000000000000ffff0a00a7d8bb39e0&btag=e00070000&format=mp3&mime_type=audio_mpeg",
        "source_timerange": {
            "start_offset": 1.5600000000000023,
            "end_offset": 3.1200000000000028
        },
        "target_timerange": {
            "start_offset": 45.409000000000006,
            "end_offset": 46.969
        },
        "ignore_audio": true,
        "audio_path": null
    },
    {
        "segment_id": "9bc0c9729d8811efa3727cd30a5182b8",
        "text": "which he had already had the",
        "audio_url": "https://v16m-default.akamaized.net/e80293b5f27ac1055d4d49514975f67b/672de5a4/video/tos/maliva/tos-maliva-v-f15faa-us/oY8tryXDOESACACrkCWFHAJEEcDAx4XNegf6Tf/?a=7073&bti=OTU0QDItLmA%3D&ch=0&cr=0&dr=4&er=0&lr=unwatermarked&cd=0%7C0%7C0%7C0&br=312&bt=156&ds=5&ft=.cwOVInz7ThuVGvOXq8Zmo&qs=13&rc=anZqaW85cmlzdjUzNzhoM0BpanZqaW85cmlzdjUzNzhoM0Bfb29wMmRrL2pgLS1kLjZzYSNfb29wMmRrL2pgLS1kLjZzcw%3D%3D&vvpl=1&l=02173103953905200000000000000000000ffff0a00a7d8bb39e0&btag=e00070000&format=mp3&mime_type=audio_mpeg",
        "source_timerange": {
            "start_offset": 3.1199999999999974,
            "end_offset": 4.679999999999998
        },
        "target_timerange": {
            "start_offset": 46.969,
            "end_offset": 48.528999999999996
        },
        "ignore_audio": true,
        "audio_path": null
    },
    {
        "segment_id": "9bc0ca589d8811efa3727cd30a5182b8",
        "text": "honour of preaching before her.",
        "audio_url": "https://v16m-default.akamaized.net/e80293b5f27ac1055d4d49514975f67b/672de5a4/video/tos/maliva/tos-maliva-v-f15faa-us/oY8tryXDOESACACrkCWFHAJEEcDAx4XNegf6Tf/?a=7073&bti=OTU0QDItLmA%3D&ch=0&cr=0&dr=4&er=0&lr=unwatermarked&cd=0%7C0%7C0%7C0&br=312&bt=156&ds=5&ft=.cwOVInz7ThuVGvOXq8Zmo&qs=13&rc=anZqaW85cmlzdjUzNzhoM0BpanZqaW85cmlzdjUzNzhoM0Bfb29wMmRrL2pgLS1kLjZzYSNfb29wMmRrL2pgLS1kLjZzcw%3D%3D&vvpl=1&l=02173103953905200000000000000000000ffff0a00a7d8bb39e0&btag=e00070000&format=mp3&mime_type=audio_mpeg",
        "source_timerange": {
            "start_offset": 4.679999999999993,
            "end_offset": 6.24
        },
        "target_timerange": {
            "start_offset": 48.528999999999996,
            "end_offset": 50.089
        },
        "ignore_audio": true,
        "audio_path": null
    },
    {
        "segment_id": "9bc0e1f09d8811efa3727cd30a5182b8",
        "text": "She had also asked him twice to",
        "audio_url": "https://v16m-default.akamaized.net/39b7428845383f7078f1fb29387a5382/672de5a5/video/tos/maliva/tos-maliva-v-f15faa-us/ogvt9RZRlPQ8VUSAu2Aguhk45iACyBTiEEtAi/?a=7073&bti=OTU0QDItLmA%3D&ch=0&cr=0&dr=4&er=0&lr=unwatermarked&cd=0%7C0%7C0%7C0&br=312&bt=156&ds=5&ft=.cwOVInz7ThuVGvOXq8Zmo&qs=13&rc=amtlZXY5cmlzdjUzNzhoM0BpamtlZXY5cmlzdjUzNzhoM0BqbmhkMmRrL2pgLS1kLjZzYSNqbmhkMmRrL2pgLS1kLjZzcw%3D%3D&vvpl=1&l=02173103953905200000000000000000000ffff0a00a7d8bb39e0&btag=e00070000&format=mp3&mime_type=audio_mpeg",
        "source_timerange": {
            "start_offset": 0,
            "end_offset": 1.5647999999999929
        },
        "target_timerange": {
            "start_offset": 50.089,
            "end_offset": 51.6538
        },
        "ignore_audio": false,
        "audio_path": null
    },
    {
        "segment_id": "9bc0e3269d8811efa3727cd30a5182b8",
        "text": "dine at Rosings, and had sent",
        "audio_url": "https://v16m-default.akamaized.net/39b7428845383f7078f1fb29387a5382/672de5a5/video/tos/maliva/tos-maliva-v-f15faa-us/ogvt9RZRlPQ8VUSAu2Aguhk45iACyBTiEEtAi/?a=7073&bti=OTU0QDItLmA%3D&ch=0&cr=0&dr=4&er=0&lr=unwatermarked&cd=0%7C0%7C0%7C0&br=312&bt=156&ds=5&ft=.cwOVInz7ThuVGvOXq8Zmo&qs=13&rc=amtlZXY5cmlzdjUzNzhoM0BpamtlZXY5cmlzdjUzNzhoM0BqbmhkMmRrL2pgLS1kLjZzYSNqbmhkMmRrL2pgLS1kLjZzcw%3D%3D&vvpl=1&l=02173103953905200000000000000000000ffff0a00a7d8bb39e0&btag=e00070000&format=mp3&mime_type=audio_mpeg",
        "source_timerange": {
            "start_offset": 1.5647999999999982,
            "end_offset": 3.129599999999998
        },
        "target_timerange": {
            "start_offset": 51.6538,
            "end_offset": 53.2186
        },
        "ignore_audio": true,
        "audio_path": null
    },
    {
        "segment_id": "9bc0e7909d8811efa3727cd30a5182b8",
        "text": "for him only the Saturday",
        "audio_url": "https://v16m-default.akamaized.net/39b7428845383f7078f1fb29387a5382/672de5a5/video/tos/maliva/tos-maliva-v-f15faa-us/ogvt9RZRlPQ8VUSAu2Aguhk45iACyBTiEEtAi/?a=7073&bti=OTU0QDItLmA%3D&ch=0&cr=0&dr=4&er=0&lr=unwatermarked&cd=0%7C0%7C0%7C0&br=312&bt=156&ds=5&ft=.cwOVInz7ThuVGvOXq8Zmo&qs=13&rc=amtlZXY5cmlzdjUzNzhoM0BpamtlZXY5cmlzdjUzNzhoM0BqbmhkMmRrL2pgLS1kLjZzYSNqbmhkMmRrL2pgLS1kLjZzcw%3D%3D&vvpl=1&l=02173103953905200000000000000000000ffff0a00a7d8bb39e0&btag=e00070000&format=mp3&mime_type=audio_mpeg",
        "source_timerange": {
            "start_offset": 3.1296000000000035,
            "end_offset": 4.694399999999996
        },
        "target_timerange": {
            "start_offset": 53.2186,
            "end_offset": 54.7834
        },
        "ignore_audio": true,
        "audio_path": null
    },
    {
        "segment_id": "9bc0e9989d8811efa3727cd30a5182b8",
        "text": "before, to make up her pool of",
        "audio_url": "https://v16m-default.akamaized.net/39b7428845383f7078f1fb29387a5382/672de5a5/video/tos/maliva/tos-maliva-v-f15faa-us/ogvt9RZRlPQ8VUSAu2Aguhk45iACyBTiEEtAi/?a=7073&bti=OTU0QDItLmA%3D&ch=0&cr=0&dr=4&er=0&lr=unwatermarked&cd=0%7C0%7C0%7C0&br=312&bt=156&ds=5&ft=.cwOVInz7ThuVGvOXq8Zmo&qs=13&rc=amtlZXY5cmlzdjUzNzhoM0BpamtlZXY5cmlzdjUzNzhoM0BqbmhkMmRrL2pgLS1kLjZzYSNqbmhkMmRrL2pgLS1kLjZzcw%3D%3D&vvpl=1&l=02173103953905200000000000000000000ffff0a00a7d8bb39e0&btag=e00070000&format=mp3&mime_type=audio_mpeg",
        "source_timerange": {
            "start_offset": 4.694400000000002,
            "end_offset": 6.259200000000002
        },
        "target_timerange": {
            "start_offset": 54.7834,
            "end_offset": 56.348200000000006
        },
        "ignore_audio": true,
        "audio_path": null
    },
    {
        "segment_id": "9bc0eae29d8811efa3727cd30a5182b8",
        "text": "quadrille in the evening.",
        "audio_url": "https://v16m-default.akamaized.net/39b7428845383f7078f1fb29387a5382/672de5a5/video/tos/maliva/tos-maliva-v-f15faa-us/ogvt9RZRlPQ8VUSAu2Aguhk45iACyBTiEEtAi/?a=7073&bti=OTU0QDItLmA%3D&ch=0&cr=0&dr=4&er=0&lr=unwatermarked&cd=0%7C0%7C0%7C0&br=312&bt=156&ds=5&ft=.cwOVInz7ThuVGvOXq8Zmo&qs=13&rc=amtlZXY5cmlzdjUzNzhoM0BpamtlZXY5cmlzdjUzNzhoM0BqbmhkMmRrL2pgLS1kLjZzYSNqbmhkMmRrL2pgLS1kLjZzcw%3D%3D&vvpl=1&l=02173103953905200000000000000000000ffff0a00a7d8bb39e0&btag=e00070000&format=mp3&mime_type=audio_mpeg",
        "source_timerange": {
            "start_offset": 6.259200000000007,
            "end_offset": 7.824
        },
        "target_timerange": {
            "start_offset": 56.348200000000006,
            "end_offset": 57.913000000000004
        },
        "ignore_audio": true,
        "audio_path": null
    },
    {
        "segment_id": "9bc0ff829d8811efa3727cd30a5182b8",
        "text": "Lady Catherine was reckoned",
        "audio_url": "https://v16m-default.akamaized.net/ed8403a5ec307cac99118dfe193b470d/672de5a4/video/tos/maliva/tos-maliva-v-f15faa-us/ogDvAEgAJEkWeFyC9S4fAl9TTxAeCrg6tOEyXC/?a=7073&bti=OTU0QDItLmA%3D&ch=0&cr=0&dr=4&er=0&lr=unwatermarked&cd=0%7C0%7C0%7C0&br=312&bt=156&ds=5&ft=.cwOVInz7ThuVGvOXq8Zmo&qs=13&rc=M3hlb2o5cmlzdjUzNzhoM0BpM3hlb2o5cmlzdjUzNzhoM0BzZXJiMmRrL2pgLS1kLjZzYSNzZXJiMmRrL2pgLS1kLjZzcw%3D%3D&vvpl=1&l=02173103953905200000000000000000000ffff0a00a7d8bb39e0&btag=e00070000&format=mp3&mime_type=audio_mpeg",
        "source_timerange": {
            "start_offset": 0,
            "end_offset": 1.6619999999999964
        },
        "target_timerange": {
            "start_offset": 57.913000000000004,
            "end_offset": 59.575
        },
        "ignore_audio": false,
        "audio_path": null
    },
    {
        "segment_id": "9bc100b89d8811efa3727cd30a5182b8",
        "text": "proud by many people, he knew,",
        "audio_url": "https://v16m-default.akamaized.net/ed8403a5ec307cac99118dfe193b470d/672de5a4/video/tos/maliva/tos-maliva-v-f15faa-us/ogDvAEgAJEkWeFyC9S4fAl9TTxAeCrg6tOEyXC/?a=7073&bti=OTU0QDItLmA%3D&ch=0&cr=0&dr=4&er=0&lr=unwatermarked&cd=0%7C0%7C0%7C0&br=312&bt=156&ds=5&ft=.cwOVInz7ThuVGvOXq8Zmo&qs=13&rc=M3hlb2o5cmlzdjUzNzhoM0BpM3hlb2o5cmlzdjUzNzhoM0BzZXJiMmRrL2pgLS1kLjZzYSNzZXJiMmRrL2pgLS1kLjZzcw%3D%3D&vvpl=1&l=02173103953905200000000000000000000ffff0a00a7d8bb39e0&btag=e00070000&format=mp3&mime_type=audio_mpeg",
        "source_timerange": {
            "start_offset": 1.661999999999999,
            "end_offset": 3.3240000000000025
        },
        "target_timerange": {
            "start_offset": 59.575,
            "end_offset": 61.23700000000001
        },
        "ignore_audio": true,
        "audio_path": null
    },
    {
        "segment_id": "9bc101bc9d8811efa3727cd30a5182b8",
        "text": "but _he_ had never seen",
        "audio_url": "https://v16m-default.akamaized.net/ed8403a5ec307cac99118dfe193b470d/672de5a4/video/tos/maliva/tos-maliva-v-f15faa-us/ogDvAEgAJEkWeFyC9S4fAl9TTxAeCrg6tOEyXC/?a=7073&bti=OTU0QDItLmA%3D&ch=0&cr=0&dr=4&er=0&lr=unwatermarked&cd=0%7C0%7C0%7C0&br=312&bt=156&ds=5&ft=.cwOVInz7ThuVGvOXq8Zmo&qs=13&rc=M3hlb2o5cmlzdjUzNzhoM0BpM3hlb2o5cmlzdjUzNzhoM0BzZXJiMmRrL2pgLS1kLjZzYSNzZXJiMmRrL2pgLS1kLjZzcw%3D%3D&vvpl=1&l=02173103953905200000000000000000000ffff0a00a7d8bb39e0&btag=e00070000&format=mp3&mime_type=audio_mpeg",
        "source_timerange": {
            "start_offset": 3.324000000000005,
            "end_offset": 4.9860000000000015
        },
        "target_timerange": {
            "start_offset": 61.23700000000001,
            "end_offset": 62.89900000000001
        },
        "ignore_audio": true,
        "audio_path": null
    },
    {
        "segment_id": "9bc102b69d8811efa3727cd30a5182b8",
        "text": "anything but affability in her.",
        "audio_url": "https://v16m-default.akamaized.net/ed8403a5ec307cac99118dfe193b470d/672de5a4/video/tos/maliva/tos-maliva-v-f15faa-us/ogDvAEgAJEkWeFyC9S4fAl9TTxAeCrg6tOEyXC/?a=7073&bti=OTU0QDItLmA%3D&ch=0&cr=0&dr=4&er=0&lr=unwatermarked&cd=0%7C0%7C0%7C0&br=312&bt=156&ds=5&ft=.cwOVInz7ThuVGvOXq8Zmo&qs=13&rc=M3hlb2o5cmlzdjUzNzhoM0BpM3hlb2o5cmlzdjUzNzhoM0BzZXJiMmRrL2pgLS1kLjZzYSNzZXJiMmRrL2pgLS1kLjZzcw%3D%3D&vvpl=1&l=02173103953905200000000000000000000ffff0a00a7d8bb39e0&btag=e00070000&format=mp3&mime_type=audio_mpeg",
        "source_timerange": {
            "start_offset": 4.986000000000004,
            "end_offset": 6.648000000000001
        },
        "target_timerange": {
            "start_offset": 62.89900000000001,
            "end_offset": 64.561
        },
        "ignore_audio": true,
        "audio_path": null
    },
    {
        "segment_id": "9bc1278c9d8811efa3727cd30a5182b8",
        "text": "She had always spoken to him",
        "audio_url": "https://v16m-default.akamaized.net/c41cb8a2618f3a1628366e8ee82f3a37/672de5ab/video/tos/maliva/tos-maliva-v-f15faa-us/oUAWSEeEDZdJyCkHgEfTX6AA6FMfAOCC1l3rwt/?a=7073&bti=OTU0QDItLmA%3D&ch=0&cr=0&dr=4&er=0&lr=unwatermarked&cd=0%7C0%7C0%7C0&br=312&bt=156&ds=5&ft=.cwOVInz7Th9VGvOXq8Zmo&qs=13&rc=ajo6Omw5cmlzdjUzNzhoM0Bpajo6Omw5cmlzdjUzNzhoM0BvaG9nMmRrL2pgLS1kLjZzYSNvaG9nMmRrL2pgLS1kLjZzcw%3D%3D&vvpl=1&l=02173103953905200000000000000000000ffff0a00a7d8bb39e0&btag=e00070000&format=mp3&mime_type=audio_mpeg",
        "source_timerange": {
            "start_offset": 0,
            "end_offset": 1.4400000000000048
        },
        "target_timerange": {
            "start_offset": 64.561,
            "end_offset": 66.001
        },
        "ignore_audio": false,
        "audio_path": null
    },
    {
        "segment_id": "9bc128b89d8811efa3727cd30a5182b8",
        "text": "as she would to any other",
        "audio_url": "https://v16m-default.akamaized.net/c41cb8a2618f3a1628366e8ee82f3a37/672de5ab/video/tos/maliva/tos-maliva-v-f15faa-us/oUAWSEeEDZdJyCkHgEfTX6AA6FMfAOCC1l3rwt/?a=7073&bti=OTU0QDItLmA%3D&ch=0&cr=0&dr=4&er=0&lr=unwatermarked&cd=0%7C0%7C0%7C0&br=312&bt=156&ds=5&ft=.cwOVInz7Th9VGvOXq8Zmo&qs=13&rc=ajo6Omw5cmlzdjUzNzhoM0Bpajo6Omw5cmlzdjUzNzhoM0BvaG9nMmRrL2pgLS1kLjZzYSNvaG9nMmRrL2pgLS1kLjZzcw%3D%3D&vvpl=1&l=02173103953905200000000000000000000ffff0a00a7d8bb39e0&btag=e00070000&format=mp3&mime_type=audio_mpeg",
        "source_timerange": {
            "start_offset": 1.4399999999999977,
            "end_offset": 2.8800000000000026
        },
        "target_timerange": {
            "start_offset": 66.001,
            "end_offset": 67.441
        },
        "ignore_audio": true,
        "audio_path": null
    },
    {
        "segment_id": "9bc129b29d8811efa3727cd30a5182b8",
        "text": "gentleman; she made not the",
        "audio_url": "https://v16m-default.akamaized.net/c41cb8a2618f3a1628366e8ee82f3a37/672de5ab/video/tos/maliva/tos-maliva-v-f15faa-us/oUAWSEeEDZdJyCkHgEfTX6AA6FMfAOCC1l3rwt/?a=7073&bti=OTU0QDItLmA%3D&ch=0&cr=0&dr=4&er=0&lr=unwatermarked&cd=0%7C0%7C0%7C0&br=312&bt=156&ds=5&ft=.cwOVInz7Th9VGvOXq8Zmo&qs=13&rc=ajo6Omw5cmlzdjUzNzhoM0Bpajo6Omw5cmlzdjUzNzhoM0BvaG9nMmRrL2pgLS1kLjZzYSNvaG9nMmRrL2pgLS1kLjZzcw%3D%3D&vvpl=1&l=02173103953905200000000000000000000ffff0a00a7d8bb39e0&btag=e00070000&format=mp3&mime_type=audio_mpeg",
        "source_timerange": {
            "start_offset": 2.8799999999999955,
            "end_offset": 4.32
        },
        "target_timerange": {
            "start_offset": 67.441,
            "end_offset": 68.881
        },
        "ignore_audio": true,
        "audio_path": null
    },
    {
        "segment_id": "9bc12aa29d8811efa3727cd30a5182b8",
        "text": "smallest objection to his",
        "audio_url": "https://v16m-default.akamaized.net/c41cb8a2618f3a1628366e8ee82f3a37/672de5ab/video/tos/maliva/tos-maliva-v-f15faa-us/oUAWSEeEDZdJyCkHgEfTX6AA6FMfAOCC1l3rwt/?a=7073&bti=OTU0QDItLmA%3D&ch=0&cr=0&dr=4&er=0&lr=unwatermarked&cd=0%7C0%7C0%7C0&br=312&bt=156&ds=5&ft=.cwOVInz7Th9VGvOXq8Zmo&qs=13&rc=ajo6Omw5cmlzdjUzNzhoM0Bpajo6Omw5cmlzdjUzNzhoM0BvaG9nMmRrL2pgLS1kLjZzYSNvaG9nMmRrL2pgLS1kLjZzcw%3D%3D&vvpl=1&l=02173103953905200000000000000000000ffff0a00a7d8bb39e0&btag=e00070000&format=mp3&mime_type=audio_mpeg",
        "source_timerange": {
            "start_offset": 4.319999999999993,
            "end_offset": 5.759999999999998
        },
        "target_timerange": {
            "start_offset": 68.881,
            "end_offset": 70.321
        },
        "ignore_audio": true,
        "audio_path": null
    },
    {
        "segment_id": "9bc12b929d8811efa3727cd30a5182b8",
        "text": "joining in the society of the",
        "audio_url": "https://v16m-default.akamaized.net/c41cb8a2618f3a1628366e8ee82f3a37/672de5ab/video/tos/maliva/tos-maliva-v-f15faa-us/oUAWSEeEDZdJyCkHgEfTX6AA6FMfAOCC1l3rwt/?a=7073&bti=OTU0QDItLmA%3D&ch=0&cr=0&dr=4&er=0&lr=unwatermarked&cd=0%7C0%7C0%7C0&br=312&bt=156&ds=5&ft=.cwOVInz7Th9VGvOXq8Zmo&qs=13&rc=ajo6Omw5cmlzdjUzNzhoM0Bpajo6Omw5cmlzdjUzNzhoM0BvaG9nMmRrL2pgLS1kLjZzYSNvaG9nMmRrL2pgLS1kLjZzcw%3D%3D&vvpl=1&l=02173103953905200000000000000000000ffff0a00a7d8bb39e0&btag=e00070000&format=mp3&mime_type=audio_mpeg",
        "source_timerange": {
            "start_offset": 5.759999999999991,
            "end_offset": 7.20000000000001
        },
        "target_timerange": {
            "start_offset": 70.321,
            "end_offset": 71.76100000000001
        },
        "ignore_audio": true,
        "audio_path": null
    },
    {
        "segment_id": "9bc12c6e9d8811efa3727cd30a5182b8",
        "text": "neighbourhood, nor to his",
        "audio_url": "https://v16m-default.akamaized.net/c41cb8a2618f3a1628366e8ee82f3a37/672de5ab/video/tos/maliva/tos-maliva-v-f15faa-us/oUAWSEeEDZdJyCkHgEfTX6AA6FMfAOCC1l3rwt/?a=7073&bti=OTU0QDItLmA%3D&ch=0&cr=0&dr=4&er=0&lr=unwatermarked&cd=0%7C0%7C0%7C0&br=312&bt=156&ds=5&ft=.cwOVInz7Th9VGvOXq8Zmo&qs=13&rc=ajo6Omw5cmlzdjUzNzhoM0Bpajo6Omw5cmlzdjUzNzhoM0BvaG9nMmRrL2pgLS1kLjZzYSNvaG9nMmRrL2pgLS1kLjZzcw%3D%3D&vvpl=1&l=02173103953905200000000000000000000ffff0a00a7d8bb39e0&btag=e00070000&format=mp3&mime_type=audio_mpeg",
        "source_timerange": {
            "start_offset": 7.200000000000003,
            "end_offset": 8.640000000000008
        },
        "target_timerange": {
            "start_offset": 71.76100000000001,
            "end_offset": 73.20100000000001
        },
        "ignore_audio": true,
        "audio_path": null
    },
    {
        "segment_id": "9bc12d549d8811efa3727cd30a5182b8",
        "text": "leaving his parish",
        "audio_url": "https://v16m-default.akamaized.net/c41cb8a2618f3a1628366e8ee82f3a37/672de5ab/video/tos/maliva/tos-maliva-v-f15faa-us/oUAWSEeEDZdJyCkHgEfTX6AA6FMfAOCC1l3rwt/?a=7073&bti=OTU0QDItLmA%3D&ch=0&cr=0&dr=4&er=0&lr=unwatermarked&cd=0%7C0%7C0%7C0&br=312&bt=156&ds=5&ft=.cwOVInz7Th9VGvOXq8Zmo&qs=13&rc=ajo6Omw5cmlzdjUzNzhoM0Bpajo6Omw5cmlzdjUzNzhoM0BvaG9nMmRrL2pgLS1kLjZzYSNvaG9nMmRrL2pgLS1kLjZzcw%3D%3D&vvpl=1&l=02173103953905200000000000000000000ffff0a00a7d8bb39e0&btag=e00070000&format=mp3&mime_type=audio_mpeg",
        "source_timerange": {
            "start_offset": 8.64,
            "end_offset": 10.080000000000005
        },
        "target_timerange": {
            "start_offset": 73.20100000000001,
            "end_offset": 74.641
        },
        "ignore_audio": true,
        "audio_path": null
    },
    {
        "segment_id": "9bc12e3a9d8811efa3727cd30a5182b8",
        "text": "occasionally for a week or",
        "audio_url": "https://v16m-default.akamaized.net/c41cb8a2618f3a1628366e8ee82f3a37/672de5ab/video/tos/maliva/tos-maliva-v-f15faa-us/oUAWSEeEDZdJyCkHgEfTX6AA6FMfAOCC1l3rwt/?a=7073&bti=OTU0QDItLmA%3D&ch=0&cr=0&dr=4&er=0&lr=unwatermarked&cd=0%7C0%7C0%7C0&br=312&bt=156&ds=5&ft=.cwOVInz7Th9VGvOXq8Zmo&qs=13&rc=ajo6Omw5cmlzdjUzNzhoM0Bpajo6Omw5cmlzdjUzNzhoM0BvaG9nMmRrL2pgLS1kLjZzYSNvaG9nMmRrL2pgLS1kLjZzcw%3D%3D&vvpl=1&l=02173103953905200000000000000000000ffff0a00a7d8bb39e0&btag=e00070000&format=mp3&mime_type=audio_mpeg",
        "source_timerange": {
            "start_offset": 10.079999999999998,
            "end_offset": 11.520000000000003
        },
        "target_timerange": {
            "start_offset": 74.641,
            "end_offset": 76.081
        },
        "ignore_audio": true,
        "audio_path": null
    },
    {
        "segment_id": "9bc12f2a9d8811efa3727cd30a5182b8",
        "text": "two to visit his relations.",
        "audio_url": "https://v16m-default.akamaized.net/c41cb8a2618f3a1628366e8ee82f3a37/672de5ab/video/tos/maliva/tos-maliva-v-f15faa-us/oUAWSEeEDZdJyCkHgEfTX6AA6FMfAOCC1l3rwt/?a=7073&bti=OTU0QDItLmA%3D&ch=0&cr=0&dr=4&er=0&lr=unwatermarked&cd=0%7C0%7C0%7C0&br=312&bt=156&ds=5&ft=.cwOVInz7Th9VGvOXq8Zmo&qs=13&rc=ajo6Omw5cmlzdjUzNzhoM0Bpajo6Omw5cmlzdjUzNzhoM0BvaG9nMmRrL2pgLS1kLjZzYSNvaG9nMmRrL2pgLS1kLjZzcw%3D%3D&vvpl=1&l=02173103953905200000000000000000000ffff0a00a7d8bb39e0&btag=e00070000&format=mp3&mime_type=audio_mpeg",
        "source_timerange": {
            "start_offset": 11.519999999999996,
            "end_offset": 12.96
        },
        "target_timerange": {
            "start_offset": 76.081,
            "end_offset": 77.521
        },
        "ignore_audio": true,
        "audio_path": null
    },
    {
        "segment_id": "9bc15e8c9d8811efa3727cd30a5182b8",
        "text": "She had even condescended to",
        "audio_url": "https://v16m-default.akamaized.net/9ff6fc2d95ebfdbfb1f5a501019ccd19/672de5b1/video/tos/maliva/tos-maliva-v-f15faa-us/ooPCCW9SeQXyxAefdqRJ28Ai8gQxgCMCOQnrAX/?a=7073&bti=OTU0QDItLmA%3D&ch=0&cr=0&dr=4&er=0&lr=unwatermarked&cd=0%7C0%7C0%7C0&br=312&bt=156&ds=5&ft=.cwOVInz7Th9VGvOXq8Zmo&qs=13&rc=anY6NHg5cmlzdjUzNzhoM0BpanY6NHg5cmlzdjUzNzhoM0BjYnMzMmRrL2pgLS1kLjZzYSNjYnMzMmRrL2pgLS1kLjZzcw%3D%3D&vvpl=1&l=02173103953905200000000000000000000ffff0a00a7d8bb39e0&btag=e00078000&format=mp3&mime_type=audio_mpeg",
        "source_timerange": {
            "start_offset": 0,
            "end_offset": 1.5520000000000103
        },
        "target_timerange": {
            "start_offset": 77.521,
            "end_offset": 79.07300000000001
        },
        "ignore_audio": false,
        "audio_path": null
    },
    {
        "segment_id": "9bc15fd69d8811efa3727cd30a5182b8",
        "text": "advise him to marry as soon",
        "audio_url": "https://v16m-default.akamaized.net/9ff6fc2d95ebfdbfb1f5a501019ccd19/672de5b1/video/tos/maliva/tos-maliva-v-f15faa-us/ooPCCW9SeQXyxAefdqRJ28Ai8gQxgCMCOQnrAX/?a=7073&bti=OTU0QDItLmA%3D&ch=0&cr=0&dr=4&er=0&lr=unwatermarked&cd=0%7C0%7C0%7C0&br=312&bt=156&ds=5&ft=.cwOVInz7Th9VGvOXq8Zmo&qs=13&rc=anY6NHg5cmlzdjUzNzhoM0BpanY6NHg5cmlzdjUzNzhoM0BjYnMzMmRrL2pgLS1kLjZzYSNjYnMzMmRrL2pgLS1kLjZzcw%3D%3D&vvpl=1&l=02173103953905200000000000000000000ffff0a00a7d8bb39e0&btag=e00078000&format=mp3&mime_type=audio_mpeg",
        "source_timerange": {
            "start_offset": 1.5520000000000067,
            "end_offset": 3.1040000000000028
        },
        "target_timerange": {
            "start_offset": 79.07300000000001,
            "end_offset": 80.625
        },
        "ignore_audio": true,
        "audio_path": null
    },
    {
        "segment_id": "9bc160d09d8811efa3727cd30a5182b8",
        "text": "as he could, provided he",
        "audio_url": "https://v16m-default.akamaized.net/9ff6fc2d95ebfdbfb1f5a501019ccd19/672de5b1/video/tos/maliva/tos-maliva-v-f15faa-us/ooPCCW9SeQXyxAefdqRJ28Ai8gQxgCMCOQnrAX/?a=7073&bti=OTU0QDItLmA%3D&ch=0&cr=0&dr=4&er=0&lr=unwatermarked&cd=0%7C0%7C0%7C0&br=312&bt=156&ds=5&ft=.cwOVInz7Th9VGvOXq8Zmo&qs=13&rc=anY6NHg5cmlzdjUzNzhoM0BpanY6NHg5cmlzdjUzNzhoM0BjYnMzMmRrL2pgLS1kLjZzYSNjYnMzMmRrL2pgLS1kLjZzcw%3D%3D&vvpl=1&l=02173103953905200000000000000000000ffff0a00a7d8bb39e0&btag=e00078000&format=mp3&mime_type=audio_mpeg",
        "source_timerange": {
            "start_offset": 3.103999999999999,
            "end_offset": 4.655999999999995
        },
        "target_timerange": {
            "start_offset": 80.625,
            "end_offset": 82.17699999999999
        },
        "ignore_audio": true,
        "audio_path": null
    },
    {
        "segment_id": "9bc161b69d8811efa3727cd30a5182b8",
        "text": "chose with discretion; and",
        "audio_url": "https://v16m-default.akamaized.net/9ff6fc2d95ebfdbfb1f5a501019ccd19/672de5b1/video/tos/maliva/tos-maliva-v-f15faa-us/ooPCCW9SeQXyxAefdqRJ28Ai8gQxgCMCOQnrAX/?a=7073&bti=OTU0QDItLmA%3D&ch=0&cr=0&dr=4&er=0&lr=unwatermarked&cd=0%7C0%7C0%7C0&br=312&bt=156&ds=5&ft=.cwOVInz7Th9VGvOXq8Zmo&qs=13&rc=anY6NHg5cmlzdjUzNzhoM0BpanY6NHg5cmlzdjUzNzhoM0BjYnMzMmRrL2pgLS1kLjZzYSNjYnMzMmRrL2pgLS1kLjZzcw%3D%3D&vvpl=1&l=02173103953905200000000000000000000ffff0a00a7d8bb39e0&btag=e00078000&format=mp3&mime_type=audio_mpeg",
        "source_timerange": {
            "start_offset": 4.655999999999992,
            "end_offset": 6.208000000000002
        },
        "target_timerange": {
            "start_offset": 82.17699999999999,
            "end_offset": 83.729
        },
        "ignore_audio": true,
        "audio_path": null
    },
    {
        "segment_id": "9bc1629c9d8811efa3727cd30a5182b8",
        "text": "had once paid him a visit in",
        "audio_url": "https://v16m-default.akamaized.net/9ff6fc2d95ebfdbfb1f5a501019ccd19/672de5b1/video/tos/maliva/tos-maliva-v-f15faa-us/ooPCCW9SeQXyxAefdqRJ28Ai8gQxgCMCOQnrAX/?a=7073&bti=OTU0QDItLmA%3D&ch=0&cr=0&dr=4&er=0&lr=unwatermarked&cd=0%7C0%7C0%7C0&br=312&bt=156&ds=5&ft=.cwOVInz7Th9VGvOXq8Zmo&qs=13&rc=anY6NHg5cmlzdjUzNzhoM0BpanY6NHg5cmlzdjUzNzhoM0BjYnMzMmRrL2pgLS1kLjZzYSNjYnMzMmRrL2pgLS1kLjZzcw%3D%3D&vvpl=1&l=02173103953905200000000000000000000ffff0a00a7d8bb39e0&btag=e00078000&format=mp3&mime_type=audio_mpeg",
        "source_timerange": {
            "start_offset": 6.207999999999998,
            "end_offset": 7.760000000000009
        },
        "target_timerange": {
            "start_offset": 83.729,
            "end_offset": 85.281
        },
        "ignore_audio": true,
        "audio_path": null
    },
    {
        "segment_id": "9bc163829d8811efa3727cd30a5182b8",
        "text": "his humble parsonage, where",
        "audio_url": "https://v16m-default.akamaized.net/9ff6fc2d95ebfdbfb1f5a501019ccd19/672de5b1/video/tos/maliva/tos-maliva-v-f15faa-us/ooPCCW9SeQXyxAefdqRJ28Ai8gQxgCMCOQnrAX/?a=7073&bti=OTU0QDItLmA%3D&ch=0&cr=0&dr=4&er=0&lr=unwatermarked&cd=0%7C0%7C0%7C0&br=312&bt=156&ds=5&ft=.cwOVInz7Th9VGvOXq8Zmo&qs=13&rc=anY6NHg5cmlzdjUzNzhoM0BpanY6NHg5cmlzdjUzNzhoM0BjYnMzMmRrL2pgLS1kLjZzYSNjYnMzMmRrL2pgLS1kLjZzcw%3D%3D&vvpl=1&l=02173103953905200000000000000000000ffff0a00a7d8bb39e0&btag=e00078000&format=mp3&mime_type=audio_mpeg",
        "source_timerange": {
            "start_offset": 7.760000000000005,
            "end_offset": 9.312000000000001
        },
        "target_timerange": {
            "start_offset": 85.281,
            "end_offset": 86.833
        },
        "ignore_audio": true,
        "audio_path": null
    },
    {
        "segment_id": "9bc164729d8811efa3727cd30a5182b8",
        "text": "she had perfectly approved",
        "audio_url": "https://v16m-default.akamaized.net/9ff6fc2d95ebfdbfb1f5a501019ccd19/672de5b1/video/tos/maliva/tos-maliva-v-f15faa-us/ooPCCW9SeQXyxAefdqRJ28Ai8gQxgCMCOQnrAX/?a=7073&bti=OTU0QDItLmA%3D&ch=0&cr=0&dr=4&er=0&lr=unwatermarked&cd=0%7C0%7C0%7C0&br=312&bt=156&ds=5&ft=.cwOVInz7Th9VGvOXq8Zmo&qs=13&rc=anY6NHg5cmlzdjUzNzhoM0BpanY6NHg5cmlzdjUzNzhoM0BjYnMzMmRrL2pgLS1kLjZzYSNjYnMzMmRrL2pgLS1kLjZzcw%3D%3D&vvpl=1&l=02173103953905200000000000000000000ffff0a00a7d8bb39e0&btag=e00078000&format=mp3&mime_type=audio_mpeg",
        "source_timerange": {
            "start_offset": 9.311999999999998,
            "end_offset": 10.863999999999994
        },
        "target_timerange": {
            "start_offset": 86.833,
            "end_offset": 88.38499999999999
        },
        "ignore_audio": true,
        "audio_path": null
    },
    {
        "segment_id": "9bc165589d8811efa3727cd30a5182b8",
        "text": "all the alterations he had",
        "audio_url": "https://v16m-default.akamaized.net/9ff6fc2d95ebfdbfb1f5a501019ccd19/672de5b1/video/tos/maliva/tos-maliva-v-f15faa-us/ooPCCW9SeQXyxAefdqRJ28Ai8gQxgCMCOQnrAX/?a=7073&bti=OTU0QDItLmA%3D&ch=0&cr=0&dr=4&er=0&lr=unwatermarked&cd=0%7C0%7C0%7C0&br=312&bt=156&ds=5&ft=.cwOVInz7Th9VGvOXq8Zmo&qs=13&rc=anY6NHg5cmlzdjUzNzhoM0BpanY6NHg5cmlzdjUzNzhoM0BjYnMzMmRrL2pgLS1kLjZzYSNjYnMzMmRrL2pgLS1kLjZzcw%3D%3D&vvpl=1&l=02173103953905200000000000000000000ffff0a00a7d8bb39e0&btag=e00078000&format=mp3&mime_type=audio_mpeg",
        "source_timerange": {
            "start_offset": 10.86399999999999,
            "end_offset": 12.416
        },
        "target_timerange": {
            "start_offset": 88.38499999999999,
            "end_offset": 89.937
        },
        "ignore_audio": true,
        "audio_path": null
    },
    {
        "segment_id": "9bc166349d8811efa3727cd30a5182b8",
        "text": "been making, and had even",
        "audio_url": "https://v16m-default.akamaized.net/9ff6fc2d95ebfdbfb1f5a501019ccd19/672de5b1/video/tos/maliva/tos-maliva-v-f15faa-us/ooPCCW9SeQXyxAefdqRJ28Ai8gQxgCMCOQnrAX/?a=7073&bti=OTU0QDItLmA%3D&ch=0&cr=0&dr=4&er=0&lr=unwatermarked&cd=0%7C0%7C0%7C0&br=312&bt=156&ds=5&ft=.cwOVInz7Th9VGvOXq8Zmo&qs=13&rc=anY6NHg5cmlzdjUzNzhoM0BpanY6NHg5cmlzdjUzNzhoM0BjYnMzMmRrL2pgLS1kLjZzYSNjYnMzMmRrL2pgLS1kLjZzcw%3D%3D&vvpl=1&l=02173103953905200000000000000000000ffff0a00a7d8bb39e0&btag=e00078000&format=mp3&mime_type=audio_mpeg",
        "source_timerange": {
            "start_offset": 12.415999999999997,
            "end_offset": 13.968000000000007
        },
        "target_timerange": {
            "start_offset": 89.937,
            "end_offset": 91.489
        },
        "ignore_audio": true,
        "audio_path": null
    },
    {
        "segment_id": "9bc1671a9d8811efa3727cd30a5182b8",
        "text": "vouchsafed to suggest some",
        "audio_url": "https://v16m-default.akamaized.net/9ff6fc2d95ebfdbfb1f5a501019ccd19/672de5b1/video/tos/maliva/tos-maliva-v-f15faa-us/ooPCCW9SeQXyxAefdqRJ28Ai8gQxgCMCOQnrAX/?a=7073&bti=OTU0QDItLmA%3D&ch=0&cr=0&dr=4&er=0&lr=unwatermarked&cd=0%7C0%7C0%7C0&br=312&bt=156&ds=5&ft=.cwOVInz7Th9VGvOXq8Zmo&qs=13&rc=anY6NHg5cmlzdjUzNzhoM0BpanY6NHg5cmlzdjUzNzhoM0BjYnMzMmRrL2pgLS1kLjZzYSNjYnMzMmRrL2pgLS1kLjZzcw%3D%3D&vvpl=1&l=02173103953905200000000000000000000ffff0a00a7d8bb39e0&btag=e00078000&format=mp3&mime_type=audio_mpeg",
        "source_timerange": {
            "start_offset": 13.968000000000004,
            "end_offset": 15.52
        },
        "target_timerange": {
            "start_offset": 91.489,
            "end_offset": 93.041
        },
        "ignore_audio": true,
        "audio_path": null
    },
    {
        "segment_id": "9bc168009d8811efa3727cd30a5182b8",
        "text": "herself,--some shelves in the",
        "audio_url": "https://v16m-default.akamaized.net/9ff6fc2d95ebfdbfb1f5a501019ccd19/672de5b1/video/tos/maliva/tos-maliva-v-f15faa-us/ooPCCW9SeQXyxAefdqRJ28Ai8gQxgCMCOQnrAX/?a=7073&bti=OTU0QDItLmA%3D&ch=0&cr=0&dr=4&er=0&lr=unwatermarked&cd=0%7C0%7C0%7C0&br=312&bt=156&ds=5&ft=.cwOVInz7Th9VGvOXq8Zmo&qs=13&rc=anY6NHg5cmlzdjUzNzhoM0BpanY6NHg5cmlzdjUzNzhoM0BjYnMzMmRrL2pgLS1kLjZzYSNjYnMzMmRrL2pgLS1kLjZzcw%3D%3D&vvpl=1&l=02173103953905200000000000000000000ffff0a00a7d8bb39e0&btag=e00078000&format=mp3&mime_type=audio_mpeg",
        "source_timerange": {
            "start_offset": 15.519999999999996,
            "end_offset": 17.071999999999992
        },
        "target_timerange": {
            "start_offset": 93.041,
            "end_offset": 94.59299999999999
        },
        "ignore_audio": true,
        "audio_path": null
    },
    {
        "segment_id": "9bc168f09d8811efa3727cd30a5182b8",
        "text": "closets upstairs.",
        "audio_url": "https://v16m-default.akamaized.net/9ff6fc2d95ebfdbfb1f5a501019ccd19/672de5b1/video/tos/maliva/tos-maliva-v-f15faa-us/ooPCCW9SeQXyxAefdqRJ28Ai8gQxgCMCOQnrAX/?a=7073&bti=OTU0QDItLmA%3D&ch=0&cr=0&dr=4&er=0&lr=unwatermarked&cd=0%7C0%7C0%7C0&br=312&bt=156&ds=5&ft=.cwOVInz7Th9VGvOXq8Zmo&qs=13&rc=anY6NHg5cmlzdjUzNzhoM0BpanY6NHg5cmlzdjUzNzhoM0BjYnMzMmRrL2pgLS1kLjZzYSNjYnMzMmRrL2pgLS1kLjZzcw%3D%3D&vvpl=1&l=02173103953905200000000000000000000ffff0a00a7d8bb39e0&btag=e00078000&format=mp3&mime_type=audio_mpeg",
        "source_timerange": {
            "start_offset": 17.07199999999999,
            "end_offset": 18.624
        },
        "target_timerange": {
            "start_offset": 94.59299999999999,
            "end_offset": 96.145
        },
        "ignore_audio": true,
        "audio_path": null
    },
    {
        "segment_id": "9bc180a69d8811efa3727cd30a5182b8",
        "text": "“That is all very proper",
        "audio_url": "https://v16m-default.akamaized.net/09848a5fa5957b5688f2aebe597937d2/672de5a4/video/tos/maliva/tos-maliva-v-f15faa-us/o0A0AeexGCAOLAeC9tIky0ETWCSEWT0gm6rwJX/?a=7073&bti=OTU0QDItLmA%3D&ch=0&cr=0&dr=4&er=0&lr=unwatermarked&cd=0%7C0%7C0%7C0&br=312&bt=156&ds=5&ft=.cwOVInz7ThuVGvOXq8Zmo&qs=13&rc=anh3dXM5cmlzdjUzNzhoM0Bpanh3dXM5cmlzdjUzNzhoM0A2aDBmMmRrL2pgLS1kLjZzYSM2aDBmMmRrL2pgLS1kLjZzcw%3D%3D&vvpl=1&l=02173103953905200000000000000000000ffff0a00a7d8bb39e0&btag=e00070000&format=mp3&mime_type=audio_mpeg",
        "source_timerange": {
            "start_offset": 0,
            "end_offset": 1.3727999999999936
        },
        "target_timerange": {
            "start_offset": 96.145,
            "end_offset": 97.5178
        },
        "ignore_audio": false,
        "audio_path": null
    },
    {
        "segment_id": "9bc181f09d8811efa3727cd30a5182b8",
        "text": "and civil, I am sure,”",
        "audio_url": "https://v16m-default.akamaized.net/09848a5fa5957b5688f2aebe597937d2/672de5a4/video/tos/maliva/tos-maliva-v-f15faa-us/o0A0AeexGCAOLAeC9tIky0ETWCSEWT0gm6rwJX/?a=7073&bti=OTU0QDItLmA%3D&ch=0&cr=0&dr=4&er=0&lr=unwatermarked&cd=0%7C0%7C0%7C0&br=312&bt=156&ds=5&ft=.cwOVInz7ThuVGvOXq8Zmo&qs=13&rc=anh3dXM5cmlzdjUzNzhoM0Bpanh3dXM5cmlzdjUzNzhoM0A2aDBmMmRrL2pgLS1kLjZzYSM2aDBmMmRrL2pgLS1kLjZzcw%3D%3D&vvpl=1&l=02173103953905200000000000000000000ffff0a00a7d8bb39e0&btag=e00070000&format=mp3&mime_type=audio_mpeg",
        "source_timerange": {
            "start_offset": 1.372799999999998,
            "end_offset": 2.7455999999999916
        },
        "target_timerange": {
            "start_offset": 97.5178,
            "end_offset": 98.89059999999999
        },
        "ignore_audio": true,
        "audio_path": null
    },
    {
        "segment_id": "9bc183309d8811efa3727cd30a5182b8",
        "text": "said Mrs. Bennet, “and I",
        "audio_url": "https://v16m-default.akamaized.net/09848a5fa5957b5688f2aebe597937d2/672de5a4/video/tos/maliva/tos-maliva-v-f15faa-us/o0A0AeexGCAOLAeC9tIky0ETWCSEWT0gm6rwJX/?a=7073&bti=OTU0QDItLmA%3D&ch=0&cr=0&dr=4&er=0&lr=unwatermarked&cd=0%7C0%7C0%7C0&br=312&bt=156&ds=5&ft=.cwOVInz7ThuVGvOXq8Zmo&qs=13&rc=anh3dXM5cmlzdjUzNzhoM0Bpanh3dXM5cmlzdjUzNzhoM0A2aDBmMmRrL2pgLS1kLjZzYSM2aDBmMmRrL2pgLS1kLjZzcw%3D%3D&vvpl=1&l=02173103953905200000000000000000000ffff0a00a7d8bb39e0&btag=e00070000&format=mp3&mime_type=audio_mpeg",
        "source_timerange": {
            "start_offset": 2.745599999999996,
            "end_offset": 4.118400000000004
        },
        "target_timerange": {
            "start_offset": 98.89059999999999,
            "end_offset": 100.2634
        },
        "ignore_audio": true,
        "audio_path": null
    },
    {
        "segment_id": "9bc1842a9d8811efa3727cd30a5182b8",
        "text": "dare say she is a very",
        "audio_url": "https://v16m-default.akamaized.net/09848a5fa5957b5688f2aebe597937d2/672de5a4/video/tos/maliva/tos-maliva-v-f15faa-us/o0A0AeexGCAOLAeC9tIky0ETWCSEWT0gm6rwJX/?a=7073&bti=OTU0QDItLmA%3D&ch=0&cr=0&dr=4&er=0&lr=unwatermarked&cd=0%7C0%7C0%7C0&br=312&bt=156&ds=5&ft=.cwOVInz7ThuVGvOXq8Zmo&qs=13&rc=anh3dXM5cmlzdjUzNzhoM0Bpanh3dXM5cmlzdjUzNzhoM0A2aDBmMmRrL2pgLS1kLjZzYSM2aDBmMmRrL2pgLS1kLjZzcw%3D%3D&vvpl=1&l=02173103953905200000000000000000000ffff0a00a7d8bb39e0&btag=e00070000&format=mp3&mime_type=audio_mpeg",
        "source_timerange": {
            "start_offset": 4.118400000000008,
            "end_offset": 5.491200000000002
        },
        "target_timerange": {
            "start_offset": 100.2634,
            "end_offset": 101.6362
        },
        "ignore_audio": true,
        "audio_path": null
    },
    {
        "segment_id": "9bc185b09d8811efa3727cd30a5182b8",
        "text": "agreeable woman.",
        "audio_url": "https://v16m-default.akamaized.net/09848a5fa5957b5688f2aebe597937d2/672de5a4/video/tos/maliva/tos-maliva-v-f15faa-us/o0A0AeexGCAOLAeC9tIky0ETWCSEWT0gm6rwJX/?a=7073&bti=OTU0QDItLmA%3D&ch=0&cr=0&dr=4&er=0&lr=unwatermarked&cd=0%7C0%7C0%7C0&br=312&bt=156&ds=5&ft=.cwOVInz7ThuVGvOXq8Zmo&qs=13&rc=anh3dXM5cmlzdjUzNzhoM0Bpanh3dXM5cmlzdjUzNzhoM0A2aDBmMmRrL2pgLS1kLjZzYSM2aDBmMmRrL2pgLS1kLjZzcw%3D%3D&vvpl=1&l=02173103953905200000000000000000000ffff0a00a7d8bb39e0&btag=e00070000&format=mp3&mime_type=audio_mpeg",
        "source_timerange": {
            "start_offset": 5.491200000000006,
            "end_offset": 6.864
        },
        "target_timerange": {
            "start_offset": 101.6362,
            "end_offset": 103.009
        },
        "ignore_audio": true,
        "audio_path": null
    },
    {
        "segment_id": "9bc1d98e9d8811efa3727cd30a5182b8",
        "text": "It is a pity that great ladies in",
        "audio_url": "https://v16m-default.akamaized.net/dbe4fc64e6ca9154a54c2d9bd9bb2d1b/672de5a1/video/tos/maliva/tos-maliva-v-f15faa-us/o4EiRhEzViTPQvSPCkA2cU43ARBcE0AZty4vA/?a=7073&bti=OTU0QDItLmA%3D&ch=0&cr=0&dr=4&er=0&lr=unwatermarked&cd=0%7C0%7C0%7C0&br=312&bt=156&ds=5&ft=.cwOVInz7ThuVGvOXq8Zmo&qs=13&rc=am5ta205cmlzdjUzNzhoM0Bpam5ta205cmlzdjUzNzhoM0BrYzBkMmRrL2pgLS1kLjZzYSNrYzBkMmRrL2pgLS1kLjZzcw%3D%3D&vvpl=1&l=02173103953905200000000000000000000ffff0a00a7d8bb39e0&btag=e00070000&format=mp3&mime_type=audio_mpeg",
        "source_timerange": {
            "start_offset": 0,
            "end_offset": 1.8360000000000016
        },
        "target_timerange": {
            "start_offset": 103.009,
            "end_offset": 104.845
        },
        "ignore_audio": false,
        "audio_path": null
    },
    {
        "segment_id": "9bc1db009d8811efa3727cd30a5182b8",
        "text": "general are not more like her.",
        "audio_url": "https://v16m-default.akamaized.net/dbe4fc64e6ca9154a54c2d9bd9bb2d1b/672de5a1/video/tos/maliva/tos-maliva-v-f15faa-us/o4EiRhEzViTPQvSPCkA2cU43ARBcE0AZty4vA/?a=7073&bti=OTU0QDItLmA%3D&ch=0&cr=0&dr=4&er=0&lr=unwatermarked&cd=0%7C0%7C0%7C0&br=312&bt=156&ds=5&ft=.cwOVInz7ThuVGvOXq8Zmo&qs=13&rc=am5ta205cmlzdjUzNzhoM0Bpam5ta205cmlzdjUzNzhoM0BrYzBkMmRrL2pgLS1kLjZzYSNrYzBkMmRrL2pgLS1kLjZzcw%3D%3D&vvpl=1&l=02173103953905200000000000000000000ffff0a00a7d8bb39e0&btag=e00070000&format=mp3&mime_type=audio_mpeg",
        "source_timerange": {
            "start_offset": 1.8359999999999985,
            "end_offset": 3.672
        },
        "target_timerange": {
            "start_offset": 104.845,
            "end_offset": 106.681
        },
        "ignore_audio": true,
        "audio_path": null
    },
    {
        "segment_id": "9bc1f5ea9d8811efa3727cd30a5182b8",
        "text": "Does she live near you,",
        "audio_url": "https://v16m-default.akamaized.net/35a886266f4a1fc82ebd228867a923c7/672de5a7/video/tos/maliva/tos-maliva-v-f15faa-us/oUAEgkBTEuvCSTWCxt6DfCZrJeXFAAygAYbOEf/?a=7073&bti=OTU0QDItLmA%3D&ch=0&cr=0&dr=4&er=0&lr=unwatermarked&cd=0%7C0%7C0%7C0&br=312&bt=156&ds=5&ft=.cwOVInz7Th9VGvOXq8Zmo&qs=13&rc=amszcXE5cmlzdjUzNzhoM0BpamszcXE5cmlzdjUzNzhoM0BgMHBvMmRrL2pgLS1kLjZzYSNgMHBvMmRrL2pgLS1kLjZzcw%3D%3D&vvpl=1&l=02173103953905200000000000000000000ffff0a00a7d8bb39e0&btag=e00070000&format=mp3&mime_type=audio_mpeg",
        "source_timerange": {
            "start_offset": 0,
            "end_offset": 1.3919999999999924
        },
        "target_timerange": {
            "start_offset": 106.681,
            "end_offset": 108.073
        },
        "ignore_audio": false,
        "audio_path": null
    },
    {
        "segment_id": "9bc1f72a9d8811efa3727cd30a5182b8",
        "text": "sir?”  “The garden in which",
        "audio_url": "https://v16m-default.akamaized.net/35a886266f4a1fc82ebd228867a923c7/672de5a7/video/tos/maliva/tos-maliva-v-f15faa-us/oUAEgkBTEuvCSTWCxt6DfCZrJeXFAAygAYbOEf/?a=7073&bti=OTU0QDItLmA%3D&ch=0&cr=0&dr=4&er=0&lr=unwatermarked&cd=0%7C0%7C0%7C0&br=312&bt=156&ds=5&ft=.cwOVInz7Th9VGvOXq8Zmo&qs=13&rc=amszcXE5cmlzdjUzNzhoM0BpamszcXE5cmlzdjUzNzhoM0BgMHBvMmRrL2pgLS1kLjZzYSNgMHBvMmRrL2pgLS1kLjZzcw%3D%3D&vvpl=1&l=02173103953905200000000000000000000ffff0a00a7d8bb39e0&btag=e00070000&format=mp3&mime_type=audio_mpeg",
        "source_timerange": {
            "start_offset": 1.391999999999996,
            "end_offset": 2.7840000000000025
        },
        "target_timerange": {
            "start_offset": 108.073,
            "end_offset": 109.465
        },
        "ignore_audio": true,
        "audio_path": null
    },
    {
        "segment_id": "9bc1f8249d8811efa3727cd30a5182b8",
        "text": "stands my humble abode is",
        "audio_url": "https://v16m-default.akamaized.net/35a886266f4a1fc82ebd228867a923c7/672de5a7/video/tos/maliva/tos-maliva-v-f15faa-us/oUAEgkBTEuvCSTWCxt6DfCZrJeXFAAygAYbOEf/?a=7073&bti=OTU0QDItLmA%3D&ch=0&cr=0&dr=4&er=0&lr=unwatermarked&cd=0%7C0%7C0%7C0&br=312&bt=156&ds=5&ft=.cwOVInz7Th9VGvOXq8Zmo&qs=13&rc=amszcXE5cmlzdjUzNzhoM0BpamszcXE5cmlzdjUzNzhoM0BgMHBvMmRrL2pgLS1kLjZzYSNgMHBvMmRrL2pgLS1kLjZzcw%3D%3D&vvpl=1&l=02173103953905200000000000000000000ffff0a00a7d8bb39e0&btag=e00070000&format=mp3&mime_type=audio_mpeg",
        "source_timerange": {
            "start_offset": 2.784000000000006,
            "end_offset": 4.175999999999998
        },
        "target_timerange": {
            "start_offset": 109.465,
            "end_offset": 110.857
        },
        "ignore_audio": true,
        "audio_path": null
    },
    {
        "segment_id": "9bc1f9149d8811efa3727cd30a5182b8",
        "text": "separated only by a lane",
        "audio_url": "https://v16m-default.akamaized.net/35a886266f4a1fc82ebd228867a923c7/672de5a7/video/tos/maliva/tos-maliva-v-f15faa-us/oUAEgkBTEuvCSTWCxt6DfCZrJeXFAAygAYbOEf/?a=7073&bti=OTU0QDItLmA%3D&ch=0&cr=0&dr=4&er=0&lr=unwatermarked&cd=0%7C0%7C0%7C0&br=312&bt=156&ds=5&ft=.cwOVInz7Th9VGvOXq8Zmo&qs=13&rc=amszcXE5cmlzdjUzNzhoM0BpamszcXE5cmlzdjUzNzhoM0BgMHBvMmRrL2pgLS1kLjZzYSNgMHBvMmRrL2pgLS1kLjZzcw%3D%3D&vvpl=1&l=02173103953905200000000000000000000ffff0a00a7d8bb39e0&btag=e00070000&format=mp3&mime_type=audio_mpeg",
        "source_timerange": {
            "start_offset": 4.176000000000002,
            "end_offset": 5.567999999999994
        },
        "target_timerange": {
            "start_offset": 110.857,
            "end_offset": 112.249
        },
        "ignore_audio": true,
        "audio_path": null
    },
    {
        "segment_id": "9bc1f9fa9d8811efa3727cd30a5182b8",
        "text": "from Rosings Park, her",
        "audio_url": "https://v16m-default.akamaized.net/35a886266f4a1fc82ebd228867a923c7/672de5a7/video/tos/maliva/tos-maliva-v-f15faa-us/oUAEgkBTEuvCSTWCxt6DfCZrJeXFAAygAYbOEf/?a=7073&bti=OTU0QDItLmA%3D&ch=0&cr=0&dr=4&er=0&lr=unwatermarked&cd=0%7C0%7C0%7C0&br=312&bt=156&ds=5&ft=.cwOVInz7Th9VGvOXq8Zmo&qs=13&rc=amszcXE5cmlzdjUzNzhoM0BpamszcXE5cmlzdjUzNzhoM0BgMHBvMmRrL2pgLS1kLjZzYSNgMHBvMmRrL2pgLS1kLjZzcw%3D%3D&vvpl=1&l=02173103953905200000000000000000000ffff0a00a7d8bb39e0&btag=e00070000&format=mp3&mime_type=audio_mpeg",
        "source_timerange": {
            "start_offset": 5.567999999999998,
            "end_offset": 6.960000000000004
        },
        "target_timerange": {
            "start_offset": 112.249,
            "end_offset": 113.641
        },
        "ignore_audio": true,
        "audio_path": null
    },
    {
        "segment_id": "9bc1fb769d8811efa3727cd30a5182b8",
        "text": "Ladyship’s residence.”",
        "audio_url": "https://v16m-default.akamaized.net/35a886266f4a1fc82ebd228867a923c7/672de5a7/video/tos/maliva/tos-maliva-v-f15faa-us/oUAEgkBTEuvCSTWCxt6DfCZrJeXFAAygAYbOEf/?a=7073&bti=OTU0QDItLmA%3D&ch=0&cr=0&dr=4&er=0&lr=unwatermarked&cd=0%7C0%7C0%7C0&br=312&bt=156&ds=5&ft=.cwOVInz7Th9VGvOXq8Zmo&qs=13&rc=amszcXE5cmlzdjUzNzhoM0BpamszcXE5cmlzdjUzNzhoM0BgMHBvMmRrL2pgLS1kLjZzYSNgMHBvMmRrL2pgLS1kLjZzcw%3D%3D&vvpl=1&l=02173103953905200000000000000000000ffff0a00a7d8bb39e0&btag=e00070000&format=mp3&mime_type=audio_mpeg",
        "source_timerange": {
            "start_offset": 6.960000000000008,
            "end_offset": 8.352
        },
        "target_timerange": {
            "start_offset": 113.641,
            "end_offset": 115.033
        },
        "ignore_audio": true,
        "audio_path": null
    },
    {
        "segment_id": "9bc201ca9d8811efa3727cd30a5182b8",
        "text": "“I think you said she was a widow, sir?",
        "audio_url": "https://v16m-default.akamaized.net/cd27170f5318159cf869c867c913c584/672de5a1/video/tos/maliva/tos-maliva-v-f15faa-us/owQbesgWfXI22JBlADrOhnCKIECSFCA8kyAIe7/?a=7073&bti=OTU0QDItLmA%3D&ch=0&cr=0&dr=4&er=0&lr=unwatermarked&cd=0%7C0%7C0%7C0&br=312&bt=156&ds=5&ft=.cwOVInz7Th9VGvOXq8Zmo&qs=13&rc=anA0N3c5cmlzdjUzNzhoM0BpanA0N3c5cmlzdjUzNzhoM0AvcDJtMmRrL2pgLS1kLjZzYSMvcDJtMmRrL2pgLS1kLjZzcw%3D%3D&vvpl=1&l=02173103953905200000000000000000000ffff0a00a7d8bb39e0&btag=e00070000&format=mp3&mime_type=audio_mpeg",
        "source_timerange": {
            "start_offset": 0,
            "end_offset": 2.136
        },
        "target_timerange": {
            "start_offset": 115.033,
            "end_offset": 117.169
        },
        "ignore_audio": false,
        "audio_path": null
    },
    {
        "segment_id": "9bc2137c9d8811efa3727cd30a5182b8",
        "text": "has she any family?”  “She",
        "audio_url": "https://v16m-default.akamaized.net/7c8b73bf652cf1c3998dc7debb0156d2/672de5a4/video/tos/maliva/tos-maliva-v-f15faa-us/ogBCJnDxFACeWIbVArfUXCsC43dIISAfgOy7mE/?a=7073&bti=OTU0QDItLmA%3D&ch=0&cr=0&dr=4&er=0&lr=unwatermarked&cd=0%7C0%7C0%7C0&br=312&bt=156&ds=5&ft=.cwOVInz7ThuVGvOXq8Zmo&qs=13&rc=MzR1OnU5cmlzdjUzNzhoM0BpMzR1OnU5cmlzdjUzNzhoM0AyYGFyMmRrL2pgLS1kLjZzYSMyYGFyMmRrL2pgLS1kLjZzcw%3D%3D&vvpl=1&l=02173103953905200000000000000000000ffff0a00a7d8bb39e0&btag=e00070000&format=mp3&mime_type=audio_mpeg",
        "source_timerange": {
            "start_offset": 0,
            "end_offset": 1.6859999999999928
        },
        "target_timerange": {
            "start_offset": 117.169,
            "end_offset": 118.85499999999999
        },
        "ignore_audio": false,
        "audio_path": null
    },
    {
        "segment_id": "9bc2149e9d8811efa3727cd30a5182b8",
        "text": "has one only daughter, the",
        "audio_url": "https://v16m-default.akamaized.net/7c8b73bf652cf1c3998dc7debb0156d2/672de5a4/video/tos/maliva/tos-maliva-v-f15faa-us/ogBCJnDxFACeWIbVArfUXCsC43dIISAfgOy7mE/?a=7073&bti=OTU0QDItLmA%3D&ch=0&cr=0&dr=4&er=0&lr=unwatermarked&cd=0%7C0%7C0%7C0&br=312&bt=156&ds=5&ft=.cwOVInz7ThuVGvOXq8Zmo&qs=13&rc=MzR1OnU5cmlzdjUzNzhoM0BpMzR1OnU5cmlzdjUzNzhoM0AyYGFyMmRrL2pgLS1kLjZzYSMyYGFyMmRrL2pgLS1kLjZzcw%3D%3D&vvpl=1&l=02173103953905200000000000000000000ffff0a00a7d8bb39e0&btag=e00070000&format=mp3&mime_type=audio_mpeg",
        "source_timerange": {
            "start_offset": 1.6859999999999928,
            "end_offset": 3.372
        },
        "target_timerange": {
            "start_offset": 118.85499999999999,
            "end_offset": 120.541
        },
        "ignore_audio": true,
        "audio_path": null
    },
    {
        "segment_id": "9bc215989d8811efa3727cd30a5182b8",
        "text": "heiress of Rosings, and of",
        "audio_url": "https://v16m-default.akamaized.net/7c8b73bf652cf1c3998dc7debb0156d2/672de5a4/video/tos/maliva/tos-maliva-v-f15faa-us/ogBCJnDxFACeWIbVArfUXCsC43dIISAfgOy7mE/?a=7073&bti=OTU0QDItLmA%3D&ch=0&cr=0&dr=4&er=0&lr=unwatermarked&cd=0%7C0%7C0%7C0&br=312&bt=156&ds=5&ft=.cwOVInz7ThuVGvOXq8Zmo&qs=13&rc=MzR1OnU5cmlzdjUzNzhoM0BpMzR1OnU5cmlzdjUzNzhoM0AyYGFyMmRrL2pgLS1kLjZzYSMyYGFyMmRrL2pgLS1kLjZzcw%3D%3D&vvpl=1&l=02173103953905200000000000000000000ffff0a00a7d8bb39e0&btag=e00070000&format=mp3&mime_type=audio_mpeg",
        "source_timerange": {
            "start_offset": 3.372,
            "end_offset": 5.058000000000007
        },
        "target_timerange": {
            "start_offset": 120.541,
            "end_offset": 122.227
        },
        "ignore_audio": true,
        "audio_path": null
    },
    {
        "segment_id": "9bc216929d8811efa3727cd30a5182b8",
        "text": "very extensive property.”",
        "audio_url": "https://v16m-default.akamaized.net/7c8b73bf652cf1c3998dc7debb0156d2/672de5a4/video/tos/maliva/tos-maliva-v-f15faa-us/ogBCJnDxFACeWIbVArfUXCsC43dIISAfgOy7mE/?a=7073&bti=OTU0QDItLmA%3D&ch=0&cr=0&dr=4&er=0&lr=unwatermarked&cd=0%7C0%7C0%7C0&br=312&bt=156&ds=5&ft=.cwOVInz7ThuVGvOXq8Zmo&qs=13&rc=MzR1OnU5cmlzdjUzNzhoM0BpMzR1OnU5cmlzdjUzNzhoM0AyYGFyMmRrL2pgLS1kLjZzYSMyYGFyMmRrL2pgLS1kLjZzcw%3D%3D&vvpl=1&l=02173103953905200000000000000000000ffff0a00a7d8bb39e0&btag=e00070000&format=mp3&mime_type=audio_mpeg",
        "source_timerange": {
            "start_offset": 5.058000000000007,
            "end_offset": 6.744
        },
        "target_timerange": {
            "start_offset": 122.227,
            "end_offset": 123.913
        },
        "ignore_audio": true,
        "audio_path": null
    },
    {
        "segment_id": "9bc2266e9d8811efa3727cd30a5182b8",
        "text": "“Ah,” cried Mrs. Bennet,",
        "audio_url": "https://v16m-default.akamaized.net/c98910365f762ca267edf2357f360a12/672de5a3/video/tos/maliva/tos-maliva-v-f15faa-us/oUuU2EA4vAkQlkwECZZAPVCS2AtRiiy5E9BTR/?a=7073&bti=OTU0QDItLmA%3D&ch=0&cr=0&dr=4&er=0&lr=unwatermarked&cd=0%7C0%7C0%7C0&br=312&bt=156&ds=5&ft=.cwOVInz7ThuVGvOXq8Zmo&qs=13&rc=ajd1NGo5cmlzdjUzNzhoM0Bpajd1NGo5cmlzdjUzNzhoM0BmbzMuMmRrL2pgLS1kLjZzYSNmbzMuMmRrL2pgLS1kLjZzcw%3D%3D&vvpl=1&l=02173103953905200000000000000000000ffff0a00a7d8bb39e0&btag=e00070000&format=mp3&mime_type=audio_mpeg",
        "source_timerange": {
            "start_offset": 0,
            "end_offset": 1.7039999999999988
        },
        "target_timerange": {
            "start_offset": 123.913,
            "end_offset": 125.617
        },
        "ignore_audio": false,
        "audio_path": null
    },
    {
        "segment_id": "9bc227a49d8811efa3727cd30a5182b8",
        "text": "shaking her head, “then she is",
        "audio_url": "https://v16m-default.akamaized.net/c98910365f762ca267edf2357f360a12/672de5a3/video/tos/maliva/tos-maliva-v-f15faa-us/oUuU2EA4vAkQlkwECZZAPVCS2AtRiiy5E9BTR/?a=7073&bti=OTU0QDItLmA%3D&ch=0&cr=0&dr=4&er=0&lr=unwatermarked&cd=0%7C0%7C0%7C0&br=312&bt=156&ds=5&ft=.cwOVInz7ThuVGvOXq8Zmo&qs=13&rc=ajd1NGo5cmlzdjUzNzhoM0Bpajd1NGo5cmlzdjUzNzhoM0BmbzMuMmRrL2pgLS1kLjZzYSNmbzMuMmRrL2pgLS1kLjZzcw%3D%3D&vvpl=1&l=02173103953905200000000000000000000ffff0a00a7d8bb39e0&btag=e00070000&format=mp3&mime_type=audio_mpeg",
        "source_timerange": {
            "start_offset": 1.7040000000000077,
            "end_offset": 3.4079999999999924
        },
        "target_timerange": {
            "start_offset": 125.617,
            "end_offset": 127.321
        },
        "ignore_audio": true,
        "audio_path": null
    },
    {
        "segment_id": "9bc228a89d8811efa3727cd30a5182b8",
        "text": "better off than many girls.",
        "audio_url": "https://v16m-default.akamaized.net/c98910365f762ca267edf2357f360a12/672de5a3/video/tos/maliva/tos-maliva-v-f15faa-us/oUuU2EA4vAkQlkwECZZAPVCS2AtRiiy5E9BTR/?a=7073&bti=OTU0QDItLmA%3D&ch=0&cr=0&dr=4&er=0&lr=unwatermarked&cd=0%7C0%7C0%7C0&br=312&bt=156&ds=5&ft=.cwOVInz7ThuVGvOXq8Zmo&qs=13&rc=ajd1NGo5cmlzdjUzNzhoM0Bpajd1NGo5cmlzdjUzNzhoM0BmbzMuMmRrL2pgLS1kLjZzYSNmbzMuMmRrL2pgLS1kLjZzcw%3D%3D&vvpl=1&l=02173103953905200000000000000000000ffff0a00a7d8bb39e0&btag=e00070000&format=mp3&mime_type=audio_mpeg",
        "source_timerange": {
            "start_offset": 3.4080000000000013,
            "end_offset": 5.112
        },
        "target_timerange": {
            "start_offset": 127.321,
            "end_offset": 129.025
        },
        "ignore_audio": true,
        "audio_path": null
    },
    {
        "segment_id": "9bc22fce9d8811efa3727cd30a5182b8",
        "text": "And what sort of young lady is she?",
        "audio_url": "https://v16m-default.akamaized.net/f779be100616b2bf5c8480f8136bc98c/672de5a0/video/tos/maliva/tos-maliva-v-f15faa-us/oEtAMPCLiQRA2J0yBU4oZzkiEAl4TDr6vSEAV/?a=7073&bti=OTU0QDItLmA%3D&ch=0&cr=0&dr=4&er=0&lr=unwatermarked&cd=0%7C0%7C0%7C0&br=312&bt=156&ds=5&ft=.cwOVInz7ThuVGvOXq8Zmo&qs=13&rc=M207bG45cmlzdjUzNzhoM0BpM207bG45cmlzdjUzNzhoM0Aza2NpMmRrL2pgLS1kLjZzYSMza2NpMmRrL2pgLS1kLjZzcw%3D%3D&vvpl=1&l=02173103953905200000000000000000000ffff0a00a7d8bb39e0&btag=e00070000&format=mp3&mime_type=audio_mpeg",
        "source_timerange": {
            "start_offset": 0,
            "end_offset": 2.16
        },
        "target_timerange": {
            "start_offset": 129.025,
            "end_offset": 131.185
        },
        "ignore_audio": false,
        "audio_path": null
    },
    {
        "segment_id": "9bc23a969d8811efa3727cd30a5182b8",
        "text": "Is she handsome?”  “She is a most",
        "audio_url": "https://v16m-default.akamaized.net/c7901b7885a2829f78c0552aef486cc2/672de5a1/video/tos/maliva/tos-maliva-v-f15faa-us/ooyCSWAAQFSJXCSAdOeerUgAJEE7fC7DEtkT7r/?a=7073&bti=OTU0QDItLmA%3D&ch=0&cr=0&dr=4&er=0&lr=unwatermarked&cd=0%7C0%7C0%7C0&br=312&bt=156&ds=5&ft=.cwOVInz7ThuVGvOXq8Zmo&qs=13&rc=anVvN3g5cmlzdjUzNzhoM0BpanVvN3g5cmlzdjUzNzhoM0AxMmc1MmRrL2pgLS1kLjZzYSMxMmc1MmRrL2pgLS1kLjZzcw%3D%3D&vvpl=1&l=02173103953905200000000000000000000ffff0a00a7d8bb39e0&btag=e00070000&format=mp3&mime_type=audio_mpeg",
        "source_timerange": {
            "start_offset": 0,
            "end_offset": 1.860000000000015
        },
        "target_timerange": {
            "start_offset": 131.185,
            "end_offset": 133.04500000000002
        },
        "ignore_audio": false,
        "audio_path": null
    },
    {
        "segment_id": "9bc23bc29d8811efa3727cd30a5182b8",
        "text": "charming young lady, indeed.",
        "audio_url": "https://v16m-default.akamaized.net/c7901b7885a2829f78c0552aef486cc2/672de5a1/video/tos/maliva/tos-maliva-v-f15faa-us/ooyCSWAAQFSJXCSAdOeerUgAJEE7fC7DEtkT7r/?a=7073&bti=OTU0QDItLmA%3D&ch=0&cr=0&dr=4&er=0&lr=unwatermarked&cd=0%7C0%7C0%7C0&br=312&bt=156&ds=5&ft=.cwOVInz7ThuVGvOXq8Zmo&qs=13&rc=anVvN3g5cmlzdjUzNzhoM0BpanVvN3g5cmlzdjUzNzhoM0AxMmc1MmRrL2pgLS1kLjZzYSMxMmc1MmRrL2pgLS1kLjZzcw%3D%3D&vvpl=1&l=02173103953905200000000000000000000ffff0a00a7d8bb39e0&btag=e00070000&format=mp3&mime_type=audio_mpeg",
        "source_timerange": {
            "start_offset": 1.8600000000000136,
            "end_offset": 3.72
        },
        "target_timerange": {
            "start_offset": 133.04500000000002,
            "end_offset": 134.905
        },
        "ignore_audio": true,
        "audio_path": null
    },
    {
        "segment_id": "9bc25f4e9d8811efa3727cd30a5182b8",
        "text": "Lady Catherine herself says",
        "audio_url": "https://v16m-default.akamaized.net/c79d1fe710c46ccc94bec76ddee89d5e/672de5a9/video/tos/maliva/tos-maliva-v-f15faa-us/ogtVEU4yPAMQCR7ikkDZLSCHATqAB2i5vAE5A/?a=7073&bti=OTU0QDItLmA%3D&ch=0&cr=0&dr=4&er=0&lr=unwatermarked&cd=0%7C0%7C0%7C0&br=312&bt=156&ds=5&ft=.cwOVInz7ThuVGvOXq8Zmo&qs=13&rc=anVqPHM5cmlzdjUzNzhoM0BpanVqPHM5cmlzdjUzNzhoM0AyNC4uMmRrL2pgLS1kLjZzYSMyNC4uMmRrL2pgLS1kLjZzcw%3D%3D&vvpl=1&l=02173103953905200000000000000000000ffff0a00a7d8bb39e0&btag=e00070000&format=mp3&mime_type=audio_mpeg",
        "source_timerange": {
            "start_offset": 0,
            "end_offset": 1.4849999999999905
        },
        "target_timerange": {
            "start_offset": 134.905,
            "end_offset": 136.39
        },
        "ignore_audio": false,
        "audio_path": null
    },
    {
        "segment_id": "9bc260a29d8811efa3727cd30a5182b8",
        "text": "that, in point of true",
        "audio_url": "https://v16m-default.akamaized.net/c79d1fe710c46ccc94bec76ddee89d5e/672de5a9/video/tos/maliva/tos-maliva-v-f15faa-us/ogtVEU4yPAMQCR7ikkDZLSCHATqAB2i5vAE5A/?a=7073&bti=OTU0QDItLmA%3D&ch=0&cr=0&dr=4&er=0&lr=unwatermarked&cd=0%7C0%7C0%7C0&br=312&bt=156&ds=5&ft=.cwOVInz7ThuVGvOXq8Zmo&qs=13&rc=anVqPHM5cmlzdjUzNzhoM0BpanVqPHM5cmlzdjUzNzhoM0AyNC4uMmRrL2pgLS1kLjZzYSMyNC4uMmRrL2pgLS1kLjZzcw%3D%3D&vvpl=1&l=02173103953905200000000000000000000ffff0a00a7d8bb39e0&btag=e00070000&format=mp3&mime_type=audio_mpeg",
        "source_timerange": {
            "start_offset": 1.4849999999999852,
            "end_offset": 2.970000000000004
        },
        "target_timerange": {
            "start_offset": 136.39,
            "end_offset": 137.875
        },
        "ignore_audio": true,
        "audio_path": null
    },
    {
        "segment_id": "9bc261a69d8811efa3727cd30a5182b8",
        "text": "beauty, Miss de Bourgh is",
        "audio_url": "https://v16m-default.akamaized.net/c79d1fe710c46ccc94bec76ddee89d5e/672de5a9/video/tos/maliva/tos-maliva-v-f15faa-us/ogtVEU4yPAMQCR7ikkDZLSCHATqAB2i5vAE5A/?a=7073&bti=OTU0QDItLmA%3D&ch=0&cr=0&dr=4&er=0&lr=unwatermarked&cd=0%7C0%7C0%7C0&br=312&bt=156&ds=5&ft=.cwOVInz7ThuVGvOXq8Zmo&qs=13&rc=anVqPHM5cmlzdjUzNzhoM0BpanVqPHM5cmlzdjUzNzhoM0AyNC4uMmRrL2pgLS1kLjZzYSMyNC4uMmRrL2pgLS1kLjZzcw%3D%3D&vvpl=1&l=02173103953905200000000000000000000ffff0a00a7d8bb39e0&btag=e00070000&format=mp3&mime_type=audio_mpeg",
        "source_timerange": {
            "start_offset": 2.969999999999999,
            "end_offset": 4.455000000000018
        },
        "target_timerange": {
            "start_offset": 137.875,
            "end_offset": 139.36
        },
        "ignore_audio": true,
        "audio_path": null
    },
    {
        "segment_id": "9bc262969d8811efa3727cd30a5182b8",
        "text": "far superior to the",
        "audio_url": "https://v16m-default.akamaized.net/c79d1fe710c46ccc94bec76ddee89d5e/672de5a9/video/tos/maliva/tos-maliva-v-f15faa-us/ogtVEU4yPAMQCR7ikkDZLSCHATqAB2i5vAE5A/?a=7073&bti=OTU0QDItLmA%3D&ch=0&cr=0&dr=4&er=0&lr=unwatermarked&cd=0%7C0%7C0%7C0&br=312&bt=156&ds=5&ft=.cwOVInz7ThuVGvOXq8Zmo&qs=13&rc=anVqPHM5cmlzdjUzNzhoM0BpanVqPHM5cmlzdjUzNzhoM0AyNC4uMmRrL2pgLS1kLjZzYSMyNC4uMmRrL2pgLS1kLjZzcw%3D%3D&vvpl=1&l=02173103953905200000000000000000000ffff0a00a7d8bb39e0&btag=e00070000&format=mp3&mime_type=audio_mpeg",
        "source_timerange": {
            "start_offset": 4.4550000000000125,
            "end_offset": 5.940000000000003
        },
        "target_timerange": {
            "start_offset": 139.36,
            "end_offset": 140.845
        },
        "ignore_audio": true,
        "audio_path": null
    },
    {
        "segment_id": "9bc263869d8811efa3727cd30a5182b8",
        "text": "handsomest of her sex;",
        "audio_url": "https://v16m-default.akamaized.net/c79d1fe710c46ccc94bec76ddee89d5e/672de5a9/video/tos/maliva/tos-maliva-v-f15faa-us/ogtVEU4yPAMQCR7ikkDZLSCHATqAB2i5vAE5A/?a=7073&bti=OTU0QDItLmA%3D&ch=0&cr=0&dr=4&er=0&lr=unwatermarked&cd=0%7C0%7C0%7C0&br=312&bt=156&ds=5&ft=.cwOVInz7ThuVGvOXq8Zmo&qs=13&rc=anVqPHM5cmlzdjUzNzhoM0BpanVqPHM5cmlzdjUzNzhoM0AyNC4uMmRrL2pgLS1kLjZzYSMyNC4uMmRrL2pgLS1kLjZzcw%3D%3D&vvpl=1&l=02173103953905200000000000000000000ffff0a00a7d8bb39e0&btag=e00070000&format=mp3&mime_type=audio_mpeg",
        "source_timerange": {
            "start_offset": 5.939999999999998,
            "end_offset": 7.424999999999988
        },
        "target_timerange": {
            "start_offset": 140.845,
            "end_offset": 142.32999999999998
        },
        "ignore_audio": true,
        "audio_path": null
    },
    {
        "segment_id": "9bc264769d8811efa3727cd30a5182b8",
        "text": "because there is that in her",
        "audio_url": "https://v16m-default.akamaized.net/c79d1fe710c46ccc94bec76ddee89d5e/672de5a9/video/tos/maliva/tos-maliva-v-f15faa-us/ogtVEU4yPAMQCR7ikkDZLSCHATqAB2i5vAE5A/?a=7073&bti=OTU0QDItLmA%3D&ch=0&cr=0&dr=4&er=0&lr=unwatermarked&cd=0%7C0%7C0%7C0&br=312&bt=156&ds=5&ft=.cwOVInz7ThuVGvOXq8Zmo&qs=13&rc=anVqPHM5cmlzdjUzNzhoM0BpanVqPHM5cmlzdjUzNzhoM0AyNC4uMmRrL2pgLS1kLjZzYSMyNC4uMmRrL2pgLS1kLjZzcw%3D%3D&vvpl=1&l=02173103953905200000000000000000000ffff0a00a7d8bb39e0&btag=e00070000&format=mp3&mime_type=audio_mpeg",
        "source_timerange": {
            "start_offset": 7.424999999999983,
            "end_offset": 8.910000000000002
        },
        "target_timerange": {
            "start_offset": 142.32999999999998,
            "end_offset": 143.815
        },
        "ignore_audio": true,
        "audio_path": null
    },
    {
        "segment_id": "9bc2655c9d8811efa3727cd30a5182b8",
        "text": "features which marks the",
        "audio_url": "https://v16m-default.akamaized.net/c79d1fe710c46ccc94bec76ddee89d5e/672de5a9/video/tos/maliva/tos-maliva-v-f15faa-us/ogtVEU4yPAMQCR7ikkDZLSCHATqAB2i5vAE5A/?a=7073&bti=OTU0QDItLmA%3D&ch=0&cr=0&dr=4&er=0&lr=unwatermarked&cd=0%7C0%7C0%7C0&br=312&bt=156&ds=5&ft=.cwOVInz7ThuVGvOXq8Zmo&qs=13&rc=anVqPHM5cmlzdjUzNzhoM0BpanVqPHM5cmlzdjUzNzhoM0AyNC4uMmRrL2pgLS1kLjZzYSMyNC4uMmRrL2pgLS1kLjZzcw%3D%3D&vvpl=1&l=02173103953905200000000000000000000ffff0a00a7d8bb39e0&btag=e00070000&format=mp3&mime_type=audio_mpeg",
        "source_timerange": {
            "start_offset": 8.909999999999997,
            "end_offset": 10.395000000000016
        },
        "target_timerange": {
            "start_offset": 143.815,
            "end_offset": 145.3
        },
        "ignore_audio": true,
        "audio_path": null
    },
    {
        "segment_id": "9bc2664c9d8811efa3727cd30a5182b8",
        "text": "young woman of distinguished birth.",
        "audio_url": "https://v16m-default.akamaized.net/c79d1fe710c46ccc94bec76ddee89d5e/672de5a9/video/tos/maliva/tos-maliva-v-f15faa-us/ogtVEU4yPAMQCR7ikkDZLSCHATqAB2i5vAE5A/?a=7073&bti=OTU0QDItLmA%3D&ch=0&cr=0&dr=4&er=0&lr=unwatermarked&cd=0%7C0%7C0%7C0&br=312&bt=156&ds=5&ft=.cwOVInz7ThuVGvOXq8Zmo&qs=13&rc=anVqPHM5cmlzdjUzNzhoM0BpanVqPHM5cmlzdjUzNzhoM0AyNC4uMmRrL2pgLS1kLjZzYSMyNC4uMmRrL2pgLS1kLjZzcw%3D%3D&vvpl=1&l=02173103953905200000000000000000000ffff0a00a7d8bb39e0&btag=e00070000&format=mp3&mime_type=audio_mpeg",
        "source_timerange": {
            "start_offset": 10.39500000000001,
            "end_offset": 11.88
        },
        "target_timerange": {
            "start_offset": 145.3,
            "end_offset": 146.785
        },
        "ignore_audio": true,
        "audio_path": null
    },
    {
        "segment_id": "9bc28a3c9d8811efa3727cd30a5182b8",
        "text": "She is unfortunately of a",
        "audio_url": "https://v16m-default.akamaized.net/bff566fac3a2a17575d111bbac05ca55/672de5ab/video/tos/maliva/tos-maliva-v-f15faa-us/o4CwEiRIOyU14kBQRS5Zt1VAA1a2APuzAEivT/?a=7073&bti=OTU0QDItLmA%3D&ch=0&cr=0&dr=4&er=0&lr=unwatermarked&cd=0%7C0%7C0%7C0&br=312&bt=156&ds=5&ft=.cwOVInz7ThuVGvOXq8Zmo&qs=13&rc=M21ubmo5cmlzdjUzNzhoM0BpM21ubmo5cmlzdjUzNzhoM0BrcWJuMmRrL2pgLS1kLjZzYSNrcWJuMmRrL2pgLS1kLjZzcw%3D%3D&vvpl=1&l=02173103953905200000000000000000000ffff0a00a7d8bb39e0&btag=e00070000&format=mp3&mime_type=audio_mpeg",
        "source_timerange": {
            "start_offset": 0,
            "end_offset": 1.5306666666666509
        },
        "target_timerange": {
            "start_offset": 146.785,
            "end_offset": 148.31566666666666
        },
        "ignore_audio": false,
        "audio_path": null
    },
    {
        "segment_id": "9bc28b689d8811efa3727cd30a5182b8",
        "text": "sickly constitution, which has",
        "audio_url": "https://v16m-default.akamaized.net/bff566fac3a2a17575d111bbac05ca55/672de5ab/video/tos/maliva/tos-maliva-v-f15faa-us/o4CwEiRIOyU14kBQRS5Zt1VAA1a2APuzAEivT/?a=7073&bti=OTU0QDItLmA%3D&ch=0&cr=0&dr=4&er=0&lr=unwatermarked&cd=0%7C0%7C0%7C0&br=312&bt=156&ds=5&ft=.cwOVInz7ThuVGvOXq8Zmo&qs=13&rc=M21ubmo5cmlzdjUzNzhoM0BpM21ubmo5cmlzdjUzNzhoM0BrcWJuMmRrL2pgLS1kLjZzYSNrcWJuMmRrL2pgLS1kLjZzcw%3D%3D&vvpl=1&l=02173103953905200000000000000000000ffff0a00a7d8bb39e0&btag=e00070000&format=mp3&mime_type=audio_mpeg",
        "source_timerange": {
            "start_offset": 1.5306666666666615,
            "end_offset": 3.061333333333341
        },
        "target_timerange": {
            "start_offset": 148.31566666666666,
            "end_offset": 149.84633333333335
        },
        "ignore_audio": true,
        "audio_path": null
    },
    {
        "segment_id": "9bc28c589d8811efa3727cd30a5182b8",
        "text": "prevented her making that",
        "audio_url": "https://v16m-default.akamaized.net/bff566fac3a2a17575d111bbac05ca55/672de5ab/video/tos/maliva/tos-maliva-v-f15faa-us/o4CwEiRIOyU14kBQRS5Zt1VAA1a2APuzAEivT/?a=7073&bti=OTU0QDItLmA%3D&ch=0&cr=0&dr=4&er=0&lr=unwatermarked&cd=0%7C0%7C0%7C0&br=312&bt=156&ds=5&ft=.cwOVInz7ThuVGvOXq8Zmo&qs=13&rc=M21ubmo5cmlzdjUzNzhoM0BpM21ubmo5cmlzdjUzNzhoM0BrcWJuMmRrL2pgLS1kLjZzYSNrcWJuMmRrL2pgLS1kLjZzcw%3D%3D&vvpl=1&l=02173103953905200000000000000000000ffff0a00a7d8bb39e0&btag=e00070000&format=mp3&mime_type=audio_mpeg",
        "source_timerange": {
            "start_offset": 3.061333333333323,
            "end_offset": 4.592000000000002
        },
        "target_timerange": {
            "start_offset": 149.84633333333332,
            "end_offset": 151.377
        },
        "ignore_audio": true,
        "audio_path": null
    },
    {
        "segment_id": "9bc28d489d8811efa3727cd30a5182b8",
        "text": "progress in many",
        "audio_url": "https://v16m-default.akamaized.net/bff566fac3a2a17575d111bbac05ca55/672de5ab/video/tos/maliva/tos-maliva-v-f15faa-us/o4CwEiRIOyU14kBQRS5Zt1VAA1a2APuzAEivT/?a=7073&bti=OTU0QDItLmA%3D&ch=0&cr=0&dr=4&er=0&lr=unwatermarked&cd=0%7C0%7C0%7C0&br=312&bt=156&ds=5&ft=.cwOVInz7ThuVGvOXq8Zmo&qs=13&rc=M21ubmo5cmlzdjUzNzhoM0BpM21ubmo5cmlzdjUzNzhoM0BrcWJuMmRrL2pgLS1kLjZzYSNrcWJuMmRrL2pgLS1kLjZzcw%3D%3D&vvpl=1&l=02173103953905200000000000000000000ffff0a00a7d8bb39e0&btag=e00070000&format=mp3&mime_type=audio_mpeg",
        "source_timerange": {
            "start_offset": 4.592000000000013,
            "end_offset": 6.122666666666664
        },
        "target_timerange": {
            "start_offset": 151.377,
            "end_offset": 152.90766666666667
        },
        "ignore_audio": true,
        "audio_path": null
    },
    {
        "segment_id": "9bc28e4c9d8811efa3727cd30a5182b8",
        "text": "accomplishments which she could",
        "audio_url": "https://v16m-default.akamaized.net/bff566fac3a2a17575d111bbac05ca55/672de5ab/video/tos/maliva/tos-maliva-v-f15faa-us/o4CwEiRIOyU14kBQRS5Zt1VAA1a2APuzAEivT/?a=7073&bti=OTU0QDItLmA%3D&ch=0&cr=0&dr=4&er=0&lr=unwatermarked&cd=0%7C0%7C0%7C0&br=312&bt=156&ds=5&ft=.cwOVInz7ThuVGvOXq8Zmo&qs=13&rc=M21ubmo5cmlzdjUzNzhoM0BpM21ubmo5cmlzdjUzNzhoM0BrcWJuMmRrL2pgLS1kLjZzYSNrcWJuMmRrL2pgLS1kLjZzcw%3D%3D&vvpl=1&l=02173103953905200000000000000000000ffff0a00a7d8bb39e0&btag=e00070000&format=mp3&mime_type=audio_mpeg",
        "source_timerange": {
            "start_offset": 6.1226666666666745,
            "end_offset": 7.653333333333325
        },
        "target_timerange": {
            "start_offset": 152.90766666666667,
            "end_offset": 154.43833333333333
        },
        "ignore_audio": true,
        "audio_path": null
    },
    {
        "segment_id": "9bc28f3c9d8811efa3727cd30a5182b8",
        "text": "not otherwise have failed of,",
        "audio_url": "https://v16m-default.akamaized.net/bff566fac3a2a17575d111bbac05ca55/672de5ab/video/tos/maliva/tos-maliva-v-f15faa-us/o4CwEiRIOyU14kBQRS5Zt1VAA1a2APuzAEivT/?a=7073&bti=OTU0QDItLmA%3D&ch=0&cr=0&dr=4&er=0&lr=unwatermarked&cd=0%7C0%7C0%7C0&br=312&bt=156&ds=5&ft=.cwOVInz7ThuVGvOXq8Zmo&qs=13&rc=M21ubmo5cmlzdjUzNzhoM0BpM21ubmo5cmlzdjUzNzhoM0BrcWJuMmRrL2pgLS1kLjZzYSNrcWJuMmRrL2pgLS1kLjZzcw%3D%3D&vvpl=1&l=02173103953905200000000000000000000ffff0a00a7d8bb39e0&btag=e00070000&format=mp3&mime_type=audio_mpeg",
        "source_timerange": {
            "start_offset": 7.653333333333336,
            "end_offset": 9.183999999999987
        },
        "target_timerange": {
            "start_offset": 154.43833333333333,
            "end_offset": 155.969
        },
        "ignore_audio": true,
        "audio_path": null
    },
    {
        "segment_id": "9bc290229d8811efa3727cd30a5182b8",
        "text": "as I am informed by the lady",
        "audio_url": "https://v16m-default.akamaized.net/bff566fac3a2a17575d111bbac05ca55/672de5ab/video/tos/maliva/tos-maliva-v-f15faa-us/o4CwEiRIOyU14kBQRS5Zt1VAA1a2APuzAEivT/?a=7073&bti=OTU0QDItLmA%3D&ch=0&cr=0&dr=4&er=0&lr=unwatermarked&cd=0%7C0%7C0%7C0&br=312&bt=156&ds=5&ft=.cwOVInz7ThuVGvOXq8Zmo&qs=13&rc=M21ubmo5cmlzdjUzNzhoM0BpM21ubmo5cmlzdjUzNzhoM0BrcWJuMmRrL2pgLS1kLjZzYSNrcWJuMmRrL2pgLS1kLjZzcw%3D%3D&vvpl=1&l=02173103953905200000000000000000000ffff0a00a7d8bb39e0&btag=e00070000&format=mp3&mime_type=audio_mpeg",
        "source_timerange": {
            "start_offset": 9.183999999999997,
            "end_offset": 10.714666666666677
        },
        "target_timerange": {
            "start_offset": 155.969,
            "end_offset": 157.49966666666668
        },
        "ignore_audio": true,
        "audio_path": null
    },
    {
        "segment_id": "9bc291089d8811efa3727cd30a5182b8",
        "text": "who superintended her",
        "audio_url": "https://v16m-default.akamaized.net/bff566fac3a2a17575d111bbac05ca55/672de5ab/video/tos/maliva/tos-maliva-v-f15faa-us/o4CwEiRIOyU14kBQRS5Zt1VAA1a2APuzAEivT/?a=7073&bti=OTU0QDItLmA%3D&ch=0&cr=0&dr=4&er=0&lr=unwatermarked&cd=0%7C0%7C0%7C0&br=312&bt=156&ds=5&ft=.cwOVInz7ThuVGvOXq8Zmo&qs=13&rc=M21ubmo5cmlzdjUzNzhoM0BpM21ubmo5cmlzdjUzNzhoM0BrcWJuMmRrL2pgLS1kLjZzYSNrcWJuMmRrL2pgLS1kLjZzcw%3D%3D&vvpl=1&l=02173103953905200000000000000000000ffff0a00a7d8bb39e0&btag=e00070000&format=mp3&mime_type=audio_mpeg",
        "source_timerange": {
            "start_offset": 10.714666666666659,
            "end_offset": 12.245333333333338
        },
        "target_timerange": {
            "start_offset": 157.49966666666666,
            "end_offset": 159.03033333333335
        },
        "ignore_audio": true,
        "audio_path": null
    },
    {
        "segment_id": "9bc291ee9d8811efa3727cd30a5182b8",
        "text": "education, and who still resides with them.",
        "audio_url": "https://v16m-default.akamaized.net/bff566fac3a2a17575d111bbac05ca55/672de5ab/video/tos/maliva/tos-maliva-v-f15faa-us/o4CwEiRIOyU14kBQRS5Zt1VAA1a2APuzAEivT/?a=7073&bti=OTU0QDItLmA%3D&ch=0&cr=0&dr=4&er=0&lr=unwatermarked&cd=0%7C0%7C0%7C0&br=312&bt=156&ds=5&ft=.cwOVInz7ThuVGvOXq8Zmo&qs=13&rc=M21ubmo5cmlzdjUzNzhoM0BpM21ubmo5cmlzdjUzNzhoM0BrcWJuMmRrL2pgLS1kLjZzYSNrcWJuMmRrL2pgLS1kLjZzcw%3D%3D&vvpl=1&l=02173103953905200000000000000000000ffff0a00a7d8bb39e0&btag=e00070000&format=mp3&mime_type=audio_mpeg",
        "source_timerange": {
            "start_offset": 12.245333333333349,
            "end_offset": 13.776
        },
        "target_timerange": {
            "start_offset": 159.03033333333335,
            "end_offset": 160.561
        },
        "ignore_audio": true,
        "audio_path": null
    },
    {
        "segment_id": "9bc2a76a9d8811efa3727cd30a5182b8",
        "text": "But she is perfectly amiable,",
        "audio_url": "https://v16m-default.akamaized.net/559fce7ac6736f1a6a0d45d65af5214f/672de5a7/video/tos/maliva/tos-maliva-v-f15faa-us/o4CQfeIgSpXFgEyIB3rH8WfTAJDPCCAIpAnO3b/?a=7073&bti=OTU0QDItLmA%3D&ch=0&cr=0&dr=4&er=0&lr=unwatermarked&cd=0%7C0%7C0%7C0&br=312&bt=156&ds=5&ft=.cwOVInz7Th9VGvOXq8Zmo&qs=13&rc=MzY0dHg5cmlzdjUzNzhoM0BpMzY0dHg5cmlzdjUzNzhoM0BsNmFhMmRrL2pgLS1kLjZzYSNsNmFhMmRrL2pgLS1kLjZzcw%3D%3D&vvpl=1&l=02173103953905200000000000000000000ffff0a00a7d8bb39e0&btag=e00070000&format=mp3&mime_type=audio_mpeg",
        "source_timerange": {
            "start_offset": 0,
            "end_offset": 1.6031999999999957
        },
        "target_timerange": {
            "start_offset": 160.561,
            "end_offset": 162.1642
        },
        "ignore_audio": false,
        "audio_path": null
    },
    {
        "segment_id": "9bc2a8829d8811efa3727cd30a5182b8",
        "text": "and often condescends to drive",
        "audio_url": "https://v16m-default.akamaized.net/559fce7ac6736f1a6a0d45d65af5214f/672de5a7/video/tos/maliva/tos-maliva-v-f15faa-us/o4CQfeIgSpXFgEyIB3rH8WfTAJDPCCAIpAnO3b/?a=7073&bti=OTU0QDItLmA%3D&ch=0&cr=0&dr=4&er=0&lr=unwatermarked&cd=0%7C0%7C0%7C0&br=312&bt=156&ds=5&ft=.cwOVInz7Th9VGvOXq8Zmo&qs=13&rc=MzY0dHg5cmlzdjUzNzhoM0BpMzY0dHg5cmlzdjUzNzhoM0BsNmFhMmRrL2pgLS1kLjZzYSNsNmFhMmRrL2pgLS1kLjZzcw%3D%3D&vvpl=1&l=02173103953905200000000000000000000ffff0a00a7d8bb39e0&btag=e00070000&format=mp3&mime_type=audio_mpeg",
        "source_timerange": {
            "start_offset": 1.6031999999999869,
            "end_offset": 3.206400000000011
        },
        "target_timerange": {
            "start_offset": 162.1642,
            "end_offset": 163.7674
        },
        "ignore_audio": true,
        "audio_path": null
    },
    {
        "segment_id": "9bc2a9729d8811efa3727cd30a5182b8",
        "text": "by my humble abode in her",
        "audio_url": "https://v16m-default.akamaized.net/559fce7ac6736f1a6a0d45d65af5214f/672de5a7/video/tos/maliva/tos-maliva-v-f15faa-us/o4CQfeIgSpXFgEyIB3rH8WfTAJDPCCAIpAnO3b/?a=7073&bti=OTU0QDItLmA%3D&ch=0&cr=0&dr=4&er=0&lr=unwatermarked&cd=0%7C0%7C0%7C0&br=312&bt=156&ds=5&ft=.cwOVInz7Th9VGvOXq8Zmo&qs=13&rc=MzY0dHg5cmlzdjUzNzhoM0BpMzY0dHg5cmlzdjUzNzhoM0BsNmFhMmRrL2pgLS1kLjZzYSNsNmFhMmRrL2pgLS1kLjZzcw%3D%3D&vvpl=1&l=02173103953905200000000000000000000ffff0a00a7d8bb39e0&btag=e00070000&format=mp3&mime_type=audio_mpeg",
        "source_timerange": {
            "start_offset": 3.206400000000002,
            "end_offset": 4.809599999999998
        },
        "target_timerange": {
            "start_offset": 163.7674,
            "end_offset": 165.3706
        },
        "ignore_audio": true,
        "audio_path": null
    },
    {
        "segment_id": "9bc2aa629d8811efa3727cd30a5182b8",
        "text": "little phaeton and ponies.”",
        "audio_url": "https://v16m-default.akamaized.net/559fce7ac6736f1a6a0d45d65af5214f/672de5a7/video/tos/maliva/tos-maliva-v-f15faa-us/o4CQfeIgSpXFgEyIB3rH8WfTAJDPCCAIpAnO3b/?a=7073&bti=OTU0QDItLmA%3D&ch=0&cr=0&dr=4&er=0&lr=unwatermarked&cd=0%7C0%7C0%7C0&br=312&bt=156&ds=5&ft=.cwOVInz7Th9VGvOXq8Zmo&qs=13&rc=MzY0dHg5cmlzdjUzNzhoM0BpMzY0dHg5cmlzdjUzNzhoM0BsNmFhMmRrL2pgLS1kLjZzYSNsNmFhMmRrL2pgLS1kLjZzcw%3D%3D&vvpl=1&l=02173103953905200000000000000000000ffff0a00a7d8bb39e0&btag=e00070000&format=mp3&mime_type=audio_mpeg",
        "source_timerange": {
            "start_offset": 4.809599999999989,
            "end_offset": 6.412800000000013
        },
        "target_timerange": {
            "start_offset": 165.3706,
            "end_offset": 166.9738
        },
        "ignore_audio": true,
        "audio_path": null
    },
    {
        "segment_id": "9bc2ab489d8811efa3727cd30a5182b8",
        "text": "“Has she been presented?",
        "audio_url": "https://v16m-default.akamaized.net/559fce7ac6736f1a6a0d45d65af5214f/672de5a7/video/tos/maliva/tos-maliva-v-f15faa-us/o4CQfeIgSpXFgEyIB3rH8WfTAJDPCCAIpAnO3b/?a=7073&bti=OTU0QDItLmA%3D&ch=0&cr=0&dr=4&er=0&lr=unwatermarked&cd=0%7C0%7C0%7C0&br=312&bt=156&ds=5&ft=.cwOVInz7Th9VGvOXq8Zmo&qs=13&rc=MzY0dHg5cmlzdjUzNzhoM0BpMzY0dHg5cmlzdjUzNzhoM0BsNmFhMmRrL2pgLS1kLjZzYSNsNmFhMmRrL2pgLS1kLjZzcw%3D%3D&vvpl=1&l=02173103953905200000000000000000000ffff0a00a7d8bb39e0&btag=e00070000&format=mp3&mime_type=audio_mpeg",
        "source_timerange": {
            "start_offset": 6.412800000000004,
            "end_offset": 8.016
        },
        "target_timerange": {
            "start_offset": 166.9738,
            "end_offset": 168.577
        },
        "ignore_audio": true,
        "audio_path": null
    },
    {
        "segment_id": "9bc2b7789d8811efa3727cd30a5182b8",
        "text": "I do not remember her name",
        "audio_url": "https://v16m-default.akamaized.net/26243c00614adea9ed5259cb07bb577b/672de5a1/video/tos/maliva/tos-maliva-v-f15faa-us/okOAEteCXDE4mgAAhkrCfFT5JCSgeEx2ryWEAA/?a=7073&bti=OTU0QDItLmA%3D&ch=0&cr=0&dr=4&er=0&lr=unwatermarked&cd=0%7C0%7C0%7C0&br=312&bt=156&ds=5&ft=.cwOVInz7Th9VGvOXq8Zmo&qs=13&rc=ang8cHY5cmlzdjUzNzhoM0Bpang8cHY5cmlzdjUzNzhoM0BkMzFxMmRrL2pgLS1kLjZzYSNkMzFxMmRrL2pgLS1kLjZzcw%3D%3D&vvpl=1&l=02173103953905200000000000000000000ffff0a00a7d8bb39e0&btag=e00070000&format=mp3&mime_type=audio_mpeg",
        "source_timerange": {
            "start_offset": 0,
            "end_offset": 1.3679999999999768
        },
        "target_timerange": {
            "start_offset": 168.577,
            "end_offset": 169.945
        },
        "ignore_audio": false,
        "audio_path": null
    },
    {
        "segment_id": "9bc2b8909d8811efa3727cd30a5182b8",
        "text": "among the ladies at court.”",
        "audio_url": "https://v16m-default.akamaized.net/26243c00614adea9ed5259cb07bb577b/672de5a1/video/tos/maliva/tos-maliva-v-f15faa-us/okOAEteCXDE4mgAAhkrCfFT5JCSgeEx2ryWEAA/?a=7073&bti=OTU0QDItLmA%3D&ch=0&cr=0&dr=4&er=0&lr=unwatermarked&cd=0%7C0%7C0%7C0&br=312&bt=156&ds=5&ft=.cwOVInz7Th9VGvOXq8Zmo&qs=13&rc=ang8cHY5cmlzdjUzNzhoM0Bpang8cHY5cmlzdjUzNzhoM0BkMzFxMmRrL2pgLS1kLjZzYSNkMzFxMmRrL2pgLS1kLjZzcw%3D%3D&vvpl=1&l=02173103953905200000000000000000000ffff0a00a7d8bb39e0&btag=e00070000&format=mp3&mime_type=audio_mpeg",
        "source_timerange": {
            "start_offset": 1.367999999999995,
            "end_offset": 2.736
        },
        "target_timerange": {
            "start_offset": 169.945,
            "end_offset": 171.31300000000002
        },
        "ignore_audio": true,
        "audio_path": null
    },
    {
        "segment_id": "9bc2da149d8811efa3727cd30a5182b8",
        "text": "“Her indifferent state of",
        "audio_url": "https://v16m-default.akamaized.net/b6ea7e736ecb25a3bee2e0d239ed557b/672de5aa/video/tos/maliva/tos-maliva-v-f15faa-us/oYvTRE4bP1AAA62BAUQEkiSLH5t47ZGVzRyCi/?a=7073&bti=OTU0QDItLmA%3D&ch=0&cr=0&dr=4&er=0&lr=unwatermarked&cd=0%7C0%7C0%7C0&br=312&bt=156&ds=5&ft=.cwOVInz7Th9VGvOXq8Zmo&qs=13&rc=anJ5a285cmlzdjUzNzhoM0BpanJ5a285cmlzdjUzNzhoM0Bta2QyMmRrL2pgLS1kLjZzYSNta2QyMmRrL2pgLS1kLjZzcw%3D%3D&vvpl=1&l=02173103953905200000000000000000000ffff0a00a7d8bb39e0&btag=e00070000&format=mp3&mime_type=audio_mpeg",
        "source_timerange": {
            "start_offset": 0,
            "end_offset": 1.4160000000000217
        },
        "target_timerange": {
            "start_offset": 171.31300000000002,
            "end_offset": 172.729
        },
        "ignore_audio": false,
        "audio_path": null
    },
    {
        "segment_id": "9bc2db5e9d8811efa3727cd30a5182b8",
        "text": "health unhappily prevents",
        "audio_url": "https://v16m-default.akamaized.net/b6ea7e736ecb25a3bee2e0d239ed557b/672de5aa/video/tos/maliva/tos-maliva-v-f15faa-us/oYvTRE4bP1AAA62BAUQEkiSLH5t47ZGVzRyCi/?a=7073&bti=OTU0QDItLmA%3D&ch=0&cr=0&dr=4&er=0&lr=unwatermarked&cd=0%7C0%7C0%7C0&br=312&bt=156&ds=5&ft=.cwOVInz7Th9VGvOXq8Zmo&qs=13&rc=anJ5a285cmlzdjUzNzhoM0BpanJ5a285cmlzdjUzNzhoM0Bta2QyMmRrL2pgLS1kLjZzYSNta2QyMmRrL2pgLS1kLjZzcw%3D%3D&vvpl=1&l=02173103953905200000000000000000000ffff0a00a7d8bb39e0&btag=e00070000&format=mp3&mime_type=audio_mpeg",
        "source_timerange": {
            "start_offset": 1.4159999999999968,
            "end_offset": 2.8320000000000185
        },
        "target_timerange": {
            "start_offset": 172.729,
            "end_offset": 174.145
        },
        "ignore_audio": true,
        "audio_path": null
    },
    {
        "segment_id": "9bc2dcd09d8811efa3727cd30a5182b8",
        "text": "her being in town; and by",
        "audio_url": "https://v16m-default.akamaized.net/b6ea7e736ecb25a3bee2e0d239ed557b/672de5aa/video/tos/maliva/tos-maliva-v-f15faa-us/oYvTRE4bP1AAA62BAUQEkiSLH5t47ZGVzRyCi/?a=7073&bti=OTU0QDItLmA%3D&ch=0&cr=0&dr=4&er=0&lr=unwatermarked&cd=0%7C0%7C0%7C0&br=312&bt=156&ds=5&ft=.cwOVInz7Th9VGvOXq8Zmo&qs=13&rc=anJ5a285cmlzdjUzNzhoM0BpanJ5a285cmlzdjUzNzhoM0Bta2QyMmRrL2pgLS1kLjZzYSNta2QyMmRrL2pgLS1kLjZzcw%3D%3D&vvpl=1&l=02173103953905200000000000000000000ffff0a00a7d8bb39e0&btag=e00070000&format=mp3&mime_type=audio_mpeg",
        "source_timerange": {
            "start_offset": 2.8319999999999936,
            "end_offset": 4.248000000000015
        },
        "target_timerange": {
            "start_offset": 174.145,
            "end_offset": 175.561
        },
        "ignore_audio": true,
        "audio_path": null
    },
    {
        "segment_id": "9bc2de389d8811efa3727cd30a5182b8",
        "text": "that means, as I told Lady",
        "audio_url": "https://v16m-default.akamaized.net/b6ea7e736ecb25a3bee2e0d239ed557b/672de5aa/video/tos/maliva/tos-maliva-v-f15faa-us/oYvTRE4bP1AAA62BAUQEkiSLH5t47ZGVzRyCi/?a=7073&bti=OTU0QDItLmA%3D&ch=0&cr=0&dr=4&er=0&lr=unwatermarked&cd=0%7C0%7C0%7C0&br=312&bt=156&ds=5&ft=.cwOVInz7Th9VGvOXq8Zmo&qs=13&rc=anJ5a285cmlzdjUzNzhoM0BpanJ5a285cmlzdjUzNzhoM0Bta2QyMmRrL2pgLS1kLjZzYSNta2QyMmRrL2pgLS1kLjZzcw%3D%3D&vvpl=1&l=02173103953905200000000000000000000ffff0a00a7d8bb39e0&btag=e00070000&format=mp3&mime_type=audio_mpeg",
        "source_timerange": {
            "start_offset": 4.2479999999999905,
            "end_offset": 5.664000000000012
        },
        "target_timerange": {
            "start_offset": 175.561,
            "end_offset": 176.977
        },
        "ignore_audio": true,
        "audio_path": null
    },
    {
        "segment_id": "9bc2df6e9d8811efa3727cd30a5182b8",
        "text": "Catherine myself one day,",
        "audio_url": "https://v16m-default.akamaized.net/b6ea7e736ecb25a3bee2e0d239ed557b/672de5aa/video/tos/maliva/tos-maliva-v-f15faa-us/oYvTRE4bP1AAA62BAUQEkiSLH5t47ZGVzRyCi/?a=7073&bti=OTU0QDItLmA%3D&ch=0&cr=0&dr=4&er=0&lr=unwatermarked&cd=0%7C0%7C0%7C0&br=312&bt=156&ds=5&ft=.cwOVInz7Th9VGvOXq8Zmo&qs=13&rc=anJ5a285cmlzdjUzNzhoM0BpanJ5a285cmlzdjUzNzhoM0Bta2QyMmRrL2pgLS1kLjZzYSNta2QyMmRrL2pgLS1kLjZzcw%3D%3D&vvpl=1&l=02173103953905200000000000000000000ffff0a00a7d8bb39e0&btag=e00070000&format=mp3&mime_type=audio_mpeg",
        "source_timerange": {
            "start_offset": 5.663999999999987,
            "end_offset": 7.080000000000009
        },
        "target_timerange": {
            "start_offset": 176.977,
            "end_offset": 178.393
        },
        "ignore_audio": true,
        "audio_path": null
    },
    {
        "segment_id": "9bc2e0a49d8811efa3727cd30a5182b8",
        "text": "has deprived the British",
        "audio_url": "https://v16m-default.akamaized.net/b6ea7e736ecb25a3bee2e0d239ed557b/672de5aa/video/tos/maliva/tos-maliva-v-f15faa-us/oYvTRE4bP1AAA62BAUQEkiSLH5t47ZGVzRyCi/?a=7073&bti=OTU0QDItLmA%3D&ch=0&cr=0&dr=4&er=0&lr=unwatermarked&cd=0%7C0%7C0%7C0&br=312&bt=156&ds=5&ft=.cwOVInz7Th9VGvOXq8Zmo&qs=13&rc=anJ5a285cmlzdjUzNzhoM0BpanJ5a285cmlzdjUzNzhoM0Bta2QyMmRrL2pgLS1kLjZzYSNta2QyMmRrL2pgLS1kLjZzcw%3D%3D&vvpl=1&l=02173103953905200000000000000000000ffff0a00a7d8bb39e0&btag=e00070000&format=mp3&mime_type=audio_mpeg",
        "source_timerange": {
            "start_offset": 7.079999999999984,
            "end_offset": 8.496000000000006
        },
        "target_timerange": {
            "start_offset": 178.393,
            "end_offset": 179.809
        },
        "ignore_audio": true,
        "audio_path": null
    },
    {
        "segment_id": "9bc2e1e49d8811efa3727cd30a5182b8",
        "text": "Court of its brightest",
        "audio_url": "https://v16m-default.akamaized.net/b6ea7e736ecb25a3bee2e0d239ed557b/672de5aa/video/tos/maliva/tos-maliva-v-f15faa-us/oYvTRE4bP1AAA62BAUQEkiSLH5t47ZGVzRyCi/?a=7073&bti=OTU0QDItLmA%3D&ch=0&cr=0&dr=4&er=0&lr=unwatermarked&cd=0%7C0%7C0%7C0&br=312&bt=156&ds=5&ft=.cwOVInz7Th9VGvOXq8Zmo&qs=13&rc=anJ5a285cmlzdjUzNzhoM0BpanJ5a285cmlzdjUzNzhoM0Bta2QyMmRrL2pgLS1kLjZzYSNta2QyMmRrL2pgLS1kLjZzcw%3D%3D&vvpl=1&l=02173103953905200000000000000000000ffff0a00a7d8bb39e0&btag=e00070000&format=mp3&mime_type=audio_mpeg",
        "source_timerange": {
            "start_offset": 8.495999999999981,
            "end_offset": 9.912000000000003
        },
        "target_timerange": {
            "start_offset": 179.809,
            "end_offset": 181.225
        },
        "ignore_audio": true,
        "audio_path": null
    },
    {
        "segment_id": "9bc2e2f29d8811efa3727cd30a5182b8",
        "text": "ornament.",
        "audio_url": "https://v16m-default.akamaized.net/b6ea7e736ecb25a3bee2e0d239ed557b/672de5aa/video/tos/maliva/tos-maliva-v-f15faa-us/oYvTRE4bP1AAA62BAUQEkiSLH5t47ZGVzRyCi/?a=7073&bti=OTU0QDItLmA%3D&ch=0&cr=0&dr=4&er=0&lr=unwatermarked&cd=0%7C0%7C0%7C0&br=312&bt=156&ds=5&ft=.cwOVInz7Th9VGvOXq8Zmo&qs=13&rc=anJ5a285cmlzdjUzNzhoM0BpanJ5a285cmlzdjUzNzhoM0Bta2QyMmRrL2pgLS1kLjZzYSNta2QyMmRrL2pgLS1kLjZzcw%3D%3D&vvpl=1&l=02173103953905200000000000000000000ffff0a00a7d8bb39e0&btag=e00070000&format=mp3&mime_type=audio_mpeg",
        "source_timerange": {
            "start_offset": 9.911999999999978,
            "end_offset": 11.328
        },
        "target_timerange": {
            "start_offset": 181.225,
            "end_offset": 182.641
        },
        "ignore_audio": true,
        "audio_path": null
    },
    {
        "segment_id": "9bc2ff089d8811efa3727cd30a5182b8",
        "text": "Her Ladyship seemed pleased with",
        "audio_url": "https://v16m-default.akamaized.net/90af60c0881d3d195c14e0a5c201701d/672de5a8/video/tos/maliva/tos-maliva-v-f15faa-us/ogJNeXfZSWEAZkrACegQENFEd4ATAOtTDuCyCF/?a=7073&bti=OTU0QDItLmA%3D&ch=0&cr=0&dr=4&er=0&lr=unwatermarked&cd=0%7C0%7C0%7C0&br=312&bt=156&ds=5&ft=.cwOVInz7Th9VGvOXq8Zmo&qs=13&rc=am0zcHg5cmlzdjUzNzhoM0Bpam0zcHg5cmlzdjUzNzhoM0Bgbl4zMmRrL2pgLS1kLjZzYSNgbl4zMmRrL2pgLS1kLjZzcw%3D%3D&vvpl=1&l=02173103953905200000000000000000000ffff0a00a7d8bb39e0&btag=e00070000&format=mp3&mime_type=audio_mpeg",
        "source_timerange": {
            "start_offset": 0,
            "end_offset": 1.5919999999999916
        },
        "target_timerange": {
            "start_offset": 182.641,
            "end_offset": 184.233
        },
        "ignore_audio": false,
        "audio_path": null
    },
    {
        "segment_id": "9bc300989d8811efa3727cd30a5182b8",
        "text": "the idea; and you may imagine",
        "audio_url": "https://v16m-default.akamaized.net/90af60c0881d3d195c14e0a5c201701d/672de5a8/video/tos/maliva/tos-maliva-v-f15faa-us/ogJNeXfZSWEAZkrACegQENFEd4ATAOtTDuCyCF/?a=7073&bti=OTU0QDItLmA%3D&ch=0&cr=0&dr=4&er=0&lr=unwatermarked&cd=0%7C0%7C0%7C0&br=312&bt=156&ds=5&ft=.cwOVInz7Th9VGvOXq8Zmo&qs=13&rc=am0zcHg5cmlzdjUzNzhoM0Bpam0zcHg5cmlzdjUzNzhoM0Bgbl4zMmRrL2pgLS1kLjZzYSNgbl4zMmRrL2pgLS1kLjZzcw%3D%3D&vvpl=1&l=02173103953905200000000000000000000ffff0a00a7d8bb39e0&btag=e00070000&format=mp3&mime_type=audio_mpeg",
        "source_timerange": {
            "start_offset": 1.592000000000013,
            "end_offset": 3.183999999999976
        },
        "target_timerange": {
            "start_offset": 184.233,
            "end_offset": 185.825
        },
        "ignore_audio": true,
        "audio_path": null
    },
    {
        "segment_id": "9bc301e29d8811efa3727cd30a5182b8",
        "text": "that I am happy on every",
        "audio_url": "https://v16m-default.akamaized.net/90af60c0881d3d195c14e0a5c201701d/672de5a8/video/tos/maliva/tos-maliva-v-f15faa-us/ogJNeXfZSWEAZkrACegQENFEd4ATAOtTDuCyCF/?a=7073&bti=OTU0QDItLmA%3D&ch=0&cr=0&dr=4&er=0&lr=unwatermarked&cd=0%7C0%7C0%7C0&br=312&bt=156&ds=5&ft=.cwOVInz7Th9VGvOXq8Zmo&qs=13&rc=am0zcHg5cmlzdjUzNzhoM0Bpam0zcHg5cmlzdjUzNzhoM0Bgbl4zMmRrL2pgLS1kLjZzYSNgbl4zMmRrL2pgLS1kLjZzcw%3D%3D&vvpl=1&l=02173103953905200000000000000000000ffff0a00a7d8bb39e0&btag=e00070000&format=mp3&mime_type=audio_mpeg",
        "source_timerange": {
            "start_offset": 3.1839999999999975,
            "end_offset": 4.775999999999989
        },
        "target_timerange": {
            "start_offset": 185.825,
            "end_offset": 187.417
        },
        "ignore_audio": true,
        "audio_path": null
    },
    {
        "segment_id": "9bc3032c9d8811efa3727cd30a5182b8",
        "text": "occasion to offer those little",
        "audio_url": "https://v16m-default.akamaized.net/90af60c0881d3d195c14e0a5c201701d/672de5a8/video/tos/maliva/tos-maliva-v-f15faa-us/ogJNeXfZSWEAZkrACegQENFEd4ATAOtTDuCyCF/?a=7073&bti=OTU0QDItLmA%3D&ch=0&cr=0&dr=4&er=0&lr=unwatermarked&cd=0%7C0%7C0%7C0&br=312&bt=156&ds=5&ft=.cwOVInz7Th9VGvOXq8Zmo&qs=13&rc=am0zcHg5cmlzdjUzNzhoM0Bpam0zcHg5cmlzdjUzNzhoM0Bgbl4zMmRrL2pgLS1kLjZzYSNgbl4zMmRrL2pgLS1kLjZzcw%3D%3D&vvpl=1&l=02173103953905200000000000000000000ffff0a00a7d8bb39e0&btag=e00070000&format=mp3&mime_type=audio_mpeg",
        "source_timerange": {
            "start_offset": 4.7760000000000105,
            "end_offset": 6.368000000000002
        },
        "target_timerange": {
            "start_offset": 187.417,
            "end_offset": 189.00900000000001
        },
        "ignore_audio": true,
        "audio_path": null
    },
    {
        "segment_id": "9bc304949d8811efa3727cd30a5182b8",
        "text": "delicate compliments which are",
        "audio_url": "https://v16m-default.akamaized.net/90af60c0881d3d195c14e0a5c201701d/672de5a8/video/tos/maliva/tos-maliva-v-f15faa-us/ogJNeXfZSWEAZkrACegQENFEd4ATAOtTDuCyCF/?a=7073&bti=OTU0QDItLmA%3D&ch=0&cr=0&dr=4&er=0&lr=unwatermarked&cd=0%7C0%7C0%7C0&br=312&bt=156&ds=5&ft=.cwOVInz7Th9VGvOXq8Zmo&qs=13&rc=am0zcHg5cmlzdjUzNzhoM0Bpam0zcHg5cmlzdjUzNzhoM0Bgbl4zMmRrL2pgLS1kLjZzYSNgbl4zMmRrL2pgLS1kLjZzcw%3D%3D&vvpl=1&l=02173103953905200000000000000000000ffff0a00a7d8bb39e0&btag=e00070000&format=mp3&mime_type=audio_mpeg",
        "source_timerange": {
            "start_offset": 6.368000000000023,
            "end_offset": 7.959999999999987
        },
        "target_timerange": {
            "start_offset": 189.00900000000001,
            "end_offset": 190.601
        },
        "ignore_audio": true,
        "audio_path": null
    },
    {
        "segment_id": "9bc305e89d8811efa3727cd30a5182b8",
        "text": "always acceptable to ladies.",
        "audio_url": "https://v16m-default.akamaized.net/90af60c0881d3d195c14e0a5c201701d/672de5a8/video/tos/maliva/tos-maliva-v-f15faa-us/ogJNeXfZSWEAZkrACegQENFEd4ATAOtTDuCyCF/?a=7073&bti=OTU0QDItLmA%3D&ch=0&cr=0&dr=4&er=0&lr=unwatermarked&cd=0%7C0%7C0%7C0&br=312&bt=156&ds=5&ft=.cwOVInz7Th9VGvOXq8Zmo&qs=13&rc=am0zcHg5cmlzdjUzNzhoM0Bpam0zcHg5cmlzdjUzNzhoM0Bgbl4zMmRrL2pgLS1kLjZzYSNgbl4zMmRrL2pgLS1kLjZzcw%3D%3D&vvpl=1&l=02173103953905200000000000000000000ffff0a00a7d8bb39e0&btag=e00070000&format=mp3&mime_type=audio_mpeg",
        "source_timerange": {
            "start_offset": 7.960000000000008,
            "end_offset": 9.552
        },
        "target_timerange": {
            "start_offset": 190.601,
            "end_offset": 192.193
        },
        "ignore_audio": true,
        "audio_path": null
    },
    {
        "segment_id": "9bc328ac9d8811efa3727cd30a5182b8",
        "text": "I have more than once observed",
        "audio_url": "https://v16m-default.akamaized.net/b464d3769dacef08f064b582e5a5d2d1/672de5a9/video/tos/maliva/tos-maliva-v-f15faa-us/ocAlky46DEATLtgJXxFAS4refCfYOACEEPgvCW/?a=7073&bti=OTU0QDItLmA%3D&ch=0&cr=0&dr=4&er=0&lr=unwatermarked&cd=0%7C0%7C0%7C0&br=312&bt=156&ds=5&ft=.cwOVInz7Th9VGvOXq8Zmo&qs=13&rc=anllb2o5cmlzdjUzNzhoM0Bpanllb2o5cmlzdjUzNzhoM0AyZXJiMmRrL2pgLS1kLjZzYSMyZXJiMmRrL2pgLS1kLjZzcw%3D%3D&vvpl=1&l=02173103953905200000000000000000000ffff0a00a7d8bb39e0&btag=e00070000&format=mp3&mime_type=audio_mpeg",
        "source_timerange": {
            "start_offset": 0,
            "end_offset": 1.5428571428571622
        },
        "target_timerange": {
            "start_offset": 192.193,
            "end_offset": 193.73585714285716
        },
        "ignore_audio": false,
        "audio_path": null
    },
    {
        "segment_id": "9bc32a469d8811efa3727cd30a5182b8",
        "text": "to Lady Catherine, that her",
        "audio_url": "https://v16m-default.akamaized.net/b464d3769dacef08f064b582e5a5d2d1/672de5a9/video/tos/maliva/tos-maliva-v-f15faa-us/ocAlky46DEATLtgJXxFAS4refCfYOACEEPgvCW/?a=7073&bti=OTU0QDItLmA%3D&ch=0&cr=0&dr=4&er=0&lr=unwatermarked&cd=0%7C0%7C0%7C0&br=312&bt=156&ds=5&ft=.cwOVInz7Th9VGvOXq8Zmo&qs=13&rc=anllb2o5cmlzdjUzNzhoM0Bpanllb2o5cmlzdjUzNzhoM0AyZXJiMmRrL2pgLS1kLjZzYSMyZXJiMmRrL2pgLS1kLjZzcw%3D%3D&vvpl=1&l=02173103953905200000000000000000000ffff0a00a7d8bb39e0&btag=e00070000&format=mp3&mime_type=audio_mpeg",
        "source_timerange": {
            "start_offset": 1.5428571428571445,
            "end_offset": 3.0857142857143067
        },
        "target_timerange": {
            "start_offset": 193.73585714285716,
            "end_offset": 195.2787142857143
        },
        "ignore_audio": true,
        "audio_path": null
    },
    {
        "segment_id": "9bc32b689d8811efa3727cd30a5182b8",
        "text": "charming daughter seemed born",
        "audio_url": "https://v16m-default.akamaized.net/b464d3769dacef08f064b582e5a5d2d1/672de5a9/video/tos/maliva/tos-maliva-v-f15faa-us/ocAlky46DEATLtgJXxFAS4refCfYOACEEPgvCW/?a=7073&bti=OTU0QDItLmA%3D&ch=0&cr=0&dr=4&er=0&lr=unwatermarked&cd=0%7C0%7C0%7C0&br=312&bt=156&ds=5&ft=.cwOVInz7Th9VGvOXq8Zmo&qs=13&rc=anllb2o5cmlzdjUzNzhoM0Bpanllb2o5cmlzdjUzNzhoM0AyZXJiMmRrL2pgLS1kLjZzYSMyZXJiMmRrL2pgLS1kLjZzcw%3D%3D&vvpl=1&l=02173103953905200000000000000000000ffff0a00a7d8bb39e0&btag=e00070000&format=mp3&mime_type=audio_mpeg",
        "source_timerange": {
            "start_offset": 3.085714285714289,
            "end_offset": 4.628571428571451
        },
        "target_timerange": {
            "start_offset": 195.2787142857143,
            "end_offset": 196.82157142857145
        },
        "ignore_audio": true,
        "audio_path": null
    },
    {
        "segment_id": "9bc32c629d8811efa3727cd30a5182b8",
        "text": "to be a duchess; and that the",
        "audio_url": "https://v16m-default.akamaized.net/b464d3769dacef08f064b582e5a5d2d1/672de5a9/video/tos/maliva/tos-maliva-v-f15faa-us/ocAlky46DEATLtgJXxFAS4refCfYOACEEPgvCW/?a=7073&bti=OTU0QDItLmA%3D&ch=0&cr=0&dr=4&er=0&lr=unwatermarked&cd=0%7C0%7C0%7C0&br=312&bt=156&ds=5&ft=.cwOVInz7Th9VGvOXq8Zmo&qs=13&rc=anllb2o5cmlzdjUzNzhoM0Bpanllb2o5cmlzdjUzNzhoM0AyZXJiMmRrL2pgLS1kLjZzYSMyZXJiMmRrL2pgLS1kLjZzcw%3D%3D&vvpl=1&l=02173103953905200000000000000000000ffff0a00a7d8bb39e0&btag=e00070000&format=mp3&mime_type=audio_mpeg",
        "source_timerange": {
            "start_offset": 4.628571428571433,
            "end_offset": 6.171428571428567
        },
        "target_timerange": {
            "start_offset": 196.82157142857145,
            "end_offset": 198.36442857142856
        },
        "ignore_audio": true,
        "audio_path": null
    },
    {
        "segment_id": "9bc32db69d8811efa3727cd30a5182b8",
        "text": "most elevated rank, instead of",
        "audio_url": "https://v16m-default.akamaized.net/b464d3769dacef08f064b582e5a5d2d1/672de5a9/video/tos/maliva/tos-maliva-v-f15faa-us/ocAlky46DEATLtgJXxFAS4refCfYOACEEPgvCW/?a=7073&bti=OTU0QDItLmA%3D&ch=0&cr=0&dr=4&er=0&lr=unwatermarked&cd=0%7C0%7C0%7C0&br=312&bt=156&ds=5&ft=.cwOVInz7Th9VGvOXq8Zmo&qs=13&rc=anllb2o5cmlzdjUzNzhoM0Bpanllb2o5cmlzdjUzNzhoM0AyZXJiMmRrL2pgLS1kLjZzYSMyZXJiMmRrL2pgLS1kLjZzcw%3D%3D&vvpl=1&l=02173103953905200000000000000000000ffff0a00a7d8bb39e0&btag=e00070000&format=mp3&mime_type=audio_mpeg",
        "source_timerange": {
            "start_offset": 6.1714285714285495,
            "end_offset": 7.714285714285712
        },
        "target_timerange": {
            "start_offset": 198.36442857142856,
            "end_offset": 199.9072857142857
        },
        "ignore_audio": true,
        "audio_path": null
    },
    {
        "segment_id": "9bc32eb09d8811efa3727cd30a5182b8",
        "text": "giving her consequence, would",
        "audio_url": "https://v16m-default.akamaized.net/b464d3769dacef08f064b582e5a5d2d1/672de5a9/video/tos/maliva/tos-maliva-v-f15faa-us/ocAlky46DEATLtgJXxFAS4refCfYOACEEPgvCW/?a=7073&bti=OTU0QDItLmA%3D&ch=0&cr=0&dr=4&er=0&lr=unwatermarked&cd=0%7C0%7C0%7C0&br=312&bt=156&ds=5&ft=.cwOVInz7Th9VGvOXq8Zmo&qs=13&rc=anllb2o5cmlzdjUzNzhoM0Bpanllb2o5cmlzdjUzNzhoM0AyZXJiMmRrL2pgLS1kLjZzYSMyZXJiMmRrL2pgLS1kLjZzcw%3D%3D&vvpl=1&l=02173103953905200000000000000000000ffff0a00a7d8bb39e0&btag=e00070000&format=mp3&mime_type=audio_mpeg",
        "source_timerange": {
            "start_offset": 7.714285714285694,
            "end_offset": 9.257142857142856
        },
        "target_timerange": {
            "start_offset": 199.9072857142857,
            "end_offset": 201.45014285714285
        },
        "ignore_audio": true,
        "audio_path": null
    },
    {
        "segment_id": "9bc32fa09d8811efa3727cd30a5182b8",
        "text": "be adorned by her.",
        "audio_url": "https://v16m-default.akamaized.net/b464d3769dacef08f064b582e5a5d2d1/672de5a9/video/tos/maliva/tos-maliva-v-f15faa-us/ocAlky46DEATLtgJXxFAS4refCfYOACEEPgvCW/?a=7073&bti=OTU0QDItLmA%3D&ch=0&cr=0&dr=4&er=0&lr=unwatermarked&cd=0%7C0%7C0%7C0&br=312&bt=156&ds=5&ft=.cwOVInz7Th9VGvOXq8Zmo&qs=13&rc=anllb2o5cmlzdjUzNzhoM0Bpanllb2o5cmlzdjUzNzhoM0AyZXJiMmRrL2pgLS1kLjZzYSMyZXJiMmRrL2pgLS1kLjZzcw%3D%3D&vvpl=1&l=02173103953905200000000000000000000ffff0a00a7d8bb39e0&btag=e00070000&format=mp3&mime_type=audio_mpeg",
        "source_timerange": {
            "start_offset": 9.257142857142838,
            "end_offset": 10.8
        },
        "target_timerange": {
            "start_offset": 201.45014285714285,
            "end_offset": 202.993
        },
        "ignore_audio": true,
        "audio_path": null
    },
    {
        "segment_id": "9bc35be29d8811efa3727cd30a5182b8",
        "text": "These are the kind of little",
        "audio_url": "https://v16m-default.akamaized.net/82a334dab0c005db007573a5fa497100/672de5ad/video/tos/maliva/tos-maliva-v-f15faa-us/ocACKJOqAIrbEeZCFyXBMIIDbg4SWAXCgyffnz/?a=7073&bti=OTU0QDItLmA%3D&ch=0&cr=0&dr=4&er=0&lr=unwatermarked&cd=0%7C0%7C0%7C0&br=312&bt=156&ds=5&ft=.cwOVInz7Th9VGvOXq8Zmo&qs=13&rc=M2duZ3M5cmlzdjUzNzhoM0BpM2duZ3M5cmlzdjUzNzhoM0BsazVqMmRrL2pgLS1kLjZzYSNsazVqMmRrL2pgLS1kLjZzcw%3D%3D&vvpl=1&l=02173103953905200000000000000000000ffff0a00a7d8bb39e0&btag=e00070000&format=mp3&mime_type=audio_mpeg",
        "source_timerange": {
            "start_offset": 0,
            "end_offset": 1.4327999999999843
        },
        "target_timerange": {
            "start_offset": 202.993,
            "end_offset": 204.42579999999998
        },
        "ignore_audio": false,
        "audio_path": null
    },
    {
        "segment_id": "9bc35d2c9d8811efa3727cd30a5182b8",
        "text": "things which please her",
        "audio_url": "https://v16m-default.akamaized.net/82a334dab0c005db007573a5fa497100/672de5ad/video/tos/maliva/tos-maliva-v-f15faa-us/ocACKJOqAIrbEeZCFyXBMIIDbg4SWAXCgyffnz/?a=7073&bti=OTU0QDItLmA%3D&ch=0&cr=0&dr=4&er=0&lr=unwatermarked&cd=0%7C0%7C0%7C0&br=312&bt=156&ds=5&ft=.cwOVInz7Th9VGvOXq8Zmo&qs=13&rc=M2duZ3M5cmlzdjUzNzhoM0BpM2duZ3M5cmlzdjUzNzhoM0BsazVqMmRrL2pgLS1kLjZzYSNsazVqMmRrL2pgLS1kLjZzcw%3D%3D&vvpl=1&l=02173103953905200000000000000000000ffff0a00a7d8bb39e0&btag=e00070000&format=mp3&mime_type=audio_mpeg",
        "source_timerange": {
            "start_offset": 1.432799999999986,
            "end_offset": 2.865599999999999
        },
        "target_timerange": {
            "start_offset": 204.42579999999998,
            "end_offset": 205.8586
        },
        "ignore_audio": true,
        "audio_path": null
    },
    {
        "segment_id": "9bc35eb29d8811efa3727cd30a5182b8",
        "text": "Ladyship, and it is a sort of",
        "audio_url": "https://v16m-default.akamaized.net/82a334dab0c005db007573a5fa497100/672de5ad/video/tos/maliva/tos-maliva-v-f15faa-us/ocACKJOqAIrbEeZCFyXBMIIDbg4SWAXCgyffnz/?a=7073&bti=OTU0QDItLmA%3D&ch=0&cr=0&dr=4&er=0&lr=unwatermarked&cd=0%7C0%7C0%7C0&br=312&bt=156&ds=5&ft=.cwOVInz7Th9VGvOXq8Zmo&qs=13&rc=M2duZ3M5cmlzdjUzNzhoM0BpM2duZ3M5cmlzdjUzNzhoM0BsazVqMmRrL2pgLS1kLjZzYSNsazVqMmRrL2pgLS1kLjZzcw%3D%3D&vvpl=1&l=02173103953905200000000000000000000ffff0a00a7d8bb39e0&btag=e00070000&format=mp3&mime_type=audio_mpeg",
        "source_timerange": {
            "start_offset": 2.8656000000000006,
            "end_offset": 4.298400000000013
        },
        "target_timerange": {
            "start_offset": 205.8586,
            "end_offset": 207.2914
        },
        "ignore_audio": true,
        "audio_path": null
    },
    {
        "segment_id": "9bc35fb69d8811efa3727cd30a5182b8",
        "text": "attention which I conceive",
        "audio_url": "https://v16m-default.akamaized.net/82a334dab0c005db007573a5fa497100/672de5ad/video/tos/maliva/tos-maliva-v-f15faa-us/ocACKJOqAIrbEeZCFyXBMIIDbg4SWAXCgyffnz/?a=7073&bti=OTU0QDItLmA%3D&ch=0&cr=0&dr=4&er=0&lr=unwatermarked&cd=0%7C0%7C0%7C0&br=312&bt=156&ds=5&ft=.cwOVInz7Th9VGvOXq8Zmo&qs=13&rc=M2duZ3M5cmlzdjUzNzhoM0BpM2duZ3M5cmlzdjUzNzhoM0BsazVqMmRrL2pgLS1kLjZzYSNsazVqMmRrL2pgLS1kLjZzcw%3D%3D&vvpl=1&l=02173103953905200000000000000000000ffff0a00a7d8bb39e0&btag=e00070000&format=mp3&mime_type=audio_mpeg",
        "source_timerange": {
            "start_offset": 4.298400000000015,
            "end_offset": 5.731199999999999
        },
        "target_timerange": {
            "start_offset": 207.2914,
            "end_offset": 208.7242
        },
        "ignore_audio": true,
        "audio_path": null
    },
    {
        "segment_id": "9bc360b09d8811efa3727cd30a5182b8",
        "text": "myself peculiarly bound to",
        "audio_url": "https://v16m-default.akamaized.net/82a334dab0c005db007573a5fa497100/672de5ad/video/tos/maliva/tos-maliva-v-f15faa-us/ocACKJOqAIrbEeZCFyXBMIIDbg4SWAXCgyffnz/?a=7073&bti=OTU0QDItLmA%3D&ch=0&cr=0&dr=4&er=0&lr=unwatermarked&cd=0%7C0%7C0%7C0&br=312&bt=156&ds=5&ft=.cwOVInz7Th9VGvOXq8Zmo&qs=13&rc=M2duZ3M5cmlzdjUzNzhoM0BpM2duZ3M5cmlzdjUzNzhoM0BsazVqMmRrL2pgLS1kLjZzYSNsazVqMmRrL2pgLS1kLjZzcw%3D%3D&vvpl=1&l=02173103953905200000000000000000000ffff0a00a7d8bb39e0&btag=e00070000&format=mp3&mime_type=audio_mpeg",
        "source_timerange": {
            "start_offset": 5.731200000000001,
            "end_offset": 7.1639999999999855
        },
        "target_timerange": {
            "start_offset": 208.7242,
            "end_offset": 210.15699999999998
        },
        "ignore_audio": true,
        "audio_path": null
    },
    {
        "segment_id": "9bc361969d8811efa3727cd30a5182b8",
        "text": "pay.”  “You judge very",
        "audio_url": "https://v16m-default.akamaized.net/82a334dab0c005db007573a5fa497100/672de5ad/video/tos/maliva/tos-maliva-v-f15faa-us/ocACKJOqAIrbEeZCFyXBMIIDbg4SWAXCgyffnz/?a=7073&bti=OTU0QDItLmA%3D&ch=0&cr=0&dr=4&er=0&lr=unwatermarked&cd=0%7C0%7C0%7C0&br=312&bt=156&ds=5&ft=.cwOVInz7Th9VGvOXq8Zmo&qs=13&rc=M2duZ3M5cmlzdjUzNzhoM0BpM2duZ3M5cmlzdjUzNzhoM0BsazVqMmRrL2pgLS1kLjZzYSNsazVqMmRrL2pgLS1kLjZzcw%3D%3D&vvpl=1&l=02173103953905200000000000000000000ffff0a00a7d8bb39e0&btag=e00070000&format=mp3&mime_type=audio_mpeg",
        "source_timerange": {
            "start_offset": 7.163999999999987,
            "end_offset": 8.5968
        },
        "target_timerange": {
            "start_offset": 210.15699999999998,
            "end_offset": 211.5898
        },
        "ignore_audio": true,
        "audio_path": null
    },
    {
        "segment_id": "9bc3627c9d8811efa3727cd30a5182b8",
        "text": "properly,” said Mr. Bennet;",
        "audio_url": "https://v16m-default.akamaized.net/82a334dab0c005db007573a5fa497100/672de5ad/video/tos/maliva/tos-maliva-v-f15faa-us/ocACKJOqAIrbEeZCFyXBMIIDbg4SWAXCgyffnz/?a=7073&bti=OTU0QDItLmA%3D&ch=0&cr=0&dr=4&er=0&lr=unwatermarked&cd=0%7C0%7C0%7C0&br=312&bt=156&ds=5&ft=.cwOVInz7Th9VGvOXq8Zmo&qs=13&rc=M2duZ3M5cmlzdjUzNzhoM0BpM2duZ3M5cmlzdjUzNzhoM0BsazVqMmRrL2pgLS1kLjZzYSNsazVqMmRrL2pgLS1kLjZzcw%3D%3D&vvpl=1&l=02173103953905200000000000000000000ffff0a00a7d8bb39e0&btag=e00070000&format=mp3&mime_type=audio_mpeg",
        "source_timerange": {
            "start_offset": 8.596800000000002,
            "end_offset": 10.029600000000015
        },
        "target_timerange": {
            "start_offset": 211.5898,
            "end_offset": 213.0226
        },
        "ignore_audio": true,
        "audio_path": null
    },
    {
        "segment_id": "9bc363629d8811efa3727cd30a5182b8",
        "text": "“and it is happy for you that",
        "audio_url": "https://v16m-default.akamaized.net/82a334dab0c005db007573a5fa497100/672de5ad/video/tos/maliva/tos-maliva-v-f15faa-us/ocACKJOqAIrbEeZCFyXBMIIDbg4SWAXCgyffnz/?a=7073&bti=OTU0QDItLmA%3D&ch=0&cr=0&dr=4&er=0&lr=unwatermarked&cd=0%7C0%7C0%7C0&br=312&bt=156&ds=5&ft=.cwOVInz7Th9VGvOXq8Zmo&qs=13&rc=M2duZ3M5cmlzdjUzNzhoM0BpM2duZ3M5cmlzdjUzNzhoM0BsazVqMmRrL2pgLS1kLjZzYSNsazVqMmRrL2pgLS1kLjZzcw%3D%3D&vvpl=1&l=02173103953905200000000000000000000ffff0a00a7d8bb39e0&btag=e00070000&format=mp3&mime_type=audio_mpeg",
        "source_timerange": {
            "start_offset": 10.029600000000016,
            "end_offset": 11.4624
        },
        "target_timerange": {
            "start_offset": 213.0226,
            "end_offset": 214.4554
        },
        "ignore_audio": true,
        "audio_path": null
    },
    {
        "segment_id": "9bc364489d8811efa3727cd30a5182b8",
        "text": "you possess the talent of",
        "audio_url": "https://v16m-default.akamaized.net/82a334dab0c005db007573a5fa497100/672de5ad/video/tos/maliva/tos-maliva-v-f15faa-us/ocACKJOqAIrbEeZCFyXBMIIDbg4SWAXCgyffnz/?a=7073&bti=OTU0QDItLmA%3D&ch=0&cr=0&dr=4&er=0&lr=unwatermarked&cd=0%7C0%7C0%7C0&br=312&bt=156&ds=5&ft=.cwOVInz7Th9VGvOXq8Zmo&qs=13&rc=M2duZ3M5cmlzdjUzNzhoM0BpM2duZ3M5cmlzdjUzNzhoM0BsazVqMmRrL2pgLS1kLjZzYSNsazVqMmRrL2pgLS1kLjZzcw%3D%3D&vvpl=1&l=02173103953905200000000000000000000ffff0a00a7d8bb39e0&btag=e00070000&format=mp3&mime_type=audio_mpeg",
        "source_timerange": {
            "start_offset": 11.462400000000002,
            "end_offset": 12.895199999999987
        },
        "target_timerange": {
            "start_offset": 214.4554,
            "end_offset": 215.88819999999998
        },
        "ignore_audio": true,
        "audio_path": null
    },
    {
        "segment_id": "9bc365249d8811efa3727cd30a5182b8",
        "text": "flattering with delicacy.",
        "audio_url": "https://v16m-default.akamaized.net/82a334dab0c005db007573a5fa497100/672de5ad/video/tos/maliva/tos-maliva-v-f15faa-us/ocACKJOqAIrbEeZCFyXBMIIDbg4SWAXCgyffnz/?a=7073&bti=OTU0QDItLmA%3D&ch=0&cr=0&dr=4&er=0&lr=unwatermarked&cd=0%7C0%7C0%7C0&br=312&bt=156&ds=5&ft=.cwOVInz7Th9VGvOXq8Zmo&qs=13&rc=M2duZ3M5cmlzdjUzNzhoM0BpM2duZ3M5cmlzdjUzNzhoM0BsazVqMmRrL2pgLS1kLjZzYSNsazVqMmRrL2pgLS1kLjZzcw%3D%3D&vvpl=1&l=02173103953905200000000000000000000ffff0a00a7d8bb39e0&btag=e00070000&format=mp3&mime_type=audio_mpeg",
        "source_timerange": {
            "start_offset": 12.895199999999988,
            "end_offset": 14.328000000000001
        },
        "target_timerange": {
            "start_offset": 215.88819999999998,
            "end_offset": 217.321
        },
        "ignore_audio": true,
        "audio_path": null
    },
    {
        "segment_id": "9bc39d1e9d8811efa3727cd30a5182b8",
        "text": "May I ask whether these",
        "audio_url": "https://v16m-default.akamaized.net/9a2dcb7287afa5aa441cafc27910eb79/672de5b3/video/tos/maliva/tos-maliva-v-f15faa-us/oESpPBAy8vzV7kEZRA23J4QHii8VBUACTEAtv/?a=7073&bti=OTU0QDItLmA%3D&ch=0&cr=0&dr=4&er=0&lr=unwatermarked&cd=0%7C0%7C0%7C0&br=312&bt=156&ds=5&ft=.cwOVInz7Th9VGvOXq8Zmo&qs=13&rc=amlra3Y5cmlzdjUzNzhoM0Bpamlra3Y5cmlzdjUzNzhoM0AxX3NvMmRrL2pgLS1kLjZzYSMxX3NvMmRrL2pgLS1kLjZzcw%3D%3D&vvpl=1&l=02173103953905200000000000000000000ffff0a00a7d8bb39e0&btag=e00078000&format=mp3&mime_type=audio_mpeg",
        "source_timerange": {
            "start_offset": 0,
            "end_offset": 1.4862857142856924
        },
        "target_timerange": {
            "start_offset": 217.321,
            "end_offset": 218.8072857142857
        },
        "ignore_audio": false,
        "audio_path": null
    },
    {
        "segment_id": "9bc39e5e9d8811efa3727cd30a5182b8",
        "text": "pleasing attentions proceed",
        "audio_url": "https://v16m-default.akamaized.net/9a2dcb7287afa5aa441cafc27910eb79/672de5b3/video/tos/maliva/tos-maliva-v-f15faa-us/oESpPBAy8vzV7kEZRA23J4QHii8VBUACTEAtv/?a=7073&bti=OTU0QDItLmA%3D&ch=0&cr=0&dr=4&er=0&lr=unwatermarked&cd=0%7C0%7C0%7C0&br=312&bt=156&ds=5&ft=.cwOVInz7Th9VGvOXq8Zmo&qs=13&rc=amlra3Y5cmlzdjUzNzhoM0Bpamlra3Y5cmlzdjUzNzhoM0AxX3NvMmRrL2pgLS1kLjZzYSMxX3NvMmRrL2pgLS1kLjZzcw%3D%3D&vvpl=1&l=02173103953905200000000000000000000ffff0a00a7d8bb39e0&btag=e00078000&format=mp3&mime_type=audio_mpeg",
        "source_timerange": {
            "start_offset": 1.4862857142857138,
            "end_offset": 2.972571428571406
        },
        "target_timerange": {
            "start_offset": 218.8072857142857,
            "end_offset": 220.29357142857143
        },
        "ignore_audio": true,
        "audio_path": null
    },
    {
        "segment_id": "9bc39f589d8811efa3727cd30a5182b8",
        "text": "from the impulse of the",
        "audio_url": "https://v16m-default.akamaized.net/9a2dcb7287afa5aa441cafc27910eb79/672de5b3/video/tos/maliva/tos-maliva-v-f15faa-us/oESpPBAy8vzV7kEZRA23J4QHii8VBUACTEAtv/?a=7073&bti=OTU0QDItLmA%3D&ch=0&cr=0&dr=4&er=0&lr=unwatermarked&cd=0%7C0%7C0%7C0&br=312&bt=156&ds=5&ft=.cwOVInz7Th9VGvOXq8Zmo&qs=13&rc=amlra3Y5cmlzdjUzNzhoM0Bpamlra3Y5cmlzdjUzNzhoM0AxX3NvMmRrL2pgLS1kLjZzYSMxX3NvMmRrL2pgLS1kLjZzcw%3D%3D&vvpl=1&l=02173103953905200000000000000000000ffff0a00a7d8bb39e0&btag=e00078000&format=mp3&mime_type=audio_mpeg",
        "source_timerange": {
            "start_offset": 2.9725714285714275,
            "end_offset": 4.45885714285712
        },
        "target_timerange": {
            "start_offset": 220.29357142857143,
            "end_offset": 221.77985714285714
        },
        "ignore_audio": true,
        "audio_path": null
    },
    {
        "segment_id": "9bc3a0529d8811efa3727cd30a5182b8",
        "text": "moment, or are the result of",
        "audio_url": "https://v16m-default.akamaized.net/9a2dcb7287afa5aa441cafc27910eb79/672de5b3/video/tos/maliva/tos-maliva-v-f15faa-us/oESpPBAy8vzV7kEZRA23J4QHii8VBUACTEAtv/?a=7073&bti=OTU0QDItLmA%3D&ch=0&cr=0&dr=4&er=0&lr=unwatermarked&cd=0%7C0%7C0%7C0&br=312&bt=156&ds=5&ft=.cwOVInz7Th9VGvOXq8Zmo&qs=13&rc=amlra3Y5cmlzdjUzNzhoM0Bpamlra3Y5cmlzdjUzNzhoM0AxX3NvMmRrL2pgLS1kLjZzYSMxX3NvMmRrL2pgLS1kLjZzcw%3D%3D&vvpl=1&l=02173103953905200000000000000000000ffff0a00a7d8bb39e0&btag=e00078000&format=mp3&mime_type=audio_mpeg",
        "source_timerange": {
            "start_offset": 4.458857142857141,
            "end_offset": 5.945142857142834
        },
        "target_timerange": {
            "start_offset": 221.77985714285714,
            "end_offset": 223.26614285714285
        },
        "ignore_audio": true,
        "audio_path": null
    },
    {
        "segment_id": "9bc3a1429d8811efa3727cd30a5182b8",
        "text": "previous study?”  “They arise",
        "audio_url": "https://v16m-default.akamaized.net/9a2dcb7287afa5aa441cafc27910eb79/672de5b3/video/tos/maliva/tos-maliva-v-f15faa-us/oESpPBAy8vzV7kEZRA23J4QHii8VBUACTEAtv/?a=7073&bti=OTU0QDItLmA%3D&ch=0&cr=0&dr=4&er=0&lr=unwatermarked&cd=0%7C0%7C0%7C0&br=312&bt=156&ds=5&ft=.cwOVInz7Th9VGvOXq8Zmo&qs=13&rc=amlra3Y5cmlzdjUzNzhoM0Bpamlra3Y5cmlzdjUzNzhoM0AxX3NvMmRrL2pgLS1kLjZzYSMxX3NvMmRrL2pgLS1kLjZzcw%3D%3D&vvpl=1&l=02173103953905200000000000000000000ffff0a00a7d8bb39e0&btag=e00078000&format=mp3&mime_type=audio_mpeg",
        "source_timerange": {
            "start_offset": 5.945142857142855,
            "end_offset": 7.4314285714285475
        },
        "target_timerange": {
            "start_offset": 223.26614285714285,
            "end_offset": 224.75242857142857
        },
        "ignore_audio": true,
        "audio_path": null
    },
    {
        "segment_id": "9bc3a2289d8811efa3727cd30a5182b8",
        "text": "chiefly from what is passing",
        "audio_url": "https://v16m-default.akamaized.net/9a2dcb7287afa5aa441cafc27910eb79/672de5b3/video/tos/maliva/tos-maliva-v-f15faa-us/oESpPBAy8vzV7kEZRA23J4QHii8VBUACTEAtv/?a=7073&bti=OTU0QDItLmA%3D&ch=0&cr=0&dr=4&er=0&lr=unwatermarked&cd=0%7C0%7C0%7C0&br=312&bt=156&ds=5&ft=.cwOVInz7Th9VGvOXq8Zmo&qs=13&rc=amlra3Y5cmlzdjUzNzhoM0Bpamlra3Y5cmlzdjUzNzhoM0AxX3NvMmRrL2pgLS1kLjZzYSMxX3NvMmRrL2pgLS1kLjZzcw%3D%3D&vvpl=1&l=02173103953905200000000000000000000ffff0a00a7d8bb39e0&btag=e00078000&format=mp3&mime_type=audio_mpeg",
        "source_timerange": {
            "start_offset": 7.431428571428569,
            "end_offset": 8.917714285714261
        },
        "target_timerange": {
            "start_offset": 224.75242857142857,
            "end_offset": 226.23871428571428
        },
        "ignore_audio": true,
        "audio_path": null
    },
    {
        "segment_id": "9bc3a30e9d8811efa3727cd30a5182b8",
        "text": "at the time; and though I",
        "audio_url": "https://v16m-default.akamaized.net/9a2dcb7287afa5aa441cafc27910eb79/672de5b3/video/tos/maliva/tos-maliva-v-f15faa-us/oESpPBAy8vzV7kEZRA23J4QHii8VBUACTEAtv/?a=7073&bti=OTU0QDItLmA%3D&ch=0&cr=0&dr=4&er=0&lr=unwatermarked&cd=0%7C0%7C0%7C0&br=312&bt=156&ds=5&ft=.cwOVInz7Th9VGvOXq8Zmo&qs=13&rc=amlra3Y5cmlzdjUzNzhoM0Bpamlra3Y5cmlzdjUzNzhoM0AxX3NvMmRrL2pgLS1kLjZzYSMxX3NvMmRrL2pgLS1kLjZzcw%3D%3D&vvpl=1&l=02173103953905200000000000000000000ffff0a00a7d8bb39e0&btag=e00078000&format=mp3&mime_type=audio_mpeg",
        "source_timerange": {
            "start_offset": 8.917714285714283,
            "end_offset": 10.404000000000003
        },
        "target_timerange": {
            "start_offset": 226.23871428571428,
            "end_offset": 227.72500000000002
        },
        "ignore_audio": true,
        "audio_path": null
    },
    {
        "segment_id": "9bc3a3f49d8811efa3727cd30a5182b8",
        "text": "sometimes amuse myself with",
        "audio_url": "https://v16m-default.akamaized.net/9a2dcb7287afa5aa441cafc27910eb79/672de5b3/video/tos/maliva/tos-maliva-v-f15faa-us/oESpPBAy8vzV7kEZRA23J4QHii8VBUACTEAtv/?a=7073&bti=OTU0QDItLmA%3D&ch=0&cr=0&dr=4&er=0&lr=unwatermarked&cd=0%7C0%7C0%7C0&br=312&bt=156&ds=5&ft=.cwOVInz7Th9VGvOXq8Zmo&qs=13&rc=amlra3Y5cmlzdjUzNzhoM0Bpamlra3Y5cmlzdjUzNzhoM0AxX3NvMmRrL2pgLS1kLjZzYSMxX3NvMmRrL2pgLS1kLjZzcw%3D%3D&vvpl=1&l=02173103953905200000000000000000000ffff0a00a7d8bb39e0&btag=e00078000&format=mp3&mime_type=audio_mpeg",
        "source_timerange": {
            "start_offset": 10.404000000000025,
            "end_offset": 11.890285714285717
        },
        "target_timerange": {
            "start_offset": 227.72500000000002,
            "end_offset": 229.21128571428574
        },
        "ignore_audio": true,
        "audio_path": null
    },
    {
        "segment_id": "9bc3a4e49d8811efa3727cd30a5182b8",
        "text": "suggesting and arranging such",
        "audio_url": "https://v16m-default.akamaized.net/9a2dcb7287afa5aa441cafc27910eb79/672de5b3/video/tos/maliva/tos-maliva-v-f15faa-us/oESpPBAy8vzV7kEZRA23J4QHii8VBUACTEAtv/?a=7073&bti=OTU0QDItLmA%3D&ch=0&cr=0&dr=4&er=0&lr=unwatermarked&cd=0%7C0%7C0%7C0&br=312&bt=156&ds=5&ft=.cwOVInz7Th9VGvOXq8Zmo&qs=13&rc=amlra3Y5cmlzdjUzNzhoM0Bpamlra3Y5cmlzdjUzNzhoM0AxX3NvMmRrL2pgLS1kLjZzYSMxX3NvMmRrL2pgLS1kLjZzcw%3D%3D&vvpl=1&l=02173103953905200000000000000000000ffff0a00a7d8bb39e0&btag=e00078000&format=mp3&mime_type=audio_mpeg",
        "source_timerange": {
            "start_offset": 11.890285714285739,
            "end_offset": 13.376571428571431
        },
        "target_timerange": {
            "start_offset": 229.21128571428574,
            "end_offset": 230.69757142857145
        },
        "ignore_audio": true,
        "audio_path": null
    },
    {
        "segment_id": "9bc3a5c09d8811efa3727cd30a5182b8",
        "text": "little elegant compliments as",
        "audio_url": "https://v16m-default.akamaized.net/9a2dcb7287afa5aa441cafc27910eb79/672de5b3/video/tos/maliva/tos-maliva-v-f15faa-us/oESpPBAy8vzV7kEZRA23J4QHii8VBUACTEAtv/?a=7073&bti=OTU0QDItLmA%3D&ch=0&cr=0&dr=4&er=0&lr=unwatermarked&cd=0%7C0%7C0%7C0&br=312&bt=156&ds=5&ft=.cwOVInz7Th9VGvOXq8Zmo&qs=13&rc=amlra3Y5cmlzdjUzNzhoM0Bpamlra3Y5cmlzdjUzNzhoM0AxX3NvMmRrL2pgLS1kLjZzYSMxX3NvMmRrL2pgLS1kLjZzcw%3D%3D&vvpl=1&l=02173103953905200000000000000000000ffff0a00a7d8bb39e0&btag=e00078000&format=mp3&mime_type=audio_mpeg",
        "source_timerange": {
            "start_offset": 13.376571428571452,
            "end_offset": 14.862857142857145
        },
        "target_timerange": {
            "start_offset": 230.69757142857145,
            "end_offset": 232.18385714285716
        },
        "ignore_audio": true,
        "audio_path": null
    },
    {
        "segment_id": "9bc3a69c9d8811efa3727cd30a5182b8",
        "text": "may be adapted to ordinary",
        "audio_url": "https://v16m-default.akamaized.net/9a2dcb7287afa5aa441cafc27910eb79/672de5b3/video/tos/maliva/tos-maliva-v-f15faa-us/oESpPBAy8vzV7kEZRA23J4QHii8VBUACTEAtv/?a=7073&bti=OTU0QDItLmA%3D&ch=0&cr=0&dr=4&er=0&lr=unwatermarked&cd=0%7C0%7C0%7C0&br=312&bt=156&ds=5&ft=.cwOVInz7Th9VGvOXq8Zmo&qs=13&rc=amlra3Y5cmlzdjUzNzhoM0Bpamlra3Y5cmlzdjUzNzhoM0AxX3NvMmRrL2pgLS1kLjZzYSMxX3NvMmRrL2pgLS1kLjZzcw%3D%3D&vvpl=1&l=02173103953905200000000000000000000ffff0a00a7d8bb39e0&btag=e00078000&format=mp3&mime_type=audio_mpeg",
        "source_timerange": {
            "start_offset": 14.862857142857166,
            "end_offset": 16.34914285714286
        },
        "target_timerange": {
            "start_offset": 232.18385714285716,
            "end_offset": 233.67014285714288
        },
        "ignore_audio": true,
        "audio_path": null
    },
    {
        "segment_id": "9bc3a7829d8811efa3727cd30a5182b8",
        "text": "occasions, I always wish to",
        "audio_url": "https://v16m-default.akamaized.net/9a2dcb7287afa5aa441cafc27910eb79/672de5b3/video/tos/maliva/tos-maliva-v-f15faa-us/oESpPBAy8vzV7kEZRA23J4QHii8VBUACTEAtv/?a=7073&bti=OTU0QDItLmA%3D&ch=0&cr=0&dr=4&er=0&lr=unwatermarked&cd=0%7C0%7C0%7C0&br=312&bt=156&ds=5&ft=.cwOVInz7Th9VGvOXq8Zmo&qs=13&rc=amlra3Y5cmlzdjUzNzhoM0Bpamlra3Y5cmlzdjUzNzhoM0AxX3NvMmRrL2pgLS1kLjZzYSMxX3NvMmRrL2pgLS1kLjZzcw%3D%3D&vvpl=1&l=02173103953905200000000000000000000ffff0a00a7d8bb39e0&btag=e00078000&format=mp3&mime_type=audio_mpeg",
        "source_timerange": {
            "start_offset": 16.34914285714288,
            "end_offset": 17.835428571428572
        },
        "target_timerange": {
            "start_offset": 233.67014285714288,
            "end_offset": 235.1564285714286
        },
        "ignore_audio": true,
        "audio_path": null
    },
    {
        "segment_id": "9bc3a8e09d8811efa3727cd30a5182b8",
        "text": "give them as unstudied an air",
        "audio_url": "https://v16m-default.akamaized.net/9a2dcb7287afa5aa441cafc27910eb79/672de5b3/video/tos/maliva/tos-maliva-v-f15faa-us/oESpPBAy8vzV7kEZRA23J4QHii8VBUACTEAtv/?a=7073&bti=OTU0QDItLmA%3D&ch=0&cr=0&dr=4&er=0&lr=unwatermarked&cd=0%7C0%7C0%7C0&br=312&bt=156&ds=5&ft=.cwOVInz7Th9VGvOXq8Zmo&qs=13&rc=amlra3Y5cmlzdjUzNzhoM0Bpamlra3Y5cmlzdjUzNzhoM0AxX3NvMmRrL2pgLS1kLjZzYSMxX3NvMmRrL2pgLS1kLjZzcw%3D%3D&vvpl=1&l=02173103953905200000000000000000000ffff0a00a7d8bb39e0&btag=e00078000&format=mp3&mime_type=audio_mpeg",
        "source_timerange": {
            "start_offset": 17.835428571428594,
            "end_offset": 19.321714285714286
        },
        "target_timerange": {
            "start_offset": 235.1564285714286,
            "end_offset": 236.6427142857143
        },
        "ignore_audio": true,
        "audio_path": null
    },
    {
        "segment_id": "9bc3aa349d8811efa3727cd30a5182b8",
        "text": "as possible.”",
        "audio_url": "https://v16m-default.akamaized.net/9a2dcb7287afa5aa441cafc27910eb79/672de5b3/video/tos/maliva/tos-maliva-v-f15faa-us/oESpPBAy8vzV7kEZRA23J4QHii8VBUACTEAtv/?a=7073&bti=OTU0QDItLmA%3D&ch=0&cr=0&dr=4&er=0&lr=unwatermarked&cd=0%7C0%7C0%7C0&br=312&bt=156&ds=5&ft=.cwOVInz7Th9VGvOXq8Zmo&qs=13&rc=amlra3Y5cmlzdjUzNzhoM0Bpamlra3Y5cmlzdjUzNzhoM0AxX3NvMmRrL2pgLS1kLjZzYSMxX3NvMmRrL2pgLS1kLjZzcw%3D%3D&vvpl=1&l=02173103953905200000000000000000000ffff0a00a7d8bb39e0&btag=e00078000&format=mp3&mime_type=audio_mpeg",
        "source_timerange": {
            "start_offset": 19.321714285714307,
            "end_offset": 20.808
        },
        "target_timerange": {
            "start_offset": 236.6427142857143,
            "end_offset": 238.12900000000002
        },
        "ignore_audio": true,
        "audio_path": null
    },
    {
        "segment_id": "9bc3b7cc9d8811efa3727cd30a5182b8",
        "text": "Mr. Bennet’s expectations",
        "audio_url": "https://v16m-default.akamaized.net/3f563cad32c59d7fcbd0bb23596aa1b2/672de5a1/video/tos/maliva/tos-maliva-v-f15faa-us/oUIp5FTCEIBIgHWZybfJKAeXrAYfODSxCAFnCN/?a=7073&bti=OTU0QDItLmA%3D&ch=0&cr=0&dr=4&er=0&lr=unwatermarked&cd=0%7C0%7C0%7C0&br=312&bt=156&ds=5&ft=.cwOVInz7Th9VGvOXq8Zmo&qs=13&rc=anY1dW45cmlzdjUzNzhoM0BpanY1dW45cmlzdjUzNzhoM0BmbTBoMmRrL2pgLS1kLjZzYSNmbTBoMmRrL2pgLS1kLjZzcw%3D%3D&vvpl=1&l=02173103953905200000000000000000000ffff0a00a7d8bb39e0&btag=e00070000&format=mp3&mime_type=audio_mpeg",
        "source_timerange": {
            "start_offset": 0,
            "end_offset": 1.4280000000000026
        },
        "target_timerange": {
            "start_offset": 238.12900000000002,
            "end_offset": 239.55700000000002
        },
        "ignore_audio": false,
        "audio_path": null
    },
    {
        "segment_id": "9bc3b8f89d8811efa3727cd30a5182b8",
        "text": "were fully answered.",
        "audio_url": "https://v16m-default.akamaized.net/3f563cad32c59d7fcbd0bb23596aa1b2/672de5a1/video/tos/maliva/tos-maliva-v-f15faa-us/oUIp5FTCEIBIgHWZybfJKAeXrAYfODSxCAFnCN/?a=7073&bti=OTU0QDItLmA%3D&ch=0&cr=0&dr=4&er=0&lr=unwatermarked&cd=0%7C0%7C0%7C0&br=312&bt=156&ds=5&ft=.cwOVInz7Th9VGvOXq8Zmo&qs=13&rc=anY1dW45cmlzdjUzNzhoM0BpanY1dW45cmlzdjUzNzhoM0BmbTBoMmRrL2pgLS1kLjZzYSNmbTBoMmRrL2pgLS1kLjZzcw%3D%3D&vvpl=1&l=02173103953905200000000000000000000ffff0a00a7d8bb39e0&btag=e00070000&format=mp3&mime_type=audio_mpeg",
        "source_timerange": {
            "start_offset": 1.4279999999999973,
            "end_offset": 2.856
        },
        "target_timerange": {
            "start_offset": 239.55700000000002,
            "end_offset": 240.985
        },
        "ignore_audio": true,
        "audio_path": null
    },
    {
        "segment_id": "9bc3e0a89d8811efa3727cd30a5182b8",
        "text": "His cousin was as absurd as",
        "audio_url": "https://v16m-default.akamaized.net/c68195c4372a80d071859cb2d68b6b79/672de5ae/video/tos/maliva/tos-maliva-v-f15faa-us/o4nufLBLIkABTiVcnh1fEAJhQEUtBE9EAAzZi3/?a=7073&bti=OTU0QDItLmA%3D&ch=0&cr=0&dr=4&er=0&lr=unwatermarked&cd=0%7C0%7C0%7C0&br=312&bt=156&ds=5&ft=.cwOVInz7Th9VGvOXq8Zmo&qs=13&rc=M29ta205cmlzdjUzNzhoM0BpM29ta205cmlzdjUzNzhoM0AxYzBkMmRzL2pgLS1kLjZzYSMxYzBkMmRzL2pgLS1kLjZzcw%3D%3D&vvpl=1&l=02173103953905200000000000000000000ffff0a00a7d8bb39e0&btag=e00078000&format=mp3&mime_type=audio_mpeg",
        "source_timerange": {
            "start_offset": 0,
            "end_offset": 1.511999999999997
        },
        "target_timerange": {
            "start_offset": 240.985,
            "end_offset": 242.497
        },
        "ignore_audio": false,
        "audio_path": null
    },
    {
        "segment_id": "9bc3e1d49d8811efa3727cd30a5182b8",
        "text": "he had hoped; and he",
        "audio_url": "https://v16m-default.akamaized.net/c68195c4372a80d071859cb2d68b6b79/672de5ae/video/tos/maliva/tos-maliva-v-f15faa-us/o4nufLBLIkABTiVcnh1fEAJhQEUtBE9EAAzZi3/?a=7073&bti=OTU0QDItLmA%3D&ch=0&cr=0&dr=4&er=0&lr=unwatermarked&cd=0%7C0%7C0%7C0&br=312&bt=156&ds=5&ft=.cwOVInz7Th9VGvOXq8Zmo&qs=13&rc=M29ta205cmlzdjUzNzhoM0BpM29ta205cmlzdjUzNzhoM0AxYzBkMmRzL2pgLS1kLjZzYSMxYzBkMmRzL2pgLS1kLjZzcw%3D%3D&vvpl=1&l=02173103953905200000000000000000000ffff0a00a7d8bb39e0&btag=e00078000&format=mp3&mime_type=audio_mpeg",
        "source_timerange": {
            "start_offset": 1.5120000000000005,
            "end_offset": 3.0239999999999974
        },
        "target_timerange": {
            "start_offset": 242.497,
            "end_offset": 244.00900000000001
        },
        "ignore_audio": true,
        "audio_path": null
    },
    {
        "segment_id": "9bc3e2ce9d8811efa3727cd30a5182b8",
        "text": "listened to him with the",
        "audio_url": "https://v16m-default.akamaized.net/c68195c4372a80d071859cb2d68b6b79/672de5ae/video/tos/maliva/tos-maliva-v-f15faa-us/o4nufLBLIkABTiVcnh1fEAJhQEUtBE9EAAzZi3/?a=7073&bti=OTU0QDItLmA%3D&ch=0&cr=0&dr=4&er=0&lr=unwatermarked&cd=0%7C0%7C0%7C0&br=312&bt=156&ds=5&ft=.cwOVInz7Th9VGvOXq8Zmo&qs=13&rc=M29ta205cmlzdjUzNzhoM0BpM29ta205cmlzdjUzNzhoM0AxYzBkMmRzL2pgLS1kLjZzYSMxYzBkMmRzL2pgLS1kLjZzcw%3D%3D&vvpl=1&l=02173103953905200000000000000000000ffff0a00a7d8bb39e0&btag=e00078000&format=mp3&mime_type=audio_mpeg",
        "source_timerange": {
            "start_offset": 3.024000000000001,
            "end_offset": 4.535999999999998
        },
        "target_timerange": {
            "start_offset": 244.00900000000001,
            "end_offset": 245.52100000000002
        },
        "ignore_audio": true,
        "audio_path": null
    },
    {
        "segment_id": "9bc3e3d29d8811efa3727cd30a5182b8",
        "text": "keenest enjoyment,",
        "audio_url": "https://v16m-default.akamaized.net/c68195c4372a80d071859cb2d68b6b79/672de5ae/video/tos/maliva/tos-maliva-v-f15faa-us/o4nufLBLIkABTiVcnh1fEAJhQEUtBE9EAAzZi3/?a=7073&bti=OTU0QDItLmA%3D&ch=0&cr=0&dr=4&er=0&lr=unwatermarked&cd=0%7C0%7C0%7C0&br=312&bt=156&ds=5&ft=.cwOVInz7Th9VGvOXq8Zmo&qs=13&rc=M29ta205cmlzdjUzNzhoM0BpM29ta205cmlzdjUzNzhoM0AxYzBkMmRzL2pgLS1kLjZzYSMxYzBkMmRzL2pgLS1kLjZzcw%3D%3D&vvpl=1&l=02173103953905200000000000000000000ffff0a00a7d8bb39e0&btag=e00078000&format=mp3&mime_type=audio_mpeg",
        "source_timerange": {
            "start_offset": 4.536000000000001,
            "end_offset": 6.047999999999998
        },
        "target_timerange": {
            "start_offset": 245.52100000000002,
            "end_offset": 247.03300000000002
        },
        "ignore_audio": true,
        "audio_path": null
    },
    {
        "segment_id": "9bc3e4c29d8811efa3727cd30a5182b8",
        "text": "maintaining at the same time",
        "audio_url": "https://v16m-default.akamaized.net/c68195c4372a80d071859cb2d68b6b79/672de5ae/video/tos/maliva/tos-maliva-v-f15faa-us/o4nufLBLIkABTiVcnh1fEAJhQEUtBE9EAAzZi3/?a=7073&bti=OTU0QDItLmA%3D&ch=0&cr=0&dr=4&er=0&lr=unwatermarked&cd=0%7C0%7C0%7C0&br=312&bt=156&ds=5&ft=.cwOVInz7Th9VGvOXq8Zmo&qs=13&rc=M29ta205cmlzdjUzNzhoM0BpM29ta205cmlzdjUzNzhoM0AxYzBkMmRzL2pgLS1kLjZzYSMxYzBkMmRzL2pgLS1kLjZzcw%3D%3D&vvpl=1&l=02173103953905200000000000000000000ffff0a00a7d8bb39e0&btag=e00078000&format=mp3&mime_type=audio_mpeg",
        "source_timerange": {
            "start_offset": 6.048000000000002,
            "end_offset": 7.559999999999999
        },
        "target_timerange": {
            "start_offset": 247.03300000000002,
            "end_offset": 248.54500000000002
        },
        "ignore_audio": true,
        "audio_path": null
    },
    {
        "segment_id": "9bc3e5a89d8811efa3727cd30a5182b8",
        "text": "the most resolute composure",
        "audio_url": "https://v16m-default.akamaized.net/c68195c4372a80d071859cb2d68b6b79/672de5ae/video/tos/maliva/tos-maliva-v-f15faa-us/o4nufLBLIkABTiVcnh1fEAJhQEUtBE9EAAzZi3/?a=7073&bti=OTU0QDItLmA%3D&ch=0&cr=0&dr=4&er=0&lr=unwatermarked&cd=0%7C0%7C0%7C0&br=312&bt=156&ds=5&ft=.cwOVInz7Th9VGvOXq8Zmo&qs=13&rc=M29ta205cmlzdjUzNzhoM0BpM29ta205cmlzdjUzNzhoM0AxYzBkMmRzL2pgLS1kLjZzYSMxYzBkMmRzL2pgLS1kLjZzcw%3D%3D&vvpl=1&l=02173103953905200000000000000000000ffff0a00a7d8bb39e0&btag=e00078000&format=mp3&mime_type=audio_mpeg",
        "source_timerange": {
            "start_offset": 7.560000000000002,
            "end_offset": 9.072
        },
        "target_timerange": {
            "start_offset": 248.54500000000002,
            "end_offset": 250.05700000000002
        },
        "ignore_audio": true,
        "audio_path": null
    },
    {
        "segment_id": "9bc3e6849d8811efa3727cd30a5182b8",
        "text": "of countenance, and, except",
        "audio_url": "https://v16m-default.akamaized.net/c68195c4372a80d071859cb2d68b6b79/672de5ae/video/tos/maliva/tos-maliva-v-f15faa-us/o4nufLBLIkABTiVcnh1fEAJhQEUtBE9EAAzZi3/?a=7073&bti=OTU0QDItLmA%3D&ch=0&cr=0&dr=4&er=0&lr=unwatermarked&cd=0%7C0%7C0%7C0&br=312&bt=156&ds=5&ft=.cwOVInz7Th9VGvOXq8Zmo&qs=13&rc=M29ta205cmlzdjUzNzhoM0BpM29ta205cmlzdjUzNzhoM0AxYzBkMmRzL2pgLS1kLjZzYSMxYzBkMmRzL2pgLS1kLjZzcw%3D%3D&vvpl=1&l=02173103953905200000000000000000000ffff0a00a7d8bb39e0&btag=e00078000&format=mp3&mime_type=audio_mpeg",
        "source_timerange": {
            "start_offset": 9.072000000000003,
            "end_offset": 10.584
        },
        "target_timerange": {
            "start_offset": 250.05700000000002,
            "end_offset": 251.56900000000002
        },
        "ignore_audio": true,
        "audio_path": null
    },
    {
        "segment_id": "9bc3e7749d8811efa3727cd30a5182b8",
        "text": "in an occasional glance at",
        "audio_url": "https://v16m-default.akamaized.net/c68195c4372a80d071859cb2d68b6b79/672de5ae/video/tos/maliva/tos-maliva-v-f15faa-us/o4nufLBLIkABTiVcnh1fEAJhQEUtBE9EAAzZi3/?a=7073&bti=OTU0QDItLmA%3D&ch=0&cr=0&dr=4&er=0&lr=unwatermarked&cd=0%7C0%7C0%7C0&br=312&bt=156&ds=5&ft=.cwOVInz7Th9VGvOXq8Zmo&qs=13&rc=M29ta205cmlzdjUzNzhoM0BpM29ta205cmlzdjUzNzhoM0AxYzBkMmRzL2pgLS1kLjZzYSMxYzBkMmRzL2pgLS1kLjZzcw%3D%3D&vvpl=1&l=02173103953905200000000000000000000ffff0a00a7d8bb39e0&btag=e00078000&format=mp3&mime_type=audio_mpeg",
        "source_timerange": {
            "start_offset": 10.584000000000003,
            "end_offset": 12.096
        },
        "target_timerange": {
            "start_offset": 251.56900000000002,
            "end_offset": 253.08100000000002
        },
        "ignore_audio": true,
        "audio_path": null
    },
    {
        "segment_id": "9bc3e86e9d8811efa3727cd30a5182b8",
        "text": "Elizabeth, requiring no",
        "audio_url": "https://v16m-default.akamaized.net/c68195c4372a80d071859cb2d68b6b79/672de5ae/video/tos/maliva/tos-maliva-v-f15faa-us/o4nufLBLIkABTiVcnh1fEAJhQEUtBE9EAAzZi3/?a=7073&bti=OTU0QDItLmA%3D&ch=0&cr=0&dr=4&er=0&lr=unwatermarked&cd=0%7C0%7C0%7C0&br=312&bt=156&ds=5&ft=.cwOVInz7Th9VGvOXq8Zmo&qs=13&rc=M29ta205cmlzdjUzNzhoM0BpM29ta205cmlzdjUzNzhoM0AxYzBkMmRzL2pgLS1kLjZzYSMxYzBkMmRzL2pgLS1kLjZzcw%3D%3D&vvpl=1&l=02173103953905200000000000000000000ffff0a00a7d8bb39e0&btag=e00078000&format=mp3&mime_type=audio_mpeg",
        "source_timerange": {
            "start_offset": 12.096000000000004,
            "end_offset": 13.608
        },
        "target_timerange": {
            "start_offset": 253.08100000000002,
            "end_offset": 254.59300000000002
        },
        "ignore_audio": true,
        "audio_path": null
    },
    {
        "segment_id": "9bc3e9549d8811efa3727cd30a5182b8",
        "text": "partner in his pleasure.",
        "audio_url": "https://v16m-default.akamaized.net/c68195c4372a80d071859cb2d68b6b79/672de5ae/video/tos/maliva/tos-maliva-v-f15faa-us/o4nufLBLIkABTiVcnh1fEAJhQEUtBE9EAAzZi3/?a=7073&bti=OTU0QDItLmA%3D&ch=0&cr=0&dr=4&er=0&lr=unwatermarked&cd=0%7C0%7C0%7C0&br=312&bt=156&ds=5&ft=.cwOVInz7Th9VGvOXq8Zmo&qs=13&rc=M29ta205cmlzdjUzNzhoM0BpM29ta205cmlzdjUzNzhoM0AxYzBkMmRzL2pgLS1kLjZzYSMxYzBkMmRzL2pgLS1kLjZzcw%3D%3D&vvpl=1&l=02173103953905200000000000000000000ffff0a00a7d8bb39e0&btag=e00078000&format=mp3&mime_type=audio_mpeg",
        "source_timerange": {
            "start_offset": 13.608000000000004,
            "end_offset": 15.120000000000001
        },
        "target_timerange": {
            "start_offset": 254.59300000000002,
            "end_offset": 256.105
        },
        "ignore_audio": true,
        "audio_path": null
    },
    {
        "segment_id": "9bc4144c9d8811efa3727cd30a5182b8",
        "text": "By tea-time, however, the",
        "audio_url": "https://v16m-default.akamaized.net/161a3347013c25ed2d8f4f73835501e3/672de5af/video/tos/maliva/tos-maliva-v-f15faa-us/ooFRRfIAkYuLOIkIBeWgdteoATG5FEAIBAnceb/?a=7073&bti=OTU0QDItLmA%3D&ch=0&cr=0&dr=4&er=0&lr=unwatermarked&cd=0%7C0%7C0%7C0&br=312&bt=156&ds=5&ft=.cwOVInz7Th9VGvOXq8Zmo&qs=13&rc=amo1b3E5cmlzdjUzNzhoM0Bpamo1b3E5cmlzdjUzNzhoM0AwLi5jMmRzL2pgLS1kLjZzYSMwLi5jMmRzL2pgLS1kLjZzcw%3D%3D&vvpl=1&l=02173103953905200000000000000000000ffff0a00a7d8bb39e0&btag=e00078000&format=mp3&mime_type=audio_mpeg",
        "source_timerange": {
            "start_offset": 0,
            "end_offset": 1.4792727272727113
        },
        "target_timerange": {
            "start_offset": 256.105,
            "end_offset": 257.5842727272727
        },
        "ignore_audio": false,
        "audio_path": null
    },
    {
        "segment_id": "9bc415829d8811efa3727cd30a5182b8",
        "text": "dose had been enough, and",
        "audio_url": "https://v16m-default.akamaized.net/161a3347013c25ed2d8f4f73835501e3/672de5af/video/tos/maliva/tos-maliva-v-f15faa-us/ooFRRfIAkYuLOIkIBeWgdteoATG5FEAIBAnceb/?a=7073&bti=OTU0QDItLmA%3D&ch=0&cr=0&dr=4&er=0&lr=unwatermarked&cd=0%7C0%7C0%7C0&br=312&bt=156&ds=5&ft=.cwOVInz7Th9VGvOXq8Zmo&qs=13&rc=amo1b3E5cmlzdjUzNzhoM0Bpamo1b3E5cmlzdjUzNzhoM0AwLi5jMmRzL2pgLS1kLjZzYSMwLi5jMmRzL2pgLS1kLjZzcw%3D%3D&vvpl=1&l=02173103953905200000000000000000000ffff0a00a7d8bb39e0&btag=e00078000&format=mp3&mime_type=audio_mpeg",
        "source_timerange": {
            "start_offset": 1.4792727272727006,
            "end_offset": 2.958545454545469
        },
        "target_timerange": {
            "start_offset": 257.5842727272727,
            "end_offset": 259.0635454545455
        },
        "ignore_audio": true,
        "audio_path": null
    },
    {
        "segment_id": "9bc4167c9d8811efa3727cd30a5182b8",
        "text": "Mr. Bennet was glad to",
        "audio_url": "https://v16m-default.akamaized.net/161a3347013c25ed2d8f4f73835501e3/672de5af/video/tos/maliva/tos-maliva-v-f15faa-us/ooFRRfIAkYuLOIkIBeWgdteoATG5FEAIBAnceb/?a=7073&bti=OTU0QDItLmA%3D&ch=0&cr=0&dr=4&er=0&lr=unwatermarked&cd=0%7C0%7C0%7C0&br=312&bt=156&ds=5&ft=.cwOVInz7Th9VGvOXq8Zmo&qs=13&rc=amo1b3E5cmlzdjUzNzhoM0Bpamo1b3E5cmlzdjUzNzhoM0AwLi5jMmRzL2pgLS1kLjZzYSMwLi5jMmRzL2pgLS1kLjZzcw%3D%3D&vvpl=1&l=02173103953905200000000000000000000ffff0a00a7d8bb39e0&btag=e00078000&format=mp3&mime_type=audio_mpeg",
        "source_timerange": {
            "start_offset": 2.958545454545458,
            "end_offset": 4.4378181818181694
        },
        "target_timerange": {
            "start_offset": 259.0635454545455,
            "end_offset": 260.5428181818182
        },
        "ignore_audio": true,
        "audio_path": null
    },
    {
        "segment_id": "9bc4176c9d8811efa3727cd30a5182b8",
        "text": "take his guest into the",
        "audio_url": "https://v16m-default.akamaized.net/161a3347013c25ed2d8f4f73835501e3/672de5af/video/tos/maliva/tos-maliva-v-f15faa-us/ooFRRfIAkYuLOIkIBeWgdteoATG5FEAIBAnceb/?a=7073&bti=OTU0QDItLmA%3D&ch=0&cr=0&dr=4&er=0&lr=unwatermarked&cd=0%7C0%7C0%7C0&br=312&bt=156&ds=5&ft=.cwOVInz7Th9VGvOXq8Zmo&qs=13&rc=amo1b3E5cmlzdjUzNzhoM0Bpamo1b3E5cmlzdjUzNzhoM0AwLi5jMmRzL2pgLS1kLjZzYSMwLi5jMmRzL2pgLS1kLjZzcw%3D%3D&vvpl=1&l=02173103953905200000000000000000000ffff0a00a7d8bb39e0&btag=e00078000&format=mp3&mime_type=audio_mpeg",
        "source_timerange": {
            "start_offset": 4.437818181818159,
            "end_offset": 5.917090909090927
        },
        "target_timerange": {
            "start_offset": 260.5428181818182,
            "end_offset": 262.02209090909093
        },
        "ignore_audio": true,
        "audio_path": null
    },
    {
        "segment_id": "9bc418529d8811efa3727cd30a5182b8",
        "text": "drawing-room again, and",
        "audio_url": "https://v16m-default.akamaized.net/161a3347013c25ed2d8f4f73835501e3/672de5af/video/tos/maliva/tos-maliva-v-f15faa-us/ooFRRfIAkYuLOIkIBeWgdteoATG5FEAIBAnceb/?a=7073&bti=OTU0QDItLmA%3D&ch=0&cr=0&dr=4&er=0&lr=unwatermarked&cd=0%7C0%7C0%7C0&br=312&bt=156&ds=5&ft=.cwOVInz7Th9VGvOXq8Zmo&qs=13&rc=amo1b3E5cmlzdjUzNzhoM0Bpamo1b3E5cmlzdjUzNzhoM0AwLi5jMmRzL2pgLS1kLjZzYSMwLi5jMmRzL2pgLS1kLjZzcw%3D%3D&vvpl=1&l=02173103953905200000000000000000000ffff0a00a7d8bb39e0&btag=e00078000&format=mp3&mime_type=audio_mpeg",
        "source_timerange": {
            "start_offset": 5.917090909090916,
            "end_offset": 7.396363636363628
        },
        "target_timerange": {
            "start_offset": 262.02209090909093,
            "end_offset": 263.50136363636364
        },
        "ignore_audio": true,
        "audio_path": null
    },
    {
        "segment_id": "9bc419389d8811efa3727cd30a5182b8",
        "text": "when tea was over, glad to",
        "audio_url": "https://v16m-default.akamaized.net/161a3347013c25ed2d8f4f73835501e3/672de5af/video/tos/maliva/tos-maliva-v-f15faa-us/ooFRRfIAkYuLOIkIBeWgdteoATG5FEAIBAnceb/?a=7073&bti=OTU0QDItLmA%3D&ch=0&cr=0&dr=4&er=0&lr=unwatermarked&cd=0%7C0%7C0%7C0&br=312&bt=156&ds=5&ft=.cwOVInz7Th9VGvOXq8Zmo&qs=13&rc=amo1b3E5cmlzdjUzNzhoM0Bpamo1b3E5cmlzdjUzNzhoM0AwLi5jMmRzL2pgLS1kLjZzYSMwLi5jMmRzL2pgLS1kLjZzcw%3D%3D&vvpl=1&l=02173103953905200000000000000000000ffff0a00a7d8bb39e0&btag=e00078000&format=mp3&mime_type=audio_mpeg",
        "source_timerange": {
            "start_offset": 7.396363636363617,
            "end_offset": 8.875636363636385
        },
        "target_timerange": {
            "start_offset": 263.50136363636364,
            "end_offset": 264.9806363636364
        },
        "ignore_audio": true,
        "audio_path": null
    },
    {
        "segment_id": "9bc41a289d8811efa3727cd30a5182b8",
        "text": "invite him  [Illustration:",
        "audio_url": "https://v16m-default.akamaized.net/161a3347013c25ed2d8f4f73835501e3/672de5af/video/tos/maliva/tos-maliva-v-f15faa-us/ooFRRfIAkYuLOIkIBeWgdteoATG5FEAIBAnceb/?a=7073&bti=OTU0QDItLmA%3D&ch=0&cr=0&dr=4&er=0&lr=unwatermarked&cd=0%7C0%7C0%7C0&br=312&bt=156&ds=5&ft=.cwOVInz7Th9VGvOXq8Zmo&qs=13&rc=amo1b3E5cmlzdjUzNzhoM0Bpamo1b3E5cmlzdjUzNzhoM0AwLi5jMmRzL2pgLS1kLjZzYSMwLi5jMmRzL2pgLS1kLjZzcw%3D%3D&vvpl=1&l=02173103953905200000000000000000000ffff0a00a7d8bb39e0&btag=e00078000&format=mp3&mime_type=audio_mpeg",
        "source_timerange": {
            "start_offset": 8.875636363636374,
            "end_offset": 10.354909090909086
        },
        "target_timerange": {
            "start_offset": 264.9806363636364,
            "end_offset": 266.4599090909091
        },
        "ignore_audio": true,
        "audio_path": null
    },
    {
        "segment_id": "9bc41b0e9d8811efa3727cd30a5182b8",
        "text": "“Protested that he never",
        "audio_url": "https://v16m-default.akamaized.net/161a3347013c25ed2d8f4f73835501e3/672de5af/video/tos/maliva/tos-maliva-v-f15faa-us/ooFRRfIAkYuLOIkIBeWgdteoATG5FEAIBAnceb/?a=7073&bti=OTU0QDItLmA%3D&ch=0&cr=0&dr=4&er=0&lr=unwatermarked&cd=0%7C0%7C0%7C0&br=312&bt=156&ds=5&ft=.cwOVInz7Th9VGvOXq8Zmo&qs=13&rc=amo1b3E5cmlzdjUzNzhoM0Bpamo1b3E5cmlzdjUzNzhoM0AwLi5jMmRzL2pgLS1kLjZzYSMwLi5jMmRzL2pgLS1kLjZzcw%3D%3D&vvpl=1&l=02173103953905200000000000000000000ffff0a00a7d8bb39e0&btag=e00078000&format=mp3&mime_type=audio_mpeg",
        "source_timerange": {
            "start_offset": 10.354909090909075,
            "end_offset": 11.834181818181843
        },
        "target_timerange": {
            "start_offset": 266.4599090909091,
            "end_offset": 267.93918181818185
        },
        "ignore_audio": true,
        "audio_path": null
    },
    {
        "segment_id": "9bc41bea9d8811efa3727cd30a5182b8",
        "text": "read novels”      H.T Feb",
        "audio_url": "https://v16m-default.akamaized.net/161a3347013c25ed2d8f4f73835501e3/672de5af/video/tos/maliva/tos-maliva-v-f15faa-us/ooFRRfIAkYuLOIkIBeWgdteoATG5FEAIBAnceb/?a=7073&bti=OTU0QDItLmA%3D&ch=0&cr=0&dr=4&er=0&lr=unwatermarked&cd=0%7C0%7C0%7C0&br=312&bt=156&ds=5&ft=.cwOVInz7Th9VGvOXq8Zmo&qs=13&rc=amo1b3E5cmlzdjUzNzhoM0Bpamo1b3E5cmlzdjUzNzhoM0AwLi5jMmRzL2pgLS1kLjZzYSMwLi5jMmRzL2pgLS1kLjZzcw%3D%3D&vvpl=1&l=02173103953905200000000000000000000ffff0a00a7d8bb39e0&btag=e00078000&format=mp3&mime_type=audio_mpeg",
        "source_timerange": {
            "start_offset": 11.834181818181833,
            "end_offset": 13.313454545454544
        },
        "target_timerange": {
            "start_offset": 267.93918181818185,
            "end_offset": 269.41845454545455
        },
        "ignore_audio": true,
        "audio_path": null
    },
    {
        "segment_id": "9bc41cd09d8811efa3727cd30a5182b8",
        "text": "94 ]  to read aloud to the",
        "audio_url": "https://v16m-default.akamaized.net/161a3347013c25ed2d8f4f73835501e3/672de5af/video/tos/maliva/tos-maliva-v-f15faa-us/ooFRRfIAkYuLOIkIBeWgdteoATG5FEAIBAnceb/?a=7073&bti=OTU0QDItLmA%3D&ch=0&cr=0&dr=4&er=0&lr=unwatermarked&cd=0%7C0%7C0%7C0&br=312&bt=156&ds=5&ft=.cwOVInz7Th9VGvOXq8Zmo&qs=13&rc=amo1b3E5cmlzdjUzNzhoM0Bpamo1b3E5cmlzdjUzNzhoM0AwLi5jMmRzL2pgLS1kLjZzYSMwLi5jMmRzL2pgLS1kLjZzcw%3D%3D&vvpl=1&l=02173103953905200000000000000000000ffff0a00a7d8bb39e0&btag=e00078000&format=mp3&mime_type=audio_mpeg",
        "source_timerange": {
            "start_offset": 13.313454545454533,
            "end_offset": 14.792727272727301
        },
        "target_timerange": {
            "start_offset": 269.41845454545455,
            "end_offset": 270.8977272727273
        },
        "ignore_audio": true,
        "audio_path": null
    },
    {
        "segment_id": "9bc41e069d8811efa3727cd30a5182b8",
        "text": "ladies.",
        "audio_url": "https://v16m-default.akamaized.net/161a3347013c25ed2d8f4f73835501e3/672de5af/video/tos/maliva/tos-maliva-v-f15faa-us/ooFRRfIAkYuLOIkIBeWgdteoATG5FEAIBAnceb/?a=7073&bti=OTU0QDItLmA%3D&ch=0&cr=0&dr=4&er=0&lr=unwatermarked&cd=0%7C0%7C0%7C0&br=312&bt=156&ds=5&ft=.cwOVInz7Th9VGvOXq8Zmo&qs=13&rc=amo1b3E5cmlzdjUzNzhoM0Bpamo1b3E5cmlzdjUzNzhoM0AwLi5jMmRzL2pgLS1kLjZzYSMwLi5jMmRzL2pgLS1kLjZzcw%3D%3D&vvpl=1&l=02173103953905200000000000000000000ffff0a00a7d8bb39e0&btag=e00078000&format=mp3&mime_type=audio_mpeg",
        "source_timerange": {
            "start_offset": 14.79272727272729,
            "end_offset": 16.272000000000002
        },
        "target_timerange": {
            "start_offset": 270.8977272727273,
            "end_offset": 272.377
        },
        "ignore_audio": true,
        "audio_path": null
    },
    {
        "segment_id": "9bc4356c9d8811efa3727cd30a5182b8",
        "text": "Mr. Collins readily assented,",
        "audio_url": "https://v16m-default.akamaized.net/f380d8573b072657b456e13c23bd6870/672de5a6/video/tos/maliva/tos-maliva-v-f15faa-us/oUCFTPGeLAJftR2KAWe8uETFnsCQQkAeAckazI/?a=7073&bti=OTU0QDItLmA%3D&ch=0&cr=0&dr=4&er=0&lr=unwatermarked&cd=0%7C0%7C0%7C0&br=312&bt=156&ds=5&ft=.cwOVInz7Th9VGvOXq8Zmo&qs=13&rc=amw1d3U5cmlzdjUzNzhoM0Bpamw1d3U5cmlzdjUzNzhoM0BjNmgxMmRzL2pgLS1kLjZzYSNjNmgxMmRzL2pgLS1kLjZzcw%3D%3D&vvpl=1&l=02173103953905200000000000000000000ffff0a00a7d8bb39e0&btag=e00070000&format=mp3&mime_type=audio_mpeg",
        "source_timerange": {
            "start_offset": 0,
            "end_offset": 1.5312000000000072
        },
        "target_timerange": {
            "start_offset": 272.377,
            "end_offset": 273.9082
        },
        "ignore_audio": false,
        "audio_path": null
    },
    {
        "segment_id": "9bc437069d8811efa3727cd30a5182b8",
        "text": "and a book was produced; but",
        "audio_url": "https://v16m-default.akamaized.net/f380d8573b072657b456e13c23bd6870/672de5a6/video/tos/maliva/tos-maliva-v-f15faa-us/oUCFTPGeLAJftR2KAWe8uETFnsCQQkAeAckazI/?a=7073&bti=OTU0QDItLmA%3D&ch=0&cr=0&dr=4&er=0&lr=unwatermarked&cd=0%7C0%7C0%7C0&br=312&bt=156&ds=5&ft=.cwOVInz7Th9VGvOXq8Zmo&qs=13&rc=amw1d3U5cmlzdjUzNzhoM0Bpamw1d3U5cmlzdjUzNzhoM0BjNmgxMmRzL2pgLS1kLjZzYSNjNmgxMmRzL2pgLS1kLjZzcw%3D%3D&vvpl=1&l=02173103953905200000000000000000000ffff0a00a7d8bb39e0&btag=e00070000&format=mp3&mime_type=audio_mpeg",
        "source_timerange": {
            "start_offset": 1.5312000000000126,
            "end_offset": 3.0624000000000198
        },
        "target_timerange": {
            "start_offset": 273.9082,
            "end_offset": 275.43940000000003
        },
        "ignore_audio": true,
        "audio_path": null
    },
    {
        "segment_id": "9bc438829d8811efa3727cd30a5182b8",
        "text": "on beholding it (for",
        "audio_url": "https://v16m-default.akamaized.net/f380d8573b072657b456e13c23bd6870/672de5a6/video/tos/maliva/tos-maliva-v-f15faa-us/oUCFTPGeLAJftR2KAWe8uETFnsCQQkAeAckazI/?a=7073&bti=OTU0QDItLmA%3D&ch=0&cr=0&dr=4&er=0&lr=unwatermarked&cd=0%7C0%7C0%7C0&br=312&bt=156&ds=5&ft=.cwOVInz7Th9VGvOXq8Zmo&qs=13&rc=amw1d3U5cmlzdjUzNzhoM0Bpamw1d3U5cmlzdjUzNzhoM0BjNmgxMmRzL2pgLS1kLjZzYSNjNmgxMmRzL2pgLS1kLjZzcw%3D%3D&vvpl=1&l=02173103953905200000000000000000000ffff0a00a7d8bb39e0&btag=e00070000&format=mp3&mime_type=audio_mpeg",
        "source_timerange": {
            "start_offset": 3.062400000000025,
            "end_offset": 4.5935999999999755
        },
        "target_timerange": {
            "start_offset": 275.43940000000003,
            "end_offset": 276.9706
        },
        "ignore_audio": true,
        "audio_path": null
    },
    {
        "segment_id": "9bc439ea9d8811efa3727cd30a5182b8",
        "text": "everything announced it to be",
        "audio_url": "https://v16m-default.akamaized.net/f380d8573b072657b456e13c23bd6870/672de5a6/video/tos/maliva/tos-maliva-v-f15faa-us/oUCFTPGeLAJftR2KAWe8uETFnsCQQkAeAckazI/?a=7073&bti=OTU0QDItLmA%3D&ch=0&cr=0&dr=4&er=0&lr=unwatermarked&cd=0%7C0%7C0%7C0&br=312&bt=156&ds=5&ft=.cwOVInz7Th9VGvOXq8Zmo&qs=13&rc=amw1d3U5cmlzdjUzNzhoM0Bpamw1d3U5cmlzdjUzNzhoM0BjNmgxMmRzL2pgLS1kLjZzYSNjNmgxMmRzL2pgLS1kLjZzcw%3D%3D&vvpl=1&l=02173103953905200000000000000000000ffff0a00a7d8bb39e0&btag=e00070000&format=mp3&mime_type=audio_mpeg",
        "source_timerange": {
            "start_offset": 4.593599999999981,
            "end_offset": 6.124799999999988
        },
        "target_timerange": {
            "start_offset": 276.9706,
            "end_offset": 278.5018
        },
        "ignore_audio": true,
        "audio_path": null
    },
    {
        "segment_id": "9bc43b849d8811efa3727cd30a5182b8",
        "text": "from a circulating library)",
        "audio_url": "https://v16m-default.akamaized.net/f380d8573b072657b456e13c23bd6870/672de5a6/video/tos/maliva/tos-maliva-v-f15faa-us/oUCFTPGeLAJftR2KAWe8uETFnsCQQkAeAckazI/?a=7073&bti=OTU0QDItLmA%3D&ch=0&cr=0&dr=4&er=0&lr=unwatermarked&cd=0%7C0%7C0%7C0&br=312&bt=156&ds=5&ft=.cwOVInz7Th9VGvOXq8Zmo&qs=13&rc=amw1d3U5cmlzdjUzNzhoM0Bpamw1d3U5cmlzdjUzNzhoM0BjNmgxMmRzL2pgLS1kLjZzYSNjNmgxMmRzL2pgLS1kLjZzcw%3D%3D&vvpl=1&l=02173103953905200000000000000000000ffff0a00a7d8bb39e0&btag=e00070000&format=mp3&mime_type=audio_mpeg",
        "source_timerange": {
            "start_offset": 6.124799999999993,
            "end_offset": 7.656000000000001
        },
        "target_timerange": {
            "start_offset": 278.5018,
            "end_offset": 280.033
        },
        "ignore_audio": true,
        "audio_path": null
    },
    {
        "segment_id": "9bc454709d8811efa3727cd30a5182b8",
        "text": "he started back, and,",
        "audio_url": "https://v16m-default.akamaized.net/a4d77a1e551bb3e68e1b04d0417cc2f8/672de5a3/video/tos/maliva/tos-maliva-v-f15faa-us/oMdtryIlOESACACikCWFBAJEEODA78XLfgfDTf/?a=7073&bti=OTU0QDItLmA%3D&ch=0&cr=0&dr=4&er=0&lr=unwatermarked&cd=0%7C0%7C0%7C0&br=312&bt=156&ds=5&ft=.cwOVInz7Th9VGvOXq8Zmo&qs=13&rc=M3dyeWs5cmlzdjUzNzhoM0BpM3dyeWs5cmlzdjUzNzhoM0Axam1iMmRzL2pgLS1kLjZzYSMxam1iMmRzL2pgLS1kLjZzcw%3D%3D&vvpl=1&l=02173103953905200000000000000000000ffff0a00a7d8bb39e0&btag=e00070000&format=mp3&mime_type=audio_mpeg",
        "source_timerange": {
            "start_offset": 0,
            "end_offset": 1.6240000000000094
        },
        "target_timerange": {
            "start_offset": 280.033,
            "end_offset": 281.65700000000004
        },
        "ignore_audio": false,
        "audio_path": null
    },
    {
        "segment_id": "9bc456969d8811efa3727cd30a5182b8",
        "text": "begging pardon, protested",
        "audio_url": "https://v16m-default.akamaized.net/a4d77a1e551bb3e68e1b04d0417cc2f8/672de5a3/video/tos/maliva/tos-maliva-v-f15faa-us/oMdtryIlOESACACikCWFBAJEEODA78XLfgfDTf/?a=7073&bti=OTU0QDItLmA%3D&ch=0&cr=0&dr=4&er=0&lr=unwatermarked&cd=0%7C0%7C0%7C0&br=312&bt=156&ds=5&ft=.cwOVInz7Th9VGvOXq8Zmo&qs=13&rc=M3dyeWs5cmlzdjUzNzhoM0BpM3dyeWs5cmlzdjUzNzhoM0Axam1iMmRzL2pgLS1kLjZzYSMxam1iMmRzL2pgLS1kLjZzcw%3D%3D&vvpl=1&l=02173103953905200000000000000000000ffff0a00a7d8bb39e0&btag=e00070000&format=mp3&mime_type=audio_mpeg",
        "source_timerange": {
            "start_offset": 1.6240000000000236,
            "end_offset": 3.2479999999999762
        },
        "target_timerange": {
            "start_offset": 281.65700000000004,
            "end_offset": 283.281
        },
        "ignore_audio": true,
        "audio_path": null
    },
    {
        "segment_id": "9bc4584e9d8811efa3727cd30a5182b8",
        "text": "that he never read novels.",
        "audio_url": "https://v16m-default.akamaized.net/a4d77a1e551bb3e68e1b04d0417cc2f8/672de5a3/video/tos/maliva/tos-maliva-v-f15faa-us/oMdtryIlOESACACikCWFBAJEEODA78XLfgfDTf/?a=7073&bti=OTU0QDItLmA%3D&ch=0&cr=0&dr=4&er=0&lr=unwatermarked&cd=0%7C0%7C0%7C0&br=312&bt=156&ds=5&ft=.cwOVInz7Th9VGvOXq8Zmo&qs=13&rc=M3dyeWs5cmlzdjUzNzhoM0BpM3dyeWs5cmlzdjUzNzhoM0Axam1iMmRzL2pgLS1kLjZzYSMxam1iMmRzL2pgLS1kLjZzcw%3D%3D&vvpl=1&l=02173103953905200000000000000000000ffff0a00a7d8bb39e0&btag=e00070000&format=mp3&mime_type=audio_mpeg",
        "source_timerange": {
            "start_offset": 3.2479999999999905,
            "end_offset": 4.872
        },
        "target_timerange": {
            "start_offset": 283.281,
            "end_offset": 284.90500000000003
        },
        "ignore_audio": true,
        "audio_path": null
    },
    {
        "segment_id": "9bc46a289d8811efa3727cd30a5182b8",
        "text": "Kitty stared at him,",
        "audio_url": "https://v16m-default.akamaized.net/f6f1f2219ce00e1b15de1b5264d27350/672de5a1/video/tos/maliva/tos-maliva-v-f15faa-us/owThzfZtmQ9VBOAEAq0iLfBJkBLiEKkpnYEnAA/?a=7073&bti=OTU0QDItLmA%3D&ch=0&cr=0&dr=4&er=0&lr=unwatermarked&cd=0%7C0%7C0%7C0&br=312&bt=156&ds=5&ft=.cwOVInz7Th9VGvOXq8Zmo&qs=13&rc=anJkdG45cmlzdjUzNzhoM0BpanJkdG45cmlzdjUzNzhoM0BtYGFnMmRzL2pgLS1kLjZzYSNtYGFnMmRzL2pgLS1kLjZzcw%3D%3D&vvpl=1&l=02173103953905200000000000000000000ffff0a00a7d8bb39e0&btag=e00070000&format=mp3&mime_type=audio_mpeg",
        "source_timerange": {
            "start_offset": 0,
            "end_offset": 1.2240000000000104
        },
        "target_timerange": {
            "start_offset": 284.90500000000003,
            "end_offset": 286.129
        },
        "ignore_audio": false,
        "audio_path": null
    },
    {
        "segment_id": "9bc46d029d8811efa3727cd30a5182b8",
        "text": "and Lydia exclaimed.",
        "audio_url": "https://v16m-default.akamaized.net/f6f1f2219ce00e1b15de1b5264d27350/672de5a1/video/tos/maliva/tos-maliva-v-f15faa-us/owThzfZtmQ9VBOAEAq0iLfBJkBLiEKkpnYEnAA/?a=7073&bti=OTU0QDItLmA%3D&ch=0&cr=0&dr=4&er=0&lr=unwatermarked&cd=0%7C0%7C0%7C0&br=312&bt=156&ds=5&ft=.cwOVInz7Th9VGvOXq8Zmo&qs=13&rc=anJkdG45cmlzdjUzNzhoM0BpanJkdG45cmlzdjUzNzhoM0BtYGFnMmRzL2pgLS1kLjZzYSNtYGFnMmRzL2pgLS1kLjZzcw%3D%3D&vvpl=1&l=02173103953905200000000000000000000ffff0a00a7d8bb39e0&btag=e00070000&format=mp3&mime_type=audio_mpeg",
        "source_timerange": {
            "start_offset": 1.2239999999999895,
            "end_offset": 2.448
        },
        "target_timerange": {
            "start_offset": 286.129,
            "end_offset": 287.353
        },
        "ignore_audio": true,
        "audio_path": null
    },
    {
        "segment_id": "9bc486669d8811efa3727cd30a5182b8",
        "text": "Other books were produced, and",
        "audio_url": "https://v16m-default.akamaized.net/2bbd69e00fab7807970acbda48a9e57f/672de5a3/video/tos/maliva/tos-maliva-v-f15faa-us/ocyCPWABYFuoXCSAzO8fr3gAJEIcfC5DIbInfZ/?a=7073&bti=OTU0QDItLmA%3D&ch=0&cr=0&dr=4&er=0&lr=unwatermarked&cd=0%7C0%7C0%7C0&br=312&bt=156&ds=5&ft=.cwOVInz7Th9VGvOXq8Zmo&qs=13&rc=M3Y6NHg5cmlzdjUzNzhoM0BpM3Y6NHg5cmlzdjUzNzhoM0BuYnMzMmRzL2pgLS1kLjZzYSNuYnMzMmRzL2pgLS1kLjZzcw%3D%3D&vvpl=1&l=02173103953905200000000000000000000ffff0a00a7d8bb39e0&btag=e00070000&format=mp3&mime_type=audio_mpeg",
        "source_timerange": {
            "start_offset": 0,
            "end_offset": 1.6480000000000077
        },
        "target_timerange": {
            "start_offset": 287.353,
            "end_offset": 289.00100000000003
        },
        "ignore_audio": false,
        "audio_path": null
    },
    {
        "segment_id": "9bc488829d8811efa3727cd30a5182b8",
        "text": "after some deliberation he",
        "audio_url": "https://v16m-default.akamaized.net/2bbd69e00fab7807970acbda48a9e57f/672de5a3/video/tos/maliva/tos-maliva-v-f15faa-us/ocyCPWABYFuoXCSAzO8fr3gAJEIcfC5DIbInfZ/?a=7073&bti=OTU0QDItLmA%3D&ch=0&cr=0&dr=4&er=0&lr=unwatermarked&cd=0%7C0%7C0%7C0&br=312&bt=156&ds=5&ft=.cwOVInz7Th9VGvOXq8Zmo&qs=13&rc=M3Y6NHg5cmlzdjUzNzhoM0BpM3Y6NHg5cmlzdjUzNzhoM0BuYnMzMmRzL2pgLS1kLjZzYSNuYnMzMmRzL2pgLS1kLjZzcw%3D%3D&vvpl=1&l=02173103953905200000000000000000000ffff0a00a7d8bb39e0&btag=e00070000&format=mp3&mime_type=audio_mpeg",
        "source_timerange": {
            "start_offset": 1.6480000000000246,
            "end_offset": 3.2959999999999754
        },
        "target_timerange": {
            "start_offset": 289.00100000000003,
            "end_offset": 290.649
        },
        "ignore_audio": true,
        "audio_path": null
    },
    {
        "segment_id": "9bc48a269d8811efa3727cd30a5182b8",
        "text": "chose “Fordyce’s Sermons.”",
        "audio_url": "https://v16m-default.akamaized.net/2bbd69e00fab7807970acbda48a9e57f/672de5a3/video/tos/maliva/tos-maliva-v-f15faa-us/ocyCPWABYFuoXCSAzO8fr3gAJEIcfC5DIbInfZ/?a=7073&bti=OTU0QDItLmA%3D&ch=0&cr=0&dr=4&er=0&lr=unwatermarked&cd=0%7C0%7C0%7C0&br=312&bt=156&ds=5&ft=.cwOVInz7Th9VGvOXq8Zmo&qs=13&rc=M3Y6NHg5cmlzdjUzNzhoM0BpM3Y6NHg5cmlzdjUzNzhoM0BuYnMzMmRzL2pgLS1kLjZzYSNuYnMzMmRzL2pgLS1kLjZzcw%3D%3D&vvpl=1&l=02173103953905200000000000000000000ffff0a00a7d8bb39e0&btag=e00070000&format=mp3&mime_type=audio_mpeg",
        "source_timerange": {
            "start_offset": 3.2959999999999923,
            "end_offset": 4.944
        },
        "target_timerange": {
            "start_offset": 290.649,
            "end_offset": 292.297
        },
        "ignore_audio": true,
        "audio_path": null
    },
    {
        "segment_id": "9bc4cf549d8811efa3727cd30a5182b8",
        "text": "Lydia gaped as he opened",
        "audio_url": "https://v16m-default.akamaized.net/0bbe2ed67f4c1c5276452c0db03eadb7/672de5ab/video/tos/maliva/tos-maliva-v-f15faa-us/oUuAbLBfTtenGIXAWeoEkfFdAkInFBAIgcaRIQ/?a=7073&bti=OTU0QDItLmA%3D&ch=0&cr=0&dr=4&er=0&lr=unwatermarked&cd=0%7C0%7C0%7C0&br=312&bt=156&ds=5&ft=.cwOVInz7Th9VGvOXq8Zmo&qs=13&rc=M2o1b3E5cmlzdjUzNzhoM0BpM2o1b3E5cmlzdjUzNzhoM0AxLi5jMmRzL2pgLS1kLjZzYSMxLi5jMmRzL2pgLS1kLjZzcw%3D%3D&vvpl=1&l=02173103953905200000000000000000000ffff0a00a7d8bb39e0&btag=e00070000&format=mp3&mime_type=audio_mpeg",
        "source_timerange": {
            "start_offset": 0,
            "end_offset": 1.4320000000000395
        },
        "target_timerange": {
            "start_offset": 292.297,
            "end_offset": 293.72900000000004
        },
        "ignore_audio": false,
        "audio_path": null
    },
    {
        "segment_id": "9bc4d18e9d8811efa3727cd30a5182b8",
        "text": "the volume; and before he",
        "audio_url": "https://v16m-default.akamaized.net/0bbe2ed67f4c1c5276452c0db03eadb7/672de5ab/video/tos/maliva/tos-maliva-v-f15faa-us/oUuAbLBfTtenGIXAWeoEkfFdAkInFBAIgcaRIQ/?a=7073&bti=OTU0QDItLmA%3D&ch=0&cr=0&dr=4&er=0&lr=unwatermarked&cd=0%7C0%7C0%7C0&br=312&bt=156&ds=5&ft=.cwOVInz7Th9VGvOXq8Zmo&qs=13&rc=M2o1b3E5cmlzdjUzNzhoM0BpM2o1b3E5cmlzdjUzNzhoM0AxLi5jMmRzL2pgLS1kLjZzYSMxLi5jMmRzL2pgLS1kLjZzcw%3D%3D&vvpl=1&l=02173103953905200000000000000000000ffff0a00a7d8bb39e0&btag=e00070000&format=mp3&mime_type=audio_mpeg",
        "source_timerange": {
            "start_offset": 1.4320000000000164,
            "end_offset": 2.863999999999999
        },
        "target_timerange": {
            "start_offset": 293.72900000000004,
            "end_offset": 295.161
        },
        "ignore_audio": true,
        "audio_path": null
    },
    {
        "segment_id": "9bc4d33c9d8811efa3727cd30a5182b8",
        "text": "had, with very monotonous",
        "audio_url": "https://v16m-default.akamaized.net/0bbe2ed67f4c1c5276452c0db03eadb7/672de5ab/video/tos/maliva/tos-maliva-v-f15faa-us/oUuAbLBfTtenGIXAWeoEkfFdAkInFBAIgcaRIQ/?a=7073&bti=OTU0QDItLmA%3D&ch=0&cr=0&dr=4&er=0&lr=unwatermarked&cd=0%7C0%7C0%7C0&br=312&bt=156&ds=5&ft=.cwOVInz7Th9VGvOXq8Zmo&qs=13&rc=M2o1b3E5cmlzdjUzNzhoM0BpM2o1b3E5cmlzdjUzNzhoM0AxLi5jMmRzL2pgLS1kLjZzYSMxLi5jMmRzL2pgLS1kLjZzcw%3D%3D&vvpl=1&l=02173103953905200000000000000000000ffff0a00a7d8bb39e0&btag=e00070000&format=mp3&mime_type=audio_mpeg",
        "source_timerange": {
            "start_offset": 2.863999999999976,
            "end_offset": 4.296000000000015
        },
        "target_timerange": {
            "start_offset": 295.161,
            "end_offset": 296.593
        },
        "ignore_audio": true,
        "audio_path": null
    },
    {
        "segment_id": "9bc4d4f49d8811efa3727cd30a5182b8",
        "text": "solemnity, read three",
        "audio_url": "https://v16m-default.akamaized.net/0bbe2ed67f4c1c5276452c0db03eadb7/672de5ab/video/tos/maliva/tos-maliva-v-f15faa-us/oUuAbLBfTtenGIXAWeoEkfFdAkInFBAIgcaRIQ/?a=7073&bti=OTU0QDItLmA%3D&ch=0&cr=0&dr=4&er=0&lr=unwatermarked&cd=0%7C0%7C0%7C0&br=312&bt=156&ds=5&ft=.cwOVInz7Th9VGvOXq8Zmo&qs=13&rc=M2o1b3E5cmlzdjUzNzhoM0BpM2o1b3E5cmlzdjUzNzhoM0AxLi5jMmRzL2pgLS1kLjZzYSMxLi5jMmRzL2pgLS1kLjZzcw%3D%3D&vvpl=1&l=02173103953905200000000000000000000ffff0a00a7d8bb39e0&btag=e00070000&format=mp3&mime_type=audio_mpeg",
        "source_timerange": {
            "start_offset": 4.295999999999992,
            "end_offset": 5.728000000000032
        },
        "target_timerange": {
            "start_offset": 296.593,
            "end_offset": 298.02500000000003
        },
        "ignore_audio": true,
        "audio_path": null
    },
    {
        "segment_id": "9bc4d6ac9d8811efa3727cd30a5182b8",
        "text": "pages, she interrupted",
        "audio_url": "https://v16m-default.akamaized.net/0bbe2ed67f4c1c5276452c0db03eadb7/672de5ab/video/tos/maliva/tos-maliva-v-f15faa-us/oUuAbLBfTtenGIXAWeoEkfFdAkInFBAIgcaRIQ/?a=7073&bti=OTU0QDItLmA%3D&ch=0&cr=0&dr=4&er=0&lr=unwatermarked&cd=0%7C0%7C0%7C0&br=312&bt=156&ds=5&ft=.cwOVInz7Th9VGvOXq8Zmo&qs=13&rc=M2o1b3E5cmlzdjUzNzhoM0BpM2o1b3E5cmlzdjUzNzhoM0AxLi5jMmRzL2pgLS1kLjZzYSMxLi5jMmRzL2pgLS1kLjZzcw%3D%3D&vvpl=1&l=02173103953905200000000000000000000ffff0a00a7d8bb39e0&btag=e00070000&format=mp3&mime_type=audio_mpeg",
        "source_timerange": {
            "start_offset": 5.728000000000009,
            "end_offset": 7.159999999999991
        },
        "target_timerange": {
            "start_offset": 298.02500000000003,
            "end_offset": 299.457
        },
        "ignore_audio": true,
        "audio_path": null
    },
    {
        "segment_id": "9bc4d8469d8811efa3727cd30a5182b8",
        "text": "him with,--  “Do you",
        "audio_url": "https://v16m-default.akamaized.net/0bbe2ed67f4c1c5276452c0db03eadb7/672de5ab/video/tos/maliva/tos-maliva-v-f15faa-us/oUuAbLBfTtenGIXAWeoEkfFdAkInFBAIgcaRIQ/?a=7073&bti=OTU0QDItLmA%3D&ch=0&cr=0&dr=4&er=0&lr=unwatermarked&cd=0%7C0%7C0%7C0&br=312&bt=156&ds=5&ft=.cwOVInz7Th9VGvOXq8Zmo&qs=13&rc=M2o1b3E5cmlzdjUzNzhoM0BpM2o1b3E5cmlzdjUzNzhoM0AxLi5jMmRzL2pgLS1kLjZzYSMxLi5jMmRzL2pgLS1kLjZzcw%3D%3D&vvpl=1&l=02173103953905200000000000000000000ffff0a00a7d8bb39e0&btag=e00070000&format=mp3&mime_type=audio_mpeg",
        "source_timerange": {
            "start_offset": 7.159999999999968,
            "end_offset": 8.592000000000008
        },
        "target_timerange": {
            "start_offset": 299.457,
            "end_offset": 300.889
        },
        "ignore_audio": true,
        "audio_path": null
    },
    {
        "segment_id": "9bc4d9ea9d8811efa3727cd30a5182b8",
        "text": "know, mamma, that my",
        "audio_url": "https://v16m-default.akamaized.net/0bbe2ed67f4c1c5276452c0db03eadb7/672de5ab/video/tos/maliva/tos-maliva-v-f15faa-us/oUuAbLBfTtenGIXAWeoEkfFdAkInFBAIgcaRIQ/?a=7073&bti=OTU0QDItLmA%3D&ch=0&cr=0&dr=4&er=0&lr=unwatermarked&cd=0%7C0%7C0%7C0&br=312&bt=156&ds=5&ft=.cwOVInz7Th9VGvOXq8Zmo&qs=13&rc=M2o1b3E5cmlzdjUzNzhoM0BpM2o1b3E5cmlzdjUzNzhoM0AxLi5jMmRzL2pgLS1kLjZzYSMxLi5jMmRzL2pgLS1kLjZzcw%3D%3D&vvpl=1&l=02173103953905200000000000000000000ffff0a00a7d8bb39e0&btag=e00070000&format=mp3&mime_type=audio_mpeg",
        "source_timerange": {
            "start_offset": 8.591999999999985,
            "end_offset": 10.024000000000024
        },
        "target_timerange": {
            "start_offset": 300.889,
            "end_offset": 302.321
        },
        "ignore_audio": true,
        "audio_path": null
    },
    {
        "segment_id": "9bc4dbac9d8811efa3727cd30a5182b8",
        "text": "uncle Philips talks of",
        "audio_url": "https://v16m-default.akamaized.net/0bbe2ed67f4c1c5276452c0db03eadb7/672de5ab/video/tos/maliva/tos-maliva-v-f15faa-us/oUuAbLBfTtenGIXAWeoEkfFdAkInFBAIgcaRIQ/?a=7073&bti=OTU0QDItLmA%3D&ch=0&cr=0&dr=4&er=0&lr=unwatermarked&cd=0%7C0%7C0%7C0&br=312&bt=156&ds=5&ft=.cwOVInz7Th9VGvOXq8Zmo&qs=13&rc=M2o1b3E5cmlzdjUzNzhoM0BpM2o1b3E5cmlzdjUzNzhoM0AxLi5jMmRzL2pgLS1kLjZzYSMxLi5jMmRzL2pgLS1kLjZzcw%3D%3D&vvpl=1&l=02173103953905200000000000000000000ffff0a00a7d8bb39e0&btag=e00070000&format=mp3&mime_type=audio_mpeg",
        "source_timerange": {
            "start_offset": 10.024000000000001,
            "end_offset": 11.455999999999984
        },
        "target_timerange": {
            "start_offset": 302.321,
            "end_offset": 303.753
        },
        "ignore_audio": true,
        "audio_path": null
    },
    {
        "segment_id": "9bc4dd469d8811efa3727cd30a5182b8",
        "text": "turning away Richard?",
        "audio_url": "https://v16m-default.akamaized.net/0bbe2ed67f4c1c5276452c0db03eadb7/672de5ab/video/tos/maliva/tos-maliva-v-f15faa-us/oUuAbLBfTtenGIXAWeoEkfFdAkInFBAIgcaRIQ/?a=7073&bti=OTU0QDItLmA%3D&ch=0&cr=0&dr=4&er=0&lr=unwatermarked&cd=0%7C0%7C0%7C0&br=312&bt=156&ds=5&ft=.cwOVInz7Th9VGvOXq8Zmo&qs=13&rc=M2o1b3E5cmlzdjUzNzhoM0BpM2o1b3E5cmlzdjUzNzhoM0AxLi5jMmRzL2pgLS1kLjZzYSMxLi5jMmRzL2pgLS1kLjZzcw%3D%3D&vvpl=1&l=02173103953905200000000000000000000ffff0a00a7d8bb39e0&btag=e00070000&format=mp3&mime_type=audio_mpeg",
        "source_timerange": {
            "start_offset": 11.45599999999996,
            "end_offset": 12.888
        },
        "target_timerange": {
            "start_offset": 303.753,
            "end_offset": 305.185
        },
        "ignore_audio": true,
        "audio_path": null
    },
    {
        "segment_id": "9bc4f0749d8811efa3727cd30a5182b8",
        "text": "and if he does, Colonel",
        "audio_url": "https://v16m-default.akamaized.net/f95cb78bcb2915c872b9c67f98bb7393/672de5a2/video/tos/maliva/tos-maliva-v-f15faa-us/oUWTnALctuUeFzfAQUekBWIEkfb8IzpAF8kAIM/?a=7073&bti=OTU0QDItLmA%3D&ch=0&cr=0&dr=4&er=0&lr=unwatermarked&cd=0%7C0%7C0%7C0&br=312&bt=156&ds=5&ft=.cwOVInz7Th9VGvOXq8Zmo&qs=13&rc=M3M8c2w5cmlzdjUzNzhoM0BpM3M8c2w5cmlzdjUzNzhoM0BtcnFnMmRzL2pgLS1kLjZzYSNtcnFnMmRzL2pgLS1kLjZzcw%3D%3D&vvpl=1&l=02173103953905200000000000000000000ffff0a00a7d8bb39e0&btag=e00070000&format=mp3&mime_type=audio_mpeg",
        "source_timerange": {
            "start_offset": 0,
            "end_offset": 1.5719999999999974
        },
        "target_timerange": {
            "start_offset": 305.185,
            "end_offset": 306.757
        },
        "ignore_audio": false,
        "audio_path": null
    },
    {
        "segment_id": "9bc4f2729d8811efa3727cd30a5182b8",
        "text": "Forster will hire him.",
        "audio_url": "https://v16m-default.akamaized.net/f95cb78bcb2915c872b9c67f98bb7393/672de5a2/video/tos/maliva/tos-maliva-v-f15faa-us/oUWTnALctuUeFzfAQUekBWIEkfb8IzpAF8kAIM/?a=7073&bti=OTU0QDItLmA%3D&ch=0&cr=0&dr=4&er=0&lr=unwatermarked&cd=0%7C0%7C0%7C0&br=312&bt=156&ds=5&ft=.cwOVInz7Th9VGvOXq8Zmo&qs=13&rc=M3M8c2w5cmlzdjUzNzhoM0BpM3M8c2w5cmlzdjUzNzhoM0BtcnFnMmRzL2pgLS1kLjZzYSNtcnFnMmRzL2pgLS1kLjZzcw%3D%3D&vvpl=1&l=02173103953905200000000000000000000ffff0a00a7d8bb39e0&btag=e00070000&format=mp3&mime_type=audio_mpeg",
        "source_timerange": {
            "start_offset": 1.5720000000000027,
            "end_offset": 3.144
        },
        "target_timerange": {
            "start_offset": 306.757,
            "end_offset": 308.329
        },
        "ignore_audio": true,
        "audio_path": null
    },
    {
        "segment_id": "9bc50ae69d8811efa3727cd30a5182b8",
        "text": "My aunt told me so",
        "audio_url": "https://v16m-default.akamaized.net/c8cc695702c0549980010ef19bc9b0f6/672de5a1/video/tos/maliva/tos-maliva-v-f15faa-us/oc0O9UJyAXAnArePgIFSWISDffUXHnyECCCBbI/?a=7073&bti=OTU0QDItLmA%3D&ch=0&cr=0&dr=4&er=0&lr=unwatermarked&cd=0%7C0%7C0%7C0&br=312&bt=156&ds=5&ft=.cwOVInz7Th9VGvOXq8Zmo&qs=13&rc=amU3NW05cmlzdjUzNzhoM0BpamU3NW05cmlzdjUzNzhoM0BoNGdxMmRzL2pgLS1kLjZzYSNoNGdxMmRzL2pgLS1kLjZzcw%3D%3D&vvpl=1&l=02173103953905200000000000000000000ffff0a00a7d8bb39e0&btag=e00070000&format=mp3&mime_type=audio_mpeg",
        "source_timerange": {
            "start_offset": 0,
            "end_offset": 1.2240000000000104
        },
        "target_timerange": {
            "start_offset": 308.329,
            "end_offset": 309.553
        },
        "ignore_audio": false,
        "audio_path": null
    },
    {
        "segment_id": "9bc50ca89d8811efa3727cd30a5182b8",
        "text": "herself on Saturday.",
        "audio_url": "https://v16m-default.akamaized.net/c8cc695702c0549980010ef19bc9b0f6/672de5a1/video/tos/maliva/tos-maliva-v-f15faa-us/oc0O9UJyAXAnArePgIFSWISDffUXHnyECCCBbI/?a=7073&bti=OTU0QDItLmA%3D&ch=0&cr=0&dr=4&er=0&lr=unwatermarked&cd=0%7C0%7C0%7C0&br=312&bt=156&ds=5&ft=.cwOVInz7Th9VGvOXq8Zmo&qs=13&rc=amU3NW05cmlzdjUzNzhoM0BpamU3NW05cmlzdjUzNzhoM0BoNGdxMmRzL2pgLS1kLjZzYSNoNGdxMmRzL2pgLS1kLjZzcw%3D%3D&vvpl=1&l=02173103953905200000000000000000000ffff0a00a7d8bb39e0&btag=e00070000&format=mp3&mime_type=audio_mpeg",
        "source_timerange": {
            "start_offset": 1.2239999999999895,
            "end_offset": 2.448
        },
        "target_timerange": {
            "start_offset": 309.553,
            "end_offset": 310.777
        },
        "ignore_audio": true,
        "audio_path": null
    },
    {
        "segment_id": "9bc5281e9d8811efa3727cd30a5182b8",
        "text": "I shall walk to Meryton to-",
        "audio_url": "https://v16m-default.akamaized.net/cb25da02ff936de9917c061dac07c540/672de5a4/video/tos/maliva/tos-maliva-v-f15faa-us/oQAHIyerDIBn0brJXdFASdrfpCfUOACIEAg1CW/?a=7073&bti=OTU0QDItLmA%3D&ch=0&cr=0&dr=4&er=0&lr=unwatermarked&cd=0%7C0%7C0%7C0&br=312&bt=156&ds=5&ft=.cwOVInz7Th9VGvOXq8Zmo&qs=13&rc=M25oeG85cmlzdjUzNzhoM0BpM25oeG85cmlzdjUzNzhoM0BxcWhuMmRzL2pgLS1kLjZzYSNxcWhuMmRzL2pgLS1kLjZzcw%3D%3D&vvpl=1&l=02173103953905200000000000000000000ffff0a00a7d8bb39e0&btag=e00070000&format=mp3&mime_type=audio_mpeg",
        "source_timerange": {
            "start_offset": 0,
            "end_offset": 1.464000000000004
        },
        "target_timerange": {
            "start_offset": 310.777,
            "end_offset": 312.241
        },
        "ignore_audio": false,
        "audio_path": null
    },
    {
        "segment_id": "9bc529e09d8811efa3727cd30a5182b8",
        "text": "morrow to hear more about it,",
        "audio_url": "https://v16m-default.akamaized.net/cb25da02ff936de9917c061dac07c540/672de5a4/video/tos/maliva/tos-maliva-v-f15faa-us/oQAHIyerDIBn0brJXdFASdrfpCfUOACIEAg1CW/?a=7073&bti=OTU0QDItLmA%3D&ch=0&cr=0&dr=4&er=0&lr=unwatermarked&cd=0%7C0%7C0%7C0&br=312&bt=156&ds=5&ft=.cwOVInz7Th9VGvOXq8Zmo&qs=13&rc=M25oeG85cmlzdjUzNzhoM0BpM25oeG85cmlzdjUzNzhoM0BxcWhuMmRzL2pgLS1kLjZzYSNxcWhuMmRzL2pgLS1kLjZzcw%3D%3D&vvpl=1&l=02173103953905200000000000000000000ffff0a00a7d8bb39e0&btag=e00070000&format=mp3&mime_type=audio_mpeg",
        "source_timerange": {
            "start_offset": 1.4639999999999986,
            "end_offset": 2.9280000000000026
        },
        "target_timerange": {
            "start_offset": 312.241,
            "end_offset": 313.705
        },
        "ignore_audio": true,
        "audio_path": null
    },
    {
        "segment_id": "9bc52b669d8811efa3727cd30a5182b8",
        "text": "and to ask when Mr. Denny",
        "audio_url": "https://v16m-default.akamaized.net/cb25da02ff936de9917c061dac07c540/672de5a4/video/tos/maliva/tos-maliva-v-f15faa-us/oQAHIyerDIBn0brJXdFASdrfpCfUOACIEAg1CW/?a=7073&bti=OTU0QDItLmA%3D&ch=0&cr=0&dr=4&er=0&lr=unwatermarked&cd=0%7C0%7C0%7C0&br=312&bt=156&ds=5&ft=.cwOVInz7Th9VGvOXq8Zmo&qs=13&rc=M25oeG85cmlzdjUzNzhoM0BpM25oeG85cmlzdjUzNzhoM0BxcWhuMmRzL2pgLS1kLjZzYSNxcWhuMmRzL2pgLS1kLjZzcw%3D%3D&vvpl=1&l=02173103953905200000000000000000000ffff0a00a7d8bb39e0&btag=e00070000&format=mp3&mime_type=audio_mpeg",
        "source_timerange": {
            "start_offset": 2.9279999999999973,
            "end_offset": 4.392000000000001
        },
        "target_timerange": {
            "start_offset": 313.705,
            "end_offset": 315.169
        },
        "ignore_audio": true,
        "audio_path": null
    },
    {
        "segment_id": "9bc52cce9d8811efa3727cd30a5182b8",
        "text": "comes back from town.”",
        "audio_url": "https://v16m-default.akamaized.net/cb25da02ff936de9917c061dac07c540/672de5a4/video/tos/maliva/tos-maliva-v-f15faa-us/oQAHIyerDIBn0brJXdFASdrfpCfUOACIEAg1CW/?a=7073&bti=OTU0QDItLmA%3D&ch=0&cr=0&dr=4&er=0&lr=unwatermarked&cd=0%7C0%7C0%7C0&br=312&bt=156&ds=5&ft=.cwOVInz7Th9VGvOXq8Zmo&qs=13&rc=M25oeG85cmlzdjUzNzhoM0BpM25oeG85cmlzdjUzNzhoM0BxcWhuMmRzL2pgLS1kLjZzYSNxcWhuMmRzL2pgLS1kLjZzcw%3D%3D&vvpl=1&l=02173103953905200000000000000000000ffff0a00a7d8bb39e0&btag=e00070000&format=mp3&mime_type=audio_mpeg",
        "source_timerange": {
            "start_offset": 4.391999999999996,
            "end_offset": 5.856
        },
        "target_timerange": {
            "start_offset": 315.169,
            "end_offset": 316.633
        },
        "ignore_audio": true,
        "audio_path": null
    },
    {
        "segment_id": "9bc56d1a9d8811efa3727cd30a5182b8",
        "text": "Lydia was bid by her two",
        "audio_url": "https://v16m-default.akamaized.net/7c09718c3b112fac1ec3b289b27f5351/672de5ae/video/tos/maliva/tos-maliva-v-f15faa-us/ocqrhWEBgArRfbSnCZJfI2gIDfX7FCA8RCAOyI/?a=7073&bti=OTU0QDItLmA%3D&ch=0&cr=0&dr=4&er=0&lr=unwatermarked&cd=0%7C0%7C0%7C0&br=312&bt=156&ds=5&ft=.cwOVInz7Th9VGvOXq8Zmo&qs=13&rc=angzdWo5cmlzdjUzNzhoM0BpangzdWo5cmlzdjUzNzhoM0BeZTNuMmRzL2pgLS1kLjZzYSNeZTNuMmRzL2pgLS1kLjZzcw%3D%3D&vvpl=1&l=02173103953905200000000000000000000ffff0a00a7d8bb39e0&btag=e00078000&format=mp3&mime_type=audio_mpeg",
        "source_timerange": {
            "start_offset": 0,
            "end_offset": 1.4378181818181286
        },
        "target_timerange": {
            "start_offset": 316.633,
            "end_offset": 318.07081818181814
        },
        "ignore_audio": false,
        "audio_path": null
    },
    {
        "segment_id": "9bc56f869d8811efa3727cd30a5182b8",
        "text": "eldest sisters to hold her",
        "audio_url": "https://v16m-default.akamaized.net/7c09718c3b112fac1ec3b289b27f5351/672de5ae/video/tos/maliva/tos-maliva-v-f15faa-us/ocqrhWEBgArRfbSnCZJfI2gIDfX7FCA8RCAOyI/?a=7073&bti=OTU0QDItLmA%3D&ch=0&cr=0&dr=4&er=0&lr=unwatermarked&cd=0%7C0%7C0%7C0&br=312&bt=156&ds=5&ft=.cwOVInz7Th9VGvOXq8Zmo&qs=13&rc=angzdWo5cmlzdjUzNzhoM0BpangzdWo5cmlzdjUzNzhoM0BeZTNuMmRzL2pgLS1kLjZzYSNeZTNuMmRzL2pgLS1kLjZzcw%3D%3D&vvpl=1&l=02173103953905200000000000000000000ffff0a00a7d8bb39e0&btag=e00078000&format=mp3&mime_type=audio_mpeg",
        "source_timerange": {
            "start_offset": 1.4378181818181588,
            "end_offset": 2.8756363636363442
        },
        "target_timerange": {
            "start_offset": 318.07081818181814,
            "end_offset": 319.50863636363636
        },
        "ignore_audio": true,
        "audio_path": null
    },
    {
        "segment_id": "9bc571349d8811efa3727cd30a5182b8",
        "text": "tongue; but Mr. Collins,",
        "audio_url": "https://v16m-default.akamaized.net/7c09718c3b112fac1ec3b289b27f5351/672de5ae/video/tos/maliva/tos-maliva-v-f15faa-us/ocqrhWEBgArRfbSnCZJfI2gIDfX7FCA8RCAOyI/?a=7073&bti=OTU0QDItLmA%3D&ch=0&cr=0&dr=4&er=0&lr=unwatermarked&cd=0%7C0%7C0%7C0&br=312&bt=156&ds=5&ft=.cwOVInz7Th9VGvOXq8Zmo&qs=13&rc=angzdWo5cmlzdjUzNzhoM0BpangzdWo5cmlzdjUzNzhoM0BeZTNuMmRzL2pgLS1kLjZzYSNeZTNuMmRzL2pgLS1kLjZzcw%3D%3D&vvpl=1&l=02173103953905200000000000000000000ffff0a00a7d8bb39e0&btag=e00078000&format=mp3&mime_type=audio_mpeg",
        "source_timerange": {
            "start_offset": 2.8756363636363744,
            "end_offset": 4.313454545454503
        },
        "target_timerange": {
            "start_offset": 319.50863636363636,
            "end_offset": 320.9464545454545
        },
        "ignore_audio": true,
        "audio_path": null
    },
    {
        "segment_id": "9bc572ec9d8811efa3727cd30a5182b8",
        "text": "much offended, laid aside",
        "audio_url": "https://v16m-default.akamaized.net/7c09718c3b112fac1ec3b289b27f5351/672de5ae/video/tos/maliva/tos-maliva-v-f15faa-us/ocqrhWEBgArRfbSnCZJfI2gIDfX7FCA8RCAOyI/?a=7073&bti=OTU0QDItLmA%3D&ch=0&cr=0&dr=4&er=0&lr=unwatermarked&cd=0%7C0%7C0%7C0&br=312&bt=156&ds=5&ft=.cwOVInz7Th9VGvOXq8Zmo&qs=13&rc=angzdWo5cmlzdjUzNzhoM0BpangzdWo5cmlzdjUzNzhoM0BeZTNuMmRzL2pgLS1kLjZzYSNeZTNuMmRzL2pgLS1kLjZzcw%3D%3D&vvpl=1&l=02173103953905200000000000000000000ffff0a00a7d8bb39e0&btag=e00078000&format=mp3&mime_type=audio_mpeg",
        "source_timerange": {
            "start_offset": 4.313454545454533,
            "end_offset": 5.751272727272719
        },
        "target_timerange": {
            "start_offset": 320.9464545454545,
            "end_offset": 322.38427272727273
        },
        "ignore_audio": true,
        "audio_path": null
    },
    {
        "segment_id": "9bc5747c9d8811efa3727cd30a5182b8",
        "text": "his book, and said,--  “I",
        "audio_url": "https://v16m-default.akamaized.net/7c09718c3b112fac1ec3b289b27f5351/672de5ae/video/tos/maliva/tos-maliva-v-f15faa-us/ocqrhWEBgArRfbSnCZJfI2gIDfX7FCA8RCAOyI/?a=7073&bti=OTU0QDItLmA%3D&ch=0&cr=0&dr=4&er=0&lr=unwatermarked&cd=0%7C0%7C0%7C0&br=312&bt=156&ds=5&ft=.cwOVInz7Th9VGvOXq8Zmo&qs=13&rc=angzdWo5cmlzdjUzNzhoM0BpangzdWo5cmlzdjUzNzhoM0BeZTNuMmRzL2pgLS1kLjZzYSNeZTNuMmRzL2pgLS1kLjZzcw%3D%3D&vvpl=1&l=02173103953905200000000000000000000ffff0a00a7d8bb39e0&btag=e00078000&format=mp3&mime_type=audio_mpeg",
        "source_timerange": {
            "start_offset": 5.751272727272749,
            "end_offset": 7.1890909090908774
        },
        "target_timerange": {
            "start_offset": 322.38427272727273,
            "end_offset": 323.8220909090909
        },
        "ignore_audio": true,
        "audio_path": null
    },
    {
        "segment_id": "9bc576169d8811efa3727cd30a5182b8",
        "text": "have often observed how",
        "audio_url": "https://v16m-default.akamaized.net/7c09718c3b112fac1ec3b289b27f5351/672de5ae/video/tos/maliva/tos-maliva-v-f15faa-us/ocqrhWEBgArRfbSnCZJfI2gIDfX7FCA8RCAOyI/?a=7073&bti=OTU0QDItLmA%3D&ch=0&cr=0&dr=4&er=0&lr=unwatermarked&cd=0%7C0%7C0%7C0&br=312&bt=156&ds=5&ft=.cwOVInz7Th9VGvOXq8Zmo&qs=13&rc=angzdWo5cmlzdjUzNzhoM0BpangzdWo5cmlzdjUzNzhoM0BeZTNuMmRzL2pgLS1kLjZzYSNeZTNuMmRzL2pgLS1kLjZzcw%3D%3D&vvpl=1&l=02173103953905200000000000000000000ffff0a00a7d8bb39e0&btag=e00078000&format=mp3&mime_type=audio_mpeg",
        "source_timerange": {
            "start_offset": 7.189090909090908,
            "end_offset": 8.626909090909093
        },
        "target_timerange": {
            "start_offset": 323.8220909090909,
            "end_offset": 325.2599090909091
        },
        "ignore_audio": true,
        "audio_path": null
    },
    {
        "segment_id": "9bc577c49d8811efa3727cd30a5182b8",
        "text": "little young ladies are",
        "audio_url": "https://v16m-default.akamaized.net/7c09718c3b112fac1ec3b289b27f5351/672de5ae/video/tos/maliva/tos-maliva-v-f15faa-us/ocqrhWEBgArRfbSnCZJfI2gIDfX7FCA8RCAOyI/?a=7073&bti=OTU0QDItLmA%3D&ch=0&cr=0&dr=4&er=0&lr=unwatermarked&cd=0%7C0%7C0%7C0&br=312&bt=156&ds=5&ft=.cwOVInz7Th9VGvOXq8Zmo&qs=13&rc=angzdWo5cmlzdjUzNzhoM0BpangzdWo5cmlzdjUzNzhoM0BeZTNuMmRzL2pgLS1kLjZzYSNeZTNuMmRzL2pgLS1kLjZzcw%3D%3D&vvpl=1&l=02173103953905200000000000000000000ffff0a00a7d8bb39e0&btag=e00078000&format=mp3&mime_type=audio_mpeg",
        "source_timerange": {
            "start_offset": 8.626909090909123,
            "end_offset": 10.064727272727252
        },
        "target_timerange": {
            "start_offset": 325.2599090909091,
            "end_offset": 326.69772727272726
        },
        "ignore_audio": true,
        "audio_path": null
    },
    {
        "segment_id": "9bc579549d8811efa3727cd30a5182b8",
        "text": "interested by books of a",
        "audio_url": "https://v16m-default.akamaized.net/7c09718c3b112fac1ec3b289b27f5351/672de5ae/video/tos/maliva/tos-maliva-v-f15faa-us/ocqrhWEBgArRfbSnCZJfI2gIDfX7FCA8RCAOyI/?a=7073&bti=OTU0QDItLmA%3D&ch=0&cr=0&dr=4&er=0&lr=unwatermarked&cd=0%7C0%7C0%7C0&br=312&bt=156&ds=5&ft=.cwOVInz7Th9VGvOXq8Zmo&qs=13&rc=angzdWo5cmlzdjUzNzhoM0BpangzdWo5cmlzdjUzNzhoM0BeZTNuMmRzL2pgLS1kLjZzYSNeZTNuMmRzL2pgLS1kLjZzcw%3D%3D&vvpl=1&l=02173103953905200000000000000000000ffff0a00a7d8bb39e0&btag=e00078000&format=mp3&mime_type=audio_mpeg",
        "source_timerange": {
            "start_offset": 10.064727272727282,
            "end_offset": 11.502545454545468
        },
        "target_timerange": {
            "start_offset": 326.69772727272726,
            "end_offset": 328.1355454545455
        },
        "ignore_audio": true,
        "audio_path": null
    },
    {
        "segment_id": "9bc57ae49d8811efa3727cd30a5182b8",
        "text": "serious stamp, though",
        "audio_url": "https://v16m-default.akamaized.net/7c09718c3b112fac1ec3b289b27f5351/672de5ae/video/tos/maliva/tos-maliva-v-f15faa-us/ocqrhWEBgArRfbSnCZJfI2gIDfX7FCA8RCAOyI/?a=7073&bti=OTU0QDItLmA%3D&ch=0&cr=0&dr=4&er=0&lr=unwatermarked&cd=0%7C0%7C0%7C0&br=312&bt=156&ds=5&ft=.cwOVInz7Th9VGvOXq8Zmo&qs=13&rc=angzdWo5cmlzdjUzNzhoM0BpangzdWo5cmlzdjUzNzhoM0BeZTNuMmRzL2pgLS1kLjZzYSNeZTNuMmRzL2pgLS1kLjZzcw%3D%3D&vvpl=1&l=02173103953905200000000000000000000ffff0a00a7d8bb39e0&btag=e00078000&format=mp3&mime_type=audio_mpeg",
        "source_timerange": {
            "start_offset": 11.502545454545498,
            "end_offset": 12.940363636363626
        },
        "target_timerange": {
            "start_offset": 328.1355454545455,
            "end_offset": 329.57336363636364
        },
        "ignore_audio": true,
        "audio_path": null
    },
    {
        "segment_id": "9bc57c6a9d8811efa3727cd30a5182b8",
        "text": "written solely for their",
        "audio_url": "https://v16m-default.akamaized.net/7c09718c3b112fac1ec3b289b27f5351/672de5ae/video/tos/maliva/tos-maliva-v-f15faa-us/ocqrhWEBgArRfbSnCZJfI2gIDfX7FCA8RCAOyI/?a=7073&bti=OTU0QDItLmA%3D&ch=0&cr=0&dr=4&er=0&lr=unwatermarked&cd=0%7C0%7C0%7C0&br=312&bt=156&ds=5&ft=.cwOVInz7Th9VGvOXq8Zmo&qs=13&rc=angzdWo5cmlzdjUzNzhoM0BpangzdWo5cmlzdjUzNzhoM0BeZTNuMmRzL2pgLS1kLjZzYSNeZTNuMmRzL2pgLS1kLjZzcw%3D%3D&vvpl=1&l=02173103953905200000000000000000000ffff0a00a7d8bb39e0&btag=e00078000&format=mp3&mime_type=audio_mpeg",
        "source_timerange": {
            "start_offset": 12.940363636363656,
            "end_offset": 14.378181818181842
        },
        "target_timerange": {
            "start_offset": 329.57336363636364,
            "end_offset": 331.01118181818185
        },
        "ignore_audio": true,
        "audio_path": null
    },
    {
        "segment_id": "9bc57ee09d8811efa3727cd30a5182b8",
        "text": "benefit.",
        "audio_url": "https://v16m-default.akamaized.net/7c09718c3b112fac1ec3b289b27f5351/672de5ae/video/tos/maliva/tos-maliva-v-f15faa-us/ocqrhWEBgArRfbSnCZJfI2gIDfX7FCA8RCAOyI/?a=7073&bti=OTU0QDItLmA%3D&ch=0&cr=0&dr=4&er=0&lr=unwatermarked&cd=0%7C0%7C0%7C0&br=312&bt=156&ds=5&ft=.cwOVInz7Th9VGvOXq8Zmo&qs=13&rc=angzdWo5cmlzdjUzNzhoM0BpangzdWo5cmlzdjUzNzhoM0BeZTNuMmRzL2pgLS1kLjZzYSNeZTNuMmRzL2pgLS1kLjZzcw%3D%3D&vvpl=1&l=02173103953905200000000000000000000ffff0a00a7d8bb39e0&btag=e00078000&format=mp3&mime_type=audio_mpeg",
        "source_timerange": {
            "start_offset": 14.378181818181872,
            "end_offset": 15.816
        },
        "target_timerange": {
            "start_offset": 331.01118181818185,
            "end_offset": 332.449
        },
        "ignore_audio": true,
        "audio_path": null
    },
    {
        "segment_id": "9bc59f069d8811efa3727cd30a5182b8",
        "text": "It amazes me, I confess;",
        "audio_url": "https://v16m-default.akamaized.net/c0388899f6c5f9f9784098086c6161dd/672de5a5/video/tos/maliva/tos-maliva-v-f15faa-us/owBBAEnEtR4BGB5kQfJTZfiPihLVAAL98oYIAE/?a=7073&bti=OTU0QDItLmA%3D&ch=0&cr=0&dr=4&er=0&lr=unwatermarked&cd=0%7C0%7C0%7C0&br=312&bt=156&ds=5&ft=.cwOVInz7Th9VGvOXq8Zmo&qs=13&rc=M3I4N3c5cmlzdjUzNzhoM0BpM3I4N3c5cmlzdjUzNzhoM0BoZWMxMmRzL2pgLS1kLjZzYSNoZWMxMmRzL2pgLS1kLjZzcw%3D%3D&vvpl=1&l=02173103953905200000000000000000000ffff0a00a7d8bb39e0&btag=e00070000&format=mp3&mime_type=audio_mpeg",
        "source_timerange": {
            "start_offset": 0,
            "end_offset": 1.5300000000000251
        },
        "target_timerange": {
            "start_offset": 332.449,
            "end_offset": 333.97900000000004
        },
        "ignore_audio": false,
        "audio_path": null
    },
    {
        "segment_id": "9bc5a1369d8811efa3727cd30a5182b8",
        "text": "for certainly there can be",
        "audio_url": "https://v16m-default.akamaized.net/c0388899f6c5f9f9784098086c6161dd/672de5a5/video/tos/maliva/tos-maliva-v-f15faa-us/owBBAEnEtR4BGB5kQfJTZfiPihLVAAL98oYIAE/?a=7073&bti=OTU0QDItLmA%3D&ch=0&cr=0&dr=4&er=0&lr=unwatermarked&cd=0%7C0%7C0%7C0&br=312&bt=156&ds=5&ft=.cwOVInz7Th9VGvOXq8Zmo&qs=13&rc=M3I4N3c5cmlzdjUzNzhoM0BpM3I4N3c5cmlzdjUzNzhoM0BoZWMxMmRzL2pgLS1kLjZzYSNoZWMxMmRzL2pgLS1kLjZzcw%3D%3D&vvpl=1&l=02173103953905200000000000000000000ffff0a00a7d8bb39e0&btag=e00070000&format=mp3&mime_type=audio_mpeg",
        "source_timerange": {
            "start_offset": 1.5300000000000296,
            "end_offset": 3.059999999999998
        },
        "target_timerange": {
            "start_offset": 333.97900000000004,
            "end_offset": 335.509
        },
        "ignore_audio": true,
        "audio_path": null
    },
    {
        "segment_id": "9bc5a2ee9d8811efa3727cd30a5182b8",
        "text": "nothing so advantageous to",
        "audio_url": "https://v16m-default.akamaized.net/c0388899f6c5f9f9784098086c6161dd/672de5a5/video/tos/maliva/tos-maliva-v-f15faa-us/owBBAEnEtR4BGB5kQfJTZfiPihLVAAL98oYIAE/?a=7073&bti=OTU0QDItLmA%3D&ch=0&cr=0&dr=4&er=0&lr=unwatermarked&cd=0%7C0%7C0%7C0&br=312&bt=156&ds=5&ft=.cwOVInz7Th9VGvOXq8Zmo&qs=13&rc=M3I4N3c5cmlzdjUzNzhoM0BpM3I4N3c5cmlzdjUzNzhoM0BoZWMxMmRzL2pgLS1kLjZzYSNoZWMxMmRzL2pgLS1kLjZzcw%3D%3D&vvpl=1&l=02173103953905200000000000000000000ffff0a00a7d8bb39e0&btag=e00070000&format=mp3&mime_type=audio_mpeg",
        "source_timerange": {
            "start_offset": 3.0600000000000023,
            "end_offset": 4.5899999999999705
        },
        "target_timerange": {
            "start_offset": 335.509,
            "end_offset": 337.039
        },
        "ignore_audio": true,
        "audio_path": null
    },
    {
        "segment_id": "9bc5a5649d8811efa3727cd30a5182b8",
        "text": "them as instruction.",
        "audio_url": "https://v16m-default.akamaized.net/c0388899f6c5f9f9784098086c6161dd/672de5a5/video/tos/maliva/tos-maliva-v-f15faa-us/owBBAEnEtR4BGB5kQfJTZfiPihLVAAL98oYIAE/?a=7073&bti=OTU0QDItLmA%3D&ch=0&cr=0&dr=4&er=0&lr=unwatermarked&cd=0%7C0%7C0%7C0&br=312&bt=156&ds=5&ft=.cwOVInz7Th9VGvOXq8Zmo&qs=13&rc=M3I4N3c5cmlzdjUzNzhoM0BpM3I4N3c5cmlzdjUzNzhoM0BoZWMxMmRzL2pgLS1kLjZzYSNoZWMxMmRzL2pgLS1kLjZzcw%3D%3D&vvpl=1&l=02173103953905200000000000000000000ffff0a00a7d8bb39e0&btag=e00070000&format=mp3&mime_type=audio_mpeg",
        "source_timerange": {
            "start_offset": 4.589999999999975,
            "end_offset": 6.12
        },
        "target_timerange": {
            "start_offset": 337.039,
            "end_offset": 338.569
        },
        "ignore_audio": true,
        "audio_path": null
    },
    {
        "segment_id": "9bc5b81a9d8811efa3727cd30a5182b8",
        "text": "But I will no longer",
        "audio_url": "https://v16m-default.akamaized.net/be54fc47f91088a1d92bafcb3bca6b8f/672de5a1/video/tos/maliva/tos-maliva-v-f15faa-us/oAttVZE5nEJAhAB9kBLiBAEiEjBA28LofQftTk/?a=7073&bti=OTU0QDItLmA%3D&ch=0&cr=0&dr=4&er=0&lr=unwatermarked&cd=0%7C0%7C0%7C0&br=312&bt=156&ds=5&ft=.cwOVInz7Th9VGvOXq8Zmo&qs=13&rc=M2doPHc5cmlzdjUzNzhoM0BpM2doPHc5cmlzdjUzNzhoM0AvZTFvMmRzL2pgLS1kLjZzYSMvZTFvMmRzL2pgLS1kLjZzcw%3D%3D&vvpl=1&l=02173103953905200000000000000000000ffff0a00a7d8bb39e0&btag=e00070000&format=mp3&mime_type=audio_mpeg",
        "source_timerange": {
            "start_offset": 0,
            "end_offset": 1.3680000000000052
        },
        "target_timerange": {
            "start_offset": 338.569,
            "end_offset": 339.937
        },
        "ignore_audio": false,
        "audio_path": null
    },
    {
        "segment_id": "9bc5ba0e9d8811efa3727cd30a5182b8",
        "text": "importune my young cousin.”",
        "audio_url": "https://v16m-default.akamaized.net/be54fc47f91088a1d92bafcb3bca6b8f/672de5a1/video/tos/maliva/tos-maliva-v-f15faa-us/oAttVZE5nEJAhAB9kBLiBAEiEjBA28LofQftTk/?a=7073&bti=OTU0QDItLmA%3D&ch=0&cr=0&dr=4&er=0&lr=unwatermarked&cd=0%7C0%7C0%7C0&br=312&bt=156&ds=5&ft=.cwOVInz7Th9VGvOXq8Zmo&qs=13&rc=M2doPHc5cmlzdjUzNzhoM0BpM2doPHc5cmlzdjUzNzhoM0AvZTFvMmRzL2pgLS1kLjZzYSMvZTFvMmRzL2pgLS1kLjZzcw%3D%3D&vvpl=1&l=02173103953905200000000000000000000ffff0a00a7d8bb39e0&btag=e00070000&format=mp3&mime_type=audio_mpeg",
        "source_timerange": {
            "start_offset": 1.367999999999995,
            "end_offset": 2.736
        },
        "target_timerange": {
            "start_offset": 339.937,
            "end_offset": 341.305
        },
        "ignore_audio": true,
        "audio_path": null
    },
    {
        "segment_id": "9bc5e02e9d8811efa3727cd30a5182b8",
        "text": "Then, turning to Mr.",
        "audio_url": "https://v16m-default.akamaized.net/61db82beabc919eeec833d90ba50def6/672de5a4/video/tos/maliva/tos-maliva-v-f15faa-us/oMMbAkBfIEYtEIQBn8WIFf3FETEOkAetAeuAXc/?a=7073&bti=OTU0QDItLmA%3D&ch=0&cr=0&dr=4&er=0&lr=unwatermarked&cd=0%7C0%7C0%7C0&br=312&bt=156&ds=5&ft=.cwOVInz7Th9VGvOXq8Zmo&qs=13&rc=amk3dHg5cmlzdjUzNzhoM0Bpamk3dHg5cmlzdjUzNzhoM0AwYG5zMmRzL2pgLS1kLjZzYSMwYG5zMmRzL2pgLS1kLjZzcw%3D%3D&vvpl=1&l=02173103953905200000000000000000000ffff0a00a7d8bb39e0&btag=e00070000&format=mp3&mime_type=audio_mpeg",
        "source_timerange": {
            "start_offset": 0,
            "end_offset": 1.3320000000000194
        },
        "target_timerange": {
            "start_offset": 341.305,
            "end_offset": 342.637
        },
        "ignore_audio": false,
        "audio_path": null
    },
    {
        "segment_id": "9bc5e2689d8811efa3727cd30a5182b8",
        "text": "Bennet, he offered",
        "audio_url": "https://v16m-default.akamaized.net/61db82beabc919eeec833d90ba50def6/672de5a4/video/tos/maliva/tos-maliva-v-f15faa-us/oMMbAkBfIEYtEIQBn8WIFf3FETEOkAetAeuAXc/?a=7073&bti=OTU0QDItLmA%3D&ch=0&cr=0&dr=4&er=0&lr=unwatermarked&cd=0%7C0%7C0%7C0&br=312&bt=156&ds=5&ft=.cwOVInz7Th9VGvOXq8Zmo&qs=13&rc=amk3dHg5cmlzdjUzNzhoM0Bpamk3dHg5cmlzdjUzNzhoM0AwYG5zMmRzL2pgLS1kLjZzYSMwYG5zMmRzL2pgLS1kLjZzcw%3D%3D&vvpl=1&l=02173103953905200000000000000000000ffff0a00a7d8bb39e0&btag=e00070000&format=mp3&mime_type=audio_mpeg",
        "source_timerange": {
            "start_offset": 1.3319999999999936,
            "end_offset": 2.664000000000013
        },
        "target_timerange": {
            "start_offset": 342.637,
            "end_offset": 343.969
        },
        "ignore_audio": true,
        "audio_path": null
    },
    {
        "segment_id": "9bc5e4169d8811efa3727cd30a5182b8",
        "text": "himself as his",
        "audio_url": "https://v16m-default.akamaized.net/61db82beabc919eeec833d90ba50def6/672de5a4/video/tos/maliva/tos-maliva-v-f15faa-us/oMMbAkBfIEYtEIQBn8WIFf3FETEOkAetAeuAXc/?a=7073&bti=OTU0QDItLmA%3D&ch=0&cr=0&dr=4&er=0&lr=unwatermarked&cd=0%7C0%7C0%7C0&br=312&bt=156&ds=5&ft=.cwOVInz7Th9VGvOXq8Zmo&qs=13&rc=amk3dHg5cmlzdjUzNzhoM0Bpamk3dHg5cmlzdjUzNzhoM0AwYG5zMmRzL2pgLS1kLjZzYSMwYG5zMmRzL2pgLS1kLjZzcw%3D%3D&vvpl=1&l=02173103953905200000000000000000000ffff0a00a7d8bb39e0&btag=e00070000&format=mp3&mime_type=audio_mpeg",
        "source_timerange": {
            "start_offset": 2.6639999999999873,
            "end_offset": 3.9960000000000067
        },
        "target_timerange": {
            "start_offset": 343.969,
            "end_offset": 345.301
        },
        "ignore_audio": true,
        "audio_path": null
    },
    {
        "segment_id": "9bc5e5ba9d8811efa3727cd30a5182b8",
        "text": "antagonist at backgammon.",
        "audio_url": "https://v16m-default.akamaized.net/61db82beabc919eeec833d90ba50def6/672de5a4/video/tos/maliva/tos-maliva-v-f15faa-us/oMMbAkBfIEYtEIQBn8WIFf3FETEOkAetAeuAXc/?a=7073&bti=OTU0QDItLmA%3D&ch=0&cr=0&dr=4&er=0&lr=unwatermarked&cd=0%7C0%7C0%7C0&br=312&bt=156&ds=5&ft=.cwOVInz7Th9VGvOXq8Zmo&qs=13&rc=amk3dHg5cmlzdjUzNzhoM0Bpamk3dHg5cmlzdjUzNzhoM0AwYG5zMmRzL2pgLS1kLjZzYSMwYG5zMmRzL2pgLS1kLjZzcw%3D%3D&vvpl=1&l=02173103953905200000000000000000000ffff0a00a7d8bb39e0&btag=e00070000&format=mp3&mime_type=audio_mpeg",
        "source_timerange": {
            "start_offset": 3.995999999999981,
            "end_offset": 5.328
        },
        "target_timerange": {
            "start_offset": 345.301,
            "end_offset": 346.633
        },
        "ignore_audio": true,
        "audio_path": null
    },
    {
        "segment_id": "9bc60e469d8811efa3727cd30a5182b8",
        "text": "Mr. Bennet accepted the",
        "audio_url": "https://v16m-default.akamaized.net/f35202f839a7afc5fb9c2310f75dec0b/672de5a7/video/tos/maliva/tos-maliva-v-f15faa-us/ogIDOWAxfEfyCCyxT7JC4VAXEBSnbBAIBgfFrI/?a=7073&bti=OTU0QDItLmA%3D&ch=0&cr=0&dr=4&er=0&lr=unwatermarked&cd=0%7C0%7C0%7C0&br=312&bt=156&ds=5&ft=.cwOVInz7Th89GvOXq8Zmo&qs=13&rc=ajM7O3I5cmlzdjUzNzhoM0BpajM7O3I5cmlzdjUzNzhoM0BwaTFwMmRzL2pgLS1kLjZzYSNwaTFwMmRzL2pgLS1kLjZzcw%3D%3D&vvpl=1&l=02173103953905200000000000000000000ffff0a00a7d8bb39e0&btag=e00070000&format=mp3&mime_type=audio_mpeg",
        "source_timerange": {
            "start_offset": 0,
            "end_offset": 1.4207999999999439
        },
        "target_timerange": {
            "start_offset": 346.633,
            "end_offset": 348.05379999999997
        },
        "ignore_audio": false,
        "audio_path": null
    },
    {
        "segment_id": "9bc610809d8811efa3727cd30a5182b8",
        "text": "challenge, observing that",
        "audio_url": "https://v16m-default.akamaized.net/f35202f839a7afc5fb9c2310f75dec0b/672de5a7/video/tos/maliva/tos-maliva-v-f15faa-us/ogIDOWAxfEfyCCyxT7JC4VAXEBSnbBAIBgfFrI/?a=7073&bti=OTU0QDItLmA%3D&ch=0&cr=0&dr=4&er=0&lr=unwatermarked&cd=0%7C0%7C0%7C0&br=312&bt=156&ds=5&ft=.cwOVInz7Th89GvOXq8Zmo&qs=13&rc=ajM7O3I5cmlzdjUzNzhoM0BpajM7O3I5cmlzdjUzNzhoM0BwaTFwMmRzL2pgLS1kLjZzYSNwaTFwMmRzL2pgLS1kLjZzcw%3D%3D&vvpl=1&l=02173103953905200000000000000000000ffff0a00a7d8bb39e0&btag=e00070000&format=mp3&mime_type=audio_mpeg",
        "source_timerange": {
            "start_offset": 1.4207999999999856,
            "end_offset": 2.8415999999999864
        },
        "target_timerange": {
            "start_offset": 348.05379999999997,
            "end_offset": 349.4746
        },
        "ignore_audio": true,
        "audio_path": null
    },
    {
        "segment_id": "9bc612429d8811efa3727cd30a5182b8",
        "text": "he acted very wisely in",
        "audio_url": "https://v16m-default.akamaized.net/f35202f839a7afc5fb9c2310f75dec0b/672de5a7/video/tos/maliva/tos-maliva-v-f15faa-us/ogIDOWAxfEfyCCyxT7JC4VAXEBSnbBAIBgfFrI/?a=7073&bti=OTU0QDItLmA%3D&ch=0&cr=0&dr=4&er=0&lr=unwatermarked&cd=0%7C0%7C0%7C0&br=312&bt=156&ds=5&ft=.cwOVInz7Th89GvOXq8Zmo&qs=13&rc=ajM7O3I5cmlzdjUzNzhoM0BpajM7O3I5cmlzdjUzNzhoM0BwaTFwMmRzL2pgLS1kLjZzYSNwaTFwMmRzL2pgLS1kLjZzcw%3D%3D&vvpl=1&l=02173103953905200000000000000000000ffff0a00a7d8bb39e0&btag=e00070000&format=mp3&mime_type=audio_mpeg",
        "source_timerange": {
            "start_offset": 2.841600000000028,
            "end_offset": 4.262399999999972
        },
        "target_timerange": {
            "start_offset": 349.4746,
            "end_offset": 350.8954
        },
        "ignore_audio": true,
        "audio_path": null
    },
    {
        "segment_id": "9bc613dc9d8811efa3727cd30a5182b8",
        "text": "leaving the girls to their",
        "audio_url": "https://v16m-default.akamaized.net/f35202f839a7afc5fb9c2310f75dec0b/672de5a7/video/tos/maliva/tos-maliva-v-f15faa-us/ogIDOWAxfEfyCCyxT7JC4VAXEBSnbBAIBgfFrI/?a=7073&bti=OTU0QDItLmA%3D&ch=0&cr=0&dr=4&er=0&lr=unwatermarked&cd=0%7C0%7C0%7C0&br=312&bt=156&ds=5&ft=.cwOVInz7Th89GvOXq8Zmo&qs=13&rc=ajM7O3I5cmlzdjUzNzhoM0BpajM7O3I5cmlzdjUzNzhoM0BwaTFwMmRzL2pgLS1kLjZzYSNwaTFwMmRzL2pgLS1kLjZzcw%3D%3D&vvpl=1&l=02173103953905200000000000000000000ffff0a00a7d8bb39e0&btag=e00070000&format=mp3&mime_type=audio_mpeg",
        "source_timerange": {
            "start_offset": 4.262400000000014,
            "end_offset": 5.6832000000000145
        },
        "target_timerange": {
            "start_offset": 350.8954,
            "end_offset": 352.31620000000004
        },
        "ignore_audio": true,
        "audio_path": null
    },
    {
        "segment_id": "9bc615629d8811efa3727cd30a5182b8",
        "text": "own trifling amusements.",
        "audio_url": "https://v16m-default.akamaized.net/f35202f839a7afc5fb9c2310f75dec0b/672de5a7/video/tos/maliva/tos-maliva-v-f15faa-us/ogIDOWAxfEfyCCyxT7JC4VAXEBSnbBAIBgfFrI/?a=7073&bti=OTU0QDItLmA%3D&ch=0&cr=0&dr=4&er=0&lr=unwatermarked&cd=0%7C0%7C0%7C0&br=312&bt=156&ds=5&ft=.cwOVInz7Th89GvOXq8Zmo&qs=13&rc=ajM7O3I5cmlzdjUzNzhoM0BpajM7O3I5cmlzdjUzNzhoM0BwaTFwMmRzL2pgLS1kLjZzYSNwaTFwMmRzL2pgLS1kLjZzcw%3D%3D&vvpl=1&l=02173103953905200000000000000000000ffff0a00a7d8bb39e0&btag=e00070000&format=mp3&mime_type=audio_mpeg",
        "source_timerange": {
            "start_offset": 5.683200000000056,
            "end_offset": 7.104
        },
        "target_timerange": {
            "start_offset": 352.31620000000004,
            "end_offset": 353.737
        },
        "ignore_audio": true,
        "audio_path": null
    },
    {
        "segment_id": "9bc668789d8811efa3727cd30a5182b8",
        "text": "Mrs. Bennet and her daughters",
        "audio_url": "https://v16m-default.akamaized.net/04493e5c0116671df5b80410edbf2029/672de5b5/video/tos/maliva/tos-maliva-v-f15faa-us/o0fO24rBCEDWvbIEeIFJfIAnCMA1IgChyvASYX/?a=7073&bti=OTU0QDItLmA%3D&ch=0&cr=0&dr=4&er=0&lr=unwatermarked&cd=0%7C0%7C0%7C0&br=312&bt=156&ds=5&ft=.cwOVInz7Th89GvOXq8Zmo&qs=13&rc=M3F5OWo5cmlzdjUzNzhoM0BpM3F5OWo5cmlzdjUzNzhoM0BnbGpqMmRzL2pgLS1kLjZzYSNnbGpqMmRzL2pgLS1kLjZzcw%3D%3D&vvpl=1&l=02173103953905200000000000000000000ffff0a00a7d8bb39e0&btag=e00078000&format=mp3&mime_type=audio_mpeg",
        "source_timerange": {
            "start_offset": 0,
            "end_offset": 1.5514285714286018
        },
        "target_timerange": {
            "start_offset": 353.737,
            "end_offset": 355.2884285714286
        },
        "ignore_audio": false,
        "audio_path": null
    },
    {
        "segment_id": "9bc66a4e9d8811efa3727cd30a5182b8",
        "text": "apologized most civilly for",
        "audio_url": "https://v16m-default.akamaized.net/04493e5c0116671df5b80410edbf2029/672de5b5/video/tos/maliva/tos-maliva-v-f15faa-us/o0fO24rBCEDWvbIEeIFJfIAnCMA1IgChyvASYX/?a=7073&bti=OTU0QDItLmA%3D&ch=0&cr=0&dr=4&er=0&lr=unwatermarked&cd=0%7C0%7C0%7C0&br=312&bt=156&ds=5&ft=.cwOVInz7Th89GvOXq8Zmo&qs=13&rc=M3F5OWo5cmlzdjUzNzhoM0BpM3F5OWo5cmlzdjUzNzhoM0BnbGpqMmRzL2pgLS1kLjZzYSNnbGpqMmRzL2pgLS1kLjZzcw%3D%3D&vvpl=1&l=02173103953905200000000000000000000ffff0a00a7d8bb39e0&btag=e00078000&format=mp3&mime_type=audio_mpeg",
        "source_timerange": {
            "start_offset": 1.5514285714285734,
            "end_offset": 3.102857142857175
        },
        "target_timerange": {
            "start_offset": 355.2884285714286,
            "end_offset": 356.83985714285717
        },
        "ignore_audio": true,
        "audio_path": null
    },
    {
        "segment_id": "9bc66bb69d8811efa3727cd30a5182b8",
        "text": "Lydia’s interruption, and",
        "audio_url": "https://v16m-default.akamaized.net/04493e5c0116671df5b80410edbf2029/672de5b5/video/tos/maliva/tos-maliva-v-f15faa-us/o0fO24rBCEDWvbIEeIFJfIAnCMA1IgChyvASYX/?a=7073&bti=OTU0QDItLmA%3D&ch=0&cr=0&dr=4&er=0&lr=unwatermarked&cd=0%7C0%7C0%7C0&br=312&bt=156&ds=5&ft=.cwOVInz7Th89GvOXq8Zmo&qs=13&rc=M3F5OWo5cmlzdjUzNzhoM0BpM3F5OWo5cmlzdjUzNzhoM0BnbGpqMmRzL2pgLS1kLjZzYSNnbGpqMmRzL2pgLS1kLjZzcw%3D%3D&vvpl=1&l=02173103953905200000000000000000000ffff0a00a7d8bb39e0&btag=e00078000&format=mp3&mime_type=audio_mpeg",
        "source_timerange": {
            "start_offset": 3.1028571428571468,
            "end_offset": 4.6542857142857486
        },
        "target_timerange": {
            "start_offset": 356.83985714285717,
            "end_offset": 358.39128571428574
        },
        "ignore_audio": true,
        "audio_path": null
    },
    {
        "segment_id": "9bc66d0a9d8811efa3727cd30a5182b8",
        "text": "promised that it should not",
        "audio_url": "https://v16m-default.akamaized.net/04493e5c0116671df5b80410edbf2029/672de5b5/video/tos/maliva/tos-maliva-v-f15faa-us/o0fO24rBCEDWvbIEeIFJfIAnCMA1IgChyvASYX/?a=7073&bti=OTU0QDItLmA%3D&ch=0&cr=0&dr=4&er=0&lr=unwatermarked&cd=0%7C0%7C0%7C0&br=312&bt=156&ds=5&ft=.cwOVInz7Th89GvOXq8Zmo&qs=13&rc=M3F5OWo5cmlzdjUzNzhoM0BpM3F5OWo5cmlzdjUzNzhoM0BnbGpqMmRzL2pgLS1kLjZzYSNnbGpqMmRzL2pgLS1kLjZzcw%3D%3D&vvpl=1&l=02173103953905200000000000000000000ffff0a00a7d8bb39e0&btag=e00078000&format=mp3&mime_type=audio_mpeg",
        "source_timerange": {
            "start_offset": 4.65428571428572,
            "end_offset": 6.205714285714322
        },
        "target_timerange": {
            "start_offset": 358.39128571428574,
            "end_offset": 359.9427142857143
        },
        "ignore_audio": true,
        "audio_path": null
    },
    {
        "segment_id": "9bc66e4a9d8811efa3727cd30a5182b8",
        "text": "occur again, if he would",
        "audio_url": "https://v16m-default.akamaized.net/04493e5c0116671df5b80410edbf2029/672de5b5/video/tos/maliva/tos-maliva-v-f15faa-us/o0fO24rBCEDWvbIEeIFJfIAnCMA1IgChyvASYX/?a=7073&bti=OTU0QDItLmA%3D&ch=0&cr=0&dr=4&er=0&lr=unwatermarked&cd=0%7C0%7C0%7C0&br=312&bt=156&ds=5&ft=.cwOVInz7Th89GvOXq8Zmo&qs=13&rc=M3F5OWo5cmlzdjUzNzhoM0BpM3F5OWo5cmlzdjUzNzhoM0BnbGpqMmRzL2pgLS1kLjZzYSNnbGpqMmRzL2pgLS1kLjZzcw%3D%3D&vvpl=1&l=02173103953905200000000000000000000ffff0a00a7d8bb39e0&btag=e00078000&format=mp3&mime_type=audio_mpeg",
        "source_timerange": {
            "start_offset": 6.2057142857142935,
            "end_offset": 7.757142857142895
        },
        "target_timerange": {
            "start_offset": 359.9427142857143,
            "end_offset": 361.4941428571429
        },
        "ignore_audio": true,
        "audio_path": null
    },
    {
        "segment_id": "9bc66f949d8811efa3727cd30a5182b8",
        "text": "resume his book; but Mr.",
        "audio_url": "https://v16m-default.akamaized.net/04493e5c0116671df5b80410edbf2029/672de5b5/video/tos/maliva/tos-maliva-v-f15faa-us/o0fO24rBCEDWvbIEeIFJfIAnCMA1IgChyvASYX/?a=7073&bti=OTU0QDItLmA%3D&ch=0&cr=0&dr=4&er=0&lr=unwatermarked&cd=0%7C0%7C0%7C0&br=312&bt=156&ds=5&ft=.cwOVInz7Th89GvOXq8Zmo&qs=13&rc=M3F5OWo5cmlzdjUzNzhoM0BpM3F5OWo5cmlzdjUzNzhoM0BnbGpqMmRzL2pgLS1kLjZzYSNnbGpqMmRzL2pgLS1kLjZzcw%3D%3D&vvpl=1&l=02173103953905200000000000000000000ffff0a00a7d8bb39e0&btag=e00078000&format=mp3&mime_type=audio_mpeg",
        "source_timerange": {
            "start_offset": 7.757142857142867,
            "end_offset": 9.308571428571469
        },
        "target_timerange": {
            "start_offset": 361.4941428571429,
            "end_offset": 363.04557142857146
        },
        "ignore_audio": true,
        "audio_path": null
    },
    {
        "segment_id": "9bc670f29d8811efa3727cd30a5182b8",
        "text": "Collins, after assuring them",
        "audio_url": "https://v16m-default.akamaized.net/04493e5c0116671df5b80410edbf2029/672de5b5/video/tos/maliva/tos-maliva-v-f15faa-us/o0fO24rBCEDWvbIEeIFJfIAnCMA1IgChyvASYX/?a=7073&bti=OTU0QDItLmA%3D&ch=0&cr=0&dr=4&er=0&lr=unwatermarked&cd=0%7C0%7C0%7C0&br=312&bt=156&ds=5&ft=.cwOVInz7Th89GvOXq8Zmo&qs=13&rc=M3F5OWo5cmlzdjUzNzhoM0BpM3F5OWo5cmlzdjUzNzhoM0BnbGpqMmRzL2pgLS1kLjZzYSNnbGpqMmRzL2pgLS1kLjZzcw%3D%3D&vvpl=1&l=02173103953905200000000000000000000ffff0a00a7d8bb39e0&btag=e00078000&format=mp3&mime_type=audio_mpeg",
        "source_timerange": {
            "start_offset": 9.30857142857144,
            "end_offset": 10.859999999999985
        },
        "target_timerange": {
            "start_offset": 363.04557142857146,
            "end_offset": 364.597
        },
        "ignore_audio": true,
        "audio_path": null
    },
    {
        "segment_id": "9bc672469d8811efa3727cd30a5182b8",
        "text": "that he bore his young cousin",
        "audio_url": "https://v16m-default.akamaized.net/04493e5c0116671df5b80410edbf2029/672de5b5/video/tos/maliva/tos-maliva-v-f15faa-us/o0fO24rBCEDWvbIEeIFJfIAnCMA1IgChyvASYX/?a=7073&bti=OTU0QDItLmA%3D&ch=0&cr=0&dr=4&er=0&lr=unwatermarked&cd=0%7C0%7C0%7C0&br=312&bt=156&ds=5&ft=.cwOVInz7Th89GvOXq8Zmo&qs=13&rc=M3F5OWo5cmlzdjUzNzhoM0BpM3F5OWo5cmlzdjUzNzhoM0BnbGpqMmRzL2pgLS1kLjZzYSNnbGpqMmRzL2pgLS1kLjZzcw%3D%3D&vvpl=1&l=02173103953905200000000000000000000ffff0a00a7d8bb39e0&btag=e00078000&format=mp3&mime_type=audio_mpeg",
        "source_timerange": {
            "start_offset": 10.859999999999957,
            "end_offset": 12.411428571428559
        },
        "target_timerange": {
            "start_offset": 364.597,
            "end_offset": 366.14842857142855
        },
        "ignore_audio": true,
        "audio_path": null
    },
    {
        "segment_id": "9bc6739a9d8811efa3727cd30a5182b8",
        "text": "no ill-will, and should never",
        "audio_url": "https://v16m-default.akamaized.net/04493e5c0116671df5b80410edbf2029/672de5b5/video/tos/maliva/tos-maliva-v-f15faa-us/o0fO24rBCEDWvbIEeIFJfIAnCMA1IgChyvASYX/?a=7073&bti=OTU0QDItLmA%3D&ch=0&cr=0&dr=4&er=0&lr=unwatermarked&cd=0%7C0%7C0%7C0&br=312&bt=156&ds=5&ft=.cwOVInz7Th89GvOXq8Zmo&qs=13&rc=M3F5OWo5cmlzdjUzNzhoM0BpM3F5OWo5cmlzdjUzNzhoM0BnbGpqMmRzL2pgLS1kLjZzYSNnbGpqMmRzL2pgLS1kLjZzcw%3D%3D&vvpl=1&l=02173103953905200000000000000000000ffff0a00a7d8bb39e0&btag=e00078000&format=mp3&mime_type=audio_mpeg",
        "source_timerange": {
            "start_offset": 12.41142857142853,
            "end_offset": 13.962857142857132
        },
        "target_timerange": {
            "start_offset": 366.14842857142855,
            "end_offset": 367.6998571428571
        },
        "ignore_audio": true,
        "audio_path": null
    },
    {
        "segment_id": "9bc674f89d8811efa3727cd30a5182b8",
        "text": "resent her behaviour as any",
        "audio_url": "https://v16m-default.akamaized.net/04493e5c0116671df5b80410edbf2029/672de5b5/video/tos/maliva/tos-maliva-v-f15faa-us/o0fO24rBCEDWvbIEeIFJfIAnCMA1IgChyvASYX/?a=7073&bti=OTU0QDItLmA%3D&ch=0&cr=0&dr=4&er=0&lr=unwatermarked&cd=0%7C0%7C0%7C0&br=312&bt=156&ds=5&ft=.cwOVInz7Th89GvOXq8Zmo&qs=13&rc=M3F5OWo5cmlzdjUzNzhoM0BpM3F5OWo5cmlzdjUzNzhoM0BnbGpqMmRzL2pgLS1kLjZzYSNnbGpqMmRzL2pgLS1kLjZzcw%3D%3D&vvpl=1&l=02173103953905200000000000000000000ffff0a00a7d8bb39e0&btag=e00078000&format=mp3&mime_type=audio_mpeg",
        "source_timerange": {
            "start_offset": 13.962857142857104,
            "end_offset": 15.514285714285705
        },
        "target_timerange": {
            "start_offset": 367.6998571428571,
            "end_offset": 369.2512857142857
        },
        "ignore_audio": true,
        "audio_path": null
    },
    {
        "segment_id": "9bc675e89d8811efa3727cd30a5182b8",
        "text": "affront, seated himself at",
        "audio_url": "https://v16m-default.akamaized.net/04493e5c0116671df5b80410edbf2029/672de5b5/video/tos/maliva/tos-maliva-v-f15faa-us/o0fO24rBCEDWvbIEeIFJfIAnCMA1IgChyvASYX/?a=7073&bti=OTU0QDItLmA%3D&ch=0&cr=0&dr=4&er=0&lr=unwatermarked&cd=0%7C0%7C0%7C0&br=312&bt=156&ds=5&ft=.cwOVInz7Th89GvOXq8Zmo&qs=13&rc=M3F5OWo5cmlzdjUzNzhoM0BpM3F5OWo5cmlzdjUzNzhoM0BnbGpqMmRzL2pgLS1kLjZzYSNnbGpqMmRzL2pgLS1kLjZzcw%3D%3D&vvpl=1&l=02173103953905200000000000000000000ffff0a00a7d8bb39e0&btag=e00078000&format=mp3&mime_type=audio_mpeg",
        "source_timerange": {
            "start_offset": 15.514285714285677,
            "end_offset": 17.06571428571428
        },
        "target_timerange": {
            "start_offset": 369.2512857142857,
            "end_offset": 370.8027142857143
        },
        "ignore_audio": true,
        "audio_path": null
    },
    {
        "segment_id": "9bc676ce9d8811efa3727cd30a5182b8",
        "text": "another table with Mr.",
        "audio_url": "https://v16m-default.akamaized.net/04493e5c0116671df5b80410edbf2029/672de5b5/video/tos/maliva/tos-maliva-v-f15faa-us/o0fO24rBCEDWvbIEeIFJfIAnCMA1IgChyvASYX/?a=7073&bti=OTU0QDItLmA%3D&ch=0&cr=0&dr=4&er=0&lr=unwatermarked&cd=0%7C0%7C0%7C0&br=312&bt=156&ds=5&ft=.cwOVInz7Th89GvOXq8Zmo&qs=13&rc=M3F5OWo5cmlzdjUzNzhoM0BpM3F5OWo5cmlzdjUzNzhoM0BnbGpqMmRzL2pgLS1kLjZzYSNnbGpqMmRzL2pgLS1kLjZzcw%3D%3D&vvpl=1&l=02173103953905200000000000000000000ffff0a00a7d8bb39e0&btag=e00078000&format=mp3&mime_type=audio_mpeg",
        "source_timerange": {
            "start_offset": 17.06571428571425,
            "end_offset": 18.617142857142852
        },
        "target_timerange": {
            "start_offset": 370.8027142857143,
            "end_offset": 372.35414285714285
        },
        "ignore_audio": true,
        "audio_path": null
    },
    {
        "segment_id": "9bc677b49d8811efa3727cd30a5182b8",
        "text": "Bennet, and prepared for",
        "audio_url": "https://v16m-default.akamaized.net/04493e5c0116671df5b80410edbf2029/672de5b5/video/tos/maliva/tos-maliva-v-f15faa-us/o0fO24rBCEDWvbIEeIFJfIAnCMA1IgChyvASYX/?a=7073&bti=OTU0QDItLmA%3D&ch=0&cr=0&dr=4&er=0&lr=unwatermarked&cd=0%7C0%7C0%7C0&br=312&bt=156&ds=5&ft=.cwOVInz7Th89GvOXq8Zmo&qs=13&rc=M3F5OWo5cmlzdjUzNzhoM0BpM3F5OWo5cmlzdjUzNzhoM0BnbGpqMmRzL2pgLS1kLjZzYSNnbGpqMmRzL2pgLS1kLjZzcw%3D%3D&vvpl=1&l=02173103953905200000000000000000000ffff0a00a7d8bb39e0&btag=e00078000&format=mp3&mime_type=audio_mpeg",
        "source_timerange": {
            "start_offset": 18.617142857142824,
            "end_offset": 20.168571428571425
        },
        "target_timerange": {
            "start_offset": 372.35414285714285,
            "end_offset": 373.9055714285714
        },
        "ignore_audio": true,
        "audio_path": null
    },
    {
        "segment_id": "9bc678a49d8811efa3727cd30a5182b8",
        "text": "backgammon.",
        "audio_url": "https://v16m-default.akamaized.net/04493e5c0116671df5b80410edbf2029/672de5b5/video/tos/maliva/tos-maliva-v-f15faa-us/o0fO24rBCEDWvbIEeIFJfIAnCMA1IgChyvASYX/?a=7073&bti=OTU0QDItLmA%3D&ch=0&cr=0&dr=4&er=0&lr=unwatermarked&cd=0%7C0%7C0%7C0&br=312&bt=156&ds=5&ft=.cwOVInz7Th89GvOXq8Zmo&qs=13&rc=M3F5OWo5cmlzdjUzNzhoM0BpM3F5OWo5cmlzdjUzNzhoM0BnbGpqMmRzL2pgLS1kLjZzYSNnbGpqMmRzL2pgLS1kLjZzcw%3D%3D&vvpl=1&l=02173103953905200000000000000000000ffff0a00a7d8bb39e0&btag=e00078000&format=mp3&mime_type=audio_mpeg",
        "source_timerange": {
            "start_offset": 20.168571428571397,
            "end_offset": 21.72
        },
        "target_timerange": {
            "start_offset": 373.9055714285714,
            "end_offset": 375.457
        },
        "ignore_audio": true,
        "audio_path": null
    },
    {
        "segment_id": "9bc682189d8811efa3727cd30a5182b8",
        "text": "[Illustration]",
        "audio_url": "https://v16m-default.akamaized.net/a47b4a84bb870cc4ab07715e3eaa10ee/672de5a1/video/tos/maliva/tos-maliva-v-f15faa-us/osTO9eJBAXA2ArWRgIFWWISDfftlJnyECCCBbI/?a=7073&bti=OTU0QDItLmA%3D&ch=0&cr=0&dr=4&er=0&lr=unwatermarked&cd=0%7C0%7C0%7C0&br=312&bt=156&ds=5&ft=.cwOVInz7Th89GvOXq8Zmo&qs=13&rc=amw1d3U5cmlzdjUzNzhoM0Bpamw1d3U5cmlzdjUzNzhoM0BpNmgxMmRzL2pgLS1kLjZzYSNpNmgxMmRzL2pgLS1kLjZzcw%3D%3D&vvpl=1&l=02173103953905200000000000000000000ffff0a00a7d8bb39e0&btag=e00070000&format=mp3&mime_type=audio_mpeg",
        "source_timerange": {
            "start_offset": 0,
            "end_offset": 1.08
        },
        "target_timerange": {
            "start_offset": 375.457,
            "end_offset": 376.53700000000003
        },
        "ignore_audio": false,
        "audio_path": null
    }
]