[
    {
        "segment_id": "c83f7c929d8711ef833bb8cef692109a",
        "text": "  [Illustration]  At five o’clock",
        "audio_url": "https://v16m-default.akamaized.net/bce439e7b05e27c9c19e82874f996ab6/672de43d/video/tos/maliva/tos-maliva-v-f15faa-us/okYhlZ9Ev2wyiCFi14B1PQU1BASAtAjsV8AqE/?a=7073&bti=OTU0QDItLmA%3D&ch=0&cr=0&dr=4&er=0&lr=unwatermarked&cd=0%7C0%7C0%7C0&br=312&bt=156&ds=5&ft=.cwOVInz7ThowqvOXq8Zmo&qs=13&rc=M2Rsam85cm9ydjUzNzhoM0BpM2Rsam85cm9ydjUzNzhoM0BsX2NkMmRrc2pgLS1kLjZzYSNsX2NkMmRrc2pgLS1kLjZzcw%3D%3D&vvpl=1&l=02173103917641900000000000000000000ffff0a0088d433601a&btag=e00070000&format=mp3&mime_type=audio_mpeg",
        "source_timerange": {
            "start_offset": 0,
            "end_offset": 1.662
        },
        "target_timerange": {
            "start_offset": 0,
            "end_offset": 1.662
        },
        "ignore_audio": false,
        "audio_path": null
    },
    {
        "segment_id": "c83f7e369d8711ef833bb8cef692109a",
        "text": "the two ladies retired to dress,",
        "audio_url": "https://v16m-default.akamaized.net/bce439e7b05e27c9c19e82874f996ab6/672de43d/video/tos/maliva/tos-maliva-v-f15faa-us/okYhlZ9Ev2wyiCFi14B1PQU1BASAtAjsV8AqE/?a=7073&bti=OTU0QDItLmA%3D&ch=0&cr=0&dr=4&er=0&lr=unwatermarked&cd=0%7C0%7C0%7C0&br=312&bt=156&ds=5&ft=.cwOVInz7ThowqvOXq8Zmo&qs=13&rc=M2Rsam85cm9ydjUzNzhoM0BpM2Rsam85cm9ydjUzNzhoM0BsX2NkMmRrc2pgLS1kLjZzYSNsX2NkMmRrc2pgLS1kLjZzcw%3D%3D&vvpl=1&l=02173103917641900000000000000000000ffff0a0088d433601a&btag=e00070000&format=mp3&mime_type=audio_mpeg",
        "source_timerange": {
            "start_offset": 1.6620000000000001,
            "end_offset": 3.3240000000000003
        },
        "target_timerange": {
            "start_offset": 1.6620000000000001,
            "end_offset": 3.3240000000000003
        },
        "ignore_audio": true,
        "audio_path": null
    },
    {
        "segment_id": "c83f83f49d8711ef833bb8cef692109a",
        "text": "and at half-past six Elizabeth",
        "audio_url": "https://v16m-default.akamaized.net/bce439e7b05e27c9c19e82874f996ab6/672de43d/video/tos/maliva/tos-maliva-v-f15faa-us/okYhlZ9Ev2wyiCFi14B1PQU1BASAtAjsV8AqE/?a=7073&bti=OTU0QDItLmA%3D&ch=0&cr=0&dr=4&er=0&lr=unwatermarked&cd=0%7C0%7C0%7C0&br=312&bt=156&ds=5&ft=.cwOVInz7ThowqvOXq8Zmo&qs=13&rc=M2Rsam85cm9ydjUzNzhoM0BpM2Rsam85cm9ydjUzNzhoM0BsX2NkMmRrc2pgLS1kLjZzYSNsX2NkMmRrc2pgLS1kLjZzcw%3D%3D&vvpl=1&l=02173103917641900000000000000000000ffff0a0088d433601a&btag=e00070000&format=mp3&mime_type=audio_mpeg",
        "source_timerange": {
            "start_offset": 3.3240000000000003,
            "end_offset": 4.986000000000001
        },
        "target_timerange": {
            "start_offset": 3.3240000000000003,
            "end_offset": 4.986000000000001
        },
        "ignore_audio": true,
        "audio_path": null
    },
    {
        "segment_id": "c83f85029d8711ef833bb8cef692109a",
        "text": "was summoned to dinner.",
        "audio_url": "https://v16m-default.akamaized.net/bce439e7b05e27c9c19e82874f996ab6/672de43d/video/tos/maliva/tos-maliva-v-f15faa-us/okYhlZ9Ev2wyiCFi14B1PQU1BASAtAjsV8AqE/?a=7073&bti=OTU0QDItLmA%3D&ch=0&cr=0&dr=4&er=0&lr=unwatermarked&cd=0%7C0%7C0%7C0&br=312&bt=156&ds=5&ft=.cwOVInz7ThowqvOXq8Zmo&qs=13&rc=M2Rsam85cm9ydjUzNzhoM0BpM2Rsam85cm9ydjUzNzhoM0BsX2NkMmRrc2pgLS1kLjZzYSNsX2NkMmRrc2pgLS1kLjZzcw%3D%3D&vvpl=1&l=02173103917641900000000000000000000ffff0a0088d433601a&btag=e00070000&format=mp3&mime_type=audio_mpeg",
        "source_timerange": {
            "start_offset": 4.986000000000001,
            "end_offset": 6.648000000000001
        },
        "target_timerange": {
            "start_offset": 4.986000000000001,
            "end_offset": 6.648000000000001
        },
        "ignore_audio": true,
        "audio_path": null
    },
    {
        "segment_id": "c83fa92e9d8711ef833bb8cef692109a",
        "text": "To the civil inquiries which",
        "audio_url": "https://v16m-default.akamaized.net/8733d93ebaf600769dfe614c44b4b4e8/672de441/video/tos/maliva/tos-maliva-v-f15faa-us/oUud286UC9QE4i9PZy1KVBviSjdABSZAAtAEC/?a=7073&bti=OTU0QDItLmA%3D&ch=0&cr=0&dr=4&er=0&lr=unwatermarked&cd=0%7C0%7C0%7C0&br=312&bt=156&ds=5&ft=.cwOVInz7ThowqvOXq8Zmo&qs=13&rc=amg8anQ5cm9ydjUzNzhoM0Bpamg8anQ5cm9ydjUzNzhoM0BiMmVyMmRrc2pgLS1kLjZzYSNiMmVyMmRrc2pgLS1kLjZzcw%3D%3D&vvpl=1&l=02173103917641900000000000000000000ffff0a0088d433601a&btag=e00070000&format=mp3&mime_type=audio_mpeg",
        "source_timerange": {
            "start_offset": 0,
            "end_offset": 1.5188571428571418
        },
        "target_timerange": {
            "start_offset": 6.648000000000001,
            "end_offset": 8.166857142857143
        },
        "ignore_audio": false,
        "audio_path": null
    },
    {
        "segment_id": "c83faa829d8711ef833bb8cef692109a",
        "text": "then poured in, and amongst",
        "audio_url": "https://v16m-default.akamaized.net/8733d93ebaf600769dfe614c44b4b4e8/672de441/video/tos/maliva/tos-maliva-v-f15faa-us/oUud286UC9QE4i9PZy1KVBviSjdABSZAAtAEC/?a=7073&bti=OTU0QDItLmA%3D&ch=0&cr=0&dr=4&er=0&lr=unwatermarked&cd=0%7C0%7C0%7C0&br=312&bt=156&ds=5&ft=.cwOVInz7ThowqvOXq8Zmo&qs=13&rc=amg8anQ5cm9ydjUzNzhoM0Bpamg8anQ5cm9ydjUzNzhoM0BiMmVyMmRrc2pgLS1kLjZzYSNiMmVyMmRrc2pgLS1kLjZzcw%3D%3D&vvpl=1&l=02173103917641900000000000000000000ffff0a0088d433601a&btag=e00070000&format=mp3&mime_type=audio_mpeg",
        "source_timerange": {
            "start_offset": 1.5188571428571427,
            "end_offset": 3.0377142857142836
        },
        "target_timerange": {
            "start_offset": 8.166857142857143,
            "end_offset": 9.685714285714285
        },
        "ignore_audio": true,
        "audio_path": null
    },
    {
        "segment_id": "c83fabcc9d8711ef833bb8cef692109a",
        "text": "which she had the pleasure of",
        "audio_url": "https://v16m-default.akamaized.net/8733d93ebaf600769dfe614c44b4b4e8/672de441/video/tos/maliva/tos-maliva-v-f15faa-us/oUud286UC9QE4i9PZy1KVBviSjdABSZAAtAEC/?a=7073&bti=OTU0QDItLmA%3D&ch=0&cr=0&dr=4&er=0&lr=unwatermarked&cd=0%7C0%7C0%7C0&br=312&bt=156&ds=5&ft=.cwOVInz7ThowqvOXq8Zmo&qs=13&rc=amg8anQ5cm9ydjUzNzhoM0Bpamg8anQ5cm9ydjUzNzhoM0BiMmVyMmRrc2pgLS1kLjZzYSNiMmVyMmRrc2pgLS1kLjZzcw%3D%3D&vvpl=1&l=02173103917641900000000000000000000ffff0a0088d433601a&btag=e00070000&format=mp3&mime_type=audio_mpeg",
        "source_timerange": {
            "start_offset": 3.0377142857142863,
            "end_offset": 4.556571428571427
        },
        "target_timerange": {
            "start_offset": 9.685714285714287,
            "end_offset": 11.204571428571429
        },
        "ignore_audio": true,
        "audio_path": null
    },
    {
        "segment_id": "c83facd09d8711ef833bb8cef692109a",
        "text": "distinguishing the much",
        "audio_url": "https://v16m-default.akamaized.net/8733d93ebaf600769dfe614c44b4b4e8/672de441/video/tos/maliva/tos-maliva-v-f15faa-us/oUud286UC9QE4i9PZy1KVBviSjdABSZAAtAEC/?a=7073&bti=OTU0QDItLmA%3D&ch=0&cr=0&dr=4&er=0&lr=unwatermarked&cd=0%7C0%7C0%7C0&br=312&bt=156&ds=5&ft=.cwOVInz7ThowqvOXq8Zmo&qs=13&rc=amg8anQ5cm9ydjUzNzhoM0Bpamg8anQ5cm9ydjUzNzhoM0BiMmVyMmRrc2pgLS1kLjZzYSNiMmVyMmRrc2pgLS1kLjZzcw%3D%3D&vvpl=1&l=02173103917641900000000000000000000ffff0a0088d433601a&btag=e00070000&format=mp3&mime_type=audio_mpeg",
        "source_timerange": {
            "start_offset": 4.55657142857143,
            "end_offset": 6.075428571428571
        },
        "target_timerange": {
            "start_offset": 11.20457142857143,
            "end_offset": 12.723428571428572
        },
        "ignore_audio": true,
        "audio_path": null
    },
    {
        "segment_id": "c83fadca9d8711ef833bb8cef692109a",
        "text": "superior solicitude of Mr.",
        "audio_url": "https://v16m-default.akamaized.net/8733d93ebaf600769dfe614c44b4b4e8/672de441/video/tos/maliva/tos-maliva-v-f15faa-us/oUud286UC9QE4i9PZy1KVBviSjdABSZAAtAEC/?a=7073&bti=OTU0QDItLmA%3D&ch=0&cr=0&dr=4&er=0&lr=unwatermarked&cd=0%7C0%7C0%7C0&br=312&bt=156&ds=5&ft=.cwOVInz7ThowqvOXq8Zmo&qs=13&rc=amg8anQ5cm9ydjUzNzhoM0Bpamg8anQ5cm9ydjUzNzhoM0BiMmVyMmRrc2pgLS1kLjZzYSNiMmVyMmRrc2pgLS1kLjZzcw%3D%3D&vvpl=1&l=02173103917641900000000000000000000ffff0a0088d433601a&btag=e00070000&format=mp3&mime_type=audio_mpeg",
        "source_timerange": {
            "start_offset": 6.075428571428573,
            "end_offset": 7.5942857142857125
        },
        "target_timerange": {
            "start_offset": 12.723428571428574,
            "end_offset": 14.242285714285714
        },
        "ignore_audio": true,
        "audio_path": null
    },
    {
        "segment_id": "c83faf149d8711ef833bb8cef692109a",
        "text": "Bingley, she could not make a",
        "audio_url": "https://v16m-default.akamaized.net/8733d93ebaf600769dfe614c44b4b4e8/672de441/video/tos/maliva/tos-maliva-v-f15faa-us/oUud286UC9QE4i9PZy1KVBviSjdABSZAAtAEC/?a=7073&bti=OTU0QDItLmA%3D&ch=0&cr=0&dr=4&er=0&lr=unwatermarked&cd=0%7C0%7C0%7C0&br=312&bt=156&ds=5&ft=.cwOVInz7ThowqvOXq8Zmo&qs=13&rc=amg8anQ5cm9ydjUzNzhoM0Bpamg8anQ5cm9ydjUzNzhoM0BiMmVyMmRrc2pgLS1kLjZzYSNiMmVyMmRrc2pgLS1kLjZzcw%3D%3D&vvpl=1&l=02173103917641900000000000000000000ffff0a0088d433601a&btag=e00070000&format=mp3&mime_type=audio_mpeg",
        "source_timerange": {
            "start_offset": 7.594285714285717,
            "end_offset": 9.113142857142856
        },
        "target_timerange": {
            "start_offset": 14.242285714285718,
            "end_offset": 15.761142857142858
        },
        "ignore_audio": true,
        "audio_path": null
    },
    {
        "segment_id": "c83fb0189d8711ef833bb8cef692109a",
        "text": "very favourable answer.",
        "audio_url": "https://v16m-default.akamaized.net/8733d93ebaf600769dfe614c44b4b4e8/672de441/video/tos/maliva/tos-maliva-v-f15faa-us/oUud286UC9QE4i9PZy1KVBviSjdABSZAAtAEC/?a=7073&bti=OTU0QDItLmA%3D&ch=0&cr=0&dr=4&er=0&lr=unwatermarked&cd=0%7C0%7C0%7C0&br=312&bt=156&ds=5&ft=.cwOVInz7ThowqvOXq8Zmo&qs=13&rc=amg8anQ5cm9ydjUzNzhoM0Bpamg8anQ5cm9ydjUzNzhoM0BiMmVyMmRrc2pgLS1kLjZzYSNiMmVyMmRrc2pgLS1kLjZzcw%3D%3D&vvpl=1&l=02173103917641900000000000000000000ffff0a0088d433601a&btag=e00070000&format=mp3&mime_type=audio_mpeg",
        "source_timerange": {
            "start_offset": 9.113142857142858,
            "end_offset": 10.632
        },
        "target_timerange": {
            "start_offset": 15.761142857142858,
            "end_offset": 17.28
        },
        "ignore_audio": true,
        "audio_path": null
    },
    {
        "segment_id": "c83fb78e9d8711ef833bb8cef692109a",
        "text": "Jane was by no means better.",
        "audio_url": "https://v16m-default.akamaized.net/cd7f6e017738a50d6523250ff0db650c/672de438/video/tos/maliva/tos-maliva-v-f15faa-us/o4SBUAZtCLpk9a1zQAi4YytPEVAAj21EVvi21/?a=7073&bti=OTU0QDItLmA%3D&ch=0&cr=0&dr=4&er=0&lr=unwatermarked&cd=0%7C0%7C0%7C0&br=312&bt=156&ds=5&ft=.cwOVInz7ThowqvOXq8Zmo&qs=13&rc=amdvdG85cm9ydjUzNzhoM0BpamdvdG85cm9ydjUzNzhoM0AyX2JtMmRrc2pgLS1kLjZzYSMyX2JtMmRrc2pgLS1kLjZzcw%3D%3D&vvpl=1&l=02173103917641900000000000000000000ffff0a0088d433601a&btag=e00070000&format=mp3&mime_type=audio_mpeg",
        "source_timerange": {
            "start_offset": 0,
            "end_offset": 1.872
        },
        "target_timerange": {
            "start_offset": 17.28,
            "end_offset": 19.152
        },
        "ignore_audio": false,
        "audio_path": null
    },
    {
        "segment_id": "c83ff8349d8711ef833bb8cef692109a",
        "text": "The sisters, on hearing",
        "audio_url": "https://v16m-default.akamaized.net/5dc59b018ddc46cf2da07944de53c68c/672de44c/video/tos/maliva/tos-maliva-v-f15faa-us/oEHS2eDWIFXfI0CWMAESAHCACkxnfrdbOv6Bgr/?a=7073&bti=OTU0QDItLmA%3D&ch=0&cr=0&dr=4&er=0&lr=unwatermarked&cd=0%7C0%7C0%7C0&br=312&bt=156&ds=5&ft=.cwOVInz7ThowqvOXq8Zmo&qs=13&rc=M290d2w5cm9ydjUzNzhoM0BpM290d2w5cm9ydjUzNzhoM0BnZnEuMmRrc2pgLS1kLjZzYSNnZnEuMmRrc2pgLS1kLjZzcw%3D%3D&vvpl=1&l=02173103917641900000000000000000000ffff0a0088d433601a&btag=e00078000&format=mp3&mime_type=audio_mpeg",
        "source_timerange": {
            "start_offset": 0,
            "end_offset": 1.515428571428572
        },
        "target_timerange": {
            "start_offset": 19.152,
            "end_offset": 20.667428571428573
        },
        "ignore_audio": false,
        "audio_path": null
    },
    {
        "segment_id": "c83ff9c49d8711ef833bb8cef692109a",
        "text": "this, repeated three or four",
        "audio_url": "https://v16m-default.akamaized.net/5dc59b018ddc46cf2da07944de53c68c/672de44c/video/tos/maliva/tos-maliva-v-f15faa-us/oEHS2eDWIFXfI0CWMAESAHCACkxnfrdbOv6Bgr/?a=7073&bti=OTU0QDItLmA%3D&ch=0&cr=0&dr=4&er=0&lr=unwatermarked&cd=0%7C0%7C0%7C0&br=312&bt=156&ds=5&ft=.cwOVInz7ThowqvOXq8Zmo&qs=13&rc=M290d2w5cm9ydjUzNzhoM0BpM290d2w5cm9ydjUzNzhoM0BnZnEuMmRrc2pgLS1kLjZzYSNnZnEuMmRrc2pgLS1kLjZzcw%3D%3D&vvpl=1&l=02173103917641900000000000000000000ffff0a0088d433601a&btag=e00078000&format=mp3&mime_type=audio_mpeg",
        "source_timerange": {
            "start_offset": 1.515428571428572,
            "end_offset": 3.030857142857144
        },
        "target_timerange": {
            "start_offset": 20.667428571428573,
            "end_offset": 22.182857142857145
        },
        "ignore_audio": true,
        "audio_path": null
    },
    {
        "segment_id": "c83ffb189d8711ef833bb8cef692109a",
        "text": "times how much they were",
        "audio_url": "https://v16m-default.akamaized.net/5dc59b018ddc46cf2da07944de53c68c/672de44c/video/tos/maliva/tos-maliva-v-f15faa-us/oEHS2eDWIFXfI0CWMAESAHCACkxnfrdbOv6Bgr/?a=7073&bti=OTU0QDItLmA%3D&ch=0&cr=0&dr=4&er=0&lr=unwatermarked&cd=0%7C0%7C0%7C0&br=312&bt=156&ds=5&ft=.cwOVInz7ThowqvOXq8Zmo&qs=13&rc=M290d2w5cm9ydjUzNzhoM0BpM290d2w5cm9ydjUzNzhoM0BnZnEuMmRrc2pgLS1kLjZzYSNnZnEuMmRrc2pgLS1kLjZzcw%3D%3D&vvpl=1&l=02173103917641900000000000000000000ffff0a0088d433601a&btag=e00078000&format=mp3&mime_type=audio_mpeg",
        "source_timerange": {
            "start_offset": 3.030857142857144,
            "end_offset": 4.5462857142857125
        },
        "target_timerange": {
            "start_offset": 22.182857142857145,
            "end_offset": 23.698285714285714
        },
        "ignore_audio": true,
        "audio_path": null
    },
    {
        "segment_id": "c83ffc4e9d8711ef833bb8cef692109a",
        "text": "grieved, how shocking it was",
        "audio_url": "https://v16m-default.akamaized.net/5dc59b018ddc46cf2da07944de53c68c/672de44c/video/tos/maliva/tos-maliva-v-f15faa-us/oEHS2eDWIFXfI0CWMAESAHCACkxnfrdbOv6Bgr/?a=7073&bti=OTU0QDItLmA%3D&ch=0&cr=0&dr=4&er=0&lr=unwatermarked&cd=0%7C0%7C0%7C0&br=312&bt=156&ds=5&ft=.cwOVInz7ThowqvOXq8Zmo&qs=13&rc=M290d2w5cm9ydjUzNzhoM0BpM290d2w5cm9ydjUzNzhoM0BnZnEuMmRrc2pgLS1kLjZzYSNnZnEuMmRrc2pgLS1kLjZzcw%3D%3D&vvpl=1&l=02173103917641900000000000000000000ffff0a0088d433601a&btag=e00078000&format=mp3&mime_type=audio_mpeg",
        "source_timerange": {
            "start_offset": 4.546285714285716,
            "end_offset": 6.0617142857142845
        },
        "target_timerange": {
            "start_offset": 23.698285714285717,
            "end_offset": 25.213714285714286
        },
        "ignore_audio": true,
        "audio_path": null
    },
    {
        "segment_id": "c83ffd849d8711ef833bb8cef692109a",
        "text": "to have a bad cold, and how",
        "audio_url": "https://v16m-default.akamaized.net/5dc59b018ddc46cf2da07944de53c68c/672de44c/video/tos/maliva/tos-maliva-v-f15faa-us/oEHS2eDWIFXfI0CWMAESAHCACkxnfrdbOv6Bgr/?a=7073&bti=OTU0QDItLmA%3D&ch=0&cr=0&dr=4&er=0&lr=unwatermarked&cd=0%7C0%7C0%7C0&br=312&bt=156&ds=5&ft=.cwOVInz7ThowqvOXq8Zmo&qs=13&rc=M290d2w5cm9ydjUzNzhoM0BpM290d2w5cm9ydjUzNzhoM0BnZnEuMmRrc2pgLS1kLjZzYSNnZnEuMmRrc2pgLS1kLjZzcw%3D%3D&vvpl=1&l=02173103917641900000000000000000000ffff0a0088d433601a&btag=e00078000&format=mp3&mime_type=audio_mpeg",
        "source_timerange": {
            "start_offset": 6.061714285714288,
            "end_offset": 7.5771428571428565
        },
        "target_timerange": {
            "start_offset": 25.21371428571429,
            "end_offset": 26.729142857142858
        },
        "ignore_audio": true,
        "audio_path": null
    },
    {
        "segment_id": "c83ffeb09d8711ef833bb8cef692109a",
        "text": "excessively they disliked",
        "audio_url": "https://v16m-default.akamaized.net/5dc59b018ddc46cf2da07944de53c68c/672de44c/video/tos/maliva/tos-maliva-v-f15faa-us/oEHS2eDWIFXfI0CWMAESAHCACkxnfrdbOv6Bgr/?a=7073&bti=OTU0QDItLmA%3D&ch=0&cr=0&dr=4&er=0&lr=unwatermarked&cd=0%7C0%7C0%7C0&br=312&bt=156&ds=5&ft=.cwOVInz7ThowqvOXq8Zmo&qs=13&rc=M290d2w5cm9ydjUzNzhoM0BpM290d2w5cm9ydjUzNzhoM0BnZnEuMmRrc2pgLS1kLjZzYSNnZnEuMmRrc2pgLS1kLjZzcw%3D%3D&vvpl=1&l=02173103917641900000000000000000000ffff0a0088d433601a&btag=e00078000&format=mp3&mime_type=audio_mpeg",
        "source_timerange": {
            "start_offset": 7.57714285714286,
            "end_offset": 9.092571428571429
        },
        "target_timerange": {
            "start_offset": 26.72914285714286,
            "end_offset": 28.24457142857143
        },
        "ignore_audio": true,
        "audio_path": null
    },
    {
        "segment_id": "c83fffd29d8711ef833bb8cef692109a",
        "text": "being ill themselves; and",
        "audio_url": "https://v16m-default.akamaized.net/5dc59b018ddc46cf2da07944de53c68c/672de44c/video/tos/maliva/tos-maliva-v-f15faa-us/oEHS2eDWIFXfI0CWMAESAHCACkxnfrdbOv6Bgr/?a=7073&bti=OTU0QDItLmA%3D&ch=0&cr=0&dr=4&er=0&lr=unwatermarked&cd=0%7C0%7C0%7C0&br=312&bt=156&ds=5&ft=.cwOVInz7ThowqvOXq8Zmo&qs=13&rc=M290d2w5cm9ydjUzNzhoM0BpM290d2w5cm9ydjUzNzhoM0BnZnEuMmRrc2pgLS1kLjZzYSNnZnEuMmRrc2pgLS1kLjZzcw%3D%3D&vvpl=1&l=02173103917641900000000000000000000ffff0a0088d433601a&btag=e00078000&format=mp3&mime_type=audio_mpeg",
        "source_timerange": {
            "start_offset": 9.092571428571429,
            "end_offset": 10.608
        },
        "target_timerange": {
            "start_offset": 28.24457142857143,
            "end_offset": 29.76
        },
        "ignore_audio": true,
        "audio_path": null
    },
    {
        "segment_id": "c84001089d8711ef833bb8cef692109a",
        "text": "then thought no more of the",
        "audio_url": "https://v16m-default.akamaized.net/5dc59b018ddc46cf2da07944de53c68c/672de44c/video/tos/maliva/tos-maliva-v-f15faa-us/oEHS2eDWIFXfI0CWMAESAHCACkxnfrdbOv6Bgr/?a=7073&bti=OTU0QDItLmA%3D&ch=0&cr=0&dr=4&er=0&lr=unwatermarked&cd=0%7C0%7C0%7C0&br=312&bt=156&ds=5&ft=.cwOVInz7ThowqvOXq8Zmo&qs=13&rc=M290d2w5cm9ydjUzNzhoM0BpM290d2w5cm9ydjUzNzhoM0BnZnEuMmRrc2pgLS1kLjZzYSNnZnEuMmRrc2pgLS1kLjZzcw%3D%3D&vvpl=1&l=02173103917641900000000000000000000ffff0a0088d433601a&btag=e00078000&format=mp3&mime_type=audio_mpeg",
        "source_timerange": {
            "start_offset": 10.608,
            "end_offset": 12.123428571428573
        },
        "target_timerange": {
            "start_offset": 29.76,
            "end_offset": 31.275428571428574
        },
        "ignore_audio": true,
        "audio_path": null
    },
    {
        "segment_id": "c84002209d8711ef833bb8cef692109a",
        "text": "matter: and their",
        "audio_url": "https://v16m-default.akamaized.net/5dc59b018ddc46cf2da07944de53c68c/672de44c/video/tos/maliva/tos-maliva-v-f15faa-us/oEHS2eDWIFXfI0CWMAESAHCACkxnfrdbOv6Bgr/?a=7073&bti=OTU0QDItLmA%3D&ch=0&cr=0&dr=4&er=0&lr=unwatermarked&cd=0%7C0%7C0%7C0&br=312&bt=156&ds=5&ft=.cwOVInz7ThowqvOXq8Zmo&qs=13&rc=M290d2w5cm9ydjUzNzhoM0BpM290d2w5cm9ydjUzNzhoM0BnZnEuMmRrc2pgLS1kLjZzYSNnZnEuMmRrc2pgLS1kLjZzcw%3D%3D&vvpl=1&l=02173103917641900000000000000000000ffff0a0088d433601a&btag=e00078000&format=mp3&mime_type=audio_mpeg",
        "source_timerange": {
            "start_offset": 12.123428571428573,
            "end_offset": 13.638857142857141
        },
        "target_timerange": {
            "start_offset": 31.275428571428574,
            "end_offset": 32.79085714285714
        },
        "ignore_audio": true,
        "audio_path": null
    },
    {
        "segment_id": "c84003249d8711ef833bb8cef692109a",
        "text": "indifference towards Jane,",
        "audio_url": "https://v16m-default.akamaized.net/5dc59b018ddc46cf2da07944de53c68c/672de44c/video/tos/maliva/tos-maliva-v-f15faa-us/oEHS2eDWIFXfI0CWMAESAHCACkxnfrdbOv6Bgr/?a=7073&bti=OTU0QDItLmA%3D&ch=0&cr=0&dr=4&er=0&lr=unwatermarked&cd=0%7C0%7C0%7C0&br=312&bt=156&ds=5&ft=.cwOVInz7ThowqvOXq8Zmo&qs=13&rc=M290d2w5cm9ydjUzNzhoM0BpM290d2w5cm9ydjUzNzhoM0BnZnEuMmRrc2pgLS1kLjZzYSNnZnEuMmRrc2pgLS1kLjZzcw%3D%3D&vvpl=1&l=02173103917641900000000000000000000ffff0a0088d433601a&btag=e00078000&format=mp3&mime_type=audio_mpeg",
        "source_timerange": {
            "start_offset": 13.638857142857148,
            "end_offset": 15.154285714285713
        },
        "target_timerange": {
            "start_offset": 32.79085714285715,
            "end_offset": 34.306285714285714
        },
        "ignore_audio": true,
        "audio_path": null
    },
    {
        "segment_id": "c84004329d8711ef833bb8cef692109a",
        "text": "when not immediately before",
        "audio_url": "https://v16m-default.akamaized.net/5dc59b018ddc46cf2da07944de53c68c/672de44c/video/tos/maliva/tos-maliva-v-f15faa-us/oEHS2eDWIFXfI0CWMAESAHCACkxnfrdbOv6Bgr/?a=7073&bti=OTU0QDItLmA%3D&ch=0&cr=0&dr=4&er=0&lr=unwatermarked&cd=0%7C0%7C0%7C0&br=312&bt=156&ds=5&ft=.cwOVInz7ThowqvOXq8Zmo&qs=13&rc=M290d2w5cm9ydjUzNzhoM0BpM290d2w5cm9ydjUzNzhoM0BnZnEuMmRrc2pgLS1kLjZzYSNnZnEuMmRrc2pgLS1kLjZzcw%3D%3D&vvpl=1&l=02173103917641900000000000000000000ffff0a0088d433601a&btag=e00078000&format=mp3&mime_type=audio_mpeg",
        "source_timerange": {
            "start_offset": 15.15428571428572,
            "end_offset": 16.669714285714285
        },
        "target_timerange": {
            "start_offset": 34.30628571428572,
            "end_offset": 35.821714285714286
        },
        "ignore_audio": true,
        "audio_path": null
    },
    {
        "segment_id": "c84005689d8711ef833bb8cef692109a",
        "text": "them, restored Elizabeth to",
        "audio_url": "https://v16m-default.akamaized.net/5dc59b018ddc46cf2da07944de53c68c/672de44c/video/tos/maliva/tos-maliva-v-f15faa-us/oEHS2eDWIFXfI0CWMAESAHCACkxnfrdbOv6Bgr/?a=7073&bti=OTU0QDItLmA%3D&ch=0&cr=0&dr=4&er=0&lr=unwatermarked&cd=0%7C0%7C0%7C0&br=312&bt=156&ds=5&ft=.cwOVInz7ThowqvOXq8Zmo&qs=13&rc=M290d2w5cm9ydjUzNzhoM0BpM290d2w5cm9ydjUzNzhoM0BnZnEuMmRrc2pgLS1kLjZzYSNnZnEuMmRrc2pgLS1kLjZzcw%3D%3D&vvpl=1&l=02173103917641900000000000000000000ffff0a0088d433601a&btag=e00078000&format=mp3&mime_type=audio_mpeg",
        "source_timerange": {
            "start_offset": 16.669714285714292,
            "end_offset": 18.185142857142857
        },
        "target_timerange": {
            "start_offset": 35.82171428571429,
            "end_offset": 37.33714285714286
        },
        "ignore_audio": true,
        "audio_path": null
    },
    {
        "segment_id": "c84006a89d8711ef833bb8cef692109a",
        "text": "the enjoyment of all her",
        "audio_url": "https://v16m-default.akamaized.net/5dc59b018ddc46cf2da07944de53c68c/672de44c/video/tos/maliva/tos-maliva-v-f15faa-us/oEHS2eDWIFXfI0CWMAESAHCACkxnfrdbOv6Bgr/?a=7073&bti=OTU0QDItLmA%3D&ch=0&cr=0&dr=4&er=0&lr=unwatermarked&cd=0%7C0%7C0%7C0&br=312&bt=156&ds=5&ft=.cwOVInz7ThowqvOXq8Zmo&qs=13&rc=M290d2w5cm9ydjUzNzhoM0BpM290d2w5cm9ydjUzNzhoM0BnZnEuMmRrc2pgLS1kLjZzYSNnZnEuMmRrc2pgLS1kLjZzcw%3D%3D&vvpl=1&l=02173103917641900000000000000000000ffff0a0088d433601a&btag=e00078000&format=mp3&mime_type=audio_mpeg",
        "source_timerange": {
            "start_offset": 18.185142857142857,
            "end_offset": 19.70057142857143
        },
        "target_timerange": {
            "start_offset": 37.33714285714286,
            "end_offset": 38.85257142857143
        },
        "ignore_audio": true,
        "audio_path": null
    },
    {
        "segment_id": "c84007ca9d8711ef833bb8cef692109a",
        "text": "original dislike.",
        "audio_url": "https://v16m-default.akamaized.net/5dc59b018ddc46cf2da07944de53c68c/672de44c/video/tos/maliva/tos-maliva-v-f15faa-us/oEHS2eDWIFXfI0CWMAESAHCACkxnfrdbOv6Bgr/?a=7073&bti=OTU0QDItLmA%3D&ch=0&cr=0&dr=4&er=0&lr=unwatermarked&cd=0%7C0%7C0%7C0&br=312&bt=156&ds=5&ft=.cwOVInz7ThowqvOXq8Zmo&qs=13&rc=M290d2w5cm9ydjUzNzhoM0BpM290d2w5cm9ydjUzNzhoM0BnZnEuMmRrc2pgLS1kLjZzYSNnZnEuMmRrc2pgLS1kLjZzcw%3D%3D&vvpl=1&l=02173103917641900000000000000000000ffff0a0088d433601a&btag=e00078000&format=mp3&mime_type=audio_mpeg",
        "source_timerange": {
            "start_offset": 19.70057142857143,
            "end_offset": 21.216
        },
        "target_timerange": {
            "start_offset": 38.85257142857143,
            "end_offset": 40.368
        },
        "ignore_audio": true,
        "audio_path": null
    },
    {
        "segment_id": "c8401da09d8711ef833bb8cef692109a",
        "text": "Their brother, indeed, was the",
        "audio_url": "https://v16m-default.akamaized.net/334298bb9e0af2449723add9648f1729/672de43c/video/tos/maliva/tos-maliva-v-f15faa-us/o4WA9FtfujAEeA9cIjkLIeLtEEYemAbtKAGjFs/?a=7073&bti=OTU0QDItLmA%3D&ch=0&cr=0&dr=4&er=0&lr=unwatermarked&cd=0%7C0%7C0%7C0&br=312&bt=156&ds=5&ft=.cwOVInz7ThowqvOXq8Zmo&qs=13&rc=M3h4a3I5cm9ydjUzNzhoM0BpM3h4a3I5cm9ydjUzNzhoM0AxX2VxMmRrc2pgLS1kLjZzYSMxX2VxMmRrc2pgLS1kLjZzcw%3D%3D&vvpl=1&l=02173103917641900000000000000000000ffff0a0088d433601a&btag=e00070000&format=mp3&mime_type=audio_mpeg",
        "source_timerange": {
            "start_offset": 0,
            "end_offset": 1.7280000000000042
        },
        "target_timerange": {
            "start_offset": 40.368,
            "end_offset": 42.096000000000004
        },
        "ignore_audio": false,
        "audio_path": null
    },
    {
        "segment_id": "c8401f629d8711ef833bb8cef692109a",
        "text": "only one of the party whom she",
        "audio_url": "https://v16m-default.akamaized.net/334298bb9e0af2449723add9648f1729/672de43c/video/tos/maliva/tos-maliva-v-f15faa-us/o4WA9FtfujAEeA9cIjkLIeLtEEYemAbtKAGjFs/?a=7073&bti=OTU0QDItLmA%3D&ch=0&cr=0&dr=4&er=0&lr=unwatermarked&cd=0%7C0%7C0%7C0&br=312&bt=156&ds=5&ft=.cwOVInz7ThowqvOXq8Zmo&qs=13&rc=M3h4a3I5cm9ydjUzNzhoM0BpM3h4a3I5cm9ydjUzNzhoM0AxX2VxMmRrc2pgLS1kLjZzYSMxX2VxMmRrc2pgLS1kLjZzcw%3D%3D&vvpl=1&l=02173103917641900000000000000000000ffff0a0088d433601a&btag=e00070000&format=mp3&mime_type=audio_mpeg",
        "source_timerange": {
            "start_offset": 1.7280000000000015,
            "end_offset": 3.4559999999999986
        },
        "target_timerange": {
            "start_offset": 42.096000000000004,
            "end_offset": 43.824
        },
        "ignore_audio": true,
        "audio_path": null
    },
    {
        "segment_id": "c84020ca9d8711ef833bb8cef692109a",
        "text": "could regard with any complacency.",
        "audio_url": "https://v16m-default.akamaized.net/334298bb9e0af2449723add9648f1729/672de43c/video/tos/maliva/tos-maliva-v-f15faa-us/o4WA9FtfujAEeA9cIjkLIeLtEEYemAbtKAGjFs/?a=7073&bti=OTU0QDItLmA%3D&ch=0&cr=0&dr=4&er=0&lr=unwatermarked&cd=0%7C0%7C0%7C0&br=312&bt=156&ds=5&ft=.cwOVInz7ThowqvOXq8Zmo&qs=13&rc=M3h4a3I5cm9ydjUzNzhoM0BpM3h4a3I5cm9ydjUzNzhoM0AxX2VxMmRrc2pgLS1kLjZzYSMxX2VxMmRrc2pgLS1kLjZzcw%3D%3D&vvpl=1&l=02173103917641900000000000000000000ffff0a0088d433601a&btag=e00070000&format=mp3&mime_type=audio_mpeg",
        "source_timerange": {
            "start_offset": 3.455999999999996,
            "end_offset": 5.184
        },
        "target_timerange": {
            "start_offset": 43.824,
            "end_offset": 45.552
        },
        "ignore_audio": true,
        "audio_path": null
    },
    {
        "segment_id": "c8404aa09d8711ef833bb8cef692109a",
        "text": "His anxiety for Jane was",
        "audio_url": "https://v16m-default.akamaized.net/126adac5da46cca84109fc16a17334a3/672de441/video/tos/maliva/tos-maliva-v-f15faa-us/osAEgE1ArfXEOXjftAJWAx9ReWLDCCFWSRYCTv/?a=7073&bti=OTU0QDItLmA%3D&ch=0&cr=0&dr=4&er=0&lr=unwatermarked&cd=0%7C0%7C0%7C0&br=312&bt=156&ds=5&ft=.cwOVInz7ThowqvOXq8Zmo&qs=13&rc=anB4aXQ5cm9ydjUzNzhoM0BpanB4aXQ5cm9ydjUzNzhoM0AxcmZoMmRrc2pgLS1kLjZzYSMxcmZoMmRrc2pgLS1kLjZzcw%3D%3D&vvpl=1&l=02173103917641900000000000000000000ffff0a0088d433601a&btag=e00070000&format=mp3&mime_type=audio_mpeg",
        "source_timerange": {
            "start_offset": 0,
            "end_offset": 1.467428571428572
        },
        "target_timerange": {
            "start_offset": 45.552,
            "end_offset": 47.01942857142857
        },
        "ignore_audio": false,
        "audio_path": null
    },
    {
        "segment_id": "c8404bf49d8711ef833bb8cef692109a",
        "text": "evident, and his attentions",
        "audio_url": "https://v16m-default.akamaized.net/126adac5da46cca84109fc16a17334a3/672de441/video/tos/maliva/tos-maliva-v-f15faa-us/osAEgE1ArfXEOXjftAJWAx9ReWLDCCFWSRYCTv/?a=7073&bti=OTU0QDItLmA%3D&ch=0&cr=0&dr=4&er=0&lr=unwatermarked&cd=0%7C0%7C0%7C0&br=312&bt=156&ds=5&ft=.cwOVInz7ThowqvOXq8Zmo&qs=13&rc=anB4aXQ5cm9ydjUzNzhoM0BpanB4aXQ5cm9ydjUzNzhoM0AxcmZoMmRrc2pgLS1kLjZzYSMxcmZoMmRrc2pgLS1kLjZzcw%3D%3D&vvpl=1&l=02173103917641900000000000000000000ffff0a0088d433601a&btag=e00070000&format=mp3&mime_type=audio_mpeg",
        "source_timerange": {
            "start_offset": 1.4674285714285702,
            "end_offset": 2.934857142857142
        },
        "target_timerange": {
            "start_offset": 47.01942857142857,
            "end_offset": 48.48685714285714
        },
        "ignore_audio": true,
        "audio_path": null
    },
    {
        "segment_id": "c8404d029d8711ef833bb8cef692109a",
        "text": "to herself most pleasing; and",
        "audio_url": "https://v16m-default.akamaized.net/126adac5da46cca84109fc16a17334a3/672de441/video/tos/maliva/tos-maliva-v-f15faa-us/osAEgE1ArfXEOXjftAJWAx9ReWLDCCFWSRYCTv/?a=7073&bti=OTU0QDItLmA%3D&ch=0&cr=0&dr=4&er=0&lr=unwatermarked&cd=0%7C0%7C0%7C0&br=312&bt=156&ds=5&ft=.cwOVInz7ThowqvOXq8Zmo&qs=13&rc=anB4aXQ5cm9ydjUzNzhoM0BpanB4aXQ5cm9ydjUzNzhoM0AxcmZoMmRrc2pgLS1kLjZzYSMxcmZoMmRrc2pgLS1kLjZzcw%3D%3D&vvpl=1&l=02173103917641900000000000000000000ffff0a0088d433601a&btag=e00070000&format=mp3&mime_type=audio_mpeg",
        "source_timerange": {
            "start_offset": 2.9348571428571404,
            "end_offset": 4.402285714285712
        },
        "target_timerange": {
            "start_offset": 48.48685714285714,
            "end_offset": 49.95428571428571
        },
        "ignore_audio": true,
        "audio_path": null
    },
    {
        "segment_id": "c8404faa9d8711ef833bb8cef692109a",
        "text": "they prevented her feeling",
        "audio_url": "https://v16m-default.akamaized.net/126adac5da46cca84109fc16a17334a3/672de441/video/tos/maliva/tos-maliva-v-f15faa-us/osAEgE1ArfXEOXjftAJWAx9ReWLDCCFWSRYCTv/?a=7073&bti=OTU0QDItLmA%3D&ch=0&cr=0&dr=4&er=0&lr=unwatermarked&cd=0%7C0%7C0%7C0&br=312&bt=156&ds=5&ft=.cwOVInz7ThowqvOXq8Zmo&qs=13&rc=anB4aXQ5cm9ydjUzNzhoM0BpanB4aXQ5cm9ydjUzNzhoM0AxcmZoMmRrc2pgLS1kLjZzYSMxcmZoMmRrc2pgLS1kLjZzcw%3D%3D&vvpl=1&l=02173103917641900000000000000000000ffff0a0088d433601a&btag=e00070000&format=mp3&mime_type=audio_mpeg",
        "source_timerange": {
            "start_offset": 4.402285714285718,
            "end_offset": 5.86971428571429
        },
        "target_timerange": {
            "start_offset": 49.95428571428572,
            "end_offset": 51.42171428571429
        },
        "ignore_audio": true,
        "audio_path": null
    },
    {
        "segment_id": "c84050cc9d8711ef833bb8cef692109a",
        "text": "herself so much an intruder",
        "audio_url": "https://v16m-default.akamaized.net/126adac5da46cca84109fc16a17334a3/672de441/video/tos/maliva/tos-maliva-v-f15faa-us/osAEgE1ArfXEOXjftAJWAx9ReWLDCCFWSRYCTv/?a=7073&bti=OTU0QDItLmA%3D&ch=0&cr=0&dr=4&er=0&lr=unwatermarked&cd=0%7C0%7C0%7C0&br=312&bt=156&ds=5&ft=.cwOVInz7ThowqvOXq8Zmo&qs=13&rc=anB4aXQ5cm9ydjUzNzhoM0BpanB4aXQ5cm9ydjUzNzhoM0AxcmZoMmRrc2pgLS1kLjZzYSMxcmZoMmRrc2pgLS1kLjZzcw%3D%3D&vvpl=1&l=02173103917641900000000000000000000ffff0a0088d433601a&btag=e00070000&format=mp3&mime_type=audio_mpeg",
        "source_timerange": {
            "start_offset": 5.869714285714288,
            "end_offset": 7.33714285714286
        },
        "target_timerange": {
            "start_offset": 51.42171428571429,
            "end_offset": 52.88914285714286
        },
        "ignore_audio": true,
        "audio_path": null
    },
    {
        "segment_id": "c84052029d8711ef833bb8cef692109a",
        "text": "as she believed she was",
        "audio_url": "https://v16m-default.akamaized.net/126adac5da46cca84109fc16a17334a3/672de441/video/tos/maliva/tos-maliva-v-f15faa-us/osAEgE1ArfXEOXjftAJWAx9ReWLDCCFWSRYCTv/?a=7073&bti=OTU0QDItLmA%3D&ch=0&cr=0&dr=4&er=0&lr=unwatermarked&cd=0%7C0%7C0%7C0&br=312&bt=156&ds=5&ft=.cwOVInz7ThowqvOXq8Zmo&qs=13&rc=anB4aXQ5cm9ydjUzNzhoM0BpanB4aXQ5cm9ydjUzNzhoM0AxcmZoMmRrc2pgLS1kLjZzYSMxcmZoMmRrc2pgLS1kLjZzcw%3D%3D&vvpl=1&l=02173103917641900000000000000000000ffff0a0088d433601a&btag=e00070000&format=mp3&mime_type=audio_mpeg",
        "source_timerange": {
            "start_offset": 7.337142857142858,
            "end_offset": 8.80457142857143
        },
        "target_timerange": {
            "start_offset": 52.88914285714286,
            "end_offset": 54.35657142857143
        },
        "ignore_audio": true,
        "audio_path": null
    },
    {
        "segment_id": "c84052fc9d8711ef833bb8cef692109a",
        "text": "considered by the others.",
        "audio_url": "https://v16m-default.akamaized.net/126adac5da46cca84109fc16a17334a3/672de441/video/tos/maliva/tos-maliva-v-f15faa-us/osAEgE1ArfXEOXjftAJWAx9ReWLDCCFWSRYCTv/?a=7073&bti=OTU0QDItLmA%3D&ch=0&cr=0&dr=4&er=0&lr=unwatermarked&cd=0%7C0%7C0%7C0&br=312&bt=156&ds=5&ft=.cwOVInz7ThowqvOXq8Zmo&qs=13&rc=anB4aXQ5cm9ydjUzNzhoM0BpanB4aXQ5cm9ydjUzNzhoM0AxcmZoMmRrc2pgLS1kLjZzYSMxcmZoMmRrc2pgLS1kLjZzcw%3D%3D&vvpl=1&l=02173103917641900000000000000000000ffff0a0088d433601a&btag=e00070000&format=mp3&mime_type=audio_mpeg",
        "source_timerange": {
            "start_offset": 8.804571428571428,
            "end_offset": 10.272
        },
        "target_timerange": {
            "start_offset": 54.35657142857143,
            "end_offset": 55.824
        },
        "ignore_audio": true,
        "audio_path": null
    },
    {
        "segment_id": "c8405f869d8711ef833bb8cef692109a",
        "text": "She had very little",
        "audio_url": "https://v16m-default.akamaized.net/d0ad64fc8522d2bb45025d9e5ddcd54b/672de439/video/tos/maliva/tos-maliva-v-f15faa-us/oc56bXMexSAwIEIOBWFfCCgohHBAfOIUrAD9CW/?a=7073&bti=OTU0QDItLmA%3D&ch=0&cr=0&dr=4&er=0&lr=unwatermarked&cd=0%7C0%7C0%7C0&br=312&bt=156&ds=5&ft=.cwOVInz7ThowqvOXq8Zmo&qs=13&rc=ampqOng5cm9ydjUzNzhoM0BpampqOng5cm9ydjUzNzhoM0BnYDFpMmRrc2pgLS1kLjZzYSNnYDFpMmRrc2pgLS1kLjZzcw%3D%3D&vvpl=1&l=02173103917641900000000000000000000ffff0a0088d433601a&btag=e00070000&format=mp3&mime_type=audio_mpeg",
        "source_timerange": {
            "start_offset": 0,
            "end_offset": 1.260000000000002
        },
        "target_timerange": {
            "start_offset": 55.824,
            "end_offset": 57.084
        },
        "ignore_audio": false,
        "audio_path": null
    },
    {
        "segment_id": "c84060c69d8711ef833bb8cef692109a",
        "text": "notice from any but him.",
        "audio_url": "https://v16m-default.akamaized.net/d0ad64fc8522d2bb45025d9e5ddcd54b/672de439/video/tos/maliva/tos-maliva-v-f15faa-us/oc56bXMexSAwIEIOBWFfCCgohHBAfOIUrAD9CW/?a=7073&bti=OTU0QDItLmA%3D&ch=0&cr=0&dr=4&er=0&lr=unwatermarked&cd=0%7C0%7C0%7C0&br=312&bt=156&ds=5&ft=.cwOVInz7ThowqvOXq8Zmo&qs=13&rc=ampqOng5cm9ydjUzNzhoM0BpampqOng5cm9ydjUzNzhoM0BnYDFpMmRrc2pgLS1kLjZzYSNnYDFpMmRrc2pgLS1kLjZzcw%3D%3D&vvpl=1&l=02173103917641900000000000000000000ffff0a0088d433601a&btag=e00070000&format=mp3&mime_type=audio_mpeg",
        "source_timerange": {
            "start_offset": 1.2600000000000051,
            "end_offset": 2.52
        },
        "target_timerange": {
            "start_offset": 57.084,
            "end_offset": 58.344
        },
        "ignore_audio": true,
        "audio_path": null
    },
    {
        "segment_id": "c84098f29d8711ef833bb8cef692109a",
        "text": "Miss Bingley was",
        "audio_url": "https://v16m-default.akamaized.net/82746b68f91413ffdfa20945e8b7efec/672de448/video/tos/maliva/tos-maliva-v-f15faa-us/owErfSOXx81QbWftDCEo0WFAFAAC1gf0EjCAi9/?a=7073&bti=OTU0QDItLmA%3D&ch=0&cr=0&dr=4&er=0&lr=unwatermarked&cd=0%7C0%7C0%7C0&br=312&bt=156&ds=5&ft=.cwOVInz7ThowqvOXq8Zmo&qs=13&rc=anRlN3Q5cm9ydjUzNzhoM0BpanRlN3Q5cm9ydjUzNzhoM0BjNV8xMmRrc2pgLS1kLjZzYSNjNV8xMmRrc2pgLS1kLjZzcw%3D%3D&vvpl=1&l=02173103917641900000000000000000000ffff0a0088d433601a&btag=e00078000&format=mp3&mime_type=audio_mpeg",
        "source_timerange": {
            "start_offset": 0,
            "end_offset": 1.4939999999999962
        },
        "target_timerange": {
            "start_offset": 58.344,
            "end_offset": 59.838
        },
        "ignore_audio": false,
        "audio_path": null
    },
    {
        "segment_id": "c8409a509d8711ef833bb8cef692109a",
        "text": "engrossed by Mr. Darcy,",
        "audio_url": "https://v16m-default.akamaized.net/82746b68f91413ffdfa20945e8b7efec/672de448/video/tos/maliva/tos-maliva-v-f15faa-us/owErfSOXx81QbWftDCEo0WFAFAAC1gf0EjCAi9/?a=7073&bti=OTU0QDItLmA%3D&ch=0&cr=0&dr=4&er=0&lr=unwatermarked&cd=0%7C0%7C0%7C0&br=312&bt=156&ds=5&ft=.cwOVInz7ThowqvOXq8Zmo&qs=13&rc=anRlN3Q5cm9ydjUzNzhoM0BpanRlN3Q5cm9ydjUzNzhoM0BjNV8xMmRrc2pgLS1kLjZzYSNjNV8xMmRrc2pgLS1kLjZzcw%3D%3D&vvpl=1&l=02173103917641900000000000000000000ffff0a0088d433601a&btag=e00078000&format=mp3&mime_type=audio_mpeg",
        "source_timerange": {
            "start_offset": 1.4939999999999998,
            "end_offset": 2.987999999999996
        },
        "target_timerange": {
            "start_offset": 59.838,
            "end_offset": 61.332
        },
        "ignore_audio": true,
        "audio_path": null
    },
    {
        "segment_id": "c8409b869d8711ef833bb8cef692109a",
        "text": "her sister scarcely less",
        "audio_url": "https://v16m-default.akamaized.net/82746b68f91413ffdfa20945e8b7efec/672de448/video/tos/maliva/tos-maliva-v-f15faa-us/owErfSOXx81QbWftDCEo0WFAFAAC1gf0EjCAi9/?a=7073&bti=OTU0QDItLmA%3D&ch=0&cr=0&dr=4&er=0&lr=unwatermarked&cd=0%7C0%7C0%7C0&br=312&bt=156&ds=5&ft=.cwOVInz7ThowqvOXq8Zmo&qs=13&rc=anRlN3Q5cm9ydjUzNzhoM0BpanRlN3Q5cm9ydjUzNzhoM0BjNV8xMmRrc2pgLS1kLjZzYSNjNV8xMmRrc2pgLS1kLjZzcw%3D%3D&vvpl=1&l=02173103917641900000000000000000000ffff0a0088d433601a&btag=e00078000&format=mp3&mime_type=audio_mpeg",
        "source_timerange": {
            "start_offset": 2.9879999999999995,
            "end_offset": 4.481999999999996
        },
        "target_timerange": {
            "start_offset": 61.332,
            "end_offset": 62.826
        },
        "ignore_audio": true,
        "audio_path": null
    },
    {
        "segment_id": "c8409c809d8711ef833bb8cef692109a",
        "text": "so; and as for Mr. Hurst,",
        "audio_url": "https://v16m-default.akamaized.net/82746b68f91413ffdfa20945e8b7efec/672de448/video/tos/maliva/tos-maliva-v-f15faa-us/owErfSOXx81QbWftDCEo0WFAFAAC1gf0EjCAi9/?a=7073&bti=OTU0QDItLmA%3D&ch=0&cr=0&dr=4&er=0&lr=unwatermarked&cd=0%7C0%7C0%7C0&br=312&bt=156&ds=5&ft=.cwOVInz7ThowqvOXq8Zmo&qs=13&rc=anRlN3Q5cm9ydjUzNzhoM0BpanRlN3Q5cm9ydjUzNzhoM0BjNV8xMmRrc2pgLS1kLjZzYSNjNV8xMmRrc2pgLS1kLjZzcw%3D%3D&vvpl=1&l=02173103917641900000000000000000000ffff0a0088d433601a&btag=e00078000&format=mp3&mime_type=audio_mpeg",
        "source_timerange": {
            "start_offset": 4.481999999999999,
            "end_offset": 5.976000000000003
        },
        "target_timerange": {
            "start_offset": 62.826,
            "end_offset": 64.32000000000001
        },
        "ignore_audio": true,
        "audio_path": null
    },
    {
        "segment_id": "c8409d709d8711ef833bb8cef692109a",
        "text": "by whom Elizabeth sat, he",
        "audio_url": "https://v16m-default.akamaized.net/82746b68f91413ffdfa20945e8b7efec/672de448/video/tos/maliva/tos-maliva-v-f15faa-us/owErfSOXx81QbWftDCEo0WFAFAAC1gf0EjCAi9/?a=7073&bti=OTU0QDItLmA%3D&ch=0&cr=0&dr=4&er=0&lr=unwatermarked&cd=0%7C0%7C0%7C0&br=312&bt=156&ds=5&ft=.cwOVInz7ThowqvOXq8Zmo&qs=13&rc=anRlN3Q5cm9ydjUzNzhoM0BpanRlN3Q5cm9ydjUzNzhoM0BjNV8xMmRrc2pgLS1kLjZzYSNjNV8xMmRrc2pgLS1kLjZzcw%3D%3D&vvpl=1&l=02173103917641900000000000000000000ffff0a0088d433601a&btag=e00078000&format=mp3&mime_type=audio_mpeg",
        "source_timerange": {
            "start_offset": 5.976000000000006,
            "end_offset": 7.470000000000002
        },
        "target_timerange": {
            "start_offset": 64.32000000000001,
            "end_offset": 65.81400000000001
        },
        "ignore_audio": true,
        "audio_path": null
    },
    {
        "segment_id": "c8409e929d8711ef833bb8cef692109a",
        "text": "was an indolent man, who",
        "audio_url": "https://v16m-default.akamaized.net/82746b68f91413ffdfa20945e8b7efec/672de448/video/tos/maliva/tos-maliva-v-f15faa-us/owErfSOXx81QbWftDCEo0WFAFAAC1gf0EjCAi9/?a=7073&bti=OTU0QDItLmA%3D&ch=0&cr=0&dr=4&er=0&lr=unwatermarked&cd=0%7C0%7C0%7C0&br=312&bt=156&ds=5&ft=.cwOVInz7ThowqvOXq8Zmo&qs=13&rc=anRlN3Q5cm9ydjUzNzhoM0BpanRlN3Q5cm9ydjUzNzhoM0BjNV8xMmRrc2pgLS1kLjZzYSNjNV8xMmRrc2pgLS1kLjZzcw%3D%3D&vvpl=1&l=02173103917641900000000000000000000ffff0a0088d433601a&btag=e00078000&format=mp3&mime_type=audio_mpeg",
        "source_timerange": {
            "start_offset": 7.470000000000006,
            "end_offset": 8.964000000000002
        },
        "target_timerange": {
            "start_offset": 65.81400000000001,
            "end_offset": 67.308
        },
        "ignore_audio": true,
        "audio_path": null
    },
    {
        "segment_id": "c8409f829d8711ef833bb8cef692109a",
        "text": "lived only to eat, drink,",
        "audio_url": "https://v16m-default.akamaized.net/82746b68f91413ffdfa20945e8b7efec/672de448/video/tos/maliva/tos-maliva-v-f15faa-us/owErfSOXx81QbWftDCEo0WFAFAAC1gf0EjCAi9/?a=7073&bti=OTU0QDItLmA%3D&ch=0&cr=0&dr=4&er=0&lr=unwatermarked&cd=0%7C0%7C0%7C0&br=312&bt=156&ds=5&ft=.cwOVInz7ThowqvOXq8Zmo&qs=13&rc=anRlN3Q5cm9ydjUzNzhoM0BpanRlN3Q5cm9ydjUzNzhoM0BjNV8xMmRrc2pgLS1kLjZzYSNjNV8xMmRrc2pgLS1kLjZzcw%3D%3D&vvpl=1&l=02173103917641900000000000000000000ffff0a0088d433601a&btag=e00078000&format=mp3&mime_type=audio_mpeg",
        "source_timerange": {
            "start_offset": 8.964000000000006,
            "end_offset": 10.458000000000002
        },
        "target_timerange": {
            "start_offset": 67.308,
            "end_offset": 68.802
        },
        "ignore_audio": true,
        "audio_path": null
    },
    {
        "segment_id": "c840a0689d8711ef833bb8cef692109a",
        "text": "and play at cards, who,",
        "audio_url": "https://v16m-default.akamaized.net/82746b68f91413ffdfa20945e8b7efec/672de448/video/tos/maliva/tos-maliva-v-f15faa-us/owErfSOXx81QbWftDCEo0WFAFAAC1gf0EjCAi9/?a=7073&bti=OTU0QDItLmA%3D&ch=0&cr=0&dr=4&er=0&lr=unwatermarked&cd=0%7C0%7C0%7C0&br=312&bt=156&ds=5&ft=.cwOVInz7ThowqvOXq8Zmo&qs=13&rc=anRlN3Q5cm9ydjUzNzhoM0BpanRlN3Q5cm9ydjUzNzhoM0BjNV8xMmRrc2pgLS1kLjZzYSNjNV8xMmRrc2pgLS1kLjZzcw%3D%3D&vvpl=1&l=02173103917641900000000000000000000ffff0a0088d433601a&btag=e00078000&format=mp3&mime_type=audio_mpeg",
        "source_timerange": {
            "start_offset": 10.458000000000006,
            "end_offset": 11.952000000000002
        },
        "target_timerange": {
            "start_offset": 68.802,
            "end_offset": 70.296
        },
        "ignore_audio": true,
        "audio_path": null
    },
    {
        "segment_id": "c840a1949d8711ef833bb8cef692109a",
        "text": "when he found her prefer",
        "audio_url": "https://v16m-default.akamaized.net/82746b68f91413ffdfa20945e8b7efec/672de448/video/tos/maliva/tos-maliva-v-f15faa-us/owErfSOXx81QbWftDCEo0WFAFAAC1gf0EjCAi9/?a=7073&bti=OTU0QDItLmA%3D&ch=0&cr=0&dr=4&er=0&lr=unwatermarked&cd=0%7C0%7C0%7C0&br=312&bt=156&ds=5&ft=.cwOVInz7ThowqvOXq8Zmo&qs=13&rc=anRlN3Q5cm9ydjUzNzhoM0BpanRlN3Q5cm9ydjUzNzhoM0BjNV8xMmRrc2pgLS1kLjZzYSNjNV8xMmRrc2pgLS1kLjZzcw%3D%3D&vvpl=1&l=02173103917641900000000000000000000ffff0a0088d433601a&btag=e00078000&format=mp3&mime_type=audio_mpeg",
        "source_timerange": {
            "start_offset": 11.952000000000005,
            "end_offset": 13.446000000000002
        },
        "target_timerange": {
            "start_offset": 70.296,
            "end_offset": 71.79
        },
        "ignore_audio": true,
        "audio_path": null
    },
    {
        "segment_id": "c840a2849d8711ef833bb8cef692109a",
        "text": "a plain dish to a ragout,",
        "audio_url": "https://v16m-default.akamaized.net/82746b68f91413ffdfa20945e8b7efec/672de448/video/tos/maliva/tos-maliva-v-f15faa-us/owErfSOXx81QbWftDCEo0WFAFAAC1gf0EjCAi9/?a=7073&bti=OTU0QDItLmA%3D&ch=0&cr=0&dr=4&er=0&lr=unwatermarked&cd=0%7C0%7C0%7C0&br=312&bt=156&ds=5&ft=.cwOVInz7ThowqvOXq8Zmo&qs=13&rc=anRlN3Q5cm9ydjUzNzhoM0BpanRlN3Q5cm9ydjUzNzhoM0BjNV8xMmRrc2pgLS1kLjZzYSNjNV8xMmRrc2pgLS1kLjZzcw%3D%3D&vvpl=1&l=02173103917641900000000000000000000ffff0a0088d433601a&btag=e00078000&format=mp3&mime_type=audio_mpeg",
        "source_timerange": {
            "start_offset": 13.446000000000005,
            "end_offset": 14.940000000000001
        },
        "target_timerange": {
            "start_offset": 71.79,
            "end_offset": 73.284
        },
        "ignore_audio": true,
        "audio_path": null
    },
    {
        "segment_id": "c840a3609d8711ef833bb8cef692109a",
        "text": "had nothing to say to",
        "audio_url": "https://v16m-default.akamaized.net/82746b68f91413ffdfa20945e8b7efec/672de448/video/tos/maliva/tos-maliva-v-f15faa-us/owErfSOXx81QbWftDCEo0WFAFAAC1gf0EjCAi9/?a=7073&bti=OTU0QDItLmA%3D&ch=0&cr=0&dr=4&er=0&lr=unwatermarked&cd=0%7C0%7C0%7C0&br=312&bt=156&ds=5&ft=.cwOVInz7ThowqvOXq8Zmo&qs=13&rc=anRlN3Q5cm9ydjUzNzhoM0BpanRlN3Q5cm9ydjUzNzhoM0BjNV8xMmRrc2pgLS1kLjZzYSNjNV8xMmRrc2pgLS1kLjZzcw%3D%3D&vvpl=1&l=02173103917641900000000000000000000ffff0a0088d433601a&btag=e00078000&format=mp3&mime_type=audio_mpeg",
        "source_timerange": {
            "start_offset": 14.940000000000005,
            "end_offset": 16.434
        },
        "target_timerange": {
            "start_offset": 73.284,
            "end_offset": 74.778
        },
        "ignore_audio": true,
        "audio_path": null
    },
    {
        "segment_id": "c840a48c9d8711ef833bb8cef692109a",
        "text": "her.",
        "audio_url": "https://v16m-default.akamaized.net/82746b68f91413ffdfa20945e8b7efec/672de448/video/tos/maliva/tos-maliva-v-f15faa-us/owErfSOXx81QbWftDCEo0WFAFAAC1gf0EjCAi9/?a=7073&bti=OTU0QDItLmA%3D&ch=0&cr=0&dr=4&er=0&lr=unwatermarked&cd=0%7C0%7C0%7C0&br=312&bt=156&ds=5&ft=.cwOVInz7ThowqvOXq8Zmo&qs=13&rc=anRlN3Q5cm9ydjUzNzhoM0BpanRlN3Q5cm9ydjUzNzhoM0BjNV8xMmRrc2pgLS1kLjZzYSNjNV8xMmRrc2pgLS1kLjZzcw%3D%3D&vvpl=1&l=02173103917641900000000000000000000ffff0a0088d433601a&btag=e00078000&format=mp3&mime_type=audio_mpeg",
        "source_timerange": {
            "start_offset": 16.434000000000005,
            "end_offset": 17.928
        },
        "target_timerange": {
            "start_offset": 74.778,
            "end_offset": 76.272
        },
        "ignore_audio": true,
        "audio_path": null
    },
    {
        "segment_id": "c840b9ea9d8711ef833bb8cef692109a",
        "text": "When dinner was over, she",
        "audio_url": "https://v16m-default.akamaized.net/938ba91b0b954008f28bd7eab6e287a0/672de43d/video/tos/maliva/tos-maliva-v-f15faa-us/oAGfeASDOCHrcylFEAAxQXI4CCpbfWzg4rI6BW/?a=7073&bti=OTU0QDItLmA%3D&ch=0&cr=0&dr=4&er=0&lr=unwatermarked&cd=0%7C0%7C0%7C0&br=312&bt=156&ds=5&ft=.cwOVInz7ThowqvOXq8Zmo&qs=13&rc=amhtOm85cm9ydjUzNzhoM0BpamhtOm85cm9ydjUzNzhoM0AuMi9yMmRrc2pgLS1kLjZzYSMuMi9yMmRrc2pgLS1kLjZzcw%3D%3D&vvpl=1&l=02173103917641900000000000000000000ffff0a0088d433601a&btag=e00070000&format=mp3&mime_type=audio_mpeg",
        "source_timerange": {
            "start_offset": 0,
            "end_offset": 1.6799999999999935
        },
        "target_timerange": {
            "start_offset": 76.272,
            "end_offset": 77.952
        },
        "ignore_audio": false,
        "audio_path": null
    },
    {
        "segment_id": "c840bb2a9d8711ef833bb8cef692109a",
        "text": "returned directly to Jane, and",
        "audio_url": "https://v16m-default.akamaized.net/938ba91b0b954008f28bd7eab6e287a0/672de43d/video/tos/maliva/tos-maliva-v-f15faa-us/oAGfeASDOCHrcylFEAAxQXI4CCpbfWzg4rI6BW/?a=7073&bti=OTU0QDItLmA%3D&ch=0&cr=0&dr=4&er=0&lr=unwatermarked&cd=0%7C0%7C0%7C0&br=312&bt=156&ds=5&ft=.cwOVInz7ThowqvOXq8Zmo&qs=13&rc=amhtOm85cm9ydjUzNzhoM0BpamhtOm85cm9ydjUzNzhoM0AuMi9yMmRrc2pgLS1kLjZzYSMuMi9yMmRrc2pgLS1kLjZzcw%3D%3D&vvpl=1&l=02173103917641900000000000000000000ffff0a0088d433601a&btag=e00070000&format=mp3&mime_type=audio_mpeg",
        "source_timerange": {
            "start_offset": 1.6799999999999926,
            "end_offset": 3.3600000000000003
        },
        "target_timerange": {
            "start_offset": 77.952,
            "end_offset": 79.632
        },
        "ignore_audio": true,
        "audio_path": null
    },
    {
        "segment_id": "c840bc249d8711ef833bb8cef692109a",
        "text": "Miss Bingley began abusing her as",
        "audio_url": "https://v16m-default.akamaized.net/938ba91b0b954008f28bd7eab6e287a0/672de43d/video/tos/maliva/tos-maliva-v-f15faa-us/oAGfeASDOCHrcylFEAAxQXI4CCpbfWzg4rI6BW/?a=7073&bti=OTU0QDItLmA%3D&ch=0&cr=0&dr=4&er=0&lr=unwatermarked&cd=0%7C0%7C0%7C0&br=312&bt=156&ds=5&ft=.cwOVInz7ThowqvOXq8Zmo&qs=13&rc=amhtOm85cm9ydjUzNzhoM0BpamhtOm85cm9ydjUzNzhoM0AuMi9yMmRrc2pgLS1kLjZzYSMuMi9yMmRrc2pgLS1kLjZzcw%3D%3D&vvpl=1&l=02173103917641900000000000000000000ffff0a0088d433601a&btag=e00070000&format=mp3&mime_type=audio_mpeg",
        "source_timerange": {
            "start_offset": 3.3599999999999994,
            "end_offset": 5.040000000000007
        },
        "target_timerange": {
            "start_offset": 79.632,
            "end_offset": 81.31200000000001
        },
        "ignore_audio": true,
        "audio_path": null
    },
    {
        "segment_id": "c840bd149d8711ef833bb8cef692109a",
        "text": "soon as she was out of the room.",
        "audio_url": "https://v16m-default.akamaized.net/938ba91b0b954008f28bd7eab6e287a0/672de43d/video/tos/maliva/tos-maliva-v-f15faa-us/oAGfeASDOCHrcylFEAAxQXI4CCpbfWzg4rI6BW/?a=7073&bti=OTU0QDItLmA%3D&ch=0&cr=0&dr=4&er=0&lr=unwatermarked&cd=0%7C0%7C0%7C0&br=312&bt=156&ds=5&ft=.cwOVInz7ThowqvOXq8Zmo&qs=13&rc=amhtOm85cm9ydjUzNzhoM0BpamhtOm85cm9ydjUzNzhoM0AuMi9yMmRrc2pgLS1kLjZzYSMuMi9yMmRrc2pgLS1kLjZzcw%3D%3D&vvpl=1&l=02173103917641900000000000000000000ffff0a0088d433601a&btag=e00070000&format=mp3&mime_type=audio_mpeg",
        "source_timerange": {
            "start_offset": 5.040000000000006,
            "end_offset": 6.72
        },
        "target_timerange": {
            "start_offset": 81.31200000000001,
            "end_offset": 82.992
        },
        "ignore_audio": true,
        "audio_path": null
    },
    {
        "segment_id": "c840dfb09d8711ef833bb8cef692109a",
        "text": "Her manners were",
        "audio_url": "https://v16m-default.akamaized.net/866f87780723b799bba2fac2abc1ac69/672de441/video/tos/maliva/tos-maliva-v-f15faa-us/oQ4U2EA4vAjQvL2HCZPA1VxSsAtPiiyYEyB91/?a=7073&bti=OTU0QDItLmA%3D&ch=0&cr=0&dr=4&er=0&lr=unwatermarked&cd=0%7C0%7C0%7C0&br=312&bt=156&ds=5&ft=.cwOVInz7ThowqvOXq8Zmo&qs=13&rc=amVta3A5cm9ydjUzNzhoM0BpamVta3A5cm9ydjUzNzhoM0BrMXFsMmRrc2pgLS1kLjZzYSNrMXFsMmRrc2pgLS1kLjZzcw%3D%3D&vvpl=1&l=02173103917641900000000000000000000ffff0a0088d433601a&btag=e00070000&format=mp3&mime_type=audio_mpeg",
        "source_timerange": {
            "start_offset": 0,
            "end_offset": 1.5017142857142858
        },
        "target_timerange": {
            "start_offset": 82.992,
            "end_offset": 84.49371428571429
        },
        "ignore_audio": false,
        "audio_path": null
    },
    {
        "segment_id": "c840e1369d8711ef833bb8cef692109a",
        "text": "pronounced to be very",
        "audio_url": "https://v16m-default.akamaized.net/866f87780723b799bba2fac2abc1ac69/672de441/video/tos/maliva/tos-maliva-v-f15faa-us/oQ4U2EA4vAjQvL2HCZPA1VxSsAtPiiyYEyB91/?a=7073&bti=OTU0QDItLmA%3D&ch=0&cr=0&dr=4&er=0&lr=unwatermarked&cd=0%7C0%7C0%7C0&br=312&bt=156&ds=5&ft=.cwOVInz7ThowqvOXq8Zmo&qs=13&rc=amVta3A5cm9ydjUzNzhoM0BpamVta3A5cm9ydjUzNzhoM0BrMXFsMmRrc2pgLS1kLjZzYSNrMXFsMmRrc2pgLS1kLjZzcw%3D%3D&vvpl=1&l=02173103917641900000000000000000000ffff0a0088d433601a&btag=e00070000&format=mp3&mime_type=audio_mpeg",
        "source_timerange": {
            "start_offset": 1.5017142857142858,
            "end_offset": 3.0034285714285716
        },
        "target_timerange": {
            "start_offset": 84.49371428571429,
            "end_offset": 85.99542857142858
        },
        "ignore_audio": true,
        "audio_path": null
    },
    {
        "segment_id": "c840e23a9d8711ef833bb8cef692109a",
        "text": "bad indeed,--a mixture",
        "audio_url": "https://v16m-default.akamaized.net/866f87780723b799bba2fac2abc1ac69/672de441/video/tos/maliva/tos-maliva-v-f15faa-us/oQ4U2EA4vAjQvL2HCZPA1VxSsAtPiiyYEyB91/?a=7073&bti=OTU0QDItLmA%3D&ch=0&cr=0&dr=4&er=0&lr=unwatermarked&cd=0%7C0%7C0%7C0&br=312&bt=156&ds=5&ft=.cwOVInz7ThowqvOXq8Zmo&qs=13&rc=amVta3A5cm9ydjUzNzhoM0BpamVta3A5cm9ydjUzNzhoM0BrMXFsMmRrc2pgLS1kLjZzYSNrMXFsMmRrc2pgLS1kLjZzcw%3D%3D&vvpl=1&l=02173103917641900000000000000000000ffff0a0088d433601a&btag=e00070000&format=mp3&mime_type=audio_mpeg",
        "source_timerange": {
            "start_offset": 3.0034285714285716,
            "end_offset": 4.505142857142857
        },
        "target_timerange": {
            "start_offset": 85.99542857142858,
            "end_offset": 87.49714285714286
        },
        "ignore_audio": true,
        "audio_path": null
    },
    {
        "segment_id": "c840e3349d8711ef833bb8cef692109a",
        "text": "of pride and",
        "audio_url": "https://v16m-default.akamaized.net/866f87780723b799bba2fac2abc1ac69/672de441/video/tos/maliva/tos-maliva-v-f15faa-us/oQ4U2EA4vAjQvL2HCZPA1VxSsAtPiiyYEyB91/?a=7073&bti=OTU0QDItLmA%3D&ch=0&cr=0&dr=4&er=0&lr=unwatermarked&cd=0%7C0%7C0%7C0&br=312&bt=156&ds=5&ft=.cwOVInz7ThowqvOXq8Zmo&qs=13&rc=amVta3A5cm9ydjUzNzhoM0BpamVta3A5cm9ydjUzNzhoM0BrMXFsMmRrc2pgLS1kLjZzYSNrMXFsMmRrc2pgLS1kLjZzcw%3D%3D&vvpl=1&l=02173103917641900000000000000000000ffff0a0088d433601a&btag=e00070000&format=mp3&mime_type=audio_mpeg",
        "source_timerange": {
            "start_offset": 4.505142857142857,
            "end_offset": 6.006857142857143
        },
        "target_timerange": {
            "start_offset": 87.49714285714286,
            "end_offset": 88.99885714285715
        },
        "ignore_audio": true,
        "audio_path": null
    },
    {
        "segment_id": "c840e4109d8711ef833bb8cef692109a",
        "text": "impertinence: she had",
        "audio_url": "https://v16m-default.akamaized.net/866f87780723b799bba2fac2abc1ac69/672de441/video/tos/maliva/tos-maliva-v-f15faa-us/oQ4U2EA4vAjQvL2HCZPA1VxSsAtPiiyYEyB91/?a=7073&bti=OTU0QDItLmA%3D&ch=0&cr=0&dr=4&er=0&lr=unwatermarked&cd=0%7C0%7C0%7C0&br=312&bt=156&ds=5&ft=.cwOVInz7ThowqvOXq8Zmo&qs=13&rc=amVta3A5cm9ydjUzNzhoM0BpamVta3A5cm9ydjUzNzhoM0BrMXFsMmRrc2pgLS1kLjZzYSNrMXFsMmRrc2pgLS1kLjZzcw%3D%3D&vvpl=1&l=02173103917641900000000000000000000ffff0a0088d433601a&btag=e00070000&format=mp3&mime_type=audio_mpeg",
        "source_timerange": {
            "start_offset": 6.006857142857143,
            "end_offset": 7.508571428571429
        },
        "target_timerange": {
            "start_offset": 88.99885714285715,
            "end_offset": 90.50057142857143
        },
        "ignore_audio": true,
        "audio_path": null
    },
    {
        "segment_id": "c840e53c9d8711ef833bb8cef692109a",
        "text": "no conversation, no",
        "audio_url": "https://v16m-default.akamaized.net/866f87780723b799bba2fac2abc1ac69/672de441/video/tos/maliva/tos-maliva-v-f15faa-us/oQ4U2EA4vAjQvL2HCZPA1VxSsAtPiiyYEyB91/?a=7073&bti=OTU0QDItLmA%3D&ch=0&cr=0&dr=4&er=0&lr=unwatermarked&cd=0%7C0%7C0%7C0&br=312&bt=156&ds=5&ft=.cwOVInz7ThowqvOXq8Zmo&qs=13&rc=amVta3A5cm9ydjUzNzhoM0BpamVta3A5cm9ydjUzNzhoM0BrMXFsMmRrc2pgLS1kLjZzYSNrMXFsMmRrc2pgLS1kLjZzcw%3D%3D&vvpl=1&l=02173103917641900000000000000000000ffff0a0088d433601a&btag=e00070000&format=mp3&mime_type=audio_mpeg",
        "source_timerange": {
            "start_offset": 7.508571428571429,
            "end_offset": 9.010285714285715
        },
        "target_timerange": {
            "start_offset": 90.50057142857143,
            "end_offset": 92.00228571428572
        },
        "ignore_audio": true,
        "audio_path": null
    },
    {
        "segment_id": "c840e6729d8711ef833bb8cef692109a",
        "text": "style, no taste, no beauty.",
        "audio_url": "https://v16m-default.akamaized.net/866f87780723b799bba2fac2abc1ac69/672de441/video/tos/maliva/tos-maliva-v-f15faa-us/oQ4U2EA4vAjQvL2HCZPA1VxSsAtPiiyYEyB91/?a=7073&bti=OTU0QDItLmA%3D&ch=0&cr=0&dr=4&er=0&lr=unwatermarked&cd=0%7C0%7C0%7C0&br=312&bt=156&ds=5&ft=.cwOVInz7ThowqvOXq8Zmo&qs=13&rc=amVta3A5cm9ydjUzNzhoM0BpamVta3A5cm9ydjUzNzhoM0BrMXFsMmRrc2pgLS1kLjZzYSNrMXFsMmRrc2pgLS1kLjZzcw%3D%3D&vvpl=1&l=02173103917641900000000000000000000ffff0a0088d433601a&btag=e00070000&format=mp3&mime_type=audio_mpeg",
        "source_timerange": {
            "start_offset": 9.010285714285715,
            "end_offset": 10.512
        },
        "target_timerange": {
            "start_offset": 92.00228571428572,
            "end_offset": 93.504
        },
        "ignore_audio": true,
        "audio_path": null
    },
    {
        "segment_id": "c840fe6e9d8711ef833bb8cef692109a",
        "text": "Mrs. Hurst thought the",
        "audio_url": "https://v16m-default.akamaized.net/480f2beccb69d1000eed88e7b579721b/672de43e/video/tos/maliva/tos-maliva-v-f15faa-us/o0AtAA7bBSvV1yHi2Q9C4tUjBAEZQiaPi4YCE/?a=7073&bti=OTU0QDItLmA%3D&ch=0&cr=0&dr=4&er=0&lr=unwatermarked&cd=0%7C0%7C0%7C0&br=312&bt=156&ds=5&ft=.cwOVInz7ThowqvOXq8Zmo&qs=13&rc=M2c8N3U5cm9ydjUzNzhoM0BpM2c8N3U5cm9ydjUzNzhoM0AuazBwMmRrc2pgLS1kLjZzYSMuazBwMmRrc2pgLS1kLjZzcw%3D%3D&vvpl=1&l=02173103917641900000000000000000000ffff0a0088d433601a&btag=e00070000&format=mp3&mime_type=audio_mpeg",
        "source_timerange": {
            "start_offset": 0,
            "end_offset": 1.4111999999999965
        },
        "target_timerange": {
            "start_offset": 93.504,
            "end_offset": 94.9152
        },
        "ignore_audio": false,
        "audio_path": null
    },
    {
        "segment_id": "c840ff9a9d8711ef833bb8cef692109a",
        "text": "same, and added,--  “She",
        "audio_url": "https://v16m-default.akamaized.net/480f2beccb69d1000eed88e7b579721b/672de43e/video/tos/maliva/tos-maliva-v-f15faa-us/o0AtAA7bBSvV1yHi2Q9C4tUjBAEZQiaPi4YCE/?a=7073&bti=OTU0QDItLmA%3D&ch=0&cr=0&dr=4&er=0&lr=unwatermarked&cd=0%7C0%7C0%7C0&br=312&bt=156&ds=5&ft=.cwOVInz7ThowqvOXq8Zmo&qs=13&rc=M2c8N3U5cm9ydjUzNzhoM0BpM2c8N3U5cm9ydjUzNzhoM0AuazBwMmRrc2pgLS1kLjZzYSMuazBwMmRrc2pgLS1kLjZzcw%3D%3D&vvpl=1&l=02173103917641900000000000000000000ffff0a0088d433601a&btag=e00070000&format=mp3&mime_type=audio_mpeg",
        "source_timerange": {
            "start_offset": 1.4111999999999938,
            "end_offset": 2.8224000000000045
        },
        "target_timerange": {
            "start_offset": 94.9152,
            "end_offset": 96.3264
        },
        "ignore_audio": true,
        "audio_path": null
    },
    {
        "segment_id": "c841008a9d8711ef833bb8cef692109a",
        "text": "has nothing, in short, to",
        "audio_url": "https://v16m-default.akamaized.net/480f2beccb69d1000eed88e7b579721b/672de43e/video/tos/maliva/tos-maliva-v-f15faa-us/o0AtAA7bBSvV1yHi2Q9C4tUjBAEZQiaPi4YCE/?a=7073&bti=OTU0QDItLmA%3D&ch=0&cr=0&dr=4&er=0&lr=unwatermarked&cd=0%7C0%7C0%7C0&br=312&bt=156&ds=5&ft=.cwOVInz7ThowqvOXq8Zmo&qs=13&rc=M2c8N3U5cm9ydjUzNzhoM0BpM2c8N3U5cm9ydjUzNzhoM0AuazBwMmRrc2pgLS1kLjZzYSMuazBwMmRrc2pgLS1kLjZzcw%3D%3D&vvpl=1&l=02173103917641900000000000000000000ffff0a0088d433601a&btag=e00070000&format=mp3&mime_type=audio_mpeg",
        "source_timerange": {
            "start_offset": 2.822400000000002,
            "end_offset": 4.233599999999998
        },
        "target_timerange": {
            "start_offset": 96.3264,
            "end_offset": 97.7376
        },
        "ignore_audio": true,
        "audio_path": null
    },
    {
        "segment_id": "c841044a9d8711ef833bb8cef692109a",
        "text": "recommend her, but being",
        "audio_url": "https://v16m-default.akamaized.net/480f2beccb69d1000eed88e7b579721b/672de43e/video/tos/maliva/tos-maliva-v-f15faa-us/o0AtAA7bBSvV1yHi2Q9C4tUjBAEZQiaPi4YCE/?a=7073&bti=OTU0QDItLmA%3D&ch=0&cr=0&dr=4&er=0&lr=unwatermarked&cd=0%7C0%7C0%7C0&br=312&bt=156&ds=5&ft=.cwOVInz7ThowqvOXq8Zmo&qs=13&rc=M2c8N3U5cm9ydjUzNzhoM0BpM2c8N3U5cm9ydjUzNzhoM0AuazBwMmRrc2pgLS1kLjZzYSMuazBwMmRrc2pgLS1kLjZzcw%3D%3D&vvpl=1&l=02173103917641900000000000000000000ffff0a0088d433601a&btag=e00070000&format=mp3&mime_type=audio_mpeg",
        "source_timerange": {
            "start_offset": 4.233599999999996,
            "end_offset": 5.644800000000006
        },
        "target_timerange": {
            "start_offset": 97.7376,
            "end_offset": 99.14880000000001
        },
        "ignore_audio": true,
        "audio_path": null
    },
    {
        "segment_id": "c84105449d8711ef833bb8cef692109a",
        "text": "an excellent walker.",
        "audio_url": "https://v16m-default.akamaized.net/480f2beccb69d1000eed88e7b579721b/672de43e/video/tos/maliva/tos-maliva-v-f15faa-us/o0AtAA7bBSvV1yHi2Q9C4tUjBAEZQiaPi4YCE/?a=7073&bti=OTU0QDItLmA%3D&ch=0&cr=0&dr=4&er=0&lr=unwatermarked&cd=0%7C0%7C0%7C0&br=312&bt=156&ds=5&ft=.cwOVInz7ThowqvOXq8Zmo&qs=13&rc=M2c8N3U5cm9ydjUzNzhoM0BpM2c8N3U5cm9ydjUzNzhoM0AuazBwMmRrc2pgLS1kLjZzYSMuazBwMmRrc2pgLS1kLjZzcw%3D%3D&vvpl=1&l=02173103917641900000000000000000000ffff0a0088d433601a&btag=e00070000&format=mp3&mime_type=audio_mpeg",
        "source_timerange": {
            "start_offset": 5.644800000000004,
            "end_offset": 7.056
        },
        "target_timerange": {
            "start_offset": 99.14880000000001,
            "end_offset": 100.56
        },
        "ignore_audio": true,
        "audio_path": null
    },
    {
        "segment_id": "c84110b69d8711ef833bb8cef692109a",
        "text": "I shall never forget her",
        "audio_url": "https://v16m-default.akamaized.net/b914651da47e56a2b4ddd93c1c014b50/672de439/video/tos/maliva/tos-maliva-v-f15faa-us/oIcAkZbYtEeIjuWWpFmIw6zAAtFfAX8BeeHMQ2/?a=7073&bti=OTU0QDItLmA%3D&ch=0&cr=0&dr=4&er=0&lr=unwatermarked&cd=0%7C0%7C0%7C0&br=312&bt=156&ds=5&ft=.cwOVInz7ThowqvOXq8Zmo&qs=13&rc=aml5a285cm9ydjUzNzhoM0Bpaml5a285cm9ydjUzNzhoM0BhZ2QyMmRrc2pgLS1kLjZzYSNhZ2QyMmRrc2pgLS1kLjZzcw%3D%3D&vvpl=1&l=02173103917641900000000000000000000ffff0a0088d433601a&btag=e00070000&format=mp3&mime_type=audio_mpeg",
        "source_timerange": {
            "start_offset": 0,
            "end_offset": 1.259999999999995
        },
        "target_timerange": {
            "start_offset": 100.56,
            "end_offset": 101.82
        },
        "ignore_audio": false,
        "audio_path": null
    },
    {
        "segment_id": "c84111c49d8711ef833bb8cef692109a",
        "text": "appearance this morning.",
        "audio_url": "https://v16m-default.akamaized.net/b914651da47e56a2b4ddd93c1c014b50/672de439/video/tos/maliva/tos-maliva-v-f15faa-us/oIcAkZbYtEeIjuWWpFmIw6zAAtFfAX8BeeHMQ2/?a=7073&bti=OTU0QDItLmA%3D&ch=0&cr=0&dr=4&er=0&lr=unwatermarked&cd=0%7C0%7C0%7C0&br=312&bt=156&ds=5&ft=.cwOVInz7ThowqvOXq8Zmo&qs=13&rc=aml5a285cm9ydjUzNzhoM0Bpaml5a285cm9ydjUzNzhoM0BhZ2QyMmRrc2pgLS1kLjZzYSNhZ2QyMmRrc2pgLS1kLjZzcw%3D%3D&vvpl=1&l=02173103917641900000000000000000000ffff0a0088d433601a&btag=e00070000&format=mp3&mime_type=audio_mpeg",
        "source_timerange": {
            "start_offset": 1.259999999999991,
            "end_offset": 2.52
        },
        "target_timerange": {
            "start_offset": 101.82,
            "end_offset": 103.08
        },
        "ignore_audio": true,
        "audio_path": null
    },
    {
        "segment_id": "c84118fe9d8711ef833bb8cef692109a",
        "text": "She really looked almost wild.”",
        "audio_url": "https://v16m-default.akamaized.net/6f66c9bdc812ccdd901c70ed90561663/672de438/video/tos/maliva/tos-maliva-v-f15faa-us/oIUSvtSEQ93iAP2xVjL1yAZWiAMNtmCbBEUA4/?a=7073&bti=OTU0QDItLmA%3D&ch=0&cr=0&dr=4&er=0&lr=unwatermarked&cd=0%7C0%7C0%7C0&br=312&bt=156&ds=5&ft=.cwOVInz7ThowqvOXq8Zmo&qs=13&rc=M2dqPGs5cm9ydjUzNzhoM0BpM2dqPGs5cm9ydjUzNzhoM0Bfb2Y2MmRrc2pgLS1kLjZzYSNfb2Y2MmRrc2pgLS1kLjZzcw%3D%3D&vvpl=1&l=02173103917641900000000000000000000ffff0a0088d433601a&btag=e00070000&format=mp3&mime_type=audio_mpeg",
        "source_timerange": {
            "start_offset": 0,
            "end_offset": 1.944
        },
        "target_timerange": {
            "start_offset": 103.08,
            "end_offset": 105.024
        },
        "ignore_audio": false,
        "audio_path": null
    },
    {
        "segment_id": "c8411f349d8711ef833bb8cef692109a",
        "text": "“She did indeed, Louisa.",
        "audio_url": "https://v16m-default.akamaized.net/735dd47d1f1b68a6ce0738f891dfe979/672de438/video/tos/maliva/tos-maliva-v-f15faa-us/o4EZtyjAiv0i2aBEC929QV4APUO4A1PlL91AS/?a=7073&bti=OTU0QDItLmA%3D&ch=0&cr=0&dr=4&er=0&lr=unwatermarked&cd=0%7C0%7C0%7C0&br=312&bt=156&ds=5&ft=.cwOVInz7ThowqvOXq8Zmo&qs=13&rc=amh1PHc5cm9ydjUzNzhoM0Bpamh1PHc5cm9ydjUzNzhoM0ByXmJwMmRrc2pgLS1kLjZzYSNyXmJwMmRrc2pgLS1kLjZzcw%3D%3D&vvpl=1&l=02173103917641900000000000000000000ffff0a0088d433601a&btag=e00070000&format=mp3&mime_type=audio_mpeg",
        "source_timerange": {
            "start_offset": 0,
            "end_offset": 1.68
        },
        "target_timerange": {
            "start_offset": 105.024,
            "end_offset": 106.70400000000001
        },
        "ignore_audio": false,
        "audio_path": null
    },
    {
        "segment_id": "c84125889d8711ef833bb8cef692109a",
        "text": "I could hardly keep my countenance.",
        "audio_url": "https://v16m-default.akamaized.net/6c41f31799c3fa0f0744bb862446fded/672de438/video/tos/maliva/tos-maliva-v-f15faa-us/ocAejLeFu6lWyGWNICHFtfABBfIFtcCkAAEbIO/?a=7073&bti=OTU0QDItLmA%3D&ch=0&cr=0&dr=4&er=0&lr=unwatermarked&cd=0%7C0%7C0%7C0&br=312&bt=156&ds=5&ft=.cwOVInz7ThowqvOXq8Zmo&qs=13&rc=ajk2c285cm9ydjUzNzhoM0Bpajk2c285cm9ydjUzNzhoM0BkMmxrMmRrc2pgLS1kLjZzYSNkMmxrMmRrc2pgLS1kLjZzcw%3D%3D&vvpl=1&l=02173103917641900000000000000000000ffff0a0088d433601a&btag=e00070000&format=mp3&mime_type=audio_mpeg",
        "source_timerange": {
            "start_offset": 0,
            "end_offset": 1.872
        },
        "target_timerange": {
            "start_offset": 106.70400000000001,
            "end_offset": 108.57600000000001
        },
        "ignore_audio": false,
        "audio_path": null
    },
    {
        "segment_id": "c8412cc29d8711ef833bb8cef692109a",
        "text": "Very nonsensical to come at all!",
        "audio_url": "https://v16m-default.akamaized.net/7a9a70c6e189be49e0820573acc360e6/672de438/video/tos/maliva/tos-maliva-v-f15faa-us/oMFf9AcOWXt9CiWAEfBxArjCSZtfEgxAC6QgED/?a=7073&bti=OTU0QDItLmA%3D&ch=0&cr=0&dr=4&er=0&lr=unwatermarked&cd=0%7C0%7C0%7C0&br=312&bt=156&ds=5&ft=.cwOVInz7ThowqvOXq8Zmo&qs=13&rc=MzU6M3k5cm9ydjUzNzhoM0BpMzU6M3k5cm9ydjUzNzhoM0A1b2JxMmRrc2pgLS1kLjZzYSM1b2JxMmRrc2pgLS1kLjZzcw%3D%3D&vvpl=1&l=02173103917641900000000000000000000ffff0a0088d433601a&btag=e00070000&format=mp3&mime_type=audio_mpeg",
        "source_timerange": {
            "start_offset": 0,
            "end_offset": 1.992
        },
        "target_timerange": {
            "start_offset": 108.57600000000001,
            "end_offset": 110.568
        },
        "ignore_audio": false,
        "audio_path": null
    },
    {
        "segment_id": "c8413b689d8711ef833bb8cef692109a",
        "text": "Why must _she_ be scampering",
        "audio_url": "https://v16m-default.akamaized.net/d073d7f7114abce04e44d6b2dd2f1510/672de43b/video/tos/maliva/tos-maliva-v-f15faa-us/oUKeI2kWAFxjmBGCFAALrt6ZIeH1ctIEeAe6bu/?a=7073&bti=OTU0QDItLmA%3D&ch=0&cr=0&dr=4&er=0&lr=unwatermarked&cd=0%7C0%7C0%7C0&br=312&bt=156&ds=5&ft=.cwOVInz7ThowqvOXq8Zmo&qs=13&rc=am9kdXg5cm9ydjUzNzhoM0Bpam9kdXg5cm9ydjUzNzhoM0BxL29oMmRrc2pgLS1kLjZzYSNxL29oMmRrc2pgLS1kLjZzcw%3D%3D&vvpl=1&l=02173103917641900000000000000000000ffff0a0088d433601a&btag=e00070000&format=mp3&mime_type=audio_mpeg",
        "source_timerange": {
            "start_offset": 0,
            "end_offset": 1.3839999999999995
        },
        "target_timerange": {
            "start_offset": 110.568,
            "end_offset": 111.952
        },
        "ignore_audio": false,
        "audio_path": null
    },
    {
        "segment_id": "c8413c949d8711ef833bb8cef692109a",
        "text": "about the country, because",
        "audio_url": "https://v16m-default.akamaized.net/d073d7f7114abce04e44d6b2dd2f1510/672de43b/video/tos/maliva/tos-maliva-v-f15faa-us/oUKeI2kWAFxjmBGCFAALrt6ZIeH1ctIEeAe6bu/?a=7073&bti=OTU0QDItLmA%3D&ch=0&cr=0&dr=4&er=0&lr=unwatermarked&cd=0%7C0%7C0%7C0&br=312&bt=156&ds=5&ft=.cwOVInz7ThowqvOXq8Zmo&qs=13&rc=am9kdXg5cm9ydjUzNzhoM0Bpam9kdXg5cm9ydjUzNzhoM0BxL29oMmRrc2pgLS1kLjZzYSNxL29oMmRrc2pgLS1kLjZzcw%3D%3D&vvpl=1&l=02173103917641900000000000000000000ffff0a0088d433601a&btag=e00070000&format=mp3&mime_type=audio_mpeg",
        "source_timerange": {
            "start_offset": 1.3840000000000003,
            "end_offset": 2.768
        },
        "target_timerange": {
            "start_offset": 111.952,
            "end_offset": 113.336
        },
        "ignore_audio": true,
        "audio_path": null
    },
    {
        "segment_id": "c8413dd49d8711ef833bb8cef692109a",
        "text": "her sister had a cold?",
        "audio_url": "https://v16m-default.akamaized.net/d073d7f7114abce04e44d6b2dd2f1510/672de43b/video/tos/maliva/tos-maliva-v-f15faa-us/oUKeI2kWAFxjmBGCFAALrt6ZIeH1ctIEeAe6bu/?a=7073&bti=OTU0QDItLmA%3D&ch=0&cr=0&dr=4&er=0&lr=unwatermarked&cd=0%7C0%7C0%7C0&br=312&bt=156&ds=5&ft=.cwOVInz7ThowqvOXq8Zmo&qs=13&rc=am9kdXg5cm9ydjUzNzhoM0Bpam9kdXg5cm9ydjUzNzhoM0BxL29oMmRrc2pgLS1kLjZzYSNxL29oMmRrc2pgLS1kLjZzcw%3D%3D&vvpl=1&l=02173103917641900000000000000000000ffff0a0088d433601a&btag=e00070000&format=mp3&mime_type=audio_mpeg",
        "source_timerange": {
            "start_offset": 2.7680000000000007,
            "end_offset": 4.152
        },
        "target_timerange": {
            "start_offset": 113.336,
            "end_offset": 114.72
        },
        "ignore_audio": true,
        "audio_path": null
    },
    {
        "segment_id": "c84148109d8711ef833bb8cef692109a",
        "text": "Her hair so untidy,",
        "audio_url": "https://v16m-default.akamaized.net/6df39df396aeaca31550f5e75fbae182/672de439/video/tos/maliva/tos-maliva-v-f15faa-us/o84DVtZBi4mjF1CbAA1A2FQEZbPvAyiESUE9B/?a=7073&bti=OTU0QDItLmA%3D&ch=0&cr=0&dr=4&er=0&lr=unwatermarked&cd=0%7C0%7C0%7C0&br=312&bt=156&ds=5&ft=.cwOVInz7ThowqvOXq8Zmo&qs=13&rc=M29uOXI5cm9ydjUzNzhoM0BpM29uOXI5cm9ydjUzNzhoM0AvX2xnMmRrc2pgLS1kLjZzYSMvX2xnMmRrc2pgLS1kLjZzcw%3D%3D&vvpl=1&l=02173103917641900000000000000000000ffff0a0088d433601a&btag=e00070000&format=mp3&mime_type=audio_mpeg",
        "source_timerange": {
            "start_offset": 0,
            "end_offset": 1.3799999999999906
        },
        "target_timerange": {
            "start_offset": 114.72,
            "end_offset": 116.1
        },
        "ignore_audio": false,
        "audio_path": null
    },
    {
        "segment_id": "c84149469d8711ef833bb8cef692109a",
        "text": "so blowzy!”",
        "audio_url": "https://v16m-default.akamaized.net/6df39df396aeaca31550f5e75fbae182/672de439/video/tos/maliva/tos-maliva-v-f15faa-us/o84DVtZBi4mjF1CbAA1A2FQEZbPvAyiESUE9B/?a=7073&bti=OTU0QDItLmA%3D&ch=0&cr=0&dr=4&er=0&lr=unwatermarked&cd=0%7C0%7C0%7C0&br=312&bt=156&ds=5&ft=.cwOVInz7ThowqvOXq8Zmo&qs=13&rc=M29uOXI5cm9ydjUzNzhoM0BpM29uOXI5cm9ydjUzNzhoM0AvX2xnMmRrc2pgLS1kLjZzYSMvX2xnMmRrc2pgLS1kLjZzcw%3D%3D&vvpl=1&l=02173103917641900000000000000000000ffff0a0088d433601a&btag=e00070000&format=mp3&mime_type=audio_mpeg",
        "source_timerange": {
            "start_offset": 1.3799999999999955,
            "end_offset": 2.7600000000000002
        },
        "target_timerange": {
            "start_offset": 116.1,
            "end_offset": 117.48
        },
        "ignore_audio": true,
        "audio_path": null
    },
    {
        "segment_id": "c84169269d8711ef833bb8cef692109a",
        "text": "“Yes, and her petticoat; I",
        "audio_url": "https://v16m-default.akamaized.net/5e020d6fd6b6ff2c9c170741e205e4a1/672de441/video/tos/maliva/tos-maliva-v-f15faa-us/oYACdfOxAjr8EWOCFxXA7EEDtg6SWAICeYfI93/?a=7073&bti=OTU0QDItLmA%3D&ch=0&cr=0&dr=4&er=0&lr=unwatermarked&cd=0%7C0%7C0%7C0&br=312&bt=156&ds=5&ft=.cwOVInz7ThowqvOXq8Zmo&qs=13&rc=M3h0cHU5cm9ydjUzNzhoM0BpM3h0cHU5cm9ydjUzNzhoM0BjNTJnMmRrc2pgLS1kLjZzYSNjNTJnMmRrc2pgLS1kLjZzcw%3D%3D&vvpl=1&l=02173103917641900000000000000000000ffff0a0088d433601a&btag=e00070000&format=mp3&mime_type=audio_mpeg",
        "source_timerange": {
            "start_offset": 0,
            "end_offset": 1.5154285714285827
        },
        "target_timerange": {
            "start_offset": 117.48,
            "end_offset": 118.99542857142858
        },
        "ignore_audio": false,
        "audio_path": null
    },
    {
        "segment_id": "c8416a5c9d8711ef833bb8cef692109a",
        "text": "hope you saw her petticoat,",
        "audio_url": "https://v16m-default.akamaized.net/5e020d6fd6b6ff2c9c170741e205e4a1/672de441/video/tos/maliva/tos-maliva-v-f15faa-us/oYACdfOxAjr8EWOCFxXA7EEDtg6SWAICeYfI93/?a=7073&bti=OTU0QDItLmA%3D&ch=0&cr=0&dr=4&er=0&lr=unwatermarked&cd=0%7C0%7C0%7C0&br=312&bt=156&ds=5&ft=.cwOVInz7ThowqvOXq8Zmo&qs=13&rc=M3h0cHU5cm9ydjUzNzhoM0BpM3h0cHU5cm9ydjUzNzhoM0BjNTJnMmRrc2pgLS1kLjZzYSNjNTJnMmRrc2pgLS1kLjZzcw%3D%3D&vvpl=1&l=02173103917641900000000000000000000ffff0a0088d433601a&btag=e00070000&format=mp3&mime_type=audio_mpeg",
        "source_timerange": {
            "start_offset": 1.515428571428572,
            "end_offset": 3.0308571428571547
        },
        "target_timerange": {
            "start_offset": 118.99542857142858,
            "end_offset": 120.51085714285715
        },
        "ignore_audio": true,
        "audio_path": null
    },
    {
        "segment_id": "c8416b7e9d8711ef833bb8cef692109a",
        "text": "six inches deep in mud, I",
        "audio_url": "https://v16m-default.akamaized.net/5e020d6fd6b6ff2c9c170741e205e4a1/672de441/video/tos/maliva/tos-maliva-v-f15faa-us/oYACdfOxAjr8EWOCFxXA7EEDtg6SWAICeYfI93/?a=7073&bti=OTU0QDItLmA%3D&ch=0&cr=0&dr=4&er=0&lr=unwatermarked&cd=0%7C0%7C0%7C0&br=312&bt=156&ds=5&ft=.cwOVInz7ThowqvOXq8Zmo&qs=13&rc=M3h0cHU5cm9ydjUzNzhoM0BpM3h0cHU5cm9ydjUzNzhoM0BjNTJnMmRrc2pgLS1kLjZzYSNjNTJnMmRrc2pgLS1kLjZzcw%3D%3D&vvpl=1&l=02173103917641900000000000000000000ffff0a0088d433601a&btag=e00070000&format=mp3&mime_type=audio_mpeg",
        "source_timerange": {
            "start_offset": 3.030857142857144,
            "end_offset": 4.546285714285727
        },
        "target_timerange": {
            "start_offset": 120.51085714285715,
            "end_offset": 122.02628571428572
        },
        "ignore_audio": true,
        "audio_path": null
    },
    {
        "segment_id": "c8416cc89d8711ef833bb8cef692109a",
        "text": "am absolutely certain, and",
        "audio_url": "https://v16m-default.akamaized.net/5e020d6fd6b6ff2c9c170741e205e4a1/672de441/video/tos/maliva/tos-maliva-v-f15faa-us/oYACdfOxAjr8EWOCFxXA7EEDtg6SWAICeYfI93/?a=7073&bti=OTU0QDItLmA%3D&ch=0&cr=0&dr=4&er=0&lr=unwatermarked&cd=0%7C0%7C0%7C0&br=312&bt=156&ds=5&ft=.cwOVInz7ThowqvOXq8Zmo&qs=13&rc=M3h0cHU5cm9ydjUzNzhoM0BpM3h0cHU5cm9ydjUzNzhoM0BjNTJnMmRrc2pgLS1kLjZzYSNjNTJnMmRrc2pgLS1kLjZzcw%3D%3D&vvpl=1&l=02173103917641900000000000000000000ffff0a0088d433601a&btag=e00070000&format=mp3&mime_type=audio_mpeg",
        "source_timerange": {
            "start_offset": 4.546285714285716,
            "end_offset": 6.0617142857142845
        },
        "target_timerange": {
            "start_offset": 122.02628571428572,
            "end_offset": 123.54171428571428
        },
        "ignore_audio": true,
        "audio_path": null
    },
    {
        "segment_id": "c8416dd69d8711ef833bb8cef692109a",
        "text": "the gown which had been let",
        "audio_url": "https://v16m-default.akamaized.net/5e020d6fd6b6ff2c9c170741e205e4a1/672de441/video/tos/maliva/tos-maliva-v-f15faa-us/oYACdfOxAjr8EWOCFxXA7EEDtg6SWAICeYfI93/?a=7073&bti=OTU0QDItLmA%3D&ch=0&cr=0&dr=4&er=0&lr=unwatermarked&cd=0%7C0%7C0%7C0&br=312&bt=156&ds=5&ft=.cwOVInz7ThowqvOXq8Zmo&qs=13&rc=M3h0cHU5cm9ydjUzNzhoM0BpM3h0cHU5cm9ydjUzNzhoM0BjNTJnMmRrc2pgLS1kLjZzYSNjNTJnMmRrc2pgLS1kLjZzcw%3D%3D&vvpl=1&l=02173103917641900000000000000000000ffff0a0088d433601a&btag=e00070000&format=mp3&mime_type=audio_mpeg",
        "source_timerange": {
            "start_offset": 6.061714285714274,
            "end_offset": 7.5771428571428565
        },
        "target_timerange": {
            "start_offset": 123.54171428571428,
            "end_offset": 125.05714285714285
        },
        "ignore_audio": true,
        "audio_path": null
    },
    {
        "segment_id": "c8416ebc9d8711ef833bb8cef692109a",
        "text": "down to hide it not doing",
        "audio_url": "https://v16m-default.akamaized.net/5e020d6fd6b6ff2c9c170741e205e4a1/672de441/video/tos/maliva/tos-maliva-v-f15faa-us/oYACdfOxAjr8EWOCFxXA7EEDtg6SWAICeYfI93/?a=7073&bti=OTU0QDItLmA%3D&ch=0&cr=0&dr=4&er=0&lr=unwatermarked&cd=0%7C0%7C0%7C0&br=312&bt=156&ds=5&ft=.cwOVInz7ThowqvOXq8Zmo&qs=13&rc=M3h0cHU5cm9ydjUzNzhoM0BpM3h0cHU5cm9ydjUzNzhoM0BjNTJnMmRrc2pgLS1kLjZzYSNjNTJnMmRrc2pgLS1kLjZzcw%3D%3D&vvpl=1&l=02173103917641900000000000000000000ffff0a0088d433601a&btag=e00070000&format=mp3&mime_type=audio_mpeg",
        "source_timerange": {
            "start_offset": 7.577142857142846,
            "end_offset": 9.092571428571429
        },
        "target_timerange": {
            "start_offset": 125.05714285714285,
            "end_offset": 126.57257142857142
        },
        "ignore_audio": true,
        "audio_path": null
    },
    {
        "segment_id": "c8416fa29d8711ef833bb8cef692109a",
        "text": "its office.”",
        "audio_url": "https://v16m-default.akamaized.net/5e020d6fd6b6ff2c9c170741e205e4a1/672de441/video/tos/maliva/tos-maliva-v-f15faa-us/oYACdfOxAjr8EWOCFxXA7EEDtg6SWAICeYfI93/?a=7073&bti=OTU0QDItLmA%3D&ch=0&cr=0&dr=4&er=0&lr=unwatermarked&cd=0%7C0%7C0%7C0&br=312&bt=156&ds=5&ft=.cwOVInz7ThowqvOXq8Zmo&qs=13&rc=M3h0cHU5cm9ydjUzNzhoM0BpM3h0cHU5cm9ydjUzNzhoM0BjNTJnMmRrc2pgLS1kLjZzYSNjNTJnMmRrc2pgLS1kLjZzcw%3D%3D&vvpl=1&l=02173103917641900000000000000000000ffff0a0088d433601a&btag=e00070000&format=mp3&mime_type=audio_mpeg",
        "source_timerange": {
            "start_offset": 9.092571428571418,
            "end_offset": 10.608
        },
        "target_timerange": {
            "start_offset": 126.57257142857142,
            "end_offset": 128.088
        },
        "ignore_audio": true,
        "audio_path": null
    },
    {
        "segment_id": "c84182809d8711ef833bb8cef692109a",
        "text": "“Your picture may be",
        "audio_url": "https://v16m-default.akamaized.net/9721e5bcc1f5f92ef5d7a5859d528acf/672de43c/video/tos/maliva/tos-maliva-v-f15faa-us/o4XCA6nbxXOIfCnAmBDxZIWfSWHrEfFgA4cCqn/?a=7073&bti=OTU0QDItLmA%3D&ch=0&cr=0&dr=4&er=0&lr=unwatermarked&cd=0%7C0%7C0%7C0&br=312&bt=156&ds=5&ft=.cwOVInz7ThowqvOXq8Zmo&qs=13&rc=am1ydm05cm9ydjUzNzhoM0Bpam1ydm05cm9ydjUzNzhoM0BubXEyMmRrc2pgLS1kLjZzYSNubXEyMmRrc2pgLS1kLjZzcw%3D%3D&vvpl=1&l=02173103917641900000000000000000000ffff0a0088d433601a&btag=e00070000&format=mp3&mime_type=audio_mpeg",
        "source_timerange": {
            "start_offset": 0,
            "end_offset": 1.4159999999999808
        },
        "target_timerange": {
            "start_offset": 128.088,
            "end_offset": 129.504
        },
        "ignore_audio": false,
        "audio_path": null
    },
    {
        "segment_id": "c84183a29d8711ef833bb8cef692109a",
        "text": "very exact, Louisa,”",
        "audio_url": "https://v16m-default.akamaized.net/9721e5bcc1f5f92ef5d7a5859d528acf/672de43c/video/tos/maliva/tos-maliva-v-f15faa-us/o4XCA6nbxXOIfCnAmBDxZIWfSWHrEfFgA4cCqn/?a=7073&bti=OTU0QDItLmA%3D&ch=0&cr=0&dr=4&er=0&lr=unwatermarked&cd=0%7C0%7C0%7C0&br=312&bt=156&ds=5&ft=.cwOVInz7ThowqvOXq8Zmo&qs=13&rc=am1ydm05cm9ydjUzNzhoM0Bpam1ydm05cm9ydjUzNzhoM0BubXEyMmRrc2pgLS1kLjZzYSNubXEyMmRrc2pgLS1kLjZzcw%3D%3D&vvpl=1&l=02173103917641900000000000000000000ffff0a0088d433601a&btag=e00070000&format=mp3&mime_type=audio_mpeg",
        "source_timerange": {
            "start_offset": 1.4159999999999968,
            "end_offset": 2.832000000000006
        },
        "target_timerange": {
            "start_offset": 129.504,
            "end_offset": 130.92000000000002
        },
        "ignore_audio": true,
        "audio_path": null
    },
    {
        "segment_id": "c84184a69d8711ef833bb8cef692109a",
        "text": "said Bingley; “but this",
        "audio_url": "https://v16m-default.akamaized.net/9721e5bcc1f5f92ef5d7a5859d528acf/672de43c/video/tos/maliva/tos-maliva-v-f15faa-us/o4XCA6nbxXOIfCnAmBDxZIWfSWHrEfFgA4cCqn/?a=7073&bti=OTU0QDItLmA%3D&ch=0&cr=0&dr=4&er=0&lr=unwatermarked&cd=0%7C0%7C0%7C0&br=312&bt=156&ds=5&ft=.cwOVInz7ThowqvOXq8Zmo&qs=13&rc=am1ydm05cm9ydjUzNzhoM0Bpam1ydm05cm9ydjUzNzhoM0BubXEyMmRrc2pgLS1kLjZzYSNubXEyMmRrc2pgLS1kLjZzcw%3D%3D&vvpl=1&l=02173103917641900000000000000000000ffff0a0088d433601a&btag=e00070000&format=mp3&mime_type=audio_mpeg",
        "source_timerange": {
            "start_offset": 2.832000000000022,
            "end_offset": 4.248000000000003
        },
        "target_timerange": {
            "start_offset": 130.92000000000002,
            "end_offset": 132.336
        },
        "ignore_audio": true,
        "audio_path": null
    },
    {
        "segment_id": "c84185f09d8711ef833bb8cef692109a",
        "text": "was all lost upon me.",
        "audio_url": "https://v16m-default.akamaized.net/9721e5bcc1f5f92ef5d7a5859d528acf/672de43c/video/tos/maliva/tos-maliva-v-f15faa-us/o4XCA6nbxXOIfCnAmBDxZIWfSWHrEfFgA4cCqn/?a=7073&bti=OTU0QDItLmA%3D&ch=0&cr=0&dr=4&er=0&lr=unwatermarked&cd=0%7C0%7C0%7C0&br=312&bt=156&ds=5&ft=.cwOVInz7ThowqvOXq8Zmo&qs=13&rc=am1ydm05cm9ydjUzNzhoM0Bpam1ydm05cm9ydjUzNzhoM0BubXEyMmRrc2pgLS1kLjZzYSNubXEyMmRrc2pgLS1kLjZzcw%3D%3D&vvpl=1&l=02173103917641900000000000000000000ffff0a0088d433601a&btag=e00070000&format=mp3&mime_type=audio_mpeg",
        "source_timerange": {
            "start_offset": 4.248000000000019,
            "end_offset": 5.664
        },
        "target_timerange": {
            "start_offset": 132.336,
            "end_offset": 133.752
        },
        "ignore_audio": true,
        "audio_path": null
    },
    {
        "segment_id": "c84194d29d8711ef833bb8cef692109a",
        "text": "I thought Miss Elizabeth Bennet",
        "audio_url": "https://v16m-default.akamaized.net/70d96b6d1d02ba3ae58c84e78774051e/672de43b/video/tos/maliva/tos-maliva-v-f15faa-us/o8frICf6GoXPBAFbkSC6IeoHgAF6COXxW0DSAE/?a=7073&bti=OTU0QDItLmA%3D&ch=0&cr=0&dr=4&er=0&lr=unwatermarked&cd=0%7C0%7C0%7C0&br=312&bt=156&ds=5&ft=.cwOVInz7ThowqvOXq8Zmo&qs=13&rc=amxram45cm9ydjUzNzhoM0Bpamxram45cm9ydjUzNzhoM0AuaGpiMmRzc2pgLS1kLjZzYSMuaGpiMmRzc2pgLS1kLjZzcw%3D%3D&vvpl=1&l=02173103917641900000000000000000000ffff0a0088d433601a&btag=e00070000&format=mp3&mime_type=audio_mpeg",
        "source_timerange": {
            "start_offset": 0,
            "end_offset": 1.5440000000000058
        },
        "target_timerange": {
            "start_offset": 133.752,
            "end_offset": 135.29600000000002
        },
        "ignore_audio": false,
        "audio_path": null
    },
    {
        "segment_id": "c84195fe9d8711ef833bb8cef692109a",
        "text": "looked remarkably well when she",
        "audio_url": "https://v16m-default.akamaized.net/70d96b6d1d02ba3ae58c84e78774051e/672de43b/video/tos/maliva/tos-maliva-v-f15faa-us/o8frICf6GoXPBAFbkSC6IeoHgAF6COXxW0DSAE/?a=7073&bti=OTU0QDItLmA%3D&ch=0&cr=0&dr=4&er=0&lr=unwatermarked&cd=0%7C0%7C0%7C0&br=312&bt=156&ds=5&ft=.cwOVInz7ThowqvOXq8Zmo&qs=13&rc=amxram45cm9ydjUzNzhoM0Bpamxram45cm9ydjUzNzhoM0AuaGpiMmRzc2pgLS1kLjZzYSMuaGpiMmRzc2pgLS1kLjZzcw%3D%3D&vvpl=1&l=02173103917641900000000000000000000ffff0a0088d433601a&btag=e00070000&format=mp3&mime_type=audio_mpeg",
        "source_timerange": {
            "start_offset": 1.5440000000000111,
            "end_offset": 3.0879999999999885
        },
        "target_timerange": {
            "start_offset": 135.29600000000002,
            "end_offset": 136.84
        },
        "ignore_audio": true,
        "audio_path": null
    },
    {
        "segment_id": "c84196e49d8711ef833bb8cef692109a",
        "text": "came into the room this morning.",
        "audio_url": "https://v16m-default.akamaized.net/70d96b6d1d02ba3ae58c84e78774051e/672de43b/video/tos/maliva/tos-maliva-v-f15faa-us/o8frICf6GoXPBAFbkSC6IeoHgAF6COXxW0DSAE/?a=7073&bti=OTU0QDItLmA%3D&ch=0&cr=0&dr=4&er=0&lr=unwatermarked&cd=0%7C0%7C0%7C0&br=312&bt=156&ds=5&ft=.cwOVInz7ThowqvOXq8Zmo&qs=13&rc=amxram45cm9ydjUzNzhoM0Bpamxram45cm9ydjUzNzhoM0AuaGpiMmRzc2pgLS1kLjZzYSMuaGpiMmRzc2pgLS1kLjZzcw%3D%3D&vvpl=1&l=02173103917641900000000000000000000ffff0a0088d433601a&btag=e00070000&format=mp3&mime_type=audio_mpeg",
        "source_timerange": {
            "start_offset": 3.087999999999994,
            "end_offset": 4.632
        },
        "target_timerange": {
            "start_offset": 136.84,
            "end_offset": 138.38400000000001
        },
        "ignore_audio": true,
        "audio_path": null
    },
    {
        "segment_id": "c841a3789d8711ef833bb8cef692109a",
        "text": "Her dirty petticoat quite",
        "audio_url": "https://v16m-default.akamaized.net/10b80dbd3ac856f082a8ddbc1617d948/672de43a/video/tos/maliva/tos-maliva-v-f15faa-us/o0tFEA3hVERL9JdfyAEAcyBnAhniiBrYBQdfjL/?a=7073&bti=OTU0QDItLmA%3D&ch=0&cr=0&dr=4&er=0&lr=unwatermarked&cd=0%7C0%7C0%7C0&br=312&bt=156&ds=5&ft=.cwOVInz7ThMwqvOXq8Zmo&qs=13&rc=ajc7cWw5cm9ydjUzNzhoM0Bpajc7cWw5cm9ydjUzNzhoM0BnXjM1MmRzc2pgLS1kLjZzYSNnXjM1MmRzc2pgLS1kLjZzcw%3D%3D&vvpl=1&l=02173103917641900000000000000000000ffff0a0088d433601a&btag=e00070000&format=mp3&mime_type=audio_mpeg",
        "source_timerange": {
            "start_offset": 0,
            "end_offset": 1.3680000000000052
        },
        "target_timerange": {
            "start_offset": 138.38400000000001,
            "end_offset": 139.752
        },
        "ignore_audio": false,
        "audio_path": null
    },
    {
        "segment_id": "c841a49a9d8711ef833bb8cef692109a",
        "text": "escaped my notice.”",
        "audio_url": "https://v16m-default.akamaized.net/10b80dbd3ac856f082a8ddbc1617d948/672de43a/video/tos/maliva/tos-maliva-v-f15faa-us/o0tFEA3hVERL9JdfyAEAcyBnAhniiBrYBQdfjL/?a=7073&bti=OTU0QDItLmA%3D&ch=0&cr=0&dr=4&er=0&lr=unwatermarked&cd=0%7C0%7C0%7C0&br=312&bt=156&ds=5&ft=.cwOVInz7ThMwqvOXq8Zmo&qs=13&rc=ajc7cWw5cm9ydjUzNzhoM0Bpajc7cWw5cm9ydjUzNzhoM0BnXjM1MmRzc2pgLS1kLjZzYSNnXjM1MmRzc2pgLS1kLjZzcw%3D%3D&vvpl=1&l=02173103917641900000000000000000000ffff0a0088d433601a&btag=e00070000&format=mp3&mime_type=audio_mpeg",
        "source_timerange": {
            "start_offset": 1.367999999999995,
            "end_offset": 2.736
        },
        "target_timerange": {
            "start_offset": 139.752,
            "end_offset": 141.12
        },
        "ignore_audio": true,
        "audio_path": null
    },
    {
        "segment_id": "c841c09c9d8711ef833bb8cef692109a",
        "text": "“_You_ observed it, Mr.",
        "audio_url": "https://v16m-default.akamaized.net/c52efe4af4a594948c6fd2f48588ac3e/672de440/video/tos/maliva/tos-maliva-v-f15faa-us/oAWAECXFZEAoArAgOcCWefExmwjXDfNCS9JO6t/?a=7073&bti=OTU0QDItLmA%3D&ch=0&cr=0&dr=4&er=0&lr=unwatermarked&cd=0%7C0%7C0%7C0&br=312&bt=156&ds=5&ft=.cwOVInz7ThMwqvOXq8Zmo&qs=13&rc=M3hmcW45cm9ydjUzNzhoM0BpM3hmcW45cm9ydjUzNzhoM0BsbTYwMmRzc2pgLS1kLjZzYSNsbTYwMmRzc2pgLS1kLjZzcw%3D%3D&vvpl=1&l=02173103917641900000000000000000000ffff0a0088d433601a&btag=e00070000&format=mp3&mime_type=audio_mpeg",
        "source_timerange": {
            "start_offset": 0,
            "end_offset": 1.4360000000000213
        },
        "target_timerange": {
            "start_offset": 141.12,
            "end_offset": 142.556
        },
        "ignore_audio": false,
        "audio_path": null
    },
    {
        "segment_id": "c841c1be9d8711ef833bb8cef692109a",
        "text": "Darcy, I am sure,” said Miss",
        "audio_url": "https://v16m-default.akamaized.net/c52efe4af4a594948c6fd2f48588ac3e/672de440/video/tos/maliva/tos-maliva-v-f15faa-us/oAWAECXFZEAoArAgOcCWefExmwjXDfNCS9JO6t/?a=7073&bti=OTU0QDItLmA%3D&ch=0&cr=0&dr=4&er=0&lr=unwatermarked&cd=0%7C0%7C0%7C0&br=312&bt=156&ds=5&ft=.cwOVInz7ThMwqvOXq8Zmo&qs=13&rc=M3hmcW45cm9ydjUzNzhoM0BpM3hmcW45cm9ydjUzNzhoM0BsbTYwMmRzc2pgLS1kLjZzYSNsbTYwMmRzc2pgLS1kLjZzcw%3D%3D&vvpl=1&l=02173103917641900000000000000000000ffff0a0088d433601a&btag=e00070000&format=mp3&mime_type=audio_mpeg",
        "source_timerange": {
            "start_offset": 1.436000000000007,
            "end_offset": 2.872
        },
        "target_timerange": {
            "start_offset": 142.556,
            "end_offset": 143.992
        },
        "ignore_audio": true,
        "audio_path": null
    },
    {
        "segment_id": "c841c2b89d8711ef833bb8cef692109a",
        "text": "Bingley; “and I am inclined",
        "audio_url": "https://v16m-default.akamaized.net/c52efe4af4a594948c6fd2f48588ac3e/672de440/video/tos/maliva/tos-maliva-v-f15faa-us/oAWAECXFZEAoArAgOcCWefExmwjXDfNCS9JO6t/?a=7073&bti=OTU0QDItLmA%3D&ch=0&cr=0&dr=4&er=0&lr=unwatermarked&cd=0%7C0%7C0%7C0&br=312&bt=156&ds=5&ft=.cwOVInz7ThMwqvOXq8Zmo&qs=13&rc=M3hmcW45cm9ydjUzNzhoM0BpM3hmcW45cm9ydjUzNzhoM0BsbTYwMmRzc2pgLS1kLjZzYSNsbTYwMmRzc2pgLS1kLjZzcw%3D%3D&vvpl=1&l=02173103917641900000000000000000000ffff0a0088d433601a&btag=e00070000&format=mp3&mime_type=audio_mpeg",
        "source_timerange": {
            "start_offset": 2.8719999999999857,
            "end_offset": 4.308000000000007
        },
        "target_timerange": {
            "start_offset": 143.992,
            "end_offset": 145.428
        },
        "ignore_audio": true,
        "audio_path": null
    },
    {
        "segment_id": "c841c39e9d8711ef833bb8cef692109a",
        "text": "to think that you would not",
        "audio_url": "https://v16m-default.akamaized.net/c52efe4af4a594948c6fd2f48588ac3e/672de440/video/tos/maliva/tos-maliva-v-f15faa-us/oAWAECXFZEAoArAgOcCWefExmwjXDfNCS9JO6t/?a=7073&bti=OTU0QDItLmA%3D&ch=0&cr=0&dr=4&er=0&lr=unwatermarked&cd=0%7C0%7C0%7C0&br=312&bt=156&ds=5&ft=.cwOVInz7ThMwqvOXq8Zmo&qs=13&rc=M3hmcW45cm9ydjUzNzhoM0BpM3hmcW45cm9ydjUzNzhoM0BsbTYwMmRzc2pgLS1kLjZzYSNsbTYwMmRzc2pgLS1kLjZzcw%3D%3D&vvpl=1&l=02173103917641900000000000000000000ffff0a0088d433601a&btag=e00070000&format=mp3&mime_type=audio_mpeg",
        "source_timerange": {
            "start_offset": 4.307999999999993,
            "end_offset": 5.744000000000014
        },
        "target_timerange": {
            "start_offset": 145.428,
            "end_offset": 146.864
        },
        "ignore_audio": true,
        "audio_path": null
    },
    {
        "segment_id": "c841c59c9d8711ef833bb8cef692109a",
        "text": "wish to see _your sister_",
        "audio_url": "https://v16m-default.akamaized.net/c52efe4af4a594948c6fd2f48588ac3e/672de440/video/tos/maliva/tos-maliva-v-f15faa-us/oAWAECXFZEAoArAgOcCWefExmwjXDfNCS9JO6t/?a=7073&bti=OTU0QDItLmA%3D&ch=0&cr=0&dr=4&er=0&lr=unwatermarked&cd=0%7C0%7C0%7C0&br=312&bt=156&ds=5&ft=.cwOVInz7ThMwqvOXq8Zmo&qs=13&rc=M3hmcW45cm9ydjUzNzhoM0BpM3hmcW45cm9ydjUzNzhoM0BsbTYwMmRzc2pgLS1kLjZzYSNsbTYwMmRzc2pgLS1kLjZzcw%3D%3D&vvpl=1&l=02173103917641900000000000000000000ffff0a0088d433601a&btag=e00070000&format=mp3&mime_type=audio_mpeg",
        "source_timerange": {
            "start_offset": 5.744,
            "end_offset": 7.179999999999993
        },
        "target_timerange": {
            "start_offset": 146.864,
            "end_offset": 148.29999999999998
        },
        "ignore_audio": true,
        "audio_path": null
    },
    {
        "segment_id": "c841c7549d8711ef833bb8cef692109a",
        "text": "make such an exhibition.”",
        "audio_url": "https://v16m-default.akamaized.net/c52efe4af4a594948c6fd2f48588ac3e/672de440/video/tos/maliva/tos-maliva-v-f15faa-us/oAWAECXFZEAoArAgOcCWefExmwjXDfNCS9JO6t/?a=7073&bti=OTU0QDItLmA%3D&ch=0&cr=0&dr=4&er=0&lr=unwatermarked&cd=0%7C0%7C0%7C0&br=312&bt=156&ds=5&ft=.cwOVInz7ThMwqvOXq8Zmo&qs=13&rc=M3hmcW45cm9ydjUzNzhoM0BpM3hmcW45cm9ydjUzNzhoM0BsbTYwMmRzc2pgLS1kLjZzYSNsbTYwMmRzc2pgLS1kLjZzcw%3D%3D&vvpl=1&l=02173103917641900000000000000000000ffff0a0088d433601a&btag=e00070000&format=mp3&mime_type=audio_mpeg",
        "source_timerange": {
            "start_offset": 7.179999999999978,
            "end_offset": 8.616
        },
        "target_timerange": {
            "start_offset": 148.29999999999998,
            "end_offset": 149.736
        },
        "ignore_audio": true,
        "audio_path": null
    },
    {
        "segment_id": "c841e11c9d8711ef833bb8cef692109a",
        "text": "“Certainly not.”  “To",
        "audio_url": "https://v16m-default.akamaized.net/0bd5e6a15febf9e982ae508866853d28/672de441/video/tos/maliva/tos-maliva-v-f15faa-us/oICQRPt1QbUFk5tEf2fM8FMWevuXAAjAAfpcQC/?a=7073&bti=OTU0QDItLmA%3D&ch=0&cr=0&dr=4&er=0&lr=unwatermarked&cd=0%7C0%7C0%7C0&br=312&bt=156&ds=5&ft=.cwOVInz7ThMwqvOXq8Zmo&qs=13&rc=amk7cHQ5cm9ydjUzNzhoM0Bpamk7cHQ5cm9ydjUzNzhoM0Btby9lMmRzc2pgLS1kLjZzYSNtby9lMmRzc2pgLS1kLjZzcw%3D%3D&vvpl=1&l=02173103917641900000000000000000000ffff0a0088d433601a&btag=e00070000&format=mp3&mime_type=audio_mpeg",
        "source_timerange": {
            "start_offset": 0,
            "end_offset": 1.5359999999999943
        },
        "target_timerange": {
            "start_offset": 149.736,
            "end_offset": 151.272
        },
        "ignore_audio": false,
        "audio_path": null
    },
    {
        "segment_id": "c841e2489d8711ef833bb8cef692109a",
        "text": "walk three miles, or four",
        "audio_url": "https://v16m-default.akamaized.net/0bd5e6a15febf9e982ae508866853d28/672de441/video/tos/maliva/tos-maliva-v-f15faa-us/oICQRPt1QbUFk5tEf2fM8FMWevuXAAjAAfpcQC/?a=7073&bti=OTU0QDItLmA%3D&ch=0&cr=0&dr=4&er=0&lr=unwatermarked&cd=0%7C0%7C0%7C0&br=312&bt=156&ds=5&ft=.cwOVInz7ThMwqvOXq8Zmo&qs=13&rc=amk7cHQ5cm9ydjUzNzhoM0Bpamk7cHQ5cm9ydjUzNzhoM0Btby9lMmRzc2pgLS1kLjZzYSNtby9lMmRzc2pgLS1kLjZzcw%3D%3D&vvpl=1&l=02173103917641900000000000000000000ffff0a0088d433601a&btag=e00070000&format=mp3&mime_type=audio_mpeg",
        "source_timerange": {
            "start_offset": 1.5360000000000014,
            "end_offset": 3.0719999999999956
        },
        "target_timerange": {
            "start_offset": 151.272,
            "end_offset": 152.808
        },
        "ignore_audio": true,
        "audio_path": null
    },
    {
        "segment_id": "c841e3429d8711ef833bb8cef692109a",
        "text": "miles, or five miles, or",
        "audio_url": "https://v16m-default.akamaized.net/0bd5e6a15febf9e982ae508866853d28/672de441/video/tos/maliva/tos-maliva-v-f15faa-us/oICQRPt1QbUFk5tEf2fM8FMWevuXAAjAAfpcQC/?a=7073&bti=OTU0QDItLmA%3D&ch=0&cr=0&dr=4&er=0&lr=unwatermarked&cd=0%7C0%7C0%7C0&br=312&bt=156&ds=5&ft=.cwOVInz7ThMwqvOXq8Zmo&qs=13&rc=amk7cHQ5cm9ydjUzNzhoM0Bpamk7cHQ5cm9ydjUzNzhoM0Btby9lMmRzc2pgLS1kLjZzYSNtby9lMmRzc2pgLS1kLjZzcw%3D%3D&vvpl=1&l=02173103917641900000000000000000000ffff0a0088d433601a&btag=e00070000&format=mp3&mime_type=audio_mpeg",
        "source_timerange": {
            "start_offset": 3.0720000000000027,
            "end_offset": 4.607999999999997
        },
        "target_timerange": {
            "start_offset": 152.808,
            "end_offset": 154.344
        },
        "ignore_audio": true,
        "audio_path": null
    },
    {
        "segment_id": "c841e41e9d8711ef833bb8cef692109a",
        "text": "whatever it is, above her",
        "audio_url": "https://v16m-default.akamaized.net/0bd5e6a15febf9e982ae508866853d28/672de441/video/tos/maliva/tos-maliva-v-f15faa-us/oICQRPt1QbUFk5tEf2fM8FMWevuXAAjAAfpcQC/?a=7073&bti=OTU0QDItLmA%3D&ch=0&cr=0&dr=4&er=0&lr=unwatermarked&cd=0%7C0%7C0%7C0&br=312&bt=156&ds=5&ft=.cwOVInz7ThMwqvOXq8Zmo&qs=13&rc=amk7cHQ5cm9ydjUzNzhoM0Bpamk7cHQ5cm9ydjUzNzhoM0Btby9lMmRzc2pgLS1kLjZzYSNtby9lMmRzc2pgLS1kLjZzcw%3D%3D&vvpl=1&l=02173103917641900000000000000000000ffff0a0088d433601a&btag=e00070000&format=mp3&mime_type=audio_mpeg",
        "source_timerange": {
            "start_offset": 4.608000000000004,
            "end_offset": 6.143999999999998
        },
        "target_timerange": {
            "start_offset": 154.344,
            "end_offset": 155.88
        },
        "ignore_audio": true,
        "audio_path": null
    },
    {
        "segment_id": "c841e52c9d8711ef833bb8cef692109a",
        "text": "ancles in dirt, and",
        "audio_url": "https://v16m-default.akamaized.net/0bd5e6a15febf9e982ae508866853d28/672de441/video/tos/maliva/tos-maliva-v-f15faa-us/oICQRPt1QbUFk5tEf2fM8FMWevuXAAjAAfpcQC/?a=7073&bti=OTU0QDItLmA%3D&ch=0&cr=0&dr=4&er=0&lr=unwatermarked&cd=0%7C0%7C0%7C0&br=312&bt=156&ds=5&ft=.cwOVInz7ThMwqvOXq8Zmo&qs=13&rc=amk7cHQ5cm9ydjUzNzhoM0Bpamk7cHQ5cm9ydjUzNzhoM0Btby9lMmRzc2pgLS1kLjZzYSNtby9lMmRzc2pgLS1kLjZzcw%3D%3D&vvpl=1&l=02173103917641900000000000000000000ffff0a0088d433601a&btag=e00070000&format=mp3&mime_type=audio_mpeg",
        "source_timerange": {
            "start_offset": 6.1440000000000055,
            "end_offset": 7.68
        },
        "target_timerange": {
            "start_offset": 155.88,
            "end_offset": 157.416
        },
        "ignore_audio": true,
        "audio_path": null
    },
    {
        "segment_id": "c841e66c9d8711ef833bb8cef692109a",
        "text": "alone, quite alone!",
        "audio_url": "https://v16m-default.akamaized.net/0bd5e6a15febf9e982ae508866853d28/672de441/video/tos/maliva/tos-maliva-v-f15faa-us/oICQRPt1QbUFk5tEf2fM8FMWevuXAAjAAfpcQC/?a=7073&bti=OTU0QDItLmA%3D&ch=0&cr=0&dr=4&er=0&lr=unwatermarked&cd=0%7C0%7C0%7C0&br=312&bt=156&ds=5&ft=.cwOVInz7ThMwqvOXq8Zmo&qs=13&rc=amk7cHQ5cm9ydjUzNzhoM0Bpamk7cHQ5cm9ydjUzNzhoM0Btby9lMmRzc2pgLS1kLjZzYSNtby9lMmRzc2pgLS1kLjZzcw%3D%3D&vvpl=1&l=02173103917641900000000000000000000ffff0a0088d433601a&btag=e00070000&format=mp3&mime_type=audio_mpeg",
        "source_timerange": {
            "start_offset": 7.680000000000007,
            "end_offset": 9.216000000000001
        },
        "target_timerange": {
            "start_offset": 157.416,
            "end_offset": 158.952
        },
        "ignore_audio": true,
        "audio_path": null
    },
    {
        "segment_id": "c841ed6a9d8711ef833bb8cef692109a",
        "text": "what could she mean by it?",
        "audio_url": "https://v16m-default.akamaized.net/e58f87df6a639acad1aa3b95d3a890be/672de439/video/tos/maliva/tos-maliva-v-f15faa-us/oYxCAbXfBbFOFCX0If6WrHhDgE8CSfA0PzWiIA/?a=7073&bti=OTU0QDItLmA%3D&ch=0&cr=0&dr=4&er=0&lr=unwatermarked&cd=0%7C0%7C0%7C0&br=312&bt=156&ds=5&ft=.cwOVInz7ThMwqvOXq8Zmo&qs=13&rc=amo5eHQ5cm9ydjUzNzhoM0Bpamo5eHQ5cm9ydjUzNzhoM0Bpb2cwMmRzc2pgLS1kLjZzYSNpb2cwMmRzc2pgLS1kLjZzcw%3D%3D&vvpl=1&l=02173103917641900000000000000000000ffff0a0088d433601a&btag=e00070000&format=mp3&mime_type=audio_mpeg",
        "source_timerange": {
            "start_offset": 0,
            "end_offset": 1.44
        },
        "target_timerange": {
            "start_offset": 158.952,
            "end_offset": 160.392
        },
        "ignore_audio": false,
        "audio_path": null
    },
    {
        "segment_id": "c84201249d8711ef833bb8cef692109a",
        "text": "It seems to me to show an",
        "audio_url": "https://v16m-default.akamaized.net/5e8983984072472ddb5ced4e17abeeec/672de43e/video/tos/maliva/tos-maliva-v-f15faa-us/oMAfOAJBnBj9IlpiiAAYBLE4hBctfLcQRVE9Ar/?a=7073&bti=OTU0QDItLmA%3D&ch=0&cr=0&dr=4&er=0&lr=unwatermarked&cd=0%7C0%7C0%7C0&br=312&bt=156&ds=5&ft=.cwOVInz7ThMwqvOXq8Zmo&qs=13&rc=MztsN3c5cm9ydjUzNzhoM0BpMztsN3c5cm9ydjUzNzhoM0AtZl9wMmRzc2pgLS1kLjZzYSMtZl9wMmRzc2pgLS1kLjZzcw%3D%3D&vvpl=1&l=02173103917641900000000000000000000ffff0a0088d433601a&btag=e00070000&format=mp3&mime_type=audio_mpeg",
        "source_timerange": {
            "start_offset": 0,
            "end_offset": 1.650000000000012
        },
        "target_timerange": {
            "start_offset": 160.392,
            "end_offset": 162.042
        },
        "ignore_audio": false,
        "audio_path": null
    },
    {
        "segment_id": "c84202509d8711ef833bb8cef692109a",
        "text": "abominable sort of conceited",
        "audio_url": "https://v16m-default.akamaized.net/5e8983984072472ddb5ced4e17abeeec/672de43e/video/tos/maliva/tos-maliva-v-f15faa-us/oMAfOAJBnBj9IlpiiAAYBLE4hBctfLcQRVE9Ar/?a=7073&bti=OTU0QDItLmA%3D&ch=0&cr=0&dr=4&er=0&lr=unwatermarked&cd=0%7C0%7C0%7C0&br=312&bt=156&ds=5&ft=.cwOVInz7ThMwqvOXq8Zmo&qs=13&rc=MztsN3c5cm9ydjUzNzhoM0BpMztsN3c5cm9ydjUzNzhoM0AtZl9wMmRzc2pgLS1kLjZzYSMtZl9wMmRzc2pgLS1kLjZzcw%3D%3D&vvpl=1&l=02173103917641900000000000000000000ffff0a0088d433601a&btag=e00070000&format=mp3&mime_type=audio_mpeg",
        "source_timerange": {
            "start_offset": 1.6500000000000057,
            "end_offset": 3.3000000000000176
        },
        "target_timerange": {
            "start_offset": 162.042,
            "end_offset": 163.692
        },
        "ignore_audio": true,
        "audio_path": null
    },
    {
        "segment_id": "c842034a9d8711ef833bb8cef692109a",
        "text": "independence, a most country-",
        "audio_url": "https://v16m-default.akamaized.net/5e8983984072472ddb5ced4e17abeeec/672de43e/video/tos/maliva/tos-maliva-v-f15faa-us/oMAfOAJBnBj9IlpiiAAYBLE4hBctfLcQRVE9Ar/?a=7073&bti=OTU0QDItLmA%3D&ch=0&cr=0&dr=4&er=0&lr=unwatermarked&cd=0%7C0%7C0%7C0&br=312&bt=156&ds=5&ft=.cwOVInz7ThMwqvOXq8Zmo&qs=13&rc=MztsN3c5cm9ydjUzNzhoM0BpMztsN3c5cm9ydjUzNzhoM0AtZl9wMmRzc2pgLS1kLjZzYSMtZl9wMmRzc2pgLS1kLjZzcw%3D%3D&vvpl=1&l=02173103917641900000000000000000000ffff0a0088d433601a&btag=e00070000&format=mp3&mime_type=audio_mpeg",
        "source_timerange": {
            "start_offset": 3.3000000000000114,
            "end_offset": 4.949999999999995
        },
        "target_timerange": {
            "start_offset": 163.692,
            "end_offset": 165.34199999999998
        },
        "ignore_audio": true,
        "audio_path": null
    },
    {
        "segment_id": "c84204269d8711ef833bb8cef692109a",
        "text": "town indifference to decorum.”",
        "audio_url": "https://v16m-default.akamaized.net/5e8983984072472ddb5ced4e17abeeec/672de43e/video/tos/maliva/tos-maliva-v-f15faa-us/oMAfOAJBnBj9IlpiiAAYBLE4hBctfLcQRVE9Ar/?a=7073&bti=OTU0QDItLmA%3D&ch=0&cr=0&dr=4&er=0&lr=unwatermarked&cd=0%7C0%7C0%7C0&br=312&bt=156&ds=5&ft=.cwOVInz7ThMwqvOXq8Zmo&qs=13&rc=MztsN3c5cm9ydjUzNzhoM0BpMztsN3c5cm9ydjUzNzhoM0AtZl9wMmRzc2pgLS1kLjZzYSMtZl9wMmRzc2pgLS1kLjZzcw%3D%3D&vvpl=1&l=02173103917641900000000000000000000ffff0a0088d433601a&btag=e00070000&format=mp3&mime_type=audio_mpeg",
        "source_timerange": {
            "start_offset": 4.949999999999989,
            "end_offset": 6.6000000000000005
        },
        "target_timerange": {
            "start_offset": 165.34199999999998,
            "end_offset": 166.992
        },
        "ignore_audio": true,
        "audio_path": null
    },
    {
        "segment_id": "c84214669d8711ef833bb8cef692109a",
        "text": "“It shows an affection for",
        "audio_url": "https://v16m-default.akamaized.net/e5fd71eb8f6b6ba23b43e94b9210900a/672de43c/video/tos/maliva/tos-maliva-v-f15faa-us/ooM2b68eAeWjcXAFDJbEuvkYQtIFHI7AWfBAex/?a=7073&bti=OTU0QDItLmA%3D&ch=0&cr=0&dr=4&er=0&lr=unwatermarked&cd=0%7C0%7C0%7C0&br=312&bt=156&ds=5&ft=.cwOVInz7ThMwqvOXq8Zmo&qs=13&rc=M2V4Z3U5cm9ydjUzNzhoM0BpM2V4Z3U5cm9ydjUzNzhoM0Azc29jMmRzc2pgLS1kLjZzYSMzc29jMmRzc2pgLS1kLjZzcw%3D%3D&vvpl=1&l=02173103917641900000000000000000000ffff0a0088d433601a&btag=e00070000&format=mp3&mime_type=audio_mpeg",
        "source_timerange": {
            "start_offset": 0,
            "end_offset": 1.4399999999999764
        },
        "target_timerange": {
            "start_offset": 166.992,
            "end_offset": 168.432
        },
        "ignore_audio": false,
        "audio_path": null
    },
    {
        "segment_id": "c84215929d8711ef833bb8cef692109a",
        "text": "her sister that is very",
        "audio_url": "https://v16m-default.akamaized.net/e5fd71eb8f6b6ba23b43e94b9210900a/672de43c/video/tos/maliva/tos-maliva-v-f15faa-us/ooM2b68eAeWjcXAFDJbEuvkYQtIFHI7AWfBAex/?a=7073&bti=OTU0QDItLmA%3D&ch=0&cr=0&dr=4&er=0&lr=unwatermarked&cd=0%7C0%7C0%7C0&br=312&bt=156&ds=5&ft=.cwOVInz7ThMwqvOXq8Zmo&qs=13&rc=M2V4Z3U5cm9ydjUzNzhoM0BpM2V4Z3U5cm9ydjUzNzhoM0Azc29jMmRzc2pgLS1kLjZzYSMzc29jMmRzc2pgLS1kLjZzcw%3D%3D&vvpl=1&l=02173103917641900000000000000000000ffff0a0088d433601a&btag=e00070000&format=mp3&mime_type=audio_mpeg",
        "source_timerange": {
            "start_offset": 1.4399999999999977,
            "end_offset": 2.8800000000000026
        },
        "target_timerange": {
            "start_offset": 168.432,
            "end_offset": 169.872
        },
        "ignore_audio": true,
        "audio_path": null
    },
    {
        "segment_id": "c84216829d8711ef833bb8cef692109a",
        "text": "pleasing,” said Bingley.",
        "audio_url": "https://v16m-default.akamaized.net/e5fd71eb8f6b6ba23b43e94b9210900a/672de43c/video/tos/maliva/tos-maliva-v-f15faa-us/ooM2b68eAeWjcXAFDJbEuvkYQtIFHI7AWfBAex/?a=7073&bti=OTU0QDItLmA%3D&ch=0&cr=0&dr=4&er=0&lr=unwatermarked&cd=0%7C0%7C0%7C0&br=312&bt=156&ds=5&ft=.cwOVInz7ThMwqvOXq8Zmo&qs=13&rc=M2V4Z3U5cm9ydjUzNzhoM0BpM2V4Z3U5cm9ydjUzNzhoM0Azc29jMmRzc2pgLS1kLjZzYSMzc29jMmRzc2pgLS1kLjZzcw%3D%3D&vvpl=1&l=02173103917641900000000000000000000ffff0a0088d433601a&btag=e00070000&format=mp3&mime_type=audio_mpeg",
        "source_timerange": {
            "start_offset": 2.880000000000024,
            "end_offset": 4.32
        },
        "target_timerange": {
            "start_offset": 169.872,
            "end_offset": 171.312
        },
        "ignore_audio": true,
        "audio_path": null
    },
    {
        "segment_id": "c8422ee29d8711ef833bb8cef692109a",
        "text": "“I am afraid, Mr. Darcy,”",
        "audio_url": "https://v16m-default.akamaized.net/a9b7b438904ee8d5d71b72587919a369/672de440/video/tos/maliva/tos-maliva-v-f15faa-us/o8GbAkBvIErtKII56eWHFfLFVe4QjAezAmuALc/?a=7073&bti=OTU0QDItLmA%3D&ch=0&cr=0&dr=4&er=0&lr=unwatermarked&cd=0%7C0%7C0%7C0&br=312&bt=156&ds=5&ft=.cwOVInz7ThMwqvOXq8Zmo&qs=13&rc=M3lkdWw5cm9ydjUzNzhoM0BpM3lkdWw5cm9ydjUzNzhoM0AxaTNwMmRzc2pgLS1kLjZzYSMxaTNwMmRzc2pgLS1kLjZzcw%3D%3D&vvpl=1&l=02173103917641900000000000000000000ffff0a0088d433601a&btag=e00070000&format=mp3&mime_type=audio_mpeg",
        "source_timerange": {
            "start_offset": 0,
            "end_offset": 1.6320000000000086
        },
        "target_timerange": {
            "start_offset": 171.312,
            "end_offset": 172.94400000000002
        },
        "ignore_audio": false,
        "audio_path": null
    },
    {
        "segment_id": "c84230549d8711ef833bb8cef692109a",
        "text": "observed Miss Bingley, in a",
        "audio_url": "https://v16m-default.akamaized.net/a9b7b438904ee8d5d71b72587919a369/672de440/video/tos/maliva/tos-maliva-v-f15faa-us/o8GbAkBvIErtKII56eWHFfLFVe4QjAezAmuALc/?a=7073&bti=OTU0QDItLmA%3D&ch=0&cr=0&dr=4&er=0&lr=unwatermarked&cd=0%7C0%7C0%7C0&br=312&bt=156&ds=5&ft=.cwOVInz7ThMwqvOXq8Zmo&qs=13&rc=M3lkdWw5cm9ydjUzNzhoM0BpM3lkdWw5cm9ydjUzNzhoM0AxaTNwMmRzc2pgLS1kLjZzYSMxaTNwMmRzc2pgLS1kLjZzcw%3D%3D&vvpl=1&l=02173103917641900000000000000000000ffff0a0088d433601a&btag=e00070000&format=mp3&mime_type=audio_mpeg",
        "source_timerange": {
            "start_offset": 1.632000000000005,
            "end_offset": 3.2640000000000136
        },
        "target_timerange": {
            "start_offset": 172.94400000000002,
            "end_offset": 174.57600000000002
        },
        "ignore_audio": true,
        "audio_path": null
    },
    {
        "segment_id": "c842316c9d8711ef833bb8cef692109a",
        "text": "half whisper, “that this",
        "audio_url": "https://v16m-default.akamaized.net/a9b7b438904ee8d5d71b72587919a369/672de440/video/tos/maliva/tos-maliva-v-f15faa-us/o8GbAkBvIErtKII56eWHFfLFVe4QjAezAmuALc/?a=7073&bti=OTU0QDItLmA%3D&ch=0&cr=0&dr=4&er=0&lr=unwatermarked&cd=0%7C0%7C0%7C0&br=312&bt=156&ds=5&ft=.cwOVInz7ThMwqvOXq8Zmo&qs=13&rc=M3lkdWw5cm9ydjUzNzhoM0BpM3lkdWw5cm9ydjUzNzhoM0AxaTNwMmRzc2pgLS1kLjZzYSMxaTNwMmRzc2pgLS1kLjZzcw%3D%3D&vvpl=1&l=02173103917641900000000000000000000ffff0a0088d433601a&btag=e00070000&format=mp3&mime_type=audio_mpeg",
        "source_timerange": {
            "start_offset": 3.26400000000001,
            "end_offset": 4.89599999999999
        },
        "target_timerange": {
            "start_offset": 174.57600000000002,
            "end_offset": 176.208
        },
        "ignore_audio": true,
        "audio_path": null
    },
    {
        "segment_id": "c84232489d8711ef833bb8cef692109a",
        "text": "adventure has rather affected",
        "audio_url": "https://v16m-default.akamaized.net/a9b7b438904ee8d5d71b72587919a369/672de440/video/tos/maliva/tos-maliva-v-f15faa-us/o8GbAkBvIErtKII56eWHFfLFVe4QjAezAmuALc/?a=7073&bti=OTU0QDItLmA%3D&ch=0&cr=0&dr=4&er=0&lr=unwatermarked&cd=0%7C0%7C0%7C0&br=312&bt=156&ds=5&ft=.cwOVInz7ThMwqvOXq8Zmo&qs=13&rc=M3lkdWw5cm9ydjUzNzhoM0BpM3lkdWw5cm9ydjUzNzhoM0AxaTNwMmRzc2pgLS1kLjZzYSMxaTNwMmRzc2pgLS1kLjZzcw%3D%3D&vvpl=1&l=02173103917641900000000000000000000ffff0a0088d433601a&btag=e00070000&format=mp3&mime_type=audio_mpeg",
        "source_timerange": {
            "start_offset": 4.895999999999987,
            "end_offset": 6.527999999999995
        },
        "target_timerange": {
            "start_offset": 176.208,
            "end_offset": 177.84
        },
        "ignore_audio": true,
        "audio_path": null
    },
    {
        "segment_id": "c842331a9d8711ef833bb8cef692109a",
        "text": "your admiration of her fine eyes.”",
        "audio_url": "https://v16m-default.akamaized.net/a9b7b438904ee8d5d71b72587919a369/672de440/video/tos/maliva/tos-maliva-v-f15faa-us/o8GbAkBvIErtKII56eWHFfLFVe4QjAezAmuALc/?a=7073&bti=OTU0QDItLmA%3D&ch=0&cr=0&dr=4&er=0&lr=unwatermarked&cd=0%7C0%7C0%7C0&br=312&bt=156&ds=5&ft=.cwOVInz7ThMwqvOXq8Zmo&qs=13&rc=M3lkdWw5cm9ydjUzNzhoM0BpM3lkdWw5cm9ydjUzNzhoM0AxaTNwMmRzc2pgLS1kLjZzYSMxaTNwMmRzc2pgLS1kLjZzcw%3D%3D&vvpl=1&l=02173103917641900000000000000000000ffff0a0088d433601a&btag=e00070000&format=mp3&mime_type=audio_mpeg",
        "source_timerange": {
            "start_offset": 6.527999999999992,
            "end_offset": 8.16
        },
        "target_timerange": {
            "start_offset": 177.84,
            "end_offset": 179.472
        },
        "ignore_audio": true,
        "audio_path": null
    },
    {
        "segment_id": "c84243649d8711ef833bb8cef692109a",
        "text": "“Not at all,” he",
        "audio_url": "https://v16m-default.akamaized.net/55e60223e2d42a224fc98e0d62e607b1/672de43b/video/tos/maliva/tos-maliva-v-f15faa-us/oEetGeFvFIykI6H2xAcALExbI7WjuAfOBFfAiW/?a=7073&bti=OTU0QDItLmA%3D&ch=0&cr=0&dr=4&er=0&lr=unwatermarked&cd=0%7C0%7C0%7C0&br=312&bt=156&ds=5&ft=.cwOVInz7ThMwqvOXq8Zmo&qs=13&rc=anU1Oms5cm9ydjUzNzhoM0BpanU1Oms5cm9ydjUzNzhoM0AwczBiMmRzc2pgLS1kLjZzYSMwczBiMmRzc2pgLS1kLjZzcw%3D%3D&vvpl=1&l=02173103917641900000000000000000000ffff0a0088d433601a&btag=e00070000&format=mp3&mime_type=audio_mpeg",
        "source_timerange": {
            "start_offset": 0,
            "end_offset": 1.327999999999994
        },
        "target_timerange": {
            "start_offset": 179.472,
            "end_offset": 180.8
        },
        "ignore_audio": false,
        "audio_path": null
    },
    {
        "segment_id": "c84244909d8711ef833bb8cef692109a",
        "text": "replied: “they were",
        "audio_url": "https://v16m-default.akamaized.net/55e60223e2d42a224fc98e0d62e607b1/672de43b/video/tos/maliva/tos-maliva-v-f15faa-us/oEetGeFvFIykI6H2xAcALExbI7WjuAfOBFfAiW/?a=7073&bti=OTU0QDItLmA%3D&ch=0&cr=0&dr=4&er=0&lr=unwatermarked&cd=0%7C0%7C0%7C0&br=312&bt=156&ds=5&ft=.cwOVInz7ThMwqvOXq8Zmo&qs=13&rc=anU1Oms5cm9ydjUzNzhoM0BpanU1Oms5cm9ydjUzNzhoM0AwczBiMmRzc2pgLS1kLjZzYSMwczBiMmRzc2pgLS1kLjZzcw%3D%3D&vvpl=1&l=02173103917641900000000000000000000ffff0a0088d433601a&btag=e00070000&format=mp3&mime_type=audio_mpeg",
        "source_timerange": {
            "start_offset": 1.328000000000003,
            "end_offset": 2.655999999999997
        },
        "target_timerange": {
            "start_offset": 180.8,
            "end_offset": 182.12800000000001
        },
        "ignore_audio": true,
        "audio_path": null
    },
    {
        "segment_id": "c84245809d8711ef833bb8cef692109a",
        "text": "brightened by the exercise.”",
        "audio_url": "https://v16m-default.akamaized.net/55e60223e2d42a224fc98e0d62e607b1/672de43b/video/tos/maliva/tos-maliva-v-f15faa-us/oEetGeFvFIykI6H2xAcALExbI7WjuAfOBFfAiW/?a=7073&bti=OTU0QDItLmA%3D&ch=0&cr=0&dr=4&er=0&lr=unwatermarked&cd=0%7C0%7C0%7C0&br=312&bt=156&ds=5&ft=.cwOVInz7ThMwqvOXq8Zmo&qs=13&rc=anU1Oms5cm9ydjUzNzhoM0BpanU1Oms5cm9ydjUzNzhoM0AwczBiMmRzc2pgLS1kLjZzYSMwczBiMmRzc2pgLS1kLjZzcw%3D%3D&vvpl=1&l=02173103917641900000000000000000000ffff0a0088d433601a&btag=e00070000&format=mp3&mime_type=audio_mpeg",
        "source_timerange": {
            "start_offset": 2.656000000000006,
            "end_offset": 3.984
        },
        "target_timerange": {
            "start_offset": 182.12800000000001,
            "end_offset": 183.45600000000002
        },
        "ignore_audio": true,
        "audio_path": null
    },
    {
        "segment_id": "c84263ee9d8711ef833bb8cef692109a",
        "text": "A short pause followed this",
        "audio_url": "https://v16m-default.akamaized.net/c6b144ca7db1849b3e8cef0072a5e753/672de441/video/tos/maliva/tos-maliva-v-f15faa-us/oIfveSAUQIx57VAFjPcF2G1EtQfpkiAeAuFLCW/?a=7073&bti=OTU0QDItLmA%3D&ch=0&cr=0&dr=4&er=0&lr=unwatermarked&cd=0%7C0%7C0%7C0&br=312&bt=156&ds=5&ft=.cwOVInz7ThMwqvOXq8Zmo&qs=13&rc=amZzcG45cm9ydjUzNzhoM0BpamZzcG45cm9ydjUzNzhoM0BeZWdkMmRzc2pgLS1kLjZzYSNeZWdkMmRzc2pgLS1kLjZzcw%3D%3D&vvpl=1&l=02173103917641900000000000000000000ffff0a0088d433601a&btag=e00070000&format=mp3&mime_type=audio_mpeg",
        "source_timerange": {
            "start_offset": 0,
            "end_offset": 1.584000000000012
        },
        "target_timerange": {
            "start_offset": 183.45600000000002,
            "end_offset": 185.04000000000002
        },
        "ignore_audio": false,
        "audio_path": null
    },
    {
        "segment_id": "c84265889d8711ef833bb8cef692109a",
        "text": "speech, and Mrs. Hurst",
        "audio_url": "https://v16m-default.akamaized.net/c6b144ca7db1849b3e8cef0072a5e753/672de441/video/tos/maliva/tos-maliva-v-f15faa-us/oIfveSAUQIx57VAFjPcF2G1EtQfpkiAeAuFLCW/?a=7073&bti=OTU0QDItLmA%3D&ch=0&cr=0&dr=4&er=0&lr=unwatermarked&cd=0%7C0%7C0%7C0&br=312&bt=156&ds=5&ft=.cwOVInz7ThMwqvOXq8Zmo&qs=13&rc=amZzcG45cm9ydjUzNzhoM0BpamZzcG45cm9ydjUzNzhoM0BeZWdkMmRzc2pgLS1kLjZzYSNeZWdkMmRzc2pgLS1kLjZzcw%3D%3D&vvpl=1&l=02173103917641900000000000000000000ffff0a0088d433601a&btag=e00070000&format=mp3&mime_type=audio_mpeg",
        "source_timerange": {
            "start_offset": 1.5840000000000032,
            "end_offset": 3.1680000000000152
        },
        "target_timerange": {
            "start_offset": 185.04000000000002,
            "end_offset": 186.62400000000002
        },
        "ignore_audio": true,
        "audio_path": null
    },
    {
        "segment_id": "c84266a09d8711ef833bb8cef692109a",
        "text": "began again,--  “I have an",
        "audio_url": "https://v16m-default.akamaized.net/c6b144ca7db1849b3e8cef0072a5e753/672de441/video/tos/maliva/tos-maliva-v-f15faa-us/oIfveSAUQIx57VAFjPcF2G1EtQfpkiAeAuFLCW/?a=7073&bti=OTU0QDItLmA%3D&ch=0&cr=0&dr=4&er=0&lr=unwatermarked&cd=0%7C0%7C0%7C0&br=312&bt=156&ds=5&ft=.cwOVInz7ThMwqvOXq8Zmo&qs=13&rc=amZzcG45cm9ydjUzNzhoM0BpamZzcG45cm9ydjUzNzhoM0BeZWdkMmRzc2pgLS1kLjZzYSNeZWdkMmRzc2pgLS1kLjZzcw%3D%3D&vvpl=1&l=02173103917641900000000000000000000ffff0a0088d433601a&btag=e00070000&format=mp3&mime_type=audio_mpeg",
        "source_timerange": {
            "start_offset": 3.1680000000000064,
            "end_offset": 4.752000000000018
        },
        "target_timerange": {
            "start_offset": 186.62400000000002,
            "end_offset": 188.20800000000003
        },
        "ignore_audio": true,
        "audio_path": null
    },
    {
        "segment_id": "c84267ae9d8711ef833bb8cef692109a",
        "text": "excessive regard for Jane",
        "audio_url": "https://v16m-default.akamaized.net/c6b144ca7db1849b3e8cef0072a5e753/672de441/video/tos/maliva/tos-maliva-v-f15faa-us/oIfveSAUQIx57VAFjPcF2G1EtQfpkiAeAuFLCW/?a=7073&bti=OTU0QDItLmA%3D&ch=0&cr=0&dr=4&er=0&lr=unwatermarked&cd=0%7C0%7C0%7C0&br=312&bt=156&ds=5&ft=.cwOVInz7ThMwqvOXq8Zmo&qs=13&rc=amZzcG45cm9ydjUzNzhoM0BpamZzcG45cm9ydjUzNzhoM0BeZWdkMmRzc2pgLS1kLjZzYSNeZWdkMmRzc2pgLS1kLjZzcw%3D%3D&vvpl=1&l=02173103917641900000000000000000000ffff0a0088d433601a&btag=e00070000&format=mp3&mime_type=audio_mpeg",
        "source_timerange": {
            "start_offset": 4.7520000000000095,
            "end_offset": 6.335999999999993
        },
        "target_timerange": {
            "start_offset": 188.20800000000003,
            "end_offset": 189.792
        },
        "ignore_audio": true,
        "audio_path": null
    },
    {
        "segment_id": "c84268e49d8711ef833bb8cef692109a",
        "text": "Bennet,--she is really a",
        "audio_url": "https://v16m-default.akamaized.net/c6b144ca7db1849b3e8cef0072a5e753/672de441/video/tos/maliva/tos-maliva-v-f15faa-us/oIfveSAUQIx57VAFjPcF2G1EtQfpkiAeAuFLCW/?a=7073&bti=OTU0QDItLmA%3D&ch=0&cr=0&dr=4&er=0&lr=unwatermarked&cd=0%7C0%7C0%7C0&br=312&bt=156&ds=5&ft=.cwOVInz7ThMwqvOXq8Zmo&qs=13&rc=amZzcG45cm9ydjUzNzhoM0BpamZzcG45cm9ydjUzNzhoM0BeZWdkMmRzc2pgLS1kLjZzYSNeZWdkMmRzc2pgLS1kLjZzcw%3D%3D&vvpl=1&l=02173103917641900000000000000000000ffff0a0088d433601a&btag=e00070000&format=mp3&mime_type=audio_mpeg",
        "source_timerange": {
            "start_offset": 6.335999999999984,
            "end_offset": 7.919999999999996
        },
        "target_timerange": {
            "start_offset": 189.792,
            "end_offset": 191.376
        },
        "ignore_audio": true,
        "audio_path": null
    },
    {
        "segment_id": "c84269d49d8711ef833bb8cef692109a",
        "text": "very sweet girl,--and",
        "audio_url": "https://v16m-default.akamaized.net/c6b144ca7db1849b3e8cef0072a5e753/672de441/video/tos/maliva/tos-maliva-v-f15faa-us/oIfveSAUQIx57VAFjPcF2G1EtQfpkiAeAuFLCW/?a=7073&bti=OTU0QDItLmA%3D&ch=0&cr=0&dr=4&er=0&lr=unwatermarked&cd=0%7C0%7C0%7C0&br=312&bt=156&ds=5&ft=.cwOVInz7ThMwqvOXq8Zmo&qs=13&rc=amZzcG45cm9ydjUzNzhoM0BpamZzcG45cm9ydjUzNzhoM0BeZWdkMmRzc2pgLS1kLjZzYSNeZWdkMmRzc2pgLS1kLjZzcw%3D%3D&vvpl=1&l=02173103917641900000000000000000000ffff0a0088d433601a&btag=e00070000&format=mp3&mime_type=audio_mpeg",
        "source_timerange": {
            "start_offset": 7.9199999999999875,
            "end_offset": 9.504
        },
        "target_timerange": {
            "start_offset": 191.376,
            "end_offset": 192.96
        },
        "ignore_audio": true,
        "audio_path": null
    },
    {
        "segment_id": "c84276c29d8711ef833bb8cef692109a",
        "text": "I wish with all my heart",
        "audio_url": "https://v16m-default.akamaized.net/dd8c8550c1b71a429553e252b23d2225/672de43a/video/tos/maliva/tos-maliva-v-f15faa-us/oYWX8CEx9xDArsgQf6AfFdtCfqSAAOECjXEXL7/?a=7073&bti=OTU0QDItLmA%3D&ch=0&cr=0&dr=4&er=0&lr=unwatermarked&cd=0%7C0%7C0%7C0&br=312&bt=156&ds=5&ft=.cwOVInz7ThMwqvOXq8Zmo&qs=13&rc=M2ppa285cm9ydjUzNzhoM0BpM2ppa285cm9ydjUzNzhoM0BycmFiMmRzc2pgLS1kLjZzYSNycmFiMmRzc2pgLS1kLjZzcw%3D%3D&vvpl=1&l=02173103917641900000000000000000000ffff0a0088d433601a&btag=e00070000&format=mp3&mime_type=audio_mpeg",
        "source_timerange": {
            "start_offset": 0,
            "end_offset": 1.2600000000000091
        },
        "target_timerange": {
            "start_offset": 192.96,
            "end_offset": 194.22000000000003
        },
        "ignore_audio": false,
        "audio_path": null
    },
    {
        "segment_id": "c842782a9d8711ef833bb8cef692109a",
        "text": "she were well settled.",
        "audio_url": "https://v16m-default.akamaized.net/dd8c8550c1b71a429553e252b23d2225/672de43a/video/tos/maliva/tos-maliva-v-f15faa-us/oYWX8CEx9xDArsgQf6AfFdtCfqSAAOECjXEXL7/?a=7073&bti=OTU0QDItLmA%3D&ch=0&cr=0&dr=4&er=0&lr=unwatermarked&cd=0%7C0%7C0%7C0&br=312&bt=156&ds=5&ft=.cwOVInz7ThMwqvOXq8Zmo&qs=13&rc=M2ppa285cm9ydjUzNzhoM0BpM2ppa285cm9ydjUzNzhoM0BycmFiMmRzc2pgLS1kLjZzYSNycmFiMmRzc2pgLS1kLjZzcw%3D%3D&vvpl=1&l=02173103917641900000000000000000000ffff0a0088d433601a&btag=e00070000&format=mp3&mime_type=audio_mpeg",
        "source_timerange": {
            "start_offset": 1.2600000000000193,
            "end_offset": 2.52
        },
        "target_timerange": {
            "start_offset": 194.22000000000003,
            "end_offset": 195.48000000000002
        },
        "ignore_audio": true,
        "audio_path": null
    },
    {
        "segment_id": "c8428e969d8711ef833bb8cef692109a",
        "text": "But with such a father and",
        "audio_url": "https://v16m-default.akamaized.net/c764c7cb633ef36b37c8e4cf8a2ac6a8/672de43d/video/tos/maliva/tos-maliva-v-f15faa-us/okjFUtABfLU0uEkAZcUvWwAAeIIfeFWGIbH67D/?a=7073&bti=OTU0QDItLmA%3D&ch=0&cr=0&dr=4&er=0&lr=unwatermarked&cd=0%7C0%7C0%7C0&br=312&bt=156&ds=5&ft=.cwOVInz7ThMwqvOXq8Zmo&qs=13&rc=M2VsdG85cm9ydjUzNzhoM0BpM2VsdG85cm9ydjUzNzhoM0BhaGU0MmRzc2pgLS1kLjZzYSNhaGU0MmRzc2pgLS1kLjZzcw%3D%3D&vvpl=1&l=02173103917641900000000000000000000ffff0a0088d433601a&btag=e00070000&format=mp3&mime_type=audio_mpeg",
        "source_timerange": {
            "start_offset": 0,
            "end_offset": 1.3860000000000134
        },
        "target_timerange": {
            "start_offset": 195.48000000000002,
            "end_offset": 196.866
        },
        "ignore_audio": false,
        "audio_path": null
    },
    {
        "segment_id": "c84290269d8711ef833bb8cef692109a",
        "text": "mother, and such low",
        "audio_url": "https://v16m-default.akamaized.net/c764c7cb633ef36b37c8e4cf8a2ac6a8/672de43d/video/tos/maliva/tos-maliva-v-f15faa-us/okjFUtABfLU0uEkAZcUvWwAAeIIfeFWGIbH67D/?a=7073&bti=OTU0QDItLmA%3D&ch=0&cr=0&dr=4&er=0&lr=unwatermarked&cd=0%7C0%7C0%7C0&br=312&bt=156&ds=5&ft=.cwOVInz7ThMwqvOXq8Zmo&qs=13&rc=M2VsdG85cm9ydjUzNzhoM0BpM2VsdG85cm9ydjUzNzhoM0BhaGU0MmRzc2pgLS1kLjZzYSNhaGU0MmRzc2pgLS1kLjZzcw%3D%3D&vvpl=1&l=02173103917641900000000000000000000ffff0a0088d433601a&btag=e00070000&format=mp3&mime_type=audio_mpeg",
        "source_timerange": {
            "start_offset": 1.3859999999999957,
            "end_offset": 2.772000000000009
        },
        "target_timerange": {
            "start_offset": 196.866,
            "end_offset": 198.252
        },
        "ignore_audio": true,
        "audio_path": null
    },
    {
        "segment_id": "c84291849d8711ef833bb8cef692109a",
        "text": "connections, I am afraid",
        "audio_url": "https://v16m-default.akamaized.net/c764c7cb633ef36b37c8e4cf8a2ac6a8/672de43d/video/tos/maliva/tos-maliva-v-f15faa-us/okjFUtABfLU0uEkAZcUvWwAAeIIfeFWGIbH67D/?a=7073&bti=OTU0QDItLmA%3D&ch=0&cr=0&dr=4&er=0&lr=unwatermarked&cd=0%7C0%7C0%7C0&br=312&bt=156&ds=5&ft=.cwOVInz7ThMwqvOXq8Zmo&qs=13&rc=M2VsdG85cm9ydjUzNzhoM0BpM2VsdG85cm9ydjUzNzhoM0BhaGU0MmRzc2pgLS1kLjZzYSNhaGU0MmRzc2pgLS1kLjZzcw%3D%3D&vvpl=1&l=02173103917641900000000000000000000ffff0a0088d433601a&btag=e00070000&format=mp3&mime_type=audio_mpeg",
        "source_timerange": {
            "start_offset": 2.7719999999999914,
            "end_offset": 4.158000000000005
        },
        "target_timerange": {
            "start_offset": 198.252,
            "end_offset": 199.638
        },
        "ignore_audio": true,
        "audio_path": null
    },
    {
        "segment_id": "c84292a69d8711ef833bb8cef692109a",
        "text": "there is no chance of it.”",
        "audio_url": "https://v16m-default.akamaized.net/c764c7cb633ef36b37c8e4cf8a2ac6a8/672de43d/video/tos/maliva/tos-maliva-v-f15faa-us/okjFUtABfLU0uEkAZcUvWwAAeIIfeFWGIbH67D/?a=7073&bti=OTU0QDItLmA%3D&ch=0&cr=0&dr=4&er=0&lr=unwatermarked&cd=0%7C0%7C0%7C0&br=312&bt=156&ds=5&ft=.cwOVInz7ThMwqvOXq8Zmo&qs=13&rc=M2VsdG85cm9ydjUzNzhoM0BpM2VsdG85cm9ydjUzNzhoM0BhaGU0MmRzc2pgLS1kLjZzYSNhaGU0MmRzc2pgLS1kLjZzcw%3D%3D&vvpl=1&l=02173103917641900000000000000000000ffff0a0088d433601a&btag=e00070000&format=mp3&mime_type=audio_mpeg",
        "source_timerange": {
            "start_offset": 4.157999999999987,
            "end_offset": 5.5440000000000005
        },
        "target_timerange": {
            "start_offset": 199.638,
            "end_offset": 201.024
        },
        "ignore_audio": true,
        "audio_path": null
    },
    {
        "segment_id": "c842c4249d8711ef833bb8cef692109a",
        "text": "“I think I have heard you say",
        "audio_url": "https://v16m-default.akamaized.net/86e6cb6d7c77df542b17678624c61418/672de444/video/tos/maliva/tos-maliva-v-f15faa-us/oMEDcVBndLtjfipr1bAB9QAhJzBfLriAMEA7iY/?a=7073&bti=OTU0QDItLmA%3D&ch=0&cr=0&dr=4&er=0&lr=unwatermarked&cd=0%7C0%7C0%7C0&br=312&bt=156&ds=5&ft=.cwOVInz7ThMwqvOXq8Zmo&qs=13&rc=am1saG85cm9ydjUzNzhoM0Bpam1saG85cm9ydjUzNzhoM0BhZ21lMmRzc2pgLS1kLjZzYSNhZ21lMmRzc2pgLS1kLjZzcw%3D%3D&vvpl=1&l=02173103917641900000000000000000000ffff0a0088d433601a&btag=e00070000&format=mp3&mime_type=audio_mpeg",
        "source_timerange": {
            "start_offset": 0,
            "end_offset": 1.5900000000000052
        },
        "target_timerange": {
            "start_offset": 201.024,
            "end_offset": 202.614
        },
        "ignore_audio": false,
        "audio_path": null
    },
    {
        "segment_id": "c842c5fa9d8711ef833bb8cef692109a",
        "text": "that their uncle is an",
        "audio_url": "https://v16m-default.akamaized.net/86e6cb6d7c77df542b17678624c61418/672de444/video/tos/maliva/tos-maliva-v-f15faa-us/oMEDcVBndLtjfipr1bAB9QAhJzBfLriAMEA7iY/?a=7073&bti=OTU0QDItLmA%3D&ch=0&cr=0&dr=4&er=0&lr=unwatermarked&cd=0%7C0%7C0%7C0&br=312&bt=156&ds=5&ft=.cwOVInz7ThMwqvOXq8Zmo&qs=13&rc=am1saG85cm9ydjUzNzhoM0Bpam1saG85cm9ydjUzNzhoM0BhZ21lMmRzc2pgLS1kLjZzYSNhZ21lMmRzc2pgLS1kLjZzcw%3D%3D&vvpl=1&l=02173103917641900000000000000000000ffff0a0088d433601a&btag=e00070000&format=mp3&mime_type=audio_mpeg",
        "source_timerange": {
            "start_offset": 1.5900000000000034,
            "end_offset": 3.1800000000000086
        },
        "target_timerange": {
            "start_offset": 202.614,
            "end_offset": 204.204
        },
        "ignore_audio": true,
        "audio_path": null
    },
    {
        "segment_id": "c842c7629d8711ef833bb8cef692109a",
        "text": "attorney in Meryton?”  “Yes;",
        "audio_url": "https://v16m-default.akamaized.net/86e6cb6d7c77df542b17678624c61418/672de444/video/tos/maliva/tos-maliva-v-f15faa-us/oMEDcVBndLtjfipr1bAB9QAhJzBfLriAMEA7iY/?a=7073&bti=OTU0QDItLmA%3D&ch=0&cr=0&dr=4&er=0&lr=unwatermarked&cd=0%7C0%7C0%7C0&br=312&bt=156&ds=5&ft=.cwOVInz7ThMwqvOXq8Zmo&qs=13&rc=am1saG85cm9ydjUzNzhoM0Bpam1saG85cm9ydjUzNzhoM0BhZ21lMmRzc2pgLS1kLjZzYSNhZ21lMmRzc2pgLS1kLjZzcw%3D%3D&vvpl=1&l=02173103917641900000000000000000000ffff0a0088d433601a&btag=e00070000&format=mp3&mime_type=audio_mpeg",
        "source_timerange": {
            "start_offset": 3.180000000000007,
            "end_offset": 4.770000000000012
        },
        "target_timerange": {
            "start_offset": 204.204,
            "end_offset": 205.794
        },
        "ignore_audio": true,
        "audio_path": null
    },
    {
        "segment_id": "c842c8de9d8711ef833bb8cef692109a",
        "text": "and they have another, who",
        "audio_url": "https://v16m-default.akamaized.net/86e6cb6d7c77df542b17678624c61418/672de444/video/tos/maliva/tos-maliva-v-f15faa-us/oMEDcVBndLtjfipr1bAB9QAhJzBfLriAMEA7iY/?a=7073&bti=OTU0QDItLmA%3D&ch=0&cr=0&dr=4&er=0&lr=unwatermarked&cd=0%7C0%7C0%7C0&br=312&bt=156&ds=5&ft=.cwOVInz7ThMwqvOXq8Zmo&qs=13&rc=am1saG85cm9ydjUzNzhoM0Bpam1saG85cm9ydjUzNzhoM0BhZ21lMmRzc2pgLS1kLjZzYSNhZ21lMmRzc2pgLS1kLjZzcw%3D%3D&vvpl=1&l=02173103917641900000000000000000000ffff0a0088d433601a&btag=e00070000&format=mp3&mime_type=audio_mpeg",
        "source_timerange": {
            "start_offset": 4.77000000000001,
            "end_offset": 6.360000000000015
        },
        "target_timerange": {
            "start_offset": 205.794,
            "end_offset": 207.38400000000001
        },
        "ignore_audio": true,
        "audio_path": null
    },
    {
        "segment_id": "c842ca509d8711ef833bb8cef692109a",
        "text": "lives somewhere near",
        "audio_url": "https://v16m-default.akamaized.net/86e6cb6d7c77df542b17678624c61418/672de444/video/tos/maliva/tos-maliva-v-f15faa-us/oMEDcVBndLtjfipr1bAB9QAhJzBfLriAMEA7iY/?a=7073&bti=OTU0QDItLmA%3D&ch=0&cr=0&dr=4&er=0&lr=unwatermarked&cd=0%7C0%7C0%7C0&br=312&bt=156&ds=5&ft=.cwOVInz7ThMwqvOXq8Zmo&qs=13&rc=am1saG85cm9ydjUzNzhoM0Bpam1saG85cm9ydjUzNzhoM0BhZ21lMmRzc2pgLS1kLjZzYSNhZ21lMmRzc2pgLS1kLjZzcw%3D%3D&vvpl=1&l=02173103917641900000000000000000000ffff0a0088d433601a&btag=e00070000&format=mp3&mime_type=audio_mpeg",
        "source_timerange": {
            "start_offset": 6.360000000000014,
            "end_offset": 7.94999999999999
        },
        "target_timerange": {
            "start_offset": 207.38400000000001,
            "end_offset": 208.974
        },
        "ignore_audio": true,
        "audio_path": null
    },
    {
        "segment_id": "c842cbb89d8711ef833bb8cef692109a",
        "text": "Cheapside.”  “That is",
        "audio_url": "https://v16m-default.akamaized.net/86e6cb6d7c77df542b17678624c61418/672de444/video/tos/maliva/tos-maliva-v-f15faa-us/oMEDcVBndLtjfipr1bAB9QAhJzBfLriAMEA7iY/?a=7073&bti=OTU0QDItLmA%3D&ch=0&cr=0&dr=4&er=0&lr=unwatermarked&cd=0%7C0%7C0%7C0&br=312&bt=156&ds=5&ft=.cwOVInz7ThMwqvOXq8Zmo&qs=13&rc=am1saG85cm9ydjUzNzhoM0Bpam1saG85cm9ydjUzNzhoM0BhZ21lMmRzc2pgLS1kLjZzYSNhZ21lMmRzc2pgLS1kLjZzcw%3D%3D&vvpl=1&l=02173103917641900000000000000000000ffff0a0088d433601a&btag=e00070000&format=mp3&mime_type=audio_mpeg",
        "source_timerange": {
            "start_offset": 7.949999999999989,
            "end_offset": 9.539999999999994
        },
        "target_timerange": {
            "start_offset": 208.974,
            "end_offset": 210.564
        },
        "ignore_audio": true,
        "audio_path": null
    },
    {
        "segment_id": "c842cd169d8711ef833bb8cef692109a",
        "text": "capital,” added her sister;",
        "audio_url": "https://v16m-default.akamaized.net/86e6cb6d7c77df542b17678624c61418/672de444/video/tos/maliva/tos-maliva-v-f15faa-us/oMEDcVBndLtjfipr1bAB9QAhJzBfLriAMEA7iY/?a=7073&bti=OTU0QDItLmA%3D&ch=0&cr=0&dr=4&er=0&lr=unwatermarked&cd=0%7C0%7C0%7C0&br=312&bt=156&ds=5&ft=.cwOVInz7ThMwqvOXq8Zmo&qs=13&rc=am1saG85cm9ydjUzNzhoM0Bpam1saG85cm9ydjUzNzhoM0BhZ21lMmRzc2pgLS1kLjZzYSNhZ21lMmRzc2pgLS1kLjZzcw%3D%3D&vvpl=1&l=02173103917641900000000000000000000ffff0a0088d433601a&btag=e00070000&format=mp3&mime_type=audio_mpeg",
        "source_timerange": {
            "start_offset": 9.539999999999992,
            "end_offset": 11.129999999999997
        },
        "target_timerange": {
            "start_offset": 210.564,
            "end_offset": 212.154
        },
        "ignore_audio": true,
        "audio_path": null
    },
    {
        "segment_id": "c842ce889d8711ef833bb8cef692109a",
        "text": "and they both laughed heartily.",
        "audio_url": "https://v16m-default.akamaized.net/86e6cb6d7c77df542b17678624c61418/672de444/video/tos/maliva/tos-maliva-v-f15faa-us/oMEDcVBndLtjfipr1bAB9QAhJzBfLriAMEA7iY/?a=7073&bti=OTU0QDItLmA%3D&ch=0&cr=0&dr=4&er=0&lr=unwatermarked&cd=0%7C0%7C0%7C0&br=312&bt=156&ds=5&ft=.cwOVInz7ThMwqvOXq8Zmo&qs=13&rc=am1saG85cm9ydjUzNzhoM0Bpam1saG85cm9ydjUzNzhoM0BhZ21lMmRzc2pgLS1kLjZzYSNhZ21lMmRzc2pgLS1kLjZzcw%3D%3D&vvpl=1&l=02173103917641900000000000000000000ffff0a0088d433601a&btag=e00070000&format=mp3&mime_type=audio_mpeg",
        "source_timerange": {
            "start_offset": 11.129999999999995,
            "end_offset": 12.72
        },
        "target_timerange": {
            "start_offset": 212.154,
            "end_offset": 213.744
        },
        "ignore_audio": true,
        "audio_path": null
    },
    {
        "segment_id": "c842ef589d8711ef833bb8cef692109a",
        "text": "“If they had uncles enough to",
        "audio_url": "https://v16m-default.akamaized.net/d0f579391bb85d852cff976a2c9a36ed/672de43e/video/tos/maliva/tos-maliva-v-f15faa-us/oAWBUFveu2AI9A6cCjkLIeAtIEreGAebdAGHFy/?a=7073&bti=OTU0QDItLmA%3D&ch=0&cr=0&dr=4&er=0&lr=unwatermarked&cd=0%7C0%7C0%7C0&br=312&bt=156&ds=5&ft=.cwOVInz7ThMwqvOXq8Zmo&qs=13&rc=anh2ZHc5cm9ydjUzNzhoM0Bpanh2ZHc5cm9ydjUzNzhoM0BkLWtqMmRzc2pgLS1kLjZzYSNkLWtqMmRzc2pgLS1kLjZzcw%3D%3D&vvpl=1&l=02173103917641900000000000000000000ffff0a0088d433601a&btag=e00070000&format=mp3&mime_type=audio_mpeg",
        "source_timerange": {
            "start_offset": 0,
            "end_offset": 1.58999999999999
        },
        "target_timerange": {
            "start_offset": 213.744,
            "end_offset": 215.334
        },
        "ignore_audio": false,
        "audio_path": null
    },
    {
        "segment_id": "c842f12e9d8711ef833bb8cef692109a",
        "text": "fill _all_ Cheapside,” cried",
        "audio_url": "https://v16m-default.akamaized.net/d0f579391bb85d852cff976a2c9a36ed/672de43e/video/tos/maliva/tos-maliva-v-f15faa-us/oAWBUFveu2AI9A6cCjkLIeAtIEreGAebdAGHFy/?a=7073&bti=OTU0QDItLmA%3D&ch=0&cr=0&dr=4&er=0&lr=unwatermarked&cd=0%7C0%7C0%7C0&br=312&bt=156&ds=5&ft=.cwOVInz7ThMwqvOXq8Zmo&qs=13&rc=anh2ZHc5cm9ydjUzNzhoM0Bpanh2ZHc5cm9ydjUzNzhoM0BkLWtqMmRzc2pgLS1kLjZzYSNkLWtqMmRzc2pgLS1kLjZzcw%3D%3D&vvpl=1&l=02173103917641900000000000000000000ffff0a0088d433601a&btag=e00070000&format=mp3&mime_type=audio_mpeg",
        "source_timerange": {
            "start_offset": 1.5900000000000034,
            "end_offset": 3.1799999999999935
        },
        "target_timerange": {
            "start_offset": 215.334,
            "end_offset": 216.924
        },
        "ignore_audio": true,
        "audio_path": null
    },
    {
        "segment_id": "c842f2aa9d8711ef833bb8cef692109a",
        "text": "Bingley, “it would not make them",
        "audio_url": "https://v16m-default.akamaized.net/d0f579391bb85d852cff976a2c9a36ed/672de43e/video/tos/maliva/tos-maliva-v-f15faa-us/oAWBUFveu2AI9A6cCjkLIeAtIEreGAebdAGHFy/?a=7073&bti=OTU0QDItLmA%3D&ch=0&cr=0&dr=4&er=0&lr=unwatermarked&cd=0%7C0%7C0%7C0&br=312&bt=156&ds=5&ft=.cwOVInz7ThMwqvOXq8Zmo&qs=13&rc=anh2ZHc5cm9ydjUzNzhoM0Bpanh2ZHc5cm9ydjUzNzhoM0BkLWtqMmRzc2pgLS1kLjZzYSNkLWtqMmRzc2pgLS1kLjZzcw%3D%3D&vvpl=1&l=02173103917641900000000000000000000ffff0a0088d433601a&btag=e00070000&format=mp3&mime_type=audio_mpeg",
        "source_timerange": {
            "start_offset": 3.180000000000007,
            "end_offset": 4.769999999999997
        },
        "target_timerange": {
            "start_offset": 216.924,
            "end_offset": 218.514
        },
        "ignore_audio": true,
        "audio_path": null
    },
    {
        "segment_id": "c842f4129d8711ef833bb8cef692109a",
        "text": "one jot less agreeable.”",
        "audio_url": "https://v16m-default.akamaized.net/d0f579391bb85d852cff976a2c9a36ed/672de43e/video/tos/maliva/tos-maliva-v-f15faa-us/oAWBUFveu2AI9A6cCjkLIeAtIEreGAebdAGHFy/?a=7073&bti=OTU0QDItLmA%3D&ch=0&cr=0&dr=4&er=0&lr=unwatermarked&cd=0%7C0%7C0%7C0&br=312&bt=156&ds=5&ft=.cwOVInz7ThMwqvOXq8Zmo&qs=13&rc=anh2ZHc5cm9ydjUzNzhoM0Bpanh2ZHc5cm9ydjUzNzhoM0BkLWtqMmRzc2pgLS1kLjZzYSNkLWtqMmRzc2pgLS1kLjZzcw%3D%3D&vvpl=1&l=02173103917641900000000000000000000ffff0a0088d433601a&btag=e00070000&format=mp3&mime_type=audio_mpeg",
        "source_timerange": {
            "start_offset": 4.77000000000001,
            "end_offset": 6.36
        },
        "target_timerange": {
            "start_offset": 218.514,
            "end_offset": 220.104
        },
        "ignore_audio": true,
        "audio_path": null
    },
    {
        "segment_id": "c8430df89d8711ef833bb8cef692109a",
        "text": "“But it must very materially",
        "audio_url": "https://v16m-default.akamaized.net/b45b93e88e24b962740f24ca175aa183/672de43e/video/tos/maliva/tos-maliva-v-f15faa-us/owif9ArnLL7HBMrAiwsYAVjBJdtfEbwAh1pQEB/?a=7073&bti=OTU0QDItLmA%3D&ch=0&cr=0&dr=4&er=0&lr=unwatermarked&cd=0%7C0%7C0%7C0&br=312&bt=156&ds=5&ft=.cwOVInz7ThMwqvOXq8Zmo&qs=13&rc=amYzdWo5cm9ydjUzNzhoM0BpamYzdWo5cm9ydjUzNzhoM0BoYjNuMmRzc2pgLS1kLjZzYSNoYjNuMmRzc2pgLS1kLjZzcw%3D%3D&vvpl=1&l=02173103917641900000000000000000000ffff0a0088d433601a&btag=e00070000&format=mp3&mime_type=audio_mpeg",
        "source_timerange": {
            "start_offset": 0,
            "end_offset": 1.5299999999999967
        },
        "target_timerange": {
            "start_offset": 220.104,
            "end_offset": 221.63400000000001
        },
        "ignore_audio": false,
        "audio_path": null
    },
    {
        "segment_id": "c8430fd89d8711ef833bb8cef692109a",
        "text": "lessen their chance of marrying",
        "audio_url": "https://v16m-default.akamaized.net/b45b93e88e24b962740f24ca175aa183/672de43e/video/tos/maliva/tos-maliva-v-f15faa-us/owif9ArnLL7HBMrAiwsYAVjBJdtfEbwAh1pQEB/?a=7073&bti=OTU0QDItLmA%3D&ch=0&cr=0&dr=4&er=0&lr=unwatermarked&cd=0%7C0%7C0%7C0&br=312&bt=156&ds=5&ft=.cwOVInz7ThMwqvOXq8Zmo&qs=13&rc=amYzdWo5cm9ydjUzNzhoM0BpamYzdWo5cm9ydjUzNzhoM0BoYjNuMmRzc2pgLS1kLjZzYSNoYjNuMmRzc2pgLS1kLjZzcw%3D%3D&vvpl=1&l=02173103917641900000000000000000000ffff0a0088d433601a&btag=e00070000&format=mp3&mime_type=audio_mpeg",
        "source_timerange": {
            "start_offset": 1.5300000000000011,
            "end_offset": 3.059999999999998
        },
        "target_timerange": {
            "start_offset": 221.63400000000001,
            "end_offset": 223.16400000000002
        },
        "ignore_audio": true,
        "audio_path": null
    },
    {
        "segment_id": "c84311689d8711ef833bb8cef692109a",
        "text": "men of any consideration in the",
        "audio_url": "https://v16m-default.akamaized.net/b45b93e88e24b962740f24ca175aa183/672de43e/video/tos/maliva/tos-maliva-v-f15faa-us/owif9ArnLL7HBMrAiwsYAVjBJdtfEbwAh1pQEB/?a=7073&bti=OTU0QDItLmA%3D&ch=0&cr=0&dr=4&er=0&lr=unwatermarked&cd=0%7C0%7C0%7C0&br=312&bt=156&ds=5&ft=.cwOVInz7ThMwqvOXq8Zmo&qs=13&rc=amYzdWo5cm9ydjUzNzhoM0BpamYzdWo5cm9ydjUzNzhoM0BoYjNuMmRzc2pgLS1kLjZzYSNoYjNuMmRzc2pgLS1kLjZzcw%3D%3D&vvpl=1&l=02173103917641900000000000000000000ffff0a0088d433601a&btag=e00070000&format=mp3&mime_type=audio_mpeg",
        "source_timerange": {
            "start_offset": 3.0600000000000023,
            "end_offset": 4.589999999999999
        },
        "target_timerange": {
            "start_offset": 223.16400000000002,
            "end_offset": 224.69400000000002
        },
        "ignore_audio": true,
        "audio_path": null
    },
    {
        "segment_id": "c84312ee9d8711ef833bb8cef692109a",
        "text": "world,” replied Darcy.",
        "audio_url": "https://v16m-default.akamaized.net/b45b93e88e24b962740f24ca175aa183/672de43e/video/tos/maliva/tos-maliva-v-f15faa-us/owif9ArnLL7HBMrAiwsYAVjBJdtfEbwAh1pQEB/?a=7073&bti=OTU0QDItLmA%3D&ch=0&cr=0&dr=4&er=0&lr=unwatermarked&cd=0%7C0%7C0%7C0&br=312&bt=156&ds=5&ft=.cwOVInz7ThMwqvOXq8Zmo&qs=13&rc=amYzdWo5cm9ydjUzNzhoM0BpamYzdWo5cm9ydjUzNzhoM0BoYjNuMmRzc2pgLS1kLjZzYSNoYjNuMmRzc2pgLS1kLjZzcw%3D%3D&vvpl=1&l=02173103917641900000000000000000000ffff0a0088d433601a&btag=e00070000&format=mp3&mime_type=audio_mpeg",
        "source_timerange": {
            "start_offset": 4.590000000000003,
            "end_offset": 6.12
        },
        "target_timerange": {
            "start_offset": 224.69400000000002,
            "end_offset": 226.22400000000002
        },
        "ignore_audio": true,
        "audio_path": null
    },
    {
        "segment_id": "c84342329d8711ef833bb8cef692109a",
        "text": "To this speech Bingley made",
        "audio_url": "https://v16m-default.akamaized.net/3566178c89bdc8548479f52251be9915/672de441/video/tos/maliva/tos-maliva-v-f15faa-us/og7eF5eGkIWEWEcFDHfsBtXjbE6uGIeALAAvIA/?a=7073&bti=OTU0QDItLmA%3D&ch=0&cr=0&dr=4&er=0&lr=unwatermarked&cd=0%7C0%7C0%7C0&br=312&bt=156&ds=5&ft=.cwOVInz7ThMwqvOXq8Zmo&qs=13&rc=M2VsaW85cm9ydjUzNzhoM0BpM2VsaW85cm9ydjUzNzhoM0BvMW9kMmRzc2pgLS1kLjZzYSNvMW9kMmRzc2pgLS1kLjZzcw%3D%3D&vvpl=1&l=02173103917641900000000000000000000ffff0a0088d433601a&btag=e00070000&format=mp3&mime_type=audio_mpeg",
        "source_timerange": {
            "start_offset": 0,
            "end_offset": 1.405714285714307
        },
        "target_timerange": {
            "start_offset": 226.22400000000002,
            "end_offset": 227.6297142857143
        },
        "ignore_audio": false,
        "audio_path": null
    },
    {
        "segment_id": "c84344269d8711ef833bb8cef692109a",
        "text": "no answer; but his sisters",
        "audio_url": "https://v16m-default.akamaized.net/3566178c89bdc8548479f52251be9915/672de441/video/tos/maliva/tos-maliva-v-f15faa-us/og7eF5eGkIWEWEcFDHfsBtXjbE6uGIeALAAvIA/?a=7073&bti=OTU0QDItLmA%3D&ch=0&cr=0&dr=4&er=0&lr=unwatermarked&cd=0%7C0%7C0%7C0&br=312&bt=156&ds=5&ft=.cwOVInz7ThMwqvOXq8Zmo&qs=13&rc=M2VsaW85cm9ydjUzNzhoM0BpM2VsaW85cm9ydjUzNzhoM0BvMW9kMmRzc2pgLS1kLjZzYSNvMW9kMmRzc2pgLS1kLjZzcw%3D%3D&vvpl=1&l=02173103917641900000000000000000000ffff0a0088d433601a&btag=e00070000&format=mp3&mime_type=audio_mpeg",
        "source_timerange": {
            "start_offset": 1.4057142857142821,
            "end_offset": 2.811428571428589
        },
        "target_timerange": {
            "start_offset": 227.6297142857143,
            "end_offset": 229.03542857142858
        },
        "ignore_audio": true,
        "audio_path": null
    },
    {
        "segment_id": "c84345c09d8711ef833bb8cef692109a",
        "text": "gave it their hearty assent,",
        "audio_url": "https://v16m-default.akamaized.net/3566178c89bdc8548479f52251be9915/672de441/video/tos/maliva/tos-maliva-v-f15faa-us/og7eF5eGkIWEWEcFDHfsBtXjbE6uGIeALAAvIA/?a=7073&bti=OTU0QDItLmA%3D&ch=0&cr=0&dr=4&er=0&lr=unwatermarked&cd=0%7C0%7C0%7C0&br=312&bt=156&ds=5&ft=.cwOVInz7ThMwqvOXq8Zmo&qs=13&rc=M2VsaW85cm9ydjUzNzhoM0BpM2VsaW85cm9ydjUzNzhoM0BvMW9kMmRzc2pgLS1kLjZzYSNvMW9kMmRzc2pgLS1kLjZzcw%3D%3D&vvpl=1&l=02173103917641900000000000000000000ffff0a0088d433601a&btag=e00070000&format=mp3&mime_type=audio_mpeg",
        "source_timerange": {
            "start_offset": 2.8114285714285643,
            "end_offset": 4.217142857142871
        },
        "target_timerange": {
            "start_offset": 229.03542857142858,
            "end_offset": 230.44114285714286
        },
        "ignore_audio": true,
        "audio_path": null
    },
    {
        "segment_id": "c84347289d8711ef833bb8cef692109a",
        "text": "and indulged their mirth for",
        "audio_url": "https://v16m-default.akamaized.net/3566178c89bdc8548479f52251be9915/672de441/video/tos/maliva/tos-maliva-v-f15faa-us/og7eF5eGkIWEWEcFDHfsBtXjbE6uGIeALAAvIA/?a=7073&bti=OTU0QDItLmA%3D&ch=0&cr=0&dr=4&er=0&lr=unwatermarked&cd=0%7C0%7C0%7C0&br=312&bt=156&ds=5&ft=.cwOVInz7ThMwqvOXq8Zmo&qs=13&rc=M2VsaW85cm9ydjUzNzhoM0BpM2VsaW85cm9ydjUzNzhoM0BvMW9kMmRzc2pgLS1kLjZzYSNvMW9kMmRzc2pgLS1kLjZzcw%3D%3D&vvpl=1&l=02173103917641900000000000000000000ffff0a0088d433601a&btag=e00070000&format=mp3&mime_type=audio_mpeg",
        "source_timerange": {
            "start_offset": 4.217142857142846,
            "end_offset": 5.622857142857153
        },
        "target_timerange": {
            "start_offset": 230.44114285714286,
            "end_offset": 231.84685714285715
        },
        "ignore_audio": true,
        "audio_path": null
    },
    {
        "segment_id": "c84348909d8711ef833bb8cef692109a",
        "text": "some time at the expense of",
        "audio_url": "https://v16m-default.akamaized.net/3566178c89bdc8548479f52251be9915/672de441/video/tos/maliva/tos-maliva-v-f15faa-us/og7eF5eGkIWEWEcFDHfsBtXjbE6uGIeALAAvIA/?a=7073&bti=OTU0QDItLmA%3D&ch=0&cr=0&dr=4&er=0&lr=unwatermarked&cd=0%7C0%7C0%7C0&br=312&bt=156&ds=5&ft=.cwOVInz7ThMwqvOXq8Zmo&qs=13&rc=M2VsaW85cm9ydjUzNzhoM0BpM2VsaW85cm9ydjUzNzhoM0BvMW9kMmRzc2pgLS1kLjZzYSNvMW9kMmRzc2pgLS1kLjZzcw%3D%3D&vvpl=1&l=02173103917641900000000000000000000ffff0a0088d433601a&btag=e00070000&format=mp3&mime_type=audio_mpeg",
        "source_timerange": {
            "start_offset": 5.622857142857129,
            "end_offset": 7.028571428571436
        },
        "target_timerange": {
            "start_offset": 231.84685714285715,
            "end_offset": 233.25257142857143
        },
        "ignore_audio": true,
        "audio_path": null
    },
    {
        "segment_id": "c8434a0c9d8711ef833bb8cef692109a",
        "text": "their dear friend’s vulgar",
        "audio_url": "https://v16m-default.akamaized.net/3566178c89bdc8548479f52251be9915/672de441/video/tos/maliva/tos-maliva-v-f15faa-us/og7eF5eGkIWEWEcFDHfsBtXjbE6uGIeALAAvIA/?a=7073&bti=OTU0QDItLmA%3D&ch=0&cr=0&dr=4&er=0&lr=unwatermarked&cd=0%7C0%7C0%7C0&br=312&bt=156&ds=5&ft=.cwOVInz7ThMwqvOXq8Zmo&qs=13&rc=M2VsaW85cm9ydjUzNzhoM0BpM2VsaW85cm9ydjUzNzhoM0BvMW9kMmRzc2pgLS1kLjZzYSNvMW9kMmRzc2pgLS1kLjZzcw%3D%3D&vvpl=1&l=02173103917641900000000000000000000ffff0a0088d433601a&btag=e00070000&format=mp3&mime_type=audio_mpeg",
        "source_timerange": {
            "start_offset": 7.028571428571411,
            "end_offset": 8.434285714285718
        },
        "target_timerange": {
            "start_offset": 233.25257142857143,
            "end_offset": 234.6582857142857
        },
        "ignore_audio": true,
        "audio_path": null
    },
    {
        "segment_id": "c8434ca09d8711ef833bb8cef692109a",
        "text": "relations.",
        "audio_url": "https://v16m-default.akamaized.net/3566178c89bdc8548479f52251be9915/672de441/video/tos/maliva/tos-maliva-v-f15faa-us/og7eF5eGkIWEWEcFDHfsBtXjbE6uGIeALAAvIA/?a=7073&bti=OTU0QDItLmA%3D&ch=0&cr=0&dr=4&er=0&lr=unwatermarked&cd=0%7C0%7C0%7C0&br=312&bt=156&ds=5&ft=.cwOVInz7ThMwqvOXq8Zmo&qs=13&rc=M2VsaW85cm9ydjUzNzhoM0BpM2VsaW85cm9ydjUzNzhoM0BvMW9kMmRzc2pgLS1kLjZzYSNvMW9kMmRzc2pgLS1kLjZzcw%3D%3D&vvpl=1&l=02173103917641900000000000000000000ffff0a0088d433601a&btag=e00070000&format=mp3&mime_type=audio_mpeg",
        "source_timerange": {
            "start_offset": 8.434285714285693,
            "end_offset": 9.84
        },
        "target_timerange": {
            "start_offset": 234.6582857142857,
            "end_offset": 236.064
        },
        "ignore_audio": true,
        "audio_path": null
    },
    {
        "segment_id": "c8436e109d8711ef833bb8cef692109a",
        "text": "With a renewal of tenderness,",
        "audio_url": "https://v16m-default.akamaized.net/6a8eb0684ba1a93ab728e168e265863c/672de43f/video/tos/maliva/tos-maliva-v-f15faa-us/oYBfISEDAFfCzyeAHOxbCuaI6AFXXrXW9XCu1g/?a=7073&bti=OTU0QDItLmA%3D&ch=0&cr=0&dr=4&er=0&lr=unwatermarked&cd=0%7C0%7C0%7C0&br=312&bt=156&ds=5&ft=.cwOVInz7ThMwqvOXq8Zmo&qs=13&rc=anF1ZHM5cm9ydjUzNzhoM0BpanF1ZHM5cm9ydjUzNzhoM0AzZ3MuMmRzc2pgLS1kLjZzYSMzZ3MuMmRzc2pgLS1kLjZzcw%3D%3D&vvpl=1&l=02173103917641900000000000000000000ffff0a0088d433601a&btag=e00070000&format=mp3&mime_type=audio_mpeg",
        "source_timerange": {
            "start_offset": 0,
            "end_offset": 1.5263999999999909
        },
        "target_timerange": {
            "start_offset": 236.064,
            "end_offset": 237.5904
        },
        "ignore_audio": false,
        "audio_path": null
    },
    {
        "segment_id": "c84370049d8711ef833bb8cef692109a",
        "text": "however, they repaired to her",
        "audio_url": "https://v16m-default.akamaized.net/6a8eb0684ba1a93ab728e168e265863c/672de43f/video/tos/maliva/tos-maliva-v-f15faa-us/oYBfISEDAFfCzyeAHOxbCuaI6AFXXrXW9XCu1g/?a=7073&bti=OTU0QDItLmA%3D&ch=0&cr=0&dr=4&er=0&lr=unwatermarked&cd=0%7C0%7C0%7C0&br=312&bt=156&ds=5&ft=.cwOVInz7ThMwqvOXq8Zmo&qs=13&rc=anF1ZHM5cm9ydjUzNzhoM0BpanF1ZHM5cm9ydjUzNzhoM0AzZ3MuMmRzc2pgLS1kLjZzYSMzZ3MuMmRzc2pgLS1kLjZzcw%3D%3D&vvpl=1&l=02173103917641900000000000000000000ffff0a0088d433601a&btag=e00070000&format=mp3&mime_type=audio_mpeg",
        "source_timerange": {
            "start_offset": 1.5263999999999953,
            "end_offset": 3.052799999999986
        },
        "target_timerange": {
            "start_offset": 237.5904,
            "end_offset": 239.11679999999998
        },
        "ignore_audio": true,
        "audio_path": null
    },
    {
        "segment_id": "c843719e9d8711ef833bb8cef692109a",
        "text": "room on leaving the dining-",
        "audio_url": "https://v16m-default.akamaized.net/6a8eb0684ba1a93ab728e168e265863c/672de43f/video/tos/maliva/tos-maliva-v-f15faa-us/oYBfISEDAFfCzyeAHOxbCuaI6AFXXrXW9XCu1g/?a=7073&bti=OTU0QDItLmA%3D&ch=0&cr=0&dr=4&er=0&lr=unwatermarked&cd=0%7C0%7C0%7C0&br=312&bt=156&ds=5&ft=.cwOVInz7ThMwqvOXq8Zmo&qs=13&rc=anF1ZHM5cm9ydjUzNzhoM0BpanF1ZHM5cm9ydjUzNzhoM0AzZ3MuMmRzc2pgLS1kLjZzYSMzZ3MuMmRzc2pgLS1kLjZzcw%3D%3D&vvpl=1&l=02173103917641900000000000000000000ffff0a0088d433601a&btag=e00070000&format=mp3&mime_type=audio_mpeg",
        "source_timerange": {
            "start_offset": 3.0527999999999906,
            "end_offset": 4.57920000000001
        },
        "target_timerange": {
            "start_offset": 239.11679999999998,
            "end_offset": 240.6432
        },
        "ignore_audio": true,
        "audio_path": null
    },
    {
        "segment_id": "c84374289d8711ef833bb8cef692109a",
        "text": "parlour, and sat with her till",
        "audio_url": "https://v16m-default.akamaized.net/6a8eb0684ba1a93ab728e168e265863c/672de43f/video/tos/maliva/tos-maliva-v-f15faa-us/oYBfISEDAFfCzyeAHOxbCuaI6AFXXrXW9XCu1g/?a=7073&bti=OTU0QDItLmA%3D&ch=0&cr=0&dr=4&er=0&lr=unwatermarked&cd=0%7C0%7C0%7C0&br=312&bt=156&ds=5&ft=.cwOVInz7ThMwqvOXq8Zmo&qs=13&rc=anF1ZHM5cm9ydjUzNzhoM0BpanF1ZHM5cm9ydjUzNzhoM0AzZ3MuMmRzc2pgLS1kLjZzYSMzZ3MuMmRzc2pgLS1kLjZzcw%3D%3D&vvpl=1&l=02173103917641900000000000000000000ffff0a0088d433601a&btag=e00070000&format=mp3&mime_type=audio_mpeg",
        "source_timerange": {
            "start_offset": 4.579200000000014,
            "end_offset": 6.105600000000005
        },
        "target_timerange": {
            "start_offset": 240.6432,
            "end_offset": 242.1696
        },
        "ignore_audio": true,
        "audio_path": null
    },
    {
        "segment_id": "c84375ae9d8711ef833bb8cef692109a",
        "text": "summoned to coffee.",
        "audio_url": "https://v16m-default.akamaized.net/6a8eb0684ba1a93ab728e168e265863c/672de43f/video/tos/maliva/tos-maliva-v-f15faa-us/oYBfISEDAFfCzyeAHOxbCuaI6AFXXrXW9XCu1g/?a=7073&bti=OTU0QDItLmA%3D&ch=0&cr=0&dr=4&er=0&lr=unwatermarked&cd=0%7C0%7C0%7C0&br=312&bt=156&ds=5&ft=.cwOVInz7ThMwqvOXq8Zmo&qs=13&rc=anF1ZHM5cm9ydjUzNzhoM0BpanF1ZHM5cm9ydjUzNzhoM0AzZ3MuMmRzc2pgLS1kLjZzYSMzZ3MuMmRzc2pgLS1kLjZzcw%3D%3D&vvpl=1&l=02173103917641900000000000000000000ffff0a0088d433601a&btag=e00070000&format=mp3&mime_type=audio_mpeg",
        "source_timerange": {
            "start_offset": 6.10560000000001,
            "end_offset": 7.632000000000001
        },
        "target_timerange": {
            "start_offset": 242.1696,
            "end_offset": 243.696
        },
        "ignore_audio": true,
        "audio_path": null
    },
    {
        "segment_id": "c843ab789d8711ef833bb8cef692109a",
        "text": "She was still very poorly, and",
        "audio_url": "https://v16m-default.akamaized.net/3afa95a47db3b63757b92514ef8d0033/672de444/video/tos/maliva/tos-maliva-v-f15faa-us/oMfWDfxXCE7SE9jqNAOgFChtEKrxXAXfACcAsL/?a=7073&bti=OTU0QDItLmA%3D&ch=0&cr=0&dr=4&er=0&lr=unwatermarked&cd=0%7C0%7C0%7C0&br=312&bt=156&ds=5&ft=.cwOVInz7ThMwqvOXq8Zmo&qs=13&rc=am9yZnI5cm9ydjUzNzhoM0Bpam9yZnI5cm9ydjUzNzhoM0BjazNnMmRzc2pgLS1kLjZzYSNjazNnMmRzc2pgLS1kLjZzcw%3D%3D&vvpl=1&l=02173103917641900000000000000000000ffff0a0088d433601a&btag=e00070000&format=mp3&mime_type=audio_mpeg",
        "source_timerange": {
            "start_offset": 0,
            "end_offset": 1.5359999999999907
        },
        "target_timerange": {
            "start_offset": 243.696,
            "end_offset": 245.232
        },
        "ignore_audio": false,
        "audio_path": null
    },
    {
        "segment_id": "c843ad769d8711ef833bb8cef692109a",
        "text": "Elizabeth would not quit her at",
        "audio_url": "https://v16m-default.akamaized.net/3afa95a47db3b63757b92514ef8d0033/672de444/video/tos/maliva/tos-maliva-v-f15faa-us/oMfWDfxXCE7SE9jqNAOgFChtEKrxXAXfACcAsL/?a=7073&bti=OTU0QDItLmA%3D&ch=0&cr=0&dr=4&er=0&lr=unwatermarked&cd=0%7C0%7C0%7C0&br=312&bt=156&ds=5&ft=.cwOVInz7ThMwqvOXq8Zmo&qs=13&rc=am9yZnI5cm9ydjUzNzhoM0Bpam9yZnI5cm9ydjUzNzhoM0BjazNnMmRzc2pgLS1kLjZzYSNjazNnMmRzc2pgLS1kLjZzcw%3D%3D&vvpl=1&l=02173103917641900000000000000000000ffff0a0088d433601a&btag=e00070000&format=mp3&mime_type=audio_mpeg",
        "source_timerange": {
            "start_offset": 1.5360000000000014,
            "end_offset": 3.071999999999992
        },
        "target_timerange": {
            "start_offset": 245.232,
            "end_offset": 246.768
        },
        "ignore_audio": true,
        "audio_path": null
    },
    {
        "segment_id": "c843af069d8711ef833bb8cef692109a",
        "text": "all, till late in the evening,",
        "audio_url": "https://v16m-default.akamaized.net/3afa95a47db3b63757b92514ef8d0033/672de444/video/tos/maliva/tos-maliva-v-f15faa-us/oMfWDfxXCE7SE9jqNAOgFChtEKrxXAXfACcAsL/?a=7073&bti=OTU0QDItLmA%3D&ch=0&cr=0&dr=4&er=0&lr=unwatermarked&cd=0%7C0%7C0%7C0&br=312&bt=156&ds=5&ft=.cwOVInz7ThMwqvOXq8Zmo&qs=13&rc=am9yZnI5cm9ydjUzNzhoM0Bpam9yZnI5cm9ydjUzNzhoM0BjazNnMmRzc2pgLS1kLjZzYSNjazNnMmRzc2pgLS1kLjZzcw%3D%3D&vvpl=1&l=02173103917641900000000000000000000ffff0a0088d433601a&btag=e00070000&format=mp3&mime_type=audio_mpeg",
        "source_timerange": {
            "start_offset": 3.0720000000000027,
            "end_offset": 4.607999999999993
        },
        "target_timerange": {
            "start_offset": 246.768,
            "end_offset": 248.304
        },
        "ignore_audio": true,
        "audio_path": null
    },
    {
        "segment_id": "c843b0aa9d8711ef833bb8cef692109a",
        "text": "when she had the comfort of",
        "audio_url": "https://v16m-default.akamaized.net/3afa95a47db3b63757b92514ef8d0033/672de444/video/tos/maliva/tos-maliva-v-f15faa-us/oMfWDfxXCE7SE9jqNAOgFChtEKrxXAXfACcAsL/?a=7073&bti=OTU0QDItLmA%3D&ch=0&cr=0&dr=4&er=0&lr=unwatermarked&cd=0%7C0%7C0%7C0&br=312&bt=156&ds=5&ft=.cwOVInz7ThMwqvOXq8Zmo&qs=13&rc=am9yZnI5cm9ydjUzNzhoM0Bpam9yZnI5cm9ydjUzNzhoM0BjazNnMmRzc2pgLS1kLjZzYSNjazNnMmRzc2pgLS1kLjZzcw%3D%3D&vvpl=1&l=02173103917641900000000000000000000ffff0a0088d433601a&btag=e00070000&format=mp3&mime_type=audio_mpeg",
        "source_timerange": {
            "start_offset": 4.608000000000004,
            "end_offset": 6.143999999999995
        },
        "target_timerange": {
            "start_offset": 248.304,
            "end_offset": 249.84
        },
        "ignore_audio": true,
        "audio_path": null
    },
    {
        "segment_id": "c843b23a9d8711ef833bb8cef692109a",
        "text": "seeing her asleep, and when it",
        "audio_url": "https://v16m-default.akamaized.net/3afa95a47db3b63757b92514ef8d0033/672de444/video/tos/maliva/tos-maliva-v-f15faa-us/oMfWDfxXCE7SE9jqNAOgFChtEKrxXAXfACcAsL/?a=7073&bti=OTU0QDItLmA%3D&ch=0&cr=0&dr=4&er=0&lr=unwatermarked&cd=0%7C0%7C0%7C0&br=312&bt=156&ds=5&ft=.cwOVInz7ThMwqvOXq8Zmo&qs=13&rc=am9yZnI5cm9ydjUzNzhoM0Bpam9yZnI5cm9ydjUzNzhoM0BjazNnMmRzc2pgLS1kLjZzYSNjazNnMmRzc2pgLS1kLjZzcw%3D%3D&vvpl=1&l=02173103917641900000000000000000000ffff0a0088d433601a&btag=e00070000&format=mp3&mime_type=audio_mpeg",
        "source_timerange": {
            "start_offset": 6.1440000000000055,
            "end_offset": 7.679999999999996
        },
        "target_timerange": {
            "start_offset": 249.84,
            "end_offset": 251.376
        },
        "ignore_audio": true,
        "audio_path": null
    },
    {
        "segment_id": "c843b3b69d8711ef833bb8cef692109a",
        "text": "appeared to her rather right",
        "audio_url": "https://v16m-default.akamaized.net/3afa95a47db3b63757b92514ef8d0033/672de444/video/tos/maliva/tos-maliva-v-f15faa-us/oMfWDfxXCE7SE9jqNAOgFChtEKrxXAXfACcAsL/?a=7073&bti=OTU0QDItLmA%3D&ch=0&cr=0&dr=4&er=0&lr=unwatermarked&cd=0%7C0%7C0%7C0&br=312&bt=156&ds=5&ft=.cwOVInz7ThMwqvOXq8Zmo&qs=13&rc=am9yZnI5cm9ydjUzNzhoM0Bpam9yZnI5cm9ydjUzNzhoM0BjazNnMmRzc2pgLS1kLjZzYSNjazNnMmRzc2pgLS1kLjZzcw%3D%3D&vvpl=1&l=02173103917641900000000000000000000ffff0a0088d433601a&btag=e00070000&format=mp3&mime_type=audio_mpeg",
        "source_timerange": {
            "start_offset": 7.680000000000007,
            "end_offset": 9.215999999999998
        },
        "target_timerange": {
            "start_offset": 251.376,
            "end_offset": 252.912
        },
        "ignore_audio": true,
        "audio_path": null
    },
    {
        "segment_id": "c843b53c9d8711ef833bb8cef692109a",
        "text": "than pleasant that she should go",
        "audio_url": "https://v16m-default.akamaized.net/3afa95a47db3b63757b92514ef8d0033/672de444/video/tos/maliva/tos-maliva-v-f15faa-us/oMfWDfxXCE7SE9jqNAOgFChtEKrxXAXfACcAsL/?a=7073&bti=OTU0QDItLmA%3D&ch=0&cr=0&dr=4&er=0&lr=unwatermarked&cd=0%7C0%7C0%7C0&br=312&bt=156&ds=5&ft=.cwOVInz7ThMwqvOXq8Zmo&qs=13&rc=am9yZnI5cm9ydjUzNzhoM0Bpam9yZnI5cm9ydjUzNzhoM0BjazNnMmRzc2pgLS1kLjZzYSNjazNnMmRzc2pgLS1kLjZzcw%3D%3D&vvpl=1&l=02173103917641900000000000000000000ffff0a0088d433601a&btag=e00070000&format=mp3&mime_type=audio_mpeg",
        "source_timerange": {
            "start_offset": 9.216000000000008,
            "end_offset": 10.751999999999999
        },
        "target_timerange": {
            "start_offset": 252.912,
            "end_offset": 254.448
        },
        "ignore_audio": true,
        "audio_path": null
    },
    {
        "segment_id": "c843b6c29d8711ef833bb8cef692109a",
        "text": "down stairs herself.",
        "audio_url": "https://v16m-default.akamaized.net/3afa95a47db3b63757b92514ef8d0033/672de444/video/tos/maliva/tos-maliva-v-f15faa-us/oMfWDfxXCE7SE9jqNAOgFChtEKrxXAXfACcAsL/?a=7073&bti=OTU0QDItLmA%3D&ch=0&cr=0&dr=4&er=0&lr=unwatermarked&cd=0%7C0%7C0%7C0&br=312&bt=156&ds=5&ft=.cwOVInz7ThMwqvOXq8Zmo&qs=13&rc=am9yZnI5cm9ydjUzNzhoM0Bpam9yZnI5cm9ydjUzNzhoM0BjazNnMmRzc2pgLS1kLjZzYSNjazNnMmRzc2pgLS1kLjZzcw%3D%3D&vvpl=1&l=02173103917641900000000000000000000ffff0a0088d433601a&btag=e00070000&format=mp3&mime_type=audio_mpeg",
        "source_timerange": {
            "start_offset": 10.75200000000001,
            "end_offset": 12.288
        },
        "target_timerange": {
            "start_offset": 254.448,
            "end_offset": 255.984
        },
        "ignore_audio": true,
        "audio_path": null
    },
    {
        "segment_id": "c844037a9d8711ef833bb8cef692109a",
        "text": "On entering the drawing-",
        "audio_url": "https://v16m-default.akamaized.net/91ba4dad24ee0b1927a2a4f072f3fb5c/672de448/video/tos/maliva/tos-maliva-v-f15faa-us/oQCIsPz1QdQFkrtE72fGeFEWevuLAAjAAepcQ0/?a=7073&bti=OTU0QDItLmA%3D&ch=0&cr=0&dr=4&er=0&lr=unwatermarked&cd=0%7C0%7C0%7C0&br=312&bt=156&ds=5&ft=.cwOVInz7ThMwqvOXq8Zmo&qs=13&rc=anhmcW45cm9ydjUzNzhoM0BpanhmcW45cm9ydjUzNzhoM0BsbTYwMmRzc2pgLS1kLjZzYSNsbTYwMmRzc2pgLS1kLjZzcw%3D%3D&vvpl=1&l=02173103917641900000000000000000000ffff0a0088d433601a&btag=e00078000&format=mp3&mime_type=audio_mpeg",
        "source_timerange": {
            "start_offset": 0,
            "end_offset": 1.4727272727272513
        },
        "target_timerange": {
            "start_offset": 255.984,
            "end_offset": 257.4567272727273
        },
        "ignore_audio": false,
        "audio_path": null
    },
    {
        "segment_id": "c844058c9d8711ef833bb8cef692109a",
        "text": "room, she found the whole",
        "audio_url": "https://v16m-default.akamaized.net/91ba4dad24ee0b1927a2a4f072f3fb5c/672de448/video/tos/maliva/tos-maliva-v-f15faa-us/oQCIsPz1QdQFkrtE72fGeFEWevuLAAjAAepcQ0/?a=7073&bti=OTU0QDItLmA%3D&ch=0&cr=0&dr=4&er=0&lr=unwatermarked&cd=0%7C0%7C0%7C0&br=312&bt=156&ds=5&ft=.cwOVInz7ThMwqvOXq8Zmo&qs=13&rc=anhmcW45cm9ydjUzNzhoM0BpanhmcW45cm9ydjUzNzhoM0BsbTYwMmRzc2pgLS1kLjZzYSNsbTYwMmRzc2pgLS1kLjZzcw%3D%3D&vvpl=1&l=02173103917641900000000000000000000ffff0a0088d433601a&btag=e00078000&format=mp3&mime_type=audio_mpeg",
        "source_timerange": {
            "start_offset": 1.472727272727269,
            "end_offset": 2.945454545454549
        },
        "target_timerange": {
            "start_offset": 257.4567272727273,
            "end_offset": 258.9294545454546
        },
        "ignore_audio": true,
        "audio_path": null
    },
    {
        "segment_id": "c84407769d8711ef833bb8cef692109a",
        "text": "party at loo, and was",
        "audio_url": "https://v16m-default.akamaized.net/91ba4dad24ee0b1927a2a4f072f3fb5c/672de448/video/tos/maliva/tos-maliva-v-f15faa-us/oQCIsPz1QdQFkrtE72fGeFEWevuLAAjAAepcQ0/?a=7073&bti=OTU0QDItLmA%3D&ch=0&cr=0&dr=4&er=0&lr=unwatermarked&cd=0%7C0%7C0%7C0&br=312&bt=156&ds=5&ft=.cwOVInz7ThMwqvOXq8Zmo&qs=13&rc=anhmcW45cm9ydjUzNzhoM0BpanhmcW45cm9ydjUzNzhoM0BsbTYwMmRzc2pgLS1kLjZzYSNsbTYwMmRzc2pgLS1kLjZzcw%3D%3D&vvpl=1&l=02173103917641900000000000000000000ffff0a0088d433601a&btag=e00078000&format=mp3&mime_type=audio_mpeg",
        "source_timerange": {
            "start_offset": 2.9454545454545666,
            "end_offset": 4.41818181818179
        },
        "target_timerange": {
            "start_offset": 258.9294545454546,
            "end_offset": 260.4021818181818
        },
        "ignore_audio": true,
        "audio_path": null
    },
    {
        "segment_id": "c844091a9d8711ef833bb8cef692109a",
        "text": "immediately invited to join",
        "audio_url": "https://v16m-default.akamaized.net/91ba4dad24ee0b1927a2a4f072f3fb5c/672de448/video/tos/maliva/tos-maliva-v-f15faa-us/oQCIsPz1QdQFkrtE72fGeFEWevuLAAjAAepcQ0/?a=7073&bti=OTU0QDItLmA%3D&ch=0&cr=0&dr=4&er=0&lr=unwatermarked&cd=0%7C0%7C0%7C0&br=312&bt=156&ds=5&ft=.cwOVInz7ThMwqvOXq8Zmo&qs=13&rc=anhmcW45cm9ydjUzNzhoM0BpanhmcW45cm9ydjUzNzhoM0BsbTYwMmRzc2pgLS1kLjZzYSNsbTYwMmRzc2pgLS1kLjZzcw%3D%3D&vvpl=1&l=02173103917641900000000000000000000ffff0a0088d433601a&btag=e00078000&format=mp3&mime_type=audio_mpeg",
        "source_timerange": {
            "start_offset": 4.418181818181807,
            "end_offset": 5.890909090909087
        },
        "target_timerange": {
            "start_offset": 260.4021818181818,
            "end_offset": 261.8749090909091
        },
        "ignore_audio": true,
        "audio_path": null
    },
    {
        "segment_id": "c8440ab49d8711ef833bb8cef692109a",
        "text": "them; but suspecting them to",
        "audio_url": "https://v16m-default.akamaized.net/91ba4dad24ee0b1927a2a4f072f3fb5c/672de448/video/tos/maliva/tos-maliva-v-f15faa-us/oQCIsPz1QdQFkrtE72fGeFEWevuLAAjAAepcQ0/?a=7073&bti=OTU0QDItLmA%3D&ch=0&cr=0&dr=4&er=0&lr=unwatermarked&cd=0%7C0%7C0%7C0&br=312&bt=156&ds=5&ft=.cwOVInz7ThMwqvOXq8Zmo&qs=13&rc=anhmcW45cm9ydjUzNzhoM0BpanhmcW45cm9ydjUzNzhoM0BsbTYwMmRzc2pgLS1kLjZzYSNsbTYwMmRzc2pgLS1kLjZzcw%3D%3D&vvpl=1&l=02173103917641900000000000000000000ffff0a0088d433601a&btag=e00078000&format=mp3&mime_type=audio_mpeg",
        "source_timerange": {
            "start_offset": 5.890909090909105,
            "end_offset": 7.363636363636328
        },
        "target_timerange": {
            "start_offset": 261.8749090909091,
            "end_offset": 263.34763636363635
        },
        "ignore_audio": true,
        "audio_path": null
    },
    {
        "segment_id": "c8440c449d8711ef833bb8cef692109a",
        "text": "be playing high, she",
        "audio_url": "https://v16m-default.akamaized.net/91ba4dad24ee0b1927a2a4f072f3fb5c/672de448/video/tos/maliva/tos-maliva-v-f15faa-us/oQCIsPz1QdQFkrtE72fGeFEWevuLAAjAAepcQ0/?a=7073&bti=OTU0QDItLmA%3D&ch=0&cr=0&dr=4&er=0&lr=unwatermarked&cd=0%7C0%7C0%7C0&br=312&bt=156&ds=5&ft=.cwOVInz7ThMwqvOXq8Zmo&qs=13&rc=anhmcW45cm9ydjUzNzhoM0BpanhmcW45cm9ydjUzNzhoM0BsbTYwMmRzc2pgLS1kLjZzYSNsbTYwMmRzc2pgLS1kLjZzcw%3D%3D&vvpl=1&l=02173103917641900000000000000000000ffff0a0088d433601a&btag=e00078000&format=mp3&mime_type=audio_mpeg",
        "source_timerange": {
            "start_offset": 7.3636363636363455,
            "end_offset": 8.836363636363625
        },
        "target_timerange": {
            "start_offset": 263.34763636363635,
            "end_offset": 264.82036363636365
        },
        "ignore_audio": true,
        "audio_path": null
    },
    {
        "segment_id": "c8440dca9d8711ef833bb8cef692109a",
        "text": "declined it, and making her",
        "audio_url": "https://v16m-default.akamaized.net/91ba4dad24ee0b1927a2a4f072f3fb5c/672de448/video/tos/maliva/tos-maliva-v-f15faa-us/oQCIsPz1QdQFkrtE72fGeFEWevuLAAjAAepcQ0/?a=7073&bti=OTU0QDItLmA%3D&ch=0&cr=0&dr=4&er=0&lr=unwatermarked&cd=0%7C0%7C0%7C0&br=312&bt=156&ds=5&ft=.cwOVInz7ThMwqvOXq8Zmo&qs=13&rc=anhmcW45cm9ydjUzNzhoM0BpanhmcW45cm9ydjUzNzhoM0BsbTYwMmRzc2pgLS1kLjZzYSNsbTYwMmRzc2pgLS1kLjZzcw%3D%3D&vvpl=1&l=02173103917641900000000000000000000ffff0a0088d433601a&btag=e00078000&format=mp3&mime_type=audio_mpeg",
        "source_timerange": {
            "start_offset": 8.836363636363643,
            "end_offset": 10.309090909090923
        },
        "target_timerange": {
            "start_offset": 264.82036363636365,
            "end_offset": 266.29309090909095
        },
        "ignore_audio": true,
        "audio_path": null
    },
    {
        "segment_id": "c84410409d8711ef833bb8cef692109a",
        "text": "sister the excuse, said she",
        "audio_url": "https://v16m-default.akamaized.net/91ba4dad24ee0b1927a2a4f072f3fb5c/672de448/video/tos/maliva/tos-maliva-v-f15faa-us/oQCIsPz1QdQFkrtE72fGeFEWevuLAAjAAepcQ0/?a=7073&bti=OTU0QDItLmA%3D&ch=0&cr=0&dr=4&er=0&lr=unwatermarked&cd=0%7C0%7C0%7C0&br=312&bt=156&ds=5&ft=.cwOVInz7ThMwqvOXq8Zmo&qs=13&rc=anhmcW45cm9ydjUzNzhoM0BpanhmcW45cm9ydjUzNzhoM0BsbTYwMmRzc2pgLS1kLjZzYSNsbTYwMmRzc2pgLS1kLjZzcw%3D%3D&vvpl=1&l=02173103917641900000000000000000000ffff0a0088d433601a&btag=e00078000&format=mp3&mime_type=audio_mpeg",
        "source_timerange": {
            "start_offset": 10.30909090909094,
            "end_offset": 11.781818181818164
        },
        "target_timerange": {
            "start_offset": 266.29309090909095,
            "end_offset": 267.7658181818182
        },
        "ignore_audio": true,
        "audio_path": null
    },
    {
        "segment_id": "c84411ee9d8711ef833bb8cef692109a",
        "text": "would amuse herself, for the",
        "audio_url": "https://v16m-default.akamaized.net/91ba4dad24ee0b1927a2a4f072f3fb5c/672de448/video/tos/maliva/tos-maliva-v-f15faa-us/oQCIsPz1QdQFkrtE72fGeFEWevuLAAjAAepcQ0/?a=7073&bti=OTU0QDItLmA%3D&ch=0&cr=0&dr=4&er=0&lr=unwatermarked&cd=0%7C0%7C0%7C0&br=312&bt=156&ds=5&ft=.cwOVInz7ThMwqvOXq8Zmo&qs=13&rc=anhmcW45cm9ydjUzNzhoM0BpanhmcW45cm9ydjUzNzhoM0BsbTYwMmRzc2pgLS1kLjZzYSNsbTYwMmRzc2pgLS1kLjZzcw%3D%3D&vvpl=1&l=02173103917641900000000000000000000ffff0a0088d433601a&btag=e00078000&format=mp3&mime_type=audio_mpeg",
        "source_timerange": {
            "start_offset": 11.781818181818181,
            "end_offset": 13.254545454545461
        },
        "target_timerange": {
            "start_offset": 267.7658181818182,
            "end_offset": 269.2385454545455
        },
        "ignore_audio": true,
        "audio_path": null
    },
    {
        "segment_id": "c844137e9d8711ef833bb8cef692109a",
        "text": "short time she could stay",
        "audio_url": "https://v16m-default.akamaized.net/91ba4dad24ee0b1927a2a4f072f3fb5c/672de448/video/tos/maliva/tos-maliva-v-f15faa-us/oQCIsPz1QdQFkrtE72fGeFEWevuLAAjAAepcQ0/?a=7073&bti=OTU0QDItLmA%3D&ch=0&cr=0&dr=4&er=0&lr=unwatermarked&cd=0%7C0%7C0%7C0&br=312&bt=156&ds=5&ft=.cwOVInz7ThMwqvOXq8Zmo&qs=13&rc=anhmcW45cm9ydjUzNzhoM0BpanhmcW45cm9ydjUzNzhoM0BsbTYwMmRzc2pgLS1kLjZzYSNsbTYwMmRzc2pgLS1kLjZzcw%3D%3D&vvpl=1&l=02173103917641900000000000000000000ffff0a0088d433601a&btag=e00078000&format=mp3&mime_type=audio_mpeg",
        "source_timerange": {
            "start_offset": 13.254545454545479,
            "end_offset": 14.727272727272702
        },
        "target_timerange": {
            "start_offset": 269.2385454545455,
            "end_offset": 270.7112727272727
        },
        "ignore_audio": true,
        "audio_path": null
    },
    {
        "segment_id": "c84415229d8711ef833bb8cef692109a",
        "text": "below, with a book.",
        "audio_url": "https://v16m-default.akamaized.net/91ba4dad24ee0b1927a2a4f072f3fb5c/672de448/video/tos/maliva/tos-maliva-v-f15faa-us/oQCIsPz1QdQFkrtE72fGeFEWevuLAAjAAepcQ0/?a=7073&bti=OTU0QDItLmA%3D&ch=0&cr=0&dr=4&er=0&lr=unwatermarked&cd=0%7C0%7C0%7C0&br=312&bt=156&ds=5&ft=.cwOVInz7ThMwqvOXq8Zmo&qs=13&rc=anhmcW45cm9ydjUzNzhoM0BpanhmcW45cm9ydjUzNzhoM0BsbTYwMmRzc2pgLS1kLjZzYSNsbTYwMmRzc2pgLS1kLjZzcw%3D%3D&vvpl=1&l=02173103917641900000000000000000000ffff0a0088d433601a&btag=e00078000&format=mp3&mime_type=audio_mpeg",
        "source_timerange": {
            "start_offset": 14.72727272727272,
            "end_offset": 16.2
        },
        "target_timerange": {
            "start_offset": 270.7112727272727,
            "end_offset": 272.184
        },
        "ignore_audio": true,
        "audio_path": null
    },
    {
        "segment_id": "c84424f49d8711ef833bb8cef692109a",
        "text": "Mr. Hurst looked at her",
        "audio_url": "https://v16m-default.akamaized.net/01353bdbe15c765c1a52a3aa263dfb4c/672de43a/video/tos/maliva/tos-maliva-v-f15faa-us/ooDbASBXICVWzIEA6frHC99CefMkxg8hAhXAFO/?a=7073&bti=OTU0QDItLmA%3D&ch=0&cr=0&dr=4&er=0&lr=unwatermarked&cd=0%7C0%7C0%7C0&br=312&bt=156&ds=5&ft=.cwOVInz7ThMwqvOXq8Zmo&qs=13&rc=M3g5Zng5cm9ydjUzNzhoM0BpM3g5Zng5cm9ydjUzNzhoM0A2aTRsMmRzc2pgLS1kLjZzYSM2aTRsMmRzc2pgLS1kLjZzcw%3D%3D&vvpl=1&l=02173103917641900000000000000000000ffff0a0088d433601a&btag=e00070000&format=mp3&mime_type=audio_mpeg",
        "source_timerange": {
            "start_offset": 0,
            "end_offset": 1.2240000000000104
        },
        "target_timerange": {
            "start_offset": 272.184,
            "end_offset": 273.408
        },
        "ignore_audio": false,
        "audio_path": null
    },
    {
        "segment_id": "c84426ca9d8711ef833bb8cef692109a",
        "text": "with astonishment.",
        "audio_url": "https://v16m-default.akamaized.net/01353bdbe15c765c1a52a3aa263dfb4c/672de43a/video/tos/maliva/tos-maliva-v-f15faa-us/ooDbASBXICVWzIEA6frHC99CefMkxg8hAhXAFO/?a=7073&bti=OTU0QDItLmA%3D&ch=0&cr=0&dr=4&er=0&lr=unwatermarked&cd=0%7C0%7C0%7C0&br=312&bt=156&ds=5&ft=.cwOVInz7ThMwqvOXq8Zmo&qs=13&rc=M3g5Zng5cm9ydjUzNzhoM0BpM3g5Zng5cm9ydjUzNzhoM0A2aTRsMmRzc2pgLS1kLjZzYSM2aTRsMmRzc2pgLS1kLjZzcw%3D%3D&vvpl=1&l=02173103917641900000000000000000000ffff0a0088d433601a&btag=e00070000&format=mp3&mime_type=audio_mpeg",
        "source_timerange": {
            "start_offset": 1.2239999999999895,
            "end_offset": 2.448
        },
        "target_timerange": {
            "start_offset": 273.408,
            "end_offset": 274.632
        },
        "ignore_audio": true,
        "audio_path": null
    },
    {
        "segment_id": "c8443da49d8711ef833bb8cef692109a",
        "text": "“Do you prefer reading to",
        "audio_url": "https://v16m-default.akamaized.net/7ed6067b1719156311b1d82dacdcb127/672de43c/video/tos/maliva/tos-maliva-v-f15faa-us/ow1FFtvkFQujeAfp6fPe28A7kAQ1hEMCcQSWAW/?a=7073&bti=OTU0QDItLmA%3D&ch=0&cr=0&dr=4&er=0&lr=unwatermarked&cd=0%7C0%7C0%7C0&br=312&bt=156&ds=5&ft=.cwOVInz7ThMwqvOXq8Zmo&qs=13&rc=anE8NnA5cm9ydjUzNzhoM0BpanE8NnA5cm9ydjUzNzhoM0BoYjZqMmRzc2pgLS1kLjZzYSNoYjZqMmRzc2pgLS1kLjZzcw%3D%3D&vvpl=1&l=02173103917641900000000000000000000ffff0a0088d433601a&btag=e00070000&format=mp3&mime_type=audio_mpeg",
        "source_timerange": {
            "start_offset": 0,
            "end_offset": 1.3999999999999888
        },
        "target_timerange": {
            "start_offset": 274.632,
            "end_offset": 276.032
        },
        "ignore_audio": false,
        "audio_path": null
    },
    {
        "segment_id": "c8443f8e9d8711ef833bb8cef692109a",
        "text": "cards?” said he; “that is",
        "audio_url": "https://v16m-default.akamaized.net/7ed6067b1719156311b1d82dacdcb127/672de43c/video/tos/maliva/tos-maliva-v-f15faa-us/ow1FFtvkFQujeAfp6fPe28A7kAQ1hEMCcQSWAW/?a=7073&bti=OTU0QDItLmA%3D&ch=0&cr=0&dr=4&er=0&lr=unwatermarked&cd=0%7C0%7C0%7C0&br=312&bt=156&ds=5&ft=.cwOVInz7ThMwqvOXq8Zmo&qs=13&rc=anE8NnA5cm9ydjUzNzhoM0BpanE8NnA5cm9ydjUzNzhoM0BoYjZqMmRzc2pgLS1kLjZzYSNoYjZqMmRzc2pgLS1kLjZzcw%3D%3D&vvpl=1&l=02173103917641900000000000000000000ffff0a0088d433601a&btag=e00070000&format=mp3&mime_type=audio_mpeg",
        "source_timerange": {
            "start_offset": 1.3999999999999773,
            "end_offset": 2.800000000000023
        },
        "target_timerange": {
            "start_offset": 276.032,
            "end_offset": 277.432
        },
        "ignore_audio": true,
        "audio_path": null
    },
    {
        "segment_id": "c84441329d8711ef833bb8cef692109a",
        "text": "rather singular.”",
        "audio_url": "https://v16m-default.akamaized.net/7ed6067b1719156311b1d82dacdcb127/672de43c/video/tos/maliva/tos-maliva-v-f15faa-us/ow1FFtvkFQujeAfp6fPe28A7kAQ1hEMCcQSWAW/?a=7073&bti=OTU0QDItLmA%3D&ch=0&cr=0&dr=4&er=0&lr=unwatermarked&cd=0%7C0%7C0%7C0&br=312&bt=156&ds=5&ft=.cwOVInz7ThMwqvOXq8Zmo&qs=13&rc=anE8NnA5cm9ydjUzNzhoM0BpanE8NnA5cm9ydjUzNzhoM0BoYjZqMmRzc2pgLS1kLjZzYSNoYjZqMmRzc2pgLS1kLjZzcw%3D%3D&vvpl=1&l=02173103917641900000000000000000000ffff0a0088d433601a&btag=e00070000&format=mp3&mime_type=audio_mpeg",
        "source_timerange": {
            "start_offset": 2.8000000000000114,
            "end_offset": 4.2
        },
        "target_timerange": {
            "start_offset": 277.432,
            "end_offset": 278.832
        },
        "ignore_audio": true,
        "audio_path": null
    },
    {
        "segment_id": "c84457629d8711ef833bb8cef692109a",
        "text": "“Miss Eliza Bennet,”",
        "audio_url": "https://v16m-default.akamaized.net/04d1aeaec912a722584259cb9e0998ee/672de43b/video/tos/maliva/tos-maliva-v-f15faa-us/oc9CKfxtjghrD8AEA8eEXYCSjCWFEG8ROcfhAA/?a=7073&bti=OTU0QDItLmA%3D&ch=0&cr=0&dr=4&er=0&lr=unwatermarked&cd=0%7C0%7C0%7C0&br=312&bt=156&ds=5&ft=.cwOVInz7ThMwqvOXq8Zmo&qs=13&rc=M3Zsbng5cnBydjUzNzhoM0BpM3Zsbng5cnBydjUzNzhoM0AyM2NkMmQ0c2pgLS1kLjZzYSMyM2NkMmQ0c2pgLS1kLjZzcw%3D%3D&vvpl=1&l=02173103917641900000000000000000000ffff0a0088d433601a&btag=e00070000&format=mp3&mime_type=audio_mpeg",
        "source_timerange": {
            "start_offset": 0,
            "end_offset": 1.3199999999999568
        },
        "target_timerange": {
            "start_offset": 278.832,
            "end_offset": 280.152
        },
        "ignore_audio": false,
        "audio_path": null
    },
    {
        "segment_id": "c84459569d8711ef833bb8cef692109a",
        "text": "said Miss Bingley,",
        "audio_url": "https://v16m-default.akamaized.net/04d1aeaec912a722584259cb9e0998ee/672de43b/video/tos/maliva/tos-maliva-v-f15faa-us/oc9CKfxtjghrD8AEA8eEXYCSjCWFEG8ROcfhAA/?a=7073&bti=OTU0QDItLmA%3D&ch=0&cr=0&dr=4&er=0&lr=unwatermarked&cd=0%7C0%7C0%7C0&br=312&bt=156&ds=5&ft=.cwOVInz7ThMwqvOXq8Zmo&qs=13&rc=M3Zsbng5cnBydjUzNzhoM0BpM3Zsbng5cnBydjUzNzhoM0AyM2NkMmQ0c2pgLS1kLjZzYSMyM2NkMmQ0c2pgLS1kLjZzcw%3D%3D&vvpl=1&l=02173103917641900000000000000000000ffff0a0088d433601a&btag=e00070000&format=mp3&mime_type=audio_mpeg",
        "source_timerange": {
            "start_offset": 1.3199999999999932,
            "end_offset": 2.640000000000007
        },
        "target_timerange": {
            "start_offset": 280.152,
            "end_offset": 281.47200000000004
        },
        "ignore_audio": true,
        "audio_path": null
    },
    {
        "segment_id": "c8445b0e9d8711ef833bb8cef692109a",
        "text": "“despises cards.",
        "audio_url": "https://v16m-default.akamaized.net/04d1aeaec912a722584259cb9e0998ee/672de43b/video/tos/maliva/tos-maliva-v-f15faa-us/oc9CKfxtjghrD8AEA8eEXYCSjCWFEG8ROcfhAA/?a=7073&bti=OTU0QDItLmA%3D&ch=0&cr=0&dr=4&er=0&lr=unwatermarked&cd=0%7C0%7C0%7C0&br=312&bt=156&ds=5&ft=.cwOVInz7ThMwqvOXq8Zmo&qs=13&rc=M3Zsbng5cnBydjUzNzhoM0BpM3Zsbng5cnBydjUzNzhoM0AyM2NkMmQ0c2pgLS1kLjZzYSMyM2NkMmQ0c2pgLS1kLjZzcw%3D%3D&vvpl=1&l=02173103917641900000000000000000000ffff0a0088d433601a&btag=e00070000&format=mp3&mime_type=audio_mpeg",
        "source_timerange": {
            "start_offset": 2.640000000000043,
            "end_offset": 3.96
        },
        "target_timerange": {
            "start_offset": 281.47200000000004,
            "end_offset": 282.79200000000003
        },
        "ignore_audio": true,
        "audio_path": null
    },
    {
        "segment_id": "c8446cd49d8711ef833bb8cef692109a",
        "text": "She is a great reader, and has no",
        "audio_url": "https://v16m-default.akamaized.net/ede9ec3cedf401070a20cc708fa09502/672de43b/video/tos/maliva/tos-maliva-v-f15faa-us/owQiSh32AO4EyBxdiAj7XZtUAPEUV9VPAC2a2/?a=7073&bti=OTU0QDItLmA%3D&ch=0&cr=0&dr=4&er=0&lr=unwatermarked&cd=0%7C0%7C0%7C0&br=312&bt=156&ds=5&ft=.cwOVInz7ThMwqvOXq8Zmo&qs=13&rc=anFxbWs5cnBydjUzNzhoM0BpanFxbWs5cnBydjUzNzhoM0BvYGZiMmQ0c2pgLS1kLjZzYSNvYGZiMmQ0c2pgLS1kLjZzcw%3D%3D&vvpl=1&l=02173103917641900000000000000000000ffff0a0088d433601a&btag=e00070000&format=mp3&mime_type=audio_mpeg",
        "source_timerange": {
            "start_offset": 0,
            "end_offset": 1.788000000000046
        },
        "target_timerange": {
            "start_offset": 282.79200000000003,
            "end_offset": 284.58000000000004
        },
        "ignore_audio": false,
        "audio_path": null
    },
    {
        "segment_id": "c8446ebe9d8711ef833bb8cef692109a",
        "text": "pleasure in anything else.”",
        "audio_url": "https://v16m-default.akamaized.net/ede9ec3cedf401070a20cc708fa09502/672de43b/video/tos/maliva/tos-maliva-v-f15faa-us/owQiSh32AO4EyBxdiAj7XZtUAPEUV9VPAC2a2/?a=7073&bti=OTU0QDItLmA%3D&ch=0&cr=0&dr=4&er=0&lr=unwatermarked&cd=0%7C0%7C0%7C0&br=312&bt=156&ds=5&ft=.cwOVInz7ThMwqvOXq8Zmo&qs=13&rc=anFxbWs5cnBydjUzNzhoM0BpanFxbWs5cnBydjUzNzhoM0BvYGZiMmQ0c2pgLS1kLjZzYSNvYGZiMmQ0c2pgLS1kLjZzcw%3D%3D&vvpl=1&l=02173103917641900000000000000000000ffff0a0088d433601a&btag=e00070000&format=mp3&mime_type=audio_mpeg",
        "source_timerange": {
            "start_offset": 1.788000000000011,
            "end_offset": 3.576
        },
        "target_timerange": {
            "start_offset": 284.58000000000004,
            "end_offset": 286.368
        },
        "ignore_audio": true,
        "audio_path": null
    },
    {
        "segment_id": "c84492e09d8711ef833bb8cef692109a",
        "text": "“I deserve neither such",
        "audio_url": "https://v16m-default.akamaized.net/54fd472b861218488b1cf0d9a548ee7c/672de43f/video/tos/maliva/tos-maliva-v-f15faa-us/oIzCmYjFEATST19PtyiUAPEA2V2Pi4ZQjoLAB/?a=7073&bti=OTU0QDItLmA%3D&ch=0&cr=0&dr=4&er=0&lr=unwatermarked&cd=0%7C0%7C0%7C0&br=312&bt=156&ds=5&ft=.cwOVInz7ThMwqvOXq8Zmo&qs=13&rc=M214dG85cnBydjUzNzhoM0BpM214dG85cnBydjUzNzhoM0BgYC42MmQ0c2pgLS1kLjZzYSNgYC42MmQ0c2pgLS1kLjZzcw%3D%3D&vvpl=1&l=02173103917641900000000000000000000ffff0a0088d433601a&btag=e00070000&format=mp3&mime_type=audio_mpeg",
        "source_timerange": {
            "start_offset": 0,
            "end_offset": 1.5215999999999745
        },
        "target_timerange": {
            "start_offset": 286.368,
            "end_offset": 287.8896
        },
        "ignore_audio": false,
        "audio_path": null
    },
    {
        "segment_id": "c84494b69d8711ef833bb8cef692109a",
        "text": "praise nor such censure,”",
        "audio_url": "https://v16m-default.akamaized.net/54fd472b861218488b1cf0d9a548ee7c/672de43f/video/tos/maliva/tos-maliva-v-f15faa-us/oIzCmYjFEATST19PtyiUAPEA2V2Pi4ZQjoLAB/?a=7073&bti=OTU0QDItLmA%3D&ch=0&cr=0&dr=4&er=0&lr=unwatermarked&cd=0%7C0%7C0%7C0&br=312&bt=156&ds=5&ft=.cwOVInz7ThMwqvOXq8Zmo&qs=13&rc=M214dG85cnBydjUzNzhoM0BpM214dG85cnBydjUzNzhoM0BgYC42MmQ0c2pgLS1kLjZzYSNgYC42MmQ0c2pgLS1kLjZzcw%3D%3D&vvpl=1&l=02173103917641900000000000000000000ffff0a0088d433601a&btag=e00070000&format=mp3&mime_type=audio_mpeg",
        "source_timerange": {
            "start_offset": 1.521599999999978,
            "end_offset": 3.0432000000000095
        },
        "target_timerange": {
            "start_offset": 287.8896,
            "end_offset": 289.4112
        },
        "ignore_audio": true,
        "audio_path": null
    },
    {
        "segment_id": "c84496509d8711ef833bb8cef692109a",
        "text": "cried Elizabeth; “I am _not_",
        "audio_url": "https://v16m-default.akamaized.net/54fd472b861218488b1cf0d9a548ee7c/672de43f/video/tos/maliva/tos-maliva-v-f15faa-us/oIzCmYjFEATST19PtyiUAPEA2V2Pi4ZQjoLAB/?a=7073&bti=OTU0QDItLmA%3D&ch=0&cr=0&dr=4&er=0&lr=unwatermarked&cd=0%7C0%7C0%7C0&br=312&bt=156&ds=5&ft=.cwOVInz7ThMwqvOXq8Zmo&qs=13&rc=M214dG85cnBydjUzNzhoM0BpM214dG85cnBydjUzNzhoM0BgYC42MmQ0c2pgLS1kLjZzYSNgYC42MmQ0c2pgLS1kLjZzcw%3D%3D&vvpl=1&l=02173103917641900000000000000000000ffff0a0088d433601a&btag=e00070000&format=mp3&mime_type=audio_mpeg",
        "source_timerange": {
            "start_offset": 3.043200000000013,
            "end_offset": 4.5647999999999875
        },
        "target_timerange": {
            "start_offset": 289.4112,
            "end_offset": 290.9328
        },
        "ignore_audio": true,
        "audio_path": null
    },
    {
        "segment_id": "c84497f49d8711ef833bb8cef692109a",
        "text": "a great reader, and I have",
        "audio_url": "https://v16m-default.akamaized.net/54fd472b861218488b1cf0d9a548ee7c/672de43f/video/tos/maliva/tos-maliva-v-f15faa-us/oIzCmYjFEATST19PtyiUAPEA2V2Pi4ZQjoLAB/?a=7073&bti=OTU0QDItLmA%3D&ch=0&cr=0&dr=4&er=0&lr=unwatermarked&cd=0%7C0%7C0%7C0&br=312&bt=156&ds=5&ft=.cwOVInz7ThMwqvOXq8Zmo&qs=13&rc=M214dG85cnBydjUzNzhoM0BpM214dG85cnBydjUzNzhoM0BgYC42MmQ0c2pgLS1kLjZzYSNgYC42MmQ0c2pgLS1kLjZzcw%3D%3D&vvpl=1&l=02173103917641900000000000000000000ffff0a0088d433601a&btag=e00070000&format=mp3&mime_type=audio_mpeg",
        "source_timerange": {
            "start_offset": 4.564799999999991,
            "end_offset": 6.0864000000000225
        },
        "target_timerange": {
            "start_offset": 290.9328,
            "end_offset": 292.4544
        },
        "ignore_audio": true,
        "audio_path": null
    },
    {
        "segment_id": "c8449aa69d8711ef833bb8cef692109a",
        "text": "pleasure in many things.”",
        "audio_url": "https://v16m-default.akamaized.net/54fd472b861218488b1cf0d9a548ee7c/672de43f/video/tos/maliva/tos-maliva-v-f15faa-us/oIzCmYjFEATST19PtyiUAPEA2V2Pi4ZQjoLAB/?a=7073&bti=OTU0QDItLmA%3D&ch=0&cr=0&dr=4&er=0&lr=unwatermarked&cd=0%7C0%7C0%7C0&br=312&bt=156&ds=5&ft=.cwOVInz7ThMwqvOXq8Zmo&qs=13&rc=M214dG85cnBydjUzNzhoM0BpM214dG85cnBydjUzNzhoM0BgYC42MmQ0c2pgLS1kLjZzYSNgYC42MmQ0c2pgLS1kLjZzcw%3D%3D&vvpl=1&l=02173103917641900000000000000000000ffff0a0088d433601a&btag=e00070000&format=mp3&mime_type=audio_mpeg",
        "source_timerange": {
            "start_offset": 6.086400000000026,
            "end_offset": 7.6080000000000005
        },
        "target_timerange": {
            "start_offset": 292.4544,
            "end_offset": 293.976
        },
        "ignore_audio": true,
        "audio_path": null
    },
    {
        "segment_id": "c844bf5e9d8711ef833bb8cef692109a",
        "text": "“In nursing your sister I am",
        "audio_url": "https://v16m-default.akamaized.net/43574d29181ed9d4021c1ad0fc83d5e4/672de43f/video/tos/maliva/tos-maliva-v-f15faa-us/ogSDAA4AEBdAI7FgOAMXsHxftfsrCYCWbICe6P/?a=7073&bti=OTU0QDItLmA%3D&ch=0&cr=0&dr=4&er=0&lr=unwatermarked&cd=0%7C0%7C0%7C0&br=312&bt=156&ds=5&ft=.cwOVInz7ThMwqvOXq8Zmo&qs=13&rc=MzlyaXA5cnBydjUzNzhoM0BpMzlyaXA5cnBydjUzNzhoM0AtY15fMmQ0c2pgLS1kLjZzYSMtY15fMmQ0c2pgLS1kLjZzcw%3D%3D&vvpl=1&l=02173103917641900000000000000000000ffff0a0088d433601a&btag=e00070000&format=mp3&mime_type=audio_mpeg",
        "source_timerange": {
            "start_offset": 0,
            "end_offset": 1.4687999999999937
        },
        "target_timerange": {
            "start_offset": 293.976,
            "end_offset": 295.4448
        },
        "ignore_audio": false,
        "audio_path": null
    },
    {
        "segment_id": "c844c1709d8711ef833bb8cef692109a",
        "text": "sure you have pleasure,” said",
        "audio_url": "https://v16m-default.akamaized.net/43574d29181ed9d4021c1ad0fc83d5e4/672de43f/video/tos/maliva/tos-maliva-v-f15faa-us/ogSDAA4AEBdAI7FgOAMXsHxftfsrCYCWbICe6P/?a=7073&bti=OTU0QDItLmA%3D&ch=0&cr=0&dr=4&er=0&lr=unwatermarked&cd=0%7C0%7C0%7C0&br=312&bt=156&ds=5&ft=.cwOVInz7ThMwqvOXq8Zmo&qs=13&rc=MzlyaXA5cnBydjUzNzhoM0BpMzlyaXA5cnBydjUzNzhoM0AtY15fMmQ0c2pgLS1kLjZzYSMtY15fMmQ0c2pgLS1kLjZzcw%3D%3D&vvpl=1&l=02173103917641900000000000000000000ffff0a0088d433601a&btag=e00070000&format=mp3&mime_type=audio_mpeg",
        "source_timerange": {
            "start_offset": 1.4687999999999874,
            "end_offset": 2.937599999999981
        },
        "target_timerange": {
            "start_offset": 295.4448,
            "end_offset": 296.9136
        },
        "ignore_audio": true,
        "audio_path": null
    },
    {
        "segment_id": "c844c3329d8711ef833bb8cef692109a",
        "text": "Bingley; “and I hope it will",
        "audio_url": "https://v16m-default.akamaized.net/43574d29181ed9d4021c1ad0fc83d5e4/672de43f/video/tos/maliva/tos-maliva-v-f15faa-us/ogSDAA4AEBdAI7FgOAMXsHxftfsrCYCWbICe6P/?a=7073&bti=OTU0QDItLmA%3D&ch=0&cr=0&dr=4&er=0&lr=unwatermarked&cd=0%7C0%7C0%7C0&br=312&bt=156&ds=5&ft=.cwOVInz7ThMwqvOXq8Zmo&qs=13&rc=MzlyaXA5cnBydjUzNzhoM0BpMzlyaXA5cnBydjUzNzhoM0AtY15fMmQ0c2pgLS1kLjZzYSMtY15fMmQ0c2pgLS1kLjZzcw%3D%3D&vvpl=1&l=02173103917641900000000000000000000ffff0a0088d433601a&btag=e00070000&format=mp3&mime_type=audio_mpeg",
        "source_timerange": {
            "start_offset": 2.937599999999975,
            "end_offset": 4.406400000000025
        },
        "target_timerange": {
            "start_offset": 296.9136,
            "end_offset": 298.3824
        },
        "ignore_audio": true,
        "audio_path": null
    },
    {
        "segment_id": "c844c4d69d8711ef833bb8cef692109a",
        "text": "soon be increased by seeing",
        "audio_url": "https://v16m-default.akamaized.net/43574d29181ed9d4021c1ad0fc83d5e4/672de43f/video/tos/maliva/tos-maliva-v-f15faa-us/ogSDAA4AEBdAI7FgOAMXsHxftfsrCYCWbICe6P/?a=7073&bti=OTU0QDItLmA%3D&ch=0&cr=0&dr=4&er=0&lr=unwatermarked&cd=0%7C0%7C0%7C0&br=312&bt=156&ds=5&ft=.cwOVInz7ThMwqvOXq8Zmo&qs=13&rc=MzlyaXA5cnBydjUzNzhoM0BpMzlyaXA5cnBydjUzNzhoM0AtY15fMmQ0c2pgLS1kLjZzYSMtY15fMmQ0c2pgLS1kLjZzcw%3D%3D&vvpl=1&l=02173103917641900000000000000000000ffff0a0088d433601a&btag=e00070000&format=mp3&mime_type=audio_mpeg",
        "source_timerange": {
            "start_offset": 4.406400000000019,
            "end_offset": 5.875200000000013
        },
        "target_timerange": {
            "start_offset": 298.3824,
            "end_offset": 299.8512
        },
        "ignore_audio": true,
        "audio_path": null
    },
    {
        "segment_id": "c844c6849d8711ef833bb8cef692109a",
        "text": "her quite well.”",
        "audio_url": "https://v16m-default.akamaized.net/43574d29181ed9d4021c1ad0fc83d5e4/672de43f/video/tos/maliva/tos-maliva-v-f15faa-us/ogSDAA4AEBdAI7FgOAMXsHxftfsrCYCWbICe6P/?a=7073&bti=OTU0QDItLmA%3D&ch=0&cr=0&dr=4&er=0&lr=unwatermarked&cd=0%7C0%7C0%7C0&br=312&bt=156&ds=5&ft=.cwOVInz7ThMwqvOXq8Zmo&qs=13&rc=MzlyaXA5cnBydjUzNzhoM0BpMzlyaXA5cnBydjUzNzhoM0AtY15fMmQ0c2pgLS1kLjZzYSMtY15fMmQ0c2pgLS1kLjZzcw%3D%3D&vvpl=1&l=02173103917641900000000000000000000ffff0a0088d433601a&btag=e00070000&format=mp3&mime_type=audio_mpeg",
        "source_timerange": {
            "start_offset": 5.875200000000007,
            "end_offset": 7.344
        },
        "target_timerange": {
            "start_offset": 299.8512,
            "end_offset": 301.32
        },
        "ignore_audio": true,
        "audio_path": null
    },
    {
        "segment_id": "c844de6c9d8711ef833bb8cef692109a",
        "text": "Elizabeth thanked him from her",
        "audio_url": "https://v16m-default.akamaized.net/8be84c71d3181be5ac8a0e741347518a/672de43d/video/tos/maliva/tos-maliva-v-f15faa-us/oYw2yQcCVEhKiB84AA62AEFtSUPAZZP9Tjij2/?a=7073&bti=OTU0QDItLmA%3D&ch=0&cr=0&dr=4&er=0&lr=unwatermarked&cd=0%7C0%7C0%7C0&br=312&bt=156&ds=5&ft=.cwOVInz7ThMwqvOXq8Zmo&qs=13&rc=ajRuOmo5cnBydjUzNzhoM0BpajRuOmo5cnBydjUzNzhoM0A2aS1yMmQ0c2pgLS1kLjZzYSM2aS1yMmQ0c2pgLS1kLjZzcw%3D%3D&vvpl=1&l=02173103917641900000000000000000000ffff0a0088d433601a&btag=e00070000&format=mp3&mime_type=audio_mpeg",
        "source_timerange": {
            "start_offset": 0,
            "end_offset": 1.672000000000006
        },
        "target_timerange": {
            "start_offset": 301.32,
            "end_offset": 302.992
        },
        "ignore_audio": false,
        "audio_path": null
    },
    {
        "segment_id": "c844e0249d8711ef833bb8cef692109a",
        "text": "heart, and then walked towards a",
        "audio_url": "https://v16m-default.akamaized.net/8be84c71d3181be5ac8a0e741347518a/672de43d/video/tos/maliva/tos-maliva-v-f15faa-us/oYw2yQcCVEhKiB84AA62AEFtSUPAZZP9Tjij2/?a=7073&bti=OTU0QDItLmA%3D&ch=0&cr=0&dr=4&er=0&lr=unwatermarked&cd=0%7C0%7C0%7C0&br=312&bt=156&ds=5&ft=.cwOVInz7ThMwqvOXq8Zmo&qs=13&rc=ajRuOmo5cnBydjUzNzhoM0BpajRuOmo5cnBydjUzNzhoM0A2aS1yMmQ0c2pgLS1kLjZzYSM2aS1yMmQ0c2pgLS1kLjZzcw%3D%3D&vvpl=1&l=02173103917641900000000000000000000ffff0a0088d433601a&btag=e00070000&format=mp3&mime_type=audio_mpeg",
        "source_timerange": {
            "start_offset": 1.6720000000000255,
            "end_offset": 3.3439999999999745
        },
        "target_timerange": {
            "start_offset": 302.992,
            "end_offset": 304.664
        },
        "ignore_audio": true,
        "audio_path": null
    },
    {
        "segment_id": "c844e1829d8711ef833bb8cef692109a",
        "text": "table where a few books were lying.",
        "audio_url": "https://v16m-default.akamaized.net/8be84c71d3181be5ac8a0e741347518a/672de43d/video/tos/maliva/tos-maliva-v-f15faa-us/oYw2yQcCVEhKiB84AA62AEFtSUPAZZP9Tjij2/?a=7073&bti=OTU0QDItLmA%3D&ch=0&cr=0&dr=4&er=0&lr=unwatermarked&cd=0%7C0%7C0%7C0&br=312&bt=156&ds=5&ft=.cwOVInz7ThMwqvOXq8Zmo&qs=13&rc=ajRuOmo5cnBydjUzNzhoM0BpajRuOmo5cnBydjUzNzhoM0A2aS1yMmQ0c2pgLS1kLjZzYSM2aS1yMmQ0c2pgLS1kLjZzcw%3D%3D&vvpl=1&l=02173103917641900000000000000000000ffff0a0088d433601a&btag=e00070000&format=mp3&mime_type=audio_mpeg",
        "source_timerange": {
            "start_offset": 3.343999999999994,
            "end_offset": 5.016
        },
        "target_timerange": {
            "start_offset": 304.664,
            "end_offset": 306.336
        },
        "ignore_audio": true,
        "audio_path": null
    },
    {
        "segment_id": "c844f76c9d8711ef833bb8cef692109a",
        "text": "He immediately offered to",
        "audio_url": "https://v16m-default.akamaized.net/d4276014d3f58fd07edc1960eede70f2/672de43c/video/tos/maliva/tos-maliva-v-f15faa-us/oQggSKjYXQfCxeSOrosCCRdA9EETEAFtAAAWfD/?a=7073&bti=OTU0QDItLmA%3D&ch=0&cr=0&dr=4&er=0&lr=unwatermarked&cd=0%7C0%7C0%7C0&br=312&bt=156&ds=5&ft=.cwOVInz7ThMwqvOXq8Zmo&qs=13&rc=M2RvN3g5cnBydjUzNzhoM0BpM2RvN3g5cnBydjUzNzhoM0BqL2c1MmQ0c2pgLS1kLjZzYSNqL2c1MmQ0c2pgLS1kLjZzcw%3D%3D&vvpl=1&l=02173103917641900000000000000000000ffff0a0088d433601a&btag=e00070000&format=mp3&mime_type=audio_mpeg",
        "source_timerange": {
            "start_offset": 0,
            "end_offset": 1.3840000000000279
        },
        "target_timerange": {
            "start_offset": 306.336,
            "end_offset": 307.72
        },
        "ignore_audio": false,
        "audio_path": null
    },
    {
        "segment_id": "c84500369d8711ef833bb8cef692109a",
        "text": "fetch her others; all that",
        "audio_url": "https://v16m-default.akamaized.net/d4276014d3f58fd07edc1960eede70f2/672de43c/video/tos/maliva/tos-maliva-v-f15faa-us/oQggSKjYXQfCxeSOrosCCRdA9EETEAFtAAAWfD/?a=7073&bti=OTU0QDItLmA%3D&ch=0&cr=0&dr=4&er=0&lr=unwatermarked&cd=0%7C0%7C0%7C0&br=312&bt=156&ds=5&ft=.cwOVInz7ThMwqvOXq8Zmo&qs=13&rc=M2RvN3g5cnBydjUzNzhoM0BpM2RvN3g5cnBydjUzNzhoM0BqL2c1MmQ0c2pgLS1kLjZzYSNqL2c1MmQ0c2pgLS1kLjZzcw%3D%3D&vvpl=1&l=02173103917641900000000000000000000ffff0a0088d433601a&btag=e00070000&format=mp3&mime_type=audio_mpeg",
        "source_timerange": {
            "start_offset": 1.3840000000000146,
            "end_offset": 2.7679999999999856
        },
        "target_timerange": {
            "start_offset": 307.72,
            "end_offset": 309.104
        },
        "ignore_audio": true,
        "audio_path": null
    },
    {
        "segment_id": "c845022a9d8711ef833bb8cef692109a",
        "text": "his library afforded.",
        "audio_url": "https://v16m-default.akamaized.net/d4276014d3f58fd07edc1960eede70f2/672de43c/video/tos/maliva/tos-maliva-v-f15faa-us/oQggSKjYXQfCxeSOrosCCRdA9EETEAFtAAAWfD/?a=7073&bti=OTU0QDItLmA%3D&ch=0&cr=0&dr=4&er=0&lr=unwatermarked&cd=0%7C0%7C0%7C0&br=312&bt=156&ds=5&ft=.cwOVInz7ThMwqvOXq8Zmo&qs=13&rc=M2RvN3g5cnBydjUzNzhoM0BpM2RvN3g5cnBydjUzNzhoM0BqL2c1MmQ0c2pgLS1kLjZzYSNqL2c1MmQ0c2pgLS1kLjZzcw%3D%3D&vvpl=1&l=02173103917641900000000000000000000ffff0a0088d433601a&btag=e00070000&format=mp3&mime_type=audio_mpeg",
        "source_timerange": {
            "start_offset": 2.7679999999999723,
            "end_offset": 4.152
        },
        "target_timerange": {
            "start_offset": 309.104,
            "end_offset": 310.488
        },
        "ignore_audio": true,
        "audio_path": null
    },
    {
        "segment_id": "c8452c5a9d8711ef833bb8cef692109a",
        "text": "“And I wish my collection were",
        "audio_url": "https://v16m-default.akamaized.net/3c0c1882ba78aec1e70e5a6316e3de32/672de441/video/tos/maliva/tos-maliva-v-f15faa-us/oMlQMEy3PA2ACAijiR8EMt52UV4ZBSPY9TjdA/?a=7073&bti=OTU0QDItLmA%3D&ch=0&cr=0&dr=4&er=0&lr=unwatermarked&cd=0%7C0%7C0%7C0&br=312&bt=156&ds=5&ft=.cwOVInz7ThMwqvOXq8Zmo&qs=13&rc=amZnaHE5cnBydjUzNzhoM0BpamZnaHE5cnBydjUzNzhoM0BiL14zMmQ0c2pgLS1kLjZzYSNiL14zMmQ0c2pgLS1kLjZzcw%3D%3D&vvpl=1&l=02173103917641900000000000000000000ffff0a0088d433601a&btag=e00070000&format=mp3&mime_type=audio_mpeg",
        "source_timerange": {
            "start_offset": 0,
            "end_offset": 1.5880000000000027
        },
        "target_timerange": {
            "start_offset": 310.488,
            "end_offset": 312.076
        },
        "ignore_audio": false,
        "audio_path": null
    },
    {
        "segment_id": "c8452e089d8711ef833bb8cef692109a",
        "text": "larger for your benefit and my",
        "audio_url": "https://v16m-default.akamaized.net/3c0c1882ba78aec1e70e5a6316e3de32/672de441/video/tos/maliva/tos-maliva-v-f15faa-us/oMlQMEy3PA2ACAijiR8EMt52UV4ZBSPY9TjdA/?a=7073&bti=OTU0QDItLmA%3D&ch=0&cr=0&dr=4&er=0&lr=unwatermarked&cd=0%7C0%7C0%7C0&br=312&bt=156&ds=5&ft=.cwOVInz7ThMwqvOXq8Zmo&qs=13&rc=amZnaHE5cnBydjUzNzhoM0BpamZnaHE5cnBydjUzNzhoM0BiL14zMmQ0c2pgLS1kLjZzYSNiL14zMmQ0c2pgLS1kLjZzcw%3D%3D&vvpl=1&l=02173103917641900000000000000000000ffff0a0088d433601a&btag=e00070000&format=mp3&mime_type=audio_mpeg",
        "source_timerange": {
            "start_offset": 1.5880000000000223,
            "end_offset": 3.175999999999968
        },
        "target_timerange": {
            "start_offset": 312.076,
            "end_offset": 313.664
        },
        "ignore_audio": true,
        "audio_path": null
    },
    {
        "segment_id": "c8452fb69d8711ef833bb8cef692109a",
        "text": "own credit; but I am an idle",
        "audio_url": "https://v16m-default.akamaized.net/3c0c1882ba78aec1e70e5a6316e3de32/672de441/video/tos/maliva/tos-maliva-v-f15faa-us/oMlQMEy3PA2ACAijiR8EMt52UV4ZBSPY9TjdA/?a=7073&bti=OTU0QDItLmA%3D&ch=0&cr=0&dr=4&er=0&lr=unwatermarked&cd=0%7C0%7C0%7C0&br=312&bt=156&ds=5&ft=.cwOVInz7ThMwqvOXq8Zmo&qs=13&rc=amZnaHE5cnBydjUzNzhoM0BpamZnaHE5cnBydjUzNzhoM0BiL14zMmQ0c2pgLS1kLjZzYSNiL14zMmQ0c2pgLS1kLjZzcw%3D%3D&vvpl=1&l=02173103917641900000000000000000000ffff0a0088d433601a&btag=e00070000&format=mp3&mime_type=audio_mpeg",
        "source_timerange": {
            "start_offset": 3.1759999999999877,
            "end_offset": 4.7639999999999905
        },
        "target_timerange": {
            "start_offset": 313.664,
            "end_offset": 315.252
        },
        "ignore_audio": true,
        "audio_path": null
    },
    {
        "segment_id": "c84531649d8711ef833bb8cef692109a",
        "text": "fellow; and though I have not",
        "audio_url": "https://v16m-default.akamaized.net/3c0c1882ba78aec1e70e5a6316e3de32/672de441/video/tos/maliva/tos-maliva-v-f15faa-us/oMlQMEy3PA2ACAijiR8EMt52UV4ZBSPY9TjdA/?a=7073&bti=OTU0QDItLmA%3D&ch=0&cr=0&dr=4&er=0&lr=unwatermarked&cd=0%7C0%7C0%7C0&br=312&bt=156&ds=5&ft=.cwOVInz7ThMwqvOXq8Zmo&qs=13&rc=amZnaHE5cnBydjUzNzhoM0BpamZnaHE5cnBydjUzNzhoM0BiL14zMmQ0c2pgLS1kLjZzYSNiL14zMmQ0c2pgLS1kLjZzcw%3D%3D&vvpl=1&l=02173103917641900000000000000000000ffff0a0088d433601a&btag=e00070000&format=mp3&mime_type=audio_mpeg",
        "source_timerange": {
            "start_offset": 4.76400000000001,
            "end_offset": 6.352000000000013
        },
        "target_timerange": {
            "start_offset": 315.252,
            "end_offset": 316.84000000000003
        },
        "ignore_audio": true,
        "audio_path": null
    },
    {
        "segment_id": "c84533089d8711ef833bb8cef692109a",
        "text": "many, I have more than I ever",
        "audio_url": "https://v16m-default.akamaized.net/3c0c1882ba78aec1e70e5a6316e3de32/672de441/video/tos/maliva/tos-maliva-v-f15faa-us/oMlQMEy3PA2ACAijiR8EMt52UV4ZBSPY9TjdA/?a=7073&bti=OTU0QDItLmA%3D&ch=0&cr=0&dr=4&er=0&lr=unwatermarked&cd=0%7C0%7C0%7C0&br=312&bt=156&ds=5&ft=.cwOVInz7ThMwqvOXq8Zmo&qs=13&rc=amZnaHE5cnBydjUzNzhoM0BpamZnaHE5cnBydjUzNzhoM0BiL14zMmQ0c2pgLS1kLjZzYSNiL14zMmQ0c2pgLS1kLjZzcw%3D%3D&vvpl=1&l=02173103917641900000000000000000000ffff0a0088d433601a&btag=e00070000&format=mp3&mime_type=audio_mpeg",
        "source_timerange": {
            "start_offset": 6.352000000000032,
            "end_offset": 7.939999999999978
        },
        "target_timerange": {
            "start_offset": 316.84000000000003,
            "end_offset": 318.428
        },
        "ignore_audio": true,
        "audio_path": null
    },
    {
        "segment_id": "c84534f29d8711ef833bb8cef692109a",
        "text": "looked into.”",
        "audio_url": "https://v16m-default.akamaized.net/3c0c1882ba78aec1e70e5a6316e3de32/672de441/video/tos/maliva/tos-maliva-v-f15faa-us/oMlQMEy3PA2ACAijiR8EMt52UV4ZBSPY9TjdA/?a=7073&bti=OTU0QDItLmA%3D&ch=0&cr=0&dr=4&er=0&lr=unwatermarked&cd=0%7C0%7C0%7C0&br=312&bt=156&ds=5&ft=.cwOVInz7ThMwqvOXq8Zmo&qs=13&rc=amZnaHE5cnBydjUzNzhoM0BpamZnaHE5cnBydjUzNzhoM0BiL14zMmQ0c2pgLS1kLjZzYSNiL14zMmQ0c2pgLS1kLjZzcw%3D%3D&vvpl=1&l=02173103917641900000000000000000000ffff0a0088d433601a&btag=e00070000&format=mp3&mime_type=audio_mpeg",
        "source_timerange": {
            "start_offset": 7.939999999999998,
            "end_offset": 9.528
        },
        "target_timerange": {
            "start_offset": 318.428,
            "end_offset": 320.016
        },
        "ignore_audio": true,
        "audio_path": null
    },
    {
        "segment_id": "c8454b229d8711ef833bb8cef692109a",
        "text": "Elizabeth assured him that she",
        "audio_url": "https://v16m-default.akamaized.net/eb1df801ddbc3cd4fb0d3950986569c3/672de43c/video/tos/maliva/tos-maliva-v-f15faa-us/ooIAIkfej7bI8PFWxHtceALeqAmGJBAFuTzHbE/?a=7073&bti=OTU0QDItLmA%3D&ch=0&cr=0&dr=4&er=0&lr=unwatermarked&cd=0%7C0%7C0%7C0&br=312&bt=156&ds=5&ft=.cwOVInz7ThMwqvOXq8Zmo&qs=13&rc=amdya3Y5cnBydjUzNzhoM0Bpamdya3Y5cnBydjUzNzhoM0BuZzRzMmQ0c2pgLS1kLjZzYSNuZzRzMmQ0c2pgLS1kLjZzcw%3D%3D&vvpl=1&l=02173103917641900000000000000000000ffff0a0088d433601a&btag=e00070000&format=mp3&mime_type=audio_mpeg",
        "source_timerange": {
            "start_offset": 0,
            "end_offset": 1.36800000000001
        },
        "target_timerange": {
            "start_offset": 320.016,
            "end_offset": 321.384
        },
        "ignore_audio": false,
        "audio_path": null
    },
    {
        "segment_id": "c8454d0c9d8711ef833bb8cef692109a",
        "text": "could suit herself perfectly",
        "audio_url": "https://v16m-default.akamaized.net/eb1df801ddbc3cd4fb0d3950986569c3/672de43c/video/tos/maliva/tos-maliva-v-f15faa-us/ooIAIkfej7bI8PFWxHtceALeqAmGJBAFuTzHbE/?a=7073&bti=OTU0QDItLmA%3D&ch=0&cr=0&dr=4&er=0&lr=unwatermarked&cd=0%7C0%7C0%7C0&br=312&bt=156&ds=5&ft=.cwOVInz7ThMwqvOXq8Zmo&qs=13&rc=amdya3Y5cnBydjUzNzhoM0Bpamdya3Y5cnBydjUzNzhoM0BuZzRzMmQ0c2pgLS1kLjZzYSNuZzRzMmQ0c2pgLS1kLjZzcw%3D%3D&vvpl=1&l=02173103917641900000000000000000000ffff0a0088d433601a&btag=e00070000&format=mp3&mime_type=audio_mpeg",
        "source_timerange": {
            "start_offset": 1.367999999999995,
            "end_offset": 2.736000000000005
        },
        "target_timerange": {
            "start_offset": 321.384,
            "end_offset": 322.752
        },
        "ignore_audio": true,
        "audio_path": null
    },
    {
        "segment_id": "c8454e929d8711ef833bb8cef692109a",
        "text": "with those in the room.",
        "audio_url": "https://v16m-default.akamaized.net/eb1df801ddbc3cd4fb0d3950986569c3/672de43c/video/tos/maliva/tos-maliva-v-f15faa-us/ooIAIkfej7bI8PFWxHtceALeqAmGJBAFuTzHbE/?a=7073&bti=OTU0QDItLmA%3D&ch=0&cr=0&dr=4&er=0&lr=unwatermarked&cd=0%7C0%7C0%7C0&br=312&bt=156&ds=5&ft=.cwOVInz7ThMwqvOXq8Zmo&qs=13&rc=amdya3Y5cnBydjUzNzhoM0Bpamdya3Y5cnBydjUzNzhoM0BuZzRzMmQ0c2pgLS1kLjZzYSNuZzRzMmQ0c2pgLS1kLjZzcw%3D%3D&vvpl=1&l=02173103917641900000000000000000000ffff0a0088d433601a&btag=e00070000&format=mp3&mime_type=audio_mpeg",
        "source_timerange": {
            "start_offset": 2.73599999999999,
            "end_offset": 4.104
        },
        "target_timerange": {
            "start_offset": 322.752,
            "end_offset": 324.12
        },
        "ignore_audio": true,
        "audio_path": null
    },
    {
        "segment_id": "c8456ab29d8711ef833bb8cef692109a",
        "text": "“I am astonished,” said Miss",
        "audio_url": "https://v16m-default.akamaized.net/7c832358071d2cd6f3c220230a5693bf/672de43d/video/tos/maliva/tos-maliva-v-f15faa-us/o84gVtZBi0dj02CCAASA2aQEjRPPAyidSUE9z/?a=7073&bti=OTU0QDItLmA%3D&ch=0&cr=0&dr=4&er=0&lr=unwatermarked&cd=0%7C0%7C0%7C0&br=312&bt=156&ds=5&ft=.cwOVInz7ThMwqvOXq8Zmo&qs=13&rc=amxram45cnBydjUzNzhoM0Bpamxram45cnBydjUzNzhoM0BiaGpiMmQ0c2pgLS1kLjZzYSNiaGpiMmQ0c2pgLS1kLjZzcw%3D%3D&vvpl=1&l=02173103917641900000000000000000000ffff0a0088d433601a&btag=e00070000&format=mp3&mime_type=audio_mpeg",
        "source_timerange": {
            "start_offset": 0,
            "end_offset": 1.380000000000014
        },
        "target_timerange": {
            "start_offset": 324.12,
            "end_offset": 325.5
        },
        "ignore_audio": false,
        "audio_path": null
    },
    {
        "segment_id": "c8456ca69d8711ef833bb8cef692109a",
        "text": "Bingley, “that my father",
        "audio_url": "https://v16m-default.akamaized.net/7c832358071d2cd6f3c220230a5693bf/672de43d/video/tos/maliva/tos-maliva-v-f15faa-us/o84gVtZBi0dj02CCAASA2aQEjRPPAyidSUE9z/?a=7073&bti=OTU0QDItLmA%3D&ch=0&cr=0&dr=4&er=0&lr=unwatermarked&cd=0%7C0%7C0%7C0&br=312&bt=156&ds=5&ft=.cwOVInz7ThMwqvOXq8Zmo&qs=13&rc=amxram45cnBydjUzNzhoM0Bpamxram45cnBydjUzNzhoM0BiaGpiMmQ0c2pgLS1kLjZzYSNiaGpiMmQ0c2pgLS1kLjZzcw%3D%3D&vvpl=1&l=02173103917641900000000000000000000ffff0a0088d433601a&btag=e00070000&format=mp3&mime_type=audio_mpeg",
        "source_timerange": {
            "start_offset": 1.3799999999999955,
            "end_offset": 2.7600000000000096
        },
        "target_timerange": {
            "start_offset": 325.5,
            "end_offset": 326.88
        },
        "ignore_audio": true,
        "audio_path": null
    },
    {
        "segment_id": "c8456fbc9d8711ef833bb8cef692109a",
        "text": "should have left so small a",
        "audio_url": "https://v16m-default.akamaized.net/7c832358071d2cd6f3c220230a5693bf/672de43d/video/tos/maliva/tos-maliva-v-f15faa-us/o84gVtZBi0dj02CCAASA2aQEjRPPAyidSUE9z/?a=7073&bti=OTU0QDItLmA%3D&ch=0&cr=0&dr=4&er=0&lr=unwatermarked&cd=0%7C0%7C0%7C0&br=312&bt=156&ds=5&ft=.cwOVInz7ThMwqvOXq8Zmo&qs=13&rc=amxram45cnBydjUzNzhoM0Bpamxram45cnBydjUzNzhoM0BiaGpiMmQ0c2pgLS1kLjZzYSNiaGpiMmQ0c2pgLS1kLjZzcw%3D%3D&vvpl=1&l=02173103917641900000000000000000000ffff0a0088d433601a&btag=e00070000&format=mp3&mime_type=audio_mpeg",
        "source_timerange": {
            "start_offset": 2.759999999999991,
            "end_offset": 4.140000000000005
        },
        "target_timerange": {
            "start_offset": 326.88,
            "end_offset": 328.26
        },
        "ignore_audio": true,
        "audio_path": null
    },
    {
        "segment_id": "c845717e9d8711ef833bb8cef692109a",
        "text": "collection of books.",
        "audio_url": "https://v16m-default.akamaized.net/7c832358071d2cd6f3c220230a5693bf/672de43d/video/tos/maliva/tos-maliva-v-f15faa-us/o84gVtZBi0dj02CCAASA2aQEjRPPAyidSUE9z/?a=7073&bti=OTU0QDItLmA%3D&ch=0&cr=0&dr=4&er=0&lr=unwatermarked&cd=0%7C0%7C0%7C0&br=312&bt=156&ds=5&ft=.cwOVInz7ThMwqvOXq8Zmo&qs=13&rc=amxram45cnBydjUzNzhoM0Bpamxram45cnBydjUzNzhoM0BiaGpiMmQ0c2pgLS1kLjZzYSNiaGpiMmQ0c2pgLS1kLjZzcw%3D%3D&vvpl=1&l=02173103917641900000000000000000000ffff0a0088d433601a&btag=e00070000&format=mp3&mime_type=audio_mpeg",
        "source_timerange": {
            "start_offset": 4.139999999999986,
            "end_offset": 5.5200000000000005
        },
        "target_timerange": {
            "start_offset": 328.26,
            "end_offset": 329.64
        },
        "ignore_audio": true,
        "audio_path": null
    },
    {
        "segment_id": "c84585ce9d8711ef833bb8cef692109a",
        "text": "What a delightful library you",
        "audio_url": "https://v16m-default.akamaized.net/65ebee79c15bda368dd3a2c213ef1721/672de43b/video/tos/maliva/tos-maliva-v-f15faa-us/oUVCAEUx2mBP2ASSxAAi4EZFjttNlQUi9uiyP/?a=7073&bti=OTU0QDItLmA%3D&ch=0&cr=0&dr=4&er=0&lr=unwatermarked&cd=0%7C0%7C0%7C0&br=312&bt=156&ds=5&ft=.cwOVInz7ThMwqvOXq8Zmo&qs=13&rc=amhqPGs5cnBydjUzNzhoM0BpamhqPGs5cnBydjUzNzhoM0Avb2Y2MmQ0c2pgLS1kLjZzYSMvb2Y2MmQ0c2pgLS1kLjZzcw%3D%3D&vvpl=1&l=02173103917641900000000000000000000ffff0a0088d433601a&btag=e00070000&format=mp3&mime_type=audio_mpeg",
        "source_timerange": {
            "start_offset": 0,
            "end_offset": 1.5959999999999965
        },
        "target_timerange": {
            "start_offset": 329.64,
            "end_offset": 331.236
        },
        "ignore_audio": false,
        "audio_path": null
    },
    {
        "segment_id": "c84587b89d8711ef833bb8cef692109a",
        "text": "have at Pemberley, Mr. Darcy!”",
        "audio_url": "https://v16m-default.akamaized.net/65ebee79c15bda368dd3a2c213ef1721/672de43b/video/tos/maliva/tos-maliva-v-f15faa-us/oUVCAEUx2mBP2ASSxAAi4EZFjttNlQUi9uiyP/?a=7073&bti=OTU0QDItLmA%3D&ch=0&cr=0&dr=4&er=0&lr=unwatermarked&cd=0%7C0%7C0%7C0&br=312&bt=156&ds=5&ft=.cwOVInz7ThMwqvOXq8Zmo&qs=13&rc=amhqPGs5cnBydjUzNzhoM0BpamhqPGs5cnBydjUzNzhoM0Avb2Y2MmQ0c2pgLS1kLjZzYSMvb2Y2MmQ0c2pgLS1kLjZzcw%3D%3D&vvpl=1&l=02173103917641900000000000000000000ffff0a0088d433601a&btag=e00070000&format=mp3&mime_type=audio_mpeg",
        "source_timerange": {
            "start_offset": 1.5960000000000036,
            "end_offset": 3.192
        },
        "target_timerange": {
            "start_offset": 331.236,
            "end_offset": 332.832
        },
        "ignore_audio": true,
        "audio_path": null
    },
    {
        "segment_id": "c8459eec9d8711ef833bb8cef692109a",
        "text": "“It ought to be good,” he",
        "audio_url": "https://v16m-default.akamaized.net/c11e1d27f430ec7486c58b7526c4473a/672de43f/video/tos/maliva/tos-maliva-v-f15faa-us/okCcrADjWAxffABctx2fSjYEAJrFECOMCEgX9M/?a=7073&bti=OTU0QDItLmA%3D&ch=0&cr=0&dr=4&er=0&lr=unwatermarked&cd=0%7C0%7C0%7C0&br=312&bt=156&ds=5&ft=.cwOVInz7ThDwqvOXq8Zmo&qs=13&rc=amZqaW85cnBydjUzNzhoM0BpamZqaW85cnBydjUzNzhoM0AxbG9wMmQ0c2pgLS1kLjZzYSMxbG9wMmQ0c2pgLS1kLjZzcw%3D%3D&vvpl=1&l=02173103917641900000000000000000000ffff0a0088d433601a&btag=e00070000&format=mp3&mime_type=audio_mpeg",
        "source_timerange": {
            "start_offset": 0,
            "end_offset": 1.5599999999999952
        },
        "target_timerange": {
            "start_offset": 332.832,
            "end_offset": 334.392
        },
        "ignore_audio": false,
        "audio_path": null
    },
    {
        "segment_id": "c845a0cc9d8711ef833bb8cef692109a",
        "text": "replied: “it has been the",
        "audio_url": "https://v16m-default.akamaized.net/c11e1d27f430ec7486c58b7526c4473a/672de43f/video/tos/maliva/tos-maliva-v-f15faa-us/okCcrADjWAxffABctx2fSjYEAJrFECOMCEgX9M/?a=7073&bti=OTU0QDItLmA%3D&ch=0&cr=0&dr=4&er=0&lr=unwatermarked&cd=0%7C0%7C0%7C0&br=312&bt=156&ds=5&ft=.cwOVInz7ThDwqvOXq8Zmo&qs=13&rc=amZqaW85cnBydjUzNzhoM0BpamZqaW85cnBydjUzNzhoM0AxbG9wMmQ0c2pgLS1kLjZzYSMxbG9wMmQ0c2pgLS1kLjZzcw%3D%3D&vvpl=1&l=02173103917641900000000000000000000ffff0a0088d433601a&btag=e00070000&format=mp3&mime_type=audio_mpeg",
        "source_timerange": {
            "start_offset": 1.5600000000000023,
            "end_offset": 3.1199999999999974
        },
        "target_timerange": {
            "start_offset": 334.392,
            "end_offset": 335.952
        },
        "ignore_audio": true,
        "audio_path": null
    },
    {
        "segment_id": "c845a2709d8711ef833bb8cef692109a",
        "text": "work of many generations.”",
        "audio_url": "https://v16m-default.akamaized.net/c11e1d27f430ec7486c58b7526c4473a/672de43f/video/tos/maliva/tos-maliva-v-f15faa-us/okCcrADjWAxffABctx2fSjYEAJrFECOMCEgX9M/?a=7073&bti=OTU0QDItLmA%3D&ch=0&cr=0&dr=4&er=0&lr=unwatermarked&cd=0%7C0%7C0%7C0&br=312&bt=156&ds=5&ft=.cwOVInz7ThDwqvOXq8Zmo&qs=13&rc=amZqaW85cnBydjUzNzhoM0BpamZqaW85cnBydjUzNzhoM0AxbG9wMmQ0c2pgLS1kLjZzYSMxbG9wMmQ0c2pgLS1kLjZzcw%3D%3D&vvpl=1&l=02173103917641900000000000000000000ffff0a0088d433601a&btag=e00070000&format=mp3&mime_type=audio_mpeg",
        "source_timerange": {
            "start_offset": 3.1200000000000045,
            "end_offset": 4.68
        },
        "target_timerange": {
            "start_offset": 335.952,
            "end_offset": 337.512
        },
        "ignore_audio": true,
        "audio_path": null
    },
    {
        "segment_id": "c845b9369d8711ef833bb8cef692109a",
        "text": "“And then you have added so",
        "audio_url": "https://v16m-default.akamaized.net/15f18f5283634debfb2d9ef41ba57b5f/672de43c/video/tos/maliva/tos-maliva-v-f15faa-us/oEOASmbGYCgIxXFr1CbIw7GAAWCkgffBsfHDEW/?a=7073&bti=OTU0QDItLmA%3D&ch=0&cr=0&dr=4&er=0&lr=unwatermarked&cd=0%7C0%7C0%7C0&br=312&bt=156&ds=5&ft=.cwOVInz7ThMwqvOXq8Zmo&qs=13&rc=amo7cHQ5cnBydjUzNzhoM0Bpamo7cHQ5cnBydjUzNzhoM0Ayby9lMmQ0c2pgLS1kLjZzYSMyby9lMmQ0c2pgLS1kLjZzcw%3D%3D&vvpl=1&l=02173103917641900000000000000000000ffff0a0088d433601a&btag=e00070000&format=mp3&mime_type=audio_mpeg",
        "source_timerange": {
            "start_offset": 0,
            "end_offset": 1.3519999999999923
        },
        "target_timerange": {
            "start_offset": 337.512,
            "end_offset": 338.864
        },
        "ignore_audio": false,
        "audio_path": null
    },
    {
        "segment_id": "c845bb169d8711ef833bb8cef692109a",
        "text": "much to it yourself--you are",
        "audio_url": "https://v16m-default.akamaized.net/15f18f5283634debfb2d9ef41ba57b5f/672de43c/video/tos/maliva/tos-maliva-v-f15faa-us/oEOASmbGYCgIxXFr1CbIw7GAAWCkgffBsfHDEW/?a=7073&bti=OTU0QDItLmA%3D&ch=0&cr=0&dr=4&er=0&lr=unwatermarked&cd=0%7C0%7C0%7C0&br=312&bt=156&ds=5&ft=.cwOVInz7ThMwqvOXq8Zmo&qs=13&rc=amo7cHQ5cnBydjUzNzhoM0Bpamo7cHQ5cnBydjUzNzhoM0Ayby9lMmQ0c2pgLS1kLjZzYSMyby9lMmQ0c2pgLS1kLjZzcw%3D%3D&vvpl=1&l=02173103917641900000000000000000000ffff0a0088d433601a&btag=e00070000&format=mp3&mime_type=audio_mpeg",
        "source_timerange": {
            "start_offset": 1.3519999999999754,
            "end_offset": 2.7040000000000246
        },
        "target_timerange": {
            "start_offset": 338.864,
            "end_offset": 340.216
        },
        "ignore_audio": true,
        "audio_path": null
    },
    {
        "segment_id": "c845bf809d8711ef833bb8cef692109a",
        "text": "always buying books.”",
        "audio_url": "https://v16m-default.akamaized.net/15f18f5283634debfb2d9ef41ba57b5f/672de43c/video/tos/maliva/tos-maliva-v-f15faa-us/oEOASmbGYCgIxXFr1CbIw7GAAWCkgffBsfHDEW/?a=7073&bti=OTU0QDItLmA%3D&ch=0&cr=0&dr=4&er=0&lr=unwatermarked&cd=0%7C0%7C0%7C0&br=312&bt=156&ds=5&ft=.cwOVInz7ThMwqvOXq8Zmo&qs=13&rc=amo7cHQ5cnBydjUzNzhoM0Bpamo7cHQ5cnBydjUzNzhoM0Ayby9lMmQ0c2pgLS1kLjZzYSMyby9lMmQ0c2pgLS1kLjZzcw%3D%3D&vvpl=1&l=02173103917641900000000000000000000ffff0a0088d433601a&btag=e00070000&format=mp3&mime_type=audio_mpeg",
        "source_timerange": {
            "start_offset": 2.7040000000000077,
            "end_offset": 4.056
        },
        "target_timerange": {
            "start_offset": 340.216,
            "end_offset": 341.568
        },
        "ignore_audio": true,
        "audio_path": null
    },
    {
        "segment_id": "c845d56a9d8711ef833bb8cef692109a",
        "text": "“I cannot comprehend the",
        "audio_url": "https://v16m-default.akamaized.net/6d45770b6156a7e88bcb26dd2bd4f11d/672de43d/video/tos/maliva/tos-maliva-v-f15faa-us/ooh7bXxexSAGaEIOBWFfCCgC3HnAf8I7rADhCY/?a=7073&bti=OTU0QDItLmA%3D&ch=0&cr=0&dr=4&er=0&lr=unwatermarked&cd=0%7C0%7C0%7C0&br=312&bt=156&ds=5&ft=.cwOVInz7ThMwqvOXq8Zmo&qs=13&rc=M3Vvdmo5cnBydjUzNzhoM0BpM3Vvdmo5cnBydjUzNzhoM0BzZTJyMmQ0c2pgLS1kLjZzYSNzZTJyMmQ0c2pgLS1kLjZzcw%3D%3D&vvpl=1&l=02173103917641900000000000000000000ffff0a0088d433601a&btag=e00070000&format=mp3&mime_type=audio_mpeg",
        "source_timerange": {
            "start_offset": 0,
            "end_offset": 1.7039999999999846
        },
        "target_timerange": {
            "start_offset": 341.568,
            "end_offset": 343.272
        },
        "ignore_audio": false,
        "audio_path": null
    },
    {
        "segment_id": "c845d7049d8711ef833bb8cef692109a",
        "text": "neglect of a family library in",
        "audio_url": "https://v16m-default.akamaized.net/6d45770b6156a7e88bcb26dd2bd4f11d/672de43d/video/tos/maliva/tos-maliva-v-f15faa-us/ooh7bXxexSAGaEIOBWFfCCgC3HnAf8I7rADhCY/?a=7073&bti=OTU0QDItLmA%3D&ch=0&cr=0&dr=4&er=0&lr=unwatermarked&cd=0%7C0%7C0%7C0&br=312&bt=156&ds=5&ft=.cwOVInz7ThMwqvOXq8Zmo&qs=13&rc=M3Vvdmo5cnBydjUzNzhoM0BpM3Vvdmo5cnBydjUzNzhoM0BzZTJyMmQ0c2pgLS1kLjZzYSNzZTJyMmQ0c2pgLS1kLjZzcw%3D%3D&vvpl=1&l=02173103917641900000000000000000000ffff0a0088d433601a&btag=e00070000&format=mp3&mime_type=audio_mpeg",
        "source_timerange": {
            "start_offset": 1.7040000000000077,
            "end_offset": 3.4079999999999924
        },
        "target_timerange": {
            "start_offset": 343.272,
            "end_offset": 344.976
        },
        "ignore_audio": true,
        "audio_path": null
    },
    {
        "segment_id": "c845d8449d8711ef833bb8cef692109a",
        "text": "such days as these.”  “Neglect!",
        "audio_url": "https://v16m-default.akamaized.net/6d45770b6156a7e88bcb26dd2bd4f11d/672de43d/video/tos/maliva/tos-maliva-v-f15faa-us/ooh7bXxexSAGaEIOBWFfCCgC3HnAf8I7rADhCY/?a=7073&bti=OTU0QDItLmA%3D&ch=0&cr=0&dr=4&er=0&lr=unwatermarked&cd=0%7C0%7C0%7C0&br=312&bt=156&ds=5&ft=.cwOVInz7ThMwqvOXq8Zmo&qs=13&rc=M3Vvdmo5cnBydjUzNzhoM0BpM3Vvdmo5cnBydjUzNzhoM0BzZTJyMmQ0c2pgLS1kLjZzYSNzZTJyMmQ0c2pgLS1kLjZzcw%3D%3D&vvpl=1&l=02173103917641900000000000000000000ffff0a0088d433601a&btag=e00070000&format=mp3&mime_type=audio_mpeg",
        "source_timerange": {
            "start_offset": 3.4080000000000155,
            "end_offset": 5.112
        },
        "target_timerange": {
            "start_offset": 344.976,
            "end_offset": 346.68
        },
        "ignore_audio": true,
        "audio_path": null
    },
    {
        "segment_id": "c845ec949d8711ef833bb8cef692109a",
        "text": "I am sure you neglect nothing",
        "audio_url": "https://v16m-default.akamaized.net/ef14d0b0f22aedf2645b938b0ebb1f95/672de43c/video/tos/maliva/tos-maliva-v-f15faa-us/oYWEeWFjAKx8AftQ9cHquDkt2AEFEAfeMjjNQA/?a=7073&bti=OTU0QDItLmA%3D&ch=0&cr=0&dr=4&er=0&lr=unwatermarked&cd=0%7C0%7C0%7C0&br=312&bt=156&ds=5&ft=.cwOVInz7ThMwqvOXq8Zmo&qs=13&rc=amd3M3E5cnBydjUzNzhoM0Bpamd3M3E5cnBydjUzNzhoM0AucmluMmQ0c2pgLS1kLjZzYSMucmluMmQ0c2pgLS1kLjZzcw%3D%3D&vvpl=1&l=02173103917641900000000000000000000ffff0a0088d433601a&btag=e00070000&format=mp3&mime_type=audio_mpeg",
        "source_timerange": {
            "start_offset": 0,
            "end_offset": 1.4080000000000261
        },
        "target_timerange": {
            "start_offset": 346.68,
            "end_offset": 348.088
        },
        "ignore_audio": false,
        "audio_path": null
    },
    {
        "segment_id": "c845ee6a9d8711ef833bb8cef692109a",
        "text": "that can add to the beauties",
        "audio_url": "https://v16m-default.akamaized.net/ef14d0b0f22aedf2645b938b0ebb1f95/672de43c/video/tos/maliva/tos-maliva-v-f15faa-us/oYWEeWFjAKx8AftQ9cHquDkt2AEFEAfeMjjNQA/?a=7073&bti=OTU0QDItLmA%3D&ch=0&cr=0&dr=4&er=0&lr=unwatermarked&cd=0%7C0%7C0%7C0&br=312&bt=156&ds=5&ft=.cwOVInz7ThMwqvOXq8Zmo&qs=13&rc=amd3M3E5cnBydjUzNzhoM0Bpamd3M3E5cnBydjUzNzhoM0AucmluMmQ0c2pgLS1kLjZzYSMucmluMmQ0c2pgLS1kLjZzcw%3D%3D&vvpl=1&l=02173103917641900000000000000000000ffff0a0088d433601a&btag=e00070000&format=mp3&mime_type=audio_mpeg",
        "source_timerange": {
            "start_offset": 1.4080000000000155,
            "end_offset": 2.8159999999999847
        },
        "target_timerange": {
            "start_offset": 348.088,
            "end_offset": 349.496
        },
        "ignore_audio": true,
        "audio_path": null
    },
    {
        "segment_id": "c845efe69d8711ef833bb8cef692109a",
        "text": "of that noble place.",
        "audio_url": "https://v16m-default.akamaized.net/ef14d0b0f22aedf2645b938b0ebb1f95/672de43c/video/tos/maliva/tos-maliva-v-f15faa-us/oYWEeWFjAKx8AftQ9cHquDkt2AEFEAfeMjjNQA/?a=7073&bti=OTU0QDItLmA%3D&ch=0&cr=0&dr=4&er=0&lr=unwatermarked&cd=0%7C0%7C0%7C0&br=312&bt=156&ds=5&ft=.cwOVInz7ThMwqvOXq8Zmo&qs=13&rc=amd3M3E5cnBydjUzNzhoM0Bpamd3M3E5cnBydjUzNzhoM0AucmluMmQ0c2pgLS1kLjZzYSMucmluMmQ0c2pgLS1kLjZzcw%3D%3D&vvpl=1&l=02173103917641900000000000000000000ffff0a0088d433601a&btag=e00070000&format=mp3&mime_type=audio_mpeg",
        "source_timerange": {
            "start_offset": 2.815999999999974,
            "end_offset": 4.224
        },
        "target_timerange": {
            "start_offset": 349.496,
            "end_offset": 350.904
        },
        "ignore_audio": true,
        "audio_path": null
    },
    {
        "segment_id": "c84605a89d8711ef833bb8cef692109a",
        "text": "Charles, when you build _your_",
        "audio_url": "https://v16m-default.akamaized.net/256c46baa873806efdba31ca3946a4e5/672de43c/video/tos/maliva/tos-maliva-v-f15faa-us/oAEtEACArjrWXjDOKFAufetAaf8CYEAgS4x9C9/?a=7073&bti=OTU0QDItLmA%3D&ch=0&cr=0&dr=4&er=0&lr=unwatermarked&cd=0%7C0%7C0%7C0&br=312&bt=156&ds=5&ft=.cwOVInz7ThMwqvOXq8Zmo&qs=13&rc=M3hxang5cnBydjUzNzhoM0BpM3hxang5cnBydjUzNzhoM0BhbC8vMmQ0c2pgLS1kLjZzYSNhbC8vMmQ0c2pgLS1kLjZzcw%3D%3D&vvpl=1&l=02173103917641900000000000000000000ffff0a0088d433601a&btag=e00070000&format=mp3&mime_type=audio_mpeg",
        "source_timerange": {
            "start_offset": 0,
            "end_offset": 1.5839999999999934
        },
        "target_timerange": {
            "start_offset": 350.904,
            "end_offset": 352.488
        },
        "ignore_audio": false,
        "audio_path": null
    },
    {
        "segment_id": "c84607929d8711ef833bb8cef692109a",
        "text": "house, I wish it may be half as",
        "audio_url": "https://v16m-default.akamaized.net/256c46baa873806efdba31ca3946a4e5/672de43c/video/tos/maliva/tos-maliva-v-f15faa-us/oAEtEACArjrWXjDOKFAufetAaf8CYEAgS4x9C9/?a=7073&bti=OTU0QDItLmA%3D&ch=0&cr=0&dr=4&er=0&lr=unwatermarked&cd=0%7C0%7C0%7C0&br=312&bt=156&ds=5&ft=.cwOVInz7ThMwqvOXq8Zmo&qs=13&rc=M3hxang5cnBydjUzNzhoM0BpM3hxang5cnBydjUzNzhoM0BhbC8vMmQ0c2pgLS1kLjZzYSNhbC8vMmQ0c2pgLS1kLjZzcw%3D%3D&vvpl=1&l=02173103917641900000000000000000000ffff0a0088d433601a&btag=e00070000&format=mp3&mime_type=audio_mpeg",
        "source_timerange": {
            "start_offset": 1.5840000000000032,
            "end_offset": 3.1679999999999966
        },
        "target_timerange": {
            "start_offset": 352.488,
            "end_offset": 354.072
        },
        "ignore_audio": true,
        "audio_path": null
    },
    {
        "segment_id": "c84609229d8711ef833bb8cef692109a",
        "text": "delightful as Pemberley.”",
        "audio_url": "https://v16m-default.akamaized.net/256c46baa873806efdba31ca3946a4e5/672de43c/video/tos/maliva/tos-maliva-v-f15faa-us/oAEtEACArjrWXjDOKFAufetAaf8CYEAgS4x9C9/?a=7073&bti=OTU0QDItLmA%3D&ch=0&cr=0&dr=4&er=0&lr=unwatermarked&cd=0%7C0%7C0%7C0&br=312&bt=156&ds=5&ft=.cwOVInz7ThMwqvOXq8Zmo&qs=13&rc=M3hxang5cnBydjUzNzhoM0BpM3hxang5cnBydjUzNzhoM0BhbC8vMmQ0c2pgLS1kLjZzYSNhbC8vMmQ0c2pgLS1kLjZzcw%3D%3D&vvpl=1&l=02173103917641900000000000000000000ffff0a0088d433601a&btag=e00070000&format=mp3&mime_type=audio_mpeg",
        "source_timerange": {
            "start_offset": 3.1680000000000064,
            "end_offset": 4.752
        },
        "target_timerange": {
            "start_offset": 354.072,
            "end_offset": 355.656
        },
        "ignore_audio": true,
        "audio_path": null
    },
    {
        "segment_id": "c846132c9d8711ef833bb8cef692109a",
        "text": "“I wish it may.”",
        "audio_url": "https://v16m-default.akamaized.net/dc5575984071fe29874ba6d6094ea80c/672de439/video/tos/maliva/tos-maliva-v-f15faa-us/oIXPCi2A2kBQ9tPyPZChESFEAi0jAj4VkMUA6/?a=7073&bti=OTU0QDItLmA%3D&ch=0&cr=0&dr=4&er=0&lr=unwatermarked&cd=0%7C0%7C0%7C0&br=312&bt=156&ds=5&ft=.cwOVInz7ThMwqvOXq8Zmo&qs=13&rc=ajY7NnQ5cnBydjUzNzhoM0BpajY7NnQ5cnBydjUzNzhoM0A0Xy1uMmQ0c2pgLS1kLjZzYSM0Xy1uMmQ0c2pgLS1kLjZzcw%3D%3D&vvpl=1&l=02173103917641900000000000000000000ffff0a0088d433601a&btag=e00070000&format=mp3&mime_type=audio_mpeg",
        "source_timerange": {
            "start_offset": 0,
            "end_offset": 1.08
        },
        "target_timerange": {
            "start_offset": 355.656,
            "end_offset": 356.736
        },
        "ignore_audio": false,
        "audio_path": null
    },
    {
        "segment_id": "c8462f7e9d8711ef833bb8cef692109a",
        "text": "“But I would really advise you",
        "audio_url": "https://v16m-default.akamaized.net/a19850e02569773af71e7f53d465b482/672de43d/video/tos/maliva/tos-maliva-v-f15faa-us/oQPt2PZX02QxVUSAB2AdOHj4hiACyB9iEE9AV/?a=7073&bti=OTU0QDItLmA%3D&ch=0&cr=0&dr=4&er=0&lr=unwatermarked&cd=0%7C0%7C0%7C0&br=312&bt=156&ds=5&ft=.cwOVInz7ThMwqvOXq8Zmo&qs=13&rc=anFxbWs5cnBydjUzNzhoM0BpanFxbWs5cnBydjUzNzhoM0ByYGZiMmQ0c2pgLS1kLjZzYSNyYGZiMmQ0c2pgLS1kLjZzcw%3D%3D&vvpl=1&l=02173103917641900000000000000000000ffff0a0088d433601a&btag=e00070000&format=mp3&mime_type=audio_mpeg",
        "source_timerange": {
            "start_offset": 0,
            "end_offset": 1.3979999999999837
        },
        "target_timerange": {
            "start_offset": 356.736,
            "end_offset": 358.134
        },
        "ignore_audio": false,
        "audio_path": null
    },
    {
        "segment_id": "c84631fe9d8711ef833bb8cef692109a",
        "text": "to make your purchase in that",
        "audio_url": "https://v16m-default.akamaized.net/a19850e02569773af71e7f53d465b482/672de43d/video/tos/maliva/tos-maliva-v-f15faa-us/oQPt2PZX02QxVUSAB2AdOHj4hiACyB9iEE9AV/?a=7073&bti=OTU0QDItLmA%3D&ch=0&cr=0&dr=4&er=0&lr=unwatermarked&cd=0%7C0%7C0%7C0&br=312&bt=156&ds=5&ft=.cwOVInz7ThMwqvOXq8Zmo&qs=13&rc=anFxbWs5cnBydjUzNzhoM0BpanFxbWs5cnBydjUzNzhoM0ByYGZiMmQ0c2pgLS1kLjZzYSNyYGZiMmQ0c2pgLS1kLjZzcw%3D%3D&vvpl=1&l=02173103917641900000000000000000000ffff0a0088d433601a&btag=e00070000&format=mp3&mime_type=audio_mpeg",
        "source_timerange": {
            "start_offset": 1.3980000000000246,
            "end_offset": 2.7960000000000083
        },
        "target_timerange": {
            "start_offset": 358.134,
            "end_offset": 359.53200000000004
        },
        "ignore_audio": true,
        "audio_path": null
    },
    {
        "segment_id": "c84633c09d8711ef833bb8cef692109a",
        "text": "neighbourhood, and take",
        "audio_url": "https://v16m-default.akamaized.net/a19850e02569773af71e7f53d465b482/672de43d/video/tos/maliva/tos-maliva-v-f15faa-us/oQPt2PZX02QxVUSAB2AdOHj4hiACyB9iEE9AV/?a=7073&bti=OTU0QDItLmA%3D&ch=0&cr=0&dr=4&er=0&lr=unwatermarked&cd=0%7C0%7C0%7C0&br=312&bt=156&ds=5&ft=.cwOVInz7ThMwqvOXq8Zmo&qs=13&rc=anFxbWs5cnBydjUzNzhoM0BpanFxbWs5cnBydjUzNzhoM0ByYGZiMmQ0c2pgLS1kLjZzYSNyYGZiMmQ0c2pgLS1kLjZzcw%3D%3D&vvpl=1&l=02173103917641900000000000000000000ffff0a0088d433601a&btag=e00070000&format=mp3&mime_type=audio_mpeg",
        "source_timerange": {
            "start_offset": 2.796000000000049,
            "end_offset": 4.193999999999976
        },
        "target_timerange": {
            "start_offset": 359.53200000000004,
            "end_offset": 360.93
        },
        "ignore_audio": true,
        "audio_path": null
    },
    {
        "segment_id": "c84635789d8711ef833bb8cef692109a",
        "text": "Pemberley for a kind of model.",
        "audio_url": "https://v16m-default.akamaized.net/a19850e02569773af71e7f53d465b482/672de43d/video/tos/maliva/tos-maliva-v-f15faa-us/oQPt2PZX02QxVUSAB2AdOHj4hiACyB9iEE9AV/?a=7073&bti=OTU0QDItLmA%3D&ch=0&cr=0&dr=4&er=0&lr=unwatermarked&cd=0%7C0%7C0%7C0&br=312&bt=156&ds=5&ft=.cwOVInz7ThMwqvOXq8Zmo&qs=13&rc=anFxbWs5cnBydjUzNzhoM0BpanFxbWs5cnBydjUzNzhoM0ByYGZiMmQ0c2pgLS1kLjZzYSNyYGZiMmQ0c2pgLS1kLjZzcw%3D%3D&vvpl=1&l=02173103917641900000000000000000000ffff0a0088d433601a&btag=e00070000&format=mp3&mime_type=audio_mpeg",
        "source_timerange": {
            "start_offset": 4.194000000000017,
            "end_offset": 5.5920000000000005
        },
        "target_timerange": {
            "start_offset": 360.93,
            "end_offset": 362.32800000000003
        },
        "ignore_audio": true,
        "audio_path": null
    },
    {
        "segment_id": "c846455e9d8711ef833bb8cef692109a",
        "text": "There is not a finer county in",
        "audio_url": "https://v16m-default.akamaized.net/016b29f87d4c0b38be8aee1830d824e8/672de43b/video/tos/maliva/tos-maliva-v-f15faa-us/oACSP3BgmAEs9i6tyqkj4U4E2Vj92QAA2iAPZ/?a=7073&bti=OTU0QDItLmA%3D&ch=0&cr=0&dr=4&er=0&lr=unwatermarked&cd=0%7C0%7C0%7C0&br=312&bt=156&ds=5&ft=.cwOVInz7ThXwqvOXq8Zmo&qs=13&rc=M2R4O3Q5cnBydjUzNzhoM0BpM2R4O3Q5cnBydjUzNzhoM0BqNnJvMmQ0c2pgLS1kLjZzYSNqNnJvMmQ0c2pgLS1kLjZzcw%3D%3D&vvpl=1&l=02173103917641900000000000000000000ffff0a0088d433601a&btag=e00070000&format=mp3&mime_type=audio_mpeg",
        "source_timerange": {
            "start_offset": 0,
            "end_offset": 1.4280000000000026
        },
        "target_timerange": {
            "start_offset": 362.32800000000003,
            "end_offset": 363.75600000000003
        },
        "ignore_audio": false,
        "audio_path": null
    },
    {
        "segment_id": "c846473e9d8711ef833bb8cef692109a",
        "text": "England than Derbyshire.”",
        "audio_url": "https://v16m-default.akamaized.net/016b29f87d4c0b38be8aee1830d824e8/672de43b/video/tos/maliva/tos-maliva-v-f15faa-us/oACSP3BgmAEs9i6tyqkj4U4E2Vj92QAA2iAPZ/?a=7073&bti=OTU0QDItLmA%3D&ch=0&cr=0&dr=4&er=0&lr=unwatermarked&cd=0%7C0%7C0%7C0&br=312&bt=156&ds=5&ft=.cwOVInz7ThXwqvOXq8Zmo&qs=13&rc=M2R4O3Q5cnBydjUzNzhoM0BpM2R4O3Q5cnBydjUzNzhoM0BqNnJvMmQ0c2pgLS1kLjZzYSNqNnJvMmQ0c2pgLS1kLjZzcw%3D%3D&vvpl=1&l=02173103917641900000000000000000000ffff0a0088d433601a&btag=e00070000&format=mp3&mime_type=audio_mpeg",
        "source_timerange": {
            "start_offset": 1.4279999999999973,
            "end_offset": 2.856
        },
        "target_timerange": {
            "start_offset": 363.75600000000003,
            "end_offset": 365.184
        },
        "ignore_audio": true,
        "audio_path": null
    },
    {
        "segment_id": "c8465da09d8711ef833bb8cef692109a",
        "text": "“With all my heart: I will",
        "audio_url": "https://v16m-default.akamaized.net/0f3b9e1629256fc26ac08e78f2514b32/672de43d/video/tos/maliva/tos-maliva-v-f15faa-us/o0U9ABsvty1FJPgZFAESECij2PQVEA25GiAh4/?a=7073&bti=OTU0QDItLmA%3D&ch=0&cr=0&dr=4&er=0&lr=unwatermarked&cd=0%7C0%7C0%7C0&br=312&bt=156&ds=5&ft=.cwOVInz7ThXwqvOXq8Zmo&qs=13&rc=M2luZ3M5cnBydjUzNzhoM0BpM2luZ3M5cnBydjUzNzhoM0AwZzVqMmQ0c2pgLS1kLjZzYSMwZzVqMmQ0c2pgLS1kLjZzcw%3D%3D&vvpl=1&l=02173103917641900000000000000000000ffff0a0088d433601a&btag=e00070000&format=mp3&mime_type=audio_mpeg",
        "source_timerange": {
            "start_offset": 0,
            "end_offset": 1.4880000000000013
        },
        "target_timerange": {
            "start_offset": 365.184,
            "end_offset": 366.672
        },
        "ignore_audio": false,
        "audio_path": null
    },
    {
        "segment_id": "c8465f8a9d8711ef833bb8cef692109a",
        "text": "buy Pemberley itself, if",
        "audio_url": "https://v16m-default.akamaized.net/0f3b9e1629256fc26ac08e78f2514b32/672de43d/video/tos/maliva/tos-maliva-v-f15faa-us/o0U9ABsvty1FJPgZFAESECij2PQVEA25GiAh4/?a=7073&bti=OTU0QDItLmA%3D&ch=0&cr=0&dr=4&er=0&lr=unwatermarked&cd=0%7C0%7C0%7C0&br=312&bt=156&ds=5&ft=.cwOVInz7ThXwqvOXq8Zmo&qs=13&rc=M2luZ3M5cnBydjUzNzhoM0BpM2luZ3M5cnBydjUzNzhoM0AwZzVqMmQ0c2pgLS1kLjZzYSMwZzVqMmQ0c2pgLS1kLjZzcw%3D%3D&vvpl=1&l=02173103917641900000000000000000000ffff0a0088d433601a&btag=e00070000&format=mp3&mime_type=audio_mpeg",
        "source_timerange": {
            "start_offset": 1.4879999999999995,
            "end_offset": 2.976000000000001
        },
        "target_timerange": {
            "start_offset": 366.672,
            "end_offset": 368.16
        },
        "ignore_audio": true,
        "audio_path": null
    },
    {
        "segment_id": "c84661429d8711ef833bb8cef692109a",
        "text": "Darcy will sell it.”",
        "audio_url": "https://v16m-default.akamaized.net/0f3b9e1629256fc26ac08e78f2514b32/672de43d/video/tos/maliva/tos-maliva-v-f15faa-us/o0U9ABsvty1FJPgZFAESECij2PQVEA25GiAh4/?a=7073&bti=OTU0QDItLmA%3D&ch=0&cr=0&dr=4&er=0&lr=unwatermarked&cd=0%7C0%7C0%7C0&br=312&bt=156&ds=5&ft=.cwOVInz7ThXwqvOXq8Zmo&qs=13&rc=M2luZ3M5cnBydjUzNzhoM0BpM2luZ3M5cnBydjUzNzhoM0AwZzVqMmQ0c2pgLS1kLjZzYSMwZzVqMmQ0c2pgLS1kLjZzcw%3D%3D&vvpl=1&l=02173103917641900000000000000000000ffff0a0088d433601a&btag=e00070000&format=mp3&mime_type=audio_mpeg",
        "source_timerange": {
            "start_offset": 2.975999999999999,
            "end_offset": 4.464
        },
        "target_timerange": {
            "start_offset": 368.16,
            "end_offset": 369.648
        },
        "ignore_audio": true,
        "audio_path": null
    },
    {
        "segment_id": "c84689ec9d8711ef833bb8cef692109a",
        "text": "“I am talking of possibilities,",
        "audio_url": "https://v16m-default.akamaized.net/665a3304d866f08bc0949d33aa32ff3b/672de440/video/tos/maliva/tos-maliva-v-f15faa-us/okVCAEU22MBP2AlSJAAg4EZoj7tsoQbi9AiyP/?a=7073&bti=OTU0QDItLmA%3D&ch=0&cr=0&dr=4&er=0&lr=unwatermarked&cd=0%7C0%7C0%7C0&br=312&bt=156&ds=5&ft=.cwOVInz7ThXwqvOXq8Zmo&qs=13&rc=MzNobXA5cnBydjUzNzhoM0BpMzNobXA5cnBydjUzNzhoM0BobDBmMmQ0c2pgLS1kLjZzYSNobDBmMmQ0c2pgLS1kLjZzcw%3D%3D&vvpl=1&l=02173103917641900000000000000000000ffff0a0088d433601a&btag=e00070000&format=mp3&mime_type=audio_mpeg",
        "source_timerange": {
            "start_offset": 0,
            "end_offset": 1.588800000000032
        },
        "target_timerange": {
            "start_offset": 369.648,
            "end_offset": 371.2368
        },
        "ignore_audio": false,
        "audio_path": null
    },
    {
        "segment_id": "c8468bd69d8711ef833bb8cef692109a",
        "text": "Charles.”  “Upon my word,",
        "audio_url": "https://v16m-default.akamaized.net/665a3304d866f08bc0949d33aa32ff3b/672de440/video/tos/maliva/tos-maliva-v-f15faa-us/okVCAEU22MBP2AlSJAAg4EZoj7tsoQbi9AiyP/?a=7073&bti=OTU0QDItLmA%3D&ch=0&cr=0&dr=4&er=0&lr=unwatermarked&cd=0%7C0%7C0%7C0&br=312&bt=156&ds=5&ft=.cwOVInz7ThXwqvOXq8Zmo&qs=13&rc=MzNobXA5cnBydjUzNzhoM0BpMzNobXA5cnBydjUzNzhoM0BobDBmMmQ0c2pgLS1kLjZzYSNobDBmMmQ0c2pgLS1kLjZzcw%3D%3D&vvpl=1&l=02173103917641900000000000000000000ffff0a0088d433601a&btag=e00070000&format=mp3&mime_type=audio_mpeg",
        "source_timerange": {
            "start_offset": 1.588799999999992,
            "end_offset": 3.177600000000024
        },
        "target_timerange": {
            "start_offset": 371.2368,
            "end_offset": 372.8256
        },
        "ignore_audio": true,
        "audio_path": null
    },
    {
        "segment_id": "c8468d709d8711ef833bb8cef692109a",
        "text": "Caroline, I should think it more",
        "audio_url": "https://v16m-default.akamaized.net/665a3304d866f08bc0949d33aa32ff3b/672de440/video/tos/maliva/tos-maliva-v-f15faa-us/okVCAEU22MBP2AlSJAAg4EZoj7tsoQbi9AiyP/?a=7073&bti=OTU0QDItLmA%3D&ch=0&cr=0&dr=4&er=0&lr=unwatermarked&cd=0%7C0%7C0%7C0&br=312&bt=156&ds=5&ft=.cwOVInz7ThXwqvOXq8Zmo&qs=13&rc=MzNobXA5cnBydjUzNzhoM0BpMzNobXA5cnBydjUzNzhoM0BobDBmMmQ0c2pgLS1kLjZzYSNobDBmMmQ0c2pgLS1kLjZzcw%3D%3D&vvpl=1&l=02173103917641900000000000000000000ffff0a0088d433601a&btag=e00070000&format=mp3&mime_type=audio_mpeg",
        "source_timerange": {
            "start_offset": 3.177599999999984,
            "end_offset": 4.766400000000016
        },
        "target_timerange": {
            "start_offset": 372.8256,
            "end_offset": 374.4144
        },
        "ignore_audio": true,
        "audio_path": null
    },
    {
        "segment_id": "c8468ef69d8711ef833bb8cef692109a",
        "text": "possible to get Pemberley by",
        "audio_url": "https://v16m-default.akamaized.net/665a3304d866f08bc0949d33aa32ff3b/672de440/video/tos/maliva/tos-maliva-v-f15faa-us/okVCAEU22MBP2AlSJAAg4EZoj7tsoQbi9AiyP/?a=7073&bti=OTU0QDItLmA%3D&ch=0&cr=0&dr=4&er=0&lr=unwatermarked&cd=0%7C0%7C0%7C0&br=312&bt=156&ds=5&ft=.cwOVInz7ThXwqvOXq8Zmo&qs=13&rc=MzNobXA5cnBydjUzNzhoM0BpMzNobXA5cnBydjUzNzhoM0BobDBmMmQ0c2pgLS1kLjZzYSNobDBmMmQ0c2pgLS1kLjZzcw%3D%3D&vvpl=1&l=02173103917641900000000000000000000ffff0a0088d433601a&btag=e00070000&format=mp3&mime_type=audio_mpeg",
        "source_timerange": {
            "start_offset": 4.766399999999976,
            "end_offset": 6.355200000000008
        },
        "target_timerange": {
            "start_offset": 374.4144,
            "end_offset": 376.0032
        },
        "ignore_audio": true,
        "audio_path": null
    },
    {
        "segment_id": "c846907c9d8711ef833bb8cef692109a",
        "text": "purchase than by imitation.”",
        "audio_url": "https://v16m-default.akamaized.net/665a3304d866f08bc0949d33aa32ff3b/672de440/video/tos/maliva/tos-maliva-v-f15faa-us/okVCAEU22MBP2AlSJAAg4EZoj7tsoQbi9AiyP/?a=7073&bti=OTU0QDItLmA%3D&ch=0&cr=0&dr=4&er=0&lr=unwatermarked&cd=0%7C0%7C0%7C0&br=312&bt=156&ds=5&ft=.cwOVInz7ThXwqvOXq8Zmo&qs=13&rc=MzNobXA5cnBydjUzNzhoM0BpMzNobXA5cnBydjUzNzhoM0BobDBmMmQ0c2pgLS1kLjZzYSNobDBmMmQ0c2pgLS1kLjZzcw%3D%3D&vvpl=1&l=02173103917641900000000000000000000ffff0a0088d433601a&btag=e00070000&format=mp3&mime_type=audio_mpeg",
        "source_timerange": {
            "start_offset": 6.355199999999968,
            "end_offset": 7.944
        },
        "target_timerange": {
            "start_offset": 376.0032,
            "end_offset": 377.592
        },
        "ignore_audio": true,
        "audio_path": null
    },
    {
        "segment_id": "c846c7b89d8711ef833bb8cef692109a",
        "text": "Elizabeth was so much caught",
        "audio_url": "https://v16m-default.akamaized.net/13125777bdcc457d66dfaf0da2badcf9/672de447/video/tos/maliva/tos-maliva-v-f15faa-us/ogZ2jAhlkE3VR9EAyU9iSQY2BPDlAAit4yFCP/?a=7073&bti=OTU0QDItLmA%3D&ch=0&cr=0&dr=4&er=0&lr=unwatermarked&cd=0%7C0%7C0%7C0&br=312&bt=156&ds=5&ft=.cwOVInz7ThXwqvOXq8Zmo&qs=13&rc=ams1c3c5cnBydjUzNzhoM0Bpams1c3c5cnBydjUzNzhoM0AuXl9vMmQ0c2pgLS1kLjZzYSMuXl9vMmQ0c2pgLS1kLjZzcw%3D%3D&vvpl=1&l=02173103917641900000000000000000000ffff0a0088d433601a&btag=e00070000&format=mp3&mime_type=audio_mpeg",
        "source_timerange": {
            "start_offset": 0,
            "end_offset": 1.575999999999997
        },
        "target_timerange": {
            "start_offset": 377.592,
            "end_offset": 379.168
        },
        "ignore_audio": false,
        "audio_path": null
    },
    {
        "segment_id": "c846c9c09d8711ef833bb8cef692109a",
        "text": "by what passed, as to leave",
        "audio_url": "https://v16m-default.akamaized.net/13125777bdcc457d66dfaf0da2badcf9/672de447/video/tos/maliva/tos-maliva-v-f15faa-us/ogZ2jAhlkE3VR9EAyU9iSQY2BPDlAAit4yFCP/?a=7073&bti=OTU0QDItLmA%3D&ch=0&cr=0&dr=4&er=0&lr=unwatermarked&cd=0%7C0%7C0%7C0&br=312&bt=156&ds=5&ft=.cwOVInz7ThXwqvOXq8Zmo&qs=13&rc=ams1c3c5cnBydjUzNzhoM0Bpams1c3c5cnBydjUzNzhoM0AuXl9vMmQ0c2pgLS1kLjZzYSMuXl9vMmQ0c2pgLS1kLjZzcw%3D%3D&vvpl=1&l=02173103917641900000000000000000000ffff0a0088d433601a&btag=e00070000&format=mp3&mime_type=audio_mpeg",
        "source_timerange": {
            "start_offset": 1.5760000000000218,
            "end_offset": 3.151999999999962
        },
        "target_timerange": {
            "start_offset": 379.168,
            "end_offset": 380.74399999999997
        },
        "ignore_audio": true,
        "audio_path": null
    },
    {
        "segment_id": "c846cb6e9d8711ef833bb8cef692109a",
        "text": "her very little attention for",
        "audio_url": "https://v16m-default.akamaized.net/13125777bdcc457d66dfaf0da2badcf9/672de447/video/tos/maliva/tos-maliva-v-f15faa-us/ogZ2jAhlkE3VR9EAyU9iSQY2BPDlAAit4yFCP/?a=7073&bti=OTU0QDItLmA%3D&ch=0&cr=0&dr=4&er=0&lr=unwatermarked&cd=0%7C0%7C0%7C0&br=312&bt=156&ds=5&ft=.cwOVInz7ThXwqvOXq8Zmo&qs=13&rc=ams1c3c5cnBydjUzNzhoM0Bpams1c3c5cnBydjUzNzhoM0AuXl9vMmQ0c2pgLS1kLjZzYSMuXl9vMmQ0c2pgLS1kLjZzcw%3D%3D&vvpl=1&l=02173103917641900000000000000000000ffff0a0088d433601a&btag=e00070000&format=mp3&mime_type=audio_mpeg",
        "source_timerange": {
            "start_offset": 3.151999999999987,
            "end_offset": 4.727999999999984
        },
        "target_timerange": {
            "start_offset": 380.74399999999997,
            "end_offset": 382.32
        },
        "ignore_audio": true,
        "audio_path": null
    },
    {
        "segment_id": "c846ccf49d8711ef833bb8cef692109a",
        "text": "her book; and, soon laying it",
        "audio_url": "https://v16m-default.akamaized.net/13125777bdcc457d66dfaf0da2badcf9/672de447/video/tos/maliva/tos-maliva-v-f15faa-us/ogZ2jAhlkE3VR9EAyU9iSQY2BPDlAAit4yFCP/?a=7073&bti=OTU0QDItLmA%3D&ch=0&cr=0&dr=4&er=0&lr=unwatermarked&cd=0%7C0%7C0%7C0&br=312&bt=156&ds=5&ft=.cwOVInz7ThXwqvOXq8Zmo&qs=13&rc=ams1c3c5cnBydjUzNzhoM0Bpams1c3c5cnBydjUzNzhoM0AuXl9vMmQ0c2pgLS1kLjZzYSMuXl9vMmQ0c2pgLS1kLjZzcw%3D%3D&vvpl=1&l=02173103917641900000000000000000000ffff0a0088d433601a&btag=e00070000&format=mp3&mime_type=audio_mpeg",
        "source_timerange": {
            "start_offset": 4.728000000000009,
            "end_offset": 6.304000000000006
        },
        "target_timerange": {
            "start_offset": 382.32,
            "end_offset": 383.896
        },
        "ignore_audio": true,
        "audio_path": null
    },
    {
        "segment_id": "c846cf749d8711ef833bb8cef692109a",
        "text": "wholly aside, she drew near",
        "audio_url": "https://v16m-default.akamaized.net/13125777bdcc457d66dfaf0da2badcf9/672de447/video/tos/maliva/tos-maliva-v-f15faa-us/ogZ2jAhlkE3VR9EAyU9iSQY2BPDlAAit4yFCP/?a=7073&bti=OTU0QDItLmA%3D&ch=0&cr=0&dr=4&er=0&lr=unwatermarked&cd=0%7C0%7C0%7C0&br=312&bt=156&ds=5&ft=.cwOVInz7ThXwqvOXq8Zmo&qs=13&rc=ams1c3c5cnBydjUzNzhoM0Bpams1c3c5cnBydjUzNzhoM0AuXl9vMmQ0c2pgLS1kLjZzYSMuXl9vMmQ0c2pgLS1kLjZzcw%3D%3D&vvpl=1&l=02173103917641900000000000000000000ffff0a0088d433601a&btag=e00070000&format=mp3&mime_type=audio_mpeg",
        "source_timerange": {
            "start_offset": 6.3040000000000305,
            "end_offset": 7.879999999999971
        },
        "target_timerange": {
            "start_offset": 383.896,
            "end_offset": 385.472
        },
        "ignore_audio": true,
        "audio_path": null
    },
    {
        "segment_id": "c846d1369d8711ef833bb8cef692109a",
        "text": "the card-table, and stationed",
        "audio_url": "https://v16m-default.akamaized.net/13125777bdcc457d66dfaf0da2badcf9/672de447/video/tos/maliva/tos-maliva-v-f15faa-us/ogZ2jAhlkE3VR9EAyU9iSQY2BPDlAAit4yFCP/?a=7073&bti=OTU0QDItLmA%3D&ch=0&cr=0&dr=4&er=0&lr=unwatermarked&cd=0%7C0%7C0%7C0&br=312&bt=156&ds=5&ft=.cwOVInz7ThXwqvOXq8Zmo&qs=13&rc=ams1c3c5cnBydjUzNzhoM0Bpams1c3c5cnBydjUzNzhoM0AuXl9vMmQ0c2pgLS1kLjZzYSMuXl9vMmQ0c2pgLS1kLjZzcw%3D%3D&vvpl=1&l=02173103917641900000000000000000000ffff0a0088d433601a&btag=e00070000&format=mp3&mime_type=audio_mpeg",
        "source_timerange": {
            "start_offset": 7.8799999999999955,
            "end_offset": 9.455999999999992
        },
        "target_timerange": {
            "start_offset": 385.472,
            "end_offset": 387.048
        },
        "ignore_audio": true,
        "audio_path": null
    },
    {
        "segment_id": "c846d2ee9d8711ef833bb8cef692109a",
        "text": "herself between Mr. Bingley",
        "audio_url": "https://v16m-default.akamaized.net/13125777bdcc457d66dfaf0da2badcf9/672de447/video/tos/maliva/tos-maliva-v-f15faa-us/ogZ2jAhlkE3VR9EAyU9iSQY2BPDlAAit4yFCP/?a=7073&bti=OTU0QDItLmA%3D&ch=0&cr=0&dr=4&er=0&lr=unwatermarked&cd=0%7C0%7C0%7C0&br=312&bt=156&ds=5&ft=.cwOVInz7ThXwqvOXq8Zmo&qs=13&rc=ams1c3c5cnBydjUzNzhoM0Bpams1c3c5cnBydjUzNzhoM0AuXl9vMmQ0c2pgLS1kLjZzYSMuXl9vMmQ0c2pgLS1kLjZzcw%3D%3D&vvpl=1&l=02173103917641900000000000000000000ffff0a0088d433601a&btag=e00070000&format=mp3&mime_type=audio_mpeg",
        "source_timerange": {
            "start_offset": 9.456000000000017,
            "end_offset": 11.032000000000014
        },
        "target_timerange": {
            "start_offset": 387.048,
            "end_offset": 388.624
        },
        "ignore_audio": true,
        "audio_path": null
    },
    {
        "segment_id": "c846d4749d8711ef833bb8cef692109a",
        "text": "and his eldest sister, to",
        "audio_url": "https://v16m-default.akamaized.net/13125777bdcc457d66dfaf0da2badcf9/672de447/video/tos/maliva/tos-maliva-v-f15faa-us/ogZ2jAhlkE3VR9EAyU9iSQY2BPDlAAit4yFCP/?a=7073&bti=OTU0QDItLmA%3D&ch=0&cr=0&dr=4&er=0&lr=unwatermarked&cd=0%7C0%7C0%7C0&br=312&bt=156&ds=5&ft=.cwOVInz7ThXwqvOXq8Zmo&qs=13&rc=ams1c3c5cnBydjUzNzhoM0Bpams1c3c5cnBydjUzNzhoM0AuXl9vMmQ0c2pgLS1kLjZzYSMuXl9vMmQ0c2pgLS1kLjZzcw%3D%3D&vvpl=1&l=02173103917641900000000000000000000ffff0a0088d433601a&btag=e00070000&format=mp3&mime_type=audio_mpeg",
        "source_timerange": {
            "start_offset": 11.032000000000039,
            "end_offset": 12.60799999999998
        },
        "target_timerange": {
            "start_offset": 388.624,
            "end_offset": 390.2
        },
        "ignore_audio": true,
        "audio_path": null
    },
    {
        "segment_id": "c846d6189d8711ef833bb8cef692109a",
        "text": "observe the game.",
        "audio_url": "https://v16m-default.akamaized.net/13125777bdcc457d66dfaf0da2badcf9/672de447/video/tos/maliva/tos-maliva-v-f15faa-us/ogZ2jAhlkE3VR9EAyU9iSQY2BPDlAAit4yFCP/?a=7073&bti=OTU0QDItLmA%3D&ch=0&cr=0&dr=4&er=0&lr=unwatermarked&cd=0%7C0%7C0%7C0&br=312&bt=156&ds=5&ft=.cwOVInz7ThXwqvOXq8Zmo&qs=13&rc=ams1c3c5cnBydjUzNzhoM0Bpams1c3c5cnBydjUzNzhoM0AuXl9vMmQ0c2pgLS1kLjZzYSMuXl9vMmQ0c2pgLS1kLjZzcw%3D%3D&vvpl=1&l=02173103917641900000000000000000000ffff0a0088d433601a&btag=e00070000&format=mp3&mime_type=audio_mpeg",
        "source_timerange": {
            "start_offset": 12.608000000000004,
            "end_offset": 14.184000000000001
        },
        "target_timerange": {
            "start_offset": 390.2,
            "end_offset": 391.776
        },
        "ignore_audio": true,
        "audio_path": null
    },
    {
        "segment_id": "c846f1c09d8711ef833bb8cef692109a",
        "text": "“Is Miss Darcy much grown since",
        "audio_url": "https://v16m-default.akamaized.net/4b7723def2b30306fdef3ee40b276753/672de43f/video/tos/maliva/tos-maliva-v-f15faa-us/ooUSPXZEQ98iAP2xVjU2yAZgiA0ptNCiBEFA4/?a=7073&bti=OTU0QDItLmA%3D&ch=0&cr=0&dr=4&er=0&lr=unwatermarked&cd=0%7C0%7C0%7C0&br=312&bt=156&ds=5&ft=.cwOVInz7ThXwqvOXq8Zmo&qs=13&rc=M3FwbWs5cnBydjUzNzhoM0BpM3FwbWs5cnBydjUzNzhoM0BkZjVgMmQ0c2pgLS1kLjZzYSNkZjVgMmQ0c2pgLS1kLjZzcw%3D%3D&vvpl=1&l=02173103917641900000000000000000000ffff0a0088d433601a&btag=e00070000&format=mp3&mime_type=audio_mpeg",
        "source_timerange": {
            "start_offset": 0,
            "end_offset": 1.5540000000000225
        },
        "target_timerange": {
            "start_offset": 391.776,
            "end_offset": 393.33000000000004
        },
        "ignore_audio": false,
        "audio_path": null
    },
    {
        "segment_id": "c846f3c89d8711ef833bb8cef692109a",
        "text": "the spring?” said Miss Bingley:",
        "audio_url": "https://v16m-default.akamaized.net/4b7723def2b30306fdef3ee40b276753/672de43f/video/tos/maliva/tos-maliva-v-f15faa-us/ooUSPXZEQ98iAP2xVjU2yAZgiA0ptNCiBEFA4/?a=7073&bti=OTU0QDItLmA%3D&ch=0&cr=0&dr=4&er=0&lr=unwatermarked&cd=0%7C0%7C0%7C0&br=312&bt=156&ds=5&ft=.cwOVInz7ThXwqvOXq8Zmo&qs=13&rc=M3FwbWs5cnBydjUzNzhoM0BpM3FwbWs5cnBydjUzNzhoM0BkZjVgMmQ0c2pgLS1kLjZzYSNkZjVgMmQ0c2pgLS1kLjZzcw%3D%3D&vvpl=1&l=02173103917641900000000000000000000ffff0a0088d433601a&btag=e00070000&format=mp3&mime_type=audio_mpeg",
        "source_timerange": {
            "start_offset": 1.5540000000000305,
            "end_offset": 3.107999999999996
        },
        "target_timerange": {
            "start_offset": 393.33000000000004,
            "end_offset": 394.884
        },
        "ignore_audio": true,
        "audio_path": null
    },
    {
        "segment_id": "c846f6b69d8711ef833bb8cef692109a",
        "text": "“will she be as tall as I am?”",
        "audio_url": "https://v16m-default.akamaized.net/4b7723def2b30306fdef3ee40b276753/672de43f/video/tos/maliva/tos-maliva-v-f15faa-us/ooUSPXZEQ98iAP2xVjU2yAZgiA0ptNCiBEFA4/?a=7073&bti=OTU0QDItLmA%3D&ch=0&cr=0&dr=4&er=0&lr=unwatermarked&cd=0%7C0%7C0%7C0&br=312&bt=156&ds=5&ft=.cwOVInz7ThXwqvOXq8Zmo&qs=13&rc=M3FwbWs5cnBydjUzNzhoM0BpM3FwbWs5cnBydjUzNzhoM0BkZjVgMmQ0c2pgLS1kLjZzYSNkZjVgMmQ0c2pgLS1kLjZzcw%3D%3D&vvpl=1&l=02173103917641900000000000000000000ffff0a0088d433601a&btag=e00070000&format=mp3&mime_type=audio_mpeg",
        "source_timerange": {
            "start_offset": 3.108000000000004,
            "end_offset": 4.66199999999997
        },
        "target_timerange": {
            "start_offset": 394.884,
            "end_offset": 396.438
        },
        "ignore_audio": true,
        "audio_path": null
    },
    {
        "segment_id": "c846f85a9d8711ef833bb8cef692109a",
        "text": "“I think she will.",
        "audio_url": "https://v16m-default.akamaized.net/4b7723def2b30306fdef3ee40b276753/672de43f/video/tos/maliva/tos-maliva-v-f15faa-us/ooUSPXZEQ98iAP2xVjU2yAZgiA0ptNCiBEFA4/?a=7073&bti=OTU0QDItLmA%3D&ch=0&cr=0&dr=4&er=0&lr=unwatermarked&cd=0%7C0%7C0%7C0&br=312&bt=156&ds=5&ft=.cwOVInz7ThXwqvOXq8Zmo&qs=13&rc=M3FwbWs5cnBydjUzNzhoM0BpM3FwbWs5cnBydjUzNzhoM0BkZjVgMmQ0c2pgLS1kLjZzYSNkZjVgMmQ0c2pgLS1kLjZzcw%3D%3D&vvpl=1&l=02173103917641900000000000000000000ffff0a0088d433601a&btag=e00070000&format=mp3&mime_type=audio_mpeg",
        "source_timerange": {
            "start_offset": 4.661999999999978,
            "end_offset": 6.216
        },
        "target_timerange": {
            "start_offset": 396.438,
            "end_offset": 397.992
        },
        "ignore_audio": true,
        "audio_path": null
    },
    {
        "segment_id": "c8470cdc9d8711ef833bb8cef692109a",
        "text": "She is now about Miss Elizabeth",
        "audio_url": "https://v16m-default.akamaized.net/249579eb626554dd28c5bda8b10b2931/672de43c/video/tos/maliva/tos-maliva-v-f15faa-us/osEtEACArjXWXiDORFAVfX7eQf1CYEAgSvx9C9/?a=7073&bti=OTU0QDItLmA%3D&ch=0&cr=0&dr=4&er=0&lr=unwatermarked&cd=0%7C0%7C0%7C0&br=312&bt=156&ds=5&ft=.cwOVInz7ThXwqvOXq8Zmo&qs=13&rc=M3F4aXQ5cnBydjUzNzhoM0BpM3F4aXQ5cnBydjUzNzhoM0A1cmZoMmQ0c2pgLS1kLjZzYSM1cmZoMmQ0c2pgLS1kLjZzcw%3D%3D&vvpl=1&l=02173103917641900000000000000000000ffff0a0088d433601a&btag=e00070000&format=mp3&mime_type=audio_mpeg",
        "source_timerange": {
            "start_offset": 0,
            "end_offset": 1.7399999999999909
        },
        "target_timerange": {
            "start_offset": 397.992,
            "end_offset": 399.73199999999997
        },
        "ignore_audio": false,
        "audio_path": null
    },
    {
        "segment_id": "c8470ed09d8711ef833bb8cef692109a",
        "text": "Bennet’s height, or rather taller.”",
        "audio_url": "https://v16m-default.akamaized.net/249579eb626554dd28c5bda8b10b2931/672de43c/video/tos/maliva/tos-maliva-v-f15faa-us/osEtEACArjXWXiDORFAVfX7eQf1CYEAgSvx9C9/?a=7073&bti=OTU0QDItLmA%3D&ch=0&cr=0&dr=4&er=0&lr=unwatermarked&cd=0%7C0%7C0%7C0&br=312&bt=156&ds=5&ft=.cwOVInz7ThXwqvOXq8Zmo&qs=13&rc=M3F4aXQ5cnBydjUzNzhoM0BpM3F4aXQ5cnBydjUzNzhoM0A1cmZoMmQ0c2pgLS1kLjZzYSM1cmZoMmQ0c2pgLS1kLjZzcw%3D%3D&vvpl=1&l=02173103917641900000000000000000000ffff0a0088d433601a&btag=e00070000&format=mp3&mime_type=audio_mpeg",
        "source_timerange": {
            "start_offset": 1.7399999999999523,
            "end_offset": 3.48
        },
        "target_timerange": {
            "start_offset": 399.73199999999997,
            "end_offset": 401.472
        },
        "ignore_audio": true,
        "audio_path": null
    },
    {
        "segment_id": "c84718c69d8711ef833bb8cef692109a",
        "text": "“How I long to see her again!",
        "audio_url": "https://v16m-default.akamaized.net/2db77872ae65b571ec14086c56c76d63/672de43a/video/tos/maliva/tos-maliva-v-f15faa-us/oM4j9AAucAFJxeUtEfLIAeGxFtuWpiAEEFedkj/?a=7073&bti=OTU0QDItLmA%3D&ch=0&cr=0&dr=4&er=0&lr=unwatermarked&cd=0%7C0%7C0%7C0&br=312&bt=156&ds=5&ft=.cwOVInz7ThXwqvOXq8Zmo&qs=13&rc=M3g7aXk5cnBydjUzNzhoM0BpM3g7aXk5cnBydjUzNzhoM0BrcS5lMmQ0c2pgLS1kLjZzYSNrcS5lMmQ0c2pgLS1kLjZzcw%3D%3D&vvpl=1&l=02173103917641900000000000000000000ffff0a0088d433601a&btag=e00070000&format=mp3&mime_type=audio_mpeg",
        "source_timerange": {
            "start_offset": 0,
            "end_offset": 1.92
        },
        "target_timerange": {
            "start_offset": 401.472,
            "end_offset": 403.392
        },
        "ignore_audio": false,
        "audio_path": null
    },
    {
        "segment_id": "c84729e29d8711ef833bb8cef692109a",
        "text": "I never met with anybody",
        "audio_url": "https://v16m-default.akamaized.net/a37cd9e15ae9b159b1ef6ac3b2814721/672de43c/video/tos/maliva/tos-maliva-v-f15faa-us/ocCDFCZpxC7AmBfbIAA7Ef6YSHWiOIX5kCCrgf/?a=7073&bti=OTU0QDItLmA%3D&ch=0&cr=0&dr=4&er=0&lr=unwatermarked&cd=0%7C0%7C0%7C0&br=312&bt=156&ds=5&ft=.cwOVInz7ThXwqvOXq8Zmo&qs=13&rc=am1saXc5cnBydjUzNzhoM0Bpam1saXc5cnBydjUzNzhoM0BiLzJuMmQ0c2pgLS1kLjZzYSNiLzJuMmQ0c2pgLS1kLjZzcw%3D%3D&vvpl=1&l=02173103917641900000000000000000000ffff0a0088d433601a&btag=e00070000&format=mp3&mime_type=audio_mpeg",
        "source_timerange": {
            "start_offset": 0,
            "end_offset": 1.5239999999999991
        },
        "target_timerange": {
            "start_offset": 403.392,
            "end_offset": 404.916
        },
        "ignore_audio": false,
        "audio_path": null
    },
    {
        "segment_id": "c8472bcc9d8711ef833bb8cef692109a",
        "text": "who delighted me so much.",
        "audio_url": "https://v16m-default.akamaized.net/a37cd9e15ae9b159b1ef6ac3b2814721/672de43c/video/tos/maliva/tos-maliva-v-f15faa-us/ocCDFCZpxC7AmBfbIAA7Ef6YSHWiOIX5kCCrgf/?a=7073&bti=OTU0QDItLmA%3D&ch=0&cr=0&dr=4&er=0&lr=unwatermarked&cd=0%7C0%7C0%7C0&br=312&bt=156&ds=5&ft=.cwOVInz7ThXwqvOXq8Zmo&qs=13&rc=am1saXc5cnBydjUzNzhoM0Bpam1saXc5cnBydjUzNzhoM0BiLzJuMmQ0c2pgLS1kLjZzYSNiLzJuMmQ0c2pgLS1kLjZzcw%3D%3D&vvpl=1&l=02173103917641900000000000000000000ffff0a0088d433601a&btag=e00070000&format=mp3&mime_type=audio_mpeg",
        "source_timerange": {
            "start_offset": 1.524000000000001,
            "end_offset": 3.048
        },
        "target_timerange": {
            "start_offset": 404.916,
            "end_offset": 406.44
        },
        "ignore_audio": true,
        "audio_path": null
    },
    {
        "segment_id": "c84741a29d8711ef833bb8cef692109a",
        "text": "Such a countenance, such",
        "audio_url": "https://v16m-default.akamaized.net/852ac95442e7f3d41ecf5be7f2e3cf69/672de43d/video/tos/maliva/tos-maliva-v-f15faa-us/oEIbIACArHlWXADOiFBefooUqfgCYEAgSAx7CX/?a=7073&bti=OTU0QDItLmA%3D&ch=0&cr=0&dr=4&er=0&lr=unwatermarked&cd=0%7C0%7C0%7C0&br=312&bt=156&ds=5&ft=.cwOVInz7ThXwqvOXq8Zmo&qs=13&rc=am5kbGo5cnBydjUzNzhoM0Bpam5kbGo5cnBydjUzNzhoM0BeLWY1MmQ0c2pgLS1kLjZzYSNeLWY1MmQ0c2pgLS1kLjZzcw%3D%3D&vvpl=1&l=02173103917641900000000000000000000ffff0a0088d433601a&btag=e00070000&format=mp3&mime_type=audio_mpeg",
        "source_timerange": {
            "start_offset": 0,
            "end_offset": 1.6480000000000077
        },
        "target_timerange": {
            "start_offset": 406.44,
            "end_offset": 408.088
        },
        "ignore_audio": false,
        "audio_path": null
    },
    {
        "segment_id": "c84744a49d8711ef833bb8cef692109a",
        "text": "manners, and so extremely",
        "audio_url": "https://v16m-default.akamaized.net/852ac95442e7f3d41ecf5be7f2e3cf69/672de43d/video/tos/maliva/tos-maliva-v-f15faa-us/oEIbIACArHlWXADOiFBefooUqfgCYEAgSAx7CX/?a=7073&bti=OTU0QDItLmA%3D&ch=0&cr=0&dr=4&er=0&lr=unwatermarked&cd=0%7C0%7C0%7C0&br=312&bt=156&ds=5&ft=.cwOVInz7ThXwqvOXq8Zmo&qs=13&rc=am5kbGo5cnBydjUzNzhoM0Bpam5kbGo5cnBydjUzNzhoM0BeLWY1MmQ0c2pgLS1kLjZzYSNeLWY1MmQ0c2pgLS1kLjZzcw%3D%3D&vvpl=1&l=02173103917641900000000000000000000ffff0a0088d433601a&btag=e00070000&format=mp3&mime_type=audio_mpeg",
        "source_timerange": {
            "start_offset": 1.6480000000000246,
            "end_offset": 3.2959999999999754
        },
        "target_timerange": {
            "start_offset": 408.088,
            "end_offset": 409.736
        },
        "ignore_audio": true,
        "audio_path": null
    },
    {
        "segment_id": "c84746669d8711ef833bb8cef692109a",
        "text": "accomplished for her age!",
        "audio_url": "https://v16m-default.akamaized.net/852ac95442e7f3d41ecf5be7f2e3cf69/672de43d/video/tos/maliva/tos-maliva-v-f15faa-us/oEIbIACArHlWXADOiFBefooUqfgCYEAgSAx7CX/?a=7073&bti=OTU0QDItLmA%3D&ch=0&cr=0&dr=4&er=0&lr=unwatermarked&cd=0%7C0%7C0%7C0&br=312&bt=156&ds=5&ft=.cwOVInz7ThXwqvOXq8Zmo&qs=13&rc=am5kbGo5cnBydjUzNzhoM0Bpam5kbGo5cnBydjUzNzhoM0BeLWY1MmQ0c2pgLS1kLjZzYSNeLWY1MmQ0c2pgLS1kLjZzcw%3D%3D&vvpl=1&l=02173103917641900000000000000000000ffff0a0088d433601a&btag=e00070000&format=mp3&mime_type=audio_mpeg",
        "source_timerange": {
            "start_offset": 3.2959999999999923,
            "end_offset": 4.944
        },
        "target_timerange": {
            "start_offset": 409.736,
            "end_offset": 411.384
        },
        "ignore_audio": true,
        "audio_path": null
    },
    {
        "segment_id": "c847566a9d8711ef833bb8cef692109a",
        "text": "Her performance on the",
        "audio_url": "https://v16m-default.akamaized.net/1a18af0b2d79ade661b9eaae3a95ba44/672de43b/video/tos/maliva/tos-maliva-v-f15faa-us/oc3AECXFdEAeArAgXiCWGfExHLjYDf8CS9kO3t/?a=7073&bti=OTU0QDItLmA%3D&ch=0&cr=0&dr=4&er=0&lr=unwatermarked&cd=0%7C0%7C0%7C0&br=312&bt=156&ds=5&ft=.cwOVInz7ThXwqvOXq8Zmo&qs=13&rc=ajl3d3g5cnBydjUzNzhoM0Bpajl3d3g5cnBydjUzNzhoM0AybnJfMmQ0c2pgLS1kLjZzYSMybnJfMmQ0c2pgLS1kLjZzcw%3D%3D&vvpl=1&l=02173103917641900000000000000000000ffff0a0088d433601a&btag=e00070000&format=mp3&mime_type=audio_mpeg",
        "source_timerange": {
            "start_offset": 0,
            "end_offset": 1.4520000000000017
        },
        "target_timerange": {
            "start_offset": 411.384,
            "end_offset": 412.836
        },
        "ignore_audio": false,
        "audio_path": null
    },
    {
        "segment_id": "c847584a9d8711ef833bb8cef692109a",
        "text": "pianoforte is exquisite.”",
        "audio_url": "https://v16m-default.akamaized.net/1a18af0b2d79ade661b9eaae3a95ba44/672de43b/video/tos/maliva/tos-maliva-v-f15faa-us/oc3AECXFdEAeArAgXiCWGfExHLjYDf8CS9kO3t/?a=7073&bti=OTU0QDItLmA%3D&ch=0&cr=0&dr=4&er=0&lr=unwatermarked&cd=0%7C0%7C0%7C0&br=312&bt=156&ds=5&ft=.cwOVInz7ThXwqvOXq8Zmo&qs=13&rc=ajl3d3g5cnBydjUzNzhoM0Bpajl3d3g5cnBydjUzNzhoM0AybnJfMmQ0c2pgLS1kLjZzYSMybnJfMmQ0c2pgLS1kLjZzcw%3D%3D&vvpl=1&l=02173103917641900000000000000000000ffff0a0088d433601a&btag=e00070000&format=mp3&mime_type=audio_mpeg",
        "source_timerange": {
            "start_offset": 1.4519999999999982,
            "end_offset": 2.904
        },
        "target_timerange": {
            "start_offset": 412.836,
            "end_offset": 414.288
        },
        "ignore_audio": true,
        "audio_path": null
    },
    {
        "segment_id": "c8477bc29d8711ef833bb8cef692109a",
        "text": "“It is amazing to me,”",
        "audio_url": "https://v16m-default.akamaized.net/da61c3e8274150011984047edb961d49/672de440/video/tos/maliva/tos-maliva-v-f15faa-us/oIIEguWEOdAjCTOXxFxYCNEAtD39fhXfrACfAS/?a=7073&bti=OTU0QDItLmA%3D&ch=0&cr=0&dr=4&er=0&lr=unwatermarked&cd=0%7C0%7C0%7C0&br=312&bt=156&ds=5&ft=.cwOVInz7ThXwqvOXq8Zmo&qs=13&rc=anl0cHU5cnBydjUzNzhoM0Bpanl0cHU5cnBydjUzNzhoM0BfNTJnMmQ0c2pgLS1kLjZzYSNfNTJnMmQ0c2pgLS1kLjZzcw%3D%3D&vvpl=1&l=02173103917641900000000000000000000ffff0a0088d433601a&btag=e00070000&format=mp3&mime_type=audio_mpeg",
        "source_timerange": {
            "start_offset": 0,
            "end_offset": 1.4927999999999901
        },
        "target_timerange": {
            "start_offset": 414.288,
            "end_offset": 415.7808
        },
        "ignore_audio": false,
        "audio_path": null
    },
    {
        "segment_id": "c8477dca9d8711ef833bb8cef692109a",
        "text": "said Bingley, “how young",
        "audio_url": "https://v16m-default.akamaized.net/da61c3e8274150011984047edb961d49/672de440/video/tos/maliva/tos-maliva-v-f15faa-us/oIIEguWEOdAjCTOXxFxYCNEAtD39fhXfrACfAS/?a=7073&bti=OTU0QDItLmA%3D&ch=0&cr=0&dr=4&er=0&lr=unwatermarked&cd=0%7C0%7C0%7C0&br=312&bt=156&ds=5&ft=.cwOVInz7ThXwqvOXq8Zmo&qs=13&rc=anl0cHU5cnBydjUzNzhoM0Bpanl0cHU5cnBydjUzNzhoM0BfNTJnMmQ0c2pgLS1kLjZzYSNfNTJnMmQ0c2pgLS1kLjZzcw%3D%3D&vvpl=1&l=02173103917641900000000000000000000ffff0a0088d433601a&btag=e00070000&format=mp3&mime_type=audio_mpeg",
        "source_timerange": {
            "start_offset": 1.4927999999999884,
            "end_offset": 2.9855999999999785
        },
        "target_timerange": {
            "start_offset": 415.7808,
            "end_offset": 417.2736
        },
        "ignore_audio": true,
        "audio_path": null
    },
    {
        "segment_id": "c8477f969d8711ef833bb8cef692109a",
        "text": "ladies can have patience",
        "audio_url": "https://v16m-default.akamaized.net/da61c3e8274150011984047edb961d49/672de440/video/tos/maliva/tos-maliva-v-f15faa-us/oIIEguWEOdAjCTOXxFxYCNEAtD39fhXfrACfAS/?a=7073&bti=OTU0QDItLmA%3D&ch=0&cr=0&dr=4&er=0&lr=unwatermarked&cd=0%7C0%7C0%7C0&br=312&bt=156&ds=5&ft=.cwOVInz7ThXwqvOXq8Zmo&qs=13&rc=anl0cHU5cnBydjUzNzhoM0Bpanl0cHU5cnBydjUzNzhoM0BfNTJnMmQ0c2pgLS1kLjZzYSNfNTJnMmQ0c2pgLS1kLjZzcw%3D%3D&vvpl=1&l=02173103917641900000000000000000000ffff0a0088d433601a&btag=e00070000&format=mp3&mime_type=audio_mpeg",
        "source_timerange": {
            "start_offset": 2.9855999999999767,
            "end_offset": 4.478400000000024
        },
        "target_timerange": {
            "start_offset": 417.2736,
            "end_offset": 418.76640000000003
        },
        "ignore_audio": true,
        "audio_path": null
    },
    {
        "segment_id": "c84781449d8711ef833bb8cef692109a",
        "text": "to be so very accomplished",
        "audio_url": "https://v16m-default.akamaized.net/da61c3e8274150011984047edb961d49/672de440/video/tos/maliva/tos-maliva-v-f15faa-us/oIIEguWEOdAjCTOXxFxYCNEAtD39fhXfrACfAS/?a=7073&bti=OTU0QDItLmA%3D&ch=0&cr=0&dr=4&er=0&lr=unwatermarked&cd=0%7C0%7C0%7C0&br=312&bt=156&ds=5&ft=.cwOVInz7ThXwqvOXq8Zmo&qs=13&rc=anl0cHU5cnBydjUzNzhoM0Bpanl0cHU5cnBydjUzNzhoM0BfNTJnMmQ0c2pgLS1kLjZzYSNfNTJnMmQ0c2pgLS1kLjZzcw%3D%3D&vvpl=1&l=02173103917641900000000000000000000ffff0a0088d433601a&btag=e00070000&format=mp3&mime_type=audio_mpeg",
        "source_timerange": {
            "start_offset": 4.478400000000022,
            "end_offset": 5.971200000000012
        },
        "target_timerange": {
            "start_offset": 418.76640000000003,
            "end_offset": 420.2592
        },
        "ignore_audio": true,
        "audio_path": null
    },
    {
        "segment_id": "c84782e89d8711ef833bb8cef692109a",
        "text": "as they all are.”",
        "audio_url": "https://v16m-default.akamaized.net/da61c3e8274150011984047edb961d49/672de440/video/tos/maliva/tos-maliva-v-f15faa-us/oIIEguWEOdAjCTOXxFxYCNEAtD39fhXfrACfAS/?a=7073&bti=OTU0QDItLmA%3D&ch=0&cr=0&dr=4&er=0&lr=unwatermarked&cd=0%7C0%7C0%7C0&br=312&bt=156&ds=5&ft=.cwOVInz7ThXwqvOXq8Zmo&qs=13&rc=anl0cHU5cnBydjUzNzhoM0Bpanl0cHU5cnBydjUzNzhoM0BfNTJnMmQ0c2pgLS1kLjZzYSNfNTJnMmQ0c2pgLS1kLjZzcw%3D%3D&vvpl=1&l=02173103917641900000000000000000000ffff0a0088d433601a&btag=e00070000&format=mp3&mime_type=audio_mpeg",
        "source_timerange": {
            "start_offset": 5.97120000000001,
            "end_offset": 7.464
        },
        "target_timerange": {
            "start_offset": 420.2592,
            "end_offset": 421.752
        },
        "ignore_audio": true,
        "audio_path": null
    },
    {
        "segment_id": "c8478cf29d8711ef833bb8cef692109a",
        "text": "“All young ladies accomplished!",
        "audio_url": "https://v16m-default.akamaized.net/3fabfe0f32c96167e7a1ea67cffbf4ca/672de43a/video/tos/maliva/tos-maliva-v-f15faa-us/oM2yZt4ADzUSAEABj2VPC9DyiQUFkQAjP0ilE/?a=7073&bti=OTU0QDItLmA%3D&ch=0&cr=0&dr=4&er=0&lr=unwatermarked&cd=0%7C0%7C0%7C0&br=312&bt=156&ds=5&ft=.cwOVInz7ThXwqvOXq8Zmo&qs=13&rc=ajZpZ2w5cnBydjUzNzhoM0BpajZpZ2w5cnBydjUzNzhoM0BmMy01MmQ0c2pgLS1kLjZzYSNmMy01MmQ0c2pgLS1kLjZzcw%3D%3D&vvpl=1&l=02173103917641900000000000000000000ffff0a0088d433601a&btag=e00070000&format=mp3&mime_type=audio_mpeg",
        "source_timerange": {
            "start_offset": 0,
            "end_offset": 1.776
        },
        "target_timerange": {
            "start_offset": 421.752,
            "end_offset": 423.528
        },
        "ignore_audio": false,
        "audio_path": null
    },
    {
        "segment_id": "c847a4269d8711ef833bb8cef692109a",
        "text": "My dear Charles, what do",
        "audio_url": "https://v16m-default.akamaized.net/8b97bd27a592a540090fdc012d90e770/672de43d/video/tos/maliva/tos-maliva-v-f15faa-us/owVi9AZPg1uAU8wcdUEAQyPy4Ctii2BAj1S2E/?a=7073&bti=OTU0QDItLmA%3D&ch=0&cr=0&dr=4&er=0&lr=unwatermarked&cd=0%7C0%7C0%7C0&br=312&bt=156&ds=5&ft=.cwOVInz7ThXwqvOXq8Zmo&qs=13&rc=M2htOm85cnBydjUzNzhoM0BpM2htOm85cnBydjUzNzhoM0BsMi9yMmQ0c2pgLS1kLjZzYSNsMi9yMmQ0c2pgLS1kLjZzcw%3D%3D&vvpl=1&l=02173103917641900000000000000000000ffff0a0088d433601a&btag=e00070000&format=mp3&mime_type=audio_mpeg",
        "source_timerange": {
            "start_offset": 0,
            "end_offset": 1.4880000000000013
        },
        "target_timerange": {
            "start_offset": 423.528,
            "end_offset": 425.016
        },
        "ignore_audio": false,
        "audio_path": null
    },
    {
        "segment_id": "c847a61a9d8711ef833bb8cef692109a",
        "text": "you mean?”  “Yes, all of",
        "audio_url": "https://v16m-default.akamaized.net/8b97bd27a592a540090fdc012d90e770/672de43d/video/tos/maliva/tos-maliva-v-f15faa-us/owVi9AZPg1uAU8wcdUEAQyPy4Ctii2BAj1S2E/?a=7073&bti=OTU0QDItLmA%3D&ch=0&cr=0&dr=4&er=0&lr=unwatermarked&cd=0%7C0%7C0%7C0&br=312&bt=156&ds=5&ft=.cwOVInz7ThXwqvOXq8Zmo&qs=13&rc=M2htOm85cnBydjUzNzhoM0BpM2htOm85cnBydjUzNzhoM0BsMi9yMmQ0c2pgLS1kLjZzYSNsMi9yMmQ0c2pgLS1kLjZzcw%3D%3D&vvpl=1&l=02173103917641900000000000000000000ffff0a0088d433601a&btag=e00070000&format=mp3&mime_type=audio_mpeg",
        "source_timerange": {
            "start_offset": 1.4879999999999995,
            "end_offset": 2.976000000000001
        },
        "target_timerange": {
            "start_offset": 425.016,
            "end_offset": 426.504
        },
        "ignore_audio": true,
        "audio_path": null
    },
    {
        "segment_id": "c847a7d29d8711ef833bb8cef692109a",
        "text": "them, I think.",
        "audio_url": "https://v16m-default.akamaized.net/8b97bd27a592a540090fdc012d90e770/672de43d/video/tos/maliva/tos-maliva-v-f15faa-us/owVi9AZPg1uAU8wcdUEAQyPy4Ctii2BAj1S2E/?a=7073&bti=OTU0QDItLmA%3D&ch=0&cr=0&dr=4&er=0&lr=unwatermarked&cd=0%7C0%7C0%7C0&br=312&bt=156&ds=5&ft=.cwOVInz7ThXwqvOXq8Zmo&qs=13&rc=M2htOm85cnBydjUzNzhoM0BpM2htOm85cnBydjUzNzhoM0BsMi9yMmQ0c2pgLS1kLjZzYSNsMi9yMmQ0c2pgLS1kLjZzcw%3D%3D&vvpl=1&l=02173103917641900000000000000000000ffff0a0088d433601a&btag=e00070000&format=mp3&mime_type=audio_mpeg",
        "source_timerange": {
            "start_offset": 2.975999999999999,
            "end_offset": 4.464
        },
        "target_timerange": {
            "start_offset": 426.504,
            "end_offset": 427.992
        },
        "ignore_audio": true,
        "audio_path": null
    },
    {
        "segment_id": "c847b7409d8711ef833bb8cef692109a",
        "text": "They all paint tables, cover",
        "audio_url": "https://v16m-default.akamaized.net/328aeb81d9fdbddba43bb66de935d224/672de43c/video/tos/maliva/tos-maliva-v-f15faa-us/osCKXjeWDFAAyCxAEOEDg9fOEAlygfR2CStZKr/?a=7073&bti=OTU0QDItLmA%3D&ch=0&cr=0&dr=4&er=0&lr=unwatermarked&cd=0%7C0%7C0%7C0&br=312&bt=156&ds=5&ft=.cwOVInz7ThXwqvOXq8Zmo&qs=13&rc=M3g1cGo5cnBydjUzNzhoM0BpM3g1cGo5cnBydjUzNzhoM0A0Xm1gMmRjc2pgLS1kLjZzYSM0Xm1gMmRjc2pgLS1kLjZzcw%3D%3D&vvpl=1&l=02173103917641900000000000000000000ffff0a0088d433601a&btag=e00070000&format=mp3&mime_type=audio_mpeg",
        "source_timerange": {
            "start_offset": 0,
            "end_offset": 1.8240000000000447
        },
        "target_timerange": {
            "start_offset": 427.992,
            "end_offset": 429.81600000000003
        },
        "ignore_audio": false,
        "audio_path": null
    },
    {
        "segment_id": "c847ba569d8711ef833bb8cef692109a",
        "text": "screens, and net purses.",
        "audio_url": "https://v16m-default.akamaized.net/328aeb81d9fdbddba43bb66de935d224/672de43c/video/tos/maliva/tos-maliva-v-f15faa-us/osCKXjeWDFAAyCxAEOEDg9fOEAlygfR2CStZKr/?a=7073&bti=OTU0QDItLmA%3D&ch=0&cr=0&dr=4&er=0&lr=unwatermarked&cd=0%7C0%7C0%7C0&br=312&bt=156&ds=5&ft=.cwOVInz7ThXwqvOXq8Zmo&qs=13&rc=M3g1cGo5cnBydjUzNzhoM0BpM3g1cGo5cnBydjUzNzhoM0A0Xm1gMmRjc2pgLS1kLjZzYSM0Xm1gMmRjc2pgLS1kLjZzcw%3D%3D&vvpl=1&l=02173103917641900000000000000000000ffff0a0088d433601a&btag=e00070000&format=mp3&mime_type=audio_mpeg",
        "source_timerange": {
            "start_offset": 1.8240000000000123,
            "end_offset": 3.648
        },
        "target_timerange": {
            "start_offset": 429.81600000000003,
            "end_offset": 431.64
        },
        "ignore_audio": true,
        "audio_path": null
    },
    {
        "segment_id": "c847eb529d8711ef833bb8cef692109a",
        "text": "I scarcely know any one who",
        "audio_url": "https://v16m-default.akamaized.net/db8581165ed75b583b25640b5fdc9ea1/672de442/video/tos/maliva/tos-maliva-v-f15faa-us/oEfrECfOd3ZCAAxtfGClE8djgAF9COXxWIDSAE/?a=7073&bti=OTU0QDItLmA%3D&ch=0&cr=0&dr=4&er=0&lr=unwatermarked&cd=0%7C0%7C0%7C0&br=312&bt=156&ds=5&ft=.cwOVInz7ThXwqvOXq8Zmo&qs=13&rc=anl0cHU5cnBydjUzNzhoM0Bpanl0cHU5cnBydjUzNzhoM0BiNTJnMmRjc2pgLS1kLjZzYSNiNTJnMmRjc2pgLS1kLjZzcw%3D%3D&vvpl=1&l=02173103917641900000000000000000000ffff0a0088d433601a&btag=e00070000&format=mp3&mime_type=audio_mpeg",
        "source_timerange": {
            "start_offset": 0,
            "end_offset": 1.415999999999963
        },
        "target_timerange": {
            "start_offset": 431.64,
            "end_offset": 433.056
        },
        "ignore_audio": false,
        "audio_path": null
    },
    {
        "segment_id": "c847ed1e9d8711ef833bb8cef692109a",
        "text": "cannot do all this; and I",
        "audio_url": "https://v16m-default.akamaized.net/db8581165ed75b583b25640b5fdc9ea1/672de442/video/tos/maliva/tos-maliva-v-f15faa-us/oEfrECfOd3ZCAAxtfGClE8djgAF9COXxWIDSAE/?a=7073&bti=OTU0QDItLmA%3D&ch=0&cr=0&dr=4&er=0&lr=unwatermarked&cd=0%7C0%7C0%7C0&br=312&bt=156&ds=5&ft=.cwOVInz7ThXwqvOXq8Zmo&qs=13&rc=anl0cHU5cnBydjUzNzhoM0Bpanl0cHU5cnBydjUzNzhoM0BiNTJnMmRjc2pgLS1kLjZzYSNiNTJnMmRjc2pgLS1kLjZzcw%3D%3D&vvpl=1&l=02173103917641900000000000000000000ffff0a0088d433601a&btag=e00070000&format=mp3&mime_type=audio_mpeg",
        "source_timerange": {
            "start_offset": 1.4159999999999968,
            "end_offset": 2.83199999999996
        },
        "target_timerange": {
            "start_offset": 433.056,
            "end_offset": 434.472
        },
        "ignore_audio": true,
        "audio_path": null
    },
    {
        "segment_id": "c847ee909d8711ef833bb8cef692109a",
        "text": "am sure I never heard a",
        "audio_url": "https://v16m-default.akamaized.net/db8581165ed75b583b25640b5fdc9ea1/672de442/video/tos/maliva/tos-maliva-v-f15faa-us/oEfrECfOd3ZCAAxtfGClE8djgAF9COXxWIDSAE/?a=7073&bti=OTU0QDItLmA%3D&ch=0&cr=0&dr=4&er=0&lr=unwatermarked&cd=0%7C0%7C0%7C0&br=312&bt=156&ds=5&ft=.cwOVInz7ThXwqvOXq8Zmo&qs=13&rc=anl0cHU5cnBydjUzNzhoM0Bpanl0cHU5cnBydjUzNzhoM0BiNTJnMmRjc2pgLS1kLjZzYSNiNTJnMmRjc2pgLS1kLjZzcw%3D%3D&vvpl=1&l=02173103917641900000000000000000000ffff0a0088d433601a&btag=e00070000&format=mp3&mime_type=audio_mpeg",
        "source_timerange": {
            "start_offset": 2.8319999999999936,
            "end_offset": 4.247999999999957
        },
        "target_timerange": {
            "start_offset": 434.472,
            "end_offset": 435.888
        },
        "ignore_audio": true,
        "audio_path": null
    },
    {
        "segment_id": "c847f0029d8711ef833bb8cef692109a",
        "text": "young lady spoken of for",
        "audio_url": "https://v16m-default.akamaized.net/db8581165ed75b583b25640b5fdc9ea1/672de442/video/tos/maliva/tos-maliva-v-f15faa-us/oEfrECfOd3ZCAAxtfGClE8djgAF9COXxWIDSAE/?a=7073&bti=OTU0QDItLmA%3D&ch=0&cr=0&dr=4&er=0&lr=unwatermarked&cd=0%7C0%7C0%7C0&br=312&bt=156&ds=5&ft=.cwOVInz7ThXwqvOXq8Zmo&qs=13&rc=anl0cHU5cnBydjUzNzhoM0Bpanl0cHU5cnBydjUzNzhoM0BiNTJnMmRjc2pgLS1kLjZzYSNiNTJnMmRjc2pgLS1kLjZzcw%3D%3D&vvpl=1&l=02173103917641900000000000000000000ffff0a0088d433601a&btag=e00070000&format=mp3&mime_type=audio_mpeg",
        "source_timerange": {
            "start_offset": 4.2479999999999905,
            "end_offset": 5.66400000000001
        },
        "target_timerange": {
            "start_offset": 435.888,
            "end_offset": 437.30400000000003
        },
        "ignore_audio": true,
        "audio_path": null
    },
    {
        "segment_id": "c847f1889d8711ef833bb8cef692109a",
        "text": "the first time, without",
        "audio_url": "https://v16m-default.akamaized.net/db8581165ed75b583b25640b5fdc9ea1/672de442/video/tos/maliva/tos-maliva-v-f15faa-us/oEfrECfOd3ZCAAxtfGClE8djgAF9COXxWIDSAE/?a=7073&bti=OTU0QDItLmA%3D&ch=0&cr=0&dr=4&er=0&lr=unwatermarked&cd=0%7C0%7C0%7C0&br=312&bt=156&ds=5&ft=.cwOVInz7ThXwqvOXq8Zmo&qs=13&rc=anl0cHU5cnBydjUzNzhoM0Bpanl0cHU5cnBydjUzNzhoM0BiNTJnMmRjc2pgLS1kLjZzYSNiNTJnMmRjc2pgLS1kLjZzcw%3D%3D&vvpl=1&l=02173103917641900000000000000000000ffff0a0088d433601a&btag=e00070000&format=mp3&mime_type=audio_mpeg",
        "source_timerange": {
            "start_offset": 5.664000000000044,
            "end_offset": 7.080000000000007
        },
        "target_timerange": {
            "start_offset": 437.30400000000003,
            "end_offset": 438.72
        },
        "ignore_audio": true,
        "audio_path": null
    },
    {
        "segment_id": "c847f34a9d8711ef833bb8cef692109a",
        "text": "being informed that she was",
        "audio_url": "https://v16m-default.akamaized.net/db8581165ed75b583b25640b5fdc9ea1/672de442/video/tos/maliva/tos-maliva-v-f15faa-us/oEfrECfOd3ZCAAxtfGClE8djgAF9COXxWIDSAE/?a=7073&bti=OTU0QDItLmA%3D&ch=0&cr=0&dr=4&er=0&lr=unwatermarked&cd=0%7C0%7C0%7C0&br=312&bt=156&ds=5&ft=.cwOVInz7ThXwqvOXq8Zmo&qs=13&rc=anl0cHU5cnBydjUzNzhoM0Bpanl0cHU5cnBydjUzNzhoM0BiNTJnMmRjc2pgLS1kLjZzYSNiNTJnMmRjc2pgLS1kLjZzcw%3D%3D&vvpl=1&l=02173103917641900000000000000000000ffff0a0088d433601a&btag=e00070000&format=mp3&mime_type=audio_mpeg",
        "source_timerange": {
            "start_offset": 7.080000000000041,
            "end_offset": 8.496000000000004
        },
        "target_timerange": {
            "start_offset": 438.72,
            "end_offset": 440.136
        },
        "ignore_audio": true,
        "audio_path": null
    },
    {
        "segment_id": "c847f4f89d8711ef833bb8cef692109a",
        "text": "very accomplished.”",
        "audio_url": "https://v16m-default.akamaized.net/db8581165ed75b583b25640b5fdc9ea1/672de442/video/tos/maliva/tos-maliva-v-f15faa-us/oEfrECfOd3ZCAAxtfGClE8djgAF9COXxWIDSAE/?a=7073&bti=OTU0QDItLmA%3D&ch=0&cr=0&dr=4&er=0&lr=unwatermarked&cd=0%7C0%7C0%7C0&br=312&bt=156&ds=5&ft=.cwOVInz7ThXwqvOXq8Zmo&qs=13&rc=anl0cHU5cnBydjUzNzhoM0Bpanl0cHU5cnBydjUzNzhoM0BiNTJnMmRjc2pgLS1kLjZzYSNiNTJnMmRjc2pgLS1kLjZzcw%3D%3D&vvpl=1&l=02173103917641900000000000000000000ffff0a0088d433601a&btag=e00070000&format=mp3&mime_type=audio_mpeg",
        "source_timerange": {
            "start_offset": 8.496000000000038,
            "end_offset": 9.912
        },
        "target_timerange": {
            "start_offset": 440.136,
            "end_offset": 441.552
        },
        "ignore_audio": true,
        "audio_path": null
    },
    {
        "segment_id": "c8480cea9d8711ef833bb8cef692109a",
        "text": "“Your list of the common extent",
        "audio_url": "https://v16m-default.akamaized.net/21eca4184ded9e1fa9fca11a355b044c/672de43d/video/tos/maliva/tos-maliva-v-f15faa-us/oIAAhIjGcFAJH5zMuGExBjetLAeIkIeW7FfNbG/?a=7073&bti=OTU0QDItLmA%3D&ch=0&cr=0&dr=4&er=0&lr=unwatermarked&cd=0%7C0%7C0%7C0&br=312&bt=156&ds=5&ft=.cwOVInz7ThXwqvOXq8Zmo&qs=13&rc=anZncW05cnBydjUzNzhoM0BpanZncW05cnBydjUzNzhoM0BlLnAuMmRjc2pgLS1kLjZzYSNlLnAuMmRjc2pgLS1kLjZzcw%3D%3D&vvpl=1&l=02173103917641900000000000000000000ffff0a0088d433601a&btag=e00070000&format=mp3&mime_type=audio_mpeg",
        "source_timerange": {
            "start_offset": 0,
            "end_offset": 1.5919999999999739
        },
        "target_timerange": {
            "start_offset": 441.552,
            "end_offset": 443.144
        },
        "ignore_audio": false,
        "audio_path": null
    },
    {
        "segment_id": "c8480eca9d8711ef833bb8cef692109a",
        "text": "of accomplishments,” said",
        "audio_url": "https://v16m-default.akamaized.net/21eca4184ded9e1fa9fca11a355b044c/672de43d/video/tos/maliva/tos-maliva-v-f15faa-us/oIAAhIjGcFAJH5zMuGExBjetLAeIkIeW7FfNbG/?a=7073&bti=OTU0QDItLmA%3D&ch=0&cr=0&dr=4&er=0&lr=unwatermarked&cd=0%7C0%7C0%7C0&br=312&bt=156&ds=5&ft=.cwOVInz7ThXwqvOXq8Zmo&qs=13&rc=anZncW05cnBydjUzNzhoM0BpanZncW05cnBydjUzNzhoM0BlLnAuMmRjc2pgLS1kLjZzYSNlLnAuMmRjc2pgLS1kLjZzcw%3D%3D&vvpl=1&l=02173103917641900000000000000000000ffff0a0088d433601a&btag=e00070000&format=mp3&mime_type=audio_mpeg",
        "source_timerange": {
            "start_offset": 1.5919999999999845,
            "end_offset": 3.1840000000000153
        },
        "target_timerange": {
            "start_offset": 443.144,
            "end_offset": 444.73600000000005
        },
        "ignore_audio": true,
        "audio_path": null
    },
    {
        "segment_id": "c84810789d8711ef833bb8cef692109a",
        "text": "Darcy, “has too much truth.",
        "audio_url": "https://v16m-default.akamaized.net/21eca4184ded9e1fa9fca11a355b044c/672de43d/video/tos/maliva/tos-maliva-v-f15faa-us/oIAAhIjGcFAJH5zMuGExBjetLAeIkIeW7FfNbG/?a=7073&bti=OTU0QDItLmA%3D&ch=0&cr=0&dr=4&er=0&lr=unwatermarked&cd=0%7C0%7C0%7C0&br=312&bt=156&ds=5&ft=.cwOVInz7ThXwqvOXq8Zmo&qs=13&rc=anZncW05cnBydjUzNzhoM0BpanZncW05cnBydjUzNzhoM0BlLnAuMmRjc2pgLS1kLjZzYSNlLnAuMmRjc2pgLS1kLjZzcw%3D%3D&vvpl=1&l=02173103917641900000000000000000000ffff0a0088d433601a&btag=e00070000&format=mp3&mime_type=audio_mpeg",
        "source_timerange": {
            "start_offset": 3.184000000000026,
            "end_offset": 4.776
        },
        "target_timerange": {
            "start_offset": 444.73600000000005,
            "end_offset": 446.32800000000003
        },
        "ignore_audio": true,
        "audio_path": null
    },
    {
        "segment_id": "c84841ce9d8711ef833bb8cef692109a",
        "text": "The word is applied to many a",
        "audio_url": "https://v16m-default.akamaized.net/89645b196c7d7e241f92cbc71ce43c3b/672de442/video/tos/maliva/tos-maliva-v-f15faa-us/oIhudsEQJDLiciYjAnVWyLf3AfBXBBAEpA9nDt/?a=7073&bti=OTU0QDItLmA%3D&ch=0&cr=0&dr=4&er=0&lr=unwatermarked&cd=0%7C0%7C0%7C0&br=312&bt=156&ds=5&ft=.cwOVInz7ThXwqvOXq8Zmo&qs=13&rc=M3B0d2w5cnBydjUzNzhoM0BpM3B0d2w5cnBydjUzNzhoM0BiZnEuMmRjc2pgLS1kLjZzYSNiZnEuMmRjc2pgLS1kLjZzcw%3D%3D&vvpl=1&l=02173103917641900000000000000000000ffff0a0088d433601a&btag=e00070000&format=mp3&mime_type=audio_mpeg",
        "source_timerange": {
            "start_offset": 0,
            "end_offset": 1.426285714285731
        },
        "target_timerange": {
            "start_offset": 446.32800000000003,
            "end_offset": 447.75428571428574
        },
        "ignore_audio": false,
        "audio_path": null
    },
    {
        "segment_id": "c84843ea9d8711ef833bb8cef692109a",
        "text": "woman who deserves it no",
        "audio_url": "https://v16m-default.akamaized.net/89645b196c7d7e241f92cbc71ce43c3b/672de442/video/tos/maliva/tos-maliva-v-f15faa-us/oIhudsEQJDLiciYjAnVWyLf3AfBXBBAEpA9nDt/?a=7073&bti=OTU0QDItLmA%3D&ch=0&cr=0&dr=4&er=0&lr=unwatermarked&cd=0%7C0%7C0%7C0&br=312&bt=156&ds=5&ft=.cwOVInz7ThXwqvOXq8Zmo&qs=13&rc=M3B0d2w5cnBydjUzNzhoM0BpM3B0d2w5cnBydjUzNzhoM0BiZnEuMmRjc2pgLS1kLjZzYSNiZnEuMmRjc2pgLS1kLjZzcw%3D%3D&vvpl=1&l=02173103917641900000000000000000000ffff0a0088d433601a&btag=e00070000&format=mp3&mime_type=audio_mpeg",
        "source_timerange": {
            "start_offset": 1.4262857142857115,
            "end_offset": 2.8525714285714425
        },
        "target_timerange": {
            "start_offset": 447.75428571428574,
            "end_offset": 449.18057142857145
        },
        "ignore_audio": true,
        "audio_path": null
    },
    {
        "segment_id": "c84845a29d8711ef833bb8cef692109a",
        "text": "otherwise than by netting a",
        "audio_url": "https://v16m-default.akamaized.net/89645b196c7d7e241f92cbc71ce43c3b/672de442/video/tos/maliva/tos-maliva-v-f15faa-us/oIhudsEQJDLiciYjAnVWyLf3AfBXBBAEpA9nDt/?a=7073&bti=OTU0QDItLmA%3D&ch=0&cr=0&dr=4&er=0&lr=unwatermarked&cd=0%7C0%7C0%7C0&br=312&bt=156&ds=5&ft=.cwOVInz7ThXwqvOXq8Zmo&qs=13&rc=M3B0d2w5cnBydjUzNzhoM0BpM3B0d2w5cnBydjUzNzhoM0BiZnEuMmRjc2pgLS1kLjZzYSNiZnEuMmRjc2pgLS1kLjZzcw%3D%3D&vvpl=1&l=02173103917641900000000000000000000ffff0a0088d433601a&btag=e00070000&format=mp3&mime_type=audio_mpeg",
        "source_timerange": {
            "start_offset": 2.852571428571423,
            "end_offset": 4.278857142857154
        },
        "target_timerange": {
            "start_offset": 449.18057142857145,
            "end_offset": 450.60685714285717
        },
        "ignore_audio": true,
        "audio_path": null
    },
    {
        "segment_id": "c84847149d8711ef833bb8cef692109a",
        "text": "purse or covering a screen;",
        "audio_url": "https://v16m-default.akamaized.net/89645b196c7d7e241f92cbc71ce43c3b/672de442/video/tos/maliva/tos-maliva-v-f15faa-us/oIhudsEQJDLiciYjAnVWyLf3AfBXBBAEpA9nDt/?a=7073&bti=OTU0QDItLmA%3D&ch=0&cr=0&dr=4&er=0&lr=unwatermarked&cd=0%7C0%7C0%7C0&br=312&bt=156&ds=5&ft=.cwOVInz7ThXwqvOXq8Zmo&qs=13&rc=M3B0d2w5cnBydjUzNzhoM0BpM3B0d2w5cnBydjUzNzhoM0BiZnEuMmRjc2pgLS1kLjZzYSNiZnEuMmRjc2pgLS1kLjZzcw%3D%3D&vvpl=1&l=02173103917641900000000000000000000ffff0a0088d433601a&btag=e00070000&format=mp3&mime_type=audio_mpeg",
        "source_timerange": {
            "start_offset": 4.2788571428571345,
            "end_offset": 5.7051428571428655
        },
        "target_timerange": {
            "start_offset": 450.60685714285717,
            "end_offset": 452.0331428571429
        },
        "ignore_audio": true,
        "audio_path": null
    },
    {
        "segment_id": "c848489a9d8711ef833bb8cef692109a",
        "text": "but I am very far from",
        "audio_url": "https://v16m-default.akamaized.net/89645b196c7d7e241f92cbc71ce43c3b/672de442/video/tos/maliva/tos-maliva-v-f15faa-us/oIhudsEQJDLiciYjAnVWyLf3AfBXBBAEpA9nDt/?a=7073&bti=OTU0QDItLmA%3D&ch=0&cr=0&dr=4&er=0&lr=unwatermarked&cd=0%7C0%7C0%7C0&br=312&bt=156&ds=5&ft=.cwOVInz7ThXwqvOXq8Zmo&qs=13&rc=M3B0d2w5cnBydjUzNzhoM0BpM3B0d2w5cnBydjUzNzhoM0BiZnEuMmRjc2pgLS1kLjZzYSNiZnEuMmRjc2pgLS1kLjZzcw%3D%3D&vvpl=1&l=02173103917641900000000000000000000ffff0a0088d433601a&btag=e00070000&format=mp3&mime_type=audio_mpeg",
        "source_timerange": {
            "start_offset": 5.705142857142846,
            "end_offset": 7.131428571428577
        },
        "target_timerange": {
            "start_offset": 452.0331428571429,
            "end_offset": 453.4594285714286
        },
        "ignore_audio": true,
        "audio_path": null
    },
    {
        "segment_id": "c8484a349d8711ef833bb8cef692109a",
        "text": "agreeing with you in your",
        "audio_url": "https://v16m-default.akamaized.net/89645b196c7d7e241f92cbc71ce43c3b/672de442/video/tos/maliva/tos-maliva-v-f15faa-us/oIhudsEQJDLiciYjAnVWyLf3AfBXBBAEpA9nDt/?a=7073&bti=OTU0QDItLmA%3D&ch=0&cr=0&dr=4&er=0&lr=unwatermarked&cd=0%7C0%7C0%7C0&br=312&bt=156&ds=5&ft=.cwOVInz7ThXwqvOXq8Zmo&qs=13&rc=M3B0d2w5cnBydjUzNzhoM0BpM3B0d2w5cnBydjUzNzhoM0BiZnEuMmRjc2pgLS1kLjZzYSNiZnEuMmRjc2pgLS1kLjZzcw%3D%3D&vvpl=1&l=02173103917641900000000000000000000ffff0a0088d433601a&btag=e00070000&format=mp3&mime_type=audio_mpeg",
        "source_timerange": {
            "start_offset": 7.1314285714285575,
            "end_offset": 8.557714285714288
        },
        "target_timerange": {
            "start_offset": 453.4594285714286,
            "end_offset": 454.8857142857143
        },
        "ignore_audio": true,
        "audio_path": null
    },
    {
        "segment_id": "c8484bba9d8711ef833bb8cef692109a",
        "text": "estimation of ladies in general.",
        "audio_url": "https://v16m-default.akamaized.net/89645b196c7d7e241f92cbc71ce43c3b/672de442/video/tos/maliva/tos-maliva-v-f15faa-us/oIhudsEQJDLiciYjAnVWyLf3AfBXBBAEpA9nDt/?a=7073&bti=OTU0QDItLmA%3D&ch=0&cr=0&dr=4&er=0&lr=unwatermarked&cd=0%7C0%7C0%7C0&br=312&bt=156&ds=5&ft=.cwOVInz7ThXwqvOXq8Zmo&qs=13&rc=M3B0d2w5cnBydjUzNzhoM0BpM3B0d2w5cnBydjUzNzhoM0BiZnEuMmRjc2pgLS1kLjZzYSNiZnEuMmRjc2pgLS1kLjZzcw%3D%3D&vvpl=1&l=02173103917641900000000000000000000ffff0a0088d433601a&btag=e00070000&format=mp3&mime_type=audio_mpeg",
        "source_timerange": {
            "start_offset": 8.557714285714269,
            "end_offset": 9.984
        },
        "target_timerange": {
            "start_offset": 454.8857142857143,
            "end_offset": 456.312
        },
        "ignore_audio": true,
        "audio_path": null
    },
    {
        "segment_id": "c84869b09d8711ef833bb8cef692109a",
        "text": "I cannot boast of knowing more",
        "audio_url": "https://v16m-default.akamaized.net/214e4ea4638529d44c6eb34f32bcd8b1/672de43e/video/tos/maliva/tos-maliva-v-f15faa-us/oUOWAmjjEAxHCUeCEZAtjCXdArF9mSfkRgUDfE/?a=7073&bti=OTU0QDItLmA%3D&ch=0&cr=0&dr=4&er=0&lr=unwatermarked&cd=0%7C0%7C0%7C0&br=312&bt=156&ds=5&ft=.cwOVInz7ThXwqvOXq8Zmo&qs=13&rc=ajZrPG05cnBydjUzNzhoM0BpajZrPG05cnBydjUzNzhoM0AwNi9jMmRjc2pgLS1kLjZzYSMwNi9jMmRjc2pgLS1kLjZzcw%3D%3D&vvpl=1&l=02173103917641900000000000000000000ffff0a0088d433601a&btag=e00070000&format=mp3&mime_type=audio_mpeg",
        "source_timerange": {
            "start_offset": 0,
            "end_offset": 1.4520000000000053
        },
        "target_timerange": {
            "start_offset": 456.312,
            "end_offset": 457.764
        },
        "ignore_audio": false,
        "audio_path": null
    },
    {
        "segment_id": "c8486bae9d8711ef833bb8cef692109a",
        "text": "than half-a-dozen in the whole",
        "audio_url": "https://v16m-default.akamaized.net/214e4ea4638529d44c6eb34f32bcd8b1/672de43e/video/tos/maliva/tos-maliva-v-f15faa-us/oUOWAmjjEAxHCUeCEZAtjCXdArF9mSfkRgUDfE/?a=7073&bti=OTU0QDItLmA%3D&ch=0&cr=0&dr=4&er=0&lr=unwatermarked&cd=0%7C0%7C0%7C0&br=312&bt=156&ds=5&ft=.cwOVInz7ThXwqvOXq8Zmo&qs=13&rc=ajZrPG05cnBydjUzNzhoM0BpajZrPG05cnBydjUzNzhoM0AwNi9jMmRjc2pgLS1kLjZzYSMwNi9jMmRjc2pgLS1kLjZzcw%3D%3D&vvpl=1&l=02173103917641900000000000000000000ffff0a0088d433601a&btag=e00070000&format=mp3&mime_type=audio_mpeg",
        "source_timerange": {
            "start_offset": 1.4519999999999982,
            "end_offset": 2.9040000000000035
        },
        "target_timerange": {
            "start_offset": 457.764,
            "end_offset": 459.216
        },
        "ignore_audio": true,
        "audio_path": null
    },
    {
        "segment_id": "c8486d709d8711ef833bb8cef692109a",
        "text": "range of my acquaintance that",
        "audio_url": "https://v16m-default.akamaized.net/214e4ea4638529d44c6eb34f32bcd8b1/672de43e/video/tos/maliva/tos-maliva-v-f15faa-us/oUOWAmjjEAxHCUeCEZAtjCXdArF9mSfkRgUDfE/?a=7073&bti=OTU0QDItLmA%3D&ch=0&cr=0&dr=4&er=0&lr=unwatermarked&cd=0%7C0%7C0%7C0&br=312&bt=156&ds=5&ft=.cwOVInz7ThXwqvOXq8Zmo&qs=13&rc=ajZrPG05cnBydjUzNzhoM0BpajZrPG05cnBydjUzNzhoM0AwNi9jMmRjc2pgLS1kLjZzYSMwNi9jMmRjc2pgLS1kLjZzcw%3D%3D&vvpl=1&l=02173103917641900000000000000000000ffff0a0088d433601a&btag=e00070000&format=mp3&mime_type=audio_mpeg",
        "source_timerange": {
            "start_offset": 2.9039999999999964,
            "end_offset": 4.356000000000002
        },
        "target_timerange": {
            "start_offset": 459.216,
            "end_offset": 460.668
        },
        "ignore_audio": true,
        "audio_path": null
    },
    {
        "segment_id": "c8486f1e9d8711ef833bb8cef692109a",
        "text": "are really accomplished.”",
        "audio_url": "https://v16m-default.akamaized.net/214e4ea4638529d44c6eb34f32bcd8b1/672de43e/video/tos/maliva/tos-maliva-v-f15faa-us/oUOWAmjjEAxHCUeCEZAtjCXdArF9mSfkRgUDfE/?a=7073&bti=OTU0QDItLmA%3D&ch=0&cr=0&dr=4&er=0&lr=unwatermarked&cd=0%7C0%7C0%7C0&br=312&bt=156&ds=5&ft=.cwOVInz7ThXwqvOXq8Zmo&qs=13&rc=ajZrPG05cnBydjUzNzhoM0BpajZrPG05cnBydjUzNzhoM0AwNi9jMmRjc2pgLS1kLjZzYSMwNi9jMmRjc2pgLS1kLjZzcw%3D%3D&vvpl=1&l=02173103917641900000000000000000000ffff0a0088d433601a&btag=e00070000&format=mp3&mime_type=audio_mpeg",
        "source_timerange": {
            "start_offset": 4.3559999999999945,
            "end_offset": 5.808
        },
        "target_timerange": {
            "start_offset": 460.668,
            "end_offset": 462.12
        },
        "ignore_audio": true,
        "audio_path": null
    },
    {
        "segment_id": "c848806c9d8711ef833bb8cef692109a",
        "text": "“Nor I, I am sure,”",
        "audio_url": "https://v16m-default.akamaized.net/0b0d2069acd6e6b3b4bd5f026d4737d9/672de43b/video/tos/maliva/tos-maliva-v-f15faa-us/oQJaLwnVSEd0hjCBinYQ0fB0isfALB9AAEmtA5/?a=7073&bti=OTU0QDItLmA%3D&ch=0&cr=0&dr=4&er=0&lr=unwatermarked&cd=0%7C0%7C0%7C0&br=312&bt=156&ds=5&ft=.cwOVInz7ThXwqvOXq8Zmo&qs=13&rc=M2xram45cnBydjUzNzhoM0BpM2xram45cnBydjUzNzhoM0BsaGpiMmRjc2pgLS1kLjZzYSNsaGpiMmRjc2pgLS1kLjZzcw%3D%3D&vvpl=1&l=02173103917641900000000000000000000ffff0a0088d433601a&btag=e00070000&format=mp3&mime_type=audio_mpeg",
        "source_timerange": {
            "start_offset": 0,
            "end_offset": 1.3560000000000056
        },
        "target_timerange": {
            "start_offset": 462.12,
            "end_offset": 463.476
        },
        "ignore_audio": false,
        "audio_path": null
    },
    {
        "segment_id": "c84882609d8711ef833bb8cef692109a",
        "text": "said Miss Bingley.",
        "audio_url": "https://v16m-default.akamaized.net/0b0d2069acd6e6b3b4bd5f026d4737d9/672de43b/video/tos/maliva/tos-maliva-v-f15faa-us/oQJaLwnVSEd0hjCBinYQ0fB0isfALB9AAEmtA5/?a=7073&bti=OTU0QDItLmA%3D&ch=0&cr=0&dr=4&er=0&lr=unwatermarked&cd=0%7C0%7C0%7C0&br=312&bt=156&ds=5&ft=.cwOVInz7ThXwqvOXq8Zmo&qs=13&rc=M2xram45cnBydjUzNzhoM0BpM2xram45cnBydjUzNzhoM0BsaGpiMmRjc2pgLS1kLjZzYSNsaGpiMmRjc2pgLS1kLjZzcw%3D%3D&vvpl=1&l=02173103917641900000000000000000000ffff0a0088d433601a&btag=e00070000&format=mp3&mime_type=audio_mpeg",
        "source_timerange": {
            "start_offset": 1.3559999999999945,
            "end_offset": 2.712
        },
        "target_timerange": {
            "start_offset": 463.476,
            "end_offset": 464.832
        },
        "ignore_audio": true,
        "audio_path": null
    },
    {
        "segment_id": "c848a3c69d8711ef833bb8cef692109a",
        "text": "“Then,” observed Elizabeth,",
        "audio_url": "https://v16m-default.akamaized.net/ca4bb0b9e5be6c5cb36d32626508a90b/672de43e/video/tos/maliva/tos-maliva-v-f15faa-us/o4HxOCIhfADagqXZIMBCCejbGSF7rWIEkAxqfA/?a=7073&bti=OTU0QDItLmA%3D&ch=0&cr=0&dr=4&er=0&lr=unwatermarked&cd=0%7C0%7C0%7C0&br=312&bt=156&ds=5&ft=.cwOVInz7ThXwqvOXq8Zmo&qs=13&rc=ajdubmo5cnBydjUzNzhoM0Bpajdubmo5cnBydjUzNzhoM0AubmJuMmRjc2pgLS1kLjZzYSMubmJuMmRjc2pgLS1kLjZzcw%3D%3D&vvpl=1&l=02173103917641900000000000000000000ffff0a0088d433601a&btag=e00070000&format=mp3&mime_type=audio_mpeg",
        "source_timerange": {
            "start_offset": 0,
            "end_offset": 1.4339999999999788
        },
        "target_timerange": {
            "start_offset": 464.832,
            "end_offset": 466.26599999999996
        },
        "ignore_audio": false,
        "audio_path": null
    },
    {
        "segment_id": "c848a57e9d8711ef833bb8cef692109a",
        "text": "“you must comprehend a great",
        "audio_url": "https://v16m-default.akamaized.net/ca4bb0b9e5be6c5cb36d32626508a90b/672de43e/video/tos/maliva/tos-maliva-v-f15faa-us/o4HxOCIhfADagqXZIMBCCejbGSF7rWIEkAxqfA/?a=7073&bti=OTU0QDItLmA%3D&ch=0&cr=0&dr=4&er=0&lr=unwatermarked&cd=0%7C0%7C0%7C0&br=312&bt=156&ds=5&ft=.cwOVInz7ThXwqvOXq8Zmo&qs=13&rc=ajdubmo5cnBydjUzNzhoM0Bpajdubmo5cnBydjUzNzhoM0AubmJuMmRjc2pgLS1kLjZzYSMubmJuMmRjc2pgLS1kLjZzcw%3D%3D&vvpl=1&l=02173103917641900000000000000000000ffff0a0088d433601a&btag=e00070000&format=mp3&mime_type=audio_mpeg",
        "source_timerange": {
            "start_offset": 1.433999999999969,
            "end_offset": 2.8680000000000048
        },
        "target_timerange": {
            "start_offset": 466.26599999999996,
            "end_offset": 467.7
        },
        "ignore_audio": true,
        "audio_path": null
    },
    {
        "segment_id": "c848a6dc9d8711ef833bb8cef692109a",
        "text": "deal in your idea of an",
        "audio_url": "https://v16m-default.akamaized.net/ca4bb0b9e5be6c5cb36d32626508a90b/672de43e/video/tos/maliva/tos-maliva-v-f15faa-us/o4HxOCIhfADagqXZIMBCCejbGSF7rWIEkAxqfA/?a=7073&bti=OTU0QDItLmA%3D&ch=0&cr=0&dr=4&er=0&lr=unwatermarked&cd=0%7C0%7C0%7C0&br=312&bt=156&ds=5&ft=.cwOVInz7ThXwqvOXq8Zmo&qs=13&rc=ajdubmo5cnBydjUzNzhoM0Bpajdubmo5cnBydjUzNzhoM0AubmJuMmRjc2pgLS1kLjZzYSMubmJuMmRjc2pgLS1kLjZzcw%3D%3D&vvpl=1&l=02173103917641900000000000000000000ffff0a0088d433601a&btag=e00070000&format=mp3&mime_type=audio_mpeg",
        "source_timerange": {
            "start_offset": 2.867999999999995,
            "end_offset": 4.302000000000031
        },
        "target_timerange": {
            "start_offset": 467.7,
            "end_offset": 469.134
        },
        "ignore_audio": true,
        "audio_path": null
    },
    {
        "segment_id": "c848a8269d8711ef833bb8cef692109a",
        "text": "accomplished woman.”",
        "audio_url": "https://v16m-default.akamaized.net/ca4bb0b9e5be6c5cb36d32626508a90b/672de43e/video/tos/maliva/tos-maliva-v-f15faa-us/o4HxOCIhfADagqXZIMBCCejbGSF7rWIEkAxqfA/?a=7073&bti=OTU0QDItLmA%3D&ch=0&cr=0&dr=4&er=0&lr=unwatermarked&cd=0%7C0%7C0%7C0&br=312&bt=156&ds=5&ft=.cwOVInz7ThXwqvOXq8Zmo&qs=13&rc=ajdubmo5cnBydjUzNzhoM0Bpajdubmo5cnBydjUzNzhoM0AubmJuMmRjc2pgLS1kLjZzYSMubmJuMmRjc2pgLS1kLjZzcw%3D%3D&vvpl=1&l=02173103917641900000000000000000000ffff0a0088d433601a&btag=e00070000&format=mp3&mime_type=audio_mpeg",
        "source_timerange": {
            "start_offset": 4.302000000000021,
            "end_offset": 5.736
        },
        "target_timerange": {
            "start_offset": 469.134,
            "end_offset": 470.568
        },
        "ignore_audio": true,
        "audio_path": null
    },
    {
        "segment_id": "c848b7bc9d8711ef833bb8cef692109a",
        "text": "“Yes; I do comprehend a",
        "audio_url": "https://v16m-default.akamaized.net/d23937d71522b98fc191b17d6a52107e/672de43b/video/tos/maliva/tos-maliva-v-f15faa-us/oo9PEpinAYJsrditBABLEfLyV8nQjBAhAYisfD/?a=7073&bti=OTU0QDItLmA%3D&ch=0&cr=0&dr=4&er=0&lr=unwatermarked&cd=0%7C0%7C0%7C0&br=312&bt=156&ds=5&ft=.cwOVInz7ThXwqvOXq8Zmo&qs=13&rc=andqOWw5cnBydjUzNzhoM0BpandqOWw5cnBydjUzNzhoM0BocjJyMmRjc2pgLS1kLjZzYSNocjJyMmRjc2pgLS1kLjZzcw%3D%3D&vvpl=1&l=02173103917641900000000000000000000ffff0a0088d433601a&btag=e00070000&format=mp3&mime_type=audio_mpeg",
        "source_timerange": {
            "start_offset": 0,
            "end_offset": 1.416000000000003
        },
        "target_timerange": {
            "start_offset": 470.568,
            "end_offset": 471.98400000000004
        },
        "ignore_audio": false,
        "audio_path": null
    },
    {
        "segment_id": "c848b9889d8711ef833bb8cef692109a",
        "text": "great deal in it.”",
        "audio_url": "https://v16m-default.akamaized.net/d23937d71522b98fc191b17d6a52107e/672de43b/video/tos/maliva/tos-maliva-v-f15faa-us/oo9PEpinAYJsrditBABLEfLyV8nQjBAhAYisfD/?a=7073&bti=OTU0QDItLmA%3D&ch=0&cr=0&dr=4&er=0&lr=unwatermarked&cd=0%7C0%7C0%7C0&br=312&bt=156&ds=5&ft=.cwOVInz7ThXwqvOXq8Zmo&qs=13&rc=andqOWw5cnBydjUzNzhoM0BpandqOWw5cnBydjUzNzhoM0BocjJyMmRjc2pgLS1kLjZzYSNocjJyMmRjc2pgLS1kLjZzcw%3D%3D&vvpl=1&l=02173103917641900000000000000000000ffff0a0088d433601a&btag=e00070000&format=mp3&mime_type=audio_mpeg",
        "source_timerange": {
            "start_offset": 1.4160000000000537,
            "end_offset": 2.832
        },
        "target_timerange": {
            "start_offset": 471.98400000000004,
            "end_offset": 473.40000000000003
        },
        "ignore_audio": true,
        "audio_path": null
    },
    {
        "segment_id": "c848dc9c9d8711ef833bb8cef692109a",
        "text": "“Oh, certainly,” cried his",
        "audio_url": "https://v16m-default.akamaized.net/31e9a8937f1477d1485c16fadef46392/672de441/video/tos/maliva/tos-maliva-v-f15faa-us/osAESEjXgXf4Cjk4rFfexODClAWK9EC89ApZAt/?a=7073&bti=OTU0QDItLmA%3D&ch=0&cr=0&dr=4&er=0&lr=unwatermarked&cd=0%7C0%7C0%7C0&br=312&bt=156&ds=5&ft=.cwOVInz7ThXwqvOXq8Zmo&qs=13&rc=anI6eWw5cnBydjUzNzhoM0BpanI6eWw5cnBydjUzNzhoM0BybWk1MmRjc2pgLS1kLjZzYSNybWk1MmRjc2pgLS1kLjZzcw%3D%3D&vvpl=1&l=02173103917641900000000000000000000ffff0a0088d433601a&btag=e00070000&format=mp3&mime_type=audio_mpeg",
        "source_timerange": {
            "start_offset": 0,
            "end_offset": 1.6176000000000172
        },
        "target_timerange": {
            "start_offset": 473.40000000000003,
            "end_offset": 475.0176
        },
        "ignore_audio": false,
        "audio_path": null
    },
    {
        "segment_id": "c848de869d8711ef833bb8cef692109a",
        "text": "faithful assistant, “no one can",
        "audio_url": "https://v16m-default.akamaized.net/31e9a8937f1477d1485c16fadef46392/672de441/video/tos/maliva/tos-maliva-v-f15faa-us/osAESEjXgXf4Cjk4rFfexODClAWK9EC89ApZAt/?a=7073&bti=OTU0QDItLmA%3D&ch=0&cr=0&dr=4&er=0&lr=unwatermarked&cd=0%7C0%7C0%7C0&br=312&bt=156&ds=5&ft=.cwOVInz7ThXwqvOXq8Zmo&qs=13&rc=anI6eWw5cnBydjUzNzhoM0BpanI6eWw5cnBydjUzNzhoM0BybWk1MmRjc2pgLS1kLjZzYSNybWk1MmRjc2pgLS1kLjZzcw%3D%3D&vvpl=1&l=02173103917641900000000000000000000ffff0a0088d433601a&btag=e00070000&format=mp3&mime_type=audio_mpeg",
        "source_timerange": {
            "start_offset": 1.6175999999999817,
            "end_offset": 3.235199999999999
        },
        "target_timerange": {
            "start_offset": 475.0176,
            "end_offset": 476.6352
        },
        "ignore_audio": true,
        "audio_path": null
    },
    {
        "segment_id": "c848e0209d8711ef833bb8cef692109a",
        "text": "be really esteemed accomplished",
        "audio_url": "https://v16m-default.akamaized.net/31e9a8937f1477d1485c16fadef46392/672de441/video/tos/maliva/tos-maliva-v-f15faa-us/osAESEjXgXf4Cjk4rFfexODClAWK9EC89ApZAt/?a=7073&bti=OTU0QDItLmA%3D&ch=0&cr=0&dr=4&er=0&lr=unwatermarked&cd=0%7C0%7C0%7C0&br=312&bt=156&ds=5&ft=.cwOVInz7ThXwqvOXq8Zmo&qs=13&rc=anI6eWw5cnBydjUzNzhoM0BpanI6eWw5cnBydjUzNzhoM0BybWk1MmRjc2pgLS1kLjZzYSNybWk1MmRjc2pgLS1kLjZzcw%3D%3D&vvpl=1&l=02173103917641900000000000000000000ffff0a0088d433601a&btag=e00070000&format=mp3&mime_type=audio_mpeg",
        "source_timerange": {
            "start_offset": 3.2351999999999634,
            "end_offset": 4.8528000000000375
        },
        "target_timerange": {
            "start_offset": 476.6352,
            "end_offset": 478.25280000000004
        },
        "ignore_audio": true,
        "audio_path": null
    },
    {
        "segment_id": "c848e1ba9d8711ef833bb8cef692109a",
        "text": "who does not greatly surpass",
        "audio_url": "https://v16m-default.akamaized.net/31e9a8937f1477d1485c16fadef46392/672de441/video/tos/maliva/tos-maliva-v-f15faa-us/osAESEjXgXf4Cjk4rFfexODClAWK9EC89ApZAt/?a=7073&bti=OTU0QDItLmA%3D&ch=0&cr=0&dr=4&er=0&lr=unwatermarked&cd=0%7C0%7C0%7C0&br=312&bt=156&ds=5&ft=.cwOVInz7ThXwqvOXq8Zmo&qs=13&rc=anI6eWw5cnBydjUzNzhoM0BpanI6eWw5cnBydjUzNzhoM0BybWk1MmRjc2pgLS1kLjZzYSNybWk1MmRjc2pgLS1kLjZzcw%3D%3D&vvpl=1&l=02173103917641900000000000000000000ffff0a0088d433601a&btag=e00070000&format=mp3&mime_type=audio_mpeg",
        "source_timerange": {
            "start_offset": 4.852800000000002,
            "end_offset": 6.470400000000019
        },
        "target_timerange": {
            "start_offset": 478.25280000000004,
            "end_offset": 479.8704
        },
        "ignore_audio": true,
        "audio_path": null
    },
    {
        "segment_id": "c848e3549d8711ef833bb8cef692109a",
        "text": "what is usually met with.",
        "audio_url": "https://v16m-default.akamaized.net/31e9a8937f1477d1485c16fadef46392/672de441/video/tos/maliva/tos-maliva-v-f15faa-us/osAESEjXgXf4Cjk4rFfexODClAWK9EC89ApZAt/?a=7073&bti=OTU0QDItLmA%3D&ch=0&cr=0&dr=4&er=0&lr=unwatermarked&cd=0%7C0%7C0%7C0&br=312&bt=156&ds=5&ft=.cwOVInz7ThXwqvOXq8Zmo&qs=13&rc=anI6eWw5cnBydjUzNzhoM0BpanI6eWw5cnBydjUzNzhoM0BybWk1MmRjc2pgLS1kLjZzYSNybWk1MmRjc2pgLS1kLjZzcw%3D%3D&vvpl=1&l=02173103917641900000000000000000000ffff0a0088d433601a&btag=e00070000&format=mp3&mime_type=audio_mpeg",
        "source_timerange": {
            "start_offset": 6.470399999999984,
            "end_offset": 8.088000000000001
        },
        "target_timerange": {
            "start_offset": 479.8704,
            "end_offset": 481.488
        },
        "ignore_audio": true,
        "audio_path": null
    },
    {
        "segment_id": "c84936429d8711ef833bb8cef692109a",
        "text": "A woman must have a",
        "audio_url": "https://v16m-default.akamaized.net/7b13a68d3745cfeedf19e2f859058a00/672de44d/video/tos/maliva/tos-maliva-v-f15faa-us/o8eIAetIT2AHFBcexXjzFlQAbMj78OuXWAEeBk/?a=7073&bti=OTU0QDItLmA%3D&ch=0&cr=0&dr=4&er=0&lr=unwatermarked&cd=0%7C0%7C0%7C0&br=312&bt=156&ds=5&ft=.cwOVInz7ThxwqvOXq8Zmo&qs=13&rc=ajh1OnY5cnBydjUzNzhoM0Bpajh1OnY5cnBydjUzNzhoM0BzY2VhMmRjc2pgLS1kLjZzYSNzY2VhMmRjc2pgLS1kLjZzcw%3D%3D&vvpl=1&l=02173103917641900000000000000000000ffff0a0088d433601a&btag=e00078000&format=mp3&mime_type=audio_mpeg",
        "source_timerange": {
            "start_offset": 0,
            "end_offset": 1.4621538461538144
        },
        "target_timerange": {
            "start_offset": 481.488,
            "end_offset": 482.95015384615385
        },
        "ignore_audio": false,
        "audio_path": null
    },
    {
        "segment_id": "c84938549d8711ef833bb8cef692109a",
        "text": "thorough knowledge of",
        "audio_url": "https://v16m-default.akamaized.net/7b13a68d3745cfeedf19e2f859058a00/672de44d/video/tos/maliva/tos-maliva-v-f15faa-us/o8eIAetIT2AHFBcexXjzFlQAbMj78OuXWAEeBk/?a=7073&bti=OTU0QDItLmA%3D&ch=0&cr=0&dr=4&er=0&lr=unwatermarked&cd=0%7C0%7C0%7C0&br=312&bt=156&ds=5&ft=.cwOVInz7ThxwqvOXq8Zmo&qs=13&rc=ajh1OnY5cnBydjUzNzhoM0Bpajh1OnY5cnBydjUzNzhoM0BzY2VhMmRjc2pgLS1kLjZzYSNzY2VhMmRjc2pgLS1kLjZzcw%3D%3D&vvpl=1&l=02173103917641900000000000000000000ffff0a0088d433601a&btag=e00078000&format=mp3&mime_type=audio_mpeg",
        "source_timerange": {
            "start_offset": 1.4621538461538535,
            "end_offset": 2.924307692307668
        },
        "target_timerange": {
            "start_offset": 482.95015384615385,
            "end_offset": 484.4123076923077
        },
        "ignore_audio": true,
        "audio_path": null
    },
    {
        "segment_id": "c8493a2a9d8711ef833bb8cef692109a",
        "text": "music, singing, drawing,",
        "audio_url": "https://v16m-default.akamaized.net/7b13a68d3745cfeedf19e2f859058a00/672de44d/video/tos/maliva/tos-maliva-v-f15faa-us/o8eIAetIT2AHFBcexXjzFlQAbMj78OuXWAEeBk/?a=7073&bti=OTU0QDItLmA%3D&ch=0&cr=0&dr=4&er=0&lr=unwatermarked&cd=0%7C0%7C0%7C0&br=312&bt=156&ds=5&ft=.cwOVInz7ThxwqvOXq8Zmo&qs=13&rc=ajh1OnY5cnBydjUzNzhoM0Bpajh1OnY5cnBydjUzNzhoM0BzY2VhMmRjc2pgLS1kLjZzYSNzY2VhMmRjc2pgLS1kLjZzcw%3D%3D&vvpl=1&l=02173103917641900000000000000000000ffff0a0088d433601a&btag=e00078000&format=mp3&mime_type=audio_mpeg",
        "source_timerange": {
            "start_offset": 2.924307692307707,
            "end_offset": 4.386461538461521
        },
        "target_timerange": {
            "start_offset": 484.4123076923077,
            "end_offset": 485.87446153846156
        },
        "ignore_audio": true,
        "audio_path": null
    },
    {
        "segment_id": "c8493bba9d8711ef833bb8cef692109a",
        "text": "dancing, and the modern",
        "audio_url": "https://v16m-default.akamaized.net/7b13a68d3745cfeedf19e2f859058a00/672de44d/video/tos/maliva/tos-maliva-v-f15faa-us/o8eIAetIT2AHFBcexXjzFlQAbMj78OuXWAEeBk/?a=7073&bti=OTU0QDItLmA%3D&ch=0&cr=0&dr=4&er=0&lr=unwatermarked&cd=0%7C0%7C0%7C0&br=312&bt=156&ds=5&ft=.cwOVInz7ThxwqvOXq8Zmo&qs=13&rc=ajh1OnY5cnBydjUzNzhoM0Bpajh1OnY5cnBydjUzNzhoM0BzY2VhMmRjc2pgLS1kLjZzYSNzY2VhMmRjc2pgLS1kLjZzcw%3D%3D&vvpl=1&l=02173103917641900000000000000000000ffff0a0088d433601a&btag=e00078000&format=mp3&mime_type=audio_mpeg",
        "source_timerange": {
            "start_offset": 4.38646153846156,
            "end_offset": 5.848615384615375
        },
        "target_timerange": {
            "start_offset": 485.87446153846156,
            "end_offset": 487.3366153846154
        },
        "ignore_audio": true,
        "audio_path": null
    },
    {
        "segment_id": "c8493d4a9d8711ef833bb8cef692109a",
        "text": "languages, to deserve the",
        "audio_url": "https://v16m-default.akamaized.net/7b13a68d3745cfeedf19e2f859058a00/672de44d/video/tos/maliva/tos-maliva-v-f15faa-us/o8eIAetIT2AHFBcexXjzFlQAbMj78OuXWAEeBk/?a=7073&bti=OTU0QDItLmA%3D&ch=0&cr=0&dr=4&er=0&lr=unwatermarked&cd=0%7C0%7C0%7C0&br=312&bt=156&ds=5&ft=.cwOVInz7ThxwqvOXq8Zmo&qs=13&rc=ajh1OnY5cnBydjUzNzhoM0Bpajh1OnY5cnBydjUzNzhoM0BzY2VhMmRjc2pgLS1kLjZzYSNzY2VhMmRjc2pgLS1kLjZzcw%3D%3D&vvpl=1&l=02173103917641900000000000000000000ffff0a0088d433601a&btag=e00078000&format=mp3&mime_type=audio_mpeg",
        "source_timerange": {
            "start_offset": 5.848615384615414,
            "end_offset": 7.310769230769228
        },
        "target_timerange": {
            "start_offset": 487.3366153846154,
            "end_offset": 488.79876923076927
        },
        "ignore_audio": true,
        "audio_path": null
    },
    {
        "segment_id": "c8493f529d8711ef833bb8cef692109a",
        "text": "word; and, besides all",
        "audio_url": "https://v16m-default.akamaized.net/7b13a68d3745cfeedf19e2f859058a00/672de44d/video/tos/maliva/tos-maliva-v-f15faa-us/o8eIAetIT2AHFBcexXjzFlQAbMj78OuXWAEeBk/?a=7073&bti=OTU0QDItLmA%3D&ch=0&cr=0&dr=4&er=0&lr=unwatermarked&cd=0%7C0%7C0%7C0&br=312&bt=156&ds=5&ft=.cwOVInz7ThxwqvOXq8Zmo&qs=13&rc=ajh1OnY5cnBydjUzNzhoM0Bpajh1OnY5cnBydjUzNzhoM0BzY2VhMmRjc2pgLS1kLjZzYSNzY2VhMmRjc2pgLS1kLjZzcw%3D%3D&vvpl=1&l=02173103917641900000000000000000000ffff0a0088d433601a&btag=e00078000&format=mp3&mime_type=audio_mpeg",
        "source_timerange": {
            "start_offset": 7.310769230769267,
            "end_offset": 8.772923076923082
        },
        "target_timerange": {
            "start_offset": 488.79876923076927,
            "end_offset": 490.2609230769231
        },
        "ignore_audio": true,
        "audio_path": null
    },
    {
        "segment_id": "c84941009d8711ef833bb8cef692109a",
        "text": "this, she must possess a",
        "audio_url": "https://v16m-default.akamaized.net/7b13a68d3745cfeedf19e2f859058a00/672de44d/video/tos/maliva/tos-maliva-v-f15faa-us/o8eIAetIT2AHFBcexXjzFlQAbMj78OuXWAEeBk/?a=7073&bti=OTU0QDItLmA%3D&ch=0&cr=0&dr=4&er=0&lr=unwatermarked&cd=0%7C0%7C0%7C0&br=312&bt=156&ds=5&ft=.cwOVInz7ThxwqvOXq8Zmo&qs=13&rc=ajh1OnY5cnBydjUzNzhoM0Bpajh1OnY5cnBydjUzNzhoM0BzY2VhMmRjc2pgLS1kLjZzYSNzY2VhMmRjc2pgLS1kLjZzcw%3D%3D&vvpl=1&l=02173103917641900000000000000000000ffff0a0088d433601a&btag=e00078000&format=mp3&mime_type=audio_mpeg",
        "source_timerange": {
            "start_offset": 8.77292307692312,
            "end_offset": 10.235076923076878
        },
        "target_timerange": {
            "start_offset": 490.2609230769231,
            "end_offset": 491.7230769230769
        },
        "ignore_audio": true,
        "audio_path": null
    },
    {
        "segment_id": "c84942869d8711ef833bb8cef692109a",
        "text": "certain something in her",
        "audio_url": "https://v16m-default.akamaized.net/7b13a68d3745cfeedf19e2f859058a00/672de44d/video/tos/maliva/tos-maliva-v-f15faa-us/o8eIAetIT2AHFBcexXjzFlQAbMj78OuXWAEeBk/?a=7073&bti=OTU0QDItLmA%3D&ch=0&cr=0&dr=4&er=0&lr=unwatermarked&cd=0%7C0%7C0%7C0&br=312&bt=156&ds=5&ft=.cwOVInz7ThxwqvOXq8Zmo&qs=13&rc=ajh1OnY5cnBydjUzNzhoM0Bpajh1OnY5cnBydjUzNzhoM0BzY2VhMmRjc2pgLS1kLjZzYSNzY2VhMmRjc2pgLS1kLjZzcw%3D%3D&vvpl=1&l=02173103917641900000000000000000000ffff0a0088d433601a&btag=e00078000&format=mp3&mime_type=audio_mpeg",
        "source_timerange": {
            "start_offset": 10.235076923076917,
            "end_offset": 11.697230769230732
        },
        "target_timerange": {
            "start_offset": 491.7230769230769,
            "end_offset": 493.18523076923077
        },
        "ignore_audio": true,
        "audio_path": null
    },
    {
        "segment_id": "c849440c9d8711ef833bb8cef692109a",
        "text": "air and manner of walking,",
        "audio_url": "https://v16m-default.akamaized.net/7b13a68d3745cfeedf19e2f859058a00/672de44d/video/tos/maliva/tos-maliva-v-f15faa-us/o8eIAetIT2AHFBcexXjzFlQAbMj78OuXWAEeBk/?a=7073&bti=OTU0QDItLmA%3D&ch=0&cr=0&dr=4&er=0&lr=unwatermarked&cd=0%7C0%7C0%7C0&br=312&bt=156&ds=5&ft=.cwOVInz7ThxwqvOXq8Zmo&qs=13&rc=ajh1OnY5cnBydjUzNzhoM0Bpajh1OnY5cnBydjUzNzhoM0BzY2VhMmRjc2pgLS1kLjZzYSNzY2VhMmRjc2pgLS1kLjZzcw%3D%3D&vvpl=1&l=02173103917641900000000000000000000ffff0a0088d433601a&btag=e00078000&format=mp3&mime_type=audio_mpeg",
        "source_timerange": {
            "start_offset": 11.69723076923077,
            "end_offset": 13.159384615384585
        },
        "target_timerange": {
            "start_offset": 493.18523076923077,
            "end_offset": 494.6473846153846
        },
        "ignore_audio": true,
        "audio_path": null
    },
    {
        "segment_id": "c84945a69d8711ef833bb8cef692109a",
        "text": "the tone of her voice, her",
        "audio_url": "https://v16m-default.akamaized.net/7b13a68d3745cfeedf19e2f859058a00/672de44d/video/tos/maliva/tos-maliva-v-f15faa-us/o8eIAetIT2AHFBcexXjzFlQAbMj78OuXWAEeBk/?a=7073&bti=OTU0QDItLmA%3D&ch=0&cr=0&dr=4&er=0&lr=unwatermarked&cd=0%7C0%7C0%7C0&br=312&bt=156&ds=5&ft=.cwOVInz7ThxwqvOXq8Zmo&qs=13&rc=ajh1OnY5cnBydjUzNzhoM0Bpajh1OnY5cnBydjUzNzhoM0BzY2VhMmRjc2pgLS1kLjZzYSNzY2VhMmRjc2pgLS1kLjZzcw%3D%3D&vvpl=1&l=02173103917641900000000000000000000ffff0a0088d433601a&btag=e00078000&format=mp3&mime_type=audio_mpeg",
        "source_timerange": {
            "start_offset": 13.159384615384624,
            "end_offset": 14.621538461538439
        },
        "target_timerange": {
            "start_offset": 494.6473846153846,
            "end_offset": 496.1095384615385
        },
        "ignore_audio": true,
        "audio_path": null
    },
    {
        "segment_id": "c849472c9d8711ef833bb8cef692109a",
        "text": "address and expressions,",
        "audio_url": "https://v16m-default.akamaized.net/7b13a68d3745cfeedf19e2f859058a00/672de44d/video/tos/maliva/tos-maliva-v-f15faa-us/o8eIAetIT2AHFBcexXjzFlQAbMj78OuXWAEeBk/?a=7073&bti=OTU0QDItLmA%3D&ch=0&cr=0&dr=4&er=0&lr=unwatermarked&cd=0%7C0%7C0%7C0&br=312&bt=156&ds=5&ft=.cwOVInz7ThxwqvOXq8Zmo&qs=13&rc=ajh1OnY5cnBydjUzNzhoM0Bpajh1OnY5cnBydjUzNzhoM0BzY2VhMmRjc2pgLS1kLjZzYSNzY2VhMmRjc2pgLS1kLjZzcw%3D%3D&vvpl=1&l=02173103917641900000000000000000000ffff0a0088d433601a&btag=e00078000&format=mp3&mime_type=audio_mpeg",
        "source_timerange": {
            "start_offset": 14.621538461538478,
            "end_offset": 16.083692307692292
        },
        "target_timerange": {
            "start_offset": 496.1095384615385,
            "end_offset": 497.57169230769233
        },
        "ignore_audio": true,
        "audio_path": null
    },
    {
        "segment_id": "c84948bc9d8711ef833bb8cef692109a",
        "text": "or the word will be but",
        "audio_url": "https://v16m-default.akamaized.net/7b13a68d3745cfeedf19e2f859058a00/672de44d/video/tos/maliva/tos-maliva-v-f15faa-us/o8eIAetIT2AHFBcexXjzFlQAbMj78OuXWAEeBk/?a=7073&bti=OTU0QDItLmA%3D&ch=0&cr=0&dr=4&er=0&lr=unwatermarked&cd=0%7C0%7C0%7C0&br=312&bt=156&ds=5&ft=.cwOVInz7ThxwqvOXq8Zmo&qs=13&rc=ajh1OnY5cnBydjUzNzhoM0Bpajh1OnY5cnBydjUzNzhoM0BzY2VhMmRjc2pgLS1kLjZzYSNzY2VhMmRjc2pgLS1kLjZzcw%3D%3D&vvpl=1&l=02173103917641900000000000000000000ffff0a0088d433601a&btag=e00078000&format=mp3&mime_type=audio_mpeg",
        "source_timerange": {
            "start_offset": 16.08369230769233,
            "end_offset": 17.545846153846146
        },
        "target_timerange": {
            "start_offset": 497.57169230769233,
            "end_offset": 499.0338461538462
        },
        "ignore_audio": true,
        "audio_path": null
    },
    {
        "segment_id": "c8494a429d8711ef833bb8cef692109a",
        "text": "half deserved.”",
        "audio_url": "https://v16m-default.akamaized.net/7b13a68d3745cfeedf19e2f859058a00/672de44d/video/tos/maliva/tos-maliva-v-f15faa-us/o8eIAetIT2AHFBcexXjzFlQAbMj78OuXWAEeBk/?a=7073&bti=OTU0QDItLmA%3D&ch=0&cr=0&dr=4&er=0&lr=unwatermarked&cd=0%7C0%7C0%7C0&br=312&bt=156&ds=5&ft=.cwOVInz7ThxwqvOXq8Zmo&qs=13&rc=ajh1OnY5cnBydjUzNzhoM0Bpajh1OnY5cnBydjUzNzhoM0BzY2VhMmRjc2pgLS1kLjZzYSNzY2VhMmRjc2pgLS1kLjZzcw%3D%3D&vvpl=1&l=02173103917641900000000000000000000ffff0a0088d433601a&btag=e00078000&format=mp3&mime_type=audio_mpeg",
        "source_timerange": {
            "start_offset": 17.545846153846185,
            "end_offset": 19.008
        },
        "target_timerange": {
            "start_offset": 499.0338461538462,
            "end_offset": 500.49600000000004
        },
        "ignore_audio": true,
        "audio_path": null
    },
    {
        "segment_id": "c84973a09d8711ef833bb8cef692109a",
        "text": "“All this she must possess,”",
        "audio_url": "https://v16m-default.akamaized.net/a83a8121955526ee715f336e6f04eee5/672de441/video/tos/maliva/tos-maliva-v-f15faa-us/oQOASttIZC1ExXFr1CEE59nAAWCeghfAEfjDEB/?a=7073&bti=OTU0QDItLmA%3D&ch=0&cr=0&dr=4&er=0&lr=unwatermarked&cd=0%7C0%7C0%7C0&br=312&bt=156&ds=5&ft=.cwOVInz7ThXwqvOXq8Zmo&qs=13&rc=am9yOnQ5cnBydjUzNzhoM0Bpam9yOnQ5cnBydjUzNzhoM0AtNjRmMmRjc2pgLS1kLjZzYSMtNjRmMmRjc2pgLS1kLjZzcw%3D%3D&vvpl=1&l=02173103917641900000000000000000000ffff0a0088d433601a&btag=e00070000&format=mp3&mime_type=audio_mpeg",
        "source_timerange": {
            "start_offset": 0,
            "end_offset": 1.471999999999987
        },
        "target_timerange": {
            "start_offset": 500.49600000000004,
            "end_offset": 501.968
        },
        "ignore_audio": false,
        "audio_path": null
    },
    {
        "segment_id": "c849759e9d8711ef833bb8cef692109a",
        "text": "added Darcy; “and to all she",
        "audio_url": "https://v16m-default.akamaized.net/a83a8121955526ee715f336e6f04eee5/672de441/video/tos/maliva/tos-maliva-v-f15faa-us/oQOASttIZC1ExXFr1CEE59nAAWCeghfAEfjDEB/?a=7073&bti=OTU0QDItLmA%3D&ch=0&cr=0&dr=4&er=0&lr=unwatermarked&cd=0%7C0%7C0%7C0&br=312&bt=156&ds=5&ft=.cwOVInz7ThXwqvOXq8Zmo&qs=13&rc=am9yOnQ5cnBydjUzNzhoM0Bpam9yOnQ5cnBydjUzNzhoM0AtNjRmMmRjc2pgLS1kLjZzYSMtNjRmMmRjc2pgLS1kLjZzcw%3D%3D&vvpl=1&l=02173103917641900000000000000000000ffff0a0088d433601a&btag=e00070000&format=mp3&mime_type=audio_mpeg",
        "source_timerange": {
            "start_offset": 1.47199999999998,
            "end_offset": 2.944000000000024
        },
        "target_timerange": {
            "start_offset": 501.968,
            "end_offset": 503.44000000000005
        },
        "ignore_audio": true,
        "audio_path": null
    },
    {
        "segment_id": "c84977429d8711ef833bb8cef692109a",
        "text": "must yet add something more",
        "audio_url": "https://v16m-default.akamaized.net/a83a8121955526ee715f336e6f04eee5/672de441/video/tos/maliva/tos-maliva-v-f15faa-us/oQOASttIZC1ExXFr1CEE59nAAWCeghfAEfjDEB/?a=7073&bti=OTU0QDItLmA%3D&ch=0&cr=0&dr=4&er=0&lr=unwatermarked&cd=0%7C0%7C0%7C0&br=312&bt=156&ds=5&ft=.cwOVInz7ThXwqvOXq8Zmo&qs=13&rc=am9yOnQ5cnBydjUzNzhoM0Bpam9yOnQ5cnBydjUzNzhoM0AtNjRmMmRjc2pgLS1kLjZzYSMtNjRmMmRjc2pgLS1kLjZzcw%3D%3D&vvpl=1&l=02173103917641900000000000000000000ffff0a0088d433601a&btag=e00070000&format=mp3&mime_type=audio_mpeg",
        "source_timerange": {
            "start_offset": 2.944000000000017,
            "end_offset": 4.416000000000004
        },
        "target_timerange": {
            "start_offset": 503.44000000000005,
            "end_offset": 504.91200000000003
        },
        "ignore_audio": true,
        "audio_path": null
    },
    {
        "segment_id": "c84978d29d8711ef833bb8cef692109a",
        "text": "substantial in the",
        "audio_url": "https://v16m-default.akamaized.net/a83a8121955526ee715f336e6f04eee5/672de441/video/tos/maliva/tos-maliva-v-f15faa-us/oQOASttIZC1ExXFr1CEE59nAAWCeghfAEfjDEB/?a=7073&bti=OTU0QDItLmA%3D&ch=0&cr=0&dr=4&er=0&lr=unwatermarked&cd=0%7C0%7C0%7C0&br=312&bt=156&ds=5&ft=.cwOVInz7ThXwqvOXq8Zmo&qs=13&rc=am9yOnQ5cnBydjUzNzhoM0Bpam9yOnQ5cnBydjUzNzhoM0AtNjRmMmRjc2pgLS1kLjZzYSMtNjRmMmRjc2pgLS1kLjZzcw%3D%3D&vvpl=1&l=02173103917641900000000000000000000ffff0a0088d433601a&btag=e00070000&format=mp3&mime_type=audio_mpeg",
        "source_timerange": {
            "start_offset": 4.415999999999997,
            "end_offset": 5.887999999999984
        },
        "target_timerange": {
            "start_offset": 504.91200000000003,
            "end_offset": 506.384
        },
        "ignore_audio": true,
        "audio_path": null
    },
    {
        "segment_id": "c8497a629d8711ef833bb8cef692109a",
        "text": "improvement of her mind by",
        "audio_url": "https://v16m-default.akamaized.net/a83a8121955526ee715f336e6f04eee5/672de441/video/tos/maliva/tos-maliva-v-f15faa-us/oQOASttIZC1ExXFr1CEE59nAAWCeghfAEfjDEB/?a=7073&bti=OTU0QDItLmA%3D&ch=0&cr=0&dr=4&er=0&lr=unwatermarked&cd=0%7C0%7C0%7C0&br=312&bt=156&ds=5&ft=.cwOVInz7ThXwqvOXq8Zmo&qs=13&rc=am9yOnQ5cnBydjUzNzhoM0Bpam9yOnQ5cnBydjUzNzhoM0AtNjRmMmRjc2pgLS1kLjZzYSMtNjRmMmRjc2pgLS1kLjZzcw%3D%3D&vvpl=1&l=02173103917641900000000000000000000ffff0a0088d433601a&btag=e00070000&format=mp3&mime_type=audio_mpeg",
        "source_timerange": {
            "start_offset": 5.887999999999977,
            "end_offset": 7.360000000000021
        },
        "target_timerange": {
            "start_offset": 506.384,
            "end_offset": 507.85600000000005
        },
        "ignore_audio": true,
        "audio_path": null
    },
    {
        "segment_id": "c8497bde9d8711ef833bb8cef692109a",
        "text": "extensive reading.”",
        "audio_url": "https://v16m-default.akamaized.net/a83a8121955526ee715f336e6f04eee5/672de441/video/tos/maliva/tos-maliva-v-f15faa-us/oQOASttIZC1ExXFr1CEE59nAAWCeghfAEfjDEB/?a=7073&bti=OTU0QDItLmA%3D&ch=0&cr=0&dr=4&er=0&lr=unwatermarked&cd=0%7C0%7C0%7C0&br=312&bt=156&ds=5&ft=.cwOVInz7ThXwqvOXq8Zmo&qs=13&rc=am9yOnQ5cnBydjUzNzhoM0Bpam9yOnQ5cnBydjUzNzhoM0AtNjRmMmRjc2pgLS1kLjZzYSMtNjRmMmRjc2pgLS1kLjZzcw%3D%3D&vvpl=1&l=02173103917641900000000000000000000ffff0a0088d433601a&btag=e00070000&format=mp3&mime_type=audio_mpeg",
        "source_timerange": {
            "start_offset": 7.360000000000014,
            "end_offset": 8.832
        },
        "target_timerange": {
            "start_offset": 507.85600000000005,
            "end_offset": 509.32800000000003
        },
        "ignore_audio": true,
        "audio_path": null
    },
    {
        "segment_id": "c84992d69d8711ef833bb8cef692109a",
        "text": "“I am no longer surprised",
        "audio_url": "https://v16m-default.akamaized.net/697d7e033916ef5f871a5deb2191fb62/672de43c/video/tos/maliva/tos-maliva-v-f15faa-us/oQjYnBE4fABcQiLsEkAhBtctcJi9VLCiZAdUfA/?a=7073&bti=OTU0QDItLmA%3D&ch=0&cr=0&dr=4&er=0&lr=unwatermarked&cd=0%7C0%7C0%7C0&br=312&bt=156&ds=5&ft=.cwOVInz7ThXwqvOXq8Zmo&qs=13&rc=MzU8OnI5cnBydjUzNzhoM0BpMzU8OnI5cnBydjUzNzhoM0BibDFeMmRjc2pgLS1kLjZzYSNibDFeMmRjc2pgLS1kLjZzcw%3D%3D&vvpl=1&l=02173103917641900000000000000000000ffff0a0088d433601a&btag=e00070000&format=mp3&mime_type=audio_mpeg",
        "source_timerange": {
            "start_offset": 0,
            "end_offset": 1.264000000000037
        },
        "target_timerange": {
            "start_offset": 509.32800000000003,
            "end_offset": 510.59200000000004
        },
        "ignore_audio": false,
        "audio_path": null
    },
    {
        "segment_id": "c84994ca9d8711ef833bb8cef692109a",
        "text": "at your knowing _only_ six",
        "audio_url": "https://v16m-default.akamaized.net/697d7e033916ef5f871a5deb2191fb62/672de43c/video/tos/maliva/tos-maliva-v-f15faa-us/oQjYnBE4fABcQiLsEkAhBtctcJi9VLCiZAdUfA/?a=7073&bti=OTU0QDItLmA%3D&ch=0&cr=0&dr=4&er=0&lr=unwatermarked&cd=0%7C0%7C0%7C0&br=312&bt=156&ds=5&ft=.cwOVInz7ThXwqvOXq8Zmo&qs=13&rc=MzU8OnI5cnBydjUzNzhoM0BpMzU8OnI5cnBydjUzNzhoM0BibDFeMmRjc2pgLS1kLjZzYSNibDFeMmRjc2pgLS1kLjZzcw%3D%3D&vvpl=1&l=02173103917641900000000000000000000ffff0a0088d433601a&btag=e00070000&format=mp3&mime_type=audio_mpeg",
        "source_timerange": {
            "start_offset": 1.26400000000001,
            "end_offset": 2.5279999999999903
        },
        "target_timerange": {
            "start_offset": 510.59200000000004,
            "end_offset": 511.856
        },
        "ignore_audio": true,
        "audio_path": null
    },
    {
        "segment_id": "c84996829d8711ef833bb8cef692109a",
        "text": "accomplished women.",
        "audio_url": "https://v16m-default.akamaized.net/697d7e033916ef5f871a5deb2191fb62/672de43c/video/tos/maliva/tos-maliva-v-f15faa-us/oQjYnBE4fABcQiLsEkAhBtctcJi9VLCiZAdUfA/?a=7073&bti=OTU0QDItLmA%3D&ch=0&cr=0&dr=4&er=0&lr=unwatermarked&cd=0%7C0%7C0%7C0&br=312&bt=156&ds=5&ft=.cwOVInz7ThXwqvOXq8Zmo&qs=13&rc=MzU8OnI5cnBydjUzNzhoM0BpMzU8OnI5cnBydjUzNzhoM0BibDFeMmRjc2pgLS1kLjZzYSNibDFeMmRjc2pgLS1kLjZzcw%3D%3D&vvpl=1&l=02173103917641900000000000000000000ffff0a0088d433601a&btag=e00070000&format=mp3&mime_type=audio_mpeg",
        "source_timerange": {
            "start_offset": 2.527999999999963,
            "end_offset": 3.7920000000000003
        },
        "target_timerange": {
            "start_offset": 511.856,
            "end_offset": 513.12
        },
        "ignore_audio": true,
        "audio_path": null
    },
    {
        "segment_id": "c849c0d09d8711ef833bb8cef692109a",
        "text": "I rather wonder now at your",
        "audio_url": "https://v16m-default.akamaized.net/df65985fe668fff0dac7282039598c5e/672de441/video/tos/maliva/tos-maliva-v-f15faa-us/osEplrCOLWtjfFYlnDAD9gACSACfXZeAKEAgEx/?a=7073&bti=OTU0QDItLmA%3D&ch=0&cr=0&dr=4&er=0&lr=unwatermarked&cd=0%7C0%7C0%7C0&br=312&bt=156&ds=5&ft=.cwOVInz7ThXwqvOXq8Zmo&qs=13&rc=ajM8O205cnBydjUzNzhoM0BpajM8O205cnBydjUzNzhoM0AuZC5zMmRjc2pgLS1kLjZzYSMuZC5zMmRjc2pgLS1kLjZzcw%3D%3D&vvpl=1&l=02173103917641900000000000000000000ffff0a0088d433601a&btag=e00070000&format=mp3&mime_type=audio_mpeg",
        "source_timerange": {
            "start_offset": 0,
            "end_offset": 1.4360000000000497
        },
        "target_timerange": {
            "start_offset": 513.12,
            "end_offset": 514.556
        },
        "ignore_audio": false,
        "audio_path": null
    },
    {
        "segment_id": "c849c2a69d8711ef833bb8cef692109a",
        "text": "knowing _any_.”  “Are you so",
        "audio_url": "https://v16m-default.akamaized.net/df65985fe668fff0dac7282039598c5e/672de441/video/tos/maliva/tos-maliva-v-f15faa-us/osEplrCOLWtjfFYlnDAD9gACSACfXZeAKEAgEx/?a=7073&bti=OTU0QDItLmA%3D&ch=0&cr=0&dr=4&er=0&lr=unwatermarked&cd=0%7C0%7C0%7C0&br=312&bt=156&ds=5&ft=.cwOVInz7ThXwqvOXq8Zmo&qs=13&rc=ajM8O205cnBydjUzNzhoM0BpajM8O205cnBydjUzNzhoM0AuZC5zMmRjc2pgLS1kLjZzYSMuZC5zMmRjc2pgLS1kLjZzcw%3D%3D&vvpl=1&l=02173103917641900000000000000000000ffff0a0088d433601a&btag=e00070000&format=mp3&mime_type=audio_mpeg",
        "source_timerange": {
            "start_offset": 1.4360000000000355,
            "end_offset": 2.8719999999999715
        },
        "target_timerange": {
            "start_offset": 514.556,
            "end_offset": 515.992
        },
        "ignore_audio": true,
        "audio_path": null
    },
    {
        "segment_id": "c849c4369d8711ef833bb8cef692109a",
        "text": "severe upon your own sex as",
        "audio_url": "https://v16m-default.akamaized.net/df65985fe668fff0dac7282039598c5e/672de441/video/tos/maliva/tos-maliva-v-f15faa-us/osEplrCOLWtjfFYlnDAD9gACSACfXZeAKEAgEx/?a=7073&bti=OTU0QDItLmA%3D&ch=0&cr=0&dr=4&er=0&lr=unwatermarked&cd=0%7C0%7C0%7C0&br=312&bt=156&ds=5&ft=.cwOVInz7ThXwqvOXq8Zmo&qs=13&rc=ajM8O205cnBydjUzNzhoM0BpajM8O205cnBydjUzNzhoM0AuZC5zMmRjc2pgLS1kLjZzYSMuZC5zMmRjc2pgLS1kLjZzcw%3D%3D&vvpl=1&l=02173103917641900000000000000000000ffff0a0088d433601a&btag=e00070000&format=mp3&mime_type=audio_mpeg",
        "source_timerange": {
            "start_offset": 2.8719999999999573,
            "end_offset": 4.308000000000007
        },
        "target_timerange": {
            "start_offset": 515.992,
            "end_offset": 517.428
        },
        "ignore_audio": true,
        "audio_path": null
    },
    {
        "segment_id": "c849c5bc9d8711ef833bb8cef692109a",
        "text": "to doubt the possibility of",
        "audio_url": "https://v16m-default.akamaized.net/df65985fe668fff0dac7282039598c5e/672de441/video/tos/maliva/tos-maliva-v-f15faa-us/osEplrCOLWtjfFYlnDAD9gACSACfXZeAKEAgEx/?a=7073&bti=OTU0QDItLmA%3D&ch=0&cr=0&dr=4&er=0&lr=unwatermarked&cd=0%7C0%7C0%7C0&br=312&bt=156&ds=5&ft=.cwOVInz7ThXwqvOXq8Zmo&qs=13&rc=ajM8O205cnBydjUzNzhoM0BpajM8O205cnBydjUzNzhoM0AuZC5zMmRjc2pgLS1kLjZzYSMuZC5zMmRjc2pgLS1kLjZzcw%3D%3D&vvpl=1&l=02173103917641900000000000000000000ffff0a0088d433601a&btag=e00070000&format=mp3&mime_type=audio_mpeg",
        "source_timerange": {
            "start_offset": 4.307999999999993,
            "end_offset": 5.744000000000042
        },
        "target_timerange": {
            "start_offset": 517.428,
            "end_offset": 518.864
        },
        "ignore_audio": true,
        "audio_path": null
    },
    {
        "segment_id": "c849c7389d8711ef833bb8cef692109a",
        "text": "all this?”  “_I_ never saw",
        "audio_url": "https://v16m-default.akamaized.net/df65985fe668fff0dac7282039598c5e/672de441/video/tos/maliva/tos-maliva-v-f15faa-us/osEplrCOLWtjfFYlnDAD9gACSACfXZeAKEAgEx/?a=7073&bti=OTU0QDItLmA%3D&ch=0&cr=0&dr=4&er=0&lr=unwatermarked&cd=0%7C0%7C0%7C0&br=312&bt=156&ds=5&ft=.cwOVInz7ThXwqvOXq8Zmo&qs=13&rc=ajM8O205cnBydjUzNzhoM0BpajM8O205cnBydjUzNzhoM0AuZC5zMmRjc2pgLS1kLjZzYSMuZC5zMmRjc2pgLS1kLjZzcw%3D%3D&vvpl=1&l=02173103917641900000000000000000000ffff0a0088d433601a&btag=e00070000&format=mp3&mime_type=audio_mpeg",
        "source_timerange": {
            "start_offset": 5.744000000000028,
            "end_offset": 7.179999999999964
        },
        "target_timerange": {
            "start_offset": 518.864,
            "end_offset": 520.3
        },
        "ignore_audio": true,
        "audio_path": null
    },
    {
        "segment_id": "c849c8b49d8711ef833bb8cef692109a",
        "text": "such a woman. _",
        "audio_url": "https://v16m-default.akamaized.net/df65985fe668fff0dac7282039598c5e/672de441/video/tos/maliva/tos-maliva-v-f15faa-us/osEplrCOLWtjfFYlnDAD9gACSACfXZeAKEAgEx/?a=7073&bti=OTU0QDItLmA%3D&ch=0&cr=0&dr=4&er=0&lr=unwatermarked&cd=0%7C0%7C0%7C0&br=312&bt=156&ds=5&ft=.cwOVInz7ThXwqvOXq8Zmo&qs=13&rc=ajM8O205cnBydjUzNzhoM0BpajM8O205cnBydjUzNzhoM0AuZC5zMmRjc2pgLS1kLjZzYSMuZC5zMmRjc2pgLS1kLjZzcw%3D%3D&vvpl=1&l=02173103917641900000000000000000000ffff0a0088d433601a&btag=e00070000&format=mp3&mime_type=audio_mpeg",
        "source_timerange": {
            "start_offset": 7.17999999999995,
            "end_offset": 8.616
        },
        "target_timerange": {
            "start_offset": 520.3,
            "end_offset": 521.736
        },
        "ignore_audio": true,
        "audio_path": null
    },
    {
        "segment_id": "c84a667a9d8711ef833bb8cef692109a",
        "text": "I_ never saw such capacity,",
        "audio_url": "https://v16m-default.akamaized.net/e465ff045274e0c5bebbcebf9f865b37/672de44e/video/tos/maliva/tos-maliva-v-f15faa-us/owACUfOkAjrjEZeCFxXAUEEDtgISWAUCQnfl9m/?a=7073&bti=OTU0QDItLmA%3D&ch=0&cr=0&dr=4&er=0&lr=unwatermarked&cd=0%7C0%7C0%7C0&br=312&bt=156&ds=5&ft=.cwOVInz7ThXwqvOXq8Zmo&qs=13&rc=MzZrPG05cnBydjUzNzhoM0BpMzZrPG05cnBydjUzNzhoM0A1Ni9jMmRjc2pgLS1kLjZzYSM1Ni9jMmRjc2pgLS1kLjZzcw%3D%3D&vvpl=1&l=02173103917641900000000000000000000ffff0a0088d433601a&btag=e00078000&format=mp3&mime_type=audio_mpeg",
        "source_timerange": {
            "start_offset": 0,
            "end_offset": 1.5359999999999268
        },
        "target_timerange": {
            "start_offset": 521.736,
            "end_offset": 523.2719999999999
        },
        "ignore_audio": false,
        "audio_path": null
    },
    {
        "segment_id": "c84a68789d8711ef833bb8cef692109a",
        "text": "and taste, and application,",
        "audio_url": "https://v16m-default.akamaized.net/e465ff045274e0c5bebbcebf9f865b37/672de44e/video/tos/maliva/tos-maliva-v-f15faa-us/owACUfOkAjrjEZeCFxXAUEEDtgISWAUCQnfl9m/?a=7073&bti=OTU0QDItLmA%3D&ch=0&cr=0&dr=4&er=0&lr=unwatermarked&cd=0%7C0%7C0%7C0&br=312&bt=156&ds=5&ft=.cwOVInz7ThXwqvOXq8Zmo&qs=13&rc=MzZrPG05cnBydjUzNzhoM0BpMzZrPG05cnBydjUzNzhoM0A1Ni9jMmRjc2pgLS1kLjZzYSM1Ni9jMmRjc2pgLS1kLjZzcw%3D%3D&vvpl=1&l=02173103917641900000000000000000000ffff0a0088d433601a&btag=e00078000&format=mp3&mime_type=audio_mpeg",
        "source_timerange": {
            "start_offset": 1.5359999999999445,
            "end_offset": 3.071999999999985
        },
        "target_timerange": {
            "start_offset": 523.2719999999999,
            "end_offset": 524.808
        },
        "ignore_audio": true,
        "audio_path": null
    },
    {
        "segment_id": "c84a6a089d8711ef833bb8cef692109a",
        "text": "and elegance, as you",
        "audio_url": "https://v16m-default.akamaized.net/e465ff045274e0c5bebbcebf9f865b37/672de44e/video/tos/maliva/tos-maliva-v-f15faa-us/owACUfOkAjrjEZeCFxXAUEEDtgISWAUCQnfl9m/?a=7073&bti=OTU0QDItLmA%3D&ch=0&cr=0&dr=4&er=0&lr=unwatermarked&cd=0%7C0%7C0%7C0&br=312&bt=156&ds=5&ft=.cwOVInz7ThXwqvOXq8Zmo&qs=13&rc=MzZrPG05cnBydjUzNzhoM0BpMzZrPG05cnBydjUzNzhoM0A1Ni9jMmRjc2pgLS1kLjZzYSM1Ni9jMmRjc2pgLS1kLjZzcw%3D%3D&vvpl=1&l=02173103917641900000000000000000000ffff0a0088d433601a&btag=e00078000&format=mp3&mime_type=audio_mpeg",
        "source_timerange": {
            "start_offset": 3.0720000000000027,
            "end_offset": 4.608000000000043
        },
        "target_timerange": {
            "start_offset": 524.808,
            "end_offset": 526.344
        },
        "ignore_audio": true,
        "audio_path": null
    },
    {
        "segment_id": "c84a6b7a9d8711ef833bb8cef692109a",
        "text": "describe, united.”  Mrs.",
        "audio_url": "https://v16m-default.akamaized.net/e465ff045274e0c5bebbcebf9f865b37/672de44e/video/tos/maliva/tos-maliva-v-f15faa-us/owACUfOkAjrjEZeCFxXAUEEDtgISWAUCQnfl9m/?a=7073&bti=OTU0QDItLmA%3D&ch=0&cr=0&dr=4&er=0&lr=unwatermarked&cd=0%7C0%7C0%7C0&br=312&bt=156&ds=5&ft=.cwOVInz7ThXwqvOXq8Zmo&qs=13&rc=MzZrPG05cnBydjUzNzhoM0BpMzZrPG05cnBydjUzNzhoM0A1Ni9jMmRjc2pgLS1kLjZzYSM1Ni9jMmRjc2pgLS1kLjZzcw%3D%3D&vvpl=1&l=02173103917641900000000000000000000ffff0a0088d433601a&btag=e00078000&format=mp3&mime_type=audio_mpeg",
        "source_timerange": {
            "start_offset": 4.608000000000061,
            "end_offset": 6.143999999999988
        },
        "target_timerange": {
            "start_offset": 526.344,
            "end_offset": 527.88
        },
        "ignore_audio": true,
        "audio_path": null
    },
    {
        "segment_id": "c84a6cec9d8711ef833bb8cef692109a",
        "text": "Hurst and Miss Bingley both",
        "audio_url": "https://v16m-default.akamaized.net/e465ff045274e0c5bebbcebf9f865b37/672de44e/video/tos/maliva/tos-maliva-v-f15faa-us/owACUfOkAjrjEZeCFxXAUEEDtgISWAUCQnfl9m/?a=7073&bti=OTU0QDItLmA%3D&ch=0&cr=0&dr=4&er=0&lr=unwatermarked&cd=0%7C0%7C0%7C0&br=312&bt=156&ds=5&ft=.cwOVInz7ThXwqvOXq8Zmo&qs=13&rc=MzZrPG05cnBydjUzNzhoM0BpMzZrPG05cnBydjUzNzhoM0A1Ni9jMmRjc2pgLS1kLjZzYSM1Ni9jMmRjc2pgLS1kLjZzcw%3D%3D&vvpl=1&l=02173103917641900000000000000000000ffff0a0088d433601a&btag=e00078000&format=mp3&mime_type=audio_mpeg",
        "source_timerange": {
            "start_offset": 6.1440000000000055,
            "end_offset": 7.679999999999932
        },
        "target_timerange": {
            "start_offset": 527.88,
            "end_offset": 529.4159999999999
        },
        "ignore_audio": true,
        "audio_path": null
    },
    {
        "segment_id": "c84a6e689d8711ef833bb8cef692109a",
        "text": "cried out against the",
        "audio_url": "https://v16m-default.akamaized.net/e465ff045274e0c5bebbcebf9f865b37/672de44e/video/tos/maliva/tos-maliva-v-f15faa-us/owACUfOkAjrjEZeCFxXAUEEDtgISWAUCQnfl9m/?a=7073&bti=OTU0QDItLmA%3D&ch=0&cr=0&dr=4&er=0&lr=unwatermarked&cd=0%7C0%7C0%7C0&br=312&bt=156&ds=5&ft=.cwOVInz7ThXwqvOXq8Zmo&qs=13&rc=MzZrPG05cnBydjUzNzhoM0BpMzZrPG05cnBydjUzNzhoM0A1Ni9jMmRjc2pgLS1kLjZzYSM1Ni9jMmRjc2pgLS1kLjZzcw%3D%3D&vvpl=1&l=02173103917641900000000000000000000ffff0a0088d433601a&btag=e00078000&format=mp3&mime_type=audio_mpeg",
        "source_timerange": {
            "start_offset": 7.67999999999995,
            "end_offset": 9.21599999999999
        },
        "target_timerange": {
            "start_offset": 529.4159999999999,
            "end_offset": 530.952
        },
        "ignore_audio": true,
        "audio_path": null
    },
    {
        "segment_id": "c84a6fee9d8711ef833bb8cef692109a",
        "text": "injustice of her implied",
        "audio_url": "https://v16m-default.akamaized.net/e465ff045274e0c5bebbcebf9f865b37/672de44e/video/tos/maliva/tos-maliva-v-f15faa-us/owACUfOkAjrjEZeCFxXAUEEDtgISWAUCQnfl9m/?a=7073&bti=OTU0QDItLmA%3D&ch=0&cr=0&dr=4&er=0&lr=unwatermarked&cd=0%7C0%7C0%7C0&br=312&bt=156&ds=5&ft=.cwOVInz7ThXwqvOXq8Zmo&qs=13&rc=MzZrPG05cnBydjUzNzhoM0BpMzZrPG05cnBydjUzNzhoM0A1Ni9jMmRjc2pgLS1kLjZzYSM1Ni9jMmRjc2pgLS1kLjZzcw%3D%3D&vvpl=1&l=02173103917641900000000000000000000ffff0a0088d433601a&btag=e00078000&format=mp3&mime_type=audio_mpeg",
        "source_timerange": {
            "start_offset": 9.216000000000008,
            "end_offset": 10.752000000000049
        },
        "target_timerange": {
            "start_offset": 530.952,
            "end_offset": 532.488
        },
        "ignore_audio": true,
        "audio_path": null
    },
    {
        "segment_id": "c84a71749d8711ef833bb8cef692109a",
        "text": "doubt, and were both",
        "audio_url": "https://v16m-default.akamaized.net/e465ff045274e0c5bebbcebf9f865b37/672de44e/video/tos/maliva/tos-maliva-v-f15faa-us/owACUfOkAjrjEZeCFxXAUEEDtgISWAUCQnfl9m/?a=7073&bti=OTU0QDItLmA%3D&ch=0&cr=0&dr=4&er=0&lr=unwatermarked&cd=0%7C0%7C0%7C0&br=312&bt=156&ds=5&ft=.cwOVInz7ThXwqvOXq8Zmo&qs=13&rc=MzZrPG05cnBydjUzNzhoM0BpMzZrPG05cnBydjUzNzhoM0A1Ni9jMmRjc2pgLS1kLjZzYSM1Ni9jMmRjc2pgLS1kLjZzcw%3D%3D&vvpl=1&l=02173103917641900000000000000000000ffff0a0088d433601a&btag=e00078000&format=mp3&mime_type=audio_mpeg",
        "source_timerange": {
            "start_offset": 10.752000000000066,
            "end_offset": 12.287999999999993
        },
        "target_timerange": {
            "start_offset": 532.488,
            "end_offset": 534.024
        },
        "ignore_audio": true,
        "audio_path": null
    },
    {
        "segment_id": "c84a730e9d8711ef833bb8cef692109a",
        "text": "protesting that they knew",
        "audio_url": "https://v16m-default.akamaized.net/e465ff045274e0c5bebbcebf9f865b37/672de44e/video/tos/maliva/tos-maliva-v-f15faa-us/owACUfOkAjrjEZeCFxXAUEEDtgISWAUCQnfl9m/?a=7073&bti=OTU0QDItLmA%3D&ch=0&cr=0&dr=4&er=0&lr=unwatermarked&cd=0%7C0%7C0%7C0&br=312&bt=156&ds=5&ft=.cwOVInz7ThXwqvOXq8Zmo&qs=13&rc=MzZrPG05cnBydjUzNzhoM0BpMzZrPG05cnBydjUzNzhoM0A1Ni9jMmRjc2pgLS1kLjZzYSM1Ni9jMmRjc2pgLS1kLjZzcw%3D%3D&vvpl=1&l=02173103917641900000000000000000000ffff0a0088d433601a&btag=e00078000&format=mp3&mime_type=audio_mpeg",
        "source_timerange": {
            "start_offset": 12.288000000000011,
            "end_offset": 13.823999999999938
        },
        "target_timerange": {
            "start_offset": 534.024,
            "end_offset": 535.56
        },
        "ignore_audio": true,
        "audio_path": null
    },
    {
        "segment_id": "c84a749e9d8711ef833bb8cef692109a",
        "text": "many women who answered this",
        "audio_url": "https://v16m-default.akamaized.net/e465ff045274e0c5bebbcebf9f865b37/672de44e/video/tos/maliva/tos-maliva-v-f15faa-us/owACUfOkAjrjEZeCFxXAUEEDtgISWAUCQnfl9m/?a=7073&bti=OTU0QDItLmA%3D&ch=0&cr=0&dr=4&er=0&lr=unwatermarked&cd=0%7C0%7C0%7C0&br=312&bt=156&ds=5&ft=.cwOVInz7ThXwqvOXq8Zmo&qs=13&rc=MzZrPG05cnBydjUzNzhoM0BpMzZrPG05cnBydjUzNzhoM0A1Ni9jMmRjc2pgLS1kLjZzYSM1Ni9jMmRjc2pgLS1kLjZzcw%3D%3D&vvpl=1&l=02173103917641900000000000000000000ffff0a0088d433601a&btag=e00078000&format=mp3&mime_type=audio_mpeg",
        "source_timerange": {
            "start_offset": 13.823999999999955,
            "end_offset": 15.359999999999996
        },
        "target_timerange": {
            "start_offset": 535.56,
            "end_offset": 537.096
        },
        "ignore_audio": true,
        "audio_path": null
    },
    {
        "segment_id": "c84a761a9d8711ef833bb8cef692109a",
        "text": "description, when Mr. Hurst",
        "audio_url": "https://v16m-default.akamaized.net/e465ff045274e0c5bebbcebf9f865b37/672de44e/video/tos/maliva/tos-maliva-v-f15faa-us/owACUfOkAjrjEZeCFxXAUEEDtgISWAUCQnfl9m/?a=7073&bti=OTU0QDItLmA%3D&ch=0&cr=0&dr=4&er=0&lr=unwatermarked&cd=0%7C0%7C0%7C0&br=312&bt=156&ds=5&ft=.cwOVInz7ThXwqvOXq8Zmo&qs=13&rc=MzZrPG05cnBydjUzNzhoM0BpMzZrPG05cnBydjUzNzhoM0A1Ni9jMmRjc2pgLS1kLjZzYSM1Ni9jMmRjc2pgLS1kLjZzcw%3D%3D&vvpl=1&l=02173103917641900000000000000000000ffff0a0088d433601a&btag=e00078000&format=mp3&mime_type=audio_mpeg",
        "source_timerange": {
            "start_offset": 15.360000000000014,
            "end_offset": 16.896000000000054
        },
        "target_timerange": {
            "start_offset": 537.096,
            "end_offset": 538.6320000000001
        },
        "ignore_audio": true,
        "audio_path": null
    },
    {
        "segment_id": "c84a7ec69d8711ef833bb8cef692109a",
        "text": "called them to order, with",
        "audio_url": "https://v16m-default.akamaized.net/e465ff045274e0c5bebbcebf9f865b37/672de44e/video/tos/maliva/tos-maliva-v-f15faa-us/owACUfOkAjrjEZeCFxXAUEEDtgISWAUCQnfl9m/?a=7073&bti=OTU0QDItLmA%3D&ch=0&cr=0&dr=4&er=0&lr=unwatermarked&cd=0%7C0%7C0%7C0&br=312&bt=156&ds=5&ft=.cwOVInz7ThXwqvOXq8Zmo&qs=13&rc=MzZrPG05cnBydjUzNzhoM0BpMzZrPG05cnBydjUzNzhoM0A1Ni9jMmRjc2pgLS1kLjZzYSM1Ni9jMmRjc2pgLS1kLjZzcw%3D%3D&vvpl=1&l=02173103917641900000000000000000000ffff0a0088d433601a&btag=e00078000&format=mp3&mime_type=audio_mpeg",
        "source_timerange": {
            "start_offset": 16.896000000000072,
            "end_offset": 18.432
        },
        "target_timerange": {
            "start_offset": 538.6320000000001,
            "end_offset": 540.168
        },
        "ignore_audio": true,
        "audio_path": null
    },
    {
        "segment_id": "c84a807e9d8711ef833bb8cef692109a",
        "text": "bitter complaints of their",
        "audio_url": "https://v16m-default.akamaized.net/e465ff045274e0c5bebbcebf9f865b37/672de44e/video/tos/maliva/tos-maliva-v-f15faa-us/owACUfOkAjrjEZeCFxXAUEEDtgISWAUCQnfl9m/?a=7073&bti=OTU0QDItLmA%3D&ch=0&cr=0&dr=4&er=0&lr=unwatermarked&cd=0%7C0%7C0%7C0&br=312&bt=156&ds=5&ft=.cwOVInz7ThXwqvOXq8Zmo&qs=13&rc=MzZrPG05cnBydjUzNzhoM0BpMzZrPG05cnBydjUzNzhoM0A1Ni9jMmRjc2pgLS1kLjZzYSM1Ni9jMmRjc2pgLS1kLjZzcw%3D%3D&vvpl=1&l=02173103917641900000000000000000000ffff0a0088d433601a&btag=e00078000&format=mp3&mime_type=audio_mpeg",
        "source_timerange": {
            "start_offset": 18.432000000000016,
            "end_offset": 19.967999999999943
        },
        "target_timerange": {
            "start_offset": 540.168,
            "end_offset": 541.704
        },
        "ignore_audio": true,
        "audio_path": null
    },
    {
        "segment_id": "c84a81fa9d8711ef833bb8cef692109a",
        "text": "inattention to what was going forward.",
        "audio_url": "https://v16m-default.akamaized.net/e465ff045274e0c5bebbcebf9f865b37/672de44e/video/tos/maliva/tos-maliva-v-f15faa-us/owACUfOkAjrjEZeCFxXAUEEDtgISWAUCQnfl9m/?a=7073&bti=OTU0QDItLmA%3D&ch=0&cr=0&dr=4&er=0&lr=unwatermarked&cd=0%7C0%7C0%7C0&br=312&bt=156&ds=5&ft=.cwOVInz7ThXwqvOXq8Zmo&qs=13&rc=MzZrPG05cnBydjUzNzhoM0BpMzZrPG05cnBydjUzNzhoM0A1Ni9jMmRjc2pgLS1kLjZzYSM1Ni9jMmRjc2pgLS1kLjZzcw%3D%3D&vvpl=1&l=02173103917641900000000000000000000ffff0a0088d433601a&btag=e00078000&format=mp3&mime_type=audio_mpeg",
        "source_timerange": {
            "start_offset": 19.96799999999996,
            "end_offset": 21.504
        },
        "target_timerange": {
            "start_offset": 541.704,
            "end_offset": 543.24
        },
        "ignore_audio": true,
        "audio_path": null
    },
    {
        "segment_id": "c84a964a9d8711ef833bb8cef692109a",
        "text": "As all conversation was thereby",
        "audio_url": "https://v16m-default.akamaized.net/3f56cf40cfc89fc69661f9178cb5a3f5/672de43d/video/tos/maliva/tos-maliva-v-f15faa-us/oYjxOCEefADNgXXZEkACCHYtFSF9rWbEMAR0fA/?a=7073&bti=OTU0QDItLmA%3D&ch=0&cr=0&dr=4&er=0&lr=unwatermarked&cd=0%7C0%7C0%7C0&br=312&bt=156&ds=5&ft=.cwOVInz7ThXwqvOXq8Zmo&qs=13&rc=anV2OXg5cnBydjUzNzhoM0BpanV2OXg5cnBydjUzNzhoM0Avbi9uMmRjc2pgLS1kLjZzYSMvbi9uMmRjc2pgLS1kLjZzcw%3D%3D&vvpl=1&l=02173103917641900000000000000000000ffff0a0088d433601a&btag=e00070000&format=mp3&mime_type=audio_mpeg",
        "source_timerange": {
            "start_offset": 0,
            "end_offset": 1.6400000000000272
        },
        "target_timerange": {
            "start_offset": 543.24,
            "end_offset": 544.88
        },
        "ignore_audio": false,
        "audio_path": null
    },
    {
        "segment_id": "c84a98169d8711ef833bb8cef692109a",
        "text": "at an end, Elizabeth soon",
        "audio_url": "https://v16m-default.akamaized.net/3f56cf40cfc89fc69661f9178cb5a3f5/672de43d/video/tos/maliva/tos-maliva-v-f15faa-us/oYjxOCEefADNgXXZEkACCHYtFSF9rWbEMAR0fA/?a=7073&bti=OTU0QDItLmA%3D&ch=0&cr=0&dr=4&er=0&lr=unwatermarked&cd=0%7C0%7C0%7C0&br=312&bt=156&ds=5&ft=.cwOVInz7ThXwqvOXq8Zmo&qs=13&rc=anV2OXg5cnBydjUzNzhoM0BpanV2OXg5cnBydjUzNzhoM0Avbi9uMmRjc2pgLS1kLjZzYSMvbi9uMmRjc2pgLS1kLjZzcw%3D%3D&vvpl=1&l=02173103917641900000000000000000000ffff0a0088d433601a&btag=e00070000&format=mp3&mime_type=audio_mpeg",
        "source_timerange": {
            "start_offset": 1.6399999999999864,
            "end_offset": 3.2800000000000136
        },
        "target_timerange": {
            "start_offset": 544.88,
            "end_offset": 546.52
        },
        "ignore_audio": true,
        "audio_path": null
    },
    {
        "segment_id": "c84a997e9d8711ef833bb8cef692109a",
        "text": "afterwards left the room.",
        "audio_url": "https://v16m-default.akamaized.net/3f56cf40cfc89fc69661f9178cb5a3f5/672de43d/video/tos/maliva/tos-maliva-v-f15faa-us/oYjxOCEefADNgXXZEkACCHYtFSF9rWbEMAR0fA/?a=7073&bti=OTU0QDItLmA%3D&ch=0&cr=0&dr=4&er=0&lr=unwatermarked&cd=0%7C0%7C0%7C0&br=312&bt=156&ds=5&ft=.cwOVInz7ThXwqvOXq8Zmo&qs=13&rc=anV2OXg5cnBydjUzNzhoM0BpanV2OXg5cnBydjUzNzhoM0Avbi9uMmRjc2pgLS1kLjZzYSMvbi9uMmRjc2pgLS1kLjZzcw%3D%3D&vvpl=1&l=02173103917641900000000000000000000ffff0a0088d433601a&btag=e00070000&format=mp3&mime_type=audio_mpeg",
        "source_timerange": {
            "start_offset": 3.2799999999999727,
            "end_offset": 4.92
        },
        "target_timerange": {
            "start_offset": 546.52,
            "end_offset": 548.16
        },
        "ignore_audio": true,
        "audio_path": null
    },
    {
        "segment_id": "c84add589d8711ef833bb8cef692109a",
        "text": "“Eliza Bennet,” said Miss",
        "audio_url": "https://v16m-default.akamaized.net/7a7d0b777c95b1324c99804387e5d44d/672de449/video/tos/maliva/tos-maliva-v-f15faa-us/oYi9tXLwxSAnJEEOAWFfCCgjdjRAfrEfrADtCZ/?a=7073&bti=OTU0QDItLmA%3D&ch=0&cr=0&dr=4&er=0&lr=unwatermarked&cd=0%7C0%7C0%7C0&br=312&bt=156&ds=5&ft=.cwOVInz7ThXwqvOXq8Zmo&qs=13&rc=anc3cnA5cnBydjUzNzhoM0Bpanc3cnA5cnBydjUzNzhoM0BpamVzMmRjc2pgLS1kLjZzYSNpamVzMmRjc2pgLS1kLjZzcw%3D%3D&vvpl=1&l=02173103917641900000000000000000000ffff0a0088d433601a&btag=e00078000&format=mp3&mime_type=audio_mpeg",
        "source_timerange": {
            "start_offset": 0,
            "end_offset": 1.5403636363635478
        },
        "target_timerange": {
            "start_offset": 548.16,
            "end_offset": 549.7003636363636
        },
        "ignore_audio": false,
        "audio_path": null
    },
    {
        "segment_id": "c84adf4c9d8711ef833bb8cef692109a",
        "text": "Bingley, when the door was",
        "audio_url": "https://v16m-default.akamaized.net/7a7d0b777c95b1324c99804387e5d44d/672de449/video/tos/maliva/tos-maliva-v-f15faa-us/oYi9tXLwxSAnJEEOAWFfCCgjdjRAfrEfrADtCZ/?a=7073&bti=OTU0QDItLmA%3D&ch=0&cr=0&dr=4&er=0&lr=unwatermarked&cd=0%7C0%7C0%7C0&br=312&bt=156&ds=5&ft=.cwOVInz7ThXwqvOXq8Zmo&qs=13&rc=anc3cnA5cnBydjUzNzhoM0Bpanc3cnA5cnBydjUzNzhoM0BpamVzMmRjc2pgLS1kLjZzYSNpamVzMmRjc2pgLS1kLjZzcw%3D%3D&vvpl=1&l=02173103917641900000000000000000000ffff0a0088d433601a&btag=e00078000&format=mp3&mime_type=audio_mpeg",
        "source_timerange": {
            "start_offset": 1.5403636363636224,
            "end_offset": 3.08072727272717
        },
        "target_timerange": {
            "start_offset": 549.7003636363636,
            "end_offset": 551.2407272727272
        },
        "ignore_audio": true,
        "audio_path": null
    },
    {
        "segment_id": "c84ae0d29d8711ef833bb8cef692109a",
        "text": "closed on her, “is one of",
        "audio_url": "https://v16m-default.akamaized.net/7a7d0b777c95b1324c99804387e5d44d/672de449/video/tos/maliva/tos-maliva-v-f15faa-us/oYi9tXLwxSAnJEEOAWFfCCgjdjRAfrEfrADtCZ/?a=7073&bti=OTU0QDItLmA%3D&ch=0&cr=0&dr=4&er=0&lr=unwatermarked&cd=0%7C0%7C0%7C0&br=312&bt=156&ds=5&ft=.cwOVInz7ThXwqvOXq8Zmo&qs=13&rc=anc3cnA5cnBydjUzNzhoM0Bpanc3cnA5cnBydjUzNzhoM0BpamVzMmRjc2pgLS1kLjZzYSNpamVzMmRjc2pgLS1kLjZzcw%3D%3D&vvpl=1&l=02173103917641900000000000000000000ffff0a0088d433601a&btag=e00078000&format=mp3&mime_type=audio_mpeg",
        "source_timerange": {
            "start_offset": 3.080727272727245,
            "end_offset": 4.621090909090906
        },
        "target_timerange": {
            "start_offset": 551.2407272727272,
            "end_offset": 552.781090909091
        },
        "ignore_audio": true,
        "audio_path": null
    },
    {
        "segment_id": "c84ae23a9d8711ef833bb8cef692109a",
        "text": "those young ladies who seek",
        "audio_url": "https://v16m-default.akamaized.net/7a7d0b777c95b1324c99804387e5d44d/672de449/video/tos/maliva/tos-maliva-v-f15faa-us/oYi9tXLwxSAnJEEOAWFfCCgjdjRAfrEfrADtCZ/?a=7073&bti=OTU0QDItLmA%3D&ch=0&cr=0&dr=4&er=0&lr=unwatermarked&cd=0%7C0%7C0%7C0&br=312&bt=156&ds=5&ft=.cwOVInz7ThXwqvOXq8Zmo&qs=13&rc=anc3cnA5cnBydjUzNzhoM0Bpanc3cnA5cnBydjUzNzhoM0BpamVzMmRjc2pgLS1kLjZzYSNpamVzMmRjc2pgLS1kLjZzcw%3D%3D&vvpl=1&l=02173103917641900000000000000000000ffff0a0088d433601a&btag=e00078000&format=mp3&mime_type=audio_mpeg",
        "source_timerange": {
            "start_offset": 4.621090909090981,
            "end_offset": 6.161454545454529
        },
        "target_timerange": {
            "start_offset": 552.781090909091,
            "end_offset": 554.3214545454546
        },
        "ignore_audio": true,
        "audio_path": null
    },
    {
        "segment_id": "c84ae3709d8711ef833bb8cef692109a",
        "text": "to recommend themselves to",
        "audio_url": "https://v16m-default.akamaized.net/7a7d0b777c95b1324c99804387e5d44d/672de449/video/tos/maliva/tos-maliva-v-f15faa-us/oYi9tXLwxSAnJEEOAWFfCCgjdjRAfrEfrADtCZ/?a=7073&bti=OTU0QDItLmA%3D&ch=0&cr=0&dr=4&er=0&lr=unwatermarked&cd=0%7C0%7C0%7C0&br=312&bt=156&ds=5&ft=.cwOVInz7ThXwqvOXq8Zmo&qs=13&rc=anc3cnA5cnBydjUzNzhoM0Bpanc3cnA5cnBydjUzNzhoM0BpamVzMmRjc2pgLS1kLjZzYSNpamVzMmRjc2pgLS1kLjZzcw%3D%3D&vvpl=1&l=02173103917641900000000000000000000ffff0a0088d433601a&btag=e00078000&format=mp3&mime_type=audio_mpeg",
        "source_timerange": {
            "start_offset": 6.161454545454603,
            "end_offset": 7.701818181818151
        },
        "target_timerange": {
            "start_offset": 554.3214545454546,
            "end_offset": 555.8618181818182
        },
        "ignore_audio": true,
        "audio_path": null
    },
    {
        "segment_id": "c84ae4c49d8711ef833bb8cef692109a",
        "text": "the other sex by",
        "audio_url": "https://v16m-default.akamaized.net/7a7d0b777c95b1324c99804387e5d44d/672de449/video/tos/maliva/tos-maliva-v-f15faa-us/oYi9tXLwxSAnJEEOAWFfCCgjdjRAfrEfrADtCZ/?a=7073&bti=OTU0QDItLmA%3D&ch=0&cr=0&dr=4&er=0&lr=unwatermarked&cd=0%7C0%7C0%7C0&br=312&bt=156&ds=5&ft=.cwOVInz7ThXwqvOXq8Zmo&qs=13&rc=anc3cnA5cnBydjUzNzhoM0Bpanc3cnA5cnBydjUzNzhoM0BpamVzMmRjc2pgLS1kLjZzYSNpamVzMmRjc2pgLS1kLjZzcw%3D%3D&vvpl=1&l=02173103917641900000000000000000000ffff0a0088d433601a&btag=e00078000&format=mp3&mime_type=audio_mpeg",
        "source_timerange": {
            "start_offset": 7.701818181818226,
            "end_offset": 9.242181818181773
        },
        "target_timerange": {
            "start_offset": 555.8618181818182,
            "end_offset": 557.4021818181818
        },
        "ignore_audio": true,
        "audio_path": null
    },
    {
        "segment_id": "c84ae6369d8711ef833bb8cef692109a",
        "text": "undervaluing their own; and",
        "audio_url": "https://v16m-default.akamaized.net/7a7d0b777c95b1324c99804387e5d44d/672de449/video/tos/maliva/tos-maliva-v-f15faa-us/oYi9tXLwxSAnJEEOAWFfCCgjdjRAfrEfrADtCZ/?a=7073&bti=OTU0QDItLmA%3D&ch=0&cr=0&dr=4&er=0&lr=unwatermarked&cd=0%7C0%7C0%7C0&br=312&bt=156&ds=5&ft=.cwOVInz7ThXwqvOXq8Zmo&qs=13&rc=anc3cnA5cnBydjUzNzhoM0Bpanc3cnA5cnBydjUzNzhoM0BpamVzMmRjc2pgLS1kLjZzYSNpamVzMmRjc2pgLS1kLjZzcw%3D%3D&vvpl=1&l=02173103917641900000000000000000000ffff0a0088d433601a&btag=e00078000&format=mp3&mime_type=audio_mpeg",
        "source_timerange": {
            "start_offset": 9.242181818181848,
            "end_offset": 10.782545454545396
        },
        "target_timerange": {
            "start_offset": 557.4021818181818,
            "end_offset": 558.9425454545454
        },
        "ignore_audio": true,
        "audio_path": null
    },
    {
        "segment_id": "c84ae7a89d8711ef833bb8cef692109a",
        "text": "with many men, I daresay, it",
        "audio_url": "https://v16m-default.akamaized.net/7a7d0b777c95b1324c99804387e5d44d/672de449/video/tos/maliva/tos-maliva-v-f15faa-us/oYi9tXLwxSAnJEEOAWFfCCgjdjRAfrEfrADtCZ/?a=7073&bti=OTU0QDItLmA%3D&ch=0&cr=0&dr=4&er=0&lr=unwatermarked&cd=0%7C0%7C0%7C0&br=312&bt=156&ds=5&ft=.cwOVInz7ThXwqvOXq8Zmo&qs=13&rc=anc3cnA5cnBydjUzNzhoM0Bpanc3cnA5cnBydjUzNzhoM0BpamVzMmRjc2pgLS1kLjZzYSNpamVzMmRjc2pgLS1kLjZzcw%3D%3D&vvpl=1&l=02173103917641900000000000000000000ffff0a0088d433601a&btag=e00078000&format=mp3&mime_type=audio_mpeg",
        "source_timerange": {
            "start_offset": 10.78254545454547,
            "end_offset": 12.322909090909018
        },
        "target_timerange": {
            "start_offset": 558.9425454545454,
            "end_offset": 560.4829090909091
        },
        "ignore_audio": true,
        "audio_path": null
    },
    {
        "segment_id": "c84ae9109d8711ef833bb8cef692109a",
        "text": "succeeds; but, in my",
        "audio_url": "https://v16m-default.akamaized.net/7a7d0b777c95b1324c99804387e5d44d/672de449/video/tos/maliva/tos-maliva-v-f15faa-us/oYi9tXLwxSAnJEEOAWFfCCgjdjRAfrEfrADtCZ/?a=7073&bti=OTU0QDItLmA%3D&ch=0&cr=0&dr=4&er=0&lr=unwatermarked&cd=0%7C0%7C0%7C0&br=312&bt=156&ds=5&ft=.cwOVInz7ThXwqvOXq8Zmo&qs=13&rc=anc3cnA5cnBydjUzNzhoM0Bpanc3cnA5cnBydjUzNzhoM0BpamVzMmRjc2pgLS1kLjZzYSNpamVzMmRjc2pgLS1kLjZzcw%3D%3D&vvpl=1&l=02173103917641900000000000000000000ffff0a0088d433601a&btag=e00078000&format=mp3&mime_type=audio_mpeg",
        "source_timerange": {
            "start_offset": 12.322909090909093,
            "end_offset": 13.863272727272754
        },
        "target_timerange": {
            "start_offset": 560.4829090909091,
            "end_offset": 562.0232727272728
        },
        "ignore_audio": true,
        "audio_path": null
    },
    {
        "segment_id": "c84aea829d8711ef833bb8cef692109a",
        "text": "opinion, it is a paltry",
        "audio_url": "https://v16m-default.akamaized.net/7a7d0b777c95b1324c99804387e5d44d/672de449/video/tos/maliva/tos-maliva-v-f15faa-us/oYi9tXLwxSAnJEEOAWFfCCgjdjRAfrEfrADtCZ/?a=7073&bti=OTU0QDItLmA%3D&ch=0&cr=0&dr=4&er=0&lr=unwatermarked&cd=0%7C0%7C0%7C0&br=312&bt=156&ds=5&ft=.cwOVInz7ThXwqvOXq8Zmo&qs=13&rc=anc3cnA5cnBydjUzNzhoM0Bpanc3cnA5cnBydjUzNzhoM0BpamVzMmRjc2pgLS1kLjZzYSNpamVzMmRjc2pgLS1kLjZzcw%3D%3D&vvpl=1&l=02173103917641900000000000000000000ffff0a0088d433601a&btag=e00078000&format=mp3&mime_type=audio_mpeg",
        "source_timerange": {
            "start_offset": 13.863272727272829,
            "end_offset": 15.403636363636377
        },
        "target_timerange": {
            "start_offset": 562.0232727272728,
            "end_offset": 563.5636363636364
        },
        "ignore_audio": true,
        "audio_path": null
    },
    {
        "segment_id": "c84aece49d8711ef833bb8cef692109a",
        "text": "device, a very mean art.”",
        "audio_url": "https://v16m-default.akamaized.net/7a7d0b777c95b1324c99804387e5d44d/672de449/video/tos/maliva/tos-maliva-v-f15faa-us/oYi9tXLwxSAnJEEOAWFfCCgjdjRAfrEfrADtCZ/?a=7073&bti=OTU0QDItLmA%3D&ch=0&cr=0&dr=4&er=0&lr=unwatermarked&cd=0%7C0%7C0%7C0&br=312&bt=156&ds=5&ft=.cwOVInz7ThXwqvOXq8Zmo&qs=13&rc=anc3cnA5cnBydjUzNzhoM0Bpanc3cnA5cnBydjUzNzhoM0BpamVzMmRjc2pgLS1kLjZzYSNpamVzMmRjc2pgLS1kLjZzcw%3D%3D&vvpl=1&l=02173103917641900000000000000000000ffff0a0088d433601a&btag=e00078000&format=mp3&mime_type=audio_mpeg",
        "source_timerange": {
            "start_offset": 15.403636363636451,
            "end_offset": 16.944
        },
        "target_timerange": {
            "start_offset": 563.5636363636364,
            "end_offset": 565.104
        },
        "ignore_audio": true,
        "audio_path": null
    },
    {
        "segment_id": "c84b13fe9d8711ef833bb8cef692109a",
        "text": "“Undoubtedly,” replied Darcy,",
        "audio_url": "https://v16m-default.akamaized.net/b94faeb812c1f09243a545ef6e1aa929/672de442/video/tos/maliva/tos-maliva-v-f15faa-us/ocfnQRVAhFBLbtiinjifsEA9BsAAEQB8YrAJZL/?a=7073&bti=OTU0QDItLmA%3D&ch=0&cr=0&dr=4&er=0&lr=unwatermarked&cd=0%7C0%7C0%7C0&br=312&bt=156&ds=5&ft=.cwOVInz7ThXwqvOXq8Zmo&qs=13&rc=M2VnanY5cnBydjUzNzhoM0BpM2VnanY5cnBydjUzNzhoM0BqMDBgMmRjc2pgLS1kLjZzYSNqMDBgMmRjc2pgLS1kLjZzcw%3D%3D&vvpl=1&l=02173103917641900000000000000000000ffff0a0088d433601a&btag=e00070000&format=mp3&mime_type=audio_mpeg",
        "source_timerange": {
            "start_offset": 0,
            "end_offset": 1.5919999999999632
        },
        "target_timerange": {
            "start_offset": 565.104,
            "end_offset": 566.696
        },
        "ignore_audio": false,
        "audio_path": null
    },
    {
        "segment_id": "c84b15ac9d8711ef833bb8cef692109a",
        "text": "to whom this remark was chiefly",
        "audio_url": "https://v16m-default.akamaized.net/b94faeb812c1f09243a545ef6e1aa929/672de442/video/tos/maliva/tos-maliva-v-f15faa-us/ocfnQRVAhFBLbtiinjifsEA9BsAAEQB8YrAJZL/?a=7073&bti=OTU0QDItLmA%3D&ch=0&cr=0&dr=4&er=0&lr=unwatermarked&cd=0%7C0%7C0%7C0&br=312&bt=156&ds=5&ft=.cwOVInz7ThXwqvOXq8Zmo&qs=13&rc=M2VnanY5cnBydjUzNzhoM0BpM2VnanY5cnBydjUzNzhoM0BqMDBgMmRjc2pgLS1kLjZzYSNqMDBgMmRjc2pgLS1kLjZzcw%3D%3D&vvpl=1&l=02173103917641900000000000000000000ffff0a0088d433601a&btag=e00070000&format=mp3&mime_type=audio_mpeg",
        "source_timerange": {
            "start_offset": 1.5919999999999845,
            "end_offset": 3.1839999999999478
        },
        "target_timerange": {
            "start_offset": 566.696,
            "end_offset": 568.288
        },
        "ignore_audio": true,
        "audio_path": null
    },
    {
        "segment_id": "c84b17149d8711ef833bb8cef692109a",
        "text": "addressed, “there is meanness",
        "audio_url": "https://v16m-default.akamaized.net/b94faeb812c1f09243a545ef6e1aa929/672de442/video/tos/maliva/tos-maliva-v-f15faa-us/ocfnQRVAhFBLbtiinjifsEA9BsAAEQB8YrAJZL/?a=7073&bti=OTU0QDItLmA%3D&ch=0&cr=0&dr=4&er=0&lr=unwatermarked&cd=0%7C0%7C0%7C0&br=312&bt=156&ds=5&ft=.cwOVInz7ThXwqvOXq8Zmo&qs=13&rc=M2VnanY5cnBydjUzNzhoM0BpM2VnanY5cnBydjUzNzhoM0BqMDBgMmRjc2pgLS1kLjZzYSNqMDBgMmRjc2pgLS1kLjZzcw%3D%3D&vvpl=1&l=02173103917641900000000000000000000ffff0a0088d433601a&btag=e00070000&format=mp3&mime_type=audio_mpeg",
        "source_timerange": {
            "start_offset": 3.183999999999969,
            "end_offset": 4.776000000000046
        },
        "target_timerange": {
            "start_offset": 568.288,
            "end_offset": 569.8800000000001
        },
        "ignore_audio": true,
        "audio_path": null
    },
    {
        "segment_id": "c84b18a49d8711ef833bb8cef692109a",
        "text": "in _all_ the arts which ladies",
        "audio_url": "https://v16m-default.akamaized.net/b94faeb812c1f09243a545ef6e1aa929/672de442/video/tos/maliva/tos-maliva-v-f15faa-us/ocfnQRVAhFBLbtiinjifsEA9BsAAEQB8YrAJZL/?a=7073&bti=OTU0QDItLmA%3D&ch=0&cr=0&dr=4&er=0&lr=unwatermarked&cd=0%7C0%7C0%7C0&br=312&bt=156&ds=5&ft=.cwOVInz7ThXwqvOXq8Zmo&qs=13&rc=M2VnanY5cnBydjUzNzhoM0BpM2VnanY5cnBydjUzNzhoM0BqMDBgMmRjc2pgLS1kLjZzYSNqMDBgMmRjc2pgLS1kLjZzcw%3D%3D&vvpl=1&l=02173103917641900000000000000000000ffff0a0088d433601a&btag=e00070000&format=mp3&mime_type=audio_mpeg",
        "source_timerange": {
            "start_offset": 4.776000000000067,
            "end_offset": 6.3680000000000305
        },
        "target_timerange": {
            "start_offset": 569.8800000000001,
            "end_offset": 571.4720000000001
        },
        "ignore_audio": true,
        "audio_path": null
    },
    {
        "segment_id": "c84b1a169d8711ef833bb8cef692109a",
        "text": "sometimes condescend to employ",
        "audio_url": "https://v16m-default.akamaized.net/b94faeb812c1f09243a545ef6e1aa929/672de442/video/tos/maliva/tos-maliva-v-f15faa-us/ocfnQRVAhFBLbtiinjifsEA9BsAAEQB8YrAJZL/?a=7073&bti=OTU0QDItLmA%3D&ch=0&cr=0&dr=4&er=0&lr=unwatermarked&cd=0%7C0%7C0%7C0&br=312&bt=156&ds=5&ft=.cwOVInz7ThXwqvOXq8Zmo&qs=13&rc=M2VnanY5cnBydjUzNzhoM0BpM2VnanY5cnBydjUzNzhoM0BqMDBgMmRjc2pgLS1kLjZzYSNqMDBgMmRjc2pgLS1kLjZzcw%3D%3D&vvpl=1&l=02173103917641900000000000000000000ffff0a0088d433601a&btag=e00070000&format=mp3&mime_type=audio_mpeg",
        "source_timerange": {
            "start_offset": 6.368000000000052,
            "end_offset": 7.960000000000015
        },
        "target_timerange": {
            "start_offset": 571.4720000000001,
            "end_offset": 573.0640000000001
        },
        "ignore_audio": true,
        "audio_path": null
    },
    {
        "segment_id": "c84b1b889d8711ef833bb8cef692109a",
        "text": "for captivation.",
        "audio_url": "https://v16m-default.akamaized.net/b94faeb812c1f09243a545ef6e1aa929/672de442/video/tos/maliva/tos-maliva-v-f15faa-us/ocfnQRVAhFBLbtiinjifsEA9BsAAEQB8YrAJZL/?a=7073&bti=OTU0QDItLmA%3D&ch=0&cr=0&dr=4&er=0&lr=unwatermarked&cd=0%7C0%7C0%7C0&br=312&bt=156&ds=5&ft=.cwOVInz7ThXwqvOXq8Zmo&qs=13&rc=M2VnanY5cnBydjUzNzhoM0BpM2VnanY5cnBydjUzNzhoM0BqMDBgMmRjc2pgLS1kLjZzYSNqMDBgMmRjc2pgLS1kLjZzcw%3D%3D&vvpl=1&l=02173103917641900000000000000000000ffff0a0088d433601a&btag=e00070000&format=mp3&mime_type=audio_mpeg",
        "source_timerange": {
            "start_offset": 7.960000000000036,
            "end_offset": 9.552
        },
        "target_timerange": {
            "start_offset": 573.0640000000001,
            "end_offset": 574.6560000000001
        },
        "ignore_audio": true,
        "audio_path": null
    },
    {
        "segment_id": "c84b2a429d8711ef833bb8cef692109a",
        "text": "Whatever bears affinity to",
        "audio_url": "https://v16m-default.akamaized.net/28ed76b09daa5f5359d3250d45e29aff/672de43b/video/tos/maliva/tos-maliva-v-f15faa-us/o8ctA9DjEAjfEjgFEzAtiFuZAWL9nkefOAWGeI/?a=7073&bti=OTU0QDItLmA%3D&ch=0&cr=0&dr=4&er=0&lr=unwatermarked&cd=0%7C0%7C0%7C0&br=312&bt=156&ds=5&ft=.cwOVInz7ThXwqvOXq8Zmo&qs=13&rc=ajRnNnk5cnBydjUzNzhoM0BpajRnNnk5cnBydjUzNzhoM0BzMHFgMmRjc2pgLS1kLjZzYSNzMHFgMmRjc2pgLS1kLjZzcw%3D%3D&vvpl=1&l=02173103917641900000000000000000000ffff0a0088d433601a&btag=e00070000&format=mp3&mime_type=audio_mpeg",
        "source_timerange": {
            "start_offset": 0,
            "end_offset": 1.3560000000000056
        },
        "target_timerange": {
            "start_offset": 574.6560000000001,
            "end_offset": 576.0120000000001
        },
        "ignore_audio": false,
        "audio_path": null
    },
    {
        "segment_id": "c84b2bfa9d8711ef833bb8cef692109a",
        "text": "cunning is despicable.”",
        "audio_url": "https://v16m-default.akamaized.net/28ed76b09daa5f5359d3250d45e29aff/672de43b/video/tos/maliva/tos-maliva-v-f15faa-us/o8ctA9DjEAjfEjgFEzAtiFuZAWL9nkefOAWGeI/?a=7073&bti=OTU0QDItLmA%3D&ch=0&cr=0&dr=4&er=0&lr=unwatermarked&cd=0%7C0%7C0%7C0&br=312&bt=156&ds=5&ft=.cwOVInz7ThXwqvOXq8Zmo&qs=13&rc=ajRnNnk5cnBydjUzNzhoM0BpajRnNnk5cnBydjUzNzhoM0BzMHFgMmRjc2pgLS1kLjZzYSNzMHFgMmRjc2pgLS1kLjZzcw%3D%3D&vvpl=1&l=02173103917641900000000000000000000ffff0a0088d433601a&btag=e00070000&format=mp3&mime_type=audio_mpeg",
        "source_timerange": {
            "start_offset": 1.3559999999999945,
            "end_offset": 2.712
        },
        "target_timerange": {
            "start_offset": 576.0120000000001,
            "end_offset": 577.368
        },
        "ignore_audio": true,
        "audio_path": null
    },
    {
        "segment_id": "c84b420c9d8711ef833bb8cef692109a",
        "text": "Miss Bingley was not so entirely",
        "audio_url": "https://v16m-default.akamaized.net/851647634165fbba31aceba60c0ba4b7/672de43d/video/tos/maliva/tos-maliva-v-f15faa-us/o0BeQIkWAFTjFCGhFAALot2fQeP6czIEDAeI2u/?a=7073&bti=OTU0QDItLmA%3D&ch=0&cr=0&dr=4&er=0&lr=unwatermarked&cd=0%7C0%7C0%7C0&br=312&bt=156&ds=5&ft=.cwOVInz7ThXwqvOXq8Zmo&qs=13&rc=M3R0bmw5cnBydjUzNzhoM0BpM3R0bmw5cnBydjUzNzhoM0AuZDQtMmRjc2pgLS1kLjZzYSMuZDQtMmRjc2pgLS1kLjZzcw%3D%3D&vvpl=1&l=02173103917641900000000000000000000ffff0a0088d433601a&btag=e00070000&format=mp3&mime_type=audio_mpeg",
        "source_timerange": {
            "start_offset": 0,
            "end_offset": 1.5520000000000715
        },
        "target_timerange": {
            "start_offset": 577.368,
            "end_offset": 578.9200000000001
        },
        "ignore_audio": false,
        "audio_path": null
    },
    {
        "segment_id": "c84b43d89d8711ef833bb8cef692109a",
        "text": "satisfied with this reply as to",
        "audio_url": "https://v16m-default.akamaized.net/851647634165fbba31aceba60c0ba4b7/672de43d/video/tos/maliva/tos-maliva-v-f15faa-us/o0BeQIkWAFTjFCGhFAALot2fQeP6czIEDAeI2u/?a=7073&bti=OTU0QDItLmA%3D&ch=0&cr=0&dr=4&er=0&lr=unwatermarked&cd=0%7C0%7C0%7C0&br=312&bt=156&ds=5&ft=.cwOVInz7ThXwqvOXq8Zmo&qs=13&rc=M3R0bmw5cnBydjUzNzhoM0BpM3R0bmw5cnBydjUzNzhoM0AuZDQtMmRjc2pgLS1kLjZzYSMuZDQtMmRjc2pgLS1kLjZzcw%3D%3D&vvpl=1&l=02173103917641900000000000000000000ffff0a0088d433601a&btag=e00070000&format=mp3&mime_type=audio_mpeg",
        "source_timerange": {
            "start_offset": 1.552000000000021,
            "end_offset": 3.1039999999999788
        },
        "target_timerange": {
            "start_offset": 578.9200000000001,
            "end_offset": 580.472
        },
        "ignore_audio": true,
        "audio_path": null
    },
    {
        "segment_id": "c84b45549d8711ef833bb8cef692109a",
        "text": "continue the subject.",
        "audio_url": "https://v16m-default.akamaized.net/851647634165fbba31aceba60c0ba4b7/672de43d/video/tos/maliva/tos-maliva-v-f15faa-us/o0BeQIkWAFTjFCGhFAALot2fQeP6czIEDAeI2u/?a=7073&bti=OTU0QDItLmA%3D&ch=0&cr=0&dr=4&er=0&lr=unwatermarked&cd=0%7C0%7C0%7C0&br=312&bt=156&ds=5&ft=.cwOVInz7ThXwqvOXq8Zmo&qs=13&rc=M3R0bmw5cnBydjUzNzhoM0BpM3R0bmw5cnBydjUzNzhoM0AuZDQtMmRjc2pgLS1kLjZzYSMuZDQtMmRjc2pgLS1kLjZzcw%3D%3D&vvpl=1&l=02173103917641900000000000000000000ffff0a0088d433601a&btag=e00070000&format=mp3&mime_type=audio_mpeg",
        "source_timerange": {
            "start_offset": 3.103999999999928,
            "end_offset": 4.656
        },
        "target_timerange": {
            "start_offset": 580.472,
            "end_offset": 582.024
        },
        "ignore_audio": true,
        "audio_path": null
    },
    {
        "segment_id": "c84b5ef49d8711ef833bb8cef692109a",
        "text": "Elizabeth joined them again",
        "audio_url": "https://v16m-default.akamaized.net/a2df47b8fa60f0706f6f2888d289e083/672de43e/video/tos/maliva/tos-maliva-v-f15faa-us/ogBlLjkLbiAAwhYAEniBz9fVEAnxQfTSBJtsAV/?a=7073&bti=OTU0QDItLmA%3D&ch=0&cr=0&dr=4&er=0&lr=unwatermarked&cd=0%7C0%7C0%7C0&br=312&bt=156&ds=5&ft=.cwOVInz7ThXwqvOXq8Zmo&qs=13&rc=ajdmN205cnBydjUzNzhoM0BpajdmN205cnBydjUzNzhoM0BeLmZsMmRjc2pgLS1kLjZzYSNeLmZsMmRjc2pgLS1kLjZzcw%3D%3D&vvpl=1&l=02173103917641900000000000000000000ffff0a0088d433601a&btag=e00070000&format=mp3&mime_type=audio_mpeg",
        "source_timerange": {
            "start_offset": 0,
            "end_offset": 1.380000000000014
        },
        "target_timerange": {
            "start_offset": 582.024,
            "end_offset": 583.404
        },
        "ignore_audio": false,
        "audio_path": null
    },
    {
        "segment_id": "c84b60ca9d8711ef833bb8cef692109a",
        "text": "only to say that her sister",
        "audio_url": "https://v16m-default.akamaized.net/a2df47b8fa60f0706f6f2888d289e083/672de43e/video/tos/maliva/tos-maliva-v-f15faa-us/ogBlLjkLbiAAwhYAEniBz9fVEAnxQfTSBJtsAV/?a=7073&bti=OTU0QDItLmA%3D&ch=0&cr=0&dr=4&er=0&lr=unwatermarked&cd=0%7C0%7C0%7C0&br=312&bt=156&ds=5&ft=.cwOVInz7ThXwqvOXq8Zmo&qs=13&rc=ajdmN205cnBydjUzNzhoM0BpajdmN205cnBydjUzNzhoM0BeLmZsMmRjc2pgLS1kLjZzYSNeLmZsMmRjc2pgLS1kLjZzcw%3D%3D&vvpl=1&l=02173103917641900000000000000000000ffff0a0088d433601a&btag=e00070000&format=mp3&mime_type=audio_mpeg",
        "source_timerange": {
            "start_offset": 1.3799999999999955,
            "end_offset": 2.7600000000000096
        },
        "target_timerange": {
            "start_offset": 583.404,
            "end_offset": 584.784
        },
        "ignore_audio": true,
        "audio_path": null
    },
    {
        "segment_id": "c84b67329d8711ef833bb8cef692109a",
        "text": "was worse, and that she",
        "audio_url": "https://v16m-default.akamaized.net/a2df47b8fa60f0706f6f2888d289e083/672de43e/video/tos/maliva/tos-maliva-v-f15faa-us/ogBlLjkLbiAAwhYAEniBz9fVEAnxQfTSBJtsAV/?a=7073&bti=OTU0QDItLmA%3D&ch=0&cr=0&dr=4&er=0&lr=unwatermarked&cd=0%7C0%7C0%7C0&br=312&bt=156&ds=5&ft=.cwOVInz7ThXwqvOXq8Zmo&qs=13&rc=ajdmN205cnBydjUzNzhoM0BpajdmN205cnBydjUzNzhoM0BeLmZsMmRjc2pgLS1kLjZzYSNeLmZsMmRjc2pgLS1kLjZzcw%3D%3D&vvpl=1&l=02173103917641900000000000000000000ffff0a0088d433601a&btag=e00070000&format=mp3&mime_type=audio_mpeg",
        "source_timerange": {
            "start_offset": 2.759999999999991,
            "end_offset": 4.140000000000005
        },
        "target_timerange": {
            "start_offset": 584.784,
            "end_offset": 586.164
        },
        "ignore_audio": true,
        "audio_path": null
    },
    {
        "segment_id": "c84b68d69d8711ef833bb8cef692109a",
        "text": "could not leave her.",
        "audio_url": "https://v16m-default.akamaized.net/a2df47b8fa60f0706f6f2888d289e083/672de43e/video/tos/maliva/tos-maliva-v-f15faa-us/ogBlLjkLbiAAwhYAEniBz9fVEAnxQfTSBJtsAV/?a=7073&bti=OTU0QDItLmA%3D&ch=0&cr=0&dr=4&er=0&lr=unwatermarked&cd=0%7C0%7C0%7C0&br=312&bt=156&ds=5&ft=.cwOVInz7ThXwqvOXq8Zmo&qs=13&rc=ajdmN205cnBydjUzNzhoM0BpajdmN205cnBydjUzNzhoM0BeLmZsMmRjc2pgLS1kLjZzYSNeLmZsMmRjc2pgLS1kLjZzcw%3D%3D&vvpl=1&l=02173103917641900000000000000000000ffff0a0088d433601a&btag=e00070000&format=mp3&mime_type=audio_mpeg",
        "source_timerange": {
            "start_offset": 4.139999999999986,
            "end_offset": 5.5200000000000005
        },
        "target_timerange": {
            "start_offset": 586.164,
            "end_offset": 587.544
        },
        "ignore_audio": true,
        "audio_path": null
    },
    {
        "segment_id": "c84b9bd09d8711ef833bb8cef692109a",
        "text": "Bingley urged Mr. Jones’s",
        "audio_url": "https://v16m-default.akamaized.net/0c38b393637ef4ac7aea3e6698ca23ef/672de445/video/tos/maliva/tos-maliva-v-f15faa-us/ocEAtn3hGBYAuQV5xdELAiiBfjBE2LAlbfZs9J/?a=7073&bti=OTU0QDItLmA%3D&ch=0&cr=0&dr=4&er=0&lr=unwatermarked&cd=0%7C0%7C0%7C0&br=312&bt=156&ds=5&ft=.cwOVInz7ThxwqvOXq8Zmo&qs=13&rc=anBxeGs5cnBydjUzNzhoM0BpanBxeGs5cnBydjUzNzhoM0BgY19hMmRjc2pgLS1kLjZzYSNgY19hMmRjc2pgLS1kLjZzcw%3D%3D&vvpl=1&l=02173103917641900000000000000000000ffff0a0088d433601a&btag=e00070000&format=mp3&mime_type=audio_mpeg",
        "source_timerange": {
            "start_offset": 0,
            "end_offset": 1.4610000000000252
        },
        "target_timerange": {
            "start_offset": 587.544,
            "end_offset": 589.005
        },
        "ignore_audio": false,
        "audio_path": null
    },
    {
        "segment_id": "c84b9d9c9d8711ef833bb8cef692109a",
        "text": "being sent for immediately;",
        "audio_url": "https://v16m-default.akamaized.net/0c38b393637ef4ac7aea3e6698ca23ef/672de445/video/tos/maliva/tos-maliva-v-f15faa-us/ocEAtn3hGBYAuQV5xdELAiiBfjBE2LAlbfZs9J/?a=7073&bti=OTU0QDItLmA%3D&ch=0&cr=0&dr=4&er=0&lr=unwatermarked&cd=0%7C0%7C0%7C0&br=312&bt=156&ds=5&ft=.cwOVInz7ThxwqvOXq8Zmo&qs=13&rc=anBxeGs5cnBydjUzNzhoM0BpanBxeGs5cnBydjUzNzhoM0BgY19hMmRjc2pgLS1kLjZzYSNgY19hMmRjc2pgLS1kLjZzcw%3D%3D&vvpl=1&l=02173103917641900000000000000000000ffff0a0088d433601a&btag=e00070000&format=mp3&mime_type=audio_mpeg",
        "source_timerange": {
            "start_offset": 1.4610000000000127,
            "end_offset": 2.922000000000038
        },
        "target_timerange": {
            "start_offset": 589.005,
            "end_offset": 590.466
        },
        "ignore_audio": true,
        "audio_path": null
    },
    {
        "segment_id": "c84b9f369d8711ef833bb8cef692109a",
        "text": "while his sisters,",
        "audio_url": "https://v16m-default.akamaized.net/0c38b393637ef4ac7aea3e6698ca23ef/672de445/video/tos/maliva/tos-maliva-v-f15faa-us/ocEAtn3hGBYAuQV5xdELAiiBfjBE2LAlbfZs9J/?a=7073&bti=OTU0QDItLmA%3D&ch=0&cr=0&dr=4&er=0&lr=unwatermarked&cd=0%7C0%7C0%7C0&br=312&bt=156&ds=5&ft=.cwOVInz7ThxwqvOXq8Zmo&qs=13&rc=anBxeGs5cnBydjUzNzhoM0BpanBxeGs5cnBydjUzNzhoM0BgY19hMmRjc2pgLS1kLjZzYSNgY19hMmRjc2pgLS1kLjZzcw%3D%3D&vvpl=1&l=02173103917641900000000000000000000ffff0a0088d433601a&btag=e00070000&format=mp3&mime_type=audio_mpeg",
        "source_timerange": {
            "start_offset": 2.9220000000000255,
            "end_offset": 4.383000000000051
        },
        "target_timerange": {
            "start_offset": 590.466,
            "end_offset": 591.927
        },
        "ignore_audio": true,
        "audio_path": null
    },
    {
        "segment_id": "c84ba0bc9d8711ef833bb8cef692109a",
        "text": "convinced that no country",
        "audio_url": "https://v16m-default.akamaized.net/0c38b393637ef4ac7aea3e6698ca23ef/672de445/video/tos/maliva/tos-maliva-v-f15faa-us/ocEAtn3hGBYAuQV5xdELAiiBfjBE2LAlbfZs9J/?a=7073&bti=OTU0QDItLmA%3D&ch=0&cr=0&dr=4&er=0&lr=unwatermarked&cd=0%7C0%7C0%7C0&br=312&bt=156&ds=5&ft=.cwOVInz7ThxwqvOXq8Zmo&qs=13&rc=anBxeGs5cnBydjUzNzhoM0BpanBxeGs5cnBydjUzNzhoM0BgY19hMmRjc2pgLS1kLjZzYSNgY19hMmRjc2pgLS1kLjZzcw%3D%3D&vvpl=1&l=02173103917641900000000000000000000ffff0a0088d433601a&btag=e00070000&format=mp3&mime_type=audio_mpeg",
        "source_timerange": {
            "start_offset": 4.383000000000038,
            "end_offset": 5.84399999999995
        },
        "target_timerange": {
            "start_offset": 591.927,
            "end_offset": 593.3879999999999
        },
        "ignore_audio": true,
        "audio_path": null
    },
    {
        "segment_id": "c84ba2429d8711ef833bb8cef692109a",
        "text": "advice could be of any",
        "audio_url": "https://v16m-default.akamaized.net/0c38b393637ef4ac7aea3e6698ca23ef/672de445/video/tos/maliva/tos-maliva-v-f15faa-us/ocEAtn3hGBYAuQV5xdELAiiBfjBE2LAlbfZs9J/?a=7073&bti=OTU0QDItLmA%3D&ch=0&cr=0&dr=4&er=0&lr=unwatermarked&cd=0%7C0%7C0%7C0&br=312&bt=156&ds=5&ft=.cwOVInz7ThxwqvOXq8Zmo&qs=13&rc=anBxeGs5cnBydjUzNzhoM0BpanBxeGs5cnBydjUzNzhoM0BgY19hMmRjc2pgLS1kLjZzYSNgY19hMmRjc2pgLS1kLjZzcw%3D%3D&vvpl=1&l=02173103917641900000000000000000000ffff0a0088d433601a&btag=e00070000&format=mp3&mime_type=audio_mpeg",
        "source_timerange": {
            "start_offset": 5.843999999999937,
            "end_offset": 7.304999999999962
        },
        "target_timerange": {
            "start_offset": 593.3879999999999,
            "end_offset": 594.8489999999999
        },
        "ignore_audio": true,
        "audio_path": null
    },
    {
        "segment_id": "c84ba3aa9d8711ef833bb8cef692109a",
        "text": "service, recommended an",
        "audio_url": "https://v16m-default.akamaized.net/0c38b393637ef4ac7aea3e6698ca23ef/672de445/video/tos/maliva/tos-maliva-v-f15faa-us/ocEAtn3hGBYAuQV5xdELAiiBfjBE2LAlbfZs9J/?a=7073&bti=OTU0QDItLmA%3D&ch=0&cr=0&dr=4&er=0&lr=unwatermarked&cd=0%7C0%7C0%7C0&br=312&bt=156&ds=5&ft=.cwOVInz7ThxwqvOXq8Zmo&qs=13&rc=anBxeGs5cnBydjUzNzhoM0BpanBxeGs5cnBydjUzNzhoM0BgY19hMmRjc2pgLS1kLjZzYSNgY19hMmRjc2pgLS1kLjZzcw%3D%3D&vvpl=1&l=02173103917641900000000000000000000ffff0a0088d433601a&btag=e00070000&format=mp3&mime_type=audio_mpeg",
        "source_timerange": {
            "start_offset": 7.30499999999995,
            "end_offset": 8.765999999999975
        },
        "target_timerange": {
            "start_offset": 594.8489999999999,
            "end_offset": 596.31
        },
        "ignore_audio": true,
        "audio_path": null
    },
    {
        "segment_id": "c84ba51c9d8711ef833bb8cef692109a",
        "text": "express to town for one of",
        "audio_url": "https://v16m-default.akamaized.net/0c38b393637ef4ac7aea3e6698ca23ef/672de445/video/tos/maliva/tos-maliva-v-f15faa-us/ocEAtn3hGBYAuQV5xdELAiiBfjBE2LAlbfZs9J/?a=7073&bti=OTU0QDItLmA%3D&ch=0&cr=0&dr=4&er=0&lr=unwatermarked&cd=0%7C0%7C0%7C0&br=312&bt=156&ds=5&ft=.cwOVInz7ThxwqvOXq8Zmo&qs=13&rc=anBxeGs5cnBydjUzNzhoM0BpanBxeGs5cnBydjUzNzhoM0BgY19hMmRjc2pgLS1kLjZzYSNgY19hMmRjc2pgLS1kLjZzcw%3D%3D&vvpl=1&l=02173103917641900000000000000000000ffff0a0088d433601a&btag=e00070000&format=mp3&mime_type=audio_mpeg",
        "source_timerange": {
            "start_offset": 8.765999999999963,
            "end_offset": 10.226999999999988
        },
        "target_timerange": {
            "start_offset": 596.31,
            "end_offset": 597.771
        },
        "ignore_audio": true,
        "audio_path": null
    },
    {
        "segment_id": "c84ba68e9d8711ef833bb8cef692109a",
        "text": "the most eminent physicians.",
        "audio_url": "https://v16m-default.akamaized.net/0c38b393637ef4ac7aea3e6698ca23ef/672de445/video/tos/maliva/tos-maliva-v-f15faa-us/ocEAtn3hGBYAuQV5xdELAiiBfjBE2LAlbfZs9J/?a=7073&bti=OTU0QDItLmA%3D&ch=0&cr=0&dr=4&er=0&lr=unwatermarked&cd=0%7C0%7C0%7C0&br=312&bt=156&ds=5&ft=.cwOVInz7ThxwqvOXq8Zmo&qs=13&rc=anBxeGs5cnBydjUzNzhoM0BpanBxeGs5cnBydjUzNzhoM0BgY19hMmRjc2pgLS1kLjZzYSNgY19hMmRjc2pgLS1kLjZzcw%3D%3D&vvpl=1&l=02173103917641900000000000000000000ffff0a0088d433601a&btag=e00070000&format=mp3&mime_type=audio_mpeg",
        "source_timerange": {
            "start_offset": 10.226999999999975,
            "end_offset": 11.688
        },
        "target_timerange": {
            "start_offset": 597.771,
            "end_offset": 599.232
        },
        "ignore_audio": true,
        "audio_path": null
    },
    {
        "segment_id": "c84bdba49d8711ef833bb8cef692109a",
        "text": "This she would not hear of;",
        "audio_url": "https://v16m-default.akamaized.net/8b44c9addc3cb90ced4e8a291b9d7281/672de445/video/tos/maliva/tos-maliva-v-f15faa-us/oMWXGCEx7eDArJg5fUAhFIbCfxSABOICHiIZxk/?a=7073&bti=OTU0QDItLmA%3D&ch=0&cr=0&dr=4&er=0&lr=unwatermarked&cd=0%7C0%7C0%7C0&br=312&bt=156&ds=5&ft=.cwOVInz7ThxwqvOXq8Zmo&qs=13&rc=anY4OXI5cnBydjUzNzhoM0BpanY4OXI5cnBydjUzNzhoM0BlLjNpMmRjc2pgLS1kLjZzYSNlLjNpMmRjc2pgLS1kLjZzcw%3D%3D&vvpl=1&l=02173103917641900000000000000000000ffff0a0088d433601a&btag=e00070000&format=mp3&mime_type=audio_mpeg",
        "source_timerange": {
            "start_offset": 0,
            "end_offset": 1.4520000000000124
        },
        "target_timerange": {
            "start_offset": 599.232,
            "end_offset": 600.684
        },
        "ignore_audio": false,
        "audio_path": null
    },
    {
        "segment_id": "c84bdda29d8711ef833bb8cef692109a",
        "text": "but she was not so unwilling",
        "audio_url": "https://v16m-default.akamaized.net/8b44c9addc3cb90ced4e8a291b9d7281/672de445/video/tos/maliva/tos-maliva-v-f15faa-us/oMWXGCEx7eDArJg5fUAhFIbCfxSABOICHiIZxk/?a=7073&bti=OTU0QDItLmA%3D&ch=0&cr=0&dr=4&er=0&lr=unwatermarked&cd=0%7C0%7C0%7C0&br=312&bt=156&ds=5&ft=.cwOVInz7ThxwqvOXq8Zmo&qs=13&rc=anY4OXI5cnBydjUzNzhoM0BpanY4OXI5cnBydjUzNzhoM0BlLjNpMmRjc2pgLS1kLjZzYSNlLjNpMmRjc2pgLS1kLjZzcw%3D%3D&vvpl=1&l=02173103917641900000000000000000000ffff0a0088d433601a&btag=e00070000&format=mp3&mime_type=audio_mpeg",
        "source_timerange": {
            "start_offset": 1.4519999999999982,
            "end_offset": 2.9040000000000106
        },
        "target_timerange": {
            "start_offset": 600.684,
            "end_offset": 602.136
        },
        "ignore_audio": true,
        "audio_path": null
    },
    {
        "segment_id": "c84bdf329d8711ef833bb8cef692109a",
        "text": "to comply with their",
        "audio_url": "https://v16m-default.akamaized.net/8b44c9addc3cb90ced4e8a291b9d7281/672de445/video/tos/maliva/tos-maliva-v-f15faa-us/oMWXGCEx7eDArJg5fUAhFIbCfxSABOICHiIZxk/?a=7073&bti=OTU0QDItLmA%3D&ch=0&cr=0&dr=4&er=0&lr=unwatermarked&cd=0%7C0%7C0%7C0&br=312&bt=156&ds=5&ft=.cwOVInz7ThxwqvOXq8Zmo&qs=13&rc=anY4OXI5cnBydjUzNzhoM0BpanY4OXI5cnBydjUzNzhoM0BlLjNpMmRjc2pgLS1kLjZzYSNlLjNpMmRjc2pgLS1kLjZzcw%3D%3D&vvpl=1&l=02173103917641900000000000000000000ffff0a0088d433601a&btag=e00070000&format=mp3&mime_type=audio_mpeg",
        "source_timerange": {
            "start_offset": 2.9039999999999964,
            "end_offset": 4.356000000000009
        },
        "target_timerange": {
            "start_offset": 602.136,
            "end_offset": 603.588
        },
        "ignore_audio": true,
        "audio_path": null
    },
    {
        "segment_id": "c84be0b89d8711ef833bb8cef692109a",
        "text": "brother’s proposal; and it",
        "audio_url": "https://v16m-default.akamaized.net/8b44c9addc3cb90ced4e8a291b9d7281/672de445/video/tos/maliva/tos-maliva-v-f15faa-us/oMWXGCEx7eDArJg5fUAhFIbCfxSABOICHiIZxk/?a=7073&bti=OTU0QDItLmA%3D&ch=0&cr=0&dr=4&er=0&lr=unwatermarked&cd=0%7C0%7C0%7C0&br=312&bt=156&ds=5&ft=.cwOVInz7ThxwqvOXq8Zmo&qs=13&rc=anY4OXI5cnBydjUzNzhoM0BpanY4OXI5cnBydjUzNzhoM0BlLjNpMmRjc2pgLS1kLjZzYSNlLjNpMmRjc2pgLS1kLjZzcw%3D%3D&vvpl=1&l=02173103917641900000000000000000000ffff0a0088d433601a&btag=e00070000&format=mp3&mime_type=audio_mpeg",
        "source_timerange": {
            "start_offset": 4.3559999999999945,
            "end_offset": 5.808000000000007
        },
        "target_timerange": {
            "start_offset": 603.588,
            "end_offset": 605.04
        },
        "ignore_audio": true,
        "audio_path": null
    },
    {
        "segment_id": "c84be2529d8711ef833bb8cef692109a",
        "text": "was settled that Mr. Jones",
        "audio_url": "https://v16m-default.akamaized.net/8b44c9addc3cb90ced4e8a291b9d7281/672de445/video/tos/maliva/tos-maliva-v-f15faa-us/oMWXGCEx7eDArJg5fUAhFIbCfxSABOICHiIZxk/?a=7073&bti=OTU0QDItLmA%3D&ch=0&cr=0&dr=4&er=0&lr=unwatermarked&cd=0%7C0%7C0%7C0&br=312&bt=156&ds=5&ft=.cwOVInz7ThxwqvOXq8Zmo&qs=13&rc=anY4OXI5cnBydjUzNzhoM0BpanY4OXI5cnBydjUzNzhoM0BlLjNpMmRjc2pgLS1kLjZzYSNlLjNpMmRjc2pgLS1kLjZzcw%3D%3D&vvpl=1&l=02173103917641900000000000000000000ffff0a0088d433601a&btag=e00070000&format=mp3&mime_type=audio_mpeg",
        "source_timerange": {
            "start_offset": 5.807999999999993,
            "end_offset": 7.260000000000005
        },
        "target_timerange": {
            "start_offset": 605.04,
            "end_offset": 606.492
        },
        "ignore_audio": true,
        "audio_path": null
    },
    {
        "segment_id": "c84be3d89d8711ef833bb8cef692109a",
        "text": "should be sent for early in",
        "audio_url": "https://v16m-default.akamaized.net/8b44c9addc3cb90ced4e8a291b9d7281/672de445/video/tos/maliva/tos-maliva-v-f15faa-us/oMWXGCEx7eDArJg5fUAhFIbCfxSABOICHiIZxk/?a=7073&bti=OTU0QDItLmA%3D&ch=0&cr=0&dr=4&er=0&lr=unwatermarked&cd=0%7C0%7C0%7C0&br=312&bt=156&ds=5&ft=.cwOVInz7ThxwqvOXq8Zmo&qs=13&rc=anY4OXI5cnBydjUzNzhoM0BpanY4OXI5cnBydjUzNzhoM0BlLjNpMmRjc2pgLS1kLjZzYSNlLjNpMmRjc2pgLS1kLjZzcw%3D%3D&vvpl=1&l=02173103917641900000000000000000000ffff0a0088d433601a&btag=e00070000&format=mp3&mime_type=audio_mpeg",
        "source_timerange": {
            "start_offset": 7.259999999999991,
            "end_offset": 8.712000000000003
        },
        "target_timerange": {
            "start_offset": 606.492,
            "end_offset": 607.944
        },
        "ignore_audio": true,
        "audio_path": null
    },
    {
        "segment_id": "c84be5549d8711ef833bb8cef692109a",
        "text": "the morning, if Miss Bennet",
        "audio_url": "https://v16m-default.akamaized.net/8b44c9addc3cb90ced4e8a291b9d7281/672de445/video/tos/maliva/tos-maliva-v-f15faa-us/oMWXGCEx7eDArJg5fUAhFIbCfxSABOICHiIZxk/?a=7073&bti=OTU0QDItLmA%3D&ch=0&cr=0&dr=4&er=0&lr=unwatermarked&cd=0%7C0%7C0%7C0&br=312&bt=156&ds=5&ft=.cwOVInz7ThxwqvOXq8Zmo&qs=13&rc=anY4OXI5cnBydjUzNzhoM0BpanY4OXI5cnBydjUzNzhoM0BlLjNpMmRjc2pgLS1kLjZzYSNlLjNpMmRjc2pgLS1kLjZzcw%3D%3D&vvpl=1&l=02173103917641900000000000000000000ffff0a0088d433601a&btag=e00070000&format=mp3&mime_type=audio_mpeg",
        "source_timerange": {
            "start_offset": 8.711999999999989,
            "end_offset": 10.164000000000001
        },
        "target_timerange": {
            "start_offset": 607.944,
            "end_offset": 609.396
        },
        "ignore_audio": true,
        "audio_path": null
    },
    {
        "segment_id": "c84be6c69d8711ef833bb8cef692109a",
        "text": "were not decidedly better.",
        "audio_url": "https://v16m-default.akamaized.net/8b44c9addc3cb90ced4e8a291b9d7281/672de445/video/tos/maliva/tos-maliva-v-f15faa-us/oMWXGCEx7eDArJg5fUAhFIbCfxSABOICHiIZxk/?a=7073&bti=OTU0QDItLmA%3D&ch=0&cr=0&dr=4&er=0&lr=unwatermarked&cd=0%7C0%7C0%7C0&br=312&bt=156&ds=5&ft=.cwOVInz7ThxwqvOXq8Zmo&qs=13&rc=anY4OXI5cnBydjUzNzhoM0BpanY4OXI5cnBydjUzNzhoM0BlLjNpMmRjc2pgLS1kLjZzYSNlLjNpMmRjc2pgLS1kLjZzcw%3D%3D&vvpl=1&l=02173103917641900000000000000000000ffff0a0088d433601a&btag=e00070000&format=mp3&mime_type=audio_mpeg",
        "source_timerange": {
            "start_offset": 10.163999999999987,
            "end_offset": 11.616
        },
        "target_timerange": {
            "start_offset": 609.396,
            "end_offset": 610.848
        },
        "ignore_audio": true,
        "audio_path": null
    },
    {
        "segment_id": "c84bfb489d8711ef833bb8cef692109a",
        "text": "Bingley was quite",
        "audio_url": "https://v16m-default.akamaized.net/c67aa9491cbb0f94697f8010aa7b6567/672de43d/video/tos/maliva/tos-maliva-v-f15faa-us/ooA8HxJCDIB72bpfXxFASMrZZCffOACIEug0CW/?a=7073&bti=OTU0QDItLmA%3D&ch=0&cr=0&dr=4&er=0&lr=unwatermarked&cd=0%7C0%7C0%7C0&br=312&bt=156&ds=5&ft=.cwOVInz7ThXwqvOXq8Zmo&qs=13&rc=amZzcG45cnBydjUzNzhoM0BpamZzcG45cnBydjUzNzhoM0BxZWdkMmRjc2pgLS1kLjZzYSNxZWdkMmRjc2pgLS1kLjZzcw%3D%3D&vvpl=1&l=02173103917641900000000000000000000ffff0a0088d433601a&btag=e00070000&format=mp3&mime_type=audio_mpeg",
        "source_timerange": {
            "start_offset": 0,
            "end_offset": 1.4160000000000066
        },
        "target_timerange": {
            "start_offset": 610.848,
            "end_offset": 612.264
        },
        "ignore_audio": false,
        "audio_path": null
    },
    {
        "segment_id": "c84bfd0a9d8711ef833bb8cef692109a",
        "text": "uncomfortable; his sisters",
        "audio_url": "https://v16m-default.akamaized.net/c67aa9491cbb0f94697f8010aa7b6567/672de43d/video/tos/maliva/tos-maliva-v-f15faa-us/ooA8HxJCDIB72bpfXxFASMrZZCffOACIEug0CW/?a=7073&bti=OTU0QDItLmA%3D&ch=0&cr=0&dr=4&er=0&lr=unwatermarked&cd=0%7C0%7C0%7C0&br=312&bt=156&ds=5&ft=.cwOVInz7ThXwqvOXq8Zmo&qs=13&rc=amZzcG45cnBydjUzNzhoM0BpamZzcG45cnBydjUzNzhoM0BxZWdkMmRjc2pgLS1kLjZzYSNxZWdkMmRjc2pgLS1kLjZzcw%3D%3D&vvpl=1&l=02173103917641900000000000000000000ffff0a0088d433601a&btag=e00070000&format=mp3&mime_type=audio_mpeg",
        "source_timerange": {
            "start_offset": 1.4160000000000537,
            "end_offset": 2.8319999999999466
        },
        "target_timerange": {
            "start_offset": 612.264,
            "end_offset": 613.68
        },
        "ignore_audio": true,
        "audio_path": null
    },
    {
        "segment_id": "c84bff4e9d8711ef833bb8cef692109a",
        "text": "declared that they were miserable.",
        "audio_url": "https://v16m-default.akamaized.net/c67aa9491cbb0f94697f8010aa7b6567/672de43d/video/tos/maliva/tos-maliva-v-f15faa-us/ooA8HxJCDIB72bpfXxFASMrZZCffOACIEug0CW/?a=7073&bti=OTU0QDItLmA%3D&ch=0&cr=0&dr=4&er=0&lr=unwatermarked&cd=0%7C0%7C0%7C0&br=312&bt=156&ds=5&ft=.cwOVInz7ThXwqvOXq8Zmo&qs=13&rc=amZzcG45cnBydjUzNzhoM0BpamZzcG45cnBydjUzNzhoM0BxZWdkMmRjc2pgLS1kLjZzYSNxZWdkMmRjc2pgLS1kLjZzcw%3D%3D&vvpl=1&l=02173103917641900000000000000000000ffff0a0088d433601a&btag=e00070000&format=mp3&mime_type=audio_mpeg",
        "source_timerange": {
            "start_offset": 2.8319999999999936,
            "end_offset": 4.248
        },
        "target_timerange": {
            "start_offset": 613.68,
            "end_offset": 615.096
        },
        "ignore_audio": true,
        "audio_path": null
    },
    {
        "segment_id": "c84c36949d8711ef833bb8cef692109a",
        "text": "They solaced their",
        "audio_url": "https://v16m-default.akamaized.net/094546301cf37965ffd8c733b5bea01d/672de445/video/tos/maliva/tos-maliva-v-f15faa-us/oUhfESKeZDX9jgAnAxFnCrOAACYgACFWEKfttE/?a=7073&bti=OTU0QDItLmA%3D&ch=0&cr=0&dr=4&er=0&lr=unwatermarked&cd=0%7C0%7C0%7C0&br=312&bt=156&ds=5&ft=.cwOVInz7ThXwqvOXq8Zmo&qs=13&rc=MzM8O205cnBydjUzNzhoM0BpMzM8O205cnBydjUzNzhoM0AyZC5zMmRjc2pgLS1kLjZzYSMyZC5zMmRjc2pgLS1kLjZzcw%3D%3D&vvpl=1&l=02173103917641900000000000000000000ffff0a0088d433601a&btag=e00070000&format=mp3&mime_type=audio_mpeg",
        "source_timerange": {
            "start_offset": 0,
            "end_offset": 1.429333333333343
        },
        "target_timerange": {
            "start_offset": 615.096,
            "end_offset": 616.5253333333334
        },
        "ignore_audio": false,
        "audio_path": null
    },
    {
        "segment_id": "c84c38609d8711ef833bb8cef692109a",
        "text": "wretchedness, however, by",
        "audio_url": "https://v16m-default.akamaized.net/094546301cf37965ffd8c733b5bea01d/672de445/video/tos/maliva/tos-maliva-v-f15faa-us/oUhfESKeZDX9jgAnAxFnCrOAACYgACFWEKfttE/?a=7073&bti=OTU0QDItLmA%3D&ch=0&cr=0&dr=4&er=0&lr=unwatermarked&cd=0%7C0%7C0%7C0&br=312&bt=156&ds=5&ft=.cwOVInz7ThXwqvOXq8Zmo&qs=13&rc=MzM8O205cnBydjUzNzhoM0BpMzM8O205cnBydjUzNzhoM0AyZC5zMmRjc2pgLS1kLjZzYSMyZC5zMmRjc2pgLS1kLjZzcw%3D%3D&vvpl=1&l=02173103917641900000000000000000000ffff0a0088d433601a&btag=e00070000&format=mp3&mime_type=audio_mpeg",
        "source_timerange": {
            "start_offset": 1.4293333333333749,
            "end_offset": 2.858666666666604
        },
        "target_timerange": {
            "start_offset": 616.5253333333334,
            "end_offset": 617.9546666666666
        },
        "ignore_audio": true,
        "audio_path": null
    },
    {
        "segment_id": "c84c39e69d8711ef833bb8cef692109a",
        "text": "duets after supper; while he",
        "audio_url": "https://v16m-default.akamaized.net/094546301cf37965ffd8c733b5bea01d/672de445/video/tos/maliva/tos-maliva-v-f15faa-us/oUhfESKeZDX9jgAnAxFnCrOAACYgACFWEKfttE/?a=7073&bti=OTU0QDItLmA%3D&ch=0&cr=0&dr=4&er=0&lr=unwatermarked&cd=0%7C0%7C0%7C0&br=312&bt=156&ds=5&ft=.cwOVInz7ThXwqvOXq8Zmo&qs=13&rc=MzM8O205cnBydjUzNzhoM0BpMzM8O205cnBydjUzNzhoM0AyZC5zMmRjc2pgLS1kLjZzYSMyZC5zMmRjc2pgLS1kLjZzcw%3D%3D&vvpl=1&l=02173103917641900000000000000000000ffff0a0088d433601a&btag=e00070000&format=mp3&mime_type=audio_mpeg",
        "source_timerange": {
            "start_offset": 2.858666666666636,
            "end_offset": 4.287999999999979
        },
        "target_timerange": {
            "start_offset": 617.9546666666666,
            "end_offset": 619.384
        },
        "ignore_audio": true,
        "audio_path": null
    },
    {
        "segment_id": "c84c3b769d8711ef833bb8cef692109a",
        "text": "could find no better relief",
        "audio_url": "https://v16m-default.akamaized.net/094546301cf37965ffd8c733b5bea01d/672de445/video/tos/maliva/tos-maliva-v-f15faa-us/oUhfESKeZDX9jgAnAxFnCrOAACYgACFWEKfttE/?a=7073&bti=OTU0QDItLmA%3D&ch=0&cr=0&dr=4&er=0&lr=unwatermarked&cd=0%7C0%7C0%7C0&br=312&bt=156&ds=5&ft=.cwOVInz7ThXwqvOXq8Zmo&qs=13&rc=MzM8O205cnBydjUzNzhoM0BpMzM8O205cnBydjUzNzhoM0AyZC5zMmRjc2pgLS1kLjZzYSMyZC5zMmRjc2pgLS1kLjZzcw%3D%3D&vvpl=1&l=02173103917641900000000000000000000ffff0a0088d433601a&btag=e00070000&format=mp3&mime_type=audio_mpeg",
        "source_timerange": {
            "start_offset": 4.288000000000011,
            "end_offset": 5.717333333333354
        },
        "target_timerange": {
            "start_offset": 619.384,
            "end_offset": 620.8133333333334
        },
        "ignore_audio": true,
        "audio_path": null
    },
    {
        "segment_id": "c84c3d069d8711ef833bb8cef692109a",
        "text": "to his feelings than by",
        "audio_url": "https://v16m-default.akamaized.net/094546301cf37965ffd8c733b5bea01d/672de445/video/tos/maliva/tos-maliva-v-f15faa-us/oUhfESKeZDX9jgAnAxFnCrOAACYgACFWEKfttE/?a=7073&bti=OTU0QDItLmA%3D&ch=0&cr=0&dr=4&er=0&lr=unwatermarked&cd=0%7C0%7C0%7C0&br=312&bt=156&ds=5&ft=.cwOVInz7ThXwqvOXq8Zmo&qs=13&rc=MzM8O205cnBydjUzNzhoM0BpMzM8O205cnBydjUzNzhoM0AyZC5zMmRjc2pgLS1kLjZzYSMyZC5zMmRjc2pgLS1kLjZzcw%3D%3D&vvpl=1&l=02173103917641900000000000000000000ffff0a0088d433601a&btag=e00070000&format=mp3&mime_type=audio_mpeg",
        "source_timerange": {
            "start_offset": 5.717333333333386,
            "end_offset": 7.146666666666615
        },
        "target_timerange": {
            "start_offset": 620.8133333333334,
            "end_offset": 622.2426666666667
        },
        "ignore_audio": true,
        "audio_path": null
    },
    {
        "segment_id": "c84c3e6e9d8711ef833bb8cef692109a",
        "text": "giving his housekeeper",
        "audio_url": "https://v16m-default.akamaized.net/094546301cf37965ffd8c733b5bea01d/672de445/video/tos/maliva/tos-maliva-v-f15faa-us/oUhfESKeZDX9jgAnAxFnCrOAACYgACFWEKfttE/?a=7073&bti=OTU0QDItLmA%3D&ch=0&cr=0&dr=4&er=0&lr=unwatermarked&cd=0%7C0%7C0%7C0&br=312&bt=156&ds=5&ft=.cwOVInz7ThXwqvOXq8Zmo&qs=13&rc=MzM8O205cnBydjUzNzhoM0BpMzM8O205cnBydjUzNzhoM0AyZC5zMmRjc2pgLS1kLjZzYSMyZC5zMmRjc2pgLS1kLjZzcw%3D%3D&vvpl=1&l=02173103917641900000000000000000000ffff0a0088d433601a&btag=e00070000&format=mp3&mime_type=audio_mpeg",
        "source_timerange": {
            "start_offset": 7.146666666666647,
            "end_offset": 8.57599999999999
        },
        "target_timerange": {
            "start_offset": 622.2426666666667,
            "end_offset": 623.672
        },
        "ignore_audio": true,
        "audio_path": null
    },
    {
        "segment_id": "c84c3fc29d8711ef833bb8cef692109a",
        "text": "directions that every",
        "audio_url": "https://v16m-default.akamaized.net/094546301cf37965ffd8c733b5bea01d/672de445/video/tos/maliva/tos-maliva-v-f15faa-us/oUhfESKeZDX9jgAnAxFnCrOAACYgACFWEKfttE/?a=7073&bti=OTU0QDItLmA%3D&ch=0&cr=0&dr=4&er=0&lr=unwatermarked&cd=0%7C0%7C0%7C0&br=312&bt=156&ds=5&ft=.cwOVInz7ThXwqvOXq8Zmo&qs=13&rc=MzM8O205cnBydjUzNzhoM0BpMzM8O205cnBydjUzNzhoM0AyZC5zMmRjc2pgLS1kLjZzYSMyZC5zMmRjc2pgLS1kLjZzcw%3D%3D&vvpl=1&l=02173103917641900000000000000000000ffff0a0088d433601a&btag=e00070000&format=mp3&mime_type=audio_mpeg",
        "source_timerange": {
            "start_offset": 8.576000000000022,
            "end_offset": 10.005333333333365
        },
        "target_timerange": {
            "start_offset": 623.672,
            "end_offset": 625.1013333333334
        },
        "ignore_audio": true,
        "audio_path": null
    },
    {
        "segment_id": "c84c41209d8711ef833bb8cef692109a",
        "text": "possible attention might be",
        "audio_url": "https://v16m-default.akamaized.net/094546301cf37965ffd8c733b5bea01d/672de445/video/tos/maliva/tos-maliva-v-f15faa-us/oUhfESKeZDX9jgAnAxFnCrOAACYgACFWEKfttE/?a=7073&bti=OTU0QDItLmA%3D&ch=0&cr=0&dr=4&er=0&lr=unwatermarked&cd=0%7C0%7C0%7C0&br=312&bt=156&ds=5&ft=.cwOVInz7ThXwqvOXq8Zmo&qs=13&rc=MzM8O205cnBydjUzNzhoM0BpMzM8O205cnBydjUzNzhoM0AyZC5zMmRjc2pgLS1kLjZzYSMyZC5zMmRjc2pgLS1kLjZzcw%3D%3D&vvpl=1&l=02173103917641900000000000000000000ffff0a0088d433601a&btag=e00070000&format=mp3&mime_type=audio_mpeg",
        "source_timerange": {
            "start_offset": 10.005333333333397,
            "end_offset": 11.434666666666626
        },
        "target_timerange": {
            "start_offset": 625.1013333333334,
            "end_offset": 626.5306666666667
        },
        "ignore_audio": true,
        "audio_path": null
    },
    {
        "segment_id": "c84c427e9d8711ef833bb8cef692109a",
        "text": "paid to the sick lady and her sister.",
        "audio_url": "https://v16m-default.akamaized.net/094546301cf37965ffd8c733b5bea01d/672de445/video/tos/maliva/tos-maliva-v-f15faa-us/oUhfESKeZDX9jgAnAxFnCrOAACYgACFWEKfttE/?a=7073&bti=OTU0QDItLmA%3D&ch=0&cr=0&dr=4&er=0&lr=unwatermarked&cd=0%7C0%7C0%7C0&br=312&bt=156&ds=5&ft=.cwOVInz7ThXwqvOXq8Zmo&qs=13&rc=MzM8O205cnBydjUzNzhoM0BpMzM8O205cnBydjUzNzhoM0AyZC5zMmRjc2pgLS1kLjZzYSMyZC5zMmRjc2pgLS1kLjZzcw%3D%3D&vvpl=1&l=02173103917641900000000000000000000ffff0a0088d433601a&btag=e00070000&format=mp3&mime_type=audio_mpeg",
        "source_timerange": {
            "start_offset": 11.434666666666658,
            "end_offset": 12.864
        },
        "target_timerange": {
            "start_offset": 626.5306666666667,
            "end_offset": 627.96
        },
        "ignore_audio": true,
        "audio_path": null
    },
    {
        "segment_id": "c84c5d369d8711ef833bb8cef692109a",
        "text": "[Illustration:  M^{rs}",
        "audio_url": "https://v16m-default.akamaized.net/38eb02e3165be43220473065c3a4d3c0/672de43f/video/tos/maliva/tos-maliva-v-f15faa-us/ogfWDf4ZCEVSE9jifAOgFCatE8rxXAqrAClAt6/?a=7073&bti=OTU0QDItLmA%3D&ch=0&cr=0&dr=4&er=0&lr=unwatermarked&cd=0%7C0%7C0%7C0&br=312&bt=156&ds=5&ft=.cwOVInz7ThXwqvOXq8Zmo&qs=13&rc=ajVwcHY5cnBydjUzNzhoM0BpajVwcHY5cnBydjUzNzhoM0BpaWljMmRjc2pgLS1kLjZzYSNpaWljMmRjc2pgLS1kLjZzcw%3D%3D&vvpl=1&l=02173103917641900000000000000000000ffff0a0088d433601a&btag=e00070000&format=mp3&mime_type=audio_mpeg",
        "source_timerange": {
            "start_offset": 0,
            "end_offset": 1.505999999999971
        },
        "target_timerange": {
            "start_offset": 627.96,
            "end_offset": 629.466
        },
        "ignore_audio": false,
        "audio_path": null
    },
    {
        "segment_id": "c84c5f029d8711ef833bb8cef692109a",
        "text": "Bennet and her two youngest",
        "audio_url": "https://v16m-default.akamaized.net/38eb02e3165be43220473065c3a4d3c0/672de43f/video/tos/maliva/tos-maliva-v-f15faa-us/ogfWDf4ZCEVSE9jifAOgFCatE8rxXAqrAClAt6/?a=7073&bti=OTU0QDItLmA%3D&ch=0&cr=0&dr=4&er=0&lr=unwatermarked&cd=0%7C0%7C0%7C0&br=312&bt=156&ds=5&ft=.cwOVInz7ThXwqvOXq8Zmo&qs=13&rc=ajVwcHY5cnBydjUzNzhoM0BpajVwcHY5cnBydjUzNzhoM0BpaWljMmRjc2pgLS1kLjZzYSNpaWljMmRjc2pgLS1kLjZzcw%3D%3D&vvpl=1&l=02173103917641900000000000000000000ffff0a0088d433601a&btag=e00070000&format=mp3&mime_type=audio_mpeg",
        "source_timerange": {
            "start_offset": 1.5059999999999718,
            "end_offset": 3.0119999999999427
        },
        "target_timerange": {
            "start_offset": 629.466,
            "end_offset": 630.972
        },
        "ignore_audio": true,
        "audio_path": null
    },
    {
        "segment_id": "c84c60889d8711ef833bb8cef692109a",
        "text": "girls  [_Copyright 1894 by",
        "audio_url": "https://v16m-default.akamaized.net/38eb02e3165be43220473065c3a4d3c0/672de43f/video/tos/maliva/tos-maliva-v-f15faa-us/ogfWDf4ZCEVSE9jifAOgFCatE8rxXAqrAClAt6/?a=7073&bti=OTU0QDItLmA%3D&ch=0&cr=0&dr=4&er=0&lr=unwatermarked&cd=0%7C0%7C0%7C0&br=312&bt=156&ds=5&ft=.cwOVInz7ThXwqvOXq8Zmo&qs=13&rc=ajVwcHY5cnBydjUzNzhoM0BpajVwcHY5cnBydjUzNzhoM0BpaWljMmRjc2pgLS1kLjZzYSNpaWljMmRjc2pgLS1kLjZzcw%3D%3D&vvpl=1&l=02173103917641900000000000000000000ffff0a0088d433601a&btag=e00070000&format=mp3&mime_type=audio_mpeg",
        "source_timerange": {
            "start_offset": 3.0119999999999436,
            "end_offset": 4.518000000000028
        },
        "target_timerange": {
            "start_offset": 630.972,
            "end_offset": 632.4780000000001
        },
        "ignore_audio": true,
        "audio_path": null
    },
    {
        "segment_id": "c84c62049d8711ef833bb8cef692109a",
        "text": "George Allen._]]",
        "audio_url": "https://v16m-default.akamaized.net/38eb02e3165be43220473065c3a4d3c0/672de43f/video/tos/maliva/tos-maliva-v-f15faa-us/ogfWDf4ZCEVSE9jifAOgFCatE8rxXAqrAClAt6/?a=7073&bti=OTU0QDItLmA%3D&ch=0&cr=0&dr=4&er=0&lr=unwatermarked&cd=0%7C0%7C0%7C0&br=312&bt=156&ds=5&ft=.cwOVInz7ThXwqvOXq8Zmo&qs=13&rc=ajVwcHY5cnBydjUzNzhoM0BpajVwcHY5cnBydjUzNzhoM0BpaWljMmRjc2pgLS1kLjZzYSNpaWljMmRjc2pgLS1kLjZzcw%3D%3D&vvpl=1&l=02173103917641900000000000000000000ffff0a0088d433601a&btag=e00070000&format=mp3&mime_type=audio_mpeg",
        "source_timerange": {
            "start_offset": 4.518000000000029,
            "end_offset": 6.024
        },
        "target_timerange": {
            "start_offset": 632.4780000000001,
            "end_offset": 633.984
        },
        "ignore_audio": true,
        "audio_path": null
    }
]