[
    {
        "segment_id": "cf5c9b12984211ef804008c0eb61ad5e",
        "text": "在江滨花园的奢华庄园里",
        "audio_url": "https://v3-vvecloud.yangyi08.com/e6197dd2d1da0af424743997ebb01a15/6724c6b8/video/tos/cn/tos-cn-v-2cd6b0/o8ZOEFNRAihLKADeAAgFYJKQEfuunoEBmAi9kC/?a=7073&ch=0&cr=0&dr=0&&br=0&bt=0&ft=xztlUQhhe6BMyqevUupJD12Nzj&mime_type=audio_mpeg&rc=QGlAYSNz&btag=c0000000008000&dy_q=1730459816&l=20241101191648DA8FF3F1E46E008174CE&format=mp3",
        "source_timerange": {
            "start_offset": 0,
            "end_offset": 2.63
        },
        "target_timerange": {
            "start_offset": 0,
            "end_offset": 2.63
        },
        "ignore_audio": false,
        "audio_path": null
    },
    {
        "segment_id": "cf5ca058984211ef804008c0eb61ad5e",
        "text": "代红伟和代七的对话让我",
        "audio_url": "https://v26-vvecloud.yangyi08.com/b7e5264b5ef0ff289afa3296091dcf66/6724c6b8/video/tos/cn/tos-cn-v-2cd6b0/osQo9AEjTySiZKqB4IuAPwmFEPAkkAsaRrASi/?a=7073&ch=0&cr=0&dr=0&&br=0&bt=0&ft=xztlUQhhe6BMyqevUupJD12Nzj&mime_type=audio_mpeg&rc=QGlAYSNz&btag=c0000000008000&dy_q=1730459816&l=20241101191648DA8FF3F1E46E008174CE&format=mp3",
        "source_timerange": {
            "start_offset": 0,
            "end_offset": 1.9850000000000003
        },
        "target_timerange": {
            "start_offset": 2.63,
            "end_offset": 4.615
        },
        "ignore_audio": false,
        "audio_path": null
    },
    {
        "segment_id": "cf5ca382984211ef804008c0eb61ad5e",
        "text": "感受到权力和阴谋的交织",
        "audio_url": "https://v26-vvecloud.yangyi08.com/b7e5264b5ef0ff289afa3296091dcf66/6724c6b8/video/tos/cn/tos-cn-v-2cd6b0/osQo9AEjTySiZKqB4IuAPwmFEPAkkAsaRrASi/?a=7073&ch=0&cr=0&dr=0&&br=0&bt=0&ft=xztlUQhhe6BMyqevUupJD12Nzj&mime_type=audio_mpeg&rc=QGlAYSNz&btag=c0000000008000&dy_q=1730459816&l=20241101191648DA8FF3F1E46E008174CE&format=mp3",
        "source_timerange": {
            "start_offset": 1.9850000000000003,
            "end_offset": 4.139999999999999
        },
        "target_timerange": {
            "start_offset": 4.615,
            "end_offset": 6.77
        },
        "ignore_audio": true,
        "audio_path": null
    },
    {
        "segment_id": "cf5ca742984211ef804008c0eb61ad5e",
        "text": "代红伟显然非常依赖代七 他的计划是要追求秦霜",
        "audio_url": "https://v6-vvecloud.yangyi08.com/b0559d62691ffde91afcc7701bcd616a/6724c6b8/video/tos/cn/tos-cn-v-2cd6b0/oIkAAEI8qYB4SA1TEAAioEZjuOkYBQFiK4iyP/?a=7073&ch=0&cr=0&dr=0&&br=0&bt=0&ft=xztlUQhhe6BMyqevUupJD12Nzj&mime_type=audio_mpeg&rc=QGlAYSNz&btag=c0000000008000&dy_q=1730459816&l=20241101191648DA8FF3F1E46E008174CE&format=mp3",
        "source_timerange": {
            "start_offset": 0,
            "end_offset": 4.9
        },
        "target_timerange": {
            "start_offset": 6.77,
            "end_offset": 11.67
        },
        "ignore_audio": false,
        "audio_path": null
    },
    {
        "segment_id": "cf5caa4e984211ef804008c0eb61ad5e",
        "text": "然而却被我这个“穷学生”挡了路",
        "audio_url": "https://v9-vvecloud.yangyi08.com/fe1e15394fc165d5f44dd940669a0833/6724c6b9/video/tos/cn/tos-cn-v-2cd6b0/oUCEjKIAkiZ0BRi84XotAEKSuQqATUP2AAkhy/?a=7073&ch=0&cr=0&dr=0&&br=0&bt=0&ft=xztlUQhhe6BMyq2vUupJD12Nzj&mime_type=audio_mpeg&rc=QGlAYSNz&btag=c0000000008000&dy_q=1730459817&l=20241101191648DA8FF3F1E46E008174CE&format=mp3",
        "source_timerange": {
            "start_offset": 0,
            "end_offset": 2.74
        },
        "target_timerange": {
            "start_offset": 11.67,
            "end_offset": 14.41
        },
        "ignore_audio": false,
        "audio_path": null
    },
    {
        "segment_id": "cf5cad28984211ef804008c0eb61ad5e",
        "text": "这让我心中不禁感到一丝不安",
        "audio_url": "https://v9-vvecloud.yangyi08.com/a2273fd2cb80e638f7724a2d7936070b/6724c6b9/video/tos/cn/tos-cn-v-2cd6b0/o8EAknPiOBLA3gRH0oECAFEAiuDhwJAj7feoKN/?a=7073&ch=0&cr=0&dr=0&&br=0&bt=0&ft=xztlUQhhe6BMyq2vUupJD12Nzj&mime_type=audio_mpeg&rc=QGlAYSNz&btag=c0000000008000&dy_q=1730459817&l=20241101191648DA8FF3F1E46E008174CE&format=mp3",
        "source_timerange": {
            "start_offset": 0,
            "end_offset": 2.7399999999999984
        },
        "target_timerange": {
            "start_offset": 14.41,
            "end_offset": 17.15
        },
        "ignore_audio": false,
        "audio_path": null
    },
    {
        "segment_id": "cf5cb002984211ef804008c0eb61ad5e",
        "text": "算计似乎在酝酿着什么",
        "audio_url": "https://v6-vvecloud.yangyi08.com/66753deb781683dd77c5079d20b4f539/6724c6b9/video/tos/cn/tos-cn-v-2cd6b0/oUZAojyASpBiiKOEA4ko0Q7pkguEAPiIPT5qA/?a=7073&ch=0&cr=0&dr=0&&br=0&bt=0&ft=xztlUQhhe6BMyq2vUupJD12Nzj&mime_type=audio_mpeg&rc=QGlAYSNz&btag=c0000000008000&dy_q=1730459817&l=20241101191648DA8FF3F1E46E008174CE&format=mp3",
        "source_timerange": {
            "start_offset": 0,
            "end_offset": 2.450000000000003
        },
        "target_timerange": {
            "start_offset": 17.15,
            "end_offset": 19.6
        },
        "ignore_audio": false,
        "audio_path": null
    },
    {
        "segment_id": "cf5cb2dc984211ef804008c0eb61ad5e",
        "text": "代七的冷酷让我难以忽视",
        "audio_url": "https://v6-vvecloud.yangyi08.com/c345bf7c100b0a3afed10238d59acf37/6724c6b9/video/tos/cn/tos-cn-v-2cd6b0/o0AyEiQrtyIIouBQ4TjZkVkAA8xSAquBAEiPK/?a=7073&ch=0&cr=0&dr=0&&br=0&bt=0&ft=xztlUQhhe6BMyq2vUupJD12Nzj&mime_type=audio_mpeg&rc=QGlAYSNz&btag=c0000000008000&dy_q=1730459817&l=20241101191648DA8FF3F1E46E008174CE&format=mp3",
        "source_timerange": {
            "start_offset": 0,
            "end_offset": 2.66
        },
        "target_timerange": {
            "start_offset": 19.6,
            "end_offset": 22.26
        },
        "ignore_audio": false,
        "audio_path": null
    },
    {
        "segment_id": "cf5cb5de984211ef804008c0eb61ad5e",
        "text": "他的每一句话都像是在为我",
        "audio_url": "https://v3-vvecloud.yangyi08.com/d5ae05b43a36508456be2c27d0bf6c65/6724c6b9/video/tos/cn/tos-cn-v-2cd6b0/ocZkPAAKKEIyRBT0hyiE4iAAEkuaoqLQSz3vA/?a=7073&ch=0&cr=0&dr=0&&br=0&bt=0&ft=xztlUQhhe6BMyq2vUupJD12Nzj&mime_type=audio_mpeg&rc=QGlAYSNz&btag=c0000000008000&dy_q=1730459817&l=20241101191648DA8FF3F1E46E008174CE&format=mp3",
        "source_timerange": {
            "start_offset": 0,
            "end_offset": 1.8449999999999989
        },
        "target_timerange": {
            "start_offset": 22.26,
            "end_offset": 24.105
        },
        "ignore_audio": false,
        "audio_path": null
    },
    {
        "segment_id": "cf5cb8e0984211ef804008c0eb61ad5e",
        "text": "和秦霜之间的感情埋下了隐患",
        "audio_url": "https://v3-vvecloud.yangyi08.com/d5ae05b43a36508456be2c27d0bf6c65/6724c6b9/video/tos/cn/tos-cn-v-2cd6b0/ocZkPAAKKEIyRBT0hyiE4iAAEkuaoqLQSz3vA/?a=7073&ch=0&cr=0&dr=0&&br=0&bt=0&ft=xztlUQhhe6BMyq2vUupJD12Nzj&mime_type=audio_mpeg&rc=QGlAYSNz&btag=c0000000008000&dy_q=1730459817&l=20241101191648DA8FF3F1E46E008174CE&format=mp3",
        "source_timerange": {
            "start_offset": 1.8449999999999989,
            "end_offset": 4.209999999999997
        },
        "target_timerange": {
            "start_offset": 24.105,
            "end_offset": 26.47
        },
        "ignore_audio": true,
        "audio_path": null
    },
    {
        "segment_id": "cf5cbbba984211ef804008c0eb61ad5e",
        "text": "他提到我曾是一个执着的舔狗",
        "audio_url": "https://v9-vvecloud.yangyi08.com/d8a5a595d92a21c6e10c3b0aa0598cb0/6724c6b9/video/tos/cn/tos-cn-v-2cd6b0/oIPiZAAIB3iAoSAkAUkEEhUkQIVpuq4gK0yTd/?a=7073&ch=0&cr=0&dr=0&&br=0&bt=0&ft=xztlUQhhe6BMyq2vUupJD12Nzj&mime_type=audio_mpeg&rc=QGlAYSNz&btag=c0000000008000&dy_q=1730459817&l=20241101191648DA8FF3F1E46E008174CE&format=mp3",
        "source_timerange": {
            "start_offset": 0,
            "end_offset": 2.9200000000000017
        },
        "target_timerange": {
            "start_offset": 26.47,
            "end_offset": 29.39
        },
        "ignore_audio": false,
        "audio_path": null
    },
    {
        "segment_id": "cf5cbe80984211ef804008c0eb61ad5e",
        "text": "这让我心中一阵苦涩 难道我为了她所做的一切",
        "audio_url": "https://v6-vvecloud.yangyi08.com/a6c84f24f108d4a1ee2d3bf865287438/6724c6b9/video/tos/cn/tos-cn-v-2cd6b0/ogAoSkP6N4TnpEIyAAEAikKhCAKcZqwuQBu2i/?a=7073&ch=0&cr=0&dr=0&&br=0&bt=0&ft=xztlUQhhe6BMyq2vUupJD12Nzj&mime_type=audio_mpeg&rc=QGlAYSNz&btag=c0000000008000&dy_q=1730459817&l=20241101191648DA8FF3F1E46E008174CE&format=mp3",
        "source_timerange": {
            "start_offset": 0,
            "end_offset": 4.43
        },
        "target_timerange": {
            "start_offset": 29.39,
            "end_offset": 33.82
        },
        "ignore_audio": false,
        "audio_path": null
    },
    {
        "segment_id": "cf5cc178984211ef804008c0eb61ad5e",
        "text": "真的就要成为他人手中的棋子吗？",
        "audio_url": "https://v26-vvecloud.yangyi08.com/219dd9e2a722049f0a13632cfb8701cb/6724c6b9/video/tos/cn/tos-cn-v-2cd6b0/oknMgkfBmEyNI7zRruyHAkwlkAKBwixAiAAUEQ/?a=7073&ch=0&cr=0&dr=0&&br=0&bt=0&ft=xztlUQhhe6BMyq2vUupJD12Nzj&mime_type=audio_mpeg&rc=QGlAYSNz&btag=c0000000008000&dy_q=1730459817&l=20241101191648DA8FF3F1E46E008174CE&format=mp3",
        "source_timerange": {
            "start_offset": 0,
            "end_offset": 2.950000000000003
        },
        "target_timerange": {
            "start_offset": 33.82,
            "end_offset": 36.77
        },
        "ignore_audio": false,
        "audio_path": null
    },
    {
        "segment_id": "cf5cc434984211ef804008c0eb61ad5e",
        "text": "我明白 代红伟想通过陈金莲",
        "audio_url": "https://v6-vvecloud.yangyi08.com/4c6cd2657a3d7dff7a2897c0ab629133/6724c6ba/video/tos/cn/tos-cn-v-2cd6b0/os9xEmrhUBBKulAlAli3gIzAARUQxA4kEhfbki/?a=7073&ch=0&cr=0&dr=0&&br=0&bt=0&ft=xztlUQhhe6BMyqrvUupJD12Nzj&mime_type=audio_mpeg&rc=QGlAYSNz&btag=c0000000008000&dy_q=1730459818&l=20241101191648DA8FF3F1E46E008174CE&format=mp3",
        "source_timerange": {
            "start_offset": 0,
            "end_offset": 2.684999999999995
        },
        "target_timerange": {
            "start_offset": 36.77,
            "end_offset": 39.455
        },
        "ignore_audio": false,
        "audio_path": null
    },
    {
        "segment_id": "cf5cc6fa984211ef804008c0eb61ad5e",
        "text": "来离间我和秦霜的关系",
        "audio_url": "https://v6-vvecloud.yangyi08.com/4c6cd2657a3d7dff7a2897c0ab629133/6724c6ba/video/tos/cn/tos-cn-v-2cd6b0/os9xEmrhUBBKulAlAli3gIzAARUQxA4kEhfbki/?a=7073&ch=0&cr=0&dr=0&&br=0&bt=0&ft=xztlUQhhe6BMyqrvUupJD12Nzj&mime_type=audio_mpeg&rc=QGlAYSNz&btag=c0000000008000&dy_q=1730459818&l=20241101191648DA8FF3F1E46E008174CE&format=mp3",
        "source_timerange": {
            "start_offset": 2.684999999999995,
            "end_offset": 4.459999999999994
        },
        "target_timerange": {
            "start_offset": 39.455,
            "end_offset": 41.23
        },
        "ignore_audio": true,
        "audio_path": null
    },
    {
        "segment_id": "cf5cc9e8984211ef804008c0eb61ad5e",
        "text": "而代七的办法更是阴险狡诈",
        "audio_url": "https://v6-vvecloud.yangyi08.com/f15363a95697141b00655b7582df7ef7/6724c6b9/video/tos/cn/tos-cn-v-2cd6b0/ogkqglfBmEwmIazR3urUAkwlkAKBiixAiAAUEQ/?a=7073&ch=0&cr=0&dr=0&&br=0&bt=0&ft=xztlUQhhe6BMyq2vUupJD12Nzj&mime_type=audio_mpeg&rc=QGlAYSNz&btag=c0000000008000&dy_q=1730459817&l=20241101191648DA8FF3F1E46E008174CE&format=mp3",
        "source_timerange": {
            "start_offset": 0,
            "end_offset": 2.9200000000000017
        },
        "target_timerange": {
            "start_offset": 41.23,
            "end_offset": 44.15
        },
        "ignore_audio": false,
        "audio_path": null
    },
    {
        "segment_id": "cf5cccb8984211ef804008c0eb61ad5e",
        "text": "我一直以来坚守的信念在此刻受到了挑战",
        "audio_url": "https://v3-vvecloud.yangyi08.com/5a824131badad2874c0c7e8c5c6f8cdb/6724c6ba/video/tos/cn/tos-cn-v-2cd6b0/o4ArAefeGBAOLARETkIuXTEKSCaEuS0AQljpFF/?a=7073&ch=0&cr=0&dr=0&&br=0&bt=0&ft=xztlUQhhe6BMyqrvUupJD12Nzj&mime_type=audio_mpeg&rc=QGlAYSNz&btag=c0000000008000&dy_q=1730459818&l=20241101191648DA8FF3F1E46E008174CE&format=mp3",
        "source_timerange": {
            "start_offset": 0,
            "end_offset": 3.490000000000002
        },
        "target_timerange": {
            "start_offset": 44.15,
            "end_offset": 47.64
        },
        "ignore_audio": false,
        "audio_path": null
    },
    {
        "segment_id": "cf5cd0c8984211ef804008c0eb61ad5e",
        "text": "绝不能让他们的阴谋得逞",
        "audio_url": "https://v6-vvecloud.yangyi08.com/4d39f1c5dfe55e0b457f8593a8df7668/6724c6ba/video/tos/cn/tos-cn-v-2cd6b0/o8ASAeeDGBAOLAFETkIuX4EKSCaESNfAQkjaFF/?a=7073&ch=0&cr=0&dr=0&&br=0&bt=0&ft=xztlUQhhe6BMyqrvUupJD12Nzj&mime_type=audio_mpeg&rc=QGlAYSNz&btag=c0000000008000&dy_q=1730459818&l=20241101191648DA8FF3F1E46E008174CE&format=mp3",
        "source_timerange": {
            "start_offset": 0,
            "end_offset": 2.3399999999999963
        },
        "target_timerange": {
            "start_offset": 47.64,
            "end_offset": 49.98
        },
        "ignore_audio": false,
        "audio_path": null
    },
    {
        "segment_id": "cf5cd37a984211ef804008c0eb61ad5e",
        "text": "即便是来自家人的压力 我也不会轻易屈服",
        "audio_url": "https://v9-vvecloud.yangyi08.com/944cf90da3a07fde3f828ba63f44045d/6724c6ba/video/tos/cn/tos-cn-v-2cd6b0/o8kj7SIC3A1eYSaqE6FT4eAQGeFVLBAuzCAOXQ/?a=7073&ch=0&cr=0&dr=0&&br=0&bt=0&ft=xztlUQhhe6BMyqrvUupJD12Nzj&mime_type=audio_mpeg&rc=QGlAYSNz&btag=c0000000008000&dy_q=1730459818&l=20241101191648DA8FF3F1E46E008174CE&format=mp3",
        "source_timerange": {
            "start_offset": 0,
            "end_offset": 4.100000000000001
        },
        "target_timerange": {
            "start_offset": 49.98,
            "end_offset": 54.08
        },
        "ignore_audio": false,
        "audio_path": null
    },
    {
        "segment_id": "cf5cd672984211ef804008c0eb61ad5e",
        "text": "即使面临重重困难 我也要找到方法逆转局势",
        "audio_url": "https://v9-vvecloud.yangyi08.com/e08ddf6c295595a5f960260d40a59ab6/6724c6ba/video/tos/cn/tos-cn-v-2cd6b0/osUlKNQB9iAmlA1zBoAkEuEkfxRAdAgmaB1Iki/?a=7073&ch=0&cr=0&dr=0&&br=0&bt=0&ft=xztlUQhhe6BMyqrvUupJD12Nzj&mime_type=audio_mpeg&rc=QGlAYSNz&btag=c0000000008000&dy_q=1730459818&l=20241101191648DA8FF3F1E46E008174CE&format=mp3",
        "source_timerange": {
            "start_offset": 0,
            "end_offset": 4.25
        },
        "target_timerange": {
            "start_offset": 54.08,
            "end_offset": 58.33
        },
        "ignore_audio": false,
        "audio_path": null
    },
    {
        "segment_id": "cf5cd94c984211ef804008c0eb61ad5e",
        "text": "让代红伟和代七知道",
        "audio_url": "https://v3-vvecloud.yangyi08.com/7b3d37e070a22038148ed6705911739b/6724c6ba/video/tos/cn/tos-cn-v-2cd6b0/oEi93CfWNJEAeuRAipgSE9FECmADAnkKDvALBA/?a=7073&ch=0&cr=0&dr=0&&br=0&bt=0&ft=xztlUQhhe6BMyqrvUupJD12Nzj&mime_type=audio_mpeg&rc=QGlAYSNz&btag=c0000000008000&dy_q=1730459818&l=20241101191648DA8FF3F1E46E008174CE&format=mp3",
        "source_timerange": {
            "start_offset": 0,
            "end_offset": 2.3800000000000026
        },
        "target_timerange": {
            "start_offset": 58.33,
            "end_offset": 60.71
        },
        "ignore_audio": false,
        "audio_path": null
    },
    {
        "segment_id": "cf5cdc4e984211ef804008c0eb61ad5e",
        "text": "史金并不是他们所想象的那样卑微无能",
        "audio_url": "https://v26-vvecloud.yangyi08.com/76bce5fca5e0b15977794506a69e2bf0/6724c6ba/video/tos/cn/tos-cn-v-2cd6b0/ogxFUiBcEGRNAiApUflZkELfnKAu2Dm6JAEgCA/?a=7073&ch=0&cr=0&dr=0&&br=0&bt=0&ft=xztlUQhhe6BMyqrvUupJD12Nzj&mime_type=audio_mpeg&rc=QGlAYSNz&btag=c0000000008000&dy_q=1730459818&l=20241101191648DA8FF3F1E46E008174CE&format=mp3",
        "source_timerange": {
            "start_offset": 0,
            "end_offset": 3.460000000000001
        },
        "target_timerange": {
            "start_offset": 60.71,
            "end_offset": 64.17
        },
        "ignore_audio": false,
        "audio_path": null
    },
    {
        "segment_id": "cf5cdf32984211ef804008c0eb61ad5e",
        "text": "在这场权谋斗争中 必须保持警惕 随时准备反击",
        "audio_url": "https://v26-vvecloud.yangyi08.com/0c636a637adc9f5fad4f5f70ae309d06/6724c6b9/video/tos/cn/tos-cn-v-2cd6b0/oILBAgpfAkBnFACzEiKvRufDgECiNmAh27JpEA/?a=7073&ch=0&cr=0&dr=0&&br=0&bt=0&ft=xztlUQhhe6BMyq2vUupJD12Nzj&mime_type=audio_mpeg&rc=QGlAYSNz&btag=c0000000008000&dy_q=1730459817&l=20241101191648DA8FF3F1E46E008174CE&format=mp3",
        "source_timerange": {
            "start_offset": 0,
            "end_offset": 5.1499999999999915
        },
        "target_timerange": {
            "start_offset": 64.17,
            "end_offset": 69.32
        },
        "ignore_audio": false,
        "audio_path": null
    },
    {
        "segment_id": "cf5ce20c984211ef804008c0eb61ad5e",
        "text": "我的未来不应被别人所左右",
        "audio_url": "https://v9-vvecloud.yangyi08.com/2793e016d7c66f1dbe55756e22d8a4f9/6724c6b9/video/tos/cn/tos-cn-v-2cd6b0/ocQyE3mIARklvAB5gAQiKkKLEfuIzUiAIAxykB/?a=7073&ch=0&cr=0&dr=0&&br=0&bt=0&ft=xztlUQhhe6BMyq2vUupJD12Nzj&mime_type=audio_mpeg&rc=QGlAYSNz&btag=c0000000008000&dy_q=1730459817&l=20241101191648DA8FF3F1E46E008174CE&format=mp3",
        "source_timerange": {
            "start_offset": 0,
            "end_offset": 2.5900000000000034
        },
        "target_timerange": {
            "start_offset": 69.32,
            "end_offset": 71.91
        },
        "ignore_audio": false,
        "audio_path": null
    },
    {
        "segment_id": "cf5ce4d2984211ef804008c0eb61ad5e",
        "text": "我一定会为自己争取一个光明的未来",
        "audio_url": "https://v9-vvecloud.yangyi08.com/c744c123605a9cd4feef7fef16a0716e/6724c6ba/video/tos/cn/tos-cn-v-2cd6b0/o4fnd3RBifDJRJkEOcFipIAVA4AZIgBrL9ANMC/?a=7073&ch=0&cr=0&dr=0&&br=0&bt=0&ft=xztlUQhhe6BMyqrvUupJD12Nzj&mime_type=audio_mpeg&rc=QGlAYSNz&btag=c0000000008000&dy_q=1730459818&l=20241101191648DA8FF3F1E46E008174CE&format=mp3",
        "source_timerange": {
            "start_offset": 0,
            "end_offset": 3.1300000000000097
        },
        "target_timerange": {
            "start_offset": 71.91,
            "end_offset": 75.04
        },
        "ignore_audio": false,
        "audio_path": null
    },
    {
        "segment_id": "cf5ce7a2984211ef804008c0eb61ad5e",
        "text": "代七和代红伟的对话让我意识到",
        "audio_url": "https://v6-vvecloud.yangyi08.com/9e94033287ec12e0568df062c0867fe6/6724c6ba/video/tos/cn/tos-cn-v-2cd6b0/o4fpAXKALnEgEgEmueKFxiVDBTArJERkihNCAA/?a=7073&ch=0&cr=0&dr=0&&br=0&bt=0&ft=xztlUQhhe6BMyqrvUupJD12Nzj&mime_type=audio_mpeg&rc=QGlAYSNz&btag=c0000000008000&dy_q=1730459818&l=20241101191648DA8FF3F1E46E008174CE&format=mp3",
        "source_timerange": {
            "start_offset": 0,
            "end_offset": 2.989999999999995
        },
        "target_timerange": {
            "start_offset": 75.04,
            "end_offset": 78.03
        },
        "ignore_audio": false,
        "audio_path": null
    },
    {
        "segment_id": "cf5cea72984211ef804008c0eb61ad5e",
        "text": "掌控家族的关键不仅在于权力的争夺",
        "audio_url": "https://v26-vvecloud.yangyi08.com/0d0adf05dccafb4286987e762ca4f588/6724c6ba/video/tos/cn/tos-cn-v-2cd6b0/o8KiAJpNkECLVAhio8uikfAmsgErKBDAnEfRAF/?a=7073&ch=0&cr=0&dr=0&&br=0&bt=0&ft=xztlUQhhe6BMyqrvUupJD12Nzj&mime_type=audio_mpeg&rc=QGlAYSNz&btag=c0000000008000&dy_q=1730459818&l=20241101191648DA8FF3F1E46E008174CE&format=mp3",
        "source_timerange": {
            "start_offset": 0,
            "end_offset": 3.4599999999999937
        },
        "target_timerange": {
            "start_offset": 78.03,
            "end_offset": 81.49
        },
        "ignore_audio": false,
        "audio_path": null
    },
    {
        "segment_id": "cf5ced2e984211ef804008c0eb61ad5e",
        "text": "更在于如何处理复杂的人际关系",
        "audio_url": "https://v6-vvecloud.yangyi08.com/d5279c1edb56a1406fbbad3535219e33/6724c6ba/video/tos/cn/tos-cn-v-2cd6b0/oo4JjX6WOIaAEABecCSLeBFIILGAjPFOTAexV1/?a=7073&ch=0&cr=0&dr=0&&br=0&bt=0&ft=xztlUQhhe6BMyqrvUupJD12Nzj&mime_type=audio_mpeg&rc=QGlAYSNz&btag=c0000000008000&dy_q=1730459818&l=20241101191648DA8FF3F1E46E008174CE&format=mp3",
        "source_timerange": {
            "start_offset": 0,
            "end_offset": 3.1000000000000085
        },
        "target_timerange": {
            "start_offset": 81.49,
            "end_offset": 84.59
        },
        "ignore_audio": false,
        "audio_path": null
    },
    {
        "segment_id": "cf5cf008984211ef804008c0eb61ad5e",
        "text": "代七的教诲让我感到他对代红伟的期望",
        "audio_url": "https://v26-vvecloud.yangyi08.com/5aeb84697b32e9caef888aae25607a82/6724c6ba/video/tos/cn/tos-cn-v-2cd6b0/oEzkIluZzEmARAg1uAkioAxiE5BAYlBmUQfvK8/?a=7073&ch=0&cr=0&dr=0&&br=0&bt=0&ft=xztlUQhhe6BMyqrvUupJD12Nzj&mime_type=audio_mpeg&rc=QGlAYSNz&btag=c0000000008000&dy_q=1730459818&l=20241101191648DA8FF3F1E46E008174CE&format=mp3",
        "source_timerange": {
            "start_offset": 0,
            "end_offset": 3.4200000000000017
        },
        "target_timerange": {
            "start_offset": 84.59,
            "end_offset": 88.01
        },
        "ignore_audio": false,
        "audio_path": null
    },
    {
        "segment_id": "cf5cf2d8984211ef804008c0eb61ad5e",
        "text": "也让我明白 权力游戏的",
        "audio_url": "https://v9-vvecloud.yangyi08.com/0fa37a609a349cf251ee8896ccb16d01/6724c6ba/video/tos/cn/tos-cn-v-2cd6b0/oAFBAVSJPVOIeCeAYBGXBIT0aScjIFLAACQEWe/?a=7073&ch=0&cr=0&dr=0&&br=0&bt=0&ft=xztlUQhhe6BMyqrvUupJD12Nzj&mime_type=audio_mpeg&rc=QGlAYSNz&btag=c0000000008000&dy_q=1730459818&l=20241101191648DA8FF3F1E46E008174CE&format=mp3",
        "source_timerange": {
            "start_offset": 0,
            "end_offset": 2.094999999999999
        },
        "target_timerange": {
            "start_offset": 88.01,
            "end_offset": 90.105
        },
        "ignore_audio": false,
        "audio_path": null
    },
    {
        "segment_id": "cf5cf68e984211ef804008c0eb61ad5e",
        "text": "背后是无情的算计与较量",
        "audio_url": "https://v9-vvecloud.yangyi08.com/0fa37a609a349cf251ee8896ccb16d01/6724c6ba/video/tos/cn/tos-cn-v-2cd6b0/oAFBAVSJPVOIeCeAYBGXBIT0aScjIFLAACQEWe/?a=7073&ch=0&cr=0&dr=0&&br=0&bt=0&ft=xztlUQhhe6BMyqrvUupJD12Nzj&mime_type=audio_mpeg&rc=QGlAYSNz&btag=c0000000008000&dy_q=1730459818&l=20241101191648DA8FF3F1E46E008174CE&format=mp3",
        "source_timerange": {
            "start_offset": 2.094999999999999,
            "end_offset": 4.459999999999994
        },
        "target_timerange": {
            "start_offset": 90.105,
            "end_offset": 92.47
        },
        "ignore_audio": true,
        "audio_path": null
    },
    {
        "segment_id": "cf5cf986984211ef804008c0eb61ad5e",
        "text": "我来到创业就业中心",
        "audio_url": "https://v3-vvecloud.yangyi08.com/51474cd268bdf3d1811ab84f90f13fa7/6724c6ba/video/tos/cn/tos-cn-v-2cd6b0/o0uewLqEIEAEAzSXXkeFgATFjAQnOGaeBAKKCM/?a=7073&ch=0&cr=0&dr=0&&br=0&bt=0&ft=xztlUQhhe6BMyqrvUupJD12Nzj&mime_type=audio_mpeg&rc=QGlAYSNz&btag=c0000000008000&dy_q=1730459818&l=20241101191648DA8FF3F1E46E008174CE&format=mp3",
        "source_timerange": {
            "start_offset": 0,
            "end_offset": 2.269999999999996
        },
        "target_timerange": {
            "start_offset": 92.47,
            "end_offset": 94.74
        },
        "ignore_audio": false,
        "audio_path": null
    },
    {
        "segment_id": "cf5cfc92984211ef804008c0eb61ad5e",
        "text": "杨自奎的急切让我感到一丝不安",
        "audio_url": "https://v6-vvecloud.yangyi08.com/69e21697006d0f66faa69800be53fc97/6724c6ba/video/tos/cn/tos-cn-v-2cd6b0/oQkMgJDAAEnAFAmikNfBRYpdKtfmuLihCEAMtE/?a=7073&ch=0&cr=0&dr=0&&br=0&bt=0&ft=xztlUQhhe6BMyqrvUupJD12Nzj&mime_type=audio_mpeg&rc=QGlAYSNz&btag=c0000000008000&dy_q=1730459818&l=20241101191648DA8FF3F1E46E008174CE&format=mp3",
        "source_timerange": {
            "start_offset": 0,
            "end_offset": 2.990000000000009
        },
        "target_timerange": {
            "start_offset": 94.74,
            "end_offset": 97.73
        },
        "ignore_audio": false,
        "audio_path": null
    },
    {
        "segment_id": "cf5cff80984211ef804008c0eb61ad5e",
        "text": "他似乎有事情要跟我说 但我并不清楚具体是什么",
        "audio_url": "https://v9-vvecloud.yangyi08.com/58dd9090019fcf926b92cdc9a0729528/6724c6ba/video/tos/cn/tos-cn-v-2cd6b0/ocmBiAqzlRyAIAxkEAAKifkUmukZzEBMZgyIQA/?a=7073&ch=0&cr=0&dr=0&&br=0&bt=0&ft=xztlUQhhe6BMyqrvUupJD12Nzj&mime_type=audio_mpeg&rc=QGlAYSNz&btag=c0000000008000&dy_q=1730459818&l=20241101191648DA8FF3F1E46E008174CE&format=mp3",
        "source_timerange": {
            "start_offset": 0,
            "end_offset": 4.25
        },
        "target_timerange": {
            "start_offset": 97.73,
            "end_offset": 101.98
        },
        "ignore_audio": false,
        "audio_path": null
    },
    {
        "segment_id": "cf5d028c984211ef804008c0eb61ad5e",
        "text": "电话中他的调侃让我忍不住一笑",
        "audio_url": "https://v3-vvecloud.yangyi08.com/b36b11c34b10d54127a5d1e2a2398c15/6724c6ba/video/tos/cn/tos-cn-v-2cd6b0/oMKiEDilAFmUR3gkgABBExk9ILzQuAARAliyfW/?a=7073&ch=0&cr=0&dr=0&&br=0&bt=0&ft=xztlUQhhe6BMyqrvUupJD12Nzj&mime_type=audio_mpeg&rc=QGlAYSNz&btag=c0000000008000&dy_q=1730459818&l=20241101191648DA8FF3F1E46E008174CE&format=mp3",
        "source_timerange": {
            "start_offset": 0,
            "end_offset": 3.1299999999999955
        },
        "target_timerange": {
            "start_offset": 101.98,
            "end_offset": 105.11
        },
        "ignore_audio": false,
        "audio_path": null
    },
    {
        "segment_id": "cf5d0566984211ef804008c0eb61ad5e",
        "text": "虽然我们之间有着调侃",
        "audio_url": "https://v6-vvecloud.yangyi08.com/e513c57efa914e13566dae48d883152b/6724c6ba/video/tos/cn/tos-cn-v-2cd6b0/oogAAinEkehDRBnugpNKLfEGFiCRAAJgnKqHAE/?a=7073&ch=0&cr=0&dr=0&&br=0&bt=0&ft=xztlUQhhe6BMyqrvUupJD12Nzj&mime_type=audio_mpeg&rc=QGlAYSNz&btag=c0000000008000&dy_q=1730459818&l=20241101191648DA8FF3F1E46E008174CE&format=mp3",
        "source_timerange": {
            "start_offset": 0,
            "end_offset": 2.200000000000003
        },
        "target_timerange": {
            "start_offset": 105.11,
            "end_offset": 107.31
        },
        "ignore_audio": false,
        "audio_path": null
    },
    {
        "segment_id": "cf5d082c984211ef804008c0eb61ad5e",
        "text": "但我知道他在这种时候是非常认真",
        "audio_url": "https://v3-vvecloud.yangyi08.com/edb6d1f0dddc3a247ed2040d5257a337/6724c6ba/video/tos/cn/tos-cn-v-2cd6b0/oQmkUmQkfBEm4xAGABIz5KAGuigmiRAxrlAEi7/?a=7073&ch=0&cr=0&dr=0&&br=0&bt=0&ft=xztlUQhhe6BMyqrvUupJD12Nzj&mime_type=audio_mpeg&rc=QGlAYSNz&btag=c0000000008000&dy_q=1730459818&l=20241101191648DA8FF3F1E46E008174CE&format=mp3",
        "source_timerange": {
            "start_offset": 0,
            "end_offset": 3.280000000000001
        },
        "target_timerange": {
            "start_offset": 107.31,
            "end_offset": 110.59
        },
        "ignore_audio": false,
        "audio_path": null
    },
    {
        "segment_id": "cf5d0b24984211ef804008c0eb61ad5e",
        "text": "心中想着与孙小萌讨论的事情",
        "audio_url": "https://v6-vvecloud.yangyi08.com/7770071df0f57046673c34a013fcfcf9/6724c6ba/video/tos/cn/tos-cn-v-2cd6b0/oQwL9ECaEwjaAFATuePOkEXeOKAueGm7SAIAFB/?a=7073&ch=0&cr=0&dr=0&&br=0&bt=0&ft=xztlUQhhe6BMyqrvUupJD12Nzj&mime_type=audio_mpeg&rc=QGlAYSNz&btag=c0000000008000&dy_q=1730459818&l=20241101191648DA8FF3F1E46E008174CE&format=mp3",
        "source_timerange": {
            "start_offset": 0,
            "end_offset": 3.1299999999999955
        },
        "target_timerange": {
            "start_offset": 110.59,
            "end_offset": 113.72
        },
        "ignore_audio": false,
        "audio_path": null
    },
    {
        "segment_id": "cf5d0e26984211ef804008c0eb61ad5e",
        "text": "我开车赶到创业就业中心",
        "audio_url": "https://v26-vvecloud.yangyi08.com/f2ec9875ccb721706d63839ae0f5afb1/6724c6ba/video/tos/cn/tos-cn-v-2cd6b0/ooskRLDdnENAiAAeuBJFgAiEEIDAamCcpgfwKK/?a=7073&ch=0&cr=0&dr=0&&br=0&bt=0&ft=xztlUQhhe6BMyqrvUupJD12Nzj&mime_type=audio_mpeg&rc=QGlAYSNz&btag=c0000000008000&dy_q=1730459818&l=20241101191648DA8FF3F1E46E008174CE&format=mp3",
        "source_timerange": {
            "start_offset": 0,
            "end_offset": 2.6299999999999955
        },
        "target_timerange": {
            "start_offset": 113.72,
            "end_offset": 116.35
        },
        "ignore_audio": false,
        "audio_path": null
    },
    {
        "segment_id": "cf5d10f6984211ef804008c0eb61ad5e",
        "text": "虽然已经成立了几家公司 但面对日益繁忙的事务",
        "audio_url": "https://v3-vvecloud.yangyi08.com/b875eb49cb503e95b979679e4d2551cc/6724c6ba/video/tos/cn/tos-cn-v-2cd6b0/okAgxKBniA4UkukLAIMGBAoRH17EEmAfQzlBqi/?a=7073&ch=0&cr=0&dr=0&&br=0&bt=0&ft=xztlUQhhe6BMyqrvUupJD12Nzj&mime_type=audio_mpeg&rc=QGlAYSNz&btag=c0000000008000&dy_q=1730459818&l=20241101191648DA8FF3F1E46E008174CE&format=mp3",
        "source_timerange": {
            "start_offset": 0,
            "end_offset": 4.25
        },
        "target_timerange": {
            "start_offset": 116.35,
            "end_offset": 120.6
        },
        "ignore_audio": false,
        "audio_path": null
    },
    {
        "segment_id": "cf5d54da984211ef804008c0eb61ad5e",
        "text": "我需要一个可靠的人来管理",
        "audio_url": "https://v3-vvecloud.yangyi08.com/e3b372c33740b32d1fb9f121030bcb05/6724c6ba/video/tos/cn/tos-cn-v-2cd6b0/oAlAAsUfAkxzigB7ExKTIupBQicRmnAq1CkWEA/?a=7073&ch=0&cr=0&dr=0&&br=0&bt=0&ft=xztlUQhhe6BMyqrvUupJD12Nzj&mime_type=audio_mpeg&rc=QGlAYSNz&btag=c0000000008000&dy_q=1730459818&l=20241101191648DA8FF3F1E46E008174CE&format=mp3",
        "source_timerange": {
            "start_offset": 0,
            "end_offset": 2.410000000000011
        },
        "target_timerange": {
            "start_offset": 120.6,
            "end_offset": 123.01
        },
        "ignore_audio": false,
        "audio_path": null
    },
    {
        "segment_id": "cf5d57f0984211ef804008c0eb61ad5e",
        "text": "孙小萌在财务方面的能力让我看到了希望",
        "audio_url": "https://v9-vvecloud.yangyi08.com/797bca8180977482b5909a7a59404671/6724c6ba/video/tos/cn/tos-cn-v-2cd6b0/oYFIRAkiImCfixAOuQAlkEAkEBFzG1BSpUKgiA/?a=7073&ch=0&cr=0&dr=0&&br=0&bt=0&ft=xztlUQhhe6BMyqrvUupJD12Nzj&mime_type=audio_mpeg&rc=QGlAYSNz&btag=c0000000008000&dy_q=1730459818&l=20241101191648DA8FF3F1E46E008174CE&format=mp3",
        "source_timerange": {
            "start_offset": 0,
            "end_offset": 3.559999999999988
        },
        "target_timerange": {
            "start_offset": 123.01,
            "end_offset": 126.57
        },
        "ignore_audio": false,
        "audio_path": null
    },
    {
        "segment_id": "cf5d5ac0984211ef804008c0eb61ad5e",
        "text": "见到孙小萌时",
        "audio_url": "https://v9-vvecloud.yangyi08.com/d0a4dbb9ffdd055da2fc60060aa1d9fc/6724c6ba/video/tos/cn/tos-cn-v-2cd6b0/ooAbulnYBEAKEkwxBMiAmRIUHAfIzAgEiqQkRk/?a=7073&ch=0&cr=0&dr=0&&br=0&bt=0&ft=xztlUQhhe6BMyqrvUupJD12Nzj&mime_type=audio_mpeg&rc=QGlAYSNz&btag=c0000000008000&dy_q=1730459818&l=20241101191648DA8FF3F1E46E008174CE&format=mp3",
        "source_timerange": {
            "start_offset": 0,
            "end_offset": 2.0500000000000114
        },
        "target_timerange": {
            "start_offset": 126.57,
            "end_offset": 128.62
        },
        "ignore_audio": false,
        "audio_path": null
    },
    {
        "segment_id": "cf5d5d86984211ef804008c0eb61ad5e",
        "text": "她的脸红让我感受到了一种不同寻常的情愫",
        "audio_url": "https://v9-vvecloud.yangyi08.com/bdf6a10a15e4b7a1842a3bc8baac99e8/6724c6ba/video/tos/cn/tos-cn-v-2cd6b0/oYiJDfkpiESNEKuvfAngFBLkEHRLCAIyAAnAad/?a=7073&ch=0&cr=0&dr=0&&br=0&bt=0&ft=xztlUQhhe6BMyqrvUupJD12Nzj&mime_type=audio_mpeg&rc=QGlAYSNz&btag=c0000000008000&dy_q=1730459818&l=20241101191648DA8FF3F1E46E008174CE&format=mp3",
        "source_timerange": {
            "start_offset": 0,
            "end_offset": 3.6699999999999875
        },
        "target_timerange": {
            "start_offset": 128.62,
            "end_offset": 132.29
        },
        "ignore_audio": false,
        "audio_path": null
    },
    {
        "segment_id": "cf5d601a984211ef804008c0eb61ad5e",
        "text": "她对我说的话让我感到一阵温暖",
        "audio_url": "https://v26-vvecloud.yangyi08.com/246f2a700fdfc57c1bc4809a0e909ae4/6724c6ba/video/tos/cn/tos-cn-v-2cd6b0/o48nkDiYACAeARkKgEFgJuNDpfbRCKLEAiBAkE/?a=7073&ch=0&cr=0&dr=0&&br=0&bt=0&ft=xztlUQhhe6BMyqrvUupJD12Nzj&mime_type=audio_mpeg&rc=QGlAYSNz&btag=c0000000008000&dy_q=1730459818&l=20241101191648DA8FF3F1E46E008174CE&format=mp3",
        "source_timerange": {
            "start_offset": 0,
            "end_offset": 2.8100000000000023
        },
        "target_timerange": {
            "start_offset": 132.29,
            "end_offset": 135.1
        },
        "ignore_audio": false,
        "audio_path": null
    },
    {
        "segment_id": "cf5d62c2984211ef804008c0eb61ad5e",
        "text": "似乎我们的关系在此刻有了一丝微妙的变化",
        "audio_url": "https://v3-vvecloud.yangyi08.com/9c482d0b53b30723cedbd53a55ffc341/6724c6ba/video/tos/cn/tos-cn-v-2cd6b0/oIguAzlAVbxiRoiIMPEAqnBmpuQfYUykAAkEKB/?a=7073&ch=0&cr=0&dr=0&&br=0&bt=0&ft=xztlUQhhe6BMyqrvUupJD12Nzj&mime_type=audio_mpeg&rc=QGlAYSNz&btag=c0000000008000&dy_q=1730459818&l=20241101191648DA8FF3F1E46E008174CE&format=mp3",
        "source_timerange": {
            "start_offset": 0,
            "end_offset": 3.640000000000015
        },
        "target_timerange": {
            "start_offset": 135.1,
            "end_offset": 138.74
        },
        "ignore_audio": false,
        "audio_path": null
    },
    {
        "segment_id": "cf5d6560984211ef804008c0eb61ad5e",
        "text": "“学姐 我想请你统管我的财务 ”我直言不讳",
        "audio_url": "https://v3-vvecloud.yangyi08.com/6ae0aaae11ba453d7a18e348d743902f/6724c6ba/video/tos/cn/tos-cn-v-2cd6b0/oYKRpflkGQmIB2AEAJ6iBUAmugkiE5bzzBxIAA/?a=7073&ch=0&cr=0&dr=0&&br=0&bt=0&ft=xztlUQhhe6BMyqrvUupJD12Nzj&mime_type=audio_mpeg&rc=QGlAYSNz&btag=c0000000008000&dy_q=1730459818&l=20241101191648DA8FF3F1E46E008174CE&format=mp3",
        "source_timerange": {
            "start_offset": 0,
            "end_offset": 4.030000000000001
        },
        "target_timerange": {
            "start_offset": 138.74,
            "end_offset": 142.77
        },
        "ignore_audio": false,
        "audio_path": null
    },
    {
        "segment_id": "cf5d67fe984211ef804008c0eb61ad5e",
        "text": "毕竟我需要她的帮助来理顺这复杂的账目",
        "audio_url": "https://v9-vvecloud.yangyi08.com/377878cd3b88282b465db958e1a1ee21/6724c6ba/video/tos/cn/tos-cn-v-2cd6b0/osAA5liEEgQzUwkf6uimkuArsKxo3RBTBAlIAy/?a=7073&ch=0&cr=0&dr=0&&br=0&bt=0&ft=xztlUQhhe6BMyqrvUupJD12Nzj&mime_type=audio_mpeg&rc=QGlAYSNz&btag=c0000000008000&dy_q=1730459818&l=20241101191648DA8FF3F1E46E008174CE&format=mp3",
        "source_timerange": {
            "start_offset": 0,
            "end_offset": 3.4199999999999875
        },
        "target_timerange": {
            "start_offset": 142.77,
            "end_offset": 146.19
        },
        "ignore_audio": false,
        "audio_path": null
    },
    {
        "segment_id": "cf5d6b64984211ef804008c0eb61ad5e",
        "text": "孙小萌的答应让我感到松了一口气",
        "audio_url": "https://v6-vvecloud.yangyi08.com/a319f974cf34d0d20dbfc8fd6b2b259a/6724c6ba/video/tos/cn/tos-cn-v-2cd6b0/oQnANTkrpBuELCFRiAfEIKlAAJiWgCfAdiuDEp/?a=7073&ch=0&cr=0&dr=0&&br=0&bt=0&ft=xztlUQhhe6BMyqrvUupJD12Nzj&mime_type=audio_mpeg&rc=QGlAYSNz&btag=c0000000008000&dy_q=1730459818&l=20241101191648DA8FF3F1E46E008174CE&format=mp3",
        "source_timerange": {
            "start_offset": 0,
            "end_offset": 2.990000000000009
        },
        "target_timerange": {
            "start_offset": 146.19,
            "end_offset": 149.18
        },
        "ignore_audio": false,
        "audio_path": null
    },
    {
        "segment_id": "cf5d6e16984211ef804008c0eb61ad5e",
        "text": "她的能力与我的信任交织在一起",
        "audio_url": "https://v6-vvecloud.yangyi08.com/5ee2664aa5295d9a3d56b76030c619b2/6724c6ba/video/tos/cn/tos-cn-v-2cd6b0/oQAAamiEEgQzUVkfhuimkDAqEKxyjRBZBAlIA4/?a=7073&ch=0&cr=0&dr=0&&br=0&bt=0&ft=xztlUQhhe6BMyqrvUupJD12Nzj&mime_type=audio_mpeg&rc=QGlAYSNz&btag=c0000000008000&dy_q=1730459818&l=20241101191648DA8FF3F1E46E008174CE&format=mp3",
        "source_timerange": {
            "start_offset": 0,
            "end_offset": 2.9899999999999807
        },
        "target_timerange": {
            "start_offset": 149.18,
            "end_offset": 152.17
        },
        "ignore_audio": false,
        "audio_path": null
    },
    {
        "segment_id": "cf5d70aa984211ef804008c0eb61ad5e",
        "text": "让我对未来的计划充满期待",
        "audio_url": "https://v3-vvecloud.yangyi08.com/67a01c232bd880dc32809c64cc56f3b1/6724c6ba/video/tos/cn/tos-cn-v-2cd6b0/owui9ANDnBufaR2FEAALGCEQiAJkfJlgIREKAp/?a=7073&ch=0&cr=0&dr=0&&br=0&bt=0&ft=xztlUQhhe6BMyqrvUupJD12Nzj&mime_type=audio_mpeg&rc=QGlAYSNz&btag=c0000000008000&dy_q=1730459818&l=20241101191648DA8FF3F1E46E008174CE&format=mp3",
        "source_timerange": {
            "start_offset": 0,
            "end_offset": 2.7700000000000102
        },
        "target_timerange": {
            "start_offset": 152.17,
            "end_offset": 154.94
        },
        "ignore_audio": false,
        "audio_path": null
    },
    {
        "segment_id": "cf5d735c984211ef804008c0eb61ad5e",
        "text": "然而 当我提到自己有那么多公司的时候",
        "audio_url": "https://v3-vvecloud.yangyi08.com/119e7d6f1f05d6acaf9284d6be738582/6724c6ba/video/tos/cn/tos-cn-v-2cd6b0/o4ixKAIzkBMFg8UAi3PlAIuAmlkfEtLARROQEB/?a=7073&ch=0&cr=0&dr=0&&br=0&bt=0&ft=xztlUQhhe6BMyqrvUupJD12Nzj&mime_type=audio_mpeg&rc=QGlAYSNz&btag=c0000000008000&dy_q=1730459818&l=20241101191648DA8FF3F1E46E008174CE&format=mp3",
        "source_timerange": {
            "start_offset": 0,
            "end_offset": 3.780000000000001
        },
        "target_timerange": {
            "start_offset": 154.94,
            "end_offset": 158.72
        },
        "ignore_audio": false,
        "audio_path": null
    },
    {
        "segment_id": "cf5d760e984211ef804008c0eb61ad5e",
        "text": "她的反应让我意识到 我需要更好地处理这份关系",
        "audio_url": "https://v6-vvecloud.yangyi08.com/c2c419553dc2f12ded99579213502ffb/6724c6ba/video/tos/cn/tos-cn-v-2cd6b0/ogjkHmQEiUBBkmmil6A5Azux7ArgIRAAE5Kmfx/?a=7073&ch=0&cr=0&dr=0&&br=0&bt=0&ft=xztlUQhhe6BMyqrvUupJD12Nzj&mime_type=audio_mpeg&rc=QGlAYSNz&btag=c0000000008000&dy_q=1730459818&l=20241101191648DA8FF3F1E46E008174CE&format=mp3",
        "source_timerange": {
            "start_offset": 0,
            "end_offset": 4.140000000000015
        },
        "target_timerange": {
            "start_offset": 158.72,
            "end_offset": 162.86
        },
        "ignore_audio": false,
        "audio_path": null
    },
    {
        "segment_id": "cf5d7898984211ef804008c0eb61ad5e",
        "text": "让她知道我并不是一个随便的人",
        "audio_url": "https://v9-vvecloud.yangyi08.com/87508a283f40522d1603d1728770bd95/6724c6ba/video/tos/cn/tos-cn-v-2cd6b0/oUQAIilnzgAmukU0BBAJAE5kiAxEmEfIKR6Fk6/?a=7073&ch=0&cr=0&dr=0&&br=0&bt=0&ft=xztlUQhhe6BMyqrvUupJD12Nzj&mime_type=audio_mpeg&rc=QGlAYSNz&btag=c0000000008000&dy_q=1730459818&l=20241101191648DA8FF3F1E46E008174CE&format=mp3",
        "source_timerange": {
            "start_offset": 0,
            "end_offset": 2.7399999999999807
        },
        "target_timerange": {
            "start_offset": 162.86,
            "end_offset": 165.6
        },
        "ignore_audio": false,
        "audio_path": null
    },
    {
        "segment_id": "cf5d7b40984211ef804008c0eb61ad5e",
        "text": "我的未来 需要她的支持与理解",
        "audio_url": "https://v26-vvecloud.yangyi08.com/561d478d2872e48d2fd8503aeed751ce/6724c6ba/video/tos/cn/tos-cn-v-2cd6b0/osBgCuBJSFAA1iLAEnEDmKf7EAlQgifYANkpJR/?a=7073&ch=0&cr=0&dr=0&&br=0&bt=0&ft=xztlUQhhe6BMyqrvUupJD12Nzj&mime_type=audio_mpeg&rc=QGlAYSNz&btag=c0000000008000&dy_q=1730459818&l=20241101191648DA8FF3F1E46E008174CE&format=mp3",
        "source_timerange": {
            "start_offset": 0,
            "end_offset": 3.280000000000001
        },
        "target_timerange": {
            "start_offset": 165.6,
            "end_offset": 168.88
        },
        "ignore_audio": false,
        "audio_path": null
    }
]