[
    {
        "segment_id": "7f409602b2bd11ef98c9b8cef650d1f4",
        "text": "  It is a truth",
        "audio_url": "https://v16m-default.akamaized.net/c732385f99c997c6c2a558ddf2cfae8e/675179c6/video/tos/maliva/tos-maliva-v-f15faa-us/oMPVEJhLgDLWJGACASFvBVnABheQjBsUEJf2RE/?a=7073&bti=OTU0QDItLmA%3D&ch=0&cr=0&dr=4&er=0&lr=unwatermarked&cd=0%7C0%7C0%7C0&br=312&bt=156&ds=5&ft=.cwOVInz7ThR4yIOXq8Zmo&qs=13&rc=ajZtcnE5cnJsdzUzNzhoM0BpajZtcnE5cnJsdzUzNzhoM0BkcWxmMmQ0XjVgLS1kLjZzYSNkcWxmMmQ0XjVgLS1kLjZzcw%3D%3D&vvpl=1&l=02173337122257200000000000000000000ffff0a00803a2671ba&btag=e00070000&format=mp3&mime_type=audio_mpeg",
        "source_timerange": {
            "start_offset": 0,
            "end_offset": 1.3872
        },
        "target_timerange": {
            "start_offset": 0,
            "end_offset": 1.3872
        },
        "ignore_audio": false,
        "audio_path": null
    },
    {
        "segment_id": "7f40983cb2bd11ef98c9b8cef650d1f4",
        "text": "universally acknowledged,",
        "audio_url": "https://v16m-default.akamaized.net/c732385f99c997c6c2a558ddf2cfae8e/675179c6/video/tos/maliva/tos-maliva-v-f15faa-us/oMPVEJhLgDLWJGACASFvBVnABheQjBsUEJf2RE/?a=7073&bti=OTU0QDItLmA%3D&ch=0&cr=0&dr=4&er=0&lr=unwatermarked&cd=0%7C0%7C0%7C0&br=312&bt=156&ds=5&ft=.cwOVInz7ThR4yIOXq8Zmo&qs=13&rc=ajZtcnE5cnJsdzUzNzhoM0BpajZtcnE5cnJsdzUzNzhoM0BkcWxmMmQ0XjVgLS1kLjZzYSNkcWxmMmQ0XjVgLS1kLjZzcw%3D%3D&vvpl=1&l=02173337122257200000000000000000000ffff0a00803a2671ba&btag=e00070000&format=mp3&mime_type=audio_mpeg",
        "source_timerange": {
            "start_offset": 1.3872,
            "end_offset": 2.7744
        },
        "target_timerange": {
            "start_offset": 1.3872,
            "end_offset": 2.7744
        },
        "ignore_audio": true,
        "audio_path": null
    },
    {
        "segment_id": "7f4099aeb2bd11ef98c9b8cef650d1f4",
        "text": "that a single man in",
        "audio_url": "https://v16m-default.akamaized.net/c732385f99c997c6c2a558ddf2cfae8e/675179c6/video/tos/maliva/tos-maliva-v-f15faa-us/oMPVEJhLgDLWJGACASFvBVnABheQjBsUEJf2RE/?a=7073&bti=OTU0QDItLmA%3D&ch=0&cr=0&dr=4&er=0&lr=unwatermarked&cd=0%7C0%7C0%7C0&br=312&bt=156&ds=5&ft=.cwOVInz7ThR4yIOXq8Zmo&qs=13&rc=ajZtcnE5cnJsdzUzNzhoM0BpajZtcnE5cnJsdzUzNzhoM0BkcWxmMmQ0XjVgLS1kLjZzYSNkcWxmMmQ0XjVgLS1kLjZzcw%3D%3D&vvpl=1&l=02173337122257200000000000000000000ffff0a00803a2671ba&btag=e00070000&format=mp3&mime_type=audio_mpeg",
        "source_timerange": {
            "start_offset": 2.7744,
            "end_offset": 4.1616
        },
        "target_timerange": {
            "start_offset": 2.7744,
            "end_offset": 4.1616
        },
        "ignore_audio": true,
        "audio_path": null
    },
    {
        "segment_id": "7f409aeeb2bd11ef98c9b8cef650d1f4",
        "text": "possession of a good",
        "audio_url": "https://v16m-default.akamaized.net/c732385f99c997c6c2a558ddf2cfae8e/675179c6/video/tos/maliva/tos-maliva-v-f15faa-us/oMPVEJhLgDLWJGACASFvBVnABheQjBsUEJf2RE/?a=7073&bti=OTU0QDItLmA%3D&ch=0&cr=0&dr=4&er=0&lr=unwatermarked&cd=0%7C0%7C0%7C0&br=312&bt=156&ds=5&ft=.cwOVInz7ThR4yIOXq8Zmo&qs=13&rc=ajZtcnE5cnJsdzUzNzhoM0BpajZtcnE5cnJsdzUzNzhoM0BkcWxmMmQ0XjVgLS1kLjZzYSNkcWxmMmQ0XjVgLS1kLjZzcw%3D%3D&vvpl=1&l=02173337122257200000000000000000000ffff0a00803a2671ba&btag=e00070000&format=mp3&mime_type=audio_mpeg",
        "source_timerange": {
            "start_offset": 4.1616,
            "end_offset": 5.5488
        },
        "target_timerange": {
            "start_offset": 4.1616,
            "end_offset": 5.5488
        },
        "ignore_audio": true,
        "audio_path": null
    },
    {
        "segment_id": "7f409c24b2bd11ef98c9b8cef650d1f4",
        "text": "fortune must be in want of a wife.",
        "audio_url": "https://v16m-default.akamaized.net/c732385f99c997c6c2a558ddf2cfae8e/675179c6/video/tos/maliva/tos-maliva-v-f15faa-us/oMPVEJhLgDLWJGACASFvBVnABheQjBsUEJf2RE/?a=7073&bti=OTU0QDItLmA%3D&ch=0&cr=0&dr=4&er=0&lr=unwatermarked&cd=0%7C0%7C0%7C0&br=312&bt=156&ds=5&ft=.cwOVInz7ThR4yIOXq8Zmo&qs=13&rc=ajZtcnE5cnJsdzUzNzhoM0BpajZtcnE5cnJsdzUzNzhoM0BkcWxmMmQ0XjVgLS1kLjZzYSNkcWxmMmQ0XjVgLS1kLjZzcw%3D%3D&vvpl=1&l=02173337122257200000000000000000000ffff0a00803a2671ba&btag=e00070000&format=mp3&mime_type=audio_mpeg",
        "source_timerange": {
            "start_offset": 5.5488,
            "end_offset": 6.936
        },
        "target_timerange": {
            "start_offset": 5.5488,
            "end_offset": 6.936
        },
        "ignore_audio": true,
        "audio_path": null
    },
    {
        "segment_id": "7f40cd5cb2bd11ef98c9b8cef650d1f4",
        "text": "However little known the",
        "audio_url": "https://v16m-default.akamaized.net/66fa615187adcf300fd94f2a17e5c285/675179ce/video/tos/maliva/tos-maliva-v-f15faa-us/oYWEDiPRZBYUtJmEEQYSA2VQA4Az1Rz5JlCiB/?a=7073&bti=OTU0QDItLmA%3D&ch=0&cr=0&dr=4&er=0&lr=unwatermarked&cd=0%7C0%7C0%7C0&br=312&bt=156&ds=5&ft=.cwOVInz7ThO4yIOXq8Zmo&qs=13&rc=M21wcG05cnJsdzUzNzhoM0BpM21wcG05cnJsdzUzNzhoM0A1YTJwMmQ0XjVgLS1kLjZzYSM1YTJwMmQ0XjVgLS1kLjZzcw%3D%3D&vvpl=1&l=02173337122257200000000000000000000ffff0a00803a2671ba&btag=e00070000&format=mp3&mime_type=audio_mpeg",
        "source_timerange": {
            "start_offset": 0,
            "end_offset": 1.5039999999999978
        },
        "target_timerange": {
            "start_offset": 6.936,
            "end_offset": 8.44
        },
        "ignore_audio": false,
        "audio_path": null
    },
    {
        "segment_id": "7f40cebab2bd11ef98c9b8cef650d1f4",
        "text": "feelings or views of such a man",
        "audio_url": "https://v16m-default.akamaized.net/66fa615187adcf300fd94f2a17e5c285/675179ce/video/tos/maliva/tos-maliva-v-f15faa-us/oYWEDiPRZBYUtJmEEQYSA2VQA4Az1Rz5JlCiB/?a=7073&bti=OTU0QDItLmA%3D&ch=0&cr=0&dr=4&er=0&lr=unwatermarked&cd=0%7C0%7C0%7C0&br=312&bt=156&ds=5&ft=.cwOVInz7ThO4yIOXq8Zmo&qs=13&rc=M21wcG05cnJsdzUzNzhoM0BpM21wcG05cnJsdzUzNzhoM0A1YTJwMmQ0XjVgLS1kLjZzYSM1YTJwMmQ0XjVgLS1kLjZzcw%3D%3D&vvpl=1&l=02173337122257200000000000000000000ffff0a00803a2671ba&btag=e00070000&format=mp3&mime_type=audio_mpeg",
        "source_timerange": {
            "start_offset": 1.5039999999999996,
            "end_offset": 3.0079999999999973
        },
        "target_timerange": {
            "start_offset": 8.44,
            "end_offset": 9.943999999999999
        },
        "ignore_audio": true,
        "audio_path": null
    },
    {
        "segment_id": "7f40d004b2bd11ef98c9b8cef650d1f4",
        "text": "may be on his first entering a",
        "audio_url": "https://v16m-default.akamaized.net/66fa615187adcf300fd94f2a17e5c285/675179ce/video/tos/maliva/tos-maliva-v-f15faa-us/oYWEDiPRZBYUtJmEEQYSA2VQA4Az1Rz5JlCiB/?a=7073&bti=OTU0QDItLmA%3D&ch=0&cr=0&dr=4&er=0&lr=unwatermarked&cd=0%7C0%7C0%7C0&br=312&bt=156&ds=5&ft=.cwOVInz7ThO4yIOXq8Zmo&qs=13&rc=M21wcG05cnJsdzUzNzhoM0BpM21wcG05cnJsdzUzNzhoM0A1YTJwMmQ0XjVgLS1kLjZzYSM1YTJwMmQ0XjVgLS1kLjZzcw%3D%3D&vvpl=1&l=02173337122257200000000000000000000ffff0a00803a2671ba&btag=e00070000&format=mp3&mime_type=audio_mpeg",
        "source_timerange": {
            "start_offset": 3.008000000000001,
            "end_offset": 4.511999999999999
        },
        "target_timerange": {
            "start_offset": 9.944,
            "end_offset": 11.448
        },
        "ignore_audio": true,
        "audio_path": null
    },
    {
        "segment_id": "7f40d14eb2bd11ef98c9b8cef650d1f4",
        "text": "neighbourhood, this truth is so",
        "audio_url": "https://v16m-default.akamaized.net/66fa615187adcf300fd94f2a17e5c285/675179ce/video/tos/maliva/tos-maliva-v-f15faa-us/oYWEDiPRZBYUtJmEEQYSA2VQA4Az1Rz5JlCiB/?a=7073&bti=OTU0QDItLmA%3D&ch=0&cr=0&dr=4&er=0&lr=unwatermarked&cd=0%7C0%7C0%7C0&br=312&bt=156&ds=5&ft=.cwOVInz7ThO4yIOXq8Zmo&qs=13&rc=M21wcG05cnJsdzUzNzhoM0BpM21wcG05cnJsdzUzNzhoM0A1YTJwMmQ0XjVgLS1kLjZzYSM1YTJwMmQ0XjVgLS1kLjZzcw%3D%3D&vvpl=1&l=02173337122257200000000000000000000ffff0a00803a2671ba&btag=e00070000&format=mp3&mime_type=audio_mpeg",
        "source_timerange": {
            "start_offset": 4.5120000000000005,
            "end_offset": 6.015999999999998
        },
        "target_timerange": {
            "start_offset": 11.448,
            "end_offset": 12.952
        },
        "ignore_audio": true,
        "audio_path": null
    },
    {
        "segment_id": "7f40d252b2bd11ef98c9b8cef650d1f4",
        "text": "well fixed in the minds of the",
        "audio_url": "https://v16m-default.akamaized.net/66fa615187adcf300fd94f2a17e5c285/675179ce/video/tos/maliva/tos-maliva-v-f15faa-us/oYWEDiPRZBYUtJmEEQYSA2VQA4Az1Rz5JlCiB/?a=7073&bti=OTU0QDItLmA%3D&ch=0&cr=0&dr=4&er=0&lr=unwatermarked&cd=0%7C0%7C0%7C0&br=312&bt=156&ds=5&ft=.cwOVInz7ThO4yIOXq8Zmo&qs=13&rc=M21wcG05cnJsdzUzNzhoM0BpM21wcG05cnJsdzUzNzhoM0A1YTJwMmQ0XjVgLS1kLjZzYSM1YTJwMmQ0XjVgLS1kLjZzcw%3D%3D&vvpl=1&l=02173337122257200000000000000000000ffff0a00803a2671ba&btag=e00070000&format=mp3&mime_type=audio_mpeg",
        "source_timerange": {
            "start_offset": 6.016000000000002,
            "end_offset": 7.519999999999998
        },
        "target_timerange": {
            "start_offset": 12.952000000000002,
            "end_offset": 14.456
        },
        "ignore_audio": true,
        "audio_path": null
    },
    {
        "segment_id": "7f40d338b2bd11ef98c9b8cef650d1f4",
        "text": "surrounding families, that he",
        "audio_url": "https://v16m-default.akamaized.net/66fa615187adcf300fd94f2a17e5c285/675179ce/video/tos/maliva/tos-maliva-v-f15faa-us/oYWEDiPRZBYUtJmEEQYSA2VQA4Az1Rz5JlCiB/?a=7073&bti=OTU0QDItLmA%3D&ch=0&cr=0&dr=4&er=0&lr=unwatermarked&cd=0%7C0%7C0%7C0&br=312&bt=156&ds=5&ft=.cwOVInz7ThO4yIOXq8Zmo&qs=13&rc=M21wcG05cnJsdzUzNzhoM0BpM21wcG05cnJsdzUzNzhoM0A1YTJwMmQ0XjVgLS1kLjZzYSM1YTJwMmQ0XjVgLS1kLjZzcw%3D%3D&vvpl=1&l=02173337122257200000000000000000000ffff0a00803a2671ba&btag=e00070000&format=mp3&mime_type=audio_mpeg",
        "source_timerange": {
            "start_offset": 7.520000000000001,
            "end_offset": 9.024
        },
        "target_timerange": {
            "start_offset": 14.456000000000001,
            "end_offset": 15.96
        },
        "ignore_audio": true,
        "audio_path": null
    },
    {
        "segment_id": "7f40d41eb2bd11ef98c9b8cef650d1f4",
        "text": "is considered as the rightful",
        "audio_url": "https://v16m-default.akamaized.net/66fa615187adcf300fd94f2a17e5c285/675179ce/video/tos/maliva/tos-maliva-v-f15faa-us/oYWEDiPRZBYUtJmEEQYSA2VQA4Az1Rz5JlCiB/?a=7073&bti=OTU0QDItLmA%3D&ch=0&cr=0&dr=4&er=0&lr=unwatermarked&cd=0%7C0%7C0%7C0&br=312&bt=156&ds=5&ft=.cwOVInz7ThO4yIOXq8Zmo&qs=13&rc=M21wcG05cnJsdzUzNzhoM0BpM21wcG05cnJsdzUzNzhoM0A1YTJwMmQ0XjVgLS1kLjZzYSM1YTJwMmQ0XjVgLS1kLjZzcw%3D%3D&vvpl=1&l=02173337122257200000000000000000000ffff0a00803a2671ba&btag=e00070000&format=mp3&mime_type=audio_mpeg",
        "source_timerange": {
            "start_offset": 9.024000000000001,
            "end_offset": 10.528
        },
        "target_timerange": {
            "start_offset": 15.96,
            "end_offset": 17.464000000000002
        },
        "ignore_audio": true,
        "audio_path": null
    },
    {
        "segment_id": "7f40d4fab2bd11ef98c9b8cef650d1f4",
        "text": "property of some one or other",
        "audio_url": "https://v16m-default.akamaized.net/66fa615187adcf300fd94f2a17e5c285/675179ce/video/tos/maliva/tos-maliva-v-f15faa-us/oYWEDiPRZBYUtJmEEQYSA2VQA4Az1Rz5JlCiB/?a=7073&bti=OTU0QDItLmA%3D&ch=0&cr=0&dr=4&er=0&lr=unwatermarked&cd=0%7C0%7C0%7C0&br=312&bt=156&ds=5&ft=.cwOVInz7ThO4yIOXq8Zmo&qs=13&rc=M21wcG05cnJsdzUzNzhoM0BpM21wcG05cnJsdzUzNzhoM0A1YTJwMmQ0XjVgLS1kLjZzYSM1YTJwMmQ0XjVgLS1kLjZzcw%3D%3D&vvpl=1&l=02173337122257200000000000000000000ffff0a00803a2671ba&btag=e00070000&format=mp3&mime_type=audio_mpeg",
        "source_timerange": {
            "start_offset": 10.528000000000002,
            "end_offset": 12.031999999999998
        },
        "target_timerange": {
            "start_offset": 17.464000000000002,
            "end_offset": 18.968
        },
        "ignore_audio": true,
        "audio_path": null
    },
    {
        "segment_id": "7f40d5e0b2bd11ef98c9b8cef650d1f4",
        "text": "of their daughters.",
        "audio_url": "https://v16m-default.akamaized.net/66fa615187adcf300fd94f2a17e5c285/675179ce/video/tos/maliva/tos-maliva-v-f15faa-us/oYWEDiPRZBYUtJmEEQYSA2VQA4Az1Rz5JlCiB/?a=7073&bti=OTU0QDItLmA%3D&ch=0&cr=0&dr=4&er=0&lr=unwatermarked&cd=0%7C0%7C0%7C0&br=312&bt=156&ds=5&ft=.cwOVInz7ThO4yIOXq8Zmo&qs=13&rc=M21wcG05cnJsdzUzNzhoM0BpM21wcG05cnJsdzUzNzhoM0A1YTJwMmQ0XjVgLS1kLjZzYSM1YTJwMmQ0XjVgLS1kLjZzcw%3D%3D&vvpl=1&l=02173337122257200000000000000000000ffff0a00803a2671ba&btag=e00070000&format=mp3&mime_type=audio_mpeg",
        "source_timerange": {
            "start_offset": 12.032000000000004,
            "end_offset": 13.536
        },
        "target_timerange": {
            "start_offset": 18.968000000000004,
            "end_offset": 20.472
        },
        "ignore_audio": true,
        "audio_path": null
    },
    {
        "segment_id": "7f40f53eb2bd11ef98c9b8cef650d1f4",
        "text": "“My dear Mr. Bennet,” said",
        "audio_url": "https://v16m-default.akamaized.net/5e04b143360504cf96b808a5f42f6e81/675179c8/video/tos/maliva/tos-maliva-v-f15faa-us/ogCQIRJgLaVhShJnVGeBBk1AWEEsEAFRABAUfD/?a=7073&bti=OTU0QDItLmA%3D&ch=0&cr=0&dr=4&er=0&lr=unwatermarked&cd=0%7C0%7C0%7C0&br=312&bt=156&ds=5&ft=.cwOVInz7ThR4yIOXq8Zmo&qs=13&rc=Mztla2o5cnJsdzUzNzhoM0BpMztla2o5cnJsdzUzNzhoM0BzMTBqMmQ0XjVgLS1kLjZzYSNzMTBqMmQ0XjVgLS1kLjZzcw%3D%3D&vvpl=1&l=02173337122257200000000000000000000ffff0a00803a2671ba&btag=e00070000&format=mp3&mime_type=audio_mpeg",
        "source_timerange": {
            "start_offset": 0,
            "end_offset": 1.468
        },
        "target_timerange": {
            "start_offset": 20.472,
            "end_offset": 21.94
        },
        "ignore_audio": false,
        "audio_path": null
    },
    {
        "segment_id": "7f40f6a6b2bd11ef98c9b8cef650d1f4",
        "text": "his lady to him one day,",
        "audio_url": "https://v16m-default.akamaized.net/5e04b143360504cf96b808a5f42f6e81/675179c8/video/tos/maliva/tos-maliva-v-f15faa-us/ogCQIRJgLaVhShJnVGeBBk1AWEEsEAFRABAUfD/?a=7073&bti=OTU0QDItLmA%3D&ch=0&cr=0&dr=4&er=0&lr=unwatermarked&cd=0%7C0%7C0%7C0&br=312&bt=156&ds=5&ft=.cwOVInz7ThR4yIOXq8Zmo&qs=13&rc=Mztla2o5cnJsdzUzNzhoM0BpMztla2o5cnJsdzUzNzhoM0BzMTBqMmQ0XjVgLS1kLjZzYSNzMTBqMmQ0XjVgLS1kLjZzcw%3D%3D&vvpl=1&l=02173337122257200000000000000000000ffff0a00803a2671ba&btag=e00070000&format=mp3&mime_type=audio_mpeg",
        "source_timerange": {
            "start_offset": 1.468,
            "end_offset": 2.936
        },
        "target_timerange": {
            "start_offset": 21.94,
            "end_offset": 23.408
        },
        "ignore_audio": true,
        "audio_path": null
    },
    {
        "segment_id": "7f40f7f0b2bd11ef98c9b8cef650d1f4",
        "text": "“have you heard that",
        "audio_url": "https://v16m-default.akamaized.net/5e04b143360504cf96b808a5f42f6e81/675179c8/video/tos/maliva/tos-maliva-v-f15faa-us/ogCQIRJgLaVhShJnVGeBBk1AWEEsEAFRABAUfD/?a=7073&bti=OTU0QDItLmA%3D&ch=0&cr=0&dr=4&er=0&lr=unwatermarked&cd=0%7C0%7C0%7C0&br=312&bt=156&ds=5&ft=.cwOVInz7ThR4yIOXq8Zmo&qs=13&rc=Mztla2o5cnJsdzUzNzhoM0BpMztla2o5cnJsdzUzNzhoM0BzMTBqMmQ0XjVgLS1kLjZzYSNzMTBqMmQ0XjVgLS1kLjZzcw%3D%3D&vvpl=1&l=02173337122257200000000000000000000ffff0a00803a2671ba&btag=e00070000&format=mp3&mime_type=audio_mpeg",
        "source_timerange": {
            "start_offset": 2.936,
            "end_offset": 4.404
        },
        "target_timerange": {
            "start_offset": 23.408,
            "end_offset": 24.876
        },
        "ignore_audio": true,
        "audio_path": null
    },
    {
        "segment_id": "7f40f912b2bd11ef98c9b8cef650d1f4",
        "text": "Netherfield Park is let at",
        "audio_url": "https://v16m-default.akamaized.net/5e04b143360504cf96b808a5f42f6e81/675179c8/video/tos/maliva/tos-maliva-v-f15faa-us/ogCQIRJgLaVhShJnVGeBBk1AWEEsEAFRABAUfD/?a=7073&bti=OTU0QDItLmA%3D&ch=0&cr=0&dr=4&er=0&lr=unwatermarked&cd=0%7C0%7C0%7C0&br=312&bt=156&ds=5&ft=.cwOVInz7ThR4yIOXq8Zmo&qs=13&rc=Mztla2o5cnJsdzUzNzhoM0BpMztla2o5cnJsdzUzNzhoM0BzMTBqMmQ0XjVgLS1kLjZzYSNzMTBqMmQ0XjVgLS1kLjZzcw%3D%3D&vvpl=1&l=02173337122257200000000000000000000ffff0a00803a2671ba&btag=e00070000&format=mp3&mime_type=audio_mpeg",
        "source_timerange": {
            "start_offset": 4.404,
            "end_offset": 5.872
        },
        "target_timerange": {
            "start_offset": 24.876,
            "end_offset": 26.344
        },
        "ignore_audio": true,
        "audio_path": null
    },
    {
        "segment_id": "7f40fa48b2bd11ef98c9b8cef650d1f4",
        "text": "last?”  Mr. Bennet replied",
        "audio_url": "https://v16m-default.akamaized.net/5e04b143360504cf96b808a5f42f6e81/675179c8/video/tos/maliva/tos-maliva-v-f15faa-us/ogCQIRJgLaVhShJnVGeBBk1AWEEsEAFRABAUfD/?a=7073&bti=OTU0QDItLmA%3D&ch=0&cr=0&dr=4&er=0&lr=unwatermarked&cd=0%7C0%7C0%7C0&br=312&bt=156&ds=5&ft=.cwOVInz7ThR4yIOXq8Zmo&qs=13&rc=Mztla2o5cnJsdzUzNzhoM0BpMztla2o5cnJsdzUzNzhoM0BzMTBqMmQ0XjVgLS1kLjZzYSNzMTBqMmQ0XjVgLS1kLjZzcw%3D%3D&vvpl=1&l=02173337122257200000000000000000000ffff0a00803a2671ba&btag=e00070000&format=mp3&mime_type=audio_mpeg",
        "source_timerange": {
            "start_offset": 5.872,
            "end_offset": 7.34
        },
        "target_timerange": {
            "start_offset": 26.344,
            "end_offset": 27.812
        },
        "ignore_audio": true,
        "audio_path": null
    },
    {
        "segment_id": "7f40fb88b2bd11ef98c9b8cef650d1f4",
        "text": "that he had not.",
        "audio_url": "https://v16m-default.akamaized.net/5e04b143360504cf96b808a5f42f6e81/675179c8/video/tos/maliva/tos-maliva-v-f15faa-us/ogCQIRJgLaVhShJnVGeBBk1AWEEsEAFRABAUfD/?a=7073&bti=OTU0QDItLmA%3D&ch=0&cr=0&dr=4&er=0&lr=unwatermarked&cd=0%7C0%7C0%7C0&br=312&bt=156&ds=5&ft=.cwOVInz7ThR4yIOXq8Zmo&qs=13&rc=Mztla2o5cnJsdzUzNzhoM0BpMztla2o5cnJsdzUzNzhoM0BzMTBqMmQ0XjVgLS1kLjZzYSNzMTBqMmQ0XjVgLS1kLjZzcw%3D%3D&vvpl=1&l=02173337122257200000000000000000000ffff0a00803a2671ba&btag=e00070000&format=mp3&mime_type=audio_mpeg",
        "source_timerange": {
            "start_offset": 7.34,
            "end_offset": 8.808
        },
        "target_timerange": {
            "start_offset": 27.812,
            "end_offset": 29.28
        },
        "ignore_audio": true,
        "audio_path": null
    },
    {
        "segment_id": "7f410ee8b2bd11ef98c9b8cef650d1f4",
        "text": "“But it is,” returned she;",
        "audio_url": "https://v16m-default.akamaized.net/5e997706f8007eb9d250cd047c1a4c22/675179c6/video/tos/maliva/tos-maliva-v-f15faa-us/oIAeJSDtDEBWKRqVLSFAJLVgEBf6nABEERQOhU/?a=7073&bti=OTU0QDItLmA%3D&ch=0&cr=0&dr=4&er=0&lr=unwatermarked&cd=0%7C0%7C0%7C0&br=312&bt=156&ds=5&ft=.cwOVInz7ThR4yIOXq8Zmo&qs=13&rc=MzdzPG85cnJsdzUzNzhoM0BpMzdzPG85cnJsdzUzNzhoM0AyMW9fMmQ0XjVgLS1kLjZzYSMyMW9fMmQ0XjVgLS1kLjZzcw%3D%3D&vvpl=1&l=02173337122257200000000000000000000ffff0a00803a2671ba&btag=e00070000&format=mp3&mime_type=audio_mpeg",
        "source_timerange": {
            "start_offset": 0,
            "end_offset": 1.5300000000000038
        },
        "target_timerange": {
            "start_offset": 29.28,
            "end_offset": 30.810000000000002
        },
        "ignore_audio": false,
        "audio_path": null
    },
    {
        "segment_id": "7f411014b2bd11ef98c9b8cef650d1f4",
        "text": "“for Mrs. Long has just",
        "audio_url": "https://v16m-default.akamaized.net/5e997706f8007eb9d250cd047c1a4c22/675179c6/video/tos/maliva/tos-maliva-v-f15faa-us/oIAeJSDtDEBWKRqVLSFAJLVgEBf6nABEERQOhU/?a=7073&bti=OTU0QDItLmA%3D&ch=0&cr=0&dr=4&er=0&lr=unwatermarked&cd=0%7C0%7C0%7C0&br=312&bt=156&ds=5&ft=.cwOVInz7ThR4yIOXq8Zmo&qs=13&rc=MzdzPG85cnJsdzUzNzhoM0BpMzdzPG85cnJsdzUzNzhoM0AyMW9fMmQ0XjVgLS1kLjZzYSMyMW9fMmQ0XjVgLS1kLjZzcw%3D%3D&vvpl=1&l=02173337122257200000000000000000000ffff0a00803a2671ba&btag=e00070000&format=mp3&mime_type=audio_mpeg",
        "source_timerange": {
            "start_offset": 1.5300000000000011,
            "end_offset": 3.060000000000005
        },
        "target_timerange": {
            "start_offset": 30.810000000000002,
            "end_offset": 32.34
        },
        "ignore_audio": true,
        "audio_path": null
    },
    {
        "segment_id": "7f4110fab2bd11ef98c9b8cef650d1f4",
        "text": "been here, and she told me",
        "audio_url": "https://v16m-default.akamaized.net/5e997706f8007eb9d250cd047c1a4c22/675179c6/video/tos/maliva/tos-maliva-v-f15faa-us/oIAeJSDtDEBWKRqVLSFAJLVgEBf6nABEERQOhU/?a=7073&bti=OTU0QDItLmA%3D&ch=0&cr=0&dr=4&er=0&lr=unwatermarked&cd=0%7C0%7C0%7C0&br=312&bt=156&ds=5&ft=.cwOVInz7ThR4yIOXq8Zmo&qs=13&rc=MzdzPG85cnJsdzUzNzhoM0BpMzdzPG85cnJsdzUzNzhoM0AyMW9fMmQ0XjVgLS1kLjZzYSMyMW9fMmQ0XjVgLS1kLjZzcw%3D%3D&vvpl=1&l=02173337122257200000000000000000000ffff0a00803a2671ba&btag=e00070000&format=mp3&mime_type=audio_mpeg",
        "source_timerange": {
            "start_offset": 3.0600000000000023,
            "end_offset": 4.589999999999999
        },
        "target_timerange": {
            "start_offset": 32.34,
            "end_offset": 33.87
        },
        "ignore_audio": true,
        "audio_path": null
    },
    {
        "segment_id": "7f4111e0b2bd11ef98c9b8cef650d1f4",
        "text": "all about it.”",
        "audio_url": "https://v16m-default.akamaized.net/5e997706f8007eb9d250cd047c1a4c22/675179c6/video/tos/maliva/tos-maliva-v-f15faa-us/oIAeJSDtDEBWKRqVLSFAJLVgEBf6nABEERQOhU/?a=7073&bti=OTU0QDItLmA%3D&ch=0&cr=0&dr=4&er=0&lr=unwatermarked&cd=0%7C0%7C0%7C0&br=312&bt=156&ds=5&ft=.cwOVInz7ThR4yIOXq8Zmo&qs=13&rc=MzdzPG85cnJsdzUzNzhoM0BpMzdzPG85cnJsdzUzNzhoM0AyMW9fMmQ0XjVgLS1kLjZzYSMyMW9fMmQ0XjVgLS1kLjZzcw%3D%3D&vvpl=1&l=02173337122257200000000000000000000ffff0a00803a2671ba&btag=e00070000&format=mp3&mime_type=audio_mpeg",
        "source_timerange": {
            "start_offset": 4.589999999999996,
            "end_offset": 6.12
        },
        "target_timerange": {
            "start_offset": 33.87,
            "end_offset": 35.4
        },
        "ignore_audio": true,
        "audio_path": null
    },
    {
        "segment_id": "7f41183eb2bd11ef98c9b8cef650d1f4",
        "text": "Mr. Bennet made no answer.",
        "audio_url": "https://v16m-default.akamaized.net/dfc3bd286c2a1f73726d7dbbf8f25aa9/675179c1/video/tos/maliva/tos-maliva-v-f15faa-us/oAVCBEUyYcBlEASSyAAC4EZKJ3R83Q8iWHi1P/?a=7073&bti=OTU0QDItLmA%3D&ch=0&cr=0&dr=4&er=0&lr=unwatermarked&cd=0%7C0%7C0%7C0&br=312&bt=156&ds=5&ft=.cwOVInz7ThR4yIOXq8Zmo&qs=13&rc=MzptOmw5cnJsdzUzNzhoM0BpMzptOmw5cnJsdzUzNzhoM0AybDQ2MmQ0XjVgLS1kLjZzYSMybDQ2MmQ0XjVgLS1kLjZzcw%3D%3D&vvpl=1&l=02173337122257200000000000000000000ffff0a00803a2671ba&btag=e00070000&format=mp3&mime_type=audio_mpeg",
        "source_timerange": {
            "start_offset": 0,
            "end_offset": 1.824
        },
        "target_timerange": {
            "start_offset": 35.4,
            "end_offset": 37.224000000000004
        },
        "ignore_audio": false,
        "audio_path": null
    },
    {
        "segment_id": "7f4127f2b2bd11ef98c9b8cef650d1f4",
        "text": "“Do not you want to know",
        "audio_url": "https://v16m-default.akamaized.net/65954869692ab2401a709f5941f45669/675179c4/video/tos/maliva/tos-maliva-v-f15faa-us/oIPAYilE4QCRixYXjlVWBZUJD1A1EDASkBkE0/?a=7073&bti=OTU0QDItLmA%3D&ch=0&cr=0&dr=4&er=0&lr=unwatermarked&cd=0%7C0%7C0%7C0&br=312&bt=156&ds=5&ft=.cwOVInz7ThR4yIOXq8Zmo&qs=13&rc=ajhsam85cnJsdzUzNzhoM0Bpajhsam85cnJsdzUzNzhoM0BlNnBfMmQ0XjVgLS1kLjZzYSNlNnBfMmQ0XjVgLS1kLjZzcw%3D%3D&vvpl=1&l=02173337122257200000000000000000000ffff0a00803a2671ba&btag=e00070000&format=mp3&mime_type=audio_mpeg",
        "source_timerange": {
            "start_offset": 0,
            "end_offset": 1.336000000000003
        },
        "target_timerange": {
            "start_offset": 37.224000000000004,
            "end_offset": 38.56
        },
        "ignore_audio": false,
        "audio_path": null
    },
    {
        "segment_id": "7f41295ab2bd11ef98c9b8cef650d1f4",
        "text": "who has taken it?” cried",
        "audio_url": "https://v16m-default.akamaized.net/65954869692ab2401a709f5941f45669/675179c4/video/tos/maliva/tos-maliva-v-f15faa-us/oIPAYilE4QCRixYXjlVWBZUJD1A1EDASkBkE0/?a=7073&bti=OTU0QDItLmA%3D&ch=0&cr=0&dr=4&er=0&lr=unwatermarked&cd=0%7C0%7C0%7C0&br=312&bt=156&ds=5&ft=.cwOVInz7ThR4yIOXq8Zmo&qs=13&rc=ajhsam85cnJsdzUzNzhoM0Bpajhsam85cnJsdzUzNzhoM0BlNnBfMmQ0XjVgLS1kLjZzYSNlNnBfMmQ0XjVgLS1kLjZzcw%3D%3D&vvpl=1&l=02173337122257200000000000000000000ffff0a00803a2671ba&btag=e00070000&format=mp3&mime_type=audio_mpeg",
        "source_timerange": {
            "start_offset": 1.3359999999999985,
            "end_offset": 2.6720000000000015
        },
        "target_timerange": {
            "start_offset": 38.56,
            "end_offset": 39.896
        },
        "ignore_audio": true,
        "audio_path": null
    },
    {
        "segment_id": "7f412a90b2bd11ef98c9b8cef650d1f4",
        "text": "his wife, impatiently.",
        "audio_url": "https://v16m-default.akamaized.net/65954869692ab2401a709f5941f45669/675179c4/video/tos/maliva/tos-maliva-v-f15faa-us/oIPAYilE4QCRixYXjlVWBZUJD1A1EDASkBkE0/?a=7073&bti=OTU0QDItLmA%3D&ch=0&cr=0&dr=4&er=0&lr=unwatermarked&cd=0%7C0%7C0%7C0&br=312&bt=156&ds=5&ft=.cwOVInz7ThR4yIOXq8Zmo&qs=13&rc=ajhsam85cnJsdzUzNzhoM0Bpajhsam85cnJsdzUzNzhoM0BlNnBfMmQ0XjVgLS1kLjZzYSNlNnBfMmQ0XjVgLS1kLjZzcw%3D%3D&vvpl=1&l=02173337122257200000000000000000000ffff0a00803a2671ba&btag=e00070000&format=mp3&mime_type=audio_mpeg",
        "source_timerange": {
            "start_offset": 2.671999999999997,
            "end_offset": 4.008
        },
        "target_timerange": {
            "start_offset": 39.896,
            "end_offset": 41.232
        },
        "ignore_audio": true,
        "audio_path": null
    },
    {
        "segment_id": "7f413a12b2bd11ef98c9b8cef650d1f4",
        "text": "“_You_ want to tell me, and I have",
        "audio_url": "https://v16m-default.akamaized.net/9ae8c89e67af8ede9e45a9b9e39c2402/675179c3/video/tos/maliva/tos-maliva-v-f15faa-us/o47NfLDUaJBBWFVfn4ogVAJhQEERBqCEAA2SEh/?a=7073&bti=OTU0QDItLmA%3D&ch=0&cr=0&dr=4&er=0&lr=unwatermarked&cd=0%7C0%7C0%7C0&br=312&bt=156&ds=5&ft=.cwOVInz7ThR4yIOXq8Zmo&qs=13&rc=Mzt4OHU5cnJsdzUzNzhoM0BpMzt4OHU5cnJsdzUzNzhoM0BhMF9iMmQ0XjVgLS1kLjZzYSNhMF9iMmQ0XjVgLS1kLjZzcw%3D%3D&vvpl=1&l=02173337122257200000000000000000000ffff0a00803a2671ba&btag=e00070000&format=mp3&mime_type=audio_mpeg",
        "source_timerange": {
            "start_offset": 0,
            "end_offset": 1.6919999999999997
        },
        "target_timerange": {
            "start_offset": 41.232,
            "end_offset": 42.924
        },
        "ignore_audio": false,
        "audio_path": null
    },
    {
        "segment_id": "7f413b52b2bd11ef98c9b8cef650d1f4",
        "text": "no objection to hearing it.”",
        "audio_url": "https://v16m-default.akamaized.net/9ae8c89e67af8ede9e45a9b9e39c2402/675179c3/video/tos/maliva/tos-maliva-v-f15faa-us/o47NfLDUaJBBWFVfn4ogVAJhQEERBqCEAA2SEh/?a=7073&bti=OTU0QDItLmA%3D&ch=0&cr=0&dr=4&er=0&lr=unwatermarked&cd=0%7C0%7C0%7C0&br=312&bt=156&ds=5&ft=.cwOVInz7ThR4yIOXq8Zmo&qs=13&rc=Mzt4OHU5cnJsdzUzNzhoM0BpMzt4OHU5cnJsdzUzNzhoM0BhMF9iMmQ0XjVgLS1kLjZzYSNhMF9iMmQ0XjVgLS1kLjZzcw%3D%3D&vvpl=1&l=02173337122257200000000000000000000ffff0a00803a2671ba&btag=e00070000&format=mp3&mime_type=audio_mpeg",
        "source_timerange": {
            "start_offset": 1.6920000000000002,
            "end_offset": 3.384
        },
        "target_timerange": {
            "start_offset": 42.924,
            "end_offset": 44.616
        },
        "ignore_audio": true,
        "audio_path": null
    },
    {
        "segment_id": "7f4151e6b2bd11ef98c9b8cef650d1f4",
        "text": "[Illustration:  “He came",
        "audio_url": "https://v16m-default.akamaized.net/2fd12c75362c5d26c842770c56401f9e/675179c6/video/tos/maliva/tos-maliva-v-f15faa-us/o8BYEAoWQ7R6LAAEZ4OJGBCSiAZPrYUuli1EV/?a=7073&bti=OTU0QDItLmA%3D&ch=0&cr=0&dr=4&er=0&lr=unwatermarked&cd=0%7C0%7C0%7C0&br=312&bt=156&ds=5&ft=.cwOVInz7ThR4yIOXq8Zmo&qs=13&rc=Mzl0aHU5cnJsdzUzNzhoM0BpMzl0aHU5cnJsdzUzNzhoM0BgZGk0MmQ0XjVgLS1kLjZzYSNgZGk0MmQ0XjVgLS1kLjZzcw%3D%3D&vvpl=1&l=02173337122257200000000000000000000ffff0a00803a2671ba&btag=e00070000&format=mp3&mime_type=audio_mpeg",
        "source_timerange": {
            "start_offset": 0,
            "end_offset": 1.3967999999999972
        },
        "target_timerange": {
            "start_offset": 44.616,
            "end_offset": 46.0128
        },
        "ignore_audio": false,
        "audio_path": null
    },
    {
        "segment_id": "7f415312b2bd11ef98c9b8cef650d1f4",
        "text": "down to see the place”",
        "audio_url": "https://v16m-default.akamaized.net/2fd12c75362c5d26c842770c56401f9e/675179c6/video/tos/maliva/tos-maliva-v-f15faa-us/o8BYEAoWQ7R6LAAEZ4OJGBCSiAZPrYUuli1EV/?a=7073&bti=OTU0QDItLmA%3D&ch=0&cr=0&dr=4&er=0&lr=unwatermarked&cd=0%7C0%7C0%7C0&br=312&bt=156&ds=5&ft=.cwOVInz7ThR4yIOXq8Zmo&qs=13&rc=Mzl0aHU5cnJsdzUzNzhoM0BpMzl0aHU5cnJsdzUzNzhoM0BgZGk0MmQ0XjVgLS1kLjZzYSNgZGk0MmQ0XjVgLS1kLjZzcw%3D%3D&vvpl=1&l=02173337122257200000000000000000000ffff0a00803a2671ba&btag=e00070000&format=mp3&mime_type=audio_mpeg",
        "source_timerange": {
            "start_offset": 1.396799999999999,
            "end_offset": 2.793599999999996
        },
        "target_timerange": {
            "start_offset": 46.0128,
            "end_offset": 47.4096
        },
        "ignore_audio": true,
        "audio_path": null
    },
    {
        "segment_id": "7f41543eb2bd11ef98c9b8cef650d1f4",
        "text": "[_Copyright 1894 by George",
        "audio_url": "https://v16m-default.akamaized.net/2fd12c75362c5d26c842770c56401f9e/675179c6/video/tos/maliva/tos-maliva-v-f15faa-us/o8BYEAoWQ7R6LAAEZ4OJGBCSiAZPrYUuli1EV/?a=7073&bti=OTU0QDItLmA%3D&ch=0&cr=0&dr=4&er=0&lr=unwatermarked&cd=0%7C0%7C0%7C0&br=312&bt=156&ds=5&ft=.cwOVInz7ThR4yIOXq8Zmo&qs=13&rc=Mzl0aHU5cnJsdzUzNzhoM0BpMzl0aHU5cnJsdzUzNzhoM0BgZGk0MmQ0XjVgLS1kLjZzYSNgZGk0MmQ0XjVgLS1kLjZzcw%3D%3D&vvpl=1&l=02173337122257200000000000000000000ffff0a00803a2671ba&btag=e00070000&format=mp3&mime_type=audio_mpeg",
        "source_timerange": {
            "start_offset": 2.793599999999998,
            "end_offset": 4.190400000000002
        },
        "target_timerange": {
            "start_offset": 47.4096,
            "end_offset": 48.806400000000004
        },
        "ignore_audio": true,
        "audio_path": null
    },
    {
        "segment_id": "7f415588b2bd11ef98c9b8cef650d1f4",
        "text": "Allen._]]  This was",
        "audio_url": "https://v16m-default.akamaized.net/2fd12c75362c5d26c842770c56401f9e/675179c6/video/tos/maliva/tos-maliva-v-f15faa-us/o8BYEAoWQ7R6LAAEZ4OJGBCSiAZPrYUuli1EV/?a=7073&bti=OTU0QDItLmA%3D&ch=0&cr=0&dr=4&er=0&lr=unwatermarked&cd=0%7C0%7C0%7C0&br=312&bt=156&ds=5&ft=.cwOVInz7ThR4yIOXq8Zmo&qs=13&rc=Mzl0aHU5cnJsdzUzNzhoM0BpMzl0aHU5cnJsdzUzNzhoM0BgZGk0MmQ0XjVgLS1kLjZzYSNgZGk0MmQ0XjVgLS1kLjZzcw%3D%3D&vvpl=1&l=02173337122257200000000000000000000ffff0a00803a2671ba&btag=e00070000&format=mp3&mime_type=audio_mpeg",
        "source_timerange": {
            "start_offset": 4.190399999999997,
            "end_offset": 5.587200000000001
        },
        "target_timerange": {
            "start_offset": 48.8064,
            "end_offset": 50.2032
        },
        "ignore_audio": true,
        "audio_path": null
    },
    {
        "segment_id": "7f4156dcb2bd11ef98c9b8cef650d1f4",
        "text": "invitation enough.",
        "audio_url": "https://v16m-default.akamaized.net/2fd12c75362c5d26c842770c56401f9e/675179c6/video/tos/maliva/tos-maliva-v-f15faa-us/o8BYEAoWQ7R6LAAEZ4OJGBCSiAZPrYUuli1EV/?a=7073&bti=OTU0QDItLmA%3D&ch=0&cr=0&dr=4&er=0&lr=unwatermarked&cd=0%7C0%7C0%7C0&br=312&bt=156&ds=5&ft=.cwOVInz7ThR4yIOXq8Zmo&qs=13&rc=Mzl0aHU5cnJsdzUzNzhoM0BpMzl0aHU5cnJsdzUzNzhoM0BgZGk0MmQ0XjVgLS1kLjZzYSNgZGk0MmQ0XjVgLS1kLjZzcw%3D%3D&vvpl=1&l=02173337122257200000000000000000000ffff0a00803a2671ba&btag=e00070000&format=mp3&mime_type=audio_mpeg",
        "source_timerange": {
            "start_offset": 5.587200000000003,
            "end_offset": 6.984
        },
        "target_timerange": {
            "start_offset": 50.2032,
            "end_offset": 51.6
        },
        "ignore_audio": true,
        "audio_path": null
    },
    {
        "segment_id": "7f419868b2bd11ef98c9b8cef650d1f4",
        "text": "“Why, my dear, you must know,",
        "audio_url": "https://v16m-default.akamaized.net/87a4d0e630752f47e5c759d6f4bc2e0d/675179d6/video/tos/maliva/tos-maliva-v-f15faa-us/oEEZR1JAiPHiEDBECzwLQV4BlUgOAYsAvWCAS/?a=7073&bti=OTU0QDItLmA%3D&ch=0&cr=0&dr=4&er=0&lr=unwatermarked&cd=0%7C0%7C0%7C0&br=312&bt=156&ds=5&ft=.cwOVInz7ThR4yIOXq8Zmo&qs=13&rc=ajMzM205cnJsdzUzNzhoM0BpajMzM205cnJsdzUzNzhoM0AyMjM0MmQ0XjVgLS1kLjZzYSMyMjM0MmQ0XjVgLS1kLjZzcw%3D%3D&vvpl=1&l=02173337122257200000000000000000000ffff0a00803a2671ba&btag=e00078000&format=mp3&mime_type=audio_mpeg",
        "source_timerange": {
            "start_offset": 0,
            "end_offset": 1.4832000000000072
        },
        "target_timerange": {
            "start_offset": 51.6,
            "end_offset": 53.083200000000005
        },
        "ignore_audio": false,
        "audio_path": null
    },
    {
        "segment_id": "7f4199a8b2bd11ef98c9b8cef650d1f4",
        "text": "Mrs. Long says that",
        "audio_url": "https://v16m-default.akamaized.net/87a4d0e630752f47e5c759d6f4bc2e0d/675179d6/video/tos/maliva/tos-maliva-v-f15faa-us/oEEZR1JAiPHiEDBECzwLQV4BlUgOAYsAvWCAS/?a=7073&bti=OTU0QDItLmA%3D&ch=0&cr=0&dr=4&er=0&lr=unwatermarked&cd=0%7C0%7C0%7C0&br=312&bt=156&ds=5&ft=.cwOVInz7ThR4yIOXq8Zmo&qs=13&rc=ajMzM205cnJsdzUzNzhoM0BpajMzM205cnJsdzUzNzhoM0AyMjM0MmQ0XjVgLS1kLjZzYSMyMjM0MmQ0XjVgLS1kLjZzcw%3D%3D&vvpl=1&l=02173337122257200000000000000000000ffff0a00803a2671ba&btag=e00078000&format=mp3&mime_type=audio_mpeg",
        "source_timerange": {
            "start_offset": 1.4831999999999965,
            "end_offset": 2.9664000000000037
        },
        "target_timerange": {
            "start_offset": 53.0832,
            "end_offset": 54.5664
        },
        "ignore_audio": true,
        "audio_path": null
    },
    {
        "segment_id": "7f419a98b2bd11ef98c9b8cef650d1f4",
        "text": "Netherfield is taken by a",
        "audio_url": "https://v16m-default.akamaized.net/87a4d0e630752f47e5c759d6f4bc2e0d/675179d6/video/tos/maliva/tos-maliva-v-f15faa-us/oEEZR1JAiPHiEDBECzwLQV4BlUgOAYsAvWCAS/?a=7073&bti=OTU0QDItLmA%3D&ch=0&cr=0&dr=4&er=0&lr=unwatermarked&cd=0%7C0%7C0%7C0&br=312&bt=156&ds=5&ft=.cwOVInz7ThR4yIOXq8Zmo&qs=13&rc=ajMzM205cnJsdzUzNzhoM0BpajMzM205cnJsdzUzNzhoM0AyMjM0MmQ0XjVgLS1kLjZzYSMyMjM0MmQ0XjVgLS1kLjZzcw%3D%3D&vvpl=1&l=02173337122257200000000000000000000ffff0a00803a2671ba&btag=e00078000&format=mp3&mime_type=audio_mpeg",
        "source_timerange": {
            "start_offset": 2.9664,
            "end_offset": 4.4496
        },
        "target_timerange": {
            "start_offset": 54.5664,
            "end_offset": 56.0496
        },
        "ignore_audio": true,
        "audio_path": null
    },
    {
        "segment_id": "7f419b74b2bd11ef98c9b8cef650d1f4",
        "text": "young man of large fortune",
        "audio_url": "https://v16m-default.akamaized.net/87a4d0e630752f47e5c759d6f4bc2e0d/675179d6/video/tos/maliva/tos-maliva-v-f15faa-us/oEEZR1JAiPHiEDBECzwLQV4BlUgOAYsAvWCAS/?a=7073&bti=OTU0QDItLmA%3D&ch=0&cr=0&dr=4&er=0&lr=unwatermarked&cd=0%7C0%7C0%7C0&br=312&bt=156&ds=5&ft=.cwOVInz7ThR4yIOXq8Zmo&qs=13&rc=ajMzM205cnJsdzUzNzhoM0BpajMzM205cnJsdzUzNzhoM0AyMjM0MmQ0XjVgLS1kLjZzYSMyMjM0MmQ0XjVgLS1kLjZzcw%3D%3D&vvpl=1&l=02173337122257200000000000000000000ffff0a00803a2671ba&btag=e00078000&format=mp3&mime_type=audio_mpeg",
        "source_timerange": {
            "start_offset": 4.449599999999997,
            "end_offset": 5.932800000000004
        },
        "target_timerange": {
            "start_offset": 56.0496,
            "end_offset": 57.5328
        },
        "ignore_audio": true,
        "audio_path": null
    },
    {
        "segment_id": "7f419c50b2bd11ef98c9b8cef650d1f4",
        "text": "from the north of England;",
        "audio_url": "https://v16m-default.akamaized.net/87a4d0e630752f47e5c759d6f4bc2e0d/675179d6/video/tos/maliva/tos-maliva-v-f15faa-us/oEEZR1JAiPHiEDBECzwLQV4BlUgOAYsAvWCAS/?a=7073&bti=OTU0QDItLmA%3D&ch=0&cr=0&dr=4&er=0&lr=unwatermarked&cd=0%7C0%7C0%7C0&br=312&bt=156&ds=5&ft=.cwOVInz7ThR4yIOXq8Zmo&qs=13&rc=ajMzM205cnJsdzUzNzhoM0BpajMzM205cnJsdzUzNzhoM0AyMjM0MmQ0XjVgLS1kLjZzYSMyMjM0MmQ0XjVgLS1kLjZzcw%3D%3D&vvpl=1&l=02173337122257200000000000000000000ffff0a00803a2671ba&btag=e00078000&format=mp3&mime_type=audio_mpeg",
        "source_timerange": {
            "start_offset": 5.9328,
            "end_offset": 7.416
        },
        "target_timerange": {
            "start_offset": 57.5328,
            "end_offset": 59.016
        },
        "ignore_audio": true,
        "audio_path": null
    },
    {
        "segment_id": "7f419d2cb2bd11ef98c9b8cef650d1f4",
        "text": "that he came down on Monday",
        "audio_url": "https://v16m-default.akamaized.net/87a4d0e630752f47e5c759d6f4bc2e0d/675179d6/video/tos/maliva/tos-maliva-v-f15faa-us/oEEZR1JAiPHiEDBECzwLQV4BlUgOAYsAvWCAS/?a=7073&bti=OTU0QDItLmA%3D&ch=0&cr=0&dr=4&er=0&lr=unwatermarked&cd=0%7C0%7C0%7C0&br=312&bt=156&ds=5&ft=.cwOVInz7ThR4yIOXq8Zmo&qs=13&rc=ajMzM205cnJsdzUzNzhoM0BpajMzM205cnJsdzUzNzhoM0AyMjM0MmQ0XjVgLS1kLjZzYSMyMjM0MmQ0XjVgLS1kLjZzcw%3D%3D&vvpl=1&l=02173337122257200000000000000000000ffff0a00803a2671ba&btag=e00078000&format=mp3&mime_type=audio_mpeg",
        "source_timerange": {
            "start_offset": 7.415999999999997,
            "end_offset": 8.899200000000004
        },
        "target_timerange": {
            "start_offset": 59.016,
            "end_offset": 60.4992
        },
        "ignore_audio": true,
        "audio_path": null
    },
    {
        "segment_id": "7f419e08b2bd11ef98c9b8cef650d1f4",
        "text": "in a chaise and four to see",
        "audio_url": "https://v16m-default.akamaized.net/87a4d0e630752f47e5c759d6f4bc2e0d/675179d6/video/tos/maliva/tos-maliva-v-f15faa-us/oEEZR1JAiPHiEDBECzwLQV4BlUgOAYsAvWCAS/?a=7073&bti=OTU0QDItLmA%3D&ch=0&cr=0&dr=4&er=0&lr=unwatermarked&cd=0%7C0%7C0%7C0&br=312&bt=156&ds=5&ft=.cwOVInz7ThR4yIOXq8Zmo&qs=13&rc=ajMzM205cnJsdzUzNzhoM0BpajMzM205cnJsdzUzNzhoM0AyMjM0MmQ0XjVgLS1kLjZzYSMyMjM0MmQ0XjVgLS1kLjZzcw%3D%3D&vvpl=1&l=02173337122257200000000000000000000ffff0a00803a2671ba&btag=e00078000&format=mp3&mime_type=audio_mpeg",
        "source_timerange": {
            "start_offset": 8.8992,
            "end_offset": 10.3824
        },
        "target_timerange": {
            "start_offset": 60.4992,
            "end_offset": 61.9824
        },
        "ignore_audio": true,
        "audio_path": null
    },
    {
        "segment_id": "7f419ef8b2bd11ef98c9b8cef650d1f4",
        "text": "the place, and was so much",
        "audio_url": "https://v16m-default.akamaized.net/87a4d0e630752f47e5c759d6f4bc2e0d/675179d6/video/tos/maliva/tos-maliva-v-f15faa-us/oEEZR1JAiPHiEDBECzwLQV4BlUgOAYsAvWCAS/?a=7073&bti=OTU0QDItLmA%3D&ch=0&cr=0&dr=4&er=0&lr=unwatermarked&cd=0%7C0%7C0%7C0&br=312&bt=156&ds=5&ft=.cwOVInz7ThR4yIOXq8Zmo&qs=13&rc=ajMzM205cnJsdzUzNzhoM0BpajMzM205cnJsdzUzNzhoM0AyMjM0MmQ0XjVgLS1kLjZzYSMyMjM0MmQ0XjVgLS1kLjZzcw%3D%3D&vvpl=1&l=02173337122257200000000000000000000ffff0a00803a2671ba&btag=e00078000&format=mp3&mime_type=audio_mpeg",
        "source_timerange": {
            "start_offset": 10.382399999999997,
            "end_offset": 11.865600000000004
        },
        "target_timerange": {
            "start_offset": 61.9824,
            "end_offset": 63.4656
        },
        "ignore_audio": true,
        "audio_path": null
    },
    {
        "segment_id": "7f419fcab2bd11ef98c9b8cef650d1f4",
        "text": "delighted with it that he",
        "audio_url": "https://v16m-default.akamaized.net/87a4d0e630752f47e5c759d6f4bc2e0d/675179d6/video/tos/maliva/tos-maliva-v-f15faa-us/oEEZR1JAiPHiEDBECzwLQV4BlUgOAYsAvWCAS/?a=7073&bti=OTU0QDItLmA%3D&ch=0&cr=0&dr=4&er=0&lr=unwatermarked&cd=0%7C0%7C0%7C0&br=312&bt=156&ds=5&ft=.cwOVInz7ThR4yIOXq8Zmo&qs=13&rc=ajMzM205cnJsdzUzNzhoM0BpajMzM205cnJsdzUzNzhoM0AyMjM0MmQ0XjVgLS1kLjZzYSMyMjM0MmQ0XjVgLS1kLjZzcw%3D%3D&vvpl=1&l=02173337122257200000000000000000000ffff0a00803a2671ba&btag=e00078000&format=mp3&mime_type=audio_mpeg",
        "source_timerange": {
            "start_offset": 11.8656,
            "end_offset": 13.348800000000008
        },
        "target_timerange": {
            "start_offset": 63.4656,
            "end_offset": 64.9488
        },
        "ignore_audio": true,
        "audio_path": null
    },
    {
        "segment_id": "7f41a0bab2bd11ef98c9b8cef650d1f4",
        "text": "agreed with Mr. Morris",
        "audio_url": "https://v16m-default.akamaized.net/87a4d0e630752f47e5c759d6f4bc2e0d/675179d6/video/tos/maliva/tos-maliva-v-f15faa-us/oEEZR1JAiPHiEDBECzwLQV4BlUgOAYsAvWCAS/?a=7073&bti=OTU0QDItLmA%3D&ch=0&cr=0&dr=4&er=0&lr=unwatermarked&cd=0%7C0%7C0%7C0&br=312&bt=156&ds=5&ft=.cwOVInz7ThR4yIOXq8Zmo&qs=13&rc=ajMzM205cnJsdzUzNzhoM0BpajMzM205cnJsdzUzNzhoM0AyMjM0MmQ0XjVgLS1kLjZzYSMyMjM0MmQ0XjVgLS1kLjZzcw%3D%3D&vvpl=1&l=02173337122257200000000000000000000ffff0a00803a2671ba&btag=e00078000&format=mp3&mime_type=audio_mpeg",
        "source_timerange": {
            "start_offset": 13.348800000000004,
            "end_offset": 14.832000000000004
        },
        "target_timerange": {
            "start_offset": 64.9488,
            "end_offset": 66.432
        },
        "ignore_audio": true,
        "audio_path": null
    },
    {
        "segment_id": "7f41a196b2bd11ef98c9b8cef650d1f4",
        "text": "immediately; that he is to",
        "audio_url": "https://v16m-default.akamaized.net/87a4d0e630752f47e5c759d6f4bc2e0d/675179d6/video/tos/maliva/tos-maliva-v-f15faa-us/oEEZR1JAiPHiEDBECzwLQV4BlUgOAYsAvWCAS/?a=7073&bti=OTU0QDItLmA%3D&ch=0&cr=0&dr=4&er=0&lr=unwatermarked&cd=0%7C0%7C0%7C0&br=312&bt=156&ds=5&ft=.cwOVInz7ThR4yIOXq8Zmo&qs=13&rc=ajMzM205cnJsdzUzNzhoM0BpajMzM205cnJsdzUzNzhoM0AyMjM0MmQ0XjVgLS1kLjZzYSMyMjM0MmQ0XjVgLS1kLjZzcw%3D%3D&vvpl=1&l=02173337122257200000000000000000000ffff0a00803a2671ba&btag=e00078000&format=mp3&mime_type=audio_mpeg",
        "source_timerange": {
            "start_offset": 14.832,
            "end_offset": 16.3152
        },
        "target_timerange": {
            "start_offset": 66.432,
            "end_offset": 67.9152
        },
        "ignore_audio": true,
        "audio_path": null
    },
    {
        "segment_id": "7f41a27cb2bd11ef98c9b8cef650d1f4",
        "text": "take possession before",
        "audio_url": "https://v16m-default.akamaized.net/87a4d0e630752f47e5c759d6f4bc2e0d/675179d6/video/tos/maliva/tos-maliva-v-f15faa-us/oEEZR1JAiPHiEDBECzwLQV4BlUgOAYsAvWCAS/?a=7073&bti=OTU0QDItLmA%3D&ch=0&cr=0&dr=4&er=0&lr=unwatermarked&cd=0%7C0%7C0%7C0&br=312&bt=156&ds=5&ft=.cwOVInz7ThR4yIOXq8Zmo&qs=13&rc=ajMzM205cnJsdzUzNzhoM0BpajMzM205cnJsdzUzNzhoM0AyMjM0MmQ0XjVgLS1kLjZzYSMyMjM0MmQ0XjVgLS1kLjZzcw%3D%3D&vvpl=1&l=02173337122257200000000000000000000ffff0a00803a2671ba&btag=e00078000&format=mp3&mime_type=audio_mpeg",
        "source_timerange": {
            "start_offset": 16.315199999999997,
            "end_offset": 17.798399999999997
        },
        "target_timerange": {
            "start_offset": 67.9152,
            "end_offset": 69.3984
        },
        "ignore_audio": true,
        "audio_path": null
    },
    {
        "segment_id": "7f41a362b2bd11ef98c9b8cef650d1f4",
        "text": "Michaelmas, and some of his",
        "audio_url": "https://v16m-default.akamaized.net/87a4d0e630752f47e5c759d6f4bc2e0d/675179d6/video/tos/maliva/tos-maliva-v-f15faa-us/oEEZR1JAiPHiEDBECzwLQV4BlUgOAYsAvWCAS/?a=7073&bti=OTU0QDItLmA%3D&ch=0&cr=0&dr=4&er=0&lr=unwatermarked&cd=0%7C0%7C0%7C0&br=312&bt=156&ds=5&ft=.cwOVInz7ThR4yIOXq8Zmo&qs=13&rc=ajMzM205cnJsdzUzNzhoM0BpajMzM205cnJsdzUzNzhoM0AyMjM0MmQ0XjVgLS1kLjZzYSMyMjM0MmQ0XjVgLS1kLjZzcw%3D%3D&vvpl=1&l=02173337122257200000000000000000000ffff0a00803a2671ba&btag=e00078000&format=mp3&mime_type=audio_mpeg",
        "source_timerange": {
            "start_offset": 17.798399999999994,
            "end_offset": 19.281600000000008
        },
        "target_timerange": {
            "start_offset": 69.3984,
            "end_offset": 70.8816
        },
        "ignore_audio": true,
        "audio_path": null
    },
    {
        "segment_id": "7f41a65ab2bd11ef98c9b8cef650d1f4",
        "text": "servants are to be in the",
        "audio_url": "https://v16m-default.akamaized.net/87a4d0e630752f47e5c759d6f4bc2e0d/675179d6/video/tos/maliva/tos-maliva-v-f15faa-us/oEEZR1JAiPHiEDBECzwLQV4BlUgOAYsAvWCAS/?a=7073&bti=OTU0QDItLmA%3D&ch=0&cr=0&dr=4&er=0&lr=unwatermarked&cd=0%7C0%7C0%7C0&br=312&bt=156&ds=5&ft=.cwOVInz7ThR4yIOXq8Zmo&qs=13&rc=ajMzM205cnJsdzUzNzhoM0BpajMzM205cnJsdzUzNzhoM0AyMjM0MmQ0XjVgLS1kLjZzYSMyMjM0MmQ0XjVgLS1kLjZzcw%3D%3D&vvpl=1&l=02173337122257200000000000000000000ffff0a00803a2671ba&btag=e00078000&format=mp3&mime_type=audio_mpeg",
        "source_timerange": {
            "start_offset": 19.28159999999999,
            "end_offset": 20.764800000000005
        },
        "target_timerange": {
            "start_offset": 70.88159999999999,
            "end_offset": 72.3648
        },
        "ignore_audio": true,
        "audio_path": null
    },
    {
        "segment_id": "7f41a7c2b2bd11ef98c9b8cef650d1f4",
        "text": "house by the end of next week.”",
        "audio_url": "https://v16m-default.akamaized.net/87a4d0e630752f47e5c759d6f4bc2e0d/675179d6/video/tos/maliva/tos-maliva-v-f15faa-us/oEEZR1JAiPHiEDBECzwLQV4BlUgOAYsAvWCAS/?a=7073&bti=OTU0QDItLmA%3D&ch=0&cr=0&dr=4&er=0&lr=unwatermarked&cd=0%7C0%7C0%7C0&br=312&bt=156&ds=5&ft=.cwOVInz7ThR4yIOXq8Zmo&qs=13&rc=ajMzM205cnJsdzUzNzhoM0BpajMzM205cnJsdzUzNzhoM0AyMjM0MmQ0XjVgLS1kLjZzYSMyMjM0MmQ0XjVgLS1kLjZzcw%3D%3D&vvpl=1&l=02173337122257200000000000000000000ffff0a00803a2671ba&btag=e00078000&format=mp3&mime_type=audio_mpeg",
        "source_timerange": {
            "start_offset": 20.7648,
            "end_offset": 22.248
        },
        "target_timerange": {
            "start_offset": 72.3648,
            "end_offset": 73.848
        },
        "ignore_audio": true,
        "audio_path": null
    },
    {
        "segment_id": "7f41af88b2bd11ef98c9b8cef650d1f4",
        "text": "“What is his name?”  “Bingley.”",
        "audio_url": "https://v16m-default.akamaized.net/694204d246ad0f68c1c1d31522fc684d/675179c1/video/tos/maliva/tos-maliva-v-f15faa-us/ooARBA7kKSPVY1UiEIWhaRUJBAEZQijl14BCE/?a=7073&bti=OTU0QDItLmA%3D&ch=0&cr=0&dr=4&er=0&lr=unwatermarked&cd=0%7C0%7C0%7C0&br=312&bt=156&ds=5&ft=.cwOVInz7ThR4yIOXq8Zmo&qs=13&rc=amtoNXU5cnJsdzUzNzhoM0BpamtoNXU5cnJsdzUzNzhoM0BkNTFhMmQ0XjVgLS1kLjZzYSNkNTFhMmQ0XjVgLS1kLjZzcw%3D%3D&vvpl=1&l=02173337122257200000000000000000000ffff0a00803a2671ba&btag=e00070000&format=mp3&mime_type=audio_mpeg",
        "source_timerange": {
            "start_offset": 0,
            "end_offset": 1.848
        },
        "target_timerange": {
            "start_offset": 73.848,
            "end_offset": 75.696
        },
        "ignore_audio": false,
        "audio_path": null
    },
    {
        "segment_id": "7f41bd3eb2bd11ef98c9b8cef650d1f4",
        "text": "“Is he married or",
        "audio_url": "https://v16m-default.akamaized.net/f85e77e94325494da0ba51d7dc78eab5/675179c4/video/tos/maliva/tos-maliva-v-f15faa-us/oMDRAJBgEBUUbEEDWfVJhChBRVjvSQUrAeLAFn/?a=7073&bti=OTU0QDItLmA%3D&ch=0&cr=0&dr=4&er=0&lr=unwatermarked&cd=0%7C0%7C0%7C0&br=312&bt=156&ds=5&ft=.cwOVInz7ThR4yIOXq8Zmo&qs=13&rc=am5nZGo5cnJsdzUzNzhoM0Bpam5nZGo5cnJsdzUzNzhoM0BrNW9zMmQ0XjVgLS1kLjZzYSNrNW9zMmQ0XjVgLS1kLjZzcw%3D%3D&vvpl=1&l=02173337122257200000000000000000000ffff0a00803a2671ba&btag=e00070000&format=mp3&mime_type=audio_mpeg",
        "source_timerange": {
            "start_offset": 0,
            "end_offset": 1.4639999999999889
        },
        "target_timerange": {
            "start_offset": 75.696,
            "end_offset": 77.16
        },
        "ignore_audio": false,
        "audio_path": null
    },
    {
        "segment_id": "7f41be56b2bd11ef98c9b8cef650d1f4",
        "text": "single?”  “Oh, single,",
        "audio_url": "https://v16m-default.akamaized.net/f85e77e94325494da0ba51d7dc78eab5/675179c4/video/tos/maliva/tos-maliva-v-f15faa-us/oMDRAJBgEBUUbEEDWfVJhChBRVjvSQUrAeLAFn/?a=7073&bti=OTU0QDItLmA%3D&ch=0&cr=0&dr=4&er=0&lr=unwatermarked&cd=0%7C0%7C0%7C0&br=312&bt=156&ds=5&ft=.cwOVInz7ThR4yIOXq8Zmo&qs=13&rc=am5nZGo5cnJsdzUzNzhoM0Bpam5nZGo5cnJsdzUzNzhoM0BrNW9zMmQ0XjVgLS1kLjZzYSNrNW9zMmQ0XjVgLS1kLjZzcw%3D%3D&vvpl=1&l=02173337122257200000000000000000000ffff0a00803a2671ba&btag=e00070000&format=mp3&mime_type=audio_mpeg",
        "source_timerange": {
            "start_offset": 1.4639999999999986,
            "end_offset": 2.9280000000000017
        },
        "target_timerange": {
            "start_offset": 77.16,
            "end_offset": 78.62400000000001
        },
        "ignore_audio": true,
        "audio_path": null
    },
    {
        "segment_id": "7f41bf3cb2bd11ef98c9b8cef650d1f4",
        "text": "my dear, to be sure!",
        "audio_url": "https://v16m-default.akamaized.net/f85e77e94325494da0ba51d7dc78eab5/675179c4/video/tos/maliva/tos-maliva-v-f15faa-us/oMDRAJBgEBUUbEEDWfVJhChBRVjvSQUrAeLAFn/?a=7073&bti=OTU0QDItLmA%3D&ch=0&cr=0&dr=4&er=0&lr=unwatermarked&cd=0%7C0%7C0%7C0&br=312&bt=156&ds=5&ft=.cwOVInz7ThR4yIOXq8Zmo&qs=13&rc=am5nZGo5cnJsdzUzNzhoM0Bpam5nZGo5cnJsdzUzNzhoM0BrNW9zMmQ0XjVgLS1kLjZzYSNrNW9zMmQ0XjVgLS1kLjZzcw%3D%3D&vvpl=1&l=02173337122257200000000000000000000ffff0a00803a2671ba&btag=e00070000&format=mp3&mime_type=audio_mpeg",
        "source_timerange": {
            "start_offset": 2.9280000000000115,
            "end_offset": 4.392
        },
        "target_timerange": {
            "start_offset": 78.62400000000001,
            "end_offset": 80.08800000000001
        },
        "ignore_audio": true,
        "audio_path": null
    },
    {
        "segment_id": "7f41cc5cb2bd11ef98c9b8cef650d1f4",
        "text": "A single man of large",
        "audio_url": "https://v16m-default.akamaized.net/17ec2aaa46e09680c0f64240cb9e2a7e/675179c3/video/tos/maliva/tos-maliva-v-f15faa-us/o0QRSfQEEgDLUJAFSiBdBnJVzAPBVhAAEhWpf6/?a=7073&bti=OTU0QDItLmA%3D&ch=0&cr=0&dr=4&er=0&lr=unwatermarked&cd=0%7C0%7C0%7C0&br=312&bt=156&ds=5&ft=.cwOVInz7ThR4yIOXq8Zmo&qs=13&rc=Mzx5dXM5cnJsdzUzNzhoM0BpMzx5dXM5cnJsdzUzNzhoM0A2aWtnMmQ0XjVgLS1kLjZzYSM2aWtnMmQ0XjVgLS1kLjZzcw%3D%3D&vvpl=1&l=02173337122257200000000000000000000ffff0a00803a2671ba&btag=e00070000&format=mp3&mime_type=audio_mpeg",
        "source_timerange": {
            "start_offset": 0,
            "end_offset": 1.2800000000000118
        },
        "target_timerange": {
            "start_offset": 80.08800000000001,
            "end_offset": 81.36800000000001
        },
        "ignore_audio": false,
        "audio_path": null
    },
    {
        "segment_id": "7f41cd6ab2bd11ef98c9b8cef650d1f4",
        "text": "fortune; four or five",
        "audio_url": "https://v16m-default.akamaized.net/17ec2aaa46e09680c0f64240cb9e2a7e/675179c3/video/tos/maliva/tos-maliva-v-f15faa-us/o0QRSfQEEgDLUJAFSiBdBnJVzAPBVhAAEhWpf6/?a=7073&bti=OTU0QDItLmA%3D&ch=0&cr=0&dr=4&er=0&lr=unwatermarked&cd=0%7C0%7C0%7C0&br=312&bt=156&ds=5&ft=.cwOVInz7ThR4yIOXq8Zmo&qs=13&rc=Mzx5dXM5cnJsdzUzNzhoM0BpMzx5dXM5cnJsdzUzNzhoM0A2aWtnMmQ0XjVgLS1kLjZzYSM2aWtnMmQ0XjVgLS1kLjZzcw%3D%3D&vvpl=1&l=02173337122257200000000000000000000ffff0a00803a2671ba&btag=e00070000&format=mp3&mime_type=audio_mpeg",
        "source_timerange": {
            "start_offset": 1.2800000000000011,
            "end_offset": 2.5599999999999987
        },
        "target_timerange": {
            "start_offset": 81.36800000000001,
            "end_offset": 82.648
        },
        "ignore_audio": true,
        "audio_path": null
    },
    {
        "segment_id": "7f41ce5ab2bd11ef98c9b8cef650d1f4",
        "text": "thousand a year.",
        "audio_url": "https://v16m-default.akamaized.net/17ec2aaa46e09680c0f64240cb9e2a7e/675179c3/video/tos/maliva/tos-maliva-v-f15faa-us/o0QRSfQEEgDLUJAFSiBdBnJVzAPBVhAAEhWpf6/?a=7073&bti=OTU0QDItLmA%3D&ch=0&cr=0&dr=4&er=0&lr=unwatermarked&cd=0%7C0%7C0%7C0&br=312&bt=156&ds=5&ft=.cwOVInz7ThR4yIOXq8Zmo&qs=13&rc=Mzx5dXM5cnJsdzUzNzhoM0BpMzx5dXM5cnJsdzUzNzhoM0A2aWtnMmQ0XjVgLS1kLjZzYSM2aWtnMmQ0XjVgLS1kLjZzcw%3D%3D&vvpl=1&l=02173337122257200000000000000000000ffff0a00803a2671ba&btag=e00070000&format=mp3&mime_type=audio_mpeg",
        "source_timerange": {
            "start_offset": 2.559999999999988,
            "end_offset": 3.84
        },
        "target_timerange": {
            "start_offset": 82.648,
            "end_offset": 83.928
        },
        "ignore_audio": true,
        "audio_path": null
    },
    {
        "segment_id": "7f41d9b8b2bd11ef98c9b8cef650d1f4",
        "text": "What a fine thing for",
        "audio_url": "https://v16m-default.akamaized.net/2c52ab16cac8a1d9c64d90ecfd61bf95/675179c2/video/tos/maliva/tos-maliva-v-f15faa-us/ooIAinchfBSAxQVIo5ILCFEBVSDtWUAGaf2gsJ/?a=7073&bti=OTU0QDItLmA%3D&ch=0&cr=0&dr=4&er=0&lr=unwatermarked&cd=0%7C0%7C0%7C0&br=312&bt=156&ds=5&ft=.cwOVInz7ThR4yIOXq8Zmo&qs=13&rc=amVsa245cnJsdzUzNzhoM0BpamVsa245cnJsdzUzNzhoM0BhcDAzMmQ0XjVgLS1kLjZzYSNhcDAzMmQ0XjVgLS1kLjZzcw%3D%3D&vvpl=1&l=02173337122257200000000000000000000ffff0a00803a2671ba&btag=e00070000&format=mp3&mime_type=audio_mpeg",
        "source_timerange": {
            "start_offset": 0,
            "end_offset": 1.4760000000000009
        },
        "target_timerange": {
            "start_offset": 83.928,
            "end_offset": 85.404
        },
        "ignore_audio": false,
        "audio_path": null
    },
    {
        "segment_id": "7f41dad0b2bd11ef98c9b8cef650d1f4",
        "text": "our girls!”  “How so?",
        "audio_url": "https://v16m-default.akamaized.net/2c52ab16cac8a1d9c64d90ecfd61bf95/675179c2/video/tos/maliva/tos-maliva-v-f15faa-us/ooIAinchfBSAxQVIo5ILCFEBVSDtWUAGaf2gsJ/?a=7073&bti=OTU0QDItLmA%3D&ch=0&cr=0&dr=4&er=0&lr=unwatermarked&cd=0%7C0%7C0%7C0&br=312&bt=156&ds=5&ft=.cwOVInz7ThR4yIOXq8Zmo&qs=13&rc=amVsa245cnJsdzUzNzhoM0BpamVsa245cnJsdzUzNzhoM0BhcDAzMmQ0XjVgLS1kLjZzYSNhcDAzMmQ0XjVgLS1kLjZzcw%3D%3D&vvpl=1&l=02173337122257200000000000000000000ffff0a00803a2671ba&btag=e00070000&format=mp3&mime_type=audio_mpeg",
        "source_timerange": {
            "start_offset": 1.475999999999999,
            "end_offset": 2.952
        },
        "target_timerange": {
            "start_offset": 85.404,
            "end_offset": 86.88
        },
        "ignore_audio": true,
        "audio_path": null
    },
    {
        "segment_id": "7f41ec96b2bd11ef98c9b8cef650d1f4",
        "text": "how can it affect them?”",
        "audio_url": "https://v16m-default.akamaized.net/eac0480cc25033b3aacf66fd628f00f3/675179c5/video/tos/maliva/tos-maliva-v-f15faa-us/oQCoSIBIGGwrkCS4gIesXGAAzLjNAOCCfJerKi/?a=7073&bti=OTU0QDItLmA%3D&ch=0&cr=0&dr=4&er=0&lr=unwatermarked&cd=0%7C0%7C0%7C0&br=312&bt=156&ds=5&ft=.cwOVInz7ThR4yIOXq8Zmo&qs=13&rc=ang5Zmw5cnJsdzUzNzhoM0Bpang5Zmw5cnJsdzUzNzhoM0A0bW5gMmQ0XjVgLS1kLjZzYSM0bW5gMmQ0XjVgLS1kLjZzcw%3D%3D&vvpl=1&l=02173337122257200000000000000000000ffff0a00803a2671ba&btag=e00070000&format=mp3&mime_type=audio_mpeg",
        "source_timerange": {
            "start_offset": 0,
            "end_offset": 1.4759999999999884
        },
        "target_timerange": {
            "start_offset": 86.88,
            "end_offset": 88.356
        },
        "ignore_audio": false,
        "audio_path": null
    },
    {
        "segment_id": "7f41edaeb2bd11ef98c9b8cef650d1f4",
        "text": "“My dear Mr. Bennet,”",
        "audio_url": "https://v16m-default.akamaized.net/eac0480cc25033b3aacf66fd628f00f3/675179c5/video/tos/maliva/tos-maliva-v-f15faa-us/oQCoSIBIGGwrkCS4gIesXGAAzLjNAOCCfJerKi/?a=7073&bti=OTU0QDItLmA%3D&ch=0&cr=0&dr=4&er=0&lr=unwatermarked&cd=0%7C0%7C0%7C0&br=312&bt=156&ds=5&ft=.cwOVInz7ThR4yIOXq8Zmo&qs=13&rc=ang5Zmw5cnJsdzUzNzhoM0Bpang5Zmw5cnJsdzUzNzhoM0A0bW5gMmQ0XjVgLS1kLjZzYSM0bW5gMmQ0XjVgLS1kLjZzcw%3D%3D&vvpl=1&l=02173337122257200000000000000000000ffff0a00803a2671ba&btag=e00070000&format=mp3&mime_type=audio_mpeg",
        "source_timerange": {
            "start_offset": 1.475999999999999,
            "end_offset": 2.9519999999999875
        },
        "target_timerange": {
            "start_offset": 88.356,
            "end_offset": 89.832
        },
        "ignore_audio": true,
        "audio_path": null
    },
    {
        "segment_id": "7f41ee94b2bd11ef98c9b8cef650d1f4",
        "text": "replied his wife, “how can",
        "audio_url": "https://v16m-default.akamaized.net/eac0480cc25033b3aacf66fd628f00f3/675179c5/video/tos/maliva/tos-maliva-v-f15faa-us/oQCoSIBIGGwrkCS4gIesXGAAzLjNAOCCfJerKi/?a=7073&bti=OTU0QDItLmA%3D&ch=0&cr=0&dr=4&er=0&lr=unwatermarked&cd=0%7C0%7C0%7C0&br=312&bt=156&ds=5&ft=.cwOVInz7ThR4yIOXq8Zmo&qs=13&rc=ang5Zmw5cnJsdzUzNzhoM0Bpang5Zmw5cnJsdzUzNzhoM0A0bW5gMmQ0XjVgLS1kLjZzYSM0bW5gMmQ0XjVgLS1kLjZzcw%3D%3D&vvpl=1&l=02173337122257200000000000000000000ffff0a00803a2671ba&btag=e00070000&format=mp3&mime_type=audio_mpeg",
        "source_timerange": {
            "start_offset": 2.951999999999998,
            "end_offset": 4.428000000000001
        },
        "target_timerange": {
            "start_offset": 89.832,
            "end_offset": 91.308
        },
        "ignore_audio": true,
        "audio_path": null
    },
    {
        "segment_id": "7f41ef84b2bd11ef98c9b8cef650d1f4",
        "text": "you be so tiresome?",
        "audio_url": "https://v16m-default.akamaized.net/eac0480cc25033b3aacf66fd628f00f3/675179c5/video/tos/maliva/tos-maliva-v-f15faa-us/oQCoSIBIGGwrkCS4gIesXGAAzLjNAOCCfJerKi/?a=7073&bti=OTU0QDItLmA%3D&ch=0&cr=0&dr=4&er=0&lr=unwatermarked&cd=0%7C0%7C0%7C0&br=312&bt=156&ds=5&ft=.cwOVInz7ThR4yIOXq8Zmo&qs=13&rc=ang5Zmw5cnJsdzUzNzhoM0Bpang5Zmw5cnJsdzUzNzhoM0A0bW5gMmQ0XjVgLS1kLjZzYSM0bW5gMmQ0XjVgLS1kLjZzcw%3D%3D&vvpl=1&l=02173337122257200000000000000000000ffff0a00803a2671ba&btag=e00070000&format=mp3&mime_type=audio_mpeg",
        "source_timerange": {
            "start_offset": 4.4280000000000115,
            "end_offset": 5.904
        },
        "target_timerange": {
            "start_offset": 91.308,
            "end_offset": 92.784
        },
        "ignore_audio": true,
        "audio_path": null
    },
    {
        "segment_id": "7f41fb1eb2bd11ef98c9b8cef650d1f4",
        "text": "You must know that I am thinking",
        "audio_url": "https://v16m-default.akamaized.net/ddb8462ddaa69feec53e3dab18ace3dc/675179c2/video/tos/maliva/tos-maliva-v-f15faa-us/ooEGBVBntURJVFpk7eBDWQAhJ3BfLgOApEA5ES/?a=7073&bti=OTU0QDItLmA%3D&ch=0&cr=0&dr=4&er=0&lr=unwatermarked&cd=0%7C0%7C0%7C0&br=312&bt=156&ds=5&ft=.cwOVInz7ThR4yIOXq8Zmo&qs=13&rc=M3VtcXc5cnJsdzUzNzhoM0BpM3VtcXc5cnJsdzUzNzhoM0BzNjNnMmQ0XjVgLS1kLjZzYSNzNjNnMmQ0XjVgLS1kLjZzcw%3D%3D&vvpl=1&l=02173337122257200000000000000000000ffff0a00803a2671ba&btag=e00070000&format=mp3&mime_type=audio_mpeg",
        "source_timerange": {
            "start_offset": 0,
            "end_offset": 1.4280000000000026
        },
        "target_timerange": {
            "start_offset": 92.784,
            "end_offset": 94.212
        },
        "ignore_audio": false,
        "audio_path": null
    },
    {
        "segment_id": "7f41fc36b2bd11ef98c9b8cef650d1f4",
        "text": "of his marrying one of them.”",
        "audio_url": "https://v16m-default.akamaized.net/ddb8462ddaa69feec53e3dab18ace3dc/675179c2/video/tos/maliva/tos-maliva-v-f15faa-us/ooEGBVBntURJVFpk7eBDWQAhJ3BfLgOApEA5ES/?a=7073&bti=OTU0QDItLmA%3D&ch=0&cr=0&dr=4&er=0&lr=unwatermarked&cd=0%7C0%7C0%7C0&br=312&bt=156&ds=5&ft=.cwOVInz7ThR4yIOXq8Zmo&qs=13&rc=M3VtcXc5cnJsdzUzNzhoM0BpM3VtcXc5cnJsdzUzNzhoM0BzNjNnMmQ0XjVgLS1kLjZzYSNzNjNnMmQ0XjVgLS1kLjZzcw%3D%3D&vvpl=1&l=02173337122257200000000000000000000ffff0a00803a2671ba&btag=e00070000&format=mp3&mime_type=audio_mpeg",
        "source_timerange": {
            "start_offset": 1.4279999999999973,
            "end_offset": 2.856
        },
        "target_timerange": {
            "start_offset": 94.212,
            "end_offset": 95.64
        },
        "ignore_audio": true,
        "audio_path": null
    },
    {
        "segment_id": "7f42060eb2bd11ef98c9b8cef650d1f4",
        "text": "“Is that his design in",
        "audio_url": "https://v16m-default.akamaized.net/4a1240bb2c5757f552ae7c2299ed668a/675179c2/video/tos/maliva/tos-maliva-v-f15faa-us/oYBwlASTAAViFAREAuPJYEC41EZWCCi2nQBtU/?a=7073&bti=OTU0QDItLmA%3D&ch=0&cr=0&dr=4&er=0&lr=unwatermarked&cd=0%7C0%7C0%7C0&br=312&bt=156&ds=5&ft=.cwOVInz7ThR4yIOXq8Zmo&qs=13&rc=ajUzc3A5cnJsdzUzNzhoM0BpajUzc3A5cnJsdzUzNzhoM0BqXnI2MmQ0XjVgLS1kLjZzYSNqXnI2MmQ0XjVgLS1kLjZzcw%3D%3D&vvpl=1&l=02173337122257200000000000000000000ffff0a00803a2671ba&btag=e00070000&format=mp3&mime_type=audio_mpeg",
        "source_timerange": {
            "start_offset": 0,
            "end_offset": 1.404000000000004
        },
        "target_timerange": {
            "start_offset": 95.64,
            "end_offset": 97.04400000000001
        },
        "ignore_audio": false,
        "audio_path": null
    },
    {
        "segment_id": "7f42071cb2bd11ef98c9b8cef650d1f4",
        "text": "settling here?”  “Design?",
        "audio_url": "https://v16m-default.akamaized.net/4a1240bb2c5757f552ae7c2299ed668a/675179c2/video/tos/maliva/tos-maliva-v-f15faa-us/oYBwlASTAAViFAREAuPJYEC41EZWCCi2nQBtU/?a=7073&bti=OTU0QDItLmA%3D&ch=0&cr=0&dr=4&er=0&lr=unwatermarked&cd=0%7C0%7C0%7C0&br=312&bt=156&ds=5&ft=.cwOVInz7ThR4yIOXq8Zmo&qs=13&rc=ajUzc3A5cnJsdzUzNzhoM0BpajUzc3A5cnJsdzUzNzhoM0BqXnI2MmQ0XjVgLS1kLjZzYSNqXnI2MmQ0XjVgLS1kLjZzcw%3D%3D&vvpl=1&l=02173337122257200000000000000000000ffff0a00803a2671ba&btag=e00070000&format=mp3&mime_type=audio_mpeg",
        "source_timerange": {
            "start_offset": 1.4040000000000106,
            "end_offset": 2.8080000000000003
        },
        "target_timerange": {
            "start_offset": 97.04400000000001,
            "end_offset": 98.44800000000001
        },
        "ignore_audio": true,
        "audio_path": null
    },
    {
        "segment_id": "7f4210ccb2bd11ef98c9b8cef650d1f4",
        "text": "Nonsense, how can",
        "audio_url": "https://v16m-default.akamaized.net/2b025e36b42d7baee5f2e019b0a2dc58/675179c2/video/tos/maliva/tos-maliva-v-f15faa-us/ooPWGE4KY7AAAqEBBUQEJiSHqAR03Z1VKl1Ci/?a=7073&bti=OTU0QDItLmA%3D&ch=0&cr=0&dr=4&er=0&lr=unwatermarked&cd=0%7C0%7C0%7C0&br=312&bt=156&ds=5&ft=.cwOVInz7ThR4yIOXq8Zmo&qs=13&rc=M25ld3U5cnJsdzUzNzhoM0BpM25ld3U5cnJsdzUzNzhoM0AyY2EwMmQ0XjVgLS1kLjZzYSMyY2EwMmQ0XjVgLS1kLjZzcw%3D%3D&vvpl=1&l=02173337122257200000000000000000000ffff0a00803a2671ba&btag=e00070000&format=mp3&mime_type=audio_mpeg",
        "source_timerange": {
            "start_offset": 0,
            "end_offset": 1.2359999999999958
        },
        "target_timerange": {
            "start_offset": 98.44800000000001,
            "end_offset": 99.684
        },
        "ignore_audio": false,
        "audio_path": null
    },
    {
        "segment_id": "7f4211e4b2bd11ef98c9b8cef650d1f4",
        "text": "you talk so!",
        "audio_url": "https://v16m-default.akamaized.net/2b025e36b42d7baee5f2e019b0a2dc58/675179c2/video/tos/maliva/tos-maliva-v-f15faa-us/ooPWGE4KY7AAAqEBBUQEJiSHqAR03Z1VKl1Ci/?a=7073&bti=OTU0QDItLmA%3D&ch=0&cr=0&dr=4&er=0&lr=unwatermarked&cd=0%7C0%7C0%7C0&br=312&bt=156&ds=5&ft=.cwOVInz7ThR4yIOXq8Zmo&qs=13&rc=M25ld3U5cnJsdzUzNzhoM0BpM25ld3U5cnJsdzUzNzhoM0AyY2EwMmQ0XjVgLS1kLjZzYSMyY2EwMmQ0XjVgLS1kLjZzcw%3D%3D&vvpl=1&l=02173337122257200000000000000000000ffff0a00803a2671ba&btag=e00070000&format=mp3&mime_type=audio_mpeg",
        "source_timerange": {
            "start_offset": 1.23599999999999,
            "end_offset": 2.472
        },
        "target_timerange": {
            "start_offset": 99.684,
            "end_offset": 100.92
        },
        "ignore_audio": true,
        "audio_path": null
    },
    {
        "segment_id": "7f422918b2bd11ef98c9b8cef650d1f4",
        "text": "But it is very likely that he",
        "audio_url": "https://v16m-default.akamaized.net/1b6b1ffcf506c292945250644320dd12/675179c7/video/tos/maliva/tos-maliva-v-f15faa-us/oMSt5FHhEICIQoUgSifVMAgLVAEEnDJiBAesBq/?a=7073&bti=OTU0QDItLmA%3D&ch=0&cr=0&dr=4&er=0&lr=unwatermarked&cd=0%7C0%7C0%7C0&br=312&bt=156&ds=5&ft=.cwOVInz7ThO4yIOXq8Zmo&qs=13&rc=M3Y4cnA5cnJsdzUzNzhoM0BpM3Y4cnA5cnJsdzUzNzhoM0BnLWZlMmQ0XjVgLS1kLjZzYSNnLWZlMmQ0XjVgLS1kLjZzcw%3D%3D&vvpl=1&l=02173337122257200000000000000000000ffff0a00803a2671ba&btag=e00070000&format=mp3&mime_type=audio_mpeg",
        "source_timerange": {
            "start_offset": 0,
            "end_offset": 1.602000000000003
        },
        "target_timerange": {
            "start_offset": 100.92,
            "end_offset": 102.522
        },
        "ignore_audio": false,
        "audio_path": null
    },
    {
        "segment_id": "7f422a80b2bd11ef98c9b8cef650d1f4",
        "text": "_may_ fall in love with one of",
        "audio_url": "https://v16m-default.akamaized.net/1b6b1ffcf506c292945250644320dd12/675179c7/video/tos/maliva/tos-maliva-v-f15faa-us/oMSt5FHhEICIQoUgSifVMAgLVAEEnDJiBAesBq/?a=7073&bti=OTU0QDItLmA%3D&ch=0&cr=0&dr=4&er=0&lr=unwatermarked&cd=0%7C0%7C0%7C0&br=312&bt=156&ds=5&ft=.cwOVInz7ThO4yIOXq8Zmo&qs=13&rc=M3Y4cnA5cnJsdzUzNzhoM0BpM3Y4cnA5cnJsdzUzNzhoM0BnLWZlMmQ0XjVgLS1kLjZzYSNnLWZlMmQ0XjVgLS1kLjZzcw%3D%3D&vvpl=1&l=02173337122257200000000000000000000ffff0a00803a2671ba&btag=e00070000&format=mp3&mime_type=audio_mpeg",
        "source_timerange": {
            "start_offset": 1.6020000000000039,
            "end_offset": 3.2039999999999926
        },
        "target_timerange": {
            "start_offset": 102.522,
            "end_offset": 104.124
        },
        "ignore_audio": true,
        "audio_path": null
    },
    {
        "segment_id": "7f422ba2b2bd11ef98c9b8cef650d1f4",
        "text": "them, and therefore you must",
        "audio_url": "https://v16m-default.akamaized.net/1b6b1ffcf506c292945250644320dd12/675179c7/video/tos/maliva/tos-maliva-v-f15faa-us/oMSt5FHhEICIQoUgSifVMAgLVAEEnDJiBAesBq/?a=7073&bti=OTU0QDItLmA%3D&ch=0&cr=0&dr=4&er=0&lr=unwatermarked&cd=0%7C0%7C0%7C0&br=312&bt=156&ds=5&ft=.cwOVInz7ThO4yIOXq8Zmo&qs=13&rc=M3Y4cnA5cnJsdzUzNzhoM0BpM3Y4cnA5cnJsdzUzNzhoM0BnLWZlMmQ0XjVgLS1kLjZzYSNnLWZlMmQ0XjVgLS1kLjZzcw%3D%3D&vvpl=1&l=02173337122257200000000000000000000ffff0a00803a2671ba&btag=e00070000&format=mp3&mime_type=audio_mpeg",
        "source_timerange": {
            "start_offset": 3.2039999999999935,
            "end_offset": 4.8059999999999965
        },
        "target_timerange": {
            "start_offset": 104.124,
            "end_offset": 105.726
        },
        "ignore_audio": true,
        "audio_path": null
    },
    {
        "segment_id": "7f422c92b2bd11ef98c9b8cef650d1f4",
        "text": "visit him as soon as he comes.”",
        "audio_url": "https://v16m-default.akamaized.net/1b6b1ffcf506c292945250644320dd12/675179c7/video/tos/maliva/tos-maliva-v-f15faa-us/oMSt5FHhEICIQoUgSifVMAgLVAEEnDJiBAesBq/?a=7073&bti=OTU0QDItLmA%3D&ch=0&cr=0&dr=4&er=0&lr=unwatermarked&cd=0%7C0%7C0%7C0&br=312&bt=156&ds=5&ft=.cwOVInz7ThO4yIOXq8Zmo&qs=13&rc=M3Y4cnA5cnJsdzUzNzhoM0BpM3Y4cnA5cnJsdzUzNzhoM0BnLWZlMmQ0XjVgLS1kLjZzYSNnLWZlMmQ0XjVgLS1kLjZzcw%3D%3D&vvpl=1&l=02173337122257200000000000000000000ffff0a00803a2671ba&btag=e00070000&format=mp3&mime_type=audio_mpeg",
        "source_timerange": {
            "start_offset": 4.805999999999997,
            "end_offset": 6.408
        },
        "target_timerange": {
            "start_offset": 105.726,
            "end_offset": 107.328
        },
        "ignore_audio": true,
        "audio_path": null
    },
    {
        "segment_id": "7f4232d2b2bd11ef98c9b8cef650d1f4",
        "text": "“I see no occasion for that.",
        "audio_url": "https://v16m-default.akamaized.net/6b1cf65d653cc136533e37124c3d923f/675179c1/video/tos/maliva/tos-maliva-v-f15faa-us/oAe7EfGBILXrIuCoWAISASCACwkLerZiOKsCgQ/?a=7073&bti=OTU0QDItLmA%3D&ch=0&cr=0&dr=4&er=0&lr=unwatermarked&cd=0%7C0%7C0%7C0&br=312&bt=156&ds=5&ft=.cwOVInz7ThR4yIOXq8Zmo&qs=13&rc=ajtta3Y5cnJsdzUzNzhoM0Bpajtta3Y5cnJsdzUzNzhoM0AybzY0MmQ0XjVgLS1kLjZzYSMybzY0MmQ0XjVgLS1kLjZzcw%3D%3D&vvpl=1&l=02173337122257200000000000000000000ffff0a00803a2671ba&btag=e00070000&format=mp3&mime_type=audio_mpeg",
        "source_timerange": {
            "start_offset": 0,
            "end_offset": 1.8
        },
        "target_timerange": {
            "start_offset": 107.328,
            "end_offset": 109.128
        },
        "ignore_audio": false,
        "audio_path": null
    },
    {
        "segment_id": "7f42538eb2bd11ef98c9b8cef650d1f4",
        "text": "You and the girls may go--or",
        "audio_url": "https://v16m-default.akamaized.net/03149fc627ebee123a282d5498a0ca38/675179cb/video/tos/maliva/tos-maliva-v-f15faa-us/okBESEJpgXrbCFMxrX8ekOMCDAotWQCfWAfBAR/?a=7073&bti=OTU0QDItLmA%3D&ch=0&cr=0&dr=4&er=0&lr=unwatermarked&cd=0%7C0%7C0%7C0&br=312&bt=156&ds=5&ft=.cwOVInz7ThO4yIOXq8Zmo&qs=13&rc=M2t5ZXM5cnJsdzUzNzhoM0BpM2t5ZXM5cnJsdzUzNzhoM0Bfc3FkMmQ0XjVgLS1kLjZzYSNfc3FkMmQ0XjVgLS1kLjZzcw%3D%3D&vvpl=1&l=02173337122257200000000000000000000ffff0a00803a2671ba&btag=e00070000&format=mp3&mime_type=audio_mpeg",
        "source_timerange": {
            "start_offset": 0,
            "end_offset": 1.4365714285714297
        },
        "target_timerange": {
            "start_offset": 109.128,
            "end_offset": 110.56457142857143
        },
        "ignore_audio": false,
        "audio_path": null
    },
    {
        "segment_id": "7f4254bab2bd11ef98c9b8cef650d1f4",
        "text": "you may send them by",
        "audio_url": "https://v16m-default.akamaized.net/03149fc627ebee123a282d5498a0ca38/675179cb/video/tos/maliva/tos-maliva-v-f15faa-us/okBESEJpgXrbCFMxrX8ekOMCDAotWQCfWAfBAR/?a=7073&bti=OTU0QDItLmA%3D&ch=0&cr=0&dr=4&er=0&lr=unwatermarked&cd=0%7C0%7C0%7C0&br=312&bt=156&ds=5&ft=.cwOVInz7ThO4yIOXq8Zmo&qs=13&rc=M2t5ZXM5cnJsdzUzNzhoM0BpM2t5ZXM5cnJsdzUzNzhoM0Bfc3FkMmQ0XjVgLS1kLjZzYSNfc3FkMmQ0XjVgLS1kLjZzcw%3D%3D&vvpl=1&l=02173337122257200000000000000000000ffff0a00803a2671ba&btag=e00070000&format=mp3&mime_type=audio_mpeg",
        "source_timerange": {
            "start_offset": 1.4365714285714262,
            "end_offset": 2.873142857142856
        },
        "target_timerange": {
            "start_offset": 110.56457142857143,
            "end_offset": 112.00114285714285
        },
        "ignore_audio": true,
        "audio_path": null
    },
    {
        "segment_id": "7f4255aab2bd11ef98c9b8cef650d1f4",
        "text": "themselves, which perhaps will",
        "audio_url": "https://v16m-default.akamaized.net/03149fc627ebee123a282d5498a0ca38/675179cb/video/tos/maliva/tos-maliva-v-f15faa-us/okBESEJpgXrbCFMxrX8ekOMCDAotWQCfWAfBAR/?a=7073&bti=OTU0QDItLmA%3D&ch=0&cr=0&dr=4&er=0&lr=unwatermarked&cd=0%7C0%7C0%7C0&br=312&bt=156&ds=5&ft=.cwOVInz7ThO4yIOXq8Zmo&qs=13&rc=M2t5ZXM5cnJsdzUzNzhoM0BpM2t5ZXM5cnJsdzUzNzhoM0Bfc3FkMmQ0XjVgLS1kLjZzYSNfc3FkMmQ0XjVgLS1kLjZzcw%3D%3D&vvpl=1&l=02173337122257200000000000000000000ffff0a00803a2671ba&btag=e00070000&format=mp3&mime_type=audio_mpeg",
        "source_timerange": {
            "start_offset": 2.8731428571428523,
            "end_offset": 4.309714285714282
        },
        "target_timerange": {
            "start_offset": 112.00114285714285,
            "end_offset": 113.43771428571428
        },
        "ignore_audio": true,
        "audio_path": null
    },
    {
        "segment_id": "7f42567cb2bd11ef98c9b8cef650d1f4",
        "text": "be still better; for as you",
        "audio_url": "https://v16m-default.akamaized.net/03149fc627ebee123a282d5498a0ca38/675179cb/video/tos/maliva/tos-maliva-v-f15faa-us/okBESEJpgXrbCFMxrX8ekOMCDAotWQCfWAfBAR/?a=7073&bti=OTU0QDItLmA%3D&ch=0&cr=0&dr=4&er=0&lr=unwatermarked&cd=0%7C0%7C0%7C0&br=312&bt=156&ds=5&ft=.cwOVInz7ThO4yIOXq8Zmo&qs=13&rc=M2t5ZXM5cnJsdzUzNzhoM0BpM2t5ZXM5cnJsdzUzNzhoM0Bfc3FkMmQ0XjVgLS1kLjZzYSNfc3FkMmQ0XjVgLS1kLjZzcw%3D%3D&vvpl=1&l=02173337122257200000000000000000000ffff0a00803a2671ba&btag=e00070000&format=mp3&mime_type=audio_mpeg",
        "source_timerange": {
            "start_offset": 4.3097142857142785,
            "end_offset": 5.746285714285722
        },
        "target_timerange": {
            "start_offset": 113.43771428571428,
            "end_offset": 114.87428571428572
        },
        "ignore_audio": true,
        "audio_path": null
    },
    {
        "segment_id": "7f425758b2bd11ef98c9b8cef650d1f4",
        "text": "are as handsome as any of",
        "audio_url": "https://v16m-default.akamaized.net/03149fc627ebee123a282d5498a0ca38/675179cb/video/tos/maliva/tos-maliva-v-f15faa-us/okBESEJpgXrbCFMxrX8ekOMCDAotWQCfWAfBAR/?a=7073&bti=OTU0QDItLmA%3D&ch=0&cr=0&dr=4&er=0&lr=unwatermarked&cd=0%7C0%7C0%7C0&br=312&bt=156&ds=5&ft=.cwOVInz7ThO4yIOXq8Zmo&qs=13&rc=M2t5ZXM5cnJsdzUzNzhoM0BpM2t5ZXM5cnJsdzUzNzhoM0Bfc3FkMmQ0XjVgLS1kLjZzYSNfc3FkMmQ0XjVgLS1kLjZzcw%3D%3D&vvpl=1&l=02173337122257200000000000000000000ffff0a00803a2671ba&btag=e00070000&format=mp3&mime_type=audio_mpeg",
        "source_timerange": {
            "start_offset": 5.746285714285719,
            "end_offset": 7.182857142857149
        },
        "target_timerange": {
            "start_offset": 114.87428571428572,
            "end_offset": 116.31085714285715
        },
        "ignore_audio": true,
        "audio_path": null
    },
    {
        "segment_id": "7f425834b2bd11ef98c9b8cef650d1f4",
        "text": "them, Mr. Bingley might like",
        "audio_url": "https://v16m-default.akamaized.net/03149fc627ebee123a282d5498a0ca38/675179cb/video/tos/maliva/tos-maliva-v-f15faa-us/okBESEJpgXrbCFMxrX8ekOMCDAotWQCfWAfBAR/?a=7073&bti=OTU0QDItLmA%3D&ch=0&cr=0&dr=4&er=0&lr=unwatermarked&cd=0%7C0%7C0%7C0&br=312&bt=156&ds=5&ft=.cwOVInz7ThO4yIOXq8Zmo&qs=13&rc=M2t5ZXM5cnJsdzUzNzhoM0BpM2t5ZXM5cnJsdzUzNzhoM0Bfc3FkMmQ0XjVgLS1kLjZzYSNfc3FkMmQ0XjVgLS1kLjZzcw%3D%3D&vvpl=1&l=02173337122257200000000000000000000ffff0a00803a2671ba&btag=e00070000&format=mp3&mime_type=audio_mpeg",
        "source_timerange": {
            "start_offset": 7.182857142857145,
            "end_offset": 8.619428571428575
        },
        "target_timerange": {
            "start_offset": 116.31085714285715,
            "end_offset": 117.74742857142857
        },
        "ignore_audio": true,
        "audio_path": null
    },
    {
        "segment_id": "7f425a50b2bd11ef98c9b8cef650d1f4",
        "text": "you the best of the party.”",
        "audio_url": "https://v16m-default.akamaized.net/03149fc627ebee123a282d5498a0ca38/675179cb/video/tos/maliva/tos-maliva-v-f15faa-us/okBESEJpgXrbCFMxrX8ekOMCDAotWQCfWAfBAR/?a=7073&bti=OTU0QDItLmA%3D&ch=0&cr=0&dr=4&er=0&lr=unwatermarked&cd=0%7C0%7C0%7C0&br=312&bt=156&ds=5&ft=.cwOVInz7ThO4yIOXq8Zmo&qs=13&rc=M2t5ZXM5cnJsdzUzNzhoM0BpM2t5ZXM5cnJsdzUzNzhoM0Bfc3FkMmQ0XjVgLS1kLjZzYSNfc3FkMmQ0XjVgLS1kLjZzcw%3D%3D&vvpl=1&l=02173337122257200000000000000000000ffff0a00803a2671ba&btag=e00070000&format=mp3&mime_type=audio_mpeg",
        "source_timerange": {
            "start_offset": 8.619428571428571,
            "end_offset": 10.056000000000001
        },
        "target_timerange": {
            "start_offset": 117.74742857142857,
            "end_offset": 119.184
        },
        "ignore_audio": true,
        "audio_path": null
    },
    {
        "segment_id": "7f42613ab2bd11ef98c9b8cef650d1f4",
        "text": "“My dear, you flatter me.",
        "audio_url": "https://v16m-default.akamaized.net/749c6c1e0e5da7259c238ec5337c723c/675179c3/video/tos/maliva/tos-maliva-v-f15faa-us/oEWOE2FDAnJgsdMRBADLEVUoVTnQJBBhASEffY/?a=7073&bti=OTU0QDItLmA%3D&ch=0&cr=0&dr=4&er=0&lr=unwatermarked&cd=0%7C0%7C0%7C0&br=312&bt=156&ds=5&ft=.cwOVInz7ThO4yIOXq8Zmo&qs=13&rc=M3d2dm45cnJsdzUzNzhoM0BpM3d2dm45cnJsdzUzNzhoM0BvcHMxMmQ0XjVgLS1kLjZzYSNvcHMxMmQ0XjVgLS1kLjZzcw%3D%3D&vvpl=1&l=02173337122257200000000000000000000ffff0a00803a2671ba&btag=e00070000&format=mp3&mime_type=audio_mpeg",
        "source_timerange": {
            "start_offset": 0,
            "end_offset": 2.064
        },
        "target_timerange": {
            "start_offset": 119.184,
            "end_offset": 121.248
        },
        "ignore_audio": false,
        "audio_path": null
    },
    {
        "segment_id": "7f42742cb2bd11ef98c9b8cef650d1f4",
        "text": "I certainly _have_ had my",
        "audio_url": "https://v16m-default.akamaized.net/c51556a193750c5ff1aad2f1fc0f97a0/675179c6/video/tos/maliva/tos-maliva-v-f15faa-us/oYhRVgIQJfLFyESSCAVkoUfqAVDDBBAIIAsnEi/?a=7073&bti=OTU0QDItLmA%3D&ch=0&cr=0&dr=4&er=0&lr=unwatermarked&cd=0%7C0%7C0%7C0&br=312&bt=156&ds=5&ft=.cwOVInz7ThO4yIOXq8Zmo&qs=13&rc=amw1OG45cnJsdzUzNzhoM0Bpamw1OG45cnJsdzUzNzhoM0BgNTYuMmQ0XjVgLS1kLjZzYSNgNTYuMmQ0XjVgLS1kLjZzcw%3D%3D&vvpl=1&l=02173337122257200000000000000000000ffff0a00803a2671ba&btag=e00070000&format=mp3&mime_type=audio_mpeg",
        "source_timerange": {
            "start_offset": 0,
            "end_offset": 1.4039999999999973
        },
        "target_timerange": {
            "start_offset": 121.248,
            "end_offset": 122.652
        },
        "ignore_audio": false,
        "audio_path": null
    },
    {
        "segment_id": "7f42759eb2bd11ef98c9b8cef650d1f4",
        "text": "share of beauty, but I do",
        "audio_url": "https://v16m-default.akamaized.net/c51556a193750c5ff1aad2f1fc0f97a0/675179c6/video/tos/maliva/tos-maliva-v-f15faa-us/oYhRVgIQJfLFyESSCAVkoUfqAVDDBBAIIAsnEi/?a=7073&bti=OTU0QDItLmA%3D&ch=0&cr=0&dr=4&er=0&lr=unwatermarked&cd=0%7C0%7C0%7C0&br=312&bt=156&ds=5&ft=.cwOVInz7ThO4yIOXq8Zmo&qs=13&rc=amw1OG45cnJsdzUzNzhoM0Bpamw1OG45cnJsdzUzNzhoM0BgNTYuMmQ0XjVgLS1kLjZzYSNgNTYuMmQ0XjVgLS1kLjZzcw%3D%3D&vvpl=1&l=02173337122257200000000000000000000ffff0a00803a2671ba&btag=e00070000&format=mp3&mime_type=audio_mpeg",
        "source_timerange": {
            "start_offset": 1.4039999999999964,
            "end_offset": 2.808000000000008
        },
        "target_timerange": {
            "start_offset": 122.652,
            "end_offset": 124.05600000000001
        },
        "ignore_audio": true,
        "audio_path": null
    },
    {
        "segment_id": "7f4276cab2bd11ef98c9b8cef650d1f4",
        "text": "not pretend to be anything",
        "audio_url": "https://v16m-default.akamaized.net/c51556a193750c5ff1aad2f1fc0f97a0/675179c6/video/tos/maliva/tos-maliva-v-f15faa-us/oYhRVgIQJfLFyESSCAVkoUfqAVDDBBAIIAsnEi/?a=7073&bti=OTU0QDItLmA%3D&ch=0&cr=0&dr=4&er=0&lr=unwatermarked&cd=0%7C0%7C0%7C0&br=312&bt=156&ds=5&ft=.cwOVInz7ThO4yIOXq8Zmo&qs=13&rc=amw1OG45cnJsdzUzNzhoM0Bpamw1OG45cnJsdzUzNzhoM0BgNTYuMmQ0XjVgLS1kLjZzYSNgNTYuMmQ0XjVgLS1kLjZzcw%3D%3D&vvpl=1&l=02173337122257200000000000000000000ffff0a00803a2671ba&btag=e00070000&format=mp3&mime_type=audio_mpeg",
        "source_timerange": {
            "start_offset": 2.808000000000007,
            "end_offset": 4.212000000000004
        },
        "target_timerange": {
            "start_offset": 124.05600000000001,
            "end_offset": 125.46000000000001
        },
        "ignore_audio": true,
        "audio_path": null
    },
    {
        "segment_id": "7f42781eb2bd11ef98c9b8cef650d1f4",
        "text": "extraordinary now.",
        "audio_url": "https://v16m-default.akamaized.net/c51556a193750c5ff1aad2f1fc0f97a0/675179c6/video/tos/maliva/tos-maliva-v-f15faa-us/oYhRVgIQJfLFyESSCAVkoUfqAVDDBBAIIAsnEi/?a=7073&bti=OTU0QDItLmA%3D&ch=0&cr=0&dr=4&er=0&lr=unwatermarked&cd=0%7C0%7C0%7C0&br=312&bt=156&ds=5&ft=.cwOVInz7ThO4yIOXq8Zmo&qs=13&rc=amw1OG45cnJsdzUzNzhoM0Bpamw1OG45cnJsdzUzNzhoM0BgNTYuMmQ0XjVgLS1kLjZzYSNgNTYuMmQ0XjVgLS1kLjZzcw%3D%3D&vvpl=1&l=02173337122257200000000000000000000ffff0a00803a2671ba&btag=e00070000&format=mp3&mime_type=audio_mpeg",
        "source_timerange": {
            "start_offset": 4.212000000000003,
            "end_offset": 5.6160000000000005
        },
        "target_timerange": {
            "start_offset": 125.46000000000001,
            "end_offset": 126.864
        },
        "ignore_audio": true,
        "audio_path": null
    },
    {
        "segment_id": "7f4287b4b2bd11ef98c9b8cef650d1f4",
        "text": "When a woman has five grown-up",
        "audio_url": "https://v16m-default.akamaized.net/f4924ecde41007dbd8ce6e8b38ed0b1c/675179c5/video/tos/maliva/tos-maliva-v-f15faa-us/o4BRJEHiABWS8AZECAAZ8EolPJi4V4rYQQ1CU/?a=7073&bti=OTU0QDItLmA%3D&ch=0&cr=0&dr=4&er=0&lr=unwatermarked&cd=0%7C0%7C0%7C0&br=312&bt=156&ds=5&ft=.cwOVInz7ThO4yIOXq8Zmo&qs=13&rc=MzptbHI5cnJsdzUzNzhoM0BpMzptbHI5cnJsdzUzNzhoM0BobGNgMmQ0XjVgLS1kLjZzYSNobGNgMmQ0XjVgLS1kLjZzcw%3D%3D&vvpl=1&l=02173337122257200000000000000000000ffff0a00803a2671ba&btag=e00070000&format=mp3&mime_type=audio_mpeg",
        "source_timerange": {
            "start_offset": 0,
            "end_offset": 1.6240000000000094
        },
        "target_timerange": {
            "start_offset": 126.864,
            "end_offset": 128.488
        },
        "ignore_audio": false,
        "audio_path": null
    },
    {
        "segment_id": "7f4288e0b2bd11ef98c9b8cef650d1f4",
        "text": "daughters, she ought to give over",
        "audio_url": "https://v16m-default.akamaized.net/f4924ecde41007dbd8ce6e8b38ed0b1c/675179c5/video/tos/maliva/tos-maliva-v-f15faa-us/o4BRJEHiABWS8AZECAAZ8EolPJi4V4rYQQ1CU/?a=7073&bti=OTU0QDItLmA%3D&ch=0&cr=0&dr=4&er=0&lr=unwatermarked&cd=0%7C0%7C0%7C0&br=312&bt=156&ds=5&ft=.cwOVInz7ThO4yIOXq8Zmo&qs=13&rc=MzptbHI5cnJsdzUzNzhoM0BpMzptbHI5cnJsdzUzNzhoM0BobGNgMmQ0XjVgLS1kLjZzYSNobGNgMmQ0XjVgLS1kLjZzcw%3D%3D&vvpl=1&l=02173337122257200000000000000000000ffff0a00803a2671ba&btag=e00070000&format=mp3&mime_type=audio_mpeg",
        "source_timerange": {
            "start_offset": 1.6239999999999952,
            "end_offset": 3.2480000000000047
        },
        "target_timerange": {
            "start_offset": 128.488,
            "end_offset": 130.112
        },
        "ignore_audio": true,
        "audio_path": null
    },
    {
        "segment_id": "7f428a16b2bd11ef98c9b8cef650d1f4",
        "text": "thinking of her own beauty.”",
        "audio_url": "https://v16m-default.akamaized.net/f4924ecde41007dbd8ce6e8b38ed0b1c/675179c5/video/tos/maliva/tos-maliva-v-f15faa-us/o4BRJEHiABWS8AZECAAZ8EolPJi4V4rYQQ1CU/?a=7073&bti=OTU0QDItLmA%3D&ch=0&cr=0&dr=4&er=0&lr=unwatermarked&cd=0%7C0%7C0%7C0&br=312&bt=156&ds=5&ft=.cwOVInz7ThO4yIOXq8Zmo&qs=13&rc=MzptbHI5cnJsdzUzNzhoM0BpMzptbHI5cnJsdzUzNzhoM0BobGNgMmQ0XjVgLS1kLjZzYSNobGNgMmQ0XjVgLS1kLjZzcw%3D%3D&vvpl=1&l=02173337122257200000000000000000000ffff0a00803a2671ba&btag=e00070000&format=mp3&mime_type=audio_mpeg",
        "source_timerange": {
            "start_offset": 3.2479999999999905,
            "end_offset": 4.872
        },
        "target_timerange": {
            "start_offset": 130.112,
            "end_offset": 131.736
        },
        "ignore_audio": true,
        "audio_path": null
    },
    {
        "segment_id": "7f429a6ab2bd11ef98c9b8cef650d1f4",
        "text": "“In such cases, a woman",
        "audio_url": "https://v16m-default.akamaized.net/9b07f711440d8f32b5f5a052eb3b48d0/675179c5/video/tos/maliva/tos-maliva-v-f15faa-us/oYWhQfSRXQCVDDAEAf1ELgBJJBUFEIGUnIVFAB/?a=7073&bti=OTU0QDItLmA%3D&ch=0&cr=0&dr=4&er=0&lr=unwatermarked&cd=0%7C0%7C0%7C0&br=312&bt=156&ds=5&ft=.cwOVInz7ThO4yIOXq8Zmo&qs=13&rc=Mzt3ZHQ5cnJsdzUzNzhoM0BpMzt3ZHQ5cnJsdzUzNzhoM0A1YmdlMmQ0XjVgLS1kLjZzYSM1YmdlMmQ0XjVgLS1kLjZzcw%3D%3D&vvpl=1&l=02173337122257200000000000000000000ffff0a00803a2671ba&btag=e00070000&format=mp3&mime_type=audio_mpeg",
        "source_timerange": {
            "start_offset": 0,
            "end_offset": 1.3519999999999923
        },
        "target_timerange": {
            "start_offset": 131.736,
            "end_offset": 133.088
        },
        "ignore_audio": false,
        "audio_path": null
    },
    {
        "segment_id": "7f429b8cb2bd11ef98c9b8cef650d1f4",
        "text": "has not often much",
        "audio_url": "https://v16m-default.akamaized.net/9b07f711440d8f32b5f5a052eb3b48d0/675179c5/video/tos/maliva/tos-maliva-v-f15faa-us/oYWhQfSRXQCVDDAEAf1ELgBJJBUFEIGUnIVFAB/?a=7073&bti=OTU0QDItLmA%3D&ch=0&cr=0&dr=4&er=0&lr=unwatermarked&cd=0%7C0%7C0%7C0&br=312&bt=156&ds=5&ft=.cwOVInz7ThO4yIOXq8Zmo&qs=13&rc=Mzt3ZHQ5cnJsdzUzNzhoM0BpMzt3ZHQ5cnJsdzUzNzhoM0A1YmdlMmQ0XjVgLS1kLjZzYSM1YmdlMmQ0XjVgLS1kLjZzcw%3D%3D&vvpl=1&l=02173337122257200000000000000000000ffff0a00803a2671ba&btag=e00070000&format=mp3&mime_type=audio_mpeg",
        "source_timerange": {
            "start_offset": 1.3520000000000039,
            "end_offset": 2.703999999999996
        },
        "target_timerange": {
            "start_offset": 133.088,
            "end_offset": 134.44
        },
        "ignore_audio": true,
        "audio_path": null
    },
    {
        "segment_id": "7f429c72b2bd11ef98c9b8cef650d1f4",
        "text": "beauty to think of.”",
        "audio_url": "https://v16m-default.akamaized.net/9b07f711440d8f32b5f5a052eb3b48d0/675179c5/video/tos/maliva/tos-maliva-v-f15faa-us/oYWhQfSRXQCVDDAEAf1ELgBJJBUFEIGUnIVFAB/?a=7073&bti=OTU0QDItLmA%3D&ch=0&cr=0&dr=4&er=0&lr=unwatermarked&cd=0%7C0%7C0%7C0&br=312&bt=156&ds=5&ft=.cwOVInz7ThO4yIOXq8Zmo&qs=13&rc=Mzt3ZHQ5cnJsdzUzNzhoM0BpMzt3ZHQ5cnJsdzUzNzhoM0A1YmdlMmQ0XjVgLS1kLjZzYSM1YmdlMmQ0XjVgLS1kLjZzcw%3D%3D&vvpl=1&l=02173337122257200000000000000000000ffff0a00803a2671ba&btag=e00070000&format=mp3&mime_type=audio_mpeg",
        "source_timerange": {
            "start_offset": 2.7040000000000077,
            "end_offset": 4.056
        },
        "target_timerange": {
            "start_offset": 134.44,
            "end_offset": 135.792
        },
        "ignore_audio": true,
        "audio_path": null
    },
    {
        "segment_id": "7f42aabeb2bd11ef98c9b8cef650d1f4",
        "text": "“But, my dear, you must indeed go",
        "audio_url": "https://v16m-default.akamaized.net/769e3630a5d0995fc11a1dac993f5915/675179c6/video/tos/maliva/tos-maliva-v-f15faa-us/oIHPBGfDJIveVrnh3SjWCUoSiBsLNEVAFAAgIQ/?a=7073&bti=OTU0QDItLmA%3D&ch=0&cr=0&dr=4&er=0&lr=unwatermarked&cd=0%7C0%7C0%7C0&br=312&bt=156&ds=5&ft=.cwOVInz7ThO4yIOXq8Zmo&qs=13&rc=am5nc3E5cnJsdzUzNzhoM0Bpam5nc3E5cnJsdzUzNzhoM0AyX3BxMmQ0XjVgLS1kLjZzYSMyX3BxMmQ0XjVgLS1kLjZzcw%3D%3D&vvpl=1&l=02173337122257200000000000000000000ffff0a00803a2671ba&btag=e00070000&format=mp3&mime_type=audio_mpeg",
        "source_timerange": {
            "start_offset": 0,
            "end_offset": 1.6879999999999953
        },
        "target_timerange": {
            "start_offset": 135.792,
            "end_offset": 137.48
        },
        "ignore_audio": false,
        "audio_path": null
    },
    {
        "segment_id": "7f42ac30b2bd11ef98c9b8cef650d1f4",
        "text": "and see Mr. Bingley when he comes",
        "audio_url": "https://v16m-default.akamaized.net/769e3630a5d0995fc11a1dac993f5915/675179c6/video/tos/maliva/tos-maliva-v-f15faa-us/oIHPBGfDJIveVrnh3SjWCUoSiBsLNEVAFAAgIQ/?a=7073&bti=OTU0QDItLmA%3D&ch=0&cr=0&dr=4&er=0&lr=unwatermarked&cd=0%7C0%7C0%7C0&br=312&bt=156&ds=5&ft=.cwOVInz7ThO4yIOXq8Zmo&qs=13&rc=am5nc3E5cnJsdzUzNzhoM0Bpam5nc3E5cnJsdzUzNzhoM0AyX3BxMmQ0XjVgLS1kLjZzYSMyX3BxMmQ0XjVgLS1kLjZzcw%3D%3D&vvpl=1&l=02173337122257200000000000000000000ffff0a00803a2671ba&btag=e00070000&format=mp3&mime_type=audio_mpeg",
        "source_timerange": {
            "start_offset": 1.6879999999999882,
            "end_offset": 3.376000000000012
        },
        "target_timerange": {
            "start_offset": 137.48,
            "end_offset": 139.168
        },
        "ignore_audio": true,
        "audio_path": null
    },
    {
        "segment_id": "7f42ad70b2bd11ef98c9b8cef650d1f4",
        "text": "into the neighbourhood.”",
        "audio_url": "https://v16m-default.akamaized.net/769e3630a5d0995fc11a1dac993f5915/675179c6/video/tos/maliva/tos-maliva-v-f15faa-us/oIHPBGfDJIveVrnh3SjWCUoSiBsLNEVAFAAgIQ/?a=7073&bti=OTU0QDItLmA%3D&ch=0&cr=0&dr=4&er=0&lr=unwatermarked&cd=0%7C0%7C0%7C0&br=312&bt=156&ds=5&ft=.cwOVInz7ThO4yIOXq8Zmo&qs=13&rc=am5nc3E5cnJsdzUzNzhoM0Bpam5nc3E5cnJsdzUzNzhoM0AyX3BxMmQ0XjVgLS1kLjZzYSMyX3BxMmQ0XjVgLS1kLjZzcw%3D%3D&vvpl=1&l=02173337122257200000000000000000000ffff0a00803a2671ba&btag=e00070000&format=mp3&mime_type=audio_mpeg",
        "source_timerange": {
            "start_offset": 3.3760000000000048,
            "end_offset": 5.064
        },
        "target_timerange": {
            "start_offset": 139.168,
            "end_offset": 140.856
        },
        "ignore_audio": true,
        "audio_path": null
    },
    {
        "segment_id": "7f42b7fcb2bd11ef98c9b8cef650d1f4",
        "text": "“It is more than I engage",
        "audio_url": "https://v16m-default.akamaized.net/49575f0dbbb675ec64591caf1c25bf9e/675179c3/video/tos/maliva/tos-maliva-v-f15faa-us/owDmAEkAVEJUgFyheJAfBjZWYZAkBVQxRnESLB/?a=7073&bti=OTU0QDItLmA%3D&ch=0&cr=0&dr=4&er=0&lr=unwatermarked&cd=0%7C0%7C0%7C0&br=312&bt=156&ds=5&ft=.cwOVInz7ThO4yIOXq8Zmo&qs=13&rc=M3g5Zmw5cnJsdzUzNzhoM0BpM3g5Zmw5cnJsdzUzNzhoM0BmbW5gMmQ0XjVgLS1kLjZzYSNmbW5gMmQ0XjVgLS1kLjZzcw%3D%3D&vvpl=1&l=02173337122257200000000000000000000ffff0a00803a2671ba&btag=e00070000&format=mp3&mime_type=audio_mpeg",
        "source_timerange": {
            "start_offset": 0,
            "end_offset": 1.3199999999999785
        },
        "target_timerange": {
            "start_offset": 140.856,
            "end_offset": 142.176
        },
        "ignore_audio": false,
        "audio_path": null
    },
    {
        "segment_id": "7f42b90ab2bd11ef98c9b8cef650d1f4",
        "text": "for, I assure you.”",
        "audio_url": "https://v16m-default.akamaized.net/49575f0dbbb675ec64591caf1c25bf9e/675179c3/video/tos/maliva/tos-maliva-v-f15faa-us/owDmAEkAVEJUgFyheJAfBjZWYZAkBVQxRnESLB/?a=7073&bti=OTU0QDItLmA%3D&ch=0&cr=0&dr=4&er=0&lr=unwatermarked&cd=0%7C0%7C0%7C0&br=312&bt=156&ds=5&ft=.cwOVInz7ThO4yIOXq8Zmo&qs=13&rc=M3g5Zmw5cnJsdzUzNzhoM0BpM3g5Zmw5cnJsdzUzNzhoM0BmbW5gMmQ0XjVgLS1kLjZzYSNmbW5gMmQ0XjVgLS1kLjZzcw%3D%3D&vvpl=1&l=02173337122257200000000000000000000ffff0a00803a2671ba&btag=e00070000&format=mp3&mime_type=audio_mpeg",
        "source_timerange": {
            "start_offset": 1.3199999999999932,
            "end_offset": 2.64
        },
        "target_timerange": {
            "start_offset": 142.176,
            "end_offset": 143.496
        },
        "ignore_audio": true,
        "audio_path": null
    },
    {
        "segment_id": "7f42c06cb2bd11ef98c9b8cef650d1f4",
        "text": "“But consider your daughters.",
        "audio_url": "https://v16m-default.akamaized.net/88c296b437258a7c5627b6a2e332c215/675179c2/video/tos/maliva/tos-maliva-v-f15faa-us/oMYZ5UElBRlSAWA0iiAP1EEn79JaAO4BTCVkQ/?a=7073&bti=OTU0QDItLmA%3D&ch=0&cr=0&dr=4&er=0&lr=unwatermarked&cd=0%7C0%7C0%7C0&br=312&bt=156&ds=5&ft=.cwOVInz7ThO4yIOXq8Zmo&qs=13&rc=M21uOXU5cnJsdzUzNzhoM0BpM21uOXU5cnJsdzUzNzhoM0BmcGtuMmQ0XjVgLS1kLjZzYSNmcGtuMmQ0XjVgLS1kLjZzcw%3D%3D&vvpl=1&l=02173337122257200000000000000000000ffff0a00803a2671ba&btag=e00070000&format=mp3&mime_type=audio_mpeg",
        "source_timerange": {
            "start_offset": 0,
            "end_offset": 1.6320000000000001
        },
        "target_timerange": {
            "start_offset": 143.496,
            "end_offset": 145.12800000000001
        },
        "ignore_audio": false,
        "audio_path": null
    },
    {
        "segment_id": "7f42ca9eb2bd11ef98c9b8cef650d1f4",
        "text": "Only think what an establishment",
        "audio_url": "https://v16m-default.akamaized.net/b76ea8024b9837bd1c2221dfef84fae1/675179c3/video/tos/maliva/tos-maliva-v-f15faa-us/oIBSOBQVYWlEBYAE4AiizARZmIE4Pb1C44UpJ/?a=7073&bti=OTU0QDItLmA%3D&ch=0&cr=0&dr=4&er=0&lr=unwatermarked&cd=0%7C0%7C0%7C0&br=312&bt=156&ds=5&ft=.cwOVInz7ThO4yIOXq8Zmo&qs=13&rc=M2hmdHI5cnJsdzUzNzhoM0BpM2hmdHI5cnJsdzUzNzhoM0BwZGJhMmQ0XjVgLS1kLjZzYSNwZGJhMmQ0XjVgLS1kLjZzcw%3D%3D&vvpl=1&l=02173337122257200000000000000000000ffff0a00803a2671ba&btag=e00070000&format=mp3&mime_type=audio_mpeg",
        "source_timerange": {
            "start_offset": 0,
            "end_offset": 1.4880000000000004
        },
        "target_timerange": {
            "start_offset": 145.12800000000001,
            "end_offset": 146.616
        },
        "ignore_audio": false,
        "audio_path": null
    },
    {
        "segment_id": "7f42cba2b2bd11ef98c9b8cef650d1f4",
        "text": "it would be for one of them.",
        "audio_url": "https://v16m-default.akamaized.net/b76ea8024b9837bd1c2221dfef84fae1/675179c3/video/tos/maliva/tos-maliva-v-f15faa-us/oIBSOBQVYWlEBYAE4AiizARZmIE4Pb1C44UpJ/?a=7073&bti=OTU0QDItLmA%3D&ch=0&cr=0&dr=4&er=0&lr=unwatermarked&cd=0%7C0%7C0%7C0&br=312&bt=156&ds=5&ft=.cwOVInz7ThO4yIOXq8Zmo&qs=13&rc=M2hmdHI5cnJsdzUzNzhoM0BpM2hmdHI5cnJsdzUzNzhoM0BwZGJhMmQ0XjVgLS1kLjZzYSNwZGJhMmQ0XjVgLS1kLjZzcw%3D%3D&vvpl=1&l=02173337122257200000000000000000000ffff0a00803a2671ba&btag=e00070000&format=mp3&mime_type=audio_mpeg",
        "source_timerange": {
            "start_offset": 1.4879999999999995,
            "end_offset": 2.976
        },
        "target_timerange": {
            "start_offset": 146.616,
            "end_offset": 148.104
        },
        "ignore_audio": true,
        "audio_path": null
    },
    {
        "segment_id": "7f42e056b2bd11ef98c9b8cef650d1f4",
        "text": "Sir William and Lady Lucas",
        "audio_url": "https://v16m-default.akamaized.net/46f8dd9a7de731e7a7cf356ee7565cfa/675179c9/video/tos/maliva/tos-maliva-v-f15faa-us/ogBAEBLF7EAzBVAQ4BhUvVES4eJgDf8BJWBnYR/?a=7073&bti=OTU0QDItLmA%3D&ch=0&cr=0&dr=4&er=0&lr=unwatermarked&cd=0%7C0%7C0%7C0&br=312&bt=156&ds=5&ft=.cwOVInz7ThO4yIOXq8Zmo&qs=13&rc=M3E2NnM5cnJsdzUzNzhoM0BpM3E2NnM5cnJsdzUzNzhoM0Bzby1yMmQ0XjVgLS1kLjZzYSNzby1yMmQ0XjVgLS1kLjZzcw%3D%3D&vvpl=1&l=02173337122257200000000000000000000ffff0a00803a2671ba&btag=e00070000&format=mp3&mime_type=audio_mpeg",
        "source_timerange": {
            "start_offset": 0,
            "end_offset": 1.6367999999999974
        },
        "target_timerange": {
            "start_offset": 148.104,
            "end_offset": 149.7408
        },
        "ignore_audio": false,
        "audio_path": null
    },
    {
        "segment_id": "7f42e1f0b2bd11ef98c9b8cef650d1f4",
        "text": "are determined to go,",
        "audio_url": "https://v16m-default.akamaized.net/46f8dd9a7de731e7a7cf356ee7565cfa/675179c9/video/tos/maliva/tos-maliva-v-f15faa-us/ogBAEBLF7EAzBVAQ4BhUvVES4eJgDf8BJWBnYR/?a=7073&bti=OTU0QDItLmA%3D&ch=0&cr=0&dr=4&er=0&lr=unwatermarked&cd=0%7C0%7C0%7C0&br=312&bt=156&ds=5&ft=.cwOVInz7ThO4yIOXq8Zmo&qs=13&rc=M3E2NnM5cnJsdzUzNzhoM0BpM3E2NnM5cnJsdzUzNzhoM0Bzby1yMmQ0XjVgLS1kLjZzYSNzby1yMmQ0XjVgLS1kLjZzcw%3D%3D&vvpl=1&l=02173337122257200000000000000000000ffff0a00803a2671ba&btag=e00070000&format=mp3&mime_type=audio_mpeg",
        "source_timerange": {
            "start_offset": 1.6367999999999938,
            "end_offset": 3.273599999999991
        },
        "target_timerange": {
            "start_offset": 149.7408,
            "end_offset": 151.3776
        },
        "ignore_audio": true,
        "audio_path": null
    },
    {
        "segment_id": "7f42e330b2bd11ef98c9b8cef650d1f4",
        "text": "merely on that account; for",
        "audio_url": "https://v16m-default.akamaized.net/46f8dd9a7de731e7a7cf356ee7565cfa/675179c9/video/tos/maliva/tos-maliva-v-f15faa-us/ogBAEBLF7EAzBVAQ4BhUvVES4eJgDf8BJWBnYR/?a=7073&bti=OTU0QDItLmA%3D&ch=0&cr=0&dr=4&er=0&lr=unwatermarked&cd=0%7C0%7C0%7C0&br=312&bt=156&ds=5&ft=.cwOVInz7ThO4yIOXq8Zmo&qs=13&rc=M3E2NnM5cnJsdzUzNzhoM0BpM3E2NnM5cnJsdzUzNzhoM0Bzby1yMmQ0XjVgLS1kLjZzYSNzby1yMmQ0XjVgLS1kLjZzcw%3D%3D&vvpl=1&l=02173337122257200000000000000000000ffff0a00803a2671ba&btag=e00070000&format=mp3&mime_type=audio_mpeg",
        "source_timerange": {
            "start_offset": 3.2735999999999876,
            "end_offset": 4.910400000000013
        },
        "target_timerange": {
            "start_offset": 151.3776,
            "end_offset": 153.01440000000002
        },
        "ignore_audio": true,
        "audio_path": null
    },
    {
        "segment_id": "7f42e42ab2bd11ef98c9b8cef650d1f4",
        "text": "in general, you know, they",
        "audio_url": "https://v16m-default.akamaized.net/46f8dd9a7de731e7a7cf356ee7565cfa/675179c9/video/tos/maliva/tos-maliva-v-f15faa-us/ogBAEBLF7EAzBVAQ4BhUvVES4eJgDf8BJWBnYR/?a=7073&bti=OTU0QDItLmA%3D&ch=0&cr=0&dr=4&er=0&lr=unwatermarked&cd=0%7C0%7C0%7C0&br=312&bt=156&ds=5&ft=.cwOVInz7ThO4yIOXq8Zmo&qs=13&rc=M3E2NnM5cnJsdzUzNzhoM0BpM3E2NnM5cnJsdzUzNzhoM0Bzby1yMmQ0XjVgLS1kLjZzYSNzby1yMmQ0XjVgLS1kLjZzcw%3D%3D&vvpl=1&l=02173337122257200000000000000000000ffff0a00803a2671ba&btag=e00070000&format=mp3&mime_type=audio_mpeg",
        "source_timerange": {
            "start_offset": 4.91040000000001,
            "end_offset": 6.547200000000007
        },
        "target_timerange": {
            "start_offset": 153.01440000000002,
            "end_offset": 154.65120000000002
        },
        "ignore_audio": true,
        "audio_path": null
    },
    {
        "segment_id": "7f42e52eb2bd11ef98c9b8cef650d1f4",
        "text": "visit no new comers.",
        "audio_url": "https://v16m-default.akamaized.net/46f8dd9a7de731e7a7cf356ee7565cfa/675179c9/video/tos/maliva/tos-maliva-v-f15faa-us/ogBAEBLF7EAzBVAQ4BhUvVES4eJgDf8BJWBnYR/?a=7073&bti=OTU0QDItLmA%3D&ch=0&cr=0&dr=4&er=0&lr=unwatermarked&cd=0%7C0%7C0%7C0&br=312&bt=156&ds=5&ft=.cwOVInz7ThO4yIOXq8Zmo&qs=13&rc=M3E2NnM5cnJsdzUzNzhoM0BpM3E2NnM5cnJsdzUzNzhoM0Bzby1yMmQ0XjVgLS1kLjZzYSNzby1yMmQ0XjVgLS1kLjZzcw%3D%3D&vvpl=1&l=02173337122257200000000000000000000ffff0a00803a2671ba&btag=e00070000&format=mp3&mime_type=audio_mpeg",
        "source_timerange": {
            "start_offset": 6.547200000000004,
            "end_offset": 8.184000000000001
        },
        "target_timerange": {
            "start_offset": 154.65120000000002,
            "end_offset": 156.288
        },
        "ignore_audio": true,
        "audio_path": null
    },
    {
        "segment_id": "7f42f316b2bd11ef98c9b8cef650d1f4",
        "text": "Indeed you must go, for it will",
        "audio_url": "https://v16m-default.akamaized.net/ad94da4184fb17aa12bb36b27a14c2b7/675179c5/video/tos/maliva/tos-maliva-v-f15faa-us/o8WRVnAeUBlEhJb8BLEAEwVfgJAQAFEDAdJBiS/?a=7073&bti=OTU0QDItLmA%3D&ch=0&cr=0&dr=4&er=0&lr=unwatermarked&cd=0%7C0%7C0%7C0&br=312&bt=156&ds=5&ft=.cwOVInz7ThO4yIOXq8Zmo&qs=13&rc=Mzc4PHI5cnJsdzUzNzhoM0BpMzc4PHI5cnJsdzUzNzhoM0BlbjZjMmQ0XjVgLS1kLjZzYSNlbjZjMmQ0XjVgLS1kLjZzcw%3D%3D&vvpl=1&l=02173337122257200000000000000000000ffff0a00803a2671ba&btag=e00070000&format=mp3&mime_type=audio_mpeg",
        "source_timerange": {
            "start_offset": 0,
            "end_offset": 1.6399999999999988
        },
        "target_timerange": {
            "start_offset": 156.288,
            "end_offset": 157.928
        },
        "ignore_audio": false,
        "audio_path": null
    },
    {
        "segment_id": "7f42f424b2bd11ef98c9b8cef650d1f4",
        "text": "be impossible for _us_ to visit",
        "audio_url": "https://v16m-default.akamaized.net/ad94da4184fb17aa12bb36b27a14c2b7/675179c5/video/tos/maliva/tos-maliva-v-f15faa-us/o8WRVnAeUBlEhJb8BLEAEwVfgJAQAFEDAdJBiS/?a=7073&bti=OTU0QDItLmA%3D&ch=0&cr=0&dr=4&er=0&lr=unwatermarked&cd=0%7C0%7C0%7C0&br=312&bt=156&ds=5&ft=.cwOVInz7ThO4yIOXq8Zmo&qs=13&rc=Mzc4PHI5cnJsdzUzNzhoM0BpMzc4PHI5cnJsdzUzNzhoM0BlbjZjMmQ0XjVgLS1kLjZzYSNlbjZjMmQ0XjVgLS1kLjZzcw%3D%3D&vvpl=1&l=02173337122257200000000000000000000ffff0a00803a2671ba&btag=e00070000&format=mp3&mime_type=audio_mpeg",
        "source_timerange": {
            "start_offset": 1.6399999999999864,
            "end_offset": 3.2800000000000136
        },
        "target_timerange": {
            "start_offset": 157.928,
            "end_offset": 159.568
        },
        "ignore_audio": true,
        "audio_path": null
    },
    {
        "segment_id": "7f42f50ab2bd11ef98c9b8cef650d1f4",
        "text": "him, if you do not.”",
        "audio_url": "https://v16m-default.akamaized.net/ad94da4184fb17aa12bb36b27a14c2b7/675179c5/video/tos/maliva/tos-maliva-v-f15faa-us/o8WRVnAeUBlEhJb8BLEAEwVfgJAQAFEDAdJBiS/?a=7073&bti=OTU0QDItLmA%3D&ch=0&cr=0&dr=4&er=0&lr=unwatermarked&cd=0%7C0%7C0%7C0&br=312&bt=156&ds=5&ft=.cwOVInz7ThO4yIOXq8Zmo&qs=13&rc=Mzc4PHI5cnJsdzUzNzhoM0BpMzc4PHI5cnJsdzUzNzhoM0BlbjZjMmQ0XjVgLS1kLjZzYSNlbjZjMmQ0XjVgLS1kLjZzcw%3D%3D&vvpl=1&l=02173337122257200000000000000000000ffff0a00803a2671ba&btag=e00070000&format=mp3&mime_type=audio_mpeg",
        "source_timerange": {
            "start_offset": 3.280000000000001,
            "end_offset": 4.92
        },
        "target_timerange": {
            "start_offset": 159.568,
            "end_offset": 161.208
        },
        "ignore_audio": true,
        "audio_path": null
    },
    {
        "segment_id": "7f42fb04b2bd11ef98c9b8cef650d1f4",
        "text": "“You are over scrupulous, surely.",
        "audio_url": "https://v16m-default.akamaized.net/6e6b7b733a56c966cf7f7b16d79fce46/675179c3/video/tos/maliva/tos-maliva-v-f15faa-us/o0A0SSMPDICswiiVLAFAJeVhMBfTnABIEUQ4hU/?a=7073&bti=OTU0QDItLmA%3D&ch=0&cr=0&dr=4&er=0&lr=unwatermarked&cd=0%7C0%7C0%7C0&br=312&bt=156&ds=5&ft=.cwOVInz7ThO4yIOXq8Zmo&qs=13&rc=Mzk7eWs5cnJsdzUzNzhoM0BpMzk7eWs5cnJsdzUzNzhoM0BgLTAwMmRjXjVgLS1kLjZzYSNgLTAwMmRjXjVgLS1kLjZzcw%3D%3D&vvpl=1&l=02173337122257200000000000000000000ffff0a00803a2671ba&btag=e00070000&format=mp3&mime_type=audio_mpeg",
        "source_timerange": {
            "start_offset": 0,
            "end_offset": 2.136
        },
        "target_timerange": {
            "start_offset": 161.208,
            "end_offset": 163.344
        },
        "ignore_audio": false,
        "audio_path": null
    },
    {
        "segment_id": "7f432ac0b2bd11ef98c9b8cef650d1f4",
        "text": "I dare say Mr. Bingley will",
        "audio_url": "https://v16m-default.akamaized.net/e76a336392b3bac65466e269cb9c547f/675179d3/video/tos/maliva/tos-maliva-v-f15faa-us/oQVUDfehhEmJEWJROAnQFBLRECVSLAokBBGAdG/?a=7073&bti=OTU0QDItLmA%3D&ch=0&cr=0&dr=4&er=0&lr=unwatermarked&cd=0%7C0%7C0%7C0&br=312&bt=156&ds=5&ft=.cwOVInz7Thy4yIOXq8Zmo&qs=13&rc=M2twNXg5cnJsdzUzNzhoM0BpM2twNXg5cnJsdzUzNzhoM0BmZG80MmRjXjVgLS1kLjZzYSNmZG80MmRjXjVgLS1kLjZzcw%3D%3D&vvpl=1&l=02173337122257200000000000000000000ffff0a00803a2671ba&btag=e00070000&format=mp3&mime_type=audio_mpeg",
        "source_timerange": {
            "start_offset": 0,
            "end_offset": 1.437599999999998
        },
        "target_timerange": {
            "start_offset": 163.344,
            "end_offset": 164.7816
        },
        "ignore_audio": false,
        "audio_path": null
    },
    {
        "segment_id": "7f432caab2bd11ef98c9b8cef650d1f4",
        "text": "be very glad to see you; and",
        "audio_url": "https://v16m-default.akamaized.net/e76a336392b3bac65466e269cb9c547f/675179d3/video/tos/maliva/tos-maliva-v-f15faa-us/oQVUDfehhEmJEWJROAnQFBLRECVSLAokBBGAdG/?a=7073&bti=OTU0QDItLmA%3D&ch=0&cr=0&dr=4&er=0&lr=unwatermarked&cd=0%7C0%7C0%7C0&br=312&bt=156&ds=5&ft=.cwOVInz7Thy4yIOXq8Zmo&qs=13&rc=M2twNXg5cnJsdzUzNzhoM0BpM2twNXg5cnJsdzUzNzhoM0BmZG80MmRjXjVgLS1kLjZzYSNmZG80MmRjXjVgLS1kLjZzcw%3D%3D&vvpl=1&l=02173337122257200000000000000000000ffff0a00803a2671ba&btag=e00070000&format=mp3&mime_type=audio_mpeg",
        "source_timerange": {
            "start_offset": 1.4376000000000033,
            "end_offset": 2.8752000000000013
        },
        "target_timerange": {
            "start_offset": 164.7816,
            "end_offset": 166.2192
        },
        "ignore_audio": true,
        "audio_path": null
    },
    {
        "segment_id": "7f432e30b2bd11ef98c9b8cef650d1f4",
        "text": "I will send a few lines by",
        "audio_url": "https://v16m-default.akamaized.net/e76a336392b3bac65466e269cb9c547f/675179d3/video/tos/maliva/tos-maliva-v-f15faa-us/oQVUDfehhEmJEWJROAnQFBLRECVSLAokBBGAdG/?a=7073&bti=OTU0QDItLmA%3D&ch=0&cr=0&dr=4&er=0&lr=unwatermarked&cd=0%7C0%7C0%7C0&br=312&bt=156&ds=5&ft=.cwOVInz7Thy4yIOXq8Zmo&qs=13&rc=M2twNXg5cnJsdzUzNzhoM0BpM2twNXg5cnJsdzUzNzhoM0BmZG80MmRjXjVgLS1kLjZzYSNmZG80MmRjXjVgLS1kLjZzcw%3D%3D&vvpl=1&l=02173337122257200000000000000000000ffff0a00803a2671ba&btag=e00070000&format=mp3&mime_type=audio_mpeg",
        "source_timerange": {
            "start_offset": 2.8752000000000066,
            "end_offset": 4.312800000000005
        },
        "target_timerange": {
            "start_offset": 166.2192,
            "end_offset": 167.6568
        },
        "ignore_audio": true,
        "audio_path": null
    },
    {
        "segment_id": "7f432fdeb2bd11ef98c9b8cef650d1f4",
        "text": "you to assure him of my",
        "audio_url": "https://v16m-default.akamaized.net/e76a336392b3bac65466e269cb9c547f/675179d3/video/tos/maliva/tos-maliva-v-f15faa-us/oQVUDfehhEmJEWJROAnQFBLRECVSLAokBBGAdG/?a=7073&bti=OTU0QDItLmA%3D&ch=0&cr=0&dr=4&er=0&lr=unwatermarked&cd=0%7C0%7C0%7C0&br=312&bt=156&ds=5&ft=.cwOVInz7Thy4yIOXq8Zmo&qs=13&rc=M2twNXg5cnJsdzUzNzhoM0BpM2twNXg5cnJsdzUzNzhoM0BmZG80MmRjXjVgLS1kLjZzYSNmZG80MmRjXjVgLS1kLjZzcw%3D%3D&vvpl=1&l=02173337122257200000000000000000000ffff0a00803a2671ba&btag=e00070000&format=mp3&mime_type=audio_mpeg",
        "source_timerange": {
            "start_offset": 4.31280000000001,
            "end_offset": 5.750400000000008
        },
        "target_timerange": {
            "start_offset": 167.6568,
            "end_offset": 169.0944
        },
        "ignore_audio": true,
        "audio_path": null
    },
    {
        "segment_id": "7f433128b2bd11ef98c9b8cef650d1f4",
        "text": "hearty consent to his",
        "audio_url": "https://v16m-default.akamaized.net/e76a336392b3bac65466e269cb9c547f/675179d3/video/tos/maliva/tos-maliva-v-f15faa-us/oQVUDfehhEmJEWJROAnQFBLRECVSLAokBBGAdG/?a=7073&bti=OTU0QDItLmA%3D&ch=0&cr=0&dr=4&er=0&lr=unwatermarked&cd=0%7C0%7C0%7C0&br=312&bt=156&ds=5&ft=.cwOVInz7Thy4yIOXq8Zmo&qs=13&rc=M2twNXg5cnJsdzUzNzhoM0BpM2twNXg5cnJsdzUzNzhoM0BmZG80MmRjXjVgLS1kLjZzYSNmZG80MmRjXjVgLS1kLjZzcw%3D%3D&vvpl=1&l=02173337122257200000000000000000000ffff0a00803a2671ba&btag=e00070000&format=mp3&mime_type=audio_mpeg",
        "source_timerange": {
            "start_offset": 5.750400000000013,
            "end_offset": 7.187999999999983
        },
        "target_timerange": {
            "start_offset": 169.0944,
            "end_offset": 170.53199999999998
        },
        "ignore_audio": true,
        "audio_path": null
    },
    {
        "segment_id": "7f43320eb2bd11ef98c9b8cef650d1f4",
        "text": "marrying whichever he chooses",
        "audio_url": "https://v16m-default.akamaized.net/e76a336392b3bac65466e269cb9c547f/675179d3/video/tos/maliva/tos-maliva-v-f15faa-us/oQVUDfehhEmJEWJROAnQFBLRECVSLAokBBGAdG/?a=7073&bti=OTU0QDItLmA%3D&ch=0&cr=0&dr=4&er=0&lr=unwatermarked&cd=0%7C0%7C0%7C0&br=312&bt=156&ds=5&ft=.cwOVInz7Thy4yIOXq8Zmo&qs=13&rc=M2twNXg5cnJsdzUzNzhoM0BpM2twNXg5cnJsdzUzNzhoM0BmZG80MmRjXjVgLS1kLjZzYSNmZG80MmRjXjVgLS1kLjZzcw%3D%3D&vvpl=1&l=02173337122257200000000000000000000ffff0a00803a2671ba&btag=e00070000&format=mp3&mime_type=audio_mpeg",
        "source_timerange": {
            "start_offset": 7.187999999999988,
            "end_offset": 8.625599999999986
        },
        "target_timerange": {
            "start_offset": 170.53199999999998,
            "end_offset": 171.96959999999999
        },
        "ignore_audio": true,
        "audio_path": null
    },
    {
        "segment_id": "7f4332eab2bd11ef98c9b8cef650d1f4",
        "text": "of the girls--though I must",
        "audio_url": "https://v16m-default.akamaized.net/e76a336392b3bac65466e269cb9c547f/675179d3/video/tos/maliva/tos-maliva-v-f15faa-us/oQVUDfehhEmJEWJROAnQFBLRECVSLAokBBGAdG/?a=7073&bti=OTU0QDItLmA%3D&ch=0&cr=0&dr=4&er=0&lr=unwatermarked&cd=0%7C0%7C0%7C0&br=312&bt=156&ds=5&ft=.cwOVInz7Thy4yIOXq8Zmo&qs=13&rc=M2twNXg5cnJsdzUzNzhoM0BpM2twNXg5cnJsdzUzNzhoM0BmZG80MmRjXjVgLS1kLjZzYSNmZG80MmRjXjVgLS1kLjZzcw%3D%3D&vvpl=1&l=02173337122257200000000000000000000ffff0a00803a2671ba&btag=e00070000&format=mp3&mime_type=audio_mpeg",
        "source_timerange": {
            "start_offset": 8.625599999999991,
            "end_offset": 10.06319999999999
        },
        "target_timerange": {
            "start_offset": 171.96959999999999,
            "end_offset": 173.4072
        },
        "ignore_audio": true,
        "audio_path": null
    },
    {
        "segment_id": "7f4333b2b2bd11ef98c9b8cef650d1f4",
        "text": "throw in a good word for my",
        "audio_url": "https://v16m-default.akamaized.net/e76a336392b3bac65466e269cb9c547f/675179d3/video/tos/maliva/tos-maliva-v-f15faa-us/oQVUDfehhEmJEWJROAnQFBLRECVSLAokBBGAdG/?a=7073&bti=OTU0QDItLmA%3D&ch=0&cr=0&dr=4&er=0&lr=unwatermarked&cd=0%7C0%7C0%7C0&br=312&bt=156&ds=5&ft=.cwOVInz7Thy4yIOXq8Zmo&qs=13&rc=M2twNXg5cnJsdzUzNzhoM0BpM2twNXg5cnJsdzUzNzhoM0BmZG80MmRjXjVgLS1kLjZzYSNmZG80MmRjXjVgLS1kLjZzcw%3D%3D&vvpl=1&l=02173337122257200000000000000000000ffff0a00803a2671ba&btag=e00070000&format=mp3&mime_type=audio_mpeg",
        "source_timerange": {
            "start_offset": 10.063199999999995,
            "end_offset": 11.500799999999993
        },
        "target_timerange": {
            "start_offset": 173.4072,
            "end_offset": 174.8448
        },
        "ignore_audio": true,
        "audio_path": null
    },
    {
        "segment_id": "7f433484b2bd11ef98c9b8cef650d1f4",
        "text": "little Lizzy.”  “I desire you",
        "audio_url": "https://v16m-default.akamaized.net/e76a336392b3bac65466e269cb9c547f/675179d3/video/tos/maliva/tos-maliva-v-f15faa-us/oQVUDfehhEmJEWJROAnQFBLRECVSLAokBBGAdG/?a=7073&bti=OTU0QDItLmA%3D&ch=0&cr=0&dr=4&er=0&lr=unwatermarked&cd=0%7C0%7C0%7C0&br=312&bt=156&ds=5&ft=.cwOVInz7Thy4yIOXq8Zmo&qs=13&rc=M2twNXg5cnJsdzUzNzhoM0BpM2twNXg5cnJsdzUzNzhoM0BmZG80MmRjXjVgLS1kLjZzYSNmZG80MmRjXjVgLS1kLjZzcw%3D%3D&vvpl=1&l=02173337122257200000000000000000000ffff0a00803a2671ba&btag=e00070000&format=mp3&mime_type=audio_mpeg",
        "source_timerange": {
            "start_offset": 11.500799999999998,
            "end_offset": 12.938399999999996
        },
        "target_timerange": {
            "start_offset": 174.8448,
            "end_offset": 176.2824
        },
        "ignore_audio": true,
        "audio_path": null
    },
    {
        "segment_id": "7f433556b2bd11ef98c9b8cef650d1f4",
        "text": "will do no such thing.",
        "audio_url": "https://v16m-default.akamaized.net/e76a336392b3bac65466e269cb9c547f/675179d3/video/tos/maliva/tos-maliva-v-f15faa-us/oQVUDfehhEmJEWJROAnQFBLRECVSLAokBBGAdG/?a=7073&bti=OTU0QDItLmA%3D&ch=0&cr=0&dr=4&er=0&lr=unwatermarked&cd=0%7C0%7C0%7C0&br=312&bt=156&ds=5&ft=.cwOVInz7Thy4yIOXq8Zmo&qs=13&rc=M2twNXg5cnJsdzUzNzhoM0BpM2twNXg5cnJsdzUzNzhoM0BmZG80MmRjXjVgLS1kLjZzYSNmZG80MmRjXjVgLS1kLjZzcw%3D%3D&vvpl=1&l=02173337122257200000000000000000000ffff0a00803a2671ba&btag=e00070000&format=mp3&mime_type=audio_mpeg",
        "source_timerange": {
            "start_offset": 12.938400000000001,
            "end_offset": 14.376
        },
        "target_timerange": {
            "start_offset": 176.2824,
            "end_offset": 177.72
        },
        "ignore_audio": true,
        "audio_path": null
    },
    {
        "segment_id": "7f4349e2b2bd11ef98c9b8cef650d1f4",
        "text": "Lizzy is not a bit better",
        "audio_url": "https://v16m-default.akamaized.net/f03d809083520cbb92678aba75026d58/675179c9/video/tos/maliva/tos-maliva-v-f15faa-us/ocmafLDUBJBBWFVdnqfhVAJhQE0RBXFEAAqSE2/?a=7073&bti=OTU0QDItLmA%3D&ch=0&cr=0&dr=4&er=0&lr=unwatermarked&cd=0%7C0%7C0%7C0&br=312&bt=156&ds=5&ft=.cwOVInz7ThO4yIOXq8Zmo&qs=13&rc=anl1bG85cnJsdzUzNzhoM0Bpanl1bG85cnJsdzUzNzhoM0AtanFeMmRjXjVgLS1kLjZzYSMtanFeMmRjXjVgLS1kLjZzcw%3D%3D&vvpl=1&l=02173337122257200000000000000000000ffff0a00803a2671ba&btag=e00070000&format=mp3&mime_type=audio_mpeg",
        "source_timerange": {
            "start_offset": 0,
            "end_offset": 1.6320000000000086
        },
        "target_timerange": {
            "start_offset": 177.72,
            "end_offset": 179.352
        },
        "ignore_audio": false,
        "audio_path": null
    },
    {
        "segment_id": "7f434af0b2bd11ef98c9b8cef650d1f4",
        "text": "than the others: and I am",
        "audio_url": "https://v16m-default.akamaized.net/f03d809083520cbb92678aba75026d58/675179c9/video/tos/maliva/tos-maliva-v-f15faa-us/ocmafLDUBJBBWFVdnqfhVAJhQE0RBXFEAAqSE2/?a=7073&bti=OTU0QDItLmA%3D&ch=0&cr=0&dr=4&er=0&lr=unwatermarked&cd=0%7C0%7C0%7C0&br=312&bt=156&ds=5&ft=.cwOVInz7ThO4yIOXq8Zmo&qs=13&rc=anl1bG85cnJsdzUzNzhoM0Bpanl1bG85cnJsdzUzNzhoM0AtanFeMmRjXjVgLS1kLjZzYSMtanFeMmRjXjVgLS1kLjZzcw%3D%3D&vvpl=1&l=02173337122257200000000000000000000ffff0a00803a2671ba&btag=e00070000&format=mp3&mime_type=audio_mpeg",
        "source_timerange": {
            "start_offset": 1.632000000000005,
            "end_offset": 3.2640000000000136
        },
        "target_timerange": {
            "start_offset": 179.352,
            "end_offset": 180.984
        },
        "ignore_audio": true,
        "audio_path": null
    },
    {
        "segment_id": "7f434be0b2bd11ef98c9b8cef650d1f4",
        "text": "sure she is not half so",
        "audio_url": "https://v16m-default.akamaized.net/f03d809083520cbb92678aba75026d58/675179c9/video/tos/maliva/tos-maliva-v-f15faa-us/ocmafLDUBJBBWFVdnqfhVAJhQE0RBXFEAAqSE2/?a=7073&bti=OTU0QDItLmA%3D&ch=0&cr=0&dr=4&er=0&lr=unwatermarked&cd=0%7C0%7C0%7C0&br=312&bt=156&ds=5&ft=.cwOVInz7ThO4yIOXq8Zmo&qs=13&rc=anl1bG85cnJsdzUzNzhoM0Bpanl1bG85cnJsdzUzNzhoM0AtanFeMmRjXjVgLS1kLjZzYSMtanFeMmRjXjVgLS1kLjZzcw%3D%3D&vvpl=1&l=02173337122257200000000000000000000ffff0a00803a2671ba&btag=e00070000&format=mp3&mime_type=audio_mpeg",
        "source_timerange": {
            "start_offset": 3.26400000000001,
            "end_offset": 4.89599999999999
        },
        "target_timerange": {
            "start_offset": 180.984,
            "end_offset": 182.61599999999999
        },
        "ignore_audio": true,
        "audio_path": null
    },
    {
        "segment_id": "7f434cd0b2bd11ef98c9b8cef650d1f4",
        "text": "handsome as Jane, nor half",
        "audio_url": "https://v16m-default.akamaized.net/f03d809083520cbb92678aba75026d58/675179c9/video/tos/maliva/tos-maliva-v-f15faa-us/ocmafLDUBJBBWFVdnqfhVAJhQE0RBXFEAAqSE2/?a=7073&bti=OTU0QDItLmA%3D&ch=0&cr=0&dr=4&er=0&lr=unwatermarked&cd=0%7C0%7C0%7C0&br=312&bt=156&ds=5&ft=.cwOVInz7ThO4yIOXq8Zmo&qs=13&rc=anl1bG85cnJsdzUzNzhoM0Bpanl1bG85cnJsdzUzNzhoM0AtanFeMmRjXjVgLS1kLjZzYSMtanFeMmRjXjVgLS1kLjZzcw%3D%3D&vvpl=1&l=02173337122257200000000000000000000ffff0a00803a2671ba&btag=e00070000&format=mp3&mime_type=audio_mpeg",
        "source_timerange": {
            "start_offset": 4.895999999999987,
            "end_offset": 6.527999999999995
        },
        "target_timerange": {
            "start_offset": 182.61599999999999,
            "end_offset": 184.248
        },
        "ignore_audio": true,
        "audio_path": null
    },
    {
        "segment_id": "7f434dacb2bd11ef98c9b8cef650d1f4",
        "text": "so good-humoured as Lydia.",
        "audio_url": "https://v16m-default.akamaized.net/f03d809083520cbb92678aba75026d58/675179c9/video/tos/maliva/tos-maliva-v-f15faa-us/ocmafLDUBJBBWFVdnqfhVAJhQE0RBXFEAAqSE2/?a=7073&bti=OTU0QDItLmA%3D&ch=0&cr=0&dr=4&er=0&lr=unwatermarked&cd=0%7C0%7C0%7C0&br=312&bt=156&ds=5&ft=.cwOVInz7ThO4yIOXq8Zmo&qs=13&rc=anl1bG85cnJsdzUzNzhoM0Bpanl1bG85cnJsdzUzNzhoM0AtanFeMmRjXjVgLS1kLjZzYSMtanFeMmRjXjVgLS1kLjZzcw%3D%3D&vvpl=1&l=02173337122257200000000000000000000ffff0a00803a2671ba&btag=e00070000&format=mp3&mime_type=audio_mpeg",
        "source_timerange": {
            "start_offset": 6.527999999999992,
            "end_offset": 8.16
        },
        "target_timerange": {
            "start_offset": 184.248,
            "end_offset": 185.88
        },
        "ignore_audio": true,
        "audio_path": null
    },
    {
        "segment_id": "7f435824b2bd11ef98c9b8cef650d1f4",
        "text": "But you are always giving",
        "audio_url": "https://v16m-default.akamaized.net/4f865693bba21c4e8f4904f9ec5f8eca/675179c3/video/tos/maliva/tos-maliva-v-f15faa-us/oMZwKxAIEiryH0AgJJzwRBWAqEKCkaAfoFNiBq/?a=7073&bti=OTU0QDItLmA%3D&ch=0&cr=0&dr=4&er=0&lr=unwatermarked&cd=0%7C0%7C0%7C0&br=312&bt=156&ds=5&ft=.cwOVInz7ThO4yIOXq8Zmo&qs=13&rc=M2U8ams5cnJsdzUzNzhoM0BpM2U8ams5cnJsdzUzNzhoM0AxaWozMmRjXjVgLS1kLjZzYSMxaWozMmRjXjVgLS1kLjZzcw%3D%3D&vvpl=1&l=02173337122257200000000000000000000ffff0a00803a2671ba&btag=e00070000&format=mp3&mime_type=audio_mpeg",
        "source_timerange": {
            "start_offset": 0,
            "end_offset": 1.1759999999999837
        },
        "target_timerange": {
            "start_offset": 185.88,
            "end_offset": 187.05599999999998
        },
        "ignore_audio": false,
        "audio_path": null
    },
    {
        "segment_id": "7f43596eb2bd11ef98c9b8cef650d1f4",
        "text": "_her_ the preference.”",
        "audio_url": "https://v16m-default.akamaized.net/4f865693bba21c4e8f4904f9ec5f8eca/675179c3/video/tos/maliva/tos-maliva-v-f15faa-us/oMZwKxAIEiryH0AgJJzwRBWAqEKCkaAfoFNiBq/?a=7073&bti=OTU0QDItLmA%3D&ch=0&cr=0&dr=4&er=0&lr=unwatermarked&cd=0%7C0%7C0%7C0&br=312&bt=156&ds=5&ft=.cwOVInz7ThO4yIOXq8Zmo&qs=13&rc=M2U8ams5cnJsdzUzNzhoM0BpM2U8ams5cnJsdzUzNzhoM0AxaWozMmRjXjVgLS1kLjZzYSMxaWozMmRjXjVgLS1kLjZzcw%3D%3D&vvpl=1&l=02173337122257200000000000000000000ffff0a00803a2671ba&btag=e00070000&format=mp3&mime_type=audio_mpeg",
        "source_timerange": {
            "start_offset": 1.1759999999999877,
            "end_offset": 2.352
        },
        "target_timerange": {
            "start_offset": 187.05599999999998,
            "end_offset": 188.232
        },
        "ignore_audio": true,
        "audio_path": null
    },
    {
        "segment_id": "7f437dfeb2bd11ef98c9b8cef650d1f4",
        "text": "“They have none of them much",
        "audio_url": "https://v16m-default.akamaized.net/4d39e203d57347ddfc4ef72692afb98f/675179ce/video/tos/maliva/tos-maliva-v-f15faa-us/ogAqJSH3DEBWKRjVLSFAJvVh0BfHnABEEHQehU/?a=7073&bti=OTU0QDItLmA%3D&ch=0&cr=0&dr=4&er=0&lr=unwatermarked&cd=0%7C0%7C0%7C0&br=312&bt=156&ds=5&ft=.cwOVInz7ThO4yIOXq8Zmo&qs=13&rc=M248eWs5cnJsdzUzNzhoM0BpM248eWs5cnJsdzUzNzhoM0AyMmlxMmRjXjVgLS1kLjZzYSMyMmlxMmRjXjVgLS1kLjZzcw%3D%3D&vvpl=1&l=02173337122257200000000000000000000ffff0a00803a2671ba&btag=e00070000&format=mp3&mime_type=audio_mpeg",
        "source_timerange": {
            "start_offset": 0,
            "end_offset": 1.509333333333327
        },
        "target_timerange": {
            "start_offset": 188.232,
            "end_offset": 189.74133333333333
        },
        "ignore_audio": false,
        "audio_path": null
    },
    {
        "segment_id": "7f437f20b2bd11ef98c9b8cef650d1f4",
        "text": "to recommend them,” replied",
        "audio_url": "https://v16m-default.akamaized.net/4d39e203d57347ddfc4ef72692afb98f/675179ce/video/tos/maliva/tos-maliva-v-f15faa-us/ogAqJSH3DEBWKRjVLSFAJvVh0BfHnABEEHQehU/?a=7073&bti=OTU0QDItLmA%3D&ch=0&cr=0&dr=4&er=0&lr=unwatermarked&cd=0%7C0%7C0%7C0&br=312&bt=156&ds=5&ft=.cwOVInz7ThO4yIOXq8Zmo&qs=13&rc=M248eWs5cnJsdzUzNzhoM0BpM248eWs5cnJsdzUzNzhoM0AyMmlxMmRjXjVgLS1kLjZzYSMyMmlxMmRjXjVgLS1kLjZzcw%3D%3D&vvpl=1&l=02173337122257200000000000000000000ffff0a00803a2671ba&btag=e00070000&format=mp3&mime_type=audio_mpeg",
        "source_timerange": {
            "start_offset": 1.5093333333333305,
            "end_offset": 3.0186666666666575
        },
        "target_timerange": {
            "start_offset": 189.74133333333333,
            "end_offset": 191.25066666666666
        },
        "ignore_audio": true,
        "audio_path": null
    },
    {
        "segment_id": "7f438006b2bd11ef98c9b8cef650d1f4",
        "text": "he: “they are all silly and",
        "audio_url": "https://v16m-default.akamaized.net/4d39e203d57347ddfc4ef72692afb98f/675179ce/video/tos/maliva/tos-maliva-v-f15faa-us/ogAqJSH3DEBWKRjVLSFAJvVh0BfHnABEEHQehU/?a=7073&bti=OTU0QDItLmA%3D&ch=0&cr=0&dr=4&er=0&lr=unwatermarked&cd=0%7C0%7C0%7C0&br=312&bt=156&ds=5&ft=.cwOVInz7ThO4yIOXq8Zmo&qs=13&rc=M248eWs5cnJsdzUzNzhoM0BpM248eWs5cnJsdzUzNzhoM0AyMmlxMmRjXjVgLS1kLjZzYSMyMmlxMmRjXjVgLS1kLjZzcw%3D%3D&vvpl=1&l=02173337122257200000000000000000000ffff0a00803a2671ba&btag=e00070000&format=mp3&mime_type=audio_mpeg",
        "source_timerange": {
            "start_offset": 3.018666666666661,
            "end_offset": 4.527999999999988
        },
        "target_timerange": {
            "start_offset": 191.25066666666666,
            "end_offset": 192.76
        },
        "ignore_audio": true,
        "audio_path": null
    },
    {
        "segment_id": "7f43811eb2bd11ef98c9b8cef650d1f4",
        "text": "ignorant like other girls;",
        "audio_url": "https://v16m-default.akamaized.net/4d39e203d57347ddfc4ef72692afb98f/675179ce/video/tos/maliva/tos-maliva-v-f15faa-us/ogAqJSH3DEBWKRjVLSFAJvVh0BfHnABEEHQehU/?a=7073&bti=OTU0QDItLmA%3D&ch=0&cr=0&dr=4&er=0&lr=unwatermarked&cd=0%7C0%7C0%7C0&br=312&bt=156&ds=5&ft=.cwOVInz7ThO4yIOXq8Zmo&qs=13&rc=M248eWs5cnJsdzUzNzhoM0BpM248eWs5cnJsdzUzNzhoM0AyMmlxMmRjXjVgLS1kLjZzYSMyMmlxMmRjXjVgLS1kLjZzcw%3D%3D&vvpl=1&l=02173337122257200000000000000000000ffff0a00803a2671ba&btag=e00070000&format=mp3&mime_type=audio_mpeg",
        "source_timerange": {
            "start_offset": 4.527999999999992,
            "end_offset": 6.037333333333319
        },
        "target_timerange": {
            "start_offset": 192.76,
            "end_offset": 194.26933333333332
        },
        "ignore_audio": true,
        "audio_path": null
    },
    {
        "segment_id": "7f438222b2bd11ef98c9b8cef650d1f4",
        "text": "but Lizzy has something more",
        "audio_url": "https://v16m-default.akamaized.net/4d39e203d57347ddfc4ef72692afb98f/675179ce/video/tos/maliva/tos-maliva-v-f15faa-us/ogAqJSH3DEBWKRjVLSFAJvVh0BfHnABEEHQehU/?a=7073&bti=OTU0QDItLmA%3D&ch=0&cr=0&dr=4&er=0&lr=unwatermarked&cd=0%7C0%7C0%7C0&br=312&bt=156&ds=5&ft=.cwOVInz7ThO4yIOXq8Zmo&qs=13&rc=M248eWs5cnJsdzUzNzhoM0BpM248eWs5cnJsdzUzNzhoM0AyMmlxMmRjXjVgLS1kLjZzYSMyMmlxMmRjXjVgLS1kLjZzcw%3D%3D&vvpl=1&l=02173337122257200000000000000000000ffff0a00803a2671ba&btag=e00070000&format=mp3&mime_type=audio_mpeg",
        "source_timerange": {
            "start_offset": 6.037333333333322,
            "end_offset": 7.5466666666666775
        },
        "target_timerange": {
            "start_offset": 194.26933333333332,
            "end_offset": 195.77866666666668
        },
        "ignore_audio": true,
        "audio_path": null
    },
    {
        "segment_id": "7f438330b2bd11ef98c9b8cef650d1f4",
        "text": "of quickness than her",
        "audio_url": "https://v16m-default.akamaized.net/4d39e203d57347ddfc4ef72692afb98f/675179ce/video/tos/maliva/tos-maliva-v-f15faa-us/ogAqJSH3DEBWKRjVLSFAJvVh0BfHnABEEHQehU/?a=7073&bti=OTU0QDItLmA%3D&ch=0&cr=0&dr=4&er=0&lr=unwatermarked&cd=0%7C0%7C0%7C0&br=312&bt=156&ds=5&ft=.cwOVInz7ThO4yIOXq8Zmo&qs=13&rc=M248eWs5cnJsdzUzNzhoM0BpM248eWs5cnJsdzUzNzhoM0AyMmlxMmRjXjVgLS1kLjZzYSMyMmlxMmRjXjVgLS1kLjZzcw%3D%3D&vvpl=1&l=02173337122257200000000000000000000ffff0a00803a2671ba&btag=e00070000&format=mp3&mime_type=audio_mpeg",
        "source_timerange": {
            "start_offset": 7.546666666666681,
            "end_offset": 9.056000000000008
        },
        "target_timerange": {
            "start_offset": 195.77866666666668,
            "end_offset": 197.288
        },
        "ignore_audio": true,
        "audio_path": null
    },
    {
        "segment_id": "7f438416b2bd11ef98c9b8cef650d1f4",
        "text": "sisters.”  “Mr. Bennet, how",
        "audio_url": "https://v16m-default.akamaized.net/4d39e203d57347ddfc4ef72692afb98f/675179ce/video/tos/maliva/tos-maliva-v-f15faa-us/ogAqJSH3DEBWKRjVLSFAJvVh0BfHnABEEHQehU/?a=7073&bti=OTU0QDItLmA%3D&ch=0&cr=0&dr=4&er=0&lr=unwatermarked&cd=0%7C0%7C0%7C0&br=312&bt=156&ds=5&ft=.cwOVInz7ThO4yIOXq8Zmo&qs=13&rc=M248eWs5cnJsdzUzNzhoM0BpM248eWs5cnJsdzUzNzhoM0AyMmlxMmRjXjVgLS1kLjZzYSMyMmlxMmRjXjVgLS1kLjZzcw%3D%3D&vvpl=1&l=02173337122257200000000000000000000ffff0a00803a2671ba&btag=e00070000&format=mp3&mime_type=audio_mpeg",
        "source_timerange": {
            "start_offset": 9.056000000000012,
            "end_offset": 10.565333333333339
        },
        "target_timerange": {
            "start_offset": 197.288,
            "end_offset": 198.79733333333334
        },
        "ignore_audio": true,
        "audio_path": null
    },
    {
        "segment_id": "7f4384fcb2bd11ef98c9b8cef650d1f4",
        "text": "can you abuse your own",
        "audio_url": "https://v16m-default.akamaized.net/4d39e203d57347ddfc4ef72692afb98f/675179ce/video/tos/maliva/tos-maliva-v-f15faa-us/ogAqJSH3DEBWKRjVLSFAJvVh0BfHnABEEHQehU/?a=7073&bti=OTU0QDItLmA%3D&ch=0&cr=0&dr=4&er=0&lr=unwatermarked&cd=0%7C0%7C0%7C0&br=312&bt=156&ds=5&ft=.cwOVInz7ThO4yIOXq8Zmo&qs=13&rc=M248eWs5cnJsdzUzNzhoM0BpM248eWs5cnJsdzUzNzhoM0AyMmlxMmRjXjVgLS1kLjZzYSMyMmlxMmRjXjVgLS1kLjZzcw%3D%3D&vvpl=1&l=02173337122257200000000000000000000ffff0a00803a2671ba&btag=e00070000&format=mp3&mime_type=audio_mpeg",
        "source_timerange": {
            "start_offset": 10.565333333333342,
            "end_offset": 12.074666666666669
        },
        "target_timerange": {
            "start_offset": 198.79733333333334,
            "end_offset": 200.30666666666667
        },
        "ignore_audio": true,
        "audio_path": null
    },
    {
        "segment_id": "7f4385d8b2bd11ef98c9b8cef650d1f4",
        "text": "children in such a way?",
        "audio_url": "https://v16m-default.akamaized.net/4d39e203d57347ddfc4ef72692afb98f/675179ce/video/tos/maliva/tos-maliva-v-f15faa-us/ogAqJSH3DEBWKRjVLSFAJvVh0BfHnABEEHQehU/?a=7073&bti=OTU0QDItLmA%3D&ch=0&cr=0&dr=4&er=0&lr=unwatermarked&cd=0%7C0%7C0%7C0&br=312&bt=156&ds=5&ft=.cwOVInz7ThO4yIOXq8Zmo&qs=13&rc=M248eWs5cnJsdzUzNzhoM0BpM248eWs5cnJsdzUzNzhoM0AyMmlxMmRjXjVgLS1kLjZzYSMyMmlxMmRjXjVgLS1kLjZzcw%3D%3D&vvpl=1&l=02173337122257200000000000000000000ffff0a00803a2671ba&btag=e00070000&format=mp3&mime_type=audio_mpeg",
        "source_timerange": {
            "start_offset": 12.074666666666673,
            "end_offset": 13.584
        },
        "target_timerange": {
            "start_offset": 200.30666666666667,
            "end_offset": 201.816
        },
        "ignore_audio": true,
        "audio_path": null
    },
    {
        "segment_id": "7f438bf0b2bd11ef98c9b8cef650d1f4",
        "text": "You take delight in vexing me.",
        "audio_url": "https://v16m-default.akamaized.net/4eb367b4171f1da25230775e58e84936/675179c2/video/tos/maliva/tos-maliva-v-f15faa-us/oEhVARVEShECUAWnLUAEVJeF6fBigEhJBDYBQK/?a=7073&bti=OTU0QDItLmA%3D&ch=0&cr=0&dr=4&er=0&lr=unwatermarked&cd=0%7C0%7C0%7C0&br=312&bt=156&ds=5&ft=.cwOVInz7ThO4yIOXq8Zmo&qs=13&rc=MzVuOmo5cnJsdzUzNzhoM0BpMzVuOmo5cnJsdzUzNzhoM0BgaGZpMmRjXjVgLS1kLjZzYSNgaGZpMmRjXjVgLS1kLjZzcw%3D%3D&vvpl=1&l=02173337122257200000000000000000000ffff0a00803a2671ba&btag=e00070000&format=mp3&mime_type=audio_mpeg",
        "source_timerange": {
            "start_offset": 0,
            "end_offset": 1.848
        },
        "target_timerange": {
            "start_offset": 201.816,
            "end_offset": 203.66400000000002
        },
        "ignore_audio": false,
        "audio_path": null
    },
    {
        "segment_id": "7f439820b2bd11ef98c9b8cef650d1f4",
        "text": "You have no compassion",
        "audio_url": "https://v16m-default.akamaized.net/3c4069defd4ee20b015208f968b361cf/675179c3/video/tos/maliva/tos-maliva-v-f15faa-us/oArRKzGbiFLJFilBUAkEAogJhwAqAlB4wEWfq9/?a=7073&bti=OTU0QDItLmA%3D&ch=0&cr=0&dr=4&er=0&lr=unwatermarked&cd=0%7C0%7C0%7C0&br=312&bt=156&ds=5&ft=.cwOVInz7ThO4yIOXq8Zmo&qs=13&rc=andna3I5cnJsdzUzNzhoM0Bpandna3I5cnJsdzUzNzhoM0BmNmlhMmRjXjVgLS1kLjZzYSNmNmlhMmRjXjVgLS1kLjZzcw%3D%3D&vvpl=1&l=02173337122257200000000000000000000ffff0a00803a2671ba&btag=e00070000&format=mp3&mime_type=audio_mpeg",
        "source_timerange": {
            "start_offset": 0,
            "end_offset": 1.1640000000000126
        },
        "target_timerange": {
            "start_offset": 203.66400000000002,
            "end_offset": 204.828
        },
        "ignore_audio": false,
        "audio_path": null
    },
    {
        "segment_id": "7f439956b2bd11ef98c9b8cef650d1f4",
        "text": "on my poor nerves.”",
        "audio_url": "https://v16m-default.akamaized.net/3c4069defd4ee20b015208f968b361cf/675179c3/video/tos/maliva/tos-maliva-v-f15faa-us/oArRKzGbiFLJFilBUAkEAogJhwAqAlB4wEWfq9/?a=7073&bti=OTU0QDItLmA%3D&ch=0&cr=0&dr=4&er=0&lr=unwatermarked&cd=0%7C0%7C0%7C0&br=312&bt=156&ds=5&ft=.cwOVInz7ThO4yIOXq8Zmo&qs=13&rc=andna3I5cnJsdzUzNzhoM0Bpandna3I5cnJsdzUzNzhoM0BmNmlhMmRjXjVgLS1kLjZzYSNmNmlhMmRjXjVgLS1kLjZzcw%3D%3D&vvpl=1&l=02173337122257200000000000000000000ffff0a00803a2671ba&btag=e00070000&format=mp3&mime_type=audio_mpeg",
        "source_timerange": {
            "start_offset": 1.1639999999999873,
            "end_offset": 2.328
        },
        "target_timerange": {
            "start_offset": 204.828,
            "end_offset": 205.992
        },
        "ignore_audio": true,
        "audio_path": null
    },
    {
        "segment_id": "7f439f3cb2bd11ef98c9b8cef650d1f4",
        "text": "“You mistake me, my dear.",
        "audio_url": "https://v16m-default.akamaized.net/a04bf458a7434ff574e361b04b76ac69/675179c2/video/tos/maliva/tos-maliva-v-f15faa-us/oYFVsAUnUL7gBGhAE2TSCVSBJIifIfFAhhCQID/?a=7073&bti=OTU0QDItLmA%3D&ch=0&cr=0&dr=4&er=0&lr=unwatermarked&cd=0%7C0%7C0%7C0&br=312&bt=156&ds=5&ft=.cwOVInz7ThO4yIOXq8Zmo&qs=13&rc=ajZlZHU5cnJsdzUzNzhoM0BpajZlZHU5cnJsdzUzNzhoM0AtLWA1MmRjXjVgLS1kLjZzYSMtLWA1MmRjXjVgLS1kLjZzcw%3D%3D&vvpl=1&l=02173337122257200000000000000000000ffff0a00803a2671ba&btag=e00070000&format=mp3&mime_type=audio_mpeg",
        "source_timerange": {
            "start_offset": 0,
            "end_offset": 1.536
        },
        "target_timerange": {
            "start_offset": 205.992,
            "end_offset": 207.528
        },
        "ignore_audio": false,
        "audio_path": null
    },
    {
        "segment_id": "7f43a6c6b2bd11ef98c9b8cef650d1f4",
        "text": "I have a high respect for your nerves.",
        "audio_url": "https://v16m-default.akamaized.net/2a726d9969e9257b051e97eee778e672/675179c3/video/tos/maliva/tos-maliva-v-f15faa-us/oIzAigFicEA5BqAoEGwq7KEJyHJwBfcAkWCzqR/?a=7073&bti=OTU0QDItLmA%3D&ch=0&cr=0&dr=4&er=0&lr=unwatermarked&cd=0%7C0%7C0%7C0&br=312&bt=156&ds=5&ft=.cwOVInz7ThO4yIOXq8Zmo&qs=13&rc=anVnZHM5cnJsdzUzNzhoM0BpanVnZHM5cnJsdzUzNzhoM0AwbWovMmRjXjVgLS1kLjZzYSMwbWovMmRjXjVgLS1kLjZzcw%3D%3D&vvpl=1&l=02173337122257200000000000000000000ffff0a00803a2671ba&btag=e00070000&format=mp3&mime_type=audio_mpeg",
        "source_timerange": {
            "start_offset": 0,
            "end_offset": 2.016
        },
        "target_timerange": {
            "start_offset": 207.528,
            "end_offset": 209.544
        },
        "ignore_audio": false,
        "audio_path": null
    },
    {
        "segment_id": "7f43ad2eb2bd11ef98c9b8cef650d1f4",
        "text": "They are my old friends.",
        "audio_url": "https://v16m-default.akamaized.net/2310a2ee47e6ac645aeb7b4d06135b6e/675179c2/video/tos/maliva/tos-maliva-v-f15faa-us/oAWWEciHAEkwd2nRgABFEKq0qtzoJABwAJiRf0/?a=7073&bti=OTU0QDItLmA%3D&ch=0&cr=0&dr=4&er=0&lr=unwatermarked&cd=0%7C0%7C0%7C0&br=312&bt=156&ds=5&ft=.cwOVInz7ThO4yIOXq8Zmo&qs=13&rc=M3A4a245cnJsdzUzNzhoM0BpM3A4a245cnJsdzUzNzhoM0BiYS9qMmRjXjVgLS1kLjZzYSNiYS9qMmRjXjVgLS1kLjZzcw%3D%3D&vvpl=1&l=02173337122257200000000000000000000ffff0a00803a2671ba&btag=e00070000&format=mp3&mime_type=audio_mpeg",
        "source_timerange": {
            "start_offset": 0,
            "end_offset": 1.416
        },
        "target_timerange": {
            "start_offset": 209.544,
            "end_offset": 210.96
        },
        "ignore_audio": false,
        "audio_path": null
    },
    {
        "segment_id": "7f43b7b0b2bd11ef98c9b8cef650d1f4",
        "text": "I have heard you mention them with",
        "audio_url": "https://v16m-default.akamaized.net/ed091c35c688d238efbc3816fb16c3a0/675179c4/video/tos/maliva/tos-maliva-v-f15faa-us/oAWVEJkOhDLWJ2AHASFkBVnABh4QLBqUEefkRE/?a=7073&bti=OTU0QDItLmA%3D&ch=0&cr=0&dr=4&er=0&lr=unwatermarked&cd=0%7C0%7C0%7C0&br=312&bt=156&ds=5&ft=.cwOVInz7ThO4yIOXq8Zmo&qs=13&rc=M2V1cGw5cnJsdzUzNzhoM0BpM2V1cGw5cnJsdzUzNzhoM0BmZG8wMmRjXjVgLS1kLjZzYSNmZG8wMmRjXjVgLS1kLjZzcw%3D%3D&vvpl=1&l=02173337122257200000000000000000000ffff0a00803a2671ba&btag=e00070000&format=mp3&mime_type=audio_mpeg",
        "source_timerange": {
            "start_offset": 0,
            "end_offset": 1.7999999999999887
        },
        "target_timerange": {
            "start_offset": 210.96,
            "end_offset": 212.76
        },
        "ignore_audio": false,
        "audio_path": null
    },
    {
        "segment_id": "7f43faaeb2bd11ef98c9b8cef650d1f4",
        "text": "consideration these twenty years at least.”",
        "audio_url": "https://v16m-default.akamaized.net/ed091c35c688d238efbc3816fb16c3a0/675179c4/video/tos/maliva/tos-maliva-v-f15faa-us/oAWVEJkOhDLWJ2AHASFkBVnABh4QLBqUEefkRE/?a=7073&bti=OTU0QDItLmA%3D&ch=0&cr=0&dr=4&er=0&lr=unwatermarked&cd=0%7C0%7C0%7C0&br=312&bt=156&ds=5&ft=.cwOVInz7ThO4yIOXq8Zmo&qs=13&rc=M2V1cGw5cnJsdzUzNzhoM0BpM2V1cGw5cnJsdzUzNzhoM0BmZG8wMmRjXjVgLS1kLjZzYSNmZG8wMmRjXjVgLS1kLjZzcw%3D%3D&vvpl=1&l=02173337122257200000000000000000000ffff0a00803a2671ba&btag=e00070000&format=mp3&mime_type=audio_mpeg",
        "source_timerange": {
            "start_offset": 1.799999999999983,
            "end_offset": 3.6
        },
        "target_timerange": {
            "start_offset": 212.76,
            "end_offset": 214.56
        },
        "ignore_audio": true,
        "audio_path": null
    },
    {
        "segment_id": "7f4405eeb2bd11ef98c9b8cef650d1f4",
        "text": "“Ah, you do not know",
        "audio_url": "https://v16m-default.akamaized.net/3c386a68308a4fd838986b15fe4a9c9d/675179c3/video/tos/maliva/tos-maliva-v-f15faa-us/oQDqAEsAVEJUhFuhgJHfBRjWieAOBVQqRnESLB/?a=7073&bti=OTU0QDItLmA%3D&ch=0&cr=0&dr=4&er=0&lr=unwatermarked&cd=0%7C0%7C0%7C0&br=312&bt=156&ds=5&ft=.cwOVInz7ThO4yIOXq8Zmo&qs=13&rc=MzM2b3A5cnJsdzUzNzhoM0BpMzM2b3A5cnJsdzUzNzhoM0A0cTZeMmRjXjVgLS1kLjZzYSM0cTZeMmRjXjVgLS1kLjZzcw%3D%3D&vvpl=1&l=02173337122257200000000000000000000ffff0a00803a2671ba&btag=e00070000&format=mp3&mime_type=audio_mpeg",
        "source_timerange": {
            "start_offset": 0,
            "end_offset": 1.2359999999999816
        },
        "target_timerange": {
            "start_offset": 214.56,
            "end_offset": 215.796
        },
        "ignore_audio": false,
        "audio_path": null
    },
    {
        "segment_id": "7f44071ab2bd11ef98c9b8cef650d1f4",
        "text": "what I suffer.”",
        "audio_url": "https://v16m-default.akamaized.net/3c386a68308a4fd838986b15fe4a9c9d/675179c3/video/tos/maliva/tos-maliva-v-f15faa-us/oQDqAEsAVEJUhFuhgJHfBRjWieAOBVQqRnESLB/?a=7073&bti=OTU0QDItLmA%3D&ch=0&cr=0&dr=4&er=0&lr=unwatermarked&cd=0%7C0%7C0%7C0&br=312&bt=156&ds=5&ft=.cwOVInz7ThO4yIOXq8Zmo&qs=13&rc=MzM2b3A5cnJsdzUzNzhoM0BpMzM2b3A5cnJsdzUzNzhoM0A0cTZeMmRjXjVgLS1kLjZzYSM0cTZeMmRjXjVgLS1kLjZzcw%3D%3D&vvpl=1&l=02173337122257200000000000000000000ffff0a00803a2671ba&btag=e00070000&format=mp3&mime_type=audio_mpeg",
        "source_timerange": {
            "start_offset": 1.23599999999999,
            "end_offset": 2.472
        },
        "target_timerange": {
            "start_offset": 215.796,
            "end_offset": 217.032
        },
        "ignore_audio": true,
        "audio_path": null
    },
    {
        "segment_id": "7f442128b2bd11ef98c9b8cef650d1f4",
        "text": "“But I hope you will get over",
        "audio_url": "https://v16m-default.akamaized.net/5a3740416b933daafdaa4e06523fd6e6/675179c7/video/tos/maliva/tos-maliva-v-f15faa-us/o8SnBRAAEhWFBBJLTQ7EUC2AVVlDDBA5hfEEeJ/?a=7073&bti=OTU0QDItLmA%3D&ch=0&cr=0&dr=4&er=0&lr=unwatermarked&cd=0%7C0%7C0%7C0&br=312&bt=156&ds=5&ft=.cwOVInz7Thm4yIOXq8Zmo&qs=13&rc=M3g5bnY5cnJsdzUzNzhoM0BpM3g5bnY5cnJsdzUzNzhoM0AuLmhxMmRjXjVgLS1kLjZzYSMuLmhxMmRjXjVgLS1kLjZzcw%3D%3D&vvpl=1&l=02173337122257200000000000000000000ffff0a00803a2671ba&btag=e00070000&format=mp3&mime_type=audio_mpeg",
        "source_timerange": {
            "start_offset": 0,
            "end_offset": 1.464000000000004
        },
        "target_timerange": {
            "start_offset": 217.032,
            "end_offset": 218.496
        },
        "ignore_audio": false,
        "audio_path": null
    },
    {
        "segment_id": "7f4422d6b2bd11ef98c9b8cef650d1f4",
        "text": "it, and live to see many young",
        "audio_url": "https://v16m-default.akamaized.net/5a3740416b933daafdaa4e06523fd6e6/675179c7/video/tos/maliva/tos-maliva-v-f15faa-us/o8SnBRAAEhWFBBJLTQ7EUC2AVVlDDBA5hfEEeJ/?a=7073&bti=OTU0QDItLmA%3D&ch=0&cr=0&dr=4&er=0&lr=unwatermarked&cd=0%7C0%7C0%7C0&br=312&bt=156&ds=5&ft=.cwOVInz7Thm4yIOXq8Zmo&qs=13&rc=M3g5bnY5cnJsdzUzNzhoM0BpM3g5bnY5cnJsdzUzNzhoM0AuLmhxMmRjXjVgLS1kLjZzYSMuLmhxMmRjXjVgLS1kLjZzcw%3D%3D&vvpl=1&l=02173337122257200000000000000000000ffff0a00803a2671ba&btag=e00070000&format=mp3&mime_type=audio_mpeg",
        "source_timerange": {
            "start_offset": 1.4639999999999986,
            "end_offset": 2.9280000000000026
        },
        "target_timerange": {
            "start_offset": 218.496,
            "end_offset": 219.96
        },
        "ignore_audio": true,
        "audio_path": null
    },
    {
        "segment_id": "7f442416b2bd11ef98c9b8cef650d1f4",
        "text": "men of four thousand a year come",
        "audio_url": "https://v16m-default.akamaized.net/5a3740416b933daafdaa4e06523fd6e6/675179c7/video/tos/maliva/tos-maliva-v-f15faa-us/o8SnBRAAEhWFBBJLTQ7EUC2AVVlDDBA5hfEEeJ/?a=7073&bti=OTU0QDItLmA%3D&ch=0&cr=0&dr=4&er=0&lr=unwatermarked&cd=0%7C0%7C0%7C0&br=312&bt=156&ds=5&ft=.cwOVInz7Thm4yIOXq8Zmo&qs=13&rc=M3g5bnY5cnJsdzUzNzhoM0BpM3g5bnY5cnJsdzUzNzhoM0AuLmhxMmRjXjVgLS1kLjZzYSMuLmhxMmRjXjVgLS1kLjZzcw%3D%3D&vvpl=1&l=02173337122257200000000000000000000ffff0a00803a2671ba&btag=e00070000&format=mp3&mime_type=audio_mpeg",
        "source_timerange": {
            "start_offset": 2.9279999999999973,
            "end_offset": 4.392000000000001
        },
        "target_timerange": {
            "start_offset": 219.96,
            "end_offset": 221.424
        },
        "ignore_audio": true,
        "audio_path": null
    },
    {
        "segment_id": "7f442560b2bd11ef98c9b8cef650d1f4",
        "text": "into the neighbourhood.”",
        "audio_url": "https://v16m-default.akamaized.net/5a3740416b933daafdaa4e06523fd6e6/675179c7/video/tos/maliva/tos-maliva-v-f15faa-us/o8SnBRAAEhWFBBJLTQ7EUC2AVVlDDBA5hfEEeJ/?a=7073&bti=OTU0QDItLmA%3D&ch=0&cr=0&dr=4&er=0&lr=unwatermarked&cd=0%7C0%7C0%7C0&br=312&bt=156&ds=5&ft=.cwOVInz7Thm4yIOXq8Zmo&qs=13&rc=M3g5bnY5cnJsdzUzNzhoM0BpM3g5bnY5cnJsdzUzNzhoM0AuLmhxMmRjXjVgLS1kLjZzYSMuLmhxMmRjXjVgLS1kLjZzcw%3D%3D&vvpl=1&l=02173337122257200000000000000000000ffff0a00803a2671ba&btag=e00070000&format=mp3&mime_type=audio_mpeg",
        "source_timerange": {
            "start_offset": 4.391999999999996,
            "end_offset": 5.856
        },
        "target_timerange": {
            "start_offset": 221.424,
            "end_offset": 222.888
        },
        "ignore_audio": true,
        "audio_path": null
    },
    {
        "segment_id": "7f443708b2bd11ef98c9b8cef650d1f4",
        "text": "“It will be no use to us, if",
        "audio_url": "https://v16m-default.akamaized.net/cc63d5f2e0e5264db8b127fa15faf464/675179c6/video/tos/maliva/tos-maliva-v-f15faa-us/og7bARKiJwEVqAWzFyAEqJTivfBpTFwkgBhAow/?a=7073&bti=OTU0QDItLmA%3D&ch=0&cr=0&dr=4&er=0&lr=unwatermarked&cd=0%7C0%7C0%7C0&br=312&bt=156&ds=5&ft=.cwOVInz7Thm4yIOXq8Zmo&qs=13&rc=am9pN3U5cnJsdzUzNzhoM0Bpam9pN3U5cnJsdzUzNzhoM0BkLW9tMmRjXjVgLS1kLjZzYSNkLW9tMmRjXjVgLS1kLjZzcw%3D%3D&vvpl=1&l=02173337122257200000000000000000000ffff0a00803a2671ba&btag=e00070000&format=mp3&mime_type=audio_mpeg",
        "source_timerange": {
            "start_offset": 0,
            "end_offset": 1.663999999999997
        },
        "target_timerange": {
            "start_offset": 222.888,
            "end_offset": 224.552
        },
        "ignore_audio": false,
        "audio_path": null
    },
    {
        "segment_id": "7f44385cb2bd11ef98c9b8cef650d1f4",
        "text": "twenty such should come, since",
        "audio_url": "https://v16m-default.akamaized.net/cc63d5f2e0e5264db8b127fa15faf464/675179c6/video/tos/maliva/tos-maliva-v-f15faa-us/og7bARKiJwEVqAWzFyAEqJTivfBpTFwkgBhAow/?a=7073&bti=OTU0QDItLmA%3D&ch=0&cr=0&dr=4&er=0&lr=unwatermarked&cd=0%7C0%7C0%7C0&br=312&bt=156&ds=5&ft=.cwOVInz7Thm4yIOXq8Zmo&qs=13&rc=am9pN3U5cnJsdzUzNzhoM0Bpam9pN3U5cnJsdzUzNzhoM0BkLW9tMmRjXjVgLS1kLjZzYSNkLW9tMmRjXjVgLS1kLjZzcw%3D%3D&vvpl=1&l=02173337122257200000000000000000000ffff0a00803a2671ba&btag=e00070000&format=mp3&mime_type=audio_mpeg",
        "source_timerange": {
            "start_offset": 1.6639999999999873,
            "end_offset": 3.3280000000000127
        },
        "target_timerange": {
            "start_offset": 224.552,
            "end_offset": 226.216
        },
        "ignore_audio": true,
        "audio_path": null
    },
    {
        "segment_id": "7f44397eb2bd11ef98c9b8cef650d1f4",
        "text": "you will not visit them.”",
        "audio_url": "https://v16m-default.akamaized.net/cc63d5f2e0e5264db8b127fa15faf464/675179c6/video/tos/maliva/tos-maliva-v-f15faa-us/og7bARKiJwEVqAWzFyAEqJTivfBpTFwkgBhAow/?a=7073&bti=OTU0QDItLmA%3D&ch=0&cr=0&dr=4&er=0&lr=unwatermarked&cd=0%7C0%7C0%7C0&br=312&bt=156&ds=5&ft=.cwOVInz7Thm4yIOXq8Zmo&qs=13&rc=am9pN3U5cnJsdzUzNzhoM0Bpam9pN3U5cnJsdzUzNzhoM0BkLW9tMmRjXjVgLS1kLjZzYSNkLW9tMmRjXjVgLS1kLjZzcw%3D%3D&vvpl=1&l=02173337122257200000000000000000000ffff0a00803a2671ba&btag=e00070000&format=mp3&mime_type=audio_mpeg",
        "source_timerange": {
            "start_offset": 3.328000000000003,
            "end_offset": 4.992
        },
        "target_timerange": {
            "start_offset": 226.216,
            "end_offset": 227.88
        },
        "ignore_audio": true,
        "audio_path": null
    },
    {
        "segment_id": "7f44486ab2bd11ef98c9b8cef650d1f4",
        "text": "“Depend upon it, my dear,",
        "audio_url": "https://v16m-default.akamaized.net/a2545b96322b639904e9dd1cf9c66bb7/675179c6/video/tos/maliva/tos-maliva-v-f15faa-us/oQIAin7hmBSAfQVlkhILCFEBVSDYqUAP0fshsJ/?a=7073&bti=OTU0QDItLmA%3D&ch=0&cr=0&dr=4&er=0&lr=unwatermarked&cd=0%7C0%7C0%7C0&br=312&bt=156&ds=5&ft=.cwOVInz7Thm4yIOXq8Zmo&qs=13&rc=M282N2w5cnJsdzUzNzhoM0BpM282N2w5cnJsdzUzNzhoM0Bfb2phMmRjXjVgLS1kLjZzYSNfb2phMmRjXjVgLS1kLjZzcw%3D%3D&vvpl=1&l=02173337122257200000000000000000000ffff0a00803a2671ba&btag=e00070000&format=mp3&mime_type=audio_mpeg",
        "source_timerange": {
            "start_offset": 0,
            "end_offset": 1.5999999999999828
        },
        "target_timerange": {
            "start_offset": 227.88,
            "end_offset": 229.48
        },
        "ignore_audio": false,
        "audio_path": null
    },
    {
        "segment_id": "7f444982b2bd11ef98c9b8cef650d1f4",
        "text": "that when there are twenty, I",
        "audio_url": "https://v16m-default.akamaized.net/a2545b96322b639904e9dd1cf9c66bb7/675179c6/video/tos/maliva/tos-maliva-v-f15faa-us/oQIAin7hmBSAfQVlkhILCFEBVSDYqUAP0fshsJ/?a=7073&bti=OTU0QDItLmA%3D&ch=0&cr=0&dr=4&er=0&lr=unwatermarked&cd=0%7C0%7C0%7C0&br=312&bt=156&ds=5&ft=.cwOVInz7Thm4yIOXq8Zmo&qs=13&rc=M282N2w5cnJsdzUzNzhoM0BpM282N2w5cnJsdzUzNzhoM0Bfb2phMmRjXjVgLS1kLjZzYSNfb2phMmRjXjVgLS1kLjZzcw%3D%3D&vvpl=1&l=02173337122257200000000000000000000ffff0a00803a2671ba&btag=e00070000&format=mp3&mime_type=audio_mpeg",
        "source_timerange": {
            "start_offset": 1.5999999999999943,
            "end_offset": 3.2000000000000055
        },
        "target_timerange": {
            "start_offset": 229.48,
            "end_offset": 231.08
        },
        "ignore_audio": true,
        "audio_path": null
    },
    {
        "segment_id": "7f444a5eb2bd11ef98c9b8cef650d1f4",
        "text": "will visit them all.”",
        "audio_url": "https://v16m-default.akamaized.net/a2545b96322b639904e9dd1cf9c66bb7/675179c6/video/tos/maliva/tos-maliva-v-f15faa-us/oQIAin7hmBSAfQVlkhILCFEBVSDYqUAP0fshsJ/?a=7073&bti=OTU0QDItLmA%3D&ch=0&cr=0&dr=4&er=0&lr=unwatermarked&cd=0%7C0%7C0%7C0&br=312&bt=156&ds=5&ft=.cwOVInz7Thm4yIOXq8Zmo&qs=13&rc=M282N2w5cnJsdzUzNzhoM0BpM282N2w5cnJsdzUzNzhoM0Bfb2phMmRjXjVgLS1kLjZzYSNfb2phMmRjXjVgLS1kLjZzcw%3D%3D&vvpl=1&l=02173337122257200000000000000000000ffff0a00803a2671ba&btag=e00070000&format=mp3&mime_type=audio_mpeg",
        "source_timerange": {
            "start_offset": 3.200000000000017,
            "end_offset": 4.8
        },
        "target_timerange": {
            "start_offset": 231.08,
            "end_offset": 232.68
        },
        "ignore_audio": true,
        "audio_path": null
    },
    {
        "segment_id": "7f446ab6b2bd11ef98c9b8cef650d1f4",
        "text": "Mr. Bennet was so odd a mixture",
        "audio_url": "https://v16m-default.akamaized.net/c26f584488af2005120caec77290a745/675179cd/video/tos/maliva/tos-maliva-v-f15faa-us/o4W5EEFGAYJhuMvRBADLEVU0VenQJBBhASEkfi/?a=7073&bti=OTU0QDItLmA%3D&ch=0&cr=0&dr=4&er=0&lr=unwatermarked&cd=0%7C0%7C0%7C0&br=312&bt=156&ds=5&ft=.cwOVInz7Thm4yIOXq8Zmo&qs=13&rc=M2ZtOXQ5cnJsdzUzNzhoM0BpM2ZtOXQ5cnJsdzUzNzhoM0AvZjFjMmRjXjVgLS1kLjZzYSMvZjFjMmRjXjVgLS1kLjZzcw%3D%3D&vvpl=1&l=02173337122257200000000000000000000ffff0a00803a2671ba&btag=e00070000&format=mp3&mime_type=audio_mpeg",
        "source_timerange": {
            "start_offset": 0,
            "end_offset": 1.597714285714293
        },
        "target_timerange": {
            "start_offset": 232.68,
            "end_offset": 234.2777142857143
        },
        "ignore_audio": false,
        "audio_path": null
    },
    {
        "segment_id": "7f446c5ab2bd11ef98c9b8cef650d1f4",
        "text": "of quick parts, sarcastic",
        "audio_url": "https://v16m-default.akamaized.net/c26f584488af2005120caec77290a745/675179cd/video/tos/maliva/tos-maliva-v-f15faa-us/o4W5EEFGAYJhuMvRBADLEVU0VenQJBBhASEkfi/?a=7073&bti=OTU0QDItLmA%3D&ch=0&cr=0&dr=4&er=0&lr=unwatermarked&cd=0%7C0%7C0%7C0&br=312&bt=156&ds=5&ft=.cwOVInz7Thm4yIOXq8Zmo&qs=13&rc=M2ZtOXQ5cnJsdzUzNzhoM0BpM2ZtOXQ5cnJsdzUzNzhoM0AvZjFjMmRjXjVgLS1kLjZzYSMvZjFjMmRjXjVgLS1kLjZzcw%3D%3D&vvpl=1&l=02173337122257200000000000000000000ffff0a00803a2671ba&btag=e00070000&format=mp3&mime_type=audio_mpeg",
        "source_timerange": {
            "start_offset": 1.5977142857142894,
            "end_offset": 3.1954285714285824
        },
        "target_timerange": {
            "start_offset": 234.2777142857143,
            "end_offset": 235.87542857142859
        },
        "ignore_audio": true,
        "audio_path": null
    },
    {
        "segment_id": "7f446daeb2bd11ef98c9b8cef650d1f4",
        "text": "humour, reserve, and caprice,",
        "audio_url": "https://v16m-default.akamaized.net/c26f584488af2005120caec77290a745/675179cd/video/tos/maliva/tos-maliva-v-f15faa-us/o4W5EEFGAYJhuMvRBADLEVU0VenQJBBhASEkfi/?a=7073&bti=OTU0QDItLmA%3D&ch=0&cr=0&dr=4&er=0&lr=unwatermarked&cd=0%7C0%7C0%7C0&br=312&bt=156&ds=5&ft=.cwOVInz7Thm4yIOXq8Zmo&qs=13&rc=M2ZtOXQ5cnJsdzUzNzhoM0BpM2ZtOXQ5cnJsdzUzNzhoM0AvZjFjMmRjXjVgLS1kLjZzYSMvZjFjMmRjXjVgLS1kLjZzcw%3D%3D&vvpl=1&l=02173337122257200000000000000000000ffff0a00803a2671ba&btag=e00070000&format=mp3&mime_type=audio_mpeg",
        "source_timerange": {
            "start_offset": 3.195428571428579,
            "end_offset": 4.793142857142872
        },
        "target_timerange": {
            "start_offset": 235.87542857142859,
            "end_offset": 237.47314285714288
        },
        "ignore_audio": true,
        "audio_path": null
    },
    {
        "segment_id": "7f446f02b2bd11ef98c9b8cef650d1f4",
        "text": "that the experience of three-",
        "audio_url": "https://v16m-default.akamaized.net/c26f584488af2005120caec77290a745/675179cd/video/tos/maliva/tos-maliva-v-f15faa-us/o4W5EEFGAYJhuMvRBADLEVU0VenQJBBhASEkfi/?a=7073&bti=OTU0QDItLmA%3D&ch=0&cr=0&dr=4&er=0&lr=unwatermarked&cd=0%7C0%7C0%7C0&br=312&bt=156&ds=5&ft=.cwOVInz7Thm4yIOXq8Zmo&qs=13&rc=M2ZtOXQ5cnJsdzUzNzhoM0BpM2ZtOXQ5cnJsdzUzNzhoM0AvZjFjMmRjXjVgLS1kLjZzYSMvZjFjMmRjXjVgLS1kLjZzcw%3D%3D&vvpl=1&l=02173337122257200000000000000000000ffff0a00803a2671ba&btag=e00070000&format=mp3&mime_type=audio_mpeg",
        "source_timerange": {
            "start_offset": 4.793142857142868,
            "end_offset": 6.390857142857133
        },
        "target_timerange": {
            "start_offset": 237.47314285714288,
            "end_offset": 239.07085714285714
        },
        "ignore_audio": true,
        "audio_path": null
    },
    {
        "segment_id": "7f447042b2bd11ef98c9b8cef650d1f4",
        "text": "and-twenty years had been",
        "audio_url": "https://v16m-default.akamaized.net/c26f584488af2005120caec77290a745/675179cd/video/tos/maliva/tos-maliva-v-f15faa-us/o4W5EEFGAYJhuMvRBADLEVU0VenQJBBhASEkfi/?a=7073&bti=OTU0QDItLmA%3D&ch=0&cr=0&dr=4&er=0&lr=unwatermarked&cd=0%7C0%7C0%7C0&br=312&bt=156&ds=5&ft=.cwOVInz7Thm4yIOXq8Zmo&qs=13&rc=M2ZtOXQ5cnJsdzUzNzhoM0BpM2ZtOXQ5cnJsdzUzNzhoM0AvZjFjMmRjXjVgLS1kLjZzYSMvZjFjMmRjXjVgLS1kLjZzcw%3D%3D&vvpl=1&l=02173337122257200000000000000000000ffff0a00803a2671ba&btag=e00070000&format=mp3&mime_type=audio_mpeg",
        "source_timerange": {
            "start_offset": 6.390857142857129,
            "end_offset": 7.988571428571422
        },
        "target_timerange": {
            "start_offset": 239.07085714285714,
            "end_offset": 240.66857142857143
        },
        "ignore_audio": true,
        "audio_path": null
    },
    {
        "segment_id": "7f447182b2bd11ef98c9b8cef650d1f4",
        "text": "insufficient to make his wife",
        "audio_url": "https://v16m-default.akamaized.net/c26f584488af2005120caec77290a745/675179cd/video/tos/maliva/tos-maliva-v-f15faa-us/o4W5EEFGAYJhuMvRBADLEVU0VenQJBBhASEkfi/?a=7073&bti=OTU0QDItLmA%3D&ch=0&cr=0&dr=4&er=0&lr=unwatermarked&cd=0%7C0%7C0%7C0&br=312&bt=156&ds=5&ft=.cwOVInz7Thm4yIOXq8Zmo&qs=13&rc=M2ZtOXQ5cnJsdzUzNzhoM0BpM2ZtOXQ5cnJsdzUzNzhoM0AvZjFjMmRjXjVgLS1kLjZzYSMvZjFjMmRjXjVgLS1kLjZzcw%3D%3D&vvpl=1&l=02173337122257200000000000000000000ffff0a00803a2671ba&btag=e00070000&format=mp3&mime_type=audio_mpeg",
        "source_timerange": {
            "start_offset": 7.988571428571419,
            "end_offset": 9.586285714285712
        },
        "target_timerange": {
            "start_offset": 240.66857142857143,
            "end_offset": 242.26628571428571
        },
        "ignore_audio": true,
        "audio_path": null
    },
    {
        "segment_id": "7f4472c2b2bd11ef98c9b8cef650d1f4",
        "text": "understand his character. _",
        "audio_url": "https://v16m-default.akamaized.net/c26f584488af2005120caec77290a745/675179cd/video/tos/maliva/tos-maliva-v-f15faa-us/o4W5EEFGAYJhuMvRBADLEVU0VenQJBBhASEkfi/?a=7073&bti=OTU0QDItLmA%3D&ch=0&cr=0&dr=4&er=0&lr=unwatermarked&cd=0%7C0%7C0%7C0&br=312&bt=156&ds=5&ft=.cwOVInz7Thm4yIOXq8Zmo&qs=13&rc=M2ZtOXQ5cnJsdzUzNzhoM0BpM2ZtOXQ5cnJsdzUzNzhoM0AvZjFjMmRjXjVgLS1kLjZzYSMvZjFjMmRjXjVgLS1kLjZzcw%3D%3D&vvpl=1&l=02173337122257200000000000000000000ffff0a00803a2671ba&btag=e00070000&format=mp3&mime_type=audio_mpeg",
        "source_timerange": {
            "start_offset": 9.586285714285708,
            "end_offset": 11.184000000000001
        },
        "target_timerange": {
            "start_offset": 242.26628571428571,
            "end_offset": 243.864
        },
        "ignore_audio": true,
        "audio_path": null
    },
    {
        "segment_id": "7f447af6b2bd11ef98c9b8cef650d1f4",
        "text": "Her_ mind was less difficult to develope.",
        "audio_url": "https://v16m-default.akamaized.net/7d2d5dd17b2a0e2abc2525ad747135be/675179c4/video/tos/maliva/tos-maliva-v-f15faa-us/o8JzARpAiwWiIBJFEoyEqHbAqKpzBgA4wfHEPk/?a=7073&bti=OTU0QDItLmA%3D&ch=0&cr=0&dr=4&er=0&lr=unwatermarked&cd=0%7C0%7C0%7C0&br=312&bt=156&ds=5&ft=.cwOVInz7Thm4yIOXq8Zmo&qs=13&rc=amlmdHI5cnJsdzUzNzhoM0BpamlmdHI5cnJsdzUzNzhoM0AwZGJhMmRjXjVgLS1kLjZzYSMwZGJhMmRjXjVgLS1kLjZzcw%3D%3D&vvpl=1&l=02173337122257200000000000000000000ffff0a00803a2671ba&btag=e00070000&format=mp3&mime_type=audio_mpeg",
        "source_timerange": {
            "start_offset": 0,
            "end_offset": 2.16
        },
        "target_timerange": {
            "start_offset": 243.864,
            "end_offset": 246.024
        },
        "ignore_audio": false,
        "audio_path": null
    },
    {
        "segment_id": "7f448cf8b2bd11ef98c9b8cef650d1f4",
        "text": "She was a woman of mean",
        "audio_url": "https://v16m-default.akamaized.net/8b8221e52c1f8d3068d959f6b1276f2a/675179c6/video/tos/maliva/tos-maliva-v-f15faa-us/ogofhAREVJAfKVB5JQASFEAUELTnt5D4MhWBFB/?a=7073&bti=OTU0QDItLmA%3D&ch=0&cr=0&dr=4&er=0&lr=unwatermarked&cd=0%7C0%7C0%7C0&br=312&bt=156&ds=5&ft=.cwOVInz7Thm4yIOXq8Zmo&qs=13&rc=anl0cnY5cnJsdzUzNzhoM0Bpanl0cnY5cnJsdzUzNzhoM0BwXi9oMmRjXjVgLS1kLjZzYSNwXi9oMmRjXjVgLS1kLjZzcw%3D%3D&vvpl=1&l=02173337122257200000000000000000000ffff0a00803a2671ba&btag=e00070000&format=mp3&mime_type=audio_mpeg",
        "source_timerange": {
            "start_offset": 0,
            "end_offset": 1.6399999999999988
        },
        "target_timerange": {
            "start_offset": 246.024,
            "end_offset": 247.66400000000002
        },
        "ignore_audio": false,
        "audio_path": null
    },
    {
        "segment_id": "7f448e74b2bd11ef98c9b8cef650d1f4",
        "text": "understanding, little",
        "audio_url": "https://v16m-default.akamaized.net/8b8221e52c1f8d3068d959f6b1276f2a/675179c6/video/tos/maliva/tos-maliva-v-f15faa-us/ogofhAREVJAfKVB5JQASFEAUELTnt5D4MhWBFB/?a=7073&bti=OTU0QDItLmA%3D&ch=0&cr=0&dr=4&er=0&lr=unwatermarked&cd=0%7C0%7C0%7C0&br=312&bt=156&ds=5&ft=.cwOVInz7Thm4yIOXq8Zmo&qs=13&rc=anl0cnY5cnJsdzUzNzhoM0Bpanl0cnY5cnJsdzUzNzhoM0BwXi9oMmRjXjVgLS1kLjZzYSNwXi9oMmRjXjVgLS1kLjZzcw%3D%3D&vvpl=1&l=02173337122257200000000000000000000ffff0a00803a2671ba&btag=e00070000&format=mp3&mime_type=audio_mpeg",
        "source_timerange": {
            "start_offset": 1.6400000000000148,
            "end_offset": 3.279999999999985
        },
        "target_timerange": {
            "start_offset": 247.66400000000002,
            "end_offset": 249.304
        },
        "ignore_audio": true,
        "audio_path": null
    },
    {
        "segment_id": "7f44909ab2bd11ef98c9b8cef650d1f4",
        "text": "information, and uncertain temper.",
        "audio_url": "https://v16m-default.akamaized.net/8b8221e52c1f8d3068d959f6b1276f2a/675179c6/video/tos/maliva/tos-maliva-v-f15faa-us/ogofhAREVJAfKVB5JQASFEAUELTnt5D4MhWBFB/?a=7073&bti=OTU0QDItLmA%3D&ch=0&cr=0&dr=4&er=0&lr=unwatermarked&cd=0%7C0%7C0%7C0&br=312&bt=156&ds=5&ft=.cwOVInz7Thm4yIOXq8Zmo&qs=13&rc=anl0cnY5cnJsdzUzNzhoM0Bpanl0cnY5cnJsdzUzNzhoM0BwXi9oMmRjXjVgLS1kLjZzYSNwXi9oMmRjXjVgLS1kLjZzcw%3D%3D&vvpl=1&l=02173337122257200000000000000000000ffff0a00803a2671ba&btag=e00070000&format=mp3&mime_type=audio_mpeg",
        "source_timerange": {
            "start_offset": 3.280000000000001,
            "end_offset": 4.92
        },
        "target_timerange": {
            "start_offset": 249.304,
            "end_offset": 250.94400000000002
        },
        "ignore_audio": true,
        "audio_path": null
    },
    {
        "segment_id": "7f449d6ab2bd11ef98c9b8cef650d1f4",
        "text": "When she was discontented, she",
        "audio_url": "https://v16m-default.akamaized.net/f47db3e055431e10b043d9b0efda0d56/675179c5/video/tos/maliva/tos-maliva-v-f15faa-us/oEFVWAHnULdpB7hAEwNSBVJBJERfEjWAh2eQED/?a=7073&bti=OTU0QDItLmA%3D&ch=0&cr=0&dr=4&er=0&lr=unwatermarked&cd=0%7C0%7C0%7C0&br=312&bt=156&ds=5&ft=.cwOVInz7Thm4yIOXq8Zmo&qs=13&rc=M3dna3I5cnJsdzUzNzhoM0BpM3dna3I5cnJsdzUzNzhoM0BzNmlhMmRjXjVgLS1kLjZzYSNzNmlhMmRjXjVgLS1kLjZzcw%3D%3D&vvpl=1&l=02173337122257200000000000000000000ffff0a00803a2671ba&btag=e00070000&format=mp3&mime_type=audio_mpeg",
        "source_timerange": {
            "start_offset": 0,
            "end_offset": 1.7160000000000202
        },
        "target_timerange": {
            "start_offset": 250.94400000000002,
            "end_offset": 252.66000000000003
        },
        "ignore_audio": false,
        "audio_path": null
    },
    {
        "segment_id": "7f449f0eb2bd11ef98c9b8cef650d1f4",
        "text": "fancied herself nervous.",
        "audio_url": "https://v16m-default.akamaized.net/f47db3e055431e10b043d9b0efda0d56/675179c5/video/tos/maliva/tos-maliva-v-f15faa-us/oEFVWAHnULdpB7hAEwNSBVJBJERfEjWAh2eQED/?a=7073&bti=OTU0QDItLmA%3D&ch=0&cr=0&dr=4&er=0&lr=unwatermarked&cd=0%7C0%7C0%7C0&br=312&bt=156&ds=5&ft=.cwOVInz7Thm4yIOXq8Zmo&qs=13&rc=M3dna3I5cnJsdzUzNzhoM0BpM3dna3I5cnJsdzUzNzhoM0BzNmlhMmRjXjVgLS1kLjZzYSNzNmlhMmRjXjVgLS1kLjZzcw%3D%3D&vvpl=1&l=02173337122257200000000000000000000ffff0a00803a2671ba&btag=e00070000&format=mp3&mime_type=audio_mpeg",
        "source_timerange": {
            "start_offset": 1.7160000000000082,
            "end_offset": 3.432
        },
        "target_timerange": {
            "start_offset": 252.66000000000003,
            "end_offset": 254.376
        },
        "ignore_audio": true,
        "audio_path": null
    },
    {
        "segment_id": "7f44ae54b2bd11ef98c9b8cef650d1f4",
        "text": "The business of her life was to",
        "audio_url": "https://v16m-default.akamaized.net/ce8a7240974e6c497460fd8b81a674ff/675179c7/video/tos/maliva/tos-maliva-v-f15faa-us/oMqBKgwvFxAESAWzFJkiiKkqEAEf7AHRcoBJwv/?a=7073&bti=OTU0QDItLmA%3D&ch=0&cr=0&dr=4&er=0&lr=unwatermarked&cd=0%7C0%7C0%7C0&br=312&bt=156&ds=5&ft=.cwOVInz7Thm4yIOXq8Zmo&qs=13&rc=amx4a2s5cnJsdzUzNzhoM0Bpamx4a2s5cnJsdzUzNzhoM0AvNTJrMmRjXjVgLS1kLjZzYSMvNTJrMmRjXjVgLS1kLjZzcw%3D%3D&vvpl=1&l=02173337122257200000000000000000000ffff0a00803a2671ba&btag=e00070000&format=mp3&mime_type=audio_mpeg",
        "source_timerange": {
            "start_offset": 0,
            "end_offset": 1.7200000000000024
        },
        "target_timerange": {
            "start_offset": 254.376,
            "end_offset": 256.096
        },
        "ignore_audio": false,
        "audio_path": null
    },
    {
        "segment_id": "7f44afbcb2bd11ef98c9b8cef650d1f4",
        "text": "get her daughters married: its",
        "audio_url": "https://v16m-default.akamaized.net/ce8a7240974e6c497460fd8b81a674ff/675179c7/video/tos/maliva/tos-maliva-v-f15faa-us/oMqBKgwvFxAESAWzFJkiiKkqEAEf7AHRcoBJwv/?a=7073&bti=OTU0QDItLmA%3D&ch=0&cr=0&dr=4&er=0&lr=unwatermarked&cd=0%7C0%7C0%7C0&br=312&bt=156&ds=5&ft=.cwOVInz7Thm4yIOXq8Zmo&qs=13&rc=amx4a2s5cnJsdzUzNzhoM0Bpamx4a2s5cnJsdzUzNzhoM0AvNTJrMmRjXjVgLS1kLjZzYSMvNTJrMmRjXjVgLS1kLjZzcw%3D%3D&vvpl=1&l=02173337122257200000000000000000000ffff0a00803a2671ba&btag=e00070000&format=mp3&mime_type=audio_mpeg",
        "source_timerange": {
            "start_offset": 1.7199999999999989,
            "end_offset": 3.4400000000000297
        },
        "target_timerange": {
            "start_offset": 256.096,
            "end_offset": 257.81600000000003
        },
        "ignore_audio": true,
        "audio_path": null
    },
    {
        "segment_id": "7f44b124b2bd11ef98c9b8cef650d1f4",
        "text": "solace was visiting and news.",
        "audio_url": "https://v16m-default.akamaized.net/ce8a7240974e6c497460fd8b81a674ff/675179c7/video/tos/maliva/tos-maliva-v-f15faa-us/oMqBKgwvFxAESAWzFJkiiKkqEAEf7AHRcoBJwv/?a=7073&bti=OTU0QDItLmA%3D&ch=0&cr=0&dr=4&er=0&lr=unwatermarked&cd=0%7C0%7C0%7C0&br=312&bt=156&ds=5&ft=.cwOVInz7Thm4yIOXq8Zmo&qs=13&rc=amx4a2s5cnJsdzUzNzhoM0Bpamx4a2s5cnJsdzUzNzhoM0AvNTJrMmRjXjVgLS1kLjZzYSMvNTJrMmRjXjVgLS1kLjZzcw%3D%3D&vvpl=1&l=02173337122257200000000000000000000ffff0a00803a2671ba&btag=e00070000&format=mp3&mime_type=audio_mpeg",
        "source_timerange": {
            "start_offset": 3.440000000000026,
            "end_offset": 5.16
        },
        "target_timerange": {
            "start_offset": 257.81600000000003,
            "end_offset": 259.536
        },
        "ignore_audio": true,
        "audio_path": null
    },
    {
        "segment_id": "7f44bd0eb2bd11ef98c9b8cef650d1f4",
        "text": "[Illustration:",
        "audio_url": "https://v16m-default.akamaized.net/da8b43ad6a934ef414d1983268b1640a/675179c4/video/tos/maliva/tos-maliva-v-f15faa-us/owDRAE2AVEJUhFJhjJHfBHdWLIAeBVQ0RnESLB/?a=7073&bti=OTU0QDItLmA%3D&ch=0&cr=0&dr=4&er=0&lr=unwatermarked&cd=0%7C0%7C0%7C0&br=312&bt=156&ds=5&ft=.cwOVInz7Thm4yIOXq8Zmo&qs=13&rc=M2toNXU5cnJsdzUzNzhoM0BpM2toNXU5cnJsdzUzNzhoM0BzNTFhMmRjXjVgLS1kLjZzYSNzNTFhMmRjXjVgLS1kLjZzcw%3D%3D&vvpl=1&l=02173337122257200000000000000000000ffff0a00803a2671ba&btag=e00070000&format=mp3&mime_type=audio_mpeg",
        "source_timerange": {
            "start_offset": 0,
            "end_offset": 1.3920000000000043
        },
        "target_timerange": {
            "start_offset": 259.536,
            "end_offset": 260.928
        },
        "ignore_audio": false,
        "audio_path": null
    },
    {
        "segment_id": "7f44bec6b2bd11ef98c9b8cef650d1f4",
        "text": "M^{r.} & M^{rs.}",
        "audio_url": "https://v16m-default.akamaized.net/da8b43ad6a934ef414d1983268b1640a/675179c4/video/tos/maliva/tos-maliva-v-f15faa-us/owDRAE2AVEJUhFJhjJHfBHdWLIAeBVQ0RnESLB/?a=7073&bti=OTU0QDItLmA%3D&ch=0&cr=0&dr=4&er=0&lr=unwatermarked&cd=0%7C0%7C0%7C0&br=312&bt=156&ds=5&ft=.cwOVInz7Thm4yIOXq8Zmo&qs=13&rc=M2toNXU5cnJsdzUzNzhoM0BpM2toNXU5cnJsdzUzNzhoM0BzNTFhMmRjXjVgLS1kLjZzYSNzNTFhMmRjXjVgLS1kLjZzcw%3D%3D&vvpl=1&l=02173337122257200000000000000000000ffff0a00803a2671ba&btag=e00070000&format=mp3&mime_type=audio_mpeg",
        "source_timerange": {
            "start_offset": 1.391999999999996,
            "end_offset": 2.7840000000000003
        },
        "target_timerange": {
            "start_offset": 260.928,
            "end_offset": 262.32
        },
        "ignore_audio": true,
        "audio_path": null
    },
    {
        "segment_id": "7f44cc5eb2bd11ef98c9b8cef650d1f4",
        "text": "Bennet  [_Copyright 1894 by",
        "audio_url": "https://v16m-default.akamaized.net/24ac29ea0da2228a8349efe471b81946/675179c4/video/tos/maliva/tos-maliva-v-f15faa-us/oceOeprCCgGoFikIKSLrDIAsCUAbIgCYk2ASfX/?a=7073&bti=OTU0QDItLmA%3D&ch=0&cr=0&dr=4&er=0&lr=unwatermarked&cd=0%7C0%7C0%7C0&br=312&bt=156&ds=5&ft=.cwOVInz7Thm4yIOXq8Zmo&qs=13&rc=M3VldXA5cnJsdzUzNzhoM0BpM3VldXA5cnJsdzUzNzhoM0AyNmA0MmRjXjVgLS1kLjZzYSMyNmA0MmRjXjVgLS1kLjZzcw%3D%3D&vvpl=1&l=02173337122257200000000000000000000ffff0a00803a2671ba&btag=e00070000&format=mp3&mime_type=audio_mpeg",
        "source_timerange": {
            "start_offset": 0,
            "end_offset": 1.3920000000000043
        },
        "target_timerange": {
            "start_offset": 262.32,
            "end_offset": 263.712
        },
        "ignore_audio": false,
        "audio_path": null
    },
    {
        "segment_id": "7f44cdeeb2bd11ef98c9b8cef650d1f4",
        "text": "George Allen._]]",
        "audio_url": "https://v16m-default.akamaized.net/24ac29ea0da2228a8349efe471b81946/675179c4/video/tos/maliva/tos-maliva-v-f15faa-us/oceOeprCCgGoFikIKSLrDIAsCUAbIgCYk2ASfX/?a=7073&bti=OTU0QDItLmA%3D&ch=0&cr=0&dr=4&er=0&lr=unwatermarked&cd=0%7C0%7C0%7C0&br=312&bt=156&ds=5&ft=.cwOVInz7Thm4yIOXq8Zmo&qs=13&rc=M3VldXA5cnJsdzUzNzhoM0BpM3VldXA5cnJsdzUzNzhoM0AyNmA0MmRjXjVgLS1kLjZzYSMyNmA0MmRjXjVgLS1kLjZzcw%3D%3D&vvpl=1&l=02173337122257200000000000000000000ffff0a00803a2671ba&btag=e00070000&format=mp3&mime_type=audio_mpeg",
        "source_timerange": {
            "start_offset": 1.391999999999996,
            "end_offset": 2.7840000000000003
        },
        "target_timerange": {
            "start_offset": 263.712,
            "end_offset": 265.104
        },
        "ignore_audio": true,
        "audio_path": null
    },
    {
        "segment_id": "7f44e1a8b2bd11ef98c9b8cef650d1f4",
        "text": "[Illustration:  “I hope Mr.",
        "audio_url": "https://v16m-default.akamaized.net/6675572e46ab4be715cdb8a396619e91/675179c7/video/tos/maliva/tos-maliva-v-f15faa-us/ogRFyArwqEPFWkGf4BEAhEBzAvGiigwJAoPKJq/?a=7073&bti=OTU0QDItLmA%3D&ch=0&cr=0&dr=4&er=0&lr=unwatermarked&cd=0%7C0%7C0%7C0&br=312&bt=156&ds=5&ft=.cwOVInz7Thm4yIOXq8Zmo&qs=13&rc=M2xqcnI5cnJsdzUzNzhoM0BpM2xqcnI5cnJsdzUzNzhoM0AwXzU0MmRjXjVgLS1kLjZzYSMwXzU0MmRjXjVgLS1kLjZzcw%3D%3D&vvpl=1&l=02173337122257200000000000000000000ffff0a00803a2671ba&btag=e00070000&format=mp3&mime_type=audio_mpeg",
        "source_timerange": {
            "start_offset": 0,
            "end_offset": 1.7359999999999634
        },
        "target_timerange": {
            "start_offset": 265.104,
            "end_offset": 266.84
        },
        "ignore_audio": false,
        "audio_path": null
    },
    {
        "segment_id": "7f44e2f2b2bd11ef98c9b8cef650d1f4",
        "text": "Bingley will like it”",
        "audio_url": "https://v16m-default.akamaized.net/6675572e46ab4be715cdb8a396619e91/675179c7/video/tos/maliva/tos-maliva-v-f15faa-us/ogRFyArwqEPFWkGf4BEAhEBzAvGiigwJAoPKJq/?a=7073&bti=OTU0QDItLmA%3D&ch=0&cr=0&dr=4&er=0&lr=unwatermarked&cd=0%7C0%7C0%7C0&br=312&bt=156&ds=5&ft=.cwOVInz7Thm4yIOXq8Zmo&qs=13&rc=M2xqcnI5cnJsdzUzNzhoM0BpM2xqcnI5cnJsdzUzNzhoM0AwXzU0MmRjXjVgLS1kLjZzYSMwXzU0MmRjXjVgLS1kLjZzcw%3D%3D&vvpl=1&l=02173337122257200000000000000000000ffff0a00803a2671ba&btag=e00070000&format=mp3&mime_type=audio_mpeg",
        "source_timerange": {
            "start_offset": 1.73599999999999,
            "end_offset": 3.47200000000001
        },
        "target_timerange": {
            "start_offset": 266.84,
            "end_offset": 268.576
        },
        "ignore_audio": true,
        "audio_path": null
    },
    {
        "segment_id": "7f44e3d8b2bd11ef98c9b8cef650d1f4",
        "text": "[_Copyright 1894 by George Allen._]]",
        "audio_url": "https://v16m-default.akamaized.net/6675572e46ab4be715cdb8a396619e91/675179c7/video/tos/maliva/tos-maliva-v-f15faa-us/ogRFyArwqEPFWkGf4BEAhEBzAvGiigwJAoPKJq/?a=7073&bti=OTU0QDItLmA%3D&ch=0&cr=0&dr=4&er=0&lr=unwatermarked&cd=0%7C0%7C0%7C0&br=312&bt=156&ds=5&ft=.cwOVInz7Thm4yIOXq8Zmo&qs=13&rc=M2xqcnI5cnJsdzUzNzhoM0BpM2xqcnI5cnJsdzUzNzhoM0AwXzU0MmRjXjVgLS1kLjZzYSMwXzU0MmRjXjVgLS1kLjZzcw%3D%3D&vvpl=1&l=02173337122257200000000000000000000ffff0a00803a2671ba&btag=e00070000&format=mp3&mime_type=audio_mpeg",
        "source_timerange": {
            "start_offset": 3.472000000000037,
            "end_offset": 5.208
        },
        "target_timerange": {
            "start_offset": 268.576,
            "end_offset": 270.312
        },
        "ignore_audio": true,
        "audio_path": null
    }
]