[
    {
        "segment_id": "62a6cfc09d8711ef9d0bb8cef68acef0",
        "text": "  [Illustration]  Within a",
        "audio_url": "https://v16m-default.akamaized.net/8681fbcd24715448d8611c03b789e6fd/672de394/video/tos/maliva/tos-maliva-v-f15faa-us/oUJrLw4VfEBVhjGBEnYQ78D9FufALByAAE9tAN/?a=7073&bti=OTU0QDItLmA%3D&ch=0&cr=0&dr=4&er=0&lr=unwatermarked&cd=0%7C0%7C0%7C0&br=312&bt=156&ds=5&ft=.cwOVInz7TheXqvOXq8Zmo&qs=13&rc=M3llO3g5cmVydjUzNzhoM0BpM3llO3g5cmVydjUzNzhoM0BsX21kMmRrcmpgLS1kLjZzYSNsX21kMmRrcmpgLS1kLjZzcw%3D%3D&vvpl=1&l=02173103901357500000000000000000000ffff0a00849c804a65&btag=e00070000&format=mp3&mime_type=audio_mpeg",
        "source_timerange": {
            "start_offset": 0,
            "end_offset": 1.4219999999999997
        },
        "target_timerange": {
            "start_offset": 0,
            "end_offset": 1.4219999999999997
        },
        "ignore_audio": false,
        "audio_path": null
    },
    {
        "segment_id": "62a6d0e29d8711ef9d0bb8cef68acef0",
        "text": "short walk of Longbourn lived a",
        "audio_url": "https://v16m-default.akamaized.net/8681fbcd24715448d8611c03b789e6fd/672de394/video/tos/maliva/tos-maliva-v-f15faa-us/oUJrLw4VfEBVhjGBEnYQ78D9FufALByAAE9tAN/?a=7073&bti=OTU0QDItLmA%3D&ch=0&cr=0&dr=4&er=0&lr=unwatermarked&cd=0%7C0%7C0%7C0&br=312&bt=156&ds=5&ft=.cwOVInz7TheXqvOXq8Zmo&qs=13&rc=M3llO3g5cmVydjUzNzhoM0BpM3llO3g5cmVydjUzNzhoM0BsX21kMmRrcmpgLS1kLjZzYSNsX21kMmRrcmpgLS1kLjZzcw%3D%3D&vvpl=1&l=02173103901357500000000000000000000ffff0a00849c804a65&btag=e00070000&format=mp3&mime_type=audio_mpeg",
        "source_timerange": {
            "start_offset": 1.422,
            "end_offset": 2.844
        },
        "target_timerange": {
            "start_offset": 1.422,
            "end_offset": 2.844
        },
        "ignore_audio": true,
        "audio_path": null
    },
    {
        "segment_id": "62a6d1dc9d8711ef9d0bb8cef68acef0",
        "text": "family with whom the Bennets",
        "audio_url": "https://v16m-default.akamaized.net/8681fbcd24715448d8611c03b789e6fd/672de394/video/tos/maliva/tos-maliva-v-f15faa-us/oUJrLw4VfEBVhjGBEnYQ78D9FufALByAAE9tAN/?a=7073&bti=OTU0QDItLmA%3D&ch=0&cr=0&dr=4&er=0&lr=unwatermarked&cd=0%7C0%7C0%7C0&br=312&bt=156&ds=5&ft=.cwOVInz7TheXqvOXq8Zmo&qs=13&rc=M3llO3g5cmVydjUzNzhoM0BpM3llO3g5cmVydjUzNzhoM0BsX21kMmRrcmpgLS1kLjZzYSNsX21kMmRrcmpgLS1kLjZzcw%3D%3D&vvpl=1&l=02173103901357500000000000000000000ffff0a00849c804a65&btag=e00070000&format=mp3&mime_type=audio_mpeg",
        "source_timerange": {
            "start_offset": 2.844,
            "end_offset": 4.266
        },
        "target_timerange": {
            "start_offset": 2.844,
            "end_offset": 4.266
        },
        "ignore_audio": true,
        "audio_path": null
    },
    {
        "segment_id": "62a6d2c29d8711ef9d0bb8cef68acef0",
        "text": "were particularly intimate.",
        "audio_url": "https://v16m-default.akamaized.net/8681fbcd24715448d8611c03b789e6fd/672de394/video/tos/maliva/tos-maliva-v-f15faa-us/oUJrLw4VfEBVhjGBEnYQ78D9FufALByAAE9tAN/?a=7073&bti=OTU0QDItLmA%3D&ch=0&cr=0&dr=4&er=0&lr=unwatermarked&cd=0%7C0%7C0%7C0&br=312&bt=156&ds=5&ft=.cwOVInz7TheXqvOXq8Zmo&qs=13&rc=M3llO3g5cmVydjUzNzhoM0BpM3llO3g5cmVydjUzNzhoM0BsX21kMmRrcmpgLS1kLjZzYSNsX21kMmRrcmpgLS1kLjZzcw%3D%3D&vvpl=1&l=02173103901357500000000000000000000ffff0a00849c804a65&btag=e00070000&format=mp3&mime_type=audio_mpeg",
        "source_timerange": {
            "start_offset": 4.266,
            "end_offset": 5.688
        },
        "target_timerange": {
            "start_offset": 4.266,
            "end_offset": 5.688
        },
        "ignore_audio": true,
        "audio_path": null
    },
    {
        "segment_id": "62a6f2669d8711ef9d0bb8cef68acef0",
        "text": "Sir William Lucas had been",
        "audio_url": "https://v16m-default.akamaized.net/9b54f19235bc8dfb15f9469b03479911/672de398/video/tos/maliva/tos-maliva-v-f15faa-us/oIlCCWdSkIXxeAKGCfH5beAywgI1PCGBOIJrAL/?a=7073&bti=OTU0QDItLmA%3D&ch=0&cr=0&dr=4&er=0&lr=unwatermarked&cd=0%7C0%7C0%7C0&br=312&bt=156&ds=5&ft=.cwOVInz7ThnXqvOXq8Zmo&qs=13&rc=M2k8dnc5cmVydjUzNzhoM0BpM2k8dnc5cmVydjUzNzhoM0BgLmA2MmRrcmpgLS1kLjZzYSNgLmA2MmRrcmpgLS1kLjZzcw%3D%3D&vvpl=1&l=02173103901357500000000000000000000ffff0a00849c804a65&btag=e00070000&format=mp3&mime_type=audio_mpeg",
        "source_timerange": {
            "start_offset": 0,
            "end_offset": 1.4297142857142884
        },
        "target_timerange": {
            "start_offset": 5.688,
            "end_offset": 7.117714285714287
        },
        "ignore_audio": false,
        "audio_path": null
    },
    {
        "segment_id": "62a6f3b09d8711ef9d0bb8cef68acef0",
        "text": "formerly in trade in",
        "audio_url": "https://v16m-default.akamaized.net/9b54f19235bc8dfb15f9469b03479911/672de398/video/tos/maliva/tos-maliva-v-f15faa-us/oIlCCWdSkIXxeAKGCfH5beAywgI1PCGBOIJrAL/?a=7073&bti=OTU0QDItLmA%3D&ch=0&cr=0&dr=4&er=0&lr=unwatermarked&cd=0%7C0%7C0%7C0&br=312&bt=156&ds=5&ft=.cwOVInz7ThnXqvOXq8Zmo&qs=13&rc=M2k8dnc5cmVydjUzNzhoM0BpM2k8dnc5cmVydjUzNzhoM0BgLmA2MmRrcmpgLS1kLjZzYSNgLmA2MmRrcmpgLS1kLjZzcw%3D%3D&vvpl=1&l=02173103901357500000000000000000000ffff0a00849c804a65&btag=e00070000&format=mp3&mime_type=audio_mpeg",
        "source_timerange": {
            "start_offset": 1.4297142857142857,
            "end_offset": 2.859428571428573
        },
        "target_timerange": {
            "start_offset": 7.117714285714285,
            "end_offset": 8.547428571428572
        },
        "ignore_audio": true,
        "audio_path": null
    },
    {
        "segment_id": "62a6f4be9d8711ef9d0bb8cef68acef0",
        "text": "Meryton, where he had made a",
        "audio_url": "https://v16m-default.akamaized.net/9b54f19235bc8dfb15f9469b03479911/672de398/video/tos/maliva/tos-maliva-v-f15faa-us/oIlCCWdSkIXxeAKGCfH5beAywgI1PCGBOIJrAL/?a=7073&bti=OTU0QDItLmA%3D&ch=0&cr=0&dr=4&er=0&lr=unwatermarked&cd=0%7C0%7C0%7C0&br=312&bt=156&ds=5&ft=.cwOVInz7ThnXqvOXq8Zmo&qs=13&rc=M2k8dnc5cmVydjUzNzhoM0BpM2k8dnc5cmVydjUzNzhoM0BgLmA2MmRrcmpgLS1kLjZzYSNgLmA2MmRrcmpgLS1kLjZzcw%3D%3D&vvpl=1&l=02173103901357500000000000000000000ffff0a00849c804a65&btag=e00070000&format=mp3&mime_type=audio_mpeg",
        "source_timerange": {
            "start_offset": 2.8594285714285705,
            "end_offset": 4.28914285714286
        },
        "target_timerange": {
            "start_offset": 8.54742857142857,
            "end_offset": 9.977142857142859
        },
        "ignore_audio": true,
        "audio_path": null
    },
    {
        "segment_id": "62a6f59a9d8711ef9d0bb8cef68acef0",
        "text": "tolerable fortune, and risen",
        "audio_url": "https://v16m-default.akamaized.net/9b54f19235bc8dfb15f9469b03479911/672de398/video/tos/maliva/tos-maliva-v-f15faa-us/oIlCCWdSkIXxeAKGCfH5beAywgI1PCGBOIJrAL/?a=7073&bti=OTU0QDItLmA%3D&ch=0&cr=0&dr=4&er=0&lr=unwatermarked&cd=0%7C0%7C0%7C0&br=312&bt=156&ds=5&ft=.cwOVInz7ThnXqvOXq8Zmo&qs=13&rc=M2k8dnc5cmVydjUzNzhoM0BpM2k8dnc5cmVydjUzNzhoM0BgLmA2MmRrcmpgLS1kLjZzYSNgLmA2MmRrcmpgLS1kLjZzcw%3D%3D&vvpl=1&l=02173103901357500000000000000000000ffff0a00849c804a65&btag=e00070000&format=mp3&mime_type=audio_mpeg",
        "source_timerange": {
            "start_offset": 4.289142857142855,
            "end_offset": 5.718857142857145
        },
        "target_timerange": {
            "start_offset": 9.977142857142855,
            "end_offset": 11.406857142857143
        },
        "ignore_audio": true,
        "audio_path": null
    },
    {
        "segment_id": "62a6f6809d8711ef9d0bb8cef68acef0",
        "text": "to the honour of knighthood",
        "audio_url": "https://v16m-default.akamaized.net/9b54f19235bc8dfb15f9469b03479911/672de398/video/tos/maliva/tos-maliva-v-f15faa-us/oIlCCWdSkIXxeAKGCfH5beAywgI1PCGBOIJrAL/?a=7073&bti=OTU0QDItLmA%3D&ch=0&cr=0&dr=4&er=0&lr=unwatermarked&cd=0%7C0%7C0%7C0&br=312&bt=156&ds=5&ft=.cwOVInz7ThnXqvOXq8Zmo&qs=13&rc=M2k8dnc5cmVydjUzNzhoM0BpM2k8dnc5cmVydjUzNzhoM0BgLmA2MmRrcmpgLS1kLjZzYSNgLmA2MmRrcmpgLS1kLjZzcw%3D%3D&vvpl=1&l=02173103901357500000000000000000000ffff0a00849c804a65&btag=e00070000&format=mp3&mime_type=audio_mpeg",
        "source_timerange": {
            "start_offset": 5.718857142857142,
            "end_offset": 7.1485714285714295
        },
        "target_timerange": {
            "start_offset": 11.406857142857142,
            "end_offset": 12.836571428571428
        },
        "ignore_audio": true,
        "audio_path": null
    },
    {
        "segment_id": "62a6f7709d8711ef9d0bb8cef68acef0",
        "text": "by an address to the king",
        "audio_url": "https://v16m-default.akamaized.net/9b54f19235bc8dfb15f9469b03479911/672de398/video/tos/maliva/tos-maliva-v-f15faa-us/oIlCCWdSkIXxeAKGCfH5beAywgI1PCGBOIJrAL/?a=7073&bti=OTU0QDItLmA%3D&ch=0&cr=0&dr=4&er=0&lr=unwatermarked&cd=0%7C0%7C0%7C0&br=312&bt=156&ds=5&ft=.cwOVInz7ThnXqvOXq8Zmo&qs=13&rc=M2k8dnc5cmVydjUzNzhoM0BpM2k8dnc5cmVydjUzNzhoM0BgLmA2MmRrcmpgLS1kLjZzYSNgLmA2MmRrcmpgLS1kLjZzcw%3D%3D&vvpl=1&l=02173103901357500000000000000000000ffff0a00849c804a65&btag=e00070000&format=mp3&mime_type=audio_mpeg",
        "source_timerange": {
            "start_offset": 7.148571428571429,
            "end_offset": 8.578285714285716
        },
        "target_timerange": {
            "start_offset": 12.836571428571428,
            "end_offset": 14.266285714285715
        },
        "ignore_audio": true,
        "audio_path": null
    },
    {
        "segment_id": "62a6f84c9d8711ef9d0bb8cef68acef0",
        "text": "during his mayoralty.",
        "audio_url": "https://v16m-default.akamaized.net/9b54f19235bc8dfb15f9469b03479911/672de398/video/tos/maliva/tos-maliva-v-f15faa-us/oIlCCWdSkIXxeAKGCfH5beAywgI1PCGBOIJrAL/?a=7073&bti=OTU0QDItLmA%3D&ch=0&cr=0&dr=4&er=0&lr=unwatermarked&cd=0%7C0%7C0%7C0&br=312&bt=156&ds=5&ft=.cwOVInz7ThnXqvOXq8Zmo&qs=13&rc=M2k8dnc5cmVydjUzNzhoM0BpM2k8dnc5cmVydjUzNzhoM0BgLmA2MmRrcmpgLS1kLjZzYSNgLmA2MmRrcmpgLS1kLjZzcw%3D%3D&vvpl=1&l=02173103901357500000000000000000000ffff0a00849c804a65&btag=e00070000&format=mp3&mime_type=audio_mpeg",
        "source_timerange": {
            "start_offset": 8.578285714285713,
            "end_offset": 10.008000000000001
        },
        "target_timerange": {
            "start_offset": 14.266285714285711,
            "end_offset": 15.696
        },
        "ignore_audio": true,
        "audio_path": null
    },
    {
        "segment_id": "62a702889d8711ef9d0bb8cef68acef0",
        "text": "The distinction had, perhaps,",
        "audio_url": "https://v16m-default.akamaized.net/f2599e772dc0271e812b773f8d7fc3a5/672de390/video/tos/maliva/tos-maliva-v-f15faa-us/oAeLfLDLIHBBlFVMnJ2u8AJhQI0bBJyIAAtYE9/?a=7073&bti=OTU0QDItLmA%3D&ch=0&cr=0&dr=4&er=0&lr=unwatermarked&cd=0%7C0%7C0%7C0&br=312&bt=156&ds=5&ft=.cwOVInz7ThnXqvOXq8Zmo&qs=13&rc=M3VzPHA5cmVydjUzNzhoM0BpM3VzPHA5cmVydjUzNzhoM0AvcTFmMmRrcmpgLS1kLjZzYSMvcTFmMmRrcmpgLS1kLjZzcw%3D%3D&vvpl=1&l=02173103901357500000000000000000000ffff0a00849c804a65&btag=e00070000&format=mp3&mime_type=audio_mpeg",
        "source_timerange": {
            "start_offset": 0,
            "end_offset": 1.4640000000000013
        },
        "target_timerange": {
            "start_offset": 15.696,
            "end_offset": 17.16
        },
        "ignore_audio": false,
        "audio_path": null
    },
    {
        "segment_id": "62a703969d8711ef9d0bb8cef68acef0",
        "text": "been felt too strongly.",
        "audio_url": "https://v16m-default.akamaized.net/f2599e772dc0271e812b773f8d7fc3a5/672de390/video/tos/maliva/tos-maliva-v-f15faa-us/oAeLfLDLIHBBlFVMnJ2u8AJhQI0bBJyIAAtYE9/?a=7073&bti=OTU0QDItLmA%3D&ch=0&cr=0&dr=4&er=0&lr=unwatermarked&cd=0%7C0%7C0%7C0&br=312&bt=156&ds=5&ft=.cwOVInz7ThnXqvOXq8Zmo&qs=13&rc=M3VzPHA5cmVydjUzNzhoM0BpM3VzPHA5cmVydjUzNzhoM0AvcTFmMmRrcmpgLS1kLjZzYSMvcTFmMmRrcmpgLS1kLjZzcw%3D%3D&vvpl=1&l=02173103901357500000000000000000000ffff0a00849c804a65&btag=e00070000&format=mp3&mime_type=audio_mpeg",
        "source_timerange": {
            "start_offset": 1.4640000000000004,
            "end_offset": 2.928
        },
        "target_timerange": {
            "start_offset": 17.16,
            "end_offset": 18.624
        },
        "ignore_audio": true,
        "audio_path": null
    },
    {
        "segment_id": "62a749fa9d8711ef9d0bb8cef68acef0",
        "text": "It had given him a disgust",
        "audio_url": "https://v16m-default.akamaized.net/23f7f98d451e9571ac1e669306e06192/672de3a4/video/tos/maliva/tos-maliva-v-f15faa-us/oYdBQfmWg5MrXETyOAEAI5XPCiCtSx8jCeAeMA/?a=7073&bti=OTU0QDItLmA%3D&ch=0&cr=0&dr=4&er=0&lr=unwatermarked&cd=0%7C0%7C0%7C0&br=312&bt=156&ds=5&ft=.cwOVInz7TheXqvOXq8Zmo&qs=13&rc=M2ltdnM5cmVydjUzNzhoM0BpM2ltdnM5cmVydjUzNzhoM0BjZWRnMmRrcmpgLS1kLjZzYSNjZWRnMmRrcmpgLS1kLjZzcw%3D%3D&vvpl=1&l=02173103901357500000000000000000000ffff0a00849c804a65&btag=e00078000&format=mp3&mime_type=audio_mpeg",
        "source_timerange": {
            "start_offset": 0,
            "end_offset": 1.5342857142857156
        },
        "target_timerange": {
            "start_offset": 18.624,
            "end_offset": 20.158285714285714
        },
        "ignore_audio": false,
        "audio_path": null
    },
    {
        "segment_id": "62a74b6c9d8711ef9d0bb8cef68acef0",
        "text": "to his business and to his",
        "audio_url": "https://v16m-default.akamaized.net/23f7f98d451e9571ac1e669306e06192/672de3a4/video/tos/maliva/tos-maliva-v-f15faa-us/oYdBQfmWg5MrXETyOAEAI5XPCiCtSx8jCeAeMA/?a=7073&bti=OTU0QDItLmA%3D&ch=0&cr=0&dr=4&er=0&lr=unwatermarked&cd=0%7C0%7C0%7C0&br=312&bt=156&ds=5&ft=.cwOVInz7TheXqvOXq8Zmo&qs=13&rc=M2ltdnM5cmVydjUzNzhoM0BpM2ltdnM5cmVydjUzNzhoM0BjZWRnMmRrcmpgLS1kLjZzYSNjZWRnMmRrcmpgLS1kLjZzcw%3D%3D&vvpl=1&l=02173103901357500000000000000000000ffff0a00849c804a65&btag=e00078000&format=mp3&mime_type=audio_mpeg",
        "source_timerange": {
            "start_offset": 1.5342857142857156,
            "end_offset": 3.0685714285714276
        },
        "target_timerange": {
            "start_offset": 20.158285714285714,
            "end_offset": 21.692571428571426
        },
        "ignore_audio": true,
        "audio_path": null
    },
    {
        "segment_id": "62a74cd49d8711ef9d0bb8cef68acef0",
        "text": "residence in a small market",
        "audio_url": "https://v16m-default.akamaized.net/23f7f98d451e9571ac1e669306e06192/672de3a4/video/tos/maliva/tos-maliva-v-f15faa-us/oYdBQfmWg5MrXETyOAEAI5XPCiCtSx8jCeAeMA/?a=7073&bti=OTU0QDItLmA%3D&ch=0&cr=0&dr=4&er=0&lr=unwatermarked&cd=0%7C0%7C0%7C0&br=312&bt=156&ds=5&ft=.cwOVInz7TheXqvOXq8Zmo&qs=13&rc=M2ltdnM5cmVydjUzNzhoM0BpM2ltdnM5cmVydjUzNzhoM0BjZWRnMmRrcmpgLS1kLjZzYSNjZWRnMmRrcmpgLS1kLjZzcw%3D%3D&vvpl=1&l=02173103901357500000000000000000000ffff0a00849c804a65&btag=e00078000&format=mp3&mime_type=audio_mpeg",
        "source_timerange": {
            "start_offset": 3.0685714285714276,
            "end_offset": 4.602857142857143
        },
        "target_timerange": {
            "start_offset": 21.692571428571426,
            "end_offset": 23.226857142857142
        },
        "ignore_audio": true,
        "audio_path": null
    },
    {
        "segment_id": "62a74e009d8711ef9d0bb8cef68acef0",
        "text": "town; and, quitting them",
        "audio_url": "https://v16m-default.akamaized.net/23f7f98d451e9571ac1e669306e06192/672de3a4/video/tos/maliva/tos-maliva-v-f15faa-us/oYdBQfmWg5MrXETyOAEAI5XPCiCtSx8jCeAeMA/?a=7073&bti=OTU0QDItLmA%3D&ch=0&cr=0&dr=4&er=0&lr=unwatermarked&cd=0%7C0%7C0%7C0&br=312&bt=156&ds=5&ft=.cwOVInz7TheXqvOXq8Zmo&qs=13&rc=M2ltdnM5cmVydjUzNzhoM0BpM2ltdnM5cmVydjUzNzhoM0BjZWRnMmRrcmpgLS1kLjZzYSNjZWRnMmRrcmpgLS1kLjZzcw%3D%3D&vvpl=1&l=02173103901357500000000000000000000ffff0a00849c804a65&btag=e00078000&format=mp3&mime_type=audio_mpeg",
        "source_timerange": {
            "start_offset": 4.602857142857143,
            "end_offset": 6.137142857142859
        },
        "target_timerange": {
            "start_offset": 23.226857142857142,
            "end_offset": 24.761142857142858
        },
        "ignore_audio": true,
        "audio_path": null
    },
    {
        "segment_id": "62a74ee69d8711ef9d0bb8cef68acef0",
        "text": "both, he had removed with",
        "audio_url": "https://v16m-default.akamaized.net/23f7f98d451e9571ac1e669306e06192/672de3a4/video/tos/maliva/tos-maliva-v-f15faa-us/oYdBQfmWg5MrXETyOAEAI5XPCiCtSx8jCeAeMA/?a=7073&bti=OTU0QDItLmA%3D&ch=0&cr=0&dr=4&er=0&lr=unwatermarked&cd=0%7C0%7C0%7C0&br=312&bt=156&ds=5&ft=.cwOVInz7TheXqvOXq8Zmo&qs=13&rc=M2ltdnM5cmVydjUzNzhoM0BpM2ltdnM5cmVydjUzNzhoM0BjZWRnMmRrcmpgLS1kLjZzYSNjZWRnMmRrcmpgLS1kLjZzcw%3D%3D&vvpl=1&l=02173103901357500000000000000000000ffff0a00849c804a65&btag=e00078000&format=mp3&mime_type=audio_mpeg",
        "source_timerange": {
            "start_offset": 6.137142857142859,
            "end_offset": 7.671428571428574
        },
        "target_timerange": {
            "start_offset": 24.761142857142858,
            "end_offset": 26.295428571428573
        },
        "ignore_audio": true,
        "audio_path": null
    },
    {
        "segment_id": "62a74fc29d8711ef9d0bb8cef68acef0",
        "text": "his family to a house about",
        "audio_url": "https://v16m-default.akamaized.net/23f7f98d451e9571ac1e669306e06192/672de3a4/video/tos/maliva/tos-maliva-v-f15faa-us/oYdBQfmWg5MrXETyOAEAI5XPCiCtSx8jCeAeMA/?a=7073&bti=OTU0QDItLmA%3D&ch=0&cr=0&dr=4&er=0&lr=unwatermarked&cd=0%7C0%7C0%7C0&br=312&bt=156&ds=5&ft=.cwOVInz7TheXqvOXq8Zmo&qs=13&rc=M2ltdnM5cmVydjUzNzhoM0BpM2ltdnM5cmVydjUzNzhoM0BjZWRnMmRrcmpgLS1kLjZzYSNjZWRnMmRrcmpgLS1kLjZzcw%3D%3D&vvpl=1&l=02173103901357500000000000000000000ffff0a00849c804a65&btag=e00078000&format=mp3&mime_type=audio_mpeg",
        "source_timerange": {
            "start_offset": 7.671428571428571,
            "end_offset": 9.205714285714286
        },
        "target_timerange": {
            "start_offset": 26.29542857142857,
            "end_offset": 27.829714285714285
        },
        "ignore_audio": true,
        "audio_path": null
    },
    {
        "segment_id": "62a750a89d8711ef9d0bb8cef68acef0",
        "text": "a mile from Meryton,",
        "audio_url": "https://v16m-default.akamaized.net/23f7f98d451e9571ac1e669306e06192/672de3a4/video/tos/maliva/tos-maliva-v-f15faa-us/oYdBQfmWg5MrXETyOAEAI5XPCiCtSx8jCeAeMA/?a=7073&bti=OTU0QDItLmA%3D&ch=0&cr=0&dr=4&er=0&lr=unwatermarked&cd=0%7C0%7C0%7C0&br=312&bt=156&ds=5&ft=.cwOVInz7TheXqvOXq8Zmo&qs=13&rc=M2ltdnM5cmVydjUzNzhoM0BpM2ltdnM5cmVydjUzNzhoM0BjZWRnMmRrcmpgLS1kLjZzYSNjZWRnMmRrcmpgLS1kLjZzcw%3D%3D&vvpl=1&l=02173103901357500000000000000000000ffff0a00849c804a65&btag=e00078000&format=mp3&mime_type=audio_mpeg",
        "source_timerange": {
            "start_offset": 9.205714285714286,
            "end_offset": 10.739999999999998
        },
        "target_timerange": {
            "start_offset": 27.829714285714285,
            "end_offset": 29.363999999999997
        },
        "ignore_audio": true,
        "audio_path": null
    },
    {
        "segment_id": "62a7518e9d8711ef9d0bb8cef68acef0",
        "text": "denominated from that period",
        "audio_url": "https://v16m-default.akamaized.net/23f7f98d451e9571ac1e669306e06192/672de3a4/video/tos/maliva/tos-maliva-v-f15faa-us/oYdBQfmWg5MrXETyOAEAI5XPCiCtSx8jCeAeMA/?a=7073&bti=OTU0QDItLmA%3D&ch=0&cr=0&dr=4&er=0&lr=unwatermarked&cd=0%7C0%7C0%7C0&br=312&bt=156&ds=5&ft=.cwOVInz7TheXqvOXq8Zmo&qs=13&rc=M2ltdnM5cmVydjUzNzhoM0BpM2ltdnM5cmVydjUzNzhoM0BjZWRnMmRrcmpgLS1kLjZzYSNjZWRnMmRrcmpgLS1kLjZzcw%3D%3D&vvpl=1&l=02173103901357500000000000000000000ffff0a00849c804a65&btag=e00078000&format=mp3&mime_type=audio_mpeg",
        "source_timerange": {
            "start_offset": 10.739999999999998,
            "end_offset": 12.274285714285714
        },
        "target_timerange": {
            "start_offset": 29.363999999999997,
            "end_offset": 30.898285714285713
        },
        "ignore_audio": true,
        "audio_path": null
    },
    {
        "segment_id": "62a752749d8711ef9d0bb8cef68acef0",
        "text": "Lucas Lodge; where he could",
        "audio_url": "https://v16m-default.akamaized.net/23f7f98d451e9571ac1e669306e06192/672de3a4/video/tos/maliva/tos-maliva-v-f15faa-us/oYdBQfmWg5MrXETyOAEAI5XPCiCtSx8jCeAeMA/?a=7073&bti=OTU0QDItLmA%3D&ch=0&cr=0&dr=4&er=0&lr=unwatermarked&cd=0%7C0%7C0%7C0&br=312&bt=156&ds=5&ft=.cwOVInz7TheXqvOXq8Zmo&qs=13&rc=M2ltdnM5cmVydjUzNzhoM0BpM2ltdnM5cmVydjUzNzhoM0BjZWRnMmRrcmpgLS1kLjZzYSNjZWRnMmRrcmpgLS1kLjZzcw%3D%3D&vvpl=1&l=02173103901357500000000000000000000ffff0a00849c804a65&btag=e00078000&format=mp3&mime_type=audio_mpeg",
        "source_timerange": {
            "start_offset": 12.274285714285714,
            "end_offset": 13.80857142857143
        },
        "target_timerange": {
            "start_offset": 30.898285714285713,
            "end_offset": 32.43257142857143
        },
        "ignore_audio": true,
        "audio_path": null
    },
    {
        "segment_id": "62a753509d8711ef9d0bb8cef68acef0",
        "text": "think with pleasure of his",
        "audio_url": "https://v16m-default.akamaized.net/23f7f98d451e9571ac1e669306e06192/672de3a4/video/tos/maliva/tos-maliva-v-f15faa-us/oYdBQfmWg5MrXETyOAEAI5XPCiCtSx8jCeAeMA/?a=7073&bti=OTU0QDItLmA%3D&ch=0&cr=0&dr=4&er=0&lr=unwatermarked&cd=0%7C0%7C0%7C0&br=312&bt=156&ds=5&ft=.cwOVInz7TheXqvOXq8Zmo&qs=13&rc=M2ltdnM5cmVydjUzNzhoM0BpM2ltdnM5cmVydjUzNzhoM0BjZWRnMmRrcmpgLS1kLjZzYSNjZWRnMmRrcmpgLS1kLjZzcw%3D%3D&vvpl=1&l=02173103901357500000000000000000000ffff0a00849c804a65&btag=e00078000&format=mp3&mime_type=audio_mpeg",
        "source_timerange": {
            "start_offset": 13.80857142857143,
            "end_offset": 15.342857142857145
        },
        "target_timerange": {
            "start_offset": 32.43257142857143,
            "end_offset": 33.966857142857144
        },
        "ignore_audio": true,
        "audio_path": null
    },
    {
        "segment_id": "62a754229d8711ef9d0bb8cef68acef0",
        "text": "own importance, and,",
        "audio_url": "https://v16m-default.akamaized.net/23f7f98d451e9571ac1e669306e06192/672de3a4/video/tos/maliva/tos-maliva-v-f15faa-us/oYdBQfmWg5MrXETyOAEAI5XPCiCtSx8jCeAeMA/?a=7073&bti=OTU0QDItLmA%3D&ch=0&cr=0&dr=4&er=0&lr=unwatermarked&cd=0%7C0%7C0%7C0&br=312&bt=156&ds=5&ft=.cwOVInz7TheXqvOXq8Zmo&qs=13&rc=M2ltdnM5cmVydjUzNzhoM0BpM2ltdnM5cmVydjUzNzhoM0BjZWRnMmRrcmpgLS1kLjZzYSNjZWRnMmRrcmpgLS1kLjZzcw%3D%3D&vvpl=1&l=02173103901357500000000000000000000ffff0a00849c804a65&btag=e00078000&format=mp3&mime_type=audio_mpeg",
        "source_timerange": {
            "start_offset": 15.342857142857138,
            "end_offset": 16.877142857142854
        },
        "target_timerange": {
            "start_offset": 33.96685714285714,
            "end_offset": 35.50114285714285
        },
        "ignore_audio": true,
        "audio_path": null
    },
    {
        "segment_id": "62a754f49d8711ef9d0bb8cef68acef0",
        "text": "unshackled by business,",
        "audio_url": "https://v16m-default.akamaized.net/23f7f98d451e9571ac1e669306e06192/672de3a4/video/tos/maliva/tos-maliva-v-f15faa-us/oYdBQfmWg5MrXETyOAEAI5XPCiCtSx8jCeAeMA/?a=7073&bti=OTU0QDItLmA%3D&ch=0&cr=0&dr=4&er=0&lr=unwatermarked&cd=0%7C0%7C0%7C0&br=312&bt=156&ds=5&ft=.cwOVInz7TheXqvOXq8Zmo&qs=13&rc=M2ltdnM5cmVydjUzNzhoM0BpM2ltdnM5cmVydjUzNzhoM0BjZWRnMmRrcmpgLS1kLjZzYSNjZWRnMmRrcmpgLS1kLjZzcw%3D%3D&vvpl=1&l=02173103901357500000000000000000000ffff0a00849c804a65&btag=e00078000&format=mp3&mime_type=audio_mpeg",
        "source_timerange": {
            "start_offset": 16.877142857142854,
            "end_offset": 18.41142857142857
        },
        "target_timerange": {
            "start_offset": 35.50114285714285,
            "end_offset": 37.03542857142857
        },
        "ignore_audio": true,
        "audio_path": null
    },
    {
        "segment_id": "62a755d09d8711ef9d0bb8cef68acef0",
        "text": "occupy himself solely in",
        "audio_url": "https://v16m-default.akamaized.net/23f7f98d451e9571ac1e669306e06192/672de3a4/video/tos/maliva/tos-maliva-v-f15faa-us/oYdBQfmWg5MrXETyOAEAI5XPCiCtSx8jCeAeMA/?a=7073&bti=OTU0QDItLmA%3D&ch=0&cr=0&dr=4&er=0&lr=unwatermarked&cd=0%7C0%7C0%7C0&br=312&bt=156&ds=5&ft=.cwOVInz7TheXqvOXq8Zmo&qs=13&rc=M2ltdnM5cmVydjUzNzhoM0BpM2ltdnM5cmVydjUzNzhoM0BjZWRnMmRrcmpgLS1kLjZzYSNjZWRnMmRrcmpgLS1kLjZzcw%3D%3D&vvpl=1&l=02173103901357500000000000000000000ffff0a00849c804a65&btag=e00078000&format=mp3&mime_type=audio_mpeg",
        "source_timerange": {
            "start_offset": 18.41142857142857,
            "end_offset": 19.945714285714285
        },
        "target_timerange": {
            "start_offset": 37.03542857142857,
            "end_offset": 38.569714285714284
        },
        "ignore_audio": true,
        "audio_path": null
    },
    {
        "segment_id": "62a756a29d8711ef9d0bb8cef68acef0",
        "text": "being civil to all the world.",
        "audio_url": "https://v16m-default.akamaized.net/23f7f98d451e9571ac1e669306e06192/672de3a4/video/tos/maliva/tos-maliva-v-f15faa-us/oYdBQfmWg5MrXETyOAEAI5XPCiCtSx8jCeAeMA/?a=7073&bti=OTU0QDItLmA%3D&ch=0&cr=0&dr=4&er=0&lr=unwatermarked&cd=0%7C0%7C0%7C0&br=312&bt=156&ds=5&ft=.cwOVInz7TheXqvOXq8Zmo&qs=13&rc=M2ltdnM5cmVydjUzNzhoM0BpM2ltdnM5cmVydjUzNzhoM0BjZWRnMmRrcmpgLS1kLjZzYSNjZWRnMmRrcmpgLS1kLjZzcw%3D%3D&vvpl=1&l=02173103901357500000000000000000000ffff0a00849c804a65&btag=e00078000&format=mp3&mime_type=audio_mpeg",
        "source_timerange": {
            "start_offset": 19.945714285714285,
            "end_offset": 21.48
        },
        "target_timerange": {
            "start_offset": 38.569714285714284,
            "end_offset": 40.104
        },
        "ignore_audio": true,
        "audio_path": null
    },
    {
        "segment_id": "62a76fe89d8711ef9d0bb8cef68acef0",
        "text": "For, though elated by his",
        "audio_url": "https://v16m-default.akamaized.net/25d44e86cfd25382da02ec943507ab42/672de396/video/tos/maliva/tos-maliva-v-f15faa-us/oAhQAEy4vALACAijiH1EctM2UV4ZBSPFyE5kA/?a=7073&bti=OTU0QDItLmA%3D&ch=0&cr=0&dr=4&er=0&lr=unwatermarked&cd=0%7C0%7C0%7C0&br=312&bt=156&ds=5&ft=.cwOVInz7TheXqvOXq8Zmo&qs=13&rc=MzNqNnI5cmVydjUzNzhoM0BpMzNqNnI5cmVydjUzNzhoM0BmYi1iMmRrcmpgLS1kLjZzYSNmYi1iMmRrcmpgLS1kLjZzcw%3D%3D&vvpl=1&l=02173103901357500000000000000000000ffff0a00849c804a65&btag=e00070000&format=mp3&mime_type=audio_mpeg",
        "source_timerange": {
            "start_offset": 0,
            "end_offset": 1.5215999999999958
        },
        "target_timerange": {
            "start_offset": 40.104,
            "end_offset": 41.6256
        },
        "ignore_audio": false,
        "audio_path": null
    },
    {
        "segment_id": "62a7711e9d8711ef9d0bb8cef68acef0",
        "text": "rank, it did not render",
        "audio_url": "https://v16m-default.akamaized.net/25d44e86cfd25382da02ec943507ab42/672de396/video/tos/maliva/tos-maliva-v-f15faa-us/oAhQAEy4vALACAijiH1EctM2UV4ZBSPFyE5kA/?a=7073&bti=OTU0QDItLmA%3D&ch=0&cr=0&dr=4&er=0&lr=unwatermarked&cd=0%7C0%7C0%7C0&br=312&bt=156&ds=5&ft=.cwOVInz7TheXqvOXq8Zmo&qs=13&rc=MzNqNnI5cmVydjUzNzhoM0BpMzNqNnI5cmVydjUzNzhoM0BmYi1iMmRrcmpgLS1kLjZzYSNmYi1iMmRrcmpgLS1kLjZzcw%3D%3D&vvpl=1&l=02173103901357500000000000000000000ffff0a00849c804a65&btag=e00070000&format=mp3&mime_type=audio_mpeg",
        "source_timerange": {
            "start_offset": 1.5215999999999994,
            "end_offset": 3.0431999999999952
        },
        "target_timerange": {
            "start_offset": 41.6256,
            "end_offset": 43.1472
        },
        "ignore_audio": true,
        "audio_path": null
    },
    {
        "segment_id": "62a773809d8711ef9d0bb8cef68acef0",
        "text": "him supercilious; on the",
        "audio_url": "https://v16m-default.akamaized.net/25d44e86cfd25382da02ec943507ab42/672de396/video/tos/maliva/tos-maliva-v-f15faa-us/oAhQAEy4vALACAijiH1EctM2UV4ZBSPFyE5kA/?a=7073&bti=OTU0QDItLmA%3D&ch=0&cr=0&dr=4&er=0&lr=unwatermarked&cd=0%7C0%7C0%7C0&br=312&bt=156&ds=5&ft=.cwOVInz7TheXqvOXq8Zmo&qs=13&rc=MzNqNnI5cmVydjUzNzhoM0BpMzNqNnI5cmVydjUzNzhoM0BmYi1iMmRrcmpgLS1kLjZzYSNmYi1iMmRrcmpgLS1kLjZzcw%3D%3D&vvpl=1&l=02173103901357500000000000000000000ffff0a00849c804a65&btag=e00070000&format=mp3&mime_type=audio_mpeg",
        "source_timerange": {
            "start_offset": 3.043199999999999,
            "end_offset": 4.564800000000002
        },
        "target_timerange": {
            "start_offset": 43.1472,
            "end_offset": 44.668800000000005
        },
        "ignore_audio": true,
        "audio_path": null
    },
    {
        "segment_id": "62a774849d8711ef9d0bb8cef68acef0",
        "text": "contrary, he was all",
        "audio_url": "https://v16m-default.akamaized.net/25d44e86cfd25382da02ec943507ab42/672de396/video/tos/maliva/tos-maliva-v-f15faa-us/oAhQAEy4vALACAijiH1EctM2UV4ZBSPFyE5kA/?a=7073&bti=OTU0QDItLmA%3D&ch=0&cr=0&dr=4&er=0&lr=unwatermarked&cd=0%7C0%7C0%7C0&br=312&bt=156&ds=5&ft=.cwOVInz7TheXqvOXq8Zmo&qs=13&rc=MzNqNnI5cmVydjUzNzhoM0BpMzNqNnI5cmVydjUzNzhoM0BmYi1iMmRrcmpgLS1kLjZzYSNmYi1iMmRrcmpgLS1kLjZzcw%3D%3D&vvpl=1&l=02173103901357500000000000000000000ffff0a00849c804a65&btag=e00070000&format=mp3&mime_type=audio_mpeg",
        "source_timerange": {
            "start_offset": 4.564800000000005,
            "end_offset": 6.086400000000001
        },
        "target_timerange": {
            "start_offset": 44.668800000000005,
            "end_offset": 46.190400000000004
        },
        "ignore_audio": true,
        "audio_path": null
    },
    {
        "segment_id": "62a775609d8711ef9d0bb8cef68acef0",
        "text": "attention to everybody.",
        "audio_url": "https://v16m-default.akamaized.net/25d44e86cfd25382da02ec943507ab42/672de396/video/tos/maliva/tos-maliva-v-f15faa-us/oAhQAEy4vALACAijiH1EctM2UV4ZBSPFyE5kA/?a=7073&bti=OTU0QDItLmA%3D&ch=0&cr=0&dr=4&er=0&lr=unwatermarked&cd=0%7C0%7C0%7C0&br=312&bt=156&ds=5&ft=.cwOVInz7TheXqvOXq8Zmo&qs=13&rc=MzNqNnI5cmVydjUzNzhoM0BpMzNqNnI5cmVydjUzNzhoM0BmYi1iMmRrcmpgLS1kLjZzYSNmYi1iMmRrcmpgLS1kLjZzcw%3D%3D&vvpl=1&l=02173103901357500000000000000000000ffff0a00849c804a65&btag=e00070000&format=mp3&mime_type=audio_mpeg",
        "source_timerange": {
            "start_offset": 6.086400000000005,
            "end_offset": 7.6080000000000005
        },
        "target_timerange": {
            "start_offset": 46.190400000000004,
            "end_offset": 47.712
        },
        "ignore_audio": true,
        "audio_path": null
    },
    {
        "segment_id": "62a788529d8711ef9d0bb8cef68acef0",
        "text": "By nature inoffensive,",
        "audio_url": "https://v16m-default.akamaized.net/39c5ef0cdf4f696e20d5ae803f500e72/672de395/video/tos/maliva/tos-maliva-v-f15faa-us/ogOyxALioUGSZ4OAySAh2P7AEQ9AtEVPCBvij/?a=7073&bti=OTU0QDItLmA%3D&ch=0&cr=0&dr=4&er=0&lr=unwatermarked&cd=0%7C0%7C0%7C0&br=312&bt=156&ds=5&ft=.cwOVInz7TheXqvOXq8Zmo&qs=13&rc=aml0N2s5cmVydjUzNzhoM0Bpaml0N2s5cmVydjUzNzhoM0BkZGUtMmRrcmpgLS1kLjZzYSNkZGUtMmRrcmpgLS1kLjZzcw%3D%3D&vvpl=1&l=02173103901357500000000000000000000ffff0a00849c804a65&btag=e00070000&format=mp3&mime_type=audio_mpeg",
        "source_timerange": {
            "start_offset": 0,
            "end_offset": 1.6620000000000035
        },
        "target_timerange": {
            "start_offset": 47.712,
            "end_offset": 49.374
        },
        "ignore_audio": false,
        "audio_path": null
    },
    {
        "segment_id": "62a789d89d8711ef9d0bb8cef68acef0",
        "text": "friendly, and obliging, his",
        "audio_url": "https://v16m-default.akamaized.net/39c5ef0cdf4f696e20d5ae803f500e72/672de395/video/tos/maliva/tos-maliva-v-f15faa-us/ogOyxALioUGSZ4OAySAh2P7AEQ9AtEVPCBvij/?a=7073&bti=OTU0QDItLmA%3D&ch=0&cr=0&dr=4&er=0&lr=unwatermarked&cd=0%7C0%7C0%7C0&br=312&bt=156&ds=5&ft=.cwOVInz7TheXqvOXq8Zmo&qs=13&rc=aml0N2s5cmVydjUzNzhoM0Bpaml0N2s5cmVydjUzNzhoM0BkZGUtMmRrcmpgLS1kLjZzYSNkZGUtMmRrcmpgLS1kLjZzcw%3D%3D&vvpl=1&l=02173103901357500000000000000000000ffff0a00849c804a65&btag=e00070000&format=mp3&mime_type=audio_mpeg",
        "source_timerange": {
            "start_offset": 1.661999999999999,
            "end_offset": 3.3240000000000025
        },
        "target_timerange": {
            "start_offset": 49.374,
            "end_offset": 51.036
        },
        "ignore_audio": true,
        "audio_path": null
    },
    {
        "segment_id": "62a78c629d8711ef9d0bb8cef68acef0",
        "text": "presentation at St. James’s",
        "audio_url": "https://v16m-default.akamaized.net/39c5ef0cdf4f696e20d5ae803f500e72/672de395/video/tos/maliva/tos-maliva-v-f15faa-us/ogOyxALioUGSZ4OAySAh2P7AEQ9AtEVPCBvij/?a=7073&bti=OTU0QDItLmA%3D&ch=0&cr=0&dr=4&er=0&lr=unwatermarked&cd=0%7C0%7C0%7C0&br=312&bt=156&ds=5&ft=.cwOVInz7TheXqvOXq8Zmo&qs=13&rc=aml0N2s5cmVydjUzNzhoM0Bpaml0N2s5cmVydjUzNzhoM0BkZGUtMmRrcmpgLS1kLjZzYSNkZGUtMmRrcmpgLS1kLjZzcw%3D%3D&vvpl=1&l=02173103901357500000000000000000000ffff0a00849c804a65&btag=e00070000&format=mp3&mime_type=audio_mpeg",
        "source_timerange": {
            "start_offset": 3.323999999999998,
            "end_offset": 4.9860000000000015
        },
        "target_timerange": {
            "start_offset": 51.036,
            "end_offset": 52.698
        },
        "ignore_audio": true,
        "audio_path": null
    },
    {
        "segment_id": "62a78dca9d8711ef9d0bb8cef68acef0",
        "text": "had made him courteous.",
        "audio_url": "https://v16m-default.akamaized.net/39c5ef0cdf4f696e20d5ae803f500e72/672de395/video/tos/maliva/tos-maliva-v-f15faa-us/ogOyxALioUGSZ4OAySAh2P7AEQ9AtEVPCBvij/?a=7073&bti=OTU0QDItLmA%3D&ch=0&cr=0&dr=4&er=0&lr=unwatermarked&cd=0%7C0%7C0%7C0&br=312&bt=156&ds=5&ft=.cwOVInz7TheXqvOXq8Zmo&qs=13&rc=aml0N2s5cmVydjUzNzhoM0Bpaml0N2s5cmVydjUzNzhoM0BkZGUtMmRrcmpgLS1kLjZzYSNkZGUtMmRrcmpgLS1kLjZzcw%3D%3D&vvpl=1&l=02173103901357500000000000000000000ffff0a00849c804a65&btag=e00070000&format=mp3&mime_type=audio_mpeg",
        "source_timerange": {
            "start_offset": 4.985999999999997,
            "end_offset": 6.648000000000001
        },
        "target_timerange": {
            "start_offset": 52.698,
            "end_offset": 54.36
        },
        "ignore_audio": true,
        "audio_path": null
    },
    {
        "segment_id": "62a7a1849d8711ef9d0bb8cef68acef0",
        "text": "Lady Lucas was a very good",
        "audio_url": "https://v16m-default.akamaized.net/c2f38aa357e56996f79dc8ce8b88a0a0/672de393/video/tos/maliva/tos-maliva-v-f15faa-us/oEmtjZiVtLMwEACKpQPU4JSAAAy2Ey96iBSIv/?a=7073&bti=OTU0QDItLmA%3D&ch=0&cr=0&dr=4&er=0&lr=unwatermarked&cd=0%7C0%7C0%7C0&br=312&bt=156&ds=5&ft=.cwOVInz7ThnXqvOXq8Zmo&qs=13&rc=ajk1bGo5cmVydjUzNzhoM0Bpajk1bGo5cmVydjUzNzhoM0Axb2VyMmRrcmpgLS1kLjZzYSMxb2VyMmRrcmpgLS1kLjZzcw%3D%3D&vvpl=1&l=02173103901357500000000000000000000ffff0a00849c804a65&btag=e00070000&format=mp3&mime_type=audio_mpeg",
        "source_timerange": {
            "start_offset": 0,
            "end_offset": 1.4399999999999924
        },
        "target_timerange": {
            "start_offset": 54.36,
            "end_offset": 55.8
        },
        "ignore_audio": false,
        "audio_path": null
    },
    {
        "segment_id": "62a7a2e29d8711ef9d0bb8cef68acef0",
        "text": "kind of woman, not too",
        "audio_url": "https://v16m-default.akamaized.net/c2f38aa357e56996f79dc8ce8b88a0a0/672de393/video/tos/maliva/tos-maliva-v-f15faa-us/oEmtjZiVtLMwEACKpQPU4JSAAAy2Ey96iBSIv/?a=7073&bti=OTU0QDItLmA%3D&ch=0&cr=0&dr=4&er=0&lr=unwatermarked&cd=0%7C0%7C0%7C0&br=312&bt=156&ds=5&ft=.cwOVInz7ThnXqvOXq8Zmo&qs=13&rc=ajk1bGo5cmVydjUzNzhoM0Bpajk1bGo5cmVydjUzNzhoM0Axb2VyMmRrcmpgLS1kLjZzYSMxb2VyMmRrcmpgLS1kLjZzcw%3D%3D&vvpl=1&l=02173103901357500000000000000000000ffff0a00849c804a65&btag=e00070000&format=mp3&mime_type=audio_mpeg",
        "source_timerange": {
            "start_offset": 1.4399999999999977,
            "end_offset": 2.8799999999999972
        },
        "target_timerange": {
            "start_offset": 55.8,
            "end_offset": 57.24
        },
        "ignore_audio": true,
        "audio_path": null
    },
    {
        "segment_id": "62a7a3d29d8711ef9d0bb8cef68acef0",
        "text": "clever to be a valuable",
        "audio_url": "https://v16m-default.akamaized.net/c2f38aa357e56996f79dc8ce8b88a0a0/672de393/video/tos/maliva/tos-maliva-v-f15faa-us/oEmtjZiVtLMwEACKpQPU4JSAAAy2Ey96iBSIv/?a=7073&bti=OTU0QDItLmA%3D&ch=0&cr=0&dr=4&er=0&lr=unwatermarked&cd=0%7C0%7C0%7C0&br=312&bt=156&ds=5&ft=.cwOVInz7ThnXqvOXq8Zmo&qs=13&rc=ajk1bGo5cmVydjUzNzhoM0Bpajk1bGo5cmVydjUzNzhoM0Axb2VyMmRrcmpgLS1kLjZzYSMxb2VyMmRrcmpgLS1kLjZzcw%3D%3D&vvpl=1&l=02173103901357500000000000000000000ffff0a00849c804a65&btag=e00070000&format=mp3&mime_type=audio_mpeg",
        "source_timerange": {
            "start_offset": 2.8800000000000026,
            "end_offset": 4.320000000000002
        },
        "target_timerange": {
            "start_offset": 57.24,
            "end_offset": 58.68000000000001
        },
        "ignore_audio": true,
        "audio_path": null
    },
    {
        "segment_id": "62a7a4b89d8711ef9d0bb8cef68acef0",
        "text": "neighbour to Mrs. Bennet.",
        "audio_url": "https://v16m-default.akamaized.net/c2f38aa357e56996f79dc8ce8b88a0a0/672de393/video/tos/maliva/tos-maliva-v-f15faa-us/oEmtjZiVtLMwEACKpQPU4JSAAAy2Ey96iBSIv/?a=7073&bti=OTU0QDItLmA%3D&ch=0&cr=0&dr=4&er=0&lr=unwatermarked&cd=0%7C0%7C0%7C0&br=312&bt=156&ds=5&ft=.cwOVInz7ThnXqvOXq8Zmo&qs=13&rc=ajk1bGo5cmVydjUzNzhoM0Bpajk1bGo5cmVydjUzNzhoM0Axb2VyMmRrcmpgLS1kLjZzYSMxb2VyMmRrcmpgLS1kLjZzcw%3D%3D&vvpl=1&l=02173103901357500000000000000000000ffff0a00849c804a65&btag=e00070000&format=mp3&mime_type=audio_mpeg",
        "source_timerange": {
            "start_offset": 4.320000000000007,
            "end_offset": 5.76
        },
        "target_timerange": {
            "start_offset": 58.68000000000001,
            "end_offset": 60.120000000000005
        },
        "ignore_audio": true,
        "audio_path": null
    },
    {
        "segment_id": "62a7aab29d8711ef9d0bb8cef68acef0",
        "text": "They had several children.",
        "audio_url": "https://v16m-default.akamaized.net/4fdfc256589df5dc1fe0b455eb2e9e6b/672de390/video/tos/maliva/tos-maliva-v-f15faa-us/o4Q41CE4SymiZyLBPUjAc1GsEvAVtAcLajA2i/?a=7073&bti=OTU0QDItLmA%3D&ch=0&cr=0&dr=4&er=0&lr=unwatermarked&cd=0%7C0%7C0%7C0&br=312&bt=156&ds=5&ft=.cwOVInz7TheXqvOXq8Zmo&qs=13&rc=M3RrO285cmVydjUzNzhoM0BpM3RrO285cmVydjUzNzhoM0AwbG9nMmRrcmpgLS1kLjZzYSMwbG9nMmRrcmpgLS1kLjZzcw%3D%3D&vvpl=1&l=02173103901357500000000000000000000ffff0a00849c804a65&btag=e00070000&format=mp3&mime_type=audio_mpeg",
        "source_timerange": {
            "start_offset": 0,
            "end_offset": 1.464
        },
        "target_timerange": {
            "start_offset": 60.120000000000005,
            "end_offset": 61.584
        },
        "ignore_audio": false,
        "audio_path": null
    },
    {
        "segment_id": "62a7c6e69d8711ef9d0bb8cef68acef0",
        "text": "The eldest of them, a",
        "audio_url": "https://v16m-default.akamaized.net/a0278d6746847b6583d8f3ce20274160/672de395/video/tos/maliva/tos-maliva-v-f15faa-us/oADvAEeA8EjLuFPhgJ5fAaQyKgAtBVQptnEYLB/?a=7073&bti=OTU0QDItLmA%3D&ch=0&cr=0&dr=4&er=0&lr=unwatermarked&cd=0%7C0%7C0%7C0&br=312&bt=156&ds=5&ft=.cwOVInz7TheXqvOXq8Zmo&qs=13&rc=ajNkdXg5cmVydjUzNzhoM0BpajNkdXg5cmVydjUzNzhoM0BqLm9oMmRrcmpgLS1kLjZzYSNqLm9oMmRrcmpgLS1kLjZzcw%3D%3D&vvpl=1&l=02173103901357500000000000000000000ffff0a00849c804a65&btag=e00070000&format=mp3&mime_type=audio_mpeg",
        "source_timerange": {
            "start_offset": 0,
            "end_offset": 1.382400000000005
        },
        "target_timerange": {
            "start_offset": 61.584,
            "end_offset": 62.9664
        },
        "ignore_audio": false,
        "audio_path": null
    },
    {
        "segment_id": "62a7c8b29d8711ef9d0bb8cef68acef0",
        "text": "sensible, intelligent",
        "audio_url": "https://v16m-default.akamaized.net/a0278d6746847b6583d8f3ce20274160/672de395/video/tos/maliva/tos-maliva-v-f15faa-us/oADvAEeA8EjLuFPhgJ5fAaQyKgAtBVQptnEYLB/?a=7073&bti=OTU0QDItLmA%3D&ch=0&cr=0&dr=4&er=0&lr=unwatermarked&cd=0%7C0%7C0%7C0&br=312&bt=156&ds=5&ft=.cwOVInz7TheXqvOXq8Zmo&qs=13&rc=ajNkdXg5cmVydjUzNzhoM0BpajNkdXg5cmVydjUzNzhoM0BqLm9oMmRrcmpgLS1kLjZzYSNqLm9oMmRrcmpgLS1kLjZzcw%3D%3D&vvpl=1&l=02173103901357500000000000000000000ffff0a00849c804a65&btag=e00070000&format=mp3&mime_type=audio_mpeg",
        "source_timerange": {
            "start_offset": 1.382399999999997,
            "end_offset": 2.764800000000002
        },
        "target_timerange": {
            "start_offset": 62.9664,
            "end_offset": 64.3488
        },
        "ignore_audio": true,
        "audio_path": null
    },
    {
        "segment_id": "62a7ca389d8711ef9d0bb8cef68acef0",
        "text": "young woman, about",
        "audio_url": "https://v16m-default.akamaized.net/a0278d6746847b6583d8f3ce20274160/672de395/video/tos/maliva/tos-maliva-v-f15faa-us/oADvAEeA8EjLuFPhgJ5fAaQyKgAtBVQptnEYLB/?a=7073&bti=OTU0QDItLmA%3D&ch=0&cr=0&dr=4&er=0&lr=unwatermarked&cd=0%7C0%7C0%7C0&br=312&bt=156&ds=5&ft=.cwOVInz7TheXqvOXq8Zmo&qs=13&rc=ajNkdXg5cmVydjUzNzhoM0BpajNkdXg5cmVydjUzNzhoM0BqLm9oMmRrcmpgLS1kLjZzYSNqLm9oMmRrcmpgLS1kLjZzcw%3D%3D&vvpl=1&l=02173103901357500000000000000000000ffff0a00849c804a65&btag=e00070000&format=mp3&mime_type=audio_mpeg",
        "source_timerange": {
            "start_offset": 2.764799999999994,
            "end_offset": 4.147200000000006
        },
        "target_timerange": {
            "start_offset": 64.3488,
            "end_offset": 65.7312
        },
        "ignore_audio": true,
        "audio_path": null
    },
    {
        "segment_id": "62a7cba09d8711ef9d0bb8cef68acef0",
        "text": "twenty-seven, was",
        "audio_url": "https://v16m-default.akamaized.net/a0278d6746847b6583d8f3ce20274160/672de395/video/tos/maliva/tos-maliva-v-f15faa-us/oADvAEeA8EjLuFPhgJ5fAaQyKgAtBVQptnEYLB/?a=7073&bti=OTU0QDItLmA%3D&ch=0&cr=0&dr=4&er=0&lr=unwatermarked&cd=0%7C0%7C0%7C0&br=312&bt=156&ds=5&ft=.cwOVInz7TheXqvOXq8Zmo&qs=13&rc=ajNkdXg5cmVydjUzNzhoM0BpajNkdXg5cmVydjUzNzhoM0BqLm9oMmRrcmpgLS1kLjZzYSNqLm9oMmRrcmpgLS1kLjZzcw%3D%3D&vvpl=1&l=02173103901357500000000000000000000ffff0a00849c804a65&btag=e00070000&format=mp3&mime_type=audio_mpeg",
        "source_timerange": {
            "start_offset": 4.147199999999998,
            "end_offset": 5.529599999999996
        },
        "target_timerange": {
            "start_offset": 65.7312,
            "end_offset": 67.11359999999999
        },
        "ignore_audio": true,
        "audio_path": null
    },
    {
        "segment_id": "62a7ccfe9d8711ef9d0bb8cef68acef0",
        "text": "Elizabeth’s intimate friend.",
        "audio_url": "https://v16m-default.akamaized.net/a0278d6746847b6583d8f3ce20274160/672de395/video/tos/maliva/tos-maliva-v-f15faa-us/oADvAEeA8EjLuFPhgJ5fAaQyKgAtBVQptnEYLB/?a=7073&bti=OTU0QDItLmA%3D&ch=0&cr=0&dr=4&er=0&lr=unwatermarked&cd=0%7C0%7C0%7C0&br=312&bt=156&ds=5&ft=.cwOVInz7TheXqvOXq8Zmo&qs=13&rc=ajNkdXg5cmVydjUzNzhoM0BpajNkdXg5cmVydjUzNzhoM0BqLm9oMmRrcmpgLS1kLjZzYSNqLm9oMmRrcmpgLS1kLjZzcw%3D%3D&vvpl=1&l=02173103901357500000000000000000000ffff0a00849c804a65&btag=e00070000&format=mp3&mime_type=audio_mpeg",
        "source_timerange": {
            "start_offset": 5.529599999999988,
            "end_offset": 6.912
        },
        "target_timerange": {
            "start_offset": 67.11359999999999,
            "end_offset": 68.496
        },
        "ignore_audio": true,
        "audio_path": null
    },
    {
        "segment_id": "62a7ef4a9d8711ef9d0bb8cef68acef0",
        "text": "That the Miss Lucases and the",
        "audio_url": "https://v16m-default.akamaized.net/24de69b78e8bef84079ffc0ea2652507/672de397/video/tos/maliva/tos-maliva-v-f15faa-us/oYAAz277EEVXWvuY8UZi4tBSy5idQAyZLAjCP/?a=7073&bti=OTU0QDItLmA%3D&ch=0&cr=0&dr=4&er=0&lr=unwatermarked&cd=0%7C0%7C0%7C0&br=312&bt=156&ds=5&ft=.cwOVInz7ThnXqvOXq8Zmo&qs=13&rc=M3B1OnU5cmVydjUzNzhoM0BpM3B1OnU5cmVydjUzNzhoM0BgM2FyMmRrcmpgLS1kLjZzYSNgM2FyMmRrcmpgLS1kLjZzcw%3D%3D&vvpl=1&l=02173103901357500000000000000000000ffff0a00849c804a65&btag=e00070000&format=mp3&mime_type=audio_mpeg",
        "source_timerange": {
            "start_offset": 0,
            "end_offset": 1.4091428571428501
        },
        "target_timerange": {
            "start_offset": 68.496,
            "end_offset": 69.90514285714285
        },
        "ignore_audio": false,
        "audio_path": null
    },
    {
        "segment_id": "62a7f0a89d8711ef9d0bb8cef68acef0",
        "text": "Miss Bennets should meet to",
        "audio_url": "https://v16m-default.akamaized.net/24de69b78e8bef84079ffc0ea2652507/672de397/video/tos/maliva/tos-maliva-v-f15faa-us/oYAAz277EEVXWvuY8UZi4tBSy5idQAyZLAjCP/?a=7073&bti=OTU0QDItLmA%3D&ch=0&cr=0&dr=4&er=0&lr=unwatermarked&cd=0%7C0%7C0%7C0&br=312&bt=156&ds=5&ft=.cwOVInz7ThnXqvOXq8Zmo&qs=13&rc=M3B1OnU5cmVydjUzNzhoM0BpM3B1OnU5cmVydjUzNzhoM0BgM2FyMmRrcmpgLS1kLjZzYSNgM2FyMmRrcmpgLS1kLjZzcw%3D%3D&vvpl=1&l=02173103901357500000000000000000000ffff0a00849c804a65&btag=e00070000&format=mp3&mime_type=audio_mpeg",
        "source_timerange": {
            "start_offset": 1.4091428571428537,
            "end_offset": 2.818285714285718
        },
        "target_timerange": {
            "start_offset": 69.90514285714285,
            "end_offset": 71.31428571428572
        },
        "ignore_audio": true,
        "audio_path": null
    },
    {
        "segment_id": "62a7f1a29d8711ef9d0bb8cef68acef0",
        "text": "talk over a ball was",
        "audio_url": "https://v16m-default.akamaized.net/24de69b78e8bef84079ffc0ea2652507/672de397/video/tos/maliva/tos-maliva-v-f15faa-us/oYAAz277EEVXWvuY8UZi4tBSy5idQAyZLAjCP/?a=7073&bti=OTU0QDItLmA%3D&ch=0&cr=0&dr=4&er=0&lr=unwatermarked&cd=0%7C0%7C0%7C0&br=312&bt=156&ds=5&ft=.cwOVInz7ThnXqvOXq8Zmo&qs=13&rc=M3B1OnU5cmVydjUzNzhoM0BpM3B1OnU5cmVydjUzNzhoM0BgM2FyMmRrcmpgLS1kLjZzYSNgM2FyMmRrcmpgLS1kLjZzcw%3D%3D&vvpl=1&l=02173103901357500000000000000000000ffff0a00849c804a65&btag=e00070000&format=mp3&mime_type=audio_mpeg",
        "source_timerange": {
            "start_offset": 2.8182857142857216,
            "end_offset": 4.227428571428572
        },
        "target_timerange": {
            "start_offset": 71.31428571428572,
            "end_offset": 72.72342857142857
        },
        "ignore_audio": true,
        "audio_path": null
    },
    {
        "segment_id": "62a7f2889d8711ef9d0bb8cef68acef0",
        "text": "absolutely necessary; and the",
        "audio_url": "https://v16m-default.akamaized.net/24de69b78e8bef84079ffc0ea2652507/672de397/video/tos/maliva/tos-maliva-v-f15faa-us/oYAAz277EEVXWvuY8UZi4tBSy5idQAyZLAjCP/?a=7073&bti=OTU0QDItLmA%3D&ch=0&cr=0&dr=4&er=0&lr=unwatermarked&cd=0%7C0%7C0%7C0&br=312&bt=156&ds=5&ft=.cwOVInz7ThnXqvOXq8Zmo&qs=13&rc=M3B1OnU5cmVydjUzNzhoM0BpM3B1OnU5cmVydjUzNzhoM0BgM2FyMmRrcmpgLS1kLjZzYSNgM2FyMmRrcmpgLS1kLjZzcw%3D%3D&vvpl=1&l=02173103901357500000000000000000000ffff0a00849c804a65&btag=e00070000&format=mp3&mime_type=audio_mpeg",
        "source_timerange": {
            "start_offset": 4.227428571428575,
            "end_offset": 5.6365714285714255
        },
        "target_timerange": {
            "start_offset": 72.72342857142857,
            "end_offset": 74.13257142857142
        },
        "ignore_audio": true,
        "audio_path": null
    },
    {
        "segment_id": "62a7f36e9d8711ef9d0bb8cef68acef0",
        "text": "morning after the assembly",
        "audio_url": "https://v16m-default.akamaized.net/24de69b78e8bef84079ffc0ea2652507/672de397/video/tos/maliva/tos-maliva-v-f15faa-us/oYAAz277EEVXWvuY8UZi4tBSy5idQAyZLAjCP/?a=7073&bti=OTU0QDItLmA%3D&ch=0&cr=0&dr=4&er=0&lr=unwatermarked&cd=0%7C0%7C0%7C0&br=312&bt=156&ds=5&ft=.cwOVInz7ThnXqvOXq8Zmo&qs=13&rc=M3B1OnU5cmVydjUzNzhoM0BpM3B1OnU5cmVydjUzNzhoM0BgM2FyMmRrcmpgLS1kLjZzYSNgM2FyMmRrcmpgLS1kLjZzcw%3D%3D&vvpl=1&l=02173103901357500000000000000000000ffff0a00849c804a65&btag=e00070000&format=mp3&mime_type=audio_mpeg",
        "source_timerange": {
            "start_offset": 5.636571428571429,
            "end_offset": 7.045714285714279
        },
        "target_timerange": {
            "start_offset": 74.13257142857142,
            "end_offset": 75.54171428571428
        },
        "ignore_audio": true,
        "audio_path": null
    },
    {
        "segment_id": "62a7f44a9d8711ef9d0bb8cef68acef0",
        "text": "brought the former to",
        "audio_url": "https://v16m-default.akamaized.net/24de69b78e8bef84079ffc0ea2652507/672de397/video/tos/maliva/tos-maliva-v-f15faa-us/oYAAz277EEVXWvuY8UZi4tBSy5idQAyZLAjCP/?a=7073&bti=OTU0QDItLmA%3D&ch=0&cr=0&dr=4&er=0&lr=unwatermarked&cd=0%7C0%7C0%7C0&br=312&bt=156&ds=5&ft=.cwOVInz7ThnXqvOXq8Zmo&qs=13&rc=M3B1OnU5cmVydjUzNzhoM0BpM3B1OnU5cmVydjUzNzhoM0BgM2FyMmRrcmpgLS1kLjZzYSNgM2FyMmRrcmpgLS1kLjZzcw%3D%3D&vvpl=1&l=02173103901357500000000000000000000ffff0a00849c804a65&btag=e00070000&format=mp3&mime_type=audio_mpeg",
        "source_timerange": {
            "start_offset": 7.045714285714283,
            "end_offset": 8.454857142857147
        },
        "target_timerange": {
            "start_offset": 75.54171428571428,
            "end_offset": 76.95085714285715
        },
        "ignore_audio": true,
        "audio_path": null
    },
    {
        "segment_id": "62a7f5269d8711ef9d0bb8cef68acef0",
        "text": "Longbourn to hear and to communicate.",
        "audio_url": "https://v16m-default.akamaized.net/24de69b78e8bef84079ffc0ea2652507/672de397/video/tos/maliva/tos-maliva-v-f15faa-us/oYAAz277EEVXWvuY8UZi4tBSy5idQAyZLAjCP/?a=7073&bti=OTU0QDItLmA%3D&ch=0&cr=0&dr=4&er=0&lr=unwatermarked&cd=0%7C0%7C0%7C0&br=312&bt=156&ds=5&ft=.cwOVInz7ThnXqvOXq8Zmo&qs=13&rc=M3B1OnU5cmVydjUzNzhoM0BpM3B1OnU5cmVydjUzNzhoM0BgM2FyMmRrcmpgLS1kLjZzYSNgM2FyMmRrcmpgLS1kLjZzcw%3D%3D&vvpl=1&l=02173103901357500000000000000000000ffff0a00849c804a65&btag=e00070000&format=mp3&mime_type=audio_mpeg",
        "source_timerange": {
            "start_offset": 8.45485714285715,
            "end_offset": 9.864
        },
        "target_timerange": {
            "start_offset": 76.95085714285715,
            "end_offset": 78.36
        },
        "ignore_audio": true,
        "audio_path": null
    },
    {
        "segment_id": "62a7fb7a9d8711ef9d0bb8cef68acef0",
        "text": "“_You_ began the evening",
        "audio_url": "https://v16m-default.akamaized.net/109695422e1a9568e70f52bf4315c8de/672de38f/video/tos/maliva/tos-maliva-v-f15faa-us/og8bu38EATVQAIyILBFnLHBDQIJeABnlfYLhj8/?a=7073&bti=OTU0QDItLmA%3D&ch=0&cr=0&dr=4&er=0&lr=unwatermarked&cd=0%7C0%7C0%7C0&br=312&bt=156&ds=5&ft=.cwOVInz7ThnXqvOXq8Zmo&qs=13&rc=M3g0dHg5cmVydjUzNzhoM0BpM3g0dHg5cmVydjUzNzhoM0AvMGFhMmRrcmpgLS1kLjZzYSMvMGFhMmRrcmpgLS1kLjZzcw%3D%3D&vvpl=1&l=02173103901357500000000000000000000ffff0a00849c804a65&btag=e00070000&format=mp3&mime_type=audio_mpeg",
        "source_timerange": {
            "start_offset": 0,
            "end_offset": 1.32
        },
        "target_timerange": {
            "start_offset": 78.36,
            "end_offset": 79.68
        },
        "ignore_audio": false,
        "audio_path": null
    },
    {
        "segment_id": "62a80d0e9d8711ef9d0bb8cef68acef0",
        "text": "well, Charlotte,” said Mrs.",
        "audio_url": "https://v16m-default.akamaized.net/398947b7abdc70991448e9145ad18332/672de393/video/tos/maliva/tos-maliva-v-f15faa-us/oEXVy4SESAZiAQB2LKAvoR9c4Uj4tvxiACEyP/?a=7073&bti=OTU0QDItLmA%3D&ch=0&cr=0&dr=4&er=0&lr=unwatermarked&cd=0%7C0%7C0%7C0&br=312&bt=156&ds=5&ft=.cwOVInz7TheXqvOXq8Zmo&qs=13&rc=M2xsN3c5cmVydjUzNzhoM0BpM2xsN3c5cmVydjUzNzhoM0AyZF9wMmRrcmpgLS1kLjZzYSMyZF9wMmRrcmpgLS1kLjZzcw%3D%3D&vvpl=1&l=02173103901357500000000000000000000ffff0a00849c804a65&btag=e00070000&format=mp3&mime_type=audio_mpeg",
        "source_timerange": {
            "start_offset": 0,
            "end_offset": 1.5600000000000094
        },
        "target_timerange": {
            "start_offset": 79.68,
            "end_offset": 81.24000000000001
        },
        "ignore_audio": false,
        "audio_path": null
    },
    {
        "segment_id": "62a80eee9d8711ef9d0bb8cef68acef0",
        "text": "Bennet, with civil self-",
        "audio_url": "https://v16m-default.akamaized.net/398947b7abdc70991448e9145ad18332/672de393/video/tos/maliva/tos-maliva-v-f15faa-us/oEXVy4SESAZiAQB2LKAvoR9c4Uj4tvxiACEyP/?a=7073&bti=OTU0QDItLmA%3D&ch=0&cr=0&dr=4&er=0&lr=unwatermarked&cd=0%7C0%7C0%7C0&br=312&bt=156&ds=5&ft=.cwOVInz7TheXqvOXq8Zmo&qs=13&rc=M2xsN3c5cmVydjUzNzhoM0BpM2xsN3c5cmVydjUzNzhoM0AyZF9wMmRrcmpgLS1kLjZzYSMyZF9wMmRrcmpgLS1kLjZzcw%3D%3D&vvpl=1&l=02173103901357500000000000000000000ffff0a00849c804a65&btag=e00070000&format=mp3&mime_type=audio_mpeg",
        "source_timerange": {
            "start_offset": 1.5600000000000023,
            "end_offset": 3.1199999999999974
        },
        "target_timerange": {
            "start_offset": 81.24000000000001,
            "end_offset": 82.8
        },
        "ignore_audio": true,
        "audio_path": null
    },
    {
        "segment_id": "62a8107e9d8711ef9d0bb8cef68acef0",
        "text": "command, to Miss Lucas.",
        "audio_url": "https://v16m-default.akamaized.net/398947b7abdc70991448e9145ad18332/672de393/video/tos/maliva/tos-maliva-v-f15faa-us/oEXVy4SESAZiAQB2LKAvoR9c4Uj4tvxiACEyP/?a=7073&bti=OTU0QDItLmA%3D&ch=0&cr=0&dr=4&er=0&lr=unwatermarked&cd=0%7C0%7C0%7C0&br=312&bt=156&ds=5&ft=.cwOVInz7TheXqvOXq8Zmo&qs=13&rc=M2xsN3c5cmVydjUzNzhoM0BpM2xsN3c5cmVydjUzNzhoM0AyZF9wMmRrcmpgLS1kLjZzYSMyZF9wMmRrcmpgLS1kLjZzcw%3D%3D&vvpl=1&l=02173103901357500000000000000000000ffff0a00849c804a65&btag=e00070000&format=mp3&mime_type=audio_mpeg",
        "source_timerange": {
            "start_offset": 3.1199999999999903,
            "end_offset": 4.68
        },
        "target_timerange": {
            "start_offset": 82.8,
            "end_offset": 84.36
        },
        "ignore_audio": true,
        "audio_path": null
    },
    {
        "segment_id": "62a817729d8711ef9d0bb8cef68acef0",
        "text": "“_You_ were Mr. Bingley’s first choice.”",
        "audio_url": "https://v16m-default.akamaized.net/fe1c3e4d12fa0449230f3ef402bb7f55/672de390/video/tos/maliva/tos-maliva-v-f15faa-us/oYmBA8nEtlsD5BzjQuJyYfEqFhLVAALg69fPAE/?a=7073&bti=OTU0QDItLmA%3D&ch=0&cr=0&dr=4&er=0&lr=unwatermarked&cd=0%7C0%7C0%7C0&br=312&bt=156&ds=5&ft=.cwOVInz7ThnXqvOXq8Zmo&qs=13&rc=amY6dmo5cmVydjUzNzhoM0BpamY6dmo5cmVydjUzNzhoM0Byc2swMmRrcmpgLS1kLjZzYSNyc2swMmRrcmpgLS1kLjZzcw%3D%3D&vvpl=1&l=02173103901357500000000000000000000ffff0a00849c804a65&btag=e00070000&format=mp3&mime_type=audio_mpeg",
        "source_timerange": {
            "start_offset": 0,
            "end_offset": 2.136
        },
        "target_timerange": {
            "start_offset": 84.36,
            "end_offset": 86.496
        },
        "ignore_audio": false,
        "audio_path": null
    },
    {
        "segment_id": "62a821b89d8711ef9d0bb8cef68acef0",
        "text": "“Yes; but he seemed to like",
        "audio_url": "https://v16m-default.akamaized.net/baa7c21ef22514412a38e2cfebffa4eb/672de390/video/tos/maliva/tos-maliva-v-f15faa-us/owZtvCAjyEUyCBSP6WibPiAAEVjr4LHQ2Z1gA/?a=7073&bti=OTU0QDItLmA%3D&ch=0&cr=0&dr=4&er=0&lr=unwatermarked&cd=0%7C0%7C0%7C0&br=312&bt=156&ds=5&ft=.cwOVInz7ThnXqvOXq8Zmo&qs=13&rc=MzZ3ZG85cmVydjUzNzhoM0BpMzZ3ZG85cmVydjUzNzhoM0Bka20uMmRrcmpgLS1kLjZzYSNka20uMmRrcmpgLS1kLjZzcw%3D%3D&vvpl=1&l=02173103901357500000000000000000000ffff0a00849c804a65&btag=e00070000&format=mp3&mime_type=audio_mpeg",
        "source_timerange": {
            "start_offset": 0,
            "end_offset": 1.4880000000000004
        },
        "target_timerange": {
            "start_offset": 86.496,
            "end_offset": 87.98400000000001
        },
        "ignore_audio": false,
        "audio_path": null
    },
    {
        "segment_id": "62a822d09d8711ef9d0bb8cef68acef0",
        "text": "his second better.”",
        "audio_url": "https://v16m-default.akamaized.net/baa7c21ef22514412a38e2cfebffa4eb/672de390/video/tos/maliva/tos-maliva-v-f15faa-us/owZtvCAjyEUyCBSP6WibPiAAEVjr4LHQ2Z1gA/?a=7073&bti=OTU0QDItLmA%3D&ch=0&cr=0&dr=4&er=0&lr=unwatermarked&cd=0%7C0%7C0%7C0&br=312&bt=156&ds=5&ft=.cwOVInz7ThnXqvOXq8Zmo&qs=13&rc=MzZ3ZG85cmVydjUzNzhoM0BpMzZ3ZG85cmVydjUzNzhoM0Bka20uMmRrcmpgLS1kLjZzYSNka20uMmRrcmpgLS1kLjZzcw%3D%3D&vvpl=1&l=02173103901357500000000000000000000ffff0a00849c804a65&btag=e00070000&format=mp3&mime_type=audio_mpeg",
        "source_timerange": {
            "start_offset": 1.4880000000000138,
            "end_offset": 2.976
        },
        "target_timerange": {
            "start_offset": 87.98400000000001,
            "end_offset": 89.47200000000001
        },
        "ignore_audio": true,
        "audio_path": null
    },
    {
        "segment_id": "62a832169d8711ef9d0bb8cef68acef0",
        "text": "“Oh, you mean Jane, I",
        "audio_url": "https://v16m-default.akamaized.net/cd8bdf579916bfb4f91fac2258990eb6/672de393/video/tos/maliva/tos-maliva-v-f15faa-us/oYCxZvPAEiy4QUAjc2yiAt9SBALVcyP7R1Egi/?a=7073&bti=OTU0QDItLmA%3D&ch=0&cr=0&dr=4&er=0&lr=unwatermarked&cd=0%7C0%7C0%7C0&br=312&bt=156&ds=5&ft=.cwOVInz7TheXqvOXq8Zmo&qs=13&rc=amxsN2s5cmVydjUzNzhoM0BpamxsN2s5cmVydjUzNzhoM0A0Ll9lMmRrcmpgLS1kLjZzYSM0Ll9lMmRrcmpgLS1kLjZzcw%3D%3D&vvpl=1&l=02173103901357500000000000000000000ffff0a00849c804a65&btag=e00070000&format=mp3&mime_type=audio_mpeg",
        "source_timerange": {
            "start_offset": 0,
            "end_offset": 1.4240000000000013
        },
        "target_timerange": {
            "start_offset": 89.47200000000001,
            "end_offset": 90.896
        },
        "ignore_audio": false,
        "audio_path": null
    },
    {
        "segment_id": "62a833929d8711ef9d0bb8cef68acef0",
        "text": "suppose, because he",
        "audio_url": "https://v16m-default.akamaized.net/cd8bdf579916bfb4f91fac2258990eb6/672de393/video/tos/maliva/tos-maliva-v-f15faa-us/oYCxZvPAEiy4QUAjc2yiAt9SBALVcyP7R1Egi/?a=7073&bti=OTU0QDItLmA%3D&ch=0&cr=0&dr=4&er=0&lr=unwatermarked&cd=0%7C0%7C0%7C0&br=312&bt=156&ds=5&ft=.cwOVInz7TheXqvOXq8Zmo&qs=13&rc=amxsN2s5cmVydjUzNzhoM0BpamxsN2s5cmVydjUzNzhoM0A0Ll9lMmRrcmpgLS1kLjZzYSM0Ll9lMmRrcmpgLS1kLjZzcw%3D%3D&vvpl=1&l=02173103901357500000000000000000000ffff0a00849c804a65&btag=e00070000&format=mp3&mime_type=audio_mpeg",
        "source_timerange": {
            "start_offset": 1.4239999999999924,
            "end_offset": 2.848000000000008
        },
        "target_timerange": {
            "start_offset": 90.896,
            "end_offset": 92.32000000000001
        },
        "ignore_audio": true,
        "audio_path": null
    },
    {
        "segment_id": "62a834a09d8711ef9d0bb8cef68acef0",
        "text": "danced with her twice.",
        "audio_url": "https://v16m-default.akamaized.net/cd8bdf579916bfb4f91fac2258990eb6/672de393/video/tos/maliva/tos-maliva-v-f15faa-us/oYCxZvPAEiy4QUAjc2yiAt9SBALVcyP7R1Egi/?a=7073&bti=OTU0QDItLmA%3D&ch=0&cr=0&dr=4&er=0&lr=unwatermarked&cd=0%7C0%7C0%7C0&br=312&bt=156&ds=5&ft=.cwOVInz7TheXqvOXq8Zmo&qs=13&rc=amxsN2s5cmVydjUzNzhoM0BpamxsN2s5cmVydjUzNzhoM0A0Ll9lMmRrcmpgLS1kLjZzYSM0Ll9lMmRrcmpgLS1kLjZzcw%3D%3D&vvpl=1&l=02173103901357500000000000000000000ffff0a00849c804a65&btag=e00070000&format=mp3&mime_type=audio_mpeg",
        "source_timerange": {
            "start_offset": 2.847999999999999,
            "end_offset": 4.272
        },
        "target_timerange": {
            "start_offset": 92.32000000000001,
            "end_offset": 93.744
        },
        "ignore_audio": true,
        "audio_path": null
    },
    {
        "segment_id": "62a8566a9d8711ef9d0bb8cef68acef0",
        "text": "To be sure that _did_ seem",
        "audio_url": "https://v16m-default.akamaized.net/6f22d8a889d7c792f6bda7b70615d717/672de398/video/tos/maliva/tos-maliva-v-f15faa-us/o0fp43DuEFL8EXBLXAEJAjhABuYkfVltn9yAQP/?a=7073&bti=OTU0QDItLmA%3D&ch=0&cr=0&dr=4&er=0&lr=unwatermarked&cd=0%7C0%7C0%7C0&br=312&bt=156&ds=5&ft=.cwOVInz7TheXqvOXq8Zmo&qs=13&rc=amlweXE5cmVydjUzNzhoM0BpamlweXE5cmVydjUzNzhoM0BfZmBjMmRrcmpgLS1kLjZzYSNfZmBjMmRrcmpgLS1kLjZzcw%3D%3D&vvpl=1&l=02173103901357500000000000000000000ffff0a00849c804a65&btag=e00070000&format=mp3&mime_type=audio_mpeg",
        "source_timerange": {
            "start_offset": 0,
            "end_offset": 1.4091428571428501
        },
        "target_timerange": {
            "start_offset": 93.744,
            "end_offset": 95.15314285714285
        },
        "ignore_audio": false,
        "audio_path": null
    },
    {
        "segment_id": "62a8578c9d8711ef9d0bb8cef68acef0",
        "text": "as if he admired her--",
        "audio_url": "https://v16m-default.akamaized.net/6f22d8a889d7c792f6bda7b70615d717/672de398/video/tos/maliva/tos-maliva-v-f15faa-us/o0fp43DuEFL8EXBLXAEJAjhABuYkfVltn9yAQP/?a=7073&bti=OTU0QDItLmA%3D&ch=0&cr=0&dr=4&er=0&lr=unwatermarked&cd=0%7C0%7C0%7C0&br=312&bt=156&ds=5&ft=.cwOVInz7TheXqvOXq8Zmo&qs=13&rc=amlweXE5cmVydjUzNzhoM0BpamlweXE5cmVydjUzNzhoM0BfZmBjMmRrcmpgLS1kLjZzYSNfZmBjMmRrcmpgLS1kLjZzcw%3D%3D&vvpl=1&l=02173103901357500000000000000000000ffff0a00849c804a65&btag=e00070000&format=mp3&mime_type=audio_mpeg",
        "source_timerange": {
            "start_offset": 1.4091428571428537,
            "end_offset": 2.818285714285718
        },
        "target_timerange": {
            "start_offset": 95.15314285714285,
            "end_offset": 96.56228571428572
        },
        "ignore_audio": true,
        "audio_path": null
    },
    {
        "segment_id": "62a858869d8711ef9d0bb8cef68acef0",
        "text": "indeed, I rather believe",
        "audio_url": "https://v16m-default.akamaized.net/6f22d8a889d7c792f6bda7b70615d717/672de398/video/tos/maliva/tos-maliva-v-f15faa-us/o0fp43DuEFL8EXBLXAEJAjhABuYkfVltn9yAQP/?a=7073&bti=OTU0QDItLmA%3D&ch=0&cr=0&dr=4&er=0&lr=unwatermarked&cd=0%7C0%7C0%7C0&br=312&bt=156&ds=5&ft=.cwOVInz7TheXqvOXq8Zmo&qs=13&rc=amlweXE5cmVydjUzNzhoM0BpamlweXE5cmVydjUzNzhoM0BfZmBjMmRrcmpgLS1kLjZzYSNfZmBjMmRrcmpgLS1kLjZzcw%3D%3D&vvpl=1&l=02173103901357500000000000000000000ffff0a00849c804a65&btag=e00070000&format=mp3&mime_type=audio_mpeg",
        "source_timerange": {
            "start_offset": 2.8182857142857216,
            "end_offset": 4.227428571428572
        },
        "target_timerange": {
            "start_offset": 96.56228571428572,
            "end_offset": 97.97142857142858
        },
        "ignore_audio": true,
        "audio_path": null
    },
    {
        "segment_id": "62a8596c9d8711ef9d0bb8cef68acef0",
        "text": "he _did_--I heard",
        "audio_url": "https://v16m-default.akamaized.net/6f22d8a889d7c792f6bda7b70615d717/672de398/video/tos/maliva/tos-maliva-v-f15faa-us/o0fp43DuEFL8EXBLXAEJAjhABuYkfVltn9yAQP/?a=7073&bti=OTU0QDItLmA%3D&ch=0&cr=0&dr=4&er=0&lr=unwatermarked&cd=0%7C0%7C0%7C0&br=312&bt=156&ds=5&ft=.cwOVInz7TheXqvOXq8Zmo&qs=13&rc=amlweXE5cmVydjUzNzhoM0BpamlweXE5cmVydjUzNzhoM0BfZmBjMmRrcmpgLS1kLjZzYSNfZmBjMmRrcmpgLS1kLjZzcw%3D%3D&vvpl=1&l=02173103901357500000000000000000000ffff0a00849c804a65&btag=e00070000&format=mp3&mime_type=audio_mpeg",
        "source_timerange": {
            "start_offset": 4.227428571428575,
            "end_offset": 5.6365714285714255
        },
        "target_timerange": {
            "start_offset": 97.97142857142858,
            "end_offset": 99.38057142857143
        },
        "ignore_audio": true,
        "audio_path": null
    },
    {
        "segment_id": "62a85a529d8711ef9d0bb8cef68acef0",
        "text": "something about it--but I",
        "audio_url": "https://v16m-default.akamaized.net/6f22d8a889d7c792f6bda7b70615d717/672de398/video/tos/maliva/tos-maliva-v-f15faa-us/o0fp43DuEFL8EXBLXAEJAjhABuYkfVltn9yAQP/?a=7073&bti=OTU0QDItLmA%3D&ch=0&cr=0&dr=4&er=0&lr=unwatermarked&cd=0%7C0%7C0%7C0&br=312&bt=156&ds=5&ft=.cwOVInz7TheXqvOXq8Zmo&qs=13&rc=amlweXE5cmVydjUzNzhoM0BpamlweXE5cmVydjUzNzhoM0BfZmBjMmRrcmpgLS1kLjZzYSNfZmBjMmRrcmpgLS1kLjZzcw%3D%3D&vvpl=1&l=02173103901357500000000000000000000ffff0a00849c804a65&btag=e00070000&format=mp3&mime_type=audio_mpeg",
        "source_timerange": {
            "start_offset": 5.636571428571429,
            "end_offset": 7.045714285714279
        },
        "target_timerange": {
            "start_offset": 99.38057142857143,
            "end_offset": 100.78971428571428
        },
        "ignore_audio": true,
        "audio_path": null
    },
    {
        "segment_id": "62a85b389d8711ef9d0bb8cef68acef0",
        "text": "hardly know what--",
        "audio_url": "https://v16m-default.akamaized.net/6f22d8a889d7c792f6bda7b70615d717/672de398/video/tos/maliva/tos-maliva-v-f15faa-us/o0fp43DuEFL8EXBLXAEJAjhABuYkfVltn9yAQP/?a=7073&bti=OTU0QDItLmA%3D&ch=0&cr=0&dr=4&er=0&lr=unwatermarked&cd=0%7C0%7C0%7C0&br=312&bt=156&ds=5&ft=.cwOVInz7TheXqvOXq8Zmo&qs=13&rc=amlweXE5cmVydjUzNzhoM0BpamlweXE5cmVydjUzNzhoM0BfZmBjMmRrcmpgLS1kLjZzYSNfZmBjMmRrcmpgLS1kLjZzcw%3D%3D&vvpl=1&l=02173103901357500000000000000000000ffff0a00849c804a65&btag=e00070000&format=mp3&mime_type=audio_mpeg",
        "source_timerange": {
            "start_offset": 7.045714285714283,
            "end_offset": 8.454857142857147
        },
        "target_timerange": {
            "start_offset": 100.78971428571428,
            "end_offset": 102.19885714285715
        },
        "ignore_audio": true,
        "audio_path": null
    },
    {
        "segment_id": "62a85c289d8711ef9d0bb8cef68acef0",
        "text": "something about Mr. Robinson.”",
        "audio_url": "https://v16m-default.akamaized.net/6f22d8a889d7c792f6bda7b70615d717/672de398/video/tos/maliva/tos-maliva-v-f15faa-us/o0fp43DuEFL8EXBLXAEJAjhABuYkfVltn9yAQP/?a=7073&bti=OTU0QDItLmA%3D&ch=0&cr=0&dr=4&er=0&lr=unwatermarked&cd=0%7C0%7C0%7C0&br=312&bt=156&ds=5&ft=.cwOVInz7TheXqvOXq8Zmo&qs=13&rc=amlweXE5cmVydjUzNzhoM0BpamlweXE5cmVydjUzNzhoM0BfZmBjMmRrcmpgLS1kLjZzYSNfZmBjMmRrcmpgLS1kLjZzcw%3D%3D&vvpl=1&l=02173103901357500000000000000000000ffff0a00849c804a65&btag=e00070000&format=mp3&mime_type=audio_mpeg",
        "source_timerange": {
            "start_offset": 8.45485714285715,
            "end_offset": 9.864
        },
        "target_timerange": {
            "start_offset": 102.19885714285715,
            "end_offset": 103.608
        },
        "ignore_audio": true,
        "audio_path": null
    },
    {
        "segment_id": "62a86f569d8711ef9d0bb8cef68acef0",
        "text": "“Perhaps you mean what I",
        "audio_url": "https://v16m-default.akamaized.net/8efe3c690d16940744ad2e859608157a/672de393/video/tos/maliva/tos-maliva-v-f15faa-us/ostu1A5hVE9LyJ7f2AEAufDnAwGFEBuYBQ68jL/?a=7073&bti=OTU0QDItLmA%3D&ch=0&cr=0&dr=4&er=0&lr=unwatermarked&cd=0%7C0%7C0%7C0&br=312&bt=156&ds=5&ft=.cwOVInz7ThnXqvOXq8Zmo&qs=13&rc=M294Z3U5cmVydjUzNzhoM0BpM294Z3U5cmVydjUzNzhoM0AwcW9jMmRrcmpgLS1kLjZzYSMwcW9jMmRrcmpgLS1kLjZzcw%3D%3D&vvpl=1&l=02173103901357500000000000000000000ffff0a00849c804a65&btag=e00070000&format=mp3&mime_type=audio_mpeg",
        "source_timerange": {
            "start_offset": 0,
            "end_offset": 1.3439999999999896
        },
        "target_timerange": {
            "start_offset": 103.608,
            "end_offset": 104.952
        },
        "ignore_audio": false,
        "audio_path": null
    },
    {
        "segment_id": "62a870a09d8711ef9d0bb8cef68acef0",
        "text": "overheard between him and",
        "audio_url": "https://v16m-default.akamaized.net/8efe3c690d16940744ad2e859608157a/672de393/video/tos/maliva/tos-maliva-v-f15faa-us/ostu1A5hVE9LyJ7f2AEAufDnAwGFEBuYBQ68jL/?a=7073&bti=OTU0QDItLmA%3D&ch=0&cr=0&dr=4&er=0&lr=unwatermarked&cd=0%7C0%7C0%7C0&br=312&bt=156&ds=5&ft=.cwOVInz7ThnXqvOXq8Zmo&qs=13&rc=M294Z3U5cmVydjUzNzhoM0BpM294Z3U5cmVydjUzNzhoM0AwcW9jMmRrcmpgLS1kLjZzYSMwcW9jMmRrcmpgLS1kLjZzcw%3D%3D&vvpl=1&l=02173103901357500000000000000000000ffff0a00849c804a65&btag=e00070000&format=mp3&mime_type=audio_mpeg",
        "source_timerange": {
            "start_offset": 1.343999999999994,
            "end_offset": 2.687999999999998
        },
        "target_timerange": {
            "start_offset": 104.952,
            "end_offset": 106.296
        },
        "ignore_audio": true,
        "audio_path": null
    },
    {
        "segment_id": "62a871909d8711ef9d0bb8cef68acef0",
        "text": "Mr. Robinson: did not I",
        "audio_url": "https://v16m-default.akamaized.net/8efe3c690d16940744ad2e859608157a/672de393/video/tos/maliva/tos-maliva-v-f15faa-us/ostu1A5hVE9LyJ7f2AEAufDnAwGFEBuYBQ68jL/?a=7073&bti=OTU0QDItLmA%3D&ch=0&cr=0&dr=4&er=0&lr=unwatermarked&cd=0%7C0%7C0%7C0&br=312&bt=156&ds=5&ft=.cwOVInz7ThnXqvOXq8Zmo&qs=13&rc=M294Z3U5cmVydjUzNzhoM0BpM294Z3U5cmVydjUzNzhoM0AwcW9jMmRrcmpgLS1kLjZzYSMwcW9jMmRrcmpgLS1kLjZzcw%3D%3D&vvpl=1&l=02173103901357500000000000000000000ffff0a00849c804a65&btag=e00070000&format=mp3&mime_type=audio_mpeg",
        "source_timerange": {
            "start_offset": 2.6880000000000024,
            "end_offset": 4.032000000000006
        },
        "target_timerange": {
            "start_offset": 106.296,
            "end_offset": 107.64000000000001
        },
        "ignore_audio": true,
        "audio_path": null
    },
    {
        "segment_id": "62a8728a9d8711ef9d0bb8cef68acef0",
        "text": "mention it to you?",
        "audio_url": "https://v16m-default.akamaized.net/8efe3c690d16940744ad2e859608157a/672de393/video/tos/maliva/tos-maliva-v-f15faa-us/ostu1A5hVE9LyJ7f2AEAufDnAwGFEBuYBQ68jL/?a=7073&bti=OTU0QDItLmA%3D&ch=0&cr=0&dr=4&er=0&lr=unwatermarked&cd=0%7C0%7C0%7C0&br=312&bt=156&ds=5&ft=.cwOVInz7ThnXqvOXq8Zmo&qs=13&rc=M294Z3U5cmVydjUzNzhoM0BpM294Z3U5cmVydjUzNzhoM0AwcW9jMmRrcmpgLS1kLjZzYSMwcW9jMmRrcmpgLS1kLjZzcw%3D%3D&vvpl=1&l=02173103901357500000000000000000000ffff0a00849c804a65&btag=e00070000&format=mp3&mime_type=audio_mpeg",
        "source_timerange": {
            "start_offset": 4.032000000000011,
            "end_offset": 5.376
        },
        "target_timerange": {
            "start_offset": 107.64000000000001,
            "end_offset": 108.98400000000001
        },
        "ignore_audio": true,
        "audio_path": null
    },
    {
        "segment_id": "62a899229d8711ef9d0bb8cef68acef0",
        "text": "Mr. Robinson’s asking him how he",
        "audio_url": "https://v16m-default.akamaized.net/ce6d5d9c32e33fa0b7742ad983a1995d/672de397/video/tos/maliva/tos-maliva-v-f15faa-us/oEtEyai9BDjLxJ0t4IFAQ8EEVLf6A3ufhABnAY/?a=7073&bti=OTU0QDItLmA%3D&ch=0&cr=0&dr=4&er=0&lr=unwatermarked&cd=0%7C0%7C0%7C0&br=312&bt=156&ds=5&ft=.cwOVInz7TheXqvOXq8Zmo&qs=13&rc=MzU6eXk5cmVydjUzNzhoM0BpMzU6eXk5cmVydjUzNzhoM0AxNmJqMmRrcmpgLS1kLjZzYSMxNmJqMmRrcmpgLS1kLjZzcw%3D%3D&vvpl=1&l=02173103901357500000000000000000000ffff0a00849c804a65&btag=e00070000&format=mp3&mime_type=audio_mpeg",
        "source_timerange": {
            "start_offset": 0,
            "end_offset": 1.4120000000000115
        },
        "target_timerange": {
            "start_offset": 108.98400000000001,
            "end_offset": 110.39600000000002
        },
        "ignore_audio": false,
        "audio_path": null
    },
    {
        "segment_id": "62a89a769d8711ef9d0bb8cef68acef0",
        "text": "liked our Meryton assemblies,",
        "audio_url": "https://v16m-default.akamaized.net/ce6d5d9c32e33fa0b7742ad983a1995d/672de397/video/tos/maliva/tos-maliva-v-f15faa-us/oEtEyai9BDjLxJ0t4IFAQ8EEVLf6A3ufhABnAY/?a=7073&bti=OTU0QDItLmA%3D&ch=0&cr=0&dr=4&er=0&lr=unwatermarked&cd=0%7C0%7C0%7C0&br=312&bt=156&ds=5&ft=.cwOVInz7TheXqvOXq8Zmo&qs=13&rc=MzU6eXk5cmVydjUzNzhoM0BpMzU6eXk5cmVydjUzNzhoM0AxNmJqMmRrcmpgLS1kLjZzYSMxNmJqMmRrcmpgLS1kLjZzcw%3D%3D&vvpl=1&l=02173103901357500000000000000000000ffff0a00849c804a65&btag=e00070000&format=mp3&mime_type=audio_mpeg",
        "source_timerange": {
            "start_offset": 1.4120000000000061,
            "end_offset": 2.8240000000000034
        },
        "target_timerange": {
            "start_offset": 110.39600000000002,
            "end_offset": 111.808
        },
        "ignore_audio": true,
        "audio_path": null
    },
    {
        "segment_id": "62a89b7a9d8711ef9d0bb8cef68acef0",
        "text": "and whether he did not think",
        "audio_url": "https://v16m-default.akamaized.net/ce6d5d9c32e33fa0b7742ad983a1995d/672de397/video/tos/maliva/tos-maliva-v-f15faa-us/oEtEyai9BDjLxJ0t4IFAQ8EEVLf6A3ufhABnAY/?a=7073&bti=OTU0QDItLmA%3D&ch=0&cr=0&dr=4&er=0&lr=unwatermarked&cd=0%7C0%7C0%7C0&br=312&bt=156&ds=5&ft=.cwOVInz7TheXqvOXq8Zmo&qs=13&rc=MzU6eXk5cmVydjUzNzhoM0BpMzU6eXk5cmVydjUzNzhoM0AxNmJqMmRrcmpgLS1kLjZzYSMxNmJqMmRrcmpgLS1kLjZzcw%3D%3D&vvpl=1&l=02173103901357500000000000000000000ffff0a00849c804a65&btag=e00070000&format=mp3&mime_type=audio_mpeg",
        "source_timerange": {
            "start_offset": 2.823999999999998,
            "end_offset": 4.235999999999995
        },
        "target_timerange": {
            "start_offset": 111.808,
            "end_offset": 113.22
        },
        "ignore_audio": true,
        "audio_path": null
    },
    {
        "segment_id": "62a89d8c9d8711ef9d0bb8cef68acef0",
        "text": "there were a great many pretty",
        "audio_url": "https://v16m-default.akamaized.net/ce6d5d9c32e33fa0b7742ad983a1995d/672de397/video/tos/maliva/tos-maliva-v-f15faa-us/oEtEyai9BDjLxJ0t4IFAQ8EEVLf6A3ufhABnAY/?a=7073&bti=OTU0QDItLmA%3D&ch=0&cr=0&dr=4&er=0&lr=unwatermarked&cd=0%7C0%7C0%7C0&br=312&bt=156&ds=5&ft=.cwOVInz7TheXqvOXq8Zmo&qs=13&rc=MzU6eXk5cmVydjUzNzhoM0BpMzU6eXk5cmVydjUzNzhoM0AxNmJqMmRrcmpgLS1kLjZzYSMxNmJqMmRrcmpgLS1kLjZzcw%3D%3D&vvpl=1&l=02173103901357500000000000000000000ffff0a00849c804a65&btag=e00070000&format=mp3&mime_type=audio_mpeg",
        "source_timerange": {
            "start_offset": 4.23599999999999,
            "end_offset": 5.6480000000000015
        },
        "target_timerange": {
            "start_offset": 113.22,
            "end_offset": 114.632
        },
        "ignore_audio": true,
        "audio_path": null
    },
    {
        "segment_id": "62a89ea49d8711ef9d0bb8cef68acef0",
        "text": "women in the room, and _which_",
        "audio_url": "https://v16m-default.akamaized.net/ce6d5d9c32e33fa0b7742ad983a1995d/672de397/video/tos/maliva/tos-maliva-v-f15faa-us/oEtEyai9BDjLxJ0t4IFAQ8EEVLf6A3ufhABnAY/?a=7073&bti=OTU0QDItLmA%3D&ch=0&cr=0&dr=4&er=0&lr=unwatermarked&cd=0%7C0%7C0%7C0&br=312&bt=156&ds=5&ft=.cwOVInz7TheXqvOXq8Zmo&qs=13&rc=MzU6eXk5cmVydjUzNzhoM0BpMzU6eXk5cmVydjUzNzhoM0AxNmJqMmRrcmpgLS1kLjZzYSMxNmJqMmRrcmpgLS1kLjZzcw%3D%3D&vvpl=1&l=02173103901357500000000000000000000ffff0a00849c804a65&btag=e00070000&format=mp3&mime_type=audio_mpeg",
        "source_timerange": {
            "start_offset": 5.647999999999996,
            "end_offset": 7.060000000000008
        },
        "target_timerange": {
            "start_offset": 114.632,
            "end_offset": 116.04400000000001
        },
        "ignore_audio": true,
        "audio_path": null
    },
    {
        "segment_id": "62a89fd09d8711ef9d0bb8cef68acef0",
        "text": "he thought the prettiest?",
        "audio_url": "https://v16m-default.akamaized.net/ce6d5d9c32e33fa0b7742ad983a1995d/672de397/video/tos/maliva/tos-maliva-v-f15faa-us/oEtEyai9BDjLxJ0t4IFAQ8EEVLf6A3ufhABnAY/?a=7073&bti=OTU0QDItLmA%3D&ch=0&cr=0&dr=4&er=0&lr=unwatermarked&cd=0%7C0%7C0%7C0&br=312&bt=156&ds=5&ft=.cwOVInz7TheXqvOXq8Zmo&qs=13&rc=MzU6eXk5cmVydjUzNzhoM0BpMzU6eXk5cmVydjUzNzhoM0AxNmJqMmRrcmpgLS1kLjZzYSMxNmJqMmRrcmpgLS1kLjZzcw%3D%3D&vvpl=1&l=02173103901357500000000000000000000ffff0a00849c804a65&btag=e00070000&format=mp3&mime_type=audio_mpeg",
        "source_timerange": {
            "start_offset": 7.060000000000002,
            "end_offset": 8.472
        },
        "target_timerange": {
            "start_offset": 116.04400000000001,
            "end_offset": 117.456
        },
        "ignore_audio": true,
        "audio_path": null
    },
    {
        "segment_id": "62a8ba569d8711ef9d0bb8cef68acef0",
        "text": "and his answering",
        "audio_url": "https://v16m-default.akamaized.net/8a45f7c39279742bcaaaf0900b32a06b/672de397/video/tos/maliva/tos-maliva-v-f15faa-us/osiu86AmIE7yyfABYHnhbDlBLIgjJrAfQLQFBV/?a=7073&bti=OTU0QDItLmA%3D&ch=0&cr=0&dr=4&er=0&lr=unwatermarked&cd=0%7C0%7C0%7C0&br=312&bt=156&ds=5&ft=.cwOVInz7TheXqvOXq8Zmo&qs=13&rc=anc4N3c5cmVydjUzNzhoM0Bpanc4N3c5cmVydjUzNzhoM0BtX2MxMmRrcmpgLS1kLjZzYSNtX2MxMmRrcmpgLS1kLjZzcw%3D%3D&vvpl=1&l=02173103901357500000000000000000000ffff0a00849c804a65&btag=e00070000&format=mp3&mime_type=audio_mpeg",
        "source_timerange": {
            "start_offset": 0,
            "end_offset": 1.4800000000000093
        },
        "target_timerange": {
            "start_offset": 117.456,
            "end_offset": 118.936
        },
        "ignore_audio": false,
        "audio_path": null
    },
    {
        "segment_id": "62a8bb6e9d8711ef9d0bb8cef68acef0",
        "text": "immediately to the last",
        "audio_url": "https://v16m-default.akamaized.net/8a45f7c39279742bcaaaf0900b32a06b/672de397/video/tos/maliva/tos-maliva-v-f15faa-us/osiu86AmIE7yyfABYHnhbDlBLIgjJrAfQLQFBV/?a=7073&bti=OTU0QDItLmA%3D&ch=0&cr=0&dr=4&er=0&lr=unwatermarked&cd=0%7C0%7C0%7C0&br=312&bt=156&ds=5&ft=.cwOVInz7TheXqvOXq8Zmo&qs=13&rc=anc4N3c5cmVydjUzNzhoM0Bpanc4N3c5cmVydjUzNzhoM0BtX2MxMmRrcmpgLS1kLjZzYSNtX2MxMmRrcmpgLS1kLjZzcw%3D%3D&vvpl=1&l=02173103901357500000000000000000000ffff0a00849c804a65&btag=e00070000&format=mp3&mime_type=audio_mpeg",
        "source_timerange": {
            "start_offset": 1.480000000000004,
            "end_offset": 2.959999999999999
        },
        "target_timerange": {
            "start_offset": 118.936,
            "end_offset": 120.416
        },
        "ignore_audio": true,
        "audio_path": null
    },
    {
        "segment_id": "62a8bc689d8711ef9d0bb8cef68acef0",
        "text": "question, ‘Oh, the eldest",
        "audio_url": "https://v16m-default.akamaized.net/8a45f7c39279742bcaaaf0900b32a06b/672de397/video/tos/maliva/tos-maliva-v-f15faa-us/osiu86AmIE7yyfABYHnhbDlBLIgjJrAfQLQFBV/?a=7073&bti=OTU0QDItLmA%3D&ch=0&cr=0&dr=4&er=0&lr=unwatermarked&cd=0%7C0%7C0%7C0&br=312&bt=156&ds=5&ft=.cwOVInz7TheXqvOXq8Zmo&qs=13&rc=anc4N3c5cmVydjUzNzhoM0Bpanc4N3c5cmVydjUzNzhoM0BtX2MxMmRrcmpgLS1kLjZzYSNtX2MxMmRrcmpgLS1kLjZzcw%3D%3D&vvpl=1&l=02173103901357500000000000000000000ffff0a00849c804a65&btag=e00070000&format=mp3&mime_type=audio_mpeg",
        "source_timerange": {
            "start_offset": 2.9599999999999937,
            "end_offset": 4.440000000000003
        },
        "target_timerange": {
            "start_offset": 120.416,
            "end_offset": 121.896
        },
        "ignore_audio": true,
        "audio_path": null
    },
    {
        "segment_id": "62a8bd589d8711ef9d0bb8cef68acef0",
        "text": "Miss Bennet, beyond a",
        "audio_url": "https://v16m-default.akamaized.net/8a45f7c39279742bcaaaf0900b32a06b/672de397/video/tos/maliva/tos-maliva-v-f15faa-us/osiu86AmIE7yyfABYHnhbDlBLIgjJrAfQLQFBV/?a=7073&bti=OTU0QDItLmA%3D&ch=0&cr=0&dr=4&er=0&lr=unwatermarked&cd=0%7C0%7C0%7C0&br=312&bt=156&ds=5&ft=.cwOVInz7TheXqvOXq8Zmo&qs=13&rc=anc4N3c5cmVydjUzNzhoM0Bpanc4N3c5cmVydjUzNzhoM0BtX2MxMmRrcmpgLS1kLjZzYSNtX2MxMmRrcmpgLS1kLjZzcw%3D%3D&vvpl=1&l=02173103901357500000000000000000000ffff0a00849c804a65&btag=e00070000&format=mp3&mime_type=audio_mpeg",
        "source_timerange": {
            "start_offset": 4.439999999999998,
            "end_offset": 5.920000000000007
        },
        "target_timerange": {
            "start_offset": 121.896,
            "end_offset": 123.376
        },
        "ignore_audio": true,
        "audio_path": null
    },
    {
        "segment_id": "62a8be489d8711ef9d0bb8cef68acef0",
        "text": "doubt: there cannot be two",
        "audio_url": "https://v16m-default.akamaized.net/8a45f7c39279742bcaaaf0900b32a06b/672de397/video/tos/maliva/tos-maliva-v-f15faa-us/osiu86AmIE7yyfABYHnhbDlBLIgjJrAfQLQFBV/?a=7073&bti=OTU0QDItLmA%3D&ch=0&cr=0&dr=4&er=0&lr=unwatermarked&cd=0%7C0%7C0%7C0&br=312&bt=156&ds=5&ft=.cwOVInz7TheXqvOXq8Zmo&qs=13&rc=anc4N3c5cmVydjUzNzhoM0Bpanc4N3c5cmVydjUzNzhoM0BtX2MxMmRrcmpgLS1kLjZzYSNtX2MxMmRrcmpgLS1kLjZzcw%3D%3D&vvpl=1&l=02173103901357500000000000000000000ffff0a00849c804a65&btag=e00070000&format=mp3&mime_type=audio_mpeg",
        "source_timerange": {
            "start_offset": 5.920000000000002,
            "end_offset": 7.399999999999997
        },
        "target_timerange": {
            "start_offset": 123.376,
            "end_offset": 124.856
        },
        "ignore_audio": true,
        "audio_path": null
    },
    {
        "segment_id": "62a8bf249d8711ef9d0bb8cef68acef0",
        "text": "opinions on that point.’",
        "audio_url": "https://v16m-default.akamaized.net/8a45f7c39279742bcaaaf0900b32a06b/672de397/video/tos/maliva/tos-maliva-v-f15faa-us/osiu86AmIE7yyfABYHnhbDlBLIgjJrAfQLQFBV/?a=7073&bti=OTU0QDItLmA%3D&ch=0&cr=0&dr=4&er=0&lr=unwatermarked&cd=0%7C0%7C0%7C0&br=312&bt=156&ds=5&ft=.cwOVInz7TheXqvOXq8Zmo&qs=13&rc=anc4N3c5cmVydjUzNzhoM0Bpanc4N3c5cmVydjUzNzhoM0BtX2MxMmRrcmpgLS1kLjZzYSNtX2MxMmRrcmpgLS1kLjZzcw%3D%3D&vvpl=1&l=02173103901357500000000000000000000ffff0a00849c804a65&btag=e00070000&format=mp3&mime_type=audio_mpeg",
        "source_timerange": {
            "start_offset": 7.3999999999999915,
            "end_offset": 8.88
        },
        "target_timerange": {
            "start_offset": 124.856,
            "end_offset": 126.336
        },
        "ignore_audio": true,
        "audio_path": null
    },
    {
        "segment_id": "62a8c6909d8711ef9d0bb8cef68acef0",
        "text": "”  “Upon my word!",
        "audio_url": "https://v16m-default.akamaized.net/3d68ec9f6f7f82d199a42335247e983b/672de38f/video/tos/maliva/tos-maliva-v-f15faa-us/og6vXELQ2EUjAASAz6AP1CPiBy32Z4jyixcVt/?a=7073&bti=OTU0QDItLmA%3D&ch=0&cr=0&dr=4&er=0&lr=unwatermarked&cd=0%7C0%7C0%7C0&br=312&bt=156&ds=5&ft=.cwOVInz7ThnXqvOXq8Zmo&qs=13&rc=amt3OG05cmVydjUzNzhoM0Bpamt3OG05cmVydjUzNzhoM0BubXJvMmRrcmpgLS1kLjZzYSNubXJvMmRrcmpgLS1kLjZzcw%3D%3D&vvpl=1&l=02173103901357500000000000000000000ffff0a00849c804a65&btag=e00070000&format=mp3&mime_type=audio_mpeg",
        "source_timerange": {
            "start_offset": 0,
            "end_offset": 1.08
        },
        "target_timerange": {
            "start_offset": 126.336,
            "end_offset": 127.416
        },
        "ignore_audio": false,
        "audio_path": null
    },
    {
        "segment_id": "62a8de509d8711ef9d0bb8cef68acef0",
        "text": "Well, that was very",
        "audio_url": "https://v16m-default.akamaized.net/58336714704d303ddd81263d2ab5233b/672de396/video/tos/maliva/tos-maliva-v-f15faa-us/o8DHAE4A8IHLuF8hMJwfBL2lfDA2BVQBbnIYLB/?a=7073&bti=OTU0QDItLmA%3D&ch=0&cr=0&dr=4&er=0&lr=unwatermarked&cd=0%7C0%7C0%7C0&br=312&bt=156&ds=5&ft=.cwOVInz7TheXqvOXq8Zmo&qs=13&rc=ajlwO3Y5cmVydjUzNzhoM0BpajlwO3Y5cmVydjUzNzhoM0BhMHAtMmRrcmpgLS1kLjZzYSNhMHAtMmRrcmpgLS1kLjZzcw%3D%3D&vvpl=1&l=02173103901357500000000000000000000ffff0a00849c804a65&btag=e00070000&format=mp3&mime_type=audio_mpeg",
        "source_timerange": {
            "start_offset": 0,
            "end_offset": 1.435199999999993
        },
        "target_timerange": {
            "start_offset": 127.416,
            "end_offset": 128.8512
        },
        "ignore_audio": false,
        "audio_path": null
    },
    {
        "segment_id": "62a8e01c9d8711ef9d0bb8cef68acef0",
        "text": "decided, indeed--that",
        "audio_url": "https://v16m-default.akamaized.net/58336714704d303ddd81263d2ab5233b/672de396/video/tos/maliva/tos-maliva-v-f15faa-us/o8DHAE4A8IHLuF8hMJwfBL2lfDA2BVQBbnIYLB/?a=7073&bti=OTU0QDItLmA%3D&ch=0&cr=0&dr=4&er=0&lr=unwatermarked&cd=0%7C0%7C0%7C0&br=312&bt=156&ds=5&ft=.cwOVInz7TheXqvOXq8Zmo&qs=13&rc=ajlwO3Y5cmVydjUzNzhoM0BpajlwO3Y5cmVydjUzNzhoM0BhMHAtMmRrcmpgLS1kLjZzYSNhMHAtMmRrcmpgLS1kLjZzcw%3D%3D&vvpl=1&l=02173103901357500000000000000000000ffff0a00849c804a65&btag=e00070000&format=mp3&mime_type=audio_mpeg",
        "source_timerange": {
            "start_offset": 1.435200000000009,
            "end_offset": 2.870400000000002
        },
        "target_timerange": {
            "start_offset": 128.8512,
            "end_offset": 130.28640000000001
        },
        "ignore_audio": true,
        "audio_path": null
    },
    {
        "segment_id": "62a8e1ca9d8711ef9d0bb8cef68acef0",
        "text": "does seem as if--but,",
        "audio_url": "https://v16m-default.akamaized.net/58336714704d303ddd81263d2ab5233b/672de396/video/tos/maliva/tos-maliva-v-f15faa-us/o8DHAE4A8IHLuF8hMJwfBL2lfDA2BVQBbnIYLB/?a=7073&bti=OTU0QDItLmA%3D&ch=0&cr=0&dr=4&er=0&lr=unwatermarked&cd=0%7C0%7C0%7C0&br=312&bt=156&ds=5&ft=.cwOVInz7TheXqvOXq8Zmo&qs=13&rc=ajlwO3Y5cmVydjUzNzhoM0BpajlwO3Y5cmVydjUzNzhoM0BhMHAtMmRrcmpgLS1kLjZzYSNhMHAtMmRrcmpgLS1kLjZzcw%3D%3D&vvpl=1&l=02173103901357500000000000000000000ffff0a00849c804a65&btag=e00070000&format=mp3&mime_type=audio_mpeg",
        "source_timerange": {
            "start_offset": 2.870400000000018,
            "end_offset": 4.305599999999982
        },
        "target_timerange": {
            "start_offset": 130.28640000000001,
            "end_offset": 131.7216
        },
        "ignore_audio": true,
        "audio_path": null
    },
    {
        "segment_id": "62a8e3329d8711ef9d0bb8cef68acef0",
        "text": "however, it may all come",
        "audio_url": "https://v16m-default.akamaized.net/58336714704d303ddd81263d2ab5233b/672de396/video/tos/maliva/tos-maliva-v-f15faa-us/o8DHAE4A8IHLuF8hMJwfBL2lfDA2BVQBbnIYLB/?a=7073&bti=OTU0QDItLmA%3D&ch=0&cr=0&dr=4&er=0&lr=unwatermarked&cd=0%7C0%7C0%7C0&br=312&bt=156&ds=5&ft=.cwOVInz7TheXqvOXq8Zmo&qs=13&rc=ajlwO3Y5cmVydjUzNzhoM0BpajlwO3Y5cmVydjUzNzhoM0BhMHAtMmRrcmpgLS1kLjZzYSNhMHAtMmRrcmpgLS1kLjZzcw%3D%3D&vvpl=1&l=02173103901357500000000000000000000ffff0a00849c804a65&btag=e00070000&format=mp3&mime_type=audio_mpeg",
        "source_timerange": {
            "start_offset": 4.305599999999998,
            "end_offset": 5.740799999999991
        },
        "target_timerange": {
            "start_offset": 131.7216,
            "end_offset": 133.1568
        },
        "ignore_audio": true,
        "audio_path": null
    },
    {
        "segment_id": "62a8e42c9d8711ef9d0bb8cef68acef0",
        "text": "to nothing, you know.” “_",
        "audio_url": "https://v16m-default.akamaized.net/58336714704d303ddd81263d2ab5233b/672de396/video/tos/maliva/tos-maliva-v-f15faa-us/o8DHAE4A8IHLuF8hMJwfBL2lfDA2BVQBbnIYLB/?a=7073&bti=OTU0QDItLmA%3D&ch=0&cr=0&dr=4&er=0&lr=unwatermarked&cd=0%7C0%7C0%7C0&br=312&bt=156&ds=5&ft=.cwOVInz7TheXqvOXq8Zmo&qs=13&rc=ajlwO3Y5cmVydjUzNzhoM0BpajlwO3Y5cmVydjUzNzhoM0BhMHAtMmRrcmpgLS1kLjZzYSNhMHAtMmRrcmpgLS1kLjZzcw%3D%3D&vvpl=1&l=02173103901357500000000000000000000ffff0a00849c804a65&btag=e00070000&format=mp3&mime_type=audio_mpeg",
        "source_timerange": {
            "start_offset": 5.740800000000007,
            "end_offset": 7.176
        },
        "target_timerange": {
            "start_offset": 133.1568,
            "end_offset": 134.592
        },
        "ignore_audio": true,
        "audio_path": null
    },
    {
        "segment_id": "62a8f4269d8711ef9d0bb8cef68acef0",
        "text": "My_ overhearings were more to",
        "audio_url": "https://v16m-default.akamaized.net/63b6e9b2caa9ba42431e29a4464c69d3/672de393/video/tos/maliva/tos-maliva-v-f15faa-us/o8yxnGWiEXSdgbACvCjI6f5A4EArgALeOtCK5e/?a=7073&bti=OTU0QDItLmA%3D&ch=0&cr=0&dr=4&er=0&lr=unwatermarked&cd=0%7C0%7C0%7C0&br=312&bt=156&ds=5&ft=.cwOVInz7TheXqvOXq8Zmo&qs=13&rc=anV3M3U5cmVydjUzNzhoM0BpanV3M3U5cmVydjUzNzhoM0BwcmlwMmRrcmpgLS1kLjZzYSNwcmlwMmRrcmpgLS1kLjZzcw%3D%3D&vvpl=1&l=02173103901357500000000000000000000ffff0a00849c804a65&btag=e00070000&format=mp3&mime_type=audio_mpeg",
        "source_timerange": {
            "start_offset": 0,
            "end_offset": 1.5920000000000023
        },
        "target_timerange": {
            "start_offset": 134.592,
            "end_offset": 136.184
        },
        "ignore_audio": false,
        "audio_path": null
    },
    {
        "segment_id": "62a8f55c9d8711ef9d0bb8cef68acef0",
        "text": "the purpose than _yours_,",
        "audio_url": "https://v16m-default.akamaized.net/63b6e9b2caa9ba42431e29a4464c69d3/672de393/video/tos/maliva/tos-maliva-v-f15faa-us/o8yxnGWiEXSdgbACvCjI6f5A4EArgALeOtCK5e/?a=7073&bti=OTU0QDItLmA%3D&ch=0&cr=0&dr=4&er=0&lr=unwatermarked&cd=0%7C0%7C0%7C0&br=312&bt=156&ds=5&ft=.cwOVInz7TheXqvOXq8Zmo&qs=13&rc=anV3M3U5cmVydjUzNzhoM0BpanV3M3U5cmVydjUzNzhoM0BwcmlwMmRrcmpgLS1kLjZzYSNwcmlwMmRrcmpgLS1kLjZzcw%3D%3D&vvpl=1&l=02173103901357500000000000000000000ffff0a00849c804a65&btag=e00070000&format=mp3&mime_type=audio_mpeg",
        "source_timerange": {
            "start_offset": 1.5919999999999845,
            "end_offset": 3.1840000000000153
        },
        "target_timerange": {
            "start_offset": 136.184,
            "end_offset": 137.776
        },
        "ignore_audio": true,
        "audio_path": null
    },
    {
        "segment_id": "62a8f64c9d8711ef9d0bb8cef68acef0",
        "text": "Eliza,” said Charlotte.",
        "audio_url": "https://v16m-default.akamaized.net/63b6e9b2caa9ba42431e29a4464c69d3/672de393/video/tos/maliva/tos-maliva-v-f15faa-us/o8yxnGWiEXSdgbACvCjI6f5A4EArgALeOtCK5e/?a=7073&bti=OTU0QDItLmA%3D&ch=0&cr=0&dr=4&er=0&lr=unwatermarked&cd=0%7C0%7C0%7C0&br=312&bt=156&ds=5&ft=.cwOVInz7TheXqvOXq8Zmo&qs=13&rc=anV3M3U5cmVydjUzNzhoM0BpanV3M3U5cmVydjUzNzhoM0BwcmlwMmRrcmpgLS1kLjZzYSNwcmlwMmRrcmpgLS1kLjZzcw%3D%3D&vvpl=1&l=02173103901357500000000000000000000ffff0a00849c804a65&btag=e00070000&format=mp3&mime_type=audio_mpeg",
        "source_timerange": {
            "start_offset": 3.1839999999999975,
            "end_offset": 4.776
        },
        "target_timerange": {
            "start_offset": 137.776,
            "end_offset": 139.368
        },
        "ignore_audio": true,
        "audio_path": null
    },
    {
        "segment_id": "62a906469d8711ef9d0bb8cef68acef0",
        "text": "“Mr. Darcy is not so",
        "audio_url": "https://v16m-default.akamaized.net/e798880b3f65938adbc53019e5c86701/672de393/video/tos/maliva/tos-maliva-v-f15faa-us/o4JHlAAinBBbruzbBxFEQ8DvhLLVveAIIHfmJY/?a=7073&bti=OTU0QDItLmA%3D&ch=0&cr=0&dr=4&er=0&lr=unwatermarked&cd=0%7C0%7C0%7C0&br=312&bt=156&ds=5&ft=.cwOVInz7TheXqvOXq8Zmo&qs=13&rc=anE6c3I5cmVydjUzNzhoM0BpanE6c3I5cmVydjUzNzhoM0A1MzRlMmRzcmpgLS1kLjZzYSM1MzRlMmRzcmpgLS1kLjZzcw%3D%3D&vvpl=1&l=02173103901357500000000000000000000ffff0a00849c804a65&btag=e00070000&format=mp3&mime_type=audio_mpeg",
        "source_timerange": {
            "start_offset": 0,
            "end_offset": 1.4799999999999924
        },
        "target_timerange": {
            "start_offset": 139.368,
            "end_offset": 140.84799999999998
        },
        "ignore_audio": false,
        "audio_path": null
    },
    {
        "segment_id": "62a907729d8711ef9d0bb8cef68acef0",
        "text": "well worth listening to",
        "audio_url": "https://v16m-default.akamaized.net/e798880b3f65938adbc53019e5c86701/672de393/video/tos/maliva/tos-maliva-v-f15faa-us/o4JHlAAinBBbruzbBxFEQ8DvhLLVveAIIHfmJY/?a=7073&bti=OTU0QDItLmA%3D&ch=0&cr=0&dr=4&er=0&lr=unwatermarked&cd=0%7C0%7C0%7C0&br=312&bt=156&ds=5&ft=.cwOVInz7TheXqvOXq8Zmo&qs=13&rc=anE6c3I5cmVydjUzNzhoM0BpanE6c3I5cmVydjUzNzhoM0A1MzRlMmRzcmpgLS1kLjZzYSM1MzRlMmRzcmpgLS1kLjZzcw%3D%3D&vvpl=1&l=02173103901357500000000000000000000ffff0a00849c804a65&btag=e00070000&format=mp3&mime_type=audio_mpeg",
        "source_timerange": {
            "start_offset": 1.4799999999999898,
            "end_offset": 2.9600000000000106
        },
        "target_timerange": {
            "start_offset": 140.84799999999998,
            "end_offset": 142.328
        },
        "ignore_audio": true,
        "audio_path": null
    },
    {
        "segment_id": "62a9086c9d8711ef9d0bb8cef68acef0",
        "text": "as his friend, is he?",
        "audio_url": "https://v16m-default.akamaized.net/e798880b3f65938adbc53019e5c86701/672de393/video/tos/maliva/tos-maliva-v-f15faa-us/o4JHlAAinBBbruzbBxFEQ8DvhLLVveAIIHfmJY/?a=7073&bti=OTU0QDItLmA%3D&ch=0&cr=0&dr=4&er=0&lr=unwatermarked&cd=0%7C0%7C0%7C0&br=312&bt=156&ds=5&ft=.cwOVInz7TheXqvOXq8Zmo&qs=13&rc=anE6c3I5cmVydjUzNzhoM0BpanE6c3I5cmVydjUzNzhoM0A1MzRlMmRzcmpgLS1kLjZzYSM1MzRlMmRzcmpgLS1kLjZzcw%3D%3D&vvpl=1&l=02173103901357500000000000000000000ffff0a00849c804a65&btag=e00070000&format=mp3&mime_type=audio_mpeg",
        "source_timerange": {
            "start_offset": 2.960000000000008,
            "end_offset": 4.44
        },
        "target_timerange": {
            "start_offset": 142.328,
            "end_offset": 143.808
        },
        "ignore_audio": true,
        "audio_path": null
    },
    {
        "segment_id": "62a90e669d8711ef9d0bb8cef68acef0",
        "text": "Poor Eliza!",
        "audio_url": "https://v16m-default.akamaized.net/36634eb3a8c2f049b1858ca281da784f/672de390/video/tos/maliva/tos-maliva-v-f15faa-us/oAIhbFn2YBAmBEDeIfLKAJAQEoHxoL5vgB8LVl/?a=7073&bti=OTU0QDItLmA%3D&ch=0&cr=0&dr=4&er=0&lr=unwatermarked&cd=0%7C0%7C0%7C0&br=312&bt=156&ds=5&ft=.cwOVInz7TheXqvOXq8Zmo&qs=13&rc=M208cHY5cmVydjUzNzhoM0BpM208cHY5cmVydjUzNzhoM0BeLTFxMmRzcmpgLS1kLjZzYSNeLTFxMmRzcmpgLS1kLjZzcw%3D%3D&vvpl=1&l=02173103901357500000000000000000000ffff0a00849c804a65&btag=e00070000&format=mp3&mime_type=audio_mpeg",
        "source_timerange": {
            "start_offset": 0,
            "end_offset": 1.056
        },
        "target_timerange": {
            "start_offset": 143.808,
            "end_offset": 144.864
        },
        "ignore_audio": false,
        "audio_path": null
    },
    {
        "segment_id": "62a915789d8711ef9d0bb8cef68acef0",
        "text": "to be only just _tolerable_.",
        "audio_url": "https://v16m-default.akamaized.net/6d437c32c63db780955fa9bd0e2bdf8a/672de390/video/tos/maliva/tos-maliva-v-f15faa-us/owA7HcABeuEvAeGfFl0by5IAzLWfjtvAhkIIFo/?a=7073&bti=OTU0QDItLmA%3D&ch=0&cr=0&dr=4&er=0&lr=unwatermarked&cd=0%7C0%7C0%7C0&br=312&bt=156&ds=5&ft=.cwOVInz7TheXqvOXq8Zmo&qs=13&rc=MzM6Ong5cmVydjUzNzhoM0BpMzM6Ong5cmVydjUzNzhoM0BeLm9zMmRzcmpgLS1kLjZzYSNeLm9zMmRzcmpgLS1kLjZzcw%3D%3D&vvpl=1&l=02173103901357500000000000000000000ffff0a00849c804a65&btag=e00070000&format=mp3&mime_type=audio_mpeg",
        "source_timerange": {
            "start_offset": 0,
            "end_offset": 1.872
        },
        "target_timerange": {
            "start_offset": 144.864,
            "end_offset": 146.736
        },
        "ignore_audio": false,
        "audio_path": null
    },
    {
        "segment_id": "62a932069d8711ef9d0bb8cef68acef0",
        "text": "”  “I beg you will not put it",
        "audio_url": "https://v16m-default.akamaized.net/1b70d7dc9631dfe4c0ee7f630efd1340/672de398/video/tos/maliva/tos-maliva-v-f15faa-us/oQ22fHyIAbW7AQeQBELcuPCGAQkeAF9LejtFAF/?a=7073&bti=OTU0QDItLmA%3D&ch=0&cr=0&dr=4&er=0&lr=unwatermarked&cd=0%7C0%7C0%7C0&br=312&bt=156&ds=5&ft=.cwOVInz7TheXqvOXq8Zmo&qs=13&rc=M2d1d2s5cmVydjUzNzhoM0BpM2d1d2s5cmVydjUzNzhoM0BmLWs1MmRzcmpgLS1kLjZzYSNmLWs1MmRzcmpgLS1kLjZzcw%3D%3D&vvpl=1&l=02173103901357500000000000000000000ffff0a00849c804a65&btag=e00070000&format=mp3&mime_type=audio_mpeg",
        "source_timerange": {
            "start_offset": 0,
            "end_offset": 1.5559999999999992
        },
        "target_timerange": {
            "start_offset": 146.736,
            "end_offset": 148.292
        },
        "ignore_audio": false,
        "audio_path": null
    },
    {
        "segment_id": "62a933329d8711ef9d0bb8cef68acef0",
        "text": "into Lizzy’s head to be vexed",
        "audio_url": "https://v16m-default.akamaized.net/1b70d7dc9631dfe4c0ee7f630efd1340/672de398/video/tos/maliva/tos-maliva-v-f15faa-us/oQ22fHyIAbW7AQeQBELcuPCGAQkeAF9LejtFAF/?a=7073&bti=OTU0QDItLmA%3D&ch=0&cr=0&dr=4&er=0&lr=unwatermarked&cd=0%7C0%7C0%7C0&br=312&bt=156&ds=5&ft=.cwOVInz7TheXqvOXq8Zmo&qs=13&rc=M2d1d2s5cmVydjUzNzhoM0BpM2d1d2s5cmVydjUzNzhoM0BmLWs1MmRzcmpgLS1kLjZzYSNmLWs1MmRzcmpgLS1kLjZzcw%3D%3D&vvpl=1&l=02173103901357500000000000000000000ffff0a00849c804a65&btag=e00070000&format=mp3&mime_type=audio_mpeg",
        "source_timerange": {
            "start_offset": 1.5560000000000116,
            "end_offset": 3.1119999999999823
        },
        "target_timerange": {
            "start_offset": 148.292,
            "end_offset": 149.84799999999998
        },
        "ignore_audio": true,
        "audio_path": null
    },
    {
        "segment_id": "62a934189d8711ef9d0bb8cef68acef0",
        "text": "by his ill-treatment, for he is",
        "audio_url": "https://v16m-default.akamaized.net/1b70d7dc9631dfe4c0ee7f630efd1340/672de398/video/tos/maliva/tos-maliva-v-f15faa-us/oQ22fHyIAbW7AQeQBELcuPCGAQkeAF9LejtFAF/?a=7073&bti=OTU0QDItLmA%3D&ch=0&cr=0&dr=4&er=0&lr=unwatermarked&cd=0%7C0%7C0%7C0&br=312&bt=156&ds=5&ft=.cwOVInz7TheXqvOXq8Zmo&qs=13&rc=M2d1d2s5cmVydjUzNzhoM0BpM2d1d2s5cmVydjUzNzhoM0BmLWs1MmRzcmpgLS1kLjZzYSNmLWs1MmRzcmpgLS1kLjZzcw%3D%3D&vvpl=1&l=02173103901357500000000000000000000ffff0a00849c804a65&btag=e00070000&format=mp3&mime_type=audio_mpeg",
        "source_timerange": {
            "start_offset": 3.1119999999999948,
            "end_offset": 4.667999999999994
        },
        "target_timerange": {
            "start_offset": 149.84799999999998,
            "end_offset": 151.404
        },
        "ignore_audio": true,
        "audio_path": null
    },
    {
        "segment_id": "62a934fe9d8711ef9d0bb8cef68acef0",
        "text": "such a disagreeable man that it",
        "audio_url": "https://v16m-default.akamaized.net/1b70d7dc9631dfe4c0ee7f630efd1340/672de398/video/tos/maliva/tos-maliva-v-f15faa-us/oQ22fHyIAbW7AQeQBELcuPCGAQkeAF9LejtFAF/?a=7073&bti=OTU0QDItLmA%3D&ch=0&cr=0&dr=4&er=0&lr=unwatermarked&cd=0%7C0%7C0%7C0&br=312&bt=156&ds=5&ft=.cwOVInz7TheXqvOXq8Zmo&qs=13&rc=M2d1d2s5cmVydjUzNzhoM0BpM2d1d2s5cmVydjUzNzhoM0BmLWs1MmRzcmpgLS1kLjZzYSNmLWs1MmRzcmpgLS1kLjZzcw%3D%3D&vvpl=1&l=02173103901357500000000000000000000ffff0a00849c804a65&btag=e00070000&format=mp3&mime_type=audio_mpeg",
        "source_timerange": {
            "start_offset": 4.668000000000006,
            "end_offset": 6.2240000000000055
        },
        "target_timerange": {
            "start_offset": 151.404,
            "end_offset": 152.96
        },
        "ignore_audio": true,
        "audio_path": null
    },
    {
        "segment_id": "62a935e49d8711ef9d0bb8cef68acef0",
        "text": "would be quite a misfortune to",
        "audio_url": "https://v16m-default.akamaized.net/1b70d7dc9631dfe4c0ee7f630efd1340/672de398/video/tos/maliva/tos-maliva-v-f15faa-us/oQ22fHyIAbW7AQeQBELcuPCGAQkeAF9LejtFAF/?a=7073&bti=OTU0QDItLmA%3D&ch=0&cr=0&dr=4&er=0&lr=unwatermarked&cd=0%7C0%7C0%7C0&br=312&bt=156&ds=5&ft=.cwOVInz7TheXqvOXq8Zmo&qs=13&rc=M2d1d2s5cmVydjUzNzhoM0BpM2d1d2s5cmVydjUzNzhoM0BmLWs1MmRzcmpgLS1kLjZzYSNmLWs1MmRzcmpgLS1kLjZzcw%3D%3D&vvpl=1&l=02173103901357500000000000000000000ffff0a00849c804a65&btag=e00070000&format=mp3&mime_type=audio_mpeg",
        "source_timerange": {
            "start_offset": 6.224000000000018,
            "end_offset": 7.779999999999989
        },
        "target_timerange": {
            "start_offset": 152.96,
            "end_offset": 154.516
        },
        "ignore_audio": true,
        "audio_path": null
    },
    {
        "segment_id": "62a937249d8711ef9d0bb8cef68acef0",
        "text": "be liked by him.",
        "audio_url": "https://v16m-default.akamaized.net/1b70d7dc9631dfe4c0ee7f630efd1340/672de398/video/tos/maliva/tos-maliva-v-f15faa-us/oQ22fHyIAbW7AQeQBELcuPCGAQkeAF9LejtFAF/?a=7073&bti=OTU0QDItLmA%3D&ch=0&cr=0&dr=4&er=0&lr=unwatermarked&cd=0%7C0%7C0%7C0&br=312&bt=156&ds=5&ft=.cwOVInz7TheXqvOXq8Zmo&qs=13&rc=M2d1d2s5cmVydjUzNzhoM0BpM2d1d2s5cmVydjUzNzhoM0BmLWs1MmRzcmpgLS1kLjZzYSNmLWs1MmRzcmpgLS1kLjZzcw%3D%3D&vvpl=1&l=02173103901357500000000000000000000ffff0a00849c804a65&btag=e00070000&format=mp3&mime_type=audio_mpeg",
        "source_timerange": {
            "start_offset": 7.780000000000001,
            "end_offset": 9.336
        },
        "target_timerange": {
            "start_offset": 154.516,
            "end_offset": 156.072
        },
        "ignore_audio": true,
        "audio_path": null
    },
    {
        "segment_id": "62a94dcc9d8711ef9d0bb8cef68acef0",
        "text": "Mrs. Long told me last night",
        "audio_url": "https://v16m-default.akamaized.net/5db7f972734f685d72e3f6b4dff7790f/672de394/video/tos/maliva/tos-maliva-v-f15faa-us/o0lRImFfAvJvaAdbBADLI8LkVHnQHBBhAYEdfQ/?a=7073&bti=OTU0QDItLmA%3D&ch=0&cr=0&dr=4&er=0&lr=unwatermarked&cd=0%7C0%7C0%7C0&br=312&bt=156&ds=5&ft=.cwOVInz7TheXqvOXq8Zmo&qs=13&rc=ajN0d2w5cmVydjUzNzhoM0BpajN0d2w5cmVydjUzNzhoM0A2ZXEuMmRzcmpgLS1kLjZzYSM2ZXEuMmRzcmpgLS1kLjZzcw%3D%3D&vvpl=1&l=02173103901357500000000000000000000ffff0a00849c804a65&btag=e00070000&format=mp3&mime_type=audio_mpeg",
        "source_timerange": {
            "start_offset": 0,
            "end_offset": 1.3619999999999877
        },
        "target_timerange": {
            "start_offset": 156.072,
            "end_offset": 157.434
        },
        "ignore_audio": false,
        "audio_path": null
    },
    {
        "segment_id": "62a94ef89d8711ef9d0bb8cef68acef0",
        "text": "that he sat close to her for",
        "audio_url": "https://v16m-default.akamaized.net/5db7f972734f685d72e3f6b4dff7790f/672de394/video/tos/maliva/tos-maliva-v-f15faa-us/o0lRImFfAvJvaAdbBADLI8LkVHnQHBBhAYEdfQ/?a=7073&bti=OTU0QDItLmA%3D&ch=0&cr=0&dr=4&er=0&lr=unwatermarked&cd=0%7C0%7C0%7C0&br=312&bt=156&ds=5&ft=.cwOVInz7TheXqvOXq8Zmo&qs=13&rc=ajN0d2w5cmVydjUzNzhoM0BpajN0d2w5cmVydjUzNzhoM0A2ZXEuMmRzcmpgLS1kLjZzYSM2ZXEuMmRzcmpgLS1kLjZzcw%3D%3D&vvpl=1&l=02173103901357500000000000000000000ffff0a00849c804a65&btag=e00070000&format=mp3&mime_type=audio_mpeg",
        "source_timerange": {
            "start_offset": 1.3619999999999948,
            "end_offset": 2.7239999999999824
        },
        "target_timerange": {
            "start_offset": 157.434,
            "end_offset": 158.796
        },
        "ignore_audio": true,
        "audio_path": null
    },
    {
        "segment_id": "62a94ff29d8711ef9d0bb8cef68acef0",
        "text": "half an hour without once",
        "audio_url": "https://v16m-default.akamaized.net/5db7f972734f685d72e3f6b4dff7790f/672de394/video/tos/maliva/tos-maliva-v-f15faa-us/o0lRImFfAvJvaAdbBADLI8LkVHnQHBBhAYEdfQ/?a=7073&bti=OTU0QDItLmA%3D&ch=0&cr=0&dr=4&er=0&lr=unwatermarked&cd=0%7C0%7C0%7C0&br=312&bt=156&ds=5&ft=.cwOVInz7TheXqvOXq8Zmo&qs=13&rc=ajN0d2w5cmVydjUzNzhoM0BpajN0d2w5cmVydjUzNzhoM0A2ZXEuMmRzcmpgLS1kLjZzYSM2ZXEuMmRzcmpgLS1kLjZzcw%3D%3D&vvpl=1&l=02173103901357500000000000000000000ffff0a00849c804a65&btag=e00070000&format=mp3&mime_type=audio_mpeg",
        "source_timerange": {
            "start_offset": 2.7239999999999895,
            "end_offset": 4.086000000000006
        },
        "target_timerange": {
            "start_offset": 158.796,
            "end_offset": 160.15800000000002
        },
        "ignore_audio": true,
        "audio_path": null
    },
    {
        "segment_id": "62a950d89d8711ef9d0bb8cef68acef0",
        "text": "opening his lips.”",
        "audio_url": "https://v16m-default.akamaized.net/5db7f972734f685d72e3f6b4dff7790f/672de394/video/tos/maliva/tos-maliva-v-f15faa-us/o0lRImFfAvJvaAdbBADLI8LkVHnQHBBhAYEdfQ/?a=7073&bti=OTU0QDItLmA%3D&ch=0&cr=0&dr=4&er=0&lr=unwatermarked&cd=0%7C0%7C0%7C0&br=312&bt=156&ds=5&ft=.cwOVInz7TheXqvOXq8Zmo&qs=13&rc=ajN0d2w5cmVydjUzNzhoM0BpajN0d2w5cmVydjUzNzhoM0A2ZXEuMmRzcmpgLS1kLjZzYSM2ZXEuMmRzcmpgLS1kLjZzcw%3D%3D&vvpl=1&l=02173103901357500000000000000000000ffff0a00849c804a65&btag=e00070000&format=mp3&mime_type=audio_mpeg",
        "source_timerange": {
            "start_offset": 4.086000000000013,
            "end_offset": 5.448
        },
        "target_timerange": {
            "start_offset": 160.15800000000002,
            "end_offset": 161.52
        },
        "ignore_audio": true,
        "audio_path": null
    },
    {
        "segment_id": "62a95dee9d8711ef9d0bb8cef68acef0",
        "text": "[Illustration: “Without",
        "audio_url": "https://v16m-default.akamaized.net/c9f6ce3933760c41d9625a02f08b1033/672de392/video/tos/maliva/tos-maliva-v-f15faa-us/ow8LDfkvhEOJEyjf2AnQFB0tErVYLAyXAB9A1c/?a=7073&bti=OTU0QDItLmA%3D&ch=0&cr=0&dr=4&er=0&lr=unwatermarked&cd=0%7C0%7C0%7C0&br=312&bt=156&ds=5&ft=.cwOVInz7TheXqvOXq8Zmo&qs=13&rc=anllcGw5cmVydjUzNzhoM0BpanllcGw5cmVydjUzNzhoM0BfZmdhMmRzcmpgLS1kLjZzYSNfZmdhMmRzcmpgLS1kLjZzcw%3D%3D&vvpl=1&l=02173103901357500000000000000000000ffff0a00849c804a65&btag=e00070000&format=mp3&mime_type=audio_mpeg",
        "source_timerange": {
            "start_offset": 0,
            "end_offset": 1.5719999999999974
        },
        "target_timerange": {
            "start_offset": 161.52,
            "end_offset": 163.092
        },
        "ignore_audio": false,
        "audio_path": null
    },
    {
        "segment_id": "62a95f109d8711ef9d0bb8cef68acef0",
        "text": "once opening his lips”",
        "audio_url": "https://v16m-default.akamaized.net/c9f6ce3933760c41d9625a02f08b1033/672de392/video/tos/maliva/tos-maliva-v-f15faa-us/ow8LDfkvhEOJEyjf2AnQFB0tErVYLAyXAB9A1c/?a=7073&bti=OTU0QDItLmA%3D&ch=0&cr=0&dr=4&er=0&lr=unwatermarked&cd=0%7C0%7C0%7C0&br=312&bt=156&ds=5&ft=.cwOVInz7TheXqvOXq8Zmo&qs=13&rc=anllcGw5cmVydjUzNzhoM0BpanllcGw5cmVydjUzNzhoM0BfZmdhMmRzcmpgLS1kLjZzYSNfZmdhMmRzcmpgLS1kLjZzcw%3D%3D&vvpl=1&l=02173103901357500000000000000000000ffff0a00849c804a65&btag=e00070000&format=mp3&mime_type=audio_mpeg",
        "source_timerange": {
            "start_offset": 1.5720000000000027,
            "end_offset": 3.144
        },
        "target_timerange": {
            "start_offset": 163.092,
            "end_offset": 164.66400000000002
        },
        "ignore_audio": true,
        "audio_path": null
    },
    {
        "segment_id": "62a96b2c9d8711ef9d0bb8cef68acef0",
        "text": "[_Copyright 1894 by",
        "audio_url": "https://v16m-default.akamaized.net/9e9f1cbaa786b4e87e24467839f77c01/672de391/video/tos/maliva/tos-maliva-v-f15faa-us/oA3ceXycAuAFAWnJAILatHkGfeeMRljIFFEBbI/?a=7073&bti=OTU0QDItLmA%3D&ch=0&cr=0&dr=4&er=0&lr=unwatermarked&cd=0%7C0%7C0%7C0&br=312&bt=156&ds=5&ft=.cwOVInz7TheXqvOXq8Zmo&qs=13&rc=ajlyeWs5cmVydjUzNzhoM0BpajlyeWs5cmVydjUzNzhoM0AzZW1iMmRzcmpgLS1kLjZzYSMzZW1iMmRzcmpgLS1kLjZzcw%3D%3D&vvpl=1&l=02173103901357500000000000000000000ffff0a00849c804a65&btag=e00070000&format=mp3&mime_type=audio_mpeg",
        "source_timerange": {
            "start_offset": 0,
            "end_offset": 1.23600000000001
        },
        "target_timerange": {
            "start_offset": 164.66400000000002,
            "end_offset": 165.9
        },
        "ignore_audio": false,
        "audio_path": null
    },
    {
        "segment_id": "62a96c309d8711ef9d0bb8cef68acef0",
        "text": "George Allen._]",
        "audio_url": "https://v16m-default.akamaized.net/9e9f1cbaa786b4e87e24467839f77c01/672de391/video/tos/maliva/tos-maliva-v-f15faa-us/oA3ceXycAuAFAWnJAILatHkGfeeMRljIFFEBbI/?a=7073&bti=OTU0QDItLmA%3D&ch=0&cr=0&dr=4&er=0&lr=unwatermarked&cd=0%7C0%7C0%7C0&br=312&bt=156&ds=5&ft=.cwOVInz7TheXqvOXq8Zmo&qs=13&rc=ajlyeWs5cmVydjUzNzhoM0BpajlyeWs5cmVydjUzNzhoM0AzZW1iMmRzcmpgLS1kLjZzYSMzZW1iMmRzcmpgLS1kLjZzcw%3D%3D&vvpl=1&l=02173103901357500000000000000000000ffff0a00849c804a65&btag=e00070000&format=mp3&mime_type=audio_mpeg",
        "source_timerange": {
            "start_offset": 1.23599999999999,
            "end_offset": 2.472
        },
        "target_timerange": {
            "start_offset": 165.9,
            "end_offset": 167.136
        },
        "ignore_audio": true,
        "audio_path": null
    },
    {
        "segment_id": "62a972f29d8711ef9d0bb8cef68acef0",
        "text": "]  “Are you quite sure, ma’am?",
        "audio_url": "https://v16m-default.akamaized.net/230db0602918524e5c6bd9ebc58908b2/672de390/video/tos/maliva/tos-maliva-v-f15faa-us/ocn6At8EYvE8LAynLfAEVjbFGfAq48hJBDjBQx/?a=7073&bti=OTU0QDItLmA%3D&ch=0&cr=0&dr=4&er=0&lr=unwatermarked&cd=0%7C0%7C0%7C0&br=312&bt=156&ds=5&ft=.cwOVInz7TheXqvOXq8Zmo&qs=13&rc=anZlcG05cmVydjUzNzhoM0BpanZlcG05cmVydjUzNzhoM0BlMHNzMmRzcmpgLS1kLjZzYSNlMHNzMmRzcmpgLS1kLjZzcw%3D%3D&vvpl=1&l=02173103901357500000000000000000000ffff0a00849c804a65&btag=e00070000&format=mp3&mime_type=audio_mpeg",
        "source_timerange": {
            "start_offset": 0,
            "end_offset": 1.56
        },
        "target_timerange": {
            "start_offset": 167.136,
            "end_offset": 168.696
        },
        "ignore_audio": false,
        "audio_path": null
    },
    {
        "segment_id": "62a97e8c9d8711ef9d0bb8cef68acef0",
        "text": "Is not there a little",
        "audio_url": "https://v16m-default.akamaized.net/23d6ac10b7208599d33bdc71394fbacb/672de391/video/tos/maliva/tos-maliva-v-f15faa-us/oUALJEXEBkyeYBjMQifyL8AATi50AnBhM5OVPt/?a=7073&bti=OTU0QDItLmA%3D&ch=0&cr=0&dr=4&er=0&lr=unwatermarked&cd=0%7C0%7C0%7C0&br=312&bt=156&ds=5&ft=.cwOVInz7TheXqvOXq8Zmo&qs=13&rc=M2Zrd3M5cmVydjUzNzhoM0BpM2Zrd3M5cmVydjUzNzhoM0A0MzFwMmRzcmpgLS1kLjZzYSM0MzFwMmRzcmpgLS1kLjZzcw%3D%3D&vvpl=1&l=02173103901357500000000000000000000ffff0a00849c804a65&btag=e00070000&format=mp3&mime_type=audio_mpeg",
        "source_timerange": {
            "start_offset": 0,
            "end_offset": 1.3920000000000043
        },
        "target_timerange": {
            "start_offset": 168.696,
            "end_offset": 170.088
        },
        "ignore_audio": false,
        "audio_path": null
    },
    {
        "segment_id": "62a97fae9d8711ef9d0bb8cef68acef0",
        "text": "mistake?” said Jane.",
        "audio_url": "https://v16m-default.akamaized.net/23d6ac10b7208599d33bdc71394fbacb/672de391/video/tos/maliva/tos-maliva-v-f15faa-us/oUALJEXEBkyeYBjMQifyL8AATi50AnBhM5OVPt/?a=7073&bti=OTU0QDItLmA%3D&ch=0&cr=0&dr=4&er=0&lr=unwatermarked&cd=0%7C0%7C0%7C0&br=312&bt=156&ds=5&ft=.cwOVInz7TheXqvOXq8Zmo&qs=13&rc=M2Zrd3M5cmVydjUzNzhoM0BpM2Zrd3M5cmVydjUzNzhoM0A0MzFwMmRzcmpgLS1kLjZzYSM0MzFwMmRzcmpgLS1kLjZzcw%3D%3D&vvpl=1&l=02173103901357500000000000000000000ffff0a00849c804a65&btag=e00070000&format=mp3&mime_type=audio_mpeg",
        "source_timerange": {
            "start_offset": 1.391999999999996,
            "end_offset": 2.7840000000000003
        },
        "target_timerange": {
            "start_offset": 170.088,
            "end_offset": 171.48
        },
        "ignore_audio": true,
        "audio_path": null
    },
    {
        "segment_id": "62a98ac69d8711ef9d0bb8cef68acef0",
        "text": "“I certainly saw Mr.",
        "audio_url": "https://v16m-default.akamaized.net/b25d021de1f3838852f52c5065b59865/672de391/video/tos/maliva/tos-maliva-v-f15faa-us/ockEtm0uCj5GFKgeAAAWLfeyFoFL2PIcAQsQzf/?a=7073&bti=OTU0QDItLmA%3D&ch=0&cr=0&dr=4&er=0&lr=unwatermarked&cd=0%7C0%7C0%7C0&br=312&bt=156&ds=5&ft=.cwOVInz7TheXqvOXq8Zmo&qs=13&rc=anRzZXI5cmVydjUzNzhoM0BpanRzZXI5cmVydjUzNzhoM0AybTYuMmRzcmpgLS1kLjZzYSMybTYuMmRzcmpgLS1kLjZzcw%3D%3D&vvpl=1&l=02173103901357500000000000000000000ffff0a00849c804a65&btag=e00070000&format=mp3&mime_type=audio_mpeg",
        "source_timerange": {
            "start_offset": 0,
            "end_offset": 1.344000000000006
        },
        "target_timerange": {
            "start_offset": 171.48,
            "end_offset": 172.824
        },
        "ignore_audio": false,
        "audio_path": null
    },
    {
        "segment_id": "62a98bd49d8711ef9d0bb8cef68acef0",
        "text": "Darcy speaking to her.”",
        "audio_url": "https://v16m-default.akamaized.net/b25d021de1f3838852f52c5065b59865/672de391/video/tos/maliva/tos-maliva-v-f15faa-us/ockEtm0uCj5GFKgeAAAWLfeyFoFL2PIcAQsQzf/?a=7073&bti=OTU0QDItLmA%3D&ch=0&cr=0&dr=4&er=0&lr=unwatermarked&cd=0%7C0%7C0%7C0&br=312&bt=156&ds=5&ft=.cwOVInz7TheXqvOXq8Zmo&qs=13&rc=anRzZXI5cmVydjUzNzhoM0BpanRzZXI5cmVydjUzNzhoM0AybTYuMmRzcmpgLS1kLjZzYSMybTYuMmRzcmpgLS1kLjZzcw%3D%3D&vvpl=1&l=02173103901357500000000000000000000ffff0a00849c804a65&btag=e00070000&format=mp3&mime_type=audio_mpeg",
        "source_timerange": {
            "start_offset": 1.3440000000000225,
            "end_offset": 2.688
        },
        "target_timerange": {
            "start_offset": 172.824,
            "end_offset": 174.168
        },
        "ignore_audio": true,
        "audio_path": null
    },
    {
        "segment_id": "62a9b74e9d8711ef9d0bb8cef68acef0",
        "text": "“Ay, because she asked him",
        "audio_url": "https://v16m-default.akamaized.net/758793b2e04bb0d62be138d9ce2bc903/672de39d/video/tos/maliva/tos-maliva-v-f15faa-us/o8rF0hBlIBVJB8Av5fgwbIYdnlAHMDePLAEQLB/?a=7073&bti=OTU0QDItLmA%3D&ch=0&cr=0&dr=4&er=0&lr=unwatermarked&cd=0%7C0%7C0%7C0&br=312&bt=156&ds=5&ft=.cwOVInz7TheXqvOXq8Zmo&qs=13&rc=M291NGo5cmVydjUzNzhoM0BpM291NGo5cmVydjUzNzhoM0BxMmVgMmRzcmpgLS1kLjZzYSNxMmVgMmRzcmpgLS1kLjZzcw%3D%3D&vvpl=1&l=02173103901357500000000000000000000ffff0a00849c804a65&btag=e00070000&format=mp3&mime_type=audio_mpeg",
        "source_timerange": {
            "start_offset": 0,
            "end_offset": 1.4279999999999973
        },
        "target_timerange": {
            "start_offset": 174.168,
            "end_offset": 175.596
        },
        "ignore_audio": false,
        "audio_path": null
    },
    {
        "segment_id": "62a9b8709d8711ef9d0bb8cef68acef0",
        "text": "at last how he liked",
        "audio_url": "https://v16m-default.akamaized.net/758793b2e04bb0d62be138d9ce2bc903/672de39d/video/tos/maliva/tos-maliva-v-f15faa-us/o8rF0hBlIBVJB8Av5fgwbIYdnlAHMDePLAEQLB/?a=7073&bti=OTU0QDItLmA%3D&ch=0&cr=0&dr=4&er=0&lr=unwatermarked&cd=0%7C0%7C0%7C0&br=312&bt=156&ds=5&ft=.cwOVInz7TheXqvOXq8Zmo&qs=13&rc=M291NGo5cmVydjUzNzhoM0BpM291NGo5cmVydjUzNzhoM0BxMmVgMmRzcmpgLS1kLjZzYSNxMmVgMmRzcmpgLS1kLjZzcw%3D%3D&vvpl=1&l=02173103901357500000000000000000000ffff0a00849c804a65&btag=e00070000&format=mp3&mime_type=audio_mpeg",
        "source_timerange": {
            "start_offset": 1.4279999999999973,
            "end_offset": 2.8559999999999945
        },
        "target_timerange": {
            "start_offset": 175.596,
            "end_offset": 177.024
        },
        "ignore_audio": true,
        "audio_path": null
    },
    {
        "segment_id": "62a9b99c9d8711ef9d0bb8cef68acef0",
        "text": "Netherfield, and he could",
        "audio_url": "https://v16m-default.akamaized.net/758793b2e04bb0d62be138d9ce2bc903/672de39d/video/tos/maliva/tos-maliva-v-f15faa-us/o8rF0hBlIBVJB8Av5fgwbIYdnlAHMDePLAEQLB/?a=7073&bti=OTU0QDItLmA%3D&ch=0&cr=0&dr=4&er=0&lr=unwatermarked&cd=0%7C0%7C0%7C0&br=312&bt=156&ds=5&ft=.cwOVInz7TheXqvOXq8Zmo&qs=13&rc=M291NGo5cmVydjUzNzhoM0BpM291NGo5cmVydjUzNzhoM0BxMmVgMmRzcmpgLS1kLjZzYSNxMmVgMmRzcmpgLS1kLjZzcw%3D%3D&vvpl=1&l=02173103901357500000000000000000000ffff0a00849c804a65&btag=e00070000&format=mp3&mime_type=audio_mpeg",
        "source_timerange": {
            "start_offset": 2.8559999999999945,
            "end_offset": 4.283999999999992
        },
        "target_timerange": {
            "start_offset": 177.024,
            "end_offset": 178.452
        },
        "ignore_audio": true,
        "audio_path": null
    },
    {
        "segment_id": "62a9ba8c9d8711ef9d0bb8cef68acef0",
        "text": "not help answering her; but",
        "audio_url": "https://v16m-default.akamaized.net/758793b2e04bb0d62be138d9ce2bc903/672de39d/video/tos/maliva/tos-maliva-v-f15faa-us/o8rF0hBlIBVJB8Av5fgwbIYdnlAHMDePLAEQLB/?a=7073&bti=OTU0QDItLmA%3D&ch=0&cr=0&dr=4&er=0&lr=unwatermarked&cd=0%7C0%7C0%7C0&br=312&bt=156&ds=5&ft=.cwOVInz7TheXqvOXq8Zmo&qs=13&rc=M291NGo5cmVydjUzNzhoM0BpM291NGo5cmVydjUzNzhoM0BxMmVgMmRzcmpgLS1kLjZzYSNxMmVgMmRzcmpgLS1kLjZzcw%3D%3D&vvpl=1&l=02173103901357500000000000000000000ffff0a00849c804a65&btag=e00070000&format=mp3&mime_type=audio_mpeg",
        "source_timerange": {
            "start_offset": 4.283999999999992,
            "end_offset": 5.711999999999989
        },
        "target_timerange": {
            "start_offset": 178.452,
            "end_offset": 179.88
        },
        "ignore_audio": true,
        "audio_path": null
    },
    {
        "segment_id": "62a9bc309d8711ef9d0bb8cef68acef0",
        "text": "she said he seemed very",
        "audio_url": "https://v16m-default.akamaized.net/758793b2e04bb0d62be138d9ce2bc903/672de39d/video/tos/maliva/tos-maliva-v-f15faa-us/o8rF0hBlIBVJB8Av5fgwbIYdnlAHMDePLAEQLB/?a=7073&bti=OTU0QDItLmA%3D&ch=0&cr=0&dr=4&er=0&lr=unwatermarked&cd=0%7C0%7C0%7C0&br=312&bt=156&ds=5&ft=.cwOVInz7TheXqvOXq8Zmo&qs=13&rc=M291NGo5cmVydjUzNzhoM0BpM291NGo5cmVydjUzNzhoM0BxMmVgMmRzcmpgLS1kLjZzYSNxMmVgMmRzcmpgLS1kLjZzcw%3D%3D&vvpl=1&l=02173103901357500000000000000000000ffff0a00849c804a65&btag=e00070000&format=mp3&mime_type=audio_mpeg",
        "source_timerange": {
            "start_offset": 5.711999999999989,
            "end_offset": 7.139999999999986
        },
        "target_timerange": {
            "start_offset": 179.88,
            "end_offset": 181.308
        },
        "ignore_audio": true,
        "audio_path": null
    },
    {
        "segment_id": "62a9bd0c9d8711ef9d0bb8cef68acef0",
        "text": "angry at being spoke to.”",
        "audio_url": "https://v16m-default.akamaized.net/758793b2e04bb0d62be138d9ce2bc903/672de39d/video/tos/maliva/tos-maliva-v-f15faa-us/o8rF0hBlIBVJB8Av5fgwbIYdnlAHMDePLAEQLB/?a=7073&bti=OTU0QDItLmA%3D&ch=0&cr=0&dr=4&er=0&lr=unwatermarked&cd=0%7C0%7C0%7C0&br=312&bt=156&ds=5&ft=.cwOVInz7TheXqvOXq8Zmo&qs=13&rc=M291NGo5cmVydjUzNzhoM0BpM291NGo5cmVydjUzNzhoM0BxMmVgMmRzcmpgLS1kLjZzYSNxMmVgMmRzcmpgLS1kLjZzcw%3D%3D&vvpl=1&l=02173103901357500000000000000000000ffff0a00849c804a65&btag=e00070000&format=mp3&mime_type=audio_mpeg",
        "source_timerange": {
            "start_offset": 7.139999999999986,
            "end_offset": 8.568000000000012
        },
        "target_timerange": {
            "start_offset": 181.308,
            "end_offset": 182.73600000000002
        },
        "ignore_audio": true,
        "audio_path": null
    },
    {
        "segment_id": "62a9bde89d8711ef9d0bb8cef68acef0",
        "text": "“Miss Bingley told me,” said",
        "audio_url": "https://v16m-default.akamaized.net/758793b2e04bb0d62be138d9ce2bc903/672de39d/video/tos/maliva/tos-maliva-v-f15faa-us/o8rF0hBlIBVJB8Av5fgwbIYdnlAHMDePLAEQLB/?a=7073&bti=OTU0QDItLmA%3D&ch=0&cr=0&dr=4&er=0&lr=unwatermarked&cd=0%7C0%7C0%7C0&br=312&bt=156&ds=5&ft=.cwOVInz7TheXqvOXq8Zmo&qs=13&rc=M291NGo5cmVydjUzNzhoM0BpM291NGo5cmVydjUzNzhoM0BxMmVgMmRzcmpgLS1kLjZzYSNxMmVgMmRzcmpgLS1kLjZzcw%3D%3D&vvpl=1&l=02173103901357500000000000000000000ffff0a00849c804a65&btag=e00070000&format=mp3&mime_type=audio_mpeg",
        "source_timerange": {
            "start_offset": 8.568000000000012,
            "end_offset": 9.99600000000001
        },
        "target_timerange": {
            "start_offset": 182.73600000000002,
            "end_offset": 184.16400000000002
        },
        "ignore_audio": true,
        "audio_path": null
    },
    {
        "segment_id": "62a9bec49d8711ef9d0bb8cef68acef0",
        "text": "Jane, “that he never speaks",
        "audio_url": "https://v16m-default.akamaized.net/758793b2e04bb0d62be138d9ce2bc903/672de39d/video/tos/maliva/tos-maliva-v-f15faa-us/o8rF0hBlIBVJB8Av5fgwbIYdnlAHMDePLAEQLB/?a=7073&bti=OTU0QDItLmA%3D&ch=0&cr=0&dr=4&er=0&lr=unwatermarked&cd=0%7C0%7C0%7C0&br=312&bt=156&ds=5&ft=.cwOVInz7TheXqvOXq8Zmo&qs=13&rc=M291NGo5cmVydjUzNzhoM0BpM291NGo5cmVydjUzNzhoM0BxMmVgMmRzcmpgLS1kLjZzYSNxMmVgMmRzcmpgLS1kLjZzcw%3D%3D&vvpl=1&l=02173103901357500000000000000000000ffff0a00849c804a65&btag=e00070000&format=mp3&mime_type=audio_mpeg",
        "source_timerange": {
            "start_offset": 9.99600000000001,
            "end_offset": 11.424000000000007
        },
        "target_timerange": {
            "start_offset": 184.16400000000002,
            "end_offset": 185.592
        },
        "ignore_audio": true,
        "audio_path": null
    },
    {
        "segment_id": "62a9bf969d8711ef9d0bb8cef68acef0",
        "text": "much unless among his",
        "audio_url": "https://v16m-default.akamaized.net/758793b2e04bb0d62be138d9ce2bc903/672de39d/video/tos/maliva/tos-maliva-v-f15faa-us/o8rF0hBlIBVJB8Av5fgwbIYdnlAHMDePLAEQLB/?a=7073&bti=OTU0QDItLmA%3D&ch=0&cr=0&dr=4&er=0&lr=unwatermarked&cd=0%7C0%7C0%7C0&br=312&bt=156&ds=5&ft=.cwOVInz7TheXqvOXq8Zmo&qs=13&rc=M291NGo5cmVydjUzNzhoM0BpM291NGo5cmVydjUzNzhoM0BxMmVgMmRzcmpgLS1kLjZzYSNxMmVgMmRzcmpgLS1kLjZzcw%3D%3D&vvpl=1&l=02173103901357500000000000000000000ffff0a00849c804a65&btag=e00070000&format=mp3&mime_type=audio_mpeg",
        "source_timerange": {
            "start_offset": 11.424000000000007,
            "end_offset": 12.852000000000004
        },
        "target_timerange": {
            "start_offset": 185.592,
            "end_offset": 187.02
        },
        "ignore_audio": true,
        "audio_path": null
    },
    {
        "segment_id": "62a9c0689d8711ef9d0bb8cef68acef0",
        "text": "intimate acquaintance.",
        "audio_url": "https://v16m-default.akamaized.net/758793b2e04bb0d62be138d9ce2bc903/672de39d/video/tos/maliva/tos-maliva-v-f15faa-us/o8rF0hBlIBVJB8Av5fgwbIYdnlAHMDePLAEQLB/?a=7073&bti=OTU0QDItLmA%3D&ch=0&cr=0&dr=4&er=0&lr=unwatermarked&cd=0%7C0%7C0%7C0&br=312&bt=156&ds=5&ft=.cwOVInz7TheXqvOXq8Zmo&qs=13&rc=M291NGo5cmVydjUzNzhoM0BpM291NGo5cmVydjUzNzhoM0BxMmVgMmRzcmpgLS1kLjZzYSNxMmVgMmRzcmpgLS1kLjZzcw%3D%3D&vvpl=1&l=02173103901357500000000000000000000ffff0a00849c804a65&btag=e00070000&format=mp3&mime_type=audio_mpeg",
        "source_timerange": {
            "start_offset": 12.852000000000004,
            "end_offset": 14.280000000000001
        },
        "target_timerange": {
            "start_offset": 187.02,
            "end_offset": 188.448
        },
        "ignore_audio": true,
        "audio_path": null
    },
    {
        "segment_id": "62a9c63a9d8711ef9d0bb8cef68acef0",
        "text": "With _them_",
        "audio_url": "https://v16m-default.akamaized.net/fe8e1723f4477e0d1d7947da0d24bcf7/672de38f/video/tos/maliva/tos-maliva-v-f15faa-us/okEI9VBnFLtjeiRn5LAByQAhJcBfLXAASEA6iY/?a=7073&bti=OTU0QDItLmA%3D&ch=0&cr=0&dr=4&er=0&lr=unwatermarked&cd=0%7C0%7C0%7C0&br=312&bt=156&ds=5&ft=.cwOVInz7TheXqvOXq8Zmo&qs=13&rc=anY8aHM5cmVydjUzNzhoM0BpanY8aHM5cmVydjUzNzhoM0AyL2YtMmRzcmpgLS1kLjZzYSMyL2YtMmRzcmpgLS1kLjZzcw%3D%3D&vvpl=1&l=02173103901357500000000000000000000ffff0a00849c804a65&btag=e00070000&format=mp3&mime_type=audio_mpeg",
        "source_timerange": {
            "start_offset": 0,
            "end_offset": 0.792
        },
        "target_timerange": {
            "start_offset": 188.448,
            "end_offset": 189.24
        },
        "ignore_audio": false,
        "audio_path": null
    },
    {
        "segment_id": "62a9cc489d8711ef9d0bb8cef68acef0",
        "text": "he is remarkably agreeable.”",
        "audio_url": "https://v16m-default.akamaized.net/e8324520d275a4ac2f16286cc81ee659/672de390/video/tos/maliva/tos-maliva-v-f15faa-us/oQlpIwFfAAJvCT7bBADLI8L1VvnQHBBhAYEqfN/?a=7073&bti=OTU0QDItLmA%3D&ch=0&cr=0&dr=4&er=0&lr=unwatermarked&cd=0%7C0%7C0%7C0&br=312&bt=156&ds=5&ft=.cwOVInz7TheXqvOXq8Zmo&qs=13&rc=MzxvcnQ5cmVydjUzNzhoM0BpMzxvcnQ5cmVydjUzNzhoM0BwNi9vMmRzcmpgLS1kLjZzYSNwNi9vMmRzcmpgLS1kLjZzcw%3D%3D&vvpl=1&l=02173103901357500000000000000000000ffff0a00849c804a65&btag=e00070000&format=mp3&mime_type=audio_mpeg",
        "source_timerange": {
            "start_offset": 0,
            "end_offset": 1.728
        },
        "target_timerange": {
            "start_offset": 189.24,
            "end_offset": 190.96800000000002
        },
        "ignore_audio": false,
        "audio_path": null
    },
    {
        "segment_id": "62a9d7ec9d8711ef9d0bb8cef68acef0",
        "text": "“I do not believe a",
        "audio_url": "https://v16m-default.akamaized.net/3c9eababb67efab97499bdccdacab751/672de391/video/tos/maliva/tos-maliva-v-f15faa-us/o4AeEJiBAjfBlz8AjnYthPREyAiEqVLL0XBMzQ/?a=7073&bti=OTU0QDItLmA%3D&ch=0&cr=0&dr=4&er=0&lr=unwatermarked&cd=0%7C0%7C0%7C0&br=312&bt=156&ds=5&ft=.cwOVInz7TheXqvOXq8Zmo&qs=13&rc=amlsdG05cmVydjUzNzhoM0BpamlsdG05cmVydjUzNzhoM0A1XmplMmRzcmpgLS1kLjZzYSM1XmplMmRzcmpgLS1kLjZzcw%3D%3D&vvpl=1&l=02173103901357500000000000000000000ffff0a00849c804a65&btag=e00070000&format=mp3&mime_type=audio_mpeg",
        "source_timerange": {
            "start_offset": 0,
            "end_offset": 1.1760000000000121
        },
        "target_timerange": {
            "start_offset": 190.96800000000002,
            "end_offset": 192.144
        },
        "ignore_audio": false,
        "audio_path": null
    },
    {
        "segment_id": "62a9d9049d8711ef9d0bb8cef68acef0",
        "text": "word of it, my dear.",
        "audio_url": "https://v16m-default.akamaized.net/3c9eababb67efab97499bdccdacab751/672de391/video/tos/maliva/tos-maliva-v-f15faa-us/o4AeEJiBAjfBlz8AjnYthPREyAiEqVLL0XBMzQ/?a=7073&bti=OTU0QDItLmA%3D&ch=0&cr=0&dr=4&er=0&lr=unwatermarked&cd=0%7C0%7C0%7C0&br=312&bt=156&ds=5&ft=.cwOVInz7TheXqvOXq8Zmo&qs=13&rc=amlsdG05cmVydjUzNzhoM0BpamlsdG05cmVydjUzNzhoM0A1XmplMmRzcmpgLS1kLjZzYSM1XmplMmRzcmpgLS1kLjZzcw%3D%3D&vvpl=1&l=02173103901357500000000000000000000ffff0a00849c804a65&btag=e00070000&format=mp3&mime_type=audio_mpeg",
        "source_timerange": {
            "start_offset": 1.1759999999999877,
            "end_offset": 2.352
        },
        "target_timerange": {
            "start_offset": 192.144,
            "end_offset": 193.32
        },
        "ignore_audio": true,
        "audio_path": null
    },
    {
        "segment_id": "62a9e8689d8711ef9d0bb8cef68acef0",
        "text": "If he had been so very",
        "audio_url": "https://v16m-default.akamaized.net/3287fca8e72ef25bb0569ae5af809727/672de392/video/tos/maliva/tos-maliva-v-f15faa-us/o8P8hAbEVJ5fA8BMHQAYeIALILpnZ7DccvlBFB/?a=7073&bti=OTU0QDItLmA%3D&ch=0&cr=0&dr=4&er=0&lr=unwatermarked&cd=0%7C0%7C0%7C0&br=312&bt=156&ds=5&ft=.cwOVInz7TheXqvOXq8Zmo&qs=13&rc=M3hsaXc5cmVydjUzNzhoM0BpM3hsaXc5cmVydjUzNzhoM0AwLTJuMmRzcmpgLS1kLjZzYSMwLTJuMmRzcmpgLS1kLjZzcw%3D%3D&vvpl=1&l=02173103901357500000000000000000000ffff0a00849c804a65&btag=e00070000&format=mp3&mime_type=audio_mpeg",
        "source_timerange": {
            "start_offset": 0,
            "end_offset": 1.2880000000000065
        },
        "target_timerange": {
            "start_offset": 193.32,
            "end_offset": 194.608
        },
        "ignore_audio": false,
        "audio_path": null
    },
    {
        "segment_id": "62a9e9949d8711ef9d0bb8cef68acef0",
        "text": "agreeable, he would have",
        "audio_url": "https://v16m-default.akamaized.net/3287fca8e72ef25bb0569ae5af809727/672de392/video/tos/maliva/tos-maliva-v-f15faa-us/o8P8hAbEVJ5fA8BMHQAYeIALILpnZ7DccvlBFB/?a=7073&bti=OTU0QDItLmA%3D&ch=0&cr=0&dr=4&er=0&lr=unwatermarked&cd=0%7C0%7C0%7C0&br=312&bt=156&ds=5&ft=.cwOVInz7TheXqvOXq8Zmo&qs=13&rc=M3hsaXc5cmVydjUzNzhoM0BpM3hsaXc5cmVydjUzNzhoM0AwLTJuMmRzcmpgLS1kLjZzYSMwLTJuMmRzcmpgLS1kLjZzcw%3D%3D&vvpl=1&l=02173103901357500000000000000000000ffff0a00849c804a65&btag=e00070000&format=mp3&mime_type=audio_mpeg",
        "source_timerange": {
            "start_offset": 1.288000000000011,
            "end_offset": 2.575999999999989
        },
        "target_timerange": {
            "start_offset": 194.608,
            "end_offset": 195.896
        },
        "ignore_audio": true,
        "audio_path": null
    },
    {
        "segment_id": "62a9ea849d8711ef9d0bb8cef68acef0",
        "text": "talked to Mrs. Long.",
        "audio_url": "https://v16m-default.akamaized.net/3287fca8e72ef25bb0569ae5af809727/672de392/video/tos/maliva/tos-maliva-v-f15faa-us/o8P8hAbEVJ5fA8BMHQAYeIALILpnZ7DccvlBFB/?a=7073&bti=OTU0QDItLmA%3D&ch=0&cr=0&dr=4&er=0&lr=unwatermarked&cd=0%7C0%7C0%7C0&br=312&bt=156&ds=5&ft=.cwOVInz7TheXqvOXq8Zmo&qs=13&rc=M3hsaXc5cmVydjUzNzhoM0BpM3hsaXc5cmVydjUzNzhoM0AwLTJuMmRzcmpgLS1kLjZzYSMwLTJuMmRzcmpgLS1kLjZzcw%3D%3D&vvpl=1&l=02173103901357500000000000000000000ffff0a00849c804a65&btag=e00070000&format=mp3&mime_type=audio_mpeg",
        "source_timerange": {
            "start_offset": 2.5759999999999934,
            "end_offset": 3.864
        },
        "target_timerange": {
            "start_offset": 195.896,
            "end_offset": 197.184
        },
        "ignore_audio": true,
        "audio_path": null
    },
    {
        "segment_id": "62aa105e9d8711ef9d0bb8cef68acef0",
        "text": "But I can guess how it was;",
        "audio_url": "https://v16m-default.akamaized.net/66447b52f02e04997473002c874eee57/672de39a/video/tos/maliva/tos-maliva-v-f15faa-us/owUeEJ7HXBLyjlA9AYi8BVnAAhhQtBTLE8fZti/?a=7073&bti=OTU0QDItLmA%3D&ch=0&cr=0&dr=4&er=0&lr=unwatermarked&cd=0%7C0%7C0%7C0&br=312&bt=156&ds=5&ft=.cwOVInz7TheXqvOXq8Zmo&qs=13&rc=amdsc3Y5cmVydjUzNzhoM0Bpamdsc3Y5cmVydjUzNzhoM0BxMGMwMmRzcmpgLS1kLjZzYSNxMGMwMmRzcmpgLS1kLjZzcw%3D%3D&vvpl=1&l=02173103901357500000000000000000000ffff0a00849c804a65&btag=e00070000&format=mp3&mime_type=audio_mpeg",
        "source_timerange": {
            "start_offset": 0,
            "end_offset": 1.4130000000000091
        },
        "target_timerange": {
            "start_offset": 197.184,
            "end_offset": 198.597
        },
        "ignore_audio": false,
        "audio_path": null
    },
    {
        "segment_id": "62aa11a89d8711ef9d0bb8cef68acef0",
        "text": "everybody says that he is",
        "audio_url": "https://v16m-default.akamaized.net/66447b52f02e04997473002c874eee57/672de39a/video/tos/maliva/tos-maliva-v-f15faa-us/owUeEJ7HXBLyjlA9AYi8BVnAAhhQtBTLE8fZti/?a=7073&bti=OTU0QDItLmA%3D&ch=0&cr=0&dr=4&er=0&lr=unwatermarked&cd=0%7C0%7C0%7C0&br=312&bt=156&ds=5&ft=.cwOVInz7TheXqvOXq8Zmo&qs=13&rc=amdsc3Y5cmVydjUzNzhoM0Bpamdsc3Y5cmVydjUzNzhoM0BxMGMwMmRzcmpgLS1kLjZzYSNxMGMwMmRzcmpgLS1kLjZzcw%3D%3D&vvpl=1&l=02173103901357500000000000000000000ffff0a00849c804a65&btag=e00070000&format=mp3&mime_type=audio_mpeg",
        "source_timerange": {
            "start_offset": 1.413000000000011,
            "end_offset": 2.8259999999999916
        },
        "target_timerange": {
            "start_offset": 198.597,
            "end_offset": 200.01
        },
        "ignore_audio": true,
        "audio_path": null
    },
    {
        "segment_id": "62aa12989d8711ef9d0bb8cef68acef0",
        "text": "eat up with pride, and I",
        "audio_url": "https://v16m-default.akamaized.net/66447b52f02e04997473002c874eee57/672de39a/video/tos/maliva/tos-maliva-v-f15faa-us/owUeEJ7HXBLyjlA9AYi8BVnAAhhQtBTLE8fZti/?a=7073&bti=OTU0QDItLmA%3D&ch=0&cr=0&dr=4&er=0&lr=unwatermarked&cd=0%7C0%7C0%7C0&br=312&bt=156&ds=5&ft=.cwOVInz7TheXqvOXq8Zmo&qs=13&rc=amdsc3Y5cmVydjUzNzhoM0Bpamdsc3Y5cmVydjUzNzhoM0BxMGMwMmRzcmpgLS1kLjZzYSNxMGMwMmRzcmpgLS1kLjZzcw%3D%3D&vvpl=1&l=02173103901357500000000000000000000ffff0a00849c804a65&btag=e00070000&format=mp3&mime_type=audio_mpeg",
        "source_timerange": {
            "start_offset": 2.8259999999999934,
            "end_offset": 4.2390000000000025
        },
        "target_timerange": {
            "start_offset": 200.01,
            "end_offset": 201.423
        },
        "ignore_audio": true,
        "audio_path": null
    },
    {
        "segment_id": "62aa136a9d8711ef9d0bb8cef68acef0",
        "text": "dare say he had heard",
        "audio_url": "https://v16m-default.akamaized.net/66447b52f02e04997473002c874eee57/672de39a/video/tos/maliva/tos-maliva-v-f15faa-us/owUeEJ7HXBLyjlA9AYi8BVnAAhhQtBTLE8fZti/?a=7073&bti=OTU0QDItLmA%3D&ch=0&cr=0&dr=4&er=0&lr=unwatermarked&cd=0%7C0%7C0%7C0&br=312&bt=156&ds=5&ft=.cwOVInz7TheXqvOXq8Zmo&qs=13&rc=amdsc3Y5cmVydjUzNzhoM0Bpamdsc3Y5cmVydjUzNzhoM0BxMGMwMmRzcmpgLS1kLjZzYSNxMGMwMmRzcmpgLS1kLjZzcw%3D%3D&vvpl=1&l=02173103901357500000000000000000000ffff0a00849c804a65&btag=e00070000&format=mp3&mime_type=audio_mpeg",
        "source_timerange": {
            "start_offset": 4.239000000000004,
            "end_offset": 5.6520000000000135
        },
        "target_timerange": {
            "start_offset": 201.423,
            "end_offset": 202.836
        },
        "ignore_audio": true,
        "audio_path": null
    },
    {
        "segment_id": "62aa14509d8711ef9d0bb8cef68acef0",
        "text": "somehow that Mrs. Long does",
        "audio_url": "https://v16m-default.akamaized.net/66447b52f02e04997473002c874eee57/672de39a/video/tos/maliva/tos-maliva-v-f15faa-us/owUeEJ7HXBLyjlA9AYi8BVnAAhhQtBTLE8fZti/?a=7073&bti=OTU0QDItLmA%3D&ch=0&cr=0&dr=4&er=0&lr=unwatermarked&cd=0%7C0%7C0%7C0&br=312&bt=156&ds=5&ft=.cwOVInz7TheXqvOXq8Zmo&qs=13&rc=amdsc3Y5cmVydjUzNzhoM0Bpamdsc3Y5cmVydjUzNzhoM0BxMGMwMmRzcmpgLS1kLjZzYSNxMGMwMmRzcmpgLS1kLjZzcw%3D%3D&vvpl=1&l=02173103901357500000000000000000000ffff0a00849c804a65&btag=e00070000&format=mp3&mime_type=audio_mpeg",
        "source_timerange": {
            "start_offset": 5.652000000000015,
            "end_offset": 7.064999999999996
        },
        "target_timerange": {
            "start_offset": 202.836,
            "end_offset": 204.249
        },
        "ignore_audio": true,
        "audio_path": null
    },
    {
        "segment_id": "62aa152c9d8711ef9d0bb8cef68acef0",
        "text": "not keep a carriage, and",
        "audio_url": "https://v16m-default.akamaized.net/66447b52f02e04997473002c874eee57/672de39a/video/tos/maliva/tos-maliva-v-f15faa-us/owUeEJ7HXBLyjlA9AYi8BVnAAhhQtBTLE8fZti/?a=7073&bti=OTU0QDItLmA%3D&ch=0&cr=0&dr=4&er=0&lr=unwatermarked&cd=0%7C0%7C0%7C0&br=312&bt=156&ds=5&ft=.cwOVInz7TheXqvOXq8Zmo&qs=13&rc=amdsc3Y5cmVydjUzNzhoM0Bpamdsc3Y5cmVydjUzNzhoM0BxMGMwMmRzcmpgLS1kLjZzYSNxMGMwMmRzcmpgLS1kLjZzcw%3D%3D&vvpl=1&l=02173103901357500000000000000000000ffff0a00849c804a65&btag=e00070000&format=mp3&mime_type=audio_mpeg",
        "source_timerange": {
            "start_offset": 7.064999999999998,
            "end_offset": 8.478000000000007
        },
        "target_timerange": {
            "start_offset": 204.249,
            "end_offset": 205.662
        },
        "ignore_audio": true,
        "audio_path": null
    },
    {
        "segment_id": "62aa16089d8711ef9d0bb8cef68acef0",
        "text": "had to come to the ball in",
        "audio_url": "https://v16m-default.akamaized.net/66447b52f02e04997473002c874eee57/672de39a/video/tos/maliva/tos-maliva-v-f15faa-us/owUeEJ7HXBLyjlA9AYi8BVnAAhhQtBTLE8fZti/?a=7073&bti=OTU0QDItLmA%3D&ch=0&cr=0&dr=4&er=0&lr=unwatermarked&cd=0%7C0%7C0%7C0&br=312&bt=156&ds=5&ft=.cwOVInz7TheXqvOXq8Zmo&qs=13&rc=amdsc3Y5cmVydjUzNzhoM0Bpamdsc3Y5cmVydjUzNzhoM0BxMGMwMmRzcmpgLS1kLjZzYSNxMGMwMmRzcmpgLS1kLjZzcw%3D%3D&vvpl=1&l=02173103901357500000000000000000000ffff0a00849c804a65&btag=e00070000&format=mp3&mime_type=audio_mpeg",
        "source_timerange": {
            "start_offset": 8.478000000000009,
            "end_offset": 9.89099999999999
        },
        "target_timerange": {
            "start_offset": 205.662,
            "end_offset": 207.075
        },
        "ignore_audio": true,
        "audio_path": null
    },
    {
        "segment_id": "62aa16d09d8711ef9d0bb8cef68acef0",
        "text": "a hack chaise.”",
        "audio_url": "https://v16m-default.akamaized.net/66447b52f02e04997473002c874eee57/672de39a/video/tos/maliva/tos-maliva-v-f15faa-us/owUeEJ7HXBLyjlA9AYi8BVnAAhhQtBTLE8fZti/?a=7073&bti=OTU0QDItLmA%3D&ch=0&cr=0&dr=4&er=0&lr=unwatermarked&cd=0%7C0%7C0%7C0&br=312&bt=156&ds=5&ft=.cwOVInz7TheXqvOXq8Zmo&qs=13&rc=amdsc3Y5cmVydjUzNzhoM0Bpamdsc3Y5cmVydjUzNzhoM0BxMGMwMmRzcmpgLS1kLjZzYSNxMGMwMmRzcmpgLS1kLjZzcw%3D%3D&vvpl=1&l=02173103901357500000000000000000000ffff0a00849c804a65&btag=e00070000&format=mp3&mime_type=audio_mpeg",
        "source_timerange": {
            "start_offset": 9.890999999999991,
            "end_offset": 11.304
        },
        "target_timerange": {
            "start_offset": 207.075,
            "end_offset": 208.488
        },
        "ignore_audio": true,
        "audio_path": null
    },
    {
        "segment_id": "62aa2b3e9d8711ef9d0bb8cef68acef0",
        "text": "“I do not mind his not",
        "audio_url": "https://v16m-default.akamaized.net/7707c65d0dc1dc1591990c87bf5f36ad/672de399/video/tos/maliva/tos-maliva-v-f15faa-us/oketvX8EA3VtAE8EdBFnLjADQyJSABQyfYLhRm/?a=7073&bti=OTU0QDItLmA%3D&ch=0&cr=0&dr=4&er=0&lr=unwatermarked&cd=0%7C0%7C0%7C0&br=312&bt=156&ds=5&ft=.cwOVInz7Th.XqvOXq8Zmo&qs=13&rc=M3h0eG05cmVydjUzNzhoM0BpM3h0eG05cmVydjUzNzhoM0BtZXIyMmRzcmpgLS1kLjZzYSNtZXIyMmRzcmpgLS1kLjZzcw%3D%3D&vvpl=1&l=02173103901357500000000000000000000ffff0a00849c804a65&btag=e00070000&format=mp3&mime_type=audio_mpeg",
        "source_timerange": {
            "start_offset": 0,
            "end_offset": 1.517999999999998
        },
        "target_timerange": {
            "start_offset": 208.488,
            "end_offset": 210.006
        },
        "ignore_audio": false,
        "audio_path": null
    },
    {
        "segment_id": "62aa2c6a9d8711ef9d0bb8cef68acef0",
        "text": "talking to Mrs. Long,” said",
        "audio_url": "https://v16m-default.akamaized.net/7707c65d0dc1dc1591990c87bf5f36ad/672de399/video/tos/maliva/tos-maliva-v-f15faa-us/oketvX8EA3VtAE8EdBFnLjADQyJSABQyfYLhRm/?a=7073&bti=OTU0QDItLmA%3D&ch=0&cr=0&dr=4&er=0&lr=unwatermarked&cd=0%7C0%7C0%7C0&br=312&bt=156&ds=5&ft=.cwOVInz7Th.XqvOXq8Zmo&qs=13&rc=M3h0eG05cmVydjUzNzhoM0BpM3h0eG05cmVydjUzNzhoM0BtZXIyMmRzcmpgLS1kLjZzYSNtZXIyMmRzcmpgLS1kLjZzcw%3D%3D&vvpl=1&l=02173103901357500000000000000000000ffff0a00849c804a65&btag=e00070000&format=mp3&mime_type=audio_mpeg",
        "source_timerange": {
            "start_offset": 1.5180000000000007,
            "end_offset": 3.0359999999999987
        },
        "target_timerange": {
            "start_offset": 210.006,
            "end_offset": 211.524
        },
        "ignore_audio": true,
        "audio_path": null
    },
    {
        "segment_id": "62aa2d649d8711ef9d0bb8cef68acef0",
        "text": "Miss Lucas, “but I wish he",
        "audio_url": "https://v16m-default.akamaized.net/7707c65d0dc1dc1591990c87bf5f36ad/672de399/video/tos/maliva/tos-maliva-v-f15faa-us/oketvX8EA3VtAE8EdBFnLjADQyJSABQyfYLhRm/?a=7073&bti=OTU0QDItLmA%3D&ch=0&cr=0&dr=4&er=0&lr=unwatermarked&cd=0%7C0%7C0%7C0&br=312&bt=156&ds=5&ft=.cwOVInz7Th.XqvOXq8Zmo&qs=13&rc=M3h0eG05cmVydjUzNzhoM0BpM3h0eG05cmVydjUzNzhoM0BtZXIyMmRzcmpgLS1kLjZzYSNtZXIyMmRzcmpgLS1kLjZzcw%3D%3D&vvpl=1&l=02173103901357500000000000000000000ffff0a00849c804a65&btag=e00070000&format=mp3&mime_type=audio_mpeg",
        "source_timerange": {
            "start_offset": 3.0360000000000014,
            "end_offset": 4.553999999999999
        },
        "target_timerange": {
            "start_offset": 211.524,
            "end_offset": 213.042
        },
        "ignore_audio": true,
        "audio_path": null
    },
    {
        "segment_id": "62aa2e409d8711ef9d0bb8cef68acef0",
        "text": "had danced with Eliza.”",
        "audio_url": "https://v16m-default.akamaized.net/7707c65d0dc1dc1591990c87bf5f36ad/672de399/video/tos/maliva/tos-maliva-v-f15faa-us/oketvX8EA3VtAE8EdBFnLjADQyJSABQyfYLhRm/?a=7073&bti=OTU0QDItLmA%3D&ch=0&cr=0&dr=4&er=0&lr=unwatermarked&cd=0%7C0%7C0%7C0&br=312&bt=156&ds=5&ft=.cwOVInz7Th.XqvOXq8Zmo&qs=13&rc=M3h0eG05cmVydjUzNzhoM0BpM3h0eG05cmVydjUzNzhoM0BtZXIyMmRzcmpgLS1kLjZzYSNtZXIyMmRzcmpgLS1kLjZzcw%3D%3D&vvpl=1&l=02173103901357500000000000000000000ffff0a00849c804a65&btag=e00070000&format=mp3&mime_type=audio_mpeg",
        "source_timerange": {
            "start_offset": 4.554000000000002,
            "end_offset": 6.072
        },
        "target_timerange": {
            "start_offset": 213.042,
            "end_offset": 214.56
        },
        "ignore_audio": true,
        "audio_path": null
    },
    {
        "segment_id": "62aa3da49d8711ef9d0bb8cef68acef0",
        "text": "“Another time, Lizzy,” said her",
        "audio_url": "https://v16m-default.akamaized.net/6cc4918c9d27189bf905f673e22ba21c/672de393/video/tos/maliva/tos-maliva-v-f15faa-us/okb6QLDAAInAFB48OJfBV1vfl528HYhhLEBs3I/?a=7073&bti=OTU0QDItLmA%3D&ch=0&cr=0&dr=4&er=0&lr=unwatermarked&cd=0%7C0%7C0%7C0&br=312&bt=156&ds=5&ft=.cwOVInz7TheXqvOXq8Zmo&qs=13&rc=M3U2aXY5cmVydjUzNzhoM0BpM3U2aXY5cmVydjUzNzhoM0BfbF5xMmRzcmpgLS1kLjZzYSNfbF5xMmRzcmpgLS1kLjZzcw%3D%3D&vvpl=1&l=02173103901357500000000000000000000ffff0a00849c804a65&btag=e00070000&format=mp3&mime_type=audio_mpeg",
        "source_timerange": {
            "start_offset": 0,
            "end_offset": 1.5999999999999828
        },
        "target_timerange": {
            "start_offset": 214.56,
            "end_offset": 216.16
        },
        "ignore_audio": false,
        "audio_path": null
    },
    {
        "segment_id": "62aa3f669d8711ef9d0bb8cef68acef0",
        "text": "mother, “I would not dance with",
        "audio_url": "https://v16m-default.akamaized.net/6cc4918c9d27189bf905f673e22ba21c/672de393/video/tos/maliva/tos-maliva-v-f15faa-us/okb6QLDAAInAFB48OJfBV1vfl528HYhhLEBs3I/?a=7073&bti=OTU0QDItLmA%3D&ch=0&cr=0&dr=4&er=0&lr=unwatermarked&cd=0%7C0%7C0%7C0&br=312&bt=156&ds=5&ft=.cwOVInz7TheXqvOXq8Zmo&qs=13&rc=M3U2aXY5cmVydjUzNzhoM0BpM3U2aXY5cmVydjUzNzhoM0BfbF5xMmRzcmpgLS1kLjZzYSNfbF5xMmRzcmpgLS1kLjZzcw%3D%3D&vvpl=1&l=02173103901357500000000000000000000ffff0a00849c804a65&btag=e00070000&format=mp3&mime_type=audio_mpeg",
        "source_timerange": {
            "start_offset": 1.5999999999999943,
            "end_offset": 3.2000000000000055
        },
        "target_timerange": {
            "start_offset": 216.16,
            "end_offset": 217.76000000000002
        },
        "ignore_audio": true,
        "audio_path": null
    },
    {
        "segment_id": "62aa40929d8711ef9d0bb8cef68acef0",
        "text": "_him_, if I were you.”",
        "audio_url": "https://v16m-default.akamaized.net/6cc4918c9d27189bf905f673e22ba21c/672de393/video/tos/maliva/tos-maliva-v-f15faa-us/okb6QLDAAInAFB48OJfBV1vfl528HYhhLEBs3I/?a=7073&bti=OTU0QDItLmA%3D&ch=0&cr=0&dr=4&er=0&lr=unwatermarked&cd=0%7C0%7C0%7C0&br=312&bt=156&ds=5&ft=.cwOVInz7TheXqvOXq8Zmo&qs=13&rc=M3U2aXY5cmVydjUzNzhoM0BpM3U2aXY5cmVydjUzNzhoM0BfbF5xMmRzcmpgLS1kLjZzYSNfbF5xMmRzcmpgLS1kLjZzcw%3D%3D&vvpl=1&l=02173103901357500000000000000000000ffff0a00849c804a65&btag=e00070000&format=mp3&mime_type=audio_mpeg",
        "source_timerange": {
            "start_offset": 3.200000000000017,
            "end_offset": 4.8
        },
        "target_timerange": {
            "start_offset": 217.76000000000002,
            "end_offset": 219.36
        },
        "ignore_audio": true,
        "audio_path": null
    },
    {
        "segment_id": "62aa4bdc9d8711ef9d0bb8cef68acef0",
        "text": "“I believe, ma’am, I may safely promise",
        "audio_url": "https://v16m-default.akamaized.net/b5fb6eafcd4196737df7ea4f485ae524/672de392/video/tos/maliva/tos-maliva-v-f15faa-us/ocF8lAKnLLCOB0vAEzOYBVHBJebfIVmAhBoQID/?a=7073&bti=OTU0QDItLmA%3D&ch=0&cr=0&dr=4&er=0&lr=unwatermarked&cd=0%7C0%7C0%7C0&br=312&bt=156&ds=5&ft=.cwOVInz7TheXqvOXq8Zmo&qs=13&rc=M3RmPHM5cmVydjUzNzhoM0BpM3RmPHM5cmVydjUzNzhoM0BeYm5kMmRzcmpgLS1kLjZzYSNeYm5kMmRzcmpgLS1kLjZzcw%3D%3D&vvpl=1&l=02173103901357500000000000000000000ffff0a00849c804a65&btag=e00070000&format=mp3&mime_type=audio_mpeg",
        "source_timerange": {
            "start_offset": 0,
            "end_offset": 1.8120000000000167
        },
        "target_timerange": {
            "start_offset": 219.36,
            "end_offset": 221.17200000000003
        },
        "ignore_audio": false,
        "audio_path": null
    },
    {
        "segment_id": "62aa4cf49d8711ef9d0bb8cef68acef0",
        "text": "you _never_ to dance with him.”",
        "audio_url": "https://v16m-default.akamaized.net/b5fb6eafcd4196737df7ea4f485ae524/672de392/video/tos/maliva/tos-maliva-v-f15faa-us/ocF8lAKnLLCOB0vAEzOYBVHBJebfIVmAhBoQID/?a=7073&bti=OTU0QDItLmA%3D&ch=0&cr=0&dr=4&er=0&lr=unwatermarked&cd=0%7C0%7C0%7C0&br=312&bt=156&ds=5&ft=.cwOVInz7TheXqvOXq8Zmo&qs=13&rc=M3RmPHM5cmVydjUzNzhoM0BpM3RmPHM5cmVydjUzNzhoM0BeYm5kMmRzcmpgLS1kLjZzYSNeYm5kMmRzcmpgLS1kLjZzcw%3D%3D&vvpl=1&l=02173103901357500000000000000000000ffff0a00849c804a65&btag=e00070000&format=mp3&mime_type=audio_mpeg",
        "source_timerange": {
            "start_offset": 1.8120000000000118,
            "end_offset": 3.624
        },
        "target_timerange": {
            "start_offset": 221.17200000000003,
            "end_offset": 222.984
        },
        "ignore_audio": true,
        "audio_path": null
    },
    {
        "segment_id": "62aa668a9d8711ef9d0bb8cef68acef0",
        "text": "“His pride,” said Miss",
        "audio_url": "https://v16m-default.akamaized.net/44cb586ed8064f446d85353f8292f6e6/672de395/video/tos/maliva/tos-maliva-v-f15faa-us/o84eAAJBnBj35PWiiAAY6LEvhBatfL9Q6VEyAX/?a=7073&bti=OTU0QDItLmA%3D&ch=0&cr=0&dr=4&er=0&lr=unwatermarked&cd=0%7C0%7C0%7C0&br=312&bt=156&ds=5&ft=.cwOVInz7TheXqvOXq8Zmo&qs=13&rc=M3M8eHE5cmVydjUzNzhoM0BpM3M8eHE5cmVydjUzNzhoM0BwYWdrMmRzcmpgLS1kLjZzYSNwYWdrMmRzcmpgLS1kLjZzcw%3D%3D&vvpl=1&l=02173103901357500000000000000000000ffff0a00849c804a65&btag=e00070000&format=mp3&mime_type=audio_mpeg",
        "source_timerange": {
            "start_offset": 0,
            "end_offset": 1.3872
        },
        "target_timerange": {
            "start_offset": 222.984,
            "end_offset": 224.37120000000002
        },
        "ignore_audio": false,
        "audio_path": null
    },
    {
        "segment_id": "62aa684c9d8711ef9d0bb8cef68acef0",
        "text": "Lucas, “does not offend",
        "audio_url": "https://v16m-default.akamaized.net/44cb586ed8064f446d85353f8292f6e6/672de395/video/tos/maliva/tos-maliva-v-f15faa-us/o84eAAJBnBj35PWiiAAY6LEvhBatfL9Q6VEyAX/?a=7073&bti=OTU0QDItLmA%3D&ch=0&cr=0&dr=4&er=0&lr=unwatermarked&cd=0%7C0%7C0%7C0&br=312&bt=156&ds=5&ft=.cwOVInz7TheXqvOXq8Zmo&qs=13&rc=M3M8eHE5cmVydjUzNzhoM0BpM3M8eHE5cmVydjUzNzhoM0BwYWdrMmRzcmpgLS1kLjZzYSNwYWdrMmRzcmpgLS1kLjZzcw%3D%3D&vvpl=1&l=02173103901357500000000000000000000ffff0a00849c804a65&btag=e00070000&format=mp3&mime_type=audio_mpeg",
        "source_timerange": {
            "start_offset": 1.387200000000007,
            "end_offset": 2.774400000000007
        },
        "target_timerange": {
            "start_offset": 224.37120000000002,
            "end_offset": 225.75840000000002
        },
        "ignore_audio": true,
        "audio_path": null
    },
    {
        "segment_id": "62aa69d29d8711ef9d0bb8cef68acef0",
        "text": "_me_ so much as pride",
        "audio_url": "https://v16m-default.akamaized.net/44cb586ed8064f446d85353f8292f6e6/672de395/video/tos/maliva/tos-maliva-v-f15faa-us/o84eAAJBnBj35PWiiAAY6LEvhBatfL9Q6VEyAX/?a=7073&bti=OTU0QDItLmA%3D&ch=0&cr=0&dr=4&er=0&lr=unwatermarked&cd=0%7C0%7C0%7C0&br=312&bt=156&ds=5&ft=.cwOVInz7TheXqvOXq8Zmo&qs=13&rc=M3M8eHE5cmVydjUzNzhoM0BpM3M8eHE5cmVydjUzNzhoM0BwYWdrMmRzcmpgLS1kLjZzYSNwYWdrMmRzcmpgLS1kLjZzcw%3D%3D&vvpl=1&l=02173103901357500000000000000000000ffff0a00849c804a65&btag=e00070000&format=mp3&mime_type=audio_mpeg",
        "source_timerange": {
            "start_offset": 2.774400000000014,
            "end_offset": 4.161599999999986
        },
        "target_timerange": {
            "start_offset": 225.75840000000002,
            "end_offset": 227.1456
        },
        "ignore_audio": true,
        "audio_path": null
    },
    {
        "segment_id": "62aa6b3a9d8711ef9d0bb8cef68acef0",
        "text": "often does, because there",
        "audio_url": "https://v16m-default.akamaized.net/44cb586ed8064f446d85353f8292f6e6/672de395/video/tos/maliva/tos-maliva-v-f15faa-us/o84eAAJBnBj35PWiiAAY6LEvhBatfL9Q6VEyAX/?a=7073&bti=OTU0QDItLmA%3D&ch=0&cr=0&dr=4&er=0&lr=unwatermarked&cd=0%7C0%7C0%7C0&br=312&bt=156&ds=5&ft=.cwOVInz7TheXqvOXq8Zmo&qs=13&rc=M3M8eHE5cmVydjUzNzhoM0BpM3M8eHE5cmVydjUzNzhoM0BwYWdrMmRzcmpgLS1kLjZzYSNwYWdrMmRzcmpgLS1kLjZzcw%3D%3D&vvpl=1&l=02173103901357500000000000000000000ffff0a00849c804a65&btag=e00070000&format=mp3&mime_type=audio_mpeg",
        "source_timerange": {
            "start_offset": 4.161599999999993,
            "end_offset": 5.548799999999993
        },
        "target_timerange": {
            "start_offset": 227.1456,
            "end_offset": 228.5328
        },
        "ignore_audio": true,
        "audio_path": null
    },
    {
        "segment_id": "62aa6c209d8711ef9d0bb8cef68acef0",
        "text": "is an excuse for it.",
        "audio_url": "https://v16m-default.akamaized.net/44cb586ed8064f446d85353f8292f6e6/672de395/video/tos/maliva/tos-maliva-v-f15faa-us/o84eAAJBnBj35PWiiAAY6LEvhBatfL9Q6VEyAX/?a=7073&bti=OTU0QDItLmA%3D&ch=0&cr=0&dr=4&er=0&lr=unwatermarked&cd=0%7C0%7C0%7C0&br=312&bt=156&ds=5&ft=.cwOVInz7TheXqvOXq8Zmo&qs=13&rc=M3M8eHE5cmVydjUzNzhoM0BpM3M8eHE5cmVydjUzNzhoM0BwYWdrMmRzcmpgLS1kLjZzYSNwYWdrMmRzcmpgLS1kLjZzcw%3D%3D&vvpl=1&l=02173103901357500000000000000000000ffff0a00849c804a65&btag=e00070000&format=mp3&mime_type=audio_mpeg",
        "source_timerange": {
            "start_offset": 5.5488,
            "end_offset": 6.936
        },
        "target_timerange": {
            "start_offset": 228.5328,
            "end_offset": 229.92000000000002
        },
        "ignore_audio": true,
        "audio_path": null
    },
    {
        "segment_id": "62aa83229d8711ef9d0bb8cef68acef0",
        "text": "One cannot wonder that so",
        "audio_url": "https://v16m-default.akamaized.net/56f0b41fb554ca928dc185e5c8dc8a6e/672de397/video/tos/maliva/tos-maliva-v-f15faa-us/okIAbnRhuBYAlQVvkdILBFEB8HDWALAeHf6vlJ/?a=7073&bti=OTU0QDItLmA%3D&ch=0&cr=0&dr=4&er=0&lr=unwatermarked&cd=0%7C0%7C0%7C0&br=312&bt=156&ds=5&ft=.cwOVInz7TheXqvOXq8Zmo&qs=13&rc=ajN0d2w5cmVydjUzNzhoM0BpajN0d2w5cmVydjUzNzhoM0BiZXEuMmRzcmpgLS1kLjZzYSNiZXEuMmRzcmpgLS1kLjZzcw%3D%3D&vvpl=1&l=02173103901357500000000000000000000ffff0a00849c804a65&btag=e00070000&format=mp3&mime_type=audio_mpeg",
        "source_timerange": {
            "start_offset": 0,
            "end_offset": 1.6031999999999957
        },
        "target_timerange": {
            "start_offset": 229.92000000000002,
            "end_offset": 231.5232
        },
        "ignore_audio": false,
        "audio_path": null
    },
    {
        "segment_id": "62aa84449d8711ef9d0bb8cef68acef0",
        "text": "very fine a young man, with",
        "audio_url": "https://v16m-default.akamaized.net/56f0b41fb554ca928dc185e5c8dc8a6e/672de397/video/tos/maliva/tos-maliva-v-f15faa-us/okIAbnRhuBYAlQVvkdILBFEB8HDWALAeHf6vlJ/?a=7073&bti=OTU0QDItLmA%3D&ch=0&cr=0&dr=4&er=0&lr=unwatermarked&cd=0%7C0%7C0%7C0&br=312&bt=156&ds=5&ft=.cwOVInz7TheXqvOXq8Zmo&qs=13&rc=ajN0d2w5cmVydjUzNzhoM0BpajN0d2w5cmVydjUzNzhoM0BiZXEuMmRzcmpgLS1kLjZzYSNiZXEuMmRzcmpgLS1kLjZzcw%3D%3D&vvpl=1&l=02173103901357500000000000000000000ffff0a00849c804a65&btag=e00070000&format=mp3&mime_type=audio_mpeg",
        "source_timerange": {
            "start_offset": 1.6031999999999869,
            "end_offset": 3.206400000000011
        },
        "target_timerange": {
            "start_offset": 231.5232,
            "end_offset": 233.12640000000002
        },
        "ignore_audio": true,
        "audio_path": null
    },
    {
        "segment_id": "62aa85349d8711ef9d0bb8cef68acef0",
        "text": "family, fortune, everything",
        "audio_url": "https://v16m-default.akamaized.net/56f0b41fb554ca928dc185e5c8dc8a6e/672de397/video/tos/maliva/tos-maliva-v-f15faa-us/okIAbnRhuBYAlQVvkdILBFEB8HDWALAeHf6vlJ/?a=7073&bti=OTU0QDItLmA%3D&ch=0&cr=0&dr=4&er=0&lr=unwatermarked&cd=0%7C0%7C0%7C0&br=312&bt=156&ds=5&ft=.cwOVInz7TheXqvOXq8Zmo&qs=13&rc=ajN0d2w5cmVydjUzNzhoM0BpajN0d2w5cmVydjUzNzhoM0BiZXEuMmRzcmpgLS1kLjZzYSNiZXEuMmRzcmpgLS1kLjZzcw%3D%3D&vvpl=1&l=02173103901357500000000000000000000ffff0a00849c804a65&btag=e00070000&format=mp3&mime_type=audio_mpeg",
        "source_timerange": {
            "start_offset": 3.206400000000002,
            "end_offset": 4.809599999999998
        },
        "target_timerange": {
            "start_offset": 233.12640000000002,
            "end_offset": 234.7296
        },
        "ignore_audio": true,
        "audio_path": null
    },
    {
        "segment_id": "62aa86109d8711ef9d0bb8cef68acef0",
        "text": "in his favour, should think",
        "audio_url": "https://v16m-default.akamaized.net/56f0b41fb554ca928dc185e5c8dc8a6e/672de397/video/tos/maliva/tos-maliva-v-f15faa-us/okIAbnRhuBYAlQVvkdILBFEB8HDWALAeHf6vlJ/?a=7073&bti=OTU0QDItLmA%3D&ch=0&cr=0&dr=4&er=0&lr=unwatermarked&cd=0%7C0%7C0%7C0&br=312&bt=156&ds=5&ft=.cwOVInz7TheXqvOXq8Zmo&qs=13&rc=ajN0d2w5cmVydjUzNzhoM0BpajN0d2w5cmVydjUzNzhoM0BiZXEuMmRzcmpgLS1kLjZzYSNiZXEuMmRzcmpgLS1kLjZzcw%3D%3D&vvpl=1&l=02173103901357500000000000000000000ffff0a00849c804a65&btag=e00070000&format=mp3&mime_type=audio_mpeg",
        "source_timerange": {
            "start_offset": 4.809599999999989,
            "end_offset": 6.412800000000013
        },
        "target_timerange": {
            "start_offset": 234.7296,
            "end_offset": 236.33280000000002
        },
        "ignore_audio": true,
        "audio_path": null
    },
    {
        "segment_id": "62aa87009d8711ef9d0bb8cef68acef0",
        "text": "highly of himself.",
        "audio_url": "https://v16m-default.akamaized.net/56f0b41fb554ca928dc185e5c8dc8a6e/672de397/video/tos/maliva/tos-maliva-v-f15faa-us/okIAbnRhuBYAlQVvkdILBFEB8HDWALAeHf6vlJ/?a=7073&bti=OTU0QDItLmA%3D&ch=0&cr=0&dr=4&er=0&lr=unwatermarked&cd=0%7C0%7C0%7C0&br=312&bt=156&ds=5&ft=.cwOVInz7TheXqvOXq8Zmo&qs=13&rc=ajN0d2w5cmVydjUzNzhoM0BpajN0d2w5cmVydjUzNzhoM0BiZXEuMmRzcmpgLS1kLjZzYSNiZXEuMmRzcmpgLS1kLjZzcw%3D%3D&vvpl=1&l=02173103901357500000000000000000000ffff0a00849c804a65&btag=e00070000&format=mp3&mime_type=audio_mpeg",
        "source_timerange": {
            "start_offset": 6.412800000000004,
            "end_offset": 8.016
        },
        "target_timerange": {
            "start_offset": 236.33280000000002,
            "end_offset": 237.936
        },
        "ignore_audio": true,
        "audio_path": null
    },
    {
        "segment_id": "62aa91329d8711ef9d0bb8cef68acef0",
        "text": "If I may so express it, he has",
        "audio_url": "https://v16m-default.akamaized.net/6417f7bb6a25cee6c3d0d84cb6df177e/672de393/video/tos/maliva/tos-maliva-v-f15faa-us/oAJYLc9VeEouhjwBEnYQR8D9FvfALByAAEAtAK/?a=7073&bti=OTU0QDItLmA%3D&ch=0&cr=0&dr=4&er=0&lr=unwatermarked&cd=0%7C0%7C0%7C0&br=312&bt=156&ds=5&ft=.cwOVInz7ThaXqvOXq8Zmo&qs=13&rc=M3h2OXg5cmVydjUzNzhoM0BpM3h2OXg5cmVydjUzNzhoM0BibC9uMmRzcmpgLS1kLjZzYSNibC9uMmRzcmpgLS1kLjZzcw%3D%3D&vvpl=1&l=02173103901357500000000000000000000ffff0a00849c804a65&btag=e00070000&format=mp3&mime_type=audio_mpeg",
        "source_timerange": {
            "start_offset": 0,
            "end_offset": 1.7399999999999909
        },
        "target_timerange": {
            "start_offset": 237.936,
            "end_offset": 239.676
        },
        "ignore_audio": false,
        "audio_path": null
    },
    {
        "segment_id": "62aa924a9d8711ef9d0bb8cef68acef0",
        "text": "a _right_ to be proud.”",
        "audio_url": "https://v16m-default.akamaized.net/6417f7bb6a25cee6c3d0d84cb6df177e/672de393/video/tos/maliva/tos-maliva-v-f15faa-us/oAJYLc9VeEouhjwBEnYQR8D9FvfALByAAEAtAK/?a=7073&bti=OTU0QDItLmA%3D&ch=0&cr=0&dr=4&er=0&lr=unwatermarked&cd=0%7C0%7C0%7C0&br=312&bt=156&ds=5&ft=.cwOVInz7ThaXqvOXq8Zmo&qs=13&rc=M3h2OXg5cmVydjUzNzhoM0BpM3h2OXg5cmVydjUzNzhoM0BibC9uMmRzcmpgLS1kLjZzYSNibC9uMmRzcmpgLS1kLjZzcw%3D%3D&vvpl=1&l=02173103901357500000000000000000000ffff0a00849c804a65&btag=e00070000&format=mp3&mime_type=audio_mpeg",
        "source_timerange": {
            "start_offset": 1.7399999999999807,
            "end_offset": 3.48
        },
        "target_timerange": {
            "start_offset": 239.676,
            "end_offset": 241.416
        },
        "ignore_audio": true,
        "audio_path": null
    },
    {
        "segment_id": "62aab9969d8711ef9d0bb8cef68acef0",
        "text": "“That is very true,” replied",
        "audio_url": "https://v16m-default.akamaized.net/43b8181a50335002b3d34677c2812e59/672de39d/video/tos/maliva/tos-maliva-v-f15faa-us/okAVBiQAESnAzbhyEBtAhJiANLdFjBfY2aL9eX/?a=7073&bti=OTU0QDItLmA%3D&ch=0&cr=0&dr=4&er=0&lr=unwatermarked&cd=0%7C0%7C0%7C0&br=312&bt=156&ds=5&ft=.cwOVInz7ThaXqvOXq8Zmo&qs=13&rc=ajQ2NnA5cmVydjUzNzhoM0BpajQ2NnA5cmVydjUzNzhoM0BiNDU2MmRzcmpgLS1kLjZzYSNiNDU2MmRzcmpgLS1kLjZzcw%3D%3D&vvpl=1&l=02173103901357500000000000000000000ffff0a00849c804a65&btag=e00070000&format=mp3&mime_type=audio_mpeg",
        "source_timerange": {
            "start_offset": 0,
            "end_offset": 1.509333333333327
        },
        "target_timerange": {
            "start_offset": 241.416,
            "end_offset": 242.92533333333333
        },
        "ignore_audio": false,
        "audio_path": null
    },
    {
        "segment_id": "62aabb449d8711ef9d0bb8cef68acef0",
        "text": "Elizabeth, “and I could",
        "audio_url": "https://v16m-default.akamaized.net/43b8181a50335002b3d34677c2812e59/672de39d/video/tos/maliva/tos-maliva-v-f15faa-us/okAVBiQAESnAzbhyEBtAhJiANLdFjBfY2aL9eX/?a=7073&bti=OTU0QDItLmA%3D&ch=0&cr=0&dr=4&er=0&lr=unwatermarked&cd=0%7C0%7C0%7C0&br=312&bt=156&ds=5&ft=.cwOVInz7ThaXqvOXq8Zmo&qs=13&rc=ajQ2NnA5cmVydjUzNzhoM0BpajQ2NnA5cmVydjUzNzhoM0BiNDU2MmRzcmpgLS1kLjZzYSNiNDU2MmRzcmpgLS1kLjZzcw%3D%3D&vvpl=1&l=02173103901357500000000000000000000ffff0a00849c804a65&btag=e00070000&format=mp3&mime_type=audio_mpeg",
        "source_timerange": {
            "start_offset": 1.5093333333333305,
            "end_offset": 3.0186666666666575
        },
        "target_timerange": {
            "start_offset": 242.92533333333333,
            "end_offset": 244.43466666666666
        },
        "ignore_audio": true,
        "audio_path": null
    },
    {
        "segment_id": "62aabcb69d8711ef9d0bb8cef68acef0",
        "text": "easily forgive _his_ pride,",
        "audio_url": "https://v16m-default.akamaized.net/43b8181a50335002b3d34677c2812e59/672de39d/video/tos/maliva/tos-maliva-v-f15faa-us/okAVBiQAESnAzbhyEBtAhJiANLdFjBfY2aL9eX/?a=7073&bti=OTU0QDItLmA%3D&ch=0&cr=0&dr=4&er=0&lr=unwatermarked&cd=0%7C0%7C0%7C0&br=312&bt=156&ds=5&ft=.cwOVInz7ThaXqvOXq8Zmo&qs=13&rc=ajQ2NnA5cmVydjUzNzhoM0BpajQ2NnA5cmVydjUzNzhoM0BiNDU2MmRzcmpgLS1kLjZzYSNiNDU2MmRzcmpgLS1kLjZzcw%3D%3D&vvpl=1&l=02173103901357500000000000000000000ffff0a00849c804a65&btag=e00070000&format=mp3&mime_type=audio_mpeg",
        "source_timerange": {
            "start_offset": 3.018666666666661,
            "end_offset": 4.527999999999988
        },
        "target_timerange": {
            "start_offset": 244.43466666666666,
            "end_offset": 245.944
        },
        "ignore_audio": true,
        "audio_path": null
    },
    {
        "segment_id": "62aabdf69d8711ef9d0bb8cef68acef0",
        "text": "if he had not mortified",
        "audio_url": "https://v16m-default.akamaized.net/43b8181a50335002b3d34677c2812e59/672de39d/video/tos/maliva/tos-maliva-v-f15faa-us/okAVBiQAESnAzbhyEBtAhJiANLdFjBfY2aL9eX/?a=7073&bti=OTU0QDItLmA%3D&ch=0&cr=0&dr=4&er=0&lr=unwatermarked&cd=0%7C0%7C0%7C0&br=312&bt=156&ds=5&ft=.cwOVInz7ThaXqvOXq8Zmo&qs=13&rc=ajQ2NnA5cmVydjUzNzhoM0BpajQ2NnA5cmVydjUzNzhoM0BiNDU2MmRzcmpgLS1kLjZzYSNiNDU2MmRzcmpgLS1kLjZzcw%3D%3D&vvpl=1&l=02173103901357500000000000000000000ffff0a00849c804a65&btag=e00070000&format=mp3&mime_type=audio_mpeg",
        "source_timerange": {
            "start_offset": 4.527999999999992,
            "end_offset": 6.037333333333319
        },
        "target_timerange": {
            "start_offset": 245.944,
            "end_offset": 247.45333333333332
        },
        "ignore_audio": true,
        "audio_path": null
    },
    {
        "segment_id": "62aabfea9d8711ef9d0bb8cef68acef0",
        "text": "_mine_.”  “Pride,” observed",
        "audio_url": "https://v16m-default.akamaized.net/43b8181a50335002b3d34677c2812e59/672de39d/video/tos/maliva/tos-maliva-v-f15faa-us/okAVBiQAESnAzbhyEBtAhJiANLdFjBfY2aL9eX/?a=7073&bti=OTU0QDItLmA%3D&ch=0&cr=0&dr=4&er=0&lr=unwatermarked&cd=0%7C0%7C0%7C0&br=312&bt=156&ds=5&ft=.cwOVInz7ThaXqvOXq8Zmo&qs=13&rc=ajQ2NnA5cmVydjUzNzhoM0BpajQ2NnA5cmVydjUzNzhoM0BiNDU2MmRzcmpgLS1kLjZzYSNiNDU2MmRzcmpgLS1kLjZzcw%3D%3D&vvpl=1&l=02173103901357500000000000000000000ffff0a00849c804a65&btag=e00070000&format=mp3&mime_type=audio_mpeg",
        "source_timerange": {
            "start_offset": 6.037333333333322,
            "end_offset": 7.5466666666666775
        },
        "target_timerange": {
            "start_offset": 247.45333333333332,
            "end_offset": 248.96266666666668
        },
        "ignore_audio": true,
        "audio_path": null
    },
    {
        "segment_id": "62aac1489d8711ef9d0bb8cef68acef0",
        "text": "Mary, who piqued herself",
        "audio_url": "https://v16m-default.akamaized.net/43b8181a50335002b3d34677c2812e59/672de39d/video/tos/maliva/tos-maliva-v-f15faa-us/okAVBiQAESnAzbhyEBtAhJiANLdFjBfY2aL9eX/?a=7073&bti=OTU0QDItLmA%3D&ch=0&cr=0&dr=4&er=0&lr=unwatermarked&cd=0%7C0%7C0%7C0&br=312&bt=156&ds=5&ft=.cwOVInz7ThaXqvOXq8Zmo&qs=13&rc=ajQ2NnA5cmVydjUzNzhoM0BpajQ2NnA5cmVydjUzNzhoM0BiNDU2MmRzcmpgLS1kLjZzYSNiNDU2MmRzcmpgLS1kLjZzcw%3D%3D&vvpl=1&l=02173103901357500000000000000000000ffff0a00849c804a65&btag=e00070000&format=mp3&mime_type=audio_mpeg",
        "source_timerange": {
            "start_offset": 7.546666666666681,
            "end_offset": 9.056000000000008
        },
        "target_timerange": {
            "start_offset": 248.96266666666668,
            "end_offset": 250.472
        },
        "ignore_audio": true,
        "audio_path": null
    },
    {
        "segment_id": "62aac2929d8711ef9d0bb8cef68acef0",
        "text": "upon the solidity of her",
        "audio_url": "https://v16m-default.akamaized.net/43b8181a50335002b3d34677c2812e59/672de39d/video/tos/maliva/tos-maliva-v-f15faa-us/okAVBiQAESnAzbhyEBtAhJiANLdFjBfY2aL9eX/?a=7073&bti=OTU0QDItLmA%3D&ch=0&cr=0&dr=4&er=0&lr=unwatermarked&cd=0%7C0%7C0%7C0&br=312&bt=156&ds=5&ft=.cwOVInz7ThaXqvOXq8Zmo&qs=13&rc=ajQ2NnA5cmVydjUzNzhoM0BpajQ2NnA5cmVydjUzNzhoM0BiNDU2MmRzcmpgLS1kLjZzYSNiNDU2MmRzcmpgLS1kLjZzcw%3D%3D&vvpl=1&l=02173103901357500000000000000000000ffff0a00849c804a65&btag=e00070000&format=mp3&mime_type=audio_mpeg",
        "source_timerange": {
            "start_offset": 9.056000000000012,
            "end_offset": 10.565333333333339
        },
        "target_timerange": {
            "start_offset": 250.472,
            "end_offset": 251.98133333333334
        },
        "ignore_audio": true,
        "audio_path": null
    },
    {
        "segment_id": "62aac3829d8711ef9d0bb8cef68acef0",
        "text": "reflections, “is a very",
        "audio_url": "https://v16m-default.akamaized.net/43b8181a50335002b3d34677c2812e59/672de39d/video/tos/maliva/tos-maliva-v-f15faa-us/okAVBiQAESnAzbhyEBtAhJiANLdFjBfY2aL9eX/?a=7073&bti=OTU0QDItLmA%3D&ch=0&cr=0&dr=4&er=0&lr=unwatermarked&cd=0%7C0%7C0%7C0&br=312&bt=156&ds=5&ft=.cwOVInz7ThaXqvOXq8Zmo&qs=13&rc=ajQ2NnA5cmVydjUzNzhoM0BpajQ2NnA5cmVydjUzNzhoM0BiNDU2MmRzcmpgLS1kLjZzYSNiNDU2MmRzcmpgLS1kLjZzcw%3D%3D&vvpl=1&l=02173103901357500000000000000000000ffff0a00849c804a65&btag=e00070000&format=mp3&mime_type=audio_mpeg",
        "source_timerange": {
            "start_offset": 10.565333333333342,
            "end_offset": 12.074666666666669
        },
        "target_timerange": {
            "start_offset": 251.98133333333334,
            "end_offset": 253.49066666666667
        },
        "ignore_audio": true,
        "audio_path": null
    },
    {
        "segment_id": "62aac4549d8711ef9d0bb8cef68acef0",
        "text": "common failing, I believe.",
        "audio_url": "https://v16m-default.akamaized.net/43b8181a50335002b3d34677c2812e59/672de39d/video/tos/maliva/tos-maliva-v-f15faa-us/okAVBiQAESnAzbhyEBtAhJiANLdFjBfY2aL9eX/?a=7073&bti=OTU0QDItLmA%3D&ch=0&cr=0&dr=4&er=0&lr=unwatermarked&cd=0%7C0%7C0%7C0&br=312&bt=156&ds=5&ft=.cwOVInz7ThaXqvOXq8Zmo&qs=13&rc=ajQ2NnA5cmVydjUzNzhoM0BpajQ2NnA5cmVydjUzNzhoM0BiNDU2MmRzcmpgLS1kLjZzYSNiNDU2MmRzcmpgLS1kLjZzcw%3D%3D&vvpl=1&l=02173103901357500000000000000000000ffff0a00849c804a65&btag=e00070000&format=mp3&mime_type=audio_mpeg",
        "source_timerange": {
            "start_offset": 12.074666666666673,
            "end_offset": 13.584
        },
        "target_timerange": {
            "start_offset": 253.49066666666667,
            "end_offset": 255
        },
        "ignore_audio": true,
        "audio_path": null
    },
    {
        "segment_id": "62aaf2da9d8711ef9d0bb8cef68acef0",
        "text": "By all that I have ever read,",
        "audio_url": "https://v16m-default.akamaized.net/ad9be49a13ce33daf2a37d3eaf1a4911/672de39f/video/tos/maliva/tos-maliva-v-f15faa-us/o4AAP9EEEBQnvvLfejFJtoAuMy8XHhLRDBYVA1/?a=7073&bti=OTU0QDItLmA%3D&ch=0&cr=0&dr=4&er=0&lr=unwatermarked&cd=0%7C0%7C0%7C0&br=312&bt=156&ds=5&ft=.cwOVInz7ThaXqvOXq8Zmo&qs=13&rc=M2l4aXQ5cmVydjUzNzhoM0BpM2l4aXQ5cmVydjUzNzhoM0AzcGZoMmRzcmpgLS1kLjZzYSMzcGZoMmRzcmpgLS1kLjZzcw%3D%3D&vvpl=1&l=02173103901357500000000000000000000ffff0a00849c804a65&btag=e00078000&format=mp3&mime_type=audio_mpeg",
        "source_timerange": {
            "start_offset": 0,
            "end_offset": 1.519200000000005
        },
        "target_timerange": {
            "start_offset": 255,
            "end_offset": 256.5192
        },
        "ignore_audio": false,
        "audio_path": null
    },
    {
        "segment_id": "62aaf4249d8711ef9d0bb8cef68acef0",
        "text": "I am convinced that it is",
        "audio_url": "https://v16m-default.akamaized.net/ad9be49a13ce33daf2a37d3eaf1a4911/672de39f/video/tos/maliva/tos-maliva-v-f15faa-us/o4AAP9EEEBQnvvLfejFJtoAuMy8XHhLRDBYVA1/?a=7073&bti=OTU0QDItLmA%3D&ch=0&cr=0&dr=4&er=0&lr=unwatermarked&cd=0%7C0%7C0%7C0&br=312&bt=156&ds=5&ft=.cwOVInz7ThaXqvOXq8Zmo&qs=13&rc=M2l4aXQ5cmVydjUzNzhoM0BpM2l4aXQ5cmVydjUzNzhoM0AzcGZoMmRzcmpgLS1kLjZzYSMzcGZoMmRzcmpgLS1kLjZzcw%3D%3D&vvpl=1&l=02173103901357500000000000000000000ffff0a00849c804a65&btag=e00078000&format=mp3&mime_type=audio_mpeg",
        "source_timerange": {
            "start_offset": 1.519200000000012,
            "end_offset": 3.038400000000017
        },
        "target_timerange": {
            "start_offset": 256.5192,
            "end_offset": 258.0384
        },
        "ignore_audio": true,
        "audio_path": null
    },
    {
        "segment_id": "62aaf50a9d8711ef9d0bb8cef68acef0",
        "text": "very common indeed; that",
        "audio_url": "https://v16m-default.akamaized.net/ad9be49a13ce33daf2a37d3eaf1a4911/672de39f/video/tos/maliva/tos-maliva-v-f15faa-us/o4AAP9EEEBQnvvLfejFJtoAuMy8XHhLRDBYVA1/?a=7073&bti=OTU0QDItLmA%3D&ch=0&cr=0&dr=4&er=0&lr=unwatermarked&cd=0%7C0%7C0%7C0&br=312&bt=156&ds=5&ft=.cwOVInz7ThaXqvOXq8Zmo&qs=13&rc=M2l4aXQ5cmVydjUzNzhoM0BpM2l4aXQ5cmVydjUzNzhoM0AzcGZoMmRzcmpgLS1kLjZzYSMzcGZoMmRzcmpgLS1kLjZzcw%3D%3D&vvpl=1&l=02173103901357500000000000000000000ffff0a00849c804a65&btag=e00078000&format=mp3&mime_type=audio_mpeg",
        "source_timerange": {
            "start_offset": 3.038400000000024,
            "end_offset": 4.557599999999972
        },
        "target_timerange": {
            "start_offset": 258.0384,
            "end_offset": 259.5576
        },
        "ignore_audio": true,
        "audio_path": null
    },
    {
        "segment_id": "62aaf5fa9d8711ef9d0bb8cef68acef0",
        "text": "human nature is particularly",
        "audio_url": "https://v16m-default.akamaized.net/ad9be49a13ce33daf2a37d3eaf1a4911/672de39f/video/tos/maliva/tos-maliva-v-f15faa-us/o4AAP9EEEBQnvvLfejFJtoAuMy8XHhLRDBYVA1/?a=7073&bti=OTU0QDItLmA%3D&ch=0&cr=0&dr=4&er=0&lr=unwatermarked&cd=0%7C0%7C0%7C0&br=312&bt=156&ds=5&ft=.cwOVInz7ThaXqvOXq8Zmo&qs=13&rc=M2l4aXQ5cmVydjUzNzhoM0BpM2l4aXQ5cmVydjUzNzhoM0AzcGZoMmRzcmpgLS1kLjZzYSMzcGZoMmRzcmpgLS1kLjZzcw%3D%3D&vvpl=1&l=02173103901357500000000000000000000ffff0a00849c804a65&btag=e00078000&format=mp3&mime_type=audio_mpeg",
        "source_timerange": {
            "start_offset": 4.5575999999999794,
            "end_offset": 6.076799999999984
        },
        "target_timerange": {
            "start_offset": 259.5576,
            "end_offset": 261.0768
        },
        "ignore_audio": true,
        "audio_path": null
    },
    {
        "segment_id": "62aaf6d69d8711ef9d0bb8cef68acef0",
        "text": "prone to it, and that there",
        "audio_url": "https://v16m-default.akamaized.net/ad9be49a13ce33daf2a37d3eaf1a4911/672de39f/video/tos/maliva/tos-maliva-v-f15faa-us/o4AAP9EEEBQnvvLfejFJtoAuMy8XHhLRDBYVA1/?a=7073&bti=OTU0QDItLmA%3D&ch=0&cr=0&dr=4&er=0&lr=unwatermarked&cd=0%7C0%7C0%7C0&br=312&bt=156&ds=5&ft=.cwOVInz7ThaXqvOXq8Zmo&qs=13&rc=M2l4aXQ5cmVydjUzNzhoM0BpM2l4aXQ5cmVydjUzNzhoM0AzcGZoMmRzcmpgLS1kLjZzYSMzcGZoMmRzcmpgLS1kLjZzcw%3D%3D&vvpl=1&l=02173103901357500000000000000000000ffff0a00849c804a65&btag=e00078000&format=mp3&mime_type=audio_mpeg",
        "source_timerange": {
            "start_offset": 6.0767999999999915,
            "end_offset": 7.5959999999999965
        },
        "target_timerange": {
            "start_offset": 261.0768,
            "end_offset": 262.596
        },
        "ignore_audio": true,
        "audio_path": null
    },
    {
        "segment_id": "62aaf7bc9d8711ef9d0bb8cef68acef0",
        "text": "are very few of us who do not",
        "audio_url": "https://v16m-default.akamaized.net/ad9be49a13ce33daf2a37d3eaf1a4911/672de39f/video/tos/maliva/tos-maliva-v-f15faa-us/o4AAP9EEEBQnvvLfejFJtoAuMy8XHhLRDBYVA1/?a=7073&bti=OTU0QDItLmA%3D&ch=0&cr=0&dr=4&er=0&lr=unwatermarked&cd=0%7C0%7C0%7C0&br=312&bt=156&ds=5&ft=.cwOVInz7ThaXqvOXq8Zmo&qs=13&rc=M2l4aXQ5cmVydjUzNzhoM0BpM2l4aXQ5cmVydjUzNzhoM0AzcGZoMmRzcmpgLS1kLjZzYSMzcGZoMmRzcmpgLS1kLjZzcw%3D%3D&vvpl=1&l=02173103901357500000000000000000000ffff0a00849c804a65&btag=e00078000&format=mp3&mime_type=audio_mpeg",
        "source_timerange": {
            "start_offset": 7.596000000000004,
            "end_offset": 9.115200000000009
        },
        "target_timerange": {
            "start_offset": 262.596,
            "end_offset": 264.1152
        },
        "ignore_audio": true,
        "audio_path": null
    },
    {
        "segment_id": "62aaf8989d8711ef9d0bb8cef68acef0",
        "text": "cherish a feeling of self-",
        "audio_url": "https://v16m-default.akamaized.net/ad9be49a13ce33daf2a37d3eaf1a4911/672de39f/video/tos/maliva/tos-maliva-v-f15faa-us/o4AAP9EEEBQnvvLfejFJtoAuMy8XHhLRDBYVA1/?a=7073&bti=OTU0QDItLmA%3D&ch=0&cr=0&dr=4&er=0&lr=unwatermarked&cd=0%7C0%7C0%7C0&br=312&bt=156&ds=5&ft=.cwOVInz7ThaXqvOXq8Zmo&qs=13&rc=M2l4aXQ5cmVydjUzNzhoM0BpM2l4aXQ5cmVydjUzNzhoM0AzcGZoMmRzcmpgLS1kLjZzYSMzcGZoMmRzcmpgLS1kLjZzcw%3D%3D&vvpl=1&l=02173103901357500000000000000000000ffff0a00849c804a65&btag=e00078000&format=mp3&mime_type=audio_mpeg",
        "source_timerange": {
            "start_offset": 9.115200000000016,
            "end_offset": 10.63440000000002
        },
        "target_timerange": {
            "start_offset": 264.1152,
            "end_offset": 265.6344
        },
        "ignore_audio": true,
        "audio_path": null
    },
    {
        "segment_id": "62aaf9749d8711ef9d0bb8cef68acef0",
        "text": "complacency on the score of",
        "audio_url": "https://v16m-default.akamaized.net/ad9be49a13ce33daf2a37d3eaf1a4911/672de39f/video/tos/maliva/tos-maliva-v-f15faa-us/o4AAP9EEEBQnvvLfejFJtoAuMy8XHhLRDBYVA1/?a=7073&bti=OTU0QDItLmA%3D&ch=0&cr=0&dr=4&er=0&lr=unwatermarked&cd=0%7C0%7C0%7C0&br=312&bt=156&ds=5&ft=.cwOVInz7ThaXqvOXq8Zmo&qs=13&rc=M2l4aXQ5cmVydjUzNzhoM0BpM2l4aXQ5cmVydjUzNzhoM0AzcGZoMmRzcmpgLS1kLjZzYSMzcGZoMmRzcmpgLS1kLjZzcw%3D%3D&vvpl=1&l=02173103901357500000000000000000000ffff0a00849c804a65&btag=e00078000&format=mp3&mime_type=audio_mpeg",
        "source_timerange": {
            "start_offset": 10.634400000000028,
            "end_offset": 12.153599999999976
        },
        "target_timerange": {
            "start_offset": 265.6344,
            "end_offset": 267.1536
        },
        "ignore_audio": true,
        "audio_path": null
    },
    {
        "segment_id": "62aafa469d8711ef9d0bb8cef68acef0",
        "text": "some quality or other, real",
        "audio_url": "https://v16m-default.akamaized.net/ad9be49a13ce33daf2a37d3eaf1a4911/672de39f/video/tos/maliva/tos-maliva-v-f15faa-us/o4AAP9EEEBQnvvLfejFJtoAuMy8XHhLRDBYVA1/?a=7073&bti=OTU0QDItLmA%3D&ch=0&cr=0&dr=4&er=0&lr=unwatermarked&cd=0%7C0%7C0%7C0&br=312&bt=156&ds=5&ft=.cwOVInz7ThaXqvOXq8Zmo&qs=13&rc=M2l4aXQ5cmVydjUzNzhoM0BpM2l4aXQ5cmVydjUzNzhoM0AzcGZoMmRzcmpgLS1kLjZzYSMzcGZoMmRzcmpgLS1kLjZzcw%3D%3D&vvpl=1&l=02173103901357500000000000000000000ffff0a00849c804a65&btag=e00078000&format=mp3&mime_type=audio_mpeg",
        "source_timerange": {
            "start_offset": 12.153599999999983,
            "end_offset": 13.672799999999988
        },
        "target_timerange": {
            "start_offset": 267.1536,
            "end_offset": 268.6728
        },
        "ignore_audio": true,
        "audio_path": null
    },
    {
        "segment_id": "62aafb689d8711ef9d0bb8cef68acef0",
        "text": "or imaginary.",
        "audio_url": "https://v16m-default.akamaized.net/ad9be49a13ce33daf2a37d3eaf1a4911/672de39f/video/tos/maliva/tos-maliva-v-f15faa-us/o4AAP9EEEBQnvvLfejFJtoAuMy8XHhLRDBYVA1/?a=7073&bti=OTU0QDItLmA%3D&ch=0&cr=0&dr=4&er=0&lr=unwatermarked&cd=0%7C0%7C0%7C0&br=312&bt=156&ds=5&ft=.cwOVInz7ThaXqvOXq8Zmo&qs=13&rc=M2l4aXQ5cmVydjUzNzhoM0BpM2l4aXQ5cmVydjUzNzhoM0AzcGZoMmRzcmpgLS1kLjZzYSMzcGZoMmRzcmpgLS1kLjZzcw%3D%3D&vvpl=1&l=02173103901357500000000000000000000ffff0a00849c804a65&btag=e00078000&format=mp3&mime_type=audio_mpeg",
        "source_timerange": {
            "start_offset": 13.672799999999995,
            "end_offset": 15.192
        },
        "target_timerange": {
            "start_offset": 268.6728,
            "end_offset": 270.192
        },
        "ignore_audio": true,
        "audio_path": null
    },
    {
        "segment_id": "62ab0c8e9d8711ef9d0bb8cef68acef0",
        "text": "Vanity and pride are different",
        "audio_url": "https://v16m-default.akamaized.net/dac1036a42e583c8e42bb48f7107d1a2/672de394/video/tos/maliva/tos-maliva-v-f15faa-us/o8bwAtMAAIcAWBYyTk8EWxfrle8eHjFfuQFi8I/?a=7073&bti=OTU0QDItLmA%3D&ch=0&cr=0&dr=4&er=0&lr=unwatermarked&cd=0%7C0%7C0%7C0&br=312&bt=156&ds=5&ft=.cwOVInz7ThaXqvOXq8Zmo&qs=13&rc=anh4OnE5cmVydjUzNzhoM0Bpanh4OnE5cmVydjUzNzhoM0A1bC5qMmRzcmpgLS1kLjZzYSM1bC5qMmRzcmpgLS1kLjZzcw%3D%3D&vvpl=1&l=02173103901357500000000000000000000ffff0a00849c804a65&btag=e00070000&format=mp3&mime_type=audio_mpeg",
        "source_timerange": {
            "start_offset": 0,
            "end_offset": 1.6639999999999686
        },
        "target_timerange": {
            "start_offset": 270.192,
            "end_offset": 271.856
        },
        "ignore_audio": false,
        "audio_path": null
    },
    {
        "segment_id": "62ab0f2c9d8711ef9d0bb8cef68acef0",
        "text": "things, though the words are",
        "audio_url": "https://v16m-default.akamaized.net/dac1036a42e583c8e42bb48f7107d1a2/672de394/video/tos/maliva/tos-maliva-v-f15faa-us/o8bwAtMAAIcAWBYyTk8EWxfrle8eHjFfuQFi8I/?a=7073&bti=OTU0QDItLmA%3D&ch=0&cr=0&dr=4&er=0&lr=unwatermarked&cd=0%7C0%7C0%7C0&br=312&bt=156&ds=5&ft=.cwOVInz7ThaXqvOXq8Zmo&qs=13&rc=anh4OnE5cmVydjUzNzhoM0Bpanh4OnE5cmVydjUzNzhoM0A1bC5qMmRzcmpgLS1kLjZzYSM1bC5qMmRzcmpgLS1kLjZzcw%3D%3D&vvpl=1&l=02173103901357500000000000000000000ffff0a00849c804a65&btag=e00070000&format=mp3&mime_type=audio_mpeg",
        "source_timerange": {
            "start_offset": 1.6639999999999873,
            "end_offset": 3.3280000000000127
        },
        "target_timerange": {
            "start_offset": 271.856,
            "end_offset": 273.52000000000004
        },
        "ignore_audio": true,
        "audio_path": null
    },
    {
        "segment_id": "62ab106c9d8711ef9d0bb8cef68acef0",
        "text": "often used synonymously.",
        "audio_url": "https://v16m-default.akamaized.net/dac1036a42e583c8e42bb48f7107d1a2/672de394/video/tos/maliva/tos-maliva-v-f15faa-us/o8bwAtMAAIcAWBYyTk8EWxfrle8eHjFfuQFi8I/?a=7073&bti=OTU0QDItLmA%3D&ch=0&cr=0&dr=4&er=0&lr=unwatermarked&cd=0%7C0%7C0%7C0&br=312&bt=156&ds=5&ft=.cwOVInz7ThaXqvOXq8Zmo&qs=13&rc=anh4OnE5cmVydjUzNzhoM0Bpanh4OnE5cmVydjUzNzhoM0A1bC5qMmRzcmpgLS1kLjZzYSM1bC5qMmRzcmpgLS1kLjZzcw%3D%3D&vvpl=1&l=02173103901357500000000000000000000ffff0a00849c804a65&btag=e00070000&format=mp3&mime_type=audio_mpeg",
        "source_timerange": {
            "start_offset": 3.3280000000000314,
            "end_offset": 4.992
        },
        "target_timerange": {
            "start_offset": 273.52000000000004,
            "end_offset": 275.184
        },
        "ignore_audio": true,
        "audio_path": null
    },
    {
        "segment_id": "62ab1f949d8711ef9d0bb8cef68acef0",
        "text": "A person may be proud",
        "audio_url": "https://v16m-default.akamaized.net/4258234a1ddd7bb914104397bcb1c186/672de392/video/tos/maliva/tos-maliva-v-f15faa-us/oIfsjYXJLBBiEZAEAEGA1AL8gKeQyn5uBhVtiA/?a=7073&bti=OTU0QDItLmA%3D&ch=0&cr=0&dr=4&er=0&lr=unwatermarked&cd=0%7C0%7C0%7C0&br=312&bt=156&ds=5&ft=.cwOVInz7ThaXqvOXq8Zmo&qs=13&rc=MzNqZW85cmVydjUzNzhoM0BpMzNqZW85cmVydjUzNzhoM0AtYWQyMmRzcmpgLS1kLjZzYSMtYWQyMmRzcmpgLS1kLjZzcw%3D%3D&vvpl=1&l=02173103901357500000000000000000000ffff0a00849c804a65&btag=e00070000&format=mp3&mime_type=audio_mpeg",
        "source_timerange": {
            "start_offset": 0,
            "end_offset": 1.2600000000000091
        },
        "target_timerange": {
            "start_offset": 275.184,
            "end_offset": 276.444
        },
        "ignore_audio": false,
        "audio_path": null
    },
    {
        "segment_id": "62ab20e89d8711ef9d0bb8cef68acef0",
        "text": "without being vain.",
        "audio_url": "https://v16m-default.akamaized.net/4258234a1ddd7bb914104397bcb1c186/672de392/video/tos/maliva/tos-maliva-v-f15faa-us/oIfsjYXJLBBiEZAEAEGA1AL8gKeQyn5uBhVtiA/?a=7073&bti=OTU0QDItLmA%3D&ch=0&cr=0&dr=4&er=0&lr=unwatermarked&cd=0%7C0%7C0%7C0&br=312&bt=156&ds=5&ft=.cwOVInz7ThaXqvOXq8Zmo&qs=13&rc=MzNqZW85cmVydjUzNzhoM0BpMzNqZW85cmVydjUzNzhoM0AtYWQyMmRzcmpgLS1kLjZzYSMtYWQyMmRzcmpgLS1kLjZzcw%3D%3D&vvpl=1&l=02173103901357500000000000000000000ffff0a00849c804a65&btag=e00070000&format=mp3&mime_type=audio_mpeg",
        "source_timerange": {
            "start_offset": 1.259999999999991,
            "end_offset": 2.52
        },
        "target_timerange": {
            "start_offset": 276.444,
            "end_offset": 277.704
        },
        "ignore_audio": true,
        "audio_path": null
    },
    {
        "segment_id": "62ab395c9d8711ef9d0bb8cef68acef0",
        "text": "Pride relates more to our",
        "audio_url": "https://v16m-default.akamaized.net/3b6140a624120aabb5830b7899f849d0/672de395/video/tos/maliva/tos-maliva-v-f15faa-us/oMi2fLBLojAByiVlnAmXeAJhQE6tBj8EAA8Yih/?a=7073&bti=OTU0QDItLmA%3D&ch=0&cr=0&dr=4&er=0&lr=unwatermarked&cd=0%7C0%7C0%7C0&br=312&bt=156&ds=5&ft=.cwOVInz7ThaXqvOXq8Zmo&qs=13&rc=MzlwO3Y5cmVydjUzNzhoM0BpMzlwO3Y5cmVydjUzNzhoM0BoMHAtMmRzcmpgLS1kLjZzYSNoMHAtMmRzcmpgLS1kLjZzcw%3D%3D&vvpl=1&l=02173103901357500000000000000000000ffff0a00849c804a65&btag=e00070000&format=mp3&mime_type=audio_mpeg",
        "source_timerange": {
            "start_offset": 0,
            "end_offset": 1.3560000000000167
        },
        "target_timerange": {
            "start_offset": 277.704,
            "end_offset": 279.06
        },
        "ignore_audio": false,
        "audio_path": null
    },
    {
        "segment_id": "62ab3aec9d8711ef9d0bb8cef68acef0",
        "text": "opinion of ourselves;",
        "audio_url": "https://v16m-default.akamaized.net/3b6140a624120aabb5830b7899f849d0/672de395/video/tos/maliva/tos-maliva-v-f15faa-us/oMi2fLBLojAByiVlnAmXeAJhQE6tBj8EAA8Yih/?a=7073&bti=OTU0QDItLmA%3D&ch=0&cr=0&dr=4&er=0&lr=unwatermarked&cd=0%7C0%7C0%7C0&br=312&bt=156&ds=5&ft=.cwOVInz7ThaXqvOXq8Zmo&qs=13&rc=MzlwO3Y5cmVydjUzNzhoM0BpMzlwO3Y5cmVydjUzNzhoM0BoMHAtMmRzcmpgLS1kLjZzYSNoMHAtMmRzcmpgLS1kLjZzcw%3D%3D&vvpl=1&l=02173103901357500000000000000000000ffff0a00849c804a65&btag=e00070000&format=mp3&mime_type=audio_mpeg",
        "source_timerange": {
            "start_offset": 1.3559999999999945,
            "end_offset": 2.7120000000000113
        },
        "target_timerange": {
            "start_offset": 279.06,
            "end_offset": 280.416
        },
        "ignore_audio": true,
        "audio_path": null
    },
    {
        "segment_id": "62ab3c4a9d8711ef9d0bb8cef68acef0",
        "text": "vanity to what we would",
        "audio_url": "https://v16m-default.akamaized.net/3b6140a624120aabb5830b7899f849d0/672de395/video/tos/maliva/tos-maliva-v-f15faa-us/oMi2fLBLojAByiVlnAmXeAJhQE6tBj8EAA8Yih/?a=7073&bti=OTU0QDItLmA%3D&ch=0&cr=0&dr=4&er=0&lr=unwatermarked&cd=0%7C0%7C0%7C0&br=312&bt=156&ds=5&ft=.cwOVInz7ThaXqvOXq8Zmo&qs=13&rc=MzlwO3Y5cmVydjUzNzhoM0BpMzlwO3Y5cmVydjUzNzhoM0BoMHAtMmRzcmpgLS1kLjZzYSNoMHAtMmRzcmpgLS1kLjZzcw%3D%3D&vvpl=1&l=02173103901357500000000000000000000ffff0a00849c804a65&btag=e00070000&format=mp3&mime_type=audio_mpeg",
        "source_timerange": {
            "start_offset": 2.711999999999989,
            "end_offset": 4.068000000000006
        },
        "target_timerange": {
            "start_offset": 280.416,
            "end_offset": 281.772
        },
        "ignore_audio": true,
        "audio_path": null
    },
    {
        "segment_id": "62ab3d8a9d8711ef9d0bb8cef68acef0",
        "text": "have others think of us.”",
        "audio_url": "https://v16m-default.akamaized.net/3b6140a624120aabb5830b7899f849d0/672de395/video/tos/maliva/tos-maliva-v-f15faa-us/oMi2fLBLojAByiVlnAmXeAJhQE6tBj8EAA8Yih/?a=7073&bti=OTU0QDItLmA%3D&ch=0&cr=0&dr=4&er=0&lr=unwatermarked&cd=0%7C0%7C0%7C0&br=312&bt=156&ds=5&ft=.cwOVInz7ThaXqvOXq8Zmo&qs=13&rc=MzlwO3Y5cmVydjUzNzhoM0BpMzlwO3Y5cmVydjUzNzhoM0BoMHAtMmRzcmpgLS1kLjZzYSNoMHAtMmRzcmpgLS1kLjZzcw%3D%3D&vvpl=1&l=02173103901357500000000000000000000ffff0a00849c804a65&btag=e00070000&format=mp3&mime_type=audio_mpeg",
        "source_timerange": {
            "start_offset": 4.067999999999984,
            "end_offset": 5.424
        },
        "target_timerange": {
            "start_offset": 281.772,
            "end_offset": 283.128
        },
        "ignore_audio": true,
        "audio_path": null
    },
    {
        "segment_id": "62ab5a7c9d8711ef9d0bb8cef68acef0",
        "text": "“If I were as rich as Mr.",
        "audio_url": "https://v16m-default.akamaized.net/62ad84c13dd0526a236aab5e6fd012f7/672de397/video/tos/maliva/tos-maliva-v-f15faa-us/o4viEfZLQ8iVLEAynAEA49FHh0BtJYfjBgAzDA/?a=7073&bti=OTU0QDItLmA%3D&ch=0&cr=0&dr=4&er=0&lr=unwatermarked&cd=0%7C0%7C0%7C0&br=312&bt=156&ds=5&ft=.cwOVInz7ThaXqvOXq8Zmo&qs=13&rc=ajM2eGs5cmVydjUzNzhoM0BpajM2eGs5cmVydjUzNzhoM0BtNi1jMmRzcmpgLS1kLjZzYSNtNi1jMmRzcmpgLS1kLjZzcw%3D%3D&vvpl=1&l=02173103901357500000000000000000000ffff0a00849c804a65&btag=e00070000&format=mp3&mime_type=audio_mpeg",
        "source_timerange": {
            "start_offset": 0,
            "end_offset": 1.5215999999999745
        },
        "target_timerange": {
            "start_offset": 283.128,
            "end_offset": 284.64959999999996
        },
        "ignore_audio": false,
        "audio_path": null
    },
    {
        "segment_id": "62ab5d429d8711ef9d0bb8cef68acef0",
        "text": "Darcy,” cried a young",
        "audio_url": "https://v16m-default.akamaized.net/62ad84c13dd0526a236aab5e6fd012f7/672de397/video/tos/maliva/tos-maliva-v-f15faa-us/o4viEfZLQ8iVLEAynAEA49FHh0BtJYfjBgAzDA/?a=7073&bti=OTU0QDItLmA%3D&ch=0&cr=0&dr=4&er=0&lr=unwatermarked&cd=0%7C0%7C0%7C0&br=312&bt=156&ds=5&ft=.cwOVInz7ThaXqvOXq8Zmo&qs=13&rc=ajM2eGs5cmVydjUzNzhoM0BpajM2eGs5cmVydjUzNzhoM0BtNi1jMmRzcmpgLS1kLjZzYSNtNi1jMmRzcmpgLS1kLjZzcw%3D%3D&vvpl=1&l=02173103901357500000000000000000000ffff0a00849c804a65&btag=e00070000&format=mp3&mime_type=audio_mpeg",
        "source_timerange": {
            "start_offset": 1.521599999999978,
            "end_offset": 3.0432000000000095
        },
        "target_timerange": {
            "start_offset": 284.64959999999996,
            "end_offset": 286.1712
        },
        "ignore_audio": true,
        "audio_path": null
    },
    {
        "segment_id": "62ab5e969d8711ef9d0bb8cef68acef0",
        "text": "Lucas, who came with his",
        "audio_url": "https://v16m-default.akamaized.net/62ad84c13dd0526a236aab5e6fd012f7/672de397/video/tos/maliva/tos-maliva-v-f15faa-us/o4viEfZLQ8iVLEAynAEA49FHh0BtJYfjBgAzDA/?a=7073&bti=OTU0QDItLmA%3D&ch=0&cr=0&dr=4&er=0&lr=unwatermarked&cd=0%7C0%7C0%7C0&br=312&bt=156&ds=5&ft=.cwOVInz7ThaXqvOXq8Zmo&qs=13&rc=ajM2eGs5cmVydjUzNzhoM0BpajM2eGs5cmVydjUzNzhoM0BtNi1jMmRzcmpgLS1kLjZzYSNtNi1jMmRzcmpgLS1kLjZzcw%3D%3D&vvpl=1&l=02173103901357500000000000000000000ffff0a00849c804a65&btag=e00070000&format=mp3&mime_type=audio_mpeg",
        "source_timerange": {
            "start_offset": 3.043200000000013,
            "end_offset": 4.5647999999999875
        },
        "target_timerange": {
            "start_offset": 286.1712,
            "end_offset": 287.6928
        },
        "ignore_audio": true,
        "audio_path": null
    },
    {
        "segment_id": "62ab5fd69d8711ef9d0bb8cef68acef0",
        "text": "sisters, “I should not",
        "audio_url": "https://v16m-default.akamaized.net/62ad84c13dd0526a236aab5e6fd012f7/672de397/video/tos/maliva/tos-maliva-v-f15faa-us/o4viEfZLQ8iVLEAynAEA49FHh0BtJYfjBgAzDA/?a=7073&bti=OTU0QDItLmA%3D&ch=0&cr=0&dr=4&er=0&lr=unwatermarked&cd=0%7C0%7C0%7C0&br=312&bt=156&ds=5&ft=.cwOVInz7ThaXqvOXq8Zmo&qs=13&rc=ajM2eGs5cmVydjUzNzhoM0BpajM2eGs5cmVydjUzNzhoM0BtNi1jMmRzcmpgLS1kLjZzYSNtNi1jMmRzcmpgLS1kLjZzcw%3D%3D&vvpl=1&l=02173103901357500000000000000000000ffff0a00849c804a65&btag=e00070000&format=mp3&mime_type=audio_mpeg",
        "source_timerange": {
            "start_offset": 4.564799999999991,
            "end_offset": 6.0864000000000225
        },
        "target_timerange": {
            "start_offset": 287.6928,
            "end_offset": 289.2144
        },
        "ignore_audio": true,
        "audio_path": null
    },
    {
        "segment_id": "62ab61029d8711ef9d0bb8cef68acef0",
        "text": "care how proud I was.",
        "audio_url": "https://v16m-default.akamaized.net/62ad84c13dd0526a236aab5e6fd012f7/672de397/video/tos/maliva/tos-maliva-v-f15faa-us/o4viEfZLQ8iVLEAynAEA49FHh0BtJYfjBgAzDA/?a=7073&bti=OTU0QDItLmA%3D&ch=0&cr=0&dr=4&er=0&lr=unwatermarked&cd=0%7C0%7C0%7C0&br=312&bt=156&ds=5&ft=.cwOVInz7ThaXqvOXq8Zmo&qs=13&rc=ajM2eGs5cmVydjUzNzhoM0BpajM2eGs5cmVydjUzNzhoM0BtNi1jMmRzcmpgLS1kLjZzYSNtNi1jMmRzcmpgLS1kLjZzcw%3D%3D&vvpl=1&l=02173103901357500000000000000000000ffff0a00849c804a65&btag=e00070000&format=mp3&mime_type=audio_mpeg",
        "source_timerange": {
            "start_offset": 6.086400000000026,
            "end_offset": 7.6080000000000005
        },
        "target_timerange": {
            "start_offset": 289.2144,
            "end_offset": 290.736
        },
        "ignore_audio": true,
        "audio_path": null
    },
    {
        "segment_id": "62ab6ed69d8711ef9d0bb8cef68acef0",
        "text": "I would keep a pack of foxhounds, and",
        "audio_url": "https://v16m-default.akamaized.net/b164febbe908987cb9716589d54fce95/672de393/video/tos/maliva/tos-maliva-v-f15faa-us/oQJBLE4LAY3BLYzQAAAVyXfehDBitjinQEXEE8/?a=7073&bti=OTU0QDItLmA%3D&ch=0&cr=0&dr=4&er=0&lr=unwatermarked&cd=0%7C0%7C0%7C0&br=312&bt=156&ds=5&ft=.cwOVInz7ThaXqvOXq8Zmo&qs=13&rc=ajZ2aG05cmVydjUzNzhoM0BpajZ2aG05cmVydjUzNzhoM0BfNTNgMmRzcmpgLS1kLjZzYSNfNTNgMmRzcmpgLS1kLjZzcw%3D%3D&vvpl=1&l=02173103901357500000000000000000000ffff0a00849c804a65&btag=e00070000&format=mp3&mime_type=audio_mpeg",
        "source_timerange": {
            "start_offset": 0,
            "end_offset": 1.8599999999999866
        },
        "target_timerange": {
            "start_offset": 290.736,
            "end_offset": 292.596
        },
        "ignore_audio": false,
        "audio_path": null
    },
    {
        "segment_id": "62ab70349d8711ef9d0bb8cef68acef0",
        "text": "drink a bottle of wine every day.”",
        "audio_url": "https://v16m-default.akamaized.net/b164febbe908987cb9716589d54fce95/672de393/video/tos/maliva/tos-maliva-v-f15faa-us/oQJBLE4LAY3BLYzQAAAVyXfehDBitjinQEXEE8/?a=7073&bti=OTU0QDItLmA%3D&ch=0&cr=0&dr=4&er=0&lr=unwatermarked&cd=0%7C0%7C0%7C0&br=312&bt=156&ds=5&ft=.cwOVInz7ThaXqvOXq8Zmo&qs=13&rc=ajZ2aG05cmVydjUzNzhoM0BpajZ2aG05cmVydjUzNzhoM0BfNTNgMmRzcmpgLS1kLjZzYSNfNTNgMmRzcmpgLS1kLjZzcw%3D%3D&vvpl=1&l=02173103901357500000000000000000000ffff0a00849c804a65&btag=e00070000&format=mp3&mime_type=audio_mpeg",
        "source_timerange": {
            "start_offset": 1.8600000000000136,
            "end_offset": 3.72
        },
        "target_timerange": {
            "start_offset": 292.596,
            "end_offset": 294.456
        },
        "ignore_audio": true,
        "audio_path": null
    },
    {
        "segment_id": "62abd5b09d8711ef9d0bb8cef68acef0",
        "text": "“Then you would drink a",
        "audio_url": "https://v16m-default.akamaized.net/861b1d3a5df3e5d625cf1fd20ccc9977/672de398/video/tos/maliva/tos-maliva-v-f15faa-us/owfKIbftAyeWuIKlcAIBU5LZFzFbkjeHEwAWGA/?a=7073&bti=OTU0QDItLmA%3D&ch=0&cr=0&dr=4&er=0&lr=unwatermarked&cd=0%7C0%7C0%7C0&br=312&bt=156&ds=5&ft=.cwOVInz7ThaXqvOXq8Zmo&qs=13&rc=anJvdHk5cmVydjUzNzhoM0BpanJvdHk5cmVydjUzNzhoM0AyZ2QzMmRzcmpgLS1kLjZzYSMyZ2QzMmRzcmpgLS1kLjZzcw%3D%3D&vvpl=1&l=02173103901357500000000000000000000ffff0a00849c804a65&btag=e00070000&format=mp3&mime_type=audio_mpeg",
        "source_timerange": {
            "start_offset": 0,
            "end_offset": 1.4080000000000368
        },
        "target_timerange": {
            "start_offset": 294.456,
            "end_offset": 295.86400000000003
        },
        "ignore_audio": false,
        "audio_path": null
    },
    {
        "segment_id": "62abd7189d8711ef9d0bb8cef68acef0",
        "text": "great deal more than you",
        "audio_url": "https://v16m-default.akamaized.net/861b1d3a5df3e5d625cf1fd20ccc9977/672de398/video/tos/maliva/tos-maliva-v-f15faa-us/owfKIbftAyeWuIKlcAIBU5LZFzFbkjeHEwAWGA/?a=7073&bti=OTU0QDItLmA%3D&ch=0&cr=0&dr=4&er=0&lr=unwatermarked&cd=0%7C0%7C0%7C0&br=312&bt=156&ds=5&ft=.cwOVInz7ThaXqvOXq8Zmo&qs=13&rc=anJvdHk5cmVydjUzNzhoM0BpanJvdHk5cmVydjUzNzhoM0AyZ2QzMmRzcmpgLS1kLjZzYSMyZ2QzMmRzcmpgLS1kLjZzcw%3D%3D&vvpl=1&l=02173103901357500000000000000000000ffff0a00849c804a65&btag=e00070000&format=mp3&mime_type=audio_mpeg",
        "source_timerange": {
            "start_offset": 1.4080000000000155,
            "end_offset": 2.8159999999999954
        },
        "target_timerange": {
            "start_offset": 295.86400000000003,
            "end_offset": 297.272
        },
        "ignore_audio": true,
        "audio_path": null
    },
    {
        "segment_id": "62abd7fe9d8711ef9d0bb8cef68acef0",
        "text": "ought,” said Mrs. Bennet;",
        "audio_url": "https://v16m-default.akamaized.net/861b1d3a5df3e5d625cf1fd20ccc9977/672de398/video/tos/maliva/tos-maliva-v-f15faa-us/owfKIbftAyeWuIKlcAIBU5LZFzFbkjeHEwAWGA/?a=7073&bti=OTU0QDItLmA%3D&ch=0&cr=0&dr=4&er=0&lr=unwatermarked&cd=0%7C0%7C0%7C0&br=312&bt=156&ds=5&ft=.cwOVInz7ThaXqvOXq8Zmo&qs=13&rc=anJvdHk5cmVydjUzNzhoM0BpanJvdHk5cmVydjUzNzhoM0AyZ2QzMmRzcmpgLS1kLjZzYSMyZ2QzMmRzcmpgLS1kLjZzcw%3D%3D&vvpl=1&l=02173103901357500000000000000000000ffff0a00849c804a65&btag=e00070000&format=mp3&mime_type=audio_mpeg",
        "source_timerange": {
            "start_offset": 2.815999999999974,
            "end_offset": 4.224000000000011
        },
        "target_timerange": {
            "start_offset": 297.272,
            "end_offset": 298.68
        },
        "ignore_audio": true,
        "audio_path": null
    },
    {
        "segment_id": "62abd8e49d8711ef9d0bb8cef68acef0",
        "text": "“and if I were to see you at",
        "audio_url": "https://v16m-default.akamaized.net/861b1d3a5df3e5d625cf1fd20ccc9977/672de398/video/tos/maliva/tos-maliva-v-f15faa-us/owfKIbftAyeWuIKlcAIBU5LZFzFbkjeHEwAWGA/?a=7073&bti=OTU0QDItLmA%3D&ch=0&cr=0&dr=4&er=0&lr=unwatermarked&cd=0%7C0%7C0%7C0&br=312&bt=156&ds=5&ft=.cwOVInz7ThaXqvOXq8Zmo&qs=13&rc=anJvdHk5cmVydjUzNzhoM0BpanJvdHk5cmVydjUzNzhoM0AyZ2QzMmRzcmpgLS1kLjZzYSMyZ2QzMmRzcmpgLS1kLjZzcw%3D%3D&vvpl=1&l=02173103901357500000000000000000000ffff0a00849c804a65&btag=e00070000&format=mp3&mime_type=audio_mpeg",
        "source_timerange": {
            "start_offset": 4.2239999999999895,
            "end_offset": 5.632000000000026
        },
        "target_timerange": {
            "start_offset": 298.68,
            "end_offset": 300.088
        },
        "ignore_audio": true,
        "audio_path": null
    },
    {
        "segment_id": "62abd9d49d8711ef9d0bb8cef68acef0",
        "text": "it, I should take away your",
        "audio_url": "https://v16m-default.akamaized.net/861b1d3a5df3e5d625cf1fd20ccc9977/672de398/video/tos/maliva/tos-maliva-v-f15faa-us/owfKIbftAyeWuIKlcAIBU5LZFzFbkjeHEwAWGA/?a=7073&bti=OTU0QDItLmA%3D&ch=0&cr=0&dr=4&er=0&lr=unwatermarked&cd=0%7C0%7C0%7C0&br=312&bt=156&ds=5&ft=.cwOVInz7ThaXqvOXq8Zmo&qs=13&rc=anJvdHk5cmVydjUzNzhoM0BpanJvdHk5cmVydjUzNzhoM0AyZ2QzMmRzcmpgLS1kLjZzYSMyZ2QzMmRzcmpgLS1kLjZzcw%3D%3D&vvpl=1&l=02173103901357500000000000000000000ffff0a00849c804a65&btag=e00070000&format=mp3&mime_type=audio_mpeg",
        "source_timerange": {
            "start_offset": 5.632000000000005,
            "end_offset": 7.039999999999985
        },
        "target_timerange": {
            "start_offset": 300.088,
            "end_offset": 301.496
        },
        "ignore_audio": true,
        "audio_path": null
    },
    {
        "segment_id": "62abdb1e9d8711ef9d0bb8cef68acef0",
        "text": "bottle directly.”",
        "audio_url": "https://v16m-default.akamaized.net/861b1d3a5df3e5d625cf1fd20ccc9977/672de398/video/tos/maliva/tos-maliva-v-f15faa-us/owfKIbftAyeWuIKlcAIBU5LZFzFbkjeHEwAWGA/?a=7073&bti=OTU0QDItLmA%3D&ch=0&cr=0&dr=4&er=0&lr=unwatermarked&cd=0%7C0%7C0%7C0&br=312&bt=156&ds=5&ft=.cwOVInz7ThaXqvOXq8Zmo&qs=13&rc=anJvdHk5cmVydjUzNzhoM0BpanJvdHk5cmVydjUzNzhoM0AyZ2QzMmRzcmpgLS1kLjZzYSMyZ2QzMmRzcmpgLS1kLjZzcw%3D%3D&vvpl=1&l=02173103901357500000000000000000000ffff0a00849c804a65&btag=e00070000&format=mp3&mime_type=audio_mpeg",
        "source_timerange": {
            "start_offset": 7.039999999999964,
            "end_offset": 8.448
        },
        "target_timerange": {
            "start_offset": 301.496,
            "end_offset": 302.904
        },
        "ignore_audio": true,
        "audio_path": null
    },
    {
        "segment_id": "62abf0cc9d8711ef9d0bb8cef68acef0",
        "text": "The boy protested that she",
        "audio_url": "https://v16m-default.akamaized.net/7615537b20d221145310e32b1a3dd496/672de397/video/tos/maliva/tos-maliva-v-f15faa-us/ocVBeiB8AOXfA5LYynXsLxJtWAEhEAmxBYj1iQ/?a=7073&bti=OTU0QDItLmA%3D&ch=0&cr=0&dr=4&er=0&lr=unwatermarked&cd=0%7C0%7C0%7C0&br=312&bt=156&ds=5&ft=.cwOVInz7ThaXqvOXq8Zmo&qs=13&rc=am85NnM5cmVydjUzNzhoM0Bpam85NnM5cmVydjUzNzhoM0BsYWpgMmRzcmpgLS1kLjZzYSNsYWpgMmRzcmpgLS1kLjZzcw%3D%3D&vvpl=1&l=02173103901357500000000000000000000ffff0a00849c804a65&btag=e00070000&format=mp3&mime_type=audio_mpeg",
        "source_timerange": {
            "start_offset": 0,
            "end_offset": 1.406400000000037
        },
        "target_timerange": {
            "start_offset": 302.904,
            "end_offset": 304.3104
        },
        "ignore_audio": false,
        "audio_path": null
    },
    {
        "segment_id": "62abf1f89d8711ef9d0bb8cef68acef0",
        "text": "should not; she continued",
        "audio_url": "https://v16m-default.akamaized.net/7615537b20d221145310e32b1a3dd496/672de397/video/tos/maliva/tos-maliva-v-f15faa-us/ocVBeiB8AOXfA5LYynXsLxJtWAEhEAmxBYj1iQ/?a=7073&bti=OTU0QDItLmA%3D&ch=0&cr=0&dr=4&er=0&lr=unwatermarked&cd=0%7C0%7C0%7C0&br=312&bt=156&ds=5&ft=.cwOVInz7ThaXqvOXq8Zmo&qs=13&rc=am85NnM5cmVydjUzNzhoM0Bpam85NnM5cmVydjUzNzhoM0BsYWpgMmRzcmpgLS1kLjZzYSNsYWpgMmRzcmpgLS1kLjZzcw%3D%3D&vvpl=1&l=02173103901357500000000000000000000ffff0a00849c804a65&btag=e00070000&format=mp3&mime_type=audio_mpeg",
        "source_timerange": {
            "start_offset": 1.4064000000000192,
            "end_offset": 2.8127999999999993
        },
        "target_timerange": {
            "start_offset": 304.3104,
            "end_offset": 305.7168
        },
        "ignore_audio": true,
        "audio_path": null
    },
    {
        "segment_id": "62abf2f29d8711ef9d0bb8cef68acef0",
        "text": "to declare that she would;",
        "audio_url": "https://v16m-default.akamaized.net/7615537b20d221145310e32b1a3dd496/672de397/video/tos/maliva/tos-maliva-v-f15faa-us/ocVBeiB8AOXfA5LYynXsLxJtWAEhEAmxBYj1iQ/?a=7073&bti=OTU0QDItLmA%3D&ch=0&cr=0&dr=4&er=0&lr=unwatermarked&cd=0%7C0%7C0%7C0&br=312&bt=156&ds=5&ft=.cwOVInz7ThaXqvOXq8Zmo&qs=13&rc=am85NnM5cmVydjUzNzhoM0Bpam85NnM5cmVydjUzNzhoM0BsYWpgMmRzcmpgLS1kLjZzYSNsYWpgMmRzcmpgLS1kLjZzcw%3D%3D&vvpl=1&l=02173103901357500000000000000000000ffff0a00849c804a65&btag=e00070000&format=mp3&mime_type=audio_mpeg",
        "source_timerange": {
            "start_offset": 2.8127999999999815,
            "end_offset": 4.2192000000000185
        },
        "target_timerange": {
            "start_offset": 305.7168,
            "end_offset": 307.1232
        },
        "ignore_audio": true,
        "audio_path": null
    },
    {
        "segment_id": "62abf4289d8711ef9d0bb8cef68acef0",
        "text": "and the argument ended only",
        "audio_url": "https://v16m-default.akamaized.net/7615537b20d221145310e32b1a3dd496/672de397/video/tos/maliva/tos-maliva-v-f15faa-us/ocVBeiB8AOXfA5LYynXsLxJtWAEhEAmxBYj1iQ/?a=7073&bti=OTU0QDItLmA%3D&ch=0&cr=0&dr=4&er=0&lr=unwatermarked&cd=0%7C0%7C0%7C0&br=312&bt=156&ds=5&ft=.cwOVInz7ThaXqvOXq8Zmo&qs=13&rc=am85NnM5cmVydjUzNzhoM0Bpam85NnM5cmVydjUzNzhoM0BsYWpgMmRzcmpgLS1kLjZzYSNsYWpgMmRzcmpgLS1kLjZzcw%3D%3D&vvpl=1&l=02173103901357500000000000000000000ffff0a00849c804a65&btag=e00070000&format=mp3&mime_type=audio_mpeg",
        "source_timerange": {
            "start_offset": 4.219200000000001,
            "end_offset": 5.625599999999981
        },
        "target_timerange": {
            "start_offset": 307.1232,
            "end_offset": 308.52959999999996
        },
        "ignore_audio": true,
        "audio_path": null
    },
    {
        "segment_id": "62abf5869d8711ef9d0bb8cef68acef0",
        "text": "with the visit.",
        "audio_url": "https://v16m-default.akamaized.net/7615537b20d221145310e32b1a3dd496/672de397/video/tos/maliva/tos-maliva-v-f15faa-us/ocVBeiB8AOXfA5LYynXsLxJtWAEhEAmxBYj1iQ/?a=7073&bti=OTU0QDItLmA%3D&ch=0&cr=0&dr=4&er=0&lr=unwatermarked&cd=0%7C0%7C0%7C0&br=312&bt=156&ds=5&ft=.cwOVInz7ThaXqvOXq8Zmo&qs=13&rc=am85NnM5cmVydjUzNzhoM0Bpam85NnM5cmVydjUzNzhoM0BsYWpgMmRzcmpgLS1kLjZzYSNsYWpgMmRzcmpgLS1kLjZzcw%3D%3D&vvpl=1&l=02173103901357500000000000000000000ffff0a00849c804a65&btag=e00070000&format=mp3&mime_type=audio_mpeg",
        "source_timerange": {
            "start_offset": 5.625599999999963,
            "end_offset": 7.032
        },
        "target_timerange": {
            "start_offset": 308.52959999999996,
            "end_offset": 309.936
        },
        "ignore_audio": true,
        "audio_path": null
    },
    {
        "segment_id": "62abfca29d8711ef9d0bb8cef68acef0",
        "text": "[Illustration]",
        "audio_url": "https://v16m-default.akamaized.net/51b4c77341433176dfcbb34a2b50cee9/672de391/video/tos/maliva/tos-maliva-v-f15faa-us/oQBIhAFqEFLreLAQIVEDJvA3YWHA85nbUBnfBl/?a=7073&bti=OTU0QDItLmA%3D&ch=0&cr=0&dr=4&er=0&lr=unwatermarked&cd=0%7C0%7C0%7C0&br=312&bt=156&ds=5&ft=.cwOVInz7ThaXqvOXq8Zmo&qs=13&rc=amU0dnY5cmVydjUzNzhoM0BpamU0dnY5cmVydjUzNzhoM0Bea3BuMmRzcmpgLS1kLjZzYSNea3BuMmRzcmpgLS1kLjZzcw%3D%3D&vvpl=1&l=02173103901357500000000000000000000ffff0a00849c804a65&btag=e00070000&format=mp3&mime_type=audio_mpeg",
        "source_timerange": {
            "start_offset": 0,
            "end_offset": 1.056
        },
        "target_timerange": {
            "start_offset": 309.936,
            "end_offset": 310.992
        },
        "ignore_audio": false,
        "audio_path": null
    },
    {
        "segment_id": "62ac03dc9d8711ef9d0bb8cef68acef0",
        "text": "[Illustration]",
        "audio_url": "https://v16m-default.akamaized.net/fcb92bb9322a982dbe5b0fc11f373d66/672de391/video/tos/maliva/tos-maliva-v-f15faa-us/okjL2uhejkAeCQQcCtW8FEAx6PEAyAQaWAMeFf/?a=7073&bti=OTU0QDItLmA%3D&ch=0&cr=0&dr=4&er=0&lr=unwatermarked&cd=0%7C0%7C0%7C0&br=312&bt=156&ds=5&ft=.cwOVInz7ThaXqvOXq8Zmo&qs=13&rc=M3g1ZHE5cmVydjUzNzhoM0BpM3g1ZHE5cmVydjUzNzhoM0BkZDNnMmRzcmpgLS1kLjZzYSNkZDNnMmRzcmpgLS1kLjZzcw%3D%3D&vvpl=1&l=02173103901357500000000000000000000ffff0a00849c804a65&btag=e00070000&format=mp3&mime_type=audio_mpeg",
        "source_timerange": {
            "start_offset": 0,
            "end_offset": 1.056
        },
        "target_timerange": {
            "start_offset": 310.992,
            "end_offset": 312.048
        },
        "ignore_audio": false,
        "audio_path": null
    }
]