[
    {
        "segment_id": "1f3602249d8711efaa9cfa163edc3428",
        "text": "  [Illustration]  Mr. Bennet",
        "audio_url": "https://v16m-default.akamaized.net/6a16da1080bc334d0d562cb4ab641dfa/672de320/video/tos/maliva/tos-maliva-v-f15faa-us/o0BSZAQV1rO2ruAEvAiizAtZl7E7vvyCU4U9j/?a=7073&bti=OTU0QDItLmA%3D&ch=0&cr=0&dr=4&er=0&lr=unwatermarked&cd=0%7C0%7C0%7C0&br=312&bt=156&ds=5&ft=.cwOVInz7ThilqvOXq8Zmo&qs=13&rc=M3NpeXU5cmhydjUzNzhoM0BpM3NpeXU5cmhydjUzNzhoM0BeamJrMmRrcWpgLS1kLjZzYSNeamJrMmRrcWpgLS1kLjZzcw%3D%3D&vvpl=1&l=02173103889916400000000000000000000ffff0a007d86a827b8&btag=e00070000&format=mp3&mime_type=audio_mpeg",
        "source_timerange": {
            "start_offset": 0,
            "end_offset": 1.472
        },
        "target_timerange": {
            "start_offset": 0,
            "end_offset": 1.472
        },
        "ignore_audio": false,
        "audio_path": null
    },
    {
        "segment_id": "1f3615ac9d8711efaa9cfa163edc3428",
        "text": "was among the earliest of those",
        "audio_url": "https://v16m-default.akamaized.net/6a16da1080bc334d0d562cb4ab641dfa/672de320/video/tos/maliva/tos-maliva-v-f15faa-us/o0BSZAQV1rO2ruAEvAiizAtZl7E7vvyCU4U9j/?a=7073&bti=OTU0QDItLmA%3D&ch=0&cr=0&dr=4&er=0&lr=unwatermarked&cd=0%7C0%7C0%7C0&br=312&bt=156&ds=5&ft=.cwOVInz7ThilqvOXq8Zmo&qs=13&rc=M3NpeXU5cmhydjUzNzhoM0BpM3NpeXU5cmhydjUzNzhoM0BeamJrMmRrcWpgLS1kLjZzYSNeamJrMmRrcWpgLS1kLjZzcw%3D%3D&vvpl=1&l=02173103889916400000000000000000000ffff0a007d86a827b8&btag=e00070000&format=mp3&mime_type=audio_mpeg",
        "source_timerange": {
            "start_offset": 1.4720000000000002,
            "end_offset": 2.944
        },
        "target_timerange": {
            "start_offset": 1.4720000000000002,
            "end_offset": 2.944
        },
        "ignore_audio": true,
        "audio_path": null
    },
    {
        "segment_id": "1f3618ea9d8711efaa9cfa163edc3428",
        "text": "who waited on Mr. Bingley.",
        "audio_url": "https://v16m-default.akamaized.net/6a16da1080bc334d0d562cb4ab641dfa/672de320/video/tos/maliva/tos-maliva-v-f15faa-us/o0BSZAQV1rO2ruAEvAiizAtZl7E7vvyCU4U9j/?a=7073&bti=OTU0QDItLmA%3D&ch=0&cr=0&dr=4&er=0&lr=unwatermarked&cd=0%7C0%7C0%7C0&br=312&bt=156&ds=5&ft=.cwOVInz7ThilqvOXq8Zmo&qs=13&rc=M3NpeXU5cmhydjUzNzhoM0BpM3NpeXU5cmhydjUzNzhoM0BeamJrMmRrcWpgLS1kLjZzYSNeamJrMmRrcWpgLS1kLjZzcw%3D%3D&vvpl=1&l=02173103889916400000000000000000000ffff0a007d86a827b8&btag=e00070000&format=mp3&mime_type=audio_mpeg",
        "source_timerange": {
            "start_offset": 2.9440000000000004,
            "end_offset": 4.416
        },
        "target_timerange": {
            "start_offset": 2.9440000000000004,
            "end_offset": 4.416
        },
        "ignore_audio": true,
        "audio_path": null
    },
    {
        "segment_id": "1f3641309d8711efaa9cfa163edc3428",
        "text": "He had always intended to",
        "audio_url": "https://v16m-default.akamaized.net/b8e5679867594efab47724df1a189d08/672de326/video/tos/maliva/tos-maliva-v-f15faa-us/oEiAEkqfsr8EUqwqdjlzdAidTAJByAogFa1vtA/?a=7073&bti=OTU0QDItLmA%3D&ch=0&cr=0&dr=4&er=0&lr=unwatermarked&cd=0%7C0%7C0%7C0&br=312&bt=156&ds=5&ft=.cwOVInz7ThilqvOXq8Zmo&qs=13&rc=anZrdm85cmhydjUzNzhoM0BpanZrdm85cmhydjUzNzhoM0A2aWZiMmRzcWpgLS1kLjZzYSM2aWZiMmRzcWpgLS1kLjZzcw%3D%3D&vvpl=1&l=02173103889916400000000000000000000ffff0a007d86a827b8&btag=e00070000&format=mp3&mime_type=audio_mpeg",
        "source_timerange": {
            "start_offset": 0,
            "end_offset": 1.4399999999999995
        },
        "target_timerange": {
            "start_offset": 4.416,
            "end_offset": 5.856
        },
        "ignore_audio": false,
        "audio_path": null
    },
    {
        "segment_id": "1f3643109d8711efaa9cfa163edc3428",
        "text": "visit him, though to the",
        "audio_url": "https://v16m-default.akamaized.net/b8e5679867594efab47724df1a189d08/672de326/video/tos/maliva/tos-maliva-v-f15faa-us/oEiAEkqfsr8EUqwqdjlzdAidTAJByAogFa1vtA/?a=7073&bti=OTU0QDItLmA%3D&ch=0&cr=0&dr=4&er=0&lr=unwatermarked&cd=0%7C0%7C0%7C0&br=312&bt=156&ds=5&ft=.cwOVInz7ThilqvOXq8Zmo&qs=13&rc=anZrdm85cmhydjUzNzhoM0BpanZrdm85cmhydjUzNzhoM0A2aWZiMmRzcWpgLS1kLjZzYSM2aWZiMmRzcWpgLS1kLjZzcw%3D%3D&vvpl=1&l=02173103889916400000000000000000000ffff0a007d86a827b8&btag=e00070000&format=mp3&mime_type=audio_mpeg",
        "source_timerange": {
            "start_offset": 1.4399999999999995,
            "end_offset": 2.880000000000001
        },
        "target_timerange": {
            "start_offset": 5.856,
            "end_offset": 7.296000000000001
        },
        "ignore_audio": true,
        "audio_path": null
    },
    {
        "segment_id": "1f3644649d8711efaa9cfa163edc3428",
        "text": "last always assuring his",
        "audio_url": "https://v16m-default.akamaized.net/b8e5679867594efab47724df1a189d08/672de326/video/tos/maliva/tos-maliva-v-f15faa-us/oEiAEkqfsr8EUqwqdjlzdAidTAJByAogFa1vtA/?a=7073&bti=OTU0QDItLmA%3D&ch=0&cr=0&dr=4&er=0&lr=unwatermarked&cd=0%7C0%7C0%7C0&br=312&bt=156&ds=5&ft=.cwOVInz7ThilqvOXq8Zmo&qs=13&rc=anZrdm85cmhydjUzNzhoM0BpanZrdm85cmhydjUzNzhoM0A2aWZiMmRzcWpgLS1kLjZzYSM2aWZiMmRzcWpgLS1kLjZzcw%3D%3D&vvpl=1&l=02173103889916400000000000000000000ffff0a007d86a827b8&btag=e00070000&format=mp3&mime_type=audio_mpeg",
        "source_timerange": {
            "start_offset": 2.88,
            "end_offset": 4.32
        },
        "target_timerange": {
            "start_offset": 7.296,
            "end_offset": 8.736
        },
        "ignore_audio": true,
        "audio_path": null
    },
    {
        "segment_id": "1f36459a9d8711efaa9cfa163edc3428",
        "text": "wife that he should not go;",
        "audio_url": "https://v16m-default.akamaized.net/b8e5679867594efab47724df1a189d08/672de326/video/tos/maliva/tos-maliva-v-f15faa-us/oEiAEkqfsr8EUqwqdjlzdAidTAJByAogFa1vtA/?a=7073&bti=OTU0QDItLmA%3D&ch=0&cr=0&dr=4&er=0&lr=unwatermarked&cd=0%7C0%7C0%7C0&br=312&bt=156&ds=5&ft=.cwOVInz7ThilqvOXq8Zmo&qs=13&rc=anZrdm85cmhydjUzNzhoM0BpanZrdm85cmhydjUzNzhoM0A2aWZiMmRzcWpgLS1kLjZzYSM2aWZiMmRzcWpgLS1kLjZzcw%3D%3D&vvpl=1&l=02173103889916400000000000000000000ffff0a007d86a827b8&btag=e00070000&format=mp3&mime_type=audio_mpeg",
        "source_timerange": {
            "start_offset": 4.32,
            "end_offset": 5.76
        },
        "target_timerange": {
            "start_offset": 8.736,
            "end_offset": 10.176
        },
        "ignore_audio": true,
        "audio_path": null
    },
    {
        "segment_id": "1f3647169d8711efaa9cfa163edc3428",
        "text": "and till the evening after",
        "audio_url": "https://v16m-default.akamaized.net/b8e5679867594efab47724df1a189d08/672de326/video/tos/maliva/tos-maliva-v-f15faa-us/oEiAEkqfsr8EUqwqdjlzdAidTAJByAogFa1vtA/?a=7073&bti=OTU0QDItLmA%3D&ch=0&cr=0&dr=4&er=0&lr=unwatermarked&cd=0%7C0%7C0%7C0&br=312&bt=156&ds=5&ft=.cwOVInz7ThilqvOXq8Zmo&qs=13&rc=anZrdm85cmhydjUzNzhoM0BpanZrdm85cmhydjUzNzhoM0A2aWZiMmRzcWpgLS1kLjZzYSM2aWZiMmRzcWpgLS1kLjZzcw%3D%3D&vvpl=1&l=02173103889916400000000000000000000ffff0a007d86a827b8&btag=e00070000&format=mp3&mime_type=audio_mpeg",
        "source_timerange": {
            "start_offset": 5.76,
            "end_offset": 7.199999999999999
        },
        "target_timerange": {
            "start_offset": 10.176,
            "end_offset": 11.616
        },
        "ignore_audio": true,
        "audio_path": null
    },
    {
        "segment_id": "1f3649829d8711efaa9cfa163edc3428",
        "text": "the visit was paid she had",
        "audio_url": "https://v16m-default.akamaized.net/b8e5679867594efab47724df1a189d08/672de326/video/tos/maliva/tos-maliva-v-f15faa-us/oEiAEkqfsr8EUqwqdjlzdAidTAJByAogFa1vtA/?a=7073&bti=OTU0QDItLmA%3D&ch=0&cr=0&dr=4&er=0&lr=unwatermarked&cd=0%7C0%7C0%7C0&br=312&bt=156&ds=5&ft=.cwOVInz7ThilqvOXq8Zmo&qs=13&rc=anZrdm85cmhydjUzNzhoM0BpanZrdm85cmhydjUzNzhoM0A2aWZiMmRzcWpgLS1kLjZzYSM2aWZiMmRzcWpgLS1kLjZzcw%3D%3D&vvpl=1&l=02173103889916400000000000000000000ffff0a007d86a827b8&btag=e00070000&format=mp3&mime_type=audio_mpeg",
        "source_timerange": {
            "start_offset": 7.199999999999999,
            "end_offset": 8.64
        },
        "target_timerange": {
            "start_offset": 11.616,
            "end_offset": 13.056000000000001
        },
        "ignore_audio": true,
        "audio_path": null
    },
    {
        "segment_id": "1f364b949d8711efaa9cfa163edc3428",
        "text": "no knowledge of it.",
        "audio_url": "https://v16m-default.akamaized.net/b8e5679867594efab47724df1a189d08/672de326/video/tos/maliva/tos-maliva-v-f15faa-us/oEiAEkqfsr8EUqwqdjlzdAidTAJByAogFa1vtA/?a=7073&bti=OTU0QDItLmA%3D&ch=0&cr=0&dr=4&er=0&lr=unwatermarked&cd=0%7C0%7C0%7C0&br=312&bt=156&ds=5&ft=.cwOVInz7ThilqvOXq8Zmo&qs=13&rc=anZrdm85cmhydjUzNzhoM0BpanZrdm85cmhydjUzNzhoM0A2aWZiMmRzcWpgLS1kLjZzYSM2aWZiMmRzcWpgLS1kLjZzcw%3D%3D&vvpl=1&l=02173103889916400000000000000000000ffff0a007d86a827b8&btag=e00070000&format=mp3&mime_type=audio_mpeg",
        "source_timerange": {
            "start_offset": 8.64,
            "end_offset": 10.08
        },
        "target_timerange": {
            "start_offset": 13.056000000000001,
            "end_offset": 14.496
        },
        "ignore_audio": true,
        "audio_path": null
    },
    {
        "segment_id": "1f365f3a9d8711efaa9cfa163edc3428",
        "text": "It was then disclosed in",
        "audio_url": "https://v16m-default.akamaized.net/99068c7026af00b6ac3027827cc08222/672de31e/video/tos/maliva/tos-maliva-v-f15faa-us/oEqQNyj6Lz6hYfJnV3bBBEGbrEEPEAFtAAALfD/?a=7073&bti=OTU0QDItLmA%3D&ch=0&cr=0&dr=4&er=0&lr=unwatermarked&cd=0%7C0%7C0%7C0&br=312&bt=156&ds=5&ft=.cwOVInz7ThilqvOXq8Zmo&qs=13&rc=amxybXk5cmhydjUzNzhoM0BpamxybXk5cmhydjUzNzhoM0BhNjVtMmRrcWpgLS1kLjZzYSNhNjVtMmRrcWpgLS1kLjZzcw%3D%3D&vvpl=1&l=02173103889916400000000000000000000ffff0a007d86a827b8&btag=e00070000&format=mp3&mime_type=audio_mpeg",
        "source_timerange": {
            "start_offset": 0,
            "end_offset": 1.1760000000000015
        },
        "target_timerange": {
            "start_offset": 14.496,
            "end_offset": 15.672
        },
        "ignore_audio": false,
        "audio_path": null
    },
    {
        "segment_id": "1f3663729d8711efaa9cfa163edc3428",
        "text": "the following manner.",
        "audio_url": "https://v16m-default.akamaized.net/99068c7026af00b6ac3027827cc08222/672de31e/video/tos/maliva/tos-maliva-v-f15faa-us/oEqQNyj6Lz6hYfJnV3bBBEGbrEEPEAFtAAALfD/?a=7073&bti=OTU0QDItLmA%3D&ch=0&cr=0&dr=4&er=0&lr=unwatermarked&cd=0%7C0%7C0%7C0&br=312&bt=156&ds=5&ft=.cwOVInz7ThilqvOXq8Zmo&qs=13&rc=amxybXk5cmhydjUzNzhoM0BpamxybXk5cmhydjUzNzhoM0BhNjVtMmRrcWpgLS1kLjZzYSNhNjVtMmRrcWpgLS1kLjZzcw%3D%3D&vvpl=1&l=02173103889916400000000000000000000ffff0a007d86a827b8&btag=e00070000&format=mp3&mime_type=audio_mpeg",
        "source_timerange": {
            "start_offset": 1.1760000000000002,
            "end_offset": 2.352
        },
        "target_timerange": {
            "start_offset": 15.672,
            "end_offset": 16.848
        },
        "ignore_audio": true,
        "audio_path": null
    },
    {
        "segment_id": "1f3693249d8711efaa9cfa163edc3428",
        "text": "Observing his second daughter",
        "audio_url": "https://v16m-default.akamaized.net/ccdcb70acae546df187df717dfe0ff47/672de323/video/tos/maliva/tos-maliva-v-f15faa-us/oEyb1x1QAwrfAIUIuCWOXHBMgkSjACeX8xWCXe/?a=7073&bti=OTU0QDItLmA%3D&ch=0&cr=0&dr=4&er=0&lr=unwatermarked&cd=0%7C0%7C0%7C0&br=312&bt=156&ds=5&ft=.cwOVInz7ThilqvOXq8Zmo&qs=13&rc=M3N4OnE5cmhydjUzNzhoM0BpM3N4OnE5cmhydjUzNzhoM0A2ay5qMmRrcWpgLS1kLjZzYSM2ay5qMmRrcWpgLS1kLjZzcw%3D%3D&vvpl=1&l=02173103889916400000000000000000000ffff0a007d86a827b8&btag=e00070000&format=mp3&mime_type=audio_mpeg",
        "source_timerange": {
            "start_offset": 0,
            "end_offset": 1.454399999999998
        },
        "target_timerange": {
            "start_offset": 16.848,
            "end_offset": 18.3024
        },
        "ignore_audio": false,
        "audio_path": null
    },
    {
        "segment_id": "1f3696269d8711efaa9cfa163edc3428",
        "text": "employed in trimming a hat, he",
        "audio_url": "https://v16m-default.akamaized.net/ccdcb70acae546df187df717dfe0ff47/672de323/video/tos/maliva/tos-maliva-v-f15faa-us/oEyb1x1QAwrfAIUIuCWOXHBMgkSjACeX8xWCXe/?a=7073&bti=OTU0QDItLmA%3D&ch=0&cr=0&dr=4&er=0&lr=unwatermarked&cd=0%7C0%7C0%7C0&br=312&bt=156&ds=5&ft=.cwOVInz7ThilqvOXq8Zmo&qs=13&rc=M3N4OnE5cmhydjUzNzhoM0BpM3N4OnE5cmhydjUzNzhoM0A2ay5qMmRrcWpgLS1kLjZzYSM2ay5qMmRrcWpgLS1kLjZzcw%3D%3D&vvpl=1&l=02173103889916400000000000000000000ffff0a007d86a827b8&btag=e00070000&format=mp3&mime_type=audio_mpeg",
        "source_timerange": {
            "start_offset": 1.4543999999999997,
            "end_offset": 2.9087999999999976
        },
        "target_timerange": {
            "start_offset": 18.3024,
            "end_offset": 19.7568
        },
        "ignore_audio": true,
        "audio_path": null
    },
    {
        "segment_id": "1f3699d29d8711efaa9cfa163edc3428",
        "text": "suddenly addressed her with,--",
        "audio_url": "https://v16m-default.akamaized.net/ccdcb70acae546df187df717dfe0ff47/672de323/video/tos/maliva/tos-maliva-v-f15faa-us/oEyb1x1QAwrfAIUIuCWOXHBMgkSjACeX8xWCXe/?a=7073&bti=OTU0QDItLmA%3D&ch=0&cr=0&dr=4&er=0&lr=unwatermarked&cd=0%7C0%7C0%7C0&br=312&bt=156&ds=5&ft=.cwOVInz7ThilqvOXq8Zmo&qs=13&rc=M3N4OnE5cmhydjUzNzhoM0BpM3N4OnE5cmhydjUzNzhoM0A2ay5qMmRrcWpgLS1kLjZzYSM2ay5qMmRrcWpgLS1kLjZzcw%3D%3D&vvpl=1&l=02173103889916400000000000000000000ffff0a007d86a827b8&btag=e00070000&format=mp3&mime_type=audio_mpeg",
        "source_timerange": {
            "start_offset": 2.9087999999999994,
            "end_offset": 4.363200000000001
        },
        "target_timerange": {
            "start_offset": 19.7568,
            "end_offset": 21.2112
        },
        "ignore_audio": true,
        "audio_path": null
    },
    {
        "segment_id": "1f369d389d8711efaa9cfa163edc3428",
        "text": "“I hope Mr. Bingley will like",
        "audio_url": "https://v16m-default.akamaized.net/ccdcb70acae546df187df717dfe0ff47/672de323/video/tos/maliva/tos-maliva-v-f15faa-us/oEyb1x1QAwrfAIUIuCWOXHBMgkSjACeX8xWCXe/?a=7073&bti=OTU0QDItLmA%3D&ch=0&cr=0&dr=4&er=0&lr=unwatermarked&cd=0%7C0%7C0%7C0&br=312&bt=156&ds=5&ft=.cwOVInz7ThilqvOXq8Zmo&qs=13&rc=M3N4OnE5cmhydjUzNzhoM0BpM3N4OnE5cmhydjUzNzhoM0A2ay5qMmRrcWpgLS1kLjZzYSM2ay5qMmRrcWpgLS1kLjZzcw%3D%3D&vvpl=1&l=02173103889916400000000000000000000ffff0a007d86a827b8&btag=e00070000&format=mp3&mime_type=audio_mpeg",
        "source_timerange": {
            "start_offset": 4.363199999999999,
            "end_offset": 5.8176000000000005
        },
        "target_timerange": {
            "start_offset": 21.211199999999998,
            "end_offset": 22.6656
        },
        "ignore_audio": true,
        "audio_path": null
    },
    {
        "segment_id": "1f36a0949d8711efaa9cfa163edc3428",
        "text": "it, Lizzy.”",
        "audio_url": "https://v16m-default.akamaized.net/ccdcb70acae546df187df717dfe0ff47/672de323/video/tos/maliva/tos-maliva-v-f15faa-us/oEyb1x1QAwrfAIUIuCWOXHBMgkSjACeX8xWCXe/?a=7073&bti=OTU0QDItLmA%3D&ch=0&cr=0&dr=4&er=0&lr=unwatermarked&cd=0%7C0%7C0%7C0&br=312&bt=156&ds=5&ft=.cwOVInz7ThilqvOXq8Zmo&qs=13&rc=M3N4OnE5cmhydjUzNzhoM0BpM3N4OnE5cmhydjUzNzhoM0A2ay5qMmRrcWpgLS1kLjZzYSM2ay5qMmRrcWpgLS1kLjZzcw%3D%3D&vvpl=1&l=02173103889916400000000000000000000ffff0a007d86a827b8&btag=e00070000&format=mp3&mime_type=audio_mpeg",
        "source_timerange": {
            "start_offset": 5.817600000000002,
            "end_offset": 7.272
        },
        "target_timerange": {
            "start_offset": 22.6656,
            "end_offset": 24.12
        },
        "ignore_audio": true,
        "audio_path": null
    },
    {
        "segment_id": "1f36aea49d8711efaa9cfa163edc3428",
        "text": "“We are not in a way to know _what_",
        "audio_url": "https://v16m-default.akamaized.net/2d094e7b82e4f69cd1e7ee35a44df40b/672de31d/video/tos/maliva/tos-maliva-v-f15faa-us/ocenpI6vALA0AV14QEFoLjJD6fncYrYEBhBAtE/?a=7073&bti=OTU0QDItLmA%3D&ch=0&cr=0&dr=4&er=0&lr=unwatermarked&cd=0%7C0%7C0%7C0&br=312&bt=156&ds=5&ft=.cwOVInz7ThilqvOXq8Zmo&qs=13&rc=M3Z3PHQ5cmhydjUzNzhoM0BpM3Z3PHQ5cmhydjUzNzhoM0BoZHFjMmRrcWpgLS1kLjZzYSNoZHFjMmRrcWpgLS1kLjZzcw%3D%3D&vvpl=1&l=02173103889916400000000000000000000ffff0a007d86a827b8&btag=e00070000&format=mp3&mime_type=audio_mpeg",
        "source_timerange": {
            "start_offset": 0,
            "end_offset": 1.992
        },
        "target_timerange": {
            "start_offset": 24.12,
            "end_offset": 26.112000000000002
        },
        "ignore_audio": false,
        "audio_path": null
    },
    {
        "segment_id": "1f36cb969d8711efaa9cfa163edc3428",
        "text": "Mr. Bingley likes,” said her",
        "audio_url": "https://v16m-default.akamaized.net/b05acf39d709afa7a2d505d1398f713a/672de321/video/tos/maliva/tos-maliva-v-f15faa-us/o0IAbniheBYAcQVT8QILBFEB6HD3xLAU3fa6XJ/?a=7073&bti=OTU0QDItLmA%3D&ch=0&cr=0&dr=4&er=0&lr=unwatermarked&cd=0%7C0%7C0%7C0&br=312&bt=156&ds=5&ft=.cwOVInz7ThklqvOXq8Zmo&qs=13&rc=anI0dHg5cmhydjUzNzhoM0BpanI0dHg5cmhydjUzNzhoM0BqL2FhMmRrcWpgLS1kLjZzYSNqL2FhMmRrcWpgLS1kLjZzcw%3D%3D&vvpl=1&l=02173103889916400000000000000000000ffff0a007d86a827b8&btag=e00070000&format=mp3&mime_type=audio_mpeg",
        "source_timerange": {
            "start_offset": 0,
            "end_offset": 1.6239999999999988
        },
        "target_timerange": {
            "start_offset": 26.112000000000002,
            "end_offset": 27.736
        },
        "ignore_audio": false,
        "audio_path": null
    },
    {
        "segment_id": "1f36cf249d8711efaa9cfa163edc3428",
        "text": "mother, resentfully, “since",
        "audio_url": "https://v16m-default.akamaized.net/b05acf39d709afa7a2d505d1398f713a/672de321/video/tos/maliva/tos-maliva-v-f15faa-us/o0IAbniheBYAcQVT8QILBFEB6HD3xLAU3fa6XJ/?a=7073&bti=OTU0QDItLmA%3D&ch=0&cr=0&dr=4&er=0&lr=unwatermarked&cd=0%7C0%7C0%7C0&br=312&bt=156&ds=5&ft=.cwOVInz7ThklqvOXq8Zmo&qs=13&rc=anI0dHg5cmhydjUzNzhoM0BpanI0dHg5cmhydjUzNzhoM0BqL2FhMmRrcWpgLS1kLjZzYSNqL2FhMmRrcWpgLS1kLjZzcw%3D%3D&vvpl=1&l=02173103889916400000000000000000000ffff0a007d86a827b8&btag=e00070000&format=mp3&mime_type=audio_mpeg",
        "source_timerange": {
            "start_offset": 1.6239999999999988,
            "end_offset": 3.248000000000001
        },
        "target_timerange": {
            "start_offset": 27.736,
            "end_offset": 29.360000000000003
        },
        "ignore_audio": true,
        "audio_path": null
    },
    {
        "segment_id": "1f36d2f89d8711efaa9cfa163edc3428",
        "text": "we are not to visit.”",
        "audio_url": "https://v16m-default.akamaized.net/b05acf39d709afa7a2d505d1398f713a/672de321/video/tos/maliva/tos-maliva-v-f15faa-us/o0IAbniheBYAcQVT8QILBFEB6HD3xLAU3fa6XJ/?a=7073&bti=OTU0QDItLmA%3D&ch=0&cr=0&dr=4&er=0&lr=unwatermarked&cd=0%7C0%7C0%7C0&br=312&bt=156&ds=5&ft=.cwOVInz7ThklqvOXq8Zmo&qs=13&rc=anI0dHg5cmhydjUzNzhoM0BpanI0dHg5cmhydjUzNzhoM0BqL2FhMmRrcWpgLS1kLjZzYSNqL2FhMmRrcWpgLS1kLjZzcw%3D%3D&vvpl=1&l=02173103889916400000000000000000000ffff0a007d86a827b8&btag=e00070000&format=mp3&mime_type=audio_mpeg",
        "source_timerange": {
            "start_offset": 3.248000000000001,
            "end_offset": 4.872
        },
        "target_timerange": {
            "start_offset": 29.360000000000003,
            "end_offset": 30.984
        },
        "ignore_audio": true,
        "audio_path": null
    },
    {
        "segment_id": "1f37087c9d8711efaa9cfa163edc3428",
        "text": "“But you forget, mamma,” said",
        "audio_url": "https://v16m-default.akamaized.net/c22d68a074334508e1ae63c6df73357a/672de323/video/tos/maliva/tos-maliva-v-f15faa-us/ogTZ233U6rQE4ivOryuaVYviSjpABWZAAtAEC/?a=7073&bti=OTU0QDItLmA%3D&ch=0&cr=0&dr=4&er=0&lr=unwatermarked&cd=0%7C0%7C0%7C0&br=312&bt=156&ds=5&ft=.cwOVInz7ThilqvOXq8Zmo&qs=13&rc=am08eHE5cmhydjUzNzhoM0Bpam08eHE5cmhydjUzNzhoM0BoYGdrMmRrcWpgLS1kLjZzYSNoYGdrMmRrcWpgLS1kLjZzcw%3D%3D&vvpl=1&l=02173103889916400000000000000000000ffff0a007d86a827b8&btag=e00070000&format=mp3&mime_type=audio_mpeg",
        "source_timerange": {
            "start_offset": 0,
            "end_offset": 1.430399999999998
        },
        "target_timerange": {
            "start_offset": 30.984,
            "end_offset": 32.4144
        },
        "ignore_audio": false,
        "audio_path": null
    },
    {
        "segment_id": "1f370c469d8711efaa9cfa163edc3428",
        "text": "Elizabeth, “that we shall meet",
        "audio_url": "https://v16m-default.akamaized.net/c22d68a074334508e1ae63c6df73357a/672de323/video/tos/maliva/tos-maliva-v-f15faa-us/ogTZ233U6rQE4ivOryuaVYviSjpABWZAAtAEC/?a=7073&bti=OTU0QDItLmA%3D&ch=0&cr=0&dr=4&er=0&lr=unwatermarked&cd=0%7C0%7C0%7C0&br=312&bt=156&ds=5&ft=.cwOVInz7ThilqvOXq8Zmo&qs=13&rc=am08eHE5cmhydjUzNzhoM0Bpam08eHE5cmhydjUzNzhoM0BoYGdrMmRrcWpgLS1kLjZzYSNoYGdrMmRrcWpgLS1kLjZzcw%3D%3D&vvpl=1&l=02173103889916400000000000000000000ffff0a007d86a827b8&btag=e00070000&format=mp3&mime_type=audio_mpeg",
        "source_timerange": {
            "start_offset": 1.4303999999999988,
            "end_offset": 2.860800000000004
        },
        "target_timerange": {
            "start_offset": 32.4144,
            "end_offset": 33.844800000000006
        },
        "ignore_audio": true,
        "audio_path": null
    },
    {
        "segment_id": "1f370fc09d8711efaa9cfa163edc3428",
        "text": "him at the assemblies, and",
        "audio_url": "https://v16m-default.akamaized.net/c22d68a074334508e1ae63c6df73357a/672de323/video/tos/maliva/tos-maliva-v-f15faa-us/ogTZ233U6rQE4ivOryuaVYviSjpABWZAAtAEC/?a=7073&bti=OTU0QDItLmA%3D&ch=0&cr=0&dr=4&er=0&lr=unwatermarked&cd=0%7C0%7C0%7C0&br=312&bt=156&ds=5&ft=.cwOVInz7ThilqvOXq8Zmo&qs=13&rc=am08eHE5cmhydjUzNzhoM0Bpam08eHE5cmhydjUzNzhoM0BoYGdrMmRrcWpgLS1kLjZzYSNoYGdrMmRrcWpgLS1kLjZzcw%3D%3D&vvpl=1&l=02173103889916400000000000000000000ffff0a007d86a827b8&btag=e00070000&format=mp3&mime_type=audio_mpeg",
        "source_timerange": {
            "start_offset": 2.8607999999999976,
            "end_offset": 4.291200000000003
        },
        "target_timerange": {
            "start_offset": 33.8448,
            "end_offset": 35.275200000000005
        },
        "ignore_audio": true,
        "audio_path": null
    },
    {
        "segment_id": "1f3712b89d8711efaa9cfa163edc3428",
        "text": "that Mrs. Long has promised to",
        "audio_url": "https://v16m-default.akamaized.net/c22d68a074334508e1ae63c6df73357a/672de323/video/tos/maliva/tos-maliva-v-f15faa-us/ogTZ233U6rQE4ivOryuaVYviSjpABWZAAtAEC/?a=7073&bti=OTU0QDItLmA%3D&ch=0&cr=0&dr=4&er=0&lr=unwatermarked&cd=0%7C0%7C0%7C0&br=312&bt=156&ds=5&ft=.cwOVInz7ThilqvOXq8Zmo&qs=13&rc=am08eHE5cmhydjUzNzhoM0Bpam08eHE5cmhydjUzNzhoM0BoYGdrMmRrcWpgLS1kLjZzYSNoYGdrMmRrcWpgLS1kLjZzcw%3D%3D&vvpl=1&l=02173103889916400000000000000000000ffff0a007d86a827b8&btag=e00070000&format=mp3&mime_type=audio_mpeg",
        "source_timerange": {
            "start_offset": 4.291199999999996,
            "end_offset": 5.721600000000001
        },
        "target_timerange": {
            "start_offset": 35.2752,
            "end_offset": 36.705600000000004
        },
        "ignore_audio": true,
        "audio_path": null
    },
    {
        "segment_id": "1f3715b09d8711efaa9cfa163edc3428",
        "text": "introduce him.”",
        "audio_url": "https://v16m-default.akamaized.net/c22d68a074334508e1ae63c6df73357a/672de323/video/tos/maliva/tos-maliva-v-f15faa-us/ogTZ233U6rQE4ivOryuaVYviSjpABWZAAtAEC/?a=7073&bti=OTU0QDItLmA%3D&ch=0&cr=0&dr=4&er=0&lr=unwatermarked&cd=0%7C0%7C0%7C0&br=312&bt=156&ds=5&ft=.cwOVInz7ThilqvOXq8Zmo&qs=13&rc=am08eHE5cmhydjUzNzhoM0Bpam08eHE5cmhydjUzNzhoM0BoYGdrMmRrcWpgLS1kLjZzYSNoYGdrMmRrcWpgLS1kLjZzcw%3D%3D&vvpl=1&l=02173103889916400000000000000000000ffff0a007d86a827b8&btag=e00070000&format=mp3&mime_type=audio_mpeg",
        "source_timerange": {
            "start_offset": 5.721600000000002,
            "end_offset": 7.152
        },
        "target_timerange": {
            "start_offset": 36.705600000000004,
            "end_offset": 38.136
        },
        "ignore_audio": true,
        "audio_path": null
    },
    {
        "segment_id": "1f372e749d8711efaa9cfa163edc3428",
        "text": "“I do not believe Mrs. Long",
        "audio_url": "https://v16m-default.akamaized.net/582a99da90fdcbf130983ee0a1f927a7/672de31f/video/tos/maliva/tos-maliva-v-f15faa-us/o0onRd6VALA6AVseQIFELHJD6fasvXYEBhBBbI/?a=7073&bti=OTU0QDItLmA%3D&ch=0&cr=0&dr=4&er=0&lr=unwatermarked&cd=0%7C0%7C0%7C0&br=312&bt=156&ds=5&ft=.cwOVInz7ThklqvOXq8Zmo&qs=13&rc=M3BlNnc5cmhydjUzNzhoM0BpM3BlNnc5cmhydjUzNzhoM0AuYzZeMmRrcWpgLS1kLjZzYSMuYzZeMmRrcWpgLS1kLjZzcw%3D%3D&vvpl=1&l=02173103889916400000000000000000000ffff0a007d86a827b8&btag=e00070000&format=mp3&mime_type=audio_mpeg",
        "source_timerange": {
            "start_offset": 0,
            "end_offset": 1.3680000000000052
        },
        "target_timerange": {
            "start_offset": 38.136,
            "end_offset": 39.504000000000005
        },
        "ignore_audio": false,
        "audio_path": null
    },
    {
        "segment_id": "1f3732489d8711efaa9cfa163edc3428",
        "text": "will do any such thing.",
        "audio_url": "https://v16m-default.akamaized.net/582a99da90fdcbf130983ee0a1f927a7/672de31f/video/tos/maliva/tos-maliva-v-f15faa-us/o0onRd6VALA6AVseQIFELHJD6fasvXYEBhBBbI/?a=7073&bti=OTU0QDItLmA%3D&ch=0&cr=0&dr=4&er=0&lr=unwatermarked&cd=0%7C0%7C0%7C0&br=312&bt=156&ds=5&ft=.cwOVInz7ThklqvOXq8Zmo&qs=13&rc=M3BlNnc5cmhydjUzNzhoM0BpM3BlNnc5cmhydjUzNzhoM0AuYzZeMmRrcWpgLS1kLjZzYSMuYzZeMmRrcWpgLS1kLjZzcw%3D%3D&vvpl=1&l=02173103889916400000000000000000000ffff0a007d86a827b8&btag=e00070000&format=mp3&mime_type=audio_mpeg",
        "source_timerange": {
            "start_offset": 1.368000000000002,
            "end_offset": 2.736
        },
        "target_timerange": {
            "start_offset": 39.504000000000005,
            "end_offset": 40.872
        },
        "ignore_audio": true,
        "audio_path": null
    },
    {
        "segment_id": "1f37447c9d8711efaa9cfa163edc3428",
        "text": "She has two nieces of her own.",
        "audio_url": "https://v16m-default.akamaized.net/2bc378144b430506eea6000efd1283c5/672de31e/video/tos/maliva/tos-maliva-v-f15faa-us/oAAiFjUrExywkGlAWtuBfgRqddFiAAsoAy6zEs/?a=7073&bti=OTU0QDItLmA%3D&ch=0&cr=0&dr=4&er=0&lr=unwatermarked&cd=0%7C0%7C0%7C0&br=312&bt=156&ds=5&ft=.cwOVInz7ThilqvOXq8Zmo&qs=13&rc=anBvdWw5cmhydjUzNzhoM0BpanBvdWw5cmhydjUzNzhoM0A1NS1sMmRzcWpgLS1kLjZzYSM1NS1sMmRzcWpgLS1kLjZzcw%3D%3D&vvpl=1&l=02173103889916400000000000000000000ffff0a007d86a827b8&btag=e00070000&format=mp3&mime_type=audio_mpeg",
        "source_timerange": {
            "start_offset": 0,
            "end_offset": 2.088
        },
        "target_timerange": {
            "start_offset": 40.872,
            "end_offset": 42.96
        },
        "ignore_audio": false,
        "audio_path": null
    },
    {
        "segment_id": "1f376c729d8711efaa9cfa163edc3428",
        "text": "She is a selfish,",
        "audio_url": "https://v16m-default.akamaized.net/24b625a59255d4f0339cb5edabcf9a68/672de326/video/tos/maliva/tos-maliva-v-f15faa-us/o4rDEVFpA5J6sYrtBADLE6L1VInQjBAhAYEefh/?a=7073&bti=OTU0QDItLmA%3D&ch=0&cr=0&dr=4&er=0&lr=unwatermarked&cd=0%7C0%7C0%7C0&br=312&bt=156&ds=5&ft=.cwOVInz7ThilqvOXq8Zmo&qs=13&rc=anJyOnQ5cmhydjUzNzhoM0BpanJyOnQ5cmhydjUzNzhoM0BeMzRmMmRrcWpgLS1kLjZzYSNeMzRmMmRrcWpgLS1kLjZzcw%3D%3D&vvpl=1&l=02173103889916400000000000000000000ffff0a007d86a827b8&btag=e00070000&format=mp3&mime_type=audio_mpeg",
        "source_timerange": {
            "start_offset": 0,
            "end_offset": 1.5154285714285756
        },
        "target_timerange": {
            "start_offset": 42.96,
            "end_offset": 44.47542857142857
        },
        "ignore_audio": false,
        "audio_path": null
    },
    {
        "segment_id": "1f376e3e9d8711efaa9cfa163edc3428",
        "text": "hypocritical woman, and I",
        "audio_url": "https://v16m-default.akamaized.net/24b625a59255d4f0339cb5edabcf9a68/672de326/video/tos/maliva/tos-maliva-v-f15faa-us/o4rDEVFpA5J6sYrtBADLE6L1VInQjBAhAYEefh/?a=7073&bti=OTU0QDItLmA%3D&ch=0&cr=0&dr=4&er=0&lr=unwatermarked&cd=0%7C0%7C0%7C0&br=312&bt=156&ds=5&ft=.cwOVInz7ThilqvOXq8Zmo&qs=13&rc=anJyOnQ5cmhydjUzNzhoM0BpanJyOnQ5cmhydjUzNzhoM0BeMzRmMmRrcWpgLS1kLjZzYSNeMzRmMmRrcWpgLS1kLjZzcw%3D%3D&vvpl=1&l=02173103889916400000000000000000000ffff0a007d86a827b8&btag=e00070000&format=mp3&mime_type=audio_mpeg",
        "source_timerange": {
            "start_offset": 1.515428571428572,
            "end_offset": 3.0308571428571476
        },
        "target_timerange": {
            "start_offset": 44.47542857142857,
            "end_offset": 45.990857142857145
        },
        "ignore_audio": true,
        "audio_path": null
    },
    {
        "segment_id": "1f37719a9d8711efaa9cfa163edc3428",
        "text": "have no opinion of her.”",
        "audio_url": "https://v16m-default.akamaized.net/24b625a59255d4f0339cb5edabcf9a68/672de326/video/tos/maliva/tos-maliva-v-f15faa-us/o4rDEVFpA5J6sYrtBADLE6L1VInQjBAhAYEefh/?a=7073&bti=OTU0QDItLmA%3D&ch=0&cr=0&dr=4&er=0&lr=unwatermarked&cd=0%7C0%7C0%7C0&br=312&bt=156&ds=5&ft=.cwOVInz7ThilqvOXq8Zmo&qs=13&rc=anJyOnQ5cmhydjUzNzhoM0BpanJyOnQ5cmhydjUzNzhoM0BeMzRmMmRrcWpgLS1kLjZzYSNeMzRmMmRrcWpgLS1kLjZzcw%3D%3D&vvpl=1&l=02173103889916400000000000000000000ffff0a007d86a827b8&btag=e00070000&format=mp3&mime_type=audio_mpeg",
        "source_timerange": {
            "start_offset": 3.030857142857144,
            "end_offset": 4.54628571428572
        },
        "target_timerange": {
            "start_offset": 45.990857142857145,
            "end_offset": 47.50628571428572
        },
        "ignore_audio": true,
        "audio_path": null
    },
    {
        "segment_id": "1f3772ee9d8711efaa9cfa163edc3428",
        "text": "“No more have I,” said Mr.",
        "audio_url": "https://v16m-default.akamaized.net/24b625a59255d4f0339cb5edabcf9a68/672de326/video/tos/maliva/tos-maliva-v-f15faa-us/o4rDEVFpA5J6sYrtBADLE6L1VInQjBAhAYEefh/?a=7073&bti=OTU0QDItLmA%3D&ch=0&cr=0&dr=4&er=0&lr=unwatermarked&cd=0%7C0%7C0%7C0&br=312&bt=156&ds=5&ft=.cwOVInz7ThilqvOXq8Zmo&qs=13&rc=anJyOnQ5cmhydjUzNzhoM0BpanJyOnQ5cmhydjUzNzhoM0BeMzRmMmRrcWpgLS1kLjZzYSNeMzRmMmRrcWpgLS1kLjZzcw%3D%3D&vvpl=1&l=02173103889916400000000000000000000ffff0a007d86a827b8&btag=e00070000&format=mp3&mime_type=audio_mpeg",
        "source_timerange": {
            "start_offset": 4.546285714285709,
            "end_offset": 6.0617142857142845
        },
        "target_timerange": {
            "start_offset": 47.50628571428571,
            "end_offset": 49.02171428571428
        },
        "ignore_audio": true,
        "audio_path": null
    },
    {
        "segment_id": "1f3775aa9d8711efaa9cfa163edc3428",
        "text": "Bennet; “and I am glad to",
        "audio_url": "https://v16m-default.akamaized.net/24b625a59255d4f0339cb5edabcf9a68/672de326/video/tos/maliva/tos-maliva-v-f15faa-us/o4rDEVFpA5J6sYrtBADLE6L1VInQjBAhAYEefh/?a=7073&bti=OTU0QDItLmA%3D&ch=0&cr=0&dr=4&er=0&lr=unwatermarked&cd=0%7C0%7C0%7C0&br=312&bt=156&ds=5&ft=.cwOVInz7ThilqvOXq8Zmo&qs=13&rc=anJyOnQ5cmhydjUzNzhoM0BpanJyOnQ5cmhydjUzNzhoM0BeMzRmMmRrcWpgLS1kLjZzYSNeMzRmMmRrcWpgLS1kLjZzcw%3D%3D&vvpl=1&l=02173103889916400000000000000000000ffff0a007d86a827b8&btag=e00070000&format=mp3&mime_type=audio_mpeg",
        "source_timerange": {
            "start_offset": 6.061714285714281,
            "end_offset": 7.5771428571428565
        },
        "target_timerange": {
            "start_offset": 49.02171428571428,
            "end_offset": 50.537142857142854
        },
        "ignore_audio": true,
        "audio_path": null
    },
    {
        "segment_id": "1f3777b29d8711efaa9cfa163edc3428",
        "text": "find that you do not depend",
        "audio_url": "https://v16m-default.akamaized.net/24b625a59255d4f0339cb5edabcf9a68/672de326/video/tos/maliva/tos-maliva-v-f15faa-us/o4rDEVFpA5J6sYrtBADLE6L1VInQjBAhAYEefh/?a=7073&bti=OTU0QDItLmA%3D&ch=0&cr=0&dr=4&er=0&lr=unwatermarked&cd=0%7C0%7C0%7C0&br=312&bt=156&ds=5&ft=.cwOVInz7ThilqvOXq8Zmo&qs=13&rc=anJyOnQ5cmhydjUzNzhoM0BpanJyOnQ5cmhydjUzNzhoM0BeMzRmMmRrcWpgLS1kLjZzYSNeMzRmMmRrcWpgLS1kLjZzcw%3D%3D&vvpl=1&l=02173103889916400000000000000000000ffff0a007d86a827b8&btag=e00070000&format=mp3&mime_type=audio_mpeg",
        "source_timerange": {
            "start_offset": 7.577142857142853,
            "end_offset": 9.092571428571429
        },
        "target_timerange": {
            "start_offset": 50.537142857142854,
            "end_offset": 52.052571428571426
        },
        "ignore_audio": true,
        "audio_path": null
    },
    {
        "segment_id": "1f3779ce9d8711efaa9cfa163edc3428",
        "text": "on her serving you.”",
        "audio_url": "https://v16m-default.akamaized.net/24b625a59255d4f0339cb5edabcf9a68/672de326/video/tos/maliva/tos-maliva-v-f15faa-us/o4rDEVFpA5J6sYrtBADLE6L1VInQjBAhAYEefh/?a=7073&bti=OTU0QDItLmA%3D&ch=0&cr=0&dr=4&er=0&lr=unwatermarked&cd=0%7C0%7C0%7C0&br=312&bt=156&ds=5&ft=.cwOVInz7ThilqvOXq8Zmo&qs=13&rc=anJyOnQ5cmhydjUzNzhoM0BpanJyOnQ5cmhydjUzNzhoM0BeMzRmMmRrcWpgLS1kLjZzYSNeMzRmMmRrcWpgLS1kLjZzcw%3D%3D&vvpl=1&l=02173103889916400000000000000000000ffff0a007d86a827b8&btag=e00070000&format=mp3&mime_type=audio_mpeg",
        "source_timerange": {
            "start_offset": 9.092571428571425,
            "end_offset": 10.608
        },
        "target_timerange": {
            "start_offset": 52.052571428571426,
            "end_offset": 53.568
        },
        "ignore_audio": true,
        "audio_path": null
    },
    {
        "segment_id": "1f3790949d8711efaa9cfa163edc3428",
        "text": "Mrs. Bennet deigned not",
        "audio_url": "https://v16m-default.akamaized.net/62af5e163b3f94e37ba79ecfbe3f8ce8/672de322/video/tos/maliva/tos-maliva-v-f15faa-us/oAyOAnSABjUiZicV2uUC5nEqtEA4q0OQycArv/?a=7073&bti=OTU0QDItLmA%3D&ch=0&cr=0&dr=4&er=0&lr=unwatermarked&cd=0%7C0%7C0%7C0&br=312&bt=156&ds=5&ft=.cwOVInz7ThilqvOXq8Zmo&qs=13&rc=M2g8c2w5cmhydjUzNzhoM0BpM2g8c2w5cmhydjUzNzhoM0BebHFnMmRrcWpgLS1kLjZzYSNebHFnMmRrcWpgLS1kLjZzcw%3D%3D&vvpl=1&l=02173103889916400000000000000000000ffff0a007d86a827b8&btag=e00070000&format=mp3&mime_type=audio_mpeg",
        "source_timerange": {
            "start_offset": 0,
            "end_offset": 1.3727999999999936
        },
        "target_timerange": {
            "start_offset": 53.568,
            "end_offset": 54.940799999999996
        },
        "ignore_audio": false,
        "audio_path": null
    },
    {
        "segment_id": "1f37921a9d8711efaa9cfa163edc3428",
        "text": "to make any reply; but,",
        "audio_url": "https://v16m-default.akamaized.net/62af5e163b3f94e37ba79ecfbe3f8ce8/672de322/video/tos/maliva/tos-maliva-v-f15faa-us/oAyOAnSABjUiZicV2uUC5nEqtEA4q0OQycArv/?a=7073&bti=OTU0QDItLmA%3D&ch=0&cr=0&dr=4&er=0&lr=unwatermarked&cd=0%7C0%7C0%7C0&br=312&bt=156&ds=5&ft=.cwOVInz7ThilqvOXq8Zmo&qs=13&rc=M2g8c2w5cmhydjUzNzhoM0BpM2g8c2w5cmhydjUzNzhoM0BebHFnMmRrcWpgLS1kLjZzYSNebHFnMmRrcWpgLS1kLjZzcw%3D%3D&vvpl=1&l=02173103889916400000000000000000000ffff0a007d86a827b8&btag=e00070000&format=mp3&mime_type=audio_mpeg",
        "source_timerange": {
            "start_offset": 1.372799999999998,
            "end_offset": 2.7455999999999987
        },
        "target_timerange": {
            "start_offset": 54.940799999999996,
            "end_offset": 56.3136
        },
        "ignore_audio": true,
        "audio_path": null
    },
    {
        "segment_id": "1f37935a9d8711efaa9cfa163edc3428",
        "text": "unable to contain",
        "audio_url": "https://v16m-default.akamaized.net/62af5e163b3f94e37ba79ecfbe3f8ce8/672de322/video/tos/maliva/tos-maliva-v-f15faa-us/oAyOAnSABjUiZicV2uUC5nEqtEA4q0OQycArv/?a=7073&bti=OTU0QDItLmA%3D&ch=0&cr=0&dr=4&er=0&lr=unwatermarked&cd=0%7C0%7C0%7C0&br=312&bt=156&ds=5&ft=.cwOVInz7ThilqvOXq8Zmo&qs=13&rc=M2g8c2w5cmhydjUzNzhoM0BpM2g8c2w5cmhydjUzNzhoM0BebHFnMmRrcWpgLS1kLjZzYSNebHFnMmRrcWpgLS1kLjZzcw%3D%3D&vvpl=1&l=02173103889916400000000000000000000ffff0a007d86a827b8&btag=e00070000&format=mp3&mime_type=audio_mpeg",
        "source_timerange": {
            "start_offset": 2.745600000000003,
            "end_offset": 4.118399999999997
        },
        "target_timerange": {
            "start_offset": 56.3136,
            "end_offset": 57.6864
        },
        "ignore_audio": true,
        "audio_path": null
    },
    {
        "segment_id": "1f37947c9d8711efaa9cfa163edc3428",
        "text": "herself, began scolding",
        "audio_url": "https://v16m-default.akamaized.net/62af5e163b3f94e37ba79ecfbe3f8ce8/672de322/video/tos/maliva/tos-maliva-v-f15faa-us/oAyOAnSABjUiZicV2uUC5nEqtEA4q0OQycArv/?a=7073&bti=OTU0QDItLmA%3D&ch=0&cr=0&dr=4&er=0&lr=unwatermarked&cd=0%7C0%7C0%7C0&br=312&bt=156&ds=5&ft=.cwOVInz7ThilqvOXq8Zmo&qs=13&rc=M2g8c2w5cmhydjUzNzhoM0BpM2g8c2w5cmhydjUzNzhoM0BebHFnMmRrcWpgLS1kLjZzYSNebHFnMmRrcWpgLS1kLjZzcw%3D%3D&vvpl=1&l=02173103889916400000000000000000000ffff0a007d86a827b8&btag=e00070000&format=mp3&mime_type=audio_mpeg",
        "source_timerange": {
            "start_offset": 4.118400000000001,
            "end_offset": 5.491200000000002
        },
        "target_timerange": {
            "start_offset": 57.6864,
            "end_offset": 59.059200000000004
        },
        "ignore_audio": true,
        "audio_path": null
    },
    {
        "segment_id": "1f3795949d8711efaa9cfa163edc3428",
        "text": "one of her daughters.",
        "audio_url": "https://v16m-default.akamaized.net/62af5e163b3f94e37ba79ecfbe3f8ce8/672de322/video/tos/maliva/tos-maliva-v-f15faa-us/oAyOAnSABjUiZicV2uUC5nEqtEA4q0OQycArv/?a=7073&bti=OTU0QDItLmA%3D&ch=0&cr=0&dr=4&er=0&lr=unwatermarked&cd=0%7C0%7C0%7C0&br=312&bt=156&ds=5&ft=.cwOVInz7ThilqvOXq8Zmo&qs=13&rc=M2g8c2w5cmhydjUzNzhoM0BpM2g8c2w5cmhydjUzNzhoM0BebHFnMmRrcWpgLS1kLjZzYSNebHFnMmRrcWpgLS1kLjZzcw%3D%3D&vvpl=1&l=02173103889916400000000000000000000ffff0a007d86a827b8&btag=e00070000&format=mp3&mime_type=audio_mpeg",
        "source_timerange": {
            "start_offset": 5.491200000000006,
            "end_offset": 6.864
        },
        "target_timerange": {
            "start_offset": 59.059200000000004,
            "end_offset": 60.432
        },
        "ignore_audio": true,
        "audio_path": null
    },
    {
        "segment_id": "1f37a1929d8711efaa9cfa163edc3428",
        "text": "“Don’t keep coughing so,",
        "audio_url": "https://v16m-default.akamaized.net/ebfdf13c1684018f6adb89ad15ce592a/672de31e/video/tos/maliva/tos-maliva-v-f15faa-us/oQjj21CAvBCAA4VrAtiZJUnAiQyk4ruSEyOEU/?a=7073&bti=OTU0QDItLmA%3D&ch=0&cr=0&dr=4&er=0&lr=unwatermarked&cd=0%7C0%7C0%7C0&br=312&bt=156&ds=5&ft=.cwOVInz7ThilqvOXq8Zmo&qs=13&rc=ajdlM3I5cmhydjUzNzhoM0BpajdlM3I5cmhydjUzNzhoM0BnXy1eMmRrcWpgLS1kLjZzYSNnXy1eMmRrcWpgLS1kLjZzcw%3D%3D&vvpl=1&l=02173103889916400000000000000000000ffff0a007d86a827b8&btag=e00070000&format=mp3&mime_type=audio_mpeg",
        "source_timerange": {
            "start_offset": 0,
            "end_offset": 1.439999999999995
        },
        "target_timerange": {
            "start_offset": 60.432,
            "end_offset": 61.872
        },
        "ignore_audio": false,
        "audio_path": null
    },
    {
        "segment_id": "1f37a30e9d8711efaa9cfa163edc3428",
        "text": "Kitty, for heaven’s sake!",
        "audio_url": "https://v16m-default.akamaized.net/ebfdf13c1684018f6adb89ad15ce592a/672de31e/video/tos/maliva/tos-maliva-v-f15faa-us/oQjj21CAvBCAA4VrAtiZJUnAiQyk4ruSEyOEU/?a=7073&bti=OTU0QDItLmA%3D&ch=0&cr=0&dr=4&er=0&lr=unwatermarked&cd=0%7C0%7C0%7C0&br=312&bt=156&ds=5&ft=.cwOVInz7ThilqvOXq8Zmo&qs=13&rc=ajdlM3I5cmhydjUzNzhoM0BpajdlM3I5cmhydjUzNzhoM0BnXy1eMmRrcWpgLS1kLjZzYSNnXy1eMmRrcWpgLS1kLjZzcw%3D%3D&vvpl=1&l=02173103889916400000000000000000000ffff0a007d86a827b8&btag=e00070000&format=mp3&mime_type=audio_mpeg",
        "source_timerange": {
            "start_offset": 1.4399999999999977,
            "end_offset": 2.88
        },
        "target_timerange": {
            "start_offset": 61.872,
            "end_offset": 63.312000000000005
        },
        "ignore_audio": true,
        "audio_path": null
    },
    {
        "segment_id": "1f37a9e49d8711efaa9cfa163edc3428",
        "text": "Have a little compassion on my nerves.",
        "audio_url": "https://v16m-default.akamaized.net/a0a668ddf781a5e7f7635b88732f1da5/672de31f/video/tos/maliva/tos-maliva-v-f15faa-us/oEcMWCfixCFAcB1bIAAXQ8e3SHWeOIXdMCbrg3/?a=7073&bti=OTU0QDItLmA%3D&ch=0&cr=0&dr=4&er=0&lr=unwatermarked&cd=0%7C0%7C0%7C0&br=312&bt=156&ds=5&ft=.cwOVInz7ThklqvOXq8Zmo&qs=13&rc=anF5N2o5cmhydjUzNzhoM0BpanF5N2o5cmhydjUzNzhoM0A0YXFqMmRzcWpgLS1kLjZzYSM0YXFqMmRzcWpgLS1kLjZzcw%3D%3D&vvpl=1&l=02173103889916400000000000000000000ffff0a007d86a827b8&btag=e00070000&format=mp3&mime_type=audio_mpeg",
        "source_timerange": {
            "start_offset": 0,
            "end_offset": 2.208
        },
        "target_timerange": {
            "start_offset": 63.312000000000005,
            "end_offset": 65.52
        },
        "ignore_audio": false,
        "audio_path": null
    },
    {
        "segment_id": "1f37b4029d8711efaa9cfa163edc3428",
        "text": "You tear them to pieces.”",
        "audio_url": "https://v16m-default.akamaized.net/102c7fc60a956f8082bd997f2c0742b5/672de31e/video/tos/maliva/tos-maliva-v-f15faa-us/ocrddzAPEijRv4AgsjzwtBrAlEJTkMAfoFXiAq/?a=7073&bti=OTU0QDItLmA%3D&ch=0&cr=0&dr=4&er=0&lr=unwatermarked&cd=0%7C0%7C0%7C0&br=312&bt=156&ds=5&ft=.cwOVInz7ThklqvOXq8Zmo&qs=13&rc=ajY3bm05cmhydjUzNzhoM0BpajY3bm05cmhydjUzNzhoM0A0bW5fMmRzcWpgLS1kLjZzYSM0bW5fMmRzcWpgLS1kLjZzcw%3D%3D&vvpl=1&l=02173103889916400000000000000000000ffff0a007d86a827b8&btag=e00070000&format=mp3&mime_type=audio_mpeg",
        "source_timerange": {
            "start_offset": 0,
            "end_offset": 1.704
        },
        "target_timerange": {
            "start_offset": 65.52,
            "end_offset": 67.224
        },
        "ignore_audio": false,
        "audio_path": null
    },
    {
        "segment_id": "1f37d18a9d8711efaa9cfa163edc3428",
        "text": "“Kitty has no discretion in",
        "audio_url": "https://v16m-default.akamaized.net/e4de15b152c06795299d1612c64938d2/672de321/video/tos/maliva/tos-maliva-v-f15faa-us/oUfzC5qAwzBlst0isjiddEArgDANEoAysTAkdF/?a=7073&bti=OTU0QDItLmA%3D&ch=0&cr=0&dr=4&er=0&lr=unwatermarked&cd=0%7C0%7C0%7C0&br=312&bt=156&ds=5&ft=.cwOVInz7ThklqvOXq8Zmo&qs=13&rc=am1tbWw5cmhydjUzNzhoM0Bpam1tbWw5cmhydjUzNzhoM0AuZmFiMmRzcWpgLS1kLjZzYSMuZmFiMmRzcWpgLS1kLjZzcw%3D%3D&vvpl=1&l=02173103889916400000000000000000000ffff0a007d86a827b8&btag=e00070000&format=mp3&mime_type=audio_mpeg",
        "source_timerange": {
            "start_offset": 0,
            "end_offset": 1.5759999999999987
        },
        "target_timerange": {
            "start_offset": 67.224,
            "end_offset": 68.8
        },
        "ignore_audio": false,
        "audio_path": null
    },
    {
        "segment_id": "1f37d4649d8711efaa9cfa163edc3428",
        "text": "her coughs,” said her father;",
        "audio_url": "https://v16m-default.akamaized.net/e4de15b152c06795299d1612c64938d2/672de321/video/tos/maliva/tos-maliva-v-f15faa-us/oUfzC5qAwzBlst0isjiddEArgDANEoAysTAkdF/?a=7073&bti=OTU0QDItLmA%3D&ch=0&cr=0&dr=4&er=0&lr=unwatermarked&cd=0%7C0%7C0%7C0&br=312&bt=156&ds=5&ft=.cwOVInz7ThklqvOXq8Zmo&qs=13&rc=am1tbWw5cmhydjUzNzhoM0Bpam1tbWw5cmhydjUzNzhoM0AuZmFiMmRzcWpgLS1kLjZzYSMuZmFiMmRzcWpgLS1kLjZzcw%3D%3D&vvpl=1&l=02173103889916400000000000000000000ffff0a007d86a827b8&btag=e00070000&format=mp3&mime_type=audio_mpeg",
        "source_timerange": {
            "start_offset": 1.5759999999999934,
            "end_offset": 3.1520000000000064
        },
        "target_timerange": {
            "start_offset": 68.8,
            "end_offset": 70.376
        },
        "ignore_audio": true,
        "audio_path": null
    },
    {
        "segment_id": "1f37d6b29d8711efaa9cfa163edc3428",
        "text": "“she times them ill.”",
        "audio_url": "https://v16m-default.akamaized.net/e4de15b152c06795299d1612c64938d2/672de321/video/tos/maliva/tos-maliva-v-f15faa-us/oUfzC5qAwzBlst0isjiddEArgDANEoAysTAkdF/?a=7073&bti=OTU0QDItLmA%3D&ch=0&cr=0&dr=4&er=0&lr=unwatermarked&cd=0%7C0%7C0%7C0&br=312&bt=156&ds=5&ft=.cwOVInz7ThklqvOXq8Zmo&qs=13&rc=am1tbWw5cmhydjUzNzhoM0Bpam1tbWw5cmhydjUzNzhoM0AuZmFiMmRzcWpgLS1kLjZzYSMuZmFiMmRzcWpgLS1kLjZzcw%3D%3D&vvpl=1&l=02173103889916400000000000000000000ffff0a007d86a827b8&btag=e00070000&format=mp3&mime_type=audio_mpeg",
        "source_timerange": {
            "start_offset": 3.152000000000001,
            "end_offset": 4.728
        },
        "target_timerange": {
            "start_offset": 70.376,
            "end_offset": 71.952
        },
        "ignore_audio": true,
        "audio_path": null
    },
    {
        "segment_id": "1f37f30e9d8711efaa9cfa163edc3428",
        "text": "“I do not cough for my",
        "audio_url": "https://v16m-default.akamaized.net/9cf7b1d3b169f891168ce15b5ab0f689/672de320/video/tos/maliva/tos-maliva-v-f15faa-us/oULXbLSbYJAZ3EInBLFfBBQ1kHfA6cITVADqh7/?a=7073&bti=OTU0QDItLmA%3D&ch=0&cr=0&dr=4&er=0&lr=unwatermarked&cd=0%7C0%7C0%7C0&br=312&bt=156&ds=5&ft=.cwOVInz7ThilqvOXq8Zmo&qs=13&rc=M2xoc285cmhydjUzNzhoM0BpM2xoc285cmhydjUzNzhoM0A0ZmMxMmRzcWpgLS1kLjZzYSM0ZmMxMmRzcWpgLS1kLjZzcw%3D%3D&vvpl=1&l=02173103889916400000000000000000000ffff0a007d86a827b8&btag=e00070000&format=mp3&mime_type=audio_mpeg",
        "source_timerange": {
            "start_offset": 0,
            "end_offset": 1.3359999999999888
        },
        "target_timerange": {
            "start_offset": 71.952,
            "end_offset": 73.288
        },
        "ignore_audio": false,
        "audio_path": null
    },
    {
        "segment_id": "1f37f4e49d8711efaa9cfa163edc3428",
        "text": "own amusement,” replied",
        "audio_url": "https://v16m-default.akamaized.net/9cf7b1d3b169f891168ce15b5ab0f689/672de320/video/tos/maliva/tos-maliva-v-f15faa-us/oULXbLSbYJAZ3EInBLFfBBQ1kHfA6cITVADqh7/?a=7073&bti=OTU0QDItLmA%3D&ch=0&cr=0&dr=4&er=0&lr=unwatermarked&cd=0%7C0%7C0%7C0&br=312&bt=156&ds=5&ft=.cwOVInz7ThilqvOXq8Zmo&qs=13&rc=M2xoc285cmhydjUzNzhoM0BpM2xoc285cmhydjUzNzhoM0A0ZmMxMmRzcWpgLS1kLjZzYSM0ZmMxMmRzcWpgLS1kLjZzcw%3D%3D&vvpl=1&l=02173103889916400000000000000000000ffff0a007d86a827b8&btag=e00070000&format=mp3&mime_type=audio_mpeg",
        "source_timerange": {
            "start_offset": 1.3359999999999985,
            "end_offset": 2.6720000000000015
        },
        "target_timerange": {
            "start_offset": 73.288,
            "end_offset": 74.62400000000001
        },
        "ignore_audio": true,
        "audio_path": null
    },
    {
        "segment_id": "1f37f7329d8711efaa9cfa163edc3428",
        "text": "Kitty, fretfully.",
        "audio_url": "https://v16m-default.akamaized.net/9cf7b1d3b169f891168ce15b5ab0f689/672de320/video/tos/maliva/tos-maliva-v-f15faa-us/oULXbLSbYJAZ3EInBLFfBBQ1kHfA6cITVADqh7/?a=7073&bti=OTU0QDItLmA%3D&ch=0&cr=0&dr=4&er=0&lr=unwatermarked&cd=0%7C0%7C0%7C0&br=312&bt=156&ds=5&ft=.cwOVInz7ThilqvOXq8Zmo&qs=13&rc=M2xoc285cmhydjUzNzhoM0BpM2xoc285cmhydjUzNzhoM0A0ZmMxMmRzcWpgLS1kLjZzYSM0ZmMxMmRzcWpgLS1kLjZzcw%3D%3D&vvpl=1&l=02173103889916400000000000000000000ffff0a007d86a827b8&btag=e00070000&format=mp3&mime_type=audio_mpeg",
        "source_timerange": {
            "start_offset": 2.6720000000000113,
            "end_offset": 4.008
        },
        "target_timerange": {
            "start_offset": 74.62400000000001,
            "end_offset": 75.96000000000001
        },
        "ignore_audio": true,
        "audio_path": null
    },
    {
        "segment_id": "1f380c2c9d8711efaa9cfa163edc3428",
        "text": "“When is your next ball to be,",
        "audio_url": "https://v16m-default.akamaized.net/5a8cfeaa6efe9eccdaf91caa923b4d5d/672de31f/video/tos/maliva/tos-maliva-v-f15faa-us/ogrfeXGWeHBCXLrIOQi31ASCgIabCwZIAArxIQ/?a=7073&bti=OTU0QDItLmA%3D&ch=0&cr=0&dr=4&er=0&lr=unwatermarked&cd=0%7C0%7C0%7C0&br=312&bt=156&ds=5&ft=.cwOVInz7ThilqvOXq8Zmo&qs=13&rc=ajs7NnQ5cmhydjUzNzhoM0Bpajs7NnQ5cmhydjUzNzhoM0BrNS1uMmRzcWpgLS1kLjZzYSNrNS1uMmRzcWpgLS1kLjZzcw%3D%3D&vvpl=1&l=02173103889916400000000000000000000ffff0a007d86a827b8&btag=e00070000&format=mp3&mime_type=audio_mpeg",
        "source_timerange": {
            "start_offset": 0,
            "end_offset": 1.6920000000000068
        },
        "target_timerange": {
            "start_offset": 75.96000000000001,
            "end_offset": 77.65200000000002
        },
        "ignore_audio": false,
        "audio_path": null
    },
    {
        "segment_id": "1f380e0c9d8711efaa9cfa163edc3428",
        "text": "Lizzy?”  “To-morrow fortnight.”",
        "audio_url": "https://v16m-default.akamaized.net/5a8cfeaa6efe9eccdaf91caa923b4d5d/672de31f/video/tos/maliva/tos-maliva-v-f15faa-us/ogrfeXGWeHBCXLrIOQi31ASCgIabCwZIAArxIQ/?a=7073&bti=OTU0QDItLmA%3D&ch=0&cr=0&dr=4&er=0&lr=unwatermarked&cd=0%7C0%7C0%7C0&br=312&bt=156&ds=5&ft=.cwOVInz7ThilqvOXq8Zmo&qs=13&rc=ajs7NnQ5cmhydjUzNzhoM0Bpajs7NnQ5cmhydjUzNzhoM0BrNS1uMmRzcWpgLS1kLjZzYSNrNS1uMmRzcWpgLS1kLjZzcw%3D%3D&vvpl=1&l=02173103889916400000000000000000000ffff0a007d86a827b8&btag=e00070000&format=mp3&mime_type=audio_mpeg",
        "source_timerange": {
            "start_offset": 1.6920000000000073,
            "end_offset": 3.384
        },
        "target_timerange": {
            "start_offset": 77.65200000000002,
            "end_offset": 79.34400000000001
        },
        "ignore_audio": true,
        "audio_path": null
    },
    {
        "segment_id": "1f382fe09d8711efaa9cfa163edc3428",
        "text": "“Ay, so it is,” cried her",
        "audio_url": "https://v16m-default.akamaized.net/289195393ff854637383a1ac17108189/672de327/video/tos/maliva/tos-maliva-v-f15faa-us/owEtqs5UzEkAwAg7jAliYAdiErBATuFIdofJrP/?a=7073&bti=OTU0QDItLmA%3D&ch=0&cr=0&dr=4&er=0&lr=unwatermarked&cd=0%7C0%7C0%7C0&br=312&bt=156&ds=5&ft=.cwOVInz7ThklqvOXq8Zmo&qs=13&rc=ajdmbXU5cmhydjUzNzhoM0BpajdmbXU5cmhydjUzNzhoM0BwZHE2MmRzcWpgLS1kLjZzYSNwZHE2MmRzcWpgLS1kLjZzcw%3D%3D&vvpl=1&l=02173103889916400000000000000000000ffff0a007d86a827b8&btag=e00070000&format=mp3&mime_type=audio_mpeg",
        "source_timerange": {
            "start_offset": 0,
            "end_offset": 1.4742857142857204
        },
        "target_timerange": {
            "start_offset": 79.34400000000001,
            "end_offset": 80.81828571428572
        },
        "ignore_audio": false,
        "audio_path": null
    },
    {
        "segment_id": "1f3831989d8711efaa9cfa163edc3428",
        "text": "mother, “and Mrs. Long does",
        "audio_url": "https://v16m-default.akamaized.net/289195393ff854637383a1ac17108189/672de327/video/tos/maliva/tos-maliva-v-f15faa-us/owEtqs5UzEkAwAg7jAliYAdiErBATuFIdofJrP/?a=7073&bti=OTU0QDItLmA%3D&ch=0&cr=0&dr=4&er=0&lr=unwatermarked&cd=0%7C0%7C0%7C0&br=312&bt=156&ds=5&ft=.cwOVInz7ThklqvOXq8Zmo&qs=13&rc=ajdmbXU5cmhydjUzNzhoM0BpajdmbXU5cmhydjUzNzhoM0BwZHE2MmRzcWpgLS1kLjZzYSNwZHE2MmRzcWpgLS1kLjZzcw%3D%3D&vvpl=1&l=02173103889916400000000000000000000ffff0a007d86a827b8&btag=e00070000&format=mp3&mime_type=audio_mpeg",
        "source_timerange": {
            "start_offset": 1.4742857142857133,
            "end_offset": 2.9485714285714337
        },
        "target_timerange": {
            "start_offset": 80.81828571428572,
            "end_offset": 82.29257142857143
        },
        "ignore_audio": true,
        "audio_path": null
    },
    {
        "segment_id": "1f3832ec9d8711efaa9cfa163edc3428",
        "text": "not come back till the day",
        "audio_url": "https://v16m-default.akamaized.net/289195393ff854637383a1ac17108189/672de327/video/tos/maliva/tos-maliva-v-f15faa-us/owEtqs5UzEkAwAg7jAliYAdiErBATuFIdofJrP/?a=7073&bti=OTU0QDItLmA%3D&ch=0&cr=0&dr=4&er=0&lr=unwatermarked&cd=0%7C0%7C0%7C0&br=312&bt=156&ds=5&ft=.cwOVInz7ThklqvOXq8Zmo&qs=13&rc=ajdmbXU5cmhydjUzNzhoM0BpajdmbXU5cmhydjUzNzhoM0BwZHE2MmRzcWpgLS1kLjZzYSNwZHE2MmRzcWpgLS1kLjZzcw%3D%3D&vvpl=1&l=02173103889916400000000000000000000ffff0a007d86a827b8&btag=e00070000&format=mp3&mime_type=audio_mpeg",
        "source_timerange": {
            "start_offset": 2.9485714285714266,
            "end_offset": 4.422857142857147
        },
        "target_timerange": {
            "start_offset": 82.29257142857143,
            "end_offset": 83.76685714285715
        },
        "ignore_audio": true,
        "audio_path": null
    },
    {
        "segment_id": "1f38340e9d8711efaa9cfa163edc3428",
        "text": "before; so, it will be",
        "audio_url": "https://v16m-default.akamaized.net/289195393ff854637383a1ac17108189/672de327/video/tos/maliva/tos-maliva-v-f15faa-us/owEtqs5UzEkAwAg7jAliYAdiErBATuFIdofJrP/?a=7073&bti=OTU0QDItLmA%3D&ch=0&cr=0&dr=4&er=0&lr=unwatermarked&cd=0%7C0%7C0%7C0&br=312&bt=156&ds=5&ft=.cwOVInz7ThklqvOXq8Zmo&qs=13&rc=ajdmbXU5cmhydjUzNzhoM0BpajdmbXU5cmhydjUzNzhoM0BwZHE2MmRzcWpgLS1kLjZzYSNwZHE2MmRzcWpgLS1kLjZzcw%3D%3D&vvpl=1&l=02173103889916400000000000000000000ffff0a007d86a827b8&btag=e00070000&format=mp3&mime_type=audio_mpeg",
        "source_timerange": {
            "start_offset": 4.42285714285714,
            "end_offset": 5.89714285714286
        },
        "target_timerange": {
            "start_offset": 83.76685714285715,
            "end_offset": 85.24114285714286
        },
        "ignore_audio": true,
        "audio_path": null
    },
    {
        "segment_id": "1f3835309d8711efaa9cfa163edc3428",
        "text": "impossible for her to",
        "audio_url": "https://v16m-default.akamaized.net/289195393ff854637383a1ac17108189/672de327/video/tos/maliva/tos-maliva-v-f15faa-us/owEtqs5UzEkAwAg7jAliYAdiErBATuFIdofJrP/?a=7073&bti=OTU0QDItLmA%3D&ch=0&cr=0&dr=4&er=0&lr=unwatermarked&cd=0%7C0%7C0%7C0&br=312&bt=156&ds=5&ft=.cwOVInz7ThklqvOXq8Zmo&qs=13&rc=ajdmbXU5cmhydjUzNzhoM0BpajdmbXU5cmhydjUzNzhoM0BwZHE2MmRzcWpgLS1kLjZzYSNwZHE2MmRzcWpgLS1kLjZzcw%3D%3D&vvpl=1&l=02173103889916400000000000000000000ffff0a007d86a827b8&btag=e00070000&format=mp3&mime_type=audio_mpeg",
        "source_timerange": {
            "start_offset": 5.897142857142853,
            "end_offset": 7.371428571428574
        },
        "target_timerange": {
            "start_offset": 85.24114285714286,
            "end_offset": 86.71542857142857
        },
        "ignore_audio": true,
        "audio_path": null
    },
    {
        "segment_id": "1f3836489d8711efaa9cfa163edc3428",
        "text": "introduce him, for she will",
        "audio_url": "https://v16m-default.akamaized.net/289195393ff854637383a1ac17108189/672de327/video/tos/maliva/tos-maliva-v-f15faa-us/owEtqs5UzEkAwAg7jAliYAdiErBATuFIdofJrP/?a=7073&bti=OTU0QDItLmA%3D&ch=0&cr=0&dr=4&er=0&lr=unwatermarked&cd=0%7C0%7C0%7C0&br=312&bt=156&ds=5&ft=.cwOVInz7ThklqvOXq8Zmo&qs=13&rc=ajdmbXU5cmhydjUzNzhoM0BpajdmbXU5cmhydjUzNzhoM0BwZHE2MmRzcWpgLS1kLjZzYSNwZHE2MmRzcWpgLS1kLjZzcw%3D%3D&vvpl=1&l=02173103889916400000000000000000000ffff0a007d86a827b8&btag=e00070000&format=mp3&mime_type=audio_mpeg",
        "source_timerange": {
            "start_offset": 7.371428571428567,
            "end_offset": 8.845714285714287
        },
        "target_timerange": {
            "start_offset": 86.71542857142857,
            "end_offset": 88.18971428571429
        },
        "ignore_audio": true,
        "audio_path": null
    },
    {
        "segment_id": "1f3838289d8711efaa9cfa163edc3428",
        "text": "not know him herself.”",
        "audio_url": "https://v16m-default.akamaized.net/289195393ff854637383a1ac17108189/672de327/video/tos/maliva/tos-maliva-v-f15faa-us/owEtqs5UzEkAwAg7jAliYAdiErBATuFIdofJrP/?a=7073&bti=OTU0QDItLmA%3D&ch=0&cr=0&dr=4&er=0&lr=unwatermarked&cd=0%7C0%7C0%7C0&br=312&bt=156&ds=5&ft=.cwOVInz7ThklqvOXq8Zmo&qs=13&rc=ajdmbXU5cmhydjUzNzhoM0BpajdmbXU5cmhydjUzNzhoM0BwZHE2MmRzcWpgLS1kLjZzYSNwZHE2MmRzcWpgLS1kLjZzcw%3D%3D&vvpl=1&l=02173103889916400000000000000000000ffff0a007d86a827b8&btag=e00070000&format=mp3&mime_type=audio_mpeg",
        "source_timerange": {
            "start_offset": 8.84571428571428,
            "end_offset": 10.32
        },
        "target_timerange": {
            "start_offset": 88.18971428571429,
            "end_offset": 89.664
        },
        "ignore_audio": true,
        "audio_path": null
    },
    {
        "segment_id": "1f384d729d8711efaa9cfa163edc3428",
        "text": "“Then, my dear, you may",
        "audio_url": "https://v16m-default.akamaized.net/cd44b12c0bac10cc056bc16d7f9d04d3/672de322/video/tos/maliva/tos-maliva-v-f15faa-us/o0OtdRdiADqFAEtEaAizFjABo4kiAgYrfslw71/?a=7073&bti=OTU0QDItLmA%3D&ch=0&cr=0&dr=4&er=0&lr=unwatermarked&cd=0%7C0%7C0%7C0&br=312&bt=156&ds=5&ft=.cwOVInz7ThklqvOXq8Zmo&qs=13&rc=M2hxam85cmhydjUzNzhoM0BpM2hxam85cmhydjUzNzhoM0Bwamw1MmRzcWpgLS1kLjZzYSNwamw1MmRzcWpgLS1kLjZzcw%3D%3D&vvpl=1&l=02173103889916400000000000000000000ffff0a007d86a827b8&btag=e00070000&format=mp3&mime_type=audio_mpeg",
        "source_timerange": {
            "start_offset": 0,
            "end_offset": 1.4459999999999917
        },
        "target_timerange": {
            "start_offset": 89.664,
            "end_offset": 91.11
        },
        "ignore_audio": false,
        "audio_path": null
    },
    {
        "segment_id": "1f384f209d8711efaa9cfa163edc3428",
        "text": "have the advantage of your",
        "audio_url": "https://v16m-default.akamaized.net/cd44b12c0bac10cc056bc16d7f9d04d3/672de322/video/tos/maliva/tos-maliva-v-f15faa-us/o0OtdRdiADqFAEtEaAizFjABo4kiAgYrfslw71/?a=7073&bti=OTU0QDItLmA%3D&ch=0&cr=0&dr=4&er=0&lr=unwatermarked&cd=0%7C0%7C0%7C0&br=312&bt=156&ds=5&ft=.cwOVInz7ThklqvOXq8Zmo&qs=13&rc=M2hxam85cmhydjUzNzhoM0BpM2hxam85cmhydjUzNzhoM0Bwamw1MmRzcWpgLS1kLjZzYSNwamw1MmRzcWpgLS1kLjZzcw%3D%3D&vvpl=1&l=02173103889916400000000000000000000ffff0a007d86a827b8&btag=e00070000&format=mp3&mime_type=audio_mpeg",
        "source_timerange": {
            "start_offset": 1.445999999999998,
            "end_offset": 2.892000000000004
        },
        "target_timerange": {
            "start_offset": 91.11,
            "end_offset": 92.55600000000001
        },
        "ignore_audio": true,
        "audio_path": null
    },
    {
        "segment_id": "1f3850ce9d8711efaa9cfa163edc3428",
        "text": "friend, and introduce Mr.",
        "audio_url": "https://v16m-default.akamaized.net/cd44b12c0bac10cc056bc16d7f9d04d3/672de322/video/tos/maliva/tos-maliva-v-f15faa-us/o0OtdRdiADqFAEtEaAizFjABo4kiAgYrfslw71/?a=7073&bti=OTU0QDItLmA%3D&ch=0&cr=0&dr=4&er=0&lr=unwatermarked&cd=0%7C0%7C0%7C0&br=312&bt=156&ds=5&ft=.cwOVInz7ThklqvOXq8Zmo&qs=13&rc=M2hxam85cmhydjUzNzhoM0BpM2hxam85cmhydjUzNzhoM0Bwamw1MmRzcWpgLS1kLjZzYSNwamw1MmRzcWpgLS1kLjZzcw%3D%3D&vvpl=1&l=02173103889916400000000000000000000ffff0a007d86a827b8&btag=e00070000&format=mp3&mime_type=audio_mpeg",
        "source_timerange": {
            "start_offset": 2.89200000000001,
            "end_offset": 4.338000000000002
        },
        "target_timerange": {
            "start_offset": 92.55600000000001,
            "end_offset": 94.00200000000001
        },
        "ignore_audio": true,
        "audio_path": null
    },
    {
        "segment_id": "1f3852229d8711efaa9cfa163edc3428",
        "text": "Bingley to _her_.”",
        "audio_url": "https://v16m-default.akamaized.net/cd44b12c0bac10cc056bc16d7f9d04d3/672de322/video/tos/maliva/tos-maliva-v-f15faa-us/o0OtdRdiADqFAEtEaAizFjABo4kiAgYrfslw71/?a=7073&bti=OTU0QDItLmA%3D&ch=0&cr=0&dr=4&er=0&lr=unwatermarked&cd=0%7C0%7C0%7C0&br=312&bt=156&ds=5&ft=.cwOVInz7ThklqvOXq8Zmo&qs=13&rc=M2hxam85cmhydjUzNzhoM0BpM2hxam85cmhydjUzNzhoM0Bwamw1MmRzcWpgLS1kLjZzYSNwamw1MmRzcWpgLS1kLjZzcw%3D%3D&vvpl=1&l=02173103889916400000000000000000000ffff0a007d86a827b8&btag=e00070000&format=mp3&mime_type=audio_mpeg",
        "source_timerange": {
            "start_offset": 4.338000000000008,
            "end_offset": 5.784
        },
        "target_timerange": {
            "start_offset": 94.00200000000001,
            "end_offset": 95.44800000000001
        },
        "ignore_audio": true,
        "audio_path": null
    },
    {
        "segment_id": "1f3880809d8711efaa9cfa163edc3428",
        "text": "“Impossible, Mr. Bennet,",
        "audio_url": "https://v16m-default.akamaized.net/a2f2c461d7af669203fcafbb298a3671/672de326/video/tos/maliva/tos-maliva-v-f15faa-us/oUEAtz6wsAsAHoqu8iEFAiigdjBXFlAsgfUdrk/?a=7073&bti=OTU0QDItLmA%3D&ch=0&cr=0&dr=4&er=0&lr=unwatermarked&cd=0%7C0%7C0%7C0&br=312&bt=156&ds=5&ft=.cwOVInz7ThulqvOXq8Zmo&qs=13&rc=MzhlZXY5cmhydjUzNzhoM0BpMzhlZXY5cmhydjUzNzhoM0BeaGhkMmRzcWpgLS1kLjZzYSNeaGhkMmRzcWpgLS1kLjZzcw%3D%3D&vvpl=1&l=02173103889916400000000000000000000ffff0a007d86a827b8&btag=e00070000&format=mp3&mime_type=audio_mpeg",
        "source_timerange": {
            "start_offset": 0,
            "end_offset": 1.4200000000000053
        },
        "target_timerange": {
            "start_offset": 95.44800000000001,
            "end_offset": 96.86800000000001
        },
        "ignore_audio": false,
        "audio_path": null
    },
    {
        "segment_id": "1f3883649d8711efaa9cfa163edc3428",
        "text": "impossible, when I am not",
        "audio_url": "https://v16m-default.akamaized.net/a2f2c461d7af669203fcafbb298a3671/672de326/video/tos/maliva/tos-maliva-v-f15faa-us/oUEAtz6wsAsAHoqu8iEFAiigdjBXFlAsgfUdrk/?a=7073&bti=OTU0QDItLmA%3D&ch=0&cr=0&dr=4&er=0&lr=unwatermarked&cd=0%7C0%7C0%7C0&br=312&bt=156&ds=5&ft=.cwOVInz7ThulqvOXq8Zmo&qs=13&rc=MzhlZXY5cmhydjUzNzhoM0BpMzhlZXY5cmhydjUzNzhoM0BeaGhkMmRzcWpgLS1kLjZzYSNeaGhkMmRzcWpgLS1kLjZzcw%3D%3D&vvpl=1&l=02173103889916400000000000000000000ffff0a007d86a827b8&btag=e00070000&format=mp3&mime_type=audio_mpeg",
        "source_timerange": {
            "start_offset": 1.4200000000000017,
            "end_offset": 2.840000000000007
        },
        "target_timerange": {
            "start_offset": 96.86800000000001,
            "end_offset": 98.28800000000001
        },
        "ignore_audio": true,
        "audio_path": null
    },
    {
        "segment_id": "1f3886489d8711efaa9cfa163edc3428",
        "text": "acquainted with him",
        "audio_url": "https://v16m-default.akamaized.net/a2f2c461d7af669203fcafbb298a3671/672de326/video/tos/maliva/tos-maliva-v-f15faa-us/oUEAtz6wsAsAHoqu8iEFAiigdjBXFlAsgfUdrk/?a=7073&bti=OTU0QDItLmA%3D&ch=0&cr=0&dr=4&er=0&lr=unwatermarked&cd=0%7C0%7C0%7C0&br=312&bt=156&ds=5&ft=.cwOVInz7ThulqvOXq8Zmo&qs=13&rc=MzhlZXY5cmhydjUzNzhoM0BpMzhlZXY5cmhydjUzNzhoM0BeaGhkMmRzcWpgLS1kLjZzYSNeaGhkMmRzcWpgLS1kLjZzcw%3D%3D&vvpl=1&l=02173103889916400000000000000000000ffff0a007d86a827b8&btag=e00070000&format=mp3&mime_type=audio_mpeg",
        "source_timerange": {
            "start_offset": 2.8400000000000034,
            "end_offset": 4.2599999999999945
        },
        "target_timerange": {
            "start_offset": 98.28800000000001,
            "end_offset": 99.708
        },
        "ignore_audio": true,
        "audio_path": null
    },
    {
        "segment_id": "1f3888be9d8711efaa9cfa163edc3428",
        "text": "myself; how can you be so",
        "audio_url": "https://v16m-default.akamaized.net/a2f2c461d7af669203fcafbb298a3671/672de326/video/tos/maliva/tos-maliva-v-f15faa-us/oUEAtz6wsAsAHoqu8iEFAiigdjBXFlAsgfUdrk/?a=7073&bti=OTU0QDItLmA%3D&ch=0&cr=0&dr=4&er=0&lr=unwatermarked&cd=0%7C0%7C0%7C0&br=312&bt=156&ds=5&ft=.cwOVInz7ThulqvOXq8Zmo&qs=13&rc=MzhlZXY5cmhydjUzNzhoM0BpMzhlZXY5cmhydjUzNzhoM0BeaGhkMmRzcWpgLS1kLjZzYSNeaGhkMmRzcWpgLS1kLjZzcw%3D%3D&vvpl=1&l=02173103889916400000000000000000000ffff0a007d86a827b8&btag=e00070000&format=mp3&mime_type=audio_mpeg",
        "source_timerange": {
            "start_offset": 4.259999999999991,
            "end_offset": 5.679999999999996
        },
        "target_timerange": {
            "start_offset": 99.708,
            "end_offset": 101.128
        },
        "ignore_audio": true,
        "audio_path": null
    },
    {
        "segment_id": "1f388b169d8711efaa9cfa163edc3428",
        "text": "teasing?”  “I honour your",
        "audio_url": "https://v16m-default.akamaized.net/a2f2c461d7af669203fcafbb298a3671/672de326/video/tos/maliva/tos-maliva-v-f15faa-us/oUEAtz6wsAsAHoqu8iEFAiigdjBXFlAsgfUdrk/?a=7073&bti=OTU0QDItLmA%3D&ch=0&cr=0&dr=4&er=0&lr=unwatermarked&cd=0%7C0%7C0%7C0&br=312&bt=156&ds=5&ft=.cwOVInz7ThulqvOXq8Zmo&qs=13&rc=MzhlZXY5cmhydjUzNzhoM0BpMzhlZXY5cmhydjUzNzhoM0BeaGhkMmRzcWpgLS1kLjZzYSNeaGhkMmRzcWpgLS1kLjZzcw%3D%3D&vvpl=1&l=02173103889916400000000000000000000ffff0a007d86a827b8&btag=e00070000&format=mp3&mime_type=audio_mpeg",
        "source_timerange": {
            "start_offset": 5.679999999999993,
            "end_offset": 7.099999999999998
        },
        "target_timerange": {
            "start_offset": 101.128,
            "end_offset": 102.548
        },
        "ignore_audio": true,
        "audio_path": null
    },
    {
        "segment_id": "1f388d5a9d8711efaa9cfa163edc3428",
        "text": "circumspection.",
        "audio_url": "https://v16m-default.akamaized.net/a2f2c461d7af669203fcafbb298a3671/672de326/video/tos/maliva/tos-maliva-v-f15faa-us/oUEAtz6wsAsAHoqu8iEFAiigdjBXFlAsgfUdrk/?a=7073&bti=OTU0QDItLmA%3D&ch=0&cr=0&dr=4&er=0&lr=unwatermarked&cd=0%7C0%7C0%7C0&br=312&bt=156&ds=5&ft=.cwOVInz7ThulqvOXq8Zmo&qs=13&rc=MzhlZXY5cmhydjUzNzhoM0BpMzhlZXY5cmhydjUzNzhoM0BeaGhkMmRzcWpgLS1kLjZzYSNeaGhkMmRzcWpgLS1kLjZzcw%3D%3D&vvpl=1&l=02173103889916400000000000000000000ffff0a007d86a827b8&btag=e00070000&format=mp3&mime_type=audio_mpeg",
        "source_timerange": {
            "start_offset": 7.099999999999994,
            "end_offset": 8.52
        },
        "target_timerange": {
            "start_offset": 102.548,
            "end_offset": 103.968
        },
        "ignore_audio": true,
        "audio_path": null
    },
    {
        "segment_id": "1f38a25e9d8711efaa9cfa163edc3428",
        "text": "A fortnight’s acquaintance",
        "audio_url": "https://v16m-default.akamaized.net/0fdee1d24e24d67de3428e6fb570364a/672de320/video/tos/maliva/tos-maliva-v-f15faa-us/o0AfYi6dLrpV0B1TECjBeJA7AtihLncJQABtEl/?a=7073&bti=OTU0QDItLmA%3D&ch=0&cr=0&dr=4&er=0&lr=unwatermarked&cd=0%7C0%7C0%7C0&br=312&bt=156&ds=5&ft=.cwOVInz7ThulqvOXq8Zmo&qs=13&rc=M21oc285cmlydjUzNzhoM0BpM21oc285cmlydjUzNzhoM0AuZmMxMmRjcWpgLS1kLjZzYSMuZmMxMmRjcWpgLS1kLjZzcw%3D%3D&vvpl=1&l=02173103889916400000000000000000000ffff0a007d86a827b8&btag=e00070000&format=mp3&mime_type=audio_mpeg",
        "source_timerange": {
            "start_offset": 0,
            "end_offset": 1.404000000000004
        },
        "target_timerange": {
            "start_offset": 103.968,
            "end_offset": 105.372
        },
        "ignore_audio": false,
        "audio_path": null
    },
    {
        "segment_id": "1f38a5069d8711efaa9cfa163edc3428",
        "text": "is certainly very little.",
        "audio_url": "https://v16m-default.akamaized.net/0fdee1d24e24d67de3428e6fb570364a/672de320/video/tos/maliva/tos-maliva-v-f15faa-us/o0AfYi6dLrpV0B1TECjBeJA7AtihLncJQABtEl/?a=7073&bti=OTU0QDItLmA%3D&ch=0&cr=0&dr=4&er=0&lr=unwatermarked&cd=0%7C0%7C0%7C0&br=312&bt=156&ds=5&ft=.cwOVInz7ThulqvOXq8Zmo&qs=13&rc=M21oc285cmlydjUzNzhoM0BpM21oc285cmlydjUzNzhoM0AuZmMxMmRjcWpgLS1kLjZzYSMuZmMxMmRjcWpgLS1kLjZzcw%3D%3D&vvpl=1&l=02173103889916400000000000000000000ffff0a007d86a827b8&btag=e00070000&format=mp3&mime_type=audio_mpeg",
        "source_timerange": {
            "start_offset": 1.4039999999999964,
            "end_offset": 2.8080000000000003
        },
        "target_timerange": {
            "start_offset": 105.372,
            "end_offset": 106.776
        },
        "ignore_audio": true,
        "audio_path": null
    },
    {
        "segment_id": "1f38bc309d8711efaa9cfa163edc3428",
        "text": "One cannot know what a man really",
        "audio_url": "https://v16m-default.akamaized.net/230a5d93be8ff7798bbd7d6850e8855f/672de321/video/tos/maliva/tos-maliva-v-f15faa-us/oAF6rAvnLLZ3BA9AEx5YAVjBJ1tfEHfAhXCQED/?a=7073&bti=OTU0QDItLmA%3D&ch=0&cr=0&dr=4&er=0&lr=unwatermarked&cd=0%7C0%7C0%7C0&br=312&bt=156&ds=5&ft=.cwOVInz7ThulqvOXq8Zmo&qs=13&rc=MzN5eXI5cmlydjUzNzhoM0BpMzN5eXI5cmlydjUzNzhoM0AuYjRpMmRjcWpgLS1kLjZzYSMuYjRpMmRjcWpgLS1kLjZzcw%3D%3D&vvpl=1&l=02173103889916400000000000000000000ffff0a007d86a827b8&btag=e00070000&format=mp3&mime_type=audio_mpeg",
        "source_timerange": {
            "start_offset": 0,
            "end_offset": 1.8119999999999883
        },
        "target_timerange": {
            "start_offset": 106.776,
            "end_offset": 108.588
        },
        "ignore_audio": false,
        "audio_path": null
    },
    {
        "segment_id": "1f38beec9d8711efaa9cfa163edc3428",
        "text": "is by the end of a fortnight.",
        "audio_url": "https://v16m-default.akamaized.net/230a5d93be8ff7798bbd7d6850e8855f/672de321/video/tos/maliva/tos-maliva-v-f15faa-us/oAF6rAvnLLZ3BA9AEx5YAVjBJ1tfEHfAhXCQED/?a=7073&bti=OTU0QDItLmA%3D&ch=0&cr=0&dr=4&er=0&lr=unwatermarked&cd=0%7C0%7C0%7C0&br=312&bt=156&ds=5&ft=.cwOVInz7ThulqvOXq8Zmo&qs=13&rc=MzN5eXI5cmlydjUzNzhoM0BpMzN5eXI5cmlydjUzNzhoM0AuYjRpMmRjcWpgLS1kLjZzYSMuYjRpMmRjcWpgLS1kLjZzcw%3D%3D&vvpl=1&l=02173103889916400000000000000000000ffff0a007d86a827b8&btag=e00070000&format=mp3&mime_type=audio_mpeg",
        "source_timerange": {
            "start_offset": 1.8119999999999976,
            "end_offset": 3.624
        },
        "target_timerange": {
            "start_offset": 108.588,
            "end_offset": 110.4
        },
        "ignore_audio": true,
        "audio_path": null
    },
    {
        "segment_id": "1f3901ae9d8711efaa9cfa163edc3428",
        "text": "But if _we_ do not venture,",
        "audio_url": "https://v16m-default.akamaized.net/532f96a6ce8c46cd2205c78d0dcaf80d/672de32b/video/tos/maliva/tos-maliva-v-f15faa-us/o0ALJEeEB9A6YBjXQifrL3AAGiFzAnBhO3bVKt/?a=7073&bti=OTU0QDItLmA%3D&ch=0&cr=0&dr=4&er=0&lr=unwatermarked&cd=0%7C0%7C0%7C0&br=312&bt=156&ds=5&ft=.cwOVInz7ThulqvOXq8Zmo&qs=13&rc=anFudnE5cmlydjUzNzhoM0BpanFudnE5cmlydjUzNzhoM0BhYHMvMmRjcWpgLS1kLjZzYSNhYHMvMmRjcWpgLS1kLjZzcw%3D%3D&vvpl=1&l=02173103889916400000000000000000000ffff0a007d86a827b8&btag=e00070000&format=mp3&mime_type=audio_mpeg",
        "source_timerange": {
            "start_offset": 0,
            "end_offset": 1.482666666666665
        },
        "target_timerange": {
            "start_offset": 110.4,
            "end_offset": 111.88266666666667
        },
        "ignore_audio": false,
        "audio_path": null
    },
    {
        "segment_id": "1f3903c09d8711efaa9cfa163edc3428",
        "text": "somebody else will; and",
        "audio_url": "https://v16m-default.akamaized.net/532f96a6ce8c46cd2205c78d0dcaf80d/672de32b/video/tos/maliva/tos-maliva-v-f15faa-us/o0ALJEeEB9A6YBjXQifrL3AAGiFzAnBhO3bVKt/?a=7073&bti=OTU0QDItLmA%3D&ch=0&cr=0&dr=4&er=0&lr=unwatermarked&cd=0%7C0%7C0%7C0&br=312&bt=156&ds=5&ft=.cwOVInz7ThulqvOXq8Zmo&qs=13&rc=anFudnE5cmlydjUzNzhoM0BpanFudnE5cmlydjUzNzhoM0BhYHMvMmRjcWpgLS1kLjZzYSNhYHMvMmRjcWpgLS1kLjZzcw%3D%3D&vvpl=1&l=02173103889916400000000000000000000ffff0a007d86a827b8&btag=e00070000&format=mp3&mime_type=audio_mpeg",
        "source_timerange": {
            "start_offset": 1.4826666666666597,
            "end_offset": 2.965333333333339
        },
        "target_timerange": {
            "start_offset": 111.88266666666667,
            "end_offset": 113.36533333333334
        },
        "ignore_audio": true,
        "audio_path": null
    },
    {
        "segment_id": "1f39051e9d8711efaa9cfa163edc3428",
        "text": "after all, Mrs. Long and",
        "audio_url": "https://v16m-default.akamaized.net/532f96a6ce8c46cd2205c78d0dcaf80d/672de32b/video/tos/maliva/tos-maliva-v-f15faa-us/o0ALJEeEB9A6YBjXQifrL3AAGiFzAnBhO3bVKt/?a=7073&bti=OTU0QDItLmA%3D&ch=0&cr=0&dr=4&er=0&lr=unwatermarked&cd=0%7C0%7C0%7C0&br=312&bt=156&ds=5&ft=.cwOVInz7ThulqvOXq8Zmo&qs=13&rc=anFudnE5cmlydjUzNzhoM0BpanFudnE5cmlydjUzNzhoM0BhYHMvMmRjcWpgLS1kLjZzYSNhYHMvMmRjcWpgLS1kLjZzcw%3D%3D&vvpl=1&l=02173103889916400000000000000000000ffff0a007d86a827b8&btag=e00070000&format=mp3&mime_type=audio_mpeg",
        "source_timerange": {
            "start_offset": 2.9653333333333336,
            "end_offset": 4.447999999999999
        },
        "target_timerange": {
            "start_offset": 113.36533333333334,
            "end_offset": 114.848
        },
        "ignore_audio": true,
        "audio_path": null
    },
    {
        "segment_id": "1f39065e9d8711efaa9cfa163edc3428",
        "text": "her nieces must stand their",
        "audio_url": "https://v16m-default.akamaized.net/532f96a6ce8c46cd2205c78d0dcaf80d/672de32b/video/tos/maliva/tos-maliva-v-f15faa-us/o0ALJEeEB9A6YBjXQifrL3AAGiFzAnBhO3bVKt/?a=7073&bti=OTU0QDItLmA%3D&ch=0&cr=0&dr=4&er=0&lr=unwatermarked&cd=0%7C0%7C0%7C0&br=312&bt=156&ds=5&ft=.cwOVInz7ThulqvOXq8Zmo&qs=13&rc=anFudnE5cmlydjUzNzhoM0BpanFudnE5cmlydjUzNzhoM0BhYHMvMmRjcWpgLS1kLjZzYSNhYHMvMmRjcWpgLS1kLjZzcw%3D%3D&vvpl=1&l=02173103889916400000000000000000000ffff0a007d86a827b8&btag=e00070000&format=mp3&mime_type=audio_mpeg",
        "source_timerange": {
            "start_offset": 4.447999999999993,
            "end_offset": 5.9306666666666725
        },
        "target_timerange": {
            "start_offset": 114.848,
            "end_offset": 116.33066666666667
        },
        "ignore_audio": true,
        "audio_path": null
    },
    {
        "segment_id": "1f3907809d8711efaa9cfa163edc3428",
        "text": "chance; and, therefore, as",
        "audio_url": "https://v16m-default.akamaized.net/532f96a6ce8c46cd2205c78d0dcaf80d/672de32b/video/tos/maliva/tos-maliva-v-f15faa-us/o0ALJEeEB9A6YBjXQifrL3AAGiFzAnBhO3bVKt/?a=7073&bti=OTU0QDItLmA%3D&ch=0&cr=0&dr=4&er=0&lr=unwatermarked&cd=0%7C0%7C0%7C0&br=312&bt=156&ds=5&ft=.cwOVInz7ThulqvOXq8Zmo&qs=13&rc=anFudnE5cmlydjUzNzhoM0BpanFudnE5cmlydjUzNzhoM0BhYHMvMmRjcWpgLS1kLjZzYSNhYHMvMmRjcWpgLS1kLjZzcw%3D%3D&vvpl=1&l=02173103889916400000000000000000000ffff0a007d86a827b8&btag=e00070000&format=mp3&mime_type=audio_mpeg",
        "source_timerange": {
            "start_offset": 5.930666666666667,
            "end_offset": 7.413333333333332
        },
        "target_timerange": {
            "start_offset": 116.33066666666667,
            "end_offset": 117.81333333333333
        },
        "ignore_audio": true,
        "audio_path": null
    },
    {
        "segment_id": "1f3908989d8711efaa9cfa163edc3428",
        "text": "she will think it an act of",
        "audio_url": "https://v16m-default.akamaized.net/532f96a6ce8c46cd2205c78d0dcaf80d/672de32b/video/tos/maliva/tos-maliva-v-f15faa-us/o0ALJEeEB9A6YBjXQifrL3AAGiFzAnBhO3bVKt/?a=7073&bti=OTU0QDItLmA%3D&ch=0&cr=0&dr=4&er=0&lr=unwatermarked&cd=0%7C0%7C0%7C0&br=312&bt=156&ds=5&ft=.cwOVInz7ThulqvOXq8Zmo&qs=13&rc=anFudnE5cmlydjUzNzhoM0BpanFudnE5cmlydjUzNzhoM0BhYHMvMmRjcWpgLS1kLjZzYSNhYHMvMmRjcWpgLS1kLjZzcw%3D%3D&vvpl=1&l=02173103889916400000000000000000000ffff0a007d86a827b8&btag=e00070000&format=mp3&mime_type=audio_mpeg",
        "source_timerange": {
            "start_offset": 7.413333333333327,
            "end_offset": 8.896000000000006
        },
        "target_timerange": {
            "start_offset": 117.81333333333333,
            "end_offset": 119.296
        },
        "ignore_audio": true,
        "audio_path": null
    },
    {
        "segment_id": "1f3909ba9d8711efaa9cfa163edc3428",
        "text": "kindness, if you decline",
        "audio_url": "https://v16m-default.akamaized.net/532f96a6ce8c46cd2205c78d0dcaf80d/672de32b/video/tos/maliva/tos-maliva-v-f15faa-us/o0ALJEeEB9A6YBjXQifrL3AAGiFzAnBhO3bVKt/?a=7073&bti=OTU0QDItLmA%3D&ch=0&cr=0&dr=4&er=0&lr=unwatermarked&cd=0%7C0%7C0%7C0&br=312&bt=156&ds=5&ft=.cwOVInz7ThulqvOXq8Zmo&qs=13&rc=anFudnE5cmlydjUzNzhoM0BpanFudnE5cmlydjUzNzhoM0BhYHMvMmRjcWpgLS1kLjZzYSNhYHMvMmRjcWpgLS1kLjZzcw%3D%3D&vvpl=1&l=02173103889916400000000000000000000ffff0a007d86a827b8&btag=e00070000&format=mp3&mime_type=audio_mpeg",
        "source_timerange": {
            "start_offset": 8.896,
            "end_offset": 10.378666666666666
        },
        "target_timerange": {
            "start_offset": 119.296,
            "end_offset": 120.77866666666667
        },
        "ignore_audio": true,
        "audio_path": null
    },
    {
        "segment_id": "1f390ad29d8711efaa9cfa163edc3428",
        "text": "the office, I will take it",
        "audio_url": "https://v16m-default.akamaized.net/532f96a6ce8c46cd2205c78d0dcaf80d/672de32b/video/tos/maliva/tos-maliva-v-f15faa-us/o0ALJEeEB9A6YBjXQifrL3AAGiFzAnBhO3bVKt/?a=7073&bti=OTU0QDItLmA%3D&ch=0&cr=0&dr=4&er=0&lr=unwatermarked&cd=0%7C0%7C0%7C0&br=312&bt=156&ds=5&ft=.cwOVInz7ThulqvOXq8Zmo&qs=13&rc=anFudnE5cmlydjUzNzhoM0BpanFudnE5cmlydjUzNzhoM0BhYHMvMmRjcWpgLS1kLjZzYSNhYHMvMmRjcWpgLS1kLjZzcw%3D%3D&vvpl=1&l=02173103889916400000000000000000000ffff0a007d86a827b8&btag=e00070000&format=mp3&mime_type=audio_mpeg",
        "source_timerange": {
            "start_offset": 10.37866666666666,
            "end_offset": 11.86133333333334
        },
        "target_timerange": {
            "start_offset": 120.77866666666667,
            "end_offset": 122.26133333333334
        },
        "ignore_audio": true,
        "audio_path": null
    },
    {
        "segment_id": "1f390bea9d8711efaa9cfa163edc3428",
        "text": "on myself.”",
        "audio_url": "https://v16m-default.akamaized.net/532f96a6ce8c46cd2205c78d0dcaf80d/672de32b/video/tos/maliva/tos-maliva-v-f15faa-us/o0ALJEeEB9A6YBjXQifrL3AAGiFzAnBhO3bVKt/?a=7073&bti=OTU0QDItLmA%3D&ch=0&cr=0&dr=4&er=0&lr=unwatermarked&cd=0%7C0%7C0%7C0&br=312&bt=156&ds=5&ft=.cwOVInz7ThulqvOXq8Zmo&qs=13&rc=anFudnE5cmlydjUzNzhoM0BpanFudnE5cmlydjUzNzhoM0BhYHMvMmRjcWpgLS1kLjZzYSNhYHMvMmRjcWpgLS1kLjZzcw%3D%3D&vvpl=1&l=02173103889916400000000000000000000ffff0a007d86a827b8&btag=e00070000&format=mp3&mime_type=audio_mpeg",
        "source_timerange": {
            "start_offset": 11.861333333333334,
            "end_offset": 13.344
        },
        "target_timerange": {
            "start_offset": 122.26133333333334,
            "end_offset": 123.744
        },
        "ignore_audio": true,
        "audio_path": null
    },
    {
        "segment_id": "1f3916a89d8711efaa9cfa163edc3428",
        "text": "The girls stared at their father.",
        "audio_url": "https://v16m-default.akamaized.net/6aad3b390d22a53282117afd9c04969d/672de31f/video/tos/maliva/tos-maliva-v-f15faa-us/oIE0tAVhEBLfrEAtAnAQY1bVJBF6NjLDYop9of/?a=7073&bti=OTU0QDItLmA%3D&ch=0&cr=0&dr=4&er=0&lr=unwatermarked&cd=0%7C0%7C0%7C0&br=312&bt=156&ds=5&ft=.cwOVInz7ThulqvOXq8Zmo&qs=13&rc=amdvcHk5cmlydjUzNzhoM0BpamdvcHk5cmlydjUzNzhoM0BuXjJhMmRjcWpgLS1kLjZzYSNuXjJhMmRjcWpgLS1kLjZzcw%3D%3D&vvpl=1&l=02173103889916400000000000000000000ffff0a007d86a827b8&btag=e00070000&format=mp3&mime_type=audio_mpeg",
        "source_timerange": {
            "start_offset": 0,
            "end_offset": 1.824
        },
        "target_timerange": {
            "start_offset": 123.744,
            "end_offset": 125.568
        },
        "ignore_audio": false,
        "audio_path": null
    },
    {
        "segment_id": "1f3932969d8711efaa9cfa163edc3428",
        "text": "Mrs. Bennet said only,",
        "audio_url": "https://v16m-default.akamaized.net/17256881bd4ba8f2454248fe30559ab2/672de325/video/tos/maliva/tos-maliva-v-f15faa-us/ogEhtFnZYBAoBID3Ef7RAJAQE5jd4Le96A6LVr/?a=7073&bti=OTU0QDItLmA%3D&ch=0&cr=0&dr=4&er=0&lr=unwatermarked&cd=0%7C0%7C0%7C0&br=312&bt=156&ds=5&ft=.cwOVInz7ThulqvOXq8Zmo&qs=13&rc=Mzs2cXg5cmlydjUzNzhoM0BpMzs2cXg5cmlydjUzNzhoM0BwaTZgMmRjcWpgLS1kLjZzYSNwaTZgMmRjcWpgLS1kLjZzcw%3D%3D&vvpl=1&l=02173103889916400000000000000000000ffff0a007d86a827b8&btag=e00070000&format=mp3&mime_type=audio_mpeg",
        "source_timerange": {
            "start_offset": 0,
            "end_offset": 1.487999999999988
        },
        "target_timerange": {
            "start_offset": 125.568,
            "end_offset": 127.056
        },
        "ignore_audio": false,
        "audio_path": null
    },
    {
        "segment_id": "1f3934449d8711efaa9cfa163edc3428",
        "text": "“Nonsense, nonsense!”",
        "audio_url": "https://v16m-default.akamaized.net/17256881bd4ba8f2454248fe30559ab2/672de325/video/tos/maliva/tos-maliva-v-f15faa-us/ogEhtFnZYBAoBID3Ef7RAJAQE5jd4Le96A6LVr/?a=7073&bti=OTU0QDItLmA%3D&ch=0&cr=0&dr=4&er=0&lr=unwatermarked&cd=0%7C0%7C0%7C0&br=312&bt=156&ds=5&ft=.cwOVInz7ThulqvOXq8Zmo&qs=13&rc=Mzs2cXg5cmlydjUzNzhoM0BpMzs2cXg5cmlydjUzNzhoM0BwaTZgMmRjcWpgLS1kLjZzYSNwaTZgMmRjcWpgLS1kLjZzcw%3D%3D&vvpl=1&l=02173103889916400000000000000000000ffff0a007d86a827b8&btag=e00070000&format=mp3&mime_type=audio_mpeg",
        "source_timerange": {
            "start_offset": 1.4879999999999995,
            "end_offset": 2.9760000000000018
        },
        "target_timerange": {
            "start_offset": 127.056,
            "end_offset": 128.544
        },
        "ignore_audio": true,
        "audio_path": null
    },
    {
        "segment_id": "1f39358e9d8711efaa9cfa163edc3428",
        "text": "“What can be the meaning",
        "audio_url": "https://v16m-default.akamaized.net/17256881bd4ba8f2454248fe30559ab2/672de325/video/tos/maliva/tos-maliva-v-f15faa-us/ogEhtFnZYBAoBID3Ef7RAJAQE5jd4Le96A6LVr/?a=7073&bti=OTU0QDItLmA%3D&ch=0&cr=0&dr=4&er=0&lr=unwatermarked&cd=0%7C0%7C0%7C0&br=312&bt=156&ds=5&ft=.cwOVInz7ThulqvOXq8Zmo&qs=13&rc=Mzs2cXg5cmlydjUzNzhoM0BpMzs2cXg5cmlydjUzNzhoM0BwaTZgMmRjcWpgLS1kLjZzYSNwaTZgMmRjcWpgLS1kLjZzcw%3D%3D&vvpl=1&l=02173103889916400000000000000000000ffff0a007d86a827b8&btag=e00070000&format=mp3&mime_type=audio_mpeg",
        "source_timerange": {
            "start_offset": 2.9760000000000133,
            "end_offset": 4.464000000000001
        },
        "target_timerange": {
            "start_offset": 128.544,
            "end_offset": 130.032
        },
        "ignore_audio": true,
        "audio_path": null
    },
    {
        "segment_id": "1f3936b09d8711efaa9cfa163edc3428",
        "text": "of that emphatic",
        "audio_url": "https://v16m-default.akamaized.net/17256881bd4ba8f2454248fe30559ab2/672de325/video/tos/maliva/tos-maliva-v-f15faa-us/ogEhtFnZYBAoBID3Ef7RAJAQE5jd4Le96A6LVr/?a=7073&bti=OTU0QDItLmA%3D&ch=0&cr=0&dr=4&er=0&lr=unwatermarked&cd=0%7C0%7C0%7C0&br=312&bt=156&ds=5&ft=.cwOVInz7ThulqvOXq8Zmo&qs=13&rc=Mzs2cXg5cmlydjUzNzhoM0BpMzs2cXg5cmlydjUzNzhoM0BwaTZgMmRjcWpgLS1kLjZzYSNwaTZgMmRjcWpgLS1kLjZzcw%3D%3D&vvpl=1&l=02173103889916400000000000000000000ffff0a007d86a827b8&btag=e00070000&format=mp3&mime_type=audio_mpeg",
        "source_timerange": {
            "start_offset": 4.464000000000013,
            "end_offset": 5.952000000000001
        },
        "target_timerange": {
            "start_offset": 130.032,
            "end_offset": 131.52
        },
        "ignore_audio": true,
        "audio_path": null
    },
    {
        "segment_id": "1f3937d29d8711efaa9cfa163edc3428",
        "text": "exclamation?” cried he.",
        "audio_url": "https://v16m-default.akamaized.net/17256881bd4ba8f2454248fe30559ab2/672de325/video/tos/maliva/tos-maliva-v-f15faa-us/ogEhtFnZYBAoBID3Ef7RAJAQE5jd4Le96A6LVr/?a=7073&bti=OTU0QDItLmA%3D&ch=0&cr=0&dr=4&er=0&lr=unwatermarked&cd=0%7C0%7C0%7C0&br=312&bt=156&ds=5&ft=.cwOVInz7ThulqvOXq8Zmo&qs=13&rc=Mzs2cXg5cmlydjUzNzhoM0BpMzs2cXg5cmlydjUzNzhoM0BwaTZgMmRjcWpgLS1kLjZzYSNwaTZgMmRjcWpgLS1kLjZzcw%3D%3D&vvpl=1&l=02173103889916400000000000000000000ffff0a007d86a827b8&btag=e00070000&format=mp3&mime_type=audio_mpeg",
        "source_timerange": {
            "start_offset": 5.952000000000012,
            "end_offset": 7.44
        },
        "target_timerange": {
            "start_offset": 131.52,
            "end_offset": 133.008
        },
        "ignore_audio": true,
        "audio_path": null
    },
    {
        "segment_id": "1f3947189d8711efaa9cfa163edc3428",
        "text": "“Do you consider the forms of",
        "audio_url": "https://v16m-default.akamaized.net/a604ec8b83823690e98414db927e7f99/672de323/video/tos/maliva/tos-maliva-v-f15faa-us/ogEVzeIb8BoPAXDoBQfCFYLJA6IQXAp9BYLnHh/?a=7073&bti=OTU0QDItLmA%3D&ch=0&cr=0&dr=4&er=0&lr=unwatermarked&cd=0%7C0%7C0%7C0&br=312&bt=156&ds=5&ft=.cwOVInz7ThulqvOXq8Zmo&qs=13&rc=ajs6NHg5cmlydjUzNzhoM0Bpajs6NHg5cmlydjUzNzhoM0AtNXMzMmRjcWpgLS1kLjZzYSMtNXMzMmRjcWpgLS1kLjZzcw%3D%3D&vvpl=1&l=02173103889916400000000000000000000ffff0a007d86a827b8&btag=e00070000&format=mp3&mime_type=audio_mpeg",
        "source_timerange": {
            "start_offset": 0,
            "end_offset": 1.7280000000000113
        },
        "target_timerange": {
            "start_offset": 133.008,
            "end_offset": 134.73600000000002
        },
        "ignore_audio": false,
        "audio_path": null
    },
    {
        "segment_id": "1f39488a9d8711efaa9cfa163edc3428",
        "text": "introduction, and the stress that",
        "audio_url": "https://v16m-default.akamaized.net/a604ec8b83823690e98414db927e7f99/672de323/video/tos/maliva/tos-maliva-v-f15faa-us/ogEVzeIb8BoPAXDoBQfCFYLJA6IQXAp9BYLnHh/?a=7073&bti=OTU0QDItLmA%3D&ch=0&cr=0&dr=4&er=0&lr=unwatermarked&cd=0%7C0%7C0%7C0&br=312&bt=156&ds=5&ft=.cwOVInz7ThulqvOXq8Zmo&qs=13&rc=ajs6NHg5cmlydjUzNzhoM0Bpajs6NHg5cmlydjUzNzhoM0AtNXMzMmRjcWpgLS1kLjZzYSMtNXMzMmRjcWpgLS1kLjZzcw%3D%3D&vvpl=1&l=02173103889916400000000000000000000ffff0a007d86a827b8&btag=e00070000&format=mp3&mime_type=audio_mpeg",
        "source_timerange": {
            "start_offset": 1.7280000000000086,
            "end_offset": 3.4559999999999915
        },
        "target_timerange": {
            "start_offset": 134.73600000000002,
            "end_offset": 136.464
        },
        "ignore_audio": true,
        "audio_path": null
    },
    {
        "segment_id": "1f394ab09d8711efaa9cfa163edc3428",
        "text": "is laid on them, as nonsense?",
        "audio_url": "https://v16m-default.akamaized.net/a604ec8b83823690e98414db927e7f99/672de323/video/tos/maliva/tos-maliva-v-f15faa-us/ogEVzeIb8BoPAXDoBQfCFYLJA6IQXAp9BYLnHh/?a=7073&bti=OTU0QDItLmA%3D&ch=0&cr=0&dr=4&er=0&lr=unwatermarked&cd=0%7C0%7C0%7C0&br=312&bt=156&ds=5&ft=.cwOVInz7ThulqvOXq8Zmo&qs=13&rc=ajs6NHg5cmlydjUzNzhoM0Bpajs6NHg5cmlydjUzNzhoM0AtNXMzMmRjcWpgLS1kLjZzYSMtNXMzMmRjcWpgLS1kLjZzcw%3D%3D&vvpl=1&l=02173103889916400000000000000000000ffff0a007d86a827b8&btag=e00070000&format=mp3&mime_type=audio_mpeg",
        "source_timerange": {
            "start_offset": 3.455999999999989,
            "end_offset": 5.184
        },
        "target_timerange": {
            "start_offset": 136.464,
            "end_offset": 138.192
        },
        "ignore_audio": true,
        "audio_path": null
    },
    {
        "segment_id": "1f3951729d8711efaa9cfa163edc3428",
        "text": "I cannot quite agree with you _there_.",
        "audio_url": "https://v16m-default.akamaized.net/237c212e560c15db64642b49d41b7a69/672de31f/video/tos/maliva/tos-maliva-v-f15faa-us/osEV6JnLYKo01evtBBEklLiAuAABIQf3ijhAqr/?a=7073&bti=OTU0QDItLmA%3D&ch=0&cr=0&dr=4&er=0&lr=unwatermarked&cd=0%7C0%7C0%7C0&br=312&bt=156&ds=5&ft=.cwOVInz7ThulqvOXq8Zmo&qs=13&rc=ajg1ZHE5cmlydjUzNzhoM0Bpajg1ZHE5cmlydjUzNzhoM0BrNmVuMmRjcWpgLS1kLjZzYSNrNmVuMmRjcWpgLS1kLjZzcw%3D%3D&vvpl=1&l=02173103889916400000000000000000000ffff0a007d86a827b8&btag=e00070000&format=mp3&mime_type=audio_mpeg",
        "source_timerange": {
            "start_offset": 0,
            "end_offset": 1.872
        },
        "target_timerange": {
            "start_offset": 138.192,
            "end_offset": 140.064
        },
        "ignore_audio": false,
        "audio_path": null
    },
    {
        "segment_id": "1f3959d89d8711efaa9cfa163edc3428",
        "text": "What say you, Mary?",
        "audio_url": "https://v16m-default.akamaized.net/5cec572974356288dc1505fec6154ed9/672de31f/video/tos/maliva/tos-maliva-v-f15faa-us/ooAAU1iEEBQnetLfcjiJt1AxGr6UKhL8BBYVA1/?a=7073&bti=OTU0QDItLmA%3D&ch=0&cr=0&dr=4&er=0&lr=unwatermarked&cd=0%7C0%7C0%7C0&br=312&bt=156&ds=5&ft=.cwOVInz7ThulqvOXq8Zmo&qs=13&rc=M25tOm85cmlydjUzNzhoM0BpM25tOm85cmlydjUzNzhoM0AwLy9yMmRjcWpgLS1kLjZzYSMwLy9yMmRjcWpgLS1kLjZzcw%3D%3D&vvpl=1&l=02173103889916400000000000000000000ffff0a007d86a827b8&btag=e00070000&format=mp3&mime_type=audio_mpeg",
        "source_timerange": {
            "start_offset": 0,
            "end_offset": 1.248
        },
        "target_timerange": {
            "start_offset": 140.064,
            "end_offset": 141.312
        },
        "ignore_audio": false,
        "audio_path": null
    },
    {
        "segment_id": "1f396de29d8711efaa9cfa163edc3428",
        "text": "For you are a young lady",
        "audio_url": "https://v16m-default.akamaized.net/327b9b25d0daa0f6876523e13ef90f9b/672de323/video/tos/maliva/tos-maliva-v-f15faa-us/oAbErnZ3BDjLaJ8tK7FAQ6EEVLe3AH9fhABnAY/?a=7073&bti=OTU0QDItLmA%3D&ch=0&cr=0&dr=4&er=0&lr=unwatermarked&cd=0%7C0%7C0%7C0&br=312&bt=156&ds=5&ft=.cwOVInz7ThulqvOXq8Zmo&qs=13&rc=anNld3g5cmlydjUzNzhoM0BpanNld3g5cmlydjUzNzhoM0BxbG9hMmRjcWpgLS1kLjZzYSNxbG9hMmRjcWpgLS1kLjZzcw%3D%3D&vvpl=1&l=02173103889916400000000000000000000ffff0a007d86a827b8&btag=e00070000&format=mp3&mime_type=audio_mpeg",
        "source_timerange": {
            "start_offset": 0,
            "end_offset": 1.3560000000000167
        },
        "target_timerange": {
            "start_offset": 141.312,
            "end_offset": 142.668
        },
        "ignore_audio": false,
        "audio_path": null
    },
    {
        "segment_id": "1f3971b69d8711efaa9cfa163edc3428",
        "text": "of deep reflection, I",
        "audio_url": "https://v16m-default.akamaized.net/327b9b25d0daa0f6876523e13ef90f9b/672de323/video/tos/maliva/tos-maliva-v-f15faa-us/oAbErnZ3BDjLaJ8tK7FAQ6EEVLe3AH9fhABnAY/?a=7073&bti=OTU0QDItLmA%3D&ch=0&cr=0&dr=4&er=0&lr=unwatermarked&cd=0%7C0%7C0%7C0&br=312&bt=156&ds=5&ft=.cwOVInz7ThulqvOXq8Zmo&qs=13&rc=anNld3g5cmlydjUzNzhoM0BpanNld3g5cmlydjUzNzhoM0BxbG9hMmRjcWpgLS1kLjZzYSNxbG9hMmRjcWpgLS1kLjZzcw%3D%3D&vvpl=1&l=02173103889916400000000000000000000ffff0a007d86a827b8&btag=e00070000&format=mp3&mime_type=audio_mpeg",
        "source_timerange": {
            "start_offset": 1.3559999999999945,
            "end_offset": 2.7120000000000113
        },
        "target_timerange": {
            "start_offset": 142.668,
            "end_offset": 144.024
        },
        "ignore_audio": true,
        "audio_path": null
    },
    {
        "segment_id": "1f39731e9d8711efaa9cfa163edc3428",
        "text": "know, and read great",
        "audio_url": "https://v16m-default.akamaized.net/327b9b25d0daa0f6876523e13ef90f9b/672de323/video/tos/maliva/tos-maliva-v-f15faa-us/oAbErnZ3BDjLaJ8tK7FAQ6EEVLe3AH9fhABnAY/?a=7073&bti=OTU0QDItLmA%3D&ch=0&cr=0&dr=4&er=0&lr=unwatermarked&cd=0%7C0%7C0%7C0&br=312&bt=156&ds=5&ft=.cwOVInz7ThulqvOXq8Zmo&qs=13&rc=anNld3g5cmlydjUzNzhoM0BpanNld3g5cmlydjUzNzhoM0BxbG9hMmRjcWpgLS1kLjZzYSNxbG9hMmRjcWpgLS1kLjZzcw%3D%3D&vvpl=1&l=02173103889916400000000000000000000ffff0a007d86a827b8&btag=e00070000&format=mp3&mime_type=audio_mpeg",
        "source_timerange": {
            "start_offset": 2.711999999999989,
            "end_offset": 4.068000000000006
        },
        "target_timerange": {
            "start_offset": 144.024,
            "end_offset": 145.38
        },
        "ignore_audio": true,
        "audio_path": null
    },
    {
        "segment_id": "1f39744a9d8711efaa9cfa163edc3428",
        "text": "books, and make extracts.”",
        "audio_url": "https://v16m-default.akamaized.net/327b9b25d0daa0f6876523e13ef90f9b/672de323/video/tos/maliva/tos-maliva-v-f15faa-us/oAbErnZ3BDjLaJ8tK7FAQ6EEVLe3AH9fhABnAY/?a=7073&bti=OTU0QDItLmA%3D&ch=0&cr=0&dr=4&er=0&lr=unwatermarked&cd=0%7C0%7C0%7C0&br=312&bt=156&ds=5&ft=.cwOVInz7ThulqvOXq8Zmo&qs=13&rc=anNld3g5cmlydjUzNzhoM0BpanNld3g5cmlydjUzNzhoM0BxbG9hMmRjcWpgLS1kLjZzYSNxbG9hMmRjcWpgLS1kLjZzcw%3D%3D&vvpl=1&l=02173103889916400000000000000000000ffff0a007d86a827b8&btag=e00070000&format=mp3&mime_type=audio_mpeg",
        "source_timerange": {
            "start_offset": 4.067999999999984,
            "end_offset": 5.424
        },
        "target_timerange": {
            "start_offset": 145.38,
            "end_offset": 146.736
        },
        "ignore_audio": true,
        "audio_path": null
    },
    {
        "segment_id": "1f39839a9d8711efaa9cfa163edc3428",
        "text": "Mary wished to say",
        "audio_url": "https://v16m-default.akamaized.net/b9858e263ede1e5a6e3421f006a3a2a2/672de321/video/tos/maliva/tos-maliva-v-f15faa-us/o0tewA3hVERLrJ2ftAEAGzDnANNFEB9YBQZ6jL/?a=7073&bti=OTU0QDItLmA%3D&ch=0&cr=0&dr=4&er=0&lr=unwatermarked&cd=0%7C0%7C0%7C0&br=312&bt=156&ds=5&ft=.cwOVInz7ThulqvOXq8Zmo&qs=13&rc=amo6O3A5cmlydjUzNzhoM0Bpamo6O3A5cmlydjUzNzhoM0AzcW9oMmRjcWpgLS1kLjZzYSMzcW9oMmRjcWpgLS1kLjZzcw%3D%3D&vvpl=1&l=02173103889916400000000000000000000ffff0a007d86a827b8&btag=e00070000&format=mp3&mime_type=audio_mpeg",
        "source_timerange": {
            "start_offset": 0,
            "end_offset": 1.2719999999999891
        },
        "target_timerange": {
            "start_offset": 146.736,
            "end_offset": 148.00799999999998
        },
        "ignore_audio": false,
        "audio_path": null
    },
    {
        "segment_id": "1f3985209d8711efaa9cfa163edc3428",
        "text": "something very",
        "audio_url": "https://v16m-default.akamaized.net/b9858e263ede1e5a6e3421f006a3a2a2/672de321/video/tos/maliva/tos-maliva-v-f15faa-us/o0tewA3hVERLrJ2ftAEAGzDnANNFEB9YBQZ6jL/?a=7073&bti=OTU0QDItLmA%3D&ch=0&cr=0&dr=4&er=0&lr=unwatermarked&cd=0%7C0%7C0%7C0&br=312&bt=156&ds=5&ft=.cwOVInz7ThulqvOXq8Zmo&qs=13&rc=amo6O3A5cmlydjUzNzhoM0Bpamo6O3A5cmlydjUzNzhoM0AzcW9oMmRjcWpgLS1kLjZzYSMzcW9oMmRjcWpgLS1kLjZzcw%3D%3D&vvpl=1&l=02173103889916400000000000000000000ffff0a007d86a827b8&btag=e00070000&format=mp3&mime_type=audio_mpeg",
        "source_timerange": {
            "start_offset": 1.2719999999999914,
            "end_offset": 2.544000000000009
        },
        "target_timerange": {
            "start_offset": 148.00799999999998,
            "end_offset": 149.28
        },
        "ignore_audio": true,
        "audio_path": null
    },
    {
        "segment_id": "1f39873c9d8711efaa9cfa163edc3428",
        "text": "sensible, but knew not how.",
        "audio_url": "https://v16m-default.akamaized.net/b9858e263ede1e5a6e3421f006a3a2a2/672de321/video/tos/maliva/tos-maliva-v-f15faa-us/o0tewA3hVERLrJ2ftAEAGzDnANNFEB9YBQZ6jL/?a=7073&bti=OTU0QDItLmA%3D&ch=0&cr=0&dr=4&er=0&lr=unwatermarked&cd=0%7C0%7C0%7C0&br=312&bt=156&ds=5&ft=.cwOVInz7ThulqvOXq8Zmo&qs=13&rc=amo6O3A5cmlydjUzNzhoM0Bpamo6O3A5cmlydjUzNzhoM0AzcW9oMmRjcWpgLS1kLjZzYSMzcW9oMmRjcWpgLS1kLjZzcw%3D%3D&vvpl=1&l=02173103889916400000000000000000000ffff0a007d86a827b8&btag=e00070000&format=mp3&mime_type=audio_mpeg",
        "source_timerange": {
            "start_offset": 2.544000000000011,
            "end_offset": 3.8160000000000003
        },
        "target_timerange": {
            "start_offset": 149.28,
            "end_offset": 150.552
        },
        "ignore_audio": true,
        "audio_path": null
    },
    {
        "segment_id": "1f399aa69d8711efaa9cfa163edc3428",
        "text": "“While Mary is",
        "audio_url": "https://v16m-default.akamaized.net/ea9154879f9e07668c3a7f5995cbb54f/672de323/video/tos/maliva/tos-maliva-v-f15faa-us/oArhefYthQ0VDEAEAkyEL9BJjBLFEug0nv6BAA/?a=7073&bti=OTU0QDItLmA%3D&ch=0&cr=0&dr=4&er=0&lr=unwatermarked&cd=0%7C0%7C0%7C0&br=312&bt=156&ds=5&ft=.cwOVInz7ThulqvOXq8Zmo&qs=13&rc=M3E8aHM5cmlydjUzNzhoM0BpM3E8aHM5cmlydjUzNzhoM0BzLmYtMmRjcWpgLS1kLjZzYSNzLmYtMmRjcWpgLS1kLjZzcw%3D%3D&vvpl=1&l=02173103889916400000000000000000000ffff0a007d86a827b8&btag=e00070000&format=mp3&mime_type=audio_mpeg",
        "source_timerange": {
            "start_offset": 0,
            "end_offset": 1.4519999999999769
        },
        "target_timerange": {
            "start_offset": 150.552,
            "end_offset": 152.004
        },
        "ignore_audio": false,
        "audio_path": null
    },
    {
        "segment_id": "1f399c2c9d8711efaa9cfa163edc3428",
        "text": "adjusting her ideas,”",
        "audio_url": "https://v16m-default.akamaized.net/ea9154879f9e07668c3a7f5995cbb54f/672de323/video/tos/maliva/tos-maliva-v-f15faa-us/oArhefYthQ0VDEAEAkyEL9BJjBLFEug0nv6BAA/?a=7073&bti=OTU0QDItLmA%3D&ch=0&cr=0&dr=4&er=0&lr=unwatermarked&cd=0%7C0%7C0%7C0&br=312&bt=156&ds=5&ft=.cwOVInz7ThulqvOXq8Zmo&qs=13&rc=M3E8aHM5cmlydjUzNzhoM0BpM3E8aHM5cmlydjUzNzhoM0BzLmYtMmRjcWpgLS1kLjZzYSNzLmYtMmRjcWpgLS1kLjZzcw%3D%3D&vvpl=1&l=02173103889916400000000000000000000ffff0a007d86a827b8&btag=e00070000&format=mp3&mime_type=audio_mpeg",
        "source_timerange": {
            "start_offset": 1.4519999999999982,
            "end_offset": 2.9040000000000035
        },
        "target_timerange": {
            "start_offset": 152.004,
            "end_offset": 153.45600000000002
        },
        "ignore_audio": true,
        "audio_path": null
    },
    {
        "segment_id": "1f399d589d8711efaa9cfa163edc3428",
        "text": "he continued, “let us",
        "audio_url": "https://v16m-default.akamaized.net/ea9154879f9e07668c3a7f5995cbb54f/672de323/video/tos/maliva/tos-maliva-v-f15faa-us/oArhefYthQ0VDEAEAkyEL9BJjBLFEug0nv6BAA/?a=7073&bti=OTU0QDItLmA%3D&ch=0&cr=0&dr=4&er=0&lr=unwatermarked&cd=0%7C0%7C0%7C0&br=312&bt=156&ds=5&ft=.cwOVInz7ThulqvOXq8Zmo&qs=13&rc=M3E8aHM5cmlydjUzNzhoM0BpM3E8aHM5cmlydjUzNzhoM0BzLmYtMmRjcWpgLS1kLjZzYSNzLmYtMmRjcWpgLS1kLjZzcw%3D%3D&vvpl=1&l=02173103889916400000000000000000000ffff0a007d86a827b8&btag=e00070000&format=mp3&mime_type=audio_mpeg",
        "source_timerange": {
            "start_offset": 2.904000000000025,
            "end_offset": 4.356000000000002
        },
        "target_timerange": {
            "start_offset": 153.45600000000002,
            "end_offset": 154.90800000000002
        },
        "ignore_audio": true,
        "audio_path": null
    },
    {
        "segment_id": "1f399e7a9d8711efaa9cfa163edc3428",
        "text": "return to Mr. Bingley.”",
        "audio_url": "https://v16m-default.akamaized.net/ea9154879f9e07668c3a7f5995cbb54f/672de323/video/tos/maliva/tos-maliva-v-f15faa-us/oArhefYthQ0VDEAEAkyEL9BJjBLFEug0nv6BAA/?a=7073&bti=OTU0QDItLmA%3D&ch=0&cr=0&dr=4&er=0&lr=unwatermarked&cd=0%7C0%7C0%7C0&br=312&bt=156&ds=5&ft=.cwOVInz7ThulqvOXq8Zmo&qs=13&rc=M3E8aHM5cmlydjUzNzhoM0BpM3E8aHM5cmlydjUzNzhoM0BzLmYtMmRjcWpgLS1kLjZzYSNzLmYtMmRjcWpgLS1kLjZzcw%3D%3D&vvpl=1&l=02173103889916400000000000000000000ffff0a007d86a827b8&btag=e00070000&format=mp3&mime_type=audio_mpeg",
        "source_timerange": {
            "start_offset": 4.356000000000023,
            "end_offset": 5.808
        },
        "target_timerange": {
            "start_offset": 154.90800000000002,
            "end_offset": 156.36
        },
        "ignore_audio": true,
        "audio_path": null
    },
    {
        "segment_id": "1f39a8f29d8711efaa9cfa163edc3428",
        "text": "“I am sick of Mr.",
        "audio_url": "https://v16m-default.akamaized.net/5f1d9d0afb0b8e6bb638a0470787b9bb/672de320/video/tos/maliva/tos-maliva-v-f15faa-us/o4tP7iBVJBnALuh6jQAYLNrjEfEen1BimqEAYA/?a=7073&bti=OTU0QDItLmA%3D&ch=0&cr=0&dr=4&er=0&lr=unwatermarked&cd=0%7C0%7C0%7C0&br=312&bt=156&ds=5&ft=.cwOVInz7ThulqvOXq8Zmo&qs=13&rc=ajd0cHU5cmlydjUzNzhoM0Bpajd0cHU5cmlydjUzNzhoM0A0MzJnMmRjcWpgLS1kLjZzYSM0MzJnMmRjcWpgLS1kLjZzcw%3D%3D&vvpl=1&l=02173103889916400000000000000000000ffff0a007d86a827b8&btag=e00070000&format=mp3&mime_type=audio_mpeg",
        "source_timerange": {
            "start_offset": 0,
            "end_offset": 1.2600000000000091
        },
        "target_timerange": {
            "start_offset": 156.36,
            "end_offset": 157.62
        },
        "ignore_audio": false,
        "audio_path": null
    },
    {
        "segment_id": "1f39ab2c9d8711efaa9cfa163edc3428",
        "text": "Bingley,” cried his wife.",
        "audio_url": "https://v16m-default.akamaized.net/5f1d9d0afb0b8e6bb638a0470787b9bb/672de320/video/tos/maliva/tos-maliva-v-f15faa-us/o4tP7iBVJBnALuh6jQAYLNrjEfEen1BimqEAYA/?a=7073&bti=OTU0QDItLmA%3D&ch=0&cr=0&dr=4&er=0&lr=unwatermarked&cd=0%7C0%7C0%7C0&br=312&bt=156&ds=5&ft=.cwOVInz7ThulqvOXq8Zmo&qs=13&rc=ajd0cHU5cmlydjUzNzhoM0Bpajd0cHU5cmlydjUzNzhoM0A0MzJnMmRjcWpgLS1kLjZzYSM0MzJnMmRjcWpgLS1kLjZzcw%3D%3D&vvpl=1&l=02173103889916400000000000000000000ffff0a007d86a827b8&btag=e00070000&format=mp3&mime_type=audio_mpeg",
        "source_timerange": {
            "start_offset": 1.259999999999991,
            "end_offset": 2.52
        },
        "target_timerange": {
            "start_offset": 157.62,
            "end_offset": 158.88
        },
        "ignore_audio": true,
        "audio_path": null
    },
    {
        "segment_id": "1f39b7169d8711efaa9cfa163edc3428",
        "text": "“I am sorry to hear _that_; but why",
        "audio_url": "https://v16m-default.akamaized.net/d58c99140ed3fb8ac0d484de7b6534fd/672de321/video/tos/maliva/tos-maliva-v-f15faa-us/ow7vNEvQUEUlAASA9CAOKC7iByK2Z4jri33Vt/?a=7073&bti=OTU0QDItLmA%3D&ch=0&cr=0&dr=4&er=0&lr=unwatermarked&cd=0%7C0%7C0%7C0&br=312&bt=156&ds=5&ft=.cwOVInz7ThulqvOXq8Zmo&qs=13&rc=M3FlNnc5cmlydjUzNzhoM0BpM3FlNnc5cmlydjUzNzhoM0AyYzZeMmRrcWpgLS1kLjZzYSMyYzZeMmRrcWpgLS1kLjZzcw%3D%3D&vvpl=1&l=02173103889916400000000000000000000ffff0a007d86a827b8&btag=e00070000&format=mp3&mime_type=audio_mpeg",
        "source_timerange": {
            "start_offset": 0,
            "end_offset": 1.8240000000000163
        },
        "target_timerange": {
            "start_offset": 158.88,
            "end_offset": 160.704
        },
        "ignore_audio": false,
        "audio_path": null
    },
    {
        "segment_id": "1f39b8889d8711efaa9cfa163edc3428",
        "text": "did you not tell me so before?",
        "audio_url": "https://v16m-default.akamaized.net/d58c99140ed3fb8ac0d484de7b6534fd/672de321/video/tos/maliva/tos-maliva-v-f15faa-us/ow7vNEvQUEUlAASA9CAOKC7iByK2Z4jri33Vt/?a=7073&bti=OTU0QDItLmA%3D&ch=0&cr=0&dr=4&er=0&lr=unwatermarked&cd=0%7C0%7C0%7C0&br=312&bt=156&ds=5&ft=.cwOVInz7ThulqvOXq8Zmo&qs=13&rc=M3FlNnc5cmlydjUzNzhoM0BpM3FlNnc5cmlydjUzNzhoM0AyYzZeMmRrcWpgLS1kLjZzYSMyYzZeMmRrcWpgLS1kLjZzcw%3D%3D&vvpl=1&l=02173103889916400000000000000000000ffff0a007d86a827b8&btag=e00070000&format=mp3&mime_type=audio_mpeg",
        "source_timerange": {
            "start_offset": 1.8240000000000123,
            "end_offset": 3.648
        },
        "target_timerange": {
            "start_offset": 160.704,
            "end_offset": 162.528
        },
        "ignore_audio": true,
        "audio_path": null
    },
    {
        "segment_id": "1f39c74c9d8711efaa9cfa163edc3428",
        "text": "If I had known as much this",
        "audio_url": "https://v16m-default.akamaized.net/e4f1f76cfcd3a6d0e534cbdb910a9b6f/672de322/video/tos/maliva/tos-maliva-v-f15faa-us/oYYh2LAAdiV5LBJAUn2eVCQA6iEifBzBEtjr4z/?a=7073&bti=OTU0QDItLmA%3D&ch=0&cr=0&dr=4&er=0&lr=unwatermarked&cd=0%7C0%7C0%7C0&br=312&bt=156&ds=5&ft=.cwOVInz7ThulqvOXq8Zmo&qs=13&rc=am1rd3A5cmlydjUzNzhoM0Bpam1rd3A5cmlydjUzNzhoM0BwX2ZiMmRjcWpgLS1kLjZzYSNwX2ZiMmRjcWpgLS1kLjZzcw%3D%3D&vvpl=1&l=02173103889916400000000000000000000ffff0a007d86a827b8&btag=e00070000&format=mp3&mime_type=audio_mpeg",
        "source_timerange": {
            "start_offset": 0,
            "end_offset": 1.6160000000000005
        },
        "target_timerange": {
            "start_offset": 162.528,
            "end_offset": 164.144
        },
        "ignore_audio": false,
        "audio_path": null
    },
    {
        "segment_id": "1f39c8c89d8711efaa9cfa163edc3428",
        "text": "morning, I certainly would",
        "audio_url": "https://v16m-default.akamaized.net/e4f1f76cfcd3a6d0e534cbdb910a9b6f/672de322/video/tos/maliva/tos-maliva-v-f15faa-us/oYYh2LAAdiV5LBJAUn2eVCQA6iEifBzBEtjr4z/?a=7073&bti=OTU0QDItLmA%3D&ch=0&cr=0&dr=4&er=0&lr=unwatermarked&cd=0%7C0%7C0%7C0&br=312&bt=156&ds=5&ft=.cwOVInz7ThulqvOXq8Zmo&qs=13&rc=am1rd3A5cmlydjUzNzhoM0Bpam1rd3A5cmlydjUzNzhoM0BwX2ZiMmRjcWpgLS1kLjZzYSNwX2ZiMmRjcWpgLS1kLjZzcw%3D%3D&vvpl=1&l=02173103889916400000000000000000000ffff0a007d86a827b8&btag=e00070000&format=mp3&mime_type=audio_mpeg",
        "source_timerange": {
            "start_offset": 1.6160000000000139,
            "end_offset": 3.231999999999986
        },
        "target_timerange": {
            "start_offset": 164.144,
            "end_offset": 165.76
        },
        "ignore_audio": true,
        "audio_path": null
    },
    {
        "segment_id": "1f39c9f49d8711efaa9cfa163edc3428",
        "text": "not have called on him.",
        "audio_url": "https://v16m-default.akamaized.net/e4f1f76cfcd3a6d0e534cbdb910a9b6f/672de322/video/tos/maliva/tos-maliva-v-f15faa-us/oYYh2LAAdiV5LBJAUn2eVCQA6iEifBzBEtjr4z/?a=7073&bti=OTU0QDItLmA%3D&ch=0&cr=0&dr=4&er=0&lr=unwatermarked&cd=0%7C0%7C0%7C0&br=312&bt=156&ds=5&ft=.cwOVInz7ThulqvOXq8Zmo&qs=13&rc=am1rd3A5cmlydjUzNzhoM0Bpam1rd3A5cmlydjUzNzhoM0BwX2ZiMmRjcWpgLS1kLjZzYSNwX2ZiMmRjcWpgLS1kLjZzcw%3D%3D&vvpl=1&l=02173103889916400000000000000000000ffff0a007d86a827b8&btag=e00070000&format=mp3&mime_type=audio_mpeg",
        "source_timerange": {
            "start_offset": 3.2319999999999993,
            "end_offset": 4.848
        },
        "target_timerange": {
            "start_offset": 165.76,
            "end_offset": 167.376
        },
        "ignore_audio": true,
        "audio_path": null
    },
    {
        "segment_id": "1f39de449d8711efaa9cfa163edc3428",
        "text": "It is very unlucky; but as",
        "audio_url": "https://v16m-default.akamaized.net/92eb90398a004c1d5182d34f9f879c82/672de324/video/tos/maliva/tos-maliva-v-f15faa-us/oACaAA2WEvVBU4rc4vSZOEA6tyt8jii3AQUsv/?a=7073&bti=OTU0QDItLmA%3D&ch=0&cr=0&dr=4&er=0&lr=unwatermarked&cd=0%7C0%7C0%7C0&br=312&bt=156&ds=5&ft=.cwOVInz7ThulqvOXq8Zmo&qs=13&rc=am48eHE5cmlydjUzNzhoM0Bpam48eHE5cmlydjUzNzhoM0BqYGdrMmRrcWpgLS1kLjZzYSNqYGdrMmRrcWpgLS1kLjZzcw%3D%3D&vvpl=1&l=02173103889916400000000000000000000ffff0a007d86a827b8&btag=e00070000&format=mp3&mime_type=audio_mpeg",
        "source_timerange": {
            "start_offset": 0,
            "end_offset": 1.5119999999999987
        },
        "target_timerange": {
            "start_offset": 167.376,
            "end_offset": 168.888
        },
        "ignore_audio": false,
        "audio_path": null
    },
    {
        "segment_id": "1f39dfde9d8711efaa9cfa163edc3428",
        "text": "I have actually paid the",
        "audio_url": "https://v16m-default.akamaized.net/92eb90398a004c1d5182d34f9f879c82/672de324/video/tos/maliva/tos-maliva-v-f15faa-us/oACaAA2WEvVBU4rc4vSZOEA6tyt8jii3AQUsv/?a=7073&bti=OTU0QDItLmA%3D&ch=0&cr=0&dr=4&er=0&lr=unwatermarked&cd=0%7C0%7C0%7C0&br=312&bt=156&ds=5&ft=.cwOVInz7ThulqvOXq8Zmo&qs=13&rc=am48eHE5cmlydjUzNzhoM0Bpam48eHE5cmlydjUzNzhoM0BqYGdrMmRrcWpgLS1kLjZzYSNqYGdrMmRrcWpgLS1kLjZzcw%3D%3D&vvpl=1&l=02173103889916400000000000000000000ffff0a007d86a827b8&btag=e00070000&format=mp3&mime_type=audio_mpeg",
        "source_timerange": {
            "start_offset": 1.5120000000000005,
            "end_offset": 3.023999999999999
        },
        "target_timerange": {
            "start_offset": 168.888,
            "end_offset": 170.4
        },
        "ignore_audio": true,
        "audio_path": null
    },
    {
        "segment_id": "1f39e1149d8711efaa9cfa163edc3428",
        "text": "visit, we cannot escape the",
        "audio_url": "https://v16m-default.akamaized.net/92eb90398a004c1d5182d34f9f879c82/672de324/video/tos/maliva/tos-maliva-v-f15faa-us/oACaAA2WEvVBU4rc4vSZOEA6tyt8jii3AQUsv/?a=7073&bti=OTU0QDItLmA%3D&ch=0&cr=0&dr=4&er=0&lr=unwatermarked&cd=0%7C0%7C0%7C0&br=312&bt=156&ds=5&ft=.cwOVInz7ThulqvOXq8Zmo&qs=13&rc=am48eHE5cmlydjUzNzhoM0Bpam48eHE5cmlydjUzNzhoM0BqYGdrMmRrcWpgLS1kLjZzYSNqYGdrMmRrcWpgLS1kLjZzcw%3D%3D&vvpl=1&l=02173103889916400000000000000000000ffff0a007d86a827b8&btag=e00070000&format=mp3&mime_type=audio_mpeg",
        "source_timerange": {
            "start_offset": 3.024000000000001,
            "end_offset": 4.536
        },
        "target_timerange": {
            "start_offset": 170.4,
            "end_offset": 171.912
        },
        "ignore_audio": true,
        "audio_path": null
    },
    {
        "segment_id": "1f39e24a9d8711efaa9cfa163edc3428",
        "text": "acquaintance now.”",
        "audio_url": "https://v16m-default.akamaized.net/92eb90398a004c1d5182d34f9f879c82/672de324/video/tos/maliva/tos-maliva-v-f15faa-us/oACaAA2WEvVBU4rc4vSZOEA6tyt8jii3AQUsv/?a=7073&bti=OTU0QDItLmA%3D&ch=0&cr=0&dr=4&er=0&lr=unwatermarked&cd=0%7C0%7C0%7C0&br=312&bt=156&ds=5&ft=.cwOVInz7ThulqvOXq8Zmo&qs=13&rc=am48eHE5cmlydjUzNzhoM0Bpam48eHE5cmlydjUzNzhoM0BqYGdrMmRrcWpgLS1kLjZzYSNqYGdrMmRrcWpgLS1kLjZzcw%3D%3D&vvpl=1&l=02173103889916400000000000000000000ffff0a007d86a827b8&btag=e00070000&format=mp3&mime_type=audio_mpeg",
        "source_timerange": {
            "start_offset": 4.536000000000001,
            "end_offset": 6.048
        },
        "target_timerange": {
            "start_offset": 171.912,
            "end_offset": 173.424
        },
        "ignore_audio": true,
        "audio_path": null
    },
    {
        "segment_id": "1f3a0e149d8711efaa9cfa163edc3428",
        "text": "The astonishment of the ladies",
        "audio_url": "https://v16m-default.akamaized.net/a44233ee6706d1628ae5c4424dc74b9c/672de329/video/tos/maliva/tos-maliva-v-f15faa-us/oEMbASB9IC3W9IQtX8rHC3fCT1fexgPKAQXAWO/?a=7073&bti=OTU0QDItLmA%3D&ch=0&cr=0&dr=4&er=0&lr=unwatermarked&cd=0%7C0%7C0%7C0&br=312&bt=156&ds=5&ft=.cwOVInz7ThulqvOXq8Zmo&qs=13&rc=am13M3E5cmlydjUzNzhoM0Bpam13M3E5cmlydjUzNzhoM0Bzb2luMmRrcWpgLS1kLjZzYSNzb2luMmRrcWpgLS1kLjZzcw%3D%3D&vvpl=1&l=02173103889916400000000000000000000ffff0a007d86a827b8&btag=e00070000&format=mp3&mime_type=audio_mpeg",
        "source_timerange": {
            "start_offset": 0,
            "end_offset": 1.4279999999999902
        },
        "target_timerange": {
            "start_offset": 173.424,
            "end_offset": 174.852
        },
        "ignore_audio": false,
        "audio_path": null
    },
    {
        "segment_id": "1f3a103a9d8711efaa9cfa163edc3428",
        "text": "was just what he wished--that",
        "audio_url": "https://v16m-default.akamaized.net/a44233ee6706d1628ae5c4424dc74b9c/672de329/video/tos/maliva/tos-maliva-v-f15faa-us/oEMbASB9IC3W9IQtX8rHC3fCT1fexgPKAQXAWO/?a=7073&bti=OTU0QDItLmA%3D&ch=0&cr=0&dr=4&er=0&lr=unwatermarked&cd=0%7C0%7C0%7C0&br=312&bt=156&ds=5&ft=.cwOVInz7ThulqvOXq8Zmo&qs=13&rc=am13M3E5cmlydjUzNzhoM0Bpam13M3E5cmlydjUzNzhoM0Bzb2luMmRrcWpgLS1kLjZzYSNzb2luMmRrcWpgLS1kLjZzcw%3D%3D&vvpl=1&l=02173103889916400000000000000000000ffff0a007d86a827b8&btag=e00070000&format=mp3&mime_type=audio_mpeg",
        "source_timerange": {
            "start_offset": 1.4279999999999973,
            "end_offset": 2.8559999999999874
        },
        "target_timerange": {
            "start_offset": 174.852,
            "end_offset": 176.28
        },
        "ignore_audio": true,
        "audio_path": null
    },
    {
        "segment_id": "1f3a118e9d8711efaa9cfa163edc3428",
        "text": "of Mrs. Bennet perhaps",
        "audio_url": "https://v16m-default.akamaized.net/a44233ee6706d1628ae5c4424dc74b9c/672de329/video/tos/maliva/tos-maliva-v-f15faa-us/oEMbASB9IC3W9IQtX8rHC3fCT1fexgPKAQXAWO/?a=7073&bti=OTU0QDItLmA%3D&ch=0&cr=0&dr=4&er=0&lr=unwatermarked&cd=0%7C0%7C0%7C0&br=312&bt=156&ds=5&ft=.cwOVInz7ThulqvOXq8Zmo&qs=13&rc=am13M3E5cmlydjUzNzhoM0Bpam13M3E5cmlydjUzNzhoM0Bzb2luMmRrcWpgLS1kLjZzYSNzb2luMmRrcWpgLS1kLjZzcw%3D%3D&vvpl=1&l=02173103889916400000000000000000000ffff0a007d86a827b8&btag=e00070000&format=mp3&mime_type=audio_mpeg",
        "source_timerange": {
            "start_offset": 2.8559999999999945,
            "end_offset": 4.283999999999985
        },
        "target_timerange": {
            "start_offset": 176.28,
            "end_offset": 177.708
        },
        "ignore_audio": true,
        "audio_path": null
    },
    {
        "segment_id": "1f3a12ba9d8711efaa9cfa163edc3428",
        "text": "surpassing the rest; though",
        "audio_url": "https://v16m-default.akamaized.net/a44233ee6706d1628ae5c4424dc74b9c/672de329/video/tos/maliva/tos-maliva-v-f15faa-us/oEMbASB9IC3W9IQtX8rHC3fCT1fexgPKAQXAWO/?a=7073&bti=OTU0QDItLmA%3D&ch=0&cr=0&dr=4&er=0&lr=unwatermarked&cd=0%7C0%7C0%7C0&br=312&bt=156&ds=5&ft=.cwOVInz7ThulqvOXq8Zmo&qs=13&rc=am13M3E5cmlydjUzNzhoM0Bpam13M3E5cmlydjUzNzhoM0Bzb2luMmRrcWpgLS1kLjZzYSNzb2luMmRrcWpgLS1kLjZzcw%3D%3D&vvpl=1&l=02173103889916400000000000000000000ffff0a007d86a827b8&btag=e00070000&format=mp3&mime_type=audio_mpeg",
        "source_timerange": {
            "start_offset": 4.283999999999992,
            "end_offset": 5.71200000000001
        },
        "target_timerange": {
            "start_offset": 177.708,
            "end_offset": 179.13600000000002
        },
        "ignore_audio": true,
        "audio_path": null
    },
    {
        "segment_id": "1f3a13e69d8711efaa9cfa163edc3428",
        "text": "when the first tumult of joy",
        "audio_url": "https://v16m-default.akamaized.net/a44233ee6706d1628ae5c4424dc74b9c/672de329/video/tos/maliva/tos-maliva-v-f15faa-us/oEMbASB9IC3W9IQtX8rHC3fCT1fexgPKAQXAWO/?a=7073&bti=OTU0QDItLmA%3D&ch=0&cr=0&dr=4&er=0&lr=unwatermarked&cd=0%7C0%7C0%7C0&br=312&bt=156&ds=5&ft=.cwOVInz7ThulqvOXq8Zmo&qs=13&rc=am13M3E5cmlydjUzNzhoM0Bpam13M3E5cmlydjUzNzhoM0Bzb2luMmRrcWpgLS1kLjZzYSNzb2luMmRrcWpgLS1kLjZzcw%3D%3D&vvpl=1&l=02173103889916400000000000000000000ffff0a007d86a827b8&btag=e00070000&format=mp3&mime_type=audio_mpeg",
        "source_timerange": {
            "start_offset": 5.7120000000000175,
            "end_offset": 7.140000000000008
        },
        "target_timerange": {
            "start_offset": 179.13600000000002,
            "end_offset": 180.56400000000002
        },
        "ignore_audio": true,
        "audio_path": null
    },
    {
        "segment_id": "1f3a15089d8711efaa9cfa163edc3428",
        "text": "was over, she began to declare",
        "audio_url": "https://v16m-default.akamaized.net/a44233ee6706d1628ae5c4424dc74b9c/672de329/video/tos/maliva/tos-maliva-v-f15faa-us/oEMbASB9IC3W9IQtX8rHC3fCT1fexgPKAQXAWO/?a=7073&bti=OTU0QDItLmA%3D&ch=0&cr=0&dr=4&er=0&lr=unwatermarked&cd=0%7C0%7C0%7C0&br=312&bt=156&ds=5&ft=.cwOVInz7ThulqvOXq8Zmo&qs=13&rc=am13M3E5cmlydjUzNzhoM0Bpam13M3E5cmlydjUzNzhoM0Bzb2luMmRrcWpgLS1kLjZzYSNzb2luMmRrcWpgLS1kLjZzcw%3D%3D&vvpl=1&l=02173103889916400000000000000000000ffff0a007d86a827b8&btag=e00070000&format=mp3&mime_type=audio_mpeg",
        "source_timerange": {
            "start_offset": 7.140000000000015,
            "end_offset": 8.568000000000005
        },
        "target_timerange": {
            "start_offset": 180.56400000000002,
            "end_offset": 181.99200000000002
        },
        "ignore_audio": true,
        "audio_path": null
    },
    {
        "segment_id": "1f3a162a9d8711efaa9cfa163edc3428",
        "text": "that it was what she had",
        "audio_url": "https://v16m-default.akamaized.net/a44233ee6706d1628ae5c4424dc74b9c/672de329/video/tos/maliva/tos-maliva-v-f15faa-us/oEMbASB9IC3W9IQtX8rHC3fCT1fexgPKAQXAWO/?a=7073&bti=OTU0QDItLmA%3D&ch=0&cr=0&dr=4&er=0&lr=unwatermarked&cd=0%7C0%7C0%7C0&br=312&bt=156&ds=5&ft=.cwOVInz7ThulqvOXq8Zmo&qs=13&rc=am13M3E5cmlydjUzNzhoM0Bpam13M3E5cmlydjUzNzhoM0Bzb2luMmRrcWpgLS1kLjZzYSNzb2luMmRrcWpgLS1kLjZzcw%3D%3D&vvpl=1&l=02173103889916400000000000000000000ffff0a007d86a827b8&btag=e00070000&format=mp3&mime_type=audio_mpeg",
        "source_timerange": {
            "start_offset": 8.568000000000012,
            "end_offset": 9.996000000000002
        },
        "target_timerange": {
            "start_offset": 181.99200000000002,
            "end_offset": 183.42000000000002
        },
        "ignore_audio": true,
        "audio_path": null
    },
    {
        "segment_id": "1f3a17429d8711efaa9cfa163edc3428",
        "text": "expected all the while.",
        "audio_url": "https://v16m-default.akamaized.net/a44233ee6706d1628ae5c4424dc74b9c/672de329/video/tos/maliva/tos-maliva-v-f15faa-us/oEMbASB9IC3W9IQtX8rHC3fCT1fexgPKAQXAWO/?a=7073&bti=OTU0QDItLmA%3D&ch=0&cr=0&dr=4&er=0&lr=unwatermarked&cd=0%7C0%7C0%7C0&br=312&bt=156&ds=5&ft=.cwOVInz7ThulqvOXq8Zmo&qs=13&rc=am13M3E5cmlydjUzNzhoM0Bpam13M3E5cmlydjUzNzhoM0Bzb2luMmRrcWpgLS1kLjZzYSNzb2luMmRrcWpgLS1kLjZzcw%3D%3D&vvpl=1&l=02173103889916400000000000000000000ffff0a007d86a827b8&btag=e00070000&format=mp3&mime_type=audio_mpeg",
        "source_timerange": {
            "start_offset": 9.99600000000001,
            "end_offset": 11.424
        },
        "target_timerange": {
            "start_offset": 183.42000000000002,
            "end_offset": 184.848
        },
        "ignore_audio": true,
        "audio_path": null
    },
    {
        "segment_id": "1f3a22b49d8711efaa9cfa163edc3428",
        "text": "“How good it was in you,",
        "audio_url": "https://v16m-default.akamaized.net/dcdde7f96f855a3e2572a2818c0b41d7/672de320/video/tos/maliva/tos-maliva-v-f15faa-us/osAaiSjAiAAWKQtAUVCBzlZj24E5v0vXvErOy/?a=7073&bti=OTU0QDItLmA%3D&ch=0&cr=0&dr=4&er=0&lr=unwatermarked&cd=0%7C0%7C0%7C0&br=312&bt=156&ds=5&ft=.cwOVInz7ThulqvOXq8Zmo&qs=13&rc=anFkPG05cmlydjUzNzhoM0BpanFkPG05cmlydjUzNzhoM0BrM18tMmRrcWpgLS1kLjZzYSNrM18tMmRrcWpgLS1kLjZzcw%3D%3D&vvpl=1&l=02173103889916400000000000000000000ffff0a007d86a827b8&btag=e00070000&format=mp3&mime_type=audio_mpeg",
        "source_timerange": {
            "start_offset": 0,
            "end_offset": 1.3680000000000052
        },
        "target_timerange": {
            "start_offset": 184.848,
            "end_offset": 186.216
        },
        "ignore_audio": false,
        "audio_path": null
    },
    {
        "segment_id": "1f3a25989d8711efaa9cfa163edc3428",
        "text": "my dear Mr. Bennet!",
        "audio_url": "https://v16m-default.akamaized.net/dcdde7f96f855a3e2572a2818c0b41d7/672de320/video/tos/maliva/tos-maliva-v-f15faa-us/osAaiSjAiAAWKQtAUVCBzlZj24E5v0vXvErOy/?a=7073&bti=OTU0QDItLmA%3D&ch=0&cr=0&dr=4&er=0&lr=unwatermarked&cd=0%7C0%7C0%7C0&br=312&bt=156&ds=5&ft=.cwOVInz7ThulqvOXq8Zmo&qs=13&rc=anFkPG05cmlydjUzNzhoM0BpanFkPG05cmlydjUzNzhoM0BrM18tMmRrcWpgLS1kLjZzYSNrM18tMmRrcWpgLS1kLjZzcw%3D%3D&vvpl=1&l=02173103889916400000000000000000000ffff0a007d86a827b8&btag=e00070000&format=mp3&mime_type=audio_mpeg",
        "source_timerange": {
            "start_offset": 1.367999999999995,
            "end_offset": 2.736
        },
        "target_timerange": {
            "start_offset": 186.216,
            "end_offset": 187.584
        },
        "ignore_audio": true,
        "audio_path": null
    },
    {
        "segment_id": "1f3a320e9d8711efaa9cfa163edc3428",
        "text": "But I knew I should",
        "audio_url": "https://v16m-default.akamaized.net/1532590f734a12038e51f96ef0aa371b/672de320/video/tos/maliva/tos-maliva-v-f15faa-us/oQi7vjvy2AAVBAUAO0CmZdBDSr0EHE4Qtvi3C/?a=7073&bti=OTU0QDItLmA%3D&ch=0&cr=0&dr=4&er=0&lr=unwatermarked&cd=0%7C0%7C0%7C0&br=312&bt=156&ds=5&ft=.cwOVInz7ThulqvOXq8Zmo&qs=13&rc=am53M3E5cmlydjUzNzhoM0Bpam53M3E5cmlydjUzNzhoM0Atb2luMmRrcWpgLS1kLjZzYSMtb2luMmRrcWpgLS1kLjZzcw%3D%3D&vvpl=1&l=02173103889916400000000000000000000ffff0a007d86a827b8&btag=e00070000&format=mp3&mime_type=audio_mpeg",
        "source_timerange": {
            "start_offset": 0,
            "end_offset": 1.151999999999985
        },
        "target_timerange": {
            "start_offset": 187.584,
            "end_offset": 188.736
        },
        "ignore_audio": false,
        "audio_path": null
    },
    {
        "segment_id": "1f3a342a9d8711efaa9cfa163edc3428",
        "text": "persuade you at last.",
        "audio_url": "https://v16m-default.akamaized.net/1532590f734a12038e51f96ef0aa371b/672de320/video/tos/maliva/tos-maliva-v-f15faa-us/oQi7vjvy2AAVBAUAO0CmZdBDSr0EHE4Qtvi3C/?a=7073&bti=OTU0QDItLmA%3D&ch=0&cr=0&dr=4&er=0&lr=unwatermarked&cd=0%7C0%7C0%7C0&br=312&bt=156&ds=5&ft=.cwOVInz7ThulqvOXq8Zmo&qs=13&rc=am53M3E5cmlydjUzNzhoM0Bpam53M3E5cmlydjUzNzhoM0Atb2luMmRrcWpgLS1kLjZzYSMtb2luMmRrcWpgLS1kLjZzcw%3D%3D&vvpl=1&l=02173103889916400000000000000000000ffff0a007d86a827b8&btag=e00070000&format=mp3&mime_type=audio_mpeg",
        "source_timerange": {
            "start_offset": 1.1519999999999868,
            "end_offset": 2.3040000000000003
        },
        "target_timerange": {
            "start_offset": 188.736,
            "end_offset": 189.888
        },
        "ignore_audio": true,
        "audio_path": null
    },
    {
        "segment_id": "1f3a3f1a9d8711efaa9cfa163edc3428",
        "text": "I was sure you loved your girls too",
        "audio_url": "https://v16m-default.akamaized.net/1fef87d6def37abd9f2d44a2e611335b/672de321/video/tos/maliva/tos-maliva-v-f15faa-us/og0OAaSABjsiZimV2vUCOAEttEA46arQySArv/?a=7073&bti=OTU0QDItLmA%3D&ch=0&cr=0&dr=4&er=0&lr=unwatermarked&cd=0%7C0%7C0%7C0&br=312&bt=156&ds=5&ft=.cwOVInz7ThulqvOXq8Zmo&qs=13&rc=M2VwM245cmlydjUzNzhoM0BpM2VwM245cmlydjUzNzhoM0BqYTJhMmRrcWpgLS1kLjZzYSNqYTJhMmRrcWpgLS1kLjZzcw%3D%3D&vvpl=1&l=02173103889916400000000000000000000ffff0a007d86a827b8&btag=e00070000&format=mp3&mime_type=audio_mpeg",
        "source_timerange": {
            "start_offset": 0,
            "end_offset": 1.8599999999999866
        },
        "target_timerange": {
            "start_offset": 189.888,
            "end_offset": 191.748
        },
        "ignore_audio": false,
        "audio_path": null
    },
    {
        "segment_id": "1f3a408c9d8711efaa9cfa163edc3428",
        "text": "well to neglect such an acquaintance.",
        "audio_url": "https://v16m-default.akamaized.net/1fef87d6def37abd9f2d44a2e611335b/672de321/video/tos/maliva/tos-maliva-v-f15faa-us/og0OAaSABjsiZimV2vUCOAEttEA46arQySArv/?a=7073&bti=OTU0QDItLmA%3D&ch=0&cr=0&dr=4&er=0&lr=unwatermarked&cd=0%7C0%7C0%7C0&br=312&bt=156&ds=5&ft=.cwOVInz7ThulqvOXq8Zmo&qs=13&rc=M2VwM245cmlydjUzNzhoM0BpM2VwM245cmlydjUzNzhoM0BqYTJhMmRrcWpgLS1kLjZzYSNqYTJhMmRrcWpgLS1kLjZzcw%3D%3D&vvpl=1&l=02173103889916400000000000000000000ffff0a007d86a827b8&btag=e00070000&format=mp3&mime_type=audio_mpeg",
        "source_timerange": {
            "start_offset": 1.8599999999999852,
            "end_offset": 3.72
        },
        "target_timerange": {
            "start_offset": 191.748,
            "end_offset": 193.608
        },
        "ignore_audio": true,
        "audio_path": null
    },
    {
        "segment_id": "1f3a47129d8711efaa9cfa163edc3428",
        "text": "Well, how pleased I am!",
        "audio_url": "https://v16m-default.akamaized.net/86344b9950920431537228c9a9a2b562/672de31f/video/tos/maliva/tos-maliva-v-f15faa-us/oICXrADjWAxf1ALMtftOS4eEAmjFECOSCEgXrZ/?a=7073&bti=OTU0QDItLmA%3D&ch=0&cr=0&dr=4&er=0&lr=unwatermarked&cd=0%7C0%7C0%7C0&br=312&bt=156&ds=5&ft=.cwOVInz7ThulqvOXq8Zmo&qs=13&rc=M3NrbWs5cmlydjUzNzhoM0BpM3NrbWs5cmlydjUzNzhoM0BnMWVzMmRrcWpgLS1kLjZzYSNnMWVzMmRrcWpgLS1kLjZzcw%3D%3D&vvpl=1&l=02173103889916400000000000000000000ffff0a007d86a827b8&btag=e00070000&format=mp3&mime_type=audio_mpeg",
        "source_timerange": {
            "start_offset": 0,
            "end_offset": 1.92
        },
        "target_timerange": {
            "start_offset": 193.608,
            "end_offset": 195.528
        },
        "ignore_audio": false,
        "audio_path": null
    },
    {
        "segment_id": "1f3a5da69d8711efaa9cfa163edc3428",
        "text": "And it is such a good joke,",
        "audio_url": "https://v16m-default.akamaized.net/6c284db5b068ff4b5dbde860d58b9454/672de324/video/tos/maliva/tos-maliva-v-f15faa-us/osAeA8eeMCBOWApC9bQHx6IXWCSI8owgU1rW1X/?a=7073&bti=OTU0QDItLmA%3D&ch=0&cr=0&dr=4&er=0&lr=unwatermarked&cd=0%7C0%7C0%7C0&br=312&bt=156&ds=5&ft=.cwOVInz7Th9lqvOXq8Zmo&qs=13&rc=M2k8c2w5cmlydjUzNzhoM0BpM2k8c2w5cmlydjUzNzhoM0BebHFnMmRrcWpgLS1kLjZzYSNebHFnMmRrcWpgLS1kLjZzcw%3D%3D&vvpl=1&l=02173103889916400000000000000000000ffff0a007d86a827b8&btag=e00070000&format=mp3&mime_type=audio_mpeg",
        "source_timerange": {
            "start_offset": 0,
            "end_offset": 1.4639999999999755
        },
        "target_timerange": {
            "start_offset": 195.528,
            "end_offset": 196.992
        },
        "ignore_audio": false,
        "audio_path": null
    },
    {
        "segment_id": "1f3a5f549d8711efaa9cfa163edc3428",
        "text": "too, that you should have gone",
        "audio_url": "https://v16m-default.akamaized.net/6c284db5b068ff4b5dbde860d58b9454/672de324/video/tos/maliva/tos-maliva-v-f15faa-us/osAeA8eeMCBOWApC9bQHx6IXWCSI8owgU1rW1X/?a=7073&bti=OTU0QDItLmA%3D&ch=0&cr=0&dr=4&er=0&lr=unwatermarked&cd=0%7C0%7C0%7C0&br=312&bt=156&ds=5&ft=.cwOVInz7Th9lqvOXq8Zmo&qs=13&rc=M2k8c2w5cmlydjUzNzhoM0BpM2k8c2w5cmlydjUzNzhoM0BebHFnMmRrcWpgLS1kLjZzYSNebHFnMmRrcWpgLS1kLjZzcw%3D%3D&vvpl=1&l=02173103889916400000000000000000000ffff0a007d86a827b8&btag=e00070000&format=mp3&mime_type=audio_mpeg",
        "source_timerange": {
            "start_offset": 1.4639999999999986,
            "end_offset": 2.9280000000000026
        },
        "target_timerange": {
            "start_offset": 196.992,
            "end_offset": 198.45600000000002
        },
        "ignore_audio": true,
        "audio_path": null
    },
    {
        "segment_id": "1f3a608a9d8711efaa9cfa163edc3428",
        "text": "this morning, and never said a",
        "audio_url": "https://v16m-default.akamaized.net/6c284db5b068ff4b5dbde860d58b9454/672de324/video/tos/maliva/tos-maliva-v-f15faa-us/osAeA8eeMCBOWApC9bQHx6IXWCSI8owgU1rW1X/?a=7073&bti=OTU0QDItLmA%3D&ch=0&cr=0&dr=4&er=0&lr=unwatermarked&cd=0%7C0%7C0%7C0&br=312&bt=156&ds=5&ft=.cwOVInz7Th9lqvOXq8Zmo&qs=13&rc=M2k8c2w5cmlydjUzNzhoM0BpM2k8c2w5cmlydjUzNzhoM0BebHFnMmRrcWpgLS1kLjZzYSNebHFnMmRrcWpgLS1kLjZzcw%3D%3D&vvpl=1&l=02173103889916400000000000000000000ffff0a007d86a827b8&btag=e00070000&format=mp3&mime_type=audio_mpeg",
        "source_timerange": {
            "start_offset": 2.9280000000000257,
            "end_offset": 4.392000000000001
        },
        "target_timerange": {
            "start_offset": 198.45600000000002,
            "end_offset": 199.92000000000002
        },
        "ignore_audio": true,
        "audio_path": null
    },
    {
        "segment_id": "1f3a61ac9d8711efaa9cfa163edc3428",
        "text": "word about it till now.”",
        "audio_url": "https://v16m-default.akamaized.net/6c284db5b068ff4b5dbde860d58b9454/672de324/video/tos/maliva/tos-maliva-v-f15faa-us/osAeA8eeMCBOWApC9bQHx6IXWCSI8owgU1rW1X/?a=7073&bti=OTU0QDItLmA%3D&ch=0&cr=0&dr=4&er=0&lr=unwatermarked&cd=0%7C0%7C0%7C0&br=312&bt=156&ds=5&ft=.cwOVInz7Th9lqvOXq8Zmo&qs=13&rc=M2k8c2w5cmlydjUzNzhoM0BpM2k8c2w5cmlydjUzNzhoM0BebHFnMmRrcWpgLS1kLjZzYSNebHFnMmRrcWpgLS1kLjZzcw%3D%3D&vvpl=1&l=02173103889916400000000000000000000ffff0a007d86a827b8&btag=e00070000&format=mp3&mime_type=audio_mpeg",
        "source_timerange": {
            "start_offset": 4.392000000000024,
            "end_offset": 5.856
        },
        "target_timerange": {
            "start_offset": 199.92000000000002,
            "end_offset": 201.38400000000001
        },
        "ignore_audio": true,
        "audio_path": null
    },
    {
        "segment_id": "1f3a7e089d8711efaa9cfa163edc3428",
        "text": "“Now, Kitty, you may cough",
        "audio_url": "https://v16m-default.akamaized.net/785291374890a180ad9f6eeb75cae620/672de327/video/tos/maliva/tos-maliva-v-f15faa-us/oIEtEACArjMWX6GOnLAxeGjPe1pC9IAgSexrC0/?a=7073&bti=OTU0QDItLmA%3D&ch=0&cr=0&dr=4&er=0&lr=unwatermarked&cd=0%7C0%7C0%7C0&br=312&bt=156&ds=5&ft=.cwOVInz7Th9lqvOXq8Zmo&qs=13&rc=MzZmdnQ5cmlydjUzNzhoM0BpMzZmdnQ5cmlydjUzNzhoM0BjcnJgMmRrcWpgLS1kLjZzYSNjcnJgMmRrcWpgLS1kLjZzcw%3D%3D&vvpl=1&l=02173103889916400000000000000000000ffff0a007d86a827b8&btag=e00070000&format=mp3&mime_type=audio_mpeg",
        "source_timerange": {
            "start_offset": 0,
            "end_offset": 1.4600000000000168
        },
        "target_timerange": {
            "start_offset": 201.38400000000001,
            "end_offset": 202.84400000000002
        },
        "ignore_audio": false,
        "audio_path": null
    },
    {
        "segment_id": "1f3a80a69d8711efaa9cfa163edc3428",
        "text": "as much as you choose,”",
        "audio_url": "https://v16m-default.akamaized.net/785291374890a180ad9f6eeb75cae620/672de327/video/tos/maliva/tos-maliva-v-f15faa-us/oIEtEACArjMWX6GOnLAxeGjPe1pC9IAgSexrC0/?a=7073&bti=OTU0QDItLmA%3D&ch=0&cr=0&dr=4&er=0&lr=unwatermarked&cd=0%7C0%7C0%7C0&br=312&bt=156&ds=5&ft=.cwOVInz7Th9lqvOXq8Zmo&qs=13&rc=MzZmdnQ5cmlydjUzNzhoM0BpMzZmdnQ5cmlydjUzNzhoM0BjcnJgMmRrcWpgLS1kLjZzYSNjcnJgMmRrcWpgLS1kLjZzcw%3D%3D&vvpl=1&l=02173103889916400000000000000000000ffff0a007d86a827b8&btag=e00070000&format=mp3&mime_type=audio_mpeg",
        "source_timerange": {
            "start_offset": 1.460000000000008,
            "end_offset": 2.9199999999999964
        },
        "target_timerange": {
            "start_offset": 202.84400000000002,
            "end_offset": 204.304
        },
        "ignore_audio": true,
        "audio_path": null
    },
    {
        "segment_id": "1f3a85b09d8711efaa9cfa163edc3428",
        "text": "said Mr. Bennet; and, as he",
        "audio_url": "https://v16m-default.akamaized.net/785291374890a180ad9f6eeb75cae620/672de327/video/tos/maliva/tos-maliva-v-f15faa-us/oIEtEACArjMWX6GOnLAxeGjPe1pC9IAgSexrC0/?a=7073&bti=OTU0QDItLmA%3D&ch=0&cr=0&dr=4&er=0&lr=unwatermarked&cd=0%7C0%7C0%7C0&br=312&bt=156&ds=5&ft=.cwOVInz7Th9lqvOXq8Zmo&qs=13&rc=MzZmdnQ5cmlydjUzNzhoM0BpMzZmdnQ5cmlydjUzNzhoM0BjcnJgMmRrcWpgLS1kLjZzYSNjcnJgMmRrcWpgLS1kLjZzcw%3D%3D&vvpl=1&l=02173103889916400000000000000000000ffff0a007d86a827b8&btag=e00070000&format=mp3&mime_type=audio_mpeg",
        "source_timerange": {
            "start_offset": 2.9199999999999875,
            "end_offset": 4.380000000000004
        },
        "target_timerange": {
            "start_offset": 204.304,
            "end_offset": 205.764
        },
        "ignore_audio": true,
        "audio_path": null
    },
    {
        "segment_id": "1f3a88089d8711efaa9cfa163edc3428",
        "text": "spoke, he left the room,",
        "audio_url": "https://v16m-default.akamaized.net/785291374890a180ad9f6eeb75cae620/672de327/video/tos/maliva/tos-maliva-v-f15faa-us/oIEtEACArjMWX6GOnLAxeGjPe1pC9IAgSexrC0/?a=7073&bti=OTU0QDItLmA%3D&ch=0&cr=0&dr=4&er=0&lr=unwatermarked&cd=0%7C0%7C0%7C0&br=312&bt=156&ds=5&ft=.cwOVInz7Th9lqvOXq8Zmo&qs=13&rc=MzZmdnQ5cmlydjUzNzhoM0BpMzZmdnQ5cmlydjUzNzhoM0BjcnJgMmRrcWpgLS1kLjZzYSNjcnJgMmRrcWpgLS1kLjZzcw%3D%3D&vvpl=1&l=02173103889916400000000000000000000ffff0a007d86a827b8&btag=e00070000&format=mp3&mime_type=audio_mpeg",
        "source_timerange": {
            "start_offset": 4.3799999999999955,
            "end_offset": 5.840000000000012
        },
        "target_timerange": {
            "start_offset": 205.764,
            "end_offset": 207.22400000000002
        },
        "ignore_audio": true,
        "audio_path": null
    },
    {
        "segment_id": "1f3a8a389d8711efaa9cfa163edc3428",
        "text": "fatigued with the raptures",
        "audio_url": "https://v16m-default.akamaized.net/785291374890a180ad9f6eeb75cae620/672de327/video/tos/maliva/tos-maliva-v-f15faa-us/oIEtEACArjMWX6GOnLAxeGjPe1pC9IAgSexrC0/?a=7073&bti=OTU0QDItLmA%3D&ch=0&cr=0&dr=4&er=0&lr=unwatermarked&cd=0%7C0%7C0%7C0&br=312&bt=156&ds=5&ft=.cwOVInz7Th9lqvOXq8Zmo&qs=13&rc=MzZmdnQ5cmlydjUzNzhoM0BpMzZmdnQ5cmlydjUzNzhoM0BjcnJgMmRrcWpgLS1kLjZzYSNjcnJgMmRrcWpgLS1kLjZzcw%3D%3D&vvpl=1&l=02173103889916400000000000000000000ffff0a007d86a827b8&btag=e00070000&format=mp3&mime_type=audio_mpeg",
        "source_timerange": {
            "start_offset": 5.840000000000003,
            "end_offset": 7.299999999999992
        },
        "target_timerange": {
            "start_offset": 207.22400000000002,
            "end_offset": 208.684
        },
        "ignore_audio": true,
        "audio_path": null
    },
    {
        "segment_id": "1f3a8c5e9d8711efaa9cfa163edc3428",
        "text": "of his wife.",
        "audio_url": "https://v16m-default.akamaized.net/785291374890a180ad9f6eeb75cae620/672de327/video/tos/maliva/tos-maliva-v-f15faa-us/oIEtEACArjMWX6GOnLAxeGjPe1pC9IAgSexrC0/?a=7073&bti=OTU0QDItLmA%3D&ch=0&cr=0&dr=4&er=0&lr=unwatermarked&cd=0%7C0%7C0%7C0&br=312&bt=156&ds=5&ft=.cwOVInz7Th9lqvOXq8Zmo&qs=13&rc=MzZmdnQ5cmlydjUzNzhoM0BpMzZmdnQ5cmlydjUzNzhoM0BjcnJgMmRrcWpgLS1kLjZzYSNjcnJgMmRrcWpgLS1kLjZzcw%3D%3D&vvpl=1&l=02173103889916400000000000000000000ffff0a007d86a827b8&btag=e00070000&format=mp3&mime_type=audio_mpeg",
        "source_timerange": {
            "start_offset": 7.299999999999983,
            "end_offset": 8.76
        },
        "target_timerange": {
            "start_offset": 208.684,
            "end_offset": 210.144
        },
        "ignore_audio": true,
        "audio_path": null
    },
    {
        "segment_id": "1f3aa6769d8711efaa9cfa163edc3428",
        "text": "“What an excellent father",
        "audio_url": "https://v16m-default.akamaized.net/3ee7f88df0a4d35b84fb15e6f4a878bd/672de323/video/tos/maliva/tos-maliva-v-f15faa-us/o0XAbFve1W7XDHDArfhCx3ChgSEeCBAIHOtaII/?a=7073&bti=OTU0QDItLmA%3D&ch=0&cr=0&dr=4&er=0&lr=unwatermarked&cd=0%7C0%7C0%7C0&br=312&bt=156&ds=5&ft=.cwOVInz7Th9lqvOXq8Zmo&qs=13&rc=MzZvdmo5cmlydjUzNzhoM0BpMzZvdmo5cmlydjUzNzhoM0BmYzJyMmRrcWpgLS1kLjZzYSNmYzJyMmRrcWpgLS1kLjZzcw%3D%3D&vvpl=1&l=02173103889916400000000000000000000ffff0a007d86a827b8&btag=e00070000&format=mp3&mime_type=audio_mpeg",
        "source_timerange": {
            "start_offset": 0,
            "end_offset": 1.4400000000000048
        },
        "target_timerange": {
            "start_offset": 210.144,
            "end_offset": 211.584
        },
        "ignore_audio": false,
        "audio_path": null
    },
    {
        "segment_id": "1f3aa9dc9d8711efaa9cfa163edc3428",
        "text": "you have, girls,” said she,",
        "audio_url": "https://v16m-default.akamaized.net/3ee7f88df0a4d35b84fb15e6f4a878bd/672de323/video/tos/maliva/tos-maliva-v-f15faa-us/o0XAbFve1W7XDHDArfhCx3ChgSEeCBAIHOtaII/?a=7073&bti=OTU0QDItLmA%3D&ch=0&cr=0&dr=4&er=0&lr=unwatermarked&cd=0%7C0%7C0%7C0&br=312&bt=156&ds=5&ft=.cwOVInz7Th9lqvOXq8Zmo&qs=13&rc=MzZvdmo5cmlydjUzNzhoM0BpMzZvdmo5cmlydjUzNzhoM0BmYzJyMmRrcWpgLS1kLjZzYSNmYzJyMmRrcWpgLS1kLjZzcw%3D%3D&vvpl=1&l=02173103889916400000000000000000000ffff0a007d86a827b8&btag=e00070000&format=mp3&mime_type=audio_mpeg",
        "source_timerange": {
            "start_offset": 1.4399999999999977,
            "end_offset": 2.8800000000000026
        },
        "target_timerange": {
            "start_offset": 211.584,
            "end_offset": 213.024
        },
        "ignore_audio": true,
        "audio_path": null
    },
    {
        "segment_id": "1f3aac349d8711efaa9cfa163edc3428",
        "text": "when the door was shut.",
        "audio_url": "https://v16m-default.akamaized.net/3ee7f88df0a4d35b84fb15e6f4a878bd/672de323/video/tos/maliva/tos-maliva-v-f15faa-us/o0XAbFve1W7XDHDArfhCx3ChgSEeCBAIHOtaII/?a=7073&bti=OTU0QDItLmA%3D&ch=0&cr=0&dr=4&er=0&lr=unwatermarked&cd=0%7C0%7C0%7C0&br=312&bt=156&ds=5&ft=.cwOVInz7Th9lqvOXq8Zmo&qs=13&rc=MzZvdmo5cmlydjUzNzhoM0BpMzZvdmo5cmlydjUzNzhoM0BmYzJyMmRrcWpgLS1kLjZzYSNmYzJyMmRrcWpgLS1kLjZzcw%3D%3D&vvpl=1&l=02173103889916400000000000000000000ffff0a007d86a827b8&btag=e00070000&format=mp3&mime_type=audio_mpeg",
        "source_timerange": {
            "start_offset": 2.8799999999999955,
            "end_offset": 4.32
        },
        "target_timerange": {
            "start_offset": 213.024,
            "end_offset": 214.464
        },
        "ignore_audio": true,
        "audio_path": null
    },
    {
        "segment_id": "1f3ac8f49d8711efaa9cfa163edc3428",
        "text": "“I do not know how you will",
        "audio_url": "https://v16m-default.akamaized.net/e3e0f9b494f1bbb6885335543cfdcfdb/672de324/video/tos/maliva/tos-maliva-v-f15faa-us/oEE12nrivMO4rtQAOSAVEaBo4jAiUC7vSAiyZ/?a=7073&bti=OTU0QDItLmA%3D&ch=0&cr=0&dr=4&er=0&lr=unwatermarked&cd=0%7C0%7C0%7C0&br=312&bt=156&ds=5&ft=.cwOVInz7Th9lqvOXq8Zmo&qs=13&rc=anRsaG85cmlydjUzNzhoM0BpanRsaG85cmlydjUzNzhoM0BnZG1lMmRrcWpgLS1kLjZzYSNnZG1lMmRrcWpgLS1kLjZzcw%3D%3D&vvpl=1&l=02173103889916400000000000000000000ffff0a007d86a827b8&btag=e00070000&format=mp3&mime_type=audio_mpeg",
        "source_timerange": {
            "start_offset": 0,
            "end_offset": 1.4339999999999788
        },
        "target_timerange": {
            "start_offset": 214.464,
            "end_offset": 215.898
        },
        "ignore_audio": false,
        "audio_path": null
    },
    {
        "segment_id": "1f3acaca9d8711efaa9cfa163edc3428",
        "text": "ever make him amends for",
        "audio_url": "https://v16m-default.akamaized.net/e3e0f9b494f1bbb6885335543cfdcfdb/672de324/video/tos/maliva/tos-maliva-v-f15faa-us/oEE12nrivMO4rtQAOSAVEaBo4jAiUC7vSAiyZ/?a=7073&bti=OTU0QDItLmA%3D&ch=0&cr=0&dr=4&er=0&lr=unwatermarked&cd=0%7C0%7C0%7C0&br=312&bt=156&ds=5&ft=.cwOVInz7Th9lqvOXq8Zmo&qs=13&rc=anRsaG85cmlydjUzNzhoM0BpanRsaG85cmlydjUzNzhoM0BnZG1lMmRrcWpgLS1kLjZzYSNnZG1lMmRrcWpgLS1kLjZzcw%3D%3D&vvpl=1&l=02173103889916400000000000000000000ffff0a007d86a827b8&btag=e00070000&format=mp3&mime_type=audio_mpeg",
        "source_timerange": {
            "start_offset": 1.4339999999999975,
            "end_offset": 2.8679999999999763
        },
        "target_timerange": {
            "start_offset": 215.898,
            "end_offset": 217.332
        },
        "ignore_audio": true,
        "audio_path": null
    },
    {
        "segment_id": "1f3acd189d8711efaa9cfa163edc3428",
        "text": "his kindness; or me either,",
        "audio_url": "https://v16m-default.akamaized.net/e3e0f9b494f1bbb6885335543cfdcfdb/672de324/video/tos/maliva/tos-maliva-v-f15faa-us/oEE12nrivMO4rtQAOSAVEaBo4jAiUC7vSAiyZ/?a=7073&bti=OTU0QDItLmA%3D&ch=0&cr=0&dr=4&er=0&lr=unwatermarked&cd=0%7C0%7C0%7C0&br=312&bt=156&ds=5&ft=.cwOVInz7Th9lqvOXq8Zmo&qs=13&rc=anRsaG85cmlydjUzNzhoM0BpanRsaG85cmlydjUzNzhoM0BnZG1lMmRrcWpgLS1kLjZzYSNnZG1lMmRrcWpgLS1kLjZzcw%3D%3D&vvpl=1&l=02173103889916400000000000000000000ffff0a007d86a827b8&btag=e00070000&format=mp3&mime_type=audio_mpeg",
        "source_timerange": {
            "start_offset": 2.867999999999995,
            "end_offset": 4.302000000000002
        },
        "target_timerange": {
            "start_offset": 217.332,
            "end_offset": 218.76600000000002
        },
        "ignore_audio": true,
        "audio_path": null
    },
    {
        "segment_id": "1f3acffc9d8711efaa9cfa163edc3428",
        "text": "for that matter.",
        "audio_url": "https://v16m-default.akamaized.net/e3e0f9b494f1bbb6885335543cfdcfdb/672de324/video/tos/maliva/tos-maliva-v-f15faa-us/oEE12nrivMO4rtQAOSAVEaBo4jAiUC7vSAiyZ/?a=7073&bti=OTU0QDItLmA%3D&ch=0&cr=0&dr=4&er=0&lr=unwatermarked&cd=0%7C0%7C0%7C0&br=312&bt=156&ds=5&ft=.cwOVInz7Th9lqvOXq8Zmo&qs=13&rc=anRsaG85cmlydjUzNzhoM0BpanRsaG85cmlydjUzNzhoM0BnZG1lMmRrcWpgLS1kLjZzYSNnZG1lMmRrcWpgLS1kLjZzcw%3D%3D&vvpl=1&l=02173103889916400000000000000000000ffff0a007d86a827b8&btag=e00070000&format=mp3&mime_type=audio_mpeg",
        "source_timerange": {
            "start_offset": 4.302000000000021,
            "end_offset": 5.736
        },
        "target_timerange": {
            "start_offset": 218.76600000000002,
            "end_offset": 220.20000000000002
        },
        "ignore_audio": true,
        "audio_path": null
    },
    {
        "segment_id": "1f3b0a129d8711efaa9cfa163edc3428",
        "text": "At our time of life, it is",
        "audio_url": "https://v16m-default.akamaized.net/925f30853ae8d7319d14ea8a1a35da3c/672de327/video/tos/maliva/tos-maliva-v-f15faa-us/o87JCMfDSEtdreOCJj2NAWXxtCrX5E1AFAAeEg/?a=7073&bti=OTU0QDItLmA%3D&ch=0&cr=0&dr=4&er=0&lr=unwatermarked&cd=0%7C0%7C0%7C0&br=312&bt=156&ds=5&ft=.cwOVInz7Th9lqvOXq8Zmo&qs=13&rc=anFzPHA5cmlydjUzNzhoM0BpanFzPHA5cmlydjUzNzhoM0AzcDFmMmRrcWpgLS1kLjZzYSMzcDFmMmRrcWpgLS1kLjZzcw%3D%3D&vvpl=1&l=02173103889916400000000000000000000ffff0a007d86a827b8&btag=e00070000&format=mp3&mime_type=audio_mpeg",
        "source_timerange": {
            "start_offset": 0,
            "end_offset": 1.496000000000011
        },
        "target_timerange": {
            "start_offset": 220.20000000000002,
            "end_offset": 221.69600000000003
        },
        "ignore_audio": false,
        "audio_path": null
    },
    {
        "segment_id": "1f3b0d8c9d8711efaa9cfa163edc3428",
        "text": "not so pleasant, I can",
        "audio_url": "https://v16m-default.akamaized.net/925f30853ae8d7319d14ea8a1a35da3c/672de327/video/tos/maliva/tos-maliva-v-f15faa-us/o87JCMfDSEtdreOCJj2NAWXxtCrX5E1AFAAeEg/?a=7073&bti=OTU0QDItLmA%3D&ch=0&cr=0&dr=4&er=0&lr=unwatermarked&cd=0%7C0%7C0%7C0&br=312&bt=156&ds=5&ft=.cwOVInz7Th9lqvOXq8Zmo&qs=13&rc=anFzPHA5cmlydjUzNzhoM0BpanFzPHA5cmlydjUzNzhoM0AzcDFmMmRrcWpgLS1kLjZzYSMzcDFmMmRrcWpgLS1kLjZzcw%3D%3D&vvpl=1&l=02173103889916400000000000000000000ffff0a007d86a827b8&btag=e00070000&format=mp3&mime_type=audio_mpeg",
        "source_timerange": {
            "start_offset": 1.4960000000000093,
            "end_offset": 2.991999999999992
        },
        "target_timerange": {
            "start_offset": 221.69600000000003,
            "end_offset": 223.192
        },
        "ignore_audio": true,
        "audio_path": null
    },
    {
        "segment_id": "1f3b11569d8711efaa9cfa163edc3428",
        "text": "tell you, to be making new",
        "audio_url": "https://v16m-default.akamaized.net/925f30853ae8d7319d14ea8a1a35da3c/672de327/video/tos/maliva/tos-maliva-v-f15faa-us/o87JCMfDSEtdreOCJj2NAWXxtCrX5E1AFAAeEg/?a=7073&bti=OTU0QDItLmA%3D&ch=0&cr=0&dr=4&er=0&lr=unwatermarked&cd=0%7C0%7C0%7C0&br=312&bt=156&ds=5&ft=.cwOVInz7Th9lqvOXq8Zmo&qs=13&rc=anFzPHA5cmlydjUzNzhoM0BpanFzPHA5cmlydjUzNzhoM0AzcDFmMmRrcWpgLS1kLjZzYSMzcDFmMmRrcWpgLS1kLjZzcw%3D%3D&vvpl=1&l=02173103889916400000000000000000000ffff0a007d86a827b8&btag=e00070000&format=mp3&mime_type=audio_mpeg",
        "source_timerange": {
            "start_offset": 2.9919999999999902,
            "end_offset": 4.488000000000001
        },
        "target_timerange": {
            "start_offset": 223.192,
            "end_offset": 224.68800000000002
        },
        "ignore_audio": true,
        "audio_path": null
    },
    {
        "segment_id": "1f3b150c9d8711efaa9cfa163edc3428",
        "text": "acquaintances every day;",
        "audio_url": "https://v16m-default.akamaized.net/925f30853ae8d7319d14ea8a1a35da3c/672de327/video/tos/maliva/tos-maliva-v-f15faa-us/o87JCMfDSEtdreOCJj2NAWXxtCrX5E1AFAAeEg/?a=7073&bti=OTU0QDItLmA%3D&ch=0&cr=0&dr=4&er=0&lr=unwatermarked&cd=0%7C0%7C0%7C0&br=312&bt=156&ds=5&ft=.cwOVInz7Th9lqvOXq8Zmo&qs=13&rc=anFzPHA5cmlydjUzNzhoM0BpanFzPHA5cmlydjUzNzhoM0AzcDFmMmRrcWpgLS1kLjZzYSMzcDFmMmRrcWpgLS1kLjZzcw%3D%3D&vvpl=1&l=02173103889916400000000000000000000ffff0a007d86a827b8&btag=e00070000&format=mp3&mime_type=audio_mpeg",
        "source_timerange": {
            "start_offset": 4.4879999999999995,
            "end_offset": 5.984000000000011
        },
        "target_timerange": {
            "start_offset": 224.68800000000002,
            "end_offset": 226.18400000000003
        },
        "ignore_audio": true,
        "audio_path": null
    },
    {
        "segment_id": "1f3b17b49d8711efaa9cfa163edc3428",
        "text": "but for your sakes we",
        "audio_url": "https://v16m-default.akamaized.net/925f30853ae8d7319d14ea8a1a35da3c/672de327/video/tos/maliva/tos-maliva-v-f15faa-us/o87JCMfDSEtdreOCJj2NAWXxtCrX5E1AFAAeEg/?a=7073&bti=OTU0QDItLmA%3D&ch=0&cr=0&dr=4&er=0&lr=unwatermarked&cd=0%7C0%7C0%7C0&br=312&bt=156&ds=5&ft=.cwOVInz7Th9lqvOXq8Zmo&qs=13&rc=anFzPHA5cmlydjUzNzhoM0BpanFzPHA5cmlydjUzNzhoM0AzcDFmMmRrcWpgLS1kLjZzYSMzcDFmMmRrcWpgLS1kLjZzcw%3D%3D&vvpl=1&l=02173103889916400000000000000000000ffff0a007d86a827b8&btag=e00070000&format=mp3&mime_type=audio_mpeg",
        "source_timerange": {
            "start_offset": 5.984000000000009,
            "end_offset": 7.4799999999999915
        },
        "target_timerange": {
            "start_offset": 226.18400000000003,
            "end_offset": 227.68
        },
        "ignore_audio": true,
        "audio_path": null
    },
    {
        "segment_id": "1f3b1a8e9d8711efaa9cfa163edc3428",
        "text": "would do anything.",
        "audio_url": "https://v16m-default.akamaized.net/925f30853ae8d7319d14ea8a1a35da3c/672de327/video/tos/maliva/tos-maliva-v-f15faa-us/o87JCMfDSEtdreOCJj2NAWXxtCrX5E1AFAAeEg/?a=7073&bti=OTU0QDItLmA%3D&ch=0&cr=0&dr=4&er=0&lr=unwatermarked&cd=0%7C0%7C0%7C0&br=312&bt=156&ds=5&ft=.cwOVInz7Th9lqvOXq8Zmo&qs=13&rc=anFzPHA5cmlydjUzNzhoM0BpanFzPHA5cmlydjUzNzhoM0AzcDFmMmRrcWpgLS1kLjZzYSMzcDFmMmRrcWpgLS1kLjZzcw%3D%3D&vvpl=1&l=02173103889916400000000000000000000ffff0a007d86a827b8&btag=e00070000&format=mp3&mime_type=audio_mpeg",
        "source_timerange": {
            "start_offset": 7.47999999999999,
            "end_offset": 8.976
        },
        "target_timerange": {
            "start_offset": 227.68,
            "end_offset": 229.17600000000002
        },
        "ignore_audio": true,
        "audio_path": null
    },
    {
        "segment_id": "1f3b43609d8711efaa9cfa163edc3428",
        "text": "Lydia, my love, though you",
        "audio_url": "https://v16m-default.akamaized.net/45a04c67d5d9306fef04331949b268de/672de324/video/tos/maliva/tos-maliva-v-f15faa-us/oovvSAqrV4uytyO0iEUAJ7ZjBVEAdQ8y5iAC2/?a=7073&bti=OTU0QDItLmA%3D&ch=0&cr=0&dr=4&er=0&lr=unwatermarked&cd=0%7C0%7C0%7C0&br=312&bt=156&ds=5&ft=.cwOVInz7Th9lqvOXq8Zmo&qs=13&rc=M2x1OnU5cmlydjUzNzhoM0BpM2x1OnU5cmlydjUzNzhoM0BpMmFyMmRrcWpgLS1kLjZzYSNpMmFyMmRrcWpgLS1kLjZzcw%3D%3D&vvpl=1&l=02173103889916400000000000000000000ffff0a007d86a827b8&btag=e00070000&format=mp3&mime_type=audio_mpeg",
        "source_timerange": {
            "start_offset": 0,
            "end_offset": 1.4940000000000007
        },
        "target_timerange": {
            "start_offset": 229.17600000000002,
            "end_offset": 230.67000000000002
        },
        "ignore_audio": false,
        "audio_path": null
    },
    {
        "segment_id": "1f3b47ca9d8711efaa9cfa163edc3428",
        "text": "_are_ the youngest, I dare say",
        "audio_url": "https://v16m-default.akamaized.net/45a04c67d5d9306fef04331949b268de/672de324/video/tos/maliva/tos-maliva-v-f15faa-us/oovvSAqrV4uytyO0iEUAJ7ZjBVEAdQ8y5iAC2/?a=7073&bti=OTU0QDItLmA%3D&ch=0&cr=0&dr=4&er=0&lr=unwatermarked&cd=0%7C0%7C0%7C0&br=312&bt=156&ds=5&ft=.cwOVInz7Th9lqvOXq8Zmo&qs=13&rc=M2x1OnU5cmlydjUzNzhoM0BpM2x1OnU5cmlydjUzNzhoM0BpMmFyMmRrcWpgLS1kLjZzYSNpMmFyMmRrcWpgLS1kLjZzcw%3D%3D&vvpl=1&l=02173103889916400000000000000000000ffff0a007d86a827b8&btag=e00070000&format=mp3&mime_type=audio_mpeg",
        "source_timerange": {
            "start_offset": 1.4939999999999998,
            "end_offset": 2.9880000000000004
        },
        "target_timerange": {
            "start_offset": 230.67000000000002,
            "end_offset": 232.16400000000002
        },
        "ignore_audio": true,
        "audio_path": null
    },
    {
        "segment_id": "1f3b4b809d8711efaa9cfa163edc3428",
        "text": "Mr. Bingley will dance with",
        "audio_url": "https://v16m-default.akamaized.net/45a04c67d5d9306fef04331949b268de/672de324/video/tos/maliva/tos-maliva-v-f15faa-us/oovvSAqrV4uytyO0iEUAJ7ZjBVEAdQ8y5iAC2/?a=7073&bti=OTU0QDItLmA%3D&ch=0&cr=0&dr=4&er=0&lr=unwatermarked&cd=0%7C0%7C0%7C0&br=312&bt=156&ds=5&ft=.cwOVInz7Th9lqvOXq8Zmo&qs=13&rc=M2x1OnU5cmlydjUzNzhoM0BpM2x1OnU5cmlydjUzNzhoM0BpMmFyMmRrcWpgLS1kLjZzYSNpMmFyMmRrcWpgLS1kLjZzcw%3D%3D&vvpl=1&l=02173103889916400000000000000000000ffff0a007d86a827b8&btag=e00070000&format=mp3&mime_type=audio_mpeg",
        "source_timerange": {
            "start_offset": 2.9879999999999995,
            "end_offset": 4.482
        },
        "target_timerange": {
            "start_offset": 232.16400000000002,
            "end_offset": 233.65800000000002
        },
        "ignore_audio": true,
        "audio_path": null
    },
    {
        "segment_id": "1f3b4e1e9d8711efaa9cfa163edc3428",
        "text": "you at the next ball.”",
        "audio_url": "https://v16m-default.akamaized.net/45a04c67d5d9306fef04331949b268de/672de324/video/tos/maliva/tos-maliva-v-f15faa-us/oovvSAqrV4uytyO0iEUAJ7ZjBVEAdQ8y5iAC2/?a=7073&bti=OTU0QDItLmA%3D&ch=0&cr=0&dr=4&er=0&lr=unwatermarked&cd=0%7C0%7C0%7C0&br=312&bt=156&ds=5&ft=.cwOVInz7Th9lqvOXq8Zmo&qs=13&rc=M2x1OnU5cmlydjUzNzhoM0BpM2x1OnU5cmlydjUzNzhoM0BpMmFyMmRrcWpgLS1kLjZzYSNpMmFyMmRrcWpgLS1kLjZzcw%3D%3D&vvpl=1&l=02173103889916400000000000000000000ffff0a007d86a827b8&btag=e00070000&format=mp3&mime_type=audio_mpeg",
        "source_timerange": {
            "start_offset": 4.481999999999999,
            "end_offset": 5.976
        },
        "target_timerange": {
            "start_offset": 233.65800000000002,
            "end_offset": 235.15200000000002
        },
        "ignore_audio": true,
        "audio_path": null
    },
    {
        "segment_id": "1f3b7ed49d8711efaa9cfa163edc3428",
        "text": "“Oh,” said Lydia, stoutly,",
        "audio_url": "https://v16m-default.akamaized.net/7a8bbb75b4fa24246038f529f1911b27/672de325/video/tos/maliva/tos-maliva-v-f15faa-us/oAGU2EA4vAjQ6X3zCZsAvVFS9AtOiiy4EGBrN/?a=7073&bti=OTU0QDItLmA%3D&ch=0&cr=0&dr=4&er=0&lr=unwatermarked&cd=0%7C0%7C0%7C0&br=312&bt=156&ds=5&ft=.cwOVInz7Th9lqvOXq8Zmo&qs=13&rc=M3FudnE5cmlydjUzNzhoM0BpM3FudnE5cmlydjUzNzhoM0BxYHMvMmRrcWpgLS1kLjZzYSNxYHMvMmRrcWpgLS1kLjZzcw%3D%3D&vvpl=1&l=02173103889916400000000000000000000ffff0a007d86a827b8&btag=e00070000&format=mp3&mime_type=audio_mpeg",
        "source_timerange": {
            "start_offset": 0,
            "end_offset": 1.5600000000000218
        },
        "target_timerange": {
            "start_offset": 235.15200000000002,
            "end_offset": 236.71200000000002
        },
        "ignore_audio": false,
        "audio_path": null
    },
    {
        "segment_id": "1f3b82a89d8711efaa9cfa163edc3428",
        "text": "“I am not afraid; for",
        "audio_url": "https://v16m-default.akamaized.net/7a8bbb75b4fa24246038f529f1911b27/672de325/video/tos/maliva/tos-maliva-v-f15faa-us/oAGU2EA4vAjQ6X3zCZsAvVFS9AtOiiy4EGBrN/?a=7073&bti=OTU0QDItLmA%3D&ch=0&cr=0&dr=4&er=0&lr=unwatermarked&cd=0%7C0%7C0%7C0&br=312&bt=156&ds=5&ft=.cwOVInz7Th9lqvOXq8Zmo&qs=13&rc=M3FudnE5cmlydjUzNzhoM0BpM3FudnE5cmlydjUzNzhoM0BxYHMvMmRrcWpgLS1kLjZzYSNxYHMvMmRrcWpgLS1kLjZzcw%3D%3D&vvpl=1&l=02173103889916400000000000000000000ffff0a007d86a827b8&btag=e00070000&format=mp3&mime_type=audio_mpeg",
        "source_timerange": {
            "start_offset": 1.5600000000000023,
            "end_offset": 3.1199999999999957
        },
        "target_timerange": {
            "start_offset": 236.71200000000002,
            "end_offset": 238.272
        },
        "ignore_audio": true,
        "audio_path": null
    },
    {
        "segment_id": "1f3b860e9d8711efaa9cfa163edc3428",
        "text": "though I _am_ the",
        "audio_url": "https://v16m-default.akamaized.net/7a8bbb75b4fa24246038f529f1911b27/672de325/video/tos/maliva/tos-maliva-v-f15faa-us/oAGU2EA4vAjQ6X3zCZsAvVFS9AtOiiy4EGBrN/?a=7073&bti=OTU0QDItLmA%3D&ch=0&cr=0&dr=4&er=0&lr=unwatermarked&cd=0%7C0%7C0%7C0&br=312&bt=156&ds=5&ft=.cwOVInz7Th9lqvOXq8Zmo&qs=13&rc=M3FudnE5cmlydjUzNzhoM0BpM3FudnE5cmlydjUzNzhoM0BxYHMvMmRrcWpgLS1kLjZzYSNxYHMvMmRrcWpgLS1kLjZzcw%3D%3D&vvpl=1&l=02173103889916400000000000000000000ffff0a007d86a827b8&btag=e00070000&format=mp3&mime_type=audio_mpeg",
        "source_timerange": {
            "start_offset": 3.119999999999976,
            "end_offset": 4.679999999999998
        },
        "target_timerange": {
            "start_offset": 238.272,
            "end_offset": 239.832
        },
        "ignore_audio": true,
        "audio_path": null
    },
    {
        "segment_id": "1f3b88849d8711efaa9cfa163edc3428",
        "text": "youngest, I’m the tallest.”",
        "audio_url": "https://v16m-default.akamaized.net/7a8bbb75b4fa24246038f529f1911b27/672de325/video/tos/maliva/tos-maliva-v-f15faa-us/oAGU2EA4vAjQ6X3zCZsAvVFS9AtOiiy4EGBrN/?a=7073&bti=OTU0QDItLmA%3D&ch=0&cr=0&dr=4&er=0&lr=unwatermarked&cd=0%7C0%7C0%7C0&br=312&bt=156&ds=5&ft=.cwOVInz7Th9lqvOXq8Zmo&qs=13&rc=M3FudnE5cmlydjUzNzhoM0BpM3FudnE5cmlydjUzNzhoM0BxYHMvMmRrcWpgLS1kLjZzYSNxYHMvMmRrcWpgLS1kLjZzcw%3D%3D&vvpl=1&l=02173103889916400000000000000000000ffff0a007d86a827b8&btag=e00070000&format=mp3&mime_type=audio_mpeg",
        "source_timerange": {
            "start_offset": 4.679999999999978,
            "end_offset": 6.24
        },
        "target_timerange": {
            "start_offset": 239.832,
            "end_offset": 241.392
        },
        "ignore_audio": true,
        "audio_path": null
    },
    {
        "segment_id": "1f3bbfca9d8711efaa9cfa163edc3428",
        "text": "The rest of the evening was",
        "audio_url": "https://v16m-default.akamaized.net/73f9c1e70e7e2ed7725b4bf3e168120a/672de326/video/tos/maliva/tos-maliva-v-f15faa-us/o0fYt5eXCACEAeg3o3DTSOErWEA1ZjruxFgCAV/?a=7073&bti=OTU0QDItLmA%3D&ch=0&cr=0&dr=4&er=0&lr=unwatermarked&cd=0%7C0%7C0%7C0&br=312&bt=156&ds=5&ft=.cwOVInz7Th9lqvOXq8Zmo&qs=13&rc=M21rdG45cmlydjUzNzhoM0BpM21rdG45cmlydjUzNzhoM0BkcGlhMmRrcWpgLS1kLjZzYSNkcGlhMmRrcWpgLS1kLjZzcw%3D%3D&vvpl=1&l=02173103889916400000000000000000000ffff0a007d86a827b8&btag=e00070000&format=mp3&mime_type=audio_mpeg",
        "source_timerange": {
            "start_offset": 0,
            "end_offset": 1.4639999999999773
        },
        "target_timerange": {
            "start_offset": 241.392,
            "end_offset": 242.856
        },
        "ignore_audio": false,
        "audio_path": null
    },
    {
        "segment_id": "1f3bc3ee9d8711efaa9cfa163edc3428",
        "text": "spent in conjecturing how soon",
        "audio_url": "https://v16m-default.akamaized.net/73f9c1e70e7e2ed7725b4bf3e168120a/672de326/video/tos/maliva/tos-maliva-v-f15faa-us/o0fYt5eXCACEAeg3o3DTSOErWEA1ZjruxFgCAV/?a=7073&bti=OTU0QDItLmA%3D&ch=0&cr=0&dr=4&er=0&lr=unwatermarked&cd=0%7C0%7C0%7C0&br=312&bt=156&ds=5&ft=.cwOVInz7Th9lqvOXq8Zmo&qs=13&rc=M21rdG45cmlydjUzNzhoM0BpM21rdG45cmlydjUzNzhoM0BkcGlhMmRrcWpgLS1kLjZzYSNkcGlhMmRrcWpgLS1kLjZzcw%3D%3D&vvpl=1&l=02173103889916400000000000000000000ffff0a007d86a827b8&btag=e00070000&format=mp3&mime_type=audio_mpeg",
        "source_timerange": {
            "start_offset": 1.4639999999999986,
            "end_offset": 2.927999999999976
        },
        "target_timerange": {
            "start_offset": 242.856,
            "end_offset": 244.32
        },
        "ignore_audio": true,
        "audio_path": null
    },
    {
        "segment_id": "1f3bc7189d8711efaa9cfa163edc3428",
        "text": "he would return Mr. Bennet’s",
        "audio_url": "https://v16m-default.akamaized.net/73f9c1e70e7e2ed7725b4bf3e168120a/672de326/video/tos/maliva/tos-maliva-v-f15faa-us/o0fYt5eXCACEAeg3o3DTSOErWEA1ZjruxFgCAV/?a=7073&bti=OTU0QDItLmA%3D&ch=0&cr=0&dr=4&er=0&lr=unwatermarked&cd=0%7C0%7C0%7C0&br=312&bt=156&ds=5&ft=.cwOVInz7Th9lqvOXq8Zmo&qs=13&rc=M21rdG45cmlydjUzNzhoM0BpM21rdG45cmlydjUzNzhoM0BkcGlhMmRrcWpgLS1kLjZzYSNkcGlhMmRrcWpgLS1kLjZzcw%3D%3D&vvpl=1&l=02173103889916400000000000000000000ffff0a007d86a827b8&btag=e00070000&format=mp3&mime_type=audio_mpeg",
        "source_timerange": {
            "start_offset": 2.9279999999999973,
            "end_offset": 4.392000000000003
        },
        "target_timerange": {
            "start_offset": 244.32,
            "end_offset": 245.78400000000002
        },
        "ignore_audio": true,
        "audio_path": null
    },
    {
        "segment_id": "1f3bcab09d8711efaa9cfa163edc3428",
        "text": "visit, and determining when they",
        "audio_url": "https://v16m-default.akamaized.net/73f9c1e70e7e2ed7725b4bf3e168120a/672de326/video/tos/maliva/tos-maliva-v-f15faa-us/o0fYt5eXCACEAeg3o3DTSOErWEA1ZjruxFgCAV/?a=7073&bti=OTU0QDItLmA%3D&ch=0&cr=0&dr=4&er=0&lr=unwatermarked&cd=0%7C0%7C0%7C0&br=312&bt=156&ds=5&ft=.cwOVInz7Th9lqvOXq8Zmo&qs=13&rc=M21rdG45cmlydjUzNzhoM0BpM21rdG45cmlydjUzNzhoM0BkcGlhMmRrcWpgLS1kLjZzYSNkcGlhMmRrcWpgLS1kLjZzcw%3D%3D&vvpl=1&l=02173103889916400000000000000000000ffff0a007d86a827b8&btag=e00070000&format=mp3&mime_type=audio_mpeg",
        "source_timerange": {
            "start_offset": 4.392000000000024,
            "end_offset": 5.856000000000002
        },
        "target_timerange": {
            "start_offset": 245.78400000000002,
            "end_offset": 247.24800000000002
        },
        "ignore_audio": true,
        "audio_path": null
    },
    {
        "segment_id": "1f3bcde49d8711efaa9cfa163edc3428",
        "text": "should ask him to dinner.",
        "audio_url": "https://v16m-default.akamaized.net/73f9c1e70e7e2ed7725b4bf3e168120a/672de326/video/tos/maliva/tos-maliva-v-f15faa-us/o0fYt5eXCACEAeg3o3DTSOErWEA1ZjruxFgCAV/?a=7073&bti=OTU0QDItLmA%3D&ch=0&cr=0&dr=4&er=0&lr=unwatermarked&cd=0%7C0%7C0%7C0&br=312&bt=156&ds=5&ft=.cwOVInz7Th9lqvOXq8Zmo&qs=13&rc=M21rdG45cmlydjUzNzhoM0BpM21rdG45cmlydjUzNzhoM0BkcGlhMmRrcWpgLS1kLjZzYSNkcGlhMmRrcWpgLS1kLjZzcw%3D%3D&vvpl=1&l=02173103889916400000000000000000000ffff0a007d86a827b8&btag=e00070000&format=mp3&mime_type=audio_mpeg",
        "source_timerange": {
            "start_offset": 5.856000000000023,
            "end_offset": 7.32
        },
        "target_timerange": {
            "start_offset": 247.24800000000002,
            "end_offset": 248.71200000000002
        },
        "ignore_audio": true,
        "audio_path": null
    },
    {
        "segment_id": "1f3bdf509d8711efaa9cfa163edc3428",
        "text": "[Illustration: “I’m the tallest”]",
        "audio_url": "https://v16m-default.akamaized.net/ae1f092cb68ef5ad0bd0abad6c142c38/672de321/video/tos/maliva/tos-maliva-v-f15faa-us/ocrvVWsUOB3Q6CA3GaAtv1EAi4yiZEjvSU2A6/?a=7073&bti=OTU0QDItLmA%3D&ch=0&cr=0&dr=4&er=0&lr=unwatermarked&cd=0%7C0%7C0%7C0&br=312&bt=156&ds=5&ft=.cwOVInz7Th9lqvOXq8Zmo&qs=13&rc=am48eHE5cmlydjUzNzhoM0Bpam48eHE5cmlydjUzNzhoM0BvYGdrMmRrcWpgLS1kLjZzYSNvYGdrMmRrcWpgLS1kLjZzcw%3D%3D&vvpl=1&l=02173103889916400000000000000000000ffff0a007d86a827b8&btag=e00070000&format=mp3&mime_type=audio_mpeg",
        "source_timerange": {
            "start_offset": 0,
            "end_offset": 2.16
        },
        "target_timerange": {
            "start_offset": 248.71200000000002,
            "end_offset": 250.872
        },
        "ignore_audio": false,
        "audio_path": null
    },
    {
        "segment_id": "1f3bf5089d8711efaa9cfa163edc3428",
        "text": "[Illustration:       “He",
        "audio_url": "https://v16m-default.akamaized.net/8db4b00f280f1811260e32b15d5a534a/672de321/video/tos/maliva/tos-maliva-v-f15faa-us/oUDHiSjAiAA5UQtAUVCB8TZi24E5v1XxvErOy/?a=7073&bti=OTU0QDItLmA%3D&ch=0&cr=0&dr=4&er=0&lr=unwatermarked&cd=0%7C0%7C0%7C0&br=312&bt=156&ds=5&ft=.cwOVInz7Th9lqvOXq8Zmo&qs=13&rc=amt4bnY5cmlydjUzNzhoM0Bpamt4bnY5cmlydjUzNzhoM0BfMmwuMmRrcWpgLS1kLjZzYSNfMmwuMmRrcWpgLS1kLjZzcw%3D%3D&vvpl=1&l=02173103889916400000000000000000000ffff0a007d86a827b8&btag=e00070000&format=mp3&mime_type=audio_mpeg",
        "source_timerange": {
            "start_offset": 0,
            "end_offset": 1.2960000000000078
        },
        "target_timerange": {
            "start_offset": 250.872,
            "end_offset": 252.168
        },
        "ignore_audio": false,
        "audio_path": null
    },
    {
        "segment_id": "1f3bf79c9d8711efaa9cfa163edc3428",
        "text": "rode a black horse” ]",
        "audio_url": "https://v16m-default.akamaized.net/8db4b00f280f1811260e32b15d5a534a/672de321/video/tos/maliva/tos-maliva-v-f15faa-us/oUDHiSjAiAA5UQtAUVCB8TZi24E5v1XxvErOy/?a=7073&bti=OTU0QDItLmA%3D&ch=0&cr=0&dr=4&er=0&lr=unwatermarked&cd=0%7C0%7C0%7C0&br=312&bt=156&ds=5&ft=.cwOVInz7Th9lqvOXq8Zmo&qs=13&rc=amt4bnY5cmlydjUzNzhoM0Bpamt4bnY5cmlydjUzNzhoM0BfMmwuMmRrcWpgLS1kLjZzYSNfMmwuMmRrcWpgLS1kLjZzcw%3D%3D&vvpl=1&l=02173103889916400000000000000000000ffff0a007d86a827b8&btag=e00070000&format=mp3&mime_type=audio_mpeg",
        "source_timerange": {
            "start_offset": 1.2959999999999923,
            "end_offset": 2.592
        },
        "target_timerange": {
            "start_offset": 252.168,
            "end_offset": 253.464
        },
        "ignore_audio": true,
        "audio_path": null
    }
]