[
    {
        "segment_id": "c3e0def4984411efb99900163e6a626a",
        "text": "代红伟这个人真是阴险",
        "audio_url": "https://v6-vvecloud.yangyi08.com/501b1a55f25d842b0985c0986dea6522/6724ca01/video/tos/cn/tos-cn-v-2cd6b0/owdJwcvEAORZAICICBFnCdBDgcCqAAXffLJiuq/?a=7073&ch=0&cr=0&dr=0&&br=0&bt=0&ft=xztlUQhhe6BMyqh-UupJD12Nzj&mime_type=audio_mpeg&rc=QGlAYSNz&btag=80000000008000&dy_q=1730460657&l=202411011930478BDBB6A61F8F40CCF7D0&format=mp3",
        "source_timerange": {
            "start_offset": 0,
            "end_offset": 2.48
        },
        "target_timerange": {
            "start_offset": 0,
            "end_offset": 2.48
        },
        "ignore_audio": false,
        "audio_path": null
    },
    {
        "segment_id": "c3e0e1a6984411efb99900163e6a626a",
        "text": "心里惦记着我刚刚获得的五百多万资金",
        "audio_url": "https://v6-vvecloud.yangyi08.com/c7dc00bd850682669c09622b2911912f/6724ca01/video/tos/cn/tos-cn-v-2cd6b0/o0fusGk2IKIherAJkCdIObfADIBGAAL6cJEISe/?a=7073&ch=0&cr=0&dr=0&&br=0&bt=0&ft=xztlUQhhe6BMyqh-UupJD12Nzj&mime_type=audio_mpeg&rc=QGlAYSNz&btag=80000000008000&dy_q=1730460657&l=202411011930478BDBB6A61F8F40CCF7D0&format=mp3",
        "source_timerange": {
            "start_offset": 0,
            "end_offset": 3.4600000000000004
        },
        "target_timerange": {
            "start_offset": 2.48,
            "end_offset": 5.94
        },
        "ignore_audio": false,
        "audio_path": null
    },
    {
        "segment_id": "c3e0e318984411efb99900163e6a626a",
        "text": "他竟然联系了黄三 想对我下手",
        "audio_url": "https://v3-vvecloud.yangyi08.com/0b4ee012c9b2b71484becea35a42b751/6724ca01/video/tos/cn/tos-cn-v-2cd6b0/o4BgiBdwCqviL7CnRocBA7nAfEIrIAFJABAJfD/?a=7073&ch=0&cr=0&dr=0&&br=0&bt=0&ft=xztlUQhhe6BMyqh-UupJD12Nzj&mime_type=audio_mpeg&rc=QGlAYSNz&btag=80000000008000&dy_q=1730460657&l=202411011930478BDBB6A61F8F40CCF7D0&format=mp3",
        "source_timerange": {
            "start_offset": 0,
            "end_offset": 3.3499999999999988
        },
        "target_timerange": {
            "start_offset": 5.94,
            "end_offset": 9.29
        },
        "ignore_audio": false,
        "audio_path": null
    },
    {
        "segment_id": "c3e0e46c984411efb99900163e6a626a",
        "text": "看他那一脸的恨意 我知道他早就不满我了",
        "audio_url": "https://v26-vvecloud.yangyi08.com/060472e7b4cdb658e8baacc4b6d572ec/6724ca01/video/tos/cn/tos-cn-v-2cd6b0/owLffABckKPeCJhAIPvuBGdEIBJeIDLAJriAIG/?a=7073&ch=0&cr=0&dr=0&&br=0&bt=0&ft=xztlUQhhe6BMyqh-UupJD12Nzj&mime_type=audio_mpeg&rc=QGlAYSNz&btag=80000000008000&dy_q=1730460657&l=202411011930478BDBB6A61F8F40CCF7D0&format=mp3",
        "source_timerange": {
            "start_offset": 0,
            "end_offset": 3.780000000000001
        },
        "target_timerange": {
            "start_offset": 9.29,
            "end_offset": 13.07
        },
        "ignore_audio": false,
        "audio_path": null
    },
    {
        "segment_id": "c3e0e5ca984411efb99900163e6a626a",
        "text": "可我可不怕他",
        "audio_url": "https://v9-vvecloud.yangyi08.com/3add75feea4e330064123a57a35ae873/6724ca01/video/tos/cn/tos-cn-v-2cd6b0/owJ4gJDAAInAFBRvcCfBRdw3folAdLiyCEAUII/?a=7073&ch=0&cr=0&dr=0&&br=0&bt=0&ft=xztlUQhhe6BMyqh-UupJD12Nzj&mime_type=audio_mpeg&rc=QGlAYSNz&btag=80000000008000&dy_q=1730460657&l=202411011930478BDBB6A61F8F40CCF7D0&format=mp3",
        "source_timerange": {
            "start_offset": 0,
            "end_offset": 1.8399999999999999
        },
        "target_timerange": {
            "start_offset": 13.07,
            "end_offset": 14.91
        },
        "ignore_audio": false,
        "audio_path": null
    },
    {
        "segment_id": "c3e0e700984411efb99900163e6a626a",
        "text": "毕竟我在这场风波中得到了足够的利益",
        "audio_url": "https://v6-vvecloud.yangyi08.com/c523fc8713413d1f4ea00321233cd680/6724ca01/video/tos/cn/tos-cn-v-2cd6b0/ogddfAA8cBCWVJQJEvLIAfGhJkKG8DAIIfedIu/?a=7073&ch=0&cr=0&dr=0&&br=0&bt=0&ft=xztlUQhhe6BMyqh-UupJD12Nzj&mime_type=audio_mpeg&rc=QGlAYSNz&btag=80000000008000&dy_q=1730460657&l=202411011930478BDBB6A61F8F40CCF7D0&format=mp3",
        "source_timerange": {
            "start_offset": 0,
            "end_offset": 3.3500000000000014
        },
        "target_timerange": {
            "start_offset": 14.91,
            "end_offset": 18.26
        },
        "ignore_audio": false,
        "audio_path": null
    },
    {
        "segment_id": "c3e0e822984411efb99900163e6a626a",
        "text": "他想让我死 我却有阿东",
        "audio_url": "https://v3-vvecloud.yangyi08.com/43637e71377ad83684bbfd85698e9c67/6724ca01/video/tos/cn/tos-cn-v-2cd6b0/ocYIfKelIidSegsJiefBA8IBZofAApPikAQyA7/?a=7073&ch=0&cr=0&dr=0&&br=0&bt=0&ft=xztlUQhhe6BMyqh-UupJD12Nzj&mime_type=audio_mpeg&rc=QGlAYSNz&btag=80000000008000&dy_q=1730460657&l=202411011930478BDBB6A61F8F40CCF7D0&format=mp3",
        "source_timerange": {
            "start_offset": 0,
            "end_offset": 2.094999999999999
        },
        "target_timerange": {
            "start_offset": 18.26,
            "end_offset": 20.355
        },
        "ignore_audio": false,
        "audio_path": null
    },
    {
        "segment_id": "c3e0e93a984411efb99900163e6a626a",
        "text": "这样的高手在身边保护我",
        "audio_url": "https://v3-vvecloud.yangyi08.com/43637e71377ad83684bbfd85698e9c67/6724ca01/video/tos/cn/tos-cn-v-2cd6b0/ocYIfKelIidSegsJiefBA8IBZofAApPikAQyA7/?a=7073&ch=0&cr=0&dr=0&&br=0&bt=0&ft=xztlUQhhe6BMyqh-UupJD12Nzj&mime_type=audio_mpeg&rc=QGlAYSNz&btag=80000000008000&dy_q=1730460657&l=202411011930478BDBB6A61F8F40CCF7D0&format=mp3",
        "source_timerange": {
            "start_offset": 2.094999999999999,
            "end_offset": 3.9599999999999973
        },
        "target_timerange": {
            "start_offset": 20.355,
            "end_offset": 22.22
        },
        "ignore_audio": true,
        "audio_path": null
    },
    {
        "segment_id": "c3e0ea5c984411efb99900163e6a626a",
        "text": "代红伟这次恐怕要失望了",
        "audio_url": "https://v6-vvecloud.yangyi08.com/e1018b762756dbce742da757a156a79b/6724ca01/video/tos/cn/tos-cn-v-2cd6b0/oURJvn6NEDFLCF8BRACIAgAdmwAJBmDyiIffRi/?a=7073&ch=0&cr=0&dr=0&&br=0&bt=0&ft=xztlUQhhe6BMyqh-UupJD12Nzj&mime_type=audio_mpeg&rc=QGlAYSNz&btag=80000000008000&dy_q=1730460657&l=202411011930478BDBB6A61F8F40CCF7D0&format=mp3",
        "source_timerange": {
            "start_offset": 0,
            "end_offset": 2.5600000000000023
        },
        "target_timerange": {
            "start_offset": 22.22,
            "end_offset": 24.78
        },
        "ignore_audio": false,
        "audio_path": null
    },
    {
        "segment_id": "c3e0eba6984411efb99900163e6a626a",
        "text": "事成之后 史金手里的钱都归你们",
        "audio_url": "https://v9-vvecloud.yangyi08.com/b95cae88510aa230b7891dcb1e3d22bf/6724ca01/video/tos/cn/tos-cn-v-2cd6b0/oEfnPCRBiGDJBJDEDdFvwIAfA0ANIgB2LIACoC/?a=7073&ch=0&cr=0&dr=0&&br=0&bt=0&ft=xztlUQhhe6BMyqh-UupJD12Nzj&mime_type=audio_mpeg&rc=QGlAYSNz&btag=80000000008000&dy_q=1730460657&l=202411011930478BDBB6A61F8F40CCF7D0&format=mp3",
        "source_timerange": {
            "start_offset": 0,
            "end_offset": 3.669999999999998
        },
        "target_timerange": {
            "start_offset": 24.78,
            "end_offset": 28.45
        },
        "ignore_audio": false,
        "audio_path": null
    },
    {
        "segment_id": "c3e0ecfa984411efb99900163e6a626a",
        "text": "另外 我再追加五十万！",
        "audio_url": "https://v6-vvecloud.yangyi08.com/14a495546bc3a0813b34f5ce40551728/6724ca01/video/tos/cn/tos-cn-v-2cd6b0/owfnI1RBiMDJNJ3EAdFvwIAfA8AcIgBmLYACLC/?a=7073&ch=0&cr=0&dr=0&&br=0&bt=0&ft=xztlUQhhe6BMyqh-UupJD12Nzj&mime_type=audio_mpeg&rc=QGlAYSNz&btag=80000000008000&dy_q=1730460657&l=202411011930478BDBB6A61F8F40CCF7D0&format=mp3",
        "source_timerange": {
            "start_offset": 0,
            "end_offset": 2.5450000000000017
        },
        "target_timerange": {
            "start_offset": 28.45,
            "end_offset": 30.995
        },
        "ignore_audio": false,
        "audio_path": null
    },
    {
        "segment_id": "c3e0ee30984411efb99900163e6a626a",
        "text": "代红伟的声音在我耳边回响",
        "audio_url": "https://v6-vvecloud.yangyi08.com/14a495546bc3a0813b34f5ce40551728/6724ca01/video/tos/cn/tos-cn-v-2cd6b0/owfnI1RBiMDJNJ3EAdFvwIAfA8AcIgBmLYACLC/?a=7073&ch=0&cr=0&dr=0&&br=0&bt=0&ft=xztlUQhhe6BMyqh-UupJD12Nzj&mime_type=audio_mpeg&rc=QGlAYSNz&btag=80000000008000&dy_q=1730460657&l=202411011930478BDBB6A61F8F40CCF7D0&format=mp3",
        "source_timerange": {
            "start_offset": 2.5450000000000017,
            "end_offset": 4.570000000000004
        },
        "target_timerange": {
            "start_offset": 30.995,
            "end_offset": 33.02
        },
        "ignore_audio": true,
        "audio_path": null
    },
    {
        "segment_id": "c3e0f0c4984411efb99900163e6a626a",
        "text": "我心里冷笑 他竟想利用",
        "audio_url": "https://v3-vvecloud.yangyi08.com/2049d4de59c33fcf2adfb58dfe80652d/6724ca01/video/tos/cn/tos-cn-v-2cd6b0/okFvfATnJCFaAGwAEquLBRdBCCJfIN5AiTmgID/?a=7073&ch=0&cr=0&dr=0&&br=0&bt=0&ft=xztlUQhhe6BMyqh-UupJD12Nzj&mime_type=audio_mpeg&rc=QGlAYSNz&btag=80000000008000&dy_q=1730460657&l=202411011930478BDBB6A61F8F40CCF7D0&format=mp3",
        "source_timerange": {
            "start_offset": 0,
            "end_offset": 2.2049999999999983
        },
        "target_timerange": {
            "start_offset": 33.02,
            "end_offset": 35.225
        },
        "ignore_audio": false,
        "audio_path": null
    },
    {
        "segment_id": "c3e0f218984411efb99900163e6a626a",
        "text": "江汉集团的催收队来对付我 真是自不量力",
        "audio_url": "https://v3-vvecloud.yangyi08.com/2049d4de59c33fcf2adfb58dfe80652d/6724ca01/video/tos/cn/tos-cn-v-2cd6b0/okFvfATnJCFaAGwAEquLBRdBCCJfIN5AiTmgID/?a=7073&ch=0&cr=0&dr=0&&br=0&bt=0&ft=xztlUQhhe6BMyqh-UupJD12Nzj&mime_type=audio_mpeg&rc=QGlAYSNz&btag=80000000008000&dy_q=1730460657&l=202411011930478BDBB6A61F8F40CCF7D0&format=mp3",
        "source_timerange": {
            "start_offset": 2.2049999999999983,
            "end_offset": 5.539999999999999
        },
        "target_timerange": {
            "start_offset": 35.225,
            "end_offset": 38.56
        },
        "ignore_audio": true,
        "audio_path": null
    },
    {
        "segment_id": "c3e0f33a984411efb99900163e6a626a",
        "text": "我在学校里 享受着这场风暴带来的荣光",
        "audio_url": "https://v9-vvecloud.yangyi08.com/925781c1b667d23854a458e4e41d0aad/6724ca01/video/tos/cn/tos-cn-v-2cd6b0/oQhAIfhkAf0GKINfcAIBkALlJGCJIuedETAYGA/?a=7073&ch=0&cr=0&dr=0&&br=0&bt=0&ft=xztlUQhhe6BMyqh-UupJD12Nzj&mime_type=audio_mpeg&rc=QGlAYSNz&btag=80000000008000&dy_q=1730460657&l=202411011930478BDBB6A61F8F40CCF7D0&format=mp3",
        "source_timerange": {
            "start_offset": 0,
            "end_offset": 3.8499999999999943
        },
        "target_timerange": {
            "start_offset": 38.56,
            "end_offset": 42.41
        },
        "ignore_audio": false,
        "audio_path": null
    },
    {
        "segment_id": "c3e0f48e984411efb99900163e6a626a",
        "text": "杨自奎兴奋地扑过来",
        "audio_url": "https://v3-vvecloud.yangyi08.com/c734048ca8a8ec79cf410df4d7ada904/6724ca01/video/tos/cn/tos-cn-v-2cd6b0/oUI5kwDGTQiAJ7fCQcuAefMFWh8AKEeACQCSAS/?a=7073&ch=0&cr=0&dr=0&&br=0&bt=0&ft=xztlUQhhe6BMyqh-UupJD12Nzj&mime_type=audio_mpeg&rc=QGlAYSNz&btag=80000000008000&dy_q=1730460657&l=202411011930478BDBB6A61F8F40CCF7D0&format=mp3",
        "source_timerange": {
            "start_offset": 0,
            "end_offset": 2.4100000000000037
        },
        "target_timerange": {
            "start_offset": 42.41,
            "end_offset": 44.82
        },
        "ignore_audio": false,
        "audio_path": null
    },
    {
        "segment_id": "c3e0f5b0984411efb99900163e6a626a",
        "text": "想要和我拥抱 看到他那油腻的样子",
        "audio_url": "https://v3-vvecloud.yangyi08.com/3e429ef5ef08289603d479a9f523322d/6724ca01/video/tos/cn/tos-cn-v-2cd6b0/okBvICEDAqfAA0AAdnLJiXCIfAFnzRCJQwBwrg/?a=7073&ch=0&cr=0&dr=0&&br=0&bt=0&ft=xztlUQhhe6BMyqh-UupJD12Nzj&mime_type=audio_mpeg&rc=QGlAYSNz&btag=80000000008000&dy_q=1730460657&l=202411011930478BDBB6A61F8F40CCF7D0&format=mp3",
        "source_timerange": {
            "start_offset": 0,
            "end_offset": 3.4200000000000017
        },
        "target_timerange": {
            "start_offset": 44.82,
            "end_offset": 48.24
        },
        "ignore_audio": false,
        "audio_path": null
    },
    {
        "segment_id": "c3e0f6fa984411efb99900163e6a626a",
        "text": "我只能用脚把他踢开 心里暗自窃喜",
        "audio_url": "https://v9-vvecloud.yangyi08.com/1fbd965f4bd88a73f51c6695b5326c90/6724ca01/video/tos/cn/tos-cn-v-2cd6b0/osACffcfAdGOQhjJWuKBoIIMJAZIkAWEWA8YfN/?a=7073&ch=0&cr=0&dr=0&&br=0&bt=0&ft=xztlUQhhe6BMyqh-UupJD12Nzj&mime_type=audio_mpeg&rc=QGlAYSNz&btag=80000000008000&dy_q=1730460657&l=202411011930478BDBB6A61F8F40CCF7D0&format=mp3",
        "source_timerange": {
            "start_offset": 0,
            "end_offset": 3.530000000000001
        },
        "target_timerange": {
            "start_offset": 48.24,
            "end_offset": 51.77
        },
        "ignore_audio": false,
        "audio_path": null
    },
    {
        "segment_id": "c3e0f83a984411efb99900163e6a626a",
        "text": "他根本不知道我其实是白嫖了五百多万",
        "audio_url": "https://v26-vvecloud.yangyi08.com/558e50bb6b51afc619e4ee5231e7d07c/6724ca01/video/tos/cn/tos-cn-v-2cd6b0/okvSkCAQIhGKkIALufEzCc7fWAbCGJAAQIexe2/?a=7073&ch=0&cr=0&dr=0&&br=0&bt=0&ft=xztlUQhhe6BMyqh-UupJD12Nzj&mime_type=audio_mpeg&rc=QGlAYSNz&btag=80000000008000&dy_q=1730460657&l=202411011930478BDBB6A61F8F40CCF7D0&format=mp3",
        "source_timerange": {
            "start_offset": 0,
            "end_offset": 3.1699999999999946
        },
        "target_timerange": {
            "start_offset": 51.77,
            "end_offset": 54.94
        },
        "ignore_audio": false,
        "audio_path": null
    },
    {
        "segment_id": "c3e0f970984411efb99900163e6a626a",
        "text": "别靠近我！我不喜欢跟油腻猥琐男拥抱！",
        "audio_url": "https://v3-vvecloud.yangyi08.com/5d560abe6b9a2022c8fb0f2fd3fe758e/6724ca01/video/tos/cn/tos-cn-v-2cd6b0/oQDdfAAocBC4cFeJEALIAfGhJkKGSCAIIbepIu/?a=7073&ch=0&cr=0&dr=0&&br=0&bt=0&ft=xztlUQhhe6BMyqh-UupJD12Nzj&mime_type=audio_mpeg&rc=QGlAYSNz&btag=80000000008000&dy_q=1730460657&l=202411011930478BDBB6A61F8F40CCF7D0&format=mp3",
        "source_timerange": {
            "start_offset": 0,
            "end_offset": 3.2850000000000037
        },
        "target_timerange": {
            "start_offset": 54.94,
            "end_offset": 58.225
        },
        "ignore_audio": false,
        "audio_path": null
    },
    {
        "segment_id": "c3e0fab0984411efb99900163e6a626a",
        "text": "我毫不客气地说",
        "audio_url": "https://v3-vvecloud.yangyi08.com/5d560abe6b9a2022c8fb0f2fd3fe758e/6724ca01/video/tos/cn/tos-cn-v-2cd6b0/oQDdfAAocBC4cFeJEALIAfGhJkKGSCAIIbepIu/?a=7073&ch=0&cr=0&dr=0&&br=0&bt=0&ft=xztlUQhhe6BMyqh-UupJD12Nzj&mime_type=audio_mpeg&rc=QGlAYSNz&btag=80000000008000&dy_q=1730460657&l=202411011930478BDBB6A61F8F40CCF7D0&format=mp3",
        "source_timerange": {
            "start_offset": 3.2850000000000037,
            "end_offset": 5.080000000000005
        },
        "target_timerange": {
            "start_offset": 58.225,
            "end_offset": 60.02
        },
        "ignore_audio": true,
        "audio_path": null
    },
    {
        "segment_id": "c3e0fbfa984411efb99900163e6a626a",
        "text": "杨自奎却依然激动不已 仿佛我成了他的偶像",
        "audio_url": "https://v9-vvecloud.yangyi08.com/608e1ade4511d03ab66f687e26413825/6724ca01/video/tos/cn/tos-cn-v-2cd6b0/owfRIivUoxwQBA0JWoBCIJTdgAFfAnCLJTDCAE/?a=7073&ch=0&cr=0&dr=0&&br=0&bt=0&ft=xztlUQhhe6BMyqh-UupJD12Nzj&mime_type=audio_mpeg&rc=QGlAYSNz&btag=80000000008000&dy_q=1730460657&l=202411011930478BDBB6A61F8F40CCF7D0&format=mp3",
        "source_timerange": {
            "start_offset": 0,
            "end_offset": 3.9990000000000023
        },
        "target_timerange": {
            "start_offset": 60.02,
            "end_offset": 64.019
        },
        "ignore_audio": false,
        "audio_path": null
    },
    {
        "segment_id": "c3e0fd44984411efb99900163e6a626a",
        "text": "我微微一笑 心中明白 这场游戏 我已经赢了",
        "audio_url": "https://v6-vvecloud.yangyi08.com/5d345538b2d6051ff47ae6e6eb1a7fe8/6724ca01/video/tos/cn/tos-cn-v-2cd6b0/owA9A0fDCIyRRpniodisBJiLJBfCBEvAFAAwIg/?a=7073&ch=0&cr=0&dr=0&&br=0&bt=0&ft=xztlUQhhe6BMyqh-UupJD12Nzj&mime_type=audio_mpeg&rc=QGlAYSNz&btag=80000000008000&dy_q=1730460657&l=202411011930478BDBB6A61F8F40CCF7D0&format=mp3",
        "source_timerange": {
            "start_offset": 0,
            "end_offset": 4.86099999999999
        },
        "target_timerange": {
            "start_offset": 64.019,
            "end_offset": 68.88
        },
        "ignore_audio": false,
        "audio_path": null
    },
    {
        "segment_id": "c3e0feac984411efb99900163e6a626a",
        "text": "欲使其灭亡 先让其疯狂 正如我所说的那样",
        "audio_url": "https://v3-vvecloud.yangyi08.com/162d355059737b697f4e8d27af6e5c28/6724ca01/video/tos/cn/tos-cn-v-2cd6b0/oYDnJADqIABEAB3kfiCgIBAFLLJwSsOvfOjRCd/?a=7073&ch=0&cr=0&dr=0&&br=0&bt=0&ft=xztlUQhhe6BMyqh-UupJD12Nzj&mime_type=audio_mpeg&rc=QGlAYSNz&btag=80000000008000&dy_q=1730460657&l=202411011930478BDBB6A61F8F40CCF7D0&format=mp3",
        "source_timerange": {
            "start_offset": 0,
            "end_offset": 4.719999999999999
        },
        "target_timerange": {
            "start_offset": 68.88,
            "end_offset": 73.6
        },
        "ignore_audio": false,
        "audio_path": null
    },
    {
        "segment_id": "c3e0ffe2984411efb99900163e6a626a",
        "text": "代红伟和黄三的计划注定不会成功",
        "audio_url": "https://v9-vvecloud.yangyi08.com/00d6d985d2df677985ba88490f3c5ab5/6724ca01/video/tos/cn/tos-cn-v-2cd6b0/osDAIRdhKqfJuPIcGdWECfX7fIIAIALJABAkeG/?a=7073&ch=0&cr=0&dr=0&&br=0&bt=0&ft=xztlUQhhe6BMyqh-UupJD12Nzj&mime_type=audio_mpeg&rc=QGlAYSNz&btag=80000000008000&dy_q=1730460657&l=202411011930478BDBB6A61F8F40CCF7D0&format=mp3",
        "source_timerange": {
            "start_offset": 0,
            "end_offset": 3.3500000000000085
        },
        "target_timerange": {
            "start_offset": 73.6,
            "end_offset": 76.95
        },
        "ignore_audio": false,
        "audio_path": null
    },
    {
        "segment_id": "c3e10118984411efb99900163e6a626a",
        "text": "只要我低调谦虚",
        "audio_url": "https://v26-vvecloud.yangyi08.com/8743ca3d1b880d8ffbe9466d2af22bc5/6724ca01/video/tos/cn/tos-cn-v-2cd6b0/owCDaAQAEBPAIfFgnBsCNdLfjvnRBwiJJIASg4/?a=7073&ch=0&cr=0&dr=0&&br=0&bt=0&ft=xztlUQhhe6BMyqh-UupJD12Nzj&mime_type=audio_mpeg&rc=QGlAYSNz&btag=80000000008000&dy_q=1730460657&l=202411011930478BDBB6A61F8F40CCF7D0&format=mp3",
        "source_timerange": {
            "start_offset": 0,
            "end_offset": 1.980000000000004
        },
        "target_timerange": {
            "start_offset": 76.95,
            "end_offset": 78.93
        },
        "ignore_audio": false,
        "audio_path": null
    },
    {
        "segment_id": "c3e10244984411efb99900163e6a626a",
        "text": "便能在这场风波中继续立于不败之地",
        "audio_url": "https://v6-vvecloud.yangyi08.com/8cd32643dbb43e6020b011e58bbd2db4/6724ca01/video/tos/cn/tos-cn-v-2cd6b0/ocASrw0fRnE5BCACBYDJOvFLAfZJgCtIcCdAIi/?a=7073&ch=0&cr=0&dr=0&&br=0&bt=0&ft=xztlUQhhe6BMyqh-UupJD12Nzj&mime_type=audio_mpeg&rc=QGlAYSNz&btag=80000000008000&dy_q=1730460657&l=202411011930478BDBB6A61F8F40CCF7D0&format=mp3",
        "source_timerange": {
            "start_offset": 0,
            "end_offset": 3.3799999999999955
        },
        "target_timerange": {
            "start_offset": 78.93,
            "end_offset": 82.31
        },
        "ignore_audio": false,
        "audio_path": null
    },
    {
        "segment_id": "c3e103b6984411efb99900163e6a626a",
        "text": "老子让你低调点！你搞得全世界都知道这事",
        "audio_url": "https://v3-vvecloud.yangyi08.com/168c7b001e62dc9d194240fe947b768c/6724ca01/video/tos/cn/tos-cn-v-2cd6b0/oEJUIIgdeLYAMfAff7AeuDSE4GQAC5QS7KQDcs/?a=7073&ch=0&cr=0&dr=0&&br=0&bt=0&ft=xztlUQhhe6BMyqh-UupJD12Nzj&mime_type=audio_mpeg&rc=QGlAYSNz&btag=80000000008000&dy_q=1730460657&l=202411011930478BDBB6A61F8F40CCF7D0&format=mp3",
        "source_timerange": {
            "start_offset": 0,
            "end_offset": 4.069999999999993
        },
        "target_timerange": {
            "start_offset": 82.31,
            "end_offset": 86.38
        },
        "ignore_audio": false,
        "audio_path": null
    },
    {
        "segment_id": "c3e104f6984411efb99900163e6a626a",
        "text": "岂不是让有心人把目光都集中到我身上？",
        "audio_url": "https://v3-vvecloud.yangyi08.com/47f16c422fecd8cb6acc891f1a02e425/6724ca01/video/tos/cn/tos-cn-v-2cd6b0/ooGGtkIB3AjBAJIfJFfhd9AIGeKzLCAOfEAcuI/?a=7073&ch=0&cr=0&dr=0&&br=0&bt=0&ft=xztlUQhhe6BMyqh-UupJD12Nzj&mime_type=audio_mpeg&rc=QGlAYSNz&btag=80000000008000&dy_q=1730460657&l=202411011930478BDBB6A61F8F40CCF7D0&format=mp3",
        "source_timerange": {
            "start_offset": 0,
            "end_offset": 3.740000000000009
        },
        "target_timerange": {
            "start_offset": 86.38,
            "end_offset": 90.12
        },
        "ignore_audio": false,
        "audio_path": null
    },
    {
        "segment_id": "c3e10636984411efb99900163e6a626a",
        "text": "你可知道 五百万 能让多少人铤而走险？",
        "audio_url": "https://v3-vvecloud.yangyi08.com/22a48a080cf38ad42ced34298a438bb9/6724ca01/video/tos/cn/tos-cn-v-2cd6b0/oIckC0M7QAuUEZgJQhASDCKfAGWeEI8NyAeMfQ/?a=7073&ch=0&cr=0&dr=0&&br=0&bt=0&ft=xztlUQhhe6BMyqh-UupJD12Nzj&mime_type=audio_mpeg&rc=QGlAYSNz&btag=80000000008000&dy_q=1730460657&l=202411011930478BDBB6A61F8F40CCF7D0&format=mp3",
        "source_timerange": {
            "start_offset": 0,
            "end_offset": 4.265000000000001
        },
        "target_timerange": {
            "start_offset": 90.12,
            "end_offset": 94.385
        },
        "ignore_audio": false,
        "audio_path": null
    },
    {
        "segment_id": "c3e10762984411efb99900163e6a626a",
        "text": "我用力踢了杨自奎一脚",
        "audio_url": "https://v3-vvecloud.yangyi08.com/22a48a080cf38ad42ced34298a438bb9/6724ca01/video/tos/cn/tos-cn-v-2cd6b0/oIckC0M7QAuUEZgJQhASDCKfAGWeEI8NyAeMfQ/?a=7073&ch=0&cr=0&dr=0&&br=0&bt=0&ft=xztlUQhhe6BMyqh-UupJD12Nzj&mime_type=audio_mpeg&rc=QGlAYSNz&btag=80000000008000&dy_q=1730460657&l=202411011930478BDBB6A61F8F40CCF7D0&format=mp3",
        "source_timerange": {
            "start_offset": 4.265000000000001,
            "end_offset": 6.079999999999998
        },
        "target_timerange": {
            "start_offset": 94.385,
            "end_offset": 96.2
        },
        "ignore_audio": true,
        "audio_path": null
    },
    {
        "segment_id": "c3e10898984411efb99900163e6a626a",
        "text": "心里暗想 这小子怎么就这么不懂事呢？",
        "audio_url": "https://v6-vvecloud.yangyi08.com/bea58739d2fcd92047b1c05d9876c36d/6724ca01/video/tos/cn/tos-cn-v-2cd6b0/oECDOA7AEBzAIfFgnDlCZdLfDv9RBwiJJIAx1m/?a=7073&ch=0&cr=0&dr=0&&br=0&bt=0&ft=xztlUQhhe6BMyqh-UupJD12Nzj&mime_type=audio_mpeg&rc=QGlAYSNz&btag=80000000008000&dy_q=1730460657&l=202411011930478BDBB6A61F8F40CCF7D0&format=mp3",
        "source_timerange": {
            "start_offset": 0,
            "end_offset": 3.5600000000000023
        },
        "target_timerange": {
            "start_offset": 96.2,
            "end_offset": 99.76
        },
        "ignore_audio": false,
        "audio_path": null
    },
    {
        "segment_id": "c3e109ce984411efb99900163e6a626a",
        "text": "杨自奎一脸委屈地说道：知道 知道！",
        "audio_url": "https://v6-vvecloud.yangyi08.com/5a11f091b5a1b9eba50a74381a6fcceb/6724ca01/video/tos/cn/tos-cn-v-2cd6b0/o0RBxAwiCwAIxAfngLCFEvAJIBIfvACJMgDdiK/?a=7073&ch=0&cr=0&dr=0&&br=0&bt=0&ft=xztlUQhhe6BMyqh-UupJD12Nzj&mime_type=audio_mpeg&rc=QGlAYSNz&btag=80000000008000&dy_q=1730460657&l=202411011930478BDBB6A61F8F40CCF7D0&format=mp3",
        "source_timerange": {
            "start_offset": 0,
            "end_offset": 3.8900000000000006
        },
        "target_timerange": {
            "start_offset": 99.76,
            "end_offset": 103.65
        },
        "ignore_audio": false,
        "audio_path": null
    },
    {
        "segment_id": "c3e10b22984411efb99900163e6a626a",
        "text": "可人家忍不住嘛！买彩票还凭运气中奖",
        "audio_url": "https://v6-vvecloud.yangyi08.com/ca2a35d34c9ee7676656a26a899760b1/6724ca01/video/tos/cn/tos-cn-v-2cd6b0/oAiqowIgCmCFgELdBDR37JfaAvD4ABAIdAfnxJ/?a=7073&ch=0&cr=0&dr=0&&br=0&bt=0&ft=xztlUQhhe6BMyqh-UupJD12Nzj&mime_type=audio_mpeg&rc=QGlAYSNz&btag=80000000008000&dy_q=1730460657&l=202411011930478BDBB6A61F8F40CCF7D0&format=mp3",
        "source_timerange": {
            "start_offset": 0,
            "end_offset": 4.030000000000001
        },
        "target_timerange": {
            "start_offset": 103.65,
            "end_offset": 107.68
        },
        "ignore_audio": false,
        "audio_path": null
    },
    {
        "segment_id": "c3e10c4e984411efb99900163e6a626a",
        "text": "而你这是凭实力薅高利贷的钱！",
        "audio_url": "https://v26-vvecloud.yangyi08.com/69ca0adb54ca346fc4f04b15595b15f0/6724ca01/video/tos/cn/tos-cn-v-2cd6b0/osthfaA4IIQ5AjACudcJJGfEkI9zIeAeAKiLBG/?a=7073&ch=0&cr=0&dr=0&&br=0&bt=0&ft=xztlUQhhe6BMyqh-UupJD12Nzj&mime_type=audio_mpeg&rc=QGlAYSNz&btag=80000000008000&dy_q=1730460657&l=202411011930478BDBB6A61F8F40CCF7D0&format=mp3",
        "source_timerange": {
            "start_offset": 0,
            "end_offset": 2.839999999999989
        },
        "target_timerange": {
            "start_offset": 107.68,
            "end_offset": 110.52
        },
        "ignore_audio": false,
        "audio_path": null
    },
    {
        "segment_id": "c3e10d98984411efb99900163e6a626a",
        "text": "那完全不一样的啊！",
        "audio_url": "https://v26-vvecloud.yangyi08.com/d6e22f0ce6b66407f15ace4d243731ac/6724ca01/video/tos/cn/tos-cn-v-2cd6b0/oYRAAvnIJHwDcBSdgwCfLfE7FiCRBAJ0AQXEAI/?a=7073&ch=0&cr=0&dr=0&&br=0&bt=0&ft=xztlUQhhe6BMyqh-UupJD12Nzj&mime_type=audio_mpeg&rc=QGlAYSNz&btag=80000000008000&dy_q=1730460657&l=202411011930478BDBB6A61F8F40CCF7D0&format=mp3",
        "source_timerange": {
            "start_offset": 0,
            "end_offset": 1.980000000000004
        },
        "target_timerange": {
            "start_offset": 110.52,
            "end_offset": 112.5
        },
        "ignore_audio": false,
        "audio_path": null
    },
    {
        "segment_id": "c3e10ed8984411efb99900163e6a626a",
        "text": "早知道我就做你的死忠 跟进你！",
        "audio_url": "https://v3-vvecloud.yangyi08.com/9d9d5667f713afbf5da1c3c89e7cfb8f/6724ca01/video/tos/cn/tos-cn-v-2cd6b0/oUAjdLApDIBfiJtvCOFACORw7Bf3nAAIEngKiJ/?a=7073&ch=0&cr=0&dr=0&&br=0&bt=0&ft=xztlUQhhe6BMyqh-UupJD12Nzj&mime_type=audio_mpeg&rc=QGlAYSNz&btag=80000000008000&dy_q=1730460657&l=202411011930478BDBB6A61F8F40CCF7D0&format=mp3",
        "source_timerange": {
            "start_offset": 0,
            "end_offset": 3.200000000000003
        },
        "target_timerange": {
            "start_offset": 112.5,
            "end_offset": 115.7
        },
        "ignore_audio": false,
        "audio_path": null
    },
    {
        "segment_id": "c3e11040984411efb99900163e6a626a",
        "text": "我白了他一眼：千金难买早知道！",
        "audio_url": "https://v9-vvecloud.yangyi08.com/4aa9407d894908ae71a1ec072d209735/6724ca01/video/tos/cn/tos-cn-v-2cd6b0/oIKCAfTJCrcIeEMAOBGueIh0IkdGIfLAAghJUI/?a=7073&ch=0&cr=0&dr=0&&br=0&bt=0&ft=xztlUQhhe6BMyqh-UupJD12Nzj&mime_type=audio_mpeg&rc=QGlAYSNz&btag=80000000008000&dy_q=1730460657&l=202411011930478BDBB6A61F8F40CCF7D0&format=mp3",
        "source_timerange": {
            "start_offset": 0,
            "end_offset": 3.3100000000000023
        },
        "target_timerange": {
            "start_offset": 115.7,
            "end_offset": 119.01
        },
        "ignore_audio": false,
        "audio_path": null
    },
    {
        "segment_id": "c3e1116c984411efb99900163e6a626a",
        "text": "一旦我坚决去做的事 请相信我！",
        "audio_url": "https://v3-vvecloud.yangyi08.com/43301a608114ecdc5792db9a3bca4d70/6724ca01/video/tos/cn/tos-cn-v-2cd6b0/ogBExdcfIYjiCbJBCJDDfAgRvwCFAALgA2rnIF/?a=7073&ch=0&cr=0&dr=0&&br=0&bt=0&ft=xztlUQhhe6BMyqh-UupJD12Nzj&mime_type=audio_mpeg&rc=QGlAYSNz&btag=80000000008000&dy_q=1730460657&l=202411011930478BDBB6A61F8F40CCF7D0&format=mp3",
        "source_timerange": {
            "start_offset": 0,
            "end_offset": 3.2449999999999903
        },
        "target_timerange": {
            "start_offset": 119.01,
            "end_offset": 122.255
        },
        "ignore_audio": false,
        "audio_path": null
    },
    {
        "segment_id": "c3e15690984411efb99900163e6a626a",
        "text": "说完 我转身继续思考我的计划",
        "audio_url": "https://v3-vvecloud.yangyi08.com/43301a608114ecdc5792db9a3bca4d70/6724ca01/video/tos/cn/tos-cn-v-2cd6b0/ogBExdcfIYjiCbJBCJDDfAgRvwCFAALgA2rnIF/?a=7073&ch=0&cr=0&dr=0&&br=0&bt=0&ft=xztlUQhhe6BMyqh-UupJD12Nzj&mime_type=audio_mpeg&rc=QGlAYSNz&btag=80000000008000&dy_q=1730460657&l=202411011930478BDBB6A61F8F40CCF7D0&format=mp3",
        "source_timerange": {
            "start_offset": 3.2449999999999903,
            "end_offset": 6.22999999999999
        },
        "target_timerange": {
            "start_offset": 122.255,
            "end_offset": 125.24
        },
        "ignore_audio": true,
        "audio_path": null
    },
    {
        "segment_id": "c3e1587a984411efb99900163e6a626a",
        "text": "经历过彩票与高利贷的事",
        "audio_url": "https://v26-vvecloud.yangyi08.com/d046ae632cf908aaaf430fafa1e2aa1a/6724ca01/video/tos/cn/tos-cn-v-2cd6b0/oEBURADdJBLfvASwJBhECDwEA44FIintAIgCfd/?a=7073&ch=0&cr=0&dr=0&&br=0&bt=0&ft=xztlUQhhe6BMyqh-UupJD12Nzj&mime_type=audio_mpeg&rc=QGlAYSNz&btag=80000000008000&dy_q=1730460657&l=202411011930478BDBB6A61F8F40CCF7D0&format=mp3",
        "source_timerange": {
            "start_offset": 0,
            "end_offset": 2.6300000000000097
        },
        "target_timerange": {
            "start_offset": 125.24,
            "end_offset": 127.87
        },
        "ignore_audio": false,
        "audio_path": null
    },
    {
        "segment_id": "c3e159f6984411efb99900163e6a626a",
        "text": "杨自奎对我可谓是五体投地的佩服",
        "audio_url": "https://v6-vvecloud.yangyi08.com/c4c31120c074fe03773260f79f8befa5/6724ca01/video/tos/cn/tos-cn-v-2cd6b0/oosAEACFNIAhBRAgMAiJAvILkEdwDfrBCfanQJ/?a=7073&ch=0&cr=0&dr=0&&br=0&bt=0&ft=xztlUQhhe6BMyqh-UupJD12Nzj&mime_type=audio_mpeg&rc=QGlAYSNz&btag=80000000008000&dy_q=1730460657&l=202411011930478BDBB6A61F8F40CCF7D0&format=mp3",
        "source_timerange": {
            "start_offset": 0,
            "end_offset": 3.1299999999999955
        },
        "target_timerange": {
            "start_offset": 127.87,
            "end_offset": 131
        },
        "ignore_audio": false,
        "audio_path": null
    },
    {
        "segment_id": "c3e15b54984411efb99900163e6a626a",
        "text": "连吴龙飞这样的技术宅也对我刮目相看",
        "audio_url": "https://v3-vvecloud.yangyi08.com/93b96225cd3284fc327d07567aa54cab/6724ca01/video/tos/cn/tos-cn-v-2cd6b0/okucESeAIheLGC7KXAzQkYDAGfWqGCA4JeGQzI/?a=7073&ch=0&cr=0&dr=0&&br=0&bt=0&ft=xztlUQhhe6BMyqh-UupJD12Nzj&mime_type=audio_mpeg&rc=QGlAYSNz&btag=80000000008000&dy_q=1730460657&l=202411011930478BDBB6A61F8F40CCF7D0&format=mp3",
        "source_timerange": {
            "start_offset": 0,
            "end_offset": 3.3799999999999955
        },
        "target_timerange": {
            "start_offset": 131,
            "end_offset": 134.38
        },
        "ignore_audio": false,
        "audio_path": null
    },
    {
        "segment_id": "c3e15cbc984411efb99900163e6a626a",
        "text": "开始更加卖力地开发应用了",
        "audio_url": "https://v3-vvecloud.yangyi08.com/6c21abd57b4332ecfdcb745da6e53fde/6724ca01/video/tos/cn/tos-cn-v-2cd6b0/oAuEAiheBJGcLCKLIffwGdeGAI3JICAuI9kqIA/?a=7073&ch=0&cr=0&dr=0&&br=0&bt=0&ft=xztlUQhhe6BMyqh-UupJD12Nzj&mime_type=audio_mpeg&rc=QGlAYSNz&btag=80000000008000&dy_q=1730460657&l=202411011930478BDBB6A61F8F40CCF7D0&format=mp3",
        "source_timerange": {
            "start_offset": 0,
            "end_offset": 2.700000000000017
        },
        "target_timerange": {
            "start_offset": 134.38,
            "end_offset": 137.08
        },
        "ignore_audio": false,
        "audio_path": null
    },
    {
        "segment_id": "c3e15e10984411efb99900163e6a626a",
        "text": "这时 我马上给孙小萌打了电话",
        "audio_url": "https://v3-vvecloud.yangyi08.com/fe53bc25156d831e4de11d25198b1cbe/6724ca01/video/tos/cn/tos-cn-v-2cd6b0/o8IMckAJzEhuJEerzBfCXmAKQBIfJvAIfA8XGd/?a=7073&ch=0&cr=0&dr=0&&br=0&bt=0&ft=xztlUQhhe6BMyqh-UupJD12Nzj&mime_type=audio_mpeg&rc=QGlAYSNz&btag=80000000008000&dy_q=1730460657&l=202411011930478BDBB6A61F8F40CCF7D0&format=mp3",
        "source_timerange": {
            "start_offset": 0,
            "end_offset": 3.4899999999999807
        },
        "target_timerange": {
            "start_offset": 137.08,
            "end_offset": 140.57
        },
        "ignore_audio": false,
        "audio_path": null
    },
    {
        "segment_id": "c3e15f6e984411efb99900163e6a626a",
        "text": "心里想着她的反应会怎样",
        "audio_url": "https://v3-vvecloud.yangyi08.com/89c71846867794c5b7fa8283550a4b04/6724ca01/video/tos/cn/tos-cn-v-2cd6b0/oEVuIwCRAiDLCBD7AAgFaJfwIfd6nwEBgAvvJC/?a=7073&ch=0&cr=0&dr=0&&br=0&bt=0&ft=xztlUQhhe6BMyqh-UupJD12Nzj&mime_type=audio_mpeg&rc=QGlAYSNz&btag=80000000008000&dy_q=1730460657&l=202411011930478BDBB6A61F8F40CCF7D0&format=mp3",
        "source_timerange": {
            "start_offset": 0,
            "end_offset": 2.4099999999999966
        },
        "target_timerange": {
            "start_offset": 140.57,
            "end_offset": 142.98
        },
        "ignore_audio": false,
        "audio_path": null
    },
    {
        "segment_id": "c3e160d6984411efb99900163e6a626a",
        "text": "史金 你太牛了！竟然都押中了出事的高利贷！",
        "audio_url": "https://v6-vvecloud.yangyi08.com/9d70d5671e95b3a35d1034564c12f6e9/6724ca01/video/tos/cn/tos-cn-v-2cd6b0/oEzjAJvELwIoJAfnCcAIRd9FhfBChBiCADyBgq/?a=7073&ch=0&cr=0&dr=0&&br=0&bt=0&ft=xztlUQhhe6BMyqh-UupJD12Nzj&mime_type=audio_mpeg&rc=QGlAYSNz&btag=80000000008000&dy_q=1730460657&l=202411011930478BDBB6A61F8F40CCF7D0&format=mp3",
        "source_timerange": {
            "start_offset": 0,
            "end_offset": 4.4150000000000205
        },
        "target_timerange": {
            "start_offset": 142.98,
            "end_offset": 147.395
        },
        "ignore_audio": false,
        "audio_path": null
    },
    {
        "segment_id": "c3e16252984411efb99900163e6a626a",
        "text": "孙小萌激动地说道 似乎如果她在我面前",
        "audio_url": "https://v6-vvecloud.yangyi08.com/9d70d5671e95b3a35d1034564c12f6e9/6724ca01/video/tos/cn/tos-cn-v-2cd6b0/oEzjAJvELwIoJAfnCcAIRd9FhfBChBiCADyBgq/?a=7073&ch=0&cr=0&dr=0&&br=0&bt=0&ft=xztlUQhhe6BMyqh-UupJD12Nzj&mime_type=audio_mpeg&rc=QGlAYSNz&btag=80000000008000&dy_q=1730460657&l=202411011930478BDBB6A61F8F40CCF7D0&format=mp3",
        "source_timerange": {
            "start_offset": 4.4150000000000205,
            "end_offset": 7.880000000000024
        },
        "target_timerange": {
            "start_offset": 147.395,
            "end_offset": 150.86
        },
        "ignore_audio": true,
        "audio_path": null
    },
    {
        "segment_id": "c3e163ba984411efb99900163e6a626a",
        "text": "忍不住又要啄我一口了 运气好 运气好而已",
        "audio_url": "https://v9-vvecloud.yangyi08.com/55ead5b1aae64fbafb418504717a7b7c/6724ca01/video/tos/cn/tos-cn-v-2cd6b0/oIBEHdcfId7iCjJBPJDDfAcRvwCFAALgApEnIR/?a=7073&ch=0&cr=0&dr=0&&br=0&bt=0&ft=xztlUQhhe6BMyqh-UupJD12Nzj&mime_type=audio_mpeg&rc=QGlAYSNz&btag=80000000008000&dy_q=1730460657&l=202411011930478BDBB6A61F8F40CCF7D0&format=mp3",
        "source_timerange": {
            "start_offset": 0,
            "end_offset": 4.389999999999986
        },
        "target_timerange": {
            "start_offset": 150.86,
            "end_offset": 155.25
        },
        "ignore_audio": false,
        "audio_path": null
    },
    {
        "segment_id": "c3e166b2984411efb99900163e6a626a",
        "text": "对了 咱们对外宣称公司经营亏损",
        "audio_url": "https://v9-vvecloud.yangyi08.com/b38bbbe5880f1387daf4b35ce5229a02/6724ca01/video/tos/cn/tos-cn-v-2cd6b0/oISfEAIGcEdM8UeLIAAuVKIVJCuJekAAwGIfBh/?a=7073&ch=0&cr=0&dr=0&&br=0&bt=0&ft=xztlUQhhe6BMyqh-UupJD12Nzj&mime_type=audio_mpeg&rc=QGlAYSNz&btag=80000000008000&dy_q=1730460657&l=202411011930478BDBB6A61F8F40CCF7D0&format=mp3",
        "source_timerange": {
            "start_offset": 0,
            "end_offset": 3.710000000000008
        },
        "target_timerange": {
            "start_offset": 155.25,
            "end_offset": 158.96
        },
        "ignore_audio": false,
        "audio_path": null
    },
    {
        "segment_id": "c3e1682e984411efb99900163e6a626a",
        "text": "现在是艰难的维持运转 再有人问的话",
        "audio_url": "https://v6-vvecloud.yangyi08.com/c637fbbeacbcdca0e139dc35319608d8/6724ca01/video/tos/cn/tos-cn-v-2cd6b0/oQeJYeuSmAGGGcAQAOUIKhEI7CkLQeM9csfKAC/?a=7073&ch=0&cr=0&dr=0&&br=0&bt=0&ft=xztlUQhhe6BMyqh-UupJD12Nzj&mime_type=audio_mpeg&rc=QGlAYSNz&btag=80000000008000&dy_q=1730460657&l=202411011930478BDBB6A61F8F40CCF7D0&format=mp3",
        "source_timerange": {
            "start_offset": 0,
            "end_offset": 3.4950000000000045
        },
        "target_timerange": {
            "start_offset": 158.96,
            "end_offset": 162.455
        },
        "ignore_audio": false,
        "audio_path": null
    },
    {
        "segment_id": "c3e1698c984411efb99900163e6a626a",
        "text": "我淡淡地说",
        "audio_url": "https://v6-vvecloud.yangyi08.com/c637fbbeacbcdca0e139dc35319608d8/6724ca01/video/tos/cn/tos-cn-v-2cd6b0/oQeJYeuSmAGGGcAQAOUIKhEI7CkLQeM9csfKAC/?a=7073&ch=0&cr=0&dr=0&&br=0&bt=0&ft=xztlUQhhe6BMyqh-UupJD12Nzj&mime_type=audio_mpeg&rc=QGlAYSNz&btag=80000000008000&dy_q=1730460657&l=202411011930478BDBB6A61F8F40CCF7D0&format=mp3",
        "source_timerange": {
            "start_offset": 3.4950000000000045,
            "end_offset": 4.539999999999992
        },
        "target_timerange": {
            "start_offset": 162.455,
            "end_offset": 163.5
        },
        "ignore_audio": true,
        "audio_path": null
    },
    {
        "segment_id": "c3e16afe984411efb99900163e6a626a",
        "text": "心里早已开始规划如何将资金重新分配",
        "audio_url": "https://v3-vvecloud.yangyi08.com/2627af44a991de1b79a2f3e10dfa1d27/6724ca01/video/tos/cn/tos-cn-v-2cd6b0/o8AAPIuCcCABdeh9KGElBXIkLAfIIIeGfJZXJG/?a=7073&ch=0&cr=0&dr=0&&br=0&bt=0&ft=xztlUQhhe6BMyqh-UupJD12Nzj&mime_type=audio_mpeg&rc=QGlAYSNz&btag=80000000008000&dy_q=1730460657&l=202411011930478BDBB6A61F8F40CCF7D0&format=mp3",
        "source_timerange": {
            "start_offset": 0,
            "end_offset": 3.710000000000008
        },
        "target_timerange": {
            "start_offset": 163.5,
            "end_offset": 167.21
        },
        "ignore_audio": false,
        "audio_path": null
    },
    {
        "segment_id": "c3e16c5c984411efb99900163e6a626a",
        "text": "“就说我不懂 乱搞投资 炒虚拟币亏损了！”",
        "audio_url": "https://v3-vvecloud.yangyi08.com/174b22fbff8a7ebd89ac5eb0147075ce/6724ca01/video/tos/cn/tos-cn-v-2cd6b0/owuNILGAGJCC2QAheSIQXfEK7AKAetAlkceAqC/?a=7073&ch=0&cr=0&dr=0&&br=0&bt=0&ft=xztlUQhhe6BMyqh-UupJD12Nzj&mime_type=audio_mpeg&rc=QGlAYSNz&btag=80000000008000&dy_q=1730460657&l=202411011930478BDBB6A61F8F40CCF7D0&format=mp3",
        "source_timerange": {
            "start_offset": 0,
            "end_offset": 4.0049999999999955
        },
        "target_timerange": {
            "start_offset": 167.21,
            "end_offset": 171.215
        },
        "ignore_audio": false,
        "audio_path": null
    },
    {
        "segment_id": "c3e16dba984411efb99900163e6a626a",
        "text": "我继续说道 心中暗自得意",
        "audio_url": "https://v3-vvecloud.yangyi08.com/174b22fbff8a7ebd89ac5eb0147075ce/6724ca01/video/tos/cn/tos-cn-v-2cd6b0/owuNILGAGJCC2QAheSIQXfEK7AKAetAlkceAqC/?a=7073&ch=0&cr=0&dr=0&&br=0&bt=0&ft=xztlUQhhe6BMyqh-UupJD12Nzj&mime_type=audio_mpeg&rc=QGlAYSNz&btag=80000000008000&dy_q=1730460657&l=202411011930478BDBB6A61F8F40CCF7D0&format=mp3",
        "source_timerange": {
            "start_offset": 4.0049999999999955,
            "end_offset": 6.549999999999983
        },
        "target_timerange": {
            "start_offset": 171.215,
            "end_offset": 173.76
        },
        "ignore_audio": true,
        "audio_path": null
    },
    {
        "segment_id": "c3e16f0e984411efb99900163e6a626a",
        "text": "现在的我已经将借贷的",
        "audio_url": "https://v26-vvecloud.yangyi08.com/ddac4b03ba14189ff2a0a1a23c857a11/6724ca01/video/tos/cn/tos-cn-v-2cd6b0/oYAOduC9GIBfOJ9fKeLAIxGhlEegcACIIbA3Jk/?a=7073&ch=0&cr=0&dr=0&&br=0&bt=0&ft=xztlUQhhe6BMyqh-UupJD12Nzj&mime_type=audio_mpeg&rc=QGlAYSNz&btag=80000000008000&dy_q=1730460657&l=202411011930478BDBB6A61F8F40CCF7D0&format=mp3",
        "source_timerange": {
            "start_offset": 0,
            "end_offset": 1.6450000000000102
        },
        "target_timerange": {
            "start_offset": 173.76,
            "end_offset": 175.405
        },
        "ignore_audio": false,
        "audio_path": null
    },
    {
        "segment_id": "c3e1706c984411efb99900163e6a626a",
        "text": "五百五十万进行了合理的分配",
        "audio_url": "https://v26-vvecloud.yangyi08.com/ddac4b03ba14189ff2a0a1a23c857a11/6724ca01/video/tos/cn/tos-cn-v-2cd6b0/oYAOduC9GIBfOJ9fKeLAIxGhlEegcACIIbA3Jk/?a=7073&ch=0&cr=0&dr=0&&br=0&bt=0&ft=xztlUQhhe6BMyqh-UupJD12Nzj&mime_type=audio_mpeg&rc=QGlAYSNz&btag=80000000008000&dy_q=1730460657&l=202411011930478BDBB6A61F8F40CCF7D0&format=mp3",
        "source_timerange": {
            "start_offset": 1.6450000000000102,
            "end_offset": 3.890000000000015
        },
        "target_timerange": {
            "start_offset": 175.405,
            "end_offset": 177.65
        },
        "ignore_audio": true,
        "audio_path": null
    },
    {
        "segment_id": "c3e171d4984411efb99900163e6a626a",
        "text": "运作与三大商场的快消促销 投资视频媒体",
        "audio_url": "https://v26-vvecloud.yangyi08.com/95be67a0546c525fc5fa24133356ab23/6724ca01/video/tos/cn/tos-cn-v-2cd6b0/ockIAskI97AdCtceDLuhJmIAJGRfeBKWGAEfBI/?a=7073&ch=0&cr=0&dr=0&&br=0&bt=0&ft=xztlUQhhe6BMyqh-UupJD12Nzj&mime_type=audio_mpeg&rc=QGlAYSNz&btag=80000000008000&dy_q=1730460657&l=202411011930478BDBB6A61F8F40CCF7D0&format=mp3",
        "source_timerange": {
            "start_offset": 0,
            "end_offset": 4.25
        },
        "target_timerange": {
            "start_offset": 177.65,
            "end_offset": 181.9
        },
        "ignore_audio": false,
        "audio_path": null
    },
    {
        "segment_id": "c3e17328984411efb99900163e6a626a",
        "text": "经营网络商城等计划都在有条不紊地进行着",
        "audio_url": "https://v6-vvecloud.yangyi08.com/6ff3202d69cf8bb213b6743361c9b0cd/6724ca01/video/tos/cn/tos-cn-v-2cd6b0/owJC8BELfCDARQg3v5ADFAJAfhCABnIid9IwOD/?a=7073&ch=0&cr=0&dr=0&&br=0&bt=0&ft=xztlUQhhe6BMyqh-UupJD12Nzj&mime_type=audio_mpeg&rc=QGlAYSNz&btag=80000000008000&dy_q=1730460657&l=202411011930478BDBB6A61F8F40CCF7D0&format=mp3",
        "source_timerange": {
            "start_offset": 0,
            "end_offset": 3.8499999999999943
        },
        "target_timerange": {
            "start_offset": 181.9,
            "end_offset": 185.75
        },
        "ignore_audio": false,
        "audio_path": null
    },
    {
        "segment_id": "c3e1749a984411efb99900163e6a626a",
        "text": "史老板你是真扣馊啊！得了那么大的好处",
        "audio_url": "https://v3-vvecloud.yangyi08.com/772e63067410a8a2c03ff4bc9c67acc8/6724ca01/video/tos/cn/tos-cn-v-2cd6b0/oAdicEwDgiABpv3FfAnRAACsILJvfJIHLwDBIC/?a=7073&ch=0&cr=0&dr=0&&br=0&bt=0&ft=xztlUQhhe6BMyqh-UupJD12Nzj&mime_type=audio_mpeg&rc=QGlAYSNz&btag=80000000008000&dy_q=1730460657&l=202411011930478BDBB6A61F8F40CCF7D0&format=mp3",
        "source_timerange": {
            "start_offset": 0,
            "end_offset": 3.960000000000008
        },
        "target_timerange": {
            "start_offset": 185.75,
            "end_offset": 189.71
        },
        "ignore_audio": false,
        "audio_path": null
    },
    {
        "segment_id": "c3e1762a984411efb99900163e6a626a",
        "text": "就带我们来吃个农家乐庆祝！",
        "audio_url": "https://v6-vvecloud.yangyi08.com/c547979c1a5f67d7cf9f8db0dabb3d6f/6724ca01/video/tos/cn/tos-cn-v-2cd6b0/okRJkBLkyIGzjLAKfeAAe6IdcJIFG0sCIAfudE/?a=7073&ch=0&cr=0&dr=0&&br=0&bt=0&ft=xztlUQhhe6BMyqh-UupJD12Nzj&mime_type=audio_mpeg&rc=QGlAYSNz&btag=80000000008000&dy_q=1730460657&l=202411011930478BDBB6A61F8F40CCF7D0&format=mp3",
        "source_timerange": {
            "start_offset": 0,
            "end_offset": 2.344999999999999
        },
        "target_timerange": {
            "start_offset": 189.71,
            "end_offset": 192.055
        },
        "ignore_audio": false,
        "audio_path": null
    },
    {
        "segment_id": "c3e177a6984411efb99900163e6a626a",
        "text": "杨自奎的声音把我从思考中拉了出来",
        "audio_url": "https://v6-vvecloud.yangyi08.com/c547979c1a5f67d7cf9f8db0dabb3d6f/6724ca01/video/tos/cn/tos-cn-v-2cd6b0/okRJkBLkyIGzjLAKfeAAe6IdcJIFG0sCIAfudE/?a=7073&ch=0&cr=0&dr=0&&br=0&bt=0&ft=xztlUQhhe6BMyqh-UupJD12Nzj&mime_type=audio_mpeg&rc=QGlAYSNz&btag=80000000008000&dy_q=1730460657&l=202411011930478BDBB6A61F8F40CCF7D0&format=mp3",
        "source_timerange": {
            "start_offset": 2.344999999999999,
            "end_offset": 4.929999999999978
        },
        "target_timerange": {
            "start_offset": 192.055,
            "end_offset": 194.64
        },
        "ignore_audio": true,
        "audio_path": null
    },
    {
        "segment_id": "c3e17904984411efb99900163e6a626a",
        "text": "鄙夷地看着我愣神的样子",
        "audio_url": "https://v26-vvecloud.yangyi08.com/f2108bb563f209f5432ec5715bc89fc2/6724ca02/video/tos/cn/tos-cn-v-2cd6b0/o4ecbxGCJfGkbSyIO7LfjQAeCgAAQAEPuZAIHK/?a=7073&ch=0&cr=0&dr=0&&br=0&bt=0&ft=xztlUQhhe6BMyqL-UupJD12Nzj&mime_type=audio_mpeg&rc=QGlAYSNz&btag=80000000008000&dy_q=1730460658&l=202411011930478BDBB6A61F8F40CCF7D0&format=mp3",
        "source_timerange": {
            "start_offset": 0,
            "end_offset": 2.3000000000000114
        },
        "target_timerange": {
            "start_offset": 194.64,
            "end_offset": 196.94
        },
        "ignore_audio": false,
        "audio_path": null
    },
    {
        "segment_id": "c3e17a62984411efb99900163e6a626a",
        "text": "行了！公司什么情况你又不是不知道",
        "audio_url": "https://v3-vvecloud.yangyi08.com/c558e5aeb3eae808091b297c22753c81/6724ca02/video/tos/cn/tos-cn-v-2cd6b0/oUucEJlAQjfWUBdKuAWIkQ0AGffyMCAWJ8EIeI/?a=7073&ch=0&cr=0&dr=0&&br=0&bt=0&ft=xztlUQhhe6BMyqL-UupJD12Nzj&mime_type=audio_mpeg&rc=QGlAYSNz&btag=80000000008000&dy_q=1730460658&l=202411011930478BDBB6A61F8F40CCF7D0&format=mp3",
        "source_timerange": {
            "start_offset": 0,
            "end_offset": 3.640000000000015
        },
        "target_timerange": {
            "start_offset": 196.94,
            "end_offset": 200.58
        },
        "ignore_audio": false,
        "audio_path": null
    },
    {
        "segment_id": "c3e17bca984411efb99900163e6a626a",
        "text": "许多地方都要花钱 今天难得搞一次团建！",
        "audio_url": "https://v3-vvecloud.yangyi08.com/ac742528abe58a75bce56a5d1566dea4/6724ca02/video/tos/cn/tos-cn-v-2cd6b0/oQARAfK5DABnFAXixJEdLlIfJBCIMABgvERwvC/?a=7073&ch=0&cr=0&dr=0&&br=0&bt=0&ft=xztlUQhhe6BMyqL-UupJD12Nzj&mime_type=audio_mpeg&rc=QGlAYSNz&btag=80000000008000&dy_q=1730460658&l=202411011930478BDBB6A61F8F40CCF7D0&format=mp3",
        "source_timerange": {
            "start_offset": 0,
            "end_offset": 4.030000000000001
        },
        "target_timerange": {
            "start_offset": 200.58,
            "end_offset": 204.61
        },
        "ignore_audio": false,
        "audio_path": null
    },
    {
        "segment_id": "c3e17d3c984411efb99900163e6a626a",
        "text": "大家玩开心！我笑着回应 心里却想着秦霜的事情",
        "audio_url": "https://v3-vvecloud.yangyi08.com/165048a0a51f82063edbb4de5d549f45/6724ca02/video/tos/cn/tos-cn-v-2cd6b0/o8ejATeCucDeQAII74ELcJSGEDAEkQGSfcIKAC/?a=7073&ch=0&cr=0&dr=0&&br=0&bt=0&ft=xztlUQhhe6BMyqL-UupJD12Nzj&mime_type=audio_mpeg&rc=QGlAYSNz&btag=80000000008000&dy_q=1730460658&l=202411011930478BDBB6A61F8F40CCF7D0&format=mp3",
        "source_timerange": {
            "start_offset": 0,
            "end_offset": 5.079999999999984
        },
        "target_timerange": {
            "start_offset": 204.61,
            "end_offset": 209.69
        },
        "ignore_audio": false,
        "audio_path": null
    },
    {
        "segment_id": "c3e17eb8984411efb99900163e6a626a",
        "text": "于是我给她打了电话 却是大管家接的",
        "audio_url": "https://v9-vvecloud.yangyi08.com/6b90e88c56c0fd828acd820e5749fc44/6724ca02/video/tos/cn/tos-cn-v-2cd6b0/oIJ6JLEGIGcBk2JfdAAnKyfrIeejVHCIAYIAuA/?a=7073&ch=0&cr=0&dr=0&&br=0&bt=0&ft=xztlUQhhe6BMyqL-UupJD12Nzj&mime_type=audio_mpeg&rc=QGlAYSNz&btag=80000000008000&dy_q=1730460658&l=202411011930478BDBB6A61F8F40CCF7D0&format=mp3",
        "source_timerange": {
            "start_offset": 0,
            "end_offset": 3.670000000000016
        },
        "target_timerange": {
            "start_offset": 209.69,
            "end_offset": 213.36
        },
        "ignore_audio": false,
        "audio_path": null
    },
    {
        "segment_id": "c3e18048984411efb99900163e6a626a",
        "text": "得知我想邀请她来一起农家乐",
        "audio_url": "https://v26-vvecloud.yangyi08.com/f5373766c03da3fd6ead51bad92752ca/6724ca02/video/tos/cn/tos-cn-v-2cd6b0/oA9JfcRqIFmuKL6BvAIIAACdajAkEIGsJIfeGe/?a=7073&ch=0&cr=0&dr=0&&br=0&bt=0&ft=xztlUQhhe6BMyqL-UupJD12Nzj&mime_type=audio_mpeg&rc=QGlAYSNz&btag=80000000008000&dy_q=1730460658&l=202411011930478BDBB6A61F8F40CCF7D0&format=mp3",
        "source_timerange": {
            "start_offset": 0,
            "end_offset": 2.6599999999999966
        },
        "target_timerange": {
            "start_offset": 213.36,
            "end_offset": 216.02
        },
        "ignore_audio": false,
        "audio_path": null
    },
    {
        "segment_id": "c3e18200984411efb99900163e6a626a",
        "text": "大管家果断拒绝了！这让我心里顿时郁闷不已",
        "audio_url": "https://v26-vvecloud.yangyi08.com/b3c65ff864cf8e866e0253dbd14ba8b3/6724ca02/video/tos/cn/tos-cn-v-2cd6b0/oUBIKdAfIBeJIPkEJJGGeCkGfjKLAAuAAQpcIA/?a=7073&ch=0&cr=0&dr=0&&br=0&bt=0&ft=xztlUQhhe6BMyqL-UupJD12Nzj&mime_type=audio_mpeg&rc=QGlAYSNz&btag=80000000008000&dy_q=1730460658&l=202411011930478BDBB6A61F8F40CCF7D0&format=mp3",
        "source_timerange": {
            "start_offset": 0,
            "end_offset": 4.359999999999985
        },
        "target_timerange": {
            "start_offset": 216.02,
            "end_offset": 220.38
        },
        "ignore_audio": false,
        "audio_path": null
    },
    {
        "segment_id": "c3e18386984411efb99900163e6a626a",
        "text": "看来这次团建还是少了她的身影",
        "audio_url": "https://v26-vvecloud.yangyi08.com/ed2491d5b221b14b43e8bd599c4481ef/6724ca02/video/tos/cn/tos-cn-v-2cd6b0/oAFDFBcPLi0A8BvJIAAfEf4xCdJpnICNBA8RgV/?a=7073&ch=0&cr=0&dr=0&&br=0&bt=0&ft=xztlUQhhe6BMyqL-UupJD12Nzj&mime_type=audio_mpeg&rc=QGlAYSNz&btag=80000000008000&dy_q=1730460658&l=202411011930478BDBB6A61F8F40CCF7D0&format=mp3",
        "source_timerange": {
            "start_offset": 0,
            "end_offset": 3.0600000000000023
        },
        "target_timerange": {
            "start_offset": 220.38,
            "end_offset": 223.44
        },
        "ignore_audio": false,
        "audio_path": null
    }
]