[
    {
        "segment_id": "4ad042d2984111efb1324b3fcf70ea3f",
        "text": "我跟吴龙飞的谈话进行得很顺利",
        "audio_url": "https://v3-vvecloud.yangyi08.com/a4225432bd30cb325cd275e05da215fe/6724c42c/video/tos/cn/tos-cn-v-2cd6b0/o0AARcEIIAgnbeJfLbFDJZBmYDYgPiCpDBLRA4/?a=7073&ch=0&cr=0&dr=0&&br=0&bt=0&ft=xztlUQhhe6BMyqDPUupJD12Nzj&mime_type=audio_mpeg&rc=QGlAYSNz&btag=c0000000008000&dy_q=1730459164&l=20241101190536042B4BA35B800A864643&format=mp3",
        "source_timerange": {
            "start_offset": 0,
            "end_offset": 3.02
        },
        "target_timerange": {
            "start_offset": 0,
            "end_offset": 3.02
        },
        "ignore_audio": false,
        "audio_path": null
    },
    {
        "segment_id": "4ad045de984111efb1324b3fcf70ea3f",
        "text": "他对我的想法表现出了浓厚的兴趣",
        "audio_url": "https://v3-vvecloud.yangyi08.com/31615ae2c541771e5bd1d8ab475df9d5/6724c42d/video/tos/cn/tos-cn-v-2cd6b0/o8ANgc7fRnEmADA4B0DkVYFLAhpJgCfEkxtAEi/?a=7073&ch=0&cr=0&dr=0&&br=0&bt=0&ft=xztlUQhhe6BMyqMPUupJD12Nzj&mime_type=audio_mpeg&rc=QGlAYSNz&btag=c0000000008000&dy_q=1730459165&l=20241101190536042B4BA35B800A864643&format=mp3",
        "source_timerange": {
            "start_offset": 0,
            "end_offset": 3.06
        },
        "target_timerange": {
            "start_offset": 3.02,
            "end_offset": 6.08
        },
        "ignore_audio": false,
        "audio_path": null
    },
    {
        "segment_id": "4ad04796984111efb1324b3fcf70ea3f",
        "text": "作为一个重生者 我知道未来互联网的发展趋势",
        "audio_url": "https://v6-vvecloud.yangyi08.com/ed0b09a5e331bde3caf59c7cb3a03a58/6724c42d/video/tos/cn/tos-cn-v-2cd6b0/og2k6ikPiSyIhAyEpAwHFQiAoWZBA08KrEtHA/?a=7073&ch=0&cr=0&dr=0&&br=0&bt=0&ft=xztlUQhhe6BMyqMPUupJD12Nzj&mime_type=audio_mpeg&rc=QGlAYSNz&btag=c0000000008000&dy_q=1730459165&l=20241101190536042B4BA35B800A864643&format=mp3",
        "source_timerange": {
            "start_offset": 0,
            "end_offset": 4.279999999999999
        },
        "target_timerange": {
            "start_offset": 6.08,
            "end_offset": 10.36
        },
        "ignore_audio": false,
        "audio_path": null
    },
    {
        "segment_id": "4ad04944984111efb1324b3fcf70ea3f",
        "text": "而他则是个技术高手",
        "audio_url": "https://v9-vvecloud.yangyi08.com/3965d4f20d5a24f9db6ccd5990a7b168/6724c42c/video/tos/cn/tos-cn-v-2cd6b0/oEcHEKDJgYjRCIADnAIB0iFfimAJDLfbBuAqDA/?a=7073&ch=0&cr=0&dr=0&&br=0&bt=0&ft=xztlUQhhe6BMyqDPUupJD12Nzj&mime_type=audio_mpeg&rc=QGlAYSNz&btag=c0000000008000&dy_q=1730459164&l=20241101190536042B4BA35B800A864643&format=mp3",
        "source_timerange": {
            "start_offset": 0,
            "end_offset": 2.2300000000000004
        },
        "target_timerange": {
            "start_offset": 10.36,
            "end_offset": 12.59
        },
        "ignore_audio": false,
        "audio_path": null
    },
    {
        "segment_id": "4ad04b24984111efb1324b3fcf70ea3f",
        "text": "我们的合作 恰恰能够将我的",
        "audio_url": "https://v3-vvecloud.yangyi08.com/9c7d12c7a24237951ac9099f69789c23/6724c433/video/tos/cn/tos-cn-v-2cd6b0/ow3Eg0JERDAtAcnedFLciNEAkDqhfzCDRABYAD/?a=7073&ch=0&cr=0&dr=0&&br=156&bt=156&ds=5&ft=xztlUQhhe6BMyqMPUupJD12Nzj&mime_type=audio_mpeg&qs=13&rc=MzQ6ZW85cjpldjMzNDdkM0BpMzQ6ZW85cjpldjMzNDdkM0Bza2gxMmQ0YGZgLS1kLzBzYSNza2gxMmQ0YGZgLS1kLzBzcw%3D%3D&btag=c0000000008000&dy_q=1730459165&l=20241101190536042B4BA35B800A864643&format=mp3",
        "source_timerange": {
            "start_offset": 0,
            "end_offset": 2.415000000000001
        },
        "target_timerange": {
            "start_offset": 12.59,
            "end_offset": 15.005
        },
        "ignore_audio": false,
        "audio_path": null
    },
    {
        "segment_id": "4ad04d40984111efb1324b3fcf70ea3f",
        "text": "创意和他的技术结合在一起 形成一股强大的力量",
        "audio_url": "https://v3-vvecloud.yangyi08.com/9c7d12c7a24237951ac9099f69789c23/6724c433/video/tos/cn/tos-cn-v-2cd6b0/ow3Eg0JERDAtAcnedFLciNEAkDqhfzCDRABYAD/?a=7073&ch=0&cr=0&dr=0&&br=156&bt=156&ds=5&ft=xztlUQhhe6BMyqMPUupJD12Nzj&mime_type=audio_mpeg&qs=13&rc=MzQ6ZW85cjpldjMzNDdkM0BpMzQ6ZW85cjpldjMzNDdkM0Bza2gxMmQ0YGZgLS1kLzBzYSNza2gxMmQ0YGZgLS1kLzBzcw%3D%3D&btag=c0000000008000&dy_q=1730459165&l=20241101190536042B4BA35B800A864643&format=mp3",
        "source_timerange": {
            "start_offset": 2.415000000000001,
            "end_offset": 6.4399999999999995
        },
        "target_timerange": {
            "start_offset": 15.005,
            "end_offset": 19.03
        },
        "ignore_audio": true,
        "audio_path": null
    },
    {
        "segment_id": "4ad04f3e984111efb1324b3fcf70ea3f",
        "text": "“飞哥 上车吧！”",
        "audio_url": "https://v26-vvecloud.yangyi08.com/274ce4dcfcd6bfd4f5873c2374362fe5/6724c42d/video/tos/cn/tos-cn-v-2cd6b0/o8htEhFyAXDcFi4kAADCEYJ2RfngtBAiALE9fZ/?a=7073&ch=0&cr=0&dr=0&&br=0&bt=0&ft=xztlUQhhe6BMyqMPUupJD12Nzj&mime_type=audio_mpeg&rc=QGlAYSNz&btag=c0000000008000&dy_q=1730459165&l=20241101190536042B4BA35B800A864643&format=mp3",
        "source_timerange": {
            "start_offset": 0,
            "end_offset": 2.004999999999999
        },
        "target_timerange": {
            "start_offset": 19.03,
            "end_offset": 21.035
        },
        "ignore_audio": false,
        "audio_path": null
    },
    {
        "segment_id": "4ad050f6984111efb1324b3fcf70ea3f",
        "text": "我指了指保镖打开的车门 看到那两辆豪车",
        "audio_url": "https://v26-vvecloud.yangyi08.com/274ce4dcfcd6bfd4f5873c2374362fe5/6724c42d/video/tos/cn/tos-cn-v-2cd6b0/o8htEhFyAXDcFi4kAADCEYJ2RfngtBAiALE9fZ/?a=7073&ch=0&cr=0&dr=0&&br=0&bt=0&ft=xztlUQhhe6BMyqMPUupJD12Nzj&mime_type=audio_mpeg&rc=QGlAYSNz&btag=c0000000008000&dy_q=1730459165&l=20241101190536042B4BA35B800A864643&format=mp3",
        "source_timerange": {
            "start_offset": 2.004999999999999,
            "end_offset": 5.399999999999999
        },
        "target_timerange": {
            "start_offset": 21.035,
            "end_offset": 24.43
        },
        "ignore_audio": true,
        "audio_path": null
    },
    {
        "segment_id": "4ad0531c984111efb1324b3fcf70ea3f",
        "text": "我的心中暗暗自豪",
        "audio_url": "https://v3-vvecloud.yangyi08.com/ee4027466959990372111bfc8a119a2c/6724c42d/video/tos/cn/tos-cn-v-2cd6b0/oQEkEAAARt0JCxDnHFAJffP57YzicEAgDzLhBp/?a=7073&ch=0&cr=0&dr=0&&br=0&bt=0&ft=xztlUQhhe6BMyqMPUupJD12Nzj&mime_type=audio_mpeg&rc=QGlAYSNz&btag=c0000000008000&dy_q=1730459165&l=20241101190536042B4BA35B800A864643&format=mp3",
        "source_timerange": {
            "start_offset": 0,
            "end_offset": 2.2300000000000004
        },
        "target_timerange": {
            "start_offset": 24.43,
            "end_offset": 26.66
        },
        "ignore_audio": false,
        "audio_path": null
    },
    {
        "segment_id": "4ad054e8984111efb1324b3fcf70ea3f",
        "text": "吴龙飞的眼中闪烁着光芒 他的谦虚让我感到欣慰",
        "audio_url": "https://v6-vvecloud.yangyi08.com/63adaca01c5670b0263cb0d8ddbadd33/6724c42d/video/tos/cn/tos-cn-v-2cd6b0/owtA4BZyQIAHhiOA7i2TAUiE5kkAPoSOxwZhE/?a=7073&ch=0&cr=0&dr=0&&br=0&bt=0&ft=xztlUQhhe6BMyqMPUupJD12Nzj&mime_type=audio_mpeg&rc=QGlAYSNz&btag=c0000000008000&dy_q=1730459165&l=20241101190536042B4BA35B800A864643&format=mp3",
        "source_timerange": {
            "start_offset": 0,
            "end_offset": 4.75
        },
        "target_timerange": {
            "start_offset": 26.66,
            "end_offset": 31.41
        },
        "ignore_audio": false,
        "audio_path": null
    },
    {
        "segment_id": "4ad0568c984111efb1324b3fcf70ea3f",
        "text": "但我知道 未来的路不止是这几辆车",
        "audio_url": "https://v3-vvecloud.yangyi08.com/06821e97a7933e17a36e7dd21c7b4069/6724c42d/video/tos/cn/tos-cn-v-2cd6b0/oUHZQEXBAEG5edeSBAMFQwSrj4OA2CCEAWQe8O/?a=7073&ch=0&cr=0&dr=0&&br=0&bt=0&ft=xztlUQhhe6BMyqMPUupJD12Nzj&mime_type=audio_mpeg&rc=QGlAYSNz&btag=c0000000008000&dy_q=1730459165&l=20241101190536042B4BA35B800A864643&format=mp3",
        "source_timerange": {
            "start_offset": 0,
            "end_offset": 3.5599999999999987
        },
        "target_timerange": {
            "start_offset": 31.41,
            "end_offset": 34.97
        },
        "ignore_audio": false,
        "audio_path": null
    },
    {
        "segment_id": "4ad0581c984111efb1324b3fcf70ea3f",
        "text": "而是我们事业的起点",
        "audio_url": "https://v6-vvecloud.yangyi08.com/49b3fe70bc32c72853561b8f233a0c2c/6724c42c/video/tos/cn/tos-cn-v-2cd6b0/oUBaEA9hw7kXiAASqoBtTAAQiwZPMHIw2iyEk/?a=7073&ch=0&cr=0&dr=0&&br=0&bt=0&ft=xztlUQhhe6BMyqDPUupJD12Nzj&mime_type=audio_mpeg&rc=QGlAYSNz&btag=c0000000008000&dy_q=1730459164&l=20241101190536042B4BA35B800A864643&format=mp3",
        "source_timerange": {
            "start_offset": 0,
            "end_offset": 2.0900000000000034
        },
        "target_timerange": {
            "start_offset": 34.97,
            "end_offset": 37.06
        },
        "ignore_audio": false,
        "audio_path": null
    },
    {
        "segment_id": "4ad05a38984111efb1324b3fcf70ea3f",
        "text": "我虽然技术上还过得去 但是想法创新却不行",
        "audio_url": "https://v3-vvecloud.yangyi08.com/298aad534501c86dec4e9f626b05a262/6724c42c/video/tos/cn/tos-cn-v-2cd6b0/o0BhkCl7LDAzeEEnAJFfABgsVt6AYlEoRADnic/?a=7073&ch=0&cr=0&dr=0&&br=0&bt=0&ft=xztlUQhhe6BMyqDPUupJD12Nzj&mime_type=audio_mpeg&rc=QGlAYSNz&btag=c0000000008000&dy_q=1730459164&l=20241101190536042B4BA35B800A864643&format=mp3",
        "source_timerange": {
            "start_offset": 0,
            "end_offset": 4.359999999999999
        },
        "target_timerange": {
            "start_offset": 37.06,
            "end_offset": 41.42
        },
        "ignore_audio": false,
        "audio_path": null
    },
    {
        "segment_id": "4ad05bdc984111efb1324b3fcf70ea3f",
        "text": "如一艘船 虽然我是个不错的水手",
        "audio_url": "https://v26-vvecloud.yangyi08.com/21815024b795728278a8321b8b64d4d7/6724c42d/video/tos/cn/tos-cn-v-2cd6b0/o8tOiQtAiAAcKwkAIkAB8jZ5SoEzPQHtHEh2y/?a=7073&ch=0&cr=0&dr=0&&br=0&bt=0&ft=xztlUQhhe6BMyqMPUupJD12Nzj&mime_type=audio_mpeg&rc=QGlAYSNz&btag=c0000000008000&dy_q=1730459165&l=20241101190536042B4BA35B800A864643&format=mp3",
        "source_timerange": {
            "start_offset": 0,
            "end_offset": 3.3500000000000014
        },
        "target_timerange": {
            "start_offset": 41.42,
            "end_offset": 44.77
        },
        "ignore_audio": false,
        "audio_path": null
    },
    {
        "segment_id": "4ad05d80984111efb1324b3fcf70ea3f",
        "text": "但没有船长的带领与指导",
        "audio_url": "https://v6-vvecloud.yangyi08.com/33e4e0c6a30b6342b7eb6689c7167b41/6724c42d/video/tos/cn/tos-cn-v-2cd6b0/oQMwEGet5GFhtlAyAWLuBjOAAEdAmCOSEeekkI/?a=7073&ch=0&cr=0&dr=0&&br=0&bt=0&ft=xztlUQhhe6BMyqMPUupJD12Nzj&mime_type=audio_mpeg&rc=QGlAYSNz&btag=c0000000008000&dy_q=1730459165&l=20241101190536042B4BA35B800A864643&format=mp3",
        "source_timerange": {
            "start_offset": 0,
            "end_offset": 2.5899999999999963
        },
        "target_timerange": {
            "start_offset": 44.77,
            "end_offset": 47.36
        },
        "ignore_audio": false,
        "audio_path": null
    },
    {
        "segment_id": "4ad05f24984111efb1324b3fcf70ea3f",
        "text": "我们的小船也只会在港湾里打转",
        "audio_url": "https://v9-vvecloud.yangyi08.com/3773478a7ac30b6a51cfb4714adaa3e0/6724c42d/video/tos/cn/tos-cn-v-2cd6b0/ow87tW5GSCBWWGFEAEfAeAFyAewAhOCBMEjkQA/?a=7073&ch=0&cr=0&dr=0&&br=0&bt=0&ft=xztlUQhhe6BMyqMPUupJD12Nzj&mime_type=audio_mpeg&rc=QGlAYSNz&btag=c0000000008000&dy_q=1730459165&l=20241101190536042B4BA35B800A864643&format=mp3",
        "source_timerange": {
            "start_offset": 0,
            "end_offset": 2.9200000000000017
        },
        "target_timerange": {
            "start_offset": 47.36,
            "end_offset": 50.28
        },
        "ignore_audio": false,
        "audio_path": null
    },
    {
        "segment_id": "4ad060c8984111efb1324b3fcf70ea3f",
        "text": "行不远！",
        "audio_url": "https://v26-vvecloud.yangyi08.com/cdc922279c3fc791010a51d9ede70afe/6724c42c/video/tos/cn/tos-cn-v-2cd6b0/oAtISEAoPAtw1W0CAZZAHkdQUAk2iiyyE4BhU/?a=7073&ch=0&cr=0&dr=0&&br=0&bt=0&ft=xztlUQhhe6BMyqDPUupJD12Nzj&mime_type=audio_mpeg&rc=QGlAYSNz&btag=c0000000008000&dy_q=1730459164&l=20241101190536042B4BA35B800A864643&format=mp3",
        "source_timerange": {
            "start_offset": 0,
            "end_offset": 1.3449999999999989
        },
        "target_timerange": {
            "start_offset": 50.28,
            "end_offset": 51.625
        },
        "ignore_audio": false,
        "audio_path": null
    },
    {
        "segment_id": "4ad06348984111efb1324b3fcf70ea3f",
        "text": "吴龙飞的比喻让我更加坚定了心中的想法",
        "audio_url": "https://v26-vvecloud.yangyi08.com/cdc922279c3fc791010a51d9ede70afe/6724c42c/video/tos/cn/tos-cn-v-2cd6b0/oAtISEAoPAtw1W0CAZZAHkdQUAk2iiyyE4BhU/?a=7073&ch=0&cr=0&dr=0&&br=0&bt=0&ft=xztlUQhhe6BMyqDPUupJD12Nzj&mime_type=audio_mpeg&rc=QGlAYSNz&btag=c0000000008000&dy_q=1730459164&l=20241101190536042B4BA35B800A864643&format=mp3",
        "source_timerange": {
            "start_offset": 1.3449999999999989,
            "end_offset": 4.390000000000001
        },
        "target_timerange": {
            "start_offset": 51.625,
            "end_offset": 54.67
        },
        "ignore_audio": true,
        "audio_path": null
    },
    {
        "segment_id": "4ad064ec984111efb1324b3fcf70ea3f",
        "text": "我们需要一个团队",
        "audio_url": "https://v6-vvecloud.yangyi08.com/81144acb440685cb6385142554f15df7/6724c42d/video/tos/cn/tos-cn-v-2cd6b0/okAZtLxsDEAhJksYCaFADFRcgBf7nAAEEDgfiJ/?a=7073&ch=0&cr=0&dr=0&&br=0&bt=0&ft=xztlUQhhe6BMyqMPUupJD12Nzj&mime_type=audio_mpeg&rc=QGlAYSNz&btag=c0000000008000&dy_q=1730459165&l=20241101190536042B4BA35B800A864643&format=mp3",
        "source_timerange": {
            "start_offset": 0,
            "end_offset": 1.8699999999999974
        },
        "target_timerange": {
            "start_offset": 54.67,
            "end_offset": 56.54
        },
        "ignore_audio": false,
        "audio_path": null
    },
    {
        "segment_id": "4ad06668984111efb1324b3fcf70ea3f",
        "text": "才能在这个竞争激烈的世界中脱颖而出",
        "audio_url": "https://v3-vvecloud.yangyi08.com/09d9baaeaa7531203e63da0f9503182b/6724c42d/video/tos/cn/tos-cn-v-2cd6b0/oQEweARiEACfhEAkAnAgNcR5DBFYPtJDLuwc5k/?a=7073&ch=0&cr=0&dr=0&&br=0&bt=0&ft=xztlUQhhe6BMyqMPUupJD12Nzj&mime_type=audio_mpeg&rc=QGlAYSNz&btag=c0000000008000&dy_q=1730459165&l=20241101190536042B4BA35B800A864643&format=mp3",
        "source_timerange": {
            "start_offset": 0,
            "end_offset": 3.710000000000001
        },
        "target_timerange": {
            "start_offset": 56.54,
            "end_offset": 60.25
        },
        "ignore_audio": false,
        "audio_path": null
    },
    {
        "segment_id": "4ad067f8984111efb1324b3fcf70ea3f",
        "text": "学长不要这样 叫我金子就好了",
        "audio_url": "https://v3-vvecloud.yangyi08.com/2ebb61be445d35d586357e70f13a5b5d/6724c42d/video/tos/cn/tos-cn-v-2cd6b0/ooBAYDDiFA8cJbJuARekCBIiiwIIIDAfgnLayE/?a=7073&ch=0&cr=0&dr=0&&br=0&bt=0&ft=xztlUQhhe6BMyqMPUupJD12Nzj&mime_type=audio_mpeg&rc=QGlAYSNz&btag=c0000000008000&dy_q=1730459165&l=20241101190536042B4BA35B800A864643&format=mp3",
        "source_timerange": {
            "start_offset": 0,
            "end_offset": 3.1300000000000026
        },
        "target_timerange": {
            "start_offset": 60.25,
            "end_offset": 63.38
        },
        "ignore_audio": false,
        "audio_path": null
    },
    {
        "segment_id": "4ad0697e984111efb1324b3fcf70ea3f",
        "text": "不如这样吧 咱们就组建一个团队",
        "audio_url": "https://v3-vvecloud.yangyi08.com/ea3a685e673576119df9382b247a8ea1/6724c42d/video/tos/cn/tos-cn-v-2cd6b0/oQEAknUiLBLA0gRGopECAFEAYtDreJAyUfOchD/?a=7073&ch=0&cr=0&dr=0&&br=0&bt=0&ft=xztlUQhhe6BMyqMPUupJD12Nzj&mime_type=audio_mpeg&rc=QGlAYSNz&btag=c0000000008000&dy_q=1730459165&l=20241101190536042B4BA35B800A864643&format=mp3",
        "source_timerange": {
            "start_offset": 0,
            "end_offset": 3.1999999999999957
        },
        "target_timerange": {
            "start_offset": 63.38,
            "end_offset": 66.58
        },
        "ignore_audio": false,
        "audio_path": null
    },
    {
        "segment_id": "4ad06b0e984111efb1324b3fcf70ea3f",
        "text": "一起驾着我们的小船驶向我们的未来世界！",
        "audio_url": "https://v6-vvecloud.yangyi08.com/45e84287369232b56c56da56556635b2/6724c42c/video/tos/cn/tos-cn-v-2cd6b0/oInJAlktEALABoWiEcAksACNARFhzDfX0gfDYE/?a=7073&ch=0&cr=0&dr=0&&br=0&bt=0&ft=xztlUQhhe6BMyqDPUupJD12Nzj&mime_type=audio_mpeg&rc=QGlAYSNz&btag=c0000000008000&dy_q=1730459164&l=20241101190536042B4BA35B800A864643&format=mp3",
        "source_timerange": {
            "start_offset": 0,
            "end_offset": 2.7750000000000057
        },
        "target_timerange": {
            "start_offset": 66.58,
            "end_offset": 69.355
        },
        "ignore_audio": false,
        "audio_path": null
    },
    {
        "segment_id": "4ad06c9e984111efb1324b3fcf70ea3f",
        "text": "我激动地提议道",
        "audio_url": "https://v6-vvecloud.yangyi08.com/45e84287369232b56c56da56556635b2/6724c42c/video/tos/cn/tos-cn-v-2cd6b0/oInJAlktEALABoWiEcAksACNARFhzDfX0gfDYE/?a=7073&ch=0&cr=0&dr=0&&br=0&bt=0&ft=xztlUQhhe6BMyqDPUupJD12Nzj&mime_type=audio_mpeg&rc=QGlAYSNz&btag=c0000000008000&dy_q=1730459164&l=20241101190536042B4BA35B800A864643&format=mp3",
        "source_timerange": {
            "start_offset": 2.7750000000000057,
            "end_offset": 4.460000000000008
        },
        "target_timerange": {
            "start_offset": 69.355,
            "end_offset": 71.04
        },
        "ignore_audio": true,
        "audio_path": null
    },
    {
        "segment_id": "4ad06e24984111efb1324b3fcf70ea3f",
        "text": "我的话立刻得到了杨自奎和吴龙飞的赞同",
        "audio_url": "https://v9-vvecloud.yangyi08.com/e5e5d5a337d8119daaaea6a926c9a51b/6724c430/video/tos/cn/tos-cn-v-2cd6b0/oskAAEI3H6B2SAkQNAAxoEZXtLkQWwyihciyP/?a=7073&ch=0&cr=0&dr=0&&br=62&bt=62&ds=5&ft=xztlUQhhe6BMyqMPUupJD12Nzj&mime_type=audio_mpeg&qs=13&rc=anY8aHE5cjpldjMzNDdkM0BpanY8aHE5cjpldjMzNDdkM0BfLWpmMmQ0YGZgLS1kLzBzYSNfLWpmMmQ0YGZgLS1kLzBzcw%3D%3D&btag=c0000000008000&dy_q=1730459165&l=20241101190536042B4BA35B800A864643&format=mp3",
        "source_timerange": {
            "start_offset": 0,
            "end_offset": 3.6400000000000006
        },
        "target_timerange": {
            "start_offset": 71.04,
            "end_offset": 74.68
        },
        "ignore_audio": false,
        "audio_path": null
    },
    {
        "segment_id": "4ad06fb4984111efb1324b3fcf70ea3f",
        "text": "这时 我的视线落在一旁的阿东身上",
        "audio_url": "https://v3-vvecloud.yangyi08.com/debf996e027364e8525eef8218fd9324/6724c42d/video/tos/cn/tos-cn-v-2cd6b0/ooHPQAchVoQykX2XiEIAoyZtBkEAbwg5wiAAS/?a=7073&ch=0&cr=0&dr=0&&br=0&bt=0&ft=xztlUQhhe6BMyqMPUupJD12Nzj&mime_type=audio_mpeg&rc=QGlAYSNz&btag=c0000000008000&dy_q=1730459165&l=20241101190536042B4BA35B800A864643&format=mp3",
        "source_timerange": {
            "start_offset": 0,
            "end_offset": 3.779999999999987
        },
        "target_timerange": {
            "start_offset": 74.68,
            "end_offset": 78.46
        },
        "ignore_audio": false,
        "audio_path": null
    },
    {
        "segment_id": "4ad07158984111efb1324b3fcf70ea3f",
        "text": "他的学历并不高 但他身上散发的强大气场让",
        "audio_url": "https://v9-vvecloud.yangyi08.com/b202a01db3e924c10ce9201e9e32dd60/6724c42c/video/tos/cn/tos-cn-v-2cd6b0/owiNrkQPhw2ikBIo4tEAAAwHAZjEASySE40NR/?a=7073&ch=0&cr=0&dr=0&&br=0&bt=0&ft=xztlUQhhe6BMyqDPUupJD12Nzj&mime_type=audio_mpeg&rc=QGlAYSNz&btag=c0000000008000&dy_q=1730459164&l=20241101190536042B4BA35B800A864643&format=mp3",
        "source_timerange": {
            "start_offset": 0,
            "end_offset": 3.7150000000000034
        },
        "target_timerange": {
            "start_offset": 78.46,
            "end_offset": 82.175
        },
        "ignore_audio": false,
        "audio_path": null
    },
    {
        "segment_id": "4ad072ca984111efb1324b3fcf70ea3f",
        "text": "我想到了他在团队中的重要性",
        "audio_url": "https://v9-vvecloud.yangyi08.com/b202a01db3e924c10ce9201e9e32dd60/6724c42c/video/tos/cn/tos-cn-v-2cd6b0/owiNrkQPhw2ikBIo4tEAAAwHAZjEASySE40NR/?a=7073&ch=0&cr=0&dr=0&&br=0&bt=0&ft=xztlUQhhe6BMyqDPUupJD12Nzj&mime_type=audio_mpeg&rc=QGlAYSNz&btag=c0000000008000&dy_q=1730459164&l=20241101190536042B4BA35B800A864643&format=mp3",
        "source_timerange": {
            "start_offset": 3.7150000000000034,
            "end_offset": 5.980000000000004
        },
        "target_timerange": {
            "start_offset": 82.175,
            "end_offset": 84.44
        },
        "ignore_audio": true,
        "audio_path": null
    },
    {
        "segment_id": "4ad07446984111efb1324b3fcf70ea3f",
        "text": "“东哥 你也加入咱们团队！”",
        "audio_url": "https://v9-vvecloud.yangyi08.com/15b358a2abaf7cc404ad53525bf17515/6724c42d/video/tos/cn/tos-cn-v-2cd6b0/o8BPAiHAS9Bwhkty2ZszEQdEAiQtAdokbCIA6/?a=7073&ch=0&cr=0&dr=0&&br=0&bt=0&ft=xztlUQhhe6BMyqMPUupJD12Nzj&mime_type=audio_mpeg&rc=QGlAYSNz&btag=c0000000008000&dy_q=1730459165&l=20241101190536042B4BA35B800A864643&format=mp3",
        "source_timerange": {
            "start_offset": 0,
            "end_offset": 2.655000000000001
        },
        "target_timerange": {
            "start_offset": 84.44,
            "end_offset": 87.095
        },
        "ignore_audio": false,
        "audio_path": null
    },
    {
        "segment_id": "4ad075cc984111efb1324b3fcf70ea3f",
        "text": "我一把拉过他 感觉到他有些犹豫",
        "audio_url": "https://v9-vvecloud.yangyi08.com/15b358a2abaf7cc404ad53525bf17515/6724c42d/video/tos/cn/tos-cn-v-2cd6b0/o8BPAiHAS9Bwhkty2ZszEQdEAiQtAdokbCIA6/?a=7073&ch=0&cr=0&dr=0&&br=0&bt=0&ft=xztlUQhhe6BMyqMPUupJD12Nzj&mime_type=audio_mpeg&rc=QGlAYSNz&btag=c0000000008000&dy_q=1730459165&l=20241101190536042B4BA35B800A864643&format=mp3",
        "source_timerange": {
            "start_offset": 2.655000000000001,
            "end_offset": 5.400000000000006
        },
        "target_timerange": {
            "start_offset": 87.095,
            "end_offset": 89.84
        },
        "ignore_audio": true,
        "audio_path": null
    },
    {
        "segment_id": "4ad07734984111efb1324b3fcf70ea3f",
        "text": "我？不行 不行 我就量个粗人 什么都不会",
        "audio_url": "https://v9-vvecloud.yangyi08.com/083c9c6e2132fb230d9be27208de127f/6724c42d/video/tos/cn/tos-cn-v-2cd6b0/oAhXE3FxA3DcxfwkAADCEYJ2RbngtBAiALEIf8/?a=7073&ch=0&cr=0&dr=0&&br=0&bt=0&ft=xztlUQhhe6BMyqMPUupJD12Nzj&mime_type=audio_mpeg&rc=QGlAYSNz&btag=c0000000008000&dy_q=1730459165&l=20241101190536042B4BA35B800A864643&format=mp3",
        "source_timerange": {
            "start_offset": 0,
            "end_offset": 4.924999999999997
        },
        "target_timerange": {
            "start_offset": 89.84,
            "end_offset": 94.765
        },
        "ignore_audio": false,
        "audio_path": null
    },
    {
        "segment_id": "4ad078b0984111efb1324b3fcf70ea3f",
        "text": "阿东显得有些惶恐",
        "audio_url": "https://v9-vvecloud.yangyi08.com/083c9c6e2132fb230d9be27208de127f/6724c42d/video/tos/cn/tos-cn-v-2cd6b0/oAhXE3FxA3DcxfwkAADCEYJ2RbngtBAiALEIf8/?a=7073&ch=0&cr=0&dr=0&&br=0&bt=0&ft=xztlUQhhe6BMyqMPUupJD12Nzj&mime_type=audio_mpeg&rc=QGlAYSNz&btag=c0000000008000&dy_q=1730459165&l=20241101190536042B4BA35B800A864643&format=mp3",
        "source_timerange": {
            "start_offset": 4.924999999999997,
            "end_offset": 6.340000000000003
        },
        "target_timerange": {
            "start_offset": 94.765,
            "end_offset": 96.18
        },
        "ignore_audio": true,
        "audio_path": null
    },
    {
        "segment_id": "4ad07a22984111efb1324b3fcf70ea3f",
        "text": "就是 东哥 你就别拒绝了 是不是看不起我们",
        "audio_url": "https://v6-vvecloud.yangyi08.com/692155795fc3e4f0744eedb65fa82386/6724c42c/video/tos/cn/tos-cn-v-2cd6b0/ooyh5ZhEPSgyiAsi1oB72wIHNAQAkAt6kgAiE/?a=7073&ch=0&cr=0&dr=0&&br=0&bt=0&ft=xztlUQhhe6BMyqDPUupJD12Nzj&mime_type=audio_mpeg&rc=QGlAYSNz&btag=c0000000008000&dy_q=1730459164&l=20241101190536042B4BA35B800A864643&format=mp3",
        "source_timerange": {
            "start_offset": 0,
            "end_offset": 4.819999999999993
        },
        "target_timerange": {
            "start_offset": 96.18,
            "end_offset": 101
        },
        "ignore_audio": false,
        "audio_path": null
    },
    {
        "segment_id": "4ad07b8a984111efb1324b3fcf70ea3f",
        "text": "觉得我们只是在这里幻想 将来成不了事？",
        "audio_url": "https://v26-vvecloud.yangyi08.com/ec659417606bdce5509b630a35966c9e/6724c42d/video/tos/cn/tos-cn-v-2cd6b0/owEi2EE1kihHwaQxAtAS0Iy2AuBpcxAZkyoPA/?a=7073&ch=0&cr=0&dr=0&&br=0&bt=0&ft=xztlUQhhe6BMyqMPUupJD12Nzj&mime_type=audio_mpeg&rc=QGlAYSNz&btag=c0000000008000&dy_q=1730459165&l=20241101190536042B4BA35B800A864643&format=mp3",
        "source_timerange": {
            "start_offset": 0,
            "end_offset": 3.114999999999995
        },
        "target_timerange": {
            "start_offset": 101,
            "end_offset": 104.115
        },
        "ignore_audio": false,
        "audio_path": null
    },
    {
        "segment_id": "4ad07d06984111efb1324b3fcf70ea3f",
        "text": "吴龙飞补充道 最终 阿东被我们说动了",
        "audio_url": "https://v26-vvecloud.yangyi08.com/ec659417606bdce5509b630a35966c9e/6724c42d/video/tos/cn/tos-cn-v-2cd6b0/owEi2EE1kihHwaQxAtAS0Iy2AuBpcxAZkyoPA/?a=7073&ch=0&cr=0&dr=0&&br=0&bt=0&ft=xztlUQhhe6BMyqMPUupJD12Nzj&mime_type=audio_mpeg&rc=QGlAYSNz&btag=c0000000008000&dy_q=1730459165&l=20241101190536042B4BA35B800A864643&format=mp3",
        "source_timerange": {
            "start_offset": 3.114999999999995,
            "end_offset": 7.420000000000002
        },
        "target_timerange": {
            "start_offset": 104.115,
            "end_offset": 108.42
        },
        "ignore_audio": true,
        "audio_path": null
    },
    {
        "segment_id": "4ad07eaa984111efb1324b3fcf70ea3f",
        "text": "他的加入让我感到更加安心 毕竟在未来的路上",
        "audio_url": "https://v26-vvecloud.yangyi08.com/0e3951b806db368f0e218680f45847b0/6724c42d/video/tos/cn/tos-cn-v-2cd6b0/ocwUAxBIQkInwA8AAEPoh1H2lyLtEATikiZSD/?a=7073&ch=0&cr=0&dr=0&&br=0&bt=0&ft=xztlUQhhe6BMyqMPUupJD12Nzj&mime_type=audio_mpeg&rc=QGlAYSNz&btag=c0000000008000&dy_q=1730459165&l=20241101190536042B4BA35B800A864643&format=mp3",
        "source_timerange": {
            "start_offset": 0,
            "end_offset": 4.209999999999994
        },
        "target_timerange": {
            "start_offset": 108.42,
            "end_offset": 112.63
        },
        "ignore_audio": false,
        "audio_path": null
    },
    {
        "segment_id": "4ad0808a984111efb1324b3fcf70ea3f",
        "text": "保护团队的安全同样重要",
        "audio_url": "https://v6-vvecloud.yangyi08.com/2fc21a6d23ec1e559378cecbcb569af3/6724c42d/video/tos/cn/tos-cn-v-2cd6b0/os5zIZaSAwfjFInDOAIB5jLeEEBJGWebCcA2GA/?a=7073&ch=0&cr=0&dr=0&&br=0&bt=0&ft=xztlUQhhe6BMyqMPUupJD12Nzj&mime_type=audio_mpeg&rc=QGlAYSNz&btag=c0000000008000&dy_q=1730459165&l=20241101190536042B4BA35B800A864643&format=mp3",
        "source_timerange": {
            "start_offset": 0,
            "end_offset": 2.700000000000003
        },
        "target_timerange": {
            "start_offset": 112.63,
            "end_offset": 115.33
        },
        "ignore_audio": false,
        "audio_path": null
    },
    {
        "segment_id": "4ad0a952984111efb1324b3fcf70ea3f",
        "text": "好的！咱们就借着这顿酒饭 缔结协约",
        "audio_url": "https://v9-vvecloud.yangyi08.com/ce043c36bf8563fa962e16a32b9d2c74/6724c42d/video/tos/cn/tos-cn-v-2cd6b0/o0fcAhhALnpTEgExtemFYiODBRAZJERkYtDCAA/?a=7073&ch=0&cr=0&dr=0&&br=0&bt=0&ft=xztlUQhhe6BMyqMPUupJD12Nzj&mime_type=audio_mpeg&rc=QGlAYSNz&btag=c0000000008000&dy_q=1730459165&l=20241101190536042B4BA35B800A864643&format=mp3",
        "source_timerange": {
            "start_offset": 0,
            "end_offset": 3.644999999999996
        },
        "target_timerange": {
            "start_offset": 115.33,
            "end_offset": 118.975
        },
        "ignore_audio": false,
        "audio_path": null
    },
    {
        "segment_id": "4ad0ada8984111efb1324b3fcf70ea3f",
        "text": "四人举杯 简单的仪式让我们更加团结",
        "audio_url": "https://v9-vvecloud.yangyi08.com/ce043c36bf8563fa962e16a32b9d2c74/6724c42d/video/tos/cn/tos-cn-v-2cd6b0/o0fcAhhALnpTEgExtemFYiODBRAZJERkYtDCAA/?a=7073&ch=0&cr=0&dr=0&&br=0&bt=0&ft=xztlUQhhe6BMyqMPUupJD12Nzj&mime_type=audio_mpeg&rc=QGlAYSNz&btag=c0000000008000&dy_q=1730459165&l=20241101190536042B4BA35B800A864643&format=mp3",
        "source_timerange": {
            "start_offset": 3.644999999999996,
            "end_offset": 6.950000000000003
        },
        "target_timerange": {
            "start_offset": 118.975,
            "end_offset": 122.28
        },
        "ignore_audio": true,
        "audio_path": null
    },
    {
        "segment_id": "4ad0af74984111efb1324b3fcf70ea3f",
        "text": "酒过三巡 我们都喝得有点晕",
        "audio_url": "https://v26-vvecloud.yangyi08.com/bfc542cde6d22b92e7f30c6937e27837/6724c42d/video/tos/cn/tos-cn-v-2cd6b0/oQLnBk1AEchFIAtC1gWEJHzARYeBDAAiifzESD/?a=7073&ch=0&cr=0&dr=0&&br=0&bt=0&ft=xztlUQhhe6BMyqMPUupJD12Nzj&mime_type=audio_mpeg&rc=QGlAYSNz&btag=c0000000008000&dy_q=1730459165&l=20241101190536042B4BA35B800A864643&format=mp3",
        "source_timerange": {
            "start_offset": 0,
            "end_offset": 3.0999999999999943
        },
        "target_timerange": {
            "start_offset": 122.28,
            "end_offset": 125.38
        },
        "ignore_audio": false,
        "audio_path": null
    },
    {
        "segment_id": "4ad0d134984111efb1324b3fcf70ea3f",
        "text": "正当我沉浸在这个新团队的喜悦中时",
        "audio_url": "https://v3-vvecloud.yangyi08.com/7442a3922f785eee8eff393bd77c4102/6724c430/video/tos/cn/tos-cn-v-2cd6b0/oUZkPAAwhEIyKBQky9iA2iAAEktqoH5wST0uA/?a=7073&ch=0&cr=0&dr=0&&br=62&bt=62&ds=5&ft=xztlUQhhe6BMyqMPUupJD12Nzj&mime_type=audio_mpeg&qs=13&rc=M2pqZG45cjpldjMzNDdkM0BpM2pqZG45cjpldjMzNDdkM0BrLmgyMmQ0YGZgLS1kLzBzYSNrLmgyMmQ0YGZgLS1kLzBzcw%3D%3D&btag=c0000000008000&dy_q=1730459165&l=20241101190536042B4BA35B800A864643&format=mp3",
        "source_timerange": {
            "start_offset": 0,
            "end_offset": 3.349000000000018
        },
        "target_timerange": {
            "start_offset": 125.38,
            "end_offset": 128.729
        },
        "ignore_audio": false,
        "audio_path": null
    },
    {
        "segment_id": "4ad0d314984111efb1324b3fcf70ea3f",
        "text": "守车的保镖突然跑了过来 神色慌张：东哥",
        "audio_url": "https://v9-vvecloud.yangyi08.com/ff91f7bf51805800923d595add94d6a5/6724c42d/video/tos/cn/tos-cn-v-2cd6b0/oktAuBZyQIAHhiDAai2pAsbE1kkAPoSxwwURE/?a=7073&ch=0&cr=0&dr=0&&br=0&bt=0&ft=xztlUQhhe6BMyqMPUupJD12Nzj&mime_type=audio_mpeg&rc=QGlAYSNz&btag=c0000000008000&dy_q=1730459165&l=20241101190536042B4BA35B800A864643&format=mp3",
        "source_timerange": {
            "start_offset": 0,
            "end_offset": 4.570999999999998
        },
        "target_timerange": {
            "start_offset": 128.729,
            "end_offset": 133.3
        },
        "ignore_audio": false,
        "audio_path": null
    },
    {
        "segment_id": "4ad0d4cc984111efb1324b3fcf70ea3f",
        "text": "不好了 小姐那边出事了！“出什么事了？”",
        "audio_url": "https://v6-vvecloud.yangyi08.com/2c049badc5e243ecd07de2be0dd5c27a/6724c42d/video/tos/cn/tos-cn-v-2cd6b0/oMzwLAhQZk1OtIqBAHowizAEAABiPyckF2wSE/?a=7073&ch=0&cr=0&dr=0&&br=0&bt=0&ft=xztlUQhhe6BMyqMPUupJD12Nzj&mime_type=audio_mpeg&rc=QGlAYSNz&btag=c0000000008000&dy_q=1730459165&l=20241101190536042B4BA35B800A864643&format=mp3",
        "source_timerange": {
            "start_offset": 0,
            "end_offset": 3.8549999999999898
        },
        "target_timerange": {
            "start_offset": 133.3,
            "end_offset": 137.155
        },
        "ignore_audio": false,
        "audio_path": null
    },
    {
        "segment_id": "4ad0d698984111efb1324b3fcf70ea3f",
        "text": "我惊得站了起来 心中隐隐感觉到不安",
        "audio_url": "https://v6-vvecloud.yangyi08.com/2c049badc5e243ecd07de2be0dd5c27a/6724c42d/video/tos/cn/tos-cn-v-2cd6b0/oMzwLAhQZk1OtIqBAHowizAEAABiPyckF2wSE/?a=7073&ch=0&cr=0&dr=0&&br=0&bt=0&ft=xztlUQhhe6BMyqMPUupJD12Nzj&mime_type=audio_mpeg&rc=QGlAYSNz&btag=c0000000008000&dy_q=1730459165&l=20241101190536042B4BA35B800A864643&format=mp3",
        "source_timerange": {
            "start_offset": 3.8549999999999898,
            "end_offset": 6.949999999999989
        },
        "target_timerange": {
            "start_offset": 137.155,
            "end_offset": 140.25
        },
        "ignore_audio": true,
        "audio_path": null
    },
    {
        "segment_id": "4ad0d918984111efb1324b3fcf70ea3f",
        "text": "呃~具体什么事还不清楚",
        "audio_url": "https://v6-vvecloud.yangyi08.com/29d09050601f8889109066751f86984a/6724c42d/video/tos/cn/tos-cn-v-2cd6b0/oMiYXcEgDXCF1ELtAwRmfJfPAYDoABAEYAhnck/?a=7073&ch=0&cr=0&dr=0&&br=0&bt=0&ft=xztlUQhhe6BMyqMPUupJD12Nzj&mime_type=audio_mpeg&rc=QGlAYSNz&btag=c0000000008000&dy_q=1730459165&l=20241101190536042B4BA35B800A864643&format=mp3",
        "source_timerange": {
            "start_offset": 0,
            "end_offset": 2.4799999999999898
        },
        "target_timerange": {
            "start_offset": 140.25,
            "end_offset": 142.73
        },
        "ignore_audio": false,
        "audio_path": null
    },
    {
        "segment_id": "4ad0db48984111efb1324b3fcf70ea3f",
        "text": "刚才有一位代少的朋友火急火燎的赶过来",
        "audio_url": "https://v9-vvecloud.yangyi08.com/b66d0a9a9ea95d682fa28f95183449b2/6724c42d/video/tos/cn/tos-cn-v-2cd6b0/oUBYIDEDAofAV6jAbnLJiJwIDAFfyRCJEcBsMg/?a=7073&ch=0&cr=0&dr=0&&br=0&bt=0&ft=xztlUQhhe6BMyqMPUupJD12Nzj&mime_type=audio_mpeg&rc=QGlAYSNz&btag=c0000000008000&dy_q=1730459165&l=20241101190536042B4BA35B800A864643&format=mp3",
        "source_timerange": {
            "start_offset": 0,
            "end_offset": 3.670000000000016
        },
        "target_timerange": {
            "start_offset": 142.73,
            "end_offset": 146.4
        },
        "ignore_audio": false,
        "audio_path": null
    },
    {
        "segment_id": "4ad0ddaa984111efb1324b3fcf70ea3f",
        "text": "说小姐在后海酒吧被人欺负了…",
        "audio_url": "https://v26-vvecloud.yangyi08.com/882c9ab89215ac1d83a7be90b602249e/6724c42e/video/tos/cn/tos-cn-v-2cd6b0/okAoyBAAVtiAqEydkzwPHAGJZkEPnI2hStiQa/?a=7073&ch=0&cr=0&dr=0&&br=0&bt=0&ft=xztlUQhhe6BMyqfPUupJD12Nzj&mime_type=audio_mpeg&rc=QGlAYSNz&btag=c0000000008000&dy_q=1730459166&l=20241101190536042B4BA35B800A864643&format=mp3",
        "source_timerange": {
            "start_offset": 0,
            "end_offset": 2.694999999999993
        },
        "target_timerange": {
            "start_offset": 146.4,
            "end_offset": 149.095
        },
        "ignore_audio": false,
        "audio_path": null
    },
    {
        "segment_id": "4ad0e052984111efb1324b3fcf70ea3f",
        "text": "保镖的话让我心中一沉",
        "audio_url": "https://v26-vvecloud.yangyi08.com/882c9ab89215ac1d83a7be90b602249e/6724c42e/video/tos/cn/tos-cn-v-2cd6b0/okAoyBAAVtiAqEydkzwPHAGJZkEPnI2hStiQa/?a=7073&ch=0&cr=0&dr=0&&br=0&bt=0&ft=xztlUQhhe6BMyqfPUupJD12Nzj&mime_type=audio_mpeg&rc=QGlAYSNz&btag=c0000000008000&dy_q=1730459166&l=20241101190536042B4BA35B800A864643&format=mp3",
        "source_timerange": {
            "start_offset": 2.694999999999993,
            "end_offset": 4.639999999999986
        },
        "target_timerange": {
            "start_offset": 149.095,
            "end_offset": 151.04
        },
        "ignore_audio": true,
        "audio_path": null
    },
    {
        "segment_id": "4ad0e2f0984111efb1324b3fcf70ea3f",
        "text": "秦霜被欺负了 我必须马上去救她",
        "audio_url": "https://v26-vvecloud.yangyi08.com/fe826e73b80c0b3b11827e9b08806aba/6724c42d/video/tos/cn/tos-cn-v-2cd6b0/oweYJh5FBACIAUAceaGhGOIDSIAwibjfWLQEBU/?a=7073&ch=0&cr=0&dr=0&&br=0&bt=0&ft=xztlUQhhe6BMyqMPUupJD12Nzj&mime_type=audio_mpeg&rc=QGlAYSNz&btag=c0000000008000&dy_q=1730459165&l=20241101190536042B4BA35B800A864643&format=mp3",
        "source_timerange": {
            "start_offset": 0,
            "end_offset": 3.420000000000016
        },
        "target_timerange": {
            "start_offset": 151.04,
            "end_offset": 154.46
        },
        "ignore_audio": false,
        "audio_path": null
    },
    {
        "segment_id": "4ad0e5ca984111efb1324b3fcf70ea3f",
        "text": "那还愣着干什么啊！咱们快点赶过去！",
        "audio_url": "https://v3-vvecloud.yangyi08.com/53e060409f6bac7f31ffdb31b5936c02/6724c42d/video/tos/cn/tos-cn-v-2cd6b0/owZAozyASPBVihEEA2kHWw6Dk2tEAPiIpQHHA/?a=7073&ch=0&cr=0&dr=0&&br=0&bt=0&ft=xztlUQhhe6BMyqMPUupJD12Nzj&mime_type=audio_mpeg&rc=QGlAYSNz&btag=c0000000008000&dy_q=1730459165&l=20241101190536042B4BA35B800A864643&format=mp3",
        "source_timerange": {
            "start_offset": 0,
            "end_offset": 3.3349999999999795
        },
        "target_timerange": {
            "start_offset": 154.46,
            "end_offset": 157.795
        },
        "ignore_audio": false,
        "audio_path": null
    },
    {
        "segment_id": "4ad0e7f0984111efb1324b3fcf70ea3f",
        "text": "我心急如焚 带着阿东和保镖赶往后海酒吧",
        "audio_url": "https://v3-vvecloud.yangyi08.com/53e060409f6bac7f31ffdb31b5936c02/6724c42d/video/tos/cn/tos-cn-v-2cd6b0/owZAozyASPBVihEEA2kHWw6Dk2tEAPiIpQHHA/?a=7073&ch=0&cr=0&dr=0&&br=0&bt=0&ft=xztlUQhhe6BMyqMPUupJD12Nzj&mime_type=audio_mpeg&rc=QGlAYSNz&btag=c0000000008000&dy_q=1730459165&l=20241101190536042B4BA35B800A864643&format=mp3",
        "source_timerange": {
            "start_offset": 3.3349999999999795,
            "end_offset": 7.019999999999982
        },
        "target_timerange": {
            "start_offset": 157.795,
            "end_offset": 161.48
        },
        "ignore_audio": true,
        "audio_path": null
    },
    {
        "segment_id": "4ad0e99e984111efb1324b3fcf70ea3f",
        "text": "我的心中充满了愤怒与心痛",
        "audio_url": "https://v6-vvecloud.yangyi08.com/4e212de12ccad4b594fa45c905aeb050/6724c42d/video/tos/cn/tos-cn-v-2cd6b0/oEsAEIHc7iFJtAkQNSZxPyh2AykAoi7E7WwBA/?a=7073&ch=0&cr=0&dr=0&&br=0&bt=0&ft=xztlUQhhe6BMyqMPUupJD12Nzj&mime_type=audio_mpeg&rc=QGlAYSNz&btag=c0000000008000&dy_q=1730459165&l=20241101190536042B4BA35B800A864643&format=mp3",
        "source_timerange": {
            "start_offset": 0,
            "end_offset": 2.920000000000016
        },
        "target_timerange": {
            "start_offset": 161.48,
            "end_offset": 164.4
        },
        "ignore_audio": false,
        "audio_path": null
    },
    {
        "segment_id": "4ad0eb56984111efb1324b3fcf70ea3f",
        "text": "绝不能让任何人伤害到她",
        "audio_url": "https://v3-vvecloud.yangyi08.com/cc3e7db7df724008dcf01dda3e8ba80e/6724c42d/video/tos/cn/tos-cn-v-2cd6b0/o8AxZPDAEiyowIAtoShOAk1QBAHkYs2wJFEBi/?a=7073&ch=0&cr=0&dr=0&&br=0&bt=0&ft=xztlUQhhe6BMyqMPUupJD12Nzj&mime_type=audio_mpeg&rc=QGlAYSNz&btag=c0000000008000&dy_q=1730459165&l=20241101190536042B4BA35B800A864643&format=mp3",
        "source_timerange": {
            "start_offset": 0,
            "end_offset": 2.8400000000000034
        },
        "target_timerange": {
            "start_offset": 164.4,
            "end_offset": 167.24
        },
        "ignore_audio": false,
        "audio_path": null
    },
    {
        "segment_id": "4ad0ed04984111efb1324b3fcf70ea3f",
        "text": "高档区域 那是属于权贵与富商的世界",
        "audio_url": "https://v6-vvecloud.yangyi08.com/2911acdd4546ebfc163ba9e1f16303d5/6724c42d/video/tos/cn/tos-cn-v-2cd6b0/oMcoIAQiZPykAB1jAH2h3AEik4yAEwSxotio2/?a=7073&ch=0&cr=0&dr=0&&br=0&bt=0&ft=xztlUQhhe6BMyqMPUupJD12Nzj&mime_type=audio_mpeg&rc=QGlAYSNz&btag=c0000000008000&dy_q=1730459165&l=20241101190536042B4BA35B800A864643&format=mp3",
        "source_timerange": {
            "start_offset": 0,
            "end_offset": 3.9199999999999875
        },
        "target_timerange": {
            "start_offset": 167.24,
            "end_offset": 171.16
        },
        "ignore_audio": false,
        "audio_path": null
    },
    {
        "segment_id": "4ad0eea8984111efb1324b3fcf70ea3f",
        "text": "坐在那里的我 透过脚下的可视玻璃",
        "audio_url": "https://v9-vvecloud.yangyi08.com/57e40364bac6033ed8818a57866a6ff7/6724c42d/video/tos/cn/tos-cn-v-2cd6b0/ogZgotYSkBHYIyAEpAPwktDh1i2AyiABA8QEr/?a=7073&ch=0&cr=0&dr=0&&br=0&bt=0&ft=xztlUQhhe6BMyqMPUupJD12Nzj&mime_type=audio_mpeg&rc=QGlAYSNz&btag=c0000000008000&dy_q=1730459165&l=20241101190536042B4BA35B800A864643&format=mp3",
        "source_timerange": {
            "start_offset": 0,
            "end_offset": 3.3100000000000023
        },
        "target_timerange": {
            "start_offset": 171.16,
            "end_offset": 174.47
        },
        "ignore_audio": false,
        "audio_path": null
    },
    {
        "segment_id": "4ad0f04c984111efb1324b3fcf70ea3f",
        "text": "看到形形色色的男女在底下肆意狂欢",
        "audio_url": "https://v9-vvecloud.yangyi08.com/e0ae549066ef066fc9caa460031b770c/6724c42e/video/tos/cn/tos-cn-v-2cd6b0/ooZgoETSkwHKIyAEMAPwkthhji2AxiABAyQEk/?a=7073&ch=0&cr=0&dr=0&&br=0&bt=0&ft=xztlUQhhe6BMyqfPUupJD12Nzj&mime_type=audio_mpeg&rc=QGlAYSNz&btag=c0000000008000&dy_q=1730459166&l=20241101190536042B4BA35B800A864643&format=mp3",
        "source_timerange": {
            "start_offset": 0,
            "end_offset": 3.490000000000009
        },
        "target_timerange": {
            "start_offset": 174.47,
            "end_offset": 177.96
        },
        "ignore_audio": false,
        "audio_path": null
    },
    {
        "segment_id": "4ad0f1f0984111efb1324b3fcf70ea3f",
        "text": "那种喧嚣与奢华让我感到无比刺眼",
        "audio_url": "https://v3-vvecloud.yangyi08.com/8adbcd48d9741d8151afc945dad0f634/6724c42d/video/tos/cn/tos-cn-v-2cd6b0/osVNEhDRAiwLbADfAAgF1JhbEftEncEBBAY4kC/?a=7073&ch=0&cr=0&dr=0&&br=0&bt=0&ft=xztlUQhhe6BMyqMPUupJD12Nzj&mime_type=audio_mpeg&rc=QGlAYSNz&btag=c0000000008000&dy_q=1730459165&l=20241101190536042B4BA35B800A864643&format=mp3",
        "source_timerange": {
            "start_offset": 0,
            "end_offset": 3.1699999999999875
        },
        "target_timerange": {
            "start_offset": 177.96,
            "end_offset": 181.13
        },
        "ignore_audio": false,
        "audio_path": null
    },
    {
        "segment_id": "4ad0f3d0984111efb1324b3fcf70ea3f",
        "text": "而此刻我的心中却只有一团焦虑",
        "audio_url": "https://v9-vvecloud.yangyi08.com/62d58d9355ada2496307713b7caa37a8/6724c42d/video/tos/cn/tos-cn-v-2cd6b0/oAAESt5hEuziDoJBekyDfAKRYcCFAALgAJ5nEH/?a=7073&ch=0&cr=0&dr=0&&br=0&bt=0&ft=xztlUQhhe6BMyqMPUupJD12Nzj&mime_type=audio_mpeg&rc=QGlAYSNz&btag=c0000000008000&dy_q=1730459165&l=20241101190536042B4BA35B800A864643&format=mp3",
        "source_timerange": {
            "start_offset": 0,
            "end_offset": 3.0999999999999943
        },
        "target_timerange": {
            "start_offset": 181.13,
            "end_offset": 184.23
        },
        "ignore_audio": false,
        "audio_path": null
    },
    {
        "segment_id": "4ad0f56a984111efb1324b3fcf70ea3f",
        "text": "我给秦霜打了三个电话",
        "audio_url": "https://v9-vvecloud.yangyi08.com/3382daddc98c8706901ef5fb672ebcb3/6724c42d/video/tos/cn/tos-cn-v-2cd6b0/occSAnkQEwHtAiyBAIlkhAoiAhZyOzE2xhPAo/?a=7073&ch=0&cr=0&dr=0&&br=0&bt=0&ft=xztlUQhhe6BMyqMPUupJD12Nzj&mime_type=audio_mpeg&rc=QGlAYSNz&btag=c0000000008000&dy_q=1730459165&l=20241101190536042B4BA35B800A864643&format=mp3",
        "source_timerange": {
            "start_offset": 0,
            "end_offset": 2.450000000000017
        },
        "target_timerange": {
            "start_offset": 184.23,
            "end_offset": 186.68
        },
        "ignore_audio": false,
        "audio_path": null
    },
    {
        "segment_id": "4ad0f722984111efb1324b3fcf70ea3f",
        "text": "一个接一个 却始终无人接听",
        "audio_url": "https://v6-vvecloud.yangyi08.com/b6a9f162ae022fb4935c6fb6d9216427/6724c42d/video/tos/cn/tos-cn-v-2cd6b0/oYtLnAEiYADmg9CcEwAiBDFkhDFhRJKE5AaffA/?a=7073&ch=0&cr=0&dr=0&&br=0&bt=0&ft=xztlUQhhe6BMyqMPUupJD12Nzj&mime_type=audio_mpeg&rc=QGlAYSNz&btag=c0000000008000&dy_q=1730459165&l=20241101190536042B4BA35B800A864643&format=mp3",
        "source_timerange": {
            "start_offset": 0,
            "end_offset": 3.280000000000001
        },
        "target_timerange": {
            "start_offset": 186.68,
            "end_offset": 189.96
        },
        "ignore_audio": false,
        "audio_path": null
    },
    {
        "segment_id": "4ad0f8d0984111efb1324b3fcf70ea3f",
        "text": "这种无助感让我更加不安",
        "audio_url": "https://v26-vvecloud.yangyi08.com/2d1978a9bc84e9be11ff18baca121352/6724c42e/video/tos/cn/tos-cn-v-2cd6b0/oM9TIAQiZPzkABUYAH2hyAEJkyyAEwScotia6/?a=7073&ch=0&cr=0&dr=0&&br=0&bt=0&ft=xztlUQhhe6BMyqfPUupJD12Nzj&mime_type=audio_mpeg&rc=QGlAYSNz&btag=c0000000008000&dy_q=1730459166&l=20241101190536042B4BA35B800A864643&format=mp3",
        "source_timerange": {
            "start_offset": 0,
            "end_offset": 2.4499999999999886
        },
        "target_timerange": {
            "start_offset": 189.96,
            "end_offset": 192.41
        },
        "ignore_audio": false,
        "audio_path": null
    },
    {
        "segment_id": "4ad0fa6a984111efb1324b3fcf70ea3f",
        "text": "心中暗暗想：她到底发生了什么事？",
        "audio_url": "https://v26-vvecloud.yangyi08.com/ac2cc7a46d022ea5aad607f937e6c613/6724c42e/video/tos/cn/tos-cn-v-2cd6b0/o82Hyw7AkEDIiBooAAQdAEVkQIPAZv2h7xitS/?a=7073&ch=0&cr=0&dr=0&&br=0&bt=0&ft=xztlUQhhe6BMyqfPUupJD12Nzj&mime_type=audio_mpeg&rc=QGlAYSNz&btag=c0000000008000&dy_q=1730459166&l=20241101190536042B4BA35B800A864643&format=mp3",
        "source_timerange": {
            "start_offset": 0,
            "end_offset": 3.3499999999999943
        },
        "target_timerange": {
            "start_offset": 192.41,
            "end_offset": 195.76
        },
        "ignore_audio": false,
        "audio_path": null
    },
    {
        "segment_id": "4ad0fc2c984111efb1324b3fcf70ea3f",
        "text": "我不能再等下去了 必须赶往后海酒吧",
        "audio_url": "https://v9-vvecloud.yangyi08.com/efcd27613ad234460227f9c0fd2ab3bd/6724c42e/video/tos/cn/tos-cn-v-2cd6b0/ooAAHYnhAtR1EcfiFLCAJEEDkgzDJAEBjwfjhp/?a=7073&ch=0&cr=0&dr=0&&br=0&bt=0&ft=xztlUQhhe6BMyqfPUupJD12Nzj&mime_type=audio_mpeg&rc=QGlAYSNz&btag=c0000000008000&dy_q=1730459166&l=20241101190536042B4BA35B800A864643&format=mp3",
        "source_timerange": {
            "start_offset": 0,
            "end_offset": 3.490000000000009
        },
        "target_timerange": {
            "start_offset": 195.76,
            "end_offset": 199.25
        },
        "ignore_audio": false,
        "audio_path": null
    },
    {
        "segment_id": "4ad0fdd0984111efb1324b3fcf70ea3f",
        "text": "“快！”",
        "audio_url": "https://v9-vvecloud.yangyi08.com/f6b35aa6f7d447abb3f978ca3ace39f4/6724c42e/video/tos/cn/tos-cn-v-2cd6b0/oIEUxRBnOJktYFuoqxADhgAiDCAfCcEA7EAfEL/?a=7073&ch=0&cr=0&dr=0&&br=0&bt=0&ft=xztlUQhhe6BMyqfPUupJD12Nzj&mime_type=audio_mpeg&rc=QGlAYSNz&btag=c0000000008000&dy_q=1730459166&l=20241101190536042B4BA35B800A864643&format=mp3",
        "source_timerange": {
            "start_offset": 0,
            "end_offset": 1.0349999999999966
        },
        "target_timerange": {
            "start_offset": 199.25,
            "end_offset": 200.285
        },
        "ignore_audio": false,
        "audio_path": null
    },
    {
        "segment_id": "4ad0ffe2984111efb1324b3fcf70ea3f",
        "text": "我急促地对阿东说道 心中充满了愤怒与焦虑",
        "audio_url": "https://v9-vvecloud.yangyi08.com/f6b35aa6f7d447abb3f978ca3ace39f4/6724c42e/video/tos/cn/tos-cn-v-2cd6b0/oIEUxRBnOJktYFuoqxADhgAiDCAfCcEA7EAfEL/?a=7073&ch=0&cr=0&dr=0&&br=0&bt=0&ft=xztlUQhhe6BMyqfPUupJD12Nzj&mime_type=audio_mpeg&rc=QGlAYSNz&btag=c0000000008000&dy_q=1730459166&l=20241101190536042B4BA35B800A864643&format=mp3",
        "source_timerange": {
            "start_offset": 1.0349999999999966,
            "end_offset": 4.680000000000007
        },
        "target_timerange": {
            "start_offset": 200.285,
            "end_offset": 203.93
        },
        "ignore_audio": true,
        "audio_path": null
    },
    {
        "segment_id": "4ad1017c984111efb1324b3fcf70ea3f",
        "text": "谁要是敢欺负了小姐 我便要他付出血的代价",
        "audio_url": "https://v3-vvecloud.yangyi08.com/56a729b54026cc1ca16ced0ebf670b97/6724c42e/video/tos/cn/tos-cn-v-2cd6b0/oIfEk2OBgAAiAxQHzLBshzEhkEAsbtIGliVRAT/?a=7073&ch=0&cr=0&dr=0&&br=0&bt=0&ft=xztlUQhhe6BMyqfPUupJD12Nzj&mime_type=audio_mpeg&rc=QGlAYSNz&btag=c0000000008000&dy_q=1730459166&l=20241101190536042B4BA35B800A864643&format=mp3",
        "source_timerange": {
            "start_offset": 0,
            "end_offset": 3.634999999999991
        },
        "target_timerange": {
            "start_offset": 203.93,
            "end_offset": 207.565
        },
        "ignore_audio": false,
        "audio_path": null
    },
    {
        "segment_id": "4ad1032a984111efb1324b3fcf70ea3f",
        "text": "阿东冷酷地回应",
        "audio_url": "https://v3-vvecloud.yangyi08.com/56a729b54026cc1ca16ced0ebf670b97/6724c42e/video/tos/cn/tos-cn-v-2cd6b0/oIfEk2OBgAAiAxQHzLBshzEhkEAsbtIGliVRAT/?a=7073&ch=0&cr=0&dr=0&&br=0&bt=0&ft=xztlUQhhe6BMyqfPUupJD12Nzj&mime_type=audio_mpeg&rc=QGlAYSNz&btag=c0000000008000&dy_q=1730459166&l=20241101190536042B4BA35B800A864643&format=mp3",
        "source_timerange": {
            "start_offset": 3.634999999999991,
            "end_offset": 4.900000000000006
        },
        "target_timerange": {
            "start_offset": 207.565,
            "end_offset": 208.83
        },
        "ignore_audio": true,
        "audio_path": null
    },
    {
        "segment_id": "4ad10500984111efb1324b3fcf70ea3f",
        "text": "身上散发出的杀气让我感到一丝安心",
        "audio_url": "https://v3-vvecloud.yangyi08.com/893fd2e21282b3649c333135a1cb3a9d/6724c42e/video/tos/cn/tos-cn-v-2cd6b0/o4B5Ai0AsEtkOiZRdh2fAAFhAZACAIQgkzElBg/?a=7073&ch=0&cr=0&dr=0&&br=0&bt=0&ft=xztlUQhhe6BMyqfPUupJD12Nzj&mime_type=audio_mpeg&rc=QGlAYSNz&btag=c0000000008000&dy_q=1730459166&l=20241101190536042B4BA35B800A864643&format=mp3",
        "source_timerange": {
            "start_offset": 0,
            "end_offset": 3.3799999999999955
        },
        "target_timerange": {
            "start_offset": 208.83,
            "end_offset": 212.21
        },
        "ignore_audio": false,
        "audio_path": null
    },
    {
        "segment_id": "4ad106c2984111efb1324b3fcf70ea3f",
        "text": "终于 我们赶到了后海酒吧",
        "audio_url": "https://v6-vvecloud.yangyi08.com/038a6d1065809379b72ae5f54948e07f/6724c42e/video/tos/cn/tos-cn-v-2cd6b0/osMdYnAIEE2e3PAALtnikDhBJE1VDXAfgCLFAR/?a=7073&ch=0&cr=0&dr=0&&br=0&bt=0&ft=xztlUQhhe6BMyqfPUupJD12Nzj&mime_type=audio_mpeg&rc=QGlAYSNz&btag=c0000000008000&dy_q=1730459166&l=20241101190536042B4BA35B800A864643&format=mp3",
        "source_timerange": {
            "start_offset": 0,
            "end_offset": 2.9499999999999886
        },
        "target_timerange": {
            "start_offset": 212.21,
            "end_offset": 215.16
        },
        "ignore_audio": false,
        "audio_path": null
    },
    {
        "segment_id": "4ad10906984111efb1324b3fcf70ea3f",
        "text": "门口早有一个狼狈的身影在等着我们",
        "audio_url": "https://v3-vvecloud.yangyi08.com/783894d05f2070e998805402a540f2a8/6724c42e/video/tos/cn/tos-cn-v-2cd6b0/oIrL1ECrEnjGAwA71eofkEWmOhAtfG3vSAIAFB/?a=7073&ch=0&cr=0&dr=0&&br=0&bt=0&ft=xztlUQhhe6BMyqfPUupJD12Nzj&mime_type=audio_mpeg&rc=QGlAYSNz&btag=c0000000008000&dy_q=1730459166&l=20241101190536042B4BA35B800A864643&format=mp3",
        "source_timerange": {
            "start_offset": 0,
            "end_offset": 3.0999999999999943
        },
        "target_timerange": {
            "start_offset": 215.16,
            "end_offset": 218.26
        },
        "ignore_audio": false,
        "audio_path": null
    },
    {
        "segment_id": "4ad10b7c984111efb1324b3fcf70ea3f",
        "text": "他见我们来了 急忙迎上来：你们总算来了",
        "audio_url": "https://v26-vvecloud.yangyi08.com/c126ac87f416bf3c904f105e3ddf8067/6724c42e/video/tos/cn/tos-cn-v-2cd6b0/osWYEDdfdDChtAA3ALF6ARnAAimgXB5JEnfEkE/?a=7073&ch=0&cr=0&dr=0&&br=0&bt=0&ft=xztlUQhhe6BMyqfPUupJD12Nzj&mime_type=audio_mpeg&rc=QGlAYSNz&btag=c0000000008000&dy_q=1730459166&l=20241101190536042B4BA35B800A864643&format=mp3",
        "source_timerange": {
            "start_offset": 0,
            "end_offset": 4.140000000000015
        },
        "target_timerange": {
            "start_offset": 218.26,
            "end_offset": 222.4
        },
        "ignore_audio": false,
        "audio_path": null
    },
    {
        "segment_id": "4ad10de8984111efb1324b3fcf70ea3f",
        "text": "秦小姐被他们带到天字帝望天下包间去了！“走！”",
        "audio_url": "https://v9-vvecloud.yangyi08.com/a50ad5d6b864faf0c0ba2dc7c9b75c1b/6724c42e/video/tos/cn/tos-cn-v-2cd6b0/ooCAAhPk16nEfBFAoADLLEdJDJtREYFgAa4iCe/?a=7073&ch=0&cr=0&dr=0&&br=0&bt=0&ft=xztlUQhhe6BMyqfPUupJD12Nzj&mime_type=audio_mpeg&rc=QGlAYSNz&btag=c0000000008000&dy_q=1730459166&l=20241101190536042B4BA35B800A864643&format=mp3",
        "source_timerange": {
            "start_offset": 0,
            "end_offset": 4.2949999999999875
        },
        "target_timerange": {
            "start_offset": 222.4,
            "end_offset": 226.695
        },
        "ignore_audio": false,
        "audio_path": null
    },
    {
        "segment_id": "4ad11054984111efb1324b3fcf70ea3f",
        "text": "我毫不犹豫 带着阿东急匆匆穿过狂热的人群",
        "audio_url": "https://v9-vvecloud.yangyi08.com/a50ad5d6b864faf0c0ba2dc7c9b75c1b/6724c42e/video/tos/cn/tos-cn-v-2cd6b0/ooCAAhPk16nEfBFAoADLLEdJDJtREYFgAa4iCe/?a=7073&ch=0&cr=0&dr=0&&br=0&bt=0&ft=xztlUQhhe6BMyqfPUupJD12Nzj&mime_type=audio_mpeg&rc=QGlAYSNz&btag=c0000000008000&dy_q=1730459166&l=20241101190536042B4BA35B800A864643&format=mp3",
        "source_timerange": {
            "start_offset": 4.2949999999999875,
            "end_offset": 8.169999999999987
        },
        "target_timerange": {
            "start_offset": 226.695,
            "end_offset": 230.57
        },
        "ignore_audio": true,
        "audio_path": null
    },
    {
        "segment_id": "4ad113ce984111efb1324b3fcf70ea3f",
        "text": "震耳的音乐声与我内心的愤怒交织在一起",
        "audio_url": "https://v9-vvecloud.yangyi08.com/bbabd14e44b18d9f78c9076092d4df4c/6724c42e/video/tos/cn/tos-cn-v-2cd6b0/oQhBxAXAiAJAEhiQz05BHtlfLs0IAORkkEgMaB/?a=7073&ch=0&cr=0&dr=0&&br=0&bt=0&ft=xztlUQhhe6BMyqfPUupJD12Nzj&mime_type=audio_mpeg&rc=QGlAYSNz&btag=c0000000008000&dy_q=1730459166&l=20241101190536042B4BA35B800A864643&format=mp3",
        "source_timerange": {
            "start_offset": 0,
            "end_offset": 3.530000000000001
        },
        "target_timerange": {
            "start_offset": 230.57,
            "end_offset": 234.1
        },
        "ignore_audio": false,
        "audio_path": null
    },
    {
        "segment_id": "4ad11694984111efb1324b3fcf70ea3f",
        "text": "让我更加火冒三丈",
        "audio_url": "https://v26-vvecloud.yangyi08.com/4729460daed9e57fd682356227d483d5/6724c42e/video/tos/cn/tos-cn-v-2cd6b0/o8hZkF2IIEMcRtkgizlQisB0iOfABAhAAERkAt/?a=7073&ch=0&cr=0&dr=0&&br=0&bt=0&ft=xztlUQhhe6BMyqfPUupJD12Nzj&mime_type=audio_mpeg&rc=QGlAYSNz&btag=c0000000008000&dy_q=1730459166&l=20241101190536042B4BA35B800A864643&format=mp3",
        "source_timerange": {
            "start_offset": 0,
            "end_offset": 2.200000000000017
        },
        "target_timerange": {
            "start_offset": 234.1,
            "end_offset": 236.3
        },
        "ignore_audio": false,
        "audio_path": null
    },
    {
        "segment_id": "4ad1191e984111efb1324b3fcf70ea3f",
        "text": "“啪！”",
        "audio_url": "https://v26-vvecloud.yangyi08.com/abdc25e5fb19af9b71ab662d6853a920/6724c42e/video/tos/cn/tos-cn-v-2cd6b0/oIEkEABAjtWSF0MOeWAO8AsBQweE7QAAGfWhCD/?a=7073&ch=0&cr=0&dr=0&&br=0&bt=0&ft=xztlUQhhe6BMyqfPUupJD12Nzj&mime_type=audio_mpeg&rc=QGlAYSNz&btag=c0000000008000&dy_q=1730459166&l=20241101190536042B4BA35B800A864643&format=mp3",
        "source_timerange": {
            "start_offset": 0,
            "end_offset": 1.0049999999999955
        },
        "target_timerange": {
            "start_offset": 236.3,
            "end_offset": 237.305
        },
        "ignore_audio": false,
        "audio_path": null
    },
    {
        "segment_id": "4ad11b76984111efb1324b3fcf70ea3f",
        "text": "我来到包间门口 用手猛地一试 门便被打开了",
        "audio_url": "https://v26-vvecloud.yangyi08.com/abdc25e5fb19af9b71ab662d6853a920/6724c42e/video/tos/cn/tos-cn-v-2cd6b0/oIEkEABAjtWSF0MOeWAO8AsBQweE7QAAGfWhCD/?a=7073&ch=0&cr=0&dr=0&&br=0&bt=0&ft=xztlUQhhe6BMyqfPUupJD12Nzj&mime_type=audio_mpeg&rc=QGlAYSNz&btag=c0000000008000&dy_q=1730459166&l=20241101190536042B4BA35B800A864643&format=mp3",
        "source_timerange": {
            "start_offset": 1.0049999999999955,
            "end_offset": 5
        },
        "target_timerange": {
            "start_offset": 237.305,
            "end_offset": 241.3
        },
        "ignore_audio": true,
        "audio_path": null
    },
    {
        "segment_id": "4ad11dc4984111efb1324b3fcf70ea3f",
        "text": "可就在这时 我被人用力一推 踉跄着扑进了包间",
        "audio_url": "https://v3-vvecloud.yangyi08.com/cb12e5faf877d838ca32ca7c48ae9b51/6724c42e/video/tos/cn/tos-cn-v-2cd6b0/o0k58iAIhBzAkmRstQAiBuhREfOOn3giyuEAlA/?a=7073&ch=0&cr=0&dr=0&&br=0&bt=0&ft=xztlUQhhe6BMyqfPUupJD12Nzj&mime_type=audio_mpeg&rc=QGlAYSNz&btag=c0000000008000&dy_q=1730459166&l=20241101190536042B4BA35B800A864643&format=mp3",
        "source_timerange": {
            "start_offset": 0,
            "end_offset": 4.719999999999999
        },
        "target_timerange": {
            "start_offset": 241.3,
            "end_offset": 246.02
        },
        "ignore_audio": false,
        "audio_path": null
    },
    {
        "segment_id": "4ad11ff4984111efb1324b3fcf70ea3f",
        "text": "门“啪”的一声关上 从里面被反锁了",
        "audio_url": "https://v26-vvecloud.yangyi08.com/701330bd3cf617e94acb4fbd79591655/6724c42e/video/tos/cn/tos-cn-v-2cd6b0/ooEAkzMR7AlAlQI95gEBAiigstBUPkA1kfuOhh/?a=7073&ch=0&cr=0&dr=0&&br=0&bt=0&ft=xztlUQhhe6BMyqfPUupJD12Nzj&mime_type=audio_mpeg&rc=QGlAYSNz&btag=c0000000008000&dy_q=1730459166&l=20241101190536042B4BA35B800A864643&format=mp3",
        "source_timerange": {
            "start_offset": 0,
            "end_offset": 3.4899999999999807
        },
        "target_timerange": {
            "start_offset": 246.02,
            "end_offset": 249.51
        },
        "ignore_audio": false,
        "audio_path": null
    },
    {
        "segment_id": "4ad121ac984111efb1324b3fcf70ea3f",
        "text": "抬起头 我看到灯光暧昧的包间内",
        "audio_url": "https://v9-vvecloud.yangyi08.com/d1ad167773730d8a67aac80b6482483f/6724c42e/video/tos/cn/tos-cn-v-2cd6b0/okERajEkfAZ9AcD9BgfNFsCDAYEWhA0dALJnti/?a=7073&ch=0&cr=0&dr=0&&br=0&bt=0&ft=xztlUQhhe6BMyqfPUupJD12Nzj&mime_type=audio_mpeg&rc=QGlAYSNz&btag=c0000000008000&dy_q=1730459166&l=20241101190536042B4BA35B800A864643&format=mp3",
        "source_timerange": {
            "start_offset": 0,
            "end_offset": 3.420000000000016
        },
        "target_timerange": {
            "start_offset": 249.51,
            "end_offset": 252.93
        },
        "ignore_audio": false,
        "audio_path": null
    },
    {
        "segment_id": "4ad12364984111efb1324b3fcf70ea3f",
        "text": "一个黄毛青年正搂着两个性感暴露的女子",
        "audio_url": "https://v9-vvecloud.yangyi08.com/36ddbee59f7682d917f075a5642f5ac0/6724c42e/video/tos/cn/tos-cn-v-2cd6b0/oAkROANRIEnBhh0f8AEAimBzAG6iigOlAQgstk/?a=7073&ch=0&cr=0&dr=0&&br=0&bt=0&ft=xztlUQhhe6BMyqfPUupJD12Nzj&mime_type=audio_mpeg&rc=QGlAYSNz&btag=c0000000008000&dy_q=1730459166&l=20241101190536042B4BA35B800A864643&format=mp3",
        "source_timerange": {
            "start_offset": 0,
            "end_offset": 3.6399999999999864
        },
        "target_timerange": {
            "start_offset": 252.93,
            "end_offset": 256.57
        },
        "ignore_audio": false,
        "audio_path": null
    },
    {
        "segment_id": "4ad1294a984111efb1324b3fcf70ea3f",
        "text": "而四五个邪里邪气的青年则拿着酒瓶 耍着蝴蝶刀",
        "audio_url": "https://v3-vvecloud.yangyi08.com/187c1a48def17f1e7b30de3c0f785225/6724c42e/video/tos/cn/tos-cn-v-2cd6b0/oE2KE6BnAgAE1AReAEphfATCkdFDJFlYLD2tti/?a=7073&ch=0&cr=0&dr=0&&br=0&bt=0&ft=xztlUQhhe6BMyqfPUupJD12Nzj&mime_type=audio_mpeg&rc=QGlAYSNz&btag=c0000000008000&dy_q=1730459166&l=20241101190536042B4BA35B800A864643&format=mp3",
        "source_timerange": {
            "start_offset": 0,
            "end_offset": 4.7900000000000205
        },
        "target_timerange": {
            "start_offset": 256.57,
            "end_offset": 261.36
        },
        "ignore_audio": false,
        "audio_path": null
    },
    {
        "segment_id": "4ad12b16984111efb1324b3fcf70ea3f",
        "text": "挑衅地盯着我",
        "audio_url": "https://v6-vvecloud.yangyi08.com/5bbfdc7a6bf9d4c0ad420da71b5dd7e3/6724c42e/video/tos/cn/tos-cn-v-2cd6b0/oYdi7RAoEwIhAsAOdfzMkElizhAtaB2zkAiQBg/?a=7073&ch=0&cr=0&dr=0&&br=0&bt=0&ft=xztlUQhhe6BMyqfPUupJD12Nzj&mime_type=audio_mpeg&rc=QGlAYSNz&btag=c0000000008000&dy_q=1730459166&l=20241101190536042B4BA35B800A864643&format=mp3",
        "source_timerange": {
            "start_offset": 0,
            "end_offset": 1.759999999999991
        },
        "target_timerange": {
            "start_offset": 261.36,
            "end_offset": 263.12
        },
        "ignore_audio": false,
        "audio_path": null
    },
    {
        "segment_id": "4ad12cc4984111efb1324b3fcf70ea3f",
        "text": "“你们把秦霜弄到哪里去了 快把人交出来！”",
        "audio_url": "https://v3-vvecloud.yangyi08.com/b2592faeec9ca2032c7fc632aa906eef/6724c42e/video/tos/cn/tos-cn-v-2cd6b0/oozkAz8tEAldA0HREOAkpgBRAIih3hfgCQrBsi/?a=7073&ch=0&cr=0&dr=0&&br=0&bt=0&ft=xztlUQhhe6BMyqfPUupJD12Nzj&mime_type=audio_mpeg&rc=QGlAYSNz&btag=c0000000008000&dy_q=1730459166&l=20241101190536042B4BA35B800A864643&format=mp3",
        "source_timerange": {
            "start_offset": 0,
            "end_offset": 3.454999999999984
        },
        "target_timerange": {
            "start_offset": 263.12,
            "end_offset": 266.575
        },
        "ignore_audio": false,
        "audio_path": null
    },
    {
        "segment_id": "4ad12e4a984111efb1324b3fcf70ea3f",
        "text": "我愤怒地质问",
        "audio_url": "https://v3-vvecloud.yangyi08.com/b2592faeec9ca2032c7fc632aa906eef/6724c42e/video/tos/cn/tos-cn-v-2cd6b0/oozkAz8tEAldA0HREOAkpgBRAIih3hfgCQrBsi/?a=7073&ch=0&cr=0&dr=0&&br=0&bt=0&ft=xztlUQhhe6BMyqfPUupJD12Nzj&mime_type=audio_mpeg&rc=QGlAYSNz&btag=c0000000008000&dy_q=1730459166&l=20241101190536042B4BA35B800A864643&format=mp3",
        "source_timerange": {
            "start_offset": 3.454999999999984,
            "end_offset": 4.7900000000000205
        },
        "target_timerange": {
            "start_offset": 266.575,
            "end_offset": 267.91
        },
        "ignore_audio": true,
        "audio_path": null
    },
    {
        "segment_id": "4ad13034984111efb1324b3fcf70ea3f",
        "text": "黄毛青年闻言 邪魅一笑 手在两女身上摸索着：",
        "audio_url": "https://v3-vvecloud.yangyi08.com/29a3b9c5928cc05d7670e20662727af0/6724c42e/video/tos/cn/tos-cn-v-2cd6b0/o4AkhEOEBLZslAtQQifhB1AAlioFAzgRS6SIak/?a=7073&ch=0&cr=0&dr=0&&br=0&bt=0&ft=xztlUQhhe6BMyqfPUupJD12Nzj&mime_type=audio_mpeg&rc=QGlAYSNz&btag=c0000000008000&dy_q=1730459166&l=20241101190536042B4BA35B800A864643&format=mp3",
        "source_timerange": {
            "start_offset": 0,
            "end_offset": 4.819999999999993
        },
        "target_timerange": {
            "start_offset": 267.91,
            "end_offset": 272.73
        },
        "ignore_audio": false,
        "audio_path": null
    },
    {
        "segment_id": "4ad131d8984111efb1324b3fcf70ea3f",
        "text": "咦！你他娘的还挺有种啊！",
        "audio_url": "https://v26-vvecloud.yangyi08.com/740cdce27ce7f767cf6c8c725402bd61/6724c42e/video/tos/cn/tos-cn-v-2cd6b0/owAaAfANBgAziASROkitlNEhkAhEbcdQ41IDsB/?a=7073&ch=0&cr=0&dr=0&&br=0&bt=0&ft=xztlUQhhe6BMyqfPUupJD12Nzj&mime_type=audio_mpeg&rc=QGlAYSNz&btag=c0000000008000&dy_q=1730459166&l=20241101190536042B4BA35B800A864643&format=mp3",
        "source_timerange": {
            "start_offset": 0,
            "end_offset": 3.2799999999999727
        },
        "target_timerange": {
            "start_offset": 272.73,
            "end_offset": 276.01
        },
        "ignore_audio": false,
        "audio_path": null
    },
    {
        "segment_id": "4ad13354984111efb1324b3fcf70ea3f",
        "text": "秦霜她欠我一大笔钱 还害得我家破人亡",
        "audio_url": "https://v9-vvecloud.yangyi08.com/6ac24f9204ea30fae205c25e431fba52/6724c42e/video/tos/cn/tos-cn-v-2cd6b0/o88OvPwLAFAAAjeXAILoSbGG7elFfDWIBECBJI/?a=7073&ch=0&cr=0&dr=0&&br=0&bt=0&ft=xztlUQhhe6BMyqfPUupJD12Nzj&mime_type=audio_mpeg&rc=QGlAYSNz&btag=c0000000008000&dy_q=1730459166&l=20241101190536042B4BA35B800A864643&format=mp3",
        "source_timerange": {
            "start_offset": 0,
            "end_offset": 4
        },
        "target_timerange": {
            "start_offset": 276.01,
            "end_offset": 280.01
        },
        "ignore_audio": false,
        "audio_path": null
    },
    {
        "segment_id": "4ad134e4984111efb1324b3fcf70ea3f",
        "text": "我一定要报复她",
        "audio_url": "https://v26-vvecloud.yangyi08.com/7feff2ec7a4d8d0efde67a5afa9fa75d/6724c42e/video/tos/cn/tos-cn-v-2cd6b0/ow2wIGqc7GFDbUAtAWLeBjOABEUAhCfSIYeJJI/?a=7073&ch=0&cr=0&dr=0&&br=0&bt=0&ft=xztlUQhhe6BMyqfPUupJD12Nzj&mime_type=audio_mpeg&rc=QGlAYSNz&btag=c0000000008000&dy_q=1730459166&l=20241101190536042B4BA35B800A864643&format=mp3",
        "source_timerange": {
            "start_offset": 0,
            "end_offset": 1.3550000000000182
        },
        "target_timerange": {
            "start_offset": 280.01,
            "end_offset": 281.365
        },
        "ignore_audio": false,
        "audio_path": null
    },
    {
        "segment_id": "4ad136b0984111efb1324b3fcf70ea3f",
        "text": "既然你这么在乎她 她欠我的几百万",
        "audio_url": "https://v26-vvecloud.yangyi08.com/7feff2ec7a4d8d0efde67a5afa9fa75d/6724c42e/video/tos/cn/tos-cn-v-2cd6b0/ow2wIGqc7GFDbUAtAWLeBjOABEUAhCfSIYeJJI/?a=7073&ch=0&cr=0&dr=0&&br=0&bt=0&ft=xztlUQhhe6BMyqfPUupJD12Nzj&mime_type=audio_mpeg&rc=QGlAYSNz&btag=c0000000008000&dy_q=1730459166&l=20241101190536042B4BA35B800A864643&format=mp3",
        "source_timerange": {
            "start_offset": 1.3550000000000182,
            "end_offset": 4.25
        },
        "target_timerange": {
            "start_offset": 281.365,
            "end_offset": 284.26
        },
        "ignore_audio": true,
        "audio_path": null
    },
    {
        "segment_id": "4ad1389a984111efb1324b3fcf70ea3f",
        "text": "你替她还了…我心中一惊",
        "audio_url": "https://v9-vvecloud.yangyi08.com/219312753eed3d45e7912484f475dff0/6724c42e/video/tos/cn/tos-cn-v-2cd6b0/ociz3Fs0ABA5AIdEQEigkthBOfzyshligRAAkE/?a=7073&ch=0&cr=0&dr=0&&br=0&bt=0&ft=xztlUQhhe6BMyqfPUupJD12Nzj&mime_type=audio_mpeg&rc=QGlAYSNz&btag=c0000000008000&dy_q=1730459166&l=20241101190536042B4BA35B800A864643&format=mp3",
        "source_timerange": {
            "start_offset": 0,
            "end_offset": 2.3350000000000364
        },
        "target_timerange": {
            "start_offset": 284.26,
            "end_offset": 286.595
        },
        "ignore_audio": false,
        "audio_path": null
    },
    {
        "segment_id": "4ad13a48984111efb1324b3fcf70ea3f",
        "text": "刚要开口反驳 突然听到一声巨响",
        "audio_url": "https://v9-vvecloud.yangyi08.com/219312753eed3d45e7912484f475dff0/6724c42e/video/tos/cn/tos-cn-v-2cd6b0/ociz3Fs0ABA5AIdEQEigkthBOfzyshligRAAkE/?a=7073&ch=0&cr=0&dr=0&&br=0&bt=0&ft=xztlUQhhe6BMyqfPUupJD12Nzj&mime_type=audio_mpeg&rc=QGlAYSNz&btag=c0000000008000&dy_q=1730459166&l=20241101190536042B4BA35B800A864643&format=mp3",
        "source_timerange": {
            "start_offset": 2.3350000000000364,
            "end_offset": 5.329999999999984
        },
        "target_timerange": {
            "start_offset": 286.595,
            "end_offset": 289.59
        },
        "ignore_audio": true,
        "audio_path": null
    },
    {
        "segment_id": "4ad13bec984111efb1324b3fcf70ea3f",
        "text": "“蓬！”包间门被一股巨力撞开",
        "audio_url": "https://v9-vvecloud.yangyi08.com/7730a3a0b896526c54c946186713b2dc/6724c42e/video/tos/cn/tos-cn-v-2cd6b0/os8rAksilOEhkAhzBdAEItZiqfA9k0RhgBKAQV/?a=7073&ch=0&cr=0&dr=0&&br=0&bt=0&ft=xztlUQhhe6BMyqfPUupJD12Nzj&mime_type=audio_mpeg&rc=QGlAYSNz&btag=c0000000008000&dy_q=1730459166&l=20241101190536042B4BA35B800A864643&format=mp3",
        "source_timerange": {
            "start_offset": 0,
            "end_offset": 3.3800000000000523
        },
        "target_timerange": {
            "start_offset": 289.59,
            "end_offset": 292.97
        },
        "ignore_audio": false,
        "audio_path": null
    },
    {
        "segment_id": "4ad13d7c984111efb1324b3fcf70ea3f",
        "text": "阿东如同炮弹般冲了进来",
        "audio_url": "https://v6-vvecloud.yangyi08.com/8c17e6d5fb7e34ed92edae4de40a0725/6724c42e/video/tos/cn/tos-cn-v-2cd6b0/ok4A3AfE1gJDnd8DHIBYRSCfArIqFhiADzBLbJ/?a=7073&ch=0&cr=0&dr=0&&br=0&bt=0&ft=xztlUQhhe6BMyqfPUupJD12Nzj&mime_type=audio_mpeg&rc=QGlAYSNz&btag=c0000000008000&dy_q=1730459166&l=20241101190536042B4BA35B800A864643&format=mp3",
        "source_timerange": {
            "start_offset": 0,
            "end_offset": 2.6999999999999886
        },
        "target_timerange": {
            "start_offset": 292.97,
            "end_offset": 295.67
        },
        "ignore_audio": false,
        "audio_path": null
    },
    {
        "segment_id": "4ad13f0c984111efb1324b3fcf70ea3f",
        "text": "他怒火中烧 杀气腾腾地怒视着众人",
        "audio_url": "https://v26-vvecloud.yangyi08.com/bbc20757a637cc88692c69e0b3d7ade3/6724c42e/video/tos/cn/tos-cn-v-2cd6b0/owiIPJEk6AURAnB0AQfpiQBhAsEyhA0OglkztR/?a=7073&ch=0&cr=0&dr=0&&br=0&bt=0&ft=xztlUQhhe6BMyqfPUupJD12Nzj&mime_type=audio_mpeg&rc=QGlAYSNz&btag=c0000000008000&dy_q=1730459166&l=20241101190536042B4BA35B800A864643&format=mp3",
        "source_timerange": {
            "start_offset": 0,
            "end_offset": 3.740000000000009
        },
        "target_timerange": {
            "start_offset": 295.67,
            "end_offset": 299.41
        },
        "ignore_audio": false,
        "audio_path": null
    },
    {
        "segment_id": "4ad140a6984111efb1324b3fcf70ea3f",
        "text": "这个时候 我知道",
        "audio_url": "https://v6-vvecloud.yangyi08.com/2faaa06bffd02ae25e24b63341ec8634/6724c42e/video/tos/cn/tos-cn-v-2cd6b0/o4hkO2siAAIsAE1E6AizBtABQlh5AgqhflkRh8/?a=7073&ch=0&cr=0&dr=0&&br=0&bt=0&ft=xztlUQhhe6BMyqfPUupJD12Nzj&mime_type=audio_mpeg&rc=QGlAYSNz&btag=c0000000008000&dy_q=1730459166&l=20241101190536042B4BA35B800A864643&format=mp3",
        "source_timerange": {
            "start_offset": 0,
            "end_offset": 2.409999999999968
        },
        "target_timerange": {
            "start_offset": 299.41,
            "end_offset": 301.82
        },
        "ignore_audio": false,
        "audio_path": null
    },
    {
        "segment_id": "4ad14236984111efb1324b3fcf70ea3f",
        "text": "战斗即将开始 保护秦霜的时刻到了！",
        "audio_url": "https://v9-vvecloud.yangyi08.com/2d3dc8b422ef81c10784d90d52878f32/6724c42e/video/tos/cn/tos-cn-v-2cd6b0/oMhhE0i0AwhOk09kgABBEskzItzQtAARAli3fH/?a=7073&ch=0&cr=0&dr=0&&br=0&bt=0&ft=xztlUQhhe6BMyqfPUupJD12Nzj&mime_type=audio_mpeg&rc=QGlAYSNz&btag=c0000000008000&dy_q=1730459166&l=20241101190536042B4BA35B800A864643&format=mp3",
        "source_timerange": {
            "start_offset": 0,
            "end_offset": 3.8500000000000227
        },
        "target_timerange": {
            "start_offset": 301.82,
            "end_offset": 305.67
        },
        "ignore_audio": false,
        "audio_path": null
    }
]