[
    {
        "segment_id": "5d290734984111ef88363436ac12005a",
        "text": "我惊讶地看着阿东",
        "audio_url": "https://v6-vvecloud.yangyi08.com/4eb13ac27b8f1393a9b2a71da810f9f8/6724c44c/video/tos/cn/tos-cn-v-2cd6b0/o0Eff3IAa4FXYQWbBaje3S8mAxMBBCAIFAHO0J/?a=7073&ch=0&cr=0&dr=0&&br=0&bt=0&ft=xztlUQhhe6BMyqKPUupJD12Nzj&mime_type=audio_mpeg&rc=QGlAYSNz&btag=40000000008000&dy_q=1730459196&l=2024110119062544DEE187CE3721B234E4&format=mp3",
        "source_timerange": {
            "start_offset": 0,
            "end_offset": 2.02
        },
        "target_timerange": {
            "start_offset": 0,
            "end_offset": 2.02
        },
        "ignore_audio": false,
        "audio_path": null
    },
    {
        "segment_id": "5d290a90984111ef88363436ac12005a",
        "text": "他此时的表现简直像是战神般 威风凛凛",
        "audio_url": "https://v9-vvecloud.yangyi08.com/54495bc8258738b93246e1bf47cfab1e/6724c44c/video/tos/cn/tos-cn-v-2cd6b0/oMEAkn3iSBLAdgR49cECAFEAYtDifJAvGfu7jN/?a=7073&ch=0&cr=0&dr=0&&br=0&bt=0&ft=xztlUQhhe6BMyqKPUupJD12Nzj&mime_type=audio_mpeg&rc=QGlAYSNz&btag=40000000008000&dy_q=1730459196&l=2024110119062544DEE187CE3721B234E4&format=mp3",
        "source_timerange": {
            "start_offset": 0,
            "end_offset": 4.1
        },
        "target_timerange": {
            "start_offset": 2.02,
            "end_offset": 6.12
        },
        "ignore_audio": false,
        "audio_path": null
    },
    {
        "segment_id": "5d290ca2984111ef88363436ac12005a",
        "text": "门口的几个青年在他的攻击下毫无反抗之力",
        "audio_url": "https://v26-vvecloud.yangyi08.com/5f0b523b39de8b71a8e32c1ed697c937/6724c44c/video/tos/cn/tos-cn-v-2cd6b0/osWigRAkE1ImAsAdDf5rkElyzjAtABvykAiQBg/?a=7073&ch=0&cr=0&dr=0&&br=0&bt=0&ft=xztlUQhhe6BMyqKPUupJD12Nzj&mime_type=audio_mpeg&rc=QGlAYSNz&btag=40000000008000&dy_q=1730459196&l=2024110119062544DEE187CE3721B234E4&format=mp3",
        "source_timerange": {
            "start_offset": 0,
            "end_offset": 3.999999999999999
        },
        "target_timerange": {
            "start_offset": 6.12,
            "end_offset": 10.12
        },
        "ignore_audio": false,
        "audio_path": null
    },
    {
        "segment_id": "5d290e8c984111ef88363436ac12005a",
        "text": "接连倒下",
        "audio_url": "https://v26-vvecloud.yangyi08.com/a589c7bdb73b31e154e23acab8e9b2b8/6724c44c/video/tos/cn/tos-cn-v-2cd6b0/oIvsEmHidBBjtgAuAli4gIzAARuQDACkELflki/?a=7073&ch=0&cr=0&dr=0&&br=0&bt=0&ft=xztlUQhhe6BMyqKPUupJD12Nzj&mime_type=audio_mpeg&rc=QGlAYSNz&btag=40000000008000&dy_q=1730459196&l=2024110119062544DEE187CE3721B234E4&format=mp3",
        "source_timerange": {
            "start_offset": 0,
            "end_offset": 1.7300000000000004
        },
        "target_timerange": {
            "start_offset": 10.12,
            "end_offset": 11.85
        },
        "ignore_audio": false,
        "audio_path": null
    },
    {
        "segment_id": "5d291080984111ef88363436ac12005a",
        "text": "我的怒火在心中燃烧",
        "audio_url": "https://v9-vvecloud.yangyi08.com/b1b56390d6105bb6179054f20a34c34a/6724c44d/video/tos/cn/tos-cn-v-2cd6b0/osRTXdEQmgBibiltAsId3kfvAsBPgAAEpAjzpk/?a=7073&ch=0&cr=0&dr=0&&br=0&bt=0&ft=xztlUQhhe6BMyqzPUupJD12Nzj&mime_type=audio_mpeg&rc=QGlAYSNz&btag=40000000008000&dy_q=1730459197&l=2024110119062544DEE187CE3721B234E4&format=mp3",
        "source_timerange": {
            "start_offset": 0,
            "end_offset": 2.3000000000000007
        },
        "target_timerange": {
            "start_offset": 11.85,
            "end_offset": 14.15
        },
        "ignore_audio": false,
        "audio_path": null
    },
    {
        "segment_id": "5d2912ce984111ef88363436ac12005a",
        "text": "秦霜的安危让我无法冷静下来",
        "audio_url": "https://v3-vvecloud.yangyi08.com/b6870761290f0ca7ec097855b1a09743/6724c44c/video/tos/cn/tos-cn-v-2cd6b0/oEQAlilWzgAstWd1BBAGAS9kiAsEmEfIjRbNkH/?a=7073&ch=0&cr=0&dr=0&&br=0&bt=0&ft=xztlUQhhe6BMyqKPUupJD12Nzj&mime_type=audio_mpeg&rc=QGlAYSNz&btag=40000000008000&dy_q=1730459196&l=2024110119062544DEE187CE3721B234E4&format=mp3",
        "source_timerange": {
            "start_offset": 0,
            "end_offset": 2.839999999999998
        },
        "target_timerange": {
            "start_offset": 14.15,
            "end_offset": 16.99
        },
        "ignore_audio": false,
        "audio_path": null
    },
    {
        "segment_id": "5d2914a4984111ef88363436ac12005a",
        "text": "“你们把秦霜弄到哪里去了 快把人交出来！”",
        "audio_url": "https://v26-vvecloud.yangyi08.com/5f267ee849c9afdad8ca1969f729670d/6724c44c/video/tos/cn/tos-cn-v-2cd6b0/o4eibBFJ5IDQ71ACYoAgf6E4nJIZRWjANAHLbB/?a=7073&ch=0&cr=0&dr=0&&br=0&bt=0&ft=xztlUQhhe6BMyqKPUupJD12Nzj&mime_type=audio_mpeg&rc=QGlAYSNz&btag=40000000008000&dy_q=1730459196&l=2024110119062544DEE187CE3721B234E4&format=mp3",
        "source_timerange": {
            "start_offset": 0,
            "end_offset": 3.395000000000003
        },
        "target_timerange": {
            "start_offset": 16.99,
            "end_offset": 20.385
        },
        "ignore_audio": false,
        "audio_path": null
    },
    {
        "segment_id": "5d29167a984111ef88363436ac12005a",
        "text": "我愤怒地质问黄毛 心中满是焦虑",
        "audio_url": "https://v26-vvecloud.yangyi08.com/5f267ee849c9afdad8ca1969f729670d/6724c44c/video/tos/cn/tos-cn-v-2cd6b0/o4eibBFJ5IDQ71ACYoAgf6E4nJIZRWjANAHLbB/?a=7073&ch=0&cr=0&dr=0&&br=0&bt=0&ft=xztlUQhhe6BMyqKPUupJD12Nzj&mime_type=audio_mpeg&rc=QGlAYSNz&btag=40000000008000&dy_q=1730459196&l=2024110119062544DEE187CE3721B234E4&format=mp3",
        "source_timerange": {
            "start_offset": 3.395000000000003,
            "end_offset": 6.550000000000001
        },
        "target_timerange": {
            "start_offset": 20.385,
            "end_offset": 23.54
        },
        "ignore_audio": true,
        "audio_path": null
    },
    {
        "segment_id": "5d29185a984111ef88363436ac12005a",
        "text": "黄毛扬起酒瓶 想要攻击我们",
        "audio_url": "https://v26-vvecloud.yangyi08.com/e32f4666ffe127779299581519d3b70c/6724c44c/video/tos/cn/tos-cn-v-2cd6b0/o4isjAmzkBRigidAi0VlAItAmskfEz6ARgKQEB/?a=7073&ch=0&cr=0&dr=0&&br=0&bt=0&ft=xztlUQhhe6BMyqKPUupJD12Nzj&mime_type=audio_mpeg&rc=QGlAYSNz&btag=40000000008000&dy_q=1730459196&l=2024110119062544DEE187CE3721B234E4&format=mp3",
        "source_timerange": {
            "start_offset": 0,
            "end_offset": 3.1300000000000026
        },
        "target_timerange": {
            "start_offset": 23.54,
            "end_offset": 26.67
        },
        "ignore_audio": false,
        "audio_path": null
    },
    {
        "segment_id": "5d291a6c984111ef88363436ac12005a",
        "text": "他的动作让我心中一紧",
        "audio_url": "https://v26-vvecloud.yangyi08.com/95bdc712332277be48f29e5587a475aa/6724c44d/video/tos/cn/tos-cn-v-2cd6b0/oYAFtls1BEAjkk8sBWiAmnId5Af8zAgEiuQYRk/?a=7073&ch=0&cr=0&dr=0&&br=0&bt=0&ft=xztlUQhhe6BMyqzPUupJD12Nzj&mime_type=audio_mpeg&rc=QGlAYSNz&btag=40000000008000&dy_q=1730459197&l=2024110119062544DEE187CE3721B234E4&format=mp3",
        "source_timerange": {
            "start_offset": 0,
            "end_offset": 2.479999999999997
        },
        "target_timerange": {
            "start_offset": 26.67,
            "end_offset": 29.15
        },
        "ignore_audio": false,
        "audio_path": null
    },
    {
        "segment_id": "5d291c6a984111ef88363436ac12005a",
        "text": "知道这场斗争已经不可避免",
        "audio_url": "https://v9-vvecloud.yangyi08.com/a95dda6630aea0fab2878d8e268ae236/6724c44d/video/tos/cn/tos-cn-v-2cd6b0/ocNDuAjAEAZAEjFgntKCXtLfyYfRB7iJkEAoih/?a=7073&ch=0&cr=0&dr=0&&br=0&bt=0&ft=xztlUQhhe6BMyqzPUupJD12Nzj&mime_type=audio_mpeg&rc=QGlAYSNz&btag=40000000008000&dy_q=1730459197&l=2024110119062544DEE187CE3721B234E4&format=mp3",
        "source_timerange": {
            "start_offset": 0,
            "end_offset": 2.66
        },
        "target_timerange": {
            "start_offset": 29.15,
            "end_offset": 31.81
        },
        "ignore_audio": false,
        "audio_path": null
    },
    {
        "segment_id": "5d291e36984111ef88363436ac12005a",
        "text": "“说 小姐在哪里？”阿东的威严让黄毛感受到压力",
        "audio_url": "https://v26-vvecloud.yangyi08.com/a299156bfb759cbbf14c56f8ca01db80/6724c44d/video/tos/cn/tos-cn-v-2cd6b0/okUgAszEkbFB2AutQdmjlficiRBIAAk7vGykAE/?a=7073&ch=0&cr=0&dr=0&&br=0&bt=0&ft=xztlUQhhe6BMyqzPUupJD12Nzj&mime_type=audio_mpeg&rc=QGlAYSNz&btag=40000000008000&dy_q=1730459197&l=2024110119062544DEE187CE3721B234E4&format=mp3",
        "source_timerange": {
            "start_offset": 0,
            "end_offset": 4.970000000000002
        },
        "target_timerange": {
            "start_offset": 31.81,
            "end_offset": 36.78
        },
        "ignore_audio": false,
        "audio_path": null
    },
    {
        "segment_id": "5d291ff8984111ef88363436ac12005a",
        "text": "他的恐惧让我感到一丝欣慰",
        "audio_url": "https://v6-vvecloud.yangyi08.com/fc7acc615c39c0952eba81bb15e716b3/6724c44d/video/tos/cn/tos-cn-v-2cd6b0/o4IAJOuE0CWASAjRs0IFBLIBxbGefSAcXek3Ha/?a=7073&ch=0&cr=0&dr=0&&br=0&bt=0&ft=xztlUQhhe6BMyqzPUupJD12Nzj&mime_type=audio_mpeg&rc=QGlAYSNz&btag=40000000008000&dy_q=1730459197&l=2024110119062544DEE187CE3721B234E4&format=mp3",
        "source_timerange": {
            "start_offset": 0,
            "end_offset": 2.6599999999999966
        },
        "target_timerange": {
            "start_offset": 36.78,
            "end_offset": 39.44
        },
        "ignore_audio": false,
        "audio_path": null
    },
    {
        "segment_id": "5d2921a6984111ef88363436ac12005a",
        "text": "就在这时 一个魁梧的青年带着",
        "audio_url": "https://v6-vvecloud.yangyi08.com/49a74e7f5462fc0c186f59c92132c174/6724c44d/video/tos/cn/tos-cn-v-2cd6b0/oQqJ7jYEATRyAIZIeBFnCbBDgsNKAAlHfLJiU8/?a=7073&ch=0&cr=0&dr=0&&br=0&bt=0&ft=xztlUQhhe6BMyqzPUupJD12Nzj&mime_type=audio_mpeg&rc=QGlAYSNz&btag=40000000008000&dy_q=1730459197&l=2024110119062544DEE187CE3721B234E4&format=mp3",
        "source_timerange": {
            "start_offset": 0,
            "end_offset": 2.7850000000000037
        },
        "target_timerange": {
            "start_offset": 39.44,
            "end_offset": 42.225
        },
        "ignore_audio": false,
        "audio_path": null
    },
    {
        "segment_id": "5d292372984111ef88363436ac12005a",
        "text": "十几个西装革履的保安冲了进来",
        "audio_url": "https://v6-vvecloud.yangyi08.com/49a74e7f5462fc0c186f59c92132c174/6724c44d/video/tos/cn/tos-cn-v-2cd6b0/oQqJ7jYEATRyAIZIeBFnCbBDgsNKAAlHfLJiU8/?a=7073&ch=0&cr=0&dr=0&&br=0&bt=0&ft=xztlUQhhe6BMyqzPUupJD12Nzj&mime_type=audio_mpeg&rc=QGlAYSNz&btag=40000000008000&dy_q=1730459197&l=2024110119062544DEE187CE3721B234E4&format=mp3",
        "source_timerange": {
            "start_offset": 2.7850000000000037,
            "end_offset": 5.080000000000005
        },
        "target_timerange": {
            "start_offset": 42.225,
            "end_offset": 44.52
        },
        "ignore_audio": true,
        "audio_path": null
    },
    {
        "segment_id": "5d292548984111ef88363436ac12005a",
        "text": "他的眼神犀利 仿佛随时准备出手",
        "audio_url": "https://v6-vvecloud.yangyi08.com/cabb7a6ab9d0c7533fa0f699748da1d2/6724c44d/video/tos/cn/tos-cn-v-2cd6b0/o4gRE6mIARslqAB5gAQiZkj5EftXzdiA6As5kB/?a=7073&ch=0&cr=0&dr=0&&br=0&bt=0&ft=xztlUQhhe6BMyqzPUupJD12Nzj&mime_type=audio_mpeg&rc=QGlAYSNz&btag=40000000008000&dy_q=1730459197&l=2024110119062544DEE187CE3721B234E4&format=mp3",
        "source_timerange": {
            "start_offset": 0,
            "end_offset": 3.559999999999995
        },
        "target_timerange": {
            "start_offset": 44.52,
            "end_offset": 48.08
        },
        "ignore_audio": false,
        "audio_path": null
    },
    {
        "segment_id": "5d292714984111ef88363436ac12005a",
        "text": "我们刚才的战斗吸引了他的注意",
        "audio_url": "https://v6-vvecloud.yangyi08.com/5ac137a64ee763c2f5f8640a65891d7c/6724c44c/video/tos/cn/tos-cn-v-2cd6b0/o4bEQskECsAtgxz48ildR0iAkB1jfsB6IAAsAm/?a=7073&ch=0&cr=0&dr=0&&br=0&bt=0&ft=xztlUQhhe6BMyqKPUupJD12Nzj&mime_type=audio_mpeg&rc=QGlAYSNz&btag=40000000008000&dy_q=1730459196&l=2024110119062544DEE187CE3721B234E4&format=mp3",
        "source_timerange": {
            "start_offset": 0,
            "end_offset": 2.700000000000003
        },
        "target_timerange": {
            "start_offset": 48.08,
            "end_offset": 50.78
        },
        "ignore_audio": false,
        "audio_path": null
    },
    {
        "segment_id": "5d2928cc984111ef88363436ac12005a",
        "text": "局势变得更加复杂",
        "audio_url": "https://v3-vvecloud.yangyi08.com/96537a38e12f7dc1961588769fa8f32c/6724c44d/video/tos/cn/tos-cn-v-2cd6b0/okyAAk3EPjTyhEtiAbxh6IoyQkiBAPAl2ZSSd/?a=7073&ch=0&cr=0&dr=0&&br=0&bt=0&ft=xztlUQhhe6BMyqzPUupJD12Nzj&mime_type=audio_mpeg&rc=QGlAYSNz&btag=40000000008000&dy_q=1730459197&l=2024110119062544DEE187CE3721B234E4&format=mp3",
        "source_timerange": {
            "start_offset": 0,
            "end_offset": 2.229999999999997
        },
        "target_timerange": {
            "start_offset": 50.78,
            "end_offset": 53.01
        },
        "ignore_audio": false,
        "audio_path": null
    },
    {
        "segment_id": "5d292a8e984111ef88363436ac12005a",
        "text": "我听着陆大海的话 他似乎并不急于让手下冲上来",
        "audio_url": "https://v3-vvecloud.yangyi08.com/26a3d9c389781d54b83abf61434fa7e6/6724c44d/video/tos/cn/tos-cn-v-2cd6b0/ogAIBiQIE0zAbnRjEAkAimiAIkaGtgfl6MBtsd/?a=7073&ch=0&cr=0&dr=0&&br=0&bt=0&ft=xztlUQhhe6BMyqzPUupJD12Nzj&mime_type=audio_mpeg&rc=QGlAYSNz&btag=40000000008000&dy_q=1730459197&l=2024110119062544DEE187CE3721B234E4&format=mp3",
        "source_timerange": {
            "start_offset": 0,
            "end_offset": 4.390000000000001
        },
        "target_timerange": {
            "start_offset": 53.01,
            "end_offset": 57.4
        },
        "ignore_audio": false,
        "audio_path": null
    },
    {
        "segment_id": "5d292c5a984111ef88363436ac12005a",
        "text": "而是冷冷地提醒我：",
        "audio_url": "https://v26-vvecloud.yangyi08.com/1526e6362f2f6c08c20f53ad69b238f3/6724c44d/video/tos/cn/tos-cn-v-2cd6b0/owkSKAYiREPCjNufeAEA4cDnAG0FEA7LBgdYtJ/?a=7073&ch=0&cr=0&dr=0&&br=0&bt=0&ft=xztlUQhhe6BMyqzPUupJD12Nzj&mime_type=audio_mpeg&rc=QGlAYSNz&btag=40000000008000&dy_q=1730459197&l=2024110119062544DEE187CE3721B234E4&format=mp3",
        "source_timerange": {
            "start_offset": 0,
            "end_offset": 1.980000000000004
        },
        "target_timerange": {
            "start_offset": 57.4,
            "end_offset": 59.38
        },
        "ignore_audio": false,
        "audio_path": null
    },
    {
        "segment_id": "5d292e12984111ef88363436ac12005a",
        "text": "小子 我不管你跟秦家什么关系",
        "audio_url": "https://v26-vvecloud.yangyi08.com/b5a79076fc8b9e7e7841b32af9909b41/6724c44d/video/tos/cn/tos-cn-v-2cd6b0/o4vdgjfBmEzyIvzRCtRjAk4lkAjBhisAiAAdEQ/?a=7073&ch=0&cr=0&dr=0&&br=0&bt=0&ft=xztlUQhhe6BMyqzPUupJD12Nzj&mime_type=audio_mpeg&rc=QGlAYSNz&btag=40000000008000&dy_q=1730459197&l=2024110119062544DEE187CE3721B234E4&format=mp3",
        "source_timerange": {
            "start_offset": 0,
            "end_offset": 3.3799999999999955
        },
        "target_timerange": {
            "start_offset": 59.38,
            "end_offset": 62.76
        },
        "ignore_audio": false,
        "audio_path": null
    },
    {
        "segment_id": "5d292fc0984111ef88363436ac12005a",
        "text": "但这是我的场子 是德爷的地盘",
        "audio_url": "https://v26-vvecloud.yangyi08.com/613c399a26253554a9349a08f683aaca/6724c44c/video/tos/cn/tos-cn-v-2cd6b0/owfIERsiH4dUAAEk5AAvEz3tQAijgzBlkxBmAi/?a=7073&ch=0&cr=0&dr=0&&br=0&bt=0&ft=xztlUQhhe6BMyqKPUupJD12Nzj&mime_type=audio_mpeg&rc=QGlAYSNz&btag=40000000008000&dy_q=1730459196&l=2024110119062544DEE187CE3721B234E4&format=mp3",
        "source_timerange": {
            "start_offset": 0,
            "end_offset": 3.1999999999999957
        },
        "target_timerange": {
            "start_offset": 62.76,
            "end_offset": 65.96
        },
        "ignore_audio": false,
        "audio_path": null
    },
    {
        "segment_id": "5d2931e6984111ef88363436ac12005a",
        "text": "就算秦家家主来了 也得给个说法 听到这句话",
        "audio_url": "https://v26-vvecloud.yangyi08.com/e8fab7bc737d069f72d085b2f60c6b7c/6724c44d/video/tos/cn/tos-cn-v-2cd6b0/oofyBMeGaQWIjOOEa2eoCS4WSCOFrIxALAA3QA/?a=7073&ch=0&cr=0&dr=0&&br=0&bt=0&ft=xztlUQhhe6BMyqzPUupJD12Nzj&mime_type=audio_mpeg&rc=QGlAYSNz&btag=40000000008000&dy_q=1730459197&l=2024110119062544DEE187CE3721B234E4&format=mp3",
        "source_timerange": {
            "start_offset": 0,
            "end_offset": 4.140000000000001
        },
        "target_timerange": {
            "start_offset": 65.96,
            "end_offset": 70.1
        },
        "ignore_audio": false,
        "audio_path": null
    },
    {
        "segment_id": "5d2933b2984111ef88363436ac12005a",
        "text": "我心中一紧 德爷的名号让",
        "audio_url": "https://v6-vvecloud.yangyi08.com/92a1c8edcb59d7d78bcb1c43b7d4f5c1/6724c44d/video/tos/cn/tos-cn-v-2cd6b0/o4uztGsJABAyAIAFQEivktmBdflLpjligRAAkE/?a=7073&ch=0&cr=0&dr=0&&br=0&bt=0&ft=xztlUQhhe6BMyqzPUupJD12Nzj&mime_type=audio_mpeg&rc=QGlAYSNz&btag=40000000008000&dy_q=1730459197&l=2024110119062544DEE187CE3721B234E4&format=mp3",
        "source_timerange": {
            "start_offset": 0,
            "end_offset": 2.385000000000005
        },
        "target_timerange": {
            "start_offset": 70.1,
            "end_offset": 72.485
        },
        "ignore_audio": false,
        "audio_path": null
    },
    {
        "segment_id": "5d293588984111ef88363436ac12005a",
        "text": "我想起了他在江城的威名",
        "audio_url": "https://v6-vvecloud.yangyi08.com/92a1c8edcb59d7d78bcb1c43b7d4f5c1/6724c44d/video/tos/cn/tos-cn-v-2cd6b0/o4uztGsJABAyAIAFQEivktmBdflLpjligRAAkE/?a=7073&ch=0&cr=0&dr=0&&br=0&bt=0&ft=xztlUQhhe6BMyqzPUupJD12Nzj&mime_type=audio_mpeg&rc=QGlAYSNz&btag=40000000008000&dy_q=1730459197&l=2024110119062544DEE187CE3721B234E4&format=mp3",
        "source_timerange": {
            "start_offset": 2.385000000000005,
            "end_offset": 4.320000000000007
        },
        "target_timerange": {
            "start_offset": 72.485,
            "end_offset": 74.42
        },
        "ignore_audio": true,
        "audio_path": null
    },
    {
        "segment_id": "5d29374a984111ef88363436ac12005a",
        "text": "曾经我对这位地下大佬并不熟悉",
        "audio_url": "https://v3-vvecloud.yangyi08.com/925b5bb181f04095a62817c0b13e9807/6724c44d/video/tos/cn/tos-cn-v-2cd6b0/oIsBiA78lR8AZAskEAAjifCdmtkxzEB1BgGIQi/?a=7073&ch=0&cr=0&dr=0&&br=0&bt=0&ft=xztlUQhhe6BMyqzPUupJD12Nzj&mime_type=audio_mpeg&rc=QGlAYSNz&btag=40000000008000&dy_q=1730459197&l=2024110119062544DEE187CE3721B234E4&format=mp3",
        "source_timerange": {
            "start_offset": 0,
            "end_offset": 3.200000000000003
        },
        "target_timerange": {
            "start_offset": 74.42,
            "end_offset": 77.62
        },
        "ignore_audio": false,
        "audio_path": null
    },
    {
        "segment_id": "5d293920984111ef88363436ac12005a",
        "text": "但我知道 如果和他对上",
        "audio_url": "https://v26-vvecloud.yangyi08.com/5cd374fe0e9a94fc27d1ed939d8ae846/6724c44d/video/tos/cn/tos-cn-v-2cd6b0/oMmjkCaJLNAvlEEnAJFfABg4ktlAYEEzRADei7/?a=7073&ch=0&cr=0&dr=0&&br=0&bt=0&ft=xztlUQhhe6BMyqzPUupJD12Nzj&mime_type=audio_mpeg&rc=QGlAYSNz&btag=40000000008000&dy_q=1730459197&l=2024110119062544DEE187CE3721B234E4&format=mp3",
        "source_timerange": {
            "start_offset": 0,
            "end_offset": 2.8100000000000023
        },
        "target_timerange": {
            "start_offset": 77.62,
            "end_offset": 80.43
        },
        "ignore_audio": false,
        "audio_path": null
    },
    {
        "segment_id": "5d293ae2984111ef88363436ac12005a",
        "text": "那是绝对没有好果子吃的",
        "audio_url": "https://v3-vvecloud.yangyi08.com/f70129dbb08bcc81ac5b75107eb541eb/6724c44c/video/tos/cn/tos-cn-v-2cd6b0/o4nJByJbIALsBhniI7AJeAC9ARFHdNfEvgMDYE/?a=7073&ch=0&cr=0&dr=0&&br=0&bt=0&ft=xztlUQhhe6BMyqKPUupJD12Nzj&mime_type=audio_mpeg&rc=QGlAYSNz&btag=40000000008000&dy_q=1730459196&l=2024110119062544DEE187CE3721B234E4&format=mp3",
        "source_timerange": {
            "start_offset": 0,
            "end_offset": 2.4499999999999886
        },
        "target_timerange": {
            "start_offset": 80.43,
            "end_offset": 82.88
        },
        "ignore_audio": false,
        "audio_path": null
    },
    {
        "segment_id": "5d293c90984111ef88363436ac12005a",
        "text": "我逐渐冷静下来 想起了自己现在的力量",
        "audio_url": "https://v26-vvecloud.yangyi08.com/cabeb5903965e80a25a8b17cb4323080/6724c44c/video/tos/cn/tos-cn-v-2cd6b0/ogIkdiQkfBEvOsAcABIzIjActigmiRAb0lAED6/?a=7073&ch=0&cr=0&dr=0&&br=0&bt=0&ft=xztlUQhhe6BMyqKPUupJD12Nzj&mime_type=audio_mpeg&rc=QGlAYSNz&btag=40000000008000&dy_q=1730459196&l=2024110119062544DEE187CE3721B234E4&format=mp3",
        "source_timerange": {
            "start_offset": 0,
            "end_offset": 3.780000000000001
        },
        "target_timerange": {
            "start_offset": 82.88,
            "end_offset": 86.66
        },
        "ignore_audio": false,
        "audio_path": null
    },
    {
        "segment_id": "5d293e52984111ef88363436ac12005a",
        "text": "根本斗不过德爷 即使是秦霜也不是他的对手",
        "audio_url": "https://v9-vvecloud.yangyi08.com/13b6d93934896b6a854d3d7a59e32569/6724c44d/video/tos/cn/tos-cn-v-2cd6b0/oMfHtldmkAgi1BPEAEqA7ABscbsQjz3sBRIkiA/?a=7073&ch=0&cr=0&dr=0&&br=0&bt=0&ft=xztlUQhhe6BMyqzPUupJD12Nzj&mime_type=audio_mpeg&rc=QGlAYSNz&btag=40000000008000&dy_q=1730459197&l=2024110119062544DEE187CE3721B234E4&format=mp3",
        "source_timerange": {
            "start_offset": 0,
            "end_offset": 4.210000000000008
        },
        "target_timerange": {
            "start_offset": 86.66,
            "end_offset": 90.87
        },
        "ignore_audio": false,
        "audio_path": null
    },
    {
        "segment_id": "5d294000984111ef88363436ac12005a",
        "text": "我开口问道：这个黄毛说他抓了秦霜",
        "audio_url": "https://v6-vvecloud.yangyi08.com/a88c549bbd4f9fa0fb1e60a6c6d1186c/6724c44d/video/tos/cn/tos-cn-v-2cd6b0/osji0fLkRgsRD2AEAehEC7BNtAJFEN01naYzAA/?a=7073&ch=0&cr=0&dr=0&&br=0&bt=0&ft=xztlUQhhe6BMyqzPUupJD12Nzj&mime_type=audio_mpeg&rc=QGlAYSNz&btag=40000000008000&dy_q=1730459197&l=2024110119062544DEE187CE3721B234E4&format=mp3",
        "source_timerange": {
            "start_offset": 0,
            "end_offset": 3.5600000000000023
        },
        "target_timerange": {
            "start_offset": 90.87,
            "end_offset": 94.43
        },
        "ignore_audio": false,
        "audio_path": null
    },
    {
        "segment_id": "5d2941e0984111ef88363436ac12005a",
        "text": "我们便带人赶了过来要人 这有错吗？",
        "audio_url": "https://v6-vvecloud.yangyi08.com/66af5ec3c9fd59aca6168af47d89c2de/6724c44d/video/tos/cn/tos-cn-v-2cd6b0/ok2tjAAfnAAOSTxkBwFEgYD7iJCRFvAEEsfENL/?a=7073&ch=0&cr=0&dr=0&&br=0&bt=0&ft=xztlUQhhe6BMyqzPUupJD12Nzj&mime_type=audio_mpeg&rc=QGlAYSNz&btag=40000000008000&dy_q=1730459197&l=2024110119062544DEE187CE3721B234E4&format=mp3",
        "source_timerange": {
            "start_offset": 0,
            "end_offset": 3.0849999999999937
        },
        "target_timerange": {
            "start_offset": 94.43,
            "end_offset": 97.515
        },
        "ignore_audio": false,
        "audio_path": null
    },
    {
        "segment_id": "5d2943ca984111ef88363436ac12005a",
        "text": "我的语气严厉 希望能给他们施加一些压力",
        "audio_url": "https://v6-vvecloud.yangyi08.com/66af5ec3c9fd59aca6168af47d89c2de/6724c44d/video/tos/cn/tos-cn-v-2cd6b0/ok2tjAAfnAAOSTxkBwFEgYD7iJCRFvAEEsfENL/?a=7073&ch=0&cr=0&dr=0&&br=0&bt=0&ft=xztlUQhhe6BMyqzPUupJD12Nzj&mime_type=audio_mpeg&rc=QGlAYSNz&btag=40000000008000&dy_q=1730459197&l=2024110119062544DEE187CE3721B234E4&format=mp3",
        "source_timerange": {
            "start_offset": 3.0849999999999937,
            "end_offset": 6.339999999999989
        },
        "target_timerange": {
            "start_offset": 97.515,
            "end_offset": 100.77
        },
        "ignore_audio": true,
        "audio_path": null
    },
    {
        "segment_id": "5d294578984111ef88363436ac12005a",
        "text": "陆大海看向黄毛 那家伙吓得不敢直视 闭口不言",
        "audio_url": "https://v9-vvecloud.yangyi08.com/87ec1d936e09a8eadbbf3134b5a8b664/6724c44d/video/tos/cn/tos-cn-v-2cd6b0/oUAoSkPS02TyzEIyAAEAikxiuAjvZPdtQBB4i/?a=7073&ch=0&cr=0&dr=0&&br=0&bt=0&ft=xztlUQhhe6BMyqzPUupJD12Nzj&mime_type=audio_mpeg&rc=QGlAYSNz&btag=40000000008000&dy_q=1730459197&l=2024110119062544DEE187CE3721B234E4&format=mp3",
        "source_timerange": {
            "start_offset": 0,
            "end_offset": 4.930000000000007
        },
        "target_timerange": {
            "start_offset": 100.77,
            "end_offset": 105.7
        },
        "ignore_audio": false,
        "audio_path": null
    },
    {
        "segment_id": "5d294730984111ef88363436ac12005a",
        "text": "陆大海摆手示意：",
        "audio_url": "https://v3-vvecloud.yangyi08.com/0a4141dfee5b76a26309a31e0f6006b2/6724c44c/video/tos/cn/tos-cn-v-2cd6b0/o8BE7bWHI19iNfJB5JdDfAuRY7CFAALgAUNnId/?a=7073&ch=0&cr=0&dr=0&&br=0&bt=0&ft=xztlUQhhe6BMyqKPUupJD12Nzj&mime_type=audio_mpeg&rc=QGlAYSNz&btag=40000000008000&dy_q=1730459196&l=2024110119062544DEE187CE3721B234E4&format=mp3",
        "source_timerange": {
            "start_offset": 0,
            "end_offset": 2.049999999999997
        },
        "target_timerange": {
            "start_offset": 105.7,
            "end_offset": 107.75
        },
        "ignore_audio": false,
        "audio_path": null
    },
    {
        "segment_id": "5d2948fc984111ef88363436ac12005a",
        "text": "“先把人放开 再踩下去 他真死了！”",
        "audio_url": "https://v9-vvecloud.yangyi08.com/93fc0bb8bcdff93a1f9a4613c70bcd25/6724c44d/video/tos/cn/tos-cn-v-2cd6b0/oYkLqADRIETBjmtfzAEAZWBzAU9iigdlAQQstk/?a=7073&ch=0&cr=0&dr=0&&br=0&bt=0&ft=xztlUQhhe6BMyqzPUupJD12Nzj&mime_type=audio_mpeg&rc=QGlAYSNz&btag=40000000008000&dy_q=1730459197&l=2024110119062544DEE187CE3721B234E4&format=mp3",
        "source_timerange": {
            "start_offset": 0,
            "end_offset": 3.4849999999999994
        },
        "target_timerange": {
            "start_offset": 107.75,
            "end_offset": 111.235
        },
        "ignore_audio": false,
        "audio_path": null
    },
    {
        "segment_id": "5d294abe984111ef88363436ac12005a",
        "text": "他的态度让我心中感到一丝不安",
        "audio_url": "https://v9-vvecloud.yangyi08.com/93fc0bb8bcdff93a1f9a4613c70bcd25/6724c44d/video/tos/cn/tos-cn-v-2cd6b0/oYkLqADRIETBjmtfzAEAZWBzAU9iigdlAQQstk/?a=7073&ch=0&cr=0&dr=0&&br=0&bt=0&ft=xztlUQhhe6BMyqzPUupJD12Nzj&mime_type=audio_mpeg&rc=QGlAYSNz&btag=40000000008000&dy_q=1730459197&l=2024110119062544DEE187CE3721B234E4&format=mp3",
        "source_timerange": {
            "start_offset": 3.4849999999999994,
            "end_offset": 6.230000000000004
        },
        "target_timerange": {
            "start_offset": 111.235,
            "end_offset": 113.98
        },
        "ignore_audio": true,
        "audio_path": null
    },
    {
        "segment_id": "5d294c94984111ef88363436ac12005a",
        "text": "阿东却不以为意 冷冷说道：放心",
        "audio_url": "https://v3-vvecloud.yangyi08.com/f11969aaddebf4ab7f6c837d0aabbd49/6724c44d/video/tos/cn/tos-cn-v-2cd6b0/ocIAJgdpB4AEuAjzhlmiisVkEA3flAskiQBtR5/?a=7073&ch=0&cr=0&dr=0&&br=0&bt=0&ft=xztlUQhhe6BMyqzPUupJD12Nzj&mime_type=audio_mpeg&rc=QGlAYSNz&btag=40000000008000&dy_q=1730459197&l=2024110119062544DEE187CE3721B234E4&format=mp3",
        "source_timerange": {
            "start_offset": 0,
            "end_offset": 3.819999999999993
        },
        "target_timerange": {
            "start_offset": 113.98,
            "end_offset": 117.8
        },
        "ignore_audio": false,
        "audio_path": null
    },
    {
        "segment_id": "5d294e6a984111ef88363436ac12005a",
        "text": "我有分寸 要是下死手 这里没一个能活！",
        "audio_url": "https://v6-vvecloud.yangyi08.com/33174e83218c3151cdfc8c2432590bdf/6724c44c/video/tos/cn/tos-cn-v-2cd6b0/oERFqiBlEYRNAYA7qfrHkELfnjAtjDt5JAEgCA/?a=7073&ch=0&cr=0&dr=0&&br=0&bt=0&ft=xztlUQhhe6BMyqKPUupJD12Nzj&mime_type=audio_mpeg&rc=QGlAYSNz&btag=40000000008000&dy_q=1730459196&l=2024110119062544DEE187CE3721B234E4&format=mp3",
        "source_timerange": {
            "start_offset": 0,
            "end_offset": 4.180000000000007
        },
        "target_timerange": {
            "start_offset": 117.8,
            "end_offset": 121.98
        },
        "ignore_audio": false,
        "audio_path": null
    },
    {
        "segment_id": "5d297d36984111ef88363436ac12005a",
        "text": "但要是耍什么花招 他第一个死！",
        "audio_url": "https://v3-vvecloud.yangyi08.com/e831e9212407dd549d3b87411d7a71e1/6724c44d/video/tos/cn/tos-cn-v-2cd6b0/oELiBJAATFMeCBNAInt7RugAYEEdfAiDEktjvT/?a=7073&ch=0&cr=0&dr=0&&br=0&bt=0&ft=xztlUQhhe6BMyqzPUupJD12Nzj&mime_type=audio_mpeg&rc=QGlAYSNz&btag=40000000008000&dy_q=1730459197&l=2024110119062544DEE187CE3721B234E4&format=mp3",
        "source_timerange": {
            "start_offset": 0,
            "end_offset": 2.7449999999999903
        },
        "target_timerange": {
            "start_offset": 121.98,
            "end_offset": 124.725
        },
        "ignore_audio": false,
        "audio_path": null
    },
    {
        "segment_id": "5d297f8e984111ef88363436ac12005a",
        "text": "他的底气让我对他有了几分信任",
        "audio_url": "https://v3-vvecloud.yangyi08.com/e831e9212407dd549d3b87411d7a71e1/6724c44d/video/tos/cn/tos-cn-v-2cd6b0/oELiBJAATFMeCBNAInt7RugAYEEdfAiDEktjvT/?a=7073&ch=0&cr=0&dr=0&&br=0&bt=0&ft=xztlUQhhe6BMyqzPUupJD12Nzj&mime_type=audio_mpeg&rc=QGlAYSNz&btag=40000000008000&dy_q=1730459197&l=2024110119062544DEE187CE3721B234E4&format=mp3",
        "source_timerange": {
            "start_offset": 2.7449999999999903,
            "end_offset": 5.400000000000006
        },
        "target_timerange": {
            "start_offset": 124.725,
            "end_offset": 127.38
        },
        "ignore_audio": true,
        "audio_path": null
    },
    {
        "segment_id": "5d298164984111ef88363436ac12005a",
        "text": "在陆大海淡淡的解释中",
        "audio_url": "https://v6-vvecloud.yangyi08.com/58b3665c9b3a67af3c90be748f73d942/6724c44c/video/tos/cn/tos-cn-v-2cd6b0/okskBfxdRibmEjtI7AzQiAVkEZIlBA6AAgsAqw/?a=7073&ch=0&cr=0&dr=0&&br=0&bt=0&ft=xztlUQhhe6BMyqKPUupJD12Nzj&mime_type=audio_mpeg&rc=QGlAYSNz&btag=40000000008000&dy_q=1730459196&l=2024110119062544DEE187CE3721B234E4&format=mp3",
        "source_timerange": {
            "start_offset": 0,
            "end_offset": 2.480000000000018
        },
        "target_timerange": {
            "start_offset": 127.38,
            "end_offset": 129.86
        },
        "ignore_audio": false,
        "audio_path": null
    },
    {
        "segment_id": "5d29833a984111ef88363436ac12005a",
        "text": "我意识到：秦小姐怎么可能来这里",
        "audio_url": "https://v26-vvecloud.yangyi08.com/0edbb91c9df35cd6453bd02e117938c2/6724c44d/video/tos/cn/tos-cn-v-2cd6b0/o8AEgEiARYWEnCtfkAfJALjVz3nDiBF7N4vAGK/?a=7073&ch=0&cr=0&dr=0&&br=0&bt=0&ft=xztlUQhhe6BMyqzPUupJD12Nzj&mime_type=audio_mpeg&rc=QGlAYSNz&btag=40000000008000&dy_q=1730459197&l=2024110119062544DEE187CE3721B234E4&format=mp3",
        "source_timerange": {
            "start_offset": 0,
            "end_offset": 3.1699999999999875
        },
        "target_timerange": {
            "start_offset": 129.86,
            "end_offset": 133.03
        },
        "ignore_audio": false,
        "audio_path": null
    },
    {
        "segment_id": "5d298524984111ef88363436ac12005a",
        "text": "而且就算来了 我们看场子的人 肯定会知道的",
        "audio_url": "https://v9-vvecloud.yangyi08.com/f7f3163939ad7ac9b8cb9775c648b28d/6724c44d/video/tos/cn/tos-cn-v-2cd6b0/oQHiAJ7NzICLnAhRnebYJfAdmgElsBDBnI1RAF/?a=7073&ch=0&cr=0&dr=0&&br=0&bt=0&ft=xztlUQhhe6BMyqzPUupJD12Nzj&mime_type=audio_mpeg&rc=QGlAYSNz&btag=40000000008000&dy_q=1730459197&l=2024110119062544DEE187CE3721B234E4&format=mp3",
        "source_timerange": {
            "start_offset": 0,
            "end_offset": 4.430000000000007
        },
        "target_timerange": {
            "start_offset": 133.03,
            "end_offset": 137.46
        },
        "ignore_audio": false,
        "audio_path": null
    },
    {
        "segment_id": "5d298704984111ef88363436ac12005a",
        "text": "这一点 我可以担保 他们并没有把人绑来",
        "audio_url": "https://v6-vvecloud.yangyi08.com/e7f62fa7a77abaab67dfccb1bc7a7b0d/6724c44d/video/tos/cn/tos-cn-v-2cd6b0/osLi5JABQFWOCBNAKn17RigAYEIifApDIJbHje/?a=7073&ch=0&cr=0&dr=0&&br=0&bt=0&ft=xztlUQhhe6BMyqzPUupJD12Nzj&mime_type=audio_mpeg&rc=QGlAYSNz&btag=40000000008000&dy_q=1730459197&l=2024110119062544DEE187CE3721B234E4&format=mp3",
        "source_timerange": {
            "start_offset": 0,
            "end_offset": 4.179999999999978
        },
        "target_timerange": {
            "start_offset": 137.46,
            "end_offset": 141.64
        },
        "ignore_audio": false,
        "audio_path": null
    },
    {
        "segment_id": "5d2988bc984111ef88363436ac12005a",
        "text": "你们之间应该是误会！这让我心中稍安",
        "audio_url": "https://v3-vvecloud.yangyi08.com/e29d9b08ff322d4d0c02881c66773cb5/6724c44d/video/tos/cn/tos-cn-v-2cd6b0/osZkPAA0jEIypBTqxGiN2iAAEktToPJQSK90A/?a=7073&ch=0&cr=0&dr=0&&br=0&bt=0&ft=xztlUQhhe6BMyqzPUupJD12Nzj&mime_type=audio_mpeg&rc=QGlAYSNz&btag=40000000008000&dy_q=1730459197&l=2024110119062544DEE187CE3721B234E4&format=mp3",
        "source_timerange": {
            "start_offset": 0,
            "end_offset": 3.780000000000001
        },
        "target_timerange": {
            "start_offset": 141.64,
            "end_offset": 145.42
        },
        "ignore_audio": false,
        "audio_path": null
    },
    {
        "segment_id": "5d298a60984111ef88363436ac12005a",
        "text": "就在这时 我的手机响了 打破了现场的紧张气氛",
        "audio_url": "https://v9-vvecloud.yangyi08.com/51d72f9aa60e4e72a9911be92afb64d0/6724c44d/video/tos/cn/tos-cn-v-2cd6b0/o8A8bLkxDIBHkJhYCQFANYR7wBfenAAIE7gEiJ/?a=7073&ch=0&cr=0&dr=0&&br=0&bt=0&ft=xztlUQhhe6BMyqzPUupJD12Nzj&mime_type=audio_mpeg&rc=QGlAYSNz&btag=40000000008000&dy_q=1730459197&l=2024110119062544DEE187CE3721B234E4&format=mp3",
        "source_timerange": {
            "start_offset": 0,
            "end_offset": 4.75
        },
        "target_timerange": {
            "start_offset": 145.42,
            "end_offset": 150.17
        },
        "ignore_audio": false,
        "audio_path": null
    },
    {
        "segment_id": "5d298c18984111ef88363436ac12005a",
        "text": "看到是秦霜打来的 我顿时激动：霜 你在哪里？",
        "audio_url": "https://v3-vvecloud.yangyi08.com/dd22d9fff055b594f59d2fa36d047d80/6724c44d/video/tos/cn/tos-cn-v-2cd6b0/oMfk89gJfCEyPYAmADRnVjB2tEANFiAypLAEJu/?a=7073&ch=0&cr=0&dr=0&&br=0&bt=0&ft=xztlUQhhe6BMyqzPUupJD12Nzj&mime_type=audio_mpeg&rc=QGlAYSNz&btag=40000000008000&dy_q=1730459197&l=2024110119062544DEE187CE3721B234E4&format=mp3",
        "source_timerange": {
            "start_offset": 0,
            "end_offset": 5.110000000000014
        },
        "target_timerange": {
            "start_offset": 150.17,
            "end_offset": 155.28
        },
        "ignore_audio": false,
        "audio_path": null
    },
    {
        "segment_id": "5d298de4984111ef88363436ac12005a",
        "text": "你没事吧？电话那头的她显得有些蒙",
        "audio_url": "https://v3-vvecloud.yangyi08.com/9dc59e28b0887eda3edac468afe63620/6724c44d/video/tos/cn/tos-cn-v-2cd6b0/oIkijAZ2zcZAIq76qXEAQ5PyoAkwiPBAt5TSE/?a=7073&ch=0&cr=0&dr=0&&br=0&bt=0&ft=xztlUQhhe6BMyqzPUupJD12Nzj&mime_type=audio_mpeg&rc=QGlAYSNz&btag=40000000008000&dy_q=1730459197&l=2024110119062544DEE187CE3721B234E4&format=mp3",
        "source_timerange": {
            "start_offset": 0,
            "end_offset": 3.780000000000001
        },
        "target_timerange": {
            "start_offset": 155.28,
            "end_offset": 159.06
        },
        "ignore_audio": false,
        "audio_path": null
    },
    {
        "segment_id": "5d298fa6984111ef88363436ac12005a",
        "text": "回答道：我在公司啊！刚有一个紧急的重要会议",
        "audio_url": "https://v6-vvecloud.yangyi08.com/481b903f400ad79328ab3a4c4dc4a936/6724c44d/video/tos/cn/tos-cn-v-2cd6b0/oUkkEIoyPAcQj2Uitt3ZKTAjAj5ABSixPAEwv/?a=7073&ch=0&cr=0&dr=0&&br=0&bt=0&ft=xztlUQhhe6BMyqzPUupJD12Nzj&mime_type=audio_mpeg&rc=QGlAYSNz&btag=40000000008000&dy_q=1730459197&l=2024110119062544DEE187CE3721B234E4&format=mp3",
        "source_timerange": {
            "start_offset": 0,
            "end_offset": 4.460000000000008
        },
        "target_timerange": {
            "start_offset": 159.06,
            "end_offset": 163.52
        },
        "ignore_audio": false,
        "audio_path": null
    },
    {
        "segment_id": "5d2991ae984111ef88363436ac12005a",
        "text": "手机关机了 你怎么了？",
        "audio_url": "https://v6-vvecloud.yangyi08.com/1bc888cfdcc9f2cb781b44456e081867/6724c44c/video/tos/cn/tos-cn-v-2cd6b0/o0FnwGYOACA3ARi8gEFqJtND8fcfljLEAiBAkE/?a=7073&ch=0&cr=0&dr=0&&br=0&bt=0&ft=xztlUQhhe6BMyqKPUupJD12Nzj&mime_type=audio_mpeg&rc=QGlAYSNz&btag=40000000008000&dy_q=1730459196&l=2024110119062544DEE187CE3721B234E4&format=mp3",
        "source_timerange": {
            "start_offset": 0,
            "end_offset": 2.134999999999991
        },
        "target_timerange": {
            "start_offset": 163.52,
            "end_offset": 165.655
        },
        "ignore_audio": false,
        "audio_path": null
    },
    {
        "segment_id": "5d299366984111ef88363436ac12005a",
        "text": "我正想解释 陆大海却高声道：",
        "audio_url": "https://v6-vvecloud.yangyi08.com/1bc888cfdcc9f2cb781b44456e081867/6724c44c/video/tos/cn/tos-cn-v-2cd6b0/o0FnwGYOACA3ARi8gEFqJtND8fcfljLEAiBAkE/?a=7073&ch=0&cr=0&dr=0&&br=0&bt=0&ft=xztlUQhhe6BMyqKPUupJD12Nzj&mime_type=audio_mpeg&rc=QGlAYSNz&btag=40000000008000&dy_q=1730459196&l=2024110119062544DEE187CE3721B234E4&format=mp3",
        "source_timerange": {
            "start_offset": 2.134999999999991,
            "end_offset": 5.259999999999991
        },
        "target_timerange": {
            "start_offset": 165.655,
            "end_offset": 168.78
        },
        "ignore_audio": true,
        "audio_path": null
    },
    {
        "segment_id": "5d29953c984111ef88363436ac12005a",
        "text": "秦小姐 你的这位朋友",
        "audio_url": "https://v26-vvecloud.yangyi08.com/9a3163330d5ad6ce3c727a1f4bdab150/6724c44d/video/tos/cn/tos-cn-v-2cd6b0/o85ywiAajkZZPQABAEpIo2Pat2iAAjvITwSkE/?a=7073&ch=0&cr=0&dr=0&&br=0&bt=0&ft=xztlUQhhe6BMyqzPUupJD12Nzj&mime_type=audio_mpeg&rc=QGlAYSNz&btag=40000000008000&dy_q=1730459197&l=2024110119062544DEE187CE3721B234E4&format=mp3",
        "source_timerange": {
            "start_offset": 0,
            "end_offset": 2.6999999999999886
        },
        "target_timerange": {
            "start_offset": 168.78,
            "end_offset": 171.48
        },
        "ignore_audio": false,
        "audio_path": null
    },
    {
        "segment_id": "5d299726984111ef88363436ac12005a",
        "text": "砸了我的场子 伤了德爷的人 现在不给个说法",
        "audio_url": "https://v3-vvecloud.yangyi08.com/0b4aa22ac9c2e77d7e141057e3c6c9fb/6724c44d/video/tos/cn/tos-cn-v-2cd6b0/owEi2MEykijPQcTVAtASSIwjAaBYp6AZkyoPA/?a=7073&ch=0&cr=0&dr=0&&br=0&bt=0&ft=xztlUQhhe6BMyqzPUupJD12Nzj&mime_type=audio_mpeg&rc=QGlAYSNz&btag=40000000008000&dy_q=1730459197&l=2024110119062544DEE187CE3721B234E4&format=mp3",
        "source_timerange": {
            "start_offset": 0,
            "end_offset": 4.5400000000000205
        },
        "target_timerange": {
            "start_offset": 171.48,
            "end_offset": 176.02
        },
        "ignore_audio": false,
        "audio_path": null
    },
    {
        "segment_id": "5d2998de984111ef88363436ac12005a",
        "text": "恐怕这事不好了！",
        "audio_url": "https://v3-vvecloud.yangyi08.com/46427ac4f3da1327a3271a92d470bf73/6724c44d/video/tos/cn/tos-cn-v-2cd6b0/o0z2AJTABtziZibkSPIAXlEnkEAozutQygAjP/?a=7073&ch=0&cr=0&dr=0&&br=0&bt=0&ft=xztlUQhhe6BMyqzPUupJD12Nzj&mime_type=audio_mpeg&rc=QGlAYSNz&btag=40000000008000&dy_q=1730459197&l=2024110119062544DEE187CE3721B234E4&format=mp3",
        "source_timerange": {
            "start_offset": 0,
            "end_offset": 1.7949999999999875
        },
        "target_timerange": {
            "start_offset": 176.02,
            "end_offset": 177.815
        },
        "ignore_audio": false,
        "audio_path": null
    },
    {
        "segment_id": "5d299adc984111ef88363436ac12005a",
        "text": "我愤怒地抬头 满脸血污地瞪着陆大海",
        "audio_url": "https://v3-vvecloud.yangyi08.com/46427ac4f3da1327a3271a92d470bf73/6724c44d/video/tos/cn/tos-cn-v-2cd6b0/o0z2AJTABtziZibkSPIAXlEnkEAozutQygAjP/?a=7073&ch=0&cr=0&dr=0&&br=0&bt=0&ft=xztlUQhhe6BMyqzPUupJD12Nzj&mime_type=audio_mpeg&rc=QGlAYSNz&btag=40000000008000&dy_q=1730459197&l=2024110119062544DEE187CE3721B234E4&format=mp3",
        "source_timerange": {
            "start_offset": 1.7949999999999875,
            "end_offset": 5.109999999999985
        },
        "target_timerange": {
            "start_offset": 177.815,
            "end_offset": 181.13
        },
        "ignore_audio": true,
        "audio_path": null
    },
    {
        "segment_id": "5d299c94984111ef88363436ac12005a",
        "text": "心中一阵焦急",
        "audio_url": "https://v9-vvecloud.yangyi08.com/68ea3e4ae8a8e23fdd3c3be10954fab9/6724c44d/video/tos/cn/tos-cn-v-2cd6b0/o0tykIGwZKmgSVTjAA4AQARvkPj2iPoEBAziE/?a=7073&ch=0&cr=0&dr=0&&br=0&bt=0&ft=xztlUQhhe6BMyqzPUupJD12Nzj&mime_type=audio_mpeg&rc=QGlAYSNz&btag=40000000008000&dy_q=1730459197&l=2024110119062544DEE187CE3721B234E4&format=mp3",
        "source_timerange": {
            "start_offset": 0,
            "end_offset": 2.230000000000018
        },
        "target_timerange": {
            "start_offset": 181.13,
            "end_offset": 183.36
        },
        "ignore_audio": false,
        "audio_path": null
    },
    {
        "segment_id": "5d299e42984111ef88363436ac12005a",
        "text": "秦霜听到后 急忙道：“你们在哪里 我马上过来！”",
        "audio_url": "https://v26-vvecloud.yangyi08.com/fe972d34ea1ec56d03d6af39529480f6/6724c44d/video/tos/cn/tos-cn-v-2cd6b0/oU7aEAkQjaG8exAZtAAWxEASEFeOmeMna5jBWC/?a=7073&ch=0&cr=0&dr=0&&br=0&bt=0&ft=xztlUQhhe6BMyqzPUupJD12Nzj&mime_type=audio_mpeg&rc=QGlAYSNz&btag=40000000008000&dy_q=1730459197&l=2024110119062544DEE187CE3721B234E4&format=mp3",
        "source_timerange": {
            "start_offset": 0,
            "end_offset": 4.694999999999993
        },
        "target_timerange": {
            "start_offset": 183.36,
            "end_offset": 188.055
        },
        "ignore_audio": false,
        "audio_path": null
    },
    {
        "segment_id": "5d299ffa984111ef88363436ac12005a",
        "text": "“后海酒吧！”陆大海大声说道",
        "audio_url": "https://v26-vvecloud.yangyi08.com/fe972d34ea1ec56d03d6af39529480f6/6724c44d/video/tos/cn/tos-cn-v-2cd6b0/oU7aEAkQjaG8exAZtAAWxEASEFeOmeMna5jBWC/?a=7073&ch=0&cr=0&dr=0&&br=0&bt=0&ft=xztlUQhhe6BMyqzPUupJD12Nzj&mime_type=audio_mpeg&rc=QGlAYSNz&btag=40000000008000&dy_q=1730459197&l=2024110119062544DEE187CE3721B234E4&format=mp3",
        "source_timerange": {
            "start_offset": 4.694999999999993,
            "end_offset": 7.6699999999999875
        },
        "target_timerange": {
            "start_offset": 188.055,
            "end_offset": 191.03
        },
        "ignore_audio": true,
        "audio_path": null
    },
    {
        "segment_id": "5d29a1c6984111ef88363436ac12005a",
        "text": "“把电话给老板 我有话说！”",
        "audio_url": "https://v26-vvecloud.yangyi08.com/ae8e2dfde23080f4b0a1d6db62cbc0ed/6724c44d/video/tos/cn/tos-cn-v-2cd6b0/ogfnejRBi6DJbJ8ElbFY8IAHAEA5IgBvLTANFC/?a=7073&ch=0&cr=0&dr=0&&br=0&bt=0&ft=xztlUQhhe6BMyqzPUupJD12Nzj&mime_type=audio_mpeg&rc=QGlAYSNz&btag=40000000008000&dy_q=1730459197&l=2024110119062544DEE187CE3721B234E4&format=mp3",
        "source_timerange": {
            "start_offset": 0,
            "end_offset": 2.7649999999999864
        },
        "target_timerange": {
            "start_offset": 191.03,
            "end_offset": 193.795
        },
        "ignore_audio": false,
        "audio_path": null
    },
    {
        "segment_id": "5d29a37e984111ef88363436ac12005a",
        "text": "秦霜要求我把手机递给陆大海",
        "audio_url": "https://v26-vvecloud.yangyi08.com/ae8e2dfde23080f4b0a1d6db62cbc0ed/6724c44d/video/tos/cn/tos-cn-v-2cd6b0/ogfnejRBi6DJbJ8ElbFY8IAHAEA5IgBvLTANFC/?a=7073&ch=0&cr=0&dr=0&&br=0&bt=0&ft=xztlUQhhe6BMyqzPUupJD12Nzj&mime_type=audio_mpeg&rc=QGlAYSNz&btag=40000000008000&dy_q=1730459197&l=2024110119062544DEE187CE3721B234E4&format=mp3",
        "source_timerange": {
            "start_offset": 2.7649999999999864,
            "end_offset": 5.289999999999992
        },
        "target_timerange": {
            "start_offset": 193.795,
            "end_offset": 196.32
        },
        "ignore_audio": true,
        "audio_path": null
    },
    {
        "segment_id": "5d29a522984111ef88363436ac12005a",
        "text": "我心中无奈 却也只能照做",
        "audio_url": "https://v3-vvecloud.yangyi08.com/3c01a54b2b6dc1887f0a2846ec65a62a/6724c44d/video/tos/cn/tos-cn-v-2cd6b0/oIURnJEBOATpmJNHiFY8bQgIDfCfFAAWRBAnLI/?a=7073&ch=0&cr=0&dr=0&&br=0&bt=0&ft=xztlUQhhe6BMyqzPUupJD12Nzj&mime_type=audio_mpeg&rc=QGlAYSNz&btag=40000000008000&dy_q=1730459197&l=2024110119062544DEE187CE3721B234E4&format=mp3",
        "source_timerange": {
            "start_offset": 0,
            "end_offset": 2.950000000000017
        },
        "target_timerange": {
            "start_offset": 196.32,
            "end_offset": 199.27
        },
        "ignore_audio": false,
        "audio_path": null
    },
    {
        "segment_id": "5d29a6d0984111ef88363436ac12005a",
        "text": "陆大海接过电话 一脸戏谑地看着我和阿东",
        "audio_url": "https://v3-vvecloud.yangyi08.com/b5979acfd8ee45fa37bf13bb15d2ee87/6724c44d/video/tos/cn/tos-cn-v-2cd6b0/oUitAzRiAjyW2pZoETAIP7P33AEBASQkjskjA/?a=7073&ch=0&cr=0&dr=0&&br=0&bt=0&ft=xztlUQhhe6BMyqzPUupJD12Nzj&mime_type=audio_mpeg&rc=QGlAYSNz&btag=40000000008000&dy_q=1730459197&l=2024110119062544DEE187CE3721B234E4&format=mp3",
        "source_timerange": {
            "start_offset": 0,
            "end_offset": 4
        },
        "target_timerange": {
            "start_offset": 199.27,
            "end_offset": 203.27
        },
        "ignore_audio": false,
        "audio_path": null
    },
    {
        "segment_id": "5d29a87e984111ef88363436ac12005a",
        "text": "仿佛一切尽在他的掌控之中",
        "audio_url": "https://v9-vvecloud.yangyi08.com/642cb9de7fb73abbf77a5ce21442c903/6724c44d/video/tos/cn/tos-cn-v-2cd6b0/oo6AAYnEkeHDpBItg8NjLfEEFiCRAAJnzUmyAE/?a=7073&ch=0&cr=0&dr=0&&br=0&bt=0&ft=xztlUQhhe6BMyqzPUupJD12Nzj&mime_type=audio_mpeg&rc=QGlAYSNz&btag=40000000008000&dy_q=1730459197&l=2024110119062544DEE187CE3721B234E4&format=mp3",
        "source_timerange": {
            "start_offset": 0,
            "end_offset": 2.9199999999999875
        },
        "target_timerange": {
            "start_offset": 203.27,
            "end_offset": 206.19
        },
        "ignore_audio": false,
        "audio_path": null
    },
    {
        "segment_id": "5d29aa36984111ef88363436ac12005a",
        "text": "我越发觉得今天的事情让我像吃了苍蝇一样难受",
        "audio_url": "https://v6-vvecloud.yangyi08.com/e39b02cc131476f43848a15d21fbfb0d/6724c44d/video/tos/cn/tos-cn-v-2cd6b0/ogAAN7tAQiEjAykkPZBQITP25k2yASk3oiGEW/?a=7073&ch=0&cr=0&dr=0&&br=0&bt=0&ft=xztlUQhhe6BMyqzPUupJD12Nzj&mime_type=audio_mpeg&rc=QGlAYSNz&btag=40000000008000&dy_q=1730459197&l=2024110119062544DEE187CE3721B234E4&format=mp3",
        "source_timerange": {
            "start_offset": 0,
            "end_offset": 3.920000000000016
        },
        "target_timerange": {
            "start_offset": 206.19,
            "end_offset": 210.11
        },
        "ignore_audio": false,
        "audio_path": null
    },
    {
        "segment_id": "5d29ac16984111ef88363436ac12005a",
        "text": "似乎真的被人下套了",
        "audio_url": "https://v6-vvecloud.yangyi08.com/aced7c0abba7985ffe5aea6edbd8e59a/6724c44d/video/tos/cn/tos-cn-v-2cd6b0/oYZHoO6SkBPuIyAEUAPQkt9j1i2AyiABAwTE5/?a=7073&ch=0&cr=0&dr=0&&br=0&bt=0&ft=xztlUQhhe6BMyqzPUupJD12Nzj&mime_type=audio_mpeg&rc=QGlAYSNz&btag=40000000008000&dy_q=1730459197&l=2024110119062544DEE187CE3721B234E4&format=mp3",
        "source_timerange": {
            "start_offset": 0,
            "end_offset": 2.2299999999999898
        },
        "target_timerange": {
            "start_offset": 210.11,
            "end_offset": 212.34
        },
        "ignore_audio": false,
        "audio_path": null
    },
    {
        "segment_id": "5d29ae3c984111ef88363436ac12005a",
        "text": "面对陆大海等人的围困 或许阿东能全身而退",
        "audio_url": "https://v9-vvecloud.yangyi08.com/4d1c91744326be8a8ef890df91108e7f/6724c44d/video/tos/cn/tos-cn-v-2cd6b0/oEf8AzjALnxnEgExt3tFeihDB1AsJERkYlNCAA/?a=7073&ch=0&cr=0&dr=0&&br=0&bt=0&ft=xztlUQhhe6BMyqzPUupJD12Nzj&mime_type=audio_mpeg&rc=QGlAYSNz&btag=40000000008000&dy_q=1730459197&l=2024110119062544DEE187CE3721B234E4&format=mp3",
        "source_timerange": {
            "start_offset": 0,
            "end_offset": 4.280000000000001
        },
        "target_timerange": {
            "start_offset": 212.34,
            "end_offset": 216.62
        },
        "ignore_audio": false,
        "audio_path": null
    },
    {
        "segment_id": "5d29b008984111ef88363436ac12005a",
        "text": "但我却是走不了了",
        "audio_url": "https://v6-vvecloud.yangyi08.com/aefec2691908cfe92da5cf38e91e563b/6724c44d/video/tos/cn/tos-cn-v-2cd6b0/oELiWJAAIFR2CBNAfn88RogAYEEofAdDEktjzh/?a=7073&ch=0&cr=0&dr=0&&br=0&bt=0&ft=xztlUQhhe6BMyqzPUupJD12Nzj&mime_type=audio_mpeg&rc=QGlAYSNz&btag=40000000008000&dy_q=1730459197&l=2024110119062544DEE187CE3721B234E4&format=mp3",
        "source_timerange": {
            "start_offset": 0,
            "end_offset": 1.9399999999999977
        },
        "target_timerange": {
            "start_offset": 216.62,
            "end_offset": 218.56
        },
        "ignore_audio": false,
        "audio_path": null
    }
]